<?xml version="1.0" encoding="UTF-8" standalone="no"?>
<!DOCTYPE svg PUBLIC "-//W3C//DTD SVG 1.1//EN"
 "http://www.w3.org/Graphics/SVG/1.1/DTD/svg11.dtd">
<!-- Generated by graphviz version 2.38.0 (20140413.2041)
 -->
<!-- Title: FileLogger Pages: 1 -->
<!--zoomable 537 -->
<svg id="main" version="1.1" xmlns="http://www.w3.org/2000/svg" xmlns:xlink="http://www.w3.org/1999/xlink" xml:space="preserve" onload="init(evt)">
<style type="text/css"><![CDATA[
.edge:hover path { stroke: red; }
.edge:hover polygon { stroke: red; fill: red; }
]]></style>
<script type="text/javascript"><![CDATA[
var edges = document.getElementsByTagName('g');
if (edges && edges.length) {
  for (var i=0;i<edges.length;i++) {
    if (edges[i].id.substr(0,4)=='edge') {
      edges[i].setAttribute('class','edge');
    }
  }
}
]]></script>
        <defs>
                <circle id="rim" cx="0" cy="0" r="7"/>
                <circle id="rim2" cx="0" cy="0" r="3.5"/>
                <g id="zoomPlus">
                        <use xlink:href="#rim" fill="#404040">
                                <set attributeName="fill" to="#808080" begin="zoomplus.mouseover" end="zoomplus.mouseout"/>
                        </use>
                        <path d="M-4,0h8M0,-4v8" fill="none" stroke="white" stroke-width="1.5" pointer-events="none"/>
                </g>
                <g id="zoomMin">
                        <use xlink:href="#rim" fill="#404040">
                                <set attributeName="fill" to="#808080" begin="zoomminus.mouseover" end="zoomminus.mouseout"/>
                        </use>
                        <path d="M-4,0h8" fill="none" stroke="white" stroke-width="1.5" pointer-events="none"/>
                </g>
                <g id="dirArrow">
                        <path fill="none" stroke="white" stroke-width="1.5" d="M0,-3.0v7 M-2.5,-0.5L0,-3.0L2.5,-0.5"/>
                </g>
               <g id="resetDef">
                       <use xlink:href="#rim2" fill="#404040">
                               <set attributeName="fill" to="#808080" begin="reset.mouseover" end="reset.mouseout"/>
                       </use>
               </g>
        </defs>

<script type="text/javascript">
var viewWidth = 336;
var viewHeight = 537;
var sectionId = 'dynsection-1';
</script>
<script xlink:href="svgpan.js"/>
<svg id="graph" class="graph">
<g id="viewport">
<title>FileLogger</title>
<!-- Node1 -->
<g id="node1" class="node"><title>Node1</title>
<g id="a_node1"><a xlink:title="FileLogger.">
<polygon fill="#999999" stroke="#666666" points="173.5,-63 90.5,-63 90.5,-0 173.5,-0 173.5,-63"/>
<text text-anchor="middle" x="132" y="-51" font-family="Helvetica,sans-Serif" font-size="10.00">{FileLogger</text>
<text text-anchor="start" x="98.5" y="-40" font-family="Helvetica,sans-Serif" font-size="10.00">||+ FileLogger()</text>
<text text-anchor="start" x="98.5" y="-29" font-family="Helvetica,sans-Serif" font-size="10.00">+ ~FileLogger()</text>
<text text-anchor="start" x="98.5" y="-18" font-family="Helvetica,sans-Serif" font-size="10.00">+ log()</text>
<text text-anchor="middle" x="132" y="-7" font-family="Helvetica,sans-Serif" font-size="10.00">}</text>
</a>
</g>
</g>
<!-- Node2 -->
<g id="node2" class="node"><title>Node2</title>
<g id="a_node2"><a xlink:href="classore_1_1data_1_1_logger.html" target="_top" xlink:title="The Base Custom Log Handler class.">
<polygon fill="white" stroke="#666666" points="167.5,-184 96.5,-184 96.5,-110 167.5,-110 167.5,-184"/>
<text text-anchor="middle" x="132" y="-172" font-family="Helvetica,sans-Serif" font-size="10.00">{Logger</text>
<text text-anchor="start" x="104.5" y="-161" font-family="Helvetica,sans-Serif" font-size="10.00">||+ ~Logger()</text>
<text text-anchor="start" x="104.5" y="-150" font-family="Helvetica,sans-Serif" font-size="10.00">+ log()</text>
<text text-anchor="start" x="104.5" y="-139" font-family="Helvetica,sans-Serif" font-size="10.00">+ name()</text>
<text text-anchor="start" x="104.5" y="-128" font-family="Helvetica,sans-Serif" font-size="10.00"># Logger()</text>
<text text-anchor="middle" x="132" y="-117" font-family="Helvetica,sans-Serif" font-size="10.00">}</text>
</a>
</g>
</g>
<!-- Node2&#45;&gt;Node1 -->
<g id="edge1" class="edge"><title>Node2&#45;&gt;Node1</title>
<path fill="none" stroke="#63b8ff" d="M132,-99.6323C132,-87.3036 132,-74.298 132,-63.0512"/>
<polygon fill="none" stroke="#63b8ff" points="128.5,-99.7758 132,-109.776 135.5,-99.7759 128.5,-99.7758"/>
</g>
<!-- Node3 -->
<g id="node3" class="node"><title>Node3</title>
<g id="a_node3"><a xlink:title=" ">
<polygon fill="white" stroke="#666666" points="77,-261 33,-261 33,-231 77,-231 77,-261"/>
<text text-anchor="middle" x="55" y="-249" font-family="Helvetica,sans-Serif" font-size="10.00">{string</text>
<text text-anchor="middle" x="55" y="-238" font-family="Helvetica,sans-Serif" font-size="10.00">||}</text>
</a>
</g>
</g>
<!-- Node3&#45;&gt;Node1 -->
<g id="edge4" class="edge"><title>Node3&#45;&gt;Node1</title>
<path fill="none" stroke="#404040" d="M49.135,-230.816C39.5459,-205.332 23.3526,-150.666 42,-110 50.2489,-92.011 64.9627,-76.6173 80.1345,-64.4014"/>
<polygon fill="none" stroke="#404040" points="80.5463,-64.0891 82.9096,-57.2763 90.1073,-56.8374 87.744,-63.6503 80.5463,-64.0891"/>
<text text-anchor="middle" x="64.5" y="-150" font-family="Helvetica,sans-Serif" font-size="10.00"> +name</text>
<text text-anchor="middle" x="64.5" y="-139" font-family="Helvetica,sans-Serif" font-size="10.00">&#45;filename_</text>
</g>
<!-- Node3&#45;&gt;Node2 -->
<g id="edge2" class="edge"><title>Node3&#45;&gt;Node2</title>
<path fill="none" stroke="#404040" d="M66.3616,-230.687C74.1714,-220.849 85.0126,-207.192 95.6363,-193.809"/>
<polygon fill="none" stroke="#404040" points="95.8261,-193.57 96.4236,-186.383 103.287,-184.171 102.689,-191.357 95.8261,-193.57"/>
<text text-anchor="middle" x="107" y="-205" font-family="Helvetica,sans-Serif" font-size="10.00"> &#45;name_</text>
</g>
<!-- Node4 -->
<g id="node4" class="node"><title>Node4</title>
<g id="a_node4"><a xlink:title=" ">
<polygon fill="white" stroke="#666666" points="110,-328 0,-328 0,-298 110,-298 110,-328"/>
<text text-anchor="middle" x="55" y="-316" font-family="Helvetica,sans-Serif" font-size="10.00">{basic_string&lt; Char &gt;</text>
<text text-anchor="middle" x="55" y="-305" font-family="Helvetica,sans-Serif" font-size="10.00">||}</text>
</a>
</g>
</g>
<!-- Node4&#45;&gt;Node3 -->
<g id="edge3" class="edge"><title>Node4&#45;&gt;Node3</title>
<path fill="none" stroke="#63b8ff" d="M55,-287.608C55,-278.654 55,-268.823 55,-261.077"/>
<polygon fill="none" stroke="#63b8ff" points="51.5001,-287.896 55,-297.896 58.5001,-287.896 51.5001,-287.896"/>
</g>
<!-- Node5 -->
<g id="node5" class="node"><title>Node5</title>
<g id="a_node5"><a xlink:title=" ">
<polygon fill="white" stroke="#666666" points="238,-162 186,-162 186,-132 238,-132 238,-162"/>
<text text-anchor="middle" x="212" y="-150" font-family="Helvetica,sans-Serif" font-size="10.00">{fstream</text>
<text text-anchor="middle" x="212" y="-139" font-family="Helvetica,sans-Serif" font-size="10.00">||}</text>
</a>
</g>
</g>
<!-- Node5&#45;&gt;Node1 -->
<g id="edge5" class="edge"><title>Node5&#45;&gt;Node1</title>
<path fill="none" stroke="#404040" d="M201.868,-131.625C191.581,-117.031 175.171,-93.7493 160.839,-73.4158"/>
<polygon fill="none" stroke="#404040" points="160.706,-73.2267 153.98,-70.627 153.793,-63.4183 160.519,-66.018 160.706,-73.2267"/>
<text text-anchor="middle" x="186" y="-84" font-family="Helvetica,sans-Serif" font-size="10.00"> &#45;fout_</text>
</g>
<!-- Node6 -->
<g id="node6" class="node"><title>Node6</title>
<g id="a_node6"><a xlink:title=" ">
<polygon fill="white" stroke="#666666" points="271.5,-261 152.5,-261 152.5,-231 271.5,-231 271.5,-261"/>
<text text-anchor="middle" x="212" y="-249" font-family="Helvetica,sans-Serif" font-size="10.00">{basic_fstream&lt; Char &gt;</text>
<text text-anchor="middle" x="212" y="-238" font-family="Helvetica,sans-Serif" font-size="10.00">||}</text>
</a>
</g>
</g>
<!-- Node6&#45;&gt;Node5 -->
<g id="edge6" class="edge"><title>Node6&#45;&gt;Node5</title>
<path fill="none" stroke="#63b8ff" d="M212,-220.644C212,-202.151 212,-177.37 212,-162.056"/>
<polygon fill="none" stroke="#63b8ff" points="208.5,-220.687 212,-230.687 215.5,-220.687 208.5,-220.687"/>
</g>
<!-- Node7 -->
<g id="node7" class="node"><title>Node7</title>
<g id="a_node7"><a xlink:title=" ">
<polygon fill="white" stroke="#666666" points="274,-328 150,-328 150,-298 274,-298 274,-328"/>
<text text-anchor="middle" x="212" y="-316" font-family="Helvetica,sans-Serif" font-size="10.00">{basic_iostream&lt; Char &gt;</text>
<text text-anchor="middle" x="212" y="-305" font-family="Helvetica,sans-Serif" font-size="10.00">||}</text>
</a>
</g>
</g>
<!-- Node7&#45;&gt;Node6 -->
<g id="edge7" class="edge"><title>Node7&#45;&gt;Node6</title>
<path fill="none" stroke="#63b8ff" d="M212,-287.608C212,-278.654 212,-268.823 212,-261.077"/>
<polygon fill="none" stroke="#63b8ff" points="208.5,-287.896 212,-297.896 215.5,-287.896 208.5,-287.896"/>
</g>
<!-- Node8 -->
<g id="node8" class="node"><title>Node8</title>
<g id="a_node8"><a xlink:title=" ">
<polygon fill="white" stroke="#666666" points="187.5,-395 68.5,-395 68.5,-365 187.5,-365 187.5,-395"/>
<text text-anchor="middle" x="128" y="-383" font-family="Helvetica,sans-Serif" font-size="10.00">{basic_istream&lt; Char &gt;</text>
<text text-anchor="middle" x="128" y="-372" font-family="Helvetica,sans-Serif" font-size="10.00">||}</text>
</a>
</g>
</g>
<!-- Node8&#45;&gt;Node7 -->
<g id="edge8" class="edge"><title>Node8&#45;&gt;Node7</title>
<path fill="none" stroke="#63b8ff" d="M154.276,-358.668C167.12,-348.728 182.258,-337.014 193.809,-328.077"/>
<polygon fill="none" stroke="#63b8ff" points="151.994,-356.008 146.227,-364.896 156.277,-361.544 151.994,-356.008"/>
</g>
<!-- Node9 -->
<g id="node9" class="node"><title>Node9</title>
<g id="a_node9"><a xlink:title=" ">
<polygon fill="white" stroke="#666666" points="217.5,-462 118.5,-462 118.5,-432 217.5,-432 217.5,-462"/>
<text text-anchor="middle" x="168" y="-450" font-family="Helvetica,sans-Serif" font-size="10.00">{basic_ios&lt; Char &gt;</text>
<text text-anchor="middle" x="168" y="-439" font-family="Helvetica,sans-Serif" font-size="10.00">||}</text>
</a>
</g>
</g>
<!-- Node9&#45;&gt;Node8 -->
<g id="edge9" class="edge"><title>Node9&#45;&gt;Node8</title>
<path fill="none" stroke="#63b8ff" d="M154.072,-423.367C148.283,-413.959 141.744,-403.333 136.662,-395.077"/>
<polygon fill="none" stroke="#63b8ff" points="151.099,-425.214 159.321,-431.896 157.06,-421.545 151.099,-425.214"/>
</g>
<!-- Node11 -->
<g id="node11" class="node"><title>Node11</title>
<g id="a_node11"><a xlink:title=" ">
<polygon fill="white" stroke="#666666" points="328,-395 206,-395 206,-365 328,-365 328,-395"/>
<text text-anchor="middle" x="267" y="-383" font-family="Helvetica,sans-Serif" font-size="10.00">{basic_ostream&lt; Char &gt;</text>
<text text-anchor="middle" x="267" y="-372" font-family="Helvetica,sans-Serif" font-size="10.00">||}</text>
</a>
</g>
</g>
<!-- Node9&#45;&gt;Node11 -->
<g id="edge12" class="edge"><title>Node9&#45;&gt;Node11</title>
<path fill="none" stroke="#63b8ff" d="M198.106,-426.234C213.425,-416.176 231.688,-404.185 245.56,-395.077"/>
<polygon fill="none" stroke="#63b8ff" points="195.92,-423.482 189.482,-431.896 199.762,-429.333 195.92,-423.482"/>
</g>
<!-- Node10 -->
<g id="node10" class="node"><title>Node10</title>
<g id="a_node10"><a xlink:title=" ">
<polygon fill="white" stroke="#666666" points="197.5,-529 138.5,-529 138.5,-499 197.5,-499 197.5,-529"/>
<text text-anchor="middle" x="168" y="-517" font-family="Helvetica,sans-Serif" font-size="10.00">{ios_base</text>
<text text-anchor="middle" x="168" y="-506" font-family="Helvetica,sans-Serif" font-size="10.00">||}</text>
</a>
</g>
</g>
<!-- Node10&#45;&gt;Node9 -->
<g id="edge10" class="edge"><title>Node10&#45;&gt;Node9</title>
<path fill="none" stroke="#63b8ff" d="M168,-488.608C168,-479.654 168,-469.823 168,-462.077"/>
<polygon fill="none" stroke="#63b8ff" points="164.5,-488.896 168,-498.896 171.5,-488.896 164.5,-488.896"/>
</g>
<!-- Node11&#45;&gt;Node7 -->
<g id="edge11" class="edge"><title>Node11&#45;&gt;Node7</title>
<path fill="none" stroke="#63b8ff" d="M248.584,-357.236C240.447,-347.619 231.114,-336.589 223.911,-328.077"/>
<polygon fill="none" stroke="#63b8ff" points="245.935,-359.523 255.066,-364.896 251.278,-355.001 245.935,-359.523"/>
</g>
</g>
</svg>
        <g id="navigator" transform="translate(0 0)" fill="#404254">
                <rect fill="#f2f5e9" fill-opacity="0.5" stroke="#606060" stroke-width=".5" x="0" y="0" width="60" height="60"/>
                <use id="zoomplus" xlink:href="#zoomPlus" x="17" y="9" onmousedown="handleZoom(evt,'in')"/>
                <use id="zoomminus" xlink:href="#zoomMin" x="42" y="9" onmousedown="handleZoom(evt,'out')"/>
                <use id="reset" xlink:href="#resetDef" x="30" y="36" onmousedown="handleReset()"/>
                <g id="arrowUp" xlink:href="#dirArrow" transform="translate(30 24)" onmousedown="handlePan(0,-1)">
                  <use xlink:href="#rim" fill="#404040">
                        <set attributeName="fill" to="#808080" begin="arrowUp.mouseover" end="arrowUp.mouseout"/>
                  </use>
                  <path fill="none" stroke="white" stroke-width="1.5" d="M0,-3.0v7 M-2.5,-0.5L0,-3.0L2.5,-0.5"/>
                </g>
                <g id="arrowRight" xlink:href="#dirArrow" transform="rotate(90) translate(36 -43)" onmousedown="handlePan(1,0)">
                  <use xlink:href="#rim" fill="#404040">
                        <set attributeName="fill" to="#808080" begin="arrowRight.mouseover" end="arrowRight.mouseout"/>
                  </use>
                  <path fill="none" stroke="white" stroke-width="1.5" d="M0,-3.0v7 M-2.5,-0.5L0,-3.0L2.5,-0.5"/>
                </g>
                <g id="arrowDown" xlink:href="#dirArrow" transform="rotate(180) translate(-30 -48)" onmousedown="handlePan(0,1)">
                  <use xlink:href="#rim" fill="#404040">
                        <set attributeName="fill" to="#808080" begin="arrowDown.mouseover" end="arrowDown.mouseout"/>
                  </use>
                  <path fill="none" stroke="white" stroke-width="1.5" d="M0,-3.0v7 M-2.5,-0.5L0,-3.0L2.5,-0.5"/>
                </g>
                <g id="arrowLeft" xlink:href="#dirArrow" transform="rotate(270) translate(-36 17)" onmousedown="handlePan(-1,0)">
                  <use xlink:href="#rim" fill="#404040">
                        <set attributeName="fill" to="#808080" begin="arrowLeft.mouseover" end="arrowLeft.mouseout"/>
                  </use>
                  <path fill="none" stroke="white" stroke-width="1.5" d="M0,-3.0v7 M-2.5,-0.5L0,-3.0L2.5,-0.5"/>
                </g>
        </g>
        <svg viewBox="0 0 15 15" width="100%" height="30px" preserveAspectRatio="xMaxYMin meet">
         <g id="arrow_out" transform="scale(0.3 0.3)">
          <a xlink:href="classore_1_1data_1_1_file_logger__coll__graph_org.svg" target="_base">
           <rect id="button" ry="5" rx="5" y="6" x="6" height="38" width="38"
                fill="#f2f5e9" fill-opacity="0.5" stroke="#606060" stroke-width="1.0"/>
           <path id="arrow"
             d="M 11.500037,31.436501 C 11.940474,20.09759 22.043105,11.32322 32.158766,21.979434 L 37.068811,17.246167 C 37.068811,17.246167 37.088388,32 37.088388,32 L 22.160133,31.978069 C 22.160133,31.978069 26.997745,27.140456 26.997745,27.140456 C 18.528582,18.264221 13.291696,25.230495 11.500037,31.436501 z"
             style="fill:#404040;"/>
          </a>
         </g>
        </svg>
</svg>
