<?xml version="1.0" encoding="UTF-8" standalone="no"?>
<!DOCTYPE svg PUBLIC "-//W3C//DTD SVG 1.1//EN"
 "http://www.w3.org/Graphics/SVG/1.1/DTD/svg11.dtd">
<!-- Generated by graphviz version 2.38.0 (20140413.2041)
 -->
<!-- Title: IborIndexConvention Pages: 1 -->
<!--zoomable 534 -->
<svg id="main" version="1.1" xmlns="http://www.w3.org/2000/svg" xmlns:xlink="http://www.w3.org/1999/xlink" xml:space="preserve" onload="init(evt)">
<style type="text/css"><![CDATA[
.edge:hover path { stroke: red; }
.edge:hover polygon { stroke: red; fill: red; }
]]></style>
<script type="text/javascript"><![CDATA[
var edges = document.getElementsByTagName('g');
if (edges && edges.length) {
  for (var i=0;i<edges.length;i++) {
    if (edges[i].id.substr(0,4)=='edge') {
      edges[i].setAttribute('class','edge');
    }
  }
}
]]></script>
        <defs>
                <circle id="rim" cx="0" cy="0" r="7"/>
                <circle id="rim2" cx="0" cy="0" r="3.5"/>
                <g id="zoomPlus">
                        <use xlink:href="#rim" fill="#404040">
                                <set attributeName="fill" to="#808080" begin="zoomplus.mouseover" end="zoomplus.mouseout"/>
                        </use>
                        <path d="M-4,0h8M0,-4v8" fill="none" stroke="white" stroke-width="1.5" pointer-events="none"/>
                </g>
                <g id="zoomMin">
                        <use xlink:href="#rim" fill="#404040">
                                <set attributeName="fill" to="#808080" begin="zoomminus.mouseover" end="zoomminus.mouseout"/>
                        </use>
                        <path d="M-4,0h8" fill="none" stroke="white" stroke-width="1.5" pointer-events="none"/>
                </g>
                <g id="dirArrow">
                        <path fill="none" stroke="white" stroke-width="1.5" d="M0,-3.0v7 M-2.5,-0.5L0,-3.0L2.5,-0.5"/>
                </g>
               <g id="resetDef">
                       <use xlink:href="#rim2" fill="#404040">
                               <set attributeName="fill" to="#808080" begin="reset.mouseover" end="reset.mouseout"/>
                       </use>
               </g>
        </defs>

<script type="text/javascript">
var viewWidth = 521;
var viewHeight = 534;
var sectionId = 'dynsection-1';
</script>
<script xlink:href="svgpan.js"/>
<svg id="graph" class="graph">
<g id="viewport">
<title>IborIndexConvention</title>
<!-- Node1 -->
<g id="node1" class="node"><title>Node1</title>
<g id="a_node1"><a xlink:title="Container for storing Ibor Index conventions.">
<polygon fill="#999999" stroke="#666666" points="366,-140 231,-140 231,-0 366,-0 366,-140"/>
<text text-anchor="middle" x="298.5" y="-128" font-family="Helvetica,sans-Serif" font-size="10.00">{IborIndexConvention</text>
<text text-anchor="start" x="239" y="-117" font-family="Helvetica,sans-Serif" font-size="10.00">||+ IborIndexConvention()</text>
<text text-anchor="start" x="239" y="-106" font-family="Helvetica,sans-Serif" font-size="10.00">+ IborIndexConvention()</text>
<text text-anchor="start" x="239" y="-95" font-family="Helvetica,sans-Serif" font-size="10.00">+ fixingCalendar()</text>
<text text-anchor="start" x="239" y="-84" font-family="Helvetica,sans-Serif" font-size="10.00">+ dayCounter()</text>
<text text-anchor="start" x="239" y="-73" font-family="Helvetica,sans-Serif" font-size="10.00">+ settlementDays()</text>
<text text-anchor="start" x="239" y="-62" font-family="Helvetica,sans-Serif" font-size="10.00">+ businessDayConvention()</text>
<text text-anchor="start" x="239" y="-51" font-family="Helvetica,sans-Serif" font-size="10.00">+ endOfMonth()</text>
<text text-anchor="start" x="239" y="-40" font-family="Helvetica,sans-Serif" font-size="10.00">+ fromXML()</text>
<text text-anchor="start" x="239" y="-29" font-family="Helvetica,sans-Serif" font-size="10.00">+ toXML()</text>
<text text-anchor="start" x="239" y="-18" font-family="Helvetica,sans-Serif" font-size="10.00">+ build()</text>
<text text-anchor="middle" x="298.5" y="-7" font-family="Helvetica,sans-Serif" font-size="10.00">}</text>
</a>
</g>
</g>
<!-- Node2 -->
<g id="node2" class="node"><title>Node2</title>
<g id="a_node2"><a xlink:href="classore_1_1data_1_1_convention.html" target="_top" xlink:title="Abstract base class for convention objects.">
<polygon fill="white" stroke="#666666" points="200,-305 111,-305 111,-187 200,-187 200,-305"/>
<text text-anchor="middle" x="155.5" y="-293" font-family="Helvetica,sans-Serif" font-size="10.00">{Convention</text>
<text text-anchor="start" x="119" y="-282" font-family="Helvetica,sans-Serif" font-size="10.00">||+ ~Convention()</text>
<text text-anchor="start" x="119" y="-271" font-family="Helvetica,sans-Serif" font-size="10.00">+ id()</text>
<text text-anchor="start" x="119" y="-260" font-family="Helvetica,sans-Serif" font-size="10.00">+ type()</text>
<text text-anchor="start" x="119" y="-249" font-family="Helvetica,sans-Serif" font-size="10.00">* build()</text>
<text text-anchor="start" x="119" y="-238" font-family="Helvetica,sans-Serif" font-size="10.00">* Convention()</text>
<text text-anchor="start" x="119" y="-227" font-family="Helvetica,sans-Serif" font-size="10.00">* Convention()</text>
<text text-anchor="start" x="119" y="-216" font-family="Helvetica,sans-Serif" font-size="10.00">* id()</text>
<text text-anchor="start" x="119" y="-205" font-family="Helvetica,sans-Serif" font-size="10.00">* type()</text>
<text text-anchor="middle" x="155.5" y="-194" font-family="Helvetica,sans-Serif" font-size="10.00">}</text>
</a>
</g>
</g>
<!-- Node2&#45;&gt;Node1 -->
<g id="edge1" class="edge"><title>Node2&#45;&gt;Node1</title>
<path fill="none" stroke="#63b8ff" d="M206.907,-182.449C218.196,-168.712 230.213,-154.091 241.7,-140.113"/>
<polygon fill="none" stroke="#63b8ff" points="203.999,-180.475 200.354,-190.423 209.407,-184.919 203.999,-180.475"/>
</g>
<!-- Node3 -->
<g id="node3" class="node"><title>Node3</title>
<g id="a_node3"><a xlink:href="classore_1_1data_1_1_x_m_l_serializable.html" target="_top" xlink:title="Base class for all serializable classes.">
<polygon fill="white" stroke="#666666" points="111,-459 0,-459 0,-352 111,-352 111,-459"/>
<text text-anchor="middle" x="55.5" y="-447" font-family="Helvetica,sans-Serif" font-size="10.00">{XMLSerializable</text>
<text text-anchor="start" x="8" y="-436" font-family="Helvetica,sans-Serif" font-size="10.00">||+ ~XMLSerializable()</text>
<text text-anchor="start" x="8" y="-425" font-family="Helvetica,sans-Serif" font-size="10.00">+ fromXML()</text>
<text text-anchor="start" x="8" y="-414" font-family="Helvetica,sans-Serif" font-size="10.00">+ toXML()</text>
<text text-anchor="start" x="8" y="-403" font-family="Helvetica,sans-Serif" font-size="10.00">+ fromFile()</text>
<text text-anchor="start" x="8" y="-392" font-family="Helvetica,sans-Serif" font-size="10.00">+ toFile()</text>
<text text-anchor="start" x="8" y="-381" font-family="Helvetica,sans-Serif" font-size="10.00">+ fromXMLString()</text>
<text text-anchor="start" x="8" y="-370" font-family="Helvetica,sans-Serif" font-size="10.00">+ toXMLString()</text>
<text text-anchor="middle" x="55.5" y="-359" font-family="Helvetica,sans-Serif" font-size="10.00">}</text>
</a>
</g>
</g>
<!-- Node3&#45;&gt;Node2 -->
<g id="edge2" class="edge"><title>Node3&#45;&gt;Node2</title>
<path fill="none" stroke="#63b8ff" d="M94.4897,-343.091C102.413,-330.612 110.725,-317.521 118.574,-305.159"/>
<polygon fill="none" stroke="#63b8ff" points="91.4821,-341.298 89.0767,-351.617 97.3916,-345.051 91.4821,-341.298"/>
</g>
<!-- Node4 -->
<g id="node4" class="node"><title>Node4</title>
<g id="a_node4"><a xlink:title=" ">
<polygon fill="white" stroke="#666666" points="170,-420.5 129,-420.5 129,-390.5 170,-390.5 170,-420.5"/>
<text text-anchor="middle" x="149.5" y="-408.5" font-family="Helvetica,sans-Serif" font-size="10.00">{Type</text>
<text text-anchor="middle" x="149.5" y="-397.5" font-family="Helvetica,sans-Serif" font-size="10.00">||}</text>
</a>
</g>
</g>
<!-- Node4&#45;&gt;Node2 -->
<g id="edge3" class="edge"><title>Node4&#45;&gt;Node2</title>
<path fill="none" stroke="#404040" d="M149.445,-390.36C149.434,-374.101 149.579,-346.613 150.5,-323 150.574,-321.092 150.656,-319.158 150.745,-317.207"/>
<polygon fill="none" stroke="#404040" points="150.752,-317.06 147.061,-310.866 151.359,-305.075 155.05,-311.27 150.752,-317.06"/>
<text text-anchor="middle" x="167" y="-326" font-family="Helvetica,sans-Serif" font-size="10.00"> #type_</text>
</g>
<!-- Node5 -->
<g id="node5" class="node"><title>Node5</title>
<g id="a_node5"><a xlink:title=" ">
<polygon fill="white" stroke="#666666" points="248.5,-420.5 204.5,-420.5 204.5,-390.5 248.5,-390.5 248.5,-420.5"/>
<text text-anchor="middle" x="226.5" y="-408.5" font-family="Helvetica,sans-Serif" font-size="10.00">{string</text>
<text text-anchor="middle" x="226.5" y="-397.5" font-family="Helvetica,sans-Serif" font-size="10.00">||}</text>
</a>
</g>
</g>
<!-- Node5&#45;&gt;Node1 -->
<g id="edge6" class="edge"><title>Node5&#45;&gt;Node1</title>
<path fill="none" stroke="#404040" d="M226.811,-390.266C227.863,-355.179 232.386,-261.95 251.5,-187 254.46,-175.393 258.324,-163.406 262.567,-151.741"/>
<polygon fill="none" stroke="#404040" points="262.681,-151.438 261.056,-144.412 266.915,-140.21 268.541,-147.235 262.681,-151.438"/>
<text text-anchor="middle" x="311.5" y="-265.5" font-family="Helvetica,sans-Serif" font-size="10.00"> &#45;localId_</text>
<text text-anchor="start" x="251.5" y="-254.5" font-family="Helvetica,sans-Serif" font-size="10.00">&#45;strBusinessDayConvention</text>
<text text-anchor="middle" x="311.5" y="-243.5" font-family="Helvetica,sans-Serif" font-size="10.00">_</text>
<text text-anchor="middle" x="311.5" y="-232.5" font-family="Helvetica,sans-Serif" font-size="10.00">&#45;strDayCounter_</text>
<text text-anchor="middle" x="311.5" y="-221.5" font-family="Helvetica,sans-Serif" font-size="10.00">&#45;strFixingCalendar_</text>
</g>
<!-- Node5&#45;&gt;Node2 -->
<g id="edge4" class="edge"><title>Node5&#45;&gt;Node2</title>
<path fill="none" stroke="#404040" d="M220.074,-390.245C212.45,-373.332 199.189,-343.916 186.66,-316.123"/>
<polygon fill="none" stroke="#404040" points="186.656,-316.114 180.544,-312.288 181.725,-305.174 187.837,-309 186.656,-316.114"/>
<text text-anchor="middle" x="204.5" y="-326" font-family="Helvetica,sans-Serif" font-size="10.00"> #id_</text>
</g>
<!-- Node6 -->
<g id="node6" class="node"><title>Node6</title>
<g id="a_node6"><a xlink:title=" ">
<polygon fill="white" stroke="#666666" points="281.5,-526 171.5,-526 171.5,-496 281.5,-496 281.5,-526"/>
<text text-anchor="middle" x="226.5" y="-514" font-family="Helvetica,sans-Serif" font-size="10.00">{basic_string&lt; Char &gt;</text>
<text text-anchor="middle" x="226.5" y="-503" font-family="Helvetica,sans-Serif" font-size="10.00">||}</text>
</a>
</g>
</g>
<!-- Node6&#45;&gt;Node5 -->
<g id="edge5" class="edge"><title>Node6&#45;&gt;Node5</title>
<path fill="none" stroke="#63b8ff" d="M226.5,-485.597C226.5,-465.425 226.5,-437.476 226.5,-420.769"/>
<polygon fill="none" stroke="#63b8ff" points="223,-485.609 226.5,-495.609 230,-485.609 223,-485.609"/>
</g>
<!-- Node7 -->
<g id="node7" class="node"><title>Node7</title>
<g id="a_node7"><a xlink:title=" ">
<polygon fill="white" stroke="#666666" points="420,-261 381,-261 381,-231 420,-231 420,-261"/>
<text text-anchor="middle" x="400.5" y="-249" font-family="Helvetica,sans-Serif" font-size="10.00">{Size</text>
<text text-anchor="middle" x="400.5" y="-238" font-family="Helvetica,sans-Serif" font-size="10.00">||}</text>
</a>
</g>
</g>
<!-- Node7&#45;&gt;Node1 -->
<g id="edge7" class="edge"><title>Node7&#45;&gt;Node1</title>
<path fill="none" stroke="#404040" d="M392.153,-230.761C381.768,-213.045 363.218,-181.401 345.351,-150.922"/>
<polygon fill="none" stroke="#404040" points="345.143,-150.567 338.658,-147.414 339.074,-140.215 345.559,-143.368 345.143,-150.567"/>
<text text-anchor="middle" x="396.5" y="-161" font-family="Helvetica,sans-Serif" font-size="10.00"> &#45;settlementDays_</text>
</g>
<!-- Node8 -->
<g id="node8" class="node"><title>Node8</title>
<g id="a_node8"><a xlink:href="classbool.html" target="_top" xlink:title=" ">
<polygon fill="white" stroke="#666666" points="499.5,-261 461.5,-261 461.5,-231 499.5,-231 499.5,-261"/>
<text text-anchor="middle" x="480.5" y="-249" font-family="Helvetica,sans-Serif" font-size="10.00">{bool</text>
<text text-anchor="middle" x="480.5" y="-238" font-family="Helvetica,sans-Serif" font-size="10.00">||}</text>
</a>
</g>
</g>
<!-- Node8&#45;&gt;Node1 -->
<g id="edge8" class="edge"><title>Node8&#45;&gt;Node1</title>
<path fill="none" stroke="#404040" d="M476.821,-230.916C471.414,-212.422 459.814,-179.756 440.5,-158 422.852,-138.122 399.566,-121.301 376.966,-107.904"/>
<polygon fill="none" stroke="#404040" points="376.719,-107.763 369.524,-108.252 366.306,-101.799 373.5,-101.31 376.719,-107.763"/>
<text text-anchor="middle" x="480.5" y="-161" font-family="Helvetica,sans-Serif" font-size="10.00"> &#45;endOfMonth_</text>
</g>
</g>
</svg>
        <g id="navigator" transform="translate(0 0)" fill="#404254">
                <rect fill="#f2f5e9" fill-opacity="0.5" stroke="#606060" stroke-width=".5" x="0" y="0" width="60" height="60"/>
                <use id="zoomplus" xlink:href="#zoomPlus" x="17" y="9" onmousedown="handleZoom(evt,'in')"/>
                <use id="zoomminus" xlink:href="#zoomMin" x="42" y="9" onmousedown="handleZoom(evt,'out')"/>
                <use id="reset" xlink:href="#resetDef" x="30" y="36" onmousedown="handleReset()"/>
                <g id="arrowUp" xlink:href="#dirArrow" transform="translate(30 24)" onmousedown="handlePan(0,-1)">
                  <use xlink:href="#rim" fill="#404040">
                        <set attributeName="fill" to="#808080" begin="arrowUp.mouseover" end="arrowUp.mouseout"/>
                  </use>
                  <path fill="none" stroke="white" stroke-width="1.5" d="M0,-3.0v7 M-2.5,-0.5L0,-3.0L2.5,-0.5"/>
                </g>
                <g id="arrowRight" xlink:href="#dirArrow" transform="rotate(90) translate(36 -43)" onmousedown="handlePan(1,0)">
                  <use xlink:href="#rim" fill="#404040">
                        <set attributeName="fill" to="#808080" begin="arrowRight.mouseover" end="arrowRight.mouseout"/>
                  </use>
                  <path fill="none" stroke="white" stroke-width="1.5" d="M0,-3.0v7 M-2.5,-0.5L0,-3.0L2.5,-0.5"/>
                </g>
                <g id="arrowDown" xlink:href="#dirArrow" transform="rotate(180) translate(-30 -48)" onmousedown="handlePan(0,1)">
                  <use xlink:href="#rim" fill="#404040">
                        <set attributeName="fill" to="#808080" begin="arrowDown.mouseover" end="arrowDown.mouseout"/>
                  </use>
                  <path fill="none" stroke="white" stroke-width="1.5" d="M0,-3.0v7 M-2.5,-0.5L0,-3.0L2.5,-0.5"/>
                </g>
                <g id="arrowLeft" xlink:href="#dirArrow" transform="rotate(270) translate(-36 17)" onmousedown="handlePan(-1,0)">
                  <use xlink:href="#rim" fill="#404040">
                        <set attributeName="fill" to="#808080" begin="arrowLeft.mouseover" end="arrowLeft.mouseout"/>
                  </use>
                  <path fill="none" stroke="white" stroke-width="1.5" d="M0,-3.0v7 M-2.5,-0.5L0,-3.0L2.5,-0.5"/>
                </g>
        </g>
        <svg viewBox="0 0 15 15" width="100%" height="30px" preserveAspectRatio="xMaxYMin meet">
         <g id="arrow_out" transform="scale(0.3 0.3)">
          <a xlink:href="classore_1_1data_1_1_ibor_index_convention__coll__graph_org.svg" target="_base">
           <rect id="button" ry="5" rx="5" y="6" x="6" height="38" width="38"
                fill="#f2f5e9" fill-opacity="0.5" stroke="#606060" stroke-width="1.0"/>
           <path id="arrow"
             d="M 11.500037,31.436501 C 11.940474,20.09759 22.043105,11.32322 32.158766,21.979434 L 37.068811,17.246167 C 37.068811,17.246167 37.088388,32 37.088388,32 L 22.160133,31.978069 C 22.160133,31.978069 26.997745,27.140456 26.997745,27.140456 C 18.528582,18.264221 13.291696,25.230495 11.500037,31.436501 z"
             style="fill:#404040;"/>
          </a>
         </g>
        </svg>
</svg>
