<?xml version="1.0" encoding="UTF-8" standalone="no"?>
<!DOCTYPE svg PUBLIC "-//W3C//DTD SVG 1.1//EN"
 "http://www.w3.org/Graphics/SVG/1.1/DTD/svg11.dtd">
<!-- Generated by graphviz version 2.38.0 (20140413.2041)
 -->
<!-- Title: populateCalibrationBaskets Pages: 1 -->
<svg width="650pt" height="259pt"
 viewBox="0.00 0.00 650.00 258.50" xmlns="http://www.w3.org/2000/svg" xmlns:xlink="http://www.w3.org/1999/xlink">
<g id="graph0" class="graph" transform="scale(1 1) rotate(0) translate(4 254.5)">
<title>populateCalibrationBaskets</title>
<!-- Node1 -->
<g id="node1" class="node"><title>Node1</title>
<g id="a_node1"><a xlink:title="Support legacy XML interface for reading calibration instruments.">
<polygon fill="#999999" stroke="#666666" points="135,-132 0,-132 0,-113 135,-113 135,-132"/>
<text text-anchor="middle" x="67.5" y="-120" font-family="Helvetica,sans-Serif" font-size="10.00">populateCalibrationBaskets</text>
</a>
</g>
</g>
<!-- Node2 -->
<g id="node2" class="node"><title>Node2</title>
<g id="a_node2"><a xlink:href="classore_1_1data_1_1_x_m_l_utils.html#a81459e72cad1a7676c674eccad1c3cee" target="_top" xlink:title=" ">
<polygon fill="white" stroke="#666666" points="315.5,-207.5 171.5,-207.5 171.5,-177.5 315.5,-177.5 315.5,-207.5"/>
<text text-anchor="start" x="179.5" y="-195.5" font-family="Helvetica,sans-Serif" font-size="10.00">ore::data::XMLUtils</text>
<text text-anchor="middle" x="243.5" y="-184.5" font-family="Helvetica,sans-Serif" font-size="10.00">::getChildrenValuesAsStrings</text>
</a>
</g>
</g>
<!-- Node1&#45;&gt;Node2 -->
<g id="edge1" class="edge"><title>Node1&#45;&gt;Node2</title>
<path fill="none" stroke="#63b8ff" d="M88.2875,-132.077C108.753,-141.816 141.754,-157.061 171,-168.5 175.756,-170.36 180.722,-172.211 185.724,-174.011"/>
<polygon fill="#63b8ff" stroke="#63b8ff" points="184.747,-177.378 195.342,-177.401 187.074,-170.776 184.747,-177.378"/>
</g>
<!-- Node3 -->
<g id="node3" class="node"><title>Node3</title>
<g id="a_node3"><a xlink:href="classore_1_1data_1_1_x_m_l_utils.html#a5a1307174ddefdb3aad6e3bd8cc63b27" target="_top" xlink:title=" ">
<polygon fill="white" stroke="#666666" points="471.5,-250.5 372.5,-250.5 372.5,-220.5 471.5,-220.5 471.5,-250.5"/>
<text text-anchor="start" x="380.5" y="-238.5" font-family="Helvetica,sans-Serif" font-size="10.00">ore::data::XMLUtils</text>
<text text-anchor="middle" x="422" y="-227.5" font-family="Helvetica,sans-Serif" font-size="10.00">::getChildValue</text>
</a>
</g>
</g>
<!-- Node1&#45;&gt;Node3 -->
<g id="edge5" class="edge"><title>Node1&#45;&gt;Node3</title>
<path fill="none" stroke="#63b8ff" d="M75.3693,-132.163C90.1852,-152.116 127.357,-197.583 171,-216.5 232.217,-243.035 309.753,-244.606 362.119,-241.594"/>
<polygon fill="#63b8ff" stroke="#63b8ff" points="362.492,-245.077 372.244,-240.937 362.038,-238.092 362.492,-245.077"/>
</g>
<!-- Node6 -->
<g id="node6" class="node"><title>Node6</title>
<g id="a_node6"><a xlink:href="classore_1_1data_1_1_inflation_model_data.html#a144bd46c24138b26c36e809506da032c" target="_top" xlink:title=" ">
<polygon fill="white" stroke="#666666" points="303.5,-159.5 183.5,-159.5 183.5,-129.5 303.5,-129.5 303.5,-159.5"/>
<text text-anchor="start" x="191.5" y="-147.5" font-family="Helvetica,sans-Serif" font-size="10.00">ore::data::InflationModel</text>
<text text-anchor="middle" x="243.5" y="-136.5" font-family="Helvetica,sans-Serif" font-size="10.00">Data::index</text>
</a>
</g>
</g>
<!-- Node1&#45;&gt;Node6 -->
<g id="edge6" class="edge"><title>Node1&#45;&gt;Node6</title>
<path fill="none" stroke="#63b8ff" d="M135.275,-130.943C147.753,-132.52 160.818,-134.172 173.365,-135.759"/>
<polygon fill="#63b8ff" stroke="#63b8ff" points="172.936,-139.232 183.296,-137.014 173.814,-132.288 172.936,-139.232"/>
</g>
<!-- Node7 -->
<g id="node7" class="node"><title>Node7</title>
<g id="a_node7"><a xlink:href="namespaceore_1_1data.html#af07ebcb16f5c4b8f23aa841778ec1ede" target="_top" xlink:title="Parse a Strike from its string representation, strStrike.">
<polygon fill="white" stroke="#666666" points="310,-111 177,-111 177,-92 310,-92 310,-111"/>
<text text-anchor="middle" x="243.5" y="-99" font-family="Helvetica,sans-Serif" font-size="10.00">ore::data::parseBaseStrike</text>
</a>
</g>
</g>
<!-- Node1&#45;&gt;Node7 -->
<g id="edge7" class="edge"><title>Node1&#45;&gt;Node7</title>
<path fill="none" stroke="#63b8ff" d="M135.275,-114.441C145.588,-113.196 156.303,-111.903 166.794,-110.637"/>
<polygon fill="#63b8ff" stroke="#63b8ff" points="167.256,-114.107 176.765,-109.434 166.417,-107.157 167.256,-114.107"/>
</g>
<!-- Node8 -->
<g id="node8" class="node"><title>Node8</title>
<g id="a_node8"><a xlink:href="group__utilities.html#ga8358fc18a955d7f942a9eb78cb5f2db8" target="_top" xlink:title=" ">
<polygon fill="white" stroke="#666666" points="316,-74 171,-74 171,-55 316,-55 316,-74"/>
<text text-anchor="middle" x="243.5" y="-62" font-family="Helvetica,sans-Serif" font-size="10.00">ore::data::parseCapFloorType</text>
</a>
</g>
</g>
<!-- Node1&#45;&gt;Node8 -->
<g id="edge8" class="edge"><title>Node1&#45;&gt;Node8</title>
<path fill="none" stroke="#63b8ff" d="M90.6049,-112.943C111.17,-104.276 142.797,-91.5138 171,-82.5 177.472,-80.4316 184.334,-78.4471 191.145,-76.6006"/>
<polygon fill="#63b8ff" stroke="#63b8ff" points="192.257,-79.9275 201.039,-74.0005 190.477,-73.1574 192.257,-79.9275"/>
</g>
<!-- Node9 -->
<g id="node9" class="node"><title>Node9</title>
<g id="a_node9"><a xlink:href="group__utilities.html#ga6477391407eac174ea49df689ecf1ab2" target="_top" xlink:title="Convert text to QuantLib::Period or QuantLib::Date.">
<polygon fill="white" stroke="#666666" points="315,-37 172,-37 172,-18 315,-18 315,-37"/>
<text text-anchor="middle" x="243.5" y="-25" font-family="Helvetica,sans-Serif" font-size="10.00">ore::data::parseDateOrPeriod</text>
</a>
</g>
</g>
<!-- Node1&#45;&gt;Node9 -->
<g id="edge9" class="edge"><title>Node1&#45;&gt;Node9</title>
<path fill="none" stroke="#63b8ff" d="M78.3615,-112.904C95.6611,-96.6044 133.24,-63.5288 171,-45.5 175.074,-43.555 179.382,-41.8043 183.783,-40.2312"/>
<polygon fill="#63b8ff" stroke="#63b8ff" points="185.084,-43.4885 193.509,-37.0649 182.917,-36.8322 185.084,-43.4885"/>
</g>
<!-- Node2&#45;&gt;Node3 -->
<g id="edge2" class="edge"><title>Node2&#45;&gt;Node3</title>
<path fill="none" stroke="#63b8ff" d="M306.231,-207.539C324.516,-211.994 344.476,-216.857 362.547,-221.259"/>
<polygon fill="#63b8ff" stroke="#63b8ff" points="361.825,-224.686 372.369,-223.652 363.482,-217.885 361.825,-224.686"/>
</g>
<!-- Node5 -->
<g id="node5" class="node"><title>Node5</title>
<g id="a_node5"><a xlink:href="namespaceore_1_1data.html#a30e976f566a2a562e6b5a9d0c6f34ff0" target="_top" xlink:title=" ">
<polygon fill="white" stroke="#666666" points="492,-202 352,-202 352,-183 492,-183 492,-202"/>
<text text-anchor="middle" x="422" y="-190" font-family="Helvetica,sans-Serif" font-size="10.00">ore::data::parseListOfValues</text>
</a>
</g>
</g>
<!-- Node2&#45;&gt;Node5 -->
<g id="edge4" class="edge"><title>Node2&#45;&gt;Node5</title>
<path fill="none" stroke="#63b8ff" d="M315.526,-192.5C324.133,-192.5 332.966,-192.5 341.682,-192.5"/>
<polygon fill="#63b8ff" stroke="#63b8ff" points="341.84,-196 351.84,-192.5 341.84,-189 341.84,-196"/>
</g>
<!-- Node4 -->
<g id="node4" class="node"><title>Node4</title>
<g id="a_node4"><a xlink:href="classore_1_1data_1_1_x_m_l_utils.html#a6704501b110fa9d056096df3e05f0df2" target="_top" xlink:title="Get a node&#39;s value.">
<polygon fill="white" stroke="#666666" points="634.5,-250.5 535.5,-250.5 535.5,-220.5 634.5,-220.5 634.5,-250.5"/>
<text text-anchor="start" x="543.5" y="-238.5" font-family="Helvetica,sans-Serif" font-size="10.00">ore::data::XMLUtils</text>
<text text-anchor="middle" x="585" y="-227.5" font-family="Helvetica,sans-Serif" font-size="10.00">::getNodeValue</text>
</a>
</g>
</g>
<!-- Node3&#45;&gt;Node4 -->
<g id="edge3" class="edge"><title>Node3&#45;&gt;Node4</title>
<path fill="none" stroke="#63b8ff" d="M471.742,-235.5C488.608,-235.5 507.689,-235.5 525.272,-235.5"/>
<polygon fill="#63b8ff" stroke="#63b8ff" points="525.423,-239 535.423,-235.5 525.423,-232 525.423,-239"/>
</g>
<!-- Node10 -->
<g id="node10" class="node"><title>Node10</title>
<g id="a_node10"><a xlink:href="group__utilities.html#ga59b5fdda574d90facae95dec2d13040d" target="_top" xlink:title="Convert std::string to QuantLib::Date.">
<polygon fill="white" stroke="#666666" points="474.5,-56 369.5,-56 369.5,-37 474.5,-37 474.5,-56"/>
<text text-anchor="middle" x="422" y="-44" font-family="Helvetica,sans-Serif" font-size="10.00">ore::data::parseDate</text>
</a>
</g>
</g>
<!-- Node9&#45;&gt;Node10 -->
<g id="edge10" class="edge"><title>Node9&#45;&gt;Node10</title>
<path fill="none" stroke="#63b8ff" d="M315.018,-35.0912C329.622,-36.6632 344.901,-38.308 359.165,-39.8436"/>
<polygon fill="#63b8ff" stroke="#63b8ff" points="359.031,-43.3493 369.349,-40.9398 359.781,-36.3895 359.031,-43.3493"/>
</g>
<!-- Node13 -->
<g id="node13" class="node"><title>Node13</title>
<g id="a_node13"><a xlink:href="group__utilities.html#ga8e0623e2cb01e250e9cfec4619256208" target="_top" xlink:title="Convert text to QuantLib::Period.">
<polygon fill="white" stroke="#666666" points="478.5,-19 365.5,-19 365.5,-0 478.5,-0 478.5,-19"/>
<text text-anchor="middle" x="422" y="-7" font-family="Helvetica,sans-Serif" font-size="10.00">ore::data::parsePeriod</text>
</a>
</g>
</g>
<!-- Node9&#45;&gt;Node13 -->
<g id="edge15" class="edge"><title>Node9&#45;&gt;Node13</title>
<path fill="none" stroke="#63b8ff" d="M315.018,-20.3083C328.202,-18.9639 341.935,-17.5632 354.977,-16.2333"/>
<polygon fill="#63b8ff" stroke="#63b8ff" points="355.67,-19.6808 365.263,-15.1842 354.96,-12.7169 355.67,-19.6808"/>
</g>
<!-- Node10&#45;&gt;Node10 -->
<g id="edge11" class="edge"><title>Node10&#45;&gt;Node10</title>
<path fill="none" stroke="#63b8ff" d="M397.031,-56.0828C384.884,-64.7337 393.207,-74 422,-74 440.895,-74 450.975,-70.0094 452.239,-64.8208"/>
<polygon fill="#63b8ff" stroke="#63b8ff" points="455.131,-62.8383 446.969,-56.0828 449.137,-66.4536 455.131,-62.8383"/>
</g>
<!-- Node11 -->
<g id="node11" class="node"><title>Node11</title>
<g id="a_node11"><a xlink:href="group__utilities.html#gaecd67eda4fb5f4859bb8f6d383547721" target="_top" xlink:title="Convert text to QuantLib::Integer.">
<polygon fill="white" stroke="#666666" points="642,-75 528,-75 528,-56 642,-56 642,-75"/>
<text text-anchor="middle" x="585" y="-63" font-family="Helvetica,sans-Serif" font-size="10.00">ore::data::parseInteger</text>
</a>
</g>
</g>
<!-- Node10&#45;&gt;Node11 -->
<g id="edge12" class="edge"><title>Node10&#45;&gt;Node11</title>
<path fill="none" stroke="#63b8ff" d="M474.828,-52.6163C488.438,-54.2225 503.307,-55.9772 517.567,-57.6601"/>
<polygon fill="#63b8ff" stroke="#63b8ff" points="517.476,-61.1735 527.817,-58.8697 518.296,-54.2218 517.476,-61.1735"/>
</g>
<!-- Node12 -->
<g id="node12" class="node"><title>Node12</title>
<g id="a_node12"><a xlink:href="namespaceore_1_1data.html#a777e216dee6069b548bb87da7152699e" target="_top" xlink:title=" ">
<polygon fill="white" stroke="#666666" points="624.5,-38 545.5,-38 545.5,-19 624.5,-19 624.5,-38"/>
<text text-anchor="middle" x="585" y="-26" font-family="Helvetica,sans-Serif" font-size="10.00">ore::data::size</text>
</a>
</g>
</g>
<!-- Node10&#45;&gt;Node12 -->
<g id="edge14" class="edge"><title>Node10&#45;&gt;Node12</title>
<path fill="none" stroke="#63b8ff" d="M474.828,-40.7056C494.23,-38.5364 516.188,-36.0814 535.298,-33.9449"/>
<polygon fill="#63b8ff" stroke="#63b8ff" points="535.745,-37.4169 545.294,-32.8274 534.967,-30.4602 535.745,-37.4169"/>
</g>
<!-- Node11&#45;&gt;Node11 -->
<g id="edge13" class="edge"><title>Node11&#45;&gt;Node11</title>
<path fill="none" stroke="#63b8ff" d="M560.031,-75.0828C547.884,-83.7337 556.207,-93 585,-93 603.895,-93 613.975,-89.0094 615.239,-83.8208"/>
<polygon fill="#63b8ff" stroke="#63b8ff" points="618.131,-81.8383 609.969,-75.0828 612.137,-85.4536 618.131,-81.8383"/>
</g>
</g>
</svg>
