<?xml version="1.0" encoding="UTF-8" standalone="no"?>
<!DOCTYPE svg PUBLIC "-//W3C//DTD SVG 1.1//EN"
 "http://www.w3.org/Graphics/SVG/1.1/DTD/svg11.dtd">
<!-- Generated by graphviz version 2.38.0 (20140413.2041)
 -->
<!-- Title: maxAttempts Pages: 1 -->
<svg width="613pt" height="263pt"
 viewBox="0.00 0.00 613.00 263.00" xmlns="http://www.w3.org/2000/svg" xmlns:xlink="http://www.w3.org/1999/xlink">
<g id="graph0" class="graph" transform="scale(1 1) rotate(0) translate(4 259)">
<title>maxAttempts</title>
<!-- Node1 -->
<g id="node1" class="node"><title>Node1</title>
<g id="a_node1"><a xlink:title=" ">
<polygon fill="#999999" stroke="#666666" points="605,-134.5 530,-134.5 530,-115.5 605,-115.5 605,-134.5"/>
<text text-anchor="middle" x="567.5" y="-122.5" font-family="Helvetica,sans-Serif" font-size="10.00">maxAttempts</text>
</a>
</g>
</g>
<!-- Node2 -->
<g id="node2" class="node"><title>Node2</title>
<g id="a_node2"><a xlink:href="classore_1_1data_1_1_default_curve.html#a6c2b227db105241eb5c565b654f7dbe4" target="_top" xlink:title="Build a default curve from CDS spread quotes.">
<polygon fill="white" stroke="#666666" points="482.5,-252 367.5,-252 367.5,-222 482.5,-222 482.5,-252"/>
<text text-anchor="start" x="375.5" y="-240" font-family="Helvetica,sans-Serif" font-size="10.00">ore::data::DefaultCurve</text>
<text text-anchor="middle" x="425" y="-229" font-family="Helvetica,sans-Serif" font-size="10.00">::buildCdsCurve</text>
</a>
</g>
</g>
<!-- Node1&#45;&gt;Node2 -->
<g id="edge1" class="edge"><title>Node1&#45;&gt;Node2</title>
<path fill="none" stroke="#63b8ff" d="M555.288,-143.101C542.557,-162.321 520.129,-192.434 494,-211 488.127,-215.173 481.499,-218.777 474.742,-221.858"/>
<polygon fill="#63b8ff" stroke="#63b8ff" points="558.264,-144.942 560.732,-134.639 552.378,-141.155 558.264,-144.942"/>
</g>
<!-- Node4 -->
<g id="node4" class="node"><title>Node4</title>
<g id="a_node4"><a xlink:href="classore_1_1data_1_1_commodity_curve.html#a771e0386d3a147f22a46b810d82f4fd3" target="_top" xlink:title="Build commodity piecewise price curve.">
<polygon fill="white" stroke="#666666" points="492,-202 358,-202 358,-172 492,-172 492,-202"/>
<text text-anchor="start" x="366" y="-190" font-family="Helvetica,sans-Serif" font-size="10.00">ore::data::CommodityCurve</text>
<text text-anchor="middle" x="425" y="-179" font-family="Helvetica,sans-Serif" font-size="10.00">::buildPiecewiseCurve</text>
</a>
</g>
</g>
<!-- Node1&#45;&gt;Node4 -->
<g id="edge3" class="edge"><title>Node1&#45;&gt;Node4</title>
<path fill="none" stroke="#63b8ff" d="M540.997,-139.515C527.298,-147.017 509.983,-156.034 494,-163 486.885,-166.101 479.227,-169.108 471.708,-171.884"/>
<polygon fill="#63b8ff" stroke="#63b8ff" points="542.797,-142.519 549.843,-134.607 539.401,-136.398 542.797,-142.519"/>
</g>
<!-- Node5 -->
<g id="node5" class="node"><title>Node5</title>
<g id="a_node5"><a xlink:href="classore_1_1data_1_1_bootstrap_config.html#a510baf06568510646decfeaf1753e526" target="_top" xlink:title=" ">
<polygon fill="white" stroke="#666666" points="452,-153.5 398,-153.5 398,-134.5 452,-134.5 452,-153.5"/>
<text text-anchor="middle" x="425" y="-141.5" font-family="Helvetica,sans-Serif" font-size="10.00">fromXML</text>
</a>
</g>
</g>
<!-- Node1&#45;&gt;Node5 -->
<g id="edge4" class="edge"><title>Node1&#45;&gt;Node5</title>
<path fill="none" stroke="#63b8ff" d="M519.896,-131.302C497.363,-134.35 471.154,-137.894 452.162,-140.462"/>
<polygon fill="#63b8ff" stroke="#63b8ff" points="520.511,-134.751 529.952,-129.942 519.573,-127.814 520.511,-134.751"/>
</g>
<!-- Node9 -->
<g id="node9" class="node"><title>Node9</title>
<g id="a_node9"><a xlink:href="classore_1_1data_1_1_yield_curve_config.html#a7741ae0fc924943de5bfe02928262eb7" target="_top" xlink:title=" ">
<polygon fill="white" stroke="#666666" points="316,-111 182,-111 182,-81 316,-81 316,-111"/>
<text text-anchor="start" x="190" y="-99" font-family="Helvetica,sans-Serif" font-size="10.00">ore::data::YieldCurveConfig</text>
<text text-anchor="middle" x="249" y="-88" font-family="Helvetica,sans-Serif" font-size="10.00">::fromXML</text>
</a>
</g>
</g>
<!-- Node1&#45;&gt;Node9 -->
<g id="edge9" class="edge"><title>Node1&#45;&gt;Node9</title>
<path fill="none" stroke="#63b8ff" d="M519.604,-120.703C465.79,-115.772 377.143,-107.65 316.286,-102.074"/>
<polygon fill="#63b8ff" stroke="#63b8ff" points="519.607,-124.218 529.884,-121.645 520.245,-117.247 519.607,-124.218"/>
</g>
<!-- Node10 -->
<g id="node10" class="node"><title>Node10</title>
<g id="a_node10"><a xlink:href="classore_1_1data_1_1_cap_floor_vol_curve.html#aabf163efc1172daa6f8dbcf9be1766a9" target="_top" xlink:title="Build ATM optionlet curve from term vol.">
<polygon fill="white" stroke="#666666" points="494,-78 356,-78 356,-48 494,-48 494,-78"/>
<text text-anchor="start" x="364" y="-66" font-family="Helvetica,sans-Serif" font-size="10.00">ore::data::CapFloorVolCurve</text>
<text text-anchor="middle" x="425" y="-55" font-family="Helvetica,sans-Serif" font-size="10.00">::termAtmOptCurve</text>
</a>
</g>
</g>
<!-- Node1&#45;&gt;Node10 -->
<g id="edge10" class="edge"><title>Node1&#45;&gt;Node10</title>
<path fill="none" stroke="#63b8ff" d="M536.507,-111.153C523.477,-105.188 508.017,-98.178 494,-92 483.548,-87.3932 472.144,-82.4845 461.714,-78.0405"/>
<polygon fill="#63b8ff" stroke="#63b8ff" points="535.385,-114.489 545.934,-115.48 538.306,-108.127 535.385,-114.489"/>
</g>
<!-- Node11 -->
<g id="node11" class="node"><title>Node11</title>
<g id="a_node11"><a xlink:href="classore_1_1data_1_1_cap_floor_vol_curve.html#a6b5974432b42f6cb1214882f5776c1db" target="_top" xlink:title="Build optionlet surface from term vol.">
<polygon fill="white" stroke="#666666" points="494,-30 356,-30 356,-0 494,-0 494,-30"/>
<text text-anchor="start" x="364" y="-18" font-family="Helvetica,sans-Serif" font-size="10.00">ore::data::CapFloorVolCurve</text>
<text text-anchor="middle" x="425" y="-7" font-family="Helvetica,sans-Serif" font-size="10.00">::termOptSurface</text>
</a>
</g>
</g>
<!-- Node1&#45;&gt;Node11 -->
<g id="edge11" class="edge"><title>Node1&#45;&gt;Node11</title>
<path fill="none" stroke="#63b8ff" d="M555.38,-106.768C542.728,-87.4352 520.367,-57.2264 494,-39 489.057,-35.583 483.577,-32.6036 477.935,-30.0179"/>
<polygon fill="#63b8ff" stroke="#63b8ff" points="552.472,-108.717 560.786,-115.285 558.381,-104.966 552.472,-108.717"/>
</g>
<!-- Node3 -->
<g id="node3" class="node"><title>Node3</title>
<g id="a_node3"><a xlink:href="classore_1_1data_1_1_default_curve.html#aab7d6b459c59f1a3854a5cefc764f485" target="_top" xlink:title="Detailed constructor.">
<polygon fill="white" stroke="#666666" points="306.5,-255 191.5,-255 191.5,-225 306.5,-225 306.5,-255"/>
<text text-anchor="start" x="199.5" y="-243" font-family="Helvetica,sans-Serif" font-size="10.00">ore::data::DefaultCurve</text>
<text text-anchor="middle" x="249" y="-232" font-family="Helvetica,sans-Serif" font-size="10.00">::DefaultCurve</text>
</a>
</g>
</g>
<!-- Node2&#45;&gt;Node3 -->
<g id="edge2" class="edge"><title>Node2&#45;&gt;Node3</title>
<path fill="none" stroke="#63b8ff" d="M356.831,-238.158C340.208,-238.445 322.565,-238.749 306.508,-239.026"/>
<polygon fill="#63b8ff" stroke="#63b8ff" points="357.088,-241.654 367.026,-237.982 356.967,-234.655 357.088,-241.654"/>
</g>
<!-- Node6 -->
<g id="node6" class="node"><title>Node6</title>
<g id="a_node6"><a xlink:href="classore_1_1data_1_1_cap_floor_volatility_curve_config.html#a7741ae0fc924943de5bfe02928262eb7" target="_top" xlink:title=" ">
<polygon fill="white" stroke="#666666" points="317.5,-207 180.5,-207 180.5,-177 317.5,-177 317.5,-207"/>
<text text-anchor="start" x="188.5" y="-195" font-family="Helvetica,sans-Serif" font-size="10.00">ore::data::CapFloorVolatility</text>
<text text-anchor="middle" x="249" y="-184" font-family="Helvetica,sans-Serif" font-size="10.00">CurveConfig::fromXML</text>
</a>
</g>
</g>
<!-- Node5&#45;&gt;Node6 -->
<g id="edge5" class="edge"><title>Node5&#45;&gt;Node6</title>
<path fill="none" stroke="#63b8ff" d="M388.17,-153.884C364.104,-160.523 331.932,-169.398 304.688,-176.914"/>
<polygon fill="#63b8ff" stroke="#63b8ff" points="389.241,-157.219 397.95,-151.186 387.38,-150.471 389.241,-157.219"/>
</g>
<!-- Node7 -->
<g id="node7" class="node"><title>Node7</title>
<g id="a_node7"><a xlink:href="classore_1_1data_1_1_default_curve_config_1_1_config.html#a7741ae0fc924943de5bfe02928262eb7" target="_top" xlink:title=" ">
<polygon fill="white" stroke="#666666" points="320,-159 178,-159 178,-129 320,-129 320,-159"/>
<text text-anchor="start" x="186" y="-147" font-family="Helvetica,sans-Serif" font-size="10.00">ore::data::DefaultCurveConfig</text>
<text text-anchor="middle" x="249" y="-136" font-family="Helvetica,sans-Serif" font-size="10.00">::Config::fromXML</text>
</a>
</g>
</g>
<!-- Node5&#45;&gt;Node7 -->
<g id="edge6" class="edge"><title>Node5&#45;&gt;Node7</title>
<path fill="none" stroke="#63b8ff" d="M387.681,-144C368.149,-144 343.385,-144 320.26,-144"/>
<polygon fill="#63b8ff" stroke="#63b8ff" points="387.95,-147.5 397.95,-144 387.95,-140.5 387.95,-147.5"/>
</g>
<!-- Node5&#45;&gt;Node9 -->
<g id="edge8" class="edge"><title>Node5&#45;&gt;Node9</title>
<path fill="none" stroke="#63b8ff" d="M388.17,-134.116C364.104,-127.477 331.932,-118.602 304.688,-111.086"/>
<polygon fill="#63b8ff" stroke="#63b8ff" points="387.38,-137.529 397.95,-136.814 389.241,-130.781 387.38,-137.529"/>
</g>
<!-- Node8 -->
<g id="node8" class="node"><title>Node8</title>
<g id="a_node8"><a xlink:href="classore_1_1data_1_1_default_curve_config.html#a7741ae0fc924943de5bfe02928262eb7" target="_top" xlink:title=" ">
<polygon fill="white" stroke="#666666" points="142,-159 0,-159 0,-129 142,-129 142,-159"/>
<text text-anchor="start" x="8" y="-147" font-family="Helvetica,sans-Serif" font-size="10.00">ore::data::DefaultCurveConfig</text>
<text text-anchor="middle" x="71" y="-136" font-family="Helvetica,sans-Serif" font-size="10.00">::fromXML</text>
</a>
</g>
</g>
<!-- Node7&#45;&gt;Node8 -->
<g id="edge7" class="edge"><title>Node7&#45;&gt;Node8</title>
<path fill="none" stroke="#63b8ff" d="M167.899,-144C159.294,-144 150.588,-144 142.112,-144"/>
<polygon fill="#63b8ff" stroke="#63b8ff" points="167.934,-147.5 177.934,-144 167.934,-140.5 167.934,-147.5"/>
</g>
</g>
</svg>
