<?xml version="1.0" encoding="UTF-8" standalone="no"?>
<!DOCTYPE svg PUBLIC "-//W3C//DTD SVG 1.1//EN"
 "http://www.w3.org/Graphics/SVG/1.1/DTD/svg11.dtd">
<!-- Generated by graphviz version 2.38.0 (20140413.2041)
 -->
<!-- Title: ir Pages: 1 -->
<svg width="555pt" height="38pt"
 viewBox="0.00 0.00 555.00 38.00" xmlns="http://www.w3.org/2000/svg" xmlns:xlink="http://www.w3.org/1999/xlink">
<g id="graph0" class="graph" transform="scale(1 1) rotate(0) translate(4 34)">
<title>ir</title>
<!-- Node1 -->
<g id="node1" class="node"><title>Node1</title>
<g id="a_node1"><a xlink:title=" ">
<polygon fill="#999999" stroke="#666666" points="547,-24.5 518,-24.5 518,-5.5 547,-5.5 547,-24.5"/>
<text text-anchor="middle" x="532.5" y="-12.5" font-family="Helvetica,sans-Serif" font-size="10.00">ir</text>
</a>
</g>
</g>
<!-- Node2 -->
<g id="node2" class="node"><title>Node2</title>
<g id="a_node2"><a xlink:href="namespaceore_1_1data.html#af3f188ba8bea2815f6ae6ad91ce54ff9" target="_top" xlink:title=" ">
<polygon fill="white" stroke="#666666" points="482,-30 357,-30 357,-0 482,-0 482,-30"/>
<text text-anchor="start" x="365" y="-18" font-family="Helvetica,sans-Serif" font-size="10.00">ore::data::convertIndexTo</text>
<text text-anchor="middle" x="419.5" y="-7" font-family="Helvetica,sans-Serif" font-size="10.00">CamCorrelationEntry</text>
</a>
</g>
</g>
<!-- Node1&#45;&gt;Node2 -->
<g id="edge1" class="edge"><title>Node1&#45;&gt;Node2</title>
<path fill="none" stroke="#63b8ff" d="M507.683,-15C500.053,-15 491.221,-15 482.167,-15"/>
<polygon fill="#63b8ff" stroke="#63b8ff" points="507.889,-18.5001 517.889,-15 507.889,-11.5001 507.889,-18.5001"/>
</g>
<!-- Node3 -->
<g id="node3" class="node"><title>Node3</title>
<g id="a_node3"><a xlink:href="classore_1_1data_1_1_scripted_trade_engine_builder.html#a8f7fd6b51798363b9f87020fb40b792b" target="_top" xlink:title=" ">
<polygon fill="white" stroke="#666666" points="321,-30 157,-30 157,-0 321,-0 321,-30"/>
<text text-anchor="start" x="165" y="-18" font-family="Helvetica,sans-Serif" font-size="10.00">ore::data::ScriptedTrade</text>
<text text-anchor="middle" x="239" y="-7" font-family="Helvetica,sans-Serif" font-size="10.00">EngineBuilder::buildGaussianCam</text>
</a>
</g>
</g>
<!-- Node2&#45;&gt;Node3 -->
<g id="edge2" class="edge"><title>Node2&#45;&gt;Node3</title>
<path fill="none" stroke="#63b8ff" d="M346.71,-15C338.317,-15 329.709,-15 321.2,-15"/>
<polygon fill="#63b8ff" stroke="#63b8ff" points="346.821,-18.5001 356.82,-15 346.82,-11.5001 346.821,-18.5001"/>
</g>
<!-- Node4 -->
<g id="node4" class="node"><title>Node4</title>
<g id="a_node4"><a xlink:href="classore_1_1data_1_1_scripted_trade_engine_builder.html#afa7bc32050325672e45000b32d62ec0b" target="_top" xlink:title=" ">
<polygon fill="white" stroke="#666666" points="121,-30 0,-30 0,-0 121,-0 121,-30"/>
<text text-anchor="start" x="8" y="-18" font-family="Helvetica,sans-Serif" font-size="10.00">ore::data::ScriptedTrade</text>
<text text-anchor="middle" x="60.5" y="-7" font-family="Helvetica,sans-Serif" font-size="10.00">EngineBuilder::engine</text>
</a>
</g>
</g>
<!-- Node3&#45;&gt;Node4 -->
<g id="edge3" class="edge"><title>Node3&#45;&gt;Node4</title>
<path fill="none" stroke="#63b8ff" d="M146.79,-15C138.105,-15 129.459,-15 121.188,-15"/>
<polygon fill="#63b8ff" stroke="#63b8ff" points="146.982,-18.5001 156.982,-15 146.982,-11.5001 146.982,-18.5001"/>
</g>
</g>
</svg>
