<?xml version="1.0" encoding="UTF-8" standalone="no"?>
<!DOCTYPE svg PUBLIC "-//W3C//DTD SVG 1.1//EN"
 "http://www.w3.org/Graphics/SVG/1.1/DTD/svg11.dtd">
<!-- Generated by graphviz version 2.38.0 (20140413.2041)
 -->
<!-- Title: toXML Pages: 1 -->
<!--zoomable 235 -->
<svg id="main" version="1.1" xmlns="http://www.w3.org/2000/svg" xmlns:xlink="http://www.w3.org/1999/xlink" xml:space="preserve" onload="init(evt)">
<style type="text/css"><![CDATA[
.edge:hover path { stroke: red; }
.edge:hover polygon { stroke: red; fill: red; }
]]></style>
<script type="text/javascript"><![CDATA[
var edges = document.getElementsByTagName('g');
if (edges && edges.length) {
  for (var i=0;i<edges.length;i++) {
    if (edges[i].id.substr(0,4)=='edge') {
      edges[i].setAttribute('class','edge');
    }
  }
}
]]></script>
        <defs>
                <circle id="rim" cx="0" cy="0" r="7"/>
                <circle id="rim2" cx="0" cy="0" r="3.5"/>
                <g id="zoomPlus">
                        <use xlink:href="#rim" fill="#404040">
                                <set attributeName="fill" to="#808080" begin="zoomplus.mouseover" end="zoomplus.mouseout"/>
                        </use>
                        <path d="M-4,0h8M0,-4v8" fill="none" stroke="white" stroke-width="1.5" pointer-events="none"/>
                </g>
                <g id="zoomMin">
                        <use xlink:href="#rim" fill="#404040">
                                <set attributeName="fill" to="#808080" begin="zoomminus.mouseover" end="zoomminus.mouseout"/>
                        </use>
                        <path d="M-4,0h8" fill="none" stroke="white" stroke-width="1.5" pointer-events="none"/>
                </g>
                <g id="dirArrow">
                        <path fill="none" stroke="white" stroke-width="1.5" d="M0,-3.0v7 M-2.5,-0.5L0,-3.0L2.5,-0.5"/>
                </g>
               <g id="resetDef">
                       <use xlink:href="#rim2" fill="#404040">
                               <set attributeName="fill" to="#808080" begin="reset.mouseover" end="reset.mouseout"/>
                       </use>
               </g>
        </defs>

<script type="text/javascript">
var viewWidth = 878;
var viewHeight = 235;
var sectionId = 'dynsection-6';
</script>
<script xlink:href="svgpan.js"/>
<svg id="graph" class="graph">
<g id="viewport">
<title>toXML</title>
<!-- Node1 -->
<g id="node1" class="node"><title>Node1</title>
<g id="a_node1"><a xlink:title=" ">
<polygon fill="#999999" stroke="#666666" points="44,-64.152 0,-64.152 0,-45.152 44,-45.152 44,-64.152"/>
<text text-anchor="middle" x="22" y="-52.152" font-family="Helvetica,sans-Serif" font-size="10.00">toXML</text>
</a>
</g>
</g>
<!-- Node2 -->
<g id="node2" class="node"><title>Node2</title>
<g id="a_node2"><a xlink:href="classore_1_1data_1_1_x_m_l_utils.html#aced1fd4bd35df3642d8022301744b138" target="_top" xlink:title=" ">
<polygon fill="white" stroke="#666666" points="528,-90.652 429,-90.652 429,-60.652 528,-60.652 528,-90.652"/>
<text text-anchor="start" x="437" y="-78.652" font-family="Helvetica,sans-Serif" font-size="10.00">ore::data::XMLUtils</text>
<text text-anchor="middle" x="478.5" y="-67.652" font-family="Helvetica,sans-Serif" font-size="10.00">::addChild</text>
</a>
</g>
</g>
<!-- Node1&#45;&gt;Node2 -->
<g id="edge1" class="edge"><title>Node1&#45;&gt;Node2</title>
<path fill="none" stroke="#63b8ff" d="M44.096,-56.742C54.8358,-57.7451 68.1037,-58.8913 80,-59.652 200.219,-67.34 341.142,-71.9792 418.751,-74.1553"/>
<polygon fill="#63b8ff" stroke="#63b8ff" points="418.721,-77.6557 428.814,-74.4335 418.915,-70.6584 418.721,-77.6557"/>
</g>
<!-- Node3 -->
<g id="node3" class="node"><title>Node3</title>
<g id="a_node3"><a xlink:href="classore_1_1data_1_1_x_m_l_document.html#a8717c517803f0df2e693e3cadefeafd7" target="_top" xlink:title="util functions that wrap rapidxml">
<polygon fill="white" stroke="#666666" points="699,-90.652 575,-90.652 575,-60.652 699,-60.652 699,-90.652"/>
<text text-anchor="start" x="583" y="-78.652" font-family="Helvetica,sans-Serif" font-size="10.00">ore::data::XMLDocument</text>
<text text-anchor="middle" x="637" y="-67.652" font-family="Helvetica,sans-Serif" font-size="10.00">::allocNode</text>
</a>
</g>
</g>
<!-- Node1&#45;&gt;Node3 -->
<g id="edge6" class="edge"><title>Node1&#45;&gt;Node3</title>
<path fill="none" stroke="#63b8ff" d="M44.1626,-47.0909C54.8046,-43.5144 67.9672,-39.4297 80,-36.652 216.088,-5.23779 254.595,10.079 393,-8.65204 460.754,-17.8215 536.316,-40.7539 584.92,-57.2348"/>
<polygon fill="#63b8ff" stroke="#63b8ff" points="583.976,-60.611 594.571,-60.5427 586.246,-53.9892 583.976,-60.611"/>
</g>
<!-- Node5 -->
<g id="node5" class="node"><title>Node5</title>
<g id="a_node5"><a xlink:href="classore_1_1data_1_1_x_m_l_utils.html#a29cd524fd4d9381e10c71939131fa4d4" target="_top" xlink:title=" ">
<polygon fill="white" stroke="#666666" points="380,-47.652 281,-47.652 281,-17.652 380,-17.652 380,-47.652"/>
<text text-anchor="start" x="289" y="-35.652" font-family="Helvetica,sans-Serif" font-size="10.00">ore::data::XMLUtils</text>
<text text-anchor="middle" x="330.5" y="-24.652" font-family="Helvetica,sans-Serif" font-size="10.00">::addChildren</text>
</a>
</g>
</g>
<!-- Node1&#45;&gt;Node5 -->
<g id="edge4" class="edge"><title>Node1&#45;&gt;Node5</title>
<path fill="none" stroke="#63b8ff" d="M44.067,-53.1399C90.186,-49.8296 201.482,-41.841 270.681,-36.8739"/>
<polygon fill="#63b8ff" stroke="#63b8ff" points="271.267,-40.341 280.991,-36.1339 270.766,-33.3589 271.267,-40.341"/>
</g>
<!-- Node6 -->
<g id="node6" class="node"><title>Node6</title>
<g id="a_node6"><a xlink:href="classore_1_1data_1_1_quote_based_volatility_config.html#a7f336cc5825064e52b7f2566c814ef50" target="_top" xlink:title=" ">
<polygon fill="white" stroke="#666666" points="232,-152.652 80,-152.652 80,-122.652 232,-122.652 232,-152.652"/>
<text text-anchor="start" x="88" y="-140.652" font-family="Helvetica,sans-Serif" font-size="10.00">ore::data::QuoteBasedVolatility</text>
<text text-anchor="middle" x="156" y="-129.652" font-family="Helvetica,sans-Serif" font-size="10.00">Config::toBaseNode</text>
</a>
</g>
</g>
<!-- Node1&#45;&gt;Node6 -->
<g id="edge7" class="edge"><title>Node1&#45;&gt;Node6</title>
<path fill="none" stroke="#63b8ff" d="M38.1421,-64.1732C58.5848,-77.0273 95.5445,-100.267 122.438,-117.177"/>
<polygon fill="#63b8ff" stroke="#63b8ff" points="120.805,-120.285 131.134,-122.645 124.532,-114.359 120.805,-120.285"/>
</g>
<!-- Node2&#45;&gt;Node3 -->
<g id="edge2" class="edge"><title>Node2&#45;&gt;Node3</title>
<path fill="none" stroke="#63b8ff" d="M528.16,-75.652C539.726,-75.652 552.304,-75.652 564.652,-75.652"/>
<polygon fill="#63b8ff" stroke="#63b8ff" points="564.942,-79.1521 574.942,-75.652 564.941,-72.1521 564.942,-79.1521"/>
</g>
<!-- Node4 -->
<g id="node4" class="node"><title>Node4</title>
<g id="a_node4"><a xlink:href="classore_1_1data_1_1_x_m_l_document.html#ae3474059e483990f3afea260096e5c90" target="_top" xlink:title=" ">
<polygon fill="white" stroke="#666666" points="870,-130.652 746,-130.652 746,-100.652 870,-100.652 870,-130.652"/>
<text text-anchor="start" x="754" y="-118.652" font-family="Helvetica,sans-Serif" font-size="10.00">ore::data::XMLDocument</text>
<text text-anchor="middle" x="808" y="-107.652" font-family="Helvetica,sans-Serif" font-size="10.00">::allocString</text>
</a>
</g>
</g>
<!-- Node3&#45;&gt;Node4 -->
<g id="edge3" class="edge"><title>Node3&#45;&gt;Node4</title>
<path fill="none" stroke="#63b8ff" d="M699.013,-90.093C711.024,-92.9358 723.723,-95.9415 736.029,-98.8541"/>
<polygon fill="#63b8ff" stroke="#63b8ff" points="735.256,-102.268 745.793,-101.165 736.868,-95.456 735.256,-102.268"/>
</g>
<!-- Node5&#45;&gt;Node2 -->
<g id="edge5" class="edge"><title>Node5&#45;&gt;Node2</title>
<path fill="none" stroke="#63b8ff" d="M380.116,-46.9704C392.543,-50.6305 406.036,-54.6043 418.906,-58.3949"/>
<polygon fill="#63b8ff" stroke="#63b8ff" points="418.017,-61.7817 428.599,-61.2496 419.995,-55.0669 418.017,-61.7817"/>
</g>
<!-- Node6&#45;&gt;Node2 -->
<g id="edge8" class="edge"><title>Node6&#45;&gt;Node2</title>
<path fill="none" stroke="#63b8ff" d="M232.143,-123.116C289.155,-112.087 366.413,-97.1415 418.898,-86.9885"/>
<polygon fill="#63b8ff" stroke="#63b8ff" points="419.572,-90.4231 428.725,-85.0875 418.242,-83.5505 419.572,-90.4231"/>
</g>
<!-- Node7 -->
<g id="node7" class="node"><title>Node7</title>
<g id="a_node7"><a xlink:href="namespaceore_1_1data.html#a86651dfeb5c18ee891f7a4734d8cf455" target="_top" xlink:title=" ">
<polygon fill="white" stroke="#666666" points="527.5,-209.152 429.5,-209.152 429.5,-190.152 527.5,-190.152 527.5,-209.152"/>
<text text-anchor="middle" x="478.5" y="-197.152" font-family="Helvetica,sans-Serif" font-size="10.00">ore::data::to_string</text>
</a>
</g>
</g>
<!-- Node6&#45;&gt;Node7 -->
<g id="edge9" class="edge"><title>Node6&#45;&gt;Node7</title>
<path fill="none" stroke="#63b8ff" d="M188.786,-152.704C210.582,-162.336 240.433,-174.197 268,-180.652 318.261,-192.421 376.887,-196.986 419.318,-198.715"/>
<polygon fill="#63b8ff" stroke="#63b8ff" points="419.348,-202.218 429.47,-199.087 419.605,-195.223 419.348,-202.218"/>
</g>
<!-- Node8 -->
<g id="node8" class="node"><title>Node8</title>
<g id="a_node8"><a xlink:href="classore_1_1data_1_1_volatility_config.html#affd40009e63f171e02eeb7ffcb3cfad2" target="_top" xlink:title=" ">
<polygon fill="white" stroke="#666666" points="393,-171.652 268,-171.652 268,-141.652 393,-141.652 393,-171.652"/>
<text text-anchor="start" x="276" y="-159.652" font-family="Helvetica,sans-Serif" font-size="10.00">ore::data::VolatilityConfig</text>
<text text-anchor="middle" x="330.5" y="-148.652" font-family="Helvetica,sans-Serif" font-size="10.00">::toXMLNode</text>
</a>
</g>
</g>
<!-- Node6&#45;&gt;Node8 -->
<g id="edge11" class="edge"><title>Node6&#45;&gt;Node8</title>
<path fill="none" stroke="#63b8ff" d="M232.159,-145.93C240.615,-146.862 249.215,-147.809 257.628,-148.736"/>
<polygon fill="#63b8ff" stroke="#63b8ff" points="257.45,-152.237 267.774,-149.853 258.217,-145.279 257.45,-152.237"/>
</g>
<!-- Node7&#45;&gt;Node7 -->
<g id="edge10" class="edge"><title>Node7&#45;&gt;Node7</title>
<path fill="none" stroke="#63b8ff" d="M455.689,-209.235C444.592,-217.886 452.195,-227.152 478.5,-227.152 495.351,-227.152 504.528,-223.349 506.03,-218.341"/>
<polygon fill="#63b8ff" stroke="#63b8ff" points="509.019,-216.504 501.311,-209.235 502.804,-219.724 509.019,-216.504"/>
</g>
<!-- Node8&#45;&gt;Node2 -->
<g id="edge15" class="edge"><title>Node8&#45;&gt;Node2</title>
<path fill="none" stroke="#63b8ff" d="M365.351,-141.514C374.432,-137.23 384.176,-132.429 393,-127.652 410.855,-117.987 430.181,-106.199 445.839,-96.2911"/>
<polygon fill="#63b8ff" stroke="#63b8ff" points="448.047,-99.0342 454.595,-90.7053 444.282,-93.1327 448.047,-99.0342"/>
</g>
<!-- Node8&#45;&gt;Node7 -->
<g id="edge16" class="edge"><title>Node8&#45;&gt;Node7</title>
<path fill="none" stroke="#63b8ff" d="M382.564,-171.691C399.724,-176.745 418.668,-182.325 435.09,-187.161"/>
<polygon fill="#63b8ff" stroke="#63b8ff" points="434.369,-190.598 444.951,-190.066 436.347,-183.883 434.369,-190.598"/>
</g>
<!-- Node9 -->
<g id="node9" class="node"><title>Node9</title>
<g id="a_node9"><a xlink:href="classore_1_1data_1_1_x_m_l_utils.html#a226c81c31def2ba2c853ca803d1fafc5" target="_top" xlink:title=" ">
<polygon fill="white" stroke="#666666" points="528,-171.652 429,-171.652 429,-141.652 528,-141.652 528,-171.652"/>
<text text-anchor="start" x="437" y="-159.652" font-family="Helvetica,sans-Serif" font-size="10.00">ore::data::XMLUtils</text>
<text text-anchor="middle" x="478.5" y="-148.652" font-family="Helvetica,sans-Serif" font-size="10.00">::addAttribute</text>
</a>
</g>
</g>
<!-- Node8&#45;&gt;Node9 -->
<g id="edge12" class="edge"><title>Node8&#45;&gt;Node9</title>
<path fill="none" stroke="#63b8ff" d="M393.417,-156.652C401.816,-156.652 410.415,-156.652 418.755,-156.652"/>
<polygon fill="#63b8ff" stroke="#63b8ff" points="418.77,-160.152 428.77,-156.652 418.77,-153.152 418.77,-160.152"/>
</g>
<!-- Node9&#45;&gt;Node4 -->
<g id="edge13" class="edge"><title>Node9&#45;&gt;Node4</title>
<path fill="none" stroke="#63b8ff" d="M528.299,-154.626C575.115,-152.212 647.693,-147.237 710,-137.652 718.68,-136.317 727.74,-134.644 736.686,-132.82"/>
<polygon fill="#63b8ff" stroke="#63b8ff" points="737.649,-136.194 746.712,-130.706 736.205,-129.344 737.649,-136.194"/>
</g>
<!-- Node10 -->
<g id="node10" class="node"><title>Node10</title>
<g id="a_node10"><a xlink:href="classore_1_1data_1_1_x_m_l_document.html#a46d969cdb00bff64f3f4c0d2975a08d3" target="_top" xlink:title=" ">
<polygon fill="white" stroke="#666666" points="710,-128.152 564,-128.152 564,-109.152 710,-109.152 710,-128.152"/>
<text text-anchor="middle" x="637" y="-116.152" font-family="Helvetica,sans-Serif" font-size="10.00">ore::data::XMLDocument::doc</text>
</a>
</g>
</g>
<!-- Node9&#45;&gt;Node10 -->
<g id="edge14" class="edge"><title>Node9&#45;&gt;Node10</title>
<path fill="none" stroke="#63b8ff" d="M528.16,-144.837C546.87,-140.294 568.228,-135.108 586.973,-130.556"/>
<polygon fill="#63b8ff" stroke="#63b8ff" points="587.904,-133.932 596.796,-128.171 586.252,-127.13 587.904,-133.932"/>
</g>
</g>
</svg>
        <g id="navigator" transform="translate(0 0)" fill="#404254">
                <rect fill="#f2f5e9" fill-opacity="0.5" stroke="#606060" stroke-width=".5" x="0" y="0" width="60" height="60"/>
                <use id="zoomplus" xlink:href="#zoomPlus" x="17" y="9" onmousedown="handleZoom(evt,'in')"/>
                <use id="zoomminus" xlink:href="#zoomMin" x="42" y="9" onmousedown="handleZoom(evt,'out')"/>
                <use id="reset" xlink:href="#resetDef" x="30" y="36" onmousedown="handleReset()"/>
                <g id="arrowUp" xlink:href="#dirArrow" transform="translate(30 24)" onmousedown="handlePan(0,-1)">
                  <use xlink:href="#rim" fill="#404040">
                        <set attributeName="fill" to="#808080" begin="arrowUp.mouseover" end="arrowUp.mouseout"/>
                  </use>
                  <path fill="none" stroke="white" stroke-width="1.5" d="M0,-3.0v7 M-2.5,-0.5L0,-3.0L2.5,-0.5"/>
                </g>
                <g id="arrowRight" xlink:href="#dirArrow" transform="rotate(90) translate(36 -43)" onmousedown="handlePan(1,0)">
                  <use xlink:href="#rim" fill="#404040">
                        <set attributeName="fill" to="#808080" begin="arrowRight.mouseover" end="arrowRight.mouseout"/>
                  </use>
                  <path fill="none" stroke="white" stroke-width="1.5" d="M0,-3.0v7 M-2.5,-0.5L0,-3.0L2.5,-0.5"/>
                </g>
                <g id="arrowDown" xlink:href="#dirArrow" transform="rotate(180) translate(-30 -48)" onmousedown="handlePan(0,1)">
                  <use xlink:href="#rim" fill="#404040">
                        <set attributeName="fill" to="#808080" begin="arrowDown.mouseover" end="arrowDown.mouseout"/>
                  </use>
                  <path fill="none" stroke="white" stroke-width="1.5" d="M0,-3.0v7 M-2.5,-0.5L0,-3.0L2.5,-0.5"/>
                </g>
                <g id="arrowLeft" xlink:href="#dirArrow" transform="rotate(270) translate(-36 17)" onmousedown="handlePan(-1,0)">
                  <use xlink:href="#rim" fill="#404040">
                        <set attributeName="fill" to="#808080" begin="arrowLeft.mouseover" end="arrowLeft.mouseout"/>
                  </use>
                  <path fill="none" stroke="white" stroke-width="1.5" d="M0,-3.0v7 M-2.5,-0.5L0,-3.0L2.5,-0.5"/>
                </g>
        </g>
        <svg viewBox="0 0 15 15" width="100%" height="30px" preserveAspectRatio="xMaxYMin meet">
         <g id="arrow_out" transform="scale(0.3 0.3)">
          <a xlink:href="classore_1_1data_1_1_volatility_curve_config_a5ab84b4972e623b734fc13becbf7902e_cgraph_org.svg" target="_base">
           <rect id="button" ry="5" rx="5" y="6" x="6" height="38" width="38"
                fill="#f2f5e9" fill-opacity="0.5" stroke="#606060" stroke-width="1.0"/>
           <path id="arrow"
             d="M 11.500037,31.436501 C 11.940474,20.09759 22.043105,11.32322 32.158766,21.979434 L 37.068811,17.246167 C 37.068811,17.246167 37.088388,32 37.088388,32 L 22.160133,31.978069 C 22.160133,31.978069 26.997745,27.140456 26.997745,27.140456 C 18.528582,18.264221 13.291696,25.230495 11.500037,31.436501 z"
             style="fill:#404040;"/>
          </a>
         </g>
        </svg>
</svg>
