<?xml version="1.0" encoding="UTF-8" standalone="no"?>
<!DOCTYPE svg PUBLIC "-//W3C//DTD SVG 1.1//EN"
 "http://www.w3.org/Graphics/SVG/1.1/DTD/svg11.dtd">
<!-- Generated by graphviz version 2.38.0 (20140413.2041)
 -->
<!-- Title: checkBarriers Pages: 1 -->
<svg width="239pt" height="76pt"
 viewBox="0.00 0.00 239.00 75.50" xmlns="http://www.w3.org/2000/svg" xmlns:xlink="http://www.w3.org/1999/xlink">
<g id="graph0" class="graph" transform="scale(1 1) rotate(0) translate(4 71.5)">
<title>checkBarriers</title>
<!-- Node1 -->
<g id="node1" class="node"><title>Node1</title>
<g id="a_node1"><a xlink:title="check validity of barriers">
<polygon fill="#999999" stroke="#666666" points="77,-40 0,-40 0,-21 77,-21 77,-40"/>
<text text-anchor="middle" x="38.5" y="-28" font-family="Helvetica,sans-Serif" font-size="10.00">checkBarriers</text>
</a>
</g>
</g>
<!-- Node2 -->
<g id="node2" class="node"><title>Node2</title>
<g id="a_node2"><a xlink:href="classore_1_1data_1_1_barrier_option.html#a1c358c97a8920ec5f7ad00767f7520b8" target="_top" xlink:title=" ">
<polygon fill="white" stroke="#666666" points="231,-67.5 113,-67.5 113,-37.5 231,-37.5 231,-67.5"/>
<text text-anchor="start" x="121" y="-55.5" font-family="Helvetica,sans-Serif" font-size="10.00">ore::data::BarrierOption</text>
<text text-anchor="middle" x="172" y="-44.5" font-family="Helvetica,sans-Serif" font-size="10.00">::barrier</text>
</a>
</g>
</g>
<!-- Node1&#45;&gt;Node2 -->
<g id="edge1" class="edge"><title>Node1&#45;&gt;Node2</title>
<path fill="none" stroke="#63b8ff" d="M77.1826,-36.8043C85.2334,-38.1512 93.9753,-39.6137 102.776,-41.0862"/>
<polygon fill="#63b8ff" stroke="#63b8ff" points="102.264,-44.549 112.705,-42.7471 103.419,-37.645 102.264,-44.549"/>
</g>
<!-- Node3 -->
<g id="node3" class="node"><title>Node3</title>
<g id="a_node3"><a xlink:href="namespaceore_1_1data.html#a777e216dee6069b548bb87da7152699e" target="_top" xlink:title=" ">
<polygon fill="white" stroke="#666666" points="211.5,-19 132.5,-19 132.5,-0 211.5,-0 211.5,-19"/>
<text text-anchor="middle" x="172" y="-7" font-family="Helvetica,sans-Serif" font-size="10.00">ore::data::size</text>
</a>
</g>
</g>
<!-- Node1&#45;&gt;Node3 -->
<g id="edge2" class="edge"><title>Node1&#45;&gt;Node3</title>
<path fill="none" stroke="#63b8ff" d="M77.1826,-24.4822C91.2421,-22.237 107.409,-19.6552 122.319,-17.2742"/>
<polygon fill="#63b8ff" stroke="#63b8ff" points="123.075,-20.6978 132.398,-15.6645 121.971,-13.7854 123.075,-20.6978"/>
</g>
</g>
</svg>
