<?xml version="1.0" encoding="UTF-8" standalone="no"?>
<!DOCTYPE svg PUBLIC "-//W3C//DTD SVG 1.1//EN"
 "http://www.w3.org/Graphics/SVG/1.1/DTD/svg11.dtd">
<!-- Generated by graphviz version 2.38.0 (20140413.2041)
 -->
<!-- Title: extrapolation Pages: 1 -->
<svg width="388pt" height="182pt"
 viewBox="0.00 0.00 388.00 182.00" xmlns="http://www.w3.org/2000/svg" xmlns:xlink="http://www.w3.org/1999/xlink">
<g id="graph0" class="graph" transform="scale(1 1) rotate(0) translate(4 178)">
<title>extrapolation</title>
<!-- Node1 -->
<g id="node1" class="node"><title>Node1</title>
<g id="a_node1"><a xlink:title=" ">
<polygon fill="#999999" stroke="#666666" points="380,-96.5 308,-96.5 308,-77.5 380,-77.5 380,-96.5"/>
<text text-anchor="middle" x="344" y="-84.5" font-family="Helvetica,sans-Serif" font-size="10.00">extrapolation</text>
</a>
</g>
</g>
<!-- Node2 -->
<g id="node2" class="node"><title>Node2</title>
<g id="a_node2"><a xlink:href="classore_1_1data_1_1_default_curve.html#a6f5c39f7895a1200019a7816a740fff3" target="_top" xlink:title="Build a default curve implied from a spread over a benchmark curve.">
<polygon fill="white" stroke="#666666" points="269.5,-174 153.5,-174 153.5,-144 269.5,-144 269.5,-174"/>
<text text-anchor="start" x="161.5" y="-162" font-family="Helvetica,sans-Serif" font-size="10.00">ore::data::DefaultCurve</text>
<text text-anchor="middle" x="211.5" y="-151" font-family="Helvetica,sans-Serif" font-size="10.00">::buildBenchmarkCurve</text>
</a>
</g>
</g>
<!-- Node1&#45;&gt;Node2 -->
<g id="edge1" class="edge"><title>Node1&#45;&gt;Node2</title>
<path fill="none" stroke="#63b8ff" d="M322.402,-102.632C308.606,-112.666 289.779,-125.541 272,-135 266.002,-138.191 259.484,-141.224 253.034,-143.994"/>
<polygon fill="#63b8ff" stroke="#63b8ff" points="324.719,-105.271 330.68,-96.5125 320.558,-99.6425 324.719,-105.271"/>
</g>
<!-- Node4 -->
<g id="node4" class="node"><title>Node4</title>
<g id="a_node4"><a xlink:href="classore_1_1data_1_1_default_curve.html#a6c2b227db105241eb5c565b654f7dbe4" target="_top" xlink:title="Build a default curve from CDS spread quotes.">
<polygon fill="white" stroke="#666666" points="269,-126 154,-126 154,-96 269,-96 269,-126"/>
<text text-anchor="start" x="162" y="-114" font-family="Helvetica,sans-Serif" font-size="10.00">ore::data::DefaultCurve</text>
<text text-anchor="middle" x="211.5" y="-103" font-family="Helvetica,sans-Serif" font-size="10.00">::buildCdsCurve</text>
</a>
</g>
</g>
<!-- Node1&#45;&gt;Node4 -->
<g id="edge3" class="edge"><title>Node1&#45;&gt;Node4</title>
<path fill="none" stroke="#63b8ff" d="M297.696,-95.3318C288.594,-97.0056 278.92,-98.7847 269.481,-100.521"/>
<polygon fill="#63b8ff" stroke="#63b8ff" points="298.483,-98.7458 307.685,-93.4947 297.217,-91.8613 298.483,-98.7458"/>
</g>
<!-- Node5 -->
<g id="node5" class="node"><title>Node5</title>
<g id="a_node5"><a xlink:href="classore_1_1data_1_1_default_curve.html#a4b950bb31ea5936881a516d9c21c8651" target="_top" xlink:title="Build a default curve from hazard rate quotes.">
<polygon fill="white" stroke="#666666" points="270.5,-78 152.5,-78 152.5,-48 270.5,-48 270.5,-78"/>
<text text-anchor="start" x="160.5" y="-66" font-family="Helvetica,sans-Serif" font-size="10.00">ore::data::DefaultCurve</text>
<text text-anchor="middle" x="211.5" y="-55" font-family="Helvetica,sans-Serif" font-size="10.00">::buildHazardRateCurve</text>
</a>
</g>
</g>
<!-- Node1&#45;&gt;Node5 -->
<g id="edge5" class="edge"><title>Node1&#45;&gt;Node5</title>
<path fill="none" stroke="#63b8ff" d="M297.741,-78.6765C289.028,-77.0741 279.789,-75.3749 270.732,-73.7093"/>
<polygon fill="#63b8ff" stroke="#63b8ff" points="297.217,-82.1387 307.685,-80.5053 298.483,-75.2542 297.217,-82.1387"/>
</g>
<!-- Node6 -->
<g id="node6" class="node"><title>Node6</title>
<g id="a_node6"><a xlink:href="classore_1_1data_1_1_default_curve.html#a609f363ad2bd5b91493581ffff83738f" target="_top" xlink:title="Build a multi section curve.">
<polygon fill="white" stroke="#666666" points="272,-30 151,-30 151,-0 272,-0 272,-30"/>
<text text-anchor="start" x="159" y="-18" font-family="Helvetica,sans-Serif" font-size="10.00">ore::data::DefaultCurve</text>
<text text-anchor="middle" x="211.5" y="-7" font-family="Helvetica,sans-Serif" font-size="10.00">::buildMultiSectionCurve</text>
</a>
</g>
</g>
<!-- Node1&#45;&gt;Node6 -->
<g id="edge7" class="edge"><title>Node1&#45;&gt;Node6</title>
<path fill="none" stroke="#63b8ff" d="M322.402,-71.3681C308.606,-61.3338 289.779,-48.459 272,-39 266.002,-35.8087 259.484,-32.7756 253.034,-30.0065"/>
<polygon fill="#63b8ff" stroke="#63b8ff" points="320.558,-74.3575 330.68,-77.4875 324.719,-68.7286 320.558,-74.3575"/>
</g>
<!-- Node3 -->
<g id="node3" class="node"><title>Node3</title>
<g id="a_node3"><a xlink:href="classore_1_1data_1_1_default_curve.html#aab7d6b459c59f1a3854a5cefc764f485" target="_top" xlink:title="Detailed constructor.">
<polygon fill="white" stroke="#666666" points="115,-102 0,-102 0,-72 115,-72 115,-102"/>
<text text-anchor="start" x="8" y="-90" font-family="Helvetica,sans-Serif" font-size="10.00">ore::data::DefaultCurve</text>
<text text-anchor="middle" x="57.5" y="-79" font-family="Helvetica,sans-Serif" font-size="10.00">::DefaultCurve</text>
</a>
</g>
</g>
<!-- Node2&#45;&gt;Node3 -->
<g id="edge2" class="edge"><title>Node2&#45;&gt;Node3</title>
<path fill="none" stroke="#63b8ff" d="M162.126,-139.94C158.343,-138.312 154.597,-136.654 151,-135 128.809,-124.795 104.299,-112.005 86.0873,-102.194"/>
<polygon fill="#63b8ff" stroke="#63b8ff" points="160.97,-143.251 171.544,-143.908 163.688,-136.8 160.97,-143.251"/>
</g>
<!-- Node4&#45;&gt;Node3 -->
<g id="edge4" class="edge"><title>Node4&#45;&gt;Node3</title>
<path fill="none" stroke="#63b8ff" d="M143.981,-100.497C134.366,-98.9788 124.545,-97.4281 115.146,-95.9442"/>
<polygon fill="#63b8ff" stroke="#63b8ff" points="143.477,-103.961 153.901,-102.063 144.569,-97.0464 143.477,-103.961"/>
</g>
<!-- Node5&#45;&gt;Node3 -->
<g id="edge6" class="edge"><title>Node5&#45;&gt;Node3</title>
<path fill="none" stroke="#63b8ff" d="M142.164,-73.7899C133.226,-75.2011 124.146,-76.6349 115.423,-78.0121"/>
<polygon fill="#63b8ff" stroke="#63b8ff" points="142.836,-77.2273 152.168,-72.2104 141.744,-70.3129 142.836,-77.2273"/>
</g>
<!-- Node6&#45;&gt;Node3 -->
<g id="edge8" class="edge"><title>Node6&#45;&gt;Node3</title>
<path fill="none" stroke="#63b8ff" d="M162.126,-34.06C158.343,-35.6881 154.597,-37.3457 151,-39 128.809,-49.2049 104.299,-61.9953 86.0873,-71.8063"/>
<polygon fill="#63b8ff" stroke="#63b8ff" points="163.688,-37.2001 171.544,-30.0924 160.97,-30.7491 163.688,-37.2001"/>
</g>
</g>
</svg>
