<?xml version="1.0" encoding="UTF-8" standalone="no"?>
<!DOCTYPE svg PUBLIC "-//W3C//DTD SVG 1.1//EN"
 "http://www.w3.org/Graphics/SVG/1.1/DTD/svg11.dtd">
<!-- Generated by graphviz version 2.38.0 (20140413.2041)
 -->
<!-- Title: CrossCcyFixFloatSwapConvention Pages: 1 -->
<svg width="1127pt" height="900pt"
 viewBox="0.00 0.00 1126.50 900.00" xmlns="http://www.w3.org/2000/svg" xmlns:xlink="http://www.w3.org/1999/xlink">
<g id="graph0" class="graph" transform="scale(1 1) rotate(0) translate(4 896)">
<title>CrossCcyFixFloatSwapConvention</title>
<!-- Node1 -->
<g id="node1" class="node"><title>Node1</title>
<g id="a_node1"><a xlink:title=" ">
<polygon fill="#999999" stroke="#666666" points="698,-382 513,-382 513,-0 698,-0 698,-382"/>
<text text-anchor="middle" x="605.5" y="-370" font-family="Helvetica,sans-Serif" font-size="10.00">{CrossCcyFixFloatSwapConvention</text>
<text text-anchor="start" x="521" y="-359" font-family="Helvetica,sans-Serif" font-size="10.00">||+ CrossCcyFixFloatSwapConvention()</text>
<text text-anchor="start" x="521" y="-348" font-family="Helvetica,sans-Serif" font-size="10.00">+ CrossCcyFixFloatSwapConvention()</text>
<text text-anchor="start" x="521" y="-337" font-family="Helvetica,sans-Serif" font-size="10.00">+ settlementDays()</text>
<text text-anchor="start" x="521" y="-326" font-family="Helvetica,sans-Serif" font-size="10.00">+ settlementCalendar()</text>
<text text-anchor="start" x="521" y="-315" font-family="Helvetica,sans-Serif" font-size="10.00">+ settlementConvention()</text>
<text text-anchor="start" x="521" y="-304" font-family="Helvetica,sans-Serif" font-size="10.00">+ fixedCurrency()</text>
<text text-anchor="start" x="521" y="-293" font-family="Helvetica,sans-Serif" font-size="10.00">+ fixedFrequency()</text>
<text text-anchor="start" x="521" y="-282" font-family="Helvetica,sans-Serif" font-size="10.00">+ fixedConvention()</text>
<text text-anchor="start" x="521" y="-271" font-family="Helvetica,sans-Serif" font-size="10.00">+ fixedDayCounter()</text>
<text text-anchor="start" x="521" y="-260" font-family="Helvetica,sans-Serif" font-size="10.00">+ index()</text>
<text text-anchor="start" x="521" y="-249" font-family="Helvetica,sans-Serif" font-size="10.00">+ eom()</text>
<text text-anchor="start" x="521" y="-238" font-family="Helvetica,sans-Serif" font-size="10.00">+ isResettable()</text>
<text text-anchor="start" x="521" y="-227" font-family="Helvetica,sans-Serif" font-size="10.00">+ floatIndexIsResettable()</text>
<text text-anchor="start" x="521" y="-216" font-family="Helvetica,sans-Serif" font-size="10.00">+ fromXML()</text>
<text text-anchor="start" x="521" y="-205" font-family="Helvetica,sans-Serif" font-size="10.00">+ toXML()</text>
<text text-anchor="start" x="521" y="-194" font-family="Helvetica,sans-Serif" font-size="10.00">* strSettlementDays_</text>
<text text-anchor="start" x="521" y="-183" font-family="Helvetica,sans-Serif" font-size="10.00">* build()</text>
<text text-anchor="start" x="521" y="-172" font-family="Helvetica,sans-Serif" font-size="10.00">* CrossCcyFixFloatSwapConvention()</text>
<text text-anchor="start" x="521" y="-161" font-family="Helvetica,sans-Serif" font-size="10.00">* CrossCcyFixFloatSwapConvention()</text>
<text text-anchor="start" x="521" y="-150" font-family="Helvetica,sans-Serif" font-size="10.00">* settlementDays()</text>
<text text-anchor="start" x="521" y="-139" font-family="Helvetica,sans-Serif" font-size="10.00">* settlementCalendar()</text>
<text text-anchor="start" x="521" y="-128" font-family="Helvetica,sans-Serif" font-size="10.00">* settlementConvention()</text>
<text text-anchor="start" x="521" y="-117" font-family="Helvetica,sans-Serif" font-size="10.00">* fixedCurrency()</text>
<text text-anchor="start" x="521" y="-106" font-family="Helvetica,sans-Serif" font-size="10.00">* fixedFrequency()</text>
<text text-anchor="start" x="521" y="-95" font-family="Helvetica,sans-Serif" font-size="10.00">* fixedConvention()</text>
<text text-anchor="start" x="521" y="-84" font-family="Helvetica,sans-Serif" font-size="10.00">* fixedDayCounter()</text>
<text text-anchor="start" x="521" y="-73" font-family="Helvetica,sans-Serif" font-size="10.00">* index()</text>
<text text-anchor="start" x="521" y="-62" font-family="Helvetica,sans-Serif" font-size="10.00">* eom()</text>
<text text-anchor="start" x="521" y="-51" font-family="Helvetica,sans-Serif" font-size="10.00">* isResettable()</text>
<text text-anchor="start" x="521" y="-40" font-family="Helvetica,sans-Serif" font-size="10.00">* floatIndexIsResettable()</text>
<text text-anchor="start" x="521" y="-29" font-family="Helvetica,sans-Serif" font-size="10.00">* fromXML()</text>
<text text-anchor="start" x="521" y="-18" font-family="Helvetica,sans-Serif" font-size="10.00">* toXML()</text>
<text text-anchor="middle" x="605.5" y="-7" font-family="Helvetica,sans-Serif" font-size="10.00">}</text>
</a>
</g>
</g>
<!-- Node2 -->
<g id="node2" class="node"><title>Node2</title>
<g id="a_node2"><a xlink:href="classore_1_1data_1_1_convention.html" target="_top" xlink:title="Abstract base class for convention objects.">
<polygon fill="white" stroke="#666666" points="200,-625.5 111,-625.5 111,-507.5 200,-507.5 200,-625.5"/>
<text text-anchor="middle" x="155.5" y="-613.5" font-family="Helvetica,sans-Serif" font-size="10.00">{Convention</text>
<text text-anchor="start" x="119" y="-602.5" font-family="Helvetica,sans-Serif" font-size="10.00">||+ ~Convention()</text>
<text text-anchor="start" x="119" y="-591.5" font-family="Helvetica,sans-Serif" font-size="10.00">+ id()</text>
<text text-anchor="start" x="119" y="-580.5" font-family="Helvetica,sans-Serif" font-size="10.00">+ type()</text>
<text text-anchor="start" x="119" y="-569.5" font-family="Helvetica,sans-Serif" font-size="10.00">* build()</text>
<text text-anchor="start" x="119" y="-558.5" font-family="Helvetica,sans-Serif" font-size="10.00">* Convention()</text>
<text text-anchor="start" x="119" y="-547.5" font-family="Helvetica,sans-Serif" font-size="10.00">* Convention()</text>
<text text-anchor="start" x="119" y="-536.5" font-family="Helvetica,sans-Serif" font-size="10.00">* id()</text>
<text text-anchor="start" x="119" y="-525.5" font-family="Helvetica,sans-Serif" font-size="10.00">* type()</text>
<text text-anchor="middle" x="155.5" y="-514.5" font-family="Helvetica,sans-Serif" font-size="10.00">}</text>
</a>
</g>
</g>
<!-- Node2&#45;&gt;Node1 -->
<g id="edge1" class="edge"><title>Node2&#45;&gt;Node1</title>
<path fill="none" stroke="#63b8ff" d="M174.251,-497.495C185.809,-465.093 203.333,-427.506 228.5,-400 306.841,-314.379 428.814,-256.109 512.687,-223.506"/>
<polygon fill="none" stroke="#63b8ff" points="170.798,-496.773 170.854,-507.368 177.417,-499.051 170.798,-496.773"/>
</g>
<!-- Node3 -->
<g id="node3" class="node"><title>Node3</title>
<g id="a_node3"><a xlink:href="classore_1_1data_1_1_x_m_l_serializable.html" target="_top" xlink:title="Base class for all serializable classes.">
<polygon fill="white" stroke="#666666" points="111,-825 0,-825 0,-718 111,-718 111,-825"/>
<text text-anchor="middle" x="55.5" y="-813" font-family="Helvetica,sans-Serif" font-size="10.00">{XMLSerializable</text>
<text text-anchor="start" x="8" y="-802" font-family="Helvetica,sans-Serif" font-size="10.00">||+ ~XMLSerializable()</text>
<text text-anchor="start" x="8" y="-791" font-family="Helvetica,sans-Serif" font-size="10.00">+ fromXML()</text>
<text text-anchor="start" x="8" y="-780" font-family="Helvetica,sans-Serif" font-size="10.00">+ toXML()</text>
<text text-anchor="start" x="8" y="-769" font-family="Helvetica,sans-Serif" font-size="10.00">+ fromFile()</text>
<text text-anchor="start" x="8" y="-758" font-family="Helvetica,sans-Serif" font-size="10.00">+ toFile()</text>
<text text-anchor="start" x="8" y="-747" font-family="Helvetica,sans-Serif" font-size="10.00">+ fromXMLString()</text>
<text text-anchor="start" x="8" y="-736" font-family="Helvetica,sans-Serif" font-size="10.00">+ toXMLString()</text>
<text text-anchor="middle" x="55.5" y="-725" font-family="Helvetica,sans-Serif" font-size="10.00">}</text>
</a>
</g>
</g>
<!-- Node3&#45;&gt;Node2 -->
<g id="edge2" class="edge"><title>Node3&#45;&gt;Node2</title>
<path fill="none" stroke="#63b8ff" d="M85.898,-708.792C98.9334,-682.33 114.081,-651.581 126.91,-625.538"/>
<polygon fill="none" stroke="#63b8ff" points="82.6619,-707.441 81.3825,-717.958 88.9413,-710.534 82.6619,-707.441"/>
</g>
<!-- Node4 -->
<g id="node4" class="node"><title>Node4</title>
<g id="a_node4"><a xlink:title=" ">
<polygon fill="white" stroke="#666666" points="170,-786.5 129,-786.5 129,-756.5 170,-756.5 170,-786.5"/>
<text text-anchor="middle" x="149.5" y="-774.5" font-family="Helvetica,sans-Serif" font-size="10.00">{Type</text>
<text text-anchor="middle" x="149.5" y="-763.5" font-family="Helvetica,sans-Serif" font-size="10.00">||}</text>
</a>
</g>
</g>
<!-- Node4&#45;&gt;Node2 -->
<g id="edge3" class="edge"><title>Node4&#45;&gt;Node2</title>
<path fill="none" stroke="#404040" d="M149.55,-756.363C149.636,-740.108 149.869,-712.623 150.5,-689 150.944,-672.357 151.59,-654.439 152.269,-637.61"/>
<polygon fill="none" stroke="#404040" points="152.271,-637.571 148.523,-631.411 152.768,-625.582 156.516,-631.742 152.271,-637.571"/>
<text text-anchor="middle" x="167" y="-692" font-family="Helvetica,sans-Serif" font-size="10.00"> #type_</text>
</g>
<!-- Node5 -->
<g id="node5" class="node"><title>Node5</title>
<g id="a_node5"><a xlink:title=" ">
<polygon fill="white" stroke="#666666" points="248.5,-786.5 204.5,-786.5 204.5,-756.5 248.5,-756.5 248.5,-786.5"/>
<text text-anchor="middle" x="226.5" y="-774.5" font-family="Helvetica,sans-Serif" font-size="10.00">{string</text>
<text text-anchor="middle" x="226.5" y="-763.5" font-family="Helvetica,sans-Serif" font-size="10.00">||}</text>
</a>
</g>
</g>
<!-- Node5&#45;&gt;Node1 -->
<g id="edge13" class="edge"><title>Node5&#45;&gt;Node1</title>
<path fill="none" stroke="#404040" d="M226.976,-756.238C228.976,-699.035 237.266,-488.053 251.5,-462 307.062,-360.303 418.964,-285.116 502.156,-240.27"/>
<polygon fill="none" stroke="#404040" points="502.326,-240.179 505.747,-233.832 512.923,-234.548 509.502,-240.896 502.326,-240.179"/>
<text text-anchor="middle" x="308.5" y="-663" font-family="Helvetica,sans-Serif" font-size="10.00"> &#45;strEom_</text>
<text text-anchor="start" x="251.5" y="-652" font-family="Helvetica,sans-Serif" font-size="10.00">&#45;strFixedConvention</text>
<text text-anchor="middle" x="308.5" y="-641" font-family="Helvetica,sans-Serif" font-size="10.00">_</text>
<text text-anchor="start" x="251.5" y="-630" font-family="Helvetica,sans-Serif" font-size="10.00">&#45;strFixedCurrency</text>
<text text-anchor="middle" x="308.5" y="-619" font-family="Helvetica,sans-Serif" font-size="10.00">_</text>
<text text-anchor="start" x="251.5" y="-608" font-family="Helvetica,sans-Serif" font-size="10.00">&#45;strFixedDayCounter</text>
<text text-anchor="middle" x="308.5" y="-597" font-family="Helvetica,sans-Serif" font-size="10.00">_</text>
<text text-anchor="start" x="251.5" y="-586" font-family="Helvetica,sans-Serif" font-size="10.00">&#45;strFixedFrequency</text>
<text text-anchor="middle" x="308.5" y="-575" font-family="Helvetica,sans-Serif" font-size="10.00">_</text>
<text text-anchor="start" x="251.5" y="-564" font-family="Helvetica,sans-Serif" font-size="10.00">&#45;strFloatIndexIsResettable</text>
<text text-anchor="middle" x="308.5" y="-553" font-family="Helvetica,sans-Serif" font-size="10.00">_</text>
<text text-anchor="middle" x="308.5" y="-542" font-family="Helvetica,sans-Serif" font-size="10.00">&#45;strIndex_</text>
<text text-anchor="start" x="251.5" y="-531" font-family="Helvetica,sans-Serif" font-size="10.00">&#45;strIsResettable</text>
<text text-anchor="middle" x="308.5" y="-520" font-family="Helvetica,sans-Serif" font-size="10.00">_</text>
<text text-anchor="start" x="251.5" y="-509" font-family="Helvetica,sans-Serif" font-size="10.00">&#45;strSettlementCalendar</text>
<text text-anchor="middle" x="308.5" y="-498" font-family="Helvetica,sans-Serif" font-size="10.00">_</text>
<text text-anchor="start" x="251.5" y="-487" font-family="Helvetica,sans-Serif" font-size="10.00">&#45;strSettlementConvention</text>
<text text-anchor="middle" x="308.5" y="-476" font-family="Helvetica,sans-Serif" font-size="10.00">_</text>
<text text-anchor="middle" x="308.5" y="-465" font-family="Helvetica,sans-Serif" font-size="10.00">...</text>
</g>
<!-- Node5&#45;&gt;Node2 -->
<g id="edge4" class="edge"><title>Node5&#45;&gt;Node2</title>
<path fill="none" stroke="#404040" d="M221.507,-756.225C212.949,-731.755 194.944,-680.275 179.897,-637.255"/>
<polygon fill="none" stroke="#404040" points="179.805,-636.99 174.048,-632.647 175.843,-625.663 181.599,-630.006 179.805,-636.99"/>
<text text-anchor="middle" x="213.5" y="-692" font-family="Helvetica,sans-Serif" font-size="10.00"> #id_</text>
</g>
<!-- Node6 -->
<g id="node6" class="node"><title>Node6</title>
<g id="a_node6"><a xlink:title=" ">
<polygon fill="white" stroke="#666666" points="281.5,-892 171.5,-892 171.5,-862 281.5,-862 281.5,-892"/>
<text text-anchor="middle" x="226.5" y="-880" font-family="Helvetica,sans-Serif" font-size="10.00">{basic_string&lt; Char &gt;</text>
<text text-anchor="middle" x="226.5" y="-869" font-family="Helvetica,sans-Serif" font-size="10.00">||}</text>
</a>
</g>
</g>
<!-- Node6&#45;&gt;Node5 -->
<g id="edge5" class="edge"><title>Node6&#45;&gt;Node5</title>
<path fill="none" stroke="#63b8ff" d="M226.5,-851.597C226.5,-831.425 226.5,-803.476 226.5,-786.769"/>
<polygon fill="none" stroke="#63b8ff" points="223,-851.609 226.5,-861.609 230,-851.609 223,-851.609"/>
</g>
<!-- Node7 -->
<g id="node7" class="node"><title>Node7</title>
<g id="a_node7"><a xlink:title=" ">
<polygon fill="white" stroke="#666666" points="424.5,-581.5 374.5,-581.5 374.5,-551.5 424.5,-551.5 424.5,-581.5"/>
<text text-anchor="middle" x="399.5" y="-569.5" font-family="Helvetica,sans-Serif" font-size="10.00">{Natural</text>
<text text-anchor="middle" x="399.5" y="-558.5" font-family="Helvetica,sans-Serif" font-size="10.00">||}</text>
</a>
</g>
</g>
<!-- Node7&#45;&gt;Node1 -->
<g id="edge6" class="edge"><title>Node7&#45;&gt;Node1</title>
<path fill="none" stroke="#404040" d="M397.62,-551.466C394.293,-521.974 389.701,-451.999 412.5,-400 433.06,-353.106 468.741,-310.002 503.875,-275.342"/>
<polygon fill="none" stroke="#404040" points="504.165,-275.061 505.693,-268.014 512.786,-266.715 511.258,-273.762 504.165,-275.061"/>
<text text-anchor="middle" x="452.5" y="-419.5" font-family="Helvetica,sans-Serif" font-size="10.00"> &#45;settlementDays_</text>
</g>
<!-- Node8 -->
<g id="node8" class="node"><title>Node8</title>
<g id="a_node8"><a xlink:title=" ">
<polygon fill="white" stroke="#666666" points="515.5,-581.5 457.5,-581.5 457.5,-551.5 515.5,-551.5 515.5,-581.5"/>
<text text-anchor="middle" x="486.5" y="-569.5" font-family="Helvetica,sans-Serif" font-size="10.00">{Calendar</text>
<text text-anchor="middle" x="486.5" y="-558.5" font-family="Helvetica,sans-Serif" font-size="10.00">||}</text>
</a>
</g>
</g>
<!-- Node8&#45;&gt;Node1 -->
<g id="edge7" class="edge"><title>Node8&#45;&gt;Node1</title>
<path fill="none" stroke="#404040" d="M486.549,-551.463C486.988,-522.541 489.768,-454.459 505.5,-400 506.612,-396.151 507.79,-392.285 509.026,-388.409"/>
<polygon fill="none" stroke="#404040" points="509.114,-388.146 507.215,-381.19 512.906,-376.761 514.805,-383.718 509.114,-388.146"/>
<text text-anchor="middle" x="553.5" y="-419.5" font-family="Helvetica,sans-Serif" font-size="10.00"> &#45;settlementCalendar_</text>
</g>
<!-- Node9 -->
<g id="node9" class="node"><title>Node9</title>
<g id="a_node9"><a xlink:title=" ">
<polygon fill="white" stroke="#666666" points="668,-581.5 543,-581.5 543,-551.5 668,-551.5 668,-581.5"/>
<text text-anchor="middle" x="605.5" y="-569.5" font-family="Helvetica,sans-Serif" font-size="10.00">{BusinessDayConvention</text>
<text text-anchor="middle" x="605.5" y="-558.5" font-family="Helvetica,sans-Serif" font-size="10.00">||}</text>
</a>
</g>
</g>
<!-- Node9&#45;&gt;Node1 -->
<g id="edge8" class="edge"><title>Node9&#45;&gt;Node1</title>
<path fill="none" stroke="#404040" d="M605.5,-551.314C605.5,-523.905 605.5,-460.524 605.5,-394.499"/>
<polygon fill="none" stroke="#404040" points="605.5,-394.148 601.5,-388.148 605.5,-382.148 609.5,-388.148 605.5,-394.148"/>
<text text-anchor="middle" x="656.5" y="-425" font-family="Helvetica,sans-Serif" font-size="10.00"> &#45;fixedConvention_</text>
<text text-anchor="middle" x="656.5" y="-414" font-family="Helvetica,sans-Serif" font-size="10.00">&#45;settlementConvention_</text>
</g>
<!-- Node10 -->
<g id="node10" class="node"><title>Node10</title>
<g id="a_node10"><a xlink:title=" ">
<polygon fill="white" stroke="#666666" points="760,-581.5 701,-581.5 701,-551.5 760,-551.5 760,-581.5"/>
<text text-anchor="middle" x="730.5" y="-569.5" font-family="Helvetica,sans-Serif" font-size="10.00">{Currency</text>
<text text-anchor="middle" x="730.5" y="-558.5" font-family="Helvetica,sans-Serif" font-size="10.00">||}</text>
</a>
</g>
</g>
<!-- Node10&#45;&gt;Node1 -->
<g id="edge9" class="edge"><title>Node10&#45;&gt;Node1</title>
<path fill="none" stroke="#404040" d="M730.172,-551.443C729.163,-522.485 725.07,-454.341 708.5,-400 706.572,-393.676 704.468,-387.309 702.218,-380.929"/>
<polygon fill="none" stroke="#404040" points="702.138,-380.711 696.321,-376.448 698.018,-369.44 703.835,-373.702 702.138,-380.711"/>
<text text-anchor="middle" x="754" y="-419.5" font-family="Helvetica,sans-Serif" font-size="10.00"> &#45;fixedCurrency_</text>
</g>
<!-- Node11 -->
<g id="node11" class="node"><title>Node11</title>
<g id="a_node11"><a xlink:title=" ">
<polygon fill="white" stroke="#666666" points="857,-581.5 792,-581.5 792,-551.5 857,-551.5 857,-581.5"/>
<text text-anchor="middle" x="824.5" y="-569.5" font-family="Helvetica,sans-Serif" font-size="10.00">{Frequency</text>
<text text-anchor="middle" x="824.5" y="-558.5" font-family="Helvetica,sans-Serif" font-size="10.00">||}</text>
</a>
</g>
</g>
<!-- Node11&#45;&gt;Node1 -->
<g id="edge10" class="edge"><title>Node11&#45;&gt;Node1</title>
<path fill="none" stroke="#404040" d="M824.393,-551.402C823.643,-521.79 819.069,-451.6 793.5,-400 772.173,-356.96 739.353,-316.195 707.07,-282.346"/>
<polygon fill="none" stroke="#404040" points="706.789,-282.057 699.741,-280.533 698.436,-273.441 705.485,-274.965 706.789,-282.057"/>
<text text-anchor="middle" x="848.5" y="-419.5" font-family="Helvetica,sans-Serif" font-size="10.00"> &#45;fixedFrequency_</text>
</g>
<!-- Node12 -->
<g id="node12" class="node"><title>Node12</title>
<g id="a_node12"><a xlink:title=" ">
<polygon fill="white" stroke="#666666" points="961,-581.5 890,-581.5 890,-551.5 961,-551.5 961,-581.5"/>
<text text-anchor="middle" x="925.5" y="-569.5" font-family="Helvetica,sans-Serif" font-size="10.00">{DayCounter</text>
<text text-anchor="middle" x="925.5" y="-558.5" font-family="Helvetica,sans-Serif" font-size="10.00">||}</text>
</a>
</g>
</g>
<!-- Node12&#45;&gt;Node1 -->
<g id="edge11" class="edge"><title>Node12&#45;&gt;Node1</title>
<path fill="none" stroke="#404040" d="M925.899,-551.382C926.092,-521.126 922.954,-448.824 891.5,-400 847.102,-331.084 771.213,-277.473 708.761,-241.949"/>
<polygon fill="none" stroke="#404040" points="708.538,-241.825 701.349,-242.387 698.066,-235.966 705.255,-235.405 708.538,-241.825"/>
<text text-anchor="middle" x="953" y="-419.5" font-family="Helvetica,sans-Serif" font-size="10.00"> &#45;fixedDayCounter_</text>
</g>
<!-- Node13 -->
<g id="node13" class="node"><title>Node13</title>
<g id="a_node13"><a xlink:href="classbool.html" target="_top" xlink:title=" ">
<polygon fill="white" stroke="#666666" points="1050.5,-581.5 1012.5,-581.5 1012.5,-551.5 1050.5,-551.5 1050.5,-581.5"/>
<text text-anchor="middle" x="1031.5" y="-569.5" font-family="Helvetica,sans-Serif" font-size="10.00">{bool</text>
<text text-anchor="middle" x="1031.5" y="-558.5" font-family="Helvetica,sans-Serif" font-size="10.00">||}</text>
</a>
</g>
</g>
<!-- Node13&#45;&gt;Node1 -->
<g id="edge12" class="edge"><title>Node13&#45;&gt;Node1</title>
<path fill="none" stroke="#404040" d="M1032.5,-551.492C1033.95,-520.824 1033.34,-446.751 998.5,-400 927.686,-304.971 800.471,-249.116 709.968,-219.624"/>
<polygon fill="none" stroke="#404040" points="709.718,-219.545 702.786,-221.532 698.286,-215.897 705.218,-213.91 709.718,-219.545"/>
<text text-anchor="middle" x="1069" y="-436" font-family="Helvetica,sans-Serif" font-size="10.00"> &#45;eom_</text>
<text text-anchor="start" x="1019.5" y="-425" font-family="Helvetica,sans-Serif" font-size="10.00">&#45;floatIndexIsResettable</text>
<text text-anchor="middle" x="1069" y="-414" font-family="Helvetica,sans-Serif" font-size="10.00">_</text>
<text text-anchor="middle" x="1069" y="-403" font-family="Helvetica,sans-Serif" font-size="10.00">&#45;isResettable_</text>
</g>
</g>
</svg>
