<?xml version="1.0" encoding="UTF-8" standalone="no"?>
<!DOCTYPE svg PUBLIC "-//W3C//DTD SVG 1.1//EN"
 "http://www.w3.org/Graphics/SVG/1.1/DTD/svg11.dtd">
<!-- Generated by graphviz version 2.38.0 (20140413.2041)
 -->
<!-- Title: CommodityPositionInstrumentWrapperEngine Pages: 1 -->
<svg width="213pt" height="225pt"
 viewBox="0.00 0.00 213.00 225.00" xmlns="http://www.w3.org/2000/svg" xmlns:xlink="http://www.w3.org/1999/xlink">
<g id="graph0" class="graph" transform="scale(1 1) rotate(0) translate(4 221)">
<title>CommodityPositionInstrumentWrapperEngine</title>
<!-- Node1 -->
<g id="node1" class="node"><title>Node1</title>
<g id="a_node1"><a xlink:title=" ">
<polygon fill="#999999" stroke="#666666" points="177.5,-52 27.5,-52 27.5,-0 177.5,-0 177.5,-52"/>
<text text-anchor="start" x="35.5" y="-40" font-family="Helvetica,sans-Serif" font-size="10.00">{CommodityPositionInstrument</text>
<text text-anchor="middle" x="102.5" y="-29" font-family="Helvetica,sans-Serif" font-size="10.00">WrapperEngine</text>
<text text-anchor="start" x="35.5" y="-18" font-family="Helvetica,sans-Serif" font-size="10.00">||+ calculate()</text>
<text text-anchor="middle" x="102.5" y="-7" font-family="Helvetica,sans-Serif" font-size="10.00">}</text>
</a>
</g>
</g>
<!-- Node2 -->
<g id="node2" class="node"><title>Node2</title>
<g id="a_node2"><a xlink:href="classore_1_1data_1_1_commodity_position_instrument_wrapper_1_1engine.html" target="_top" xlink:title=" ">
<polygon fill="white" stroke="#666666" points="126.5,-118 78.5,-118 78.5,-88 126.5,-88 126.5,-118"/>
<text text-anchor="middle" x="102.5" y="-106" font-family="Helvetica,sans-Serif" font-size="10.00">{engine</text>
<text text-anchor="middle" x="102.5" y="-95" font-family="Helvetica,sans-Serif" font-size="10.00">||}</text>
</a>
</g>
</g>
<!-- Node2&#45;&gt;Node1 -->
<g id="edge1" class="edge"><title>Node2&#45;&gt;Node1</title>
<path fill="none" stroke="#63b8ff" d="M102.5,-77.8642C102.5,-69.689 102.5,-60.5388 102.5,-52.2772"/>
<polygon fill="none" stroke="#63b8ff" points="99.0001,-77.893 102.5,-87.8931 106,-77.8931 99.0001,-77.893"/>
</g>
<!-- Node3 -->
<g id="node3" class="node"><title>Node3</title>
<g id="a_node3"><a xlink:title=" ">
<polygon fill="white" stroke="#666666" points="205,-217 0,-217 0,-154 205,-154 205,-217"/>
<text text-anchor="start" x="8" y="-205" font-family="Helvetica,sans-Serif" font-size="10.00">{GenericEngine&lt; Commodity</text>
<text text-anchor="start" x="8" y="-194" font-family="Helvetica,sans-Serif" font-size="10.00">PositionInstrumentWrapper</text>
<text text-anchor="start" x="8" y="-183" font-family="Helvetica,sans-Serif" font-size="10.00">::arguments, CommodityPositionInstrument</text>
<text text-anchor="middle" x="102.5" y="-172" font-family="Helvetica,sans-Serif" font-size="10.00">Wrapper::results &gt;</text>
<text text-anchor="middle" x="102.5" y="-161" font-family="Helvetica,sans-Serif" font-size="10.00">||}</text>
</a>
</g>
</g>
<!-- Node3&#45;&gt;Node2 -->
<g id="edge2" class="edge"><title>Node3&#45;&gt;Node2</title>
<path fill="none" stroke="#63b8ff" d="M102.5,-143.394C102.5,-134.282 102.5,-125.228 102.5,-118.103"/>
<polygon fill="none" stroke="#63b8ff" points="99.0001,-143.607 102.5,-153.607 106,-143.607 99.0001,-143.607"/>
</g>
</g>
</svg>
