<?xml version="1.0" encoding="UTF-8" standalone="no"?>
<!DOCTYPE svg PUBLIC "-//W3C//DTD SVG 1.1//EN"
 "http://www.w3.org/Graphics/SVG/1.1/DTD/svg11.dtd">
<!-- Generated by graphviz version 2.38.0 (20140413.2041)
 -->
<!-- Title: CommodityVolatilityConfig Pages: 1 -->
<svg width="1567pt" height="1138pt"
 viewBox="0.00 0.00 1567.00 1138.00" xmlns="http://www.w3.org/2000/svg" xmlns:xlink="http://www.w3.org/1999/xlink">
<g id="graph0" class="graph" transform="scale(1 1) rotate(0) translate(4 1134)">
<title>CommodityVolatilityConfig</title>
<!-- Node1 -->
<g id="node1" class="node"><title>Node1</title>
<g id="a_node1"><a xlink:title="Commodity volatility configuration.">
<polygon fill="#999999" stroke="#666666" points="694,-371 544,-371 544,-0 694,-0 694,-371"/>
<text text-anchor="middle" x="619" y="-359" font-family="Helvetica,sans-Serif" font-size="10.00">{CommodityVolatilityConfig</text>
<text text-anchor="start" x="552" y="-348" font-family="Helvetica,sans-Serif" font-size="10.00">||+ CommodityVolatilityConfig()</text>
<text text-anchor="start" x="552" y="-337" font-family="Helvetica,sans-Serif" font-size="10.00">+ CommodityVolatilityConfig()</text>
<text text-anchor="start" x="552" y="-326" font-family="Helvetica,sans-Serif" font-size="10.00">+ currency()</text>
<text text-anchor="start" x="552" y="-315" font-family="Helvetica,sans-Serif" font-size="10.00">+ volatilityConfig()</text>
<text text-anchor="start" x="552" y="-304" font-family="Helvetica,sans-Serif" font-size="10.00">+ dayCounter()</text>
<text text-anchor="start" x="552" y="-293" font-family="Helvetica,sans-Serif" font-size="10.00">+ calendar()</text>
<text text-anchor="start" x="552" y="-282" font-family="Helvetica,sans-Serif" font-size="10.00">+ futureConventionsId()</text>
<text text-anchor="start" x="552" y="-271" font-family="Helvetica,sans-Serif" font-size="10.00">+ optionExpiryRollDays()</text>
<text text-anchor="start" x="552" y="-260" font-family="Helvetica,sans-Serif" font-size="10.00">+ priceCurveId()</text>
<text text-anchor="start" x="552" y="-249" font-family="Helvetica,sans-Serif" font-size="10.00">+ yieldCurveId()</text>
<text text-anchor="start" x="552" y="-238" font-family="Helvetica,sans-Serif" font-size="10.00">+ quoteSuffix()</text>
<text text-anchor="start" x="552" y="-227" font-family="Helvetica,sans-Serif" font-size="10.00">+ solverConfig()</text>
<text text-anchor="start" x="552" y="-216" font-family="Helvetica,sans-Serif" font-size="10.00">+ preferOutOfTheMoney()</text>
<text text-anchor="start" x="552" y="-205" font-family="Helvetica,sans-Serif" font-size="10.00">+ reportConfig()</text>
<text text-anchor="start" x="552" y="-194" font-family="Helvetica,sans-Serif" font-size="10.00">* fromXML()</text>
<text text-anchor="start" x="552" y="-183" font-family="Helvetica,sans-Serif" font-size="10.00">* toXML()</text>
<text text-anchor="start" x="552" y="-172" font-family="Helvetica,sans-Serif" font-size="10.00">* populateRequiredCurveIds()</text>
<text text-anchor="start" x="552" y="-161" font-family="Helvetica,sans-Serif" font-size="10.00">* populateQuotes()</text>
<text text-anchor="start" x="552" y="-150" font-family="Helvetica,sans-Serif" font-size="10.00">* defaultSolverConfig()</text>
<text text-anchor="start" x="552" y="-139" font-family="Helvetica,sans-Serif" font-size="10.00">* currency()</text>
<text text-anchor="start" x="552" y="-128" font-family="Helvetica,sans-Serif" font-size="10.00">* volatilityConfig()</text>
<text text-anchor="start" x="552" y="-117" font-family="Helvetica,sans-Serif" font-size="10.00">* dayCounter()</text>
<text text-anchor="start" x="552" y="-106" font-family="Helvetica,sans-Serif" font-size="10.00">* calendar()</text>
<text text-anchor="start" x="552" y="-95" font-family="Helvetica,sans-Serif" font-size="10.00">* futureConventionsId()</text>
<text text-anchor="start" x="552" y="-84" font-family="Helvetica,sans-Serif" font-size="10.00">* optionExpiryRollDays()</text>
<text text-anchor="start" x="552" y="-73" font-family="Helvetica,sans-Serif" font-size="10.00">* priceCurveId()</text>
<text text-anchor="start" x="552" y="-62" font-family="Helvetica,sans-Serif" font-size="10.00">* yieldCurveId()</text>
<text text-anchor="start" x="552" y="-51" font-family="Helvetica,sans-Serif" font-size="10.00">* quoteSuffix()</text>
<text text-anchor="start" x="552" y="-40" font-family="Helvetica,sans-Serif" font-size="10.00">* solverConfig()</text>
<text text-anchor="start" x="552" y="-29" font-family="Helvetica,sans-Serif" font-size="10.00">* preferOutOfTheMoney()</text>
<text text-anchor="start" x="552" y="-18" font-family="Helvetica,sans-Serif" font-size="10.00">* reportConfig()</text>
<text text-anchor="middle" x="619" y="-7" font-family="Helvetica,sans-Serif" font-size="10.00">}</text>
</a>
</g>
</g>
<!-- Node2 -->
<g id="node2" class="node"><title>Node2</title>
<g id="a_node2"><a xlink:href="classore_1_1data_1_1_curve_config.html" target="_top" xlink:title="Base curve configuration.">
<polygon fill="white" stroke="#666666" points="403.5,-640.5 300.5,-640.5 300.5,-423.5 403.5,-423.5 403.5,-640.5"/>
<text text-anchor="middle" x="352" y="-628.5" font-family="Helvetica,sans-Serif" font-size="10.00">{CurveConfig</text>
<text text-anchor="start" x="308.5" y="-617.5" font-family="Helvetica,sans-Serif" font-size="10.00">||+ CurveConfig()</text>
<text text-anchor="start" x="308.5" y="-606.5" font-family="Helvetica,sans-Serif" font-size="10.00">+ CurveConfig()</text>
<text text-anchor="start" x="308.5" y="-595.5" font-family="Helvetica,sans-Serif" font-size="10.00">+ curveID()</text>
<text text-anchor="start" x="308.5" y="-584.5" font-family="Helvetica,sans-Serif" font-size="10.00">+ curveDescription()</text>
<text text-anchor="start" x="308.5" y="-573.5" font-family="Helvetica,sans-Serif" font-size="10.00">+ requiredCurveIds()</text>
<text text-anchor="start" x="308.5" y="-562.5" font-family="Helvetica,sans-Serif" font-size="10.00">+ requiredCurveIds()</text>
<text text-anchor="start" x="308.5" y="-551.5" font-family="Helvetica,sans-Serif" font-size="10.00">* curveID()</text>
<text text-anchor="start" x="308.5" y="-540.5" font-family="Helvetica,sans-Serif" font-size="10.00">* curveDescription()</text>
<text text-anchor="start" x="308.5" y="-529.5" font-family="Helvetica,sans-Serif" font-size="10.00">* requiredCurveIds()</text>
<text text-anchor="start" x="308.5" y="-518.5" font-family="Helvetica,sans-Serif" font-size="10.00">* requiredCurveIds()</text>
<text text-anchor="start" x="308.5" y="-507.5" font-family="Helvetica,sans-Serif" font-size="10.00">* quotes()</text>
<text text-anchor="start" x="308.5" y="-496.5" font-family="Helvetica,sans-Serif" font-size="10.00">* CurveConfig()</text>
<text text-anchor="start" x="308.5" y="-485.5" font-family="Helvetica,sans-Serif" font-size="10.00">* CurveConfig()</text>
<text text-anchor="start" x="308.5" y="-474.5" font-family="Helvetica,sans-Serif" font-size="10.00">* curveID()</text>
<text text-anchor="start" x="308.5" y="-463.5" font-family="Helvetica,sans-Serif" font-size="10.00">* curveDescription()</text>
<text text-anchor="start" x="308.5" y="-452.5" font-family="Helvetica,sans-Serif" font-size="10.00">* requiredCurveIds()</text>
<text text-anchor="start" x="308.5" y="-441.5" font-family="Helvetica,sans-Serif" font-size="10.00">* requiredCurveIds()</text>
<text text-anchor="middle" x="352" y="-430.5" font-family="Helvetica,sans-Serif" font-size="10.00">}</text>
</a>
</g>
</g>
<!-- Node2&#45;&gt;Node1 -->
<g id="edge1" class="edge"><title>Node2&#45;&gt;Node1</title>
<path fill="none" stroke="#63b8ff" d="M409.98,-456.191C449.22,-405.561 501.431,-338.194 543.855,-283.457"/>
<polygon fill="none" stroke="#63b8ff" points="407.156,-454.12 403.797,-464.168 412.689,-458.409 407.156,-454.12"/>
</g>
<!-- Node3 -->
<g id="node3" class="node"><title>Node3</title>
<g id="a_node3"><a xlink:href="classore_1_1data_1_1_x_m_l_serializable.html" target="_top" xlink:title="Base class for all serializable classes.">
<polygon fill="white" stroke="#666666" points="990.5,-877 879.5,-877 879.5,-770 990.5,-770 990.5,-877"/>
<text text-anchor="middle" x="935" y="-865" font-family="Helvetica,sans-Serif" font-size="10.00">{XMLSerializable</text>
<text text-anchor="start" x="887.5" y="-854" font-family="Helvetica,sans-Serif" font-size="10.00">||+ ~XMLSerializable()</text>
<text text-anchor="start" x="887.5" y="-843" font-family="Helvetica,sans-Serif" font-size="10.00">+ fromXML()</text>
<text text-anchor="start" x="887.5" y="-832" font-family="Helvetica,sans-Serif" font-size="10.00">+ toXML()</text>
<text text-anchor="start" x="887.5" y="-821" font-family="Helvetica,sans-Serif" font-size="10.00">+ fromFile()</text>
<text text-anchor="start" x="887.5" y="-810" font-family="Helvetica,sans-Serif" font-size="10.00">+ toFile()</text>
<text text-anchor="start" x="887.5" y="-799" font-family="Helvetica,sans-Serif" font-size="10.00">+ fromXMLString()</text>
<text text-anchor="start" x="887.5" y="-788" font-family="Helvetica,sans-Serif" font-size="10.00">+ toXMLString()</text>
<text text-anchor="middle" x="935" y="-777" font-family="Helvetica,sans-Serif" font-size="10.00">}</text>
</a>
</g>
</g>
<!-- Node3&#45;&gt;Node2 -->
<g id="edge2" class="edge"><title>Node3&#45;&gt;Node2</title>
<path fill="none" stroke="#63b8ff" d="M915.748,-759.866C902.367,-720.789 883.959,-675.753 867,-664 831.619,-639.481 519.898,-662.161 480,-646 451.427,-634.426 424.944,-613.607 403.569,-592.964"/>
<polygon fill="none" stroke="#63b8ff" points="912.533,-761.286 919.038,-769.649 919.168,-759.055 912.533,-761.286"/>
</g>
<!-- Node18 -->
<g id="node18" class="node"><title>Node18</title>
<g id="a_node18"><a xlink:href="classore_1_1data_1_1_one_dim_solver_config.html" target="_top" xlink:title=" ">
<polygon fill="white" stroke="#666666" points="811.5,-646 686.5,-646 686.5,-418 811.5,-418 811.5,-646"/>
<text text-anchor="middle" x="749" y="-634" font-family="Helvetica,sans-Serif" font-size="10.00">{OneDimSolverConfig</text>
<text text-anchor="start" x="694.5" y="-623" font-family="Helvetica,sans-Serif" font-size="10.00">||+ OneDimSolverConfig()</text>
<text text-anchor="start" x="694.5" y="-612" font-family="Helvetica,sans-Serif" font-size="10.00">+ OneDimSolverConfig()</text>
<text text-anchor="start" x="694.5" y="-601" font-family="Helvetica,sans-Serif" font-size="10.00">+ OneDimSolverConfig()</text>
<text text-anchor="start" x="694.5" y="-590" font-family="Helvetica,sans-Serif" font-size="10.00">+ fromXML()</text>
<text text-anchor="start" x="694.5" y="-579" font-family="Helvetica,sans-Serif" font-size="10.00">+ toXML()</text>
<text text-anchor="start" x="694.5" y="-568" font-family="Helvetica,sans-Serif" font-size="10.00">* maxEvaluations()</text>
<text text-anchor="start" x="694.5" y="-557" font-family="Helvetica,sans-Serif" font-size="10.00">* initialGuess()</text>
<text text-anchor="start" x="694.5" y="-546" font-family="Helvetica,sans-Serif" font-size="10.00">* accuracy()</text>
<text text-anchor="start" x="694.5" y="-535" font-family="Helvetica,sans-Serif" font-size="10.00">* minMax()</text>
<text text-anchor="start" x="694.5" y="-524" font-family="Helvetica,sans-Serif" font-size="10.00">* step()</text>
<text text-anchor="start" x="694.5" y="-513" font-family="Helvetica,sans-Serif" font-size="10.00">* lowerBound()</text>
<text text-anchor="start" x="694.5" y="-502" font-family="Helvetica,sans-Serif" font-size="10.00">* upperBound()</text>
<text text-anchor="start" x="694.5" y="-491" font-family="Helvetica,sans-Serif" font-size="10.00">* empty()</text>
<text text-anchor="start" x="694.5" y="-480" font-family="Helvetica,sans-Serif" font-size="10.00">* operator QuantExt::</text>
<text text-anchor="start" x="694.5" y="-469" font-family="Helvetica,sans-Serif" font-size="10.00">Solver1DOptions()</text>
<text text-anchor="start" x="694.5" y="-458" font-family="Helvetica,sans-Serif" font-size="10.00">* check()</text>
<text text-anchor="start" x="694.5" y="-447" font-family="Helvetica,sans-Serif" font-size="10.00">* fromXML()</text>
<text text-anchor="start" x="694.5" y="-436" font-family="Helvetica,sans-Serif" font-size="10.00">* toXML()</text>
<text text-anchor="middle" x="749" y="-425" font-family="Helvetica,sans-Serif" font-size="10.00">}</text>
</a>
</g>
</g>
<!-- Node3&#45;&gt;Node18 -->
<g id="edge24" class="edge"><title>Node3&#45;&gt;Node18</title>
<path fill="none" stroke="#63b8ff" d="M937.393,-759.627C935.978,-729.031 930.297,-692.746 914,-664 890.369,-622.317 847.717,-588.991 811.698,-566.384"/>
<polygon fill="none" stroke="#63b8ff" points="933.899,-759.884 937.718,-769.766 940.895,-759.659 933.899,-759.884"/>
</g>
<!-- Node24 -->
<g id="node24" class="node"><title>Node24</title>
<g id="a_node24"><a xlink:href="classore_1_1data_1_1_report_config.html" target="_top" xlink:title=" ">
<polygon fill="white" stroke="#666666" points="1163.5,-624 1020.5,-624 1020.5,-440 1163.5,-440 1163.5,-624"/>
<text text-anchor="middle" x="1092" y="-612" font-family="Helvetica,sans-Serif" font-size="10.00">{ReportConfig</text>
<text text-anchor="start" x="1028.5" y="-601" font-family="Helvetica,sans-Serif" font-size="10.00">||+ ReportConfig()</text>
<text text-anchor="start" x="1028.5" y="-590" font-family="Helvetica,sans-Serif" font-size="10.00">+ ReportConfig()</text>
<text text-anchor="start" x="1028.5" y="-579" font-family="Helvetica,sans-Serif" font-size="10.00">+ reportOnDeltaGrid()</text>
<text text-anchor="start" x="1028.5" y="-568" font-family="Helvetica,sans-Serif" font-size="10.00">+ reportOnMoneynessGrid()</text>
<text text-anchor="start" x="1028.5" y="-557" font-family="Helvetica,sans-Serif" font-size="10.00">+ reportOnStrikeGrid()</text>
<text text-anchor="start" x="1028.5" y="-546" font-family="Helvetica,sans-Serif" font-size="10.00">+ reportOnStrikeSpreadGrid()</text>
<text text-anchor="start" x="1028.5" y="-535" font-family="Helvetica,sans-Serif" font-size="10.00">+ deltas()</text>
<text text-anchor="start" x="1028.5" y="-524" font-family="Helvetica,sans-Serif" font-size="10.00">+ moneyness()</text>
<text text-anchor="start" x="1028.5" y="-513" font-family="Helvetica,sans-Serif" font-size="10.00">+ strikes()</text>
<text text-anchor="start" x="1028.5" y="-502" font-family="Helvetica,sans-Serif" font-size="10.00">+ strikeSpreads()</text>
<text text-anchor="start" x="1028.5" y="-491" font-family="Helvetica,sans-Serif" font-size="10.00">+ expiries()</text>
<text text-anchor="start" x="1028.5" y="-480" font-family="Helvetica,sans-Serif" font-size="10.00">+ underlyingTenors()</text>
<text text-anchor="start" x="1028.5" y="-469" font-family="Helvetica,sans-Serif" font-size="10.00">+ fromXML()</text>
<text text-anchor="start" x="1028.5" y="-458" font-family="Helvetica,sans-Serif" font-size="10.00">+ toXML()</text>
<text text-anchor="middle" x="1092" y="-447" font-family="Helvetica,sans-Serif" font-size="10.00">}</text>
</a>
</g>
</g>
<!-- Node3&#45;&gt;Node24 -->
<g id="edge31" class="edge"><title>Node3&#45;&gt;Node24</title>
<path fill="none" stroke="#63b8ff" d="M968.387,-760.936C989.967,-721.144 1018.43,-668.655 1042.61,-624.077"/>
<polygon fill="none" stroke="#63b8ff" points="965.304,-759.279 963.614,-769.738 971.458,-762.616 965.304,-759.279"/>
</g>
<!-- Node4 -->
<g id="node4" class="node"><title>Node4</title>
<g id="a_node4"><a xlink:title=" ">
<polygon fill="white" stroke="#666666" points="170,-1053 126,-1053 126,-1023 170,-1023 170,-1053"/>
<text text-anchor="middle" x="148" y="-1041" font-family="Helvetica,sans-Serif" font-size="10.00">{string</text>
<text text-anchor="middle" x="148" y="-1030" font-family="Helvetica,sans-Serif" font-size="10.00">||}</text>
</a>
</g>
</g>
<!-- Node4&#45;&gt;Node1 -->
<g id="edge18" class="edge"><title>Node4&#45;&gt;Node1</title>
<path fill="none" stroke="#404040" d="M125.843,-1035.07C84.5559,-1030.13 0,-1013.1 0,-956.5 0,-956.5 0,-956.5 0,-531 0,-290.49 361.207,-216.401 531.774,-194.823"/>
<polygon fill="none" stroke="#404040" points="531.806,-194.819 537.275,-190.118 543.717,-193.358 538.249,-198.059 531.806,-194.819"/>
<text text-anchor="middle" x="44" y="-859.5" font-family="Helvetica,sans-Serif" font-size="10.00"> &#45;calendar_</text>
<text text-anchor="middle" x="44" y="-848.5" font-family="Helvetica,sans-Serif" font-size="10.00">&#45;currency_</text>
<text text-anchor="middle" x="44" y="-837.5" font-family="Helvetica,sans-Serif" font-size="10.00">&#45;dayCounter_</text>
<text text-anchor="start" x="0" y="-826.5" font-family="Helvetica,sans-Serif" font-size="10.00">&#45;futureConventionsId</text>
<text text-anchor="middle" x="44" y="-815.5" font-family="Helvetica,sans-Serif" font-size="10.00">_</text>
<text text-anchor="middle" x="44" y="-804.5" font-family="Helvetica,sans-Serif" font-size="10.00">&#45;priceCurveId_</text>
<text text-anchor="middle" x="44" y="-793.5" font-family="Helvetica,sans-Serif" font-size="10.00">&#45;quoteSuffix_</text>
<text text-anchor="middle" x="44" y="-782.5" font-family="Helvetica,sans-Serif" font-size="10.00">&#45;yieldCurveId_</text>
</g>
<!-- Node4&#45;&gt;Node2 -->
<g id="edge3" class="edge"><title>Node4&#45;&gt;Node2</title>
<path fill="none" stroke="#404040" d="M140.401,-1023C127.575,-997.646 103.877,-942.372 113,-895 136.497,-772.99 228.98,-657.885 291.767,-591.464"/>
<polygon fill="none" stroke="#404040" points="292.124,-591.091 293.381,-583.99 300.419,-582.419 299.162,-589.52 292.124,-591.091"/>
<text text-anchor="middle" x="155.5" y="-909" font-family="Helvetica,sans-Serif" font-size="10.00"> #curveDescription_</text>
<text text-anchor="middle" x="155.5" y="-898" font-family="Helvetica,sans-Serif" font-size="10.00">#curveID_</text>
</g>
<!-- Node6 -->
<g id="node6" class="node"><title>Node6</title>
<g id="a_node6"><a xlink:title=" ">
<polygon fill="white" stroke="#666666" points="259.5,-838.5 172.5,-838.5 172.5,-808.5 259.5,-808.5 259.5,-838.5"/>
<text text-anchor="middle" x="216" y="-826.5" font-family="Helvetica,sans-Serif" font-size="10.00">{vector&lt; string &gt;</text>
<text text-anchor="middle" x="216" y="-815.5" font-family="Helvetica,sans-Serif" font-size="10.00">||}</text>
</a>
</g>
</g>
<!-- Node4&#45;&gt;Node6 -->
<g id="edge6" class="edge"><title>Node4&#45;&gt;Node6</title>
<path fill="none" stroke="#404040" d="M152.42,-1022.99C159.033,-1002.87 172.506,-964.918 189,-935 193.764,-926.358 198.268,-926.135 202,-917 210.692,-895.724 214.053,-869.707 215.32,-850.691"/>
<polygon fill="none" stroke="#404040" points="215.329,-850.505 211.624,-844.318 215.911,-838.519 219.615,-844.706 215.329,-850.505"/>
<text text-anchor="middle" x="213.5" y="-953" font-family="Helvetica,sans-Serif" font-size="10.00"> +elements</text>
</g>
<!-- Node11 -->
<g id="node11" class="node"><title>Node11</title>
<g id="a_node11"><a xlink:title=" ">
<polygon fill="white" stroke="#666666" points="501.5,-970.5 426.5,-970.5 426.5,-940.5 501.5,-940.5 501.5,-970.5"/>
<text text-anchor="middle" x="464" y="-958.5" font-family="Helvetica,sans-Serif" font-size="10.00">{set&lt; string &gt;</text>
<text text-anchor="middle" x="464" y="-947.5" font-family="Helvetica,sans-Serif" font-size="10.00">||}</text>
</a>
</g>
</g>
<!-- Node4&#45;&gt;Node11 -->
<g id="edge12" class="edge"><title>Node4&#45;&gt;Node11</title>
<path fill="none" stroke="#404040" d="M170.425,-1035.54C233.417,-1031.29 408.828,-1018.38 431,-1005 440.074,-999.524 447.224,-990.486 452.514,-981.687"/>
<polygon fill="none" stroke="#404040" points="452.588,-981.548 451.876,-974.372 458.226,-970.954 458.938,-978.13 452.588,-981.548"/>
<text text-anchor="middle" x="459.5" y="-997" font-family="Helvetica,sans-Serif" font-size="10.00"> +keys</text>
</g>
<!-- Node5 -->
<g id="node5" class="node"><title>Node5</title>
<g id="a_node5"><a xlink:title=" ">
<polygon fill="white" stroke="#666666" points="203,-1130 93,-1130 93,-1100 203,-1100 203,-1130"/>
<text text-anchor="middle" x="148" y="-1118" font-family="Helvetica,sans-Serif" font-size="10.00">{basic_string&lt; Char &gt;</text>
<text text-anchor="middle" x="148" y="-1107" font-family="Helvetica,sans-Serif" font-size="10.00">||}</text>
</a>
</g>
</g>
<!-- Node5&#45;&gt;Node4 -->
<g id="edge4" class="edge"><title>Node5&#45;&gt;Node4</title>
<path fill="none" stroke="#63b8ff" d="M148,-1089.54C148,-1077.45 148,-1063.29 148,-1053.04"/>
<polygon fill="none" stroke="#63b8ff" points="144.5,-1089.89 148,-1099.89 151.5,-1089.89 144.5,-1089.89"/>
</g>
<!-- Node6&#45;&gt;Node2 -->
<g id="edge5" class="edge"><title>Node6&#45;&gt;Node2</title>
<path fill="none" stroke="#404040" d="M222.744,-808.144C236.216,-779.466 267.613,-712.633 296.088,-652.02"/>
<polygon fill="none" stroke="#404040" points="296.263,-651.646 295.194,-644.514 301.365,-640.785 302.435,-647.916 296.263,-651.646"/>
<text text-anchor="middle" x="310.5" y="-705.5" font-family="Helvetica,sans-Serif" font-size="10.00"> #quotes_</text>
</g>
<!-- Node7 -->
<g id="node7" class="node"><title>Node7</title>
<g id="a_node7"><a xlink:title=" ">
<polygon fill="white" stroke="#666666" points="588,-970.5 520,-970.5 520,-940.5 588,-940.5 588,-970.5"/>
<text text-anchor="middle" x="554" y="-958.5" font-family="Helvetica,sans-Serif" font-size="10.00">{vector&lt; T &gt;</text>
<text text-anchor="middle" x="554" y="-947.5" font-family="Helvetica,sans-Serif" font-size="10.00">||}</text>
</a>
</g>
</g>
<!-- Node7&#45;&gt;Node6 -->
<g id="edge7" class="edge"><title>Node7&#45;&gt;Node6</title>
<path fill="none" stroke="orange" d="M543.204,-931.42C535.802,-918.372 524.663,-903.093 510,-895 462.981,-869.05 317.869,-899.271 269,-877 250.851,-868.729 235.358,-851.41 225.893,-838.923"/>
<polygon fill="orange" stroke="orange" points="540.173,-933.176 547.93,-940.392 546.366,-929.914 540.173,-933.176"/>
<text text-anchor="middle" x="557" y="-903.5" font-family="Helvetica,sans-Serif" font-size="10.00"> &lt; string &gt;</text>
</g>
<!-- Node15 -->
<g id="node15" class="node"><title>Node15</title>
<g id="a_node15"><a xlink:title=" ">
<polygon fill="white" stroke="#666666" points="560,-849.5 444,-849.5 444,-797.5 560,-797.5 560,-849.5"/>
<text text-anchor="start" x="452" y="-837.5" font-family="Helvetica,sans-Serif" font-size="10.00">{vector&lt; QuantLib::ext</text>
<text text-anchor="start" x="452" y="-826.5" font-family="Helvetica,sans-Serif" font-size="10.00">::shared_ptr&lt; ore::data</text>
<text text-anchor="middle" x="502" y="-815.5" font-family="Helvetica,sans-Serif" font-size="10.00">::VolatilityConfig &gt; &gt;</text>
<text text-anchor="middle" x="502" y="-804.5" font-family="Helvetica,sans-Serif" font-size="10.00">||}</text>
</a>
</g>
</g>
<!-- Node7&#45;&gt;Node15 -->
<g id="edge21" class="edge"><title>Node7&#45;&gt;Node15</title>
<path fill="none" stroke="orange" d="M577.688,-932.705C581.498,-927.932 584.882,-922.614 587,-917 590.452,-907.852 591.158,-903.85 587,-895 584.065,-888.753 557.538,-867.227 534.888,-849.588"/>
<polygon fill="orange" stroke="orange" points="575.066,-930.386 571.02,-940.178 580.289,-935.046 575.066,-930.386"/>
<text text-anchor="start" x="590" y="-909" font-family="Helvetica,sans-Serif" font-size="10.00"> &lt; QuantLib::ext::shared</text>
<text text-anchor="middle" x="666.5" y="-898" font-family="Helvetica,sans-Serif" font-size="10.00">_ptr&lt; ore::data::VolatilityConfig &gt; &gt;</text>
</g>
<!-- Node8 -->
<g id="node8" class="node"><title>Node8</title>
<g id="a_node8"><a xlink:title=" ">
<polygon fill="white" stroke="#666666" points="473.5,-1053 444.5,-1053 444.5,-1023 473.5,-1023 473.5,-1053"/>
<text text-anchor="middle" x="459" y="-1041" font-family="Helvetica,sans-Serif" font-size="10.00">{T</text>
<text text-anchor="middle" x="459" y="-1030" font-family="Helvetica,sans-Serif" font-size="10.00">||}</text>
</a>
</g>
</g>
<!-- Node8&#45;&gt;Node7 -->
<g id="edge8" class="edge"><title>Node8&#45;&gt;Node7</title>
<path fill="none" stroke="#404040" d="M472.787,-1023C481.495,-1014.37 493.119,-1003.22 504,-994 510.451,-988.532 517.609,-982.918 524.444,-977.753"/>
<polygon fill="none" stroke="#404040" points="524.475,-977.731 526.908,-970.942 534.11,-970.577 531.677,-977.365 524.475,-977.731"/>
<text text-anchor="middle" x="528.5" y="-997" font-family="Helvetica,sans-Serif" font-size="10.00"> +elements</text>
</g>
<!-- Node14 -->
<g id="node14" class="node"><title>Node14</title>
<g id="a_node14"><a xlink:title=" ">
<polygon fill="white" stroke="#666666" points="405,-970.5 331,-970.5 331,-940.5 405,-940.5 405,-970.5"/>
<text text-anchor="middle" x="368" y="-958.5" font-family="Helvetica,sans-Serif" font-size="10.00">{map&lt; K, T &gt;</text>
<text text-anchor="middle" x="368" y="-947.5" font-family="Helvetica,sans-Serif" font-size="10.00">||}</text>
</a>
</g>
</g>
<!-- Node8&#45;&gt;Node14 -->
<g id="edge17" class="edge"><title>Node8&#45;&gt;Node14</title>
<path fill="none" stroke="#404040" d="M444.319,-1034.81C426.969,-1031.44 398.393,-1023.36 382,-1005 376.483,-998.823 373.132,-990.597 371.099,-982.677"/>
<polygon fill="none" stroke="#404040" points="371.087,-982.615 366.046,-977.458 368.867,-970.822 373.908,-975.978 371.087,-982.615"/>
<text text-anchor="middle" x="406.5" y="-997" font-family="Helvetica,sans-Serif" font-size="10.00"> +elements</text>
</g>
<!-- Node9 -->
<g id="node9" class="node"><title>Node9</title>
<g id="a_node9"><a xlink:title=" ">
<polygon fill="white" stroke="#666666" points="426,-844 278,-844 278,-803 426,-803 426,-844"/>
<text text-anchor="start" x="286" y="-832" font-family="Helvetica,sans-Serif" font-size="10.00">{map&lt; CurveSpec::CurveType,</text>
<text text-anchor="middle" x="352" y="-821" font-family="Helvetica,sans-Serif" font-size="10.00"> set&lt; string &gt; &gt;</text>
<text text-anchor="middle" x="352" y="-810" font-family="Helvetica,sans-Serif" font-size="10.00">||}</text>
</a>
</g>
</g>
<!-- Node9&#45;&gt;Node2 -->
<g id="edge9" class="edge"><title>Node9&#45;&gt;Node2</title>
<path fill="none" stroke="#404040" d="M352,-802.601C352,-771.593 352,-709.39 352,-652.54"/>
<polygon fill="none" stroke="#404040" points="352,-652.503 348,-646.503 352,-640.503 356,-646.503 352,-652.503"/>
<text text-anchor="middle" x="394.5" y="-705.5" font-family="Helvetica,sans-Serif" font-size="10.00"> #requiredCurveIds_</text>
</g>
<!-- Node10 -->
<g id="node10" class="node"><title>Node10</title>
<g id="a_node10"><a xlink:title=" ">
<polygon fill="white" stroke="#666666" points="312.5,-970.5 247.5,-970.5 247.5,-940.5 312.5,-940.5 312.5,-970.5"/>
<text text-anchor="middle" x="280" y="-958.5" font-family="Helvetica,sans-Serif" font-size="10.00">{CurveType</text>
<text text-anchor="middle" x="280" y="-947.5" font-family="Helvetica,sans-Serif" font-size="10.00">||}</text>
</a>
</g>
</g>
<!-- Node10&#45;&gt;Node9 -->
<g id="edge10" class="edge"><title>Node10&#45;&gt;Node9</title>
<path fill="none" stroke="#404040" d="M281.831,-940.191C283.831,-927.745 287.762,-909.485 295,-895 302.495,-880.002 313.622,-865.279 324.06,-853.199"/>
<polygon fill="none" stroke="#404040" points="324.189,-853.055 325.218,-845.918 332.202,-844.122 331.173,-851.26 324.189,-853.055"/>
<text text-anchor="middle" x="310.5" y="-903.5" font-family="Helvetica,sans-Serif" font-size="10.00"> +keys</text>
</g>
<!-- Node11&#45;&gt;Node9 -->
<g id="edge11" class="edge"><title>Node11&#45;&gt;Node9</title>
<path fill="none" stroke="#404040" d="M462.242,-940.175C460.107,-927.383 455.528,-908.617 446,-895 433.797,-877.56 415.925,-862.624 399.033,-851.049"/>
<polygon fill="none" stroke="#404040" points="398.741,-850.858 391.53,-850.917 388.702,-844.284 395.913,-844.224 398.741,-850.858"/>
<text text-anchor="middle" x="481.5" y="-903.5" font-family="Helvetica,sans-Serif" font-size="10.00"> +elements</text>
</g>
<!-- Node12 -->
<g id="node12" class="node"><title>Node12</title>
<g id="a_node12"><a xlink:title=" ">
<polygon fill="white" stroke="#666666" points="579,-1053 521,-1053 521,-1023 579,-1023 579,-1053"/>
<text text-anchor="middle" x="550" y="-1041" font-family="Helvetica,sans-Serif" font-size="10.00">{set&lt; K &gt;</text>
<text text-anchor="middle" x="550" y="-1030" font-family="Helvetica,sans-Serif" font-size="10.00">||}</text>
</a>
</g>
</g>
<!-- Node12&#45;&gt;Node11 -->
<g id="edge13" class="edge"><title>Node12&#45;&gt;Node11</title>
<path fill="none" stroke="orange" d="M559.938,-1012.84C561.097,-1006.29 560.75,-999.494 557,-994 544.624,-975.867 531.362,-984.207 511,-976 506.657,-974.25 502.098,-972.388 497.599,-970.537"/>
<polygon fill="orange" stroke="orange" points="556.498,-1012.14 557.147,-1022.71 563.234,-1014.04 556.498,-1012.14"/>
<text text-anchor="middle" x="584" y="-997" font-family="Helvetica,sans-Serif" font-size="10.00"> &lt; string &gt;</text>
</g>
<!-- Node13 -->
<g id="node13" class="node"><title>Node13</title>
<g id="a_node13"><a xlink:title=" ">
<polygon fill="white" stroke="#666666" points="378.5,-1130 349.5,-1130 349.5,-1100 378.5,-1100 378.5,-1130"/>
<text text-anchor="middle" x="364" y="-1118" font-family="Helvetica,sans-Serif" font-size="10.00">{K</text>
<text text-anchor="middle" x="364" y="-1107" font-family="Helvetica,sans-Serif" font-size="10.00">||}</text>
</a>
</g>
</g>
<!-- Node13&#45;&gt;Node12 -->
<g id="edge14" class="edge"><title>Node13&#45;&gt;Node12</title>
<path fill="none" stroke="#404040" d="M378.595,-1108.11C406.482,-1096.87 468.226,-1071.97 509.483,-1055.34"/>
<polygon fill="none" stroke="#404040" points="509.661,-1055.27 513.73,-1049.31 520.79,-1050.78 516.722,-1056.73 509.661,-1055.27"/>
<text text-anchor="middle" x="484.5" y="-1074" font-family="Helvetica,sans-Serif" font-size="10.00"> +keys</text>
</g>
<!-- Node13&#45;&gt;Node14 -->
<g id="edge16" class="edge"><title>Node13&#45;&gt;Node14</title>
<path fill="none" stroke="#404040" d="M364.362,-1099.75C365.031,-1073.39 366.472,-1016.67 367.326,-983.051"/>
<polygon fill="none" stroke="#404040" points="367.337,-982.605 363.491,-976.506 367.642,-970.609 371.488,-976.709 367.337,-982.605"/>
<text text-anchor="middle" x="382.5" y="-1035.5" font-family="Helvetica,sans-Serif" font-size="10.00"> +keys</text>
</g>
<!-- Node14&#45;&gt;Node9 -->
<g id="edge15" class="edge"><title>Node14&#45;&gt;Node9</title>
<path fill="none" stroke="orange" d="M342.897,-932.894C338.854,-928.105 335.259,-922.732 333,-917 323.501,-892.901 332.965,-863.314 341.603,-844.193"/>
<polygon fill="orange" stroke="orange" points="340.552,-935.508 349.968,-940.363 345.635,-930.695 340.552,-935.508"/>
<text text-anchor="start" x="333" y="-909" font-family="Helvetica,sans-Serif" font-size="10.00"> &lt; CurveSpec::CurveType,</text>
<text text-anchor="middle" x="389.5" y="-898" font-family="Helvetica,sans-Serif" font-size="10.00"> set&lt; string &gt; &gt;</text>
</g>
<!-- Node15&#45;&gt;Node1 -->
<g id="edge19" class="edge"><title>Node15&#45;&gt;Node1</title>
<path fill="none" stroke="#404040" d="M499.143,-797.434C492.572,-733.268 479.333,-558.253 512,-418 518.35,-390.739 528.088,-362.824 539.155,-336.241"/>
<polygon fill="none" stroke="#404040" points="539.269,-335.975 537.941,-328.887 543.973,-324.936 545.301,-332.024 539.269,-335.975"/>
<text text-anchor="middle" x="548.5" y="-529.5" font-family="Helvetica,sans-Serif" font-size="10.00"> &#45;volatilityConfig_</text>
</g>
<!-- Node16 -->
<g id="node16" class="node"><title>Node16</title>
<g id="a_node16"><a xlink:title=" ">
<polygon fill="white" stroke="#666666" points="841.5,-976 728.5,-976 728.5,-935 841.5,-935 841.5,-976"/>
<text text-anchor="start" x="736.5" y="-964" font-family="Helvetica,sans-Serif" font-size="10.00">{shared_ptr&lt; ore::data</text>
<text text-anchor="middle" x="785" y="-953" font-family="Helvetica,sans-Serif" font-size="10.00">::VolatilityConfig &gt;</text>
<text text-anchor="middle" x="785" y="-942" font-family="Helvetica,sans-Serif" font-size="10.00">||}</text>
</a>
</g>
</g>
<!-- Node16&#45;&gt;Node15 -->
<g id="edge20" class="edge"><title>Node16&#45;&gt;Node15</title>
<path fill="none" stroke="#404040" d="M777.795,-934.75C771.752,-921.187 761.719,-904.057 747,-895 679.279,-853.33 642.762,-906.694 569,-877 557.382,-872.323 546.113,-864.989 536.236,-857.269"/>
<polygon fill="none" stroke="#404040" points="536.104,-857.16 528.931,-856.413 526.861,-849.506 534.034,-850.252 536.104,-857.16"/>
<text text-anchor="middle" x="793.5" y="-903.5" font-family="Helvetica,sans-Serif" font-size="10.00"> +elements</text>
</g>
<!-- Node17 -->
<g id="node17" class="node"><title>Node17</title>
<g id="a_node17"><a xlink:title=" ">
<polygon fill="white" stroke="#666666" points="644,-547 594,-547 594,-517 644,-517 644,-547"/>
<text text-anchor="middle" x="619" y="-535" font-family="Helvetica,sans-Serif" font-size="10.00">{Natural</text>
<text text-anchor="middle" x="619" y="-524" font-family="Helvetica,sans-Serif" font-size="10.00">||}</text>
</a>
</g>
</g>
<!-- Node17&#45;&gt;Node1 -->
<g id="edge22" class="edge"><title>Node17&#45;&gt;Node1</title>
<path fill="none" stroke="#404040" d="M619,-516.636C619,-492.145 619,-439.473 619,-383.246"/>
<polygon fill="none" stroke="#404040" points="619,-383.203 615,-377.203 619,-371.203 623,-377.203 619,-383.203"/>
<text text-anchor="middle" x="671.5" y="-392" font-family="Helvetica,sans-Serif" font-size="10.00"> &#45;optionExpiryRollDays_</text>
</g>
<!-- Node18&#45;&gt;Node1 -->
<g id="edge23" class="edge"><title>Node18&#45;&gt;Node1</title>
<path fill="none" stroke="#404040" d="M734.11,-417.79C731.78,-407.952 729.095,-398.235 726,-389 718.792,-367.489 709.482,-345.508 699.365,-324.335"/>
<polygon fill="none" stroke="#404040" points="699.265,-324.131 693.041,-320.49 694.008,-313.344 700.232,-316.985 699.265,-324.131"/>
<text text-anchor="middle" x="761" y="-392" font-family="Helvetica,sans-Serif" font-size="10.00"> &#45;solverConfig_</text>
</g>
<!-- Node19 -->
<g id="node19" class="node"><title>Node19</title>
<g id="a_node19"><a xlink:title=" ">
<polygon fill="white" stroke="#666666" points="617.5,-838.5 578.5,-838.5 578.5,-808.5 617.5,-808.5 617.5,-838.5"/>
<text text-anchor="middle" x="598" y="-826.5" font-family="Helvetica,sans-Serif" font-size="10.00">{Size</text>
<text text-anchor="middle" x="598" y="-815.5" font-family="Helvetica,sans-Serif" font-size="10.00">||}</text>
</a>
</g>
</g>
<!-- Node19&#45;&gt;Node18 -->
<g id="edge25" class="edge"><title>Node19&#45;&gt;Node18</title>
<path fill="none" stroke="#404040" d="M590.585,-808.43C575.889,-778.387 547.277,-707.191 581,-664 601.299,-638.001 624.98,-663.403 653,-646 661.566,-640.68 669.758,-634.342 677.49,-627.423"/>
<polygon fill="none" stroke="#404040" points="677.625,-627.296 679.242,-620.269 686.351,-619.059 684.734,-626.086 677.625,-627.296"/>
<text text-anchor="middle" x="621" y="-705.5" font-family="Helvetica,sans-Serif" font-size="10.00"> &#45;maxEvaluations_</text>
</g>
<!-- Node20 -->
<g id="node20" class="node"><title>Node20</title>
<g id="a_node20"><a xlink:title=" ">
<polygon fill="white" stroke="#666666" points="674.5,-838.5 635.5,-838.5 635.5,-808.5 674.5,-808.5 674.5,-838.5"/>
<text text-anchor="middle" x="655" y="-826.5" font-family="Helvetica,sans-Serif" font-size="10.00">{Real</text>
<text text-anchor="middle" x="655" y="-815.5" font-family="Helvetica,sans-Serif" font-size="10.00">||}</text>
</a>
</g>
</g>
<!-- Node20&#45;&gt;Node18 -->
<g id="edge26" class="edge"><title>Node20&#45;&gt;Node18</title>
<path fill="none" stroke="#404040" d="M656.268,-808.175C659.058,-779.969 666.889,-715.502 684,-664 684.705,-661.879 685.438,-659.748 686.197,-657.612"/>
<polygon fill="none" stroke="#404040" points="686.28,-657.388 684.635,-650.367 690.484,-646.149 692.129,-653.17 686.28,-657.388"/>
<text text-anchor="middle" x="714.5" y="-727.5" font-family="Helvetica,sans-Serif" font-size="10.00"> &#45;accuracy_</text>
<text text-anchor="middle" x="714.5" y="-716.5" font-family="Helvetica,sans-Serif" font-size="10.00">&#45;initialGuess_</text>
<text text-anchor="middle" x="714.5" y="-705.5" font-family="Helvetica,sans-Serif" font-size="10.00">&#45;lowerBound_</text>
<text text-anchor="middle" x="714.5" y="-694.5" font-family="Helvetica,sans-Serif" font-size="10.00">&#45;step_</text>
<text text-anchor="middle" x="714.5" y="-683.5" font-family="Helvetica,sans-Serif" font-size="10.00">&#45;upperBound_</text>
</g>
<!-- Node21 -->
<g id="node21" class="node"><title>Node21</title>
<g id="a_node21"><a xlink:title=" ">
<polygon fill="white" stroke="#666666" points="805,-844 693,-844 693,-803 805,-803 805,-844"/>
<text text-anchor="start" x="701" y="-832" font-family="Helvetica,sans-Serif" font-size="10.00">{pair&lt; QuantLib::Real,</text>
<text text-anchor="middle" x="749" y="-821" font-family="Helvetica,sans-Serif" font-size="10.00"> QuantLib::Real &gt;</text>
<text text-anchor="middle" x="749" y="-810" font-family="Helvetica,sans-Serif" font-size="10.00">||}</text>
</a>
</g>
</g>
<!-- Node21&#45;&gt;Node18 -->
<g id="edge27" class="edge"><title>Node21&#45;&gt;Node18</title>
<path fill="none" stroke="#404040" d="M749,-802.601C749,-772.61 749,-713.437 749,-658.15"/>
<polygon fill="none" stroke="#404040" points="749,-658.055 745,-652.055 749,-646.055 753,-652.055 749,-658.055"/>
<text text-anchor="middle" x="772" y="-705.5" font-family="Helvetica,sans-Serif" font-size="10.00"> &#45;minMax_</text>
</g>
<!-- Node22 -->
<g id="node22" class="node"><title>Node22</title>
<g id="a_node22"><a xlink:href="classbool.html" target="_top" xlink:title=" ">
<polygon fill="white" stroke="#666666" points="861,-838.5 823,-838.5 823,-808.5 861,-808.5 861,-838.5"/>
<text text-anchor="middle" x="842" y="-826.5" font-family="Helvetica,sans-Serif" font-size="10.00">{bool</text>
<text text-anchor="middle" x="842" y="-815.5" font-family="Helvetica,sans-Serif" font-size="10.00">||}</text>
</a>
</g>
</g>
<!-- Node22&#45;&gt;Node18 -->
<g id="edge28" class="edge"><title>Node22&#45;&gt;Node18</title>
<path fill="none" stroke="#404040" d="M838.669,-808.368C831.989,-780.499 816.125,-716.596 799,-664 798.309,-661.879 797.604,-659.742 796.886,-657.592"/>
<polygon fill="none" stroke="#404040" points="796.808,-657.362 791.086,-652.974 792.936,-646.004 798.658,-650.393 796.808,-657.362"/>
<text text-anchor="middle" x="843.5" y="-705.5" font-family="Helvetica,sans-Serif" font-size="10.00"> &#45;empty_</text>
</g>
<!-- Node23 -->
<g id="node23" class="node"><title>Node23</title>
<g id="a_node23"><a xlink:title=" ">
<polygon fill="white" stroke="#666666" points="1496.5,-838.5 1407.5,-838.5 1407.5,-808.5 1496.5,-808.5 1496.5,-838.5"/>
<text text-anchor="middle" x="1452" y="-826.5" font-family="Helvetica,sans-Serif" font-size="10.00">{optional&lt; bool &gt;</text>
<text text-anchor="middle" x="1452" y="-815.5" font-family="Helvetica,sans-Serif" font-size="10.00">||}</text>
</a>
</g>
</g>
<!-- Node23&#45;&gt;Node1 -->
<g id="edge29" class="edge"><title>Node23&#45;&gt;Node1</title>
<path fill="none" stroke="#404040" d="M1457.28,-808.101C1466.96,-779.215 1484.59,-712.789 1462,-664 1390.98,-510.629 1316.09,-506.339 1172,-418 1017.74,-323.428 817.969,-250.542 705.639,-213.502"/>
<polygon fill="none" stroke="#404040" points="705.451,-213.441 698.504,-215.374 694.047,-209.705 700.994,-207.772 705.451,-213.441"/>
<text text-anchor="middle" x="1506" y="-529.5" font-family="Helvetica,sans-Serif" font-size="10.00"> &#45;preferOutOfTheMoney_</text>
</g>
<!-- Node23&#45;&gt;Node24 -->
<g id="edge32" class="edge"><title>Node23&#45;&gt;Node24</title>
<path fill="none" stroke="#404040" d="M1430.58,-808.388C1403.09,-790.099 1358.27,-759.642 1353,-752 1330.05,-718.723 1354.84,-695.895 1330,-664 1290.85,-613.73 1226.75,-580.036 1174.93,-559.423"/>
<polygon fill="none" stroke="#404040" points="1174.93,-559.422 1167.89,-560.989 1163.73,-555.095 1170.77,-553.528 1174.93,-559.422"/>
<text text-anchor="start" x="1353" y="-744" font-family="Helvetica,sans-Serif" font-size="10.00"> &#45;reportOnDeltaGrid</text>
<text text-anchor="middle" x="1407.5" y="-733" font-family="Helvetica,sans-Serif" font-size="10.00">_</text>
<text text-anchor="start" x="1353" y="-722" font-family="Helvetica,sans-Serif" font-size="10.00">&#45;reportOnMoneynessGrid</text>
<text text-anchor="middle" x="1407.5" y="-711" font-family="Helvetica,sans-Serif" font-size="10.00">_</text>
<text text-anchor="start" x="1353" y="-700" font-family="Helvetica,sans-Serif" font-size="10.00">&#45;reportOnStrikeGrid</text>
<text text-anchor="middle" x="1407.5" y="-689" font-family="Helvetica,sans-Serif" font-size="10.00">_</text>
<text text-anchor="start" x="1353" y="-678" font-family="Helvetica,sans-Serif" font-size="10.00">&#45;reportOnStrikeSpread</text>
<text text-anchor="middle" x="1407.5" y="-667" font-family="Helvetica,sans-Serif" font-size="10.00">Grid_</text>
</g>
<!-- Node24&#45;&gt;Node1 -->
<g id="edge30" class="edge"><title>Node24&#45;&gt;Node1</title>
<path fill="none" stroke="#404040" d="M1020.42,-478.865C935.658,-417.132 794.622,-314.411 704.284,-248.615"/>
<polygon fill="none" stroke="#404040" points="704.044,-248.44 696.839,-248.141 694.344,-241.375 701.549,-241.675 704.044,-248.44"/>
<text text-anchor="middle" x="944" y="-392" font-family="Helvetica,sans-Serif" font-size="10.00"> &#45;reportConfig_</text>
</g>
<!-- Node25 -->
<g id="node25" class="node"><title>Node25</title>
<g id="a_node25"><a xlink:title=" ">
<polygon fill="white" stroke="#666666" points="1115.5,-844 1008.5,-844 1008.5,-803 1115.5,-803 1115.5,-844"/>
<text text-anchor="start" x="1016.5" y="-832" font-family="Helvetica,sans-Serif" font-size="10.00">{optional&lt; std::vector</text>
<text text-anchor="middle" x="1062" y="-821" font-family="Helvetica,sans-Serif" font-size="10.00">&lt; std::string &gt; &gt;</text>
<text text-anchor="middle" x="1062" y="-810" font-family="Helvetica,sans-Serif" font-size="10.00">||}</text>
</a>
</g>
</g>
<!-- Node25&#45;&gt;Node24 -->
<g id="edge33" class="edge"><title>Node25&#45;&gt;Node24</title>
<path fill="none" stroke="#404040" d="M1064.06,-802.601C1067.59,-768.589 1075,-697.045 1081.31,-636.202"/>
<polygon fill="none" stroke="#404040" points="1081.31,-636.126 1077.95,-629.746 1082.55,-624.19 1085.91,-630.57 1081.31,-636.126"/>
<text text-anchor="middle" x="1097" y="-705.5" font-family="Helvetica,sans-Serif" font-size="10.00"> &#45;deltas_</text>
</g>
<!-- Node26 -->
<g id="node26" class="node"><title>Node26</title>
<g id="a_node26"><a xlink:title=" ">
<polygon fill="white" stroke="#666666" points="1240.5,-844 1133.5,-844 1133.5,-803 1240.5,-803 1240.5,-844"/>
<text text-anchor="start" x="1141.5" y="-832" font-family="Helvetica,sans-Serif" font-size="10.00">{optional&lt; std::vector</text>
<text text-anchor="middle" x="1187" y="-821" font-family="Helvetica,sans-Serif" font-size="10.00">&lt; Real &gt; &gt;</text>
<text text-anchor="middle" x="1187" y="-810" font-family="Helvetica,sans-Serif" font-size="10.00">||}</text>
</a>
</g>
</g>
<!-- Node26&#45;&gt;Node24 -->
<g id="edge34" class="edge"><title>Node26&#45;&gt;Node24</title>
<path fill="none" stroke="#404040" d="M1177.48,-802.726C1170.95,-788.747 1162.36,-769.463 1156,-752 1142.39,-714.637 1129.61,-672.902 1119.11,-635.968"/>
<polygon fill="none" stroke="#404040" points="1119.04,-635.707 1113.56,-631.017 1115.78,-624.157 1121.26,-628.847 1119.04,-635.707"/>
<text text-anchor="middle" x="1190.5" y="-716.5" font-family="Helvetica,sans-Serif" font-size="10.00"> &#45;moneyness_</text>
<text text-anchor="middle" x="1190.5" y="-705.5" font-family="Helvetica,sans-Serif" font-size="10.00">&#45;strikeSpreads_</text>
<text text-anchor="middle" x="1190.5" y="-694.5" font-family="Helvetica,sans-Serif" font-size="10.00">&#45;strikes_</text>
</g>
<!-- Node27 -->
<g id="node27" class="node"><title>Node27</title>
<g id="a_node27"><a xlink:title=" ">
<polygon fill="white" stroke="#666666" points="1365.5,-844 1258.5,-844 1258.5,-803 1365.5,-803 1365.5,-844"/>
<text text-anchor="start" x="1266.5" y="-832" font-family="Helvetica,sans-Serif" font-size="10.00">{optional&lt; std::vector</text>
<text text-anchor="middle" x="1312" y="-821" font-family="Helvetica,sans-Serif" font-size="10.00">&lt; Period &gt; &gt;</text>
<text text-anchor="middle" x="1312" y="-810" font-family="Helvetica,sans-Serif" font-size="10.00">||}</text>
</a>
</g>
</g>
<!-- Node27&#45;&gt;Node24 -->
<g id="edge35" class="edge"><title>Node27&#45;&gt;Node24</title>
<path fill="none" stroke="#404040" d="M1289.44,-802.998C1275.59,-789.881 1258.55,-771.478 1248,-752 1228.75,-716.454 1245.24,-698.995 1225,-664 1211.22,-640.171 1191.94,-617.735 1172.34,-598.389"/>
<polygon fill="none" stroke="#404040" points="1172.27,-598.329 1165.18,-597.052 1163.63,-590.01 1170.72,-591.287 1172.27,-598.329"/>
<text text-anchor="middle" x="1289" y="-711" font-family="Helvetica,sans-Serif" font-size="10.00"> &#45;expiries_</text>
<text text-anchor="middle" x="1289" y="-700" font-family="Helvetica,sans-Serif" font-size="10.00">&#45;underlyingTenors_</text>
</g>
</g>
</svg>
