<?xml version="1.0" encoding="UTF-8" standalone="no"?>
<!DOCTYPE svg PUBLIC "-//W3C//DTD SVG 1.1//EN"
 "http://www.w3.org/Graphics/SVG/1.1/DTD/svg11.dtd">
<!-- Generated by graphviz version 2.38.0 (20140413.2041)
 -->
<!-- Title: eqName Pages: 1 -->
<svg width="177pt" height="64pt"
 viewBox="0.00 0.00 177.00 64.00" xmlns="http://www.w3.org/2000/svg" xmlns:xlink="http://www.w3.org/1999/xlink">
<g id="graph0" class="graph" transform="scale(1 1) rotate(0) translate(4 60)">
<title>eqName</title>
<!-- Node1 -->
<g id="node1" class="node"><title>Node1</title>
<g id="a_node1"><a xlink:title=" ">
<polygon fill="#999999" stroke="#666666" points="169,-37 116,-37 116,-18 169,-18 169,-37"/>
<text text-anchor="middle" x="142.5" y="-25" font-family="Helvetica,sans-Serif" font-size="10.00">eqName</text>
</a>
</g>
</g>
<!-- Node2 -->
<g id="node2" class="node"><title>Node2</title>
<g id="a_node2"><a xlink:href="classore_1_1data_1_1_equity_leg_data.html#aa55a6bf5be064ea4e78dc2f7d7b871ac" target="_top" xlink:title="Constructor.">
<polygon fill="white" stroke="#666666" points="80,-56 0,-56 0,-37 80,-37 80,-56"/>
<text text-anchor="middle" x="40" y="-44" font-family="Helvetica,sans-Serif" font-size="10.00">EquityLegData</text>
</a>
</g>
</g>
<!-- Node1&#45;&gt;Node2 -->
<g id="edge1" class="edge"><title>Node1&#45;&gt;Node2</title>
<path fill="none" stroke="#63b8ff" d="M105.787,-34.2518C97.516,-35.8154 88.6705,-37.4877 80.2573,-39.0782"/>
<polygon fill="#63b8ff" stroke="#63b8ff" points="106.704,-37.6405 115.88,-32.3437 105.403,-30.7623 106.704,-37.6405"/>
</g>
<!-- Node3 -->
<g id="node3" class="node"><title>Node3</title>
<g id="a_node3"><a xlink:href="classore_1_1data_1_1_equity_leg_data.html#a7741ae0fc924943de5bfe02928262eb7" target="_top" xlink:title=" ">
<polygon fill="white" stroke="#666666" points="67,-19 13,-19 13,-0 67,-0 67,-19"/>
<text text-anchor="middle" x="40" y="-7" font-family="Helvetica,sans-Serif" font-size="10.00">fromXML</text>
</a>
</g>
</g>
<!-- Node1&#45;&gt;Node3 -->
<g id="edge2" class="edge"><title>Node1&#45;&gt;Node3</title>
<path fill="none" stroke="#63b8ff" d="M106.018,-21.145C93.2599,-18.86 79.1082,-16.3254 67.2739,-14.2058"/>
<polygon fill="#63b8ff" stroke="#63b8ff" points="105.419,-24.5934 115.88,-22.9113 106.653,-17.703 105.419,-24.5934"/>
</g>
</g>
</svg>
