<?xml version="1.0" encoding="UTF-8" standalone="no"?>
<!DOCTYPE svg PUBLIC "-//W3C//DTD SVG 1.1//EN"
 "http://www.w3.org/Graphics/SVG/1.1/DTD/svg11.dtd">
<!-- Generated by graphviz version 2.38.0 (20140413.2041)
 -->
<!-- Title: CorrelationQuote Pages: 1 -->
<!--zoomable 501 -->
<svg id="main" version="1.1" xmlns="http://www.w3.org/2000/svg" xmlns:xlink="http://www.w3.org/1999/xlink" xml:space="preserve" onload="init(evt)">
<style type="text/css"><![CDATA[
.edge:hover path { stroke: red; }
.edge:hover polygon { stroke: red; fill: red; }
]]></style>
<script type="text/javascript"><![CDATA[
var edges = document.getElementsByTagName('g');
if (edges && edges.length) {
  for (var i=0;i<edges.length;i++) {
    if (edges[i].id.substr(0,4)=='edge') {
      edges[i].setAttribute('class','edge');
    }
  }
}
]]></script>
        <defs>
                <circle id="rim" cx="0" cy="0" r="7"/>
                <circle id="rim2" cx="0" cy="0" r="3.5"/>
                <g id="zoomPlus">
                        <use xlink:href="#rim" fill="#404040">
                                <set attributeName="fill" to="#808080" begin="zoomplus.mouseover" end="zoomplus.mouseout"/>
                        </use>
                        <path d="M-4,0h8M0,-4v8" fill="none" stroke="white" stroke-width="1.5" pointer-events="none"/>
                </g>
                <g id="zoomMin">
                        <use xlink:href="#rim" fill="#404040">
                                <set attributeName="fill" to="#808080" begin="zoomminus.mouseover" end="zoomminus.mouseout"/>
                        </use>
                        <path d="M-4,0h8" fill="none" stroke="white" stroke-width="1.5" pointer-events="none"/>
                </g>
                <g id="dirArrow">
                        <path fill="none" stroke="white" stroke-width="1.5" d="M0,-3.0v7 M-2.5,-0.5L0,-3.0L2.5,-0.5"/>
                </g>
               <g id="resetDef">
                       <use xlink:href="#rim2" fill="#404040">
                               <set attributeName="fill" to="#808080" begin="reset.mouseover" end="reset.mouseout"/>
                       </use>
               </g>
        </defs>

<script type="text/javascript">
var viewWidth = 483;
var viewHeight = 501;
var sectionId = 'dynsection-1';
</script>
<script xlink:href="svgpan.js"/>
<svg id="graph" class="graph">
<g id="viewport">
<title>CorrelationQuote</title>
<!-- Node1 -->
<g id="node1" class="node"><title>Node1</title>
<g id="a_node1"><a xlink:title="Spread data class.">
<polygon fill="#999999" stroke="#666666" points="435.5,-140 326.5,-140 326.5,-0 435.5,-0 435.5,-140"/>
<text text-anchor="middle" x="381" y="-128" font-family="Helvetica,sans-Serif" font-size="10.00">{CorrelationQuote</text>
<text text-anchor="start" x="334.5" y="-117" font-family="Helvetica,sans-Serif" font-size="10.00">||+ CorrelationQuote()</text>
<text text-anchor="start" x="334.5" y="-106" font-family="Helvetica,sans-Serif" font-size="10.00">+ CorrelationQuote()</text>
<text text-anchor="start" x="334.5" y="-95" font-family="Helvetica,sans-Serif" font-size="10.00">+ clone()</text>
<text text-anchor="start" x="334.5" y="-84" font-family="Helvetica,sans-Serif" font-size="10.00">* boost::serialization</text>
<text text-anchor="start" x="334.5" y="-73" font-family="Helvetica,sans-Serif" font-size="10.00">::access</text>
<text text-anchor="start" x="334.5" y="-62" font-family="Helvetica,sans-Serif" font-size="10.00">* index1()</text>
<text text-anchor="start" x="334.5" y="-51" font-family="Helvetica,sans-Serif" font-size="10.00">* index2()</text>
<text text-anchor="start" x="334.5" y="-40" font-family="Helvetica,sans-Serif" font-size="10.00">* expiry()</text>
<text text-anchor="start" x="334.5" y="-29" font-family="Helvetica,sans-Serif" font-size="10.00">* strike()</text>
<text text-anchor="start" x="334.5" y="-18" font-family="Helvetica,sans-Serif" font-size="10.00">* serialize()</text>
<text text-anchor="middle" x="381" y="-7" font-family="Helvetica,sans-Serif" font-size="10.00">}</text>
</a>
</g>
</g>
<!-- Node2 -->
<g id="node2" class="node"><title>Node2</title>
<g id="a_node2"><a xlink:href="classore_1_1data_1_1_market_datum.html" target="_top" xlink:title="Base market data class.">
<polygon fill="white" stroke="#666666" points="312.5,-339 207.5,-339 207.5,-177 312.5,-177 312.5,-339"/>
<text text-anchor="middle" x="260" y="-327" font-family="Helvetica,sans-Serif" font-size="10.00">{MarketDatum</text>
<text text-anchor="start" x="215.5" y="-316" font-family="Helvetica,sans-Serif" font-size="10.00">||+ MarketDatum()</text>
<text text-anchor="start" x="215.5" y="-305" font-family="Helvetica,sans-Serif" font-size="10.00">+ MarketDatum()</text>
<text text-anchor="start" x="215.5" y="-294" font-family="Helvetica,sans-Serif" font-size="10.00">+ ~MarketDatum()</text>
<text text-anchor="start" x="215.5" y="-283" font-family="Helvetica,sans-Serif" font-size="10.00">+ clone()</text>
<text text-anchor="start" x="215.5" y="-272" font-family="Helvetica,sans-Serif" font-size="10.00">* boost::serialization</text>
<text text-anchor="start" x="215.5" y="-261" font-family="Helvetica,sans-Serif" font-size="10.00">::access</text>
<text text-anchor="start" x="215.5" y="-250" font-family="Helvetica,sans-Serif" font-size="10.00">* name()</text>
<text text-anchor="start" x="215.5" y="-239" font-family="Helvetica,sans-Serif" font-size="10.00">* quote()</text>
<text text-anchor="start" x="215.5" y="-228" font-family="Helvetica,sans-Serif" font-size="10.00">* asofDate()</text>
<text text-anchor="start" x="215.5" y="-217" font-family="Helvetica,sans-Serif" font-size="10.00">* instrumentType()</text>
<text text-anchor="start" x="215.5" y="-206" font-family="Helvetica,sans-Serif" font-size="10.00">* quoteType()</text>
<text text-anchor="start" x="215.5" y="-195" font-family="Helvetica,sans-Serif" font-size="10.00">* serialize()</text>
<text text-anchor="middle" x="260" y="-184" font-family="Helvetica,sans-Serif" font-size="10.00">}</text>
</a>
</g>
</g>
<!-- Node2&#45;&gt;Node1 -->
<g id="edge1" class="edge"><title>Node2&#45;&gt;Node1</title>
<path fill="none" stroke="#63b8ff" d="M317.794,-168.159C323.913,-158.754 330.068,-149.292 336.01,-140.158"/>
<polygon fill="none" stroke="#63b8ff" points="314.712,-166.479 312.193,-176.77 320.58,-170.296 314.712,-166.479"/>
</g>
<!-- Node3 -->
<g id="node3" class="node"><title>Node3</title>
<g id="a_node3"><a xlink:title=" ">
<polygon fill="white" stroke="#666666" points="152,-416 58,-416 58,-386 152,-386 152,-416"/>
<text text-anchor="middle" x="105" y="-404" font-family="Helvetica,sans-Serif" font-size="10.00">{Handle&lt; Quote &gt;</text>
<text text-anchor="middle" x="105" y="-393" font-family="Helvetica,sans-Serif" font-size="10.00">||}</text>
</a>
</g>
</g>
<!-- Node3&#45;&gt;Node2 -->
<g id="edge2" class="edge"><title>Node3&#45;&gt;Node2</title>
<path fill="none" stroke="#404040" d="M120.429,-385.965C138.601,-369.434 169.913,-340.951 198.279,-315.146"/>
<polygon fill="none" stroke="#404040" points="198.489,-314.956 200.235,-307.959 207.365,-306.881 205.619,-313.877 198.489,-314.956"/>
<text text-anchor="middle" x="170" y="-360" font-family="Helvetica,sans-Serif" font-size="10.00"> #quote_</text>
</g>
<!-- Node4 -->
<g id="node4" class="node"><title>Node4</title>
<g id="a_node4"><a xlink:title=" ">
<polygon fill="white" stroke="#666666" points="130,-493 80,-493 80,-463 130,-463 130,-493"/>
<text text-anchor="middle" x="105" y="-481" font-family="Helvetica,sans-Serif" font-size="10.00">{Handle</text>
<text text-anchor="middle" x="105" y="-470" font-family="Helvetica,sans-Serif" font-size="10.00">||}</text>
</a>
</g>
</g>
<!-- Node4&#45;&gt;Node3 -->
<g id="edge3" class="edge"><title>Node4&#45;&gt;Node3</title>
<path fill="none" stroke="orange" d="M105,-452.541C105,-440.451 105,-426.294 105,-416.044"/>
<polygon fill="orange" stroke="orange" points="101.5,-452.893 105,-462.893 108.5,-452.893 101.5,-452.893"/>
<text text-anchor="middle" x="129" y="-437" font-family="Helvetica,sans-Serif" font-size="10.00"> &lt; Quote &gt;</text>
</g>
<!-- Node5 -->
<g id="node5" class="node"><title>Node5</title>
<g id="a_node5"><a xlink:title=" ">
<polygon fill="white" stroke="#666666" points="40,-416 0,-416 0,-386 40,-386 40,-416"/>
<text text-anchor="middle" x="20" y="-404" font-family="Helvetica,sans-Serif" font-size="10.00">{Date</text>
<text text-anchor="middle" x="20" y="-393" font-family="Helvetica,sans-Serif" font-size="10.00">||}</text>
</a>
</g>
</g>
<!-- Node5&#45;&gt;Node2 -->
<g id="edge4" class="edge"><title>Node5&#45;&gt;Node2</title>
<path fill="none" stroke="#404040" d="M40.0479,-386.723C53.2663,-378.072 71.0248,-366.641 87,-357 122.846,-335.367 163.559,-312.234 196.481,-293.879"/>
<polygon fill="none" stroke="#404040" points="196.841,-293.679 200.141,-287.267 207.329,-287.847 204.029,-294.259 196.841,-293.679"/>
<text text-anchor="middle" x="113" y="-360" font-family="Helvetica,sans-Serif" font-size="10.00"> #asofDate_</text>
</g>
<!-- Node6 -->
<g id="node6" class="node"><title>Node6</title>
<g id="a_node6"><a xlink:title=" ">
<polygon fill="white" stroke="#666666" points="442,-416 398,-416 398,-386 442,-386 442,-416"/>
<text text-anchor="middle" x="420" y="-404" font-family="Helvetica,sans-Serif" font-size="10.00">{string</text>
<text text-anchor="middle" x="420" y="-393" font-family="Helvetica,sans-Serif" font-size="10.00">||}</text>
</a>
</g>
</g>
<!-- Node6&#45;&gt;Node1 -->
<g id="edge9" class="edge"><title>Node6&#45;&gt;Node1</title>
<path fill="none" stroke="#404040" d="M422.537,-385.678C423.715,-377.32 424.715,-366.57 424,-357 418.793,-287.348 406.549,-208.946 396.452,-151.869"/>
<polygon fill="none" stroke="#404040" points="396.446,-151.836 391.452,-146.634 394.334,-140.024 399.327,-145.226 396.446,-151.836"/>
<text text-anchor="middle" x="442" y="-272" font-family="Helvetica,sans-Serif" font-size="10.00"> &#45;expiry_</text>
<text text-anchor="middle" x="442" y="-261" font-family="Helvetica,sans-Serif" font-size="10.00">&#45;index1_</text>
<text text-anchor="middle" x="442" y="-250" font-family="Helvetica,sans-Serif" font-size="10.00">&#45;index2_</text>
<text text-anchor="middle" x="442" y="-239" font-family="Helvetica,sans-Serif" font-size="10.00">&#45;strike_</text>
</g>
<!-- Node6&#45;&gt;Node2 -->
<g id="edge5" class="edge"><title>Node6&#45;&gt;Node2</title>
<path fill="none" stroke="#404040" d="M404.074,-385.965C384.876,-369.047 351.472,-339.61 321.659,-313.337"/>
<polygon fill="none" stroke="#404040" points="321.545,-313.237 314.399,-312.271 312.542,-305.303 319.688,-306.269 321.545,-313.237"/>
<text text-anchor="middle" x="401" y="-360" font-family="Helvetica,sans-Serif" font-size="10.00"> #name_</text>
</g>
<!-- Node7 -->
<g id="node7" class="node"><title>Node7</title>
<g id="a_node7"><a xlink:title=" ">
<polygon fill="white" stroke="#666666" points="475,-493 365,-493 365,-463 475,-463 475,-493"/>
<text text-anchor="middle" x="420" y="-481" font-family="Helvetica,sans-Serif" font-size="10.00">{basic_string&lt; Char &gt;</text>
<text text-anchor="middle" x="420" y="-470" font-family="Helvetica,sans-Serif" font-size="10.00">||}</text>
</a>
</g>
</g>
<!-- Node7&#45;&gt;Node6 -->
<g id="edge6" class="edge"><title>Node7&#45;&gt;Node6</title>
<path fill="none" stroke="#63b8ff" d="M420,-452.541C420,-440.451 420,-426.294 420,-416.044"/>
<polygon fill="none" stroke="#63b8ff" points="416.5,-452.893 420,-462.893 423.5,-452.893 416.5,-452.893"/>
</g>
<!-- Node8 -->
<g id="node8" class="node"><title>Node8</title>
<g id="a_node8"><a xlink:title=" ">
<polygon fill="white" stroke="#666666" points="256,-416 170,-416 170,-386 256,-386 256,-416"/>
<text text-anchor="middle" x="213" y="-404" font-family="Helvetica,sans-Serif" font-size="10.00">{InstrumentType</text>
<text text-anchor="middle" x="213" y="-393" font-family="Helvetica,sans-Serif" font-size="10.00">||}</text>
</a>
</g>
</g>
<!-- Node8&#45;&gt;Node2 -->
<g id="edge7" class="edge"><title>Node8&#45;&gt;Node2</title>
<path fill="none" stroke="#404040" d="M209.364,-385.884C207.752,-377.408 206.684,-366.468 209,-357 209.524,-354.857 210.104,-352.71 210.734,-350.561"/>
<polygon fill="none" stroke="#404040" points="210.759,-350.484 208.854,-343.529 214.541,-339.096 216.447,-346.05 210.759,-350.484"/>
<text text-anchor="middle" x="249.5" y="-360" font-family="Helvetica,sans-Serif" font-size="10.00"> #instrumentType_</text>
</g>
<!-- Node9 -->
<g id="node9" class="node"><title>Node9</title>
<g id="a_node9"><a xlink:title=" ">
<polygon fill="white" stroke="#666666" points="345.5,-416 278.5,-416 278.5,-386 345.5,-386 345.5,-416"/>
<text text-anchor="middle" x="312" y="-404" font-family="Helvetica,sans-Serif" font-size="10.00">{QuoteType</text>
<text text-anchor="middle" x="312" y="-393" font-family="Helvetica,sans-Serif" font-size="10.00">||}</text>
</a>
</g>
</g>
<!-- Node9&#45;&gt;Node2 -->
<g id="edge8" class="edge"><title>Node9&#45;&gt;Node2</title>
<path fill="none" stroke="#404040" d="M306.824,-385.965C303.479,-376.896 298.808,-364.229 293.701,-350.381"/>
<polygon fill="none" stroke="#404040" points="293.681,-350.327 287.852,-346.082 289.529,-339.068 295.358,-343.314 293.681,-350.327"/>
<text text-anchor="middle" x="329.5" y="-360" font-family="Helvetica,sans-Serif" font-size="10.00"> #quoteType_</text>
</g>
</g>
</svg>
        <g id="navigator" transform="translate(0 0)" fill="#404254">
                <rect fill="#f2f5e9" fill-opacity="0.5" stroke="#606060" stroke-width=".5" x="0" y="0" width="60" height="60"/>
                <use id="zoomplus" xlink:href="#zoomPlus" x="17" y="9" onmousedown="handleZoom(evt,'in')"/>
                <use id="zoomminus" xlink:href="#zoomMin" x="42" y="9" onmousedown="handleZoom(evt,'out')"/>
                <use id="reset" xlink:href="#resetDef" x="30" y="36" onmousedown="handleReset()"/>
                <g id="arrowUp" xlink:href="#dirArrow" transform="translate(30 24)" onmousedown="handlePan(0,-1)">
                  <use xlink:href="#rim" fill="#404040">
                        <set attributeName="fill" to="#808080" begin="arrowUp.mouseover" end="arrowUp.mouseout"/>
                  </use>
                  <path fill="none" stroke="white" stroke-width="1.5" d="M0,-3.0v7 M-2.5,-0.5L0,-3.0L2.5,-0.5"/>
                </g>
                <g id="arrowRight" xlink:href="#dirArrow" transform="rotate(90) translate(36 -43)" onmousedown="handlePan(1,0)">
                  <use xlink:href="#rim" fill="#404040">
                        <set attributeName="fill" to="#808080" begin="arrowRight.mouseover" end="arrowRight.mouseout"/>
                  </use>
                  <path fill="none" stroke="white" stroke-width="1.5" d="M0,-3.0v7 M-2.5,-0.5L0,-3.0L2.5,-0.5"/>
                </g>
                <g id="arrowDown" xlink:href="#dirArrow" transform="rotate(180) translate(-30 -48)" onmousedown="handlePan(0,1)">
                  <use xlink:href="#rim" fill="#404040">
                        <set attributeName="fill" to="#808080" begin="arrowDown.mouseover" end="arrowDown.mouseout"/>
                  </use>
                  <path fill="none" stroke="white" stroke-width="1.5" d="M0,-3.0v7 M-2.5,-0.5L0,-3.0L2.5,-0.5"/>
                </g>
                <g id="arrowLeft" xlink:href="#dirArrow" transform="rotate(270) translate(-36 17)" onmousedown="handlePan(-1,0)">
                  <use xlink:href="#rim" fill="#404040">
                        <set attributeName="fill" to="#808080" begin="arrowLeft.mouseover" end="arrowLeft.mouseout"/>
                  </use>
                  <path fill="none" stroke="white" stroke-width="1.5" d="M0,-3.0v7 M-2.5,-0.5L0,-3.0L2.5,-0.5"/>
                </g>
        </g>
        <svg viewBox="0 0 15 15" width="100%" height="30px" preserveAspectRatio="xMaxYMin meet">
         <g id="arrow_out" transform="scale(0.3 0.3)">
          <a xlink:href="classore_1_1data_1_1_correlation_quote__coll__graph_org.svg" target="_base">
           <rect id="button" ry="5" rx="5" y="6" x="6" height="38" width="38"
                fill="#f2f5e9" fill-opacity="0.5" stroke="#606060" stroke-width="1.0"/>
           <path id="arrow"
             d="M 11.500037,31.436501 C 11.940474,20.09759 22.043105,11.32322 32.158766,21.979434 L 37.068811,17.246167 C 37.068811,17.246167 37.088388,32 37.088388,32 L 22.160133,31.978069 C 22.160133,31.978069 26.997745,27.140456 26.997745,27.140456 C 18.528582,18.264221 13.291696,25.230495 11.500037,31.436501 z"
             style="fill:#404040;"/>
          </a>
         </g>
        </svg>
</svg>
