<?xml version="1.0" encoding="UTF-8" standalone="no"?>
<!DOCTYPE svg PUBLIC "-//W3C//DTD SVG 1.1//EN"
 "http://www.w3.org/Graphics/SVG/1.1/DTD/svg11.dtd">
<!-- Generated by graphviz version 2.38.0 (20140413.2041)
 -->
<!-- Title: getChildrenNodesWithAttributes Pages: 1 -->
<svg width="327pt" height="45pt"
 viewBox="0.00 0.00 327.00 45.00" xmlns="http://www.w3.org/2000/svg" xmlns:xlink="http://www.w3.org/1999/xlink">
<g id="graph0" class="graph" transform="scale(1 1) rotate(0) translate(4 41)">
<title>getChildrenNodesWithAttributes</title>
<!-- Node1 -->
<g id="node1" class="node"><title>Node1</title>
<g id="a_node1"><a xlink:title=" ">
<polygon fill="#999999" stroke="#666666" points="319,-19 164,-19 164,-0 319,-0 319,-19"/>
<text text-anchor="middle" x="241.5" y="-7" font-family="Helvetica,sans-Serif" font-size="10.00">getChildrenNodesWithAttributes</text>
</a>
</g>
</g>
<!-- Node1&#45;&gt;Node1 -->
<g id="edge2" class="edge"><title>Node1&#45;&gt;Node1</title>
<path fill="none" stroke="#63b8ff" d="M274.434,-27.4482C273.495,-32.8171 262.517,-37 241.5,-37 210.219,-37 201.177,-27.7337 214.373,-19.0828"/>
<polygon fill="#63b8ff" stroke="#63b8ff" points="277.205,-25.3014 268.627,-19.0828 271.454,-29.2934 277.205,-25.3014"/>
</g>
<!-- Node2 -->
<g id="node2" class="node"><title>Node2</title>
<g id="a_node2"><a xlink:href="classore_1_1data_1_1_ta_r_f.html#a7741ae0fc924943de5bfe02928262eb7" target="_top" xlink:title=" ">
<polygon fill="white" stroke="#666666" points="128,-19 0,-19 0,-0 128,-0 128,-19"/>
<text text-anchor="middle" x="64" y="-7" font-family="Helvetica,sans-Serif" font-size="10.00">ore::data::TaRF::fromXML</text>
</a>
</g>
</g>
<!-- Node1&#45;&gt;Node2 -->
<g id="edge1" class="edge"><title>Node1&#45;&gt;Node2</title>
<path fill="none" stroke="#63b8ff" d="M153.694,-9.5C145.082,-9.5 136.457,-9.5 128.153,-9.5"/>
<polygon fill="#63b8ff" stroke="#63b8ff" points="153.778,-13.0001 163.778,-9.5 153.778,-6.0001 153.778,-13.0001"/>
</g>
</g>
</svg>
