<?xml version="1.0" encoding="UTF-8" standalone="no"?>
<!DOCTYPE svg PUBLIC "-//W3C//DTD SVG 1.1//EN"
 "http://www.w3.org/Graphics/SVG/1.1/DTD/svg11.dtd">
<!-- Generated by graphviz version 2.38.0 (20140413.2041)
 -->
<!-- Title: CommodityCurveConfig Pages: 1 -->
<svg width="404pt" height="76pt"
 viewBox="0.00 0.00 404.00 75.50" xmlns="http://www.w3.org/2000/svg" xmlns:xlink="http://www.w3.org/1999/xlink">
<g id="graph0" class="graph" transform="scale(1 1) rotate(0) translate(4 71.5)">
<title>CommodityCurveConfig</title>
<!-- Node1 -->
<g id="node1" class="node"><title>Node1</title>
<g id="a_node1"><a xlink:title="Detailed constructor for Piecewise commodity curve configuration.">
<polygon fill="#999999" stroke="#666666" points="117,-48.5 7.10543e-015,-48.5 7.10543e-015,-29.5 117,-29.5 117,-48.5"/>
<text text-anchor="middle" x="58.5" y="-36.5" font-family="Helvetica,sans-Serif" font-size="10.00">CommodityCurveConfig</text>
</a>
</g>
</g>
<!-- Node2 -->
<g id="node2" class="node"><title>Node2</title>
<g id="a_node2"><a xlink:href="classore_1_1data_1_1_commodity_curve_config.html#a518d94eba605c4ec5a3c775083f5f0e2" target="_top" xlink:title=" ">
<polygon fill="white" stroke="#666666" points="381,-67.5 299,-67.5 299,-48.5 381,-48.5 381,-67.5"/>
<text text-anchor="middle" x="340" y="-55.5" font-family="Helvetica,sans-Serif" font-size="10.00">priceSegments</text>
</a>
</g>
</g>
<!-- Node1&#45;&gt;Node2 -->
<g id="edge1" class="edge"><title>Node1&#45;&gt;Node2</title>
<path fill="none" stroke="#63b8ff" d="M117.074,-42.9138C167.544,-46.3447 240.193,-51.2832 288.454,-54.564"/>
<polygon fill="#63b8ff" stroke="#63b8ff" points="288.451,-58.0718 298.666,-55.2581 288.926,-51.0879 288.451,-58.0718"/>
</g>
<!-- Node3 -->
<g id="node3" class="node"><title>Node3</title>
<g id="a_node3"><a xlink:href="classore_1_1data_1_1_commodity_curve_config.html#a641c2327efd02e04cddf1fa98e0c3345" target="_top" xlink:title="Process price segments when configuring a Piecewise curve.">
<polygon fill="white" stroke="#666666" points="248,-29.5 153,-29.5 153,-10.5 248,-10.5 248,-29.5"/>
<text text-anchor="middle" x="200.5" y="-17.5" font-family="Helvetica,sans-Serif" font-size="10.00">processSegments</text>
</a>
</g>
</g>
<!-- Node1&#45;&gt;Node3 -->
<g id="edge2" class="edge"><title>Node1&#45;&gt;Node3</title>
<path fill="none" stroke="#63b8ff" d="M117.252,-31.1623C125.712,-30.014 134.419,-28.8324 142.858,-27.6872"/>
<polygon fill="#63b8ff" stroke="#63b8ff" points="143.544,-31.1262 152.982,-26.3131 142.602,-24.1898 143.544,-31.1262"/>
</g>
<!-- Node3&#45;&gt;Node2 -->
<g id="edge4" class="edge"><title>Node3&#45;&gt;Node2</title>
<path fill="none" stroke="#63b8ff" d="M236.197,-29.589C253.866,-34.4719 275.549,-40.4643 294.439,-45.685"/>
<polygon fill="#63b8ff" stroke="#63b8ff" points="293.743,-49.1238 304.314,-48.4141 295.608,-42.3767 293.743,-49.1238"/>
</g>
<!-- Node4 -->
<g id="node4" class="node"><title>Node4</title>
<g id="a_node4"><a xlink:href="classore_1_1data_1_1_curve_config.html#a469f15054f3eb55783dfeb953fdf4373" target="_top" xlink:title=" ">
<polygon fill="white" stroke="#666666" points="396,-30 284,-30 284,-0 396,-0 396,-30"/>
<text text-anchor="start" x="292" y="-18" font-family="Helvetica,sans-Serif" font-size="10.00">ore::data::CurveConfig</text>
<text text-anchor="middle" x="340" y="-7" font-family="Helvetica,sans-Serif" font-size="10.00">::curveID</text>
</a>
</g>
</g>
<!-- Node3&#45;&gt;Node4 -->
<g id="edge3" class="edge"><title>Node3&#45;&gt;Node4</title>
<path fill="none" stroke="#63b8ff" d="M248.051,-18.3072C256.339,-18.0059 265.109,-17.687 273.802,-17.3708"/>
<polygon fill="#63b8ff" stroke="#63b8ff" points="274.074,-20.8634 283.94,-17.0022 273.819,-13.868 274.074,-20.8634"/>
</g>
</g>
</svg>
