<?xml version="1.0" encoding="UTF-8" standalone="no"?>
<!DOCTYPE svg PUBLIC "-//W3C//DTD SVG 1.1//EN"
 "http://www.w3.org/Graphics/SVG/1.1/DTD/svg11.dtd">
<!-- Generated by graphviz version 2.38.0 (20140413.2041)
 -->
<!-- Title: InstrumentWrapper Pages: 1 -->
<svg width="736pt" height="522pt"
 viewBox="0.00 0.00 735.50 522.00" xmlns="http://www.w3.org/2000/svg" xmlns:xlink="http://www.w3.org/1999/xlink">
<g id="graph0" class="graph" transform="scale(1 1) rotate(0) translate(4 518)">
<title>InstrumentWrapper</title>
<!-- Node1 -->
<g id="node1" class="node"><title>Node1</title>
<g id="a_node1"><a xlink:title="Instrument Wrapper.">
<polygon fill="#999999" stroke="#666666" points="434.5,-239 290.5,-239 290.5,1.42109e-014 434.5,1.42109e-014 434.5,-239"/>
<text text-anchor="middle" x="362.5" y="-227" font-family="Helvetica,sans-Serif" font-size="10.00">{InstrumentWrapper</text>
<text text-anchor="start" x="298.5" y="-216" font-family="Helvetica,sans-Serif" font-size="10.00">||+ InstrumentWrapper()</text>
<text text-anchor="start" x="298.5" y="-205" font-family="Helvetica,sans-Serif" font-size="10.00">+ InstrumentWrapper()</text>
<text text-anchor="start" x="298.5" y="-194" font-family="Helvetica,sans-Serif" font-size="10.00">+ ~InstrumentWrapper()</text>
<text text-anchor="start" x="298.5" y="-183" font-family="Helvetica,sans-Serif" font-size="10.00">+ initialise()</text>
<text text-anchor="start" x="298.5" y="-172" font-family="Helvetica,sans-Serif" font-size="10.00">+ reset()</text>
<text text-anchor="start" x="298.5" y="-161" font-family="Helvetica,sans-Serif" font-size="10.00">+ NPV()</text>
<text text-anchor="start" x="298.5" y="-150" font-family="Helvetica,sans-Serif" font-size="10.00">+ additionalResults()</text>
<text text-anchor="start" x="298.5" y="-139" font-family="Helvetica,sans-Serif" font-size="10.00">+ additionalInstrumentsNPV()</text>
<text text-anchor="start" x="298.5" y="-128" font-family="Helvetica,sans-Serif" font-size="10.00">+ updateQlInstruments()</text>
<text text-anchor="start" x="298.5" y="-117" font-family="Helvetica,sans-Serif" font-size="10.00">+ isOption()</text>
<text text-anchor="start" x="298.5" y="-106" font-family="Helvetica,sans-Serif" font-size="10.00">+ qlInstrument()</text>
<text text-anchor="start" x="298.5" y="-95" font-family="Helvetica,sans-Serif" font-size="10.00">+ multiplier()</text>
<text text-anchor="start" x="298.5" y="-84" font-family="Helvetica,sans-Serif" font-size="10.00">+ multiplier2()</text>
<text text-anchor="start" x="298.5" y="-73" font-family="Helvetica,sans-Serif" font-size="10.00">+ additionalInstruments()</text>
<text text-anchor="start" x="298.5" y="-62" font-family="Helvetica,sans-Serif" font-size="10.00">+ additionalMultipliers()</text>
<text text-anchor="start" x="298.5" y="-51" font-family="Helvetica,sans-Serif" font-size="10.00">+ getCumulativePricingTime()</text>
<text text-anchor="start" x="298.5" y="-40" font-family="Helvetica,sans-Serif" font-size="10.00">+ getNumberOfPricings()</text>
<text text-anchor="start" x="298.5" y="-29" font-family="Helvetica,sans-Serif" font-size="10.00">+ resetPricingStats()</text>
<text text-anchor="start" x="298.5" y="-18" font-family="Helvetica,sans-Serif" font-size="10.00"># getTimedNPV()</text>
<text text-anchor="middle" x="362.5" y="-7" font-family="Helvetica,sans-Serif" font-size="10.00">}</text>
</a>
</g>
</g>
<!-- Node2 -->
<g id="node2" class="node"><title>Node2</title>
<g id="a_node2"><a xlink:title=" ">
<polygon fill="white" stroke="#666666" points="113,-437 0,-437 0,-396 113,-396 113,-437"/>
<text text-anchor="start" x="8" y="-425" font-family="Helvetica,sans-Serif" font-size="10.00">{shared_ptr&lt; QuantLib</text>
<text text-anchor="middle" x="56.5" y="-414" font-family="Helvetica,sans-Serif" font-size="10.00">::Instrument &gt;</text>
<text text-anchor="middle" x="56.5" y="-403" font-family="Helvetica,sans-Serif" font-size="10.00">||}</text>
</a>
</g>
</g>
<!-- Node2&#45;&gt;Node1 -->
<g id="edge1" class="edge"><title>Node2&#45;&gt;Node1</title>
<path fill="none" stroke="#404040" d="M48.8004,-395.867C39.6124,-368.976 27.9035,-320.138 48.5,-286 98.0559,-203.863 203.453,-160.421 278.453,-138.987"/>
<polygon fill="none" stroke="#404040" points="278.65,-138.933 283.366,-133.478 290.216,-135.734 285.499,-141.188 278.65,-138.933"/>
<text text-anchor="middle" x="78.5" y="-309.5" font-family="Helvetica,sans-Serif" font-size="10.00"> #instrument_</text>
</g>
<!-- Node4 -->
<g id="node4" class="node"><title>Node4</title>
<g id="a_node4"><a xlink:title=" ">
<polygon fill="white" stroke="#666666" points="233.5,-338 117.5,-338 117.5,-286 233.5,-286 233.5,-338"/>
<text text-anchor="start" x="125.5" y="-326" font-family="Helvetica,sans-Serif" font-size="10.00">{vector&lt; QuantLib::ext</text>
<text text-anchor="start" x="125.5" y="-315" font-family="Helvetica,sans-Serif" font-size="10.00">::shared_ptr&lt; QuantLib</text>
<text text-anchor="middle" x="175.5" y="-304" font-family="Helvetica,sans-Serif" font-size="10.00">::Instrument &gt; &gt;</text>
<text text-anchor="middle" x="175.5" y="-293" font-family="Helvetica,sans-Serif" font-size="10.00">||}</text>
</a>
</g>
</g>
<!-- Node2&#45;&gt;Node4 -->
<g id="edge4" class="edge"><title>Node2&#45;&gt;Node4</title>
<path fill="none" stroke="#404040" d="M63.44,-395.842C68.714,-383.183 77.0283,-367.084 88.5,-356 93.9866,-350.699 100.254,-345.928 106.855,-341.665"/>
<polygon fill="none" stroke="#404040" points="107.119,-341.509 110.236,-335.006 117.437,-335.382 114.32,-341.885 107.119,-341.509"/>
<text text-anchor="middle" x="113" y="-364.5" font-family="Helvetica,sans-Serif" font-size="10.00"> +elements</text>
</g>
<!-- Node3 -->
<g id="node3" class="node"><title>Node3</title>
<g id="a_node3"><a xlink:title=" ">
<polygon fill="white" stroke="#666666" points="406,-431.5 367,-431.5 367,-401.5 406,-401.5 406,-431.5"/>
<text text-anchor="middle" x="386.5" y="-419.5" font-family="Helvetica,sans-Serif" font-size="10.00">{Real</text>
<text text-anchor="middle" x="386.5" y="-408.5" font-family="Helvetica,sans-Serif" font-size="10.00">||}</text>
</a>
</g>
</g>
<!-- Node3&#45;&gt;Node1 -->
<g id="edge2" class="edge"><title>Node3&#45;&gt;Node1</title>
<path fill="none" stroke="#404040" d="M377.845,-401.283C369.213,-386.205 356.535,-361.381 351.5,-338 345.528,-310.267 344.002,-280.107 344.828,-251.325"/>
<polygon fill="none" stroke="#404040" points="344.838,-251.076 341.082,-244.92 345.32,-239.085 349.076,-245.241 344.838,-251.076"/>
<text text-anchor="middle" x="378" y="-309.5" font-family="Helvetica,sans-Serif" font-size="10.00"> #multiplier_</text>
</g>
<!-- Node7 -->
<g id="node7" class="node"><title>Node7</title>
<g id="a_node7"><a xlink:title=" ">
<polygon fill="white" stroke="#666666" points="497,-327 414,-327 414,-297 497,-297 497,-327"/>
<text text-anchor="middle" x="455.5" y="-315" font-family="Helvetica,sans-Serif" font-size="10.00">{vector&lt; Real &gt;</text>
<text text-anchor="middle" x="455.5" y="-304" font-family="Helvetica,sans-Serif" font-size="10.00">||}</text>
</a>
</g>
</g>
<!-- Node3&#45;&gt;Node7 -->
<g id="edge8" class="edge"><title>Node3&#45;&gt;Node7</title>
<path fill="none" stroke="#404040" d="M396.094,-401.248C407.217,-384.725 425.735,-357.216 439.144,-337.298"/>
<polygon fill="none" stroke="#404040" points="439.286,-337.086 439.319,-329.875 445.987,-327.131 445.955,-334.342 439.286,-337.086"/>
<text text-anchor="middle" x="450" y="-364.5" font-family="Helvetica,sans-Serif" font-size="10.00"> +elements</text>
</g>
<!-- Node4&#45;&gt;Node1 -->
<g id="edge3" class="edge"><title>Node4&#45;&gt;Node1</title>
<path fill="none" stroke="#404040" d="M196.609,-285.89C204.563,-276.658 213.793,-266.214 222.5,-257 241.185,-237.227 261.892,-216.457 281.523,-197.252"/>
<polygon fill="none" stroke="#404040" points="281.563,-197.212 283.068,-190.16 290.157,-188.837 288.652,-195.889 281.563,-197.212"/>
<text text-anchor="middle" x="275.5" y="-260" font-family="Helvetica,sans-Serif" font-size="10.00"> #additionalInstruments_</text>
</g>
<!-- Node5 -->
<g id="node5" class="node"><title>Node5</title>
<g id="a_node5"><a xlink:title=" ">
<polygon fill="white" stroke="#666666" points="288.5,-431.5 220.5,-431.5 220.5,-401.5 288.5,-401.5 288.5,-431.5"/>
<text text-anchor="middle" x="254.5" y="-419.5" font-family="Helvetica,sans-Serif" font-size="10.00">{vector&lt; T &gt;</text>
<text text-anchor="middle" x="254.5" y="-408.5" font-family="Helvetica,sans-Serif" font-size="10.00">||}</text>
</a>
</g>
</g>
<!-- Node5&#45;&gt;Node4 -->
<g id="edge5" class="edge"><title>Node5&#45;&gt;Node4</title>
<path fill="none" stroke="orange" d="M210.224,-412.221C186.91,-407.977 160.181,-398.577 145.5,-378 136.838,-365.859 142.888,-350.818 151.761,-338.263"/>
<polygon fill="orange" stroke="orange" points="209.881,-415.71 220.299,-413.786 210.955,-408.793 209.881,-415.71"/>
<text text-anchor="start" x="145.5" y="-370" font-family="Helvetica,sans-Serif" font-size="10.00"> &lt; QuantLib::ext::shared</text>
<text text-anchor="middle" x="213" y="-359" font-family="Helvetica,sans-Serif" font-size="10.00">_ptr&lt; QuantLib::Instrument &gt; &gt;</text>
</g>
<!-- Node5&#45;&gt;Node7 -->
<g id="edge9" class="edge"><title>Node5&#45;&gt;Node7</title>
<path fill="none" stroke="orange" d="M290.273,-396.572C312.683,-384.779 342.202,-369.36 368.5,-356 387.727,-346.232 409.477,-335.482 426.42,-327.174"/>
<polygon fill="orange" stroke="orange" points="288.349,-393.63 281.134,-401.388 291.612,-399.822 288.349,-393.63"/>
<text text-anchor="middle" x="389" y="-364.5" font-family="Helvetica,sans-Serif" font-size="10.00"> &lt; Real &gt;</text>
</g>
<!-- Node6 -->
<g id="node6" class="node"><title>Node6</title>
<g id="a_node6"><a xlink:title=" ">
<polygon fill="white" stroke="#666666" points="269,-514 240,-514 240,-484 269,-484 269,-514"/>
<text text-anchor="middle" x="254.5" y="-502" font-family="Helvetica,sans-Serif" font-size="10.00">{T</text>
<text text-anchor="middle" x="254.5" y="-491" font-family="Helvetica,sans-Serif" font-size="10.00">||}</text>
</a>
</g>
</g>
<!-- Node6&#45;&gt;Node5 -->
<g id="edge6" class="edge"><title>Node6&#45;&gt;Node5</title>
<path fill="none" stroke="#404040" d="M254.5,-483.978C254.5,-472.964 254.5,-457.309 254.5,-443.958"/>
<polygon fill="none" stroke="#404040" points="254.5,-443.631 250.5,-437.631 254.5,-431.631 258.5,-437.631 254.5,-443.631"/>
<text text-anchor="middle" x="279" y="-458" font-family="Helvetica,sans-Serif" font-size="10.00"> +elements</text>
</g>
<!-- Node7&#45;&gt;Node1 -->
<g id="edge7" class="edge"><title>Node7&#45;&gt;Node1</title>
<path fill="none" stroke="#404040" d="M432.754,-296.905C422.462,-289.468 410.959,-279.498 403.5,-268 399.884,-262.426 396.583,-256.533 393.57,-250.438"/>
<polygon fill="none" stroke="#404040" points="393.453,-250.182 387.316,-246.395 388.452,-239.273 394.589,-243.061 393.453,-250.182"/>
<text text-anchor="middle" x="453.5" y="-260" font-family="Helvetica,sans-Serif" font-size="10.00"> #additionalMultipliers_</text>
</g>
<!-- Node8 -->
<g id="node8" class="node"><title>Node8</title>
<g id="a_node8"><a xlink:title=" ">
<polygon fill="white" stroke="#666666" points="561.5,-327 515.5,-327 515.5,-297 561.5,-297 561.5,-327"/>
<text text-anchor="middle" x="538.5" y="-315" font-family="Helvetica,sans-Serif" font-size="10.00">{size_t</text>
<text text-anchor="middle" x="538.5" y="-304" font-family="Helvetica,sans-Serif" font-size="10.00">||}</text>
</a>
</g>
</g>
<!-- Node8&#45;&gt;Node1 -->
<g id="edge10" class="edge"><title>Node8&#45;&gt;Node1</title>
<path fill="none" stroke="#404040" d="M530.406,-296.635C523.789,-285.389 513.862,-269.597 503.5,-257 485.319,-234.897 463.889,-212.603 443.298,-192.623"/>
<polygon fill="none" stroke="#404040" points="443.192,-192.521 436.094,-191.25 434.537,-184.209 441.636,-185.48 443.192,-192.521"/>
<text text-anchor="middle" x="557" y="-260" font-family="Helvetica,sans-Serif" font-size="10.00"> #numberOfPricings_</text>
</g>
<!-- Node9 -->
<g id="node9" class="node"><title>Node9</title>
<g id="a_node9"><a xlink:title=" ">
<polygon fill="white" stroke="#666666" points="687.5,-327 591.5,-327 591.5,-297 687.5,-297 687.5,-327"/>
<text text-anchor="middle" x="639.5" y="-315" font-family="Helvetica,sans-Serif" font-size="10.00">{nanosecond_type</text>
<text text-anchor="middle" x="639.5" y="-304" font-family="Helvetica,sans-Serif" font-size="10.00">||}</text>
</a>
</g>
</g>
<!-- Node9&#45;&gt;Node1 -->
<g id="edge11" class="edge"><title>Node9&#45;&gt;Node1</title>
<path fill="none" stroke="#404040" d="M633.32,-296.77C627.664,-285.002 618.376,-268.427 606.5,-257 560.147,-212.398 496.396,-177.394 445.682,-154.004"/>
<polygon fill="none" stroke="#404040" points="445.671,-153.999 438.554,-155.164 434.741,-149.043 441.858,-147.878 445.671,-153.999"/>
<text text-anchor="middle" x="672" y="-260" font-family="Helvetica,sans-Serif" font-size="10.00"> #cumulativePricingTime_</text>
</g>
</g>
</svg>
