<?xml version="1.0" encoding="UTF-8" standalone="no"?>
<!DOCTYPE svg PUBLIC "-//W3C//DTD SVG 1.1//EN"
 "http://www.w3.org/Graphics/SVG/1.1/DTD/svg11.dtd">
<!-- Generated by graphviz version 2.38.0 (20140413.2041)
 -->
<!-- Title: ScriptEngine Pages: 1 -->
<svg width="371pt" height="148pt"
 viewBox="0.00 0.00 371.00 148.00" xmlns="http://www.w3.org/2000/svg" xmlns:xlink="http://www.w3.org/1999/xlink">
<g id="graph0" class="graph" transform="scale(1 1) rotate(0) translate(4 144)">
<title>ScriptEngine</title>
<!-- Node1 -->
<g id="node1" class="node"><title>Node1</title>
<g id="a_node1"><a xlink:title=" ">
<polygon fill="#999999" stroke="#666666" points="221.5,-52 129.5,-52 129.5,-0 221.5,-0 221.5,-52"/>
<text text-anchor="middle" x="175.5" y="-40" font-family="Helvetica,sans-Serif" font-size="10.00">{ScriptEngine</text>
<text text-anchor="start" x="137.5" y="-29" font-family="Helvetica,sans-Serif" font-size="10.00">||+ ScriptEngine()</text>
<text text-anchor="start" x="137.5" y="-18" font-family="Helvetica,sans-Serif" font-size="10.00">+ run()</text>
<text text-anchor="middle" x="175.5" y="-7" font-family="Helvetica,sans-Serif" font-size="10.00">}</text>
</a>
</g>
</g>
<!-- Node2 -->
<g id="node2" class="node"><title>Node2</title>
<g id="a_node2"><a xlink:title=" ">
<polygon fill="white" stroke="#666666" points="101,-134.5 0,-134.5 0,-104.5 101,-104.5 101,-134.5"/>
<text text-anchor="middle" x="50.5" y="-122.5" font-family="Helvetica,sans-Serif" font-size="10.00">{const ASTNodePtr</text>
<text text-anchor="middle" x="50.5" y="-111.5" font-family="Helvetica,sans-Serif" font-size="10.00">||}</text>
</a>
</g>
</g>
<!-- Node2&#45;&gt;Node1 -->
<g id="edge1" class="edge"><title>Node2&#45;&gt;Node1</title>
<path fill="none" stroke="#404040" d="M69.7573,-104.404C86.0746,-92.4594 110.105,-74.8693 131.136,-59.4747"/>
<polygon fill="none" stroke="#404040" points="131.176,-59.4449 133.655,-52.6732 140.859,-52.3569 138.381,-59.1285 131.176,-59.4449"/>
<text text-anchor="middle" x="131.5" y="-73" font-family="Helvetica,sans-Serif" font-size="10.00"> &#45;root_</text>
</g>
<!-- Node3 -->
<g id="node3" class="node"><title>Node3</title>
<g id="a_node3"><a xlink:title=" ">
<polygon fill="white" stroke="#666666" points="232,-140 119,-140 119,-99 232,-99 232,-140"/>
<text text-anchor="start" x="127" y="-128" font-family="Helvetica,sans-Serif" font-size="10.00">{shared_ptr&lt; ore::data</text>
<text text-anchor="middle" x="175.5" y="-117" font-family="Helvetica,sans-Serif" font-size="10.00">::Context &gt;</text>
<text text-anchor="middle" x="175.5" y="-106" font-family="Helvetica,sans-Serif" font-size="10.00">||}</text>
</a>
</g>
</g>
<!-- Node3&#45;&gt;Node1 -->
<g id="edge2" class="edge"><title>Node3&#45;&gt;Node1</title>
<path fill="none" stroke="#404040" d="M175.5,-98.6459C175.5,-88.6101 175.5,-76.0955 175.5,-64.3467"/>
<polygon fill="none" stroke="#404040" points="175.5,-64.0519 171.5,-58.052 175.5,-52.0519 179.5,-58.0519 175.5,-64.0519"/>
<text text-anchor="middle" x="197.5" y="-73" font-family="Helvetica,sans-Serif" font-size="10.00"> &#45;context_</text>
</g>
<!-- Node4 -->
<g id="node4" class="node"><title>Node4</title>
<g id="a_node4"><a xlink:title=" ">
<polygon fill="white" stroke="#666666" points="363,-140 250,-140 250,-99 363,-99 363,-140"/>
<text text-anchor="start" x="258" y="-128" font-family="Helvetica,sans-Serif" font-size="10.00">{shared_ptr&lt; ore::data</text>
<text text-anchor="middle" x="306.5" y="-117" font-family="Helvetica,sans-Serif" font-size="10.00">::Model &gt;</text>
<text text-anchor="middle" x="306.5" y="-106" font-family="Helvetica,sans-Serif" font-size="10.00">||}</text>
</a>
</g>
</g>
<!-- Node4&#45;&gt;Node1 -->
<g id="edge3" class="edge"><title>Node4&#45;&gt;Node1</title>
<path fill="none" stroke="#404040" d="M278.397,-98.871C261.828,-87.298 240.458,-72.3714 221.49,-59.1227"/>
<polygon fill="none" stroke="#404040" points="221.375,-59.0426 214.166,-58.8862 211.537,-52.1711 218.747,-52.3276 221.375,-59.0426"/>
<text text-anchor="middle" x="271.5" y="-73" font-family="Helvetica,sans-Serif" font-size="10.00"> &#45;model_</text>
</g>
</g>
</svg>
