<?xml version="1.0" encoding="UTF-8" standalone="no"?>
<!DOCTYPE svg PUBLIC "-//W3C//DTD SVG 1.1//EN"
 "http://www.w3.org/Graphics/SVG/1.1/DTD/svg11.dtd">
<!-- Generated by graphviz version 2.38.0 (20140413.2041)
 -->
<!-- Title: fromXML Pages: 1 -->
<svg width="868pt" height="994pt"
 viewBox="0.00 0.00 868.00 994.00" xmlns="http://www.w3.org/2000/svg" xmlns:xlink="http://www.w3.org/1999/xlink">
<g id="graph0" class="graph" transform="scale(1 1) rotate(0) translate(4 990)">
<title>fromXML</title>
<!-- Node1 -->
<g id="node1" class="node"><title>Node1</title>
<g id="a_node1"><a xlink:title=" ">
<polygon fill="#999999" stroke="#666666" points="54,-800.053 0,-800.053 0,-781.053 54,-781.053 54,-800.053"/>
<text text-anchor="middle" x="27" y="-788.053" font-family="Helvetica,sans-Serif" font-size="10.00">fromXML</text>
</a>
</g>
</g>
<!-- Node2 -->
<g id="node2" class="node"><title>Node2</title>
<g id="a_node2"><a xlink:href="classore_1_1data_1_1_x_m_l_utils.html#a37c092916f4bdf10d4fbf6bb9e474db7" target="_top" xlink:title=" ">
<polygon fill="white" stroke="#666666" points="360,-762.553 261,-762.553 261,-732.553 360,-732.553 360,-762.553"/>
<text text-anchor="start" x="269" y="-750.553" font-family="Helvetica,sans-Serif" font-size="10.00">ore::data::XMLUtils</text>
<text text-anchor="middle" x="310.5" y="-739.553" font-family="Helvetica,sans-Serif" font-size="10.00">::checkNode</text>
</a>
</g>
</g>
<!-- Node1&#45;&gt;Node2 -->
<g id="edge1" class="edge"><title>Node1&#45;&gt;Node2</title>
<path fill="none" stroke="#63b8ff" d="M54.139,-784.098C65.1617,-781.52 78.1593,-778.668 90,-776.553 144.238,-766.867 206.551,-758.936 250.894,-753.832"/>
<polygon fill="#63b8ff" stroke="#63b8ff" points="251.377,-757.3 260.917,-752.691 250.585,-750.344 251.377,-757.3"/>
</g>
<!-- Node3 -->
<g id="node3" class="node"><title>Node3</title>
<g id="a_node3"><a xlink:href="classore_1_1data_1_1_option_data.html#a7741ae0fc924943de5bfe02928262eb7" target="_top" xlink:title=" ">
<polygon fill="white" stroke="#666666" points="200,-409.553 90,-409.553 90,-379.553 200,-379.553 200,-409.553"/>
<text text-anchor="start" x="98" y="-397.553" font-family="Helvetica,sans-Serif" font-size="10.00">ore::data::OptionData</text>
<text text-anchor="middle" x="145" y="-386.553" font-family="Helvetica,sans-Serif" font-size="10.00">::fromXML</text>
</a>
</g>
</g>
<!-- Node1&#45;&gt;Node3 -->
<g id="edge2" class="edge"><title>Node1&#45;&gt;Node3</title>
<path fill="none" stroke="#63b8ff" d="M30.8674,-780.764C45.6955,-730.144 113.861,-497.44 136.596,-419.827"/>
<polygon fill="#63b8ff" stroke="#63b8ff" points="140.04,-420.521 139.493,-409.94 133.323,-418.553 140.04,-420.521"/>
</g>
<!-- Node6 -->
<g id="node6" class="node"><title>Node6</title>
<g id="a_node6"><a xlink:href="classore_1_1data_1_1_x_m_l_utils.html#a5f2b91a4af900e85c356cfe807e64501" target="_top" xlink:title=" ">
<polygon fill="white" stroke="#666666" points="707.5,-788.553 608.5,-788.553 608.5,-758.553 707.5,-758.553 707.5,-788.553"/>
<text text-anchor="start" x="616.5" y="-776.553" font-family="Helvetica,sans-Serif" font-size="10.00">ore::data::XMLUtils</text>
<text text-anchor="middle" x="658" y="-765.553" font-family="Helvetica,sans-Serif" font-size="10.00">::getChildNode</text>
</a>
</g>
</g>
<!-- Node1&#45;&gt;Node6 -->
<g id="edge51" class="edge"><title>Node1&#45;&gt;Node6</title>
<path fill="none" stroke="#63b8ff" d="M39.1103,-800.262C97.8212,-850.36 376.003,-1072.6 555,-948.553 592.454,-922.598 568.067,-891.93 591,-852.553 603.102,-831.774 620.714,-811.015 634.701,-795.995"/>
<polygon fill="#63b8ff" stroke="#63b8ff" points="637.287,-798.354 641.637,-788.693 632.212,-793.533 637.287,-798.354"/>
</g>
<!-- Node10 -->
<g id="node10" class="node"><title>Node10</title>
<g id="a_node10"><a xlink:href="classore_1_1data_1_1_x_m_l_utils.html#a450d9b1fe5949d01160aeb42654d7f1d" target="_top" xlink:title=" ">
<polygon fill="white" stroke="#666666" points="550.5,-557.553 425.5,-557.553 425.5,-527.553 550.5,-527.553 550.5,-557.553"/>
<text text-anchor="start" x="433.5" y="-545.553" font-family="Helvetica,sans-Serif" font-size="10.00">ore::data::XMLUtils</text>
<text text-anchor="middle" x="488" y="-534.553" font-family="Helvetica,sans-Serif" font-size="10.00">::getChildValueAsDouble</text>
</a>
</g>
</g>
<!-- Node1&#45;&gt;Node10 -->
<g id="edge52" class="edge"><title>Node1&#45;&gt;Node10</title>
<path fill="none" stroke="#63b8ff" d="M54.1592,-793.075C127.937,-799.598 335.519,-813.726 385,-771.553 442.786,-722.302 383.638,-670.652 421,-604.553 429.905,-588.799 444.146,-574.678 457.123,-563.905"/>
<polygon fill="#63b8ff" stroke="#63b8ff" points="459.34,-566.614 464.982,-557.646 454.979,-561.139 459.34,-566.614"/>
</g>
<!-- Node21 -->
<g id="node21" class="node"><title>Node21</title>
<g id="a_node21"><a xlink:href="classore_1_1data_1_1_equity_underlying.html#a7741ae0fc924943de5bfe02928262eb7" target="_top" xlink:title=" ">
<polygon fill="white" stroke="#666666" points="377.5,-848.553 243.5,-848.553 243.5,-818.553 377.5,-818.553 377.5,-848.553"/>
<text text-anchor="start" x="251.5" y="-836.553" font-family="Helvetica,sans-Serif" font-size="10.00">ore::data::EquityUnderlying</text>
<text text-anchor="middle" x="310.5" y="-825.553" font-family="Helvetica,sans-Serif" font-size="10.00">::fromXML</text>
</a>
</g>
</g>
<!-- Node1&#45;&gt;Node21 -->
<g id="edge38" class="edge"><title>Node1&#45;&gt;Node21</title>
<path fill="none" stroke="#63b8ff" d="M54.139,-797.009C65.1617,-799.587 78.1593,-802.439 90,-804.553 137.468,-813.03 191.121,-820.163 233.5,-825.233"/>
<polygon fill="#63b8ff" stroke="#63b8ff" points="233.124,-828.713 243.466,-826.412 233.946,-821.761 233.124,-828.713"/>
</g>
<!-- Node3&#45;&gt;Node2 -->
<g id="edge3" class="edge"><title>Node3&#45;&gt;Node2</title>
<path fill="none" stroke="#63b8ff" d="M145.724,-409.645C145.62,-460.144 152.019,-625.27 236,-718.553 240.502,-723.554 245.976,-727.702 251.886,-731.142"/>
<polygon fill="#63b8ff" stroke="#63b8ff" points="250.295,-734.26 260.793,-735.692 253.479,-728.026 250.295,-734.26"/>
</g>
<!-- Node4 -->
<g id="node4" class="node"><title>Node4</title>
<g id="a_node4"><a xlink:href="classore_1_1data_1_1_premium_data.html#a7741ae0fc924943de5bfe02928262eb7" target="_top" xlink:title=" ">
<polygon fill="white" stroke="#666666" points="370.5,-433.553 250.5,-433.553 250.5,-403.553 370.5,-403.553 370.5,-433.553"/>
<text text-anchor="start" x="258.5" y="-421.553" font-family="Helvetica,sans-Serif" font-size="10.00">ore::data::PremiumData</text>
<text text-anchor="middle" x="310.5" y="-410.553" font-family="Helvetica,sans-Serif" font-size="10.00">::fromXML</text>
</a>
</g>
</g>
<!-- Node3&#45;&gt;Node4 -->
<g id="edge4" class="edge"><title>Node3&#45;&gt;Node4</title>
<path fill="none" stroke="#63b8ff" d="M200.443,-402.545C213.176,-404.414 226.906,-406.429 240.189,-408.379"/>
<polygon fill="#63b8ff" stroke="#63b8ff" points="239.832,-411.864 250.234,-409.854 240.849,-404.938 239.832,-411.864"/>
</g>
<!-- Node3&#45;&gt;Node6 -->
<g id="edge24" class="edge"><title>Node3&#45;&gt;Node6</title>
<path fill="none" stroke="#63b8ff" d="M147.263,-409.673C151.625,-452.885 169.659,-578.553 236,-652.553 284.967,-707.173 327.269,-678.295 385,-723.553 404.885,-739.142 398.306,-756.444 421,-767.553 476.446,-794.696 548.345,-791.976 598.142,-785.137"/>
<polygon fill="#63b8ff" stroke="#63b8ff" points="598.721,-788.59 608.107,-783.674 597.704,-781.664 598.721,-788.59"/>
</g>
<!-- Node8 -->
<g id="node8" class="node"><title>Node8</title>
<g id="a_node8"><a xlink:href="classore_1_1data_1_1_x_m_l_utils.html#a5a1307174ddefdb3aad6e3bd8cc63b27" target="_top" xlink:title=" ">
<polygon fill="white" stroke="#666666" points="707.5,-557.553 608.5,-557.553 608.5,-527.553 707.5,-527.553 707.5,-557.553"/>
<text text-anchor="start" x="616.5" y="-545.553" font-family="Helvetica,sans-Serif" font-size="10.00">ore::data::XMLUtils</text>
<text text-anchor="middle" x="658" y="-534.553" font-family="Helvetica,sans-Serif" font-size="10.00">::getChildValue</text>
</a>
</g>
</g>
<!-- Node3&#45;&gt;Node8 -->
<g id="edge30" class="edge"><title>Node3&#45;&gt;Node8</title>
<path fill="none" stroke="#63b8ff" d="M162.352,-409.563C202.583,-445.343 311.121,-535.021 421,-566.553 480.625,-583.664 551.786,-572.332 600.266,-560.103"/>
<polygon fill="#63b8ff" stroke="#63b8ff" points="601.162,-563.486 609.952,-557.571 599.392,-556.714 601.162,-563.486"/>
</g>
<!-- Node9 -->
<g id="node9" class="node"><title>Node9</title>
<g id="a_node9"><a xlink:href="classore_1_1data_1_1_x_m_l_utils.html#a6704501b110fa9d056096df3e05f0df2" target="_top" xlink:title="Get a node&#39;s value.">
<polygon fill="white" stroke="#666666" points="860,-426.553 761,-426.553 761,-396.553 860,-396.553 860,-426.553"/>
<text text-anchor="start" x="769" y="-414.553" font-family="Helvetica,sans-Serif" font-size="10.00">ore::data::XMLUtils</text>
<text text-anchor="middle" x="810.5" y="-403.553" font-family="Helvetica,sans-Serif" font-size="10.00">::getNodeValue</text>
</a>
</g>
</g>
<!-- Node3&#45;&gt;Node9 -->
<g id="edge35" class="edge"><title>Node3&#45;&gt;Node9</title>
<path fill="none" stroke="#63b8ff" d="M147.528,-379.15C154.014,-317.267 181.459,-88.05 236,-45.5532 347.838,41.5874 415.513,-19.1665 555,-44.5532 634.428,-59.0091 670.483,-49.0085 725,-108.553 798.814,-189.174 808.859,-328.952 809.729,-386.098"/>
<polygon fill="#63b8ff" stroke="#63b8ff" points="806.231,-386.407 809.797,-396.383 813.231,-386.36 806.231,-386.407"/>
</g>
<!-- Node11 -->
<g id="node11" class="node"><title>Node11</title>
<g id="a_node11"><a xlink:href="group__utilities.html#gad1db2a68f9a73667c3b4084d63955bdd" target="_top" xlink:title="Convert text to Real.">
<polygon fill="white" stroke="#666666" points="710,-235.053 606,-235.053 606,-216.053 710,-216.053 710,-235.053"/>
<text text-anchor="middle" x="658" y="-223.053" font-family="Helvetica,sans-Serif" font-size="10.00">ore::data::parseReal</text>
</a>
</g>
</g>
<!-- Node3&#45;&gt;Node11 -->
<g id="edge37" class="edge"><title>Node3&#45;&gt;Node11</title>
<path fill="none" stroke="#63b8ff" d="M151.861,-379.458C163.695,-350.753 193.025,-287.844 236,-250.553 303.928,-191.609 333.013,-187.179 421,-168.553 479.264,-156.219 497.367,-153.542 555,-168.553 585.643,-176.534 616.839,-195.974 636.522,-209.932"/>
<polygon fill="#63b8ff" stroke="#63b8ff" points="634.568,-212.839 644.711,-215.898 638.69,-207.181 634.568,-212.839"/>
</g>
<!-- Node15 -->
<g id="node15" class="node"><title>Node15</title>
<g id="a_node15"><a xlink:href="classore_1_1data_1_1_schedule_data.html#a7741ae0fc924943de5bfe02928262eb7" target="_top" xlink:title=" ">
<polygon fill="white" stroke="#666666" points="371.5,-643.553 249.5,-643.553 249.5,-613.553 371.5,-613.553 371.5,-643.553"/>
<text text-anchor="start" x="257.5" y="-631.553" font-family="Helvetica,sans-Serif" font-size="10.00">ore::data::ScheduleData</text>
<text text-anchor="middle" x="310.5" y="-620.553" font-family="Helvetica,sans-Serif" font-size="10.00">::fromXML</text>
</a>
</g>
</g>
<!-- Node3&#45;&gt;Node15 -->
<g id="edge21" class="edge"><title>Node3&#45;&gt;Node15</title>
<path fill="none" stroke="#63b8ff" d="M148.561,-409.684C155.644,-447.034 178.879,-544.557 236,-599.553 239.462,-602.886 243.352,-605.85 247.49,-608.483"/>
<polygon fill="#63b8ff" stroke="#63b8ff" points="245.841,-611.572 256.27,-613.437 249.28,-605.475 245.841,-611.572"/>
</g>
<!-- Node17 -->
<g id="node17" class="node"><title>Node17</title>
<g id="a_node17"><a xlink:href="classore_1_1data_1_1_x_m_l_utils.html#aaf4e8600c620cb901bd271e3ec76d702" target="_top" xlink:title=" ">
<polygon fill="white" stroke="#666666" points="538.5,-83.5532 437.5,-83.5532 437.5,-53.5532 538.5,-53.5532 538.5,-83.5532"/>
<text text-anchor="start" x="445.5" y="-71.5532" font-family="Helvetica,sans-Serif" font-size="10.00">ore::data::XMLUtils</text>
<text text-anchor="middle" x="488" y="-60.5532" font-family="Helvetica,sans-Serif" font-size="10.00">::getChildrenValues</text>
</a>
</g>
</g>
<!-- Node3&#45;&gt;Node17 -->
<g id="edge25" class="edge"><title>Node3&#45;&gt;Node17</title>
<path fill="none" stroke="#63b8ff" d="M148.097,-379.404C156.298,-322.517 188.128,-122.946 236,-84.5532 289.393,-41.7332 371.5,-45.3508 427.142,-54.5929"/>
<polygon fill="#63b8ff" stroke="#63b8ff" points="426.754,-58.0786 437.211,-56.3742 427.974,-51.1856 426.754,-58.0786"/>
</g>
<!-- Node18 -->
<g id="node18" class="node"><title>Node18</title>
<g id="a_node18"><a xlink:href="classore_1_1data_1_1_x_m_l_utils.html#a22d59f6c82230e427e33c739b8f18f1d" target="_top" xlink:title=" ">
<polygon fill="white" stroke="#666666" points="385,-123.553 236,-123.553 236,-93.5532 385,-93.5532 385,-123.553"/>
<text text-anchor="start" x="244" y="-111.553" font-family="Helvetica,sans-Serif" font-size="10.00">ore::data::XMLUtils</text>
<text text-anchor="middle" x="310.5" y="-100.553" font-family="Helvetica,sans-Serif" font-size="10.00">::getChildrenValuesAsDoubles</text>
</a>
</g>
</g>
<!-- Node3&#45;&gt;Node18 -->
<g id="edge27" class="edge"><title>Node3&#45;&gt;Node18</title>
<path fill="none" stroke="#63b8ff" d="M147.034,-379.261C150.785,-335.601 167.345,-208.936 236,-137.553 239.134,-134.295 242.678,-131.395 246.476,-128.816"/>
<polygon fill="#63b8ff" stroke="#63b8ff" points="248.33,-131.785 255.135,-123.664 244.751,-125.769 248.33,-131.785"/>
</g>
<!-- Node19 -->
<g id="node19" class="node"><title>Node19</title>
<g id="a_node19"><a xlink:href="classore_1_1data_1_1_x_m_l_utils.html#a5dc9d9e82028f69de452d27da6b43db0" target="_top" xlink:title=" ">
<polygon fill="white" stroke="#666666" points="367.5,-385.553 253.5,-385.553 253.5,-355.553 367.5,-355.553 367.5,-385.553"/>
<text text-anchor="start" x="261.5" y="-373.553" font-family="Helvetica,sans-Serif" font-size="10.00">ore::data::XMLUtils</text>
<text text-anchor="middle" x="310.5" y="-362.553" font-family="Helvetica,sans-Serif" font-size="10.00">::getChildValueAsBool</text>
</a>
</g>
</g>
<!-- Node3&#45;&gt;Node19 -->
<g id="edge31" class="edge"><title>Node3&#45;&gt;Node19</title>
<path fill="none" stroke="#63b8ff" d="M200.443,-386.562C214.123,-384.554 228.955,-382.376 243.145,-380.293"/>
<polygon fill="#63b8ff" stroke="#63b8ff" points="243.952,-383.712 253.338,-378.797 242.936,-376.787 243.952,-383.712"/>
</g>
<!-- Node20 -->
<g id="node20" class="node"><title>Node20</title>
<g id="a_node20"><a xlink:href="group__utilities.html#ga94621f11193864fa1338296232dc5be9" target="_top" xlink:title="Convert text to bool.">
<polygon fill="white" stroke="#666666" points="540,-197.053 436,-197.053 436,-178.053 540,-178.053 540,-197.053"/>
<text text-anchor="middle" x="488" y="-185.053" font-family="Helvetica,sans-Serif" font-size="10.00">ore::data::parseBool</text>
</a>
</g>
</g>
<!-- Node3&#45;&gt;Node20 -->
<g id="edge36" class="edge"><title>Node3&#45;&gt;Node20</title>
<path fill="none" stroke="#63b8ff" d="M170.799,-379.5C233.775,-341.271 399.329,-240.773 462.251,-202.577"/>
<polygon fill="#63b8ff" stroke="#63b8ff" points="464.37,-205.385 471.102,-197.204 460.738,-199.401 464.37,-205.385"/>
</g>
<!-- Node5 -->
<g id="node5" class="node"><title>Node5</title>
<g id="a_node5"><a target="_parent" xlink:href="../qle/namespace_quant_ext.html#a1cab4fb6a720eff245acb9f3a7a9e7c5" xlink:title=" ">
<polygon fill="white" stroke="#666666" points="550,-423.053 426,-423.053 426,-404.053 550,-404.053 550,-423.053"/>
<text text-anchor="middle" x="488" y="-411.053" font-family="Helvetica,sans-Serif" font-size="10.00">QuantExt::close_enough</text>
</a>
</g>
</g>
<!-- Node4&#45;&gt;Node5 -->
<g id="edge5" class="edge"><title>Node4&#45;&gt;Node5</title>
<path fill="none" stroke="#63b8ff" d="M370.916,-416.86C385.298,-416.451 400.817,-416.009 415.684,-415.585"/>
<polygon fill="#63b8ff" stroke="#63b8ff" points="415.953,-419.079 425.85,-415.295 415.754,-412.082 415.953,-419.079"/>
</g>
<!-- Node4&#45;&gt;Node6 -->
<g id="edge6" class="edge"><title>Node4&#45;&gt;Node6</title>
<path fill="none" stroke="#63b8ff" d="M318.198,-433.768C331.899,-465.236 363.632,-539.941 385,-604.553 404.363,-663.102 374.956,-697.531 421,-738.553 446.471,-761.246 536.872,-769.227 598.1,-772.033"/>
<polygon fill="#63b8ff" stroke="#63b8ff" points="598.276,-775.543 608.415,-772.469 598.572,-768.549 598.276,-775.543"/>
</g>
<!-- Node7 -->
<g id="node7" class="node"><title>Node7</title>
<g id="a_node7"><a xlink:href="classore_1_1data_1_1_x_m_l_utils.html#a42678b2a0d7c4052dc19123914359ec1" target="_top" xlink:title="Returns all the children with a given name.">
<polygon fill="white" stroke="#666666" points="537.5,-509.553 438.5,-509.553 438.5,-479.553 537.5,-479.553 537.5,-509.553"/>
<text text-anchor="start" x="446.5" y="-497.553" font-family="Helvetica,sans-Serif" font-size="10.00">ore::data::XMLUtils</text>
<text text-anchor="middle" x="488" y="-486.553" font-family="Helvetica,sans-Serif" font-size="10.00">::getChildrenNodes</text>
</a>
</g>
</g>
<!-- Node4&#45;&gt;Node7 -->
<g id="edge7" class="edge"><title>Node4&#45;&gt;Node7</title>
<path fill="none" stroke="#63b8ff" d="M346.173,-433.568C373.846,-445.552 412.799,-462.421 442.726,-475.38"/>
<polygon fill="#63b8ff" stroke="#63b8ff" points="441.532,-478.677 452.099,-479.439 444.313,-472.254 441.532,-478.677"/>
</g>
<!-- Node4&#45;&gt;Node8 -->
<g id="edge8" class="edge"><title>Node4&#45;&gt;Node8</title>
<path fill="none" stroke="#63b8ff" d="M370.609,-424.413C421.23,-430.994 495.202,-444.383 555,-470.553 583.843,-483.176 612.792,-504.653 632.442,-520.874"/>
<polygon fill="#63b8ff" stroke="#63b8ff" points="630.362,-523.699 640.266,-527.462 634.871,-518.344 630.362,-523.699"/>
</g>
<!-- Node4&#45;&gt;Node9 -->
<g id="edge14" class="edge"><title>Node4&#45;&gt;Node9</title>
<path fill="none" stroke="#63b8ff" d="M370.789,-404.619C375.966,-401.85 380.818,-398.531 385,-394.553 417.417,-363.722 384.141,-325.907 421,-300.553 476.66,-262.268 664.469,-270.558 725,-300.553 761.336,-318.559 786.288,-360.495 799.204,-387.356"/>
<polygon fill="#63b8ff" stroke="#63b8ff" points="796.053,-388.88 803.417,-396.498 802.41,-385.951 796.053,-388.88"/>
</g>
<!-- Node4&#45;&gt;Node10 -->
<g id="edge10" class="edge"><title>Node4&#45;&gt;Node10</title>
<path fill="none" stroke="#63b8ff" d="M324.561,-433.774C343.751,-455.304 381.579,-494.685 421,-518.553 423.764,-520.227 426.663,-521.811 429.639,-523.306"/>
<polygon fill="#63b8ff" stroke="#63b8ff" points="428.198,-526.496 438.743,-527.527 431.143,-520.145 428.198,-526.496"/>
</g>
<!-- Node4&#45;&gt;Node11 -->
<g id="edge20" class="edge"><title>Node4&#45;&gt;Node11</title>
<path fill="none" stroke="#63b8ff" d="M370.811,-405.196C376.049,-402.314 380.907,-398.811 385,-394.553 425.66,-352.259 377.492,-306.911 421,-267.553 446.054,-244.89 534.253,-234.08 595.426,-229.204"/>
<polygon fill="#63b8ff" stroke="#63b8ff" points="596.049,-232.667 605.754,-228.416 595.516,-225.687 596.049,-232.667"/>
</g>
<!-- Node12 -->
<g id="node12" class="node"><title>Node12</title>
<g id="a_node12"><a xlink:href="group__utilities.html#ga59b5fdda574d90facae95dec2d13040d" target="_top" xlink:title="Convert std::string to QuantLib::Date.">
<polygon fill="white" stroke="#666666" points="540.5,-329.053 435.5,-329.053 435.5,-310.053 540.5,-310.053 540.5,-329.053"/>
<text text-anchor="middle" x="488" y="-317.053" font-family="Helvetica,sans-Serif" font-size="10.00">ore::data::parseDate</text>
</a>
</g>
</g>
<!-- Node4&#45;&gt;Node12 -->
<g id="edge15" class="edge"><title>Node4&#45;&gt;Node12</title>
<path fill="none" stroke="#63b8ff" d="M364.527,-403.496C371.556,-400.851 378.553,-397.867 385,-394.553 416.673,-378.272 449.112,-352.557 468.66,-335.871"/>
<polygon fill="#63b8ff" stroke="#63b8ff" points="471.187,-338.313 476.447,-329.117 466.6,-333.025 471.187,-338.313"/>
</g>
<!-- Node8&#45;&gt;Node9 -->
<g id="edge9" class="edge"><title>Node8&#45;&gt;Node9</title>
<path fill="none" stroke="#63b8ff" d="M676.264,-527.526C702.772,-504.453 753.638,-460.178 784.276,-433.509"/>
<polygon fill="#63b8ff" stroke="#63b8ff" points="786.729,-436.014 791.974,-426.809 782.133,-430.734 786.729,-436.014"/>
</g>
<!-- Node10&#45;&gt;Node8 -->
<g id="edge11" class="edge"><title>Node10&#45;&gt;Node8</title>
<path fill="none" stroke="#63b8ff" d="M550.603,-542.553C566.049,-542.553 582.585,-542.553 597.905,-542.553"/>
<polygon fill="#63b8ff" stroke="#63b8ff" points="598.289,-546.053 608.289,-542.553 598.289,-539.053 598.289,-546.053"/>
</g>
<!-- Node10&#45;&gt;Node11 -->
<g id="edge12" class="edge"><title>Node10&#45;&gt;Node11</title>
<path fill="none" stroke="#63b8ff" d="M544.936,-527.533C548.691,-524.993 552.119,-522.024 555,-518.553 617.724,-442.994 548.936,-389.289 591,-300.553 601.97,-277.411 622.242,-256.014 637.436,-242.048"/>
<polygon fill="#63b8ff" stroke="#63b8ff" points="640.115,-244.349 645.264,-235.09 635.465,-239.118 640.115,-244.349"/>
</g>
<!-- Node11&#45;&gt;Node11 -->
<g id="edge13" class="edge"><title>Node11&#45;&gt;Node11</title>
<path fill="none" stroke="#63b8ff" d="M634.572,-235.136C623.175,-243.787 630.984,-253.053 658,-253.053 675.729,-253.053 685.186,-249.063 686.372,-243.874"/>
<polygon fill="#63b8ff" stroke="#63b8ff" points="689.399,-242.115 681.428,-235.136 683.307,-245.563 689.399,-242.115"/>
</g>
<!-- Node12&#45;&gt;Node12 -->
<g id="edge16" class="edge"><title>Node12&#45;&gt;Node12</title>
<path fill="none" stroke="#63b8ff" d="M461.798,-329.136C449.051,-337.787 457.785,-347.053 488,-347.053 508.301,-347.053 518.904,-342.87 519.811,-337.501"/>
<polygon fill="#63b8ff" stroke="#63b8ff" points="522.678,-335.492 514.202,-329.136 516.864,-339.391 522.678,-335.492"/>
</g>
<!-- Node13 -->
<g id="node13" class="node"><title>Node13</title>
<g id="a_node13"><a xlink:href="group__utilities.html#gaecd67eda4fb5f4859bb8f6d383547721" target="_top" xlink:title="Convert text to QuantLib::Integer.">
<polygon fill="white" stroke="#666666" points="715,-366.053 601,-366.053 601,-347.053 715,-347.053 715,-366.053"/>
<text text-anchor="middle" x="658" y="-354.053" font-family="Helvetica,sans-Serif" font-size="10.00">ore::data::parseInteger</text>
</a>
</g>
</g>
<!-- Node12&#45;&gt;Node13 -->
<g id="edge17" class="edge"><title>Node12&#45;&gt;Node13</title>
<path fill="none" stroke="#63b8ff" d="M532.264,-329.082C554.029,-333.875 580.608,-339.729 603.631,-344.799"/>
<polygon fill="#63b8ff" stroke="#63b8ff" points="603.072,-348.26 613.591,-346.993 604.578,-341.424 603.072,-348.26"/>
</g>
<!-- Node14 -->
<g id="node14" class="node"><title>Node14</title>
<g id="a_node14"><a xlink:href="namespaceore_1_1data.html#a777e216dee6069b548bb87da7152699e" target="_top" xlink:title=" ">
<polygon fill="white" stroke="#666666" points="697.5,-329.053 618.5,-329.053 618.5,-310.053 697.5,-310.053 697.5,-329.053"/>
<text text-anchor="middle" x="658" y="-317.053" font-family="Helvetica,sans-Serif" font-size="10.00">ore::data::size</text>
</a>
</g>
</g>
<!-- Node12&#45;&gt;Node14 -->
<g id="edge19" class="edge"><title>Node12&#45;&gt;Node14</title>
<path fill="none" stroke="#63b8ff" d="M540.776,-319.553C562.318,-319.553 587.193,-319.553 608.388,-319.553"/>
<polygon fill="#63b8ff" stroke="#63b8ff" points="608.467,-323.053 618.467,-319.553 608.467,-316.053 608.467,-323.053"/>
</g>
<!-- Node13&#45;&gt;Node13 -->
<g id="edge18" class="edge"><title>Node13&#45;&gt;Node13</title>
<path fill="none" stroke="#63b8ff" d="M634.572,-366.136C623.175,-374.787 630.984,-384.053 658,-384.053 675.729,-384.053 685.186,-380.063 686.372,-374.874"/>
<polygon fill="#63b8ff" stroke="#63b8ff" points="689.399,-373.115 681.428,-366.136 683.307,-376.563 689.399,-373.115"/>
</g>
<!-- Node15&#45;&gt;Node7 -->
<g id="edge22" class="edge"><title>Node15&#45;&gt;Node7</title>
<path fill="none" stroke="#63b8ff" d="M322.995,-613.294C341.342,-589.897 379.437,-545.09 421,-518.553 423.588,-516.901 426.306,-515.341 429.103,-513.872"/>
<polygon fill="#63b8ff" stroke="#63b8ff" points="430.742,-516.968 438.243,-509.485 427.713,-510.657 430.742,-516.968"/>
</g>
<!-- Node16 -->
<g id="node16" class="node"><title>Node16</title>
<g id="a_node16"><a xlink:href="classore_1_1data_1_1_x_m_l_utils.html#a4e041c36cab0a16681fb41dfbd991882" target="_top" xlink:title="Get and set a node&#39;s name.">
<polygon fill="white" stroke="#666666" points="537.5,-643.553 438.5,-643.553 438.5,-613.553 537.5,-613.553 537.5,-643.553"/>
<text text-anchor="start" x="446.5" y="-631.553" font-family="Helvetica,sans-Serif" font-size="10.00">ore::data::XMLUtils</text>
<text text-anchor="middle" x="488" y="-620.553" font-family="Helvetica,sans-Serif" font-size="10.00">::getNodeName</text>
</a>
</g>
</g>
<!-- Node15&#45;&gt;Node16 -->
<g id="edge23" class="edge"><title>Node15&#45;&gt;Node16</title>
<path fill="none" stroke="#63b8ff" d="M371.897,-628.553C390.134,-628.553 410.122,-628.553 428.249,-628.553"/>
<polygon fill="#63b8ff" stroke="#63b8ff" points="428.392,-632.053 438.392,-628.553 428.392,-625.053 428.392,-632.053"/>
</g>
<!-- Node17&#45;&gt;Node9 -->
<g id="edge26" class="edge"><title>Node17&#45;&gt;Node9</title>
<path fill="none" stroke="#63b8ff" d="M532.309,-83.7091C584.63,-104.055 672.187,-144.925 725,-206.553 771.778,-261.139 795.274,-345.173 804.564,-386.646"/>
<polygon fill="#63b8ff" stroke="#63b8ff" points="801.15,-387.42 806.673,-396.461 807.994,-385.949 801.15,-387.42"/>
</g>
<!-- Node18&#45;&gt;Node11 -->
<g id="edge29" class="edge"><title>Node18&#45;&gt;Node11</title>
<path fill="none" stroke="#63b8ff" d="M385.072,-105.334C435.003,-105.828 501.424,-111.839 555,-135.553 592.011,-151.936 625.183,-186.721 643.067,-207.926"/>
<polygon fill="#63b8ff" stroke="#63b8ff" points="640.508,-210.325 649.559,-215.833 645.919,-205.883 640.508,-210.325"/>
</g>
<!-- Node18&#45;&gt;Node17 -->
<g id="edge28" class="edge"><title>Node18&#45;&gt;Node17</title>
<path fill="none" stroke="#63b8ff" d="M377.349,-93.5449C393.78,-89.7998 411.306,-85.8053 427.416,-82.1337"/>
<polygon fill="#63b8ff" stroke="#63b8ff" points="428.268,-85.5292 437.24,-79.8944 426.713,-78.7042 428.268,-85.5292"/>
</g>
<!-- Node19&#45;&gt;Node8 -->
<g id="edge32" class="edge"><title>Node19&#45;&gt;Node8</title>
<path fill="none" stroke="#63b8ff" d="M367.808,-363.27C419.984,-359.344 497.918,-360.893 555,-394.553 602.952,-422.83 633.604,-483.564 647.782,-517.79"/>
<polygon fill="#63b8ff" stroke="#63b8ff" points="644.539,-519.107 651.5,-527.094 651.039,-516.509 644.539,-519.107"/>
</g>
<!-- Node19&#45;&gt;Node20 -->
<g id="edge33" class="edge"><title>Node19&#45;&gt;Node20</title>
<path fill="none" stroke="#63b8ff" d="M323.088,-355.345C350.061,-319.985 415.199,-234.835 421,-229.553 432.524,-219.06 446.977,-209.536 459.419,-202.219"/>
<polygon fill="#63b8ff" stroke="#63b8ff" points="461.499,-205.063 468.459,-197.075 458.037,-198.979 461.499,-205.063"/>
</g>
<!-- Node20&#45;&gt;Node20 -->
<g id="edge34" class="edge"><title>Node20&#45;&gt;Node20</title>
<path fill="none" stroke="#63b8ff" d="M461.798,-197.136C449.051,-205.787 457.785,-215.053 488,-215.053 508.301,-215.053 518.904,-210.87 519.811,-205.501"/>
<polygon fill="#63b8ff" stroke="#63b8ff" points="522.678,-203.492 514.202,-197.136 516.864,-207.391 522.678,-203.492"/>
</g>
<!-- Node21&#45;&gt;Node8 -->
<g id="edge44" class="edge"><title>Node21&#45;&gt;Node8</title>
<path fill="none" stroke="#63b8ff" d="M366.395,-818.397C373.297,-814.72 379.761,-810.172 385,-804.553 421.234,-765.692 382.878,-727.565 421,-690.553 465.415,-647.432 502.216,-684.895 555,-652.553 591.551,-630.157 623.266,-591.089 641.254,-566.044"/>
<polygon fill="#63b8ff" stroke="#63b8ff" points="644.146,-568.016 647.03,-557.821 638.418,-563.993 644.146,-568.016"/>
</g>
<!-- Node21&#45;&gt;Node9 -->
<g id="edge46" class="edge"><title>Node21&#45;&gt;Node9</title>
<path fill="none" stroke="#63b8ff" d="M377.723,-836.936C481.287,-840.762 674.935,-841.558 725,-797.553 779.759,-749.423 801.838,-515.131 807.756,-436.981"/>
<polygon fill="#63b8ff" stroke="#63b8ff" points="811.274,-436.853 808.514,-426.625 804.293,-436.342 811.274,-436.853"/>
</g>
<!-- Node21&#45;&gt;Node16 -->
<g id="edge45" class="edge"><title>Node21&#45;&gt;Node16</title>
<path fill="none" stroke="#63b8ff" d="M367.105,-818.506C373.817,-814.818 380.039,-810.237 385,-804.553 429.23,-753.877 377.745,-709.065 421,-657.553 423.597,-654.461 426.588,-651.687 429.831,-649.201"/>
<polygon fill="#63b8ff" stroke="#63b8ff" points="431.913,-652.021 438.337,-643.596 428.061,-646.176 431.913,-652.021"/>
</g>
<!-- Node22 -->
<g id="node22" class="node"><title>Node22</title>
<g id="a_node22"><a xlink:href="classore_1_1data_1_1_underlying.html#a510baf06568510646decfeaf1753e526" target="_top" xlink:title=" ">
<polygon fill="white" stroke="#666666" points="541.5,-729.553 434.5,-729.553 434.5,-699.553 541.5,-699.553 541.5,-729.553"/>
<text text-anchor="start" x="442.5" y="-717.553" font-family="Helvetica,sans-Serif" font-size="10.00">ore::data::Underlying</text>
<text text-anchor="middle" x="488" y="-706.553" font-family="Helvetica,sans-Serif" font-size="10.00">::fromXML</text>
</a>
</g>
</g>
<!-- Node21&#45;&gt;Node22 -->
<g id="edge39" class="edge"><title>Node21&#45;&gt;Node22</title>
<path fill="none" stroke="#63b8ff" d="M356.999,-818.459C366.549,-814.513 376.343,-809.854 385,-804.553 415.938,-785.611 446.473,-756.997 465.949,-737.138"/>
<polygon fill="#63b8ff" stroke="#63b8ff" points="468.668,-739.361 473.096,-729.735 463.632,-734.499 468.668,-739.361"/>
</g>
<!-- Node23 -->
<g id="node23" class="node"><title>Node23</title>
<g id="a_node23"><a xlink:href="classore_1_1data_1_1_equity_underlying.html#a03f1abe9e9578f4e26433c530cb86592" target="_top" xlink:title="set name of equity">
<polygon fill="white" stroke="#666666" points="555,-939.553 421,-939.553 421,-909.553 555,-909.553 555,-939.553"/>
<text text-anchor="start" x="429" y="-927.553" font-family="Helvetica,sans-Serif" font-size="10.00">ore::data::EquityUnderlying</text>
<text text-anchor="middle" x="488" y="-916.553" font-family="Helvetica,sans-Serif" font-size="10.00">::setEquityName</text>
</a>
</g>
</g>
<!-- Node21&#45;&gt;Node23 -->
<g id="edge47" class="edge"><title>Node21&#45;&gt;Node23</title>
<path fill="none" stroke="#63b8ff" d="M333.407,-848.773C355.001,-863.331 389.276,-885.27 421,-900.553 424.604,-902.29 428.369,-903.975 432.193,-905.594"/>
<polygon fill="#63b8ff" stroke="#63b8ff" points="431.184,-908.962 441.767,-909.474 433.813,-902.474 431.184,-908.962"/>
</g>
<!-- Node25 -->
<g id="node25" class="node"><title>Node25</title>
<g id="a_node25"><a xlink:href="classore_1_1data_1_1_underlying.html#aafc7b3e0e653e15f2434a4e7d15cc7cf" target="_top" xlink:title=" ">
<polygon fill="white" stroke="#666666" points="541.5,-891.553 434.5,-891.553 434.5,-861.553 541.5,-861.553 541.5,-891.553"/>
<text text-anchor="start" x="442.5" y="-879.553" font-family="Helvetica,sans-Serif" font-size="10.00">ore::data::Underlying</text>
<text text-anchor="middle" x="488" y="-868.553" font-family="Helvetica,sans-Serif" font-size="10.00">::setType</text>
</a>
</g>
</g>
<!-- Node21&#45;&gt;Node25 -->
<g id="edge49" class="edge"><title>Node21&#45;&gt;Node25</title>
<path fill="none" stroke="#63b8ff" d="M372.881,-848.593C389.655,-852.702 407.846,-857.159 424.672,-861.282"/>
<polygon fill="#63b8ff" stroke="#63b8ff" points="423.854,-864.685 434.4,-863.665 425.52,-857.886 423.854,-864.685"/>
</g>
<!-- Node22&#45;&gt;Node6 -->
<g id="edge40" class="edge"><title>Node22&#45;&gt;Node6</title>
<path fill="none" stroke="#63b8ff" d="M531.828,-729.594C554.043,-737.396 581.363,-746.99 604.805,-755.223"/>
<polygon fill="#63b8ff" stroke="#63b8ff" points="603.655,-758.529 614.25,-758.54 605.975,-751.924 603.655,-758.529"/>
</g>
<!-- Node22&#45;&gt;Node8 -->
<g id="edge41" class="edge"><title>Node22&#45;&gt;Node8</title>
<path fill="none" stroke="#63b8ff" d="M532.474,-699.458C540.416,-695.619 548.299,-691.001 555,-685.553 557.798,-683.279 612.169,-606.265 640.357,-566.223"/>
<polygon fill="#63b8ff" stroke="#63b8ff" points="643.377,-568.013 646.27,-557.82 637.653,-563.984 643.377,-568.013"/>
</g>
<!-- Node22&#45;&gt;Node9 -->
<g id="edge42" class="edge"><title>Node22&#45;&gt;Node9</title>
<path fill="none" stroke="#63b8ff" d="M525.822,-699.39C576.451,-676.949 667.78,-630.545 725,-566.553 760.763,-526.559 787.127,-468.784 800.225,-436.247"/>
<polygon fill="#63b8ff" stroke="#63b8ff" points="803.606,-437.212 804.006,-426.625 797.091,-434.652 803.606,-437.212"/>
</g>
<!-- Node22&#45;&gt;Node11 -->
<g id="edge43" class="edge"><title>Node22&#45;&gt;Node11</title>
<path fill="none" stroke="#63b8ff" d="M512.336,-699.332C527.222,-688.258 545.452,-671.859 555,-652.553 624.714,-511.589 528.057,-444.668 591,-300.553 601.192,-277.218 621.4,-255.981 636.785,-242.11"/>
<polygon fill="#63b8ff" stroke="#63b8ff" points="639.489,-244.397 644.741,-235.196 634.897,-239.114 639.489,-244.397"/>
</g>
<!-- Node24 -->
<g id="node24" class="node"><title>Node24</title>
<g id="a_node24"><a xlink:href="classore_1_1data_1_1_equity_underlying.html#a8a0d2b7dfdad1504296ddb6685bd4b30" target="_top" xlink:title=" ">
<polygon fill="white" stroke="#666666" points="725,-939.553 591,-939.553 591,-909.553 725,-909.553 725,-939.553"/>
<text text-anchor="start" x="599" y="-927.553" font-family="Helvetica,sans-Serif" font-size="10.00">ore::data::EquityUnderlying</text>
<text text-anchor="middle" x="658" y="-916.553" font-family="Helvetica,sans-Serif" font-size="10.00">::name</text>
</a>
</g>
</g>
<!-- Node23&#45;&gt;Node24 -->
<g id="edge48" class="edge"><title>Node23&#45;&gt;Node24</title>
<path fill="none" stroke="#63b8ff" d="M555.398,-924.553C563.679,-924.553 572.199,-924.553 580.616,-924.553"/>
<polygon fill="#63b8ff" stroke="#63b8ff" points="580.809,-928.053 590.809,-924.553 580.809,-921.053 580.809,-928.053"/>
</g>
<!-- Node26 -->
<g id="node26" class="node"><title>Node26</title>
<g id="a_node26"><a xlink:href="classore_1_1data_1_1_underlying.html#a4acb75b8abcd83a41915c116edbd003c" target="_top" xlink:title=" ">
<polygon fill="white" stroke="#666666" points="711.5,-891.553 604.5,-891.553 604.5,-861.553 711.5,-861.553 711.5,-891.553"/>
<text text-anchor="start" x="612.5" y="-879.553" font-family="Helvetica,sans-Serif" font-size="10.00">ore::data::Underlying</text>
<text text-anchor="middle" x="658" y="-868.553" font-family="Helvetica,sans-Serif" font-size="10.00">::type</text>
</a>
</g>
</g>
<!-- Node25&#45;&gt;Node26 -->
<g id="edge50" class="edge"><title>Node25&#45;&gt;Node26</title>
<path fill="none" stroke="#63b8ff" d="M541.695,-876.553C558.427,-876.553 577.092,-876.553 594.448,-876.553"/>
<polygon fill="#63b8ff" stroke="#63b8ff" points="594.492,-880.053 604.492,-876.553 594.492,-873.053 594.492,-880.053"/>
</g>
</g>
</svg>
