<?xml version="1.0" encoding="UTF-8" standalone="no"?>
<!DOCTYPE svg PUBLIC "-//W3C//DTD SVG 1.1//EN"
 "http://www.w3.org/Graphics/SVG/1.1/DTD/svg11.dtd">
<!-- Generated by graphviz version 2.38.0 (20140413.2041)
 -->
<!-- Title: curveConfigID Pages: 1 -->
<svg width="594pt" height="1228pt"
 viewBox="0.00 0.00 594.00 1228.00" xmlns="http://www.w3.org/2000/svg" xmlns:xlink="http://www.w3.org/1999/xlink">
<g id="graph0" class="graph" transform="scale(1 1) rotate(0) translate(4 1224)">
<title>curveConfigID</title>
<!-- Node1 -->
<g id="node1" class="node"><title>Node1</title>
<g id="a_node1"><a xlink:title=" ">
<polygon fill="#999999" stroke="#666666" points="586,-624.5 511,-624.5 511,-605.5 586,-605.5 586,-624.5"/>
<text text-anchor="middle" x="548.5" y="-612.5" font-family="Helvetica,sans-Serif" font-size="10.00">curveConfigID</text>
</a>
</g>
</g>
<!-- Node2 -->
<g id="node2" class="node"><title>Node2</title>
<g id="a_node2"><a xlink:href="classore_1_1data_1_1_correlation_curve.html#a5dadf72004e9f236b46815d5a37606d8" target="_top" xlink:title="Detailed constructor.">
<polygon fill="white" stroke="#666666" points="455,-1220 324,-1220 324,-1190 455,-1190 455,-1220"/>
<text text-anchor="start" x="332" y="-1208" font-family="Helvetica,sans-Serif" font-size="10.00">ore::data::CorrelationCurve</text>
<text text-anchor="middle" x="389.5" y="-1197" font-family="Helvetica,sans-Serif" font-size="10.00">::CorrelationCurve</text>
</a>
</g>
</g>
<!-- Node1&#45;&gt;Node2 -->
<g id="edge1" class="edge"><title>Node1&#45;&gt;Node2</title>
<path fill="none" stroke="#63b8ff" d="M547.773,-634.89C548.608,-725.302 547.515,-1096.76 475,-1181 469.627,-1187.24 462.762,-1191.92 455.272,-1195.41"/>
<polygon fill="#63b8ff" stroke="#63b8ff" points="551.273,-634.836 547.661,-624.875 544.274,-634.914 551.273,-634.836"/>
</g>
<!-- Node3 -->
<g id="node3" class="node"><title>Node3</title>
<g id="a_node3"><a xlink:href="classore_1_1data_1_1_default_curve.html#aab7d6b459c59f1a3854a5cefc764f485" target="_top" xlink:title="Detailed constructor.">
<polygon fill="white" stroke="#666666" points="447,-1172 332,-1172 332,-1142 447,-1142 447,-1172"/>
<text text-anchor="start" x="340" y="-1160" font-family="Helvetica,sans-Serif" font-size="10.00">ore::data::DefaultCurve</text>
<text text-anchor="middle" x="389.5" y="-1149" font-family="Helvetica,sans-Serif" font-size="10.00">::DefaultCurve</text>
</a>
</g>
</g>
<!-- Node1&#45;&gt;Node3 -->
<g id="edge2" class="edge"><title>Node1&#45;&gt;Node3</title>
<path fill="none" stroke="#63b8ff" d="M547.51,-635.073C547.146,-720.977 541.429,-1056.73 475,-1133 467.688,-1141.39 457.675,-1146.95 447.096,-1150.61"/>
<polygon fill="#63b8ff" stroke="#63b8ff" points="551.011,-634.868 547.532,-624.861 544.011,-634.853 551.011,-634.868"/>
</g>
<!-- Node4 -->
<g id="node4" class="node"><title>Node4</title>
<g id="a_node4"><a xlink:href="classore_1_1data_1_1_equity_curve.html#aa0b93fc44d9ba933557ebfd0796d8e5d" target="_top" xlink:title="Detailed constructor.">
<polygon fill="white" stroke="#666666" points="446,-1124 333,-1124 333,-1094 446,-1094 446,-1124"/>
<text text-anchor="start" x="341" y="-1112" font-family="Helvetica,sans-Serif" font-size="10.00">ore::data::EquityCurve</text>
<text text-anchor="middle" x="389.5" y="-1101" font-family="Helvetica,sans-Serif" font-size="10.00">::EquityCurve</text>
</a>
</g>
</g>
<!-- Node1&#45;&gt;Node4 -->
<g id="edge3" class="edge"><title>Node1&#45;&gt;Node4</title>
<path fill="none" stroke="#63b8ff" d="M547.195,-634.982C545.558,-715.694 535.434,-1016.59 475,-1085 467.428,-1093.57 457.039,-1099.18 446.135,-1102.83"/>
<polygon fill="#63b8ff" stroke="#63b8ff" points="550.699,-634.787 547.38,-624.725 543.7,-634.661 550.699,-634.787"/>
</g>
<!-- Node5 -->
<g id="node5" class="node"><title>Node5</title>
<g id="a_node5"><a xlink:href="classore_1_1data_1_1_inflation_cap_floor_vol_curve.html#a19c9a318aa454b3132d829dd00bced53" target="_top" xlink:title=" ">
<polygon fill="white" stroke="#666666" points="475,-1076 304,-1076 304,-1046 475,-1046 475,-1076"/>
<text text-anchor="start" x="312" y="-1064" font-family="Helvetica,sans-Serif" font-size="10.00">ore::data::InflationCapFloor</text>
<text text-anchor="middle" x="389.5" y="-1053" font-family="Helvetica,sans-Serif" font-size="10.00">VolCurve::InflationCapFloorVolCurve</text>
</a>
</g>
</g>
<!-- Node1&#45;&gt;Node5 -->
<g id="edge4" class="edge"><title>Node1&#45;&gt;Node5</title>
<path fill="none" stroke="#63b8ff" d="M546.814,-634.851C543.817,-710.073 529.471,-976.39 475,-1037 471.942,-1040.4 468.44,-1043.34 464.64,-1045.87"/>
<polygon fill="#63b8ff" stroke="#63b8ff" points="550.313,-634.955 547.19,-624.83 543.318,-634.692 550.313,-634.955"/>
</g>
<!-- Node6 -->
<g id="node6" class="node"><title>Node6</title>
<g id="a_node6"><a xlink:href="classore_1_1data_1_1_inflation_curve.html#a25e20d8ef3302e62e97bb0029df83549" target="_top" xlink:title=" ">
<polygon fill="white" stroke="#666666" points="448.5,-1028 330.5,-1028 330.5,-998 448.5,-998 448.5,-1028"/>
<text text-anchor="start" x="338.5" y="-1016" font-family="Helvetica,sans-Serif" font-size="10.00">ore::data::InflationCurve</text>
<text text-anchor="middle" x="389.5" y="-1005" font-family="Helvetica,sans-Serif" font-size="10.00">::InflationCurve</text>
</a>
</g>
</g>
<!-- Node1&#45;&gt;Node6 -->
<g id="edge5" class="edge"><title>Node1&#45;&gt;Node6</title>
<path fill="none" stroke="#63b8ff" d="M546.339,-634.788C541.868,-704.33 523.517,-936.159 475,-989 467.883,-996.751 458.464,-1002.07 448.501,-1005.7"/>
<polygon fill="#63b8ff" stroke="#63b8ff" points="549.837,-634.938 546.96,-624.742 542.85,-634.507 549.837,-634.938"/>
</g>
<!-- Node7 -->
<g id="node7" class="node"><title>Node7</title>
<g id="a_node7"><a xlink:href="classore_1_1data_1_1_security.html#ae93b920809b413d1527bbfe22ffba86f" target="_top" xlink:title="Constructor.">
<polygon fill="white" stroke="#666666" points="438,-980 341,-980 341,-950 438,-950 438,-980"/>
<text text-anchor="start" x="349" y="-968" font-family="Helvetica,sans-Serif" font-size="10.00">ore::data::Security</text>
<text text-anchor="middle" x="389.5" y="-957" font-family="Helvetica,sans-Serif" font-size="10.00">::Security</text>
</a>
</g>
</g>
<!-- Node1&#45;&gt;Node7 -->
<g id="edge6" class="edge"><title>Node1&#45;&gt;Node7</title>
<path fill="none" stroke="#63b8ff" d="M545.555,-634.675C538.991,-697.3 515.763,-890.557 475,-936 465.472,-946.622 451.879,-953.355 438.373,-957.622"/>
<polygon fill="#63b8ff" stroke="#63b8ff" points="549.053,-634.87 546.587,-624.566 542.089,-634.159 549.053,-634.87"/>
</g>
<!-- Node8 -->
<g id="node8" class="node"><title>Node8</title>
<g id="a_node8"><a xlink:href="classore_1_1data_1_1_yield_curve.html#a59d4997751f3007ffe3c18b56f2fa207" target="_top" xlink:title="Constructor.">
<polygon fill="white" stroke="#666666" points="107,-915 0,-915 0,-885 107,-885 107,-915"/>
<text text-anchor="start" x="8" y="-903" font-family="Helvetica,sans-Serif" font-size="10.00">ore::data::YieldCurve</text>
<text text-anchor="middle" x="53.5" y="-892" font-family="Helvetica,sans-Serif" font-size="10.00">::YieldCurve</text>
</a>
</g>
</g>
<!-- Node1&#45;&gt;Node8 -->
<g id="edge7" class="edge"><title>Node1&#45;&gt;Node8</title>
<path fill="none" stroke="#63b8ff" d="M545.618,-634.75C539.506,-694.196 518.074,-869.425 475,-903 419.22,-946.479 207.01,-922.427 107.104,-908.158"/>
<polygon fill="#63b8ff" stroke="#63b8ff" points="549.104,-635.065 546.61,-624.768 542.138,-634.373 549.104,-635.065"/>
</g>
<!-- Node9 -->
<g id="node9" class="node"><title>Node9</title>
<g id="a_node9"><a xlink:href="classore_1_1data_1_1_yield_curve.html#a3f9f48a2e598b82317a85b8c03e9d20e" target="_top" xlink:title=" ">
<polygon fill="white" stroke="#666666" points="446.5,-894 332.5,-894 332.5,-864 446.5,-864 446.5,-894"/>
<text text-anchor="start" x="340.5" y="-882" font-family="Helvetica,sans-Serif" font-size="10.00">ore::data::YieldCurve</text>
<text text-anchor="middle" x="389.5" y="-871" font-family="Helvetica,sans-Serif" font-size="10.00">::addBMABasisSwaps</text>
</a>
</g>
</g>
<!-- Node1&#45;&gt;Node9 -->
<g id="edge8" class="edge"><title>Node1&#45;&gt;Node9</title>
<path fill="none" stroke="#63b8ff" d="M547.535,-635C546.493,-680.722 537.366,-793.663 475,-855 467.171,-862.699 457.062,-867.966 446.575,-871.56"/>
<polygon fill="#63b8ff" stroke="#63b8ff" points="551.036,-634.937 547.654,-624.896 544.037,-634.855 551.036,-634.937"/>
</g>
<!-- Node11 -->
<g id="node11" class="node"><title>Node11</title>
<g id="a_node11"><a xlink:href="classore_1_1data_1_1_commodity_vol_curve.html#a965effd768a291db2382b3b484ddba31" target="_top" xlink:title="Build a volatility surface as a proxy from another volatility surface.">
<polygon fill="white" stroke="#666666" points="464,-846 315,-846 315,-816 464,-816 464,-846"/>
<text text-anchor="start" x="323" y="-834" font-family="Helvetica,sans-Serif" font-size="10.00">ore::data::CommodityVolCurve</text>
<text text-anchor="middle" x="389.5" y="-823" font-family="Helvetica,sans-Serif" font-size="10.00">::buildVolatility</text>
</a>
</g>
</g>
<!-- Node1&#45;&gt;Node11 -->
<g id="edge11" class="edge"><title>Node1&#45;&gt;Node11</title>
<path fill="none" stroke="#63b8ff" d="M545.811,-634.636C541.409,-673.395 526.097,-760.039 475,-807 471.295,-810.405 467.14,-813.332 462.715,-815.846"/>
<polygon fill="#63b8ff" stroke="#63b8ff" points="549.298,-634.943 546.819,-624.642 542.333,-634.24 549.298,-634.943"/>
</g>
<!-- Node12 -->
<g id="node12" class="node"><title>Node12</title>
<g id="a_node12"><a xlink:href="classore_1_1data_1_1_equity_vol_curve.html#a9e2adae2ac097879c015400d00d3b282" target="_top" xlink:title="Build a volatility surface as a proxy from another volatility surface.">
<polygon fill="white" stroke="#666666" points="453,-798 326,-798 326,-768 453,-768 453,-798"/>
<text text-anchor="start" x="334" y="-786" font-family="Helvetica,sans-Serif" font-size="10.00">ore::data::EquityVolCurve</text>
<text text-anchor="middle" x="389.5" y="-775" font-family="Helvetica,sans-Serif" font-size="10.00">::buildVolatility</text>
</a>
</g>
</g>
<!-- Node1&#45;&gt;Node12 -->
<g id="edge12" class="edge"><title>Node1&#45;&gt;Node12</title>
<path fill="none" stroke="#63b8ff" d="M542.99,-634.798C534.864,-665.922 514.779,-726.131 475,-759 468.534,-764.343 460.946,-768.497 453.017,-771.728"/>
<polygon fill="#63b8ff" stroke="#63b8ff" points="546.472,-635.297 545.457,-624.751 539.674,-633.628 546.472,-635.297"/>
</g>
<!-- Node13 -->
<g id="node13" class="node"><title>Node13</title>
<g id="a_node13"><a xlink:href="classore_1_1data_1_1_f_x_vol_curve.html#aa5334770a51cbfa81ecf8b7d14a3acf1" target="_top" xlink:title=" ">
<polygon fill="white" stroke="#666666" points="444.5,-750 334.5,-750 334.5,-720 444.5,-720 444.5,-750"/>
<text text-anchor="start" x="342.5" y="-738" font-family="Helvetica,sans-Serif" font-size="10.00">ore::data::FXVolCurve</text>
<text text-anchor="middle" x="389.5" y="-727" font-family="Helvetica,sans-Serif" font-size="10.00">::init</text>
</a>
</g>
</g>
<!-- Node1&#45;&gt;Node13 -->
<g id="edge13" class="edge"><title>Node1&#45;&gt;Node13</title>
<path fill="none" stroke="#63b8ff" d="M538.364,-633.444C526.647,-655.203 504.291,-690.945 475,-711 465.94,-717.203 455.292,-721.815 444.666,-725.241"/>
<polygon fill="#63b8ff" stroke="#63b8ff" points="541.486,-635.026 542.986,-624.537 535.273,-631.801 541.486,-635.026"/>
</g>
<!-- Node15 -->
<g id="node15" class="node"><title>Node15</title>
<g id="a_node15"><a xlink:href="classore_1_1data_1_1_yield_curve_spec.html#a1d64179da212ac954c972e7a13dd2446" target="_top" xlink:title=" ">
<polygon fill="white" stroke="#666666" points="454,-702 325,-702 325,-672 454,-672 454,-702"/>
<text text-anchor="start" x="333" y="-690" font-family="Helvetica,sans-Serif" font-size="10.00">ore::data::YieldCurveSpec</text>
<text text-anchor="middle" x="389.5" y="-679" font-family="Helvetica,sans-Serif" font-size="10.00">::subName</text>
</a>
</g>
</g>
<!-- Node1&#45;&gt;Node15 -->
<g id="edge15" class="edge"><title>Node1&#45;&gt;Node15</title>
<path fill="none" stroke="#63b8ff" d="M527.246,-630.877C513.231,-641.226 493.79,-654.365 475,-663 467.794,-666.311 460.029,-669.268 452.23,-671.877"/>
<polygon fill="#63b8ff" stroke="#63b8ff" points="529.744,-633.376 535.61,-624.554 525.523,-627.792 529.744,-633.376"/>
</g>
<!-- Node16 -->
<g id="node16" class="node"><title>Node16</title>
<g id="a_node16"><a xlink:href="classore_1_1data_1_1_default_curve_spec.html#a1d64179da212ac954c972e7a13dd2446" target="_top" xlink:title=" ">
<polygon fill="white" stroke="#666666" points="458,-654 321,-654 321,-624 458,-624 458,-654"/>
<text text-anchor="start" x="329" y="-642" font-family="Helvetica,sans-Serif" font-size="10.00">ore::data::DefaultCurveSpec</text>
<text text-anchor="middle" x="389.5" y="-631" font-family="Helvetica,sans-Serif" font-size="10.00">::subName</text>
</a>
</g>
</g>
<!-- Node1&#45;&gt;Node16 -->
<g id="edge16" class="edge"><title>Node1&#45;&gt;Node16</title>
<path fill="none" stroke="#63b8ff" d="M500.781,-622.142C487.403,-624.187 472.543,-626.458 458.176,-628.655"/>
<polygon fill="#63b8ff" stroke="#63b8ff" points="501.334,-625.598 510.69,-620.627 500.276,-618.678 501.334,-625.598"/>
</g>
<!-- Node17 -->
<g id="node17" class="node"><title>Node17</title>
<g id="a_node17"><a xlink:href="classore_1_1data_1_1_c_d_s_volatility_curve_spec.html#a1d64179da212ac954c972e7a13dd2446" target="_top" xlink:title=" ">
<polygon fill="white" stroke="#666666" points="449,-606 330,-606 330,-576 449,-576 449,-606"/>
<text text-anchor="start" x="338" y="-594" font-family="Helvetica,sans-Serif" font-size="10.00">ore::data::CDSVolatility</text>
<text text-anchor="middle" x="389.5" y="-583" font-family="Helvetica,sans-Serif" font-size="10.00">CurveSpec::subName</text>
</a>
</g>
</g>
<!-- Node1&#45;&gt;Node17 -->
<g id="edge17" class="edge"><title>Node1&#45;&gt;Node17</title>
<path fill="none" stroke="#63b8ff" d="M500.445,-607.807C484.334,-605.344 466.107,-602.558 449.193,-599.972"/>
<polygon fill="#63b8ff" stroke="#63b8ff" points="500.276,-611.322 510.69,-609.373 501.334,-604.402 500.276,-611.322"/>
</g>
<!-- Node18 -->
<g id="node18" class="node"><title>Node18</title>
<g id="a_node18"><a xlink:href="classore_1_1data_1_1_base_correlation_curve_spec.html#a1d64179da212ac954c972e7a13dd2446" target="_top" xlink:title=" ">
<polygon fill="white" stroke="#666666" points="454.5,-558 324.5,-558 324.5,-528 454.5,-528 454.5,-558"/>
<text text-anchor="start" x="332.5" y="-546" font-family="Helvetica,sans-Serif" font-size="10.00">ore::data::BaseCorrelation</text>
<text text-anchor="middle" x="389.5" y="-535" font-family="Helvetica,sans-Serif" font-size="10.00">CurveSpec::subName</text>
</a>
</g>
</g>
<!-- Node1&#45;&gt;Node18 -->
<g id="edge18" class="edge"><title>Node1&#45;&gt;Node18</title>
<path fill="none" stroke="#63b8ff" d="M527.246,-599.123C513.231,-588.774 493.79,-575.635 475,-567 467.794,-563.689 460.029,-560.732 452.23,-558.123"/>
<polygon fill="#63b8ff" stroke="#63b8ff" points="525.523,-602.208 535.61,-605.446 529.744,-596.624 525.523,-602.208"/>
</g>
<!-- Node19 -->
<g id="node19" class="node"><title>Node19</title>
<g id="a_node19"><a xlink:href="classore_1_1data_1_1_swaption_volatility_curve_spec.html#a1d64179da212ac954c972e7a13dd2446" target="_top" xlink:title=" ">
<polygon fill="white" stroke="#666666" points="458.5,-510 320.5,-510 320.5,-480 458.5,-480 458.5,-510"/>
<text text-anchor="start" x="328.5" y="-498" font-family="Helvetica,sans-Serif" font-size="10.00">ore::data::SwaptionVolatility</text>
<text text-anchor="middle" x="389.5" y="-487" font-family="Helvetica,sans-Serif" font-size="10.00">CurveSpec::subName</text>
</a>
</g>
</g>
<!-- Node1&#45;&gt;Node19 -->
<g id="edge19" class="edge"><title>Node1&#45;&gt;Node19</title>
<path fill="none" stroke="#63b8ff" d="M538.364,-596.556C526.647,-574.797 504.291,-539.055 475,-519 469.967,-515.554 464.443,-512.599 458.706,-510.065"/>
<polygon fill="#63b8ff" stroke="#63b8ff" points="535.273,-598.199 542.986,-605.463 541.486,-594.974 535.273,-598.199"/>
</g>
<!-- Node20 -->
<g id="node20" class="node"><title>Node20</title>
<g id="a_node20"><a xlink:href="classore_1_1data_1_1_yield_volatility_curve_spec.html#a1d64179da212ac954c972e7a13dd2446" target="_top" xlink:title=" ">
<polygon fill="white" stroke="#666666" points="449.5,-462 329.5,-462 329.5,-432 449.5,-432 449.5,-462"/>
<text text-anchor="start" x="337.5" y="-450" font-family="Helvetica,sans-Serif" font-size="10.00">ore::data::YieldVolatility</text>
<text text-anchor="middle" x="389.5" y="-439" font-family="Helvetica,sans-Serif" font-size="10.00">CurveSpec::subName</text>
</a>
</g>
</g>
<!-- Node1&#45;&gt;Node20 -->
<g id="edge20" class="edge"><title>Node1&#45;&gt;Node20</title>
<path fill="none" stroke="#63b8ff" d="M542.99,-595.202C534.864,-564.078 514.779,-503.869 475,-471 467.593,-464.88 458.715,-460.319 449.537,-456.92"/>
<polygon fill="#63b8ff" stroke="#63b8ff" points="539.674,-596.372 545.457,-605.249 546.472,-594.703 539.674,-596.372"/>
</g>
<!-- Node21 -->
<g id="node21" class="node"><title>Node21</title>
<g id="a_node21"><a xlink:href="classore_1_1data_1_1_cap_floor_volatility_curve_spec.html#a1d64179da212ac954c972e7a13dd2446" target="_top" xlink:title=" ">
<polygon fill="white" stroke="#666666" points="458,-414 321,-414 321,-384 458,-384 458,-414"/>
<text text-anchor="start" x="329" y="-402" font-family="Helvetica,sans-Serif" font-size="10.00">ore::data::CapFloorVolatility</text>
<text text-anchor="middle" x="389.5" y="-391" font-family="Helvetica,sans-Serif" font-size="10.00">CurveSpec::subName</text>
</a>
</g>
</g>
<!-- Node1&#45;&gt;Node21 -->
<g id="edge21" class="edge"><title>Node1&#45;&gt;Node21</title>
<path fill="none" stroke="#63b8ff" d="M545.811,-595.364C541.409,-556.605 526.097,-469.961 475,-423 470.059,-418.459 464.321,-414.771 458.205,-411.775"/>
<polygon fill="#63b8ff" stroke="#63b8ff" points="542.333,-595.76 546.819,-605.358 549.298,-595.057 542.333,-595.76"/>
</g>
<!-- Node22 -->
<g id="node22" class="node"><title>Node22</title>
<g id="a_node22"><a xlink:href="classore_1_1data_1_1_f_x_volatility_curve_spec.html#a1d64179da212ac954c972e7a13dd2446" target="_top" xlink:title=" ">
<polygon fill="white" stroke="#666666" points="456.5,-366 322.5,-366 322.5,-336 456.5,-336 456.5,-366"/>
<text text-anchor="start" x="330.5" y="-354" font-family="Helvetica,sans-Serif" font-size="10.00">ore::data::FXVolatilityCurve</text>
<text text-anchor="middle" x="389.5" y="-343" font-family="Helvetica,sans-Serif" font-size="10.00">Spec::subName</text>
</a>
</g>
</g>
<!-- Node1&#45;&gt;Node22 -->
<g id="edge22" class="edge"><title>Node1&#45;&gt;Node22</title>
<path fill="none" stroke="#63b8ff" d="M547.535,-595C546.493,-549.278 537.366,-436.337 475,-375 469.781,-369.867 463.548,-365.815 456.866,-362.62"/>
<polygon fill="#63b8ff" stroke="#63b8ff" points="544.037,-595.145 547.654,-605.104 551.036,-595.063 544.037,-595.145"/>
</g>
<!-- Node23 -->
<g id="node23" class="node"><title>Node23</title>
<g id="a_node23"><a xlink:href="classore_1_1data_1_1_inflation_curve_spec.html#a1d64179da212ac954c972e7a13dd2446" target="_top" xlink:title=" ">
<polygon fill="white" stroke="#666666" points="448.5,-318 330.5,-318 330.5,-288 448.5,-288 448.5,-318"/>
<text text-anchor="start" x="338.5" y="-306" font-family="Helvetica,sans-Serif" font-size="10.00">ore::data::InflationCurve</text>
<text text-anchor="middle" x="389.5" y="-295" font-family="Helvetica,sans-Serif" font-size="10.00">Spec::subName</text>
</a>
</g>
</g>
<!-- Node1&#45;&gt;Node23 -->
<g id="edge23" class="edge"><title>Node1&#45;&gt;Node23</title>
<path fill="none" stroke="#63b8ff" d="M545.122,-595.388C537.664,-537.03 512.953,-366.114 475,-327 467.778,-319.558 458.431,-314.375 448.597,-310.778"/>
<polygon fill="#63b8ff" stroke="#63b8ff" points="541.67,-595.997 546.382,-605.487 548.616,-595.13 541.67,-595.997"/>
</g>
<!-- Node24 -->
<g id="node24" class="node"><title>Node24</title>
<g id="a_node24"><a xlink:href="classore_1_1data_1_1_inflation_cap_floor_volatility_curve_spec.html#a1d64179da212ac954c972e7a13dd2446" target="_top" xlink:title=" ">
<polygon fill="white" stroke="#666666" points="463.5,-270 315.5,-270 315.5,-240 463.5,-240 463.5,-270"/>
<text text-anchor="start" x="323.5" y="-258" font-family="Helvetica,sans-Serif" font-size="10.00">ore::data::InflationCapFloor</text>
<text text-anchor="middle" x="389.5" y="-247" font-family="Helvetica,sans-Serif" font-size="10.00">VolatilityCurveSpec::subName</text>
</a>
</g>
</g>
<!-- Node1&#45;&gt;Node24 -->
<g id="edge24" class="edge"><title>Node1&#45;&gt;Node24</title>
<path fill="none" stroke="#63b8ff" d="M545.863,-595.158C540.116,-530.247 518.804,-325.711 475,-279 471.662,-275.44 467.838,-272.395 463.702,-269.792"/>
<polygon fill="#63b8ff" stroke="#63b8ff" points="542.389,-595.611 546.731,-605.275 549.363,-595.013 542.389,-595.611"/>
</g>
<!-- Node25 -->
<g id="node25" class="node"><title>Node25</title>
<g id="a_node25"><a xlink:href="classore_1_1data_1_1_equity_curve_spec.html#a1d64179da212ac954c972e7a13dd2446" target="_top" xlink:title=" ">
<polygon fill="white" stroke="#666666" points="457,-222 322,-222 322,-192 457,-192 457,-222"/>
<text text-anchor="start" x="330" y="-210" font-family="Helvetica,sans-Serif" font-size="10.00">ore::data::EquityCurveSpec</text>
<text text-anchor="middle" x="389.5" y="-199" font-family="Helvetica,sans-Serif" font-size="10.00">::subName</text>
</a>
</g>
</g>
<!-- Node1&#45;&gt;Node25 -->
<g id="edge25" class="edge"><title>Node1&#45;&gt;Node25</title>
<path fill="none" stroke="#63b8ff" d="M546.445,-595.153C542.286,-524.343 524.744,-285.443 475,-231 469.959,-225.483 463.753,-221.199 457.011,-217.878"/>
<polygon fill="#63b8ff" stroke="#63b8ff" points="542.963,-595.567 547.018,-605.355 549.952,-595.175 542.963,-595.567"/>
</g>
<!-- Node26 -->
<g id="node26" class="node"><title>Node26</title>
<g id="a_node26"><a xlink:href="classore_1_1data_1_1_equity_volatility_curve_spec.html#a1d64179da212ac954c972e7a13dd2446" target="_top" xlink:title=" ">
<polygon fill="white" stroke="#666666" points="452.5,-174 326.5,-174 326.5,-144 452.5,-144 452.5,-174"/>
<text text-anchor="start" x="334.5" y="-162" font-family="Helvetica,sans-Serif" font-size="10.00">ore::data::EquityVolatility</text>
<text text-anchor="middle" x="389.5" y="-151" font-family="Helvetica,sans-Serif" font-size="10.00">CurveSpec::subName</text>
</a>
</g>
</g>
<!-- Node1&#45;&gt;Node26 -->
<g id="edge26" class="edge"><title>Node1&#45;&gt;Node26</title>
<path fill="none" stroke="#63b8ff" d="M546.902,-595.181C544.202,-518.877 530.726,-245.248 475,-183 468.897,-176.183 461.013,-171.242 452.518,-167.674"/>
<polygon fill="#63b8ff" stroke="#63b8ff" points="543.409,-595.438 547.237,-605.317 550.405,-595.207 543.409,-595.438"/>
</g>
<!-- Node27 -->
<g id="node27" class="node"><title>Node27</title>
<g id="a_node27"><a xlink:href="classore_1_1data_1_1_commodity_curve_spec.html#a5dfbf7fb90a161a62eddcbb44e67ec67" target="_top" xlink:title=" ">
<polygon fill="white" stroke="#666666" points="456.5,-126 322.5,-126 322.5,-96 456.5,-96 456.5,-126"/>
<text text-anchor="start" x="330.5" y="-114" font-family="Helvetica,sans-Serif" font-size="10.00">ore::data::CommodityCurve</text>
<text text-anchor="middle" x="389.5" y="-103" font-family="Helvetica,sans-Serif" font-size="10.00">Spec::subName</text>
</a>
</g>
</g>
<!-- Node1&#45;&gt;Node27 -->
<g id="edge27" class="edge"><title>Node1&#45;&gt;Node27</title>
<path fill="none" stroke="#63b8ff" d="M547.268,-595.126C545.91,-513.506 536.713,-205.082 475,-135 469.961,-129.277 463.666,-124.875 456.8,-121.494"/>
<polygon fill="#63b8ff" stroke="#63b8ff" points="543.773,-595.518 547.416,-605.467 550.772,-595.418 543.773,-595.518"/>
</g>
<!-- Node28 -->
<g id="node28" class="node"><title>Node28</title>
<g id="a_node28"><a xlink:href="classore_1_1data_1_1_commodity_volatility_curve_spec.html#a5dfbf7fb90a161a62eddcbb44e67ec67" target="_top" xlink:title=" ">
<polygon fill="white" stroke="#666666" points="463.5,-78 315.5,-78 315.5,-48 463.5,-48 463.5,-78"/>
<text text-anchor="start" x="323.5" y="-66" font-family="Helvetica,sans-Serif" font-size="10.00">ore::data::CommodityVolatility</text>
<text text-anchor="middle" x="389.5" y="-55" font-family="Helvetica,sans-Serif" font-size="10.00">CurveSpec::subName</text>
</a>
</g>
</g>
<!-- Node1&#45;&gt;Node28 -->
<g id="edge28" class="edge"><title>Node1&#45;&gt;Node28</title>
<path fill="none" stroke="#63b8ff" d="M547.57,-595.367C547.476,-509.164 542.8,-165.046 475,-87 471.7,-83.2008 467.846,-79.9822 463.636,-77.2577"/>
<polygon fill="#63b8ff" stroke="#63b8ff" points="544.07,-595.367 547.56,-605.371 551.07,-595.374 544.07,-595.367"/>
</g>
<!-- Node29 -->
<g id="node29" class="node"><title>Node29</title>
<g id="a_node29"><a xlink:href="classore_1_1data_1_1_correlation_curve_spec.html#a1d64179da212ac954c972e7a13dd2446" target="_top" xlink:title=" ">
<polygon fill="white" stroke="#666666" points="455,-30 324,-30 324,-0 455,-0 455,-30"/>
<text text-anchor="start" x="332" y="-18" font-family="Helvetica,sans-Serif" font-size="10.00">ore::data::CorrelationCurve</text>
<text text-anchor="middle" x="389.5" y="-7" font-family="Helvetica,sans-Serif" font-size="10.00">Spec::subName</text>
</a>
</g>
</g>
<!-- Node1&#45;&gt;Node29 -->
<g id="edge29" class="edge"><title>Node1&#45;&gt;Node29</title>
<path fill="none" stroke="#63b8ff" d="M547.82,-595.347C548.897,-504.379 548.84,-124.971 475,-39 469.634,-32.7528 462.772,-28.0732 455.284,-24.578"/>
<polygon fill="#63b8ff" stroke="#63b8ff" points="544.32,-595.344 547.681,-605.391 551.319,-595.44 544.32,-595.344"/>
</g>
<!-- Node10 -->
<g id="node10" class="node"><title>Node10</title>
<g id="a_node10"><a xlink:href="classore_1_1data_1_1_yield_curve.html#a9926d222ab68411efb749aa1e6cbd0b1" target="_top" xlink:title=" ">
<polygon fill="white" stroke="#666666" points="268,-894 143,-894 143,-864 268,-864 268,-894"/>
<text text-anchor="start" x="151" y="-882" font-family="Helvetica,sans-Serif" font-size="10.00">ore::data::YieldCurve</text>
<text text-anchor="middle" x="205.5" y="-871" font-family="Helvetica,sans-Serif" font-size="10.00">::buildBootstrappedCurve</text>
</a>
</g>
</g>
<!-- Node9&#45;&gt;Node10 -->
<g id="edge9" class="edge"><title>Node9&#45;&gt;Node10</title>
<path fill="none" stroke="#63b8ff" d="M322.185,-879C304.519,-879 285.51,-879 268.108,-879"/>
<polygon fill="#63b8ff" stroke="#63b8ff" points="322.409,-882.5 332.409,-879 322.409,-875.5 322.409,-882.5"/>
</g>
<!-- Node10&#45;&gt;Node8 -->
<g id="edge10" class="edge"><title>Node10&#45;&gt;Node8</title>
<path fill="none" stroke="#63b8ff" d="M132.603,-889.066C124.023,-890.267 115.389,-891.476 107.15,-892.629"/>
<polygon fill="#63b8ff" stroke="#63b8ff" points="133.205,-892.516 142.623,-887.663 132.235,-885.583 133.205,-892.516"/>
</g>
<!-- Node14 -->
<g id="node14" class="node"><title>Node14</title>
<g id="a_node14"><a xlink:href="classore_1_1data_1_1_f_x_vol_curve.html#af2e42c318046fe68ebaa0a7d0cc5067d" target="_top" xlink:title="Detailed constructor.">
<polygon fill="white" stroke="#666666" points="260.5,-750 150.5,-750 150.5,-720 260.5,-720 260.5,-750"/>
<text text-anchor="start" x="158.5" y="-738" font-family="Helvetica,sans-Serif" font-size="10.00">ore::data::FXVolCurve</text>
<text text-anchor="middle" x="205.5" y="-727" font-family="Helvetica,sans-Serif" font-size="10.00">::FXVolCurve</text>
</a>
</g>
</g>
<!-- Node13&#45;&gt;Node14 -->
<g id="edge14" class="edge"><title>Node13&#45;&gt;Node14</title>
<path fill="none" stroke="#63b8ff" d="M324.365,-735C303.57,-735 280.72,-735 260.719,-735"/>
<polygon fill="#63b8ff" stroke="#63b8ff" points="324.387,-738.5 334.387,-735 324.387,-731.5 324.387,-738.5"/>
</g>
</g>
</svg>
