<?xml version="1.0" encoding="UTF-8" standalone="no"?>
<!DOCTYPE svg PUBLIC "-//W3C//DTD SVG 1.1//EN"
 "http://www.w3.org/Graphics/SVG/1.1/DTD/svg11.dtd">
<!-- Generated by graphviz version 2.38.0 (20140413.2041)
 -->
<!-- Title: hasFactor Pages: 1 -->
<svg width="341pt" height="124pt"
 viewBox="0.00 0.00 341.00 123.50" xmlns="http://www.w3.org/2000/svg" xmlns:xlink="http://www.w3.org/1999/xlink">
<g id="graph0" class="graph" transform="scale(1 1) rotate(0) translate(4 119.5)">
<title>hasFactor</title>
<!-- Node1 -->
<g id="node1" class="node"><title>Node1</title>
<g id="a_node1"><a xlink:title="Check if we have any adjustment factors for a name.">
<polygon fill="#999999" stroke="#666666" points="333,-62 273,-62 273,-43 333,-43 333,-62"/>
<text text-anchor="middle" x="303" y="-50" font-family="Helvetica,sans-Serif" font-size="10.00">hasFactor</text>
</a>
</g>
</g>
<!-- Node2 -->
<g id="node2" class="node"><title>Node2</title>
<g id="a_node2"><a xlink:href="classore_1_1data_1_1_adjustment_factors.html#a05583ba7a4148ed250bcc4a9984b1647" target="_top" xlink:title="Returns the adjustment factor for a name on a given date.">
<polygon fill="white" stroke="#666666" points="237,-62 179,-62 179,-43 237,-43 237,-62"/>
<text text-anchor="middle" x="208" y="-50" font-family="Helvetica,sans-Serif" font-size="10.00">getFactor</text>
</a>
</g>
</g>
<!-- Node1&#45;&gt;Node2 -->
<g id="edge1" class="edge"><title>Node1&#45;&gt;Node2</title>
<path fill="none" stroke="#63b8ff" d="M262.618,-52.5C254.046,-52.5 245.144,-52.5 237.113,-52.5"/>
<polygon fill="#63b8ff" stroke="#63b8ff" points="262.829,-56.0001 272.829,-52.5 262.829,-49.0001 262.829,-56.0001"/>
</g>
<!-- Node3 -->
<g id="node3" class="node"><title>Node3</title>
<g id="a_node3"><a xlink:href="classore_1_1data_1_1_adjusted_in_memory_loader.html#a394ea65c115638a789b7e4793aed8f8a" target="_top" xlink:title=" ">
<polygon fill="white" stroke="#666666" points="142.5,-115.5 0.5,-115.5 0.5,-85.5 142.5,-85.5 142.5,-115.5"/>
<text text-anchor="start" x="8.5" y="-103.5" font-family="Helvetica,sans-Serif" font-size="10.00">ore::data::AdjustedInMemory</text>
<text text-anchor="middle" x="71.5" y="-92.5" font-family="Helvetica,sans-Serif" font-size="10.00">Loader::add</text>
</a>
</g>
</g>
<!-- Node2&#45;&gt;Node3 -->
<g id="edge2" class="edge"><title>Node2&#45;&gt;Node3</title>
<path fill="none" stroke="#63b8ff" d="M172.559,-65.6363C163.008,-69.2191 152.62,-73.0598 143,-76.5 134.721,-79.4605 125.867,-82.5417 117.326,-85.4704"/>
<polygon fill="#63b8ff" stroke="#63b8ff" points="174.02,-68.8262 182.142,-62.0237 171.551,-62.2761 174.02,-68.8262"/>
</g>
<!-- Node4 -->
<g id="node4" class="node"><title>Node4</title>
<g id="a_node4"><a xlink:href="classore_1_1data_1_1_adjusted_in_memory_loader.html#a7cd575fcc611643a3fe6f2529f44cf16" target="_top" xlink:title=" ">
<polygon fill="white" stroke="#666666" points="142.5,-67.5 0.5,-67.5 0.5,-37.5 142.5,-37.5 142.5,-67.5"/>
<text text-anchor="start" x="8.5" y="-55.5" font-family="Helvetica,sans-Serif" font-size="10.00">ore::data::AdjustedInMemory</text>
<text text-anchor="middle" x="71.5" y="-44.5" font-family="Helvetica,sans-Serif" font-size="10.00">Loader::addFixing</text>
</a>
</g>
</g>
<!-- Node2&#45;&gt;Node4 -->
<g id="edge3" class="edge"><title>Node2&#45;&gt;Node4</title>
<path fill="none" stroke="#63b8ff" d="M168.783,-52.5C160.528,-52.5 151.55,-52.5 142.505,-52.5"/>
<polygon fill="#63b8ff" stroke="#63b8ff" points="168.804,-56.0001 178.804,-52.5 168.804,-49.0001 168.804,-56.0001"/>
</g>
<!-- Node5 -->
<g id="node5" class="node"><title>Node5</title>
<g id="a_node5"><a xlink:href="test_2adjustmentfactors_8cpp.html#af4f0b94da4f6eaa05b3f19394208e883" target="_top" xlink:title=" ">
<polygon fill="white" stroke="#666666" points="143,-19 0,-19 0,-0 143,-0 143,-19"/>
<text text-anchor="middle" x="71.5" y="-7" font-family="Helvetica,sans-Serif" font-size="10.00">BOOST_AUTO_TEST_CASE</text>
</a>
</g>
</g>
<!-- Node2&#45;&gt;Node5 -->
<g id="edge4" class="edge"><title>Node2&#45;&gt;Node5</title>
<path fill="none" stroke="#63b8ff" d="M173.747,-39.3426C163.914,-35.6393 153.083,-31.7411 143,-28.5 132.621,-25.1639 121.26,-21.925 110.747,-19.0945"/>
<polygon fill="#63b8ff" stroke="#63b8ff" points="172.591,-42.6477 183.181,-42.9493 175.09,-36.1092 172.591,-42.6477"/>
</g>
</g>
</svg>
