<?xml version="1.0" encoding="UTF-8" standalone="no"?>
<!DOCTYPE svg PUBLIC "-//W3C//DTD SVG 1.1//EN"
 "http://www.w3.org/Graphics/SVG/1.1/DTD/svg11.dtd">
<!-- Generated by graphviz version 2.38.0 (20140413.2041)
 -->
<!-- Title: toXML Pages: 1 -->
<!--zoomable 1303 -->
<svg id="main" version="1.1" xmlns="http://www.w3.org/2000/svg" xmlns:xlink="http://www.w3.org/1999/xlink" xml:space="preserve" onload="init(evt)">
<style type="text/css"><![CDATA[
.edge:hover path { stroke: red; }
.edge:hover polygon { stroke: red; fill: red; }
]]></style>
<script type="text/javascript"><![CDATA[
var edges = document.getElementsByTagName('g');
if (edges && edges.length) {
  for (var i=0;i<edges.length;i++) {
    if (edges[i].id.substr(0,4)=='edge') {
      edges[i].setAttribute('class','edge');
    }
  }
}
]]></script>
        <defs>
                <circle id="rim" cx="0" cy="0" r="7"/>
                <circle id="rim2" cx="0" cy="0" r="3.5"/>
                <g id="zoomPlus">
                        <use xlink:href="#rim" fill="#404040">
                                <set attributeName="fill" to="#808080" begin="zoomplus.mouseover" end="zoomplus.mouseout"/>
                        </use>
                        <path d="M-4,0h8M0,-4v8" fill="none" stroke="white" stroke-width="1.5" pointer-events="none"/>
                </g>
                <g id="zoomMin">
                        <use xlink:href="#rim" fill="#404040">
                                <set attributeName="fill" to="#808080" begin="zoomminus.mouseover" end="zoomminus.mouseout"/>
                        </use>
                        <path d="M-4,0h8" fill="none" stroke="white" stroke-width="1.5" pointer-events="none"/>
                </g>
                <g id="dirArrow">
                        <path fill="none" stroke="white" stroke-width="1.5" d="M0,-3.0v7 M-2.5,-0.5L0,-3.0L2.5,-0.5"/>
                </g>
               <g id="resetDef">
                       <use xlink:href="#rim2" fill="#404040">
                               <set attributeName="fill" to="#808080" begin="reset.mouseover" end="reset.mouseout"/>
                       </use>
               </g>
        </defs>

<script type="text/javascript">
var viewWidth = 1040;
var viewHeight = 1303;
var sectionId = 'dynsection-6';
</script>
<script xlink:href="svgpan.js"/>
<svg id="graph" class="graph">
<g id="viewport">
<title>toXML</title>
<!-- Node1 -->
<g id="node1" class="node"><title>Node1</title>
<g id="a_node1"><a xlink:title=" ">
<polygon fill="#999999" stroke="#666666" points="44,-993.253 0,-993.253 0,-974.253 44,-974.253 44,-993.253"/>
<text text-anchor="middle" x="22" y="-981.253" font-family="Helvetica,sans-Serif" font-size="10.00">toXML</text>
</a>
</g>
</g>
<!-- Node2 -->
<g id="node2" class="node"><title>Node2</title>
<g id="a_node2"><a xlink:href="classore_1_1data_1_1_x_m_l_utils.html#aced1fd4bd35df3642d8022301744b138" target="_top" xlink:title=" ">
<polygon fill="white" stroke="#666666" points="703.5,-894.753 604.5,-894.753 604.5,-864.753 703.5,-864.753 703.5,-894.753"/>
<text text-anchor="start" x="612.5" y="-882.753" font-family="Helvetica,sans-Serif" font-size="10.00">ore::data::XMLUtils</text>
<text text-anchor="middle" x="654" y="-871.753" font-family="Helvetica,sans-Serif" font-size="10.00">::addChild</text>
</a>
</g>
</g>
<!-- Node1&#45;&gt;Node2 -->
<g id="edge1" class="edge"><title>Node1&#45;&gt;Node2</title>
<path fill="none" stroke="#63b8ff" d="M28.9462,-993.563C38.3013,-1008.36 57.7054,-1036.57 80,-1054.75 139.613,-1103.37 159.225,-1115.69 234,-1133.75 282.592,-1145.49 535.118,-1149.27 560,-1131.75 635.293,-1078.74 649.765,-957.588 652.446,-904.946"/>
<polygon fill="#63b8ff" stroke="#63b8ff" points="655.95,-904.935 652.857,-894.802 648.955,-904.652 655.95,-904.935"/>
</g>
<!-- Node3 -->
<g id="node3" class="node"><title>Node3</title>
<g id="a_node3"><a xlink:href="classore_1_1data_1_1_x_m_l_document.html#a8717c517803f0df2e693e3cadefeafd7" target="_top" xlink:title="util functions that wrap rapidxml">
<polygon fill="white" stroke="#666666" points="872,-813.753 748,-813.753 748,-783.753 872,-783.753 872,-813.753"/>
<text text-anchor="start" x="756" y="-801.753" font-family="Helvetica,sans-Serif" font-size="10.00">ore::data::XMLDocument</text>
<text text-anchor="middle" x="810" y="-790.753" font-family="Helvetica,sans-Serif" font-size="10.00">::allocNode</text>
</a>
</g>
</g>
<!-- Node1&#45;&gt;Node3 -->
<g id="edge4" class="edge"><title>Node1&#45;&gt;Node3</title>
<path fill="none" stroke="#63b8ff" d="M25.8902,-993.401C42.2661,-1045.89 128.521,-1294.75 292,-1294.75 292,-1294.75 292,-1294.75 475,-1294.75 621.471,-1294.75 642.497,-1194.68 712,-1065.75 724.001,-1043.49 779.051,-885.47 800.454,-823.551"/>
<polygon fill="#63b8ff" stroke="#63b8ff" points="803.861,-824.41 803.816,-813.815 797.244,-822.125 803.861,-824.41"/>
</g>
<!-- Node5 -->
<g id="node5" class="node"><title>Node5</title>
<g id="a_node5"><a xlink:href="classore_1_1data_1_1_x_m_l_utils.html#ae646b9cdf949a88f35c36c18bf90b370" target="_top" xlink:title=" ">
<polygon fill="white" stroke="#666666" points="703.5,-207.753 604.5,-207.753 604.5,-177.753 703.5,-177.753 703.5,-207.753"/>
<text text-anchor="start" x="612.5" y="-195.753" font-family="Helvetica,sans-Serif" font-size="10.00">ore::data::XMLUtils</text>
<text text-anchor="middle" x="654" y="-184.753" font-family="Helvetica,sans-Serif" font-size="10.00">::appendNode</text>
</a>
</g>
</g>
<!-- Node1&#45;&gt;Node5 -->
<g id="edge5" class="edge"><title>Node1&#45;&gt;Node5</title>
<path fill="none" stroke="#63b8ff" d="M22.9649,-974.106C22.8031,-897.909 23.8784,-392.426 80,-252.753 120.27,-152.531 140.073,-118.08 234,-64.7528 294.181,-30.5851 318.986,-46.878 388,-41.7528 464.235,-36.0914 493.261,-4.47534 560,-41.7528 608.44,-68.8092 634.767,-132.6 646.11,-167.999"/>
<polygon fill="#63b8ff" stroke="#63b8ff" points="642.77,-169.048 649.038,-177.59 649.465,-167.004 642.77,-169.048"/>
</g>
<!-- Node6 -->
<g id="node6" class="node"><title>Node6</title>
<g id="a_node6"><a xlink:href="classore_1_1data_1_1_credit_default_swap_data.html#a7efefb9270d6c4933e4c96de0771f17a" target="_top" xlink:title=" ">
<polygon fill="white" stroke="#666666" points="197,-291.753 81,-291.753 81,-261.753 197,-261.753 197,-291.753"/>
<text text-anchor="start" x="89" y="-279.753" font-family="Helvetica,sans-Serif" font-size="10.00">ore::data::CreditDefault</text>
<text text-anchor="middle" x="139" y="-268.753" font-family="Helvetica,sans-Serif" font-size="10.00">SwapData::toXML</text>
</a>
</g>
</g>
<!-- Node1&#45;&gt;Node6 -->
<g id="edge6" class="edge"><title>Node1&#45;&gt;Node6</title>
<path fill="none" stroke="#63b8ff" d="M24.5819,-974.027C36.7083,-899.476 114.961,-418.395 133.885,-302.054"/>
<polygon fill="#63b8ff" stroke="#63b8ff" points="137.375,-302.392 135.526,-291.96 130.466,-301.268 137.375,-302.392"/>
</g>
<!-- Node17 -->
<g id="node17" class="node"><title>Node17</title>
<g id="a_node17"><a xlink:href="classore_1_1data_1_1_option_data.html#a7efefb9270d6c4933e4c96de0771f17a" target="_top" xlink:title=" ">
<polygon fill="white" stroke="#666666" points="348,-662.753 238,-662.753 238,-632.753 348,-632.753 348,-662.753"/>
<text text-anchor="start" x="246" y="-650.753" font-family="Helvetica,sans-Serif" font-size="10.00">ore::data::OptionData</text>
<text text-anchor="middle" x="293" y="-639.753" font-family="Helvetica,sans-Serif" font-size="10.00">::toXML</text>
</a>
</g>
</g>
<!-- Node1&#45;&gt;Node17 -->
<g id="edge29" class="edge"><title>Node1&#45;&gt;Node17</title>
<path fill="none" stroke="#63b8ff" d="M30.7605,-974.059C67.0264,-928.761 220.277,-737.34 273.611,-670.722"/>
<polygon fill="#63b8ff" stroke="#63b8ff" points="276.371,-672.874 279.889,-662.881 270.907,-668.5 276.371,-672.874"/>
</g>
<!-- Node19 -->
<g id="node19" class="node"><title>Node19</title>
<g id="a_node19"><a xlink:href="classore_1_1data_1_1_trade.html#a7efefb9270d6c4933e4c96de0771f17a" target="_top" xlink:title=" ">
<polygon fill="white" stroke="#666666" points="198,-1046.25 80,-1046.25 80,-1027.25 198,-1027.25 198,-1046.25"/>
<text text-anchor="middle" x="139" y="-1034.25" font-family="Helvetica,sans-Serif" font-size="10.00">ore::data::Trade::toXML</text>
</a>
</g>
</g>
<!-- Node1&#45;&gt;Node19 -->
<g id="edge42" class="edge"><title>Node1&#45;&gt;Node19</title>
<path fill="none" stroke="#63b8ff" d="M43.8256,-993.351C61.818,-1001.64 88.0328,-1013.72 108.238,-1023.04"/>
<polygon fill="#63b8ff" stroke="#63b8ff" points="106.782,-1026.22 117.329,-1027.23 109.712,-1019.86 106.782,-1026.22"/>
</g>
<!-- Node2&#45;&gt;Node3 -->
<g id="edge2" class="edge"><title>Node2&#45;&gt;Node3</title>
<path fill="none" stroke="#63b8ff" d="M684.94,-864.672C693.683,-860.227 703.241,-855.328 712,-850.753 731.903,-840.357 753.973,-828.548 772.027,-818.813"/>
<polygon fill="#63b8ff" stroke="#63b8ff" points="773.933,-821.762 781.069,-813.931 770.607,-815.602 773.933,-821.762"/>
</g>
<!-- Node4 -->
<g id="node4" class="node"><title>Node4</title>
<g id="a_node4"><a xlink:href="classore_1_1data_1_1_x_m_l_document.html#ae3474059e483990f3afea260096e5c90" target="_top" xlink:title=" ">
<polygon fill="white" stroke="#666666" points="1032,-813.753 908,-813.753 908,-783.753 1032,-783.753 1032,-813.753"/>
<text text-anchor="start" x="916" y="-801.753" font-family="Helvetica,sans-Serif" font-size="10.00">ore::data::XMLDocument</text>
<text text-anchor="middle" x="970" y="-790.753" font-family="Helvetica,sans-Serif" font-size="10.00">::allocString</text>
</a>
</g>
</g>
<!-- Node3&#45;&gt;Node4 -->
<g id="edge3" class="edge"><title>Node3&#45;&gt;Node4</title>
<path fill="none" stroke="#63b8ff" d="M872.087,-798.753C880.513,-798.753 889.226,-798.753 897.815,-798.753"/>
<polygon fill="#63b8ff" stroke="#63b8ff" points="897.815,-802.253 907.815,-798.753 897.815,-795.253 897.815,-802.253"/>
</g>
<!-- Node6&#45;&gt;Node2 -->
<g id="edge7" class="edge"><title>Node6&#45;&gt;Node2</title>
<path fill="none" stroke="#63b8ff" d="M140.088,-291.878C140.902,-384.294 149.211,-872.719 234,-989.753 278.551,-1051.25 313.96,-1046.89 388,-1063.75 462.535,-1080.73 494.885,-1103.8 560,-1063.75 617.075,-1028.65 640.408,-946.492 648.826,-904.87"/>
<polygon fill="#63b8ff" stroke="#63b8ff" points="652.278,-905.456 650.698,-894.98 645.4,-904.154 652.278,-905.456"/>
</g>
<!-- Node6&#45;&gt;Node5 -->
<g id="edge10" class="edge"><title>Node6&#45;&gt;Node5</title>
<path fill="none" stroke="#63b8ff" d="M144.457,-261.483C154.724,-228.999 183.142,-152.674 234,-111.753 289.856,-66.81 317.124,-74.5424 388,-63.7528 463.574,-52.248 491.952,-28.9224 560,-63.7528 602.616,-85.5655 630.168,-137.013 643.512,-167.942"/>
<polygon fill="#63b8ff" stroke="#63b8ff" points="640.438,-169.668 647.493,-177.572 646.907,-166.993 640.438,-169.668"/>
</g>
<!-- Node7 -->
<g id="node7" class="node"><title>Node7</title>
<g id="a_node7"><a xlink:href="classore_1_1data_1_1_credit_default_swap_data.html#a141c921b7b1e4fe1d43af6c9d27d9bba" target="_top" xlink:title=" ">
<polygon fill="white" stroke="#666666" points="712,-36.7528 596,-36.7528 596,-6.75281 712,-6.75281 712,-36.7528"/>
<text text-anchor="start" x="604" y="-24.7528" font-family="Helvetica,sans-Serif" font-size="10.00">ore::data::CreditDefault</text>
<text text-anchor="middle" x="654" y="-13.7528" font-family="Helvetica,sans-Serif" font-size="10.00">SwapData::alloc</text>
</a>
</g>
</g>
<!-- Node6&#45;&gt;Node7 -->
<g id="edge8" class="edge"><title>Node6&#45;&gt;Node7</title>
<path fill="none" stroke="#63b8ff" d="M141.765,-261.689C147.258,-222.174 167.857,-115.124 234,-64.7528 336.371,13.2079 495.979,4.30888 585.768,-8.87464"/>
<polygon fill="#63b8ff" stroke="#63b8ff" points="585.417,-12.3615 595.831,-10.4133 586.475,-5.44195 585.417,-12.3615"/>
</g>
<!-- Node8 -->
<g id="node8" class="node"><title>Node8</title>
<g id="a_node8"><a xlink:href="namespaceore_1_1data.html#a86651dfeb5c18ee891f7a4734d8cf455" target="_top" xlink:title=" ">
<polygon fill="white" stroke="#666666" points="703,-651.253 605,-651.253 605,-632.253 703,-632.253 703,-651.253"/>
<text text-anchor="middle" x="654" y="-639.253" font-family="Helvetica,sans-Serif" font-size="10.00">ore::data::to_string</text>
</a>
</g>
</g>
<!-- Node6&#45;&gt;Node8 -->
<g id="edge11" class="edge"><title>Node6&#45;&gt;Node8</title>
<path fill="none" stroke="#63b8ff" d="M166.704,-261.694C238.995,-223.152 441.05,-130.459 560,-225.753 623.451,-276.585 646.493,-546.607 651.749,-622.119"/>
<polygon fill="#63b8ff" stroke="#63b8ff" points="648.261,-622.411 652.421,-632.155 655.245,-621.943 648.261,-622.411"/>
</g>
<!-- Node9 -->
<g id="node9" class="node"><title>Node9</title>
<g id="a_node9"><a xlink:href="classore_1_1data_1_1_leg_data.html#a7efefb9270d6c4933e4c96de0771f17a" target="_top" xlink:title=" ">
<polygon fill="white" stroke="#666666" points="341.5,-398.753 244.5,-398.753 244.5,-368.753 341.5,-368.753 341.5,-398.753"/>
<text text-anchor="start" x="252.5" y="-386.753" font-family="Helvetica,sans-Serif" font-size="10.00">ore::data::LegData</text>
<text text-anchor="middle" x="293" y="-375.753" font-family="Helvetica,sans-Serif" font-size="10.00">::toXML</text>
</a>
</g>
</g>
<!-- Node6&#45;&gt;Node9 -->
<g id="edge13" class="edge"><title>Node6&#45;&gt;Node9</title>
<path fill="none" stroke="#63b8ff" d="M161.456,-291.856C187.822,-310.417 232.7,-342.009 262.351,-362.881"/>
<polygon fill="#63b8ff" stroke="#63b8ff" points="260.462,-365.832 270.654,-368.726 264.491,-360.108 260.462,-365.832"/>
</g>
<!-- Node7&#45;&gt;Node3 -->
<g id="edge9" class="edge"><title>Node7&#45;&gt;Node3</title>
<path fill="none" stroke="#63b8ff" d="M668.251,-37.0481C681.62,-53.388 701.713,-80.6196 712,-107.753 805.473,-354.296 810.12,-681.103 809.415,-773.479"/>
<polygon fill="#63b8ff" stroke="#63b8ff" points="805.914,-773.524 809.308,-783.561 812.914,-773.599 805.914,-773.524"/>
</g>
<!-- Node8&#45;&gt;Node8 -->
<g id="edge12" class="edge"><title>Node8&#45;&gt;Node8</title>
<path fill="none" stroke="#63b8ff" d="M629.956,-651.336C618.259,-659.987 626.273,-669.253 654,-669.253 672.196,-669.253 681.902,-665.262 683.119,-660.074"/>
<polygon fill="#63b8ff" stroke="#63b8ff" points="686.093,-658.225 678.044,-651.336 680.04,-661.741 686.093,-658.225"/>
</g>
<!-- Node9&#45;&gt;Node2 -->
<g id="edge14" class="edge"><title>Node9&#45;&gt;Node2</title>
<path fill="none" stroke="#63b8ff" d="M341.746,-396.264C356.546,-400.055 372.926,-404.164 388,-407.753 464.16,-425.883 506.427,-388.666 560,-445.753 595.702,-483.797 584.895,-626.776 596,-677.753 610.108,-742.516 632.945,-817.229 644.983,-855.055"/>
<polygon fill="#63b8ff" stroke="#63b8ff" points="641.692,-856.252 648.076,-864.707 648.358,-854.116 641.692,-856.252"/>
</g>
<!-- Node9&#45;&gt;Node3 -->
<g id="edge19" class="edge"><title>Node9&#45;&gt;Node3</title>
<path fill="none" stroke="#63b8ff" d="M341.859,-369.076C356.519,-365.248 372.792,-361.664 388,-359.753 535.274,-341.249 619.49,-324.675 712,-440.753 793.967,-543.602 806.887,-710.207 808.76,-773.377"/>
<polygon fill="#63b8ff" stroke="#63b8ff" points="805.266,-773.682 808.99,-783.6 812.264,-773.524 805.266,-773.682"/>
</g>
<!-- Node9&#45;&gt;Node5 -->
<g id="edge20" class="edge"><title>Node9&#45;&gt;Node5</title>
<path fill="none" stroke="#63b8ff" d="M298.143,-368.422C307.8,-335.939 335.103,-260.334 388,-225.753 449.776,-185.368 537.194,-182.448 594.476,-186.015"/>
<polygon fill="#63b8ff" stroke="#63b8ff" points="594.234,-189.507 604.456,-186.721 594.728,-182.524 594.234,-189.507"/>
</g>
<!-- Node10 -->
<g id="node10" class="node"><title>Node10</title>
<g id="a_node10"><a xlink:href="classore_1_1data_1_1_x_m_l_utils.html#a29cd524fd4d9381e10c71939131fa4d4" target="_top" xlink:title=" ">
<polygon fill="white" stroke="#666666" points="523.5,-684.753 424.5,-684.753 424.5,-654.753 523.5,-654.753 523.5,-684.753"/>
<text text-anchor="start" x="432.5" y="-672.753" font-family="Helvetica,sans-Serif" font-size="10.00">ore::data::XMLUtils</text>
<text text-anchor="middle" x="474" y="-661.753" font-family="Helvetica,sans-Serif" font-size="10.00">::addChildren</text>
</a>
</g>
</g>
<!-- Node9&#45;&gt;Node10 -->
<g id="edge15" class="edge"><title>Node9&#45;&gt;Node10</title>
<path fill="none" stroke="#63b8ff" d="M297.322,-398.806C306.359,-437.09 334.382,-539.93 388,-607.753 401.094,-624.316 419.694,-638.562 436.157,-649.207"/>
<polygon fill="#63b8ff" stroke="#63b8ff" points="434.698,-652.421 445.035,-654.742 438.401,-646.481 434.698,-652.421"/>
</g>
<!-- Node11 -->
<g id="node11" class="node"><title>Node11</title>
<g id="a_node11"><a xlink:href="classore_1_1data_1_1_x_m_l_utils.html#a60e5b2e453d4610d7ce2ff455d564404" target="_top" xlink:title=" ">
<polygon fill="white" stroke="#666666" points="560,-580.753 388,-580.753 388,-550.753 560,-550.753 560,-580.753"/>
<text text-anchor="start" x="396" y="-568.753" font-family="Helvetica,sans-Serif" font-size="10.00">ore::data::XMLUtils</text>
<text text-anchor="middle" x="474" y="-557.753" font-family="Helvetica,sans-Serif" font-size="10.00">::addChildrenWithOptionalAttributes</text>
</a>
</g>
</g>
<!-- Node9&#45;&gt;Node11 -->
<g id="edge17" class="edge"><title>Node9&#45;&gt;Node11</title>
<path fill="none" stroke="#63b8ff" d="M298.729,-398.961C309.344,-430.541 338.121,-503.467 388,-541.753 389.828,-543.156 391.735,-544.478 393.705,-545.722"/>
<polygon fill="#63b8ff" stroke="#63b8ff" points="392.25,-548.917 402.695,-550.696 395.639,-542.792 392.25,-548.917"/>
</g>
<!-- Node12 -->
<g id="node12" class="node"><title>Node12</title>
<g id="a_node12"><a xlink:href="classore_1_1data_1_1_x_m_l_utils.html#a5f2b91a4af900e85c356cfe807e64501" target="_top" xlink:title=" ">
<polygon fill="white" stroke="#666666" points="523.5,-312.753 424.5,-312.753 424.5,-282.753 523.5,-282.753 523.5,-312.753"/>
<text text-anchor="start" x="432.5" y="-300.753" font-family="Helvetica,sans-Serif" font-size="10.00">ore::data::XMLUtils</text>
<text text-anchor="middle" x="474" y="-289.753" font-family="Helvetica,sans-Serif" font-size="10.00">::getChildNode</text>
</a>
</g>
</g>
<!-- Node9&#45;&gt;Node12 -->
<g id="edge21" class="edge"><title>Node9&#45;&gt;Node12</title>
<path fill="none" stroke="#63b8ff" d="M316.034,-368.51C334.618,-356.122 362.235,-338.787 388,-326.753 396.404,-322.828 405.491,-319.161 414.491,-315.845"/>
<polygon fill="#63b8ff" stroke="#63b8ff" points="415.942,-319.043 424.186,-312.388 413.591,-312.45 415.942,-319.043"/>
</g>
<!-- Node13 -->
<g id="node13" class="node"><title>Node13</title>
<g id="a_node13"><a xlink:href="classore_1_1data_1_1_schedule_data.html#a314b19ebe3b2ce78e9df49fee95c21dd" target="_top" xlink:title="Check if has any dates/rules/derived schedules.">
<polygon fill="white" stroke="#666666" points="535,-484.753 413,-484.753 413,-454.753 535,-454.753 535,-484.753"/>
<text text-anchor="start" x="421" y="-472.753" font-family="Helvetica,sans-Serif" font-size="10.00">ore::data::ScheduleData</text>
<text text-anchor="middle" x="474" y="-461.753" font-family="Helvetica,sans-Serif" font-size="10.00">::hasData</text>
</a>
</g>
</g>
<!-- Node9&#45;&gt;Node13 -->
<g id="edge22" class="edge"><title>Node9&#45;&gt;Node13</title>
<path fill="none" stroke="#63b8ff" d="M316.034,-398.995C334.618,-411.384 362.235,-428.719 388,-440.753 396.006,-444.492 404.633,-447.997 413.214,-451.188"/>
<polygon fill="#63b8ff" stroke="#63b8ff" points="412.252,-454.562 422.846,-454.653 414.621,-447.975 412.252,-454.562"/>
</g>
<!-- Node14 -->
<g id="node14" class="node"><title>Node14</title>
<g id="a_node14"><a xlink:href="classore_1_1data_1_1_leg_data.html#a81b9d9c795e1f72812f0da9b14382f4a" target="_top" xlink:title=" ">
<polygon fill="white" stroke="#666666" points="522.5,-264.753 425.5,-264.753 425.5,-234.753 522.5,-234.753 522.5,-264.753"/>
<text text-anchor="start" x="433.5" y="-252.753" font-family="Helvetica,sans-Serif" font-size="10.00">ore::data::LegData</text>
<text text-anchor="middle" x="474" y="-241.753" font-family="Helvetica,sans-Serif" font-size="10.00">::legType</text>
</a>
</g>
</g>
<!-- Node9&#45;&gt;Node14 -->
<g id="edge23" class="edge"><title>Node9&#45;&gt;Node14</title>
<path fill="none" stroke="#63b8ff" d="M302.886,-368.457C317.542,-344.597 349.072,-298.673 388,-273.753 396.427,-268.358 406.08,-264.155 415.787,-260.885"/>
<polygon fill="#63b8ff" stroke="#63b8ff" points="416.933,-264.195 425.468,-257.918 414.881,-257.502 416.933,-264.195"/>
</g>
<!-- Node15 -->
<g id="node15" class="node"><title>Node15</title>
<g id="a_node15"><a xlink:href="classore_1_1data_1_1_x_m_l_utils.html#ac1ace6a9e07990c65081057f2ecdf164" target="_top" xlink:title=" ">
<polygon fill="white" stroke="#666666" points="523.5,-532.753 424.5,-532.753 424.5,-502.753 523.5,-502.753 523.5,-532.753"/>
<text text-anchor="start" x="432.5" y="-520.753" font-family="Helvetica,sans-Serif" font-size="10.00">ore::data::XMLUtils</text>
<text text-anchor="middle" x="474" y="-509.753" font-family="Helvetica,sans-Serif" font-size="10.00">::setNodeName</text>
</a>
</g>
</g>
<!-- Node9&#45;&gt;Node15 -->
<g id="edge24" class="edge"><title>Node9&#45;&gt;Node15</title>
<path fill="none" stroke="#63b8ff" d="M302.886,-399.048C317.542,-422.909 349.072,-468.833 388,-493.753 396.051,-498.907 405.222,-502.974 414.49,-506.178"/>
<polygon fill="#63b8ff" stroke="#63b8ff" points="413.551,-509.552 424.14,-509.214 415.651,-502.874 413.551,-509.552"/>
</g>
<!-- Node16 -->
<g id="node16" class="node"><title>Node16</title>
<g id="a_node16"><a xlink:href="classore_1_1data_1_1_schedule_data.html#a7efefb9270d6c4933e4c96de0771f17a" target="_top" xlink:title=" ">
<polygon fill="white" stroke="#666666" points="535,-398.753 413,-398.753 413,-368.753 535,-368.753 535,-398.753"/>
<text text-anchor="start" x="421" y="-386.753" font-family="Helvetica,sans-Serif" font-size="10.00">ore::data::ScheduleData</text>
<text text-anchor="middle" x="474" y="-375.753" font-family="Helvetica,sans-Serif" font-size="10.00">::toXML</text>
</a>
</g>
</g>
<!-- Node9&#45;&gt;Node16 -->
<g id="edge26" class="edge"><title>Node9&#45;&gt;Node16</title>
<path fill="none" stroke="#63b8ff" d="M341.969,-383.753C360.573,-383.753 382.253,-383.753 402.561,-383.753"/>
<polygon fill="#63b8ff" stroke="#63b8ff" points="402.715,-387.253 412.715,-383.753 402.715,-380.253 402.715,-387.253"/>
</g>
<!-- Node10&#45;&gt;Node2 -->
<g id="edge16" class="edge"><title>Node10&#45;&gt;Node2</title>
<path fill="none" stroke="#63b8ff" d="M500.795,-684.89C518.769,-696.267 542.554,-713.056 560,-731.753 595.868,-770.192 625.782,-824.387 641.374,-855.407"/>
<polygon fill="#63b8ff" stroke="#63b8ff" points="638.355,-857.199 645.922,-864.615 644.631,-854.099 638.355,-857.199"/>
</g>
<!-- Node11&#45;&gt;Node11 -->
<g id="edge18" class="edge"><title>Node11&#45;&gt;Node11</title>
<path fill="none" stroke="#63b8ff" d="M442.359,-581.028C435.328,-590.159 445.875,-598.753 474,-598.753 490.699,-598.753 501.201,-595.723 505.507,-591.35"/>
<polygon fill="#63b8ff" stroke="#63b8ff" points="509.011,-591.073 505.641,-581.028 502.011,-590.982 509.011,-591.073"/>
</g>
<!-- Node15&#45;&gt;Node4 -->
<g id="edge25" class="edge"><title>Node15&#45;&gt;Node4</title>
<path fill="none" stroke="#63b8ff" d="M523.702,-529.568C535.736,-533.014 548.477,-537.118 560,-541.753 716.421,-604.665 879.405,-727.266 942.173,-777.005"/>
<polygon fill="#63b8ff" stroke="#63b8ff" points="940.352,-780.029 950.353,-783.526 944.715,-774.556 940.352,-780.029"/>
</g>
<!-- Node16&#45;&gt;Node3 -->
<g id="edge27" class="edge"><title>Node16&#45;&gt;Node3</title>
<path fill="none" stroke="#63b8ff" d="M534.508,-398.757C543.522,-402.493 552.351,-407.099 560,-412.753 693.587,-511.495 774.639,-705.117 800.203,-773.834"/>
<polygon fill="#63b8ff" stroke="#63b8ff" points="796.979,-775.21 803.701,-783.399 803.553,-772.806 796.979,-775.21"/>
</g>
<!-- Node16&#45;&gt;Node5 -->
<g id="edge28" class="edge"><title>Node16&#45;&gt;Node5</title>
<path fill="none" stroke="#63b8ff" d="M500.053,-368.515C517.898,-356.968 541.84,-340.014 560,-321.753 592.566,-289.005 622.281,-243.975 638.966,-216.696"/>
<polygon fill="#63b8ff" stroke="#63b8ff" points="642.142,-218.208 644.308,-207.837 636.147,-214.594 642.142,-218.208"/>
</g>
<!-- Node17&#45;&gt;Node2 -->
<g id="edge30" class="edge"><title>Node17&#45;&gt;Node2</title>
<path fill="none" stroke="#63b8ff" d="M301.078,-663.045C314.386,-690.221 345.655,-747.131 388,-779.753 421.137,-805.281 527.272,-841.045 594.743,-862.165"/>
<polygon fill="#63b8ff" stroke="#63b8ff" points="593.815,-865.541 604.404,-865.171 595.896,-858.858 593.815,-865.541"/>
</g>
<!-- Node17&#45;&gt;Node3 -->
<g id="edge33" class="edge"><title>Node17&#45;&gt;Node3</title>
<path fill="none" stroke="#63b8ff" d="M294.09,-663.074C295.294,-709.09 305.892,-846.433 388,-903.753 447.037,-944.967 646.039,-932.617 712,-903.753 749.663,-887.272 779.2,-848.153 795.357,-822.596"/>
<polygon fill="#63b8ff" stroke="#63b8ff" points="798.467,-824.219 800.694,-813.861 792.494,-820.569 798.467,-824.219"/>
</g>
<!-- Node17&#45;&gt;Node5 -->
<g id="edge34" class="edge"><title>Node17&#45;&gt;Node5</title>
<path fill="none" stroke="#63b8ff" d="M348.057,-646.637C416.774,-644.067 530.096,-635.6 560,-607.753 617.859,-553.873 643.997,-299.717 650.996,-218.072"/>
<polygon fill="#63b8ff" stroke="#63b8ff" points="654.497,-218.2 651.841,-207.943 647.521,-217.617 654.497,-218.2"/>
</g>
<!-- Node17&#45;&gt;Node10 -->
<g id="edge31" class="edge"><title>Node17&#45;&gt;Node10</title>
<path fill="none" stroke="#63b8ff" d="M348.192,-654.413C369.061,-656.978 392.98,-659.918 414.259,-662.533"/>
<polygon fill="#63b8ff" stroke="#63b8ff" points="414.116,-666.042 424.468,-663.788 414.969,-659.094 414.116,-666.042"/>
</g>
<!-- Node17&#45;&gt;Node11 -->
<g id="edge32" class="edge"><title>Node17&#45;&gt;Node11</title>
<path fill="none" stroke="#63b8ff" d="M326.831,-632.713C356.009,-619.346 398.838,-599.726 430.6,-585.176"/>
<polygon fill="#63b8ff" stroke="#63b8ff" points="432.44,-588.183 440.074,-580.836 429.525,-581.819 432.44,-588.183"/>
</g>
<!-- Node17&#45;&gt;Node13 -->
<g id="edge35" class="edge"><title>Node17&#45;&gt;Node13</title>
<path fill="none" stroke="#63b8ff" d="M299.01,-632.454C309.971,-601.418 339.088,-530.857 388,-493.753 392.696,-490.191 397.898,-487.157 403.348,-484.574"/>
<polygon fill="#63b8ff" stroke="#63b8ff" points="404.847,-487.74 412.709,-480.637 402.134,-481.287 404.847,-487.74"/>
</g>
<!-- Node17&#45;&gt;Node15 -->
<g id="edge36" class="edge"><title>Node17&#45;&gt;Node15</title>
<path fill="none" stroke="#63b8ff" d="M303.27,-632.646C318.22,-609.56 349.87,-565.672 388,-541.753 396.098,-536.673 405.293,-532.644 414.57,-529.455"/>
<polygon fill="#63b8ff" stroke="#63b8ff" points="415.731,-532.759 424.226,-526.427 413.637,-526.08 415.731,-532.759"/>
</g>
<!-- Node17&#45;&gt;Node16 -->
<g id="edge41" class="edge"><title>Node17&#45;&gt;Node16</title>
<path fill="none" stroke="#63b8ff" d="M298.16,-632.638C308.541,-596.985 338.381,-506.11 388,-445.753 401.408,-429.443 420.038,-415.221 436.441,-404.527"/>
<polygon fill="#63b8ff" stroke="#63b8ff" points="438.683,-407.251 445.276,-398.958 434.95,-401.329 438.683,-407.251"/>
</g>
<!-- Node18 -->
<g id="node18" class="node"><title>Node18</title>
<g id="a_node18"><a xlink:href="classore_1_1data_1_1_premium_data.html#a7efefb9270d6c4933e4c96de0771f17a" target="_top" xlink:title=" ">
<polygon fill="white" stroke="#666666" points="534,-770.753 414,-770.753 414,-740.753 534,-740.753 534,-770.753"/>
<text text-anchor="start" x="422" y="-758.753" font-family="Helvetica,sans-Serif" font-size="10.00">ore::data::PremiumData</text>
<text text-anchor="middle" x="474" y="-747.753" font-family="Helvetica,sans-Serif" font-size="10.00">::toXML</text>
</a>
</g>
</g>
<!-- Node17&#45;&gt;Node18 -->
<g id="edge37" class="edge"><title>Node17&#45;&gt;Node18</title>
<path fill="none" stroke="#63b8ff" d="M318.889,-662.77C350.194,-681.658 404.081,-714.17 439.121,-735.312"/>
<polygon fill="#63b8ff" stroke="#63b8ff" points="437.664,-738.52 448.034,-740.69 441.28,-732.527 437.664,-738.52"/>
</g>
<!-- Node18&#45;&gt;Node2 -->
<g id="edge38" class="edge"><title>Node18&#45;&gt;Node2</title>
<path fill="none" stroke="#63b8ff" d="M496.826,-770.958C528.406,-792.957 586.962,-833.749 622.708,-858.65"/>
<polygon fill="#63b8ff" stroke="#63b8ff" points="621.068,-861.774 631.274,-864.618 625.069,-856.03 621.068,-861.774"/>
</g>
<!-- Node18&#45;&gt;Node3 -->
<g id="edge39" class="edge"><title>Node18&#45;&gt;Node3</title>
<path fill="none" stroke="#63b8ff" d="M534.459,-762.668C582.419,-768.333 651.599,-776.7 712,-784.753 720.364,-785.868 729.128,-787.077 737.823,-788.3"/>
<polygon fill="#63b8ff" stroke="#63b8ff" points="737.578,-791.801 747.97,-789.739 738.561,-784.87 737.578,-791.801"/>
</g>
<!-- Node18&#45;&gt;Node8 -->
<g id="edge40" class="edge"><title>Node18&#45;&gt;Node8</title>
<path fill="none" stroke="#63b8ff" d="M529.985,-740.712C540.301,-736.868 550.743,-732.235 560,-726.753 591.315,-708.209 621.208,-677.866 638.3,-658.893"/>
<polygon fill="#63b8ff" stroke="#63b8ff" points="641.016,-661.105 645.011,-651.292 635.768,-656.473 641.016,-661.105"/>
</g>
<!-- Node19&#45;&gt;Node2 -->
<g id="edge46" class="edge"><title>Node19&#45;&gt;Node2</title>
<path fill="none" stroke="#63b8ff" d="M147.764,-1046.5C162.406,-1064.01 196.056,-1100.2 234,-1113.75 279.669,-1130.07 529.827,-1129.6 560,-1108.75 628.6,-1061.36 646.641,-953.988 651.352,-904.986"/>
<polygon fill="#63b8ff" stroke="#63b8ff" points="654.848,-905.181 652.208,-894.921 647.873,-904.588 654.848,-905.181"/>
</g>
<!-- Node19&#45;&gt;Node3 -->
<g id="edge47" class="edge"><title>Node19&#45;&gt;Node3</title>
<path fill="none" stroke="#63b8ff" d="M145.514,-1046.33C158.063,-1067.04 191.028,-1115.56 234,-1133.75 270.046,-1149.02 513.002,-1155.49 560,-1131.75 693.338,-1064.41 773.808,-888.362 799.758,-823.345"/>
<polygon fill="#63b8ff" stroke="#63b8ff" points="803.071,-824.485 803.455,-813.897 796.552,-821.934 803.071,-824.485"/>
</g>
<!-- Node19&#45;&gt;Node5 -->
<g id="edge48" class="edge"><title>Node19&#45;&gt;Node5</title>
<path fill="none" stroke="#63b8ff" d="M140.602,-1026.87C145.213,-953.05 176.312,-487.013 234,-359.753 277.19,-264.475 292.86,-225.246 388,-181.753 453.641,-151.745 538.246,-162.607 593.985,-175.542"/>
<polygon fill="#63b8ff" stroke="#63b8ff" points="593.503,-179.026 604.045,-177.971 595.146,-172.221 593.503,-179.026"/>
</g>
<!-- Node20 -->
<g id="node20" class="node"><title>Node20</title>
<g id="a_node20"><a xlink:href="classore_1_1data_1_1_x_m_l_utils.html#a226c81c31def2ba2c853ca803d1fafc5" target="_top" xlink:title=" ">
<polygon fill="white" stroke="#666666" points="342.5,-1266.75 243.5,-1266.75 243.5,-1236.75 342.5,-1236.75 342.5,-1266.75"/>
<text text-anchor="start" x="251.5" y="-1254.75" font-family="Helvetica,sans-Serif" font-size="10.00">ore::data::XMLUtils</text>
<text text-anchor="middle" x="293" y="-1243.75" font-family="Helvetica,sans-Serif" font-size="10.00">::addAttribute</text>
</a>
</g>
</g>
<!-- Node19&#45;&gt;Node20 -->
<g id="edge43" class="edge"><title>Node19&#45;&gt;Node20</title>
<path fill="none" stroke="#63b8ff" d="M142.559,-1046.55C150.851,-1076.59 179.646,-1168.63 234,-1222.75 237.182,-1225.92 240.781,-1228.81 244.59,-1231.42"/>
<polygon fill="#63b8ff" stroke="#63b8ff" points="242.831,-1234.45 253.181,-1236.71 246.501,-1228.49 242.831,-1234.45"/>
</g>
<!-- Node22 -->
<g id="node22" class="node"><title>Node22</title>
<g id="a_node22"><a xlink:href="classore_1_1data_1_1_trade_actions.html#a644718bb2fb240de962dc3c9a1fdf0dc" target="_top" xlink:title="Returns true of this set of actions is empty.">
<polygon fill="white" stroke="#666666" points="352,-1104.75 234,-1104.75 234,-1074.75 352,-1074.75 352,-1104.75"/>
<text text-anchor="start" x="242" y="-1092.75" font-family="Helvetica,sans-Serif" font-size="10.00">ore::data::TradeActions</text>
<text text-anchor="middle" x="293" y="-1081.75" font-family="Helvetica,sans-Serif" font-size="10.00">::empty</text>
</a>
</g>
</g>
<!-- Node19&#45;&gt;Node22 -->
<g id="edge49" class="edge"><title>Node19&#45;&gt;Node22</title>
<path fill="none" stroke="#63b8ff" d="M167.526,-1046.35C187.452,-1053.3 215.007,-1062.91 239.127,-1071.32"/>
<polygon fill="#63b8ff" stroke="#63b8ff" points="238.278,-1074.73 248.872,-1074.71 240.582,-1068.12 238.278,-1074.73"/>
</g>
<!-- Node23 -->
<g id="node23" class="node"><title>Node23</title>
<g id="a_node23"><a xlink:href="classore_1_1data_1_1_envelope.html#a7efefb9270d6c4933e4c96de0771f17a" target="_top" xlink:title=" ">
<polygon fill="white" stroke="#666666" points="343,-980.753 243,-980.753 243,-950.753 343,-950.753 343,-980.753"/>
<text text-anchor="start" x="251" y="-968.753" font-family="Helvetica,sans-Serif" font-size="10.00">ore::data::Envelope</text>
<text text-anchor="middle" x="293" y="-957.753" font-family="Helvetica,sans-Serif" font-size="10.00">::toXML</text>
</a>
</g>
</g>
<!-- Node19&#45;&gt;Node23 -->
<g id="edge50" class="edge"><title>Node19&#45;&gt;Node23</title>
<path fill="none" stroke="#63b8ff" d="M160.499,-1027.18C183.459,-1016.45 221.278,-998.787 250.48,-985.147"/>
<polygon fill="#63b8ff" stroke="#63b8ff" points="252.049,-988.277 259.628,-980.874 249.087,-981.935 252.049,-988.277"/>
</g>
<!-- Node27 -->
<g id="node27" class="node"><title>Node27</title>
<g id="a_node27"><a xlink:href="classore_1_1data_1_1_trade_actions.html#a7efefb9270d6c4933e4c96de0771f17a" target="_top" xlink:title=" ">
<polygon fill="white" stroke="#666666" points="533,-102.753 415,-102.753 415,-72.7528 533,-72.7528 533,-102.753"/>
<text text-anchor="start" x="423" y="-90.7528" font-family="Helvetica,sans-Serif" font-size="10.00">ore::data::TradeActions</text>
<text text-anchor="middle" x="474" y="-79.7528" font-family="Helvetica,sans-Serif" font-size="10.00">::toXML</text>
</a>
</g>
</g>
<!-- Node19&#45;&gt;Node27 -->
<g id="edge59" class="edge"><title>Node19&#45;&gt;Node27</title>
<path fill="none" stroke="#63b8ff" d="M140.519,-1027.04C145.352,-937.96 183.417,-264.874 234,-192.753 273.279,-136.748 349.324,-110.283 405.125,-97.9936"/>
<polygon fill="#63b8ff" stroke="#63b8ff" points="405.878,-101.412 414.945,-95.9299 404.439,-94.5614 405.878,-101.412"/>
</g>
<!-- Node20&#45;&gt;Node4 -->
<g id="edge44" class="edge"><title>Node20&#45;&gt;Node4</title>
<path fill="none" stroke="#63b8ff" d="M337.251,-1266.82C391.834,-1283.19 487.354,-1302.88 560,-1269.75 772.57,-1172.81 917.323,-904.779 957.602,-822.854"/>
<polygon fill="#63b8ff" stroke="#63b8ff" points="960.775,-824.334 961.994,-813.809 954.478,-821.276 960.775,-824.334"/>
</g>
<!-- Node21 -->
<g id="node21" class="node"><title>Node21</title>
<g id="a_node21"><a xlink:href="classore_1_1data_1_1_x_m_l_document.html#a46d969cdb00bff64f3f4c0d2975a08d3" target="_top" xlink:title=" ">
<polygon fill="white" stroke="#666666" points="547,-1261.25 401,-1261.25 401,-1242.25 547,-1242.25 547,-1261.25"/>
<text text-anchor="middle" x="474" y="-1249.25" font-family="Helvetica,sans-Serif" font-size="10.00">ore::data::XMLDocument::doc</text>
</a>
</g>
</g>
<!-- Node20&#45;&gt;Node21 -->
<g id="edge45" class="edge"><title>Node20&#45;&gt;Node21</title>
<path fill="none" stroke="#63b8ff" d="M342.913,-1251.75C357.742,-1251.75 374.458,-1251.75 390.844,-1251.75"/>
<polygon fill="#63b8ff" stroke="#63b8ff" points="390.984,-1255.25 400.984,-1251.75 390.984,-1248.25 390.984,-1255.25"/>
</g>
<!-- Node23&#45;&gt;Node2 -->
<g id="edge51" class="edge"><title>Node23&#45;&gt;Node2</title>
<path fill="none" stroke="#63b8ff" d="M307.492,-980.872C324.311,-998.465 354.904,-1026.53 388,-1037.75 460.398,-1062.29 493.637,-1075.7 560,-1037.75 610.173,-1009.07 635.959,-941.586 646.711,-904.776"/>
<polygon fill="#63b8ff" stroke="#63b8ff" points="650.167,-905.41 649.465,-894.838 643.422,-903.541 650.167,-905.41"/>
</g>
<!-- Node23&#45;&gt;Node3 -->
<g id="edge52" class="edge"><title>Node23&#45;&gt;Node3</title>
<path fill="none" stroke="#63b8ff" d="M302.373,-950.39C316.538,-926.004 347.667,-878.838 388,-855.753 497.758,-792.931 649.348,-788.692 737.498,-792.743"/>
<polygon fill="#63b8ff" stroke="#63b8ff" points="737.498,-796.247 747.663,-793.26 737.854,-789.256 737.498,-796.247"/>
</g>
<!-- Node23&#45;&gt;Node5 -->
<g id="edge53" class="edge"><title>Node23&#45;&gt;Node5</title>
<path fill="none" stroke="#63b8ff" d="M295.316,-950.67C299.807,-908.876 318.368,-790.776 388,-731.753 447.72,-681.131 505.588,-750.041 560,-693.753 593.783,-658.805 638.105,-314.603 649.971,-217.903"/>
<polygon fill="#63b8ff" stroke="#63b8ff" points="653.459,-218.208 651.195,-207.858 646.511,-217.361 653.459,-218.208"/>
</g>
<!-- Node24 -->
<g id="node24" class="node"><title>Node24</title>
<g id="a_node24"><a xlink:href="classore_1_1data_1_1_netting_set_details.html#ab87072d461177abcb48735d002150bfb" target="_top" xlink:title=" ">
<polygon fill="white" stroke="#666666" points="542.5,-1028.75 405.5,-1028.75 405.5,-998.753 542.5,-998.753 542.5,-1028.75"/>
<text text-anchor="start" x="413.5" y="-1016.75" font-family="Helvetica,sans-Serif" font-size="10.00">ore::data::NettingSetDetails</text>
<text text-anchor="middle" x="474" y="-1005.75" font-family="Helvetica,sans-Serif" font-size="10.00">::emptyOptionalFields</text>
</a>
</g>
</g>
<!-- Node23&#45;&gt;Node24 -->
<g id="edge54" class="edge"><title>Node23&#45;&gt;Node24</title>
<path fill="none" stroke="#63b8ff" d="M343.386,-978.996C363.04,-984.266 385.947,-990.409 406.99,-996.052"/>
<polygon fill="#63b8ff" stroke="#63b8ff" points="406.262,-999.48 416.828,-998.69 408.075,-992.719 406.262,-999.48"/>
</g>
<!-- Node25 -->
<g id="node25" class="node"><title>Node25</title>
<g id="a_node25"><a xlink:href="classore_1_1data_1_1_netting_set_details.html#a9bf8e40febad0782c5855488041ecfd7" target="_top" xlink:title=" ">
<polygon fill="white" stroke="#666666" points="542.5,-980.753 405.5,-980.753 405.5,-950.753 542.5,-950.753 542.5,-980.753"/>
<text text-anchor="start" x="413.5" y="-968.753" font-family="Helvetica,sans-Serif" font-size="10.00">ore::data::NettingSetDetails</text>
<text text-anchor="middle" x="474" y="-957.753" font-family="Helvetica,sans-Serif" font-size="10.00">::nettingSetId</text>
</a>
</g>
</g>
<!-- Node23&#45;&gt;Node25 -->
<g id="edge55" class="edge"><title>Node23&#45;&gt;Node25</title>
<path fill="none" stroke="#63b8ff" d="M343.386,-965.753C359.39,-965.753 377.551,-965.753 395.106,-965.753"/>
<polygon fill="#63b8ff" stroke="#63b8ff" points="395.351,-969.253 405.351,-965.753 395.351,-962.253 395.351,-969.253"/>
</g>
<!-- Node26 -->
<g id="node26" class="node"><title>Node26</title>
<g id="a_node26"><a xlink:href="classore_1_1data_1_1_netting_set_details.html#a7efefb9270d6c4933e4c96de0771f17a" target="_top" xlink:title=" ">
<polygon fill="white" stroke="#666666" points="542.5,-894.753 405.5,-894.753 405.5,-864.753 542.5,-864.753 542.5,-894.753"/>
<text text-anchor="start" x="413.5" y="-882.753" font-family="Helvetica,sans-Serif" font-size="10.00">ore::data::NettingSetDetails</text>
<text text-anchor="middle" x="474" y="-871.753" font-family="Helvetica,sans-Serif" font-size="10.00">::toXML</text>
</a>
</g>
</g>
<!-- Node23&#45;&gt;Node26 -->
<g id="edge56" class="edge"><title>Node23&#45;&gt;Node26</title>
<path fill="none" stroke="#63b8ff" d="M325.59,-950.576C355.369,-936.268 400.139,-914.759 432.524,-899.199"/>
<polygon fill="#63b8ff" stroke="#63b8ff" points="434.228,-902.264 441.726,-894.778 431.197,-895.954 434.228,-902.264"/>
</g>
<!-- Node26&#45;&gt;Node2 -->
<g id="edge57" class="edge"><title>Node26&#45;&gt;Node2</title>
<path fill="none" stroke="#63b8ff" d="M542.548,-879.753C559.57,-879.753 577.705,-879.753 594.256,-879.753"/>
<polygon fill="#63b8ff" stroke="#63b8ff" points="594.333,-883.253 604.333,-879.753 594.333,-876.253 594.333,-883.253"/>
</g>
<!-- Node26&#45;&gt;Node3 -->
<g id="edge58" class="edge"><title>Node26&#45;&gt;Node3</title>
<path fill="none" stroke="#63b8ff" d="M537.04,-864.707C594.047,-850.882 678.494,-830.402 738.135,-815.939"/>
<polygon fill="#63b8ff" stroke="#63b8ff" points="738.963,-819.339 747.856,-813.581 737.313,-812.537 738.963,-819.339"/>
</g>
<!-- Node27&#45;&gt;Node3 -->
<g id="edge60" class="edge"><title>Node27&#45;&gt;Node3</title>
<path fill="none" stroke="#63b8ff" d="M533.215,-91.115C587.958,-97.5648 667.9,-116.072 712,-168.753 790.898,-263.002 805.908,-668.047 808.499,-773.549"/>
<polygon fill="#63b8ff" stroke="#63b8ff" points="805.001,-773.68 808.729,-783.597 811.999,-773.52 805.001,-773.68"/>
</g>
<!-- Node27&#45;&gt;Node5 -->
<g id="edge61" class="edge"><title>Node27&#45;&gt;Node5</title>
<path fill="none" stroke="#63b8ff" d="M528.85,-102.877C539.474,-106.754 550.322,-111.378 560,-116.753 586.399,-131.414 612.692,-153.809 630.551,-170.496"/>
<polygon fill="#63b8ff" stroke="#63b8ff" points="628.476,-173.354 638.132,-177.713 633.302,-168.283 628.476,-173.354"/>
</g>
</g>
</svg>
        <g id="navigator" transform="translate(0 0)" fill="#404254">
                <rect fill="#f2f5e9" fill-opacity="0.5" stroke="#606060" stroke-width=".5" x="0" y="0" width="60" height="60"/>
                <use id="zoomplus" xlink:href="#zoomPlus" x="17" y="9" onmousedown="handleZoom(evt,'in')"/>
                <use id="zoomminus" xlink:href="#zoomMin" x="42" y="9" onmousedown="handleZoom(evt,'out')"/>
                <use id="reset" xlink:href="#resetDef" x="30" y="36" onmousedown="handleReset()"/>
                <g id="arrowUp" xlink:href="#dirArrow" transform="translate(30 24)" onmousedown="handlePan(0,-1)">
                  <use xlink:href="#rim" fill="#404040">
                        <set attributeName="fill" to="#808080" begin="arrowUp.mouseover" end="arrowUp.mouseout"/>
                  </use>
                  <path fill="none" stroke="white" stroke-width="1.5" d="M0,-3.0v7 M-2.5,-0.5L0,-3.0L2.5,-0.5"/>
                </g>
                <g id="arrowRight" xlink:href="#dirArrow" transform="rotate(90) translate(36 -43)" onmousedown="handlePan(1,0)">
                  <use xlink:href="#rim" fill="#404040">
                        <set attributeName="fill" to="#808080" begin="arrowRight.mouseover" end="arrowRight.mouseout"/>
                  </use>
                  <path fill="none" stroke="white" stroke-width="1.5" d="M0,-3.0v7 M-2.5,-0.5L0,-3.0L2.5,-0.5"/>
                </g>
                <g id="arrowDown" xlink:href="#dirArrow" transform="rotate(180) translate(-30 -48)" onmousedown="handlePan(0,1)">
                  <use xlink:href="#rim" fill="#404040">
                        <set attributeName="fill" to="#808080" begin="arrowDown.mouseover" end="arrowDown.mouseout"/>
                  </use>
                  <path fill="none" stroke="white" stroke-width="1.5" d="M0,-3.0v7 M-2.5,-0.5L0,-3.0L2.5,-0.5"/>
                </g>
                <g id="arrowLeft" xlink:href="#dirArrow" transform="rotate(270) translate(-36 17)" onmousedown="handlePan(-1,0)">
                  <use xlink:href="#rim" fill="#404040">
                        <set attributeName="fill" to="#808080" begin="arrowLeft.mouseover" end="arrowLeft.mouseout"/>
                  </use>
                  <path fill="none" stroke="white" stroke-width="1.5" d="M0,-3.0v7 M-2.5,-0.5L0,-3.0L2.5,-0.5"/>
                </g>
        </g>
        <svg viewBox="0 0 15 15" width="100%" height="30px" preserveAspectRatio="xMaxYMin meet">
         <g id="arrow_out" transform="scale(0.3 0.3)">
          <a xlink:href="classore_1_1data_1_1_credit_default_swap_option_a7efefb9270d6c4933e4c96de0771f17a_cgraph_org.svg" target="_base">
           <rect id="button" ry="5" rx="5" y="6" x="6" height="38" width="38"
                fill="#f2f5e9" fill-opacity="0.5" stroke="#606060" stroke-width="1.0"/>
           <path id="arrow"
             d="M 11.500037,31.436501 C 11.940474,20.09759 22.043105,11.32322 32.158766,21.979434 L 37.068811,17.246167 C 37.068811,17.246167 37.088388,32 37.088388,32 L 22.160133,31.978069 C 22.160133,31.978069 26.997745,27.140456 26.997745,27.140456 C 18.528582,18.264221 13.291696,25.230495 11.500037,31.436501 z"
             style="fill:#404040;"/>
          </a>
         </g>
        </svg>
</svg>
