<?xml version="1.0" encoding="UTF-8" standalone="no"?>
<!DOCTYPE svg PUBLIC "-//W3C//DTD SVG 1.1//EN"
 "http://www.w3.org/Graphics/SVG/1.1/DTD/svg11.dtd">
<!-- Generated by graphviz version 2.38.0 (20140413.2041)
 -->
<!-- Title: fromXML Pages: 1 -->
<svg width="423pt" height="357pt"
 viewBox="0.00 0.00 423.00 356.50" xmlns="http://www.w3.org/2000/svg" xmlns:xlink="http://www.w3.org/1999/xlink">
<g id="graph0" class="graph" transform="scale(1 1) rotate(0) translate(4 352.5)">
<title>fromXML</title>
<!-- Node1 -->
<g id="node1" class="node"><title>Node1</title>
<g id="a_node1"><a xlink:title=" ">
<polygon fill="#999999" stroke="#666666" points="54,-105 0,-105 0,-86 54,-86 54,-105"/>
<text text-anchor="middle" x="27" y="-93" font-family="Helvetica,sans-Serif" font-size="10.00">fromXML</text>
</a>
</g>
</g>
<!-- Node2 -->
<g id="node2" class="node"><title>Node2</title>
<g id="a_node2"><a xlink:href="classore_1_1data_1_1_calibration_basket.html#a7741ae0fc924943de5bfe02928262eb7" target="_top" xlink:title=" ">
<polygon fill="white" stroke="#666666" points="234.5,-204.5 97.5,-204.5 97.5,-174.5 234.5,-174.5 234.5,-204.5"/>
<text text-anchor="start" x="105.5" y="-192.5" font-family="Helvetica,sans-Serif" font-size="10.00">ore::data::CalibrationBasket</text>
<text text-anchor="middle" x="166" y="-181.5" font-family="Helvetica,sans-Serif" font-size="10.00">::fromXML</text>
</a>
</g>
</g>
<!-- Node1&#45;&gt;Node2 -->
<g id="edge1" class="edge"><title>Node1&#45;&gt;Node2</title>
<path fill="none" stroke="#63b8ff" d="M37.4668,-105.257C49.1191,-116.931 69.8472,-136.636 90,-150.5 100.202,-157.518 111.826,-164.147 122.827,-169.88"/>
<polygon fill="#63b8ff" stroke="#63b8ff" points="121.375,-173.068 131.876,-174.474 124.544,-166.826 121.375,-173.068"/>
</g>
<!-- Node6 -->
<g id="node6" class="node"><title>Node6</title>
<g id="a_node6"><a xlink:href="classore_1_1data_1_1_x_m_l_utils.html#a5f2b91a4af900e85c356cfe807e64501" target="_top" xlink:title=" ">
<polygon fill="white" stroke="#666666" points="396,-156.5 297,-156.5 297,-126.5 396,-126.5 396,-156.5"/>
<text text-anchor="start" x="305" y="-144.5" font-family="Helvetica,sans-Serif" font-size="10.00">ore::data::XMLUtils</text>
<text text-anchor="middle" x="346.5" y="-133.5" font-family="Helvetica,sans-Serif" font-size="10.00">::getChildNode</text>
</a>
</g>
</g>
<!-- Node1&#45;&gt;Node6 -->
<g id="edge8" class="edge"><title>Node1&#45;&gt;Node6</title>
<path fill="none" stroke="#63b8ff" d="M54.132,-101.995C65.1536,-104.58 78.1522,-107.425 90,-109.5 157.083,-121.246 234.807,-130.344 286.75,-135.787"/>
<polygon fill="#63b8ff" stroke="#63b8ff" points="286.477,-139.277 296.784,-136.826 287.198,-132.314 286.477,-139.277"/>
</g>
<!-- Node7 -->
<g id="node7" class="node"><title>Node7</title>
<g id="a_node7"><a xlink:href="classore_1_1data_1_1_x_m_l_utils.html#a7fedec5ac495a3e67a9abd7e4aae74aa" target="_top" xlink:title="Get a node&#39;s next sibling node.">
<polygon fill="white" stroke="#666666" points="396,-108.5 297,-108.5 297,-78.5 396,-78.5 396,-108.5"/>
<text text-anchor="start" x="305" y="-96.5" font-family="Helvetica,sans-Serif" font-size="10.00">ore::data::XMLUtils</text>
<text text-anchor="middle" x="346.5" y="-85.5" font-family="Helvetica,sans-Serif" font-size="10.00">::getNextSibling</text>
</a>
</g>
</g>
<!-- Node1&#45;&gt;Node7 -->
<g id="edge11" class="edge"><title>Node1&#45;&gt;Node7</title>
<path fill="none" stroke="#63b8ff" d="M54.2525,-95.3346C104.844,-95.0159 216.968,-94.3097 286.399,-93.8723"/>
<polygon fill="#63b8ff" stroke="#63b8ff" points="286.762,-97.3702 296.74,-93.8072 286.718,-90.3703 286.762,-97.3702"/>
</g>
<!-- Node9 -->
<g id="node9" class="node"><title>Node9</title>
<g id="a_node9"><a xlink:href="classore_1_1data_1_1_x_m_l_utils.html#a5a1307174ddefdb3aad6e3bd8cc63b27" target="_top" xlink:title=" ">
<polygon fill="white" stroke="#666666" points="215.5,-67.5 116.5,-67.5 116.5,-37.5 215.5,-37.5 215.5,-67.5"/>
<text text-anchor="start" x="124.5" y="-55.5" font-family="Helvetica,sans-Serif" font-size="10.00">ore::data::XMLUtils</text>
<text text-anchor="middle" x="166" y="-44.5" font-family="Helvetica,sans-Serif" font-size="10.00">::getChildValue</text>
</a>
</g>
</g>
<!-- Node1&#45;&gt;Node9 -->
<g id="edge9" class="edge"><title>Node1&#45;&gt;Node9</title>
<path fill="none" stroke="#63b8ff" d="M54.0911,-87.3108C69.2306,-82.559 88.9267,-76.377 107.512,-70.5436"/>
<polygon fill="#63b8ff" stroke="#63b8ff" points="108.607,-73.8685 117.1,-67.5344 106.511,-67.1897 108.607,-73.8685"/>
</g>
<!-- Node11 -->
<g id="node11" class="node"><title>Node11</title>
<g id="a_node11"><a xlink:href="namespaceore_1_1data.html#a3fcd3e2237bc47c69b4b81c0fa50a4cc" target="_top" xlink:title="Convert calibration type string into enumerated class value.">
<polygon fill="white" stroke="#666666" points="242,-19 90,-19 90,-0 242,-0 242,-19"/>
<text text-anchor="middle" x="166" y="-7" font-family="Helvetica,sans-Serif" font-size="10.00">ore::data::parseCalibrationType</text>
</a>
</g>
</g>
<!-- Node1&#45;&gt;Node11 -->
<g id="edge12" class="edge"><title>Node1&#45;&gt;Node11</title>
<path fill="none" stroke="#63b8ff" d="M34.3308,-85.6348C44.3276,-70.8818 65.2033,-43.2336 90,-28.5 93.7024,-26.3001 97.6539,-24.3532 101.734,-22.6305"/>
<polygon fill="#63b8ff" stroke="#63b8ff" points="103.29,-25.7852 111.431,-19.004 100.838,-19.2287 103.29,-25.7852"/>
</g>
<!-- Node3 -->
<g id="node3" class="node"><title>Node3</title>
<g id="a_node3"><a xlink:href="classore_1_1data_1_1_x_m_l_utils.html#a37c092916f4bdf10d4fbf6bb9e474db7" target="_top" xlink:title=" ">
<polygon fill="white" stroke="#666666" points="396,-300.5 297,-300.5 297,-270.5 396,-270.5 396,-300.5"/>
<text text-anchor="start" x="305" y="-288.5" font-family="Helvetica,sans-Serif" font-size="10.00">ore::data::XMLUtils</text>
<text text-anchor="middle" x="346.5" y="-277.5" font-family="Helvetica,sans-Serif" font-size="10.00">::checkNode</text>
</a>
</g>
</g>
<!-- Node2&#45;&gt;Node3 -->
<g id="edge2" class="edge"><title>Node2&#45;&gt;Node3</title>
<path fill="none" stroke="#63b8ff" d="M187.011,-204.541C208.606,-220.27 244.426,-244.928 278,-261.5 281.538,-263.246 285.235,-264.928 288.998,-266.535"/>
<polygon fill="#63b8ff" stroke="#63b8ff" points="287.851,-269.847 298.433,-270.368 290.486,-263.361 287.851,-269.847"/>
</g>
<!-- Node4 -->
<g id="node4" class="node"><title>Node4</title>
<g id="a_node4"><a xlink:href="classore_1_1data_1_1_calibration_basket.html#a644718bb2fb240de962dc3c9a1fdf0dc" target="_top" xlink:title="Returns true if the calibration basket is empty.">
<polygon fill="white" stroke="#666666" points="415,-252.5 278,-252.5 278,-222.5 415,-222.5 415,-252.5"/>
<text text-anchor="start" x="286" y="-240.5" font-family="Helvetica,sans-Serif" font-size="10.00">ore::data::CalibrationBasket</text>
<text text-anchor="middle" x="346.5" y="-229.5" font-family="Helvetica,sans-Serif" font-size="10.00">::empty</text>
</a>
</g>
</g>
<!-- Node2&#45;&gt;Node4 -->
<g id="edge3" class="edge"><title>Node2&#45;&gt;Node4</title>
<path fill="none" stroke="#63b8ff" d="M222.989,-204.556C241.015,-209.403 261.155,-214.819 279.814,-219.836"/>
<polygon fill="#63b8ff" stroke="#63b8ff" points="279.144,-223.281 289.71,-222.498 280.962,-216.521 279.144,-223.281"/>
</g>
<!-- Node5 -->
<g id="node5" class="node"><title>Node5</title>
<g id="a_node5"><a xlink:href="classore_1_1data_1_1_x_m_l_utils.html#a2d656de3f92d61e867ec7a3c88ad4015" target="_top" xlink:title=" ">
<polygon fill="white" stroke="#666666" points="396,-204.5 297,-204.5 297,-174.5 396,-174.5 396,-204.5"/>
<text text-anchor="start" x="305" y="-192.5" font-family="Helvetica,sans-Serif" font-size="10.00">ore::data::XMLUtils</text>
<text text-anchor="middle" x="346.5" y="-181.5" font-family="Helvetica,sans-Serif" font-size="10.00">::getAttribute</text>
</a>
</g>
</g>
<!-- Node2&#45;&gt;Node5 -->
<g id="edge4" class="edge"><title>Node2&#45;&gt;Node5</title>
<path fill="none" stroke="#63b8ff" d="M234.738,-189.5C251.889,-189.5 270.168,-189.5 286.829,-189.5"/>
<polygon fill="#63b8ff" stroke="#63b8ff" points="286.97,-193 296.97,-189.5 286.97,-186 286.97,-193"/>
</g>
<!-- Node2&#45;&gt;Node6 -->
<g id="edge5" class="edge"><title>Node2&#45;&gt;Node6</title>
<path fill="none" stroke="#63b8ff" d="M222.989,-174.444C243.373,-168.963 266.459,-162.755 287.052,-157.217"/>
<polygon fill="#63b8ff" stroke="#63b8ff" points="288.19,-160.536 296.938,-154.559 286.372,-153.776 288.19,-160.536"/>
</g>
<!-- Node2&#45;&gt;Node7 -->
<g id="edge6" class="edge"><title>Node2&#45;&gt;Node7</title>
<path fill="none" stroke="#63b8ff" d="M187.011,-174.459C208.606,-158.73 244.426,-134.072 278,-117.5 281.538,-115.754 285.235,-114.072 288.998,-112.465"/>
<polygon fill="#63b8ff" stroke="#63b8ff" points="290.486,-115.639 298.433,-108.632 287.851,-109.153 290.486,-115.639"/>
</g>
<!-- Node8 -->
<g id="node8" class="node"><title>Node8</title>
<g id="a_node8"><a xlink:href="classore_1_1data_1_1_x_m_l_utils.html#a4e041c36cab0a16681fb41dfbd991882" target="_top" xlink:title="Get and set a node&#39;s name.">
<polygon fill="white" stroke="#666666" points="396,-348.5 297,-348.5 297,-318.5 396,-318.5 396,-348.5"/>
<text text-anchor="start" x="305" y="-336.5" font-family="Helvetica,sans-Serif" font-size="10.00">ore::data::XMLUtils</text>
<text text-anchor="middle" x="346.5" y="-325.5" font-family="Helvetica,sans-Serif" font-size="10.00">::getNodeName</text>
</a>
</g>
</g>
<!-- Node2&#45;&gt;Node8 -->
<g id="edge7" class="edge"><title>Node2&#45;&gt;Node8</title>
<path fill="none" stroke="#63b8ff" d="M177.189,-204.586C194.89,-229.721 233.696,-280.285 278,-309.5 281.089,-311.537 284.372,-313.425 287.761,-315.17"/>
<polygon fill="#63b8ff" stroke="#63b8ff" points="286.383,-318.39 296.924,-319.464 289.354,-312.051 286.383,-318.39"/>
</g>
<!-- Node10 -->
<g id="node10" class="node"><title>Node10</title>
<g id="a_node10"><a xlink:href="classore_1_1data_1_1_x_m_l_utils.html#a6704501b110fa9d056096df3e05f0df2" target="_top" xlink:title="Get a node&#39;s value.">
<polygon fill="white" stroke="#666666" points="396,-60.5 297,-60.5 297,-30.5 396,-30.5 396,-60.5"/>
<text text-anchor="start" x="305" y="-48.5" font-family="Helvetica,sans-Serif" font-size="10.00">ore::data::XMLUtils</text>
<text text-anchor="middle" x="346.5" y="-37.5" font-family="Helvetica,sans-Serif" font-size="10.00">::getNodeValue</text>
</a>
</g>
</g>
<!-- Node9&#45;&gt;Node10 -->
<g id="edge10" class="edge"><title>Node9&#45;&gt;Node10</title>
<path fill="none" stroke="#63b8ff" d="M215.776,-50.5872C237.617,-49.7307 263.562,-48.7133 286.488,-47.8142"/>
<polygon fill="#63b8ff" stroke="#63b8ff" points="286.928,-51.2997 296.783,-47.4105 286.654,-44.3051 286.928,-51.2997"/>
</g>
</g>
</svg>
