<?xml version="1.0" encoding="UTF-8" standalone="no"?>
<!DOCTYPE svg PUBLIC "-//W3C//DTD SVG 1.1//EN"
 "http://www.w3.org/Graphics/SVG/1.1/DTD/svg11.dtd">
<!-- Generated by graphviz version 2.38.0 (20140413.2041)
 -->
<!-- Title: run Pages: 1 -->
<svg width="344pt" height="46pt"
 viewBox="0.00 0.00 344.00 46.00" xmlns="http://www.w3.org/2000/svg" xmlns:xlink="http://www.w3.org/1999/xlink">
<g id="graph0" class="graph" transform="scale(1 1) rotate(0) translate(4 42)">
<title>run</title>
<!-- Node1 -->
<g id="node1" class="node"><title>Node1</title>
<g id="a_node1"><a xlink:title=" ">
<polygon fill="#999999" stroke="#666666" points="30,-19 0,-19 0,-0 30,-0 30,-19"/>
<text text-anchor="middle" x="15" y="-7" font-family="Helvetica,sans-Serif" font-size="10.00">run</text>
</a>
</g>
</g>
<!-- Node2 -->
<g id="node2" class="node"><title>Node2</title>
<g id="a_node2"><a xlink:href="namespaceore_1_1data.html#a6196e84cdbd529baeb71d543180cd788" target="_top" xlink:title=" ">
<polygon fill="white" stroke="#666666" points="202,-38 66,-38 66,-19 202,-19 202,-38"/>
<text text-anchor="middle" x="134" y="-26" font-family="Helvetica,sans-Serif" font-size="10.00">ore::data::printCodeContext</text>
</a>
</g>
</g>
<!-- Node1&#45;&gt;Node2 -->
<g id="edge1" class="edge"><title>Node1&#45;&gt;Node2</title>
<path fill="none" stroke="#63b8ff" d="M30.3465,-11.8298C39.2936,-13.2827 51.535,-15.2706 64.4501,-17.368"/>
<polygon fill="#63b8ff" stroke="#63b8ff" points="63.9826,-20.8378 74.4143,-18.9861 65.1047,-13.9283 63.9826,-20.8378"/>
</g>
<!-- Node3 -->
<g id="node3" class="node"><title>Node3</title>
<g id="a_node3"><a xlink:href="namespaceore_1_1data.html#a86651dfeb5c18ee891f7a4734d8cf455" target="_top" xlink:title=" ">
<polygon fill="white" stroke="#666666" points="336,-19 238,-19 238,-0 336,-0 336,-19"/>
<text text-anchor="middle" x="287" y="-7" font-family="Helvetica,sans-Serif" font-size="10.00">ore::data::to_string</text>
</a>
</g>
</g>
<!-- Node1&#45;&gt;Node3 -->
<g id="edge4" class="edge"><title>Node1&#45;&gt;Node3</title>
<path fill="none" stroke="#63b8ff" d="M30.1362,-9.5C66.3158,-9.5 163.889,-9.5 227.546,-9.5"/>
<polygon fill="#63b8ff" stroke="#63b8ff" points="227.846,-13.0001 237.846,-9.5 227.846,-6.0001 227.846,-13.0001"/>
</g>
<!-- Node2&#45;&gt;Node3 -->
<g id="edge2" class="edge"><title>Node2&#45;&gt;Node3</title>
<path fill="none" stroke="#63b8ff" d="M202.11,-20.0557C210.622,-18.9847 219.278,-17.8955 227.637,-16.8436"/>
<polygon fill="#63b8ff" stroke="#63b8ff" points="228.173,-20.3039 237.658,-15.5828 227.299,-13.3587 228.173,-20.3039"/>
</g>
<!-- Node3&#45;&gt;Node3 -->
<g id="edge3" class="edge"><title>Node3&#45;&gt;Node3</title>
<path fill="none" stroke="#63b8ff" d="M263.572,-19.0828C252.175,-27.7337 259.984,-37 287,-37 304.729,-37 314.186,-33.0094 315.372,-27.8208"/>
<polygon fill="#63b8ff" stroke="#63b8ff" points="318.399,-26.0621 310.428,-19.0828 312.307,-29.5097 318.399,-26.0621"/>
</g>
</g>
</svg>
