<?xml version="1.0" encoding="UTF-8" standalone="no"?>
<!DOCTYPE svg PUBLIC "-//W3C//DTD SVG 1.1//EN"
 "http://www.w3.org/Graphics/SVG/1.1/DTD/svg11.dtd">
<!-- Generated by graphviz version 2.38.0 (20140413.2041)
 -->
<!-- Title: ProxyVolatilityConfig Pages: 1 -->
<svg width="426pt" height="491pt"
 viewBox="0.00 0.00 426.00 491.00" xmlns="http://www.w3.org/2000/svg" xmlns:xlink="http://www.w3.org/1999/xlink">
<g id="graph0" class="graph" transform="scale(1 1) rotate(0) translate(4 487)">
<title>ProxyVolatilityConfig</title>
<!-- Node1 -->
<g id="node1" class="node"><title>Node1</title>
<g id="a_node1"><a xlink:title=" ">
<polygon fill="#999999" stroke="#666666" points="360,-140 234,-140 234,-0 360,-0 360,-140"/>
<text text-anchor="middle" x="297" y="-128" font-family="Helvetica,sans-Serif" font-size="10.00">{ProxyVolatilityConfig</text>
<text text-anchor="start" x="242" y="-117" font-family="Helvetica,sans-Serif" font-size="10.00">||+ ProxyVolatilityConfig()</text>
<text text-anchor="start" x="242" y="-106" font-family="Helvetica,sans-Serif" font-size="10.00">+ ProxyVolatilityConfig()</text>
<text text-anchor="start" x="242" y="-95" font-family="Helvetica,sans-Serif" font-size="10.00">+ proxyVolatilityCurve()</text>
<text text-anchor="start" x="242" y="-84" font-family="Helvetica,sans-Serif" font-size="10.00">+ fxVolatilityCurve()</text>
<text text-anchor="start" x="242" y="-73" font-family="Helvetica,sans-Serif" font-size="10.00">+ correlationCurve()</text>
<text text-anchor="start" x="242" y="-62" font-family="Helvetica,sans-Serif" font-size="10.00">* fromXML()</text>
<text text-anchor="start" x="242" y="-51" font-family="Helvetica,sans-Serif" font-size="10.00">* toXML()</text>
<text text-anchor="start" x="242" y="-40" font-family="Helvetica,sans-Serif" font-size="10.00">* proxyVolatilityCurve()</text>
<text text-anchor="start" x="242" y="-29" font-family="Helvetica,sans-Serif" font-size="10.00">* fxVolatilityCurve()</text>
<text text-anchor="start" x="242" y="-18" font-family="Helvetica,sans-Serif" font-size="10.00">* correlationCurve()</text>
<text text-anchor="middle" x="297" y="-7" font-family="Helvetica,sans-Serif" font-size="10.00">}</text>
</a>
</g>
</g>
<!-- Node2 -->
<g id="node2" class="node"><title>Node2</title>
<g id="a_node2"><a xlink:href="classore_1_1data_1_1_volatility_config.html" target="_top" xlink:title=" ">
<polygon fill="white" stroke="#666666" points="248.5,-262 147.5,-262 147.5,-177 248.5,-177 248.5,-262"/>
<text text-anchor="middle" x="198" y="-250" font-family="Helvetica,sans-Serif" font-size="10.00">{VolatilityConfig</text>
<text text-anchor="start" x="155.5" y="-239" font-family="Helvetica,sans-Serif" font-size="10.00">||+ VolatilityConfig()</text>
<text text-anchor="start" x="155.5" y="-228" font-family="Helvetica,sans-Serif" font-size="10.00">+ fromXMLNode()</text>
<text text-anchor="start" x="155.5" y="-217" font-family="Helvetica,sans-Serif" font-size="10.00">+ toXMLNode()</text>
<text text-anchor="start" x="155.5" y="-206" font-family="Helvetica,sans-Serif" font-size="10.00">+ priority()</text>
<text text-anchor="start" x="155.5" y="-195" font-family="Helvetica,sans-Serif" font-size="10.00">+ calendar()</text>
<text text-anchor="middle" x="198" y="-184" font-family="Helvetica,sans-Serif" font-size="10.00">}</text>
</a>
</g>
</g>
<!-- Node2&#45;&gt;Node1 -->
<g id="edge1" class="edge"><title>Node2&#45;&gt;Node1</title>
<path fill="none" stroke="#63b8ff" d="M231.805,-168.133C237.878,-159.086 244.302,-149.514 250.657,-140.047"/>
<polygon fill="none" stroke="#63b8ff" points="228.772,-166.373 226.105,-176.627 234.584,-170.274 228.772,-166.373"/>
</g>
<!-- Node3 -->
<g id="node3" class="node"><title>Node3</title>
<g id="a_node3"><a xlink:href="classore_1_1data_1_1_x_m_l_serializable.html" target="_top" xlink:title="Base class for all serializable classes.">
<polygon fill="white" stroke="#666666" points="187.5,-416 76.5,-416 76.5,-309 187.5,-309 187.5,-416"/>
<text text-anchor="middle" x="132" y="-404" font-family="Helvetica,sans-Serif" font-size="10.00">{XMLSerializable</text>
<text text-anchor="start" x="84.5" y="-393" font-family="Helvetica,sans-Serif" font-size="10.00">||+ ~XMLSerializable()</text>
<text text-anchor="start" x="84.5" y="-382" font-family="Helvetica,sans-Serif" font-size="10.00">+ fromXML()</text>
<text text-anchor="start" x="84.5" y="-371" font-family="Helvetica,sans-Serif" font-size="10.00">+ toXML()</text>
<text text-anchor="start" x="84.5" y="-360" font-family="Helvetica,sans-Serif" font-size="10.00">+ fromFile()</text>
<text text-anchor="start" x="84.5" y="-349" font-family="Helvetica,sans-Serif" font-size="10.00">+ toFile()</text>
<text text-anchor="start" x="84.5" y="-338" font-family="Helvetica,sans-Serif" font-size="10.00">+ fromXMLString()</text>
<text text-anchor="start" x="84.5" y="-327" font-family="Helvetica,sans-Serif" font-size="10.00">+ toXMLString()</text>
<text text-anchor="middle" x="132" y="-316" font-family="Helvetica,sans-Serif" font-size="10.00">}</text>
</a>
</g>
</g>
<!-- Node3&#45;&gt;Node2 -->
<g id="edge2" class="edge"><title>Node3&#45;&gt;Node2</title>
<path fill="none" stroke="#63b8ff" d="M160.883,-299.795C166.858,-287.03 173.017,-273.874 178.558,-262.036"/>
<polygon fill="none" stroke="#63b8ff" points="157.646,-298.456 156.576,-308.997 163.985,-301.424 157.646,-298.456"/>
</g>
<!-- Node4 -->
<g id="node4" class="node"><title>Node4</title>
<g id="a_node4"><a xlink:title=" ">
<polygon fill="white" stroke="#666666" points="58,-377.5 0,-377.5 0,-347.5 58,-347.5 58,-377.5"/>
<text text-anchor="middle" x="29" y="-365.5" font-family="Helvetica,sans-Serif" font-size="10.00">{Calendar</text>
<text text-anchor="middle" x="29" y="-354.5" font-family="Helvetica,sans-Serif" font-size="10.00">||}</text>
</a>
</g>
</g>
<!-- Node4&#45;&gt;Node2 -->
<g id="edge3" class="edge"><title>Node4&#45;&gt;Node2</title>
<path fill="none" stroke="#404040" d="M37.4813,-347.08C44.4975,-335.895 55.1975,-320.426 67,-309 87.777,-288.885 113.642,-270.337 136.887,-255.472"/>
<polygon fill="none" stroke="#404040" points="137.188,-255.283 140.147,-248.707 147.356,-248.909 144.397,-255.486 137.188,-255.283"/>
<text text-anchor="middle" x="125.5" y="-283" font-family="Helvetica,sans-Serif" font-size="10.00"> &#45;calendar_</text>
</g>
<!-- Node5 -->
<g id="node5" class="node"><title>Node5</title>
<g id="a_node5"><a xlink:title=" ">
<polygon fill="white" stroke="#666666" points="339,-377.5 295,-377.5 295,-347.5 339,-347.5 339,-377.5"/>
<text text-anchor="middle" x="317" y="-365.5" font-family="Helvetica,sans-Serif" font-size="10.00">{string</text>
<text text-anchor="middle" x="317" y="-354.5" font-family="Helvetica,sans-Serif" font-size="10.00">||}</text>
</a>
</g>
</g>
<!-- Node5&#45;&gt;Node1 -->
<g id="edge7" class="edge"><title>Node5&#45;&gt;Node1</title>
<path fill="none" stroke="#404040" d="M318.547,-347.477C320.031,-333.266 322.166,-310.636 323,-291 324.961,-244.835 319.355,-193.547 312.853,-152.113"/>
<polygon fill="none" stroke="#404040" points="312.833,-151.989 307.922,-146.709 310.907,-140.145 315.818,-145.425 312.833,-151.989"/>
<text text-anchor="middle" x="371" y="-233.5" font-family="Helvetica,sans-Serif" font-size="10.00"> &#45;correlationCurve_</text>
<text text-anchor="start" x="324" y="-222.5" font-family="Helvetica,sans-Serif" font-size="10.00">&#45;fxVolatilityCurve</text>
<text text-anchor="middle" x="371" y="-211.5" font-family="Helvetica,sans-Serif" font-size="10.00">_</text>
<text text-anchor="middle" x="371" y="-200.5" font-family="Helvetica,sans-Serif" font-size="10.00">&#45;proxyVolatilityCurve_</text>
</g>
<!-- Node5&#45;&gt;Node2 -->
<g id="edge4" class="edge"><title>Node5&#45;&gt;Node2</title>
<path fill="none" stroke="#404040" d="M305.155,-347.465C290.272,-329.831 263.911,-298.596 241.06,-271.52"/>
<polygon fill="none" stroke="#404040" points="240.888,-271.317 233.961,-269.311 233.148,-262.146 240.075,-264.151 240.888,-271.317"/>
<text text-anchor="middle" x="288.5" y="-283" font-family="Helvetica,sans-Serif" font-size="10.00"> &#45;calendarStr_</text>
</g>
<!-- Node6 -->
<g id="node6" class="node"><title>Node6</title>
<g id="a_node6"><a xlink:title=" ">
<polygon fill="white" stroke="#666666" points="372,-483 262,-483 262,-453 372,-453 372,-483"/>
<text text-anchor="middle" x="317" y="-471" font-family="Helvetica,sans-Serif" font-size="10.00">{basic_string&lt; Char &gt;</text>
<text text-anchor="middle" x="317" y="-460" font-family="Helvetica,sans-Serif" font-size="10.00">||}</text>
</a>
</g>
</g>
<!-- Node6&#45;&gt;Node5 -->
<g id="edge5" class="edge"><title>Node6&#45;&gt;Node5</title>
<path fill="none" stroke="#63b8ff" d="M317,-442.597C317,-422.425 317,-394.476 317,-377.769"/>
<polygon fill="none" stroke="#63b8ff" points="313.5,-442.609 317,-452.609 320.5,-442.609 313.5,-442.609"/>
</g>
<!-- Node7 -->
<g id="node7" class="node"><title>Node7</title>
<g id="a_node7"><a xlink:title=" ">
<polygon fill="white" stroke="#666666" points="256,-377.5 206,-377.5 206,-347.5 256,-347.5 256,-377.5"/>
<text text-anchor="middle" x="231" y="-365.5" font-family="Helvetica,sans-Serif" font-size="10.00">{Natural</text>
<text text-anchor="middle" x="231" y="-354.5" font-family="Helvetica,sans-Serif" font-size="10.00">||}</text>
</a>
</g>
</g>
<!-- Node7&#45;&gt;Node2 -->
<g id="edge6" class="edge"><title>Node7&#45;&gt;Node2</title>
<path fill="none" stroke="#404040" d="M222.412,-347.264C214.6,-333.444 203.608,-311.594 199,-291 197.81,-285.682 197.004,-280.082 196.484,-274.459"/>
<polygon fill="none" stroke="#404040" points="196.468,-274.191 192.123,-268.436 195.764,-262.212 200.109,-267.967 196.468,-274.191"/>
<text text-anchor="middle" x="219.5" y="-283" font-family="Helvetica,sans-Serif" font-size="10.00"> &#45;priority_</text>
</g>
</g>
</svg>
