<?xml version="1.0" encoding="UTF-8" standalone="no"?>
<!DOCTYPE svg PUBLIC "-//W3C//DTD SVG 1.1//EN"
 "http://www.w3.org/Graphics/SVG/1.1/DTD/svg11.dtd">
<!-- Generated by graphviz version 2.38.0 (20140413.2041)
 -->
<!-- Title: getDiscountCurves Pages: 1 -->
<svg width="331pt" height="226pt"
 viewBox="0.00 0.00 331.00 226.00" xmlns="http://www.w3.org/2000/svg" xmlns:xlink="http://www.w3.org/1999/xlink">
<g id="graph0" class="graph" transform="scale(1 1) rotate(0) translate(4 222)">
<title>getDiscountCurves</title>
<!-- Node1 -->
<g id="node1" class="node"><title>Node1</title>
<g id="a_node1"><a xlink:title=" ">
<polygon fill="#999999" stroke="#666666" points="323,-118 225,-118 225,-99 323,-99 323,-118"/>
<text text-anchor="middle" x="274" y="-106" font-family="Helvetica,sans-Serif" font-size="10.00">getDiscountCurves</text>
</a>
</g>
</g>
<!-- Node2 -->
<g id="node2" class="node"><title>Node2</title>
<g id="a_node2"><a xlink:href="classore_1_1data_1_1_risk_participation_agreement_black_engine_builder.html#ae2aa104a3fa81516567894240d1d3073" target="_top" xlink:title=" ">
<polygon fill="white" stroke="#666666" points="169,-218 20,-218 20,-177 169,-177 169,-218"/>
<text text-anchor="start" x="28" y="-206" font-family="Helvetica,sans-Serif" font-size="10.00">ore::data::RiskParticipation</text>
<text text-anchor="start" x="28" y="-195" font-family="Helvetica,sans-Serif" font-size="10.00">AgreementBlackEngineBuilder</text>
<text text-anchor="middle" x="94.5" y="-184" font-family="Helvetica,sans-Serif" font-size="10.00">::engineImpl</text>
</a>
</g>
</g>
<!-- Node1&#45;&gt;Node2 -->
<g id="edge1" class="edge"><title>Node1&#45;&gt;Node2</title>
<path fill="none" stroke="#63b8ff" d="M254.345,-124.504C238.021,-137.828 213.199,-156.496 189,-168.5 182.758,-171.597 176.117,-174.445 169.365,-177.046"/>
<polygon fill="#63b8ff" stroke="#63b8ff" points="256.608,-127.174 262.057,-118.088 252.131,-121.792 256.608,-127.174"/>
</g>
<!-- Node3 -->
<g id="node3" class="node"><title>Node3</title>
<g id="a_node3"><a xlink:href="classore_1_1data_1_1_risk_participation_agreement_x_ccy_black_engine_builder.html#ae2aa104a3fa81516567894240d1d3073" target="_top" xlink:title=" ">
<polygon fill="white" stroke="#666666" points="180,-159 9,-159 9,-118 180,-118 180,-159"/>
<text text-anchor="start" x="17" y="-147" font-family="Helvetica,sans-Serif" font-size="10.00">ore::data::RiskParticipation</text>
<text text-anchor="start" x="17" y="-136" font-family="Helvetica,sans-Serif" font-size="10.00">AgreementXCcyBlackEngineBuilder</text>
<text text-anchor="middle" x="94.5" y="-125" font-family="Helvetica,sans-Serif" font-size="10.00">::engineImpl</text>
</a>
</g>
</g>
<!-- Node1&#45;&gt;Node3 -->
<g id="edge2" class="edge"><title>Node1&#45;&gt;Node3</title>
<path fill="none" stroke="#63b8ff" d="M214.965,-118.309C203.824,-120.192 191.947,-122.199 180.165,-124.19"/>
<polygon fill="#63b8ff" stroke="#63b8ff" points="215.689,-121.736 224.966,-116.618 214.522,-114.834 215.689,-121.736"/>
</g>
<!-- Node4 -->
<g id="node4" class="node"><title>Node4</title>
<g id="a_node4"><a xlink:href="classore_1_1data_1_1_risk_participation_agreement_swap_l_g_m_grid_engine_builder.html#ae2aa104a3fa81516567894240d1d3073" target="_top" xlink:title=" ">
<polygon fill="white" stroke="#666666" points="188,-100 1,-100 1,-59 188,-59 188,-100"/>
<text text-anchor="start" x="9" y="-88" font-family="Helvetica,sans-Serif" font-size="10.00">ore::data::RiskParticipation</text>
<text text-anchor="start" x="9" y="-77" font-family="Helvetica,sans-Serif" font-size="10.00">AgreementSwapLGMGridEngineBuilder</text>
<text text-anchor="middle" x="94.5" y="-66" font-family="Helvetica,sans-Serif" font-size="10.00">::engineImpl</text>
</a>
</g>
</g>
<!-- Node1&#45;&gt;Node4 -->
<g id="edge3" class="edge"><title>Node1&#45;&gt;Node4</title>
<path fill="none" stroke="#63b8ff" d="M215.011,-99.0257C206.335,-97.6083 197.212,-96.1178 188.035,-94.6185"/>
<polygon fill="#63b8ff" stroke="#63b8ff" points="214.532,-102.494 224.966,-100.652 215.661,-95.5855 214.532,-102.494"/>
</g>
<!-- Node5 -->
<g id="node5" class="node"><title>Node5</title>
<g id="a_node5"><a xlink:href="classore_1_1data_1_1_risk_participation_agreement_t_lock_l_g_m_grid_engine_builder.html#ae2aa104a3fa81516567894240d1d3073" target="_top" xlink:title=" ">
<polygon fill="white" stroke="#666666" points="189,-41 0,-41 0,-0 189,-0 189,-41"/>
<text text-anchor="start" x="8" y="-29" font-family="Helvetica,sans-Serif" font-size="10.00">ore::data::RiskParticipation</text>
<text text-anchor="start" x="8" y="-18" font-family="Helvetica,sans-Serif" font-size="10.00">AgreementTLockLGMGridEngineBuilder</text>
<text text-anchor="middle" x="94.5" y="-7" font-family="Helvetica,sans-Serif" font-size="10.00">::engineImpl</text>
</a>
</g>
</g>
<!-- Node1&#45;&gt;Node5 -->
<g id="edge4" class="edge"><title>Node1&#45;&gt;Node5</title>
<path fill="none" stroke="#63b8ff" d="M253.214,-92.337C236.817,-79.5766 212.478,-62.0559 189,-50.5 182.117,-47.1122 174.765,-43.9884 167.321,-41.1406"/>
<polygon fill="#63b8ff" stroke="#63b8ff" points="251.44,-95.3972 261.45,-98.8682 255.79,-89.9124 251.44,-95.3972"/>
</g>
</g>
</svg>
