<?xml version="1.0" encoding="UTF-8" standalone="no"?>
<!DOCTYPE svg PUBLIC "-//W3C//DTD SVG 1.1//EN"
 "http://www.w3.org/Graphics/SVG/1.1/DTD/svg11.dtd">
<!-- Generated by graphviz version 2.38.0 (20140413.2041)
 -->
<!-- Title: toXML Pages: 1 -->
<!--zoomable 1033 -->
<svg id="main" version="1.1" xmlns="http://www.w3.org/2000/svg" xmlns:xlink="http://www.w3.org/1999/xlink" xml:space="preserve" onload="init(evt)">
<style type="text/css"><![CDATA[
.edge:hover path { stroke: red; }
.edge:hover polygon { stroke: red; fill: red; }
]]></style>
<script type="text/javascript"><![CDATA[
var edges = document.getElementsByTagName('g');
if (edges && edges.length) {
  for (var i=0;i<edges.length;i++) {
    if (edges[i].id.substr(0,4)=='edge') {
      edges[i].setAttribute('class','edge');
    }
  }
}
]]></script>
        <defs>
                <circle id="rim" cx="0" cy="0" r="7"/>
                <circle id="rim2" cx="0" cy="0" r="3.5"/>
                <g id="zoomPlus">
                        <use xlink:href="#rim" fill="#404040">
                                <set attributeName="fill" to="#808080" begin="zoomplus.mouseover" end="zoomplus.mouseout"/>
                        </use>
                        <path d="M-4,0h8M0,-4v8" fill="none" stroke="white" stroke-width="1.5" pointer-events="none"/>
                </g>
                <g id="zoomMin">
                        <use xlink:href="#rim" fill="#404040">
                                <set attributeName="fill" to="#808080" begin="zoomminus.mouseover" end="zoomminus.mouseout"/>
                        </use>
                        <path d="M-4,0h8" fill="none" stroke="white" stroke-width="1.5" pointer-events="none"/>
                </g>
                <g id="dirArrow">
                        <path fill="none" stroke="white" stroke-width="1.5" d="M0,-3.0v7 M-2.5,-0.5L0,-3.0L2.5,-0.5"/>
                </g>
               <g id="resetDef">
                       <use xlink:href="#rim2" fill="#404040">
                               <set attributeName="fill" to="#808080" begin="reset.mouseover" end="reset.mouseout"/>
                       </use>
               </g>
        </defs>

<script type="text/javascript">
var viewWidth = 1051;
var viewHeight = 1033;
var sectionId = 'dynsection-6';
</script>
<script xlink:href="svgpan.js"/>
<svg id="graph" class="graph">
<g id="viewport">
<title>toXML</title>
<!-- Node1 -->
<g id="node1" class="node"><title>Node1</title>
<g id="a_node1"><a xlink:title=" ">
<polygon fill="#999999" stroke="#666666" points="44,-644.5 0,-644.5 0,-625.5 44,-625.5 44,-644.5"/>
<text text-anchor="middle" x="22" y="-632.5" font-family="Helvetica,sans-Serif" font-size="10.00">toXML</text>
</a>
</g>
</g>
<!-- Node2 -->
<g id="node2" class="node"><title>Node2</title>
<g id="a_node2"><a xlink:href="classore_1_1data_1_1_x_m_l_utils.html#aced1fd4bd35df3642d8022301744b138" target="_top" xlink:title=" ">
<polygon fill="white" stroke="#666666" points="723,-648 624,-648 624,-618 723,-618 723,-648"/>
<text text-anchor="start" x="632" y="-636" font-family="Helvetica,sans-Serif" font-size="10.00">ore::data::XMLUtils</text>
<text text-anchor="middle" x="673.5" y="-625" font-family="Helvetica,sans-Serif" font-size="10.00">::addChild</text>
</a>
</g>
</g>
<!-- Node1&#45;&gt;Node2 -->
<g id="edge1" class="edge"><title>Node1&#45;&gt;Node2</title>
<path fill="none" stroke="#63b8ff" d="M28.017,-644.733C47.8883,-682.06 125.321,-816.358 234,-864 378.968,-927.55 465.286,-924.977 588,-825 640.744,-782.029 661.507,-699.534 668.877,-658.079"/>
<polygon fill="#63b8ff" stroke="#63b8ff" points="672.364,-658.444 670.546,-648.007 665.459,-657.3 672.364,-658.444"/>
</g>
<!-- Node3 -->
<g id="node3" class="node"><title>Node3</title>
<g id="a_node3"><a xlink:href="classore_1_1data_1_1_x_m_l_document.html#a8717c517803f0df2e693e3cadefeafd7" target="_top" xlink:title="util functions that wrap rapidxml">
<polygon fill="white" stroke="#666666" points="883,-564 759,-564 759,-534 883,-534 883,-564"/>
<text text-anchor="start" x="767" y="-552" font-family="Helvetica,sans-Serif" font-size="10.00">ore::data::XMLDocument</text>
<text text-anchor="middle" x="821" y="-541" font-family="Helvetica,sans-Serif" font-size="10.00">::allocNode</text>
</a>
</g>
</g>
<!-- Node1&#45;&gt;Node3 -->
<g id="edge6" class="edge"><title>Node1&#45;&gt;Node3</title>
<path fill="none" stroke="#63b8ff" d="M24.0841,-644.664C27.577,-671.958 40.6974,-750.89 80,-801 153.354,-894.525 200.14,-921 319,-921 319,-921 319,-921 516,-921 695.966,-921 788.525,-656.728 813.171,-573.671"/>
<polygon fill="#63b8ff" stroke="#63b8ff" points="816.539,-574.623 815.962,-564.044 809.816,-572.674 816.539,-574.623"/>
</g>
<!-- Node5 -->
<g id="node5" class="node"><title>Node5</title>
<g id="a_node5"><a xlink:href="classore_1_1data_1_1_x_m_l_utils.html#a29cd524fd4d9381e10c71939131fa4d4" target="_top" xlink:title=" ">
<polygon fill="white" stroke="#666666" points="369.5,-30 270.5,-30 270.5,-0 369.5,-0 369.5,-30"/>
<text text-anchor="start" x="278.5" y="-18" font-family="Helvetica,sans-Serif" font-size="10.00">ore::data::XMLUtils</text>
<text text-anchor="middle" x="320" y="-7" font-family="Helvetica,sans-Serif" font-size="10.00">::addChildren</text>
</a>
</g>
</g>
<!-- Node1&#45;&gt;Node5 -->
<g id="edge4" class="edge"><title>Node1&#45;&gt;Node5</title>
<path fill="none" stroke="#63b8ff" d="M22.5917,-625.303C21.0309,-579.678 18.3206,-382.595 80,-239 123.585,-137.53 143.836,-107.767 234,-44 242.115,-38.2604 251.46,-33.5811 260.919,-29.7898"/>
<polygon fill="#63b8ff" stroke="#63b8ff" points="262.212,-33.0433 270.374,-26.2882 259.78,-26.479 262.212,-33.0433"/>
</g>
<!-- Node6 -->
<g id="node6" class="node"><title>Node6</title>
<g id="a_node6"><a xlink:href="classore_1_1data_1_1_x_m_l_utils.html#ae646b9cdf949a88f35c36c18bf90b370" target="_top" xlink:title=" ">
<polygon fill="white" stroke="#666666" points="564.5,-445 465.5,-445 465.5,-415 564.5,-415 564.5,-445"/>
<text text-anchor="start" x="473.5" y="-433" font-family="Helvetica,sans-Serif" font-size="10.00">ore::data::XMLUtils</text>
<text text-anchor="middle" x="515" y="-422" font-family="Helvetica,sans-Serif" font-size="10.00">::appendNode</text>
</a>
</g>
</g>
<!-- Node1&#45;&gt;Node6 -->
<g id="edge7" class="edge"><title>Node1&#45;&gt;Node6</title>
<path fill="none" stroke="#63b8ff" d="M32.9374,-625.195C61.4555,-597.676 147.099,-519.306 234,-482 272.973,-465.269 385.463,-447.609 455.43,-437.779"/>
<polygon fill="#63b8ff" stroke="#63b8ff" points="456.009,-441.232 465.431,-436.387 455.043,-434.299 456.009,-441.232"/>
</g>
<!-- Node7 -->
<g id="node7" class="node"><title>Node7</title>
<g id="a_node7"><a xlink:href="classore_1_1data_1_1_leg_data.html#a7efefb9270d6c4933e4c96de0771f17a" target="_top" xlink:title=" ">
<polygon fill="white" stroke="#666666" points="187.5,-278 90.5,-278 90.5,-248 187.5,-248 187.5,-278"/>
<text text-anchor="start" x="98.5" y="-266" font-family="Helvetica,sans-Serif" font-size="10.00">ore::data::LegData</text>
<text text-anchor="middle" x="139" y="-255" font-family="Helvetica,sans-Serif" font-size="10.00">::toXML</text>
</a>
</g>
</g>
<!-- Node1&#45;&gt;Node7 -->
<g id="edge8" class="edge"><title>Node1&#45;&gt;Node7</title>
<path fill="none" stroke="#63b8ff" d="M25.9583,-625.431C40.8026,-577.413 107.362,-362.107 130.245,-288.087"/>
<polygon fill="#63b8ff" stroke="#63b8ff" points="133.683,-288.816 133.292,-278.228 126.995,-286.748 133.683,-288.816"/>
</g>
<!-- Node14 -->
<g id="node14" class="node"><title>Node14</title>
<g id="a_node14"><a xlink:href="classore_1_1data_1_1_premium_data.html#a7efefb9270d6c4933e4c96de0771f17a" target="_top" xlink:title=" ">
<polygon fill="white" stroke="#666666" points="575,-979 455,-979 455,-949 575,-949 575,-979"/>
<text text-anchor="start" x="463" y="-967" font-family="Helvetica,sans-Serif" font-size="10.00">ore::data::PremiumData</text>
<text text-anchor="middle" x="515" y="-956" font-family="Helvetica,sans-Serif" font-size="10.00">::toXML</text>
</a>
</g>
</g>
<!-- Node1&#45;&gt;Node14 -->
<g id="edge23" class="edge"><title>Node1&#45;&gt;Node14</title>
<path fill="none" stroke="#63b8ff" d="M23.3173,-644.758C25.066,-691.883 35.1547,-895.279 80,-935 182.266,-1025.58 356.728,-1002.62 450.279,-981.359"/>
<polygon fill="#63b8ff" stroke="#63b8ff" points="451.233,-984.73 460.175,-979.047 449.641,-977.914 451.233,-984.73"/>
</g>
<!-- Node16 -->
<g id="node16" class="node"><title>Node16</title>
<g id="a_node16"><a xlink:href="classore_1_1data_1_1_trade.html#a7efefb9270d6c4933e4c96de0771f17a" target="_top" xlink:title=" ">
<polygon fill="white" stroke="#666666" points="198,-644.5 80,-644.5 80,-625.5 198,-625.5 198,-644.5"/>
<text text-anchor="middle" x="139" y="-632.5" font-family="Helvetica,sans-Serif" font-size="10.00">ore::data::Trade::toXML</text>
</a>
</g>
</g>
<!-- Node1&#45;&gt;Node16 -->
<g id="edge28" class="edge"><title>Node1&#45;&gt;Node16</title>
<path fill="none" stroke="#63b8ff" d="M44.0928,-635C51.5213,-635 60.3271,-635 69.5219,-635"/>
<polygon fill="#63b8ff" stroke="#63b8ff" points="69.6051,-638.5 79.6051,-635 69.6051,-631.5 69.6051,-638.5"/>
</g>
<!-- Node2&#45;&gt;Node3 -->
<g id="edge2" class="edge"><title>Node2&#45;&gt;Node3</title>
<path fill="none" stroke="#63b8ff" d="M700.512,-617.982C724.057,-604.39 758.927,-584.259 784.928,-569.248"/>
<polygon fill="#63b8ff" stroke="#63b8ff" points="786.812,-572.202 793.722,-564.171 783.312,-566.139 786.812,-572.202"/>
</g>
<!-- Node4 -->
<g id="node4" class="node"><title>Node4</title>
<g id="a_node4"><a xlink:href="classore_1_1data_1_1_x_m_l_document.html#ae3474059e483990f3afea260096e5c90" target="_top" xlink:title=" ">
<polygon fill="white" stroke="#666666" points="1043,-564 919,-564 919,-534 1043,-534 1043,-564"/>
<text text-anchor="start" x="927" y="-552" font-family="Helvetica,sans-Serif" font-size="10.00">ore::data::XMLDocument</text>
<text text-anchor="middle" x="981" y="-541" font-family="Helvetica,sans-Serif" font-size="10.00">::allocString</text>
</a>
</g>
</g>
<!-- Node3&#45;&gt;Node4 -->
<g id="edge3" class="edge"><title>Node3&#45;&gt;Node4</title>
<path fill="none" stroke="#63b8ff" d="M883.087,-549C891.513,-549 900.226,-549 908.815,-549"/>
<polygon fill="#63b8ff" stroke="#63b8ff" points="908.815,-552.5 918.815,-549 908.815,-545.5 908.815,-552.5"/>
</g>
<!-- Node5&#45;&gt;Node2 -->
<g id="edge5" class="edge"><title>Node5&#45;&gt;Node2</title>
<path fill="none" stroke="#63b8ff" d="M346.059,-30.2325C363.907,-41.7764 387.849,-58.729 406,-77 503.623,-175.268 528.026,-205.14 588,-330 634.676,-427.175 659.611,-554.648 668.581,-607.914"/>
<polygon fill="#63b8ff" stroke="#63b8ff" points="665.136,-608.532 670.21,-617.833 672.043,-607.398 665.136,-608.532"/>
</g>
<!-- Node7&#45;&gt;Node2 -->
<g id="edge9" class="edge"><title>Node7&#45;&gt;Node2</title>
<path fill="none" stroke="#63b8ff" d="M160.661,-278.095C179.076,-290.907 207.187,-308.925 234,-320 383.646,-381.812 466.959,-298.465 588,-406 648.39,-459.652 665.729,-560.604 670.622,-607.659"/>
<polygon fill="#63b8ff" stroke="#63b8ff" points="667.162,-608.252 671.574,-617.885 674.132,-607.603 667.162,-608.252"/>
</g>
<!-- Node7&#45;&gt;Node3 -->
<g id="edge13" class="edge"><title>Node7&#45;&gt;Node3</title>
<path fill="none" stroke="#63b8ff" d="M187.621,-276.075C202.416,-279.889 218.824,-283.869 234,-287 390.005,-319.182 437.115,-291.941 588,-343 652.611,-364.864 671.638,-371.116 723,-416 759.542,-447.933 790.284,-496.019 806.843,-524.78"/>
<polygon fill="#63b8ff" stroke="#63b8ff" points="803.939,-526.755 811.903,-533.742 810.034,-523.313 803.939,-526.755"/>
</g>
<!-- Node7&#45;&gt;Node5 -->
<g id="edge10" class="edge"><title>Node7&#45;&gt;Node5</title>
<path fill="none" stroke="#63b8ff" d="M146.928,-247.734C157.952,-223.36 180.07,-174.107 198,-132 214.555,-93.1208 203.244,-72.978 234,-44 241.568,-36.8695 250.961,-31.4861 260.715,-27.4234"/>
<polygon fill="#63b8ff" stroke="#63b8ff" points="261.979,-30.6877 270.129,-23.9189 259.537,-24.1275 261.979,-30.6877"/>
</g>
<!-- Node7&#45;&gt;Node6 -->
<g id="edge14" class="edge"><title>Node7&#45;&gt;Node6</title>
<path fill="none" stroke="#63b8ff" d="M144.464,-278.077C154.576,-309.234 182.455,-380.358 234,-411 301.601,-451.187 395.269,-448.251 455.258,-440.594"/>
<polygon fill="#63b8ff" stroke="#63b8ff" points="455.883,-444.042 465.32,-439.225 454.939,-437.105 455.883,-444.042"/>
</g>
<!-- Node8 -->
<g id="node8" class="node"><title>Node8</title>
<g id="a_node8"><a xlink:href="classore_1_1data_1_1_x_m_l_utils.html#a60e5b2e453d4610d7ce2ff455d564404" target="_top" xlink:title=" ">
<polygon fill="white" stroke="#666666" points="406,-212 234,-212 234,-182 406,-182 406,-212"/>
<text text-anchor="start" x="242" y="-200" font-family="Helvetica,sans-Serif" font-size="10.00">ore::data::XMLUtils</text>
<text text-anchor="middle" x="320" y="-189" font-family="Helvetica,sans-Serif" font-size="10.00">::addChildrenWithOptionalAttributes</text>
</a>
</g>
</g>
<!-- Node7&#45;&gt;Node8 -->
<g id="edge11" class="edge"><title>Node7&#45;&gt;Node8</title>
<path fill="none" stroke="#63b8ff" d="M181.066,-247.858C207.103,-238.258 240.967,-225.772 268.624,-215.574"/>
<polygon fill="#63b8ff" stroke="#63b8ff" points="269.953,-218.815 278.125,-212.071 267.531,-212.247 269.953,-218.815"/>
</g>
<!-- Node9 -->
<g id="node9" class="node"><title>Node9</title>
<g id="a_node9"><a xlink:href="classore_1_1data_1_1_x_m_l_utils.html#a5f2b91a4af900e85c356cfe807e64501" target="_top" xlink:title=" ">
<polygon fill="white" stroke="#666666" points="369.5,-164 270.5,-164 270.5,-134 369.5,-134 369.5,-164"/>
<text text-anchor="start" x="278.5" y="-152" font-family="Helvetica,sans-Serif" font-size="10.00">ore::data::XMLUtils</text>
<text text-anchor="middle" x="320" y="-141" font-family="Helvetica,sans-Serif" font-size="10.00">::getChildNode</text>
</a>
</g>
</g>
<!-- Node7&#45;&gt;Node9 -->
<g id="edge15" class="edge"><title>Node7&#45;&gt;Node9</title>
<path fill="none" stroke="#63b8ff" d="M151.689,-247.909C167.995,-227.876 199.48,-192.738 234,-173 242.2,-168.311 251.376,-164.489 260.582,-161.389"/>
<polygon fill="#63b8ff" stroke="#63b8ff" points="261.639,-164.725 270.148,-158.412 259.56,-158.041 261.639,-164.725"/>
</g>
<!-- Node10 -->
<g id="node10" class="node"><title>Node10</title>
<g id="a_node10"><a xlink:href="classore_1_1data_1_1_schedule_data.html#a314b19ebe3b2ce78e9df49fee95c21dd" target="_top" xlink:title="Check if has any dates/rules/derived schedules.">
<polygon fill="white" stroke="#666666" points="381,-116 259,-116 259,-86 381,-86 381,-116"/>
<text text-anchor="start" x="267" y="-104" font-family="Helvetica,sans-Serif" font-size="10.00">ore::data::ScheduleData</text>
<text text-anchor="middle" x="320" y="-93" font-family="Helvetica,sans-Serif" font-size="10.00">::hasData</text>
</a>
</g>
</g>
<!-- Node7&#45;&gt;Node10 -->
<g id="edge16" class="edge"><title>Node7&#45;&gt;Node10</title>
<path fill="none" stroke="#63b8ff" d="M146.027,-247.98C158.226,-219.525 188.596,-157.69 234,-125 238.783,-121.556 244.046,-118.605 249.537,-116.077"/>
<polygon fill="#63b8ff" stroke="#63b8ff" points="251.03,-119.248 258.949,-112.21 248.369,-112.774 251.03,-119.248"/>
</g>
<!-- Node11 -->
<g id="node11" class="node"><title>Node11</title>
<g id="a_node11"><a xlink:href="classore_1_1data_1_1_leg_data.html#a81b9d9c795e1f72812f0da9b14382f4a" target="_top" xlink:title=" ">
<polygon fill="white" stroke="#666666" points="368.5,-278 271.5,-278 271.5,-248 368.5,-248 368.5,-278"/>
<text text-anchor="start" x="279.5" y="-266" font-family="Helvetica,sans-Serif" font-size="10.00">ore::data::LegData</text>
<text text-anchor="middle" x="320" y="-255" font-family="Helvetica,sans-Serif" font-size="10.00">::legType</text>
</a>
</g>
</g>
<!-- Node7&#45;&gt;Node11 -->
<g id="edge17" class="edge"><title>Node7&#45;&gt;Node11</title>
<path fill="none" stroke="#63b8ff" d="M187.969,-263C210.431,-263 237.377,-263 260.978,-263"/>
<polygon fill="#63b8ff" stroke="#63b8ff" points="261.21,-266.5 271.21,-263 261.209,-259.5 261.21,-266.5"/>
</g>
<!-- Node12 -->
<g id="node12" class="node"><title>Node12</title>
<g id="a_node12"><a xlink:href="classore_1_1data_1_1_x_m_l_utils.html#ac1ace6a9e07990c65081057f2ecdf164" target="_top" xlink:title=" ">
<polygon fill="white" stroke="#666666" points="870.5,-295 771.5,-295 771.5,-265 870.5,-265 870.5,-295"/>
<text text-anchor="start" x="779.5" y="-283" font-family="Helvetica,sans-Serif" font-size="10.00">ore::data::XMLUtils</text>
<text text-anchor="middle" x="821" y="-272" font-family="Helvetica,sans-Serif" font-size="10.00">::setNodeName</text>
</a>
</g>
</g>
<!-- Node7&#45;&gt;Node12 -->
<g id="edge18" class="edge"><title>Node7&#45;&gt;Node12</title>
<path fill="none" stroke="#63b8ff" d="M150.782,-247.724C163.196,-229.711 183.708,-198.595 198,-170 217.815,-130.354 197.438,-102.053 234,-77 297.061,-33.7901 331.533,-59.7254 406,-77 560.54,-112.849 723.914,-214.849 789.832,-259.097"/>
<polygon fill="#63b8ff" stroke="#63b8ff" points="788.231,-262.24 798.475,-264.944 792.153,-256.442 788.231,-262.24"/>
</g>
<!-- Node13 -->
<g id="node13" class="node"><title>Node13</title>
<g id="a_node13"><a xlink:href="classore_1_1data_1_1_schedule_data.html#a7efefb9270d6c4933e4c96de0771f17a" target="_top" xlink:title=" ">
<polygon fill="white" stroke="#666666" points="381,-402 259,-402 259,-372 381,-372 381,-402"/>
<text text-anchor="start" x="267" y="-390" font-family="Helvetica,sans-Serif" font-size="10.00">ore::data::ScheduleData</text>
<text text-anchor="middle" x="320" y="-379" font-family="Helvetica,sans-Serif" font-size="10.00">::toXML</text>
</a>
</g>
</g>
<!-- Node7&#45;&gt;Node13 -->
<g id="edge20" class="edge"><title>Node7&#45;&gt;Node13</title>
<path fill="none" stroke="#63b8ff" d="M151.388,-278.327C167.585,-299.128 199.199,-336.194 234,-358 240.086,-361.813 246.734,-365.194 253.544,-368.173"/>
<polygon fill="#63b8ff" stroke="#63b8ff" points="252.313,-371.45 262.895,-371.99 254.959,-364.97 252.313,-371.45"/>
</g>
<!-- Node8&#45;&gt;Node8 -->
<g id="edge12" class="edge"><title>Node8&#45;&gt;Node8</title>
<path fill="none" stroke="#63b8ff" d="M288.359,-212.275C281.328,-221.406 291.875,-230 320,-230 336.699,-230 347.201,-226.97 351.507,-222.598"/>
<polygon fill="#63b8ff" stroke="#63b8ff" points="355.011,-222.32 351.641,-212.275 348.011,-222.229 355.011,-222.32"/>
</g>
<!-- Node12&#45;&gt;Node4 -->
<g id="edge19" class="edge"><title>Node12&#45;&gt;Node4</title>
<path fill="none" stroke="#63b8ff" d="M830.947,-295.233C857.182,-339.899 934.061,-470.787 965.92,-525.028"/>
<polygon fill="#63b8ff" stroke="#63b8ff" points="963.068,-527.084 971.151,-533.934 969.104,-523.538 963.068,-527.084"/>
</g>
<!-- Node13&#45;&gt;Node3 -->
<g id="edge21" class="edge"><title>Node13&#45;&gt;Node3</title>
<path fill="none" stroke="#63b8ff" d="M381.23,-384.693C436.085,-384.131 518.836,-387.166 588,-406 672.352,-428.97 755.797,-493.276 795.703,-527.283"/>
<polygon fill="#63b8ff" stroke="#63b8ff" points="793.46,-529.971 803.317,-533.857 798.035,-524.673 793.46,-529.971"/>
</g>
<!-- Node13&#45;&gt;Node6 -->
<g id="edge22" class="edge"><title>Node13&#45;&gt;Node6</title>
<path fill="none" stroke="#63b8ff" d="M381.008,-400.37C404.73,-405.655 431.902,-411.709 455.476,-416.961"/>
<polygon fill="#63b8ff" stroke="#63b8ff" points="454.817,-420.4 465.339,-419.158 456.339,-413.567 454.817,-420.4"/>
</g>
<!-- Node14&#45;&gt;Node2 -->
<g id="edge24" class="edge"><title>Node14&#45;&gt;Node2</title>
<path fill="none" stroke="#63b8ff" d="M537.387,-948.924C553.395,-936.622 574.732,-917.903 588,-897 637.99,-818.242 660.723,-707.393 668.815,-658.206"/>
<polygon fill="#63b8ff" stroke="#63b8ff" points="672.301,-658.568 670.406,-648.144 665.387,-657.475 672.301,-658.568"/>
</g>
<!-- Node14&#45;&gt;Node3 -->
<g id="edge25" class="edge"><title>Node14&#45;&gt;Node3</title>
<path fill="none" stroke="#63b8ff" d="M575.042,-972.093C620.954,-974.919 683.317,-970.649 723,-935 777.627,-885.927 808.41,-652.258 817.286,-574.346"/>
<polygon fill="#63b8ff" stroke="#63b8ff" points="820.808,-574.348 818.437,-564.022 813.851,-573.573 820.808,-574.348"/>
</g>
<!-- Node15 -->
<g id="node15" class="node"><title>Node15</title>
<g id="a_node15"><a xlink:href="namespaceore_1_1data.html#a86651dfeb5c18ee891f7a4734d8cf455" target="_top" xlink:title=" ">
<polygon fill="white" stroke="#666666" points="722.5,-1006.5 624.5,-1006.5 624.5,-987.5 722.5,-987.5 722.5,-1006.5"/>
<text text-anchor="middle" x="673.5" y="-994.5" font-family="Helvetica,sans-Serif" font-size="10.00">ore::data::to_string</text>
</a>
</g>
</g>
<!-- Node14&#45;&gt;Node15 -->
<g id="edge26" class="edge"><title>Node14&#45;&gt;Node15</title>
<path fill="none" stroke="#63b8ff" d="M575.166,-976.476C589.096,-979.413 603.886,-982.532 617.619,-985.428"/>
<polygon fill="#63b8ff" stroke="#63b8ff" points="616.897,-988.852 627.404,-987.491 618.342,-982.003 616.897,-988.852"/>
</g>
<!-- Node15&#45;&gt;Node15 -->
<g id="edge27" class="edge"><title>Node15&#45;&gt;Node15</title>
<path fill="none" stroke="#63b8ff" d="M650.997,-1006.58C640.05,-1015.23 647.551,-1024.5 673.5,-1024.5 690.124,-1024.5 699.176,-1020.7 700.658,-1015.69"/>
<polygon fill="#63b8ff" stroke="#63b8ff" points="703.671,-1013.89 696.003,-1006.58 697.438,-1017.08 703.671,-1013.89"/>
</g>
<!-- Node16&#45;&gt;Node2 -->
<g id="edge32" class="edge"><title>Node16&#45;&gt;Node2</title>
<path fill="none" stroke="#63b8ff" d="M152.835,-644.571C207.945,-684.416 428.922,-831.338 588,-750 625.717,-730.715 650.471,-685.873 662.933,-657.641"/>
<polygon fill="#63b8ff" stroke="#63b8ff" points="666.163,-658.991 666.83,-648.417 659.714,-656.267 666.163,-658.991"/>
</g>
<!-- Node16&#45;&gt;Node3 -->
<g id="edge33" class="edge"><title>Node16&#45;&gt;Node3</title>
<path fill="none" stroke="#63b8ff" d="M176.088,-625.493C193.548,-620.969 214.829,-615.564 234,-611 310.16,-592.87 339.079,-613.626 406,-573 427.306,-560.066 419.504,-540.732 442,-530 515.017,-495.167 543.103,-527.667 624,-527 667.999,-526.637 679.273,-522.103 723,-527 732.91,-528.11 743.286,-529.838 753.412,-531.85"/>
<polygon fill="#63b8ff" stroke="#63b8ff" points="752.924,-535.324 763.428,-533.944 754.356,-528.472 752.924,-535.324"/>
</g>
<!-- Node16&#45;&gt;Node6 -->
<g id="edge34" class="edge"><title>Node16&#45;&gt;Node6</title>
<path fill="none" stroke="#63b8ff" d="M145.394,-625.308C157.938,-603.708 191.283,-551.445 234,-525 300.998,-483.524 333.632,-513.174 406,-482 423.438,-474.488 425.121,-467.695 442,-459 448.671,-455.563 455.847,-452.249 462.992,-449.168"/>
<polygon fill="#63b8ff" stroke="#63b8ff" points="464.793,-452.208 472.666,-445.119 462.09,-445.751 464.793,-452.208"/>
</g>
<!-- Node17 -->
<g id="node17" class="node"><title>Node17</title>
<g id="a_node17"><a xlink:href="classore_1_1data_1_1_x_m_l_utils.html#a226c81c31def2ba2c853ca803d1fafc5" target="_top" xlink:title=" ">
<polygon fill="white" stroke="#666666" points="369.5,-855 270.5,-855 270.5,-825 369.5,-825 369.5,-855"/>
<text text-anchor="start" x="278.5" y="-843" font-family="Helvetica,sans-Serif" font-size="10.00">ore::data::XMLUtils</text>
<text text-anchor="middle" x="320" y="-832" font-family="Helvetica,sans-Serif" font-size="10.00">::addAttribute</text>
</a>
</g>
</g>
<!-- Node16&#45;&gt;Node17 -->
<g id="edge29" class="edge"><title>Node16&#45;&gt;Node17</title>
<path fill="none" stroke="#63b8ff" d="M142.116,-644.573C149.281,-674.698 175.521,-768.372 234,-816 241.758,-822.318 251.083,-826.975 260.673,-830.407"/>
<polygon fill="#63b8ff" stroke="#63b8ff" points="259.712,-833.774 270.302,-833.446 261.819,-827.098 259.712,-833.774"/>
</g>
<!-- Node19 -->
<g id="node19" class="node"><title>Node19</title>
<g id="a_node19"><a xlink:href="classore_1_1data_1_1_trade_actions.html#a644718bb2fb240de962dc3c9a1fdf0dc" target="_top" xlink:title="Returns true of this set of actions is empty.">
<polygon fill="white" stroke="#666666" points="379,-807 261,-807 261,-777 379,-777 379,-807"/>
<text text-anchor="start" x="269" y="-795" font-family="Helvetica,sans-Serif" font-size="10.00">ore::data::TradeActions</text>
<text text-anchor="middle" x="320" y="-784" font-family="Helvetica,sans-Serif" font-size="10.00">::empty</text>
</a>
</g>
</g>
<!-- Node16&#45;&gt;Node19 -->
<g id="edge35" class="edge"><title>Node16&#45;&gt;Node19</title>
<path fill="none" stroke="#63b8ff" d="M144.447,-644.579C155.888,-668.2 188.655,-729.724 234,-763 239.405,-766.967 245.393,-770.419 251.615,-773.418"/>
<polygon fill="#63b8ff" stroke="#63b8ff" points="250.295,-776.661 260.857,-777.494 253.12,-770.256 250.295,-776.661"/>
</g>
<!-- Node20 -->
<g id="node20" class="node"><title>Node20</title>
<g id="a_node20"><a xlink:href="classore_1_1data_1_1_envelope.html#a7efefb9270d6c4933e4c96de0771f17a" target="_top" xlink:title=" ">
<polygon fill="white" stroke="#666666" points="370,-650 270,-650 270,-620 370,-620 370,-650"/>
<text text-anchor="start" x="278" y="-638" font-family="Helvetica,sans-Serif" font-size="10.00">ore::data::Envelope</text>
<text text-anchor="middle" x="320" y="-627" font-family="Helvetica,sans-Serif" font-size="10.00">::toXML</text>
</a>
</g>
</g>
<!-- Node16&#45;&gt;Node20 -->
<g id="edge36" class="edge"><title>Node16&#45;&gt;Node20</title>
<path fill="none" stroke="#63b8ff" d="M198.116,-635C217.849,-635 239.913,-635 259.735,-635"/>
<polygon fill="#63b8ff" stroke="#63b8ff" points="259.872,-638.5 269.872,-635 259.872,-631.5 259.872,-638.5"/>
</g>
<!-- Node24 -->
<g id="node24" class="node"><title>Node24</title>
<g id="a_node24"><a xlink:href="classore_1_1data_1_1_trade_actions.html#a7efefb9270d6c4933e4c96de0771f17a" target="_top" xlink:title=" ">
<polygon fill="white" stroke="#666666" points="379,-564 261,-564 261,-534 379,-534 379,-564"/>
<text text-anchor="start" x="269" y="-552" font-family="Helvetica,sans-Serif" font-size="10.00">ore::data::TradeActions</text>
<text text-anchor="middle" x="320" y="-541" font-family="Helvetica,sans-Serif" font-size="10.00">::toXML</text>
</a>
</g>
</g>
<!-- Node16&#45;&gt;Node24 -->
<g id="edge45" class="edge"><title>Node16&#45;&gt;Node24</title>
<path fill="none" stroke="#63b8ff" d="M153.802,-625.316C171.674,-613.091 204.084,-591.972 234,-578 242.006,-574.261 250.633,-570.756 259.214,-567.565"/>
<polygon fill="#63b8ff" stroke="#63b8ff" points="260.621,-570.778 268.846,-564.099 258.252,-564.191 260.621,-570.778"/>
</g>
<!-- Node17&#45;&gt;Node4 -->
<g id="edge30" class="edge"><title>Node17&#45;&gt;Node4</title>
<path fill="none" stroke="#63b8ff" d="M369.807,-845.131C424.554,-849.112 515.21,-850.323 588,-825 748.67,-769.105 902.655,-626.534 958.216,-571.317"/>
<polygon fill="#63b8ff" stroke="#63b8ff" points="960.807,-573.675 965.393,-564.123 955.852,-568.731 960.807,-573.675"/>
</g>
<!-- Node18 -->
<g id="node18" class="node"><title>Node18</title>
<g id="a_node18"><a xlink:href="classore_1_1data_1_1_x_m_l_document.html#a46d969cdb00bff64f3f4c0d2975a08d3" target="_top" xlink:title=" ">
<polygon fill="white" stroke="#666666" points="588,-816.5 442,-816.5 442,-797.5 588,-797.5 588,-816.5"/>
<text text-anchor="middle" x="515" y="-804.5" font-family="Helvetica,sans-Serif" font-size="10.00">ore::data::XMLDocument::doc</text>
</a>
</g>
</g>
<!-- Node17&#45;&gt;Node18 -->
<g id="edge31" class="edge"><title>Node17&#45;&gt;Node18</title>
<path fill="none" stroke="#63b8ff" d="M369.702,-831.673C393.461,-827.61 422.39,-822.664 448.091,-818.269"/>
<polygon fill="#63b8ff" stroke="#63b8ff" points="448.869,-821.687 458.136,-816.552 447.689,-814.787 448.869,-821.687"/>
</g>
<!-- Node20&#45;&gt;Node2 -->
<g id="edge37" class="edge"><title>Node20&#45;&gt;Node2</title>
<path fill="none" stroke="#63b8ff" d="M370.245,-634.72C434.133,-634.356 545.469,-633.723 613.714,-633.334"/>
<polygon fill="#63b8ff" stroke="#63b8ff" points="613.891,-636.834 623.871,-633.277 613.851,-629.834 613.891,-636.834"/>
</g>
<!-- Node20&#45;&gt;Node3 -->
<g id="edge38" class="edge"><title>Node20&#45;&gt;Node3</title>
<path fill="none" stroke="#63b8ff" d="M370.067,-622.745C382.345,-618.496 395.109,-612.99 406,-606 425.579,-593.434 420.866,-577.726 442,-568 540.684,-522.584 669.558,-527.904 748.47,-537.37"/>
<polygon fill="#63b8ff" stroke="#63b8ff" points="748.432,-540.892 758.79,-538.666 749.304,-533.947 748.432,-540.892"/>
</g>
<!-- Node20&#45;&gt;Node6 -->
<g id="edge39" class="edge"><title>Node20&#45;&gt;Node6</title>
<path fill="none" stroke="#63b8ff" d="M345.554,-619.885C363.378,-608.274 387.508,-591.187 406,-573 444.194,-535.437 479.868,-483.711 499.133,-453.868"/>
<polygon fill="#63b8ff" stroke="#63b8ff" points="502.141,-455.661 504.57,-445.349 496.24,-451.896 502.141,-455.661"/>
</g>
<!-- Node21 -->
<g id="node21" class="node"><title>Node21</title>
<g id="a_node21"><a xlink:href="classore_1_1data_1_1_netting_set_details.html#ab87072d461177abcb48735d002150bfb" target="_top" xlink:title=" ">
<polygon fill="white" stroke="#666666" points="583.5,-693 446.5,-693 446.5,-663 583.5,-663 583.5,-693"/>
<text text-anchor="start" x="454.5" y="-681" font-family="Helvetica,sans-Serif" font-size="10.00">ore::data::NettingSetDetails</text>
<text text-anchor="middle" x="515" y="-670" font-family="Helvetica,sans-Serif" font-size="10.00">::emptyOptionalFields</text>
</a>
</g>
</g>
<!-- Node20&#45;&gt;Node21 -->
<g id="edge40" class="edge"><title>Node20&#45;&gt;Node21</title>
<path fill="none" stroke="#63b8ff" d="M370.201,-645.962C390.339,-650.449 414.129,-655.749 436.499,-660.733"/>
<polygon fill="#63b8ff" stroke="#63b8ff" points="435.799,-664.163 446.321,-662.921 437.322,-657.33 435.799,-664.163"/>
</g>
<!-- Node22 -->
<g id="node22" class="node"><title>Node22</title>
<g id="a_node22"><a xlink:href="classore_1_1data_1_1_netting_set_details.html#a9bf8e40febad0782c5855488041ecfd7" target="_top" xlink:title=" ">
<polygon fill="white" stroke="#666666" points="583.5,-741 446.5,-741 446.5,-711 583.5,-711 583.5,-741"/>
<text text-anchor="start" x="454.5" y="-729" font-family="Helvetica,sans-Serif" font-size="10.00">ore::data::NettingSetDetails</text>
<text text-anchor="middle" x="515" y="-718" font-family="Helvetica,sans-Serif" font-size="10.00">::nettingSetId</text>
</a>
</g>
</g>
<!-- Node20&#45;&gt;Node22 -->
<g id="edge41" class="edge"><title>Node20&#45;&gt;Node22</title>
<path fill="none" stroke="#63b8ff" d="M345.348,-650.233C369.312,-664.801 407.261,-686.748 442,-702 446.298,-703.887 450.794,-705.714 455.35,-707.46"/>
<polygon fill="#63b8ff" stroke="#63b8ff" points="454.148,-710.747 464.741,-710.926 456.571,-704.18 454.148,-710.747"/>
</g>
<!-- Node23 -->
<g id="node23" class="node"><title>Node23</title>
<g id="a_node23"><a xlink:href="classore_1_1data_1_1_netting_set_details.html#a7efefb9270d6c4933e4c96de0771f17a" target="_top" xlink:title=" ">
<polygon fill="white" stroke="#666666" points="583.5,-607 446.5,-607 446.5,-577 583.5,-577 583.5,-607"/>
<text text-anchor="start" x="454.5" y="-595" font-family="Helvetica,sans-Serif" font-size="10.00">ore::data::NettingSetDetails</text>
<text text-anchor="middle" x="515" y="-584" font-family="Helvetica,sans-Serif" font-size="10.00">::toXML</text>
</a>
</g>
</g>
<!-- Node20&#45;&gt;Node23 -->
<g id="edge42" class="edge"><title>Node20&#45;&gt;Node23</title>
<path fill="none" stroke="#63b8ff" d="M370.201,-624.038C390.339,-619.551 414.129,-614.251 436.499,-609.267"/>
<polygon fill="#63b8ff" stroke="#63b8ff" points="437.322,-612.67 446.321,-607.079 435.799,-605.837 437.322,-612.67"/>
</g>
<!-- Node23&#45;&gt;Node2 -->
<g id="edge43" class="edge"><title>Node23&#45;&gt;Node2</title>
<path fill="none" stroke="#63b8ff" d="M573.386,-607.034C586.594,-610.494 600.658,-614.179 613.916,-617.652"/>
<polygon fill="#63b8ff" stroke="#63b8ff" points="613.31,-621.111 623.87,-620.26 615.084,-614.34 613.31,-621.111"/>
</g>
<!-- Node23&#45;&gt;Node3 -->
<g id="edge44" class="edge"><title>Node23&#45;&gt;Node3</title>
<path fill="none" stroke="#63b8ff" d="M583.6,-582.602C624.05,-576.96 676.475,-569.617 723,-563 731.354,-561.812 740.112,-560.559 748.803,-559.31"/>
<polygon fill="#63b8ff" stroke="#63b8ff" points="749.548,-562.739 758.948,-557.851 748.551,-555.811 749.548,-562.739"/>
</g>
<!-- Node24&#45;&gt;Node3 -->
<g id="edge46" class="edge"><title>Node24&#45;&gt;Node3</title>
<path fill="none" stroke="#63b8ff" d="M367.048,-533.9C379.85,-529.247 393.629,-523.807 406,-518 422.768,-510.129 424.119,-501.834 442,-497 562.561,-464.407 601.872,-466.58 723,-497 747.367,-503.119 772.292,-516.67 790.774,-528.404"/>
<polygon fill="#63b8ff" stroke="#63b8ff" points="789.013,-531.435 799.298,-533.978 792.844,-525.576 789.013,-531.435"/>
</g>
<!-- Node24&#45;&gt;Node6 -->
<g id="edge47" class="edge"><title>Node24&#45;&gt;Node6</title>
<path fill="none" stroke="#63b8ff" d="M379.217,-535.344C388.791,-531.417 398.14,-526.398 406,-520 430.414,-500.127 418.132,-479.526 442,-459 446.278,-455.321 451.084,-452.069 456.129,-449.203"/>
<polygon fill="#63b8ff" stroke="#63b8ff" points="458.101,-452.126 465.407,-444.454 454.911,-445.895 458.101,-452.126"/>
</g>
</g>
</svg>
        <g id="navigator" transform="translate(0 0)" fill="#404254">
                <rect fill="#f2f5e9" fill-opacity="0.5" stroke="#606060" stroke-width=".5" x="0" y="0" width="60" height="60"/>
                <use id="zoomplus" xlink:href="#zoomPlus" x="17" y="9" onmousedown="handleZoom(evt,'in')"/>
                <use id="zoomminus" xlink:href="#zoomMin" x="42" y="9" onmousedown="handleZoom(evt,'out')"/>
                <use id="reset" xlink:href="#resetDef" x="30" y="36" onmousedown="handleReset()"/>
                <g id="arrowUp" xlink:href="#dirArrow" transform="translate(30 24)" onmousedown="handlePan(0,-1)">
                  <use xlink:href="#rim" fill="#404040">
                        <set attributeName="fill" to="#808080" begin="arrowUp.mouseover" end="arrowUp.mouseout"/>
                  </use>
                  <path fill="none" stroke="white" stroke-width="1.5" d="M0,-3.0v7 M-2.5,-0.5L0,-3.0L2.5,-0.5"/>
                </g>
                <g id="arrowRight" xlink:href="#dirArrow" transform="rotate(90) translate(36 -43)" onmousedown="handlePan(1,0)">
                  <use xlink:href="#rim" fill="#404040">
                        <set attributeName="fill" to="#808080" begin="arrowRight.mouseover" end="arrowRight.mouseout"/>
                  </use>
                  <path fill="none" stroke="white" stroke-width="1.5" d="M0,-3.0v7 M-2.5,-0.5L0,-3.0L2.5,-0.5"/>
                </g>
                <g id="arrowDown" xlink:href="#dirArrow" transform="rotate(180) translate(-30 -48)" onmousedown="handlePan(0,1)">
                  <use xlink:href="#rim" fill="#404040">
                        <set attributeName="fill" to="#808080" begin="arrowDown.mouseover" end="arrowDown.mouseout"/>
                  </use>
                  <path fill="none" stroke="white" stroke-width="1.5" d="M0,-3.0v7 M-2.5,-0.5L0,-3.0L2.5,-0.5"/>
                </g>
                <g id="arrowLeft" xlink:href="#dirArrow" transform="rotate(270) translate(-36 17)" onmousedown="handlePan(-1,0)">
                  <use xlink:href="#rim" fill="#404040">
                        <set attributeName="fill" to="#808080" begin="arrowLeft.mouseover" end="arrowLeft.mouseout"/>
                  </use>
                  <path fill="none" stroke="white" stroke-width="1.5" d="M0,-3.0v7 M-2.5,-0.5L0,-3.0L2.5,-0.5"/>
                </g>
        </g>
        <svg viewBox="0 0 15 15" width="100%" height="30px" preserveAspectRatio="xMaxYMin meet">
         <g id="arrow_out" transform="scale(0.3 0.3)">
          <a xlink:href="classore_1_1data_1_1_cap_floor_a7efefb9270d6c4933e4c96de0771f17a_cgraph_org.svg" target="_base">
           <rect id="button" ry="5" rx="5" y="6" x="6" height="38" width="38"
                fill="#f2f5e9" fill-opacity="0.5" stroke="#606060" stroke-width="1.0"/>
           <path id="arrow"
             d="M 11.500037,31.436501 C 11.940474,20.09759 22.043105,11.32322 32.158766,21.979434 L 37.068811,17.246167 C 37.068811,17.246167 37.088388,32 37.088388,32 L 22.160133,31.978069 C 22.160133,31.978069 26.997745,27.140456 26.997745,27.140456 C 18.528582,18.264221 13.291696,25.230495 11.500037,31.436501 z"
             style="fill:#404040;"/>
          </a>
         </g>
        </svg>
</svg>
