<?xml version="1.0" encoding="UTF-8" standalone="no"?>
<!DOCTYPE svg PUBLIC "-//W3C//DTD SVG 1.1//EN"
 "http://www.w3.org/Graphics/SVG/1.1/DTD/svg11.dtd">
<!-- Generated by graphviz version 2.38.0 (20140413.2041)
 -->
<!-- Title: addSwapIndex Pages: 1 -->
<svg width="730pt" height="116pt"
 viewBox="0.00 0.00 730.00 116.00" xmlns="http://www.w3.org/2000/svg" xmlns:xlink="http://www.w3.org/1999/xlink">
<g id="graph0" class="graph" transform="scale(1 1) rotate(0) translate(4 112)">
<title>addSwapIndex</title>
<!-- Node1 -->
<g id="node1" class="node"><title>Node1</title>
<g id="a_node1"><a xlink:title="add a swap index to the market">
<polygon fill="#999999" stroke="#666666" points="722,-78.5 642,-78.5 642,-59.5 722,-59.5 722,-78.5"/>
<text text-anchor="middle" x="682" y="-66.5" font-family="Helvetica,sans-Serif" font-size="10.00">addSwapIndex</text>
</a>
</g>
</g>
<!-- Node2 -->
<g id="node2" class="node"><title>Node2</title>
<g id="a_node2"><a xlink:href="class_ored_test_market.html#ab19dad4599472bbfab0270154f542504" target="_top" xlink:title=" ">
<polygon fill="white" stroke="#666666" points="606,-108 474,-108 474,-78 606,-78 606,-108"/>
<text text-anchor="start" x="482" y="-96" font-family="Helvetica,sans-Serif" font-size="10.00">OredTestMarket::OredTest</text>
<text text-anchor="middle" x="540" y="-85" font-family="Helvetica,sans-Serif" font-size="10.00">Market</text>
</a>
</g>
</g>
<!-- Node1&#45;&gt;Node2 -->
<g id="edge1" class="edge"><title>Node1&#45;&gt;Node2</title>
<path fill="none" stroke="#63b8ff" d="M631.737,-77.4451C623.423,-78.8703 614.681,-80.369 606.039,-81.8504"/>
<polygon fill="#63b8ff" stroke="#63b8ff" points="632.365,-80.8886 641.63,-75.7492 631.182,-73.9892 632.365,-80.8886"/>
</g>
<!-- Node3 -->
<g id="node3" class="node"><title>Node3</title>
<g id="a_node3"><a xlink:href="classore_1_1data_1_1_todays_market.html#ae947670c7306fd552e37a0f140984721" target="_top" xlink:title=" ">
<polygon fill="white" stroke="#666666" points="601,-60 479,-60 479,-30 601,-30 601,-60"/>
<text text-anchor="start" x="487" y="-48" font-family="Helvetica,sans-Serif" font-size="10.00">ore::data::TodaysMarket</text>
<text text-anchor="middle" x="540" y="-37" font-family="Helvetica,sans-Serif" font-size="10.00">::buildNode</text>
</a>
</g>
</g>
<!-- Node1&#45;&gt;Node3 -->
<g id="edge2" class="edge"><title>Node1&#45;&gt;Node3</title>
<path fill="none" stroke="#63b8ff" d="M631.645,-60.5392C621.822,-58.8552 611.403,-57.0691 601.262,-55.3306"/>
<polygon fill="#63b8ff" stroke="#63b8ff" points="631.182,-64.0108 641.63,-62.2508 632.365,-57.1114 631.182,-64.0108"/>
</g>
<!-- Node4 -->
<g id="node4" class="node"><title>Node4</title>
<g id="a_node4"><a xlink:href="classore_1_1data_1_1_todays_market.html#a0816e5ec53019bee5353fea5fc006eb1" target="_top" xlink:title=" ">
<polygon fill="white" stroke="#666666" points="280,-60 158,-60 158,-30 280,-30 280,-60"/>
<text text-anchor="start" x="166" y="-48" font-family="Helvetica,sans-Serif" font-size="10.00">ore::data::TodaysMarket</text>
<text text-anchor="middle" x="219" y="-37" font-family="Helvetica,sans-Serif" font-size="10.00">::initialise</text>
</a>
</g>
</g>
<!-- Node3&#45;&gt;Node4 -->
<g id="edge3" class="edge"><title>Node3&#45;&gt;Node4</title>
<path fill="none" stroke="#63b8ff" d="M468.596,-54.4445C458.35,-55.5047 447.915,-56.413 438,-57 383.873,-60.2042 370.117,-60.3692 316,-57 304.349,-56.2746 291.949,-55.0587 280.064,-53.672"/>
<polygon fill="#63b8ff" stroke="#63b8ff" points="469.191,-57.9005 478.754,-53.3399 468.434,-50.9415 469.191,-57.9005"/>
</g>
<!-- Node6 -->
<g id="node6" class="node"><title>Node6</title>
<g id="a_node6"><a xlink:href="classore_1_1data_1_1_todays_market.html#a36416143258c4e4c30bb46935cef9408" target="_top" xlink:title=" ">
<polygon fill="white" stroke="#666666" points="438,-30 316,-30 316,-0 438,-0 438,-30"/>
<text text-anchor="start" x="324" y="-18" font-family="Helvetica,sans-Serif" font-size="10.00">ore::data::TodaysMarket</text>
<text text-anchor="middle" x="377" y="-7" font-family="Helvetica,sans-Serif" font-size="10.00">::require</text>
</a>
</g>
</g>
<!-- Node3&#45;&gt;Node6 -->
<g id="edge5" class="edge"><title>Node3&#45;&gt;Node6</title>
<path fill="none" stroke="#63b8ff" d="M468.567,-31.8758C458.446,-29.99 448.11,-28.064 438.212,-26.2196"/>
<polygon fill="#63b8ff" stroke="#63b8ff" points="468.12,-35.3526 478.591,-33.7438 469.402,-28.4711 468.12,-35.3526"/>
</g>
<!-- Node5 -->
<g id="node5" class="node"><title>Node5</title>
<g id="a_node5"><a xlink:href="classore_1_1data_1_1_todays_market.html#ad79acb672b27bd7258f228494d94cb32" target="_top" xlink:title="Constructor taking pointers and allowing for a lazy build of the market objects.">
<polygon fill="white" stroke="#666666" points="122,-60 7.10543e-015,-60 7.10543e-015,-30 122,-30 122,-60"/>
<text text-anchor="start" x="8" y="-48" font-family="Helvetica,sans-Serif" font-size="10.00">ore::data::TodaysMarket</text>
<text text-anchor="middle" x="61" y="-37" font-family="Helvetica,sans-Serif" font-size="10.00">::TodaysMarket</text>
</a>
</g>
</g>
<!-- Node4&#45;&gt;Node5 -->
<g id="edge4" class="edge"><title>Node4&#45;&gt;Node5</title>
<path fill="none" stroke="#63b8ff" d="M147.462,-45C139.01,-45 130.44,-45 122.153,-45"/>
<polygon fill="#63b8ff" stroke="#63b8ff" points="147.686,-48.5001 157.686,-45 147.686,-41.5001 147.686,-48.5001"/>
</g>
<!-- Node6&#45;&gt;Node4 -->
<g id="edge6" class="edge"><title>Node6&#45;&gt;Node4</title>
<path fill="none" stroke="#63b8ff" d="M305.741,-28.5114C297.198,-30.1542 288.531,-31.821 280.153,-33.4321"/>
<polygon fill="#63b8ff" stroke="#63b8ff" points="306.527,-31.9244 315.686,-26.5988 305.205,-25.0503 306.527,-31.9244"/>
</g>
<!-- Node6&#45;&gt;Node6 -->
<g id="edge7" class="edge"><title>Node6&#45;&gt;Node6</title>
<path fill="none" stroke="#63b8ff" d="M404.656,-40.5975C400.877,-44.9704 391.658,-48 377,-48 352.313,-48 343.055,-39.4063 349.227,-30.2754"/>
<polygon fill="#63b8ff" stroke="#63b8ff" points="408.159,-40.3146 404.773,-30.2754 401.16,-40.2349 408.159,-40.3146"/>
</g>
</g>
</svg>
