<?xml version="1.0" encoding="UTF-8" standalone="no"?>
<!DOCTYPE svg PUBLIC "-//W3C//DTD SVG 1.1//EN"
 "http://www.w3.org/Graphics/SVG/1.1/DTD/svg11.dtd">
<!-- Generated by graphviz version 2.38.0 (20140413.2041)
 -->
<!-- Title: getChildrenValuesAsDoubles Pages: 1 -->
<svg width="404pt" height="82pt"
 viewBox="0.00 0.00 404.00 82.00" xmlns="http://www.w3.org/2000/svg" xmlns:xlink="http://www.w3.org/1999/xlink">
<g id="graph0" class="graph" transform="scale(1 1) rotate(0) translate(4 78)">
<title>getChildrenValuesAsDoubles</title>
<!-- Node1 -->
<g id="node1" class="node"><title>Node1</title>
<g id="a_node1"><a xlink:title=" ">
<polygon fill="#999999" stroke="#666666" points="143,-46 0,-46 0,-27 143,-27 143,-46"/>
<text text-anchor="middle" x="71.5" y="-34" font-family="Helvetica,sans-Serif" font-size="10.00">getChildrenValuesAsDoubles</text>
</a>
</g>
</g>
<!-- Node2 -->
<g id="node2" class="node"><title>Node2</title>
<g id="a_node2"><a xlink:href="classore_1_1data_1_1_x_m_l_utils.html#aaf4e8600c620cb901bd271e3ec76d702" target="_top" xlink:title=" ">
<polygon fill="white" stroke="#666666" points="278.5,-74 183.5,-74 183.5,-55 278.5,-55 278.5,-74"/>
<text text-anchor="middle" x="231" y="-62" font-family="Helvetica,sans-Serif" font-size="10.00">getChildrenValues</text>
</a>
</g>
</g>
<!-- Node1&#45;&gt;Node2 -->
<g id="edge1" class="edge"><title>Node1&#45;&gt;Node2</title>
<path fill="none" stroke="#63b8ff" d="M126.262,-46.0577C141.467,-48.7608 158.059,-51.7105 173.424,-54.4421"/>
<polygon fill="#63b8ff" stroke="#63b8ff" points="172.859,-57.8965 183.318,-56.2009 174.085,-51.0045 172.859,-57.8965"/>
</g>
<!-- Node4 -->
<g id="node4" class="node"><title>Node4</title>
<g id="a_node4"><a xlink:href="group__utilities.html#gad1db2a68f9a73667c3b4084d63955bdd" target="_top" xlink:title="Convert text to Real.">
<polygon fill="white" stroke="#666666" points="283,-19 179,-19 179,-0 283,-0 283,-19"/>
<text text-anchor="middle" x="231" y="-7" font-family="Helvetica,sans-Serif" font-size="10.00">ore::data::parseReal</text>
</a>
</g>
</g>
<!-- Node1&#45;&gt;Node4 -->
<g id="edge3" class="edge"><title>Node1&#45;&gt;Node4</title>
<path fill="none" stroke="#63b8ff" d="M128.029,-26.9808C141.226,-24.7184 155.379,-22.2921 168.814,-19.9891"/>
<polygon fill="#63b8ff" stroke="#63b8ff" points="169.655,-23.3961 178.92,-18.2567 168.472,-16.4967 169.655,-23.3961"/>
</g>
<!-- Node3 -->
<g id="node3" class="node"><title>Node3</title>
<g id="a_node3"><a xlink:href="classore_1_1data_1_1_x_m_l_utils.html#a6704501b110fa9d056096df3e05f0df2" target="_top" xlink:title="Get a node&#39;s value.">
<polygon fill="white" stroke="#666666" points="396,-74 319,-74 319,-55 396,-55 396,-74"/>
<text text-anchor="middle" x="357.5" y="-62" font-family="Helvetica,sans-Serif" font-size="10.00">getNodeValue</text>
</a>
</g>
</g>
<!-- Node2&#45;&gt;Node3 -->
<g id="edge2" class="edge"><title>Node2&#45;&gt;Node3</title>
<path fill="none" stroke="#63b8ff" d="M278.713,-64.5C288.546,-64.5 298.931,-64.5 308.799,-64.5"/>
<polygon fill="#63b8ff" stroke="#63b8ff" points="308.85,-68.0001 318.85,-64.5 308.85,-61.0001 308.85,-68.0001"/>
</g>
<!-- Node4&#45;&gt;Node4 -->
<g id="edge4" class="edge"><title>Node4&#45;&gt;Node4</title>
<path fill="none" stroke="#63b8ff" d="M211.58,-19.0828C202.132,-27.7337 208.605,-37 231,-37 244.997,-37 252.774,-33.3804 254.332,-28.5536"/>
<polygon fill="#63b8ff" stroke="#63b8ff" points="257.473,-26.9892 250.42,-19.0828 251.003,-29.6616 257.473,-26.9892"/>
</g>
</g>
</svg>
