<?xml version="1.0" encoding="UTF-8" standalone="no"?>
<!DOCTYPE svg PUBLIC "-//W3C//DTD SVG 1.1//EN"
 "http://www.w3.org/Graphics/SVG/1.1/DTD/svg11.dtd">
<!-- Generated by graphviz version 2.38.0 (20140413.2041)
 -->
<!-- Title: CollateralBalance Pages: 1 -->
<!--zoomable 798 -->
<svg id="main" version="1.1" xmlns="http://www.w3.org/2000/svg" xmlns:xlink="http://www.w3.org/1999/xlink" xml:space="preserve" onload="init(evt)">
<style type="text/css"><![CDATA[
.edge:hover path { stroke: red; }
.edge:hover polygon { stroke: red; fill: red; }
]]></style>
<script type="text/javascript"><![CDATA[
var edges = document.getElementsByTagName('g');
if (edges && edges.length) {
  for (var i=0;i<edges.length;i++) {
    if (edges[i].id.substr(0,4)=='edge') {
      edges[i].setAttribute('class','edge');
    }
  }
}
]]></script>
        <defs>
                <circle id="rim" cx="0" cy="0" r="7"/>
                <circle id="rim2" cx="0" cy="0" r="3.5"/>
                <g id="zoomPlus">
                        <use xlink:href="#rim" fill="#404040">
                                <set attributeName="fill" to="#808080" begin="zoomplus.mouseover" end="zoomplus.mouseout"/>
                        </use>
                        <path d="M-4,0h8M0,-4v8" fill="none" stroke="white" stroke-width="1.5" pointer-events="none"/>
                </g>
                <g id="zoomMin">
                        <use xlink:href="#rim" fill="#404040">
                                <set attributeName="fill" to="#808080" begin="zoomminus.mouseover" end="zoomminus.mouseout"/>
                        </use>
                        <path d="M-4,0h8" fill="none" stroke="white" stroke-width="1.5" pointer-events="none"/>
                </g>
                <g id="dirArrow">
                        <path fill="none" stroke="white" stroke-width="1.5" d="M0,-3.0v7 M-2.5,-0.5L0,-3.0L2.5,-0.5"/>
                </g>
               <g id="resetDef">
                       <use xlink:href="#rim2" fill="#404040">
                               <set attributeName="fill" to="#808080" begin="reset.mouseover" end="reset.mouseout"/>
                       </use>
               </g>
        </defs>

<script type="text/javascript">
var viewWidth = 346;
var viewHeight = 798;
var sectionId = 'dynsection-1';
</script>
<script xlink:href="svgpan.js"/>
<svg id="graph" class="graph">
<g id="viewport">
<title>CollateralBalance</title>
<!-- Node1 -->
<g id="node1" class="node"><title>Node1</title>
<g id="a_node1"><a xlink:title=" ">
<polygon fill="#999999" stroke="#666666" points="224.5,-173 112.5,-173 112.5,-0 224.5,-0 224.5,-173"/>
<text text-anchor="middle" x="168.5" y="-161" font-family="Helvetica,sans-Serif" font-size="10.00">{CollateralBalance</text>
<text text-anchor="start" x="120.5" y="-150" font-family="Helvetica,sans-Serif" font-size="10.00">||+ CollateralBalance()</text>
<text text-anchor="start" x="120.5" y="-139" font-family="Helvetica,sans-Serif" font-size="10.00">+ CollateralBalance()</text>
<text text-anchor="start" x="120.5" y="-128" font-family="Helvetica,sans-Serif" font-size="10.00">+ CollateralBalance()</text>
<text text-anchor="start" x="120.5" y="-117" font-family="Helvetica,sans-Serif" font-size="10.00">+ CollateralBalance()</text>
<text text-anchor="start" x="120.5" y="-106" font-family="Helvetica,sans-Serif" font-size="10.00">+ fromXML()</text>
<text text-anchor="start" x="120.5" y="-95" font-family="Helvetica,sans-Serif" font-size="10.00">+ toXML()</text>
<text text-anchor="start" x="120.5" y="-84" font-family="Helvetica,sans-Serif" font-size="10.00">+ nettingSetId()</text>
<text text-anchor="start" x="120.5" y="-73" font-family="Helvetica,sans-Serif" font-size="10.00">+ nettingSetDetails()</text>
<text text-anchor="start" x="120.5" y="-62" font-family="Helvetica,sans-Serif" font-size="10.00">+ currency()</text>
<text text-anchor="start" x="120.5" y="-51" font-family="Helvetica,sans-Serif" font-size="10.00">+ initialMargin()</text>
<text text-anchor="start" x="120.5" y="-40" font-family="Helvetica,sans-Serif" font-size="10.00">+ variationMargin()</text>
<text text-anchor="start" x="120.5" y="-29" font-family="Helvetica,sans-Serif" font-size="10.00">+ initialMargin()</text>
<text text-anchor="start" x="120.5" y="-18" font-family="Helvetica,sans-Serif" font-size="10.00">+ variationMargin()</text>
<text text-anchor="middle" x="168.5" y="-7" font-family="Helvetica,sans-Serif" font-size="10.00">}</text>
</a>
</g>
</g>
<!-- Node2 -->
<g id="node2" class="node"><title>Node2</title>
<g id="a_node2"><a xlink:href="classore_1_1data_1_1_x_m_l_serializable.html" target="_top" xlink:title="Base class for all serializable classes.">
<polygon fill="white" stroke="#666666" points="111,-723 0,-723 0,-616 111,-616 111,-723"/>
<text text-anchor="middle" x="55.5" y="-711" font-family="Helvetica,sans-Serif" font-size="10.00">{XMLSerializable</text>
<text text-anchor="start" x="8" y="-700" font-family="Helvetica,sans-Serif" font-size="10.00">||+ ~XMLSerializable()</text>
<text text-anchor="start" x="8" y="-689" font-family="Helvetica,sans-Serif" font-size="10.00">+ fromXML()</text>
<text text-anchor="start" x="8" y="-678" font-family="Helvetica,sans-Serif" font-size="10.00">+ toXML()</text>
<text text-anchor="start" x="8" y="-667" font-family="Helvetica,sans-Serif" font-size="10.00">+ fromFile()</text>
<text text-anchor="start" x="8" y="-656" font-family="Helvetica,sans-Serif" font-size="10.00">+ toFile()</text>
<text text-anchor="start" x="8" y="-645" font-family="Helvetica,sans-Serif" font-size="10.00">+ fromXMLString()</text>
<text text-anchor="start" x="8" y="-634" font-family="Helvetica,sans-Serif" font-size="10.00">+ toXMLString()</text>
<text text-anchor="middle" x="55.5" y="-623" font-family="Helvetica,sans-Serif" font-size="10.00">}</text>
</a>
</g>
</g>
<!-- Node2&#45;&gt;Node1 -->
<g id="edge1" class="edge"><title>Node2&#45;&gt;Node1</title>
<path fill="none" stroke="#63b8ff" d="M42.6805,-605.832C27.6922,-518.91 10.1573,-358.104 54.5,-231 66.2908,-197.203 89.7342,-165.397 112.312,-140.36"/>
<polygon fill="none" stroke="#63b8ff" points="39.2558,-606.565 44.4449,-615.803 46.1487,-605.346 39.2558,-606.565"/>
</g>
<!-- Node5 -->
<g id="node5" class="node"><title>Node5</title>
<g id="a_node5"><a xlink:href="classore_1_1data_1_1_netting_set_details.html" target="_top" xlink:title="Serializable object holding netting set identification data.">
<polygon fill="white" stroke="#666666" points="183,-503 64,-503 64,-231 183,-231 183,-503"/>
<text text-anchor="middle" x="123.5" y="-491" font-family="Helvetica,sans-Serif" font-size="10.00">{NettingSetDetails</text>
<text text-anchor="start" x="72" y="-480" font-family="Helvetica,sans-Serif" font-size="10.00">||+ NettingSetDetails()</text>
<text text-anchor="start" x="72" y="-469" font-family="Helvetica,sans-Serif" font-size="10.00">+ NettingSetDetails()</text>
<text text-anchor="start" x="72" y="-458" font-family="Helvetica,sans-Serif" font-size="10.00">+ NettingSetDetails()</text>
<text text-anchor="start" x="72" y="-447" font-family="Helvetica,sans-Serif" font-size="10.00">+ fromXML()</text>
<text text-anchor="start" x="72" y="-436" font-family="Helvetica,sans-Serif" font-size="10.00">+ toXML()</text>
<text text-anchor="start" x="72" y="-425" font-family="Helvetica,sans-Serif" font-size="10.00">+ nettingSetId()</text>
<text text-anchor="start" x="72" y="-414" font-family="Helvetica,sans-Serif" font-size="10.00">+ agreementType()</text>
<text text-anchor="start" x="72" y="-403" font-family="Helvetica,sans-Serif" font-size="10.00">+ callType()</text>
<text text-anchor="start" x="72" y="-392" font-family="Helvetica,sans-Serif" font-size="10.00">+ initialMarginType()</text>
<text text-anchor="start" x="72" y="-381" font-family="Helvetica,sans-Serif" font-size="10.00">+ legalEntityId()</text>
<text text-anchor="start" x="72" y="-370" font-family="Helvetica,sans-Serif" font-size="10.00">* empty()</text>
<text text-anchor="start" x="72" y="-359" font-family="Helvetica,sans-Serif" font-size="10.00">* emptyOptionalFields()</text>
<text text-anchor="start" x="72" y="-348" font-family="Helvetica,sans-Serif" font-size="10.00">* mapRepresentation()</text>
<text text-anchor="start" x="72" y="-337" font-family="Helvetica,sans-Serif" font-size="10.00">* fieldNames()</text>
<text text-anchor="start" x="72" y="-326" font-family="Helvetica,sans-Serif" font-size="10.00">* optionalFieldNames()</text>
<text text-anchor="start" x="72" y="-315" font-family="Helvetica,sans-Serif" font-size="10.00">* fromXML()</text>
<text text-anchor="start" x="72" y="-304" font-family="Helvetica,sans-Serif" font-size="10.00">* toXML()</text>
<text text-anchor="start" x="72" y="-293" font-family="Helvetica,sans-Serif" font-size="10.00">* nettingSetId()</text>
<text text-anchor="start" x="72" y="-282" font-family="Helvetica,sans-Serif" font-size="10.00">* agreementType()</text>
<text text-anchor="start" x="72" y="-271" font-family="Helvetica,sans-Serif" font-size="10.00">* callType()</text>
<text text-anchor="start" x="72" y="-260" font-family="Helvetica,sans-Serif" font-size="10.00">* initialMarginType()</text>
<text text-anchor="start" x="72" y="-249" font-family="Helvetica,sans-Serif" font-size="10.00">* legalEntityId()</text>
<text text-anchor="middle" x="123.5" y="-238" font-family="Helvetica,sans-Serif" font-size="10.00">}</text>
</a>
</g>
</g>
<!-- Node2&#45;&gt;Node5 -->
<g id="edge5" class="edge"><title>Node2&#45;&gt;Node5</title>
<path fill="none" stroke="#63b8ff" d="M69.6543,-605.95C76.426,-576.025 84.8137,-538.959 92.937,-503.061"/>
<polygon fill="none" stroke="#63b8ff" points="66.216,-605.287 67.4225,-615.813 73.0434,-606.832 66.216,-605.287"/>
</g>
<!-- Node3 -->
<g id="node3" class="node"><title>Node3</title>
<g id="a_node3"><a xlink:title=" ">
<polygon fill="white" stroke="#666666" points="207.5,-684.5 163.5,-684.5 163.5,-654.5 207.5,-654.5 207.5,-684.5"/>
<text text-anchor="middle" x="185.5" y="-672.5" font-family="Helvetica,sans-Serif" font-size="10.00">{string</text>
<text text-anchor="middle" x="185.5" y="-661.5" font-family="Helvetica,sans-Serif" font-size="10.00">||}</text>
</a>
</g>
</g>
<!-- Node3&#45;&gt;Node1 -->
<g id="edge2" class="edge"><title>Node3&#45;&gt;Node1</title>
<path fill="none" stroke="#404040" d="M190.738,-654.435C195.673,-640.379 202.713,-618.036 205.5,-598 230.422,-418.836 236.4,-369.23 205.5,-191 205.147,-188.964 204.758,-186.915 204.336,-184.858"/>
<polygon fill="none" stroke="#404040" points="204.301,-184.71 199.048,-179.769 201.588,-173.02 206.841,-177.96 204.301,-184.71"/>
<text text-anchor="middle" x="257" y="-370" font-family="Helvetica,sans-Serif" font-size="10.00"> &#45;currency_</text>
<text text-anchor="middle" x="257" y="-359" font-family="Helvetica,sans-Serif" font-size="10.00">&#45;nettingSetId_</text>
</g>
<!-- Node3&#45;&gt;Node5 -->
<g id="edge6" class="edge"><title>Node3&#45;&gt;Node5</title>
<path fill="none" stroke="#404040" d="M168.374,-654.31C154.15,-641.336 134.931,-620.747 126.5,-598 116.876,-572.034 112.246,-543.26 110.61,-515.103"/>
<polygon fill="none" stroke="#404040" points="110.609,-515.073 106.352,-509.252 110.087,-503.084 114.344,-508.904 110.609,-515.073"/>
<text text-anchor="middle" x="166" y="-590" font-family="Helvetica,sans-Serif" font-size="10.00"> &#45;agreementType_</text>
<text text-anchor="middle" x="166" y="-579" font-family="Helvetica,sans-Serif" font-size="10.00">&#45;callType_</text>
<text text-anchor="start" x="126.5" y="-568" font-family="Helvetica,sans-Serif" font-size="10.00">&#45;initialMarginType</text>
<text text-anchor="middle" x="166" y="-557" font-family="Helvetica,sans-Serif" font-size="10.00">_</text>
<text text-anchor="start" x="126.5" y="-546" font-family="Helvetica,sans-Serif" font-size="10.00">&#45;legalEntityId</text>
<text text-anchor="middle" x="166" y="-535" font-family="Helvetica,sans-Serif" font-size="10.00">_</text>
<text text-anchor="middle" x="166" y="-524" font-family="Helvetica,sans-Serif" font-size="10.00">&#45;nettingSetId_</text>
</g>
<!-- Node4 -->
<g id="node4" class="node"><title>Node4</title>
<g id="a_node4"><a xlink:title=" ">
<polygon fill="white" stroke="#666666" points="240.5,-790 130.5,-790 130.5,-760 240.5,-760 240.5,-790"/>
<text text-anchor="middle" x="185.5" y="-778" font-family="Helvetica,sans-Serif" font-size="10.00">{basic_string&lt; Char &gt;</text>
<text text-anchor="middle" x="185.5" y="-767" font-family="Helvetica,sans-Serif" font-size="10.00">||}</text>
</a>
</g>
</g>
<!-- Node4&#45;&gt;Node3 -->
<g id="edge3" class="edge"><title>Node4&#45;&gt;Node3</title>
<path fill="none" stroke="#63b8ff" d="M185.5,-749.597C185.5,-729.425 185.5,-701.476 185.5,-684.769"/>
<polygon fill="none" stroke="#63b8ff" points="182,-749.609 185.5,-759.609 189,-749.609 182,-749.609"/>
</g>
<!-- Node5&#45;&gt;Node1 -->
<g id="edge4" class="edge"><title>Node5&#45;&gt;Node1</title>
<path fill="none" stroke="#404040" d="M113.849,-230.632C114.844,-217.153 116.634,-203.75 119.5,-191 119.957,-188.966 120.459,-186.926 121.001,-184.882"/>
<polygon fill="none" stroke="#404040" points="121.066,-184.665 118.96,-177.768 124.516,-173.172 126.622,-180.068 121.066,-184.665"/>
<text text-anchor="middle" x="162.5" y="-199.5" font-family="Helvetica,sans-Serif" font-size="10.00"> &#45;nettingSetDetails_</text>
</g>
<!-- Node6 -->
<g id="node6" class="node"><title>Node6</title>
<g id="a_node6"><a xlink:title=" ">
<polygon fill="white" stroke="#666666" points="338,-382 299,-382 299,-352 338,-352 338,-382"/>
<text text-anchor="middle" x="318.5" y="-370" font-family="Helvetica,sans-Serif" font-size="10.00">{Real</text>
<text text-anchor="middle" x="318.5" y="-359" font-family="Helvetica,sans-Serif" font-size="10.00">||}</text>
</a>
</g>
</g>
<!-- Node6&#45;&gt;Node1 -->
<g id="edge7" class="edge"><title>Node6&#45;&gt;Node1</title>
<path fill="none" stroke="#404040" d="M316.978,-351.899C313.81,-326.546 305.021,-272.081 284.5,-231 270.974,-203.923 251.632,-177.286 232.608,-154.452"/>
<polygon fill="none" stroke="#404040" points="232.55,-154.384 225.617,-152.402 224.779,-145.24 231.713,-147.222 232.55,-154.384"/>
<text text-anchor="middle" x="283.5" y="-205" font-family="Helvetica,sans-Serif" font-size="10.00"> &#45;im_</text>
<text text-anchor="middle" x="283.5" y="-194" font-family="Helvetica,sans-Serif" font-size="10.00">&#45;vm_</text>
</g>
</g>
</svg>
        <g id="navigator" transform="translate(0 0)" fill="#404254">
                <rect fill="#f2f5e9" fill-opacity="0.5" stroke="#606060" stroke-width=".5" x="0" y="0" width="60" height="60"/>
                <use id="zoomplus" xlink:href="#zoomPlus" x="17" y="9" onmousedown="handleZoom(evt,'in')"/>
                <use id="zoomminus" xlink:href="#zoomMin" x="42" y="9" onmousedown="handleZoom(evt,'out')"/>
                <use id="reset" xlink:href="#resetDef" x="30" y="36" onmousedown="handleReset()"/>
                <g id="arrowUp" xlink:href="#dirArrow" transform="translate(30 24)" onmousedown="handlePan(0,-1)">
                  <use xlink:href="#rim" fill="#404040">
                        <set attributeName="fill" to="#808080" begin="arrowUp.mouseover" end="arrowUp.mouseout"/>
                  </use>
                  <path fill="none" stroke="white" stroke-width="1.5" d="M0,-3.0v7 M-2.5,-0.5L0,-3.0L2.5,-0.5"/>
                </g>
                <g id="arrowRight" xlink:href="#dirArrow" transform="rotate(90) translate(36 -43)" onmousedown="handlePan(1,0)">
                  <use xlink:href="#rim" fill="#404040">
                        <set attributeName="fill" to="#808080" begin="arrowRight.mouseover" end="arrowRight.mouseout"/>
                  </use>
                  <path fill="none" stroke="white" stroke-width="1.5" d="M0,-3.0v7 M-2.5,-0.5L0,-3.0L2.5,-0.5"/>
                </g>
                <g id="arrowDown" xlink:href="#dirArrow" transform="rotate(180) translate(-30 -48)" onmousedown="handlePan(0,1)">
                  <use xlink:href="#rim" fill="#404040">
                        <set attributeName="fill" to="#808080" begin="arrowDown.mouseover" end="arrowDown.mouseout"/>
                  </use>
                  <path fill="none" stroke="white" stroke-width="1.5" d="M0,-3.0v7 M-2.5,-0.5L0,-3.0L2.5,-0.5"/>
                </g>
                <g id="arrowLeft" xlink:href="#dirArrow" transform="rotate(270) translate(-36 17)" onmousedown="handlePan(-1,0)">
                  <use xlink:href="#rim" fill="#404040">
                        <set attributeName="fill" to="#808080" begin="arrowLeft.mouseover" end="arrowLeft.mouseout"/>
                  </use>
                  <path fill="none" stroke="white" stroke-width="1.5" d="M0,-3.0v7 M-2.5,-0.5L0,-3.0L2.5,-0.5"/>
                </g>
        </g>
        <svg viewBox="0 0 15 15" width="100%" height="30px" preserveAspectRatio="xMaxYMin meet">
         <g id="arrow_out" transform="scale(0.3 0.3)">
          <a xlink:href="classore_1_1data_1_1_collateral_balance__coll__graph_org.svg" target="_base">
           <rect id="button" ry="5" rx="5" y="6" x="6" height="38" width="38"
                fill="#f2f5e9" fill-opacity="0.5" stroke="#606060" stroke-width="1.0"/>
           <path id="arrow"
             d="M 11.500037,31.436501 C 11.940474,20.09759 22.043105,11.32322 32.158766,21.979434 L 37.068811,17.246167 C 37.068811,17.246167 37.088388,32 37.088388,32 L 22.160133,31.978069 C 22.160133,31.978069 26.997745,27.140456 26.997745,27.140456 C 18.528582,18.264221 13.291696,25.230495 11.500037,31.436501 z"
             style="fill:#404040;"/>
          </a>
         </g>
        </svg>
</svg>
