<?xml version="1.0" encoding="UTF-8" standalone="no"?>
<!DOCTYPE svg PUBLIC "-//W3C//DTD SVG 1.1//EN"
 "http://www.w3.org/Graphics/SVG/1.1/DTD/svg11.dtd">
<!-- Generated by graphviz version 2.38.0 (20140413.2041)
 -->
<!-- Title: correlationCurve Pages: 1 -->
<svg width="313pt" height="38pt"
 viewBox="0.00 0.00 313.00 38.00" xmlns="http://www.w3.org/2000/svg" xmlns:xlink="http://www.w3.org/1999/xlink">
<g id="graph0" class="graph" transform="scale(1 1) rotate(0) translate(4 34)">
<title>correlationCurve</title>
<!-- Node1 -->
<g id="node1" class="node"><title>Node1</title>
<g id="a_node1"><a xlink:title=" ">
<polygon fill="#999999" stroke="#666666" points="305,-24.5 219,-24.5 219,-5.5 305,-5.5 305,-24.5"/>
<text text-anchor="middle" x="262" y="-12.5" font-family="Helvetica,sans-Serif" font-size="10.00">correlationCurve</text>
</a>
</g>
</g>
<!-- Node2 -->
<g id="node2" class="node"><title>Node2</title>
<g id="a_node2"><a xlink:href="classore_1_1data_1_1_market.html#a5b97563fda6d29885fa5b3e8931bc6d4" target="_top" xlink:title=" ">
<polygon fill="white" stroke="#666666" points="183,-24.5 145,-24.5 145,-5.5 183,-5.5 183,-24.5"/>
<text text-anchor="middle" x="164" y="-12.5" font-family="Helvetica,sans-Serif" font-size="10.00">fxVol</text>
</a>
</g>
</g>
<!-- Node1&#45;&gt;Node2 -->
<g id="edge1" class="edge"><title>Node1&#45;&gt;Node2</title>
<path fill="none" stroke="#63b8ff" d="M208.887,-15C199.68,-15 190.676,-15 183.244,-15"/>
<polygon fill="#63b8ff" stroke="#63b8ff" points="208.893,-18.5001 218.893,-15 208.893,-11.5001 208.893,-18.5001"/>
</g>
<!-- Node3 -->
<g id="node3" class="node"><title>Node3</title>
<g id="a_node3"><a xlink:href="classore_1_1data_1_1_market_impl.html#a5216216380b983d0c4f0d0d8bf8f8e95" target="_top" xlink:title=" ">
<polygon fill="white" stroke="#666666" points="109,-30 0,-30 0,-0 109,-0 109,-30"/>
<text text-anchor="start" x="8" y="-18" font-family="Helvetica,sans-Serif" font-size="10.00">ore::data::MarketImpl</text>
<text text-anchor="middle" x="54.5" y="-7" font-family="Helvetica,sans-Serif" font-size="10.00">::fxVolImpl</text>
</a>
</g>
</g>
<!-- Node2&#45;&gt;Node3 -->
<g id="edge2" class="edge"><title>Node2&#45;&gt;Node3</title>
<path fill="none" stroke="#63b8ff" d="M134.672,-15C126.772,-15 117.921,-15 109.075,-15"/>
<polygon fill="#63b8ff" stroke="#63b8ff" points="134.764,-18.5001 144.764,-15 134.764,-11.5001 134.764,-18.5001"/>
</g>
</g>
</svg>
