<?xml version="1.0" encoding="UTF-8" standalone="no"?>
<!DOCTYPE svg PUBLIC "-//W3C//DTD SVG 1.1//EN"
 "http://www.w3.org/Graphics/SVG/1.1/DTD/svg11.dtd">
<!-- Generated by graphviz version 2.38.0 (20140413.2041)
 -->
<!-- Title: pay Pages: 1 -->
<svg width="399pt" height="342pt"
 viewBox="0.00 0.00 399.00 341.50" xmlns="http://www.w3.org/2000/svg" xmlns:xlink="http://www.w3.org/1999/xlink">
<g id="graph0" class="graph" transform="scale(1 1) rotate(0) translate(4 337.5)">
<title>pay</title>
<!-- Node1 -->
<g id="node1" class="node"><title>Node1</title>
<g id="a_node1"><a xlink:title=" ">
<polygon fill="#999999" stroke="#666666" points="32,-108 0,-108 0,-89 32,-89 32,-108"/>
<text text-anchor="middle" x="16" y="-96" font-family="Helvetica,sans-Serif" font-size="10.00">pay</text>
</a>
</g>
</g>
<!-- Node2 -->
<g id="node2" class="node"><title>Node2</title>
<g id="a_node2"><a xlink:href="classore_1_1data_1_1_model_impl.html#ab648089ec0ba2f1040ed8da9885ec6a3" target="_top" xlink:title=" ">
<polygon fill="white" stroke="#666666" points="198.5,-160 71.5,-160 71.5,-141 198.5,-141 198.5,-160"/>
<text text-anchor="middle" x="135" y="-148" font-family="Helvetica,sans-Serif" font-size="10.00">ore::data::ModelImpl::pay</text>
</a>
</g>
</g>
<!-- Node1&#45;&gt;Node2 -->
<g id="edge1" class="edge"><title>Node1&#45;&gt;Node2</title>
<path fill="none" stroke="#63b8ff" d="M32.2957,-105.298C50.1814,-113.247 80.241,-126.607 103.055,-136.746"/>
<polygon fill="#63b8ff" stroke="#63b8ff" points="101.772,-140.006 112.331,-140.87 104.615,-133.61 101.772,-140.006"/>
</g>
<!-- Node10 -->
<g id="node10" class="node"><title>Node10</title>
<g id="a_node10"><a xlink:href="classore_1_1data_1_1_model.html#a6fead1da49affdddae755f95d693c4f3" target="_top" xlink:title=" ">
<polygon fill="white" stroke="#666666" points="202,-61.5 68,-61.5 68,-31.5 202,-31.5 202,-61.5"/>
<text text-anchor="start" x="76" y="-49.5" font-family="Helvetica,sans-Serif" font-size="10.00">ore::data::Model::timeFrom</text>
<text text-anchor="middle" x="135" y="-38.5" font-family="Helvetica,sans-Serif" font-size="10.00">Reference</text>
</a>
</g>
</g>
<!-- Node1&#45;&gt;Node10 -->
<g id="edge9" class="edge"><title>Node1&#45;&gt;Node10</title>
<path fill="none" stroke="#63b8ff" d="M32.2957,-91.7019C47.1211,-85.1128 70.3108,-74.8063 90.8049,-65.6978"/>
<polygon fill="#63b8ff" stroke="#63b8ff" points="92.2751,-68.8746 99.9918,-61.6148 89.4321,-62.4779 92.2751,-68.8746"/>
</g>
<!-- Node3 -->
<g id="node3" class="node"><title>Node3</title>
<g id="a_node3"><a xlink:href="classore_1_1data_1_1_model_impl.html#a7a986ced76fdd726c3617f36d741a131" target="_top" xlink:title=" ">
<polygon fill="white" stroke="#666666" points="367,-333.5 262,-333.5 262,-303.5 367,-303.5 367,-333.5"/>
<text text-anchor="start" x="270" y="-321.5" font-family="Helvetica,sans-Serif" font-size="10.00">ore::data::ModelImpl</text>
<text text-anchor="middle" x="314.5" y="-310.5" font-family="Helvetica,sans-Serif" font-size="10.00">::getDiscount</text>
</a>
</g>
</g>
<!-- Node2&#45;&gt;Node3 -->
<g id="edge2" class="edge"><title>Node2&#45;&gt;Node3</title>
<path fill="none" stroke="#63b8ff" d="M140.153,-160.194C151.71,-186.024 186.8,-257.08 238,-294.5 242.442,-297.746 247.339,-300.564 252.44,-303.008"/>
<polygon fill="#63b8ff" stroke="#63b8ff" points="251.219,-306.293 261.79,-307.015 253.977,-299.859 251.219,-306.293"/>
</g>
<!-- Node4 -->
<g id="node4" class="node"><title>Node4</title>
<g id="a_node4"><a xlink:href="classore_1_1data_1_1_model_impl.html#a795b2380a1d3c499d63cfde21ec10531" target="_top" xlink:title=" ">
<polygon fill="white" stroke="#666666" points="367,-285.5 262,-285.5 262,-255.5 367,-255.5 367,-285.5"/>
<text text-anchor="start" x="270" y="-273.5" font-family="Helvetica,sans-Serif" font-size="10.00">ore::data::ModelImpl</text>
<text text-anchor="middle" x="314.5" y="-262.5" font-family="Helvetica,sans-Serif" font-size="10.00">::getFxSpot</text>
</a>
</g>
</g>
<!-- Node2&#45;&gt;Node4 -->
<g id="edge3" class="edge"><title>Node2&#45;&gt;Node4</title>
<path fill="none" stroke="#63b8ff" d="M143.651,-160.161C159.336,-179.347 197.12,-222.469 238,-246.5 242.48,-249.133 247.282,-251.512 252.213,-253.654"/>
<polygon fill="#63b8ff" stroke="#63b8ff" points="251.221,-257.027 261.805,-257.487 253.818,-250.526 251.221,-257.027"/>
</g>
<!-- Node5 -->
<g id="node5" class="node"><title>Node5</title>
<g id="a_node5"><a xlink:href="classore_1_1data_1_1_model_impl.html#ab59061d75ad41f5cfb70c6992e532868" target="_top" xlink:title=" ">
<polygon fill="white" stroke="#666666" points="367,-237.5 262,-237.5 262,-207.5 367,-207.5 367,-237.5"/>
<text text-anchor="start" x="270" y="-225.5" font-family="Helvetica,sans-Serif" font-size="10.00">ore::data::ModelImpl</text>
<text text-anchor="middle" x="314.5" y="-214.5" font-family="Helvetica,sans-Serif" font-size="10.00">::getIndexValue</text>
</a>
</g>
</g>
<!-- Node2&#45;&gt;Node5 -->
<g id="edge4" class="edge"><title>Node2&#45;&gt;Node5</title>
<path fill="none" stroke="#63b8ff" d="M154.475,-160.101C174.663,-170.377 208.12,-186.779 238,-198.5 242.838,-200.398 247.892,-202.258 252.993,-204.05"/>
<polygon fill="#63b8ff" stroke="#63b8ff" points="252.223,-207.486 262.817,-207.406 254.485,-200.861 252.223,-207.486"/>
</g>
<!-- Node6 -->
<g id="node6" class="node"><title>Node6</title>
<g id="a_node6"><a xlink:href="classore_1_1data_1_1_model_impl.html#ace0fcc2b07a3858bf1f95247a698e31e" target="_top" xlink:title=" ">
<polygon fill="white" stroke="#666666" points="367,-189.5 262,-189.5 262,-159.5 367,-159.5 367,-189.5"/>
<text text-anchor="start" x="270" y="-177.5" font-family="Helvetica,sans-Serif" font-size="10.00">ore::data::ModelImpl</text>
<text text-anchor="middle" x="314.5" y="-166.5" font-family="Helvetica,sans-Serif" font-size="10.00">::getNumeraire</text>
</a>
</g>
</g>
<!-- Node2&#45;&gt;Node6 -->
<g id="edge5" class="edge"><title>Node2&#45;&gt;Node6</title>
<path fill="none" stroke="#63b8ff" d="M198.58,-158.962C215.851,-161.297 234.574,-163.828 251.796,-166.157"/>
<polygon fill="#63b8ff" stroke="#63b8ff" points="251.361,-169.63 261.739,-167.501 252.299,-162.693 251.361,-169.63"/>
</g>
<!-- Node7 -->
<g id="node7" class="node"><title>Node7</title>
<g id="a_node7"><a target="_parent" xlink:href="../qle/struct_quant_ext_1_1_random_variable.html#adaeda39d7b8cc716a40c4da65b00ba77" xlink:title=" ">
<polygon fill="white" stroke="#666666" points="382,-141.5 247,-141.5 247,-111.5 382,-111.5 382,-141.5"/>
<text text-anchor="start" x="255" y="-129.5" font-family="Helvetica,sans-Serif" font-size="10.00">QuantExt::RandomVariable</text>
<text text-anchor="middle" x="314.5" y="-118.5" font-family="Helvetica,sans-Serif" font-size="10.00">::initialised</text>
</a>
</g>
</g>
<!-- Node2&#45;&gt;Node7 -->
<g id="edge6" class="edge"><title>Node2&#45;&gt;Node7</title>
<path fill="none" stroke="#63b8ff" d="M198.58,-142.038C210.945,-140.367 224.054,-138.594 236.823,-136.868"/>
<polygon fill="#63b8ff" stroke="#63b8ff" points="237.53,-140.304 246.971,-135.496 236.592,-133.367 237.53,-140.304"/>
</g>
<!-- Node8 -->
<g id="node8" class="node"><title>Node8</title>
<g id="a_node8"><a xlink:href="classore_1_1data_1_1_model.html#a06843bb9dcd2cb5e4ef8185cc5fe57c9" target="_top" xlink:title=" ">
<polygon fill="white" stroke="#666666" points="391,-56 238,-56 238,-37 391,-37 391,-56"/>
<text text-anchor="middle" x="314.5" y="-44" font-family="Helvetica,sans-Serif" font-size="10.00">ore::data::Model::referenceDate</text>
</a>
</g>
</g>
<!-- Node2&#45;&gt;Node8 -->
<g id="edge7" class="edge"><title>Node2&#45;&gt;Node8</title>
<path fill="none" stroke="#63b8ff" d="M144.541,-140.982C160.902,-123.347 198.554,-85.569 238,-65.5 242.625,-63.147 247.561,-61.0725 252.61,-59.2458"/>
<polygon fill="#63b8ff" stroke="#63b8ff" points="253.998,-62.474 262.408,-56.0303 251.815,-55.823 253.998,-62.474"/>
</g>
<!-- Node9 -->
<g id="node9" class="node"><title>Node9</title>
<g id="a_node9"><a xlink:href="classore_1_1data_1_1_model.html#a9edcd102946c4e3bd0bcdba2fc64e397" target="_top" xlink:title=" ">
<polygon fill="white" stroke="#666666" points="370,-93 259,-93 259,-74 370,-74 370,-93"/>
<text text-anchor="middle" x="314.5" y="-81" font-family="Helvetica,sans-Serif" font-size="10.00">ore::data::Model::size</text>
</a>
</g>
</g>
<!-- Node2&#45;&gt;Node9 -->
<g id="edge8" class="edge"><title>Node2&#45;&gt;Node9</title>
<path fill="none" stroke="#63b8ff" d="M153.613,-140.927C173.601,-130.369 207.406,-113.432 238,-102.5 244.913,-100.03 252.291,-97.7525 259.626,-95.6975"/>
<polygon fill="#63b8ff" stroke="#63b8ff" points="260.8,-99.0063 269.553,-93.0357 258.987,-92.2451 260.8,-99.0063"/>
</g>
<!-- Node10&#45;&gt;Node8 -->
<g id="edge11" class="edge"><title>Node10&#45;&gt;Node8</title>
<path fill="none" stroke="#63b8ff" d="M202.094,-46.5C210.454,-46.5 219.101,-46.5 227.711,-46.5"/>
<polygon fill="#63b8ff" stroke="#63b8ff" points="227.782,-50.0001 237.782,-46.5 227.782,-43.0001 227.782,-50.0001"/>
</g>
<!-- Node11 -->
<g id="node11" class="node"><title>Node11</title>
<g id="a_node11"><a xlink:href="classore_1_1data_1_1_model.html#a03ae29747e458dc27b32188899fdbf7a" target="_top" xlink:title=" ">
<polygon fill="white" stroke="#666666" points="365,-19 264,-19 264,-0 365,-0 365,-19"/>
<text text-anchor="middle" x="314.5" y="-7" font-family="Helvetica,sans-Serif" font-size="10.00">ore::data::Model::dt</text>
</a>
</g>
</g>
<!-- Node10&#45;&gt;Node11 -->
<g id="edge10" class="edge"><title>Node10&#45;&gt;Node11</title>
<path fill="none" stroke="#63b8ff" d="M202.094,-32.7226C220.386,-28.9097 240.054,-24.8099 257.697,-21.1322"/>
<polygon fill="#63b8ff" stroke="#63b8ff" points="258.75,-24.488 267.825,-19.0209 257.322,-17.6353 258.75,-24.488"/>
</g>
</g>
</svg>
