<?xml version="1.0" encoding="UTF-8" standalone="no"?>
<!DOCTYPE svg PUBLIC "-//W3C//DTD SVG 1.1//EN"
 "http://www.w3.org/Graphics/SVG/1.1/DTD/svg11.dtd">
<!-- Generated by graphviz version 2.38.0 (20140413.2041)
 -->
<!-- Title: additionalData Pages: 1 -->
<svg width="249pt" height="321pt"
 viewBox="0.00 0.00 249.00 321.00" xmlns="http://www.w3.org/2000/svg" xmlns:xlink="http://www.w3.org/1999/xlink">
<g id="graph0" class="graph" transform="scale(1 1) rotate(0) translate(4 317)">
<title>additionalData</title>
<!-- Node1 -->
<g id="node1" class="node"><title>Node1</title>
<g id="a_node1"><a xlink:title="returns all additional data returned by the trade once built">
<polygon fill="#999999" stroke="#666666" points="78,-168 0,-168 0,-149 78,-149 78,-168"/>
<text text-anchor="middle" x="39" y="-156" font-family="Helvetica,sans-Serif" font-size="10.00">additionalData</text>
</a>
</g>
</g>
<!-- Node2 -->
<g id="node2" class="node"><title>Node2</title>
<g id="a_node2"><a xlink:href="classore_1_1data_1_1_cap_floor.html#a8d37a0844a435b4a2f7ce2b6caf2da0b" target="_top" xlink:title=" ">
<polygon fill="white" stroke="#666666" points="196.5,-313 158.5,-313 158.5,-294 196.5,-294 196.5,-313"/>
<text text-anchor="middle" x="177.5" y="-301" font-family="Helvetica,sans-Serif" font-size="10.00">caps</text>
</a>
</g>
</g>
<!-- Node1&#45;&gt;Node2 -->
<g id="edge1" class="edge"><title>Node1&#45;&gt;Node2</title>
<path fill="none" stroke="#63b8ff" d="M42.8881,-168.019C50.4967,-191.475 73.3537,-252.467 114,-284.5 123.82,-292.239 136.774,-296.837 148.341,-299.563"/>
<polygon fill="#63b8ff" stroke="#63b8ff" points="147.953,-303.054 158.444,-301.577 149.321,-296.189 147.953,-303.054"/>
</g>
<!-- Node3 -->
<g id="node3" class="node"><title>Node3</title>
<g id="a_node3"><a xlink:href="classore_1_1data_1_1_leg_data.html#a14dac022d83c5fa9597e6344199a41b6" target="_top" xlink:title=" ">
<polygon fill="white" stroke="#666666" points="226,-275.5 129,-275.5 129,-245.5 226,-245.5 226,-275.5"/>
<text text-anchor="start" x="137" y="-263.5" font-family="Helvetica,sans-Serif" font-size="10.00">ore::data::LegData</text>
<text text-anchor="middle" x="177.5" y="-252.5" font-family="Helvetica,sans-Serif" font-size="10.00">::currency</text>
</a>
</g>
</g>
<!-- Node1&#45;&gt;Node3 -->
<g id="edge2" class="edge"><title>Node1&#45;&gt;Node3</title>
<path fill="none" stroke="#63b8ff" d="M46.9049,-168.218C58.8708,-184.425 84.9793,-217.104 114,-236.5 116.277,-238.022 118.664,-239.467 121.122,-240.836"/>
<polygon fill="#63b8ff" stroke="#63b8ff" points="119.759,-244.069 130.261,-245.467 122.923,-237.825 119.759,-244.069"/>
</g>
<!-- Node4 -->
<g id="node4" class="node"><title>Node4</title>
<g id="a_node4"><a xlink:href="namespaceore_1_1data.html#a43e91fce1c1cb13a28fa91d7d893109d" target="_top" xlink:title=" ">
<polygon fill="white" stroke="#666666" points="240.5,-227 114.5,-227 114.5,-208 240.5,-208 240.5,-227"/>
<text text-anchor="middle" x="177.5" y="-215" font-family="Helvetica,sans-Serif" font-size="10.00">ore::data::currentNotional</text>
</a>
</g>
</g>
<!-- Node1&#45;&gt;Node4 -->
<g id="edge3" class="edge"><title>Node1&#45;&gt;Node4</title>
<path fill="none" stroke="#63b8ff" d="M54.8067,-168.016C69.4005,-177.075 92.5647,-190.609 114,-199.5 118.703,-201.451 123.689,-203.273 128.711,-204.951"/>
<polygon fill="#63b8ff" stroke="#63b8ff" points="127.761,-208.321 138.351,-207.997 129.87,-201.647 127.761,-208.321"/>
</g>
<!-- Node5 -->
<g id="node5" class="node"><title>Node5</title>
<g id="a_node5"><a xlink:href="classore_1_1data_1_1_cap_floor.html#a01284c48c90b49565d9d5e5de0d9f8ef" target="_top" xlink:title=" ">
<polygon fill="white" stroke="#666666" points="197.5,-190 157.5,-190 157.5,-171 197.5,-171 197.5,-190"/>
<text text-anchor="middle" x="177.5" y="-178" font-family="Helvetica,sans-Serif" font-size="10.00">floors</text>
</a>
</g>
</g>
<!-- Node1&#45;&gt;Node5 -->
<g id="edge4" class="edge"><title>Node1&#45;&gt;Node5</title>
<path fill="none" stroke="#63b8ff" d="M78.0229,-164.628C99.9221,-168.158 127.025,-172.526 147.25,-175.786"/>
<polygon fill="#63b8ff" stroke="#63b8ff" points="146.706,-179.243 157.135,-177.379 147.82,-172.332 146.706,-179.243"/>
</g>
<!-- Node6 -->
<g id="node6" class="node"><title>Node6</title>
<g id="a_node6"><a xlink:href="classore_1_1data_1_1_leg_data.html#a49d5ef4ecab600807fc919eb14ba3513" target="_top" xlink:title=" ">
<polygon fill="white" stroke="#666666" points="226,-152.5 129,-152.5 129,-122.5 226,-122.5 226,-152.5"/>
<text text-anchor="start" x="137" y="-140.5" font-family="Helvetica,sans-Serif" font-size="10.00">ore::data::LegData</text>
<text text-anchor="middle" x="177.5" y="-129.5" font-family="Helvetica,sans-Serif" font-size="10.00">::isPayer</text>
</a>
</g>
</g>
<!-- Node1&#45;&gt;Node6 -->
<g id="edge5" class="edge"><title>Node1&#45;&gt;Node6</title>
<path fill="none" stroke="#63b8ff" d="M78.0229,-152.65C90.7185,-150.697 105.163,-148.475 119.002,-146.346"/>
<polygon fill="#63b8ff" stroke="#63b8ff" points="119.587,-149.797 128.939,-144.817 118.523,-142.878 119.587,-149.797"/>
</g>
<!-- Node7 -->
<g id="node7" class="node"><title>Node7</title>
<g id="a_node7"><a xlink:href="classore_1_1data_1_1_leg_data.html#a81b9d9c795e1f72812f0da9b14382f4a" target="_top" xlink:title=" ">
<polygon fill="white" stroke="#666666" points="226,-104.5 129,-104.5 129,-74.5 226,-74.5 226,-104.5"/>
<text text-anchor="start" x="137" y="-92.5" font-family="Helvetica,sans-Serif" font-size="10.00">ore::data::LegData</text>
<text text-anchor="middle" x="177.5" y="-81.5" font-family="Helvetica,sans-Serif" font-size="10.00">::legType</text>
</a>
</g>
</g>
<!-- Node1&#45;&gt;Node7 -->
<g id="edge6" class="edge"><title>Node1&#45;&gt;Node7</title>
<path fill="none" stroke="#63b8ff" d="M54.0313,-148.917C68.6041,-139.219 92.2707,-124.171 114,-113.5 117.48,-111.791 121.115,-110.12 124.805,-108.505"/>
<polygon fill="#63b8ff" stroke="#63b8ff" points="126.173,-111.727 134.032,-104.621 123.458,-105.275 126.173,-111.727"/>
</g>
<!-- Node8 -->
<g id="node8" class="node"><title>Node8</title>
<g id="a_node8"><a xlink:href="namespaceore_1_1data.html#a7cfc87add518625c1375588cf6bedaa8" target="_top" xlink:title=" ">
<polygon fill="white" stroke="#666666" points="241,-56 114,-56 114,-37 241,-37 241,-56"/>
<text text-anchor="middle" x="177.5" y="-44" font-family="Helvetica,sans-Serif" font-size="10.00">ore::data::originalNotional</text>
</a>
</g>
</g>
<!-- Node1&#45;&gt;Node8 -->
<g id="edge7" class="edge"><title>Node1&#45;&gt;Node8</title>
<path fill="none" stroke="#63b8ff" d="M45.0933,-148.737C55.467,-129.806 80.8929,-87.9996 114,-65.5 117.04,-63.4342 120.311,-61.587 123.707,-59.9361"/>
<polygon fill="#63b8ff" stroke="#63b8ff" points="125.089,-63.1519 132.914,-56.0093 122.343,-56.7131 125.089,-63.1519"/>
</g>
<!-- Node9 -->
<g id="node9" class="node"><title>Node9</title>
<g id="a_node9"><a xlink:href="namespaceore_1_1data.html#a777e216dee6069b548bb87da7152699e" target="_top" xlink:title=" ">
<polygon fill="white" stroke="#666666" points="217,-19 138,-19 138,-0 217,-0 217,-19"/>
<text text-anchor="middle" x="177.5" y="-7" font-family="Helvetica,sans-Serif" font-size="10.00">ore::data::size</text>
</a>
</g>
</g>
<!-- Node1&#45;&gt;Node9 -->
<g id="edge8" class="edge"><title>Node1&#45;&gt;Node9</title>
<path fill="none" stroke="#63b8ff" d="M42.7965,-148.682C50.196,-124.487 72.6134,-61.5736 114,-28.5 118.319,-25.0485 123.26,-22.2225 128.428,-19.909"/>
<polygon fill="#63b8ff" stroke="#63b8ff" points="129.813,-23.1264 137.894,-16.2737 127.303,-16.5918 129.813,-23.1264"/>
</g>
</g>
</svg>
