<?xml version="1.0" encoding="UTF-8" standalone="no"?>
<!DOCTYPE svg PUBLIC "-//W3C//DTD SVG 1.1//EN"
 "http://www.w3.org/Graphics/SVG/1.1/DTD/svg11.dtd">
<!-- Generated by graphviz version 2.38.0 (20140413.2041)
 -->
<!-- Title: fromXML Pages: 1 -->
<svg width="382pt" height="235pt"
 viewBox="0.00 0.00 382.00 234.50" xmlns="http://www.w3.org/2000/svg" xmlns:xlink="http://www.w3.org/1999/xlink">
<g id="graph0" class="graph" transform="scale(1 1) rotate(0) translate(4 230.5)">
<title>fromXML</title>
<!-- Node1 -->
<g id="node1" class="node"><title>Node1</title>
<g id="a_node1"><a xlink:title=" ">
<polygon fill="#999999" stroke="#666666" points="54,-111 0,-111 0,-92 54,-92 54,-111"/>
<text text-anchor="middle" x="27" y="-99" font-family="Helvetica,sans-Serif" font-size="10.00">fromXML</text>
</a>
</g>
</g>
<!-- Node2 -->
<g id="node2" class="node"><title>Node2</title>
<g id="a_node2"><a xlink:href="classore_1_1data_1_1_x_m_l_utils.html#a37c092916f4bdf10d4fbf6bb9e474db7" target="_top" xlink:title=" ">
<polygon fill="white" stroke="#666666" points="214,-226.5 115,-226.5 115,-196.5 214,-196.5 214,-226.5"/>
<text text-anchor="start" x="123" y="-214.5" font-family="Helvetica,sans-Serif" font-size="10.00">ore::data::XMLUtils</text>
<text text-anchor="middle" x="164.5" y="-203.5" font-family="Helvetica,sans-Serif" font-size="10.00">::checkNode</text>
</a>
</g>
</g>
<!-- Node1&#45;&gt;Node2 -->
<g id="edge1" class="edge"><title>Node1&#45;&gt;Node2</title>
<path fill="none" stroke="#63b8ff" d="M32.3368,-111.029C40.8566,-128.702 61.4631,-166.654 90,-187.5 94.722,-190.949 99.9652,-193.92 105.416,-196.474"/>
<polygon fill="#63b8ff" stroke="#63b8ff" points="104.153,-199.74 114.728,-200.392 106.868,-193.288 104.153,-199.74"/>
</g>
<!-- Node3 -->
<g id="node3" class="node"><title>Node3</title>
<g id="a_node3"><a xlink:href="classore_1_1data_1_1_x_m_l_utils.html#a5a1307174ddefdb3aad6e3bd8cc63b27" target="_top" xlink:title=" ">
<polygon fill="white" stroke="#666666" points="214,-178.5 115,-178.5 115,-148.5 214,-148.5 214,-178.5"/>
<text text-anchor="start" x="123" y="-166.5" font-family="Helvetica,sans-Serif" font-size="10.00">ore::data::XMLUtils</text>
<text text-anchor="middle" x="164.5" y="-155.5" font-family="Helvetica,sans-Serif" font-size="10.00">::getChildValue</text>
</a>
</g>
</g>
<!-- Node1&#45;&gt;Node3 -->
<g id="edge2" class="edge"><title>Node1&#45;&gt;Node3</title>
<path fill="none" stroke="#63b8ff" d="M41.7581,-111.235C53.9882,-119.565 72.5792,-131.453 90,-139.5 94.8744,-141.752 100.02,-143.886 105.233,-145.884"/>
<polygon fill="#63b8ff" stroke="#63b8ff" points="104.052,-149.178 114.645,-149.33 106.458,-142.605 104.052,-149.178"/>
</g>
<!-- Node5 -->
<g id="node5" class="node"><title>Node5</title>
<g id="a_node5"><a xlink:href="namespaceore_1_1data.html#a4d60e66c3714d2cf33fc135d20502ccb" target="_top" xlink:title=" ">
<polygon fill="white" stroke="#666666" points="239,-130 90,-130 90,-111 239,-111 239,-130"/>
<text text-anchor="middle" x="164.5" y="-118" font-family="Helvetica,sans-Serif" font-size="10.00">ore::data::parseCdsDocClause</text>
</a>
</g>
</g>
<!-- Node1&#45;&gt;Node5 -->
<g id="edge4" class="edge"><title>Node1&#45;&gt;Node5</title>
<path fill="none" stroke="#63b8ff" d="M54.1258,-105.163C63.3452,-106.456 74.2436,-107.984 85.5293,-109.567"/>
<polygon fill="#63b8ff" stroke="#63b8ff" points="85.1251,-113.044 95.5143,-110.967 86.0972,-106.112 85.1251,-113.044"/>
</g>
<!-- Node6 -->
<g id="node6" class="node"><title>Node6</title>
<g id="a_node6"><a xlink:href="namespaceore_1_1data.html#a7f509473b0ff407585c811cc364d8ced" target="_top" xlink:title=" ">
<polygon fill="white" stroke="#666666" points="223.5,-93 105.5,-93 105.5,-74 223.5,-74 223.5,-93"/>
<text text-anchor="middle" x="164.5" y="-81" font-family="Helvetica,sans-Serif" font-size="10.00">ore::data::parseCdsTier</text>
</a>
</g>
</g>
<!-- Node1&#45;&gt;Node6 -->
<g id="edge5" class="edge"><title>Node1&#45;&gt;Node6</title>
<path fill="none" stroke="#63b8ff" d="M54.1258,-98.0294C65.9978,-96.4523 80.6539,-94.5054 95.336,-92.555"/>
<polygon fill="#63b8ff" stroke="#63b8ff" points="96.0187,-95.9951 105.471,-91.2087 95.0969,-89.0561 96.0187,-95.9951"/>
</g>
<!-- Node7 -->
<g id="node7" class="node"><title>Node7</title>
<g id="a_node7"><a xlink:href="group__utilities.html#ga6e9e781a58e78200301c76161589fc7b" target="_top" xlink:title="Convert text to QuantLib::Currency.">
<polygon fill="white" stroke="#666666" points="226.5,-56 102.5,-56 102.5,-37 226.5,-37 226.5,-56"/>
<text text-anchor="middle" x="164.5" y="-44" font-family="Helvetica,sans-Serif" font-size="10.00">ore::data::parseCurrency</text>
</a>
</g>
</g>
<!-- Node1&#45;&gt;Node7 -->
<g id="edge6" class="edge"><title>Node1&#45;&gt;Node7</title>
<path fill="none" stroke="#63b8ff" d="M41.6551,-91.7209C53.8192,-83.4167 72.3712,-71.728 90,-64.5 95.0141,-62.4441 100.321,-60.5835 105.695,-58.9085"/>
<polygon fill="#63b8ff" stroke="#63b8ff" points="106.767,-62.2418 115.395,-56.0919 104.815,-55.5195 106.767,-62.2418"/>
</g>
<!-- Node8 -->
<g id="node8" class="node"><title>Node8</title>
<g id="a_node8"><a xlink:href="classore_1_1data_1_1_cds_reference_information.html#a9396dec73a39180db1b9296b71eb8789" target="_top" xlink:title="Populate the id_ member.">
<polygon fill="white" stroke="#666666" points="195,-19 134,-19 134,-0 195,-0 195,-19"/>
<text text-anchor="middle" x="164.5" y="-7" font-family="Helvetica,sans-Serif" font-size="10.00">populateId</text>
</a>
</g>
</g>
<!-- Node1&#45;&gt;Node8 -->
<g id="edge7" class="edge"><title>Node1&#45;&gt;Node8</title>
<path fill="none" stroke="#63b8ff" d="M33.2854,-91.8801C42.5744,-75.9138 63.392,-44.0631 90,-27.5 100.179,-21.1637 112.442,-17.0576 124.009,-14.3967"/>
<polygon fill="#63b8ff" stroke="#63b8ff" points="124.807,-17.8064 133.925,-12.4107 123.433,-10.9427 124.807,-17.8064"/>
</g>
<!-- Node4 -->
<g id="node4" class="node"><title>Node4</title>
<g id="a_node4"><a xlink:href="classore_1_1data_1_1_x_m_l_utils.html#a6704501b110fa9d056096df3e05f0df2" target="_top" xlink:title="Get a node&#39;s value.">
<polygon fill="white" stroke="#666666" points="374,-178.5 275,-178.5 275,-148.5 374,-148.5 374,-178.5"/>
<text text-anchor="start" x="283" y="-166.5" font-family="Helvetica,sans-Serif" font-size="10.00">ore::data::XMLUtils</text>
<text text-anchor="middle" x="324.5" y="-155.5" font-family="Helvetica,sans-Serif" font-size="10.00">::getNodeValue</text>
</a>
</g>
</g>
<!-- Node3&#45;&gt;Node4 -->
<g id="edge3" class="edge"><title>Node3&#45;&gt;Node4</title>
<path fill="none" stroke="#63b8ff" d="M214.194,-163.5C230.188,-163.5 248.135,-163.5 264.791,-163.5"/>
<polygon fill="#63b8ff" stroke="#63b8ff" points="264.966,-167 274.966,-163.5 264.966,-160 264.966,-167"/>
</g>
<!-- Node9 -->
<g id="node9" class="node"><title>Node9</title>
<g id="a_node9"><a xlink:href="namespaceore_1_1data.html#a86651dfeb5c18ee891f7a4734d8cf455" target="_top" xlink:title=" ">
<polygon fill="white" stroke="#666666" points="373.5,-19 275.5,-19 275.5,-0 373.5,-0 373.5,-19"/>
<text text-anchor="middle" x="324.5" y="-7" font-family="Helvetica,sans-Serif" font-size="10.00">ore::data::to_string</text>
</a>
</g>
</g>
<!-- Node8&#45;&gt;Node9 -->
<g id="edge8" class="edge"><title>Node8&#45;&gt;Node9</title>
<path fill="none" stroke="#63b8ff" d="M195.219,-9.5C214.93,-9.5 241.455,-9.5 265.271,-9.5"/>
<polygon fill="#63b8ff" stroke="#63b8ff" points="265.283,-13.0001 275.283,-9.5 265.283,-6.0001 265.283,-13.0001"/>
</g>
<!-- Node9&#45;&gt;Node9 -->
<g id="edge9" class="edge"><title>Node9&#45;&gt;Node9</title>
<path fill="none" stroke="#63b8ff" d="M299.839,-19.0828C287.842,-27.7337 296.063,-37 324.5,-37 343.162,-37 353.117,-33.0094 354.366,-27.8208"/>
<polygon fill="#63b8ff" stroke="#63b8ff" points="357.285,-25.8829 349.161,-19.0828 351.271,-29.4653 357.285,-25.8829"/>
</g>
</g>
</svg>
