<?xml version="1.0" encoding="UTF-8" standalone="no"?>
<!DOCTYPE svg PUBLIC "-//W3C//DTD SVG 1.1//EN"
 "http://www.w3.org/Graphics/SVG/1.1/DTD/svg11.dtd">
<!-- Generated by graphviz version 2.38.0 (20140413.2041)
 -->
<!-- Title: currency Pages: 1 -->
<svg width="247pt" height="76pt"
 viewBox="0.00 0.00 247.00 75.50" xmlns="http://www.w3.org/2000/svg" xmlns:xlink="http://www.w3.org/1999/xlink">
<g id="graph0" class="graph" transform="scale(1 1) rotate(0) translate(4 71.5)">
<title>currency</title>
<!-- Node1 -->
<g id="node1" class="node"><title>Node1</title>
<g id="a_node1"><a xlink:title=" ">
<polygon fill="#999999" stroke="#666666" points="239,-45.5 185,-45.5 185,-26.5 239,-26.5 239,-45.5"/>
<text text-anchor="middle" x="212" y="-33.5" font-family="Helvetica,sans-Serif" font-size="10.00">currency</text>
</a>
</g>
</g>
<!-- Node2 -->
<g id="node2" class="node"><title>Node2</title>
<g id="a_node2"><a xlink:href="test_2commodityvolcurveconfig_8cpp.html#a76d2ace592975c551478cdd34b5aa6d1" target="_top" xlink:title=" ">
<polygon fill="white" stroke="#666666" points="146,-67.5 3,-67.5 3,-48.5 146,-48.5 146,-67.5"/>
<text text-anchor="middle" x="74.5" y="-55.5" font-family="Helvetica,sans-Serif" font-size="10.00">BOOST_AUTO_TEST_CASE</text>
</a>
</g>
</g>
<!-- Node1&#45;&gt;Node2 -->
<g id="edge1" class="edge"><title>Node1&#45;&gt;Node2</title>
<path fill="none" stroke="#63b8ff" d="M174.846,-41.8701C162.325,-43.9029 147.95,-46.2369 134.095,-48.4864"/>
<polygon fill="#63b8ff" stroke="#63b8ff" points="175.564,-45.2993 184.874,-40.2418 174.443,-38.3898 175.564,-45.2993"/>
</g>
<!-- Node3 -->
<g id="node3" class="node"><title>Node3</title>
<g id="a_node3"><a xlink:href="classore_1_1data_1_1_commodity_vol_curve.html#accbfc0352ecd2e4be852a0cc6238fbb5" target="_top" xlink:title=" ">
<polygon fill="white" stroke="#666666" points="149,-30 0,-30 0,-0 149,-0 149,-30"/>
<text text-anchor="start" x="8" y="-18" font-family="Helvetica,sans-Serif" font-size="10.00">ore::data::CommodityVolCurve</text>
<text text-anchor="middle" x="74.5" y="-7" font-family="Helvetica,sans-Serif" font-size="10.00">::buildVolatilityExplicit</text>
</a>
</g>
</g>
<!-- Node1&#45;&gt;Node3 -->
<g id="edge2" class="edge"><title>Node1&#45;&gt;Node3</title>
<path fill="none" stroke="#63b8ff" d="M174.844,-30.3964C166.842,-29.1563 158.082,-27.7988 149.185,-26.4199"/>
<polygon fill="#63b8ff" stroke="#63b8ff" points="174.456,-33.8781 184.874,-31.951 175.528,-26.9607 174.456,-33.8781"/>
</g>
</g>
</svg>
