<?xml version="1.0" encoding="UTF-8" standalone="no"?>
<!DOCTYPE svg PUBLIC "-//W3C//DTD SVG 1.1//EN"
 "http://www.w3.org/Graphics/SVG/1.1/DTD/svg11.dtd">
<!-- Generated by graphviz version 2.38.0 (20140413.2041)
 -->
<!-- Title: fromXML Pages: 1 -->
<!--zoomable 1029 -->
<svg id="main" version="1.1" xmlns="http://www.w3.org/2000/svg" xmlns:xlink="http://www.w3.org/1999/xlink" xml:space="preserve" onload="init(evt)">
<style type="text/css"><![CDATA[
.edge:hover path { stroke: red; }
.edge:hover polygon { stroke: red; fill: red; }
]]></style>
<script type="text/javascript"><![CDATA[
var edges = document.getElementsByTagName('g');
if (edges && edges.length) {
  for (var i=0;i<edges.length;i++) {
    if (edges[i].id.substr(0,4)=='edge') {
      edges[i].setAttribute('class','edge');
    }
  }
}
]]></script>
        <defs>
                <circle id="rim" cx="0" cy="0" r="7"/>
                <circle id="rim2" cx="0" cy="0" r="3.5"/>
                <g id="zoomPlus">
                        <use xlink:href="#rim" fill="#404040">
                                <set attributeName="fill" to="#808080" begin="zoomplus.mouseover" end="zoomplus.mouseout"/>
                        </use>
                        <path d="M-4,0h8M0,-4v8" fill="none" stroke="white" stroke-width="1.5" pointer-events="none"/>
                </g>
                <g id="zoomMin">
                        <use xlink:href="#rim" fill="#404040">
                                <set attributeName="fill" to="#808080" begin="zoomminus.mouseover" end="zoomminus.mouseout"/>
                        </use>
                        <path d="M-4,0h8" fill="none" stroke="white" stroke-width="1.5" pointer-events="none"/>
                </g>
                <g id="dirArrow">
                        <path fill="none" stroke="white" stroke-width="1.5" d="M0,-3.0v7 M-2.5,-0.5L0,-3.0L2.5,-0.5"/>
                </g>
               <g id="resetDef">
                       <use xlink:href="#rim2" fill="#404040">
                               <set attributeName="fill" to="#808080" begin="reset.mouseover" end="reset.mouseout"/>
                       </use>
               </g>
        </defs>

<script type="text/javascript">
var viewWidth = 590;
var viewHeight = 1029;
var sectionId = 'dynsection-3';
</script>
<script xlink:href="svgpan.js"/>
<svg id="graph" class="graph">
<g id="viewport">
<title>fromXML</title>
<!-- Node1 -->
<g id="node1" class="node"><title>Node1</title>
<g id="a_node1"><a xlink:title=" ">
<polygon fill="#999999" stroke="#666666" points="54,-556 0,-556 0,-537 54,-537 54,-556"/>
<text text-anchor="middle" x="27" y="-544" font-family="Helvetica,sans-Serif" font-size="10.00">fromXML</text>
</a>
</g>
</g>
<!-- Node2 -->
<g id="node2" class="node"><title>Node2</title>
<g id="a_node2"><a xlink:href="classore_1_1data_1_1_x_m_l_utils.html#a37c092916f4bdf10d4fbf6bb9e474db7" target="_top" xlink:title=" ">
<polygon fill="white" stroke="#666666" points="395.5,-690.5 296.5,-690.5 296.5,-660.5 395.5,-660.5 395.5,-690.5"/>
<text text-anchor="start" x="304.5" y="-678.5" font-family="Helvetica,sans-Serif" font-size="10.00">ore::data::XMLUtils</text>
<text text-anchor="middle" x="346" y="-667.5" font-family="Helvetica,sans-Serif" font-size="10.00">::checkNode</text>
</a>
</g>
</g>
<!-- Node1&#45;&gt;Node2 -->
<g id="edge1" class="edge"><title>Node1&#45;&gt;Node2</title>
<path fill="none" stroke="#63b8ff" d="M30.2055,-556.279C35.7978,-578.536 52.8077,-632.872 90,-656.5 148.734,-693.813 231.141,-692.557 286.214,-685.973"/>
<polygon fill="#63b8ff" stroke="#63b8ff" points="286.696,-689.44 296.167,-684.69 285.801,-682.498 286.696,-689.44"/>
</g>
<!-- Node3 -->
<g id="node3" class="node"><title>Node3</title>
<g id="a_node3"><a xlink:href="classore_1_1data_1_1_cap_floor_volatility_curve_config.html#aaa225ce3bb31ed4c9673b2a3a019d069" target="_top" xlink:title=" ">
<polygon fill="white" stroke="#666666" points="218.5,-884 105.5,-884 105.5,-865 218.5,-865 218.5,-884"/>
<text text-anchor="middle" x="162" y="-872" font-family="Helvetica,sans-Serif" font-size="10.00">configureExtrapolation</text>
</a>
</g>
</g>
<!-- Node1&#45;&gt;Node3 -->
<g id="edge2" class="edge"><title>Node1&#45;&gt;Node3</title>
<path fill="none" stroke="#63b8ff" d="M28.5743,-556.106C31.5972,-603.445 47.1805,-811.444 90,-856.5 91.8779,-858.476 93.9393,-860.247 96.1401,-861.834"/>
<polygon fill="#63b8ff" stroke="#63b8ff" points="94.8177,-865.113 105.227,-867.085 98.3199,-859.052 94.8177,-865.113"/>
</g>
<!-- Node4 -->
<g id="node4" class="node"><title>Node4</title>
<g id="a_node4"><a xlink:href="classore_1_1data_1_1_cap_floor_volatility_curve_config.html#a700777831897bc6caa460ff353447ee6" target="_top" xlink:title="Set the value of type_ i.e. the type of cap floor structure that is configured.">
<polygon fill="white" stroke="#666666" points="200.5,-847 123.5,-847 123.5,-828 200.5,-828 200.5,-847"/>
<text text-anchor="middle" x="162" y="-835" font-family="Helvetica,sans-Serif" font-size="10.00">configureType</text>
</a>
</g>
</g>
<!-- Node1&#45;&gt;Node4 -->
<g id="edge3" class="edge"><title>Node1&#45;&gt;Node4</title>
<path fill="none" stroke="#63b8ff" d="M28.9859,-556.122C33.5812,-599.207 54.1999,-774.015 90,-813.5 96.3541,-820.508 104.826,-825.471 113.699,-828.986"/>
<polygon fill="#63b8ff" stroke="#63b8ff" points="112.811,-832.38 123.405,-832.259 115.048,-825.747 112.811,-832.38"/>
</g>
<!-- Node5 -->
<g id="node5" class="node"><title>Node5</title>
<g id="a_node5"><a xlink:href="classore_1_1data_1_1_cap_floor_volatility_curve_config.html#a179647f04086805bae560ac923972075" target="_top" xlink:title="Set the value of volatilityType_ based on the value of type.">
<polygon fill="white" stroke="#666666" points="219,-971 105,-971 105,-952 219,-952 219,-971"/>
<text text-anchor="middle" x="162" y="-959" font-family="Helvetica,sans-Serif" font-size="10.00">configureVolatilityType</text>
</a>
</g>
</g>
<!-- Node1&#45;&gt;Node5 -->
<g id="edge4" class="edge"><title>Node1&#45;&gt;Node5</title>
<path fill="none" stroke="#63b8ff" d="M27.6206,-556.029C26.341,-598.402 25.4015,-772.941 90,-893.5 101.427,-914.825 121.967,-933.383 138.026,-945.7"/>
<polygon fill="#63b8ff" stroke="#63b8ff" points="136.275,-948.757 146.4,-951.878 140.431,-943.125 136.275,-948.757"/>
</g>
<!-- Node7 -->
<g id="node7" class="node"><title>Node7</title>
<g id="a_node7"><a xlink:href="classore_1_1data_1_1_bootstrap_config.html#a510baf06568510646decfeaf1753e526" target="_top" xlink:title=" ">
<polygon fill="white" stroke="#666666" points="227,-771.5 97,-771.5 97,-741.5 227,-741.5 227,-771.5"/>
<text text-anchor="start" x="105" y="-759.5" font-family="Helvetica,sans-Serif" font-size="10.00">ore::data::BootstrapConfig</text>
<text text-anchor="middle" x="162" y="-748.5" font-family="Helvetica,sans-Serif" font-size="10.00">::fromXML</text>
</a>
</g>
</g>
<!-- Node1&#45;&gt;Node7 -->
<g id="edge6" class="edge"><title>Node1&#45;&gt;Node7</title>
<path fill="none" stroke="#63b8ff" d="M28.5815,-556.164C30.8659,-585.768 41.6654,-676.29 90,-727.5 92.9817,-730.659 96.3566,-733.484 99.9759,-736.009"/>
<polygon fill="#63b8ff" stroke="#63b8ff" points="98.4319,-739.166 108.795,-741.37 102.068,-733.185 98.4319,-739.166"/>
</g>
<!-- Node9 -->
<g id="node9" class="node"><title>Node9</title>
<g id="a_node9"><a xlink:href="classore_1_1data_1_1_x_m_l_utils.html#a5f2b91a4af900e85c356cfe807e64501" target="_top" xlink:title=" ">
<polygon fill="white" stroke="#666666" points="395.5,-849.5 296.5,-849.5 296.5,-819.5 395.5,-819.5 395.5,-849.5"/>
<text text-anchor="start" x="304.5" y="-837.5" font-family="Helvetica,sans-Serif" font-size="10.00">ore::data::XMLUtils</text>
<text text-anchor="middle" x="346" y="-826.5" font-family="Helvetica,sans-Serif" font-size="10.00">::getChildNode</text>
</a>
</g>
</g>
<!-- Node1&#45;&gt;Node9 -->
<g id="edge26" class="edge"><title>Node1&#45;&gt;Node9</title>
<path fill="none" stroke="#63b8ff" d="M29.2015,-556.085C34.3954,-595.99 56.1942,-748.354 90,-780.5 104.163,-793.968 215.333,-813.849 286.137,-825.356"/>
<polygon fill="#63b8ff" stroke="#63b8ff" points="285.844,-828.854 296.274,-826.991 286.959,-821.943 285.844,-828.854"/>
</g>
<!-- Node10 -->
<g id="node10" class="node"><title>Node10</title>
<g id="a_node10"><a xlink:href="classore_1_1data_1_1_x_m_l_utils.html#a6704501b110fa9d056096df3e05f0df2" target="_top" xlink:title="Get a node&#39;s value.">
<polygon fill="white" stroke="#666666" points="569.5,-532.5 470.5,-532.5 470.5,-502.5 569.5,-502.5 569.5,-532.5"/>
<text text-anchor="start" x="478.5" y="-520.5" font-family="Helvetica,sans-Serif" font-size="10.00">ore::data::XMLUtils</text>
<text text-anchor="middle" x="520" y="-509.5" font-family="Helvetica,sans-Serif" font-size="10.00">::getNodeValue</text>
</a>
</g>
</g>
<!-- Node1&#45;&gt;Node10 -->
<g id="edge35" class="edge"><title>Node1&#45;&gt;Node10</title>
<path fill="none" stroke="#63b8ff" d="M30.461,-536.948C36.489,-515.747 54.1847,-464.942 90,-443.5 153.324,-405.589 352.769,-408.923 422,-434.5 454.16,-446.381 482.871,-474.209 500.559,-494.373"/>
<polygon fill="#63b8ff" stroke="#63b8ff" points="498.078,-496.859 507.222,-502.21 503.411,-492.324 498.078,-496.859"/>
</g>
<!-- Node13 -->
<g id="node13" class="node"><title>Node13</title>
<g id="a_node13"><a xlink:href="group__utilities.html#gaecd67eda4fb5f4859bb8f6d383547721" target="_top" xlink:title="Convert text to QuantLib::Integer.">
<polygon fill="white" stroke="#666666" points="403,-783 289,-783 289,-764 403,-764 403,-783"/>
<text text-anchor="middle" x="346" y="-771" font-family="Helvetica,sans-Serif" font-size="10.00">ore::data::parseInteger</text>
</a>
</g>
</g>
<!-- Node1&#45;&gt;Node13 -->
<g id="edge39" class="edge"><title>Node1&#45;&gt;Node13</title>
<path fill="none" stroke="#63b8ff" d="M29.4725,-556.332C33.8145,-581.854 48.9399,-650.776 90,-687.5 139.979,-732.2 173.212,-704.201 234,-732.5 251.213,-740.513 252.527,-748.071 270,-755.5 274.806,-757.543 279.888,-759.382 285.051,-761.031"/>
<polygon fill="#63b8ff" stroke="#63b8ff" points="284.446,-764.501 295.027,-763.971 286.425,-757.787 284.446,-764.501"/>
</g>
<!-- Node15 -->
<g id="node15" class="node"><title>Node15</title>
<g id="a_node15"><a xlink:href="classore_1_1data_1_1_report_config.html#a7741ae0fc924943de5bfe02928262eb7" target="_top" xlink:title=" ">
<polygon fill="white" stroke="#666666" points="220,-647.5 104,-647.5 104,-617.5 220,-617.5 220,-647.5"/>
<text text-anchor="start" x="112" y="-635.5" font-family="Helvetica,sans-Serif" font-size="10.00">ore::data::ReportConfig</text>
<text text-anchor="middle" x="162" y="-624.5" font-family="Helvetica,sans-Serif" font-size="10.00">::fromXML</text>
</a>
</g>
</g>
<!-- Node1&#45;&gt;Node15 -->
<g id="edge18" class="edge"><title>Node1&#45;&gt;Node15</title>
<path fill="none" stroke="#63b8ff" d="M36.3971,-556.101C47.5972,-568.433 68.5205,-589.866 90,-603.5 95.4591,-606.965 101.402,-610.159 107.449,-613.061"/>
<polygon fill="#63b8ff" stroke="#63b8ff" points="106.428,-616.44 116.982,-617.375 109.314,-610.063 106.428,-616.44"/>
</g>
<!-- Node17 -->
<g id="node17" class="node"><title>Node17</title>
<g id="a_node17"><a xlink:href="group__utilities.html#ga8e0623e2cb01e250e9cfec4619256208" target="_top" xlink:title="Convert text to QuantLib::Period.">
<polygon fill="white" stroke="#666666" points="402.5,-548 289.5,-548 289.5,-529 402.5,-529 402.5,-548"/>
<text text-anchor="middle" x="346" y="-536" font-family="Helvetica,sans-Serif" font-size="10.00">ore::data::parsePeriod</text>
</a>
</g>
</g>
<!-- Node1&#45;&gt;Node17 -->
<g id="edge40" class="edge"><title>Node1&#45;&gt;Node17</title>
<path fill="none" stroke="#63b8ff" d="M47.2794,-556.092C59.2501,-561.504 75.1368,-567.724 90,-570.5 152.912,-582.252 170.629,-579.452 234,-570.5 247.911,-568.535 279.841,-559.136 305.901,-551.029"/>
<polygon fill="#63b8ff" stroke="#63b8ff" points="307.057,-554.335 315.552,-548.004 304.962,-547.656 307.057,-554.335"/>
</g>
<!-- Node18 -->
<g id="node18" class="node"><title>Node18</title>
<g id="a_node18"><a xlink:href="classore_1_1data_1_1_x_m_l_utils.html#a81459e72cad1a7676c674eccad1c3cee" target="_top" xlink:title=" ">
<polygon fill="white" stroke="#666666" points="234,-513.5 90,-513.5 90,-483.5 234,-483.5 234,-513.5"/>
<text text-anchor="start" x="98" y="-501.5" font-family="Helvetica,sans-Serif" font-size="10.00">ore::data::XMLUtils</text>
<text text-anchor="middle" x="162" y="-490.5" font-family="Helvetica,sans-Serif" font-size="10.00">::getChildrenValuesAsStrings</text>
</a>
</g>
</g>
<!-- Node1&#45;&gt;Node18 -->
<g id="edge27" class="edge"><title>Node1&#45;&gt;Node18</title>
<path fill="none" stroke="#63b8ff" d="M52.0525,-536.91C63.5019,-532.417 77.412,-527.061 90,-522.5 95.1226,-520.644 100.469,-518.753 105.829,-516.888"/>
<polygon fill="#63b8ff" stroke="#63b8ff" points="107.133,-520.14 115.446,-513.572 104.852,-513.522 107.133,-520.14"/>
</g>
<!-- Node19 -->
<g id="node19" class="node"><title>Node19</title>
<g id="a_node19"><a xlink:href="classore_1_1data_1_1_x_m_l_utils.html#a5a1307174ddefdb3aad6e3bd8cc63b27" target="_top" xlink:title=" ">
<polygon fill="white" stroke="#666666" points="395.5,-473.5 296.5,-473.5 296.5,-443.5 395.5,-443.5 395.5,-473.5"/>
<text text-anchor="start" x="304.5" y="-461.5" font-family="Helvetica,sans-Serif" font-size="10.00">ore::data::XMLUtils</text>
<text text-anchor="middle" x="346" y="-450.5" font-family="Helvetica,sans-Serif" font-size="10.00">::getChildValue</text>
</a>
</g>
</g>
<!-- Node1&#45;&gt;Node19 -->
<g id="edge31" class="edge"><title>Node1&#45;&gt;Node19</title>
<path fill="none" stroke="#63b8ff" d="M32.9213,-536.88C41.8097,-520.663 62.2291,-488.303 90,-474.5 151.573,-443.896 232.073,-444.488 286.004,-449.717"/>
<polygon fill="#63b8ff" stroke="#63b8ff" points="285.777,-453.213 296.088,-450.779 286.51,-446.251 285.777,-453.213"/>
</g>
<!-- Node20 -->
<g id="node20" class="node"><title>Node20</title>
<g id="a_node20"><a xlink:href="classore_1_1data_1_1_x_m_l_utils.html#a5dc9d9e82028f69de452d27da6b43db0" target="_top" xlink:title=" ">
<polygon fill="white" stroke="#666666" points="219,-561.5 105,-561.5 105,-531.5 219,-531.5 219,-561.5"/>
<text text-anchor="start" x="113" y="-549.5" font-family="Helvetica,sans-Serif" font-size="10.00">ore::data::XMLUtils</text>
<text text-anchor="middle" x="162" y="-538.5" font-family="Helvetica,sans-Serif" font-size="10.00">::getChildValueAsBool</text>
</a>
</g>
</g>
<!-- Node1&#45;&gt;Node20 -->
<g id="edge32" class="edge"><title>Node1&#45;&gt;Node20</title>
<path fill="none" stroke="#63b8ff" d="M54.2765,-546.5C65.9118,-546.5 80.1786,-546.5 94.4486,-546.5"/>
<polygon fill="#63b8ff" stroke="#63b8ff" points="94.8024,-550 104.802,-546.5 94.8023,-543 94.8024,-550"/>
</g>
<!-- Node21 -->
<g id="node21" class="node"><title>Node21</title>
<g id="a_node21"><a xlink:href="group__utilities.html#ga86adcf55f91e340ff40783964666e732" target="_top" xlink:title="Convert text to QuantLib::BusinessDayConvention.">
<polygon fill="white" stroke="#666666" points="224.5,-389.5 99.5,-389.5 99.5,-359.5 224.5,-359.5 224.5,-389.5"/>
<text text-anchor="start" x="107.5" y="-377.5" font-family="Helvetica,sans-Serif" font-size="10.00">ore::data::parseBusiness</text>
<text text-anchor="middle" x="162" y="-366.5" font-family="Helvetica,sans-Serif" font-size="10.00">DayConvention</text>
</a>
</g>
</g>
<!-- Node1&#45;&gt;Node21 -->
<g id="edge36" class="edge"><title>Node1&#45;&gt;Node21</title>
<path fill="none" stroke="#63b8ff" d="M29.6128,-536.728C34.2935,-511.327 50.166,-442.493 90,-403.5 93.3005,-400.269 97.0101,-397.381 100.957,-394.803"/>
<polygon fill="#63b8ff" stroke="#63b8ff" points="102.997,-397.667 109.912,-389.64 99.5004,-391.603 102.997,-397.667"/>
</g>
<!-- Node22 -->
<g id="node22" class="node"><title>Node22</title>
<g id="a_node22"><a xlink:href="group__utilities.html#ga0f72d6fcccae10a674bdcd5095200f14" target="_top" xlink:title="Convert text to QuantLib::Calendar.">
<polygon fill="white" stroke="#666666" points="223.5,-341 100.5,-341 100.5,-322 223.5,-322 223.5,-341"/>
<text text-anchor="middle" x="162" y="-329" font-family="Helvetica,sans-Serif" font-size="10.00">ore::data::parseCalendar</text>
</a>
</g>
</g>
<!-- Node1&#45;&gt;Node22 -->
<g id="edge37" class="edge"><title>Node1&#45;&gt;Node22</title>
<path fill="none" stroke="#63b8ff" d="M28.0012,-536.666C28.561,-504.782 34.7957,-403.28 90,-350.5 91.6486,-348.924 93.4131,-347.475 95.2694,-346.144"/>
<polygon fill="#63b8ff" stroke="#63b8ff" points="97.0951,-349.13 103.92,-341.027 93.5314,-343.105 97.0951,-349.13"/>
</g>
<!-- Node23 -->
<g id="node23" class="node"><title>Node23</title>
<g id="a_node23"><a xlink:href="group__utilities.html#gaefb008d0de256c79140545d9c7549093" target="_top" xlink:title="Convert text to QuantLib::DayCounter.">
<polygon fill="white" stroke="#666666" points="230,-304 94,-304 94,-285 230,-285 230,-304"/>
<text text-anchor="middle" x="162" y="-292" font-family="Helvetica,sans-Serif" font-size="10.00">ore::data::parseDayCounter</text>
</a>
</g>
</g>
<!-- Node1&#45;&gt;Node23 -->
<g id="edge38" class="edge"><title>Node1&#45;&gt;Node23</title>
<path fill="none" stroke="#63b8ff" d="M29.2355,-536.95C34.5663,-497.186 56.8374,-345.309 90,-312.5 90.9661,-311.544 91.9753,-310.637 93.0224,-309.775"/>
<polygon fill="#63b8ff" stroke="#63b8ff" points="95.2921,-312.471 101.702,-304.034 91.4304,-306.632 95.2921,-312.471"/>
</g>
<!-- Node24 -->
<g id="node24" class="node"><title>Node24</title>
<g id="a_node24"><a xlink:href="classore_1_1data_1_1_cap_floor_volatility_curve_config.html#a19ed6e6444ea03ab24f69f1bf17d2151" target="_top" xlink:title="Populate the quotes vector.">
<polygon fill="white" stroke="#666666" points="204.5,-267 119.5,-267 119.5,-248 204.5,-248 204.5,-267"/>
<text text-anchor="middle" x="162" y="-255" font-family="Helvetica,sans-Serif" font-size="10.00">populateQuotes</text>
</a>
</g>
</g>
<!-- Node1&#45;&gt;Node24 -->
<g id="edge41" class="edge"><title>Node1&#45;&gt;Node24</title>
<path fill="none" stroke="#63b8ff" d="M28.8655,-536.961C33.0024,-493.449 52.1418,-314.254 90,-275.5 95.315,-270.059 102.022,-266.178 109.181,-263.425"/>
<polygon fill="#63b8ff" stroke="#63b8ff" points="110.625,-266.642 119.134,-260.33 108.546,-259.957 110.625,-266.642"/>
</g>
<!-- Node32 -->
<g id="node32" class="node"><title>Node32</title>
<g id="a_node32"><a xlink:href="classore_1_1data_1_1_cap_floor_volatility_curve_config.html#a09cdbe524aa89af7bba59a844397ebb9" target="_top" xlink:title="Populate required curve ids.">
<polygon fill="white" stroke="#666666" points="226,-142 98,-142 98,-123 226,-123 226,-142"/>
<text text-anchor="middle" x="162" y="-130" font-family="Helvetica,sans-Serif" font-size="10.00">populateRequiredCurveIds</text>
</a>
</g>
</g>
<!-- Node1&#45;&gt;Node32 -->
<g id="edge54" class="edge"><title>Node1&#45;&gt;Node32</title>
<path fill="none" stroke="#63b8ff" d="M28.5799,-536.78C31.1854,-497.796 43.7841,-349.537 90,-238.5 104.087,-204.655 129.636,-170.267 145.938,-150.184"/>
<polygon fill="#63b8ff" stroke="#63b8ff" points="148.82,-152.191 152.5,-142.256 143.428,-147.728 148.82,-152.191"/>
</g>
<!-- Node35 -->
<g id="node35" class="node"><title>Node35</title>
<g id="a_node35"><a xlink:href="classore_1_1data_1_1_cap_floor_volatility_curve_config.html#ab3a68a01a1c7c22bfbd9f3f6d20e7d5a" target="_top" xlink:title="Validate the configuration.">
<polygon fill="white" stroke="#666666" points="186.5,-62 137.5,-62 137.5,-43 186.5,-43 186.5,-62"/>
<text text-anchor="middle" x="162" y="-50" font-family="Helvetica,sans-Serif" font-size="10.00">validate</text>
</a>
</g>
</g>
<!-- Node1&#45;&gt;Node35 -->
<g id="edge57" class="edge"><title>Node1&#45;&gt;Node35</title>
<path fill="none" stroke="#63b8ff" d="M28.4703,-536.751C31.3525,-479.822 47.916,-190.239 90,-113.5 100.451,-94.442 119.362,-78.6473 135.041,-67.9081"/>
<polygon fill="#63b8ff" stroke="#63b8ff" points="137.35,-70.5804 143.81,-62.1827 133.523,-64.719 137.35,-70.5804"/>
</g>
<!-- Node6 -->
<g id="node6" class="node"><title>Node6</title>
<g id="a_node6"><a xlink:href="classore_1_1data_1_1_cap_floor_volatility_curve_config.html#adf4a6727c689e0038cf2cdd158d5ed2c" target="_top" xlink:title=" ">
<polygon fill="white" stroke="#666666" points="363.5,-1021 328.5,-1021 328.5,-1002 363.5,-1002 363.5,-1021"/>
<text text-anchor="middle" x="346" y="-1009" font-family="Helvetica,sans-Serif" font-size="10.00">type</text>
</a>
</g>
</g>
<!-- Node5&#45;&gt;Node6 -->
<g id="edge5" class="edge"><title>Node5&#45;&gt;Node6</title>
<path fill="none" stroke="#63b8ff" d="M194.758,-971.007C216.004,-977.291 244.616,-985.61 270,-992.5 286.064,-996.86 304.15,-1001.45 318.536,-1005.03"/>
<polygon fill="#63b8ff" stroke="#63b8ff" points="317.729,-1008.43 328.276,-1007.44 319.408,-1001.64 317.729,-1008.43"/>
</g>
<!-- Node7&#45;&gt;Node2 -->
<g id="edge7" class="edge"><title>Node7&#45;&gt;Node2</title>
<path fill="none" stroke="#63b8ff" d="M188.311,-741.345C209.602,-729.008 241.109,-711.701 270,-699.5 275.325,-697.251 280.937,-695.091 286.596,-693.05"/>
<polygon fill="#63b8ff" stroke="#63b8ff" points="287.826,-696.328 296.121,-689.736 285.526,-689.717 287.826,-696.328"/>
</g>
<!-- Node8 -->
<g id="node8" class="node"><title>Node8</title>
<g id="a_node8"><a xlink:href="classore_1_1data_1_1_bootstrap_config.html#a252d04640f75a3b42dc7eae0dd024ff2" target="_top" xlink:title=" ">
<polygon fill="white" stroke="#666666" points="411,-983.5 281,-983.5 281,-953.5 411,-953.5 411,-983.5"/>
<text text-anchor="start" x="289" y="-971.5" font-family="Helvetica,sans-Serif" font-size="10.00">ore::data::BootstrapConfig</text>
<text text-anchor="middle" x="346" y="-960.5" font-family="Helvetica,sans-Serif" font-size="10.00">::dontThrowSteps</text>
</a>
</g>
</g>
<!-- Node7&#45;&gt;Node8 -->
<g id="edge8" class="edge"><title>Node7&#45;&gt;Node8</title>
<path fill="none" stroke="#63b8ff" d="M185.875,-771.606C201.514,-783.036 221.584,-800.055 234,-819.5 263.965,-866.431 232.182,-898.631 270,-939.5 272.933,-942.67 276.253,-945.497 279.823,-948.019"/>
<polygon fill="#63b8ff" stroke="#63b8ff" points="278.187,-951.121 288.542,-953.363 281.846,-945.153 278.187,-951.121"/>
</g>
<!-- Node7&#45;&gt;Node9 -->
<g id="edge9" class="edge"><title>Node7&#45;&gt;Node9</title>
<path fill="none" stroke="#63b8ff" d="M204.259,-771.567C214.195,-775.68 224.639,-780.418 234,-785.5 251.119,-794.794 252.531,-801.881 270,-810.5 275.262,-813.096 280.868,-815.497 286.555,-817.694"/>
<polygon fill="#63b8ff" stroke="#63b8ff" points="285.561,-821.057 296.155,-821.198 287.961,-814.481 285.561,-821.057"/>
</g>
<!-- Node7&#45;&gt;Node10 -->
<g id="edge10" class="edge"><title>Node7&#45;&gt;Node10</title>
<path fill="none" stroke="#63b8ff" d="M184.625,-771.512C200.068,-783.138 220.428,-800.437 234,-819.5 258.269,-853.59 235.21,-883.245 270,-906.5 326.164,-944.042 368.765,-948.091 422,-906.5 480.409,-860.868 508.769,-621.913 516.651,-542.895"/>
<polygon fill="#63b8ff" stroke="#63b8ff" points="520.144,-543.135 517.629,-532.844 513.177,-542.458 520.144,-543.135"/>
</g>
<!-- Node11 -->
<g id="node11" class="node"><title>Node11</title>
<g id="a_node11"><a xlink:href="classore_1_1data_1_1_bootstrap_config.html#ab63463d47e95b8670f52c1d2b31b0728" target="_top" xlink:title=" ">
<polygon fill="white" stroke="#666666" points="411,-897.5 281,-897.5 281,-867.5 411,-867.5 411,-897.5"/>
<text text-anchor="start" x="289" y="-885.5" font-family="Helvetica,sans-Serif" font-size="10.00">ore::data::BootstrapConfig</text>
<text text-anchor="middle" x="346" y="-874.5" font-family="Helvetica,sans-Serif" font-size="10.00">::maxAttempts</text>
</a>
</g>
</g>
<!-- Node7&#45;&gt;Node11 -->
<g id="edge11" class="edge"><title>Node7&#45;&gt;Node11</title>
<path fill="none" stroke="#63b8ff" d="M180.949,-771.56C195.576,-784.036 216.585,-802.424 234,-819.5 250.843,-836.015 250.109,-845.819 270,-858.5 272.569,-860.137 275.258,-861.672 278.028,-863.108"/>
<polygon fill="#63b8ff" stroke="#63b8ff" points="276.56,-866.286 287.1,-867.371 279.537,-859.95 276.56,-866.286"/>
</g>
<!-- Node12 -->
<g id="node12" class="node"><title>Node12</title>
<g id="a_node12"><a xlink:href="group__utilities.html#ga94621f11193864fa1338296232dc5be9" target="_top" xlink:title="Convert text to bool.">
<polygon fill="white" stroke="#666666" points="398,-624 294,-624 294,-605 398,-605 398,-624"/>
<text text-anchor="middle" x="346" y="-612" font-family="Helvetica,sans-Serif" font-size="10.00">ore::data::parseBool</text>
</a>
</g>
</g>
<!-- Node7&#45;&gt;Node12 -->
<g id="edge12" class="edge"><title>Node7&#45;&gt;Node12</title>
<path fill="none" stroke="#63b8ff" d="M175.59,-741.4C194.416,-719.507 231.794,-678.611 270,-651.5 282.768,-642.44 298.086,-634.448 311.541,-628.232"/>
<polygon fill="#63b8ff" stroke="#63b8ff" points="313.243,-631.304 320.945,-624.029 310.388,-624.913 313.243,-631.304"/>
</g>
<!-- Node7&#45;&gt;Node13 -->
<g id="edge14" class="edge"><title>Node7&#45;&gt;Node13</title>
<path fill="none" stroke="#63b8ff" d="M227.166,-762.494C243.862,-764.053 261.882,-765.736 278.687,-767.306"/>
<polygon fill="#63b8ff" stroke="#63b8ff" points="278.688,-770.821 288.97,-768.266 279.339,-763.851 278.688,-770.821"/>
</g>
<!-- Node14 -->
<g id="node14" class="node"><title>Node14</title>
<g id="a_node14"><a xlink:href="group__utilities.html#gad1db2a68f9a73667c3b4084d63955bdd" target="_top" xlink:title="Convert text to Real.">
<polygon fill="white" stroke="#666666" points="398,-728 294,-728 294,-709 398,-709 398,-728"/>
<text text-anchor="middle" x="346" y="-716" font-family="Helvetica,sans-Serif" font-size="10.00">ore::data::parseReal</text>
</a>
</g>
</g>
<!-- Node7&#45;&gt;Node14 -->
<g id="edge16" class="edge"><title>Node7&#45;&gt;Node14</title>
<path fill="none" stroke="#63b8ff" d="M227.166,-743.103C247.472,-738.863 269.736,-734.214 289.391,-730.111"/>
<polygon fill="#63b8ff" stroke="#63b8ff" points="290.333,-733.49 299.407,-728.019 288.902,-726.637 290.333,-733.49"/>
</g>
<!-- Node12&#45;&gt;Node12 -->
<g id="edge13" class="edge"><title>Node12&#45;&gt;Node12</title>
<path fill="none" stroke="#63b8ff" d="M319.182,-624.083C306.135,-632.734 315.074,-642 346,-642 366.778,-642 377.632,-637.817 378.56,-632.448"/>
<polygon fill="#63b8ff" stroke="#63b8ff" points="381.363,-630.347 372.818,-624.083 375.592,-634.308 381.363,-630.347"/>
</g>
<!-- Node13&#45;&gt;Node13 -->
<g id="edge15" class="edge"><title>Node13&#45;&gt;Node13</title>
<path fill="none" stroke="#63b8ff" d="M319.182,-783.083C306.135,-791.734 315.074,-801 346,-801 366.778,-801 377.632,-796.817 378.56,-791.448"/>
<polygon fill="#63b8ff" stroke="#63b8ff" points="381.363,-789.347 372.818,-783.083 375.592,-793.308 381.363,-789.347"/>
</g>
<!-- Node14&#45;&gt;Node14 -->
<g id="edge17" class="edge"><title>Node14&#45;&gt;Node14</title>
<path fill="none" stroke="#63b8ff" d="M319.182,-728.083C306.135,-736.734 315.074,-746 346,-746 366.778,-746 377.632,-741.817 378.56,-736.448"/>
<polygon fill="#63b8ff" stroke="#63b8ff" points="381.363,-734.347 372.818,-728.083 375.592,-738.308 381.363,-734.347"/>
</g>
<!-- Node15&#45;&gt;Node2 -->
<g id="edge19" class="edge"><title>Node15&#45;&gt;Node2</title>
<path fill="none" stroke="#63b8ff" d="M220.087,-645.987C241.235,-650.984 265.236,-656.655 286.508,-661.68"/>
<polygon fill="#63b8ff" stroke="#63b8ff" points="285.85,-665.121 296.387,-664.015 287.46,-658.309 285.85,-665.121"/>
</g>
<!-- Node15&#45;&gt;Node9 -->
<g id="edge20" class="edge"><title>Node15&#45;&gt;Node9</title>
<path fill="none" stroke="#63b8ff" d="M175.25,-647.832C190.205,-666.959 215.754,-700.992 234,-732.5 253.134,-765.541 241.398,-785.208 270,-810.5 275.023,-814.942 280.875,-818.562 287.052,-821.514"/>
<polygon fill="#63b8ff" stroke="#63b8ff" points="285.703,-824.743 296.279,-825.376 288.406,-818.286 285.703,-824.743"/>
</g>
<!-- Node15&#45;&gt;Node10 -->
<g id="edge21" class="edge"><title>Node15&#45;&gt;Node10</title>
<path fill="none" stroke="#63b8ff" d="M203.901,-617.477C223.734,-610.419 247.977,-602.121 270,-595.5 336.791,-575.42 355.725,-578.222 422,-556.5 439.734,-550.688 458.87,-543.253 475.422,-536.437"/>
<polygon fill="#63b8ff" stroke="#63b8ff" points="476.954,-539.59 484.838,-532.512 474.261,-533.129 476.954,-539.59"/>
</g>
<!-- Node15&#45;&gt;Node12 -->
<g id="edge22" class="edge"><title>Node15&#45;&gt;Node12</title>
<path fill="none" stroke="#63b8ff" d="M220.087,-626.854C240.331,-624.852 263.187,-622.591 283.763,-620.556"/>
<polygon fill="#63b8ff" stroke="#63b8ff" points="284.366,-624.014 293.973,-619.547 283.677,-617.048 284.366,-624.014"/>
</g>
<!-- Node15&#45;&gt;Node14 -->
<g id="edge25" class="edge"><title>Node15&#45;&gt;Node14</title>
<path fill="none" stroke="#63b8ff" d="M182.863,-647.604C203.595,-662.71 237.55,-685.636 270,-699.5 275.755,-701.959 281.9,-704.152 288.102,-706.095"/>
<polygon fill="#63b8ff" stroke="#63b8ff" points="287.266,-709.497 297.847,-708.944 289.231,-702.778 287.266,-709.497"/>
</g>
<!-- Node16 -->
<g id="node16" class="node"><title>Node16</title>
<g id="a_node16"><a xlink:href="namespaceore_1_1data.html#a30e976f566a2a562e6b5a9d0c6f34ff0" target="_top" xlink:title=" ">
<polygon fill="white" stroke="#666666" points="416,-511 276,-511 276,-492 416,-492 416,-511"/>
<text text-anchor="middle" x="346" y="-499" font-family="Helvetica,sans-Serif" font-size="10.00">ore::data::parseListOfValues</text>
</a>
</g>
</g>
<!-- Node15&#45;&gt;Node16 -->
<g id="edge23" class="edge"><title>Node15&#45;&gt;Node16</title>
<path fill="none" stroke="#63b8ff" d="M182.816,-617.331C197.726,-605.43 218.218,-588 234,-570.5 252.581,-549.896 247.036,-535.071 270,-519.5 272.26,-517.968 274.636,-516.565 277.094,-515.282"/>
<polygon fill="#63b8ff" stroke="#63b8ff" points="278.621,-518.433 286.302,-511.135 275.747,-512.05 278.621,-518.433"/>
</g>
<!-- Node15&#45;&gt;Node17 -->
<g id="edge24" class="edge"><title>Node15&#45;&gt;Node17</title>
<path fill="none" stroke="#63b8ff" d="M208.956,-617.384C217.661,-613.527 226.409,-608.908 234,-603.5 253.75,-589.43 249.716,-575.789 270,-562.5 276.748,-558.079 284.37,-554.421 292.104,-551.409"/>
<polygon fill="#63b8ff" stroke="#63b8ff" points="293.297,-554.7 301.543,-548.048 290.949,-548.106 293.297,-554.7"/>
</g>
<!-- Node18&#45;&gt;Node16 -->
<g id="edge30" class="edge"><title>Node18&#45;&gt;Node16</title>
<path fill="none" stroke="#63b8ff" d="M234.148,-499.673C244.574,-499.845 255.366,-500.023 265.939,-500.197"/>
<polygon fill="#63b8ff" stroke="#63b8ff" points="265.934,-503.697 275.99,-500.362 266.049,-496.698 265.934,-503.697"/>
</g>
<!-- Node18&#45;&gt;Node19 -->
<g id="edge28" class="edge"><title>Node18&#45;&gt;Node19</title>
<path fill="none" stroke="#63b8ff" d="M231.288,-483.492C249.416,-479.507 268.829,-475.241 286.391,-471.381"/>
<polygon fill="#63b8ff" stroke="#63b8ff" points="287.478,-474.726 296.493,-469.161 285.975,-467.889 287.478,-474.726"/>
</g>
<!-- Node19&#45;&gt;Node10 -->
<g id="edge29" class="edge"><title>Node19&#45;&gt;Node10</title>
<path fill="none" stroke="#63b8ff" d="M395.098,-473.604C404.059,-476.499 413.329,-479.549 422,-482.5 437.154,-487.657 453.556,-493.481 468.485,-498.877"/>
<polygon fill="#63b8ff" stroke="#63b8ff" points="467.46,-502.229 478.055,-502.351 469.849,-495.649 467.46,-502.229"/>
</g>
<!-- Node20&#45;&gt;Node12 -->
<g id="edge34" class="edge"><title>Node20&#45;&gt;Node12</title>
<path fill="none" stroke="#63b8ff" d="M203.392,-561.591C235.332,-573.525 279.468,-590.016 309.937,-601.399"/>
<polygon fill="#63b8ff" stroke="#63b8ff" points="308.723,-604.682 319.316,-604.904 311.173,-598.125 308.723,-604.682"/>
</g>
<!-- Node20&#45;&gt;Node19 -->
<g id="edge33" class="edge"><title>Node20&#45;&gt;Node19</title>
<path fill="none" stroke="#63b8ff" d="M217.484,-531.351C223.265,-528.798 228.891,-525.862 234,-522.5 253.98,-509.353 249.914,-495.484 270,-482.5 275.274,-479.091 281.071,-476.132 287.032,-473.572"/>
<polygon fill="#63b8ff" stroke="#63b8ff" points="288.449,-476.776 296.484,-469.871 285.896,-470.258 288.449,-476.776"/>
</g>
<!-- Node25 -->
<g id="node25" class="node"><title>Node25</title>
<g id="a_node25"><a xlink:href="classore_1_1data_1_1_cap_floor_volatility_curve_config.html#a14dac022d83c5fa9597e6344199a41b6" target="_top" xlink:title=" ">
<polygon fill="white" stroke="#666666" points="373,-345 319,-345 319,-326 373,-326 373,-345"/>
<text text-anchor="middle" x="346" y="-333" font-family="Helvetica,sans-Serif" font-size="10.00">currency</text>
</a>
</g>
</g>
<!-- Node24&#45;&gt;Node25 -->
<g id="edge42" class="edge"><title>Node24&#45;&gt;Node25</title>
<path fill="none" stroke="#63b8ff" d="M204.858,-263.696C214.881,-266.346 225.215,-270.123 234,-275.5 254.683,-288.16 249.316,-303.842 270,-316.5 281.662,-323.637 295.907,-328.102 308.838,-330.892"/>
<polygon fill="#63b8ff" stroke="#63b8ff" points="308.375,-334.366 318.852,-332.789 309.678,-327.489 308.375,-334.366"/>
</g>
<!-- Node26 -->
<g id="node26" class="node"><title>Node26</title>
<g id="a_node26"><a xlink:href="classore_1_1data_1_1_cap_floor_volatility_curve_config.html#a144bd46c24138b26c36e809506da032c" target="_top" xlink:title=" ">
<polygon fill="white" stroke="#666666" points="540,-363 500,-363 500,-344 540,-344 540,-363"/>
<text text-anchor="middle" x="520" y="-351" font-family="Helvetica,sans-Serif" font-size="10.00">index</text>
</a>
</g>
</g>
<!-- Node24&#45;&gt;Node26 -->
<g id="edge46" class="edge"><title>Node24&#45;&gt;Node26</title>
<path fill="none" stroke="#63b8ff" d="M204.588,-261.618C215.067,-264.287 225.687,-268.592 234,-275.5 263.366,-299.902 237.839,-332.922 270,-353.5 338.501,-397.329 440.785,-376.743 490.212,-362.745"/>
<polygon fill="#63b8ff" stroke="#63b8ff" points="491.322,-366.066 499.926,-359.883 489.344,-359.352 491.322,-366.066"/>
</g>
<!-- Node28 -->
<g id="node28" class="node"><title>Node28</title>
<g id="a_node28"><a xlink:href="classore_1_1data_1_1_cap_floor_volatility_curve_config.html#ab8232591b187e0531befdd629d974bc0" target="_top" xlink:title=" ">
<polygon fill="white" stroke="#666666" points="378,-308 314,-308 314,-289 378,-289 378,-308"/>
<text text-anchor="middle" x="346" y="-296" font-family="Helvetica,sans-Serif" font-size="10.00">indexTenor</text>
</a>
</g>
</g>
<!-- Node24&#45;&gt;Node28 -->
<g id="edge47" class="edge"><title>Node24&#45;&gt;Node28</title>
<path fill="none" stroke="#63b8ff" d="M204.754,-266.906C234.514,-273.61 274.328,-282.579 303.931,-289.248"/>
<polygon fill="#63b8ff" stroke="#63b8ff" points="303.419,-292.72 313.943,-291.504 304.957,-285.892 303.419,-292.72"/>
</g>
<!-- Node29 -->
<g id="node29" class="node"><title>Node29</title>
<g id="a_node29"><a xlink:href="classore_1_1data_1_1_cap_floor_volatility_curve_config.html#a4e32f19694db4479f654b95ba0cd67b2" target="_top" xlink:title=" ">
<polygon fill="white" stroke="#666666" points="408.5,-271 283.5,-271 283.5,-252 408.5,-252 408.5,-271"/>
<text text-anchor="middle" x="346" y="-259" font-family="Helvetica,sans-Serif" font-size="10.00">quoteIncludesIndexName</text>
</a>
</g>
</g>
<!-- Node24&#45;&gt;Node29 -->
<g id="edge50" class="edge"><title>Node24&#45;&gt;Node29</title>
<path fill="none" stroke="#63b8ff" d="M204.754,-258.418C225.049,-258.864 250.021,-259.413 273.24,-259.923"/>
<polygon fill="#63b8ff" stroke="#63b8ff" points="273.338,-263.426 283.413,-260.146 273.492,-256.427 273.338,-263.426"/>
</g>
<!-- Node30 -->
<g id="node30" class="node"><title>Node30</title>
<g id="a_node30"><a xlink:href="classore_1_1data_1_1_cap_floor_volatility_curve_config.html#a0364de76264e886fcfb3896300700701" target="_top" xlink:title=" ">
<polygon fill="white" stroke="#666666" points="377,-234 315,-234 315,-215 377,-215 377,-234"/>
<text text-anchor="middle" x="346" y="-222" font-family="Helvetica,sans-Serif" font-size="10.00">quoteType</text>
</a>
</g>
</g>
<!-- Node24&#45;&gt;Node30 -->
<g id="edge51" class="edge"><title>Node24&#45;&gt;Node30</title>
<path fill="none" stroke="#63b8ff" d="M204.754,-249.929C234.795,-244.482 275.083,-237.177 304.769,-231.795"/>
<polygon fill="#63b8ff" stroke="#63b8ff" points="305.578,-235.205 314.793,-229.977 304.329,-228.317 305.578,-235.205"/>
</g>
<!-- Node31 -->
<g id="node31" class="node"><title>Node31</title>
<g id="a_node31"><a xlink:href="namespaceore_1_1data.html#a86651dfeb5c18ee891f7a4734d8cf455" target="_top" xlink:title=" ">
<polygon fill="white" stroke="#666666" points="395,-179 297,-179 297,-160 395,-160 395,-179"/>
<text text-anchor="middle" x="346" y="-167" font-family="Helvetica,sans-Serif" font-size="10.00">ore::data::to_string</text>
</a>
</g>
</g>
<!-- Node24&#45;&gt;Node31 -->
<g id="edge52" class="edge"><title>Node24&#45;&gt;Node31</title>
<path fill="none" stroke="#63b8ff" d="M182.707,-247.887C204.164,-237.429 239.499,-220.232 270,-205.5 285.111,-198.202 301.954,-190.113 315.845,-183.454"/>
<polygon fill="#63b8ff" stroke="#63b8ff" points="317.427,-186.577 324.933,-179.1 314.402,-180.264 317.427,-186.577"/>
</g>
<!-- Node25&#45;&gt;Node26 -->
<g id="edge43" class="edge"><title>Node25&#45;&gt;Node26</title>
<path fill="none" stroke="#63b8ff" d="M373.123,-338.234C404.363,-341.503 456.53,-346.962 489.281,-350.39"/>
<polygon fill="#63b8ff" stroke="#63b8ff" points="489.276,-353.908 499.586,-351.468 490.004,-346.946 489.276,-353.908"/>
</g>
<!-- Node27 -->
<g id="node27" class="node"><title>Node27</title>
<g id="a_node27"><a xlink:href="group__utilities.html#ga2d18ab5807f92319c9db2c13f4904738" target="_top" xlink:title="Convert std::string to QuantLib::IborIndex.">
<polygon fill="white" stroke="#666666" points="582,-308 458,-308 458,-289 582,-289 582,-308"/>
<text text-anchor="middle" x="520" y="-296" font-family="Helvetica,sans-Serif" font-size="10.00">ore::data::parseIborIndex</text>
</a>
</g>
</g>
<!-- Node25&#45;&gt;Node27 -->
<g id="edge44" class="edge"><title>Node25&#45;&gt;Node27</title>
<path fill="none" stroke="#63b8ff" d="M373.123,-329.88C397.271,-324.686 433.922,-316.802 464.445,-310.236"/>
<polygon fill="#63b8ff" stroke="#63b8ff" points="465.494,-313.59 474.534,-308.065 464.022,-306.747 465.494,-313.59"/>
</g>
<!-- Node27&#45;&gt;Node27 -->
<g id="edge45" class="edge"><title>Node27&#45;&gt;Node27</title>
<path fill="none" stroke="#63b8ff" d="M493.182,-308.083C480.135,-316.734 489.074,-326 520,-326 540.778,-326 551.632,-321.817 552.56,-316.448"/>
<polygon fill="#63b8ff" stroke="#63b8ff" points="555.363,-314.347 546.818,-308.083 549.592,-318.308 555.363,-314.347"/>
</g>
<!-- Node28&#45;&gt;Node26 -->
<g id="edge48" class="edge"><title>Node28&#45;&gt;Node26</title>
<path fill="none" stroke="#63b8ff" d="M378.12,-304.303C391.793,-307.276 407.91,-311.363 422,-316.5 438.806,-322.627 441.406,-327.818 458,-334.5 468.264,-338.633 479.79,-342.43 490.037,-345.525"/>
<polygon fill="#63b8ff" stroke="#63b8ff" points="489.183,-348.922 499.764,-348.373 491.15,-342.204 489.183,-348.922"/>
</g>
<!-- Node28&#45;&gt;Node27 -->
<g id="edge49" class="edge"><title>Node28&#45;&gt;Node27</title>
<path fill="none" stroke="#63b8ff" d="M378.148,-298.5C397.546,-298.5 423.334,-298.5 447.539,-298.5"/>
<polygon fill="#63b8ff" stroke="#63b8ff" points="447.793,-302 457.793,-298.5 447.793,-295 447.793,-302"/>
</g>
<!-- Node31&#45;&gt;Node31 -->
<g id="edge53" class="edge"><title>Node31&#45;&gt;Node31</title>
<path fill="none" stroke="#63b8ff" d="M319.182,-179.083C306.135,-187.734 315.074,-197 346,-197 366.778,-197 377.632,-192.817 378.56,-187.448"/>
<polygon fill="#63b8ff" stroke="#63b8ff" points="381.363,-185.347 372.818,-179.083 375.592,-189.308 381.363,-185.347"/>
</g>
<!-- Node33 -->
<g id="node33" class="node"><title>Node33</title>
<g id="a_node33"><a xlink:href="classore_1_1data_1_1_cap_floor_volatility_curve_config.html#a80db903e309cdeacd8484ccc4f0900eb" target="_top" xlink:title=" ">
<polygon fill="white" stroke="#666666" points="384.5,-142 307.5,-142 307.5,-123 384.5,-123 384.5,-142"/>
<text text-anchor="middle" x="346" y="-130" font-family="Helvetica,sans-Serif" font-size="10.00">discountCurve</text>
</a>
</g>
</g>
<!-- Node32&#45;&gt;Node33 -->
<g id="edge55" class="edge"><title>Node32&#45;&gt;Node33</title>
<path fill="none" stroke="#63b8ff" d="M226.144,-132.5C249.437,-132.5 275.424,-132.5 297.145,-132.5"/>
<polygon fill="#63b8ff" stroke="#63b8ff" points="297.434,-136 307.434,-132.5 297.434,-129 297.434,-136"/>
</g>
<!-- Node34 -->
<g id="node34" class="node"><title>Node34</title>
<g id="a_node34"><a xlink:href="group__curves.html#ga7c53f293f4ad98e691c6a93b6be26e9a" target="_top" xlink:title="function to convert a string into a curve spec">
<polygon fill="white" stroke="#666666" points="411.5,-105 280.5,-105 280.5,-86 411.5,-86 411.5,-105"/>
<text text-anchor="middle" x="346" y="-93" font-family="Helvetica,sans-Serif" font-size="10.00">ore::data::parseCurveSpec</text>
</a>
</g>
</g>
<!-- Node32&#45;&gt;Node34 -->
<g id="edge56" class="edge"><title>Node32&#45;&gt;Node34</title>
<path fill="none" stroke="#63b8ff" d="M209.87,-122.972C233.66,-118.135 262.759,-112.219 287.854,-107.118"/>
<polygon fill="#63b8ff" stroke="#63b8ff" points="288.871,-110.482 297.973,-105.06 287.476,-103.623 288.871,-110.482"/>
</g>
<!-- Node36 -->
<g id="node36" class="node"><title>Node36</title>
<g id="a_node36"><a xlink:href="group__utilities.html#ga6f1305f9488413a2a458413f16f4a90f" target="_top" xlink:title="Parse SabrParametricVolatility::ModelVariant.">
<polygon fill="white" stroke="#666666" points="422,-67.5 270,-67.5 270,-37.5 422,-37.5 422,-67.5"/>
<text text-anchor="start" x="278" y="-55.5" font-family="Helvetica,sans-Serif" font-size="10.00">ore::data::parseSabrParametric</text>
<text text-anchor="middle" x="346" y="-44.5" font-family="Helvetica,sans-Serif" font-size="10.00">VolatilityModelVariant</text>
</a>
</g>
</g>
<!-- Node35&#45;&gt;Node36 -->
<g id="edge58" class="edge"><title>Node35&#45;&gt;Node36</title>
<path fill="none" stroke="#63b8ff" d="M186.793,-52.5C205.504,-52.5 232.781,-52.5 259.433,-52.5"/>
<polygon fill="#63b8ff" stroke="#63b8ff" points="259.598,-56.0001 269.598,-52.5 259.598,-49.0001 259.598,-56.0001"/>
</g>
<!-- Node37 -->
<g id="node37" class="node"><title>Node37</title>
<g id="a_node37"><a xlink:href="group__utilities.html#ga5337b41aa68358864cf719c026c4be8c" target="_top" xlink:title=" ">
<polygon fill="white" stroke="#666666" points="395,-19 297,-19 297,-0 395,-0 395,-19"/>
<text text-anchor="middle" x="346" y="-7" font-family="Helvetica,sans-Serif" font-size="10.00">ore::data::tryParse</text>
</a>
</g>
</g>
<!-- Node35&#45;&gt;Node37 -->
<g id="edge59" class="edge"><title>Node35&#45;&gt;Node37</title>
<path fill="none" stroke="#63b8ff" d="M186.793,-46.8785C213.979,-40.4554 259.247,-29.7604 294.411,-21.4523"/>
<polygon fill="#63b8ff" stroke="#63b8ff" points="295.575,-24.7738 304.502,-19.0681 293.965,-17.9613 295.575,-24.7738"/>
</g>
</g>
</svg>
        <g id="navigator" transform="translate(0 0)" fill="#404254">
                <rect fill="#f2f5e9" fill-opacity="0.5" stroke="#606060" stroke-width=".5" x="0" y="0" width="60" height="60"/>
                <use id="zoomplus" xlink:href="#zoomPlus" x="17" y="9" onmousedown="handleZoom(evt,'in')"/>
                <use id="zoomminus" xlink:href="#zoomMin" x="42" y="9" onmousedown="handleZoom(evt,'out')"/>
                <use id="reset" xlink:href="#resetDef" x="30" y="36" onmousedown="handleReset()"/>
                <g id="arrowUp" xlink:href="#dirArrow" transform="translate(30 24)" onmousedown="handlePan(0,-1)">
                  <use xlink:href="#rim" fill="#404040">
                        <set attributeName="fill" to="#808080" begin="arrowUp.mouseover" end="arrowUp.mouseout"/>
                  </use>
                  <path fill="none" stroke="white" stroke-width="1.5" d="M0,-3.0v7 M-2.5,-0.5L0,-3.0L2.5,-0.5"/>
                </g>
                <g id="arrowRight" xlink:href="#dirArrow" transform="rotate(90) translate(36 -43)" onmousedown="handlePan(1,0)">
                  <use xlink:href="#rim" fill="#404040">
                        <set attributeName="fill" to="#808080" begin="arrowRight.mouseover" end="arrowRight.mouseout"/>
                  </use>
                  <path fill="none" stroke="white" stroke-width="1.5" d="M0,-3.0v7 M-2.5,-0.5L0,-3.0L2.5,-0.5"/>
                </g>
                <g id="arrowDown" xlink:href="#dirArrow" transform="rotate(180) translate(-30 -48)" onmousedown="handlePan(0,1)">
                  <use xlink:href="#rim" fill="#404040">
                        <set attributeName="fill" to="#808080" begin="arrowDown.mouseover" end="arrowDown.mouseout"/>
                  </use>
                  <path fill="none" stroke="white" stroke-width="1.5" d="M0,-3.0v7 M-2.5,-0.5L0,-3.0L2.5,-0.5"/>
                </g>
                <g id="arrowLeft" xlink:href="#dirArrow" transform="rotate(270) translate(-36 17)" onmousedown="handlePan(-1,0)">
                  <use xlink:href="#rim" fill="#404040">
                        <set attributeName="fill" to="#808080" begin="arrowLeft.mouseover" end="arrowLeft.mouseout"/>
                  </use>
                  <path fill="none" stroke="white" stroke-width="1.5" d="M0,-3.0v7 M-2.5,-0.5L0,-3.0L2.5,-0.5"/>
                </g>
        </g>
        <svg viewBox="0 0 15 15" width="100%" height="30px" preserveAspectRatio="xMaxYMin meet">
         <g id="arrow_out" transform="scale(0.3 0.3)">
          <a xlink:href="classore_1_1data_1_1_cap_floor_volatility_curve_config_a7741ae0fc924943de5bfe02928262eb7_cgraph_org.svg" target="_base">
           <rect id="button" ry="5" rx="5" y="6" x="6" height="38" width="38"
                fill="#f2f5e9" fill-opacity="0.5" stroke="#606060" stroke-width="1.0"/>
           <path id="arrow"
             d="M 11.500037,31.436501 C 11.940474,20.09759 22.043105,11.32322 32.158766,21.979434 L 37.068811,17.246167 C 37.068811,17.246167 37.088388,32 37.088388,32 L 22.160133,31.978069 C 22.160133,31.978069 26.997745,27.140456 26.997745,27.140456 C 18.528582,18.264221 13.291696,25.230495 11.500037,31.436501 z"
             style="fill:#404040;"/>
          </a>
         </g>
        </svg>
</svg>
