<?xml version="1.0" encoding="UTF-8" standalone="no"?>
<!DOCTYPE svg PUBLIC "-//W3C//DTD SVG 1.1//EN"
 "http://www.w3.org/Graphics/SVG/1.1/DTD/svg11.dtd">
<!-- Generated by graphviz version 2.38.0 (20140413.2041)
 -->
<!-- Title: name Pages: 1 -->
<svg width="608pt" height="892pt"
 viewBox="0.00 0.00 608.00 892.00" xmlns="http://www.w3.org/2000/svg" xmlns:xlink="http://www.w3.org/1999/xlink">
<g id="graph0" class="graph" transform="scale(1 1) rotate(0) translate(4 888)">
<title>name</title>
<!-- Node1 -->
<g id="node1" class="node"><title>Node1</title>
<g id="a_node1"><a xlink:title=" ">
<polygon fill="#999999" stroke="#666666" points="600,-422.5 559,-422.5 559,-403.5 600,-403.5 600,-422.5"/>
<text text-anchor="middle" x="579.5" y="-410.5" font-family="Helvetica,sans-Serif" font-size="10.00">name</text>
</a>
</g>
</g>
<!-- Node2 -->
<g id="node2" class="node"><title>Node2</title>
<g id="a_node2"><a xlink:href="classore_1_1data_1_1_equity_leg_data.html#af1bb5db9628445558a78bd0cd5c38bba" target="_top" xlink:title=" ">
<polygon fill="white" stroke="#666666" points="515,-356 390,-356 390,-326 515,-326 515,-356"/>
<text text-anchor="start" x="398" y="-344" font-family="Helvetica,sans-Serif" font-size="10.00">ore::data::EquityLegData</text>
<text text-anchor="middle" x="452.5" y="-333" font-family="Helvetica,sans-Serif" font-size="10.00">::eqName</text>
</a>
</g>
</g>
<!-- Node1&#45;&gt;Node2 -->
<g id="edge1" class="edge"><title>Node1&#45;&gt;Node2</title>
<path fill="none" stroke="#63b8ff" d="M553.076,-398.356C531.73,-386.061 501.348,-368.561 479.768,-356.131"/>
<polygon fill="#63b8ff" stroke="#63b8ff" points="551.489,-401.481 561.901,-403.439 554.983,-395.415 551.489,-401.481"/>
</g>
<!-- Node5 -->
<g id="node5" class="node"><title>Node5</title>
<g id="a_node5"><a xlink:href="classore_1_1data_1_1_equity_forward.html#a398b4036f4f0ab9e343bf252f50bc8e5" target="_top" xlink:title=" ">
<polygon fill="white" stroke="#666666" points="514,-476 391,-476 391,-446 514,-446 514,-476"/>
<text text-anchor="start" x="399" y="-464" font-family="Helvetica,sans-Serif" font-size="10.00">ore::data::EquityForward</text>
<text text-anchor="middle" x="452.5" y="-453" font-family="Helvetica,sans-Serif" font-size="10.00">::eqName</text>
</a>
</g>
</g>
<!-- Node1&#45;&gt;Node5 -->
<g id="edge4" class="edge"><title>Node1&#45;&gt;Node5</title>
<path fill="none" stroke="#63b8ff" d="M549.684,-425.952C541.149,-429.655 531.746,-433.605 523,-437 515.265,-440.003 506.978,-443.028 498.917,-445.871"/>
<polygon fill="#63b8ff" stroke="#63b8ff" points="551.122,-429.143 558.872,-421.919 548.308,-422.734 551.122,-429.143"/>
</g>
<!-- Node6 -->
<g id="node6" class="node"><title>Node6</title>
<g id="a_node6"><a xlink:href="classore_1_1data_1_1_equity_single_asset_derivative.html#a27aa6ffd197dc597bdde8499bcd3fabd" target="_top" xlink:title=" ">
<polygon fill="white" stroke="#666666" points="523,-692 382,-692 382,-662 523,-662 523,-692"/>
<text text-anchor="start" x="390" y="-680" font-family="Helvetica,sans-Serif" font-size="10.00">ore::data::EquitySingleAsset</text>
<text text-anchor="middle" x="452.5" y="-669" font-family="Helvetica,sans-Serif" font-size="10.00">Derivative::equityName</text>
</a>
</g>
</g>
<!-- Node1&#45;&gt;Node6 -->
<g id="edge5" class="edge"><title>Node1&#45;&gt;Node6</title>
<path fill="none" stroke="#63b8ff" d="M569.481,-432.049C545.773,-482.119 482.057,-616.688 460.637,-661.927"/>
<polygon fill="#63b8ff" stroke="#63b8ff" points="572.787,-433.245 573.903,-422.709 566.46,-430.249 572.787,-433.245"/>
</g>
<!-- Node15 -->
<g id="node15" class="node"><title>Node15</title>
<g id="a_node15"><a xlink:href="classore_1_1data_1_1_equity_option.html#a27aa6ffd197dc597bdde8499bcd3fabd" target="_top" xlink:title=" ">
<polygon fill="white" stroke="#666666" points="511,-428 394,-428 394,-398 511,-398 511,-428"/>
<text text-anchor="start" x="402" y="-416" font-family="Helvetica,sans-Serif" font-size="10.00">ore::data::EquityOption</text>
<text text-anchor="middle" x="452.5" y="-405" font-family="Helvetica,sans-Serif" font-size="10.00">::equityName</text>
</a>
</g>
</g>
<!-- Node1&#45;&gt;Node15 -->
<g id="edge14" class="edge"><title>Node1&#45;&gt;Node15</title>
<path fill="none" stroke="#63b8ff" d="M548.83,-413C537.539,-413 524.253,-413 511.243,-413"/>
<polygon fill="#63b8ff" stroke="#63b8ff" points="548.969,-416.5 558.969,-413 548.969,-409.5 548.969,-416.5"/>
</g>
<!-- Node20 -->
<g id="node20" class="node"><title>Node20</title>
<g id="a_node20"><a xlink:href="classore_1_1data_1_1_equity_underlying.html#a03f1abe9e9578f4e26433c530cb86592" target="_top" xlink:title="set name of equity">
<polygon fill="white" stroke="#666666" points="494,-216.5 411,-216.5 411,-197.5 494,-197.5 494,-216.5"/>
<text text-anchor="middle" x="452.5" y="-204.5" font-family="Helvetica,sans-Serif" font-size="10.00">setEquityName</text>
</a>
</g>
</g>
<!-- Node1&#45;&gt;Node20 -->
<g id="edge19" class="edge"><title>Node1&#45;&gt;Node20</title>
<path fill="none" stroke="#63b8ff" d="M568.183,-394.664C557.195,-375.251 539.191,-343.777 523,-317 500.325,-279.499 472.104,-235.664 459.765,-216.632"/>
<polygon fill="#63b8ff" stroke="#63b8ff" points="565.145,-396.402 573.109,-403.389 571.241,-392.96 565.145,-396.402"/>
</g>
<!-- Node3 -->
<g id="node3" class="node"><title>Node3</title>
<g id="a_node3"><a xlink:href="classore_1_1data_1_1_equity_leg_data.html#aa55a6bf5be064ea4e78dc2f7d7b871ac" target="_top" xlink:title="Constructor.">
<polygon fill="white" stroke="#666666" points="335,-356 210,-356 210,-326 335,-326 335,-356"/>
<text text-anchor="start" x="218" y="-344" font-family="Helvetica,sans-Serif" font-size="10.00">ore::data::EquityLegData</text>
<text text-anchor="middle" x="272.5" y="-333" font-family="Helvetica,sans-Serif" font-size="10.00">::EquityLegData</text>
</a>
</g>
</g>
<!-- Node2&#45;&gt;Node3 -->
<g id="edge2" class="edge"><title>Node2&#45;&gt;Node3</title>
<path fill="none" stroke="#63b8ff" d="M379.657,-341C364.905,-341 349.501,-341 335.147,-341"/>
<polygon fill="#63b8ff" stroke="#63b8ff" points="379.744,-344.5 389.744,-341 379.744,-337.5 379.744,-344.5"/>
</g>
<!-- Node4 -->
<g id="node4" class="node"><title>Node4</title>
<g id="a_node4"><a xlink:href="classore_1_1data_1_1_equity_leg_data.html#a7741ae0fc924943de5bfe02928262eb7" target="_top" xlink:title=" ">
<polygon fill="white" stroke="#666666" points="144,-366 19,-366 19,-336 144,-336 144,-366"/>
<text text-anchor="start" x="27" y="-354" font-family="Helvetica,sans-Serif" font-size="10.00">ore::data::EquityLegData</text>
<text text-anchor="middle" x="81.5" y="-343" font-family="Helvetica,sans-Serif" font-size="10.00">::fromXML</text>
</a>
</g>
</g>
<!-- Node2&#45;&gt;Node4 -->
<g id="edge3" class="edge"><title>Node2&#45;&gt;Node4</title>
<path fill="none" stroke="#63b8ff" d="M386.114,-323.741C372.925,-320.936 359.09,-318.47 346,-317 281.075,-309.708 263.676,-307.755 199,-317 195.454,-317.507 162.796,-327.071 132.959,-335.926"/>
<polygon fill="#63b8ff" stroke="#63b8ff" points="385.531,-327.197 396.051,-325.942 387.045,-320.362 385.531,-327.197"/>
</g>
<!-- Node7 -->
<g id="node7" class="node"><title>Node7</title>
<g id="a_node7"><a xlink:href="classore_1_1data_1_1_equity_double_barrier_option.html#abf512d7a65c0861e672e682da9b30c14" target="_top" xlink:title=" ">
<polygon fill="white" stroke="#666666" points="346,-548 199,-548 199,-518 346,-518 346,-548"/>
<text text-anchor="start" x="207" y="-536" font-family="Helvetica,sans-Serif" font-size="10.00">ore::data::EquityDoubleBarrier</text>
<text text-anchor="middle" x="272.5" y="-525" font-family="Helvetica,sans-Serif" font-size="10.00">Option::barrierPricingEngine</text>
</a>
</g>
</g>
<!-- Node6&#45;&gt;Node7 -->
<g id="edge6" class="edge"><title>Node6&#45;&gt;Node7</title>
<path fill="none" stroke="#63b8ff" d="M436.451,-653.331C418.156,-626.367 384.864,-582.722 346,-557 340.914,-553.634 335.315,-550.703 329.552,-548.159"/>
<polygon fill="#63b8ff" stroke="#63b8ff" points="433.618,-655.392 442.066,-661.786 439.449,-651.519 433.618,-655.392"/>
</g>
<!-- Node8 -->
<g id="node8" class="node"><title>Node8</title>
<g id="a_node8"><a xlink:href="classore_1_1data_1_1_equity_barrier_option.html#a4a219db903283c898c3faaa7bfda43ce" target="_top" xlink:title=" ">
<polygon fill="white" stroke="#666666" points="341.5,-884 203.5,-884 203.5,-854 341.5,-854 341.5,-884"/>
<text text-anchor="start" x="211.5" y="-872" font-family="Helvetica,sans-Serif" font-size="10.00">ore::data::EquityBarrier</text>
<text text-anchor="middle" x="272.5" y="-861" font-family="Helvetica,sans-Serif" font-size="10.00">Option::barrierPricingEngine</text>
</a>
</g>
</g>
<!-- Node6&#45;&gt;Node8 -->
<g id="edge7" class="edge"><title>Node6&#45;&gt;Node8</title>
<path fill="none" stroke="#63b8ff" d="M442.269,-701.916C427.479,-738.495 395.055,-806.544 346,-845 341.618,-848.436 336.722,-851.39 331.599,-853.928"/>
<polygon fill="#63b8ff" stroke="#63b8ff" points="445.575,-703.072 445.972,-692.484 439.06,-700.513 445.575,-703.072"/>
</g>
<!-- Node9 -->
<g id="node9" class="node"><title>Node9</title>
<g id="a_node9"><a xlink:href="classore_1_1data_1_1_equity_digital_option.html#af7b69d5b18d278257927e32b10a23ee6" target="_top" xlink:title="Build QuantLib/QuantExt instrument, link pricing engine.">
<polygon fill="white" stroke="#666666" points="330.5,-836 214.5,-836 214.5,-806 330.5,-806 330.5,-836"/>
<text text-anchor="start" x="222.5" y="-824" font-family="Helvetica,sans-Serif" font-size="10.00">ore::data::EquityDigital</text>
<text text-anchor="middle" x="272.5" y="-813" font-family="Helvetica,sans-Serif" font-size="10.00">Option::build</text>
</a>
</g>
</g>
<!-- Node6&#45;&gt;Node9 -->
<g id="edge8" class="edge"><title>Node6&#45;&gt;Node9</title>
<path fill="none" stroke="#63b8ff" d="M436.451,-700.669C418.156,-727.633 384.864,-771.278 346,-797 340.914,-800.366 335.315,-803.297 329.552,-805.841"/>
<polygon fill="#63b8ff" stroke="#63b8ff" points="439.449,-702.481 442.066,-692.214 433.618,-698.608 439.449,-702.481"/>
</g>
<!-- Node10 -->
<g id="node10" class="node"><title>Node10</title>
<g id="a_node10"><a xlink:href="classore_1_1data_1_1_equity_double_touch_option.html#af7b69d5b18d278257927e32b10a23ee6" target="_top" xlink:title="Build QuantLib/QuantExt instrument, link pricing engine.">
<polygon fill="white" stroke="#666666" points="345,-788 200,-788 200,-758 345,-758 345,-788"/>
<text text-anchor="start" x="208" y="-776" font-family="Helvetica,sans-Serif" font-size="10.00">ore::data::EquityDoubleTouch</text>
<text text-anchor="middle" x="272.5" y="-765" font-family="Helvetica,sans-Serif" font-size="10.00">Option::build</text>
</a>
</g>
</g>
<!-- Node6&#45;&gt;Node10 -->
<g id="edge9" class="edge"><title>Node6&#45;&gt;Node10</title>
<path fill="none" stroke="#63b8ff" d="M424.707,-698.399C404.12,-714.048 374.476,-734.917 346,-749 339.345,-752.291 332.132,-755.291 324.924,-757.97"/>
<polygon fill="#63b8ff" stroke="#63b8ff" points="426.89,-701.135 432.674,-692.259 422.617,-695.591 426.89,-701.135"/>
</g>
<!-- Node11 -->
<g id="node11" class="node"><title>Node11</title>
<g id="a_node11"><a xlink:href="classore_1_1data_1_1_equity_touch_option.html#af7b69d5b18d278257927e32b10a23ee6" target="_top" xlink:title="Build QuantLib/QuantExt instrument, link pricing engine.">
<polygon fill="white" stroke="#666666" points="344,-740 201,-740 201,-710 344,-710 344,-740"/>
<text text-anchor="start" x="209" y="-728" font-family="Helvetica,sans-Serif" font-size="10.00">ore::data::EquityTouchOption</text>
<text text-anchor="middle" x="272.5" y="-717" font-family="Helvetica,sans-Serif" font-size="10.00">::build</text>
</a>
</g>
</g>
<!-- Node6&#45;&gt;Node11 -->
<g id="edge10" class="edge"><title>Node6&#45;&gt;Node11</title>
<path fill="none" stroke="#63b8ff" d="M385.793,-694.719C367.175,-699.739 347.094,-705.154 329.134,-709.998"/>
<polygon fill="#63b8ff" stroke="#63b8ff" points="386.924,-698.039 395.668,-692.056 385.102,-691.28 386.924,-698.039"/>
</g>
<!-- Node12 -->
<g id="node12" class="node"><title>Node12</title>
<g id="a_node12"><a xlink:href="classore_1_1data_1_1_equity_option_with_barrier.html#a023906d726fdb4d1f906576fe597c579" target="_top" xlink:title=" ">
<polygon fill="white" stroke="#666666" points="341,-692 204,-692 204,-662 341,-662 341,-692"/>
<text text-anchor="start" x="212" y="-680" font-family="Helvetica,sans-Serif" font-size="10.00">ore::data::EquityOptionWith</text>
<text text-anchor="middle" x="272.5" y="-669" font-family="Helvetica,sans-Serif" font-size="10.00">Barrier::build</text>
</a>
</g>
</g>
<!-- Node6&#45;&gt;Node12 -->
<g id="edge11" class="edge"><title>Node6&#45;&gt;Node12</title>
<path fill="none" stroke="#63b8ff" d="M371.802,-677C361.613,-677 351.26,-677 341.285,-677"/>
<polygon fill="#63b8ff" stroke="#63b8ff" points="371.916,-680.5 381.916,-677 371.916,-673.5 371.916,-680.5"/>
</g>
<!-- Node13 -->
<g id="node13" class="node"><title>Node13</title>
<g id="a_node13"><a xlink:href="classore_1_1data_1_1_equity_barrier_option.html#a7ad57887e3623cfd71be55c4c19d0afe" target="_top" xlink:title="create the pricing engines">
<polygon fill="white" stroke="#666666" points="341,-644 204,-644 204,-614 341,-614 341,-644"/>
<text text-anchor="start" x="212" y="-632" font-family="Helvetica,sans-Serif" font-size="10.00">ore::data::EquityBarrier</text>
<text text-anchor="middle" x="272.5" y="-621" font-family="Helvetica,sans-Serif" font-size="10.00">Option::vanillaPricingEngine</text>
</a>
</g>
</g>
<!-- Node6&#45;&gt;Node13 -->
<g id="edge12" class="edge"><title>Node6&#45;&gt;Node13</title>
<path fill="none" stroke="#63b8ff" d="M385.793,-659.281C367.175,-654.261 347.094,-648.846 329.134,-644.002"/>
<polygon fill="#63b8ff" stroke="#63b8ff" points="385.102,-662.72 395.668,-661.944 386.924,-655.961 385.102,-662.72"/>
</g>
<!-- Node14 -->
<g id="node14" class="node"><title>Node14</title>
<g id="a_node14"><a xlink:href="classore_1_1data_1_1_equity_double_barrier_option.html#a7ad57887e3623cfd71be55c4c19d0afe" target="_top" xlink:title="create the pricing engines">
<polygon fill="white" stroke="#666666" points="346,-596 199,-596 199,-566 346,-566 346,-596"/>
<text text-anchor="start" x="207" y="-584" font-family="Helvetica,sans-Serif" font-size="10.00">ore::data::EquityDoubleBarrier</text>
<text text-anchor="middle" x="272.5" y="-573" font-family="Helvetica,sans-Serif" font-size="10.00">Option::vanillaPricingEngine</text>
</a>
</g>
</g>
<!-- Node6&#45;&gt;Node14 -->
<g id="edge13" class="edge"><title>Node6&#45;&gt;Node14</title>
<path fill="none" stroke="#63b8ff" d="M424.707,-655.601C404.12,-639.952 374.476,-619.083 346,-605 339.345,-601.709 332.132,-598.709 324.924,-596.03"/>
<polygon fill="#63b8ff" stroke="#63b8ff" points="422.617,-658.409 432.674,-661.741 426.89,-652.865 422.617,-658.409"/>
</g>
<!-- Node16 -->
<g id="node16" class="node"><title>Node16</title>
<g id="a_node16"><a xlink:href="classore_1_1data_1_1_equity_european_barrier_option.html#af7b69d5b18d278257927e32b10a23ee6" target="_top" xlink:title="Build QuantLib/QuantExt instrument, link pricing engine.">
<polygon fill="white" stroke="#666666" points="337.5,-452 207.5,-452 207.5,-422 337.5,-422 337.5,-452"/>
<text text-anchor="start" x="215.5" y="-440" font-family="Helvetica,sans-Serif" font-size="10.00">ore::data::EquityEuropean</text>
<text text-anchor="middle" x="272.5" y="-429" font-family="Helvetica,sans-Serif" font-size="10.00">BarrierOption::build</text>
</a>
</g>
</g>
<!-- Node15&#45;&gt;Node16 -->
<g id="edge15" class="edge"><title>Node15&#45;&gt;Node16</title>
<path fill="none" stroke="#63b8ff" d="M383.479,-422.171C368.475,-424.194 352.628,-426.331 337.778,-428.333"/>
<polygon fill="#63b8ff" stroke="#63b8ff" points="384.266,-425.597 393.709,-420.792 383.33,-418.66 384.266,-425.597"/>
</g>
<!-- Node17 -->
<g id="node17" class="node"><title>Node17</title>
<g id="a_node17"><a xlink:href="classore_1_1data_1_1_equity_option.html#af7b69d5b18d278257927e32b10a23ee6" target="_top" xlink:title="Build QuantLib/QuantExt instrument, link pricing engine.">
<polygon fill="white" stroke="#666666" points="331,-500 214,-500 214,-470 331,-470 331,-500"/>
<text text-anchor="start" x="222" y="-488" font-family="Helvetica,sans-Serif" font-size="10.00">ore::data::EquityOption</text>
<text text-anchor="middle" x="272.5" y="-477" font-family="Helvetica,sans-Serif" font-size="10.00">::build</text>
</a>
</g>
</g>
<!-- Node15&#45;&gt;Node17 -->
<g id="edge16" class="edge"><title>Node15&#45;&gt;Node17</title>
<path fill="none" stroke="#63b8ff" d="M393.09,-431.929C389.292,-433.54 385.565,-435.233 382,-437 364.771,-445.541 363.283,-452.569 346,-461 339.327,-464.255 332.104,-467.235 324.891,-469.903"/>
<polygon fill="#63b8ff" stroke="#63b8ff" points="394.645,-435.077 402.62,-428.102 392.036,-428.581 394.645,-435.077"/>
</g>
<!-- Node19 -->
<g id="node19" class="node"><title>Node19</title>
<g id="a_node19"><a xlink:href="classore_1_1data_1_1_equity_option.html#a5172c779c3cbbd760ae110e62e08bb35" target="_top" xlink:title="Add underlying Equity names.">
<polygon fill="white" stroke="#666666" points="331,-404 214,-404 214,-374 331,-374 331,-404"/>
<text text-anchor="start" x="222" y="-392" font-family="Helvetica,sans-Serif" font-size="10.00">ore::data::EquityOption</text>
<text text-anchor="middle" x="272.5" y="-381" font-family="Helvetica,sans-Serif" font-size="10.00">::underlyingIndices</text>
</a>
</g>
</g>
<!-- Node15&#45;&gt;Node19 -->
<g id="edge18" class="edge"><title>Node15&#45;&gt;Node19</title>
<path fill="none" stroke="#63b8ff" d="M383.641,-403.85C366.282,-401.51 347.784,-399.016 331.002,-396.753"/>
<polygon fill="#63b8ff" stroke="#63b8ff" points="383.33,-407.34 393.709,-405.208 384.266,-400.403 383.33,-407.34"/>
</g>
<!-- Node18 -->
<g id="node18" class="node"><title>Node18</title>
<g id="a_node18"><a xlink:href="equitytrades_8cpp.html#a9157b4f937ae04fa01bdd86ef531a15d" target="_top" xlink:title=" ">
<polygon fill="white" stroke="#666666" points="153,-494.5 10,-494.5 10,-475.5 153,-475.5 153,-494.5"/>
<text text-anchor="middle" x="81.5" y="-482.5" font-family="Helvetica,sans-Serif" font-size="10.00">BOOST_AUTO_TEST_CASE</text>
</a>
</g>
</g>
<!-- Node17&#45;&gt;Node18 -->
<g id="edge17" class="edge"><title>Node17&#45;&gt;Node18</title>
<path fill="none" stroke="#63b8ff" d="M203.724,-485C187.321,-485 169.747,-485 153.213,-485"/>
<polygon fill="#63b8ff" stroke="#63b8ff" points="203.767,-488.5 213.767,-485 203.767,-481.5 203.767,-488.5"/>
</g>
<!-- Node21 -->
<g id="node21" class="node"><title>Node21</title>
<g id="a_node21"><a xlink:href="classore_1_1data_1_1_equity_underlying.html#ad047dca63897f5d55f47d500968173ef" target="_top" xlink:title="Constructor with identifier information.">
<polygon fill="white" stroke="#666666" points="317.5,-179.5 227.5,-179.5 227.5,-160.5 317.5,-160.5 317.5,-179.5"/>
<text text-anchor="middle" x="272.5" y="-167.5" font-family="Helvetica,sans-Serif" font-size="10.00">EquityUnderlying</text>
</a>
</g>
</g>
<!-- Node20&#45;&gt;Node21 -->
<g id="edge20" class="edge"><title>Node20&#45;&gt;Node21</title>
<path fill="none" stroke="#63b8ff" d="M400.542,-196.408C374.338,-190.961 342.713,-184.387 317.572,-179.161"/>
<polygon fill="#63b8ff" stroke="#63b8ff" points="400.16,-199.903 410.663,-198.511 401.585,-193.049 400.16,-199.903"/>
</g>
<!-- Node22 -->
<g id="node22" class="node"><title>Node22</title>
<g id="a_node22"><a xlink:href="classore_1_1data_1_1_equity_underlying.html#a7741ae0fc924943de5bfe02928262eb7" target="_top" xlink:title=" ">
<polygon fill="white" stroke="#666666" points="299.5,-216.5 245.5,-216.5 245.5,-197.5 299.5,-197.5 299.5,-216.5"/>
<text text-anchor="middle" x="272.5" y="-204.5" font-family="Helvetica,sans-Serif" font-size="10.00">fromXML</text>
</a>
</g>
</g>
<!-- Node20&#45;&gt;Node22 -->
<g id="edge21" class="edge"><title>Node20&#45;&gt;Node22</title>
<path fill="none" stroke="#63b8ff" d="M400.292,-207C367.337,-207 325.891,-207 299.54,-207"/>
<polygon fill="#63b8ff" stroke="#63b8ff" points="400.663,-210.5 410.663,-207 400.663,-203.5 400.663,-210.5"/>
</g>
<!-- Node22&#45;&gt;Node4 -->
<g id="edge29" class="edge"><title>Node22&#45;&gt;Node4</title>
<path fill="none" stroke="#63b8ff" d="M254.876,-224.078C239.989,-239.507 217.688,-262.956 199,-284 182.45,-302.637 183.824,-313.304 163,-327 157.273,-330.766 150.936,-333.959 144.405,-336.661"/>
<polygon fill="#63b8ff" stroke="#63b8ff" points="257.485,-226.415 261.927,-216.796 252.457,-221.545 257.485,-226.415"/>
</g>
<!-- Node23 -->
<g id="node23" class="node"><title>Node23</title>
<g id="a_node23"><a xlink:href="classore_1_1data_1_1_equity_option_with_barrier.html#a32a53e87b35de4acfc761bbc6e559b93" target="_top" xlink:title=" ">
<polygon fill="white" stroke="#666666" points="150,-222 13,-222 13,-192 150,-192 150,-222"/>
<text text-anchor="start" x="21" y="-210" font-family="Helvetica,sans-Serif" font-size="10.00">ore::data::EquityOptionWith</text>
<text text-anchor="middle" x="81.5" y="-199" font-family="Helvetica,sans-Serif" font-size="10.00">Barrier::additionalFromXml</text>
</a>
</g>
</g>
<!-- Node22&#45;&gt;Node23 -->
<g id="edge22" class="edge"><title>Node22&#45;&gt;Node23</title>
<path fill="none" stroke="#63b8ff" d="M235.111,-207C211.035,-207 178.735,-207 150.05,-207"/>
<polygon fill="#63b8ff" stroke="#63b8ff" points="235.22,-210.5 245.22,-207 235.22,-203.5 235.22,-210.5"/>
</g>
<!-- Node24 -->
<g id="node24" class="node"><title>Node24</title>
<g id="a_node24"><a xlink:href="classore_1_1data_1_1_equity_digital_option.html#a7741ae0fc924943de5bfe02928262eb7" target="_top" xlink:title=" ">
<polygon fill="white" stroke="#666666" points="139.5,-174 23.5,-174 23.5,-144 139.5,-144 139.5,-174"/>
<text text-anchor="start" x="31.5" y="-162" font-family="Helvetica,sans-Serif" font-size="10.00">ore::data::EquityDigital</text>
<text text-anchor="middle" x="81.5" y="-151" font-family="Helvetica,sans-Serif" font-size="10.00">Option::fromXML</text>
</a>
</g>
</g>
<!-- Node22&#45;&gt;Node24 -->
<g id="edge23" class="edge"><title>Node22&#45;&gt;Node24</title>
<path fill="none" stroke="#63b8ff" d="M235.397,-197.831C208.33,-190.957 170.751,-181.413 139.623,-173.507"/>
<polygon fill="#63b8ff" stroke="#63b8ff" points="234.666,-201.257 245.22,-200.326 236.39,-194.472 234.666,-201.257"/>
</g>
<!-- Node25 -->
<g id="node25" class="node"><title>Node25</title>
<g id="a_node25"><a xlink:href="classore_1_1data_1_1_equity_double_touch_option.html#a7741ae0fc924943de5bfe02928262eb7" target="_top" xlink:title=" ">
<polygon fill="white" stroke="#666666" points="154,-126 9,-126 9,-96 154,-96 154,-126"/>
<text text-anchor="start" x="17" y="-114" font-family="Helvetica,sans-Serif" font-size="10.00">ore::data::EquityDoubleTouch</text>
<text text-anchor="middle" x="81.5" y="-103" font-family="Helvetica,sans-Serif" font-size="10.00">Option::fromXML</text>
</a>
</g>
</g>
<!-- Node22&#45;&gt;Node25 -->
<g id="edge24" class="edge"><title>Node22&#45;&gt;Node25</title>
<path fill="none" stroke="#63b8ff" d="M235.383,-202.798C223.013,-200.052 209.626,-195.51 199,-188 175.745,-171.566 185.977,-151.821 163,-135 158.293,-131.554 153.092,-128.599 147.665,-126.066"/>
<polygon fill="#63b8ff" stroke="#63b8ff" points="234.974,-206.283 245.451,-204.709 236.279,-199.406 234.974,-206.283"/>
</g>
<!-- Node26 -->
<g id="node26" class="node"><title>Node26</title>
<g id="a_node26"><a xlink:href="classore_1_1data_1_1_equity_european_barrier_option.html#a7741ae0fc924943de5bfe02928262eb7" target="_top" xlink:title=" ">
<polygon fill="white" stroke="#666666" points="146.5,-78 16.5,-78 16.5,-48 146.5,-48 146.5,-78"/>
<text text-anchor="start" x="24.5" y="-66" font-family="Helvetica,sans-Serif" font-size="10.00">ore::data::EquityEuropean</text>
<text text-anchor="middle" x="81.5" y="-55" font-family="Helvetica,sans-Serif" font-size="10.00">BarrierOption::fromXML</text>
</a>
</g>
</g>
<!-- Node22&#45;&gt;Node26 -->
<g id="edge25" class="edge"><title>Node22&#45;&gt;Node26</title>
<path fill="none" stroke="#63b8ff" d="M235.19,-204.429C222.429,-201.866 208.835,-197.023 199,-188 163.884,-155.784 197.573,-119.799 163,-87 158.239,-82.4833 152.664,-78.8129 146.709,-75.8309"/>
<polygon fill="#63b8ff" stroke="#63b8ff" points="234.729,-207.9 245.158,-206.033 235.841,-200.989 234.729,-207.9"/>
</g>
<!-- Node27 -->
<g id="node27" class="node"><title>Node27</title>
<g id="a_node27"><a xlink:href="classore_1_1data_1_1_equity_option.html#a7741ae0fc924943de5bfe02928262eb7" target="_top" xlink:title=" ">
<polygon fill="white" stroke="#666666" points="140,-30 23,-30 23,-0 140,-0 140,-30"/>
<text text-anchor="start" x="31" y="-18" font-family="Helvetica,sans-Serif" font-size="10.00">ore::data::EquityOption</text>
<text text-anchor="middle" x="81.5" y="-7" font-family="Helvetica,sans-Serif" font-size="10.00">::fromXML</text>
</a>
</g>
</g>
<!-- Node22&#45;&gt;Node27 -->
<g id="edge26" class="edge"><title>Node22&#45;&gt;Node27</title>
<path fill="none" stroke="#63b8ff" d="M235.255,-205.088C222.26,-202.622 208.491,-197.675 199,-188 151.292,-139.365 209.888,-88.4256 163,-39 156.777,-32.4403 148.847,-27.6502 140.401,-24.1574"/>
<polygon fill="#63b8ff" stroke="#63b8ff" points="235.013,-208.589 245.414,-206.575 236.027,-201.663 235.013,-208.589"/>
</g>
<!-- Node28 -->
<g id="node28" class="node"><title>Node28</title>
<g id="a_node28"><a xlink:href="classore_1_1data_1_1_equity_option_underlying_data.html#a7741ae0fc924943de5bfe02928262eb7" target="_top" xlink:title=" ">
<polygon fill="white" stroke="#666666" points="163,-318 0,-318 0,-288 163,-288 163,-318"/>
<text text-anchor="start" x="8" y="-306" font-family="Helvetica,sans-Serif" font-size="10.00">ore::data::EquityOptionUnderlying</text>
<text text-anchor="middle" x="81.5" y="-295" font-family="Helvetica,sans-Serif" font-size="10.00">Data::fromXML</text>
</a>
</g>
</g>
<!-- Node22&#45;&gt;Node28 -->
<g id="edge27" class="edge"><title>Node22&#45;&gt;Node28</title>
<path fill="none" stroke="#63b8ff" d="M251.383,-223.012C230.38,-239.07 195.964,-263.569 163,-279 155.868,-282.339 148.162,-285.337 140.443,-287.989"/>
<polygon fill="#63b8ff" stroke="#63b8ff" points="253.766,-225.593 259.52,-216.697 249.474,-220.063 253.766,-225.593"/>
</g>
<!-- Node29 -->
<g id="node29" class="node"><title>Node29</title>
<g id="a_node29"><a xlink:href="classore_1_1data_1_1_equity_touch_option.html#a7741ae0fc924943de5bfe02928262eb7" target="_top" xlink:title=" ">
<polygon fill="white" stroke="#666666" points="153,-270 10,-270 10,-240 153,-240 153,-270"/>
<text text-anchor="start" x="18" y="-258" font-family="Helvetica,sans-Serif" font-size="10.00">ore::data::EquityTouchOption</text>
<text text-anchor="middle" x="81.5" y="-247" font-family="Helvetica,sans-Serif" font-size="10.00">::fromXML</text>
</a>
</g>
</g>
<!-- Node22&#45;&gt;Node29 -->
<g id="edge28" class="edge"><title>Node22&#45;&gt;Node29</title>
<path fill="none" stroke="#63b8ff" d="M235.239,-216.209C208.755,-222.935 172.267,-232.202 141.596,-239.991"/>
<polygon fill="#63b8ff" stroke="#63b8ff" points="236.39,-219.528 245.22,-213.674 234.666,-212.743 236.39,-219.528"/>
</g>
</g>
</svg>
