<?xml version="1.0" encoding="UTF-8" standalone="no"?>
<!DOCTYPE svg PUBLIC "-//W3C//DTD SVG 1.1//EN"
 "http://www.w3.org/Graphics/SVG/1.1/DTD/svg11.dtd">
<!-- Generated by graphviz version 2.38.0 (20140413.2041)
 -->
<!-- Title: toXML Pages: 1 -->
<!--zoomable 302 -->
<svg id="main" version="1.1" xmlns="http://www.w3.org/2000/svg" xmlns:xlink="http://www.w3.org/1999/xlink" xml:space="preserve" onload="init(evt)">
<style type="text/css"><![CDATA[
.edge:hover path { stroke: red; }
.edge:hover polygon { stroke: red; fill: red; }
]]></style>
<script type="text/javascript"><![CDATA[
var edges = document.getElementsByTagName('g');
if (edges && edges.length) {
  for (var i=0;i<edges.length;i++) {
    if (edges[i].id.substr(0,4)=='edge') {
      edges[i].setAttribute('class','edge');
    }
  }
}
]]></script>
        <defs>
                <circle id="rim" cx="0" cy="0" r="7"/>
                <circle id="rim2" cx="0" cy="0" r="3.5"/>
                <g id="zoomPlus">
                        <use xlink:href="#rim" fill="#404040">
                                <set attributeName="fill" to="#808080" begin="zoomplus.mouseover" end="zoomplus.mouseout"/>
                        </use>
                        <path d="M-4,0h8M0,-4v8" fill="none" stroke="white" stroke-width="1.5" pointer-events="none"/>
                </g>
                <g id="zoomMin">
                        <use xlink:href="#rim" fill="#404040">
                                <set attributeName="fill" to="#808080" begin="zoomminus.mouseover" end="zoomminus.mouseout"/>
                        </use>
                        <path d="M-4,0h8" fill="none" stroke="white" stroke-width="1.5" pointer-events="none"/>
                </g>
                <g id="dirArrow">
                        <path fill="none" stroke="white" stroke-width="1.5" d="M0,-3.0v7 M-2.5,-0.5L0,-3.0L2.5,-0.5"/>
                </g>
               <g id="resetDef">
                       <use xlink:href="#rim2" fill="#404040">
                               <set attributeName="fill" to="#808080" begin="reset.mouseover" end="reset.mouseout"/>
                       </use>
               </g>
        </defs>

<script type="text/javascript">
var viewWidth = 850;
var viewHeight = 302;
var sectionId = 'dynsection-5';
</script>
<script xlink:href="svgpan.js"/>
<svg id="graph" class="graph">
<g id="viewport">
<title>toXML</title>
<!-- Node1 -->
<g id="node1" class="node"><title>Node1</title>
<g id="a_node1"><a xlink:title=" ">
<polygon fill="#999999" stroke="#666666" points="44,-189.984 0,-189.984 0,-170.984 44,-170.984 44,-189.984"/>
<text text-anchor="middle" x="22" y="-177.984" font-family="Helvetica,sans-Serif" font-size="10.00">toXML</text>
</a>
</g>
</g>
<!-- Node2 -->
<g id="node2" class="node"><title>Node2</title>
<g id="a_node2"><a xlink:href="classore_1_1data_1_1_x_m_l_utils.html#aced1fd4bd35df3642d8022301744b138" target="_top" xlink:title=" ">
<polygon fill="white" stroke="#666666" points="522,-129.484 423,-129.484 423,-99.484 522,-99.484 522,-129.484"/>
<text text-anchor="start" x="431" y="-117.484" font-family="Helvetica,sans-Serif" font-size="10.00">ore::data::XMLUtils</text>
<text text-anchor="middle" x="472.5" y="-106.484" font-family="Helvetica,sans-Serif" font-size="10.00">::addChild</text>
</a>
</g>
</g>
<!-- Node1&#45;&gt;Node2 -->
<g id="edge1" class="edge"><title>Node1&#45;&gt;Node2</title>
<path fill="none" stroke="#63b8ff" d="M31.0418,-170.585C41.1031,-159.035 59.5184,-140.497 80,-132.484 138.861,-109.456 318.482,-110.372 412.585,-112.607"/>
<polygon fill="#63b8ff" stroke="#63b8ff" points="412.712,-116.111 422.797,-112.862 412.887,-109.113 412.712,-116.111"/>
</g>
<!-- Node3 -->
<g id="node3" class="node"><title>Node3</title>
<g id="a_node3"><a xlink:href="classore_1_1data_1_1_x_m_l_document.html#a8717c517803f0df2e693e3cadefeafd7" target="_top" xlink:title="util functions that wrap rapidxml">
<polygon fill="white" stroke="#666666" points="682,-170.484 558,-170.484 558,-140.484 682,-140.484 682,-170.484"/>
<text text-anchor="start" x="566" y="-158.484" font-family="Helvetica,sans-Serif" font-size="10.00">ore::data::XMLDocument</text>
<text text-anchor="middle" x="620" y="-147.484" font-family="Helvetica,sans-Serif" font-size="10.00">::allocNode</text>
</a>
</g>
</g>
<!-- Node1&#45;&gt;Node3 -->
<g id="edge4" class="edge"><title>Node1&#45;&gt;Node3</title>
<path fill="none" stroke="#63b8ff" d="M27.3179,-190.064C35.1777,-206.221 53.493,-238.493 80,-252.484 200.775,-316.232 253.766,-295.47 387,-265.484 463.531,-248.26 544.477,-202.735 587.602,-175.958"/>
<polygon fill="#63b8ff" stroke="#63b8ff" points="589.61,-178.83 596.215,-170.546 585.886,-172.903 589.61,-178.83"/>
</g>
<!-- Node5 -->
<g id="node5" class="node"><title>Node5</title>
<g id="a_node5"><a xlink:href="classore_1_1data_1_1_x_m_l_utils.html#ae646b9cdf949a88f35c36c18bf90b370" target="_top" xlink:title=" ">
<polygon fill="white" stroke="#666666" points="375.5,-256.484 276.5,-256.484 276.5,-226.484 375.5,-226.484 375.5,-256.484"/>
<text text-anchor="start" x="284.5" y="-244.484" font-family="Helvetica,sans-Serif" font-size="10.00">ore::data::XMLUtils</text>
<text text-anchor="middle" x="326" y="-233.484" font-family="Helvetica,sans-Serif" font-size="10.00">::appendNode</text>
</a>
</g>
</g>
<!-- Node1&#45;&gt;Node5 -->
<g id="edge5" class="edge"><title>Node1&#45;&gt;Node5</title>
<path fill="none" stroke="#63b8ff" d="M31.0514,-190.358C41.1222,-201.885 59.5468,-220.399 80,-228.484 140.035,-252.216 214.857,-252.405 265.915,-248.608"/>
<polygon fill="#63b8ff" stroke="#63b8ff" points="266.436,-252.078 276.117,-247.773 265.864,-245.101 266.436,-252.078"/>
</g>
<!-- Node6 -->
<g id="node6" class="node"><title>Node6</title>
<g id="a_node6"><a xlink:href="classore_1_1data_1_1_one_dim_solver_config.html#a644718bb2fb240de962dc3c9a1fdf0dc" target="_top" xlink:title="Return true if default constructed and not populated i.e. no useful configuration.">
<polygon fill="white" stroke="#666666" points="229,-171.484 80,-171.484 80,-141.484 229,-141.484 229,-171.484"/>
<text text-anchor="start" x="88" y="-159.484" font-family="Helvetica,sans-Serif" font-size="10.00">ore::data::OneDimSolverConfig</text>
<text text-anchor="middle" x="154.5" y="-148.484" font-family="Helvetica,sans-Serif" font-size="10.00">::empty</text>
</a>
</g>
</g>
<!-- Node1&#45;&gt;Node6 -->
<g id="edge6" class="edge"><title>Node1&#45;&gt;Node6</title>
<path fill="none" stroke="#63b8ff" d="M44.2575,-176.575C51.6548,-175.214 60.4642,-173.594 69.8246,-171.873"/>
<polygon fill="#63b8ff" stroke="#63b8ff" points="70.5405,-175.3 79.7425,-170.049 69.2743,-168.415 70.5405,-175.3"/>
</g>
<!-- Node7 -->
<g id="node7" class="node"><title>Node7</title>
<g id="a_node7"><a xlink:href="classore_1_1data_1_1_one_dim_solver_config.html#a98c77e5a9e18de0cd031a56f97459774" target="_top" xlink:title=" ">
<polygon fill="white" stroke="#666666" points="229,-219.484 80,-219.484 80,-189.484 229,-189.484 229,-219.484"/>
<text text-anchor="start" x="88" y="-207.484" font-family="Helvetica,sans-Serif" font-size="10.00">ore::data::OneDimSolverConfig</text>
<text text-anchor="middle" x="154.5" y="-196.484" font-family="Helvetica,sans-Serif" font-size="10.00">::toXML</text>
</a>
</g>
</g>
<!-- Node1&#45;&gt;Node7 -->
<g id="edge7" class="edge"><title>Node1&#45;&gt;Node7</title>
<path fill="none" stroke="#63b8ff" d="M44.2575,-184.393C51.6548,-185.754 60.4642,-187.374 69.8246,-189.095"/>
<polygon fill="#63b8ff" stroke="#63b8ff" points="69.2743,-192.553 79.7425,-190.919 70.5405,-185.668 69.2743,-192.553"/>
</g>
<!-- Node8 -->
<g id="node8" class="node"><title>Node8</title>
<g id="a_node8"><a xlink:href="classore_1_1data_1_1_report_config.html#a7efefb9270d6c4933e4c96de0771f17a" target="_top" xlink:title=" ">
<polygon fill="white" stroke="#666666" points="212.5,-67.484 96.5,-67.484 96.5,-37.484 212.5,-37.484 212.5,-67.484"/>
<text text-anchor="start" x="104.5" y="-55.484" font-family="Helvetica,sans-Serif" font-size="10.00">ore::data::ReportConfig</text>
<text text-anchor="middle" x="154.5" y="-44.484" font-family="Helvetica,sans-Serif" font-size="10.00">::toXML</text>
</a>
</g>
</g>
<!-- Node1&#45;&gt;Node8 -->
<g id="edge11" class="edge"><title>Node1&#45;&gt;Node8</title>
<path fill="none" stroke="#63b8ff" d="M28.1266,-170.847C37.0605,-154.687 56.7649,-121.712 80,-99.484 90.5683,-89.3737 103.621,-80.2034 115.781,-72.7026"/>
<polygon fill="#63b8ff" stroke="#63b8ff" points="117.632,-75.6738 124.429,-67.5463 114.047,-69.6614 117.632,-75.6738"/>
</g>
<!-- Node2&#45;&gt;Node3 -->
<g id="edge2" class="edge"><title>Node2&#45;&gt;Node3</title>
<path fill="none" stroke="#63b8ff" d="M522.354,-128.25C533.081,-131.273 544.588,-134.516 555.789,-137.672"/>
<polygon fill="#63b8ff" stroke="#63b8ff" points="554.95,-141.072 565.525,-140.415 556.849,-134.334 554.95,-141.072"/>
</g>
<!-- Node4 -->
<g id="node4" class="node"><title>Node4</title>
<g id="a_node4"><a xlink:href="classore_1_1data_1_1_x_m_l_document.html#ae3474059e483990f3afea260096e5c90" target="_top" xlink:title=" ">
<polygon fill="white" stroke="#666666" points="842,-170.484 718,-170.484 718,-140.484 842,-140.484 842,-170.484"/>
<text text-anchor="start" x="726" y="-158.484" font-family="Helvetica,sans-Serif" font-size="10.00">ore::data::XMLDocument</text>
<text text-anchor="middle" x="780" y="-147.484" font-family="Helvetica,sans-Serif" font-size="10.00">::allocString</text>
</a>
</g>
</g>
<!-- Node3&#45;&gt;Node4 -->
<g id="edge3" class="edge"><title>Node3&#45;&gt;Node4</title>
<path fill="none" stroke="#63b8ff" d="M682.087,-155.484C690.513,-155.484 699.226,-155.484 707.815,-155.484"/>
<polygon fill="#63b8ff" stroke="#63b8ff" points="707.815,-158.984 717.815,-155.484 707.815,-151.984 707.815,-158.984"/>
</g>
<!-- Node7&#45;&gt;Node2 -->
<g id="edge8" class="edge"><title>Node7&#45;&gt;Node2</title>
<path fill="none" stroke="#63b8ff" d="M208.391,-189.42C264.945,-173.313 354.379,-147.841 413,-131.146"/>
<polygon fill="#63b8ff" stroke="#63b8ff" points="414.193,-134.445 422.852,-128.34 412.276,-127.713 414.193,-134.445"/>
</g>
<!-- Node7&#45;&gt;Node3 -->
<g id="edge9" class="edge"><title>Node7&#45;&gt;Node3</title>
<path fill="none" stroke="#63b8ff" d="M229.199,-196.693C316.667,-187.446 461.504,-172.134 547.842,-163.007"/>
<polygon fill="#63b8ff" stroke="#63b8ff" points="548.238,-166.484 557.815,-161.952 547.502,-159.523 548.238,-166.484"/>
</g>
<!-- Node7&#45;&gt;Node5 -->
<g id="edge10" class="edge"><title>Node7&#45;&gt;Node5</title>
<path fill="none" stroke="#63b8ff" d="M224.442,-219.533C238.319,-222.563 252.782,-225.72 266.272,-228.664"/>
<polygon fill="#63b8ff" stroke="#63b8ff" points="265.855,-232.156 276.371,-230.869 267.348,-225.317 265.855,-232.156"/>
</g>
<!-- Node8&#45;&gt;Node2 -->
<g id="edge12" class="edge"><title>Node8&#45;&gt;Node2</title>
<path fill="none" stroke="#63b8ff" d="M212.725,-63.7118C269.436,-74.8385 355.874,-91.7979 413.018,-103.01"/>
<polygon fill="#63b8ff" stroke="#63b8ff" points="412.495,-106.474 422.982,-104.965 413.843,-99.6048 412.495,-106.474"/>
</g>
<!-- Node8&#45;&gt;Node3 -->
<g id="edge15" class="edge"><title>Node8&#45;&gt;Node3</title>
<path fill="none" stroke="#63b8ff" d="M185.268,-37.2746C206.791,-27.164 236.906,-14.8025 265,-9.48403 318.276,0.601652 334.745,4.9897 387,-9.48403 471.956,-33.0154 555.436,-98.9352 595.095,-133.579"/>
<polygon fill="#63b8ff" stroke="#63b8ff" points="592.846,-136.263 602.654,-140.27 597.486,-131.022 592.846,-136.263"/>
</g>
<!-- Node9 -->
<g id="node9" class="node"><title>Node9</title>
<g id="a_node9"><a xlink:href="classore_1_1data_1_1_x_m_l_utils.html#a2ef0bac815571bbcdee4c53a33f8eefb" target="_top" xlink:title=" ">
<polygon fill="white" stroke="#666666" points="387,-48.484 265,-48.484 265,-18.484 387,-18.484 387,-48.484"/>
<text text-anchor="start" x="273" y="-36.484" font-family="Helvetica,sans-Serif" font-size="10.00">ore::data::XMLUtils</text>
<text text-anchor="middle" x="326" y="-25.484" font-family="Helvetica,sans-Serif" font-size="10.00">::addGenericChildAsList</text>
</a>
</g>
</g>
<!-- Node8&#45;&gt;Node9 -->
<g id="edge13" class="edge"><title>Node8&#45;&gt;Node9</title>
<path fill="none" stroke="#63b8ff" d="M212.885,-46.0515C226.332,-44.5441 240.809,-42.9213 254.747,-41.359"/>
<polygon fill="#63b8ff" stroke="#63b8ff" points="255.23,-44.8268 264.778,-40.2345 254.451,-37.8704 255.23,-44.8268"/>
</g>
<!-- Node9&#45;&gt;Node2 -->
<g id="edge14" class="edge"><title>Node9&#45;&gt;Node2</title>
<path fill="none" stroke="#63b8ff" d="M359.69,-48.5431C368.638,-52.8649 378.273,-57.7056 387,-62.484 404.682,-72.1654 423.857,-83.8625 439.464,-93.709"/>
<polygon fill="#63b8ff" stroke="#63b8ff" points="437.886,-96.8531 448.203,-99.2634 441.641,-90.9454 437.886,-96.8531"/>
</g>
</g>
</svg>
        <g id="navigator" transform="translate(0 0)" fill="#404254">
                <rect fill="#f2f5e9" fill-opacity="0.5" stroke="#606060" stroke-width=".5" x="0" y="0" width="60" height="60"/>
                <use id="zoomplus" xlink:href="#zoomPlus" x="17" y="9" onmousedown="handleZoom(evt,'in')"/>
                <use id="zoomminus" xlink:href="#zoomMin" x="42" y="9" onmousedown="handleZoom(evt,'out')"/>
                <use id="reset" xlink:href="#resetDef" x="30" y="36" onmousedown="handleReset()"/>
                <g id="arrowUp" xlink:href="#dirArrow" transform="translate(30 24)" onmousedown="handlePan(0,-1)">
                  <use xlink:href="#rim" fill="#404040">
                        <set attributeName="fill" to="#808080" begin="arrowUp.mouseover" end="arrowUp.mouseout"/>
                  </use>
                  <path fill="none" stroke="white" stroke-width="1.5" d="M0,-3.0v7 M-2.5,-0.5L0,-3.0L2.5,-0.5"/>
                </g>
                <g id="arrowRight" xlink:href="#dirArrow" transform="rotate(90) translate(36 -43)" onmousedown="handlePan(1,0)">
                  <use xlink:href="#rim" fill="#404040">
                        <set attributeName="fill" to="#808080" begin="arrowRight.mouseover" end="arrowRight.mouseout"/>
                  </use>
                  <path fill="none" stroke="white" stroke-width="1.5" d="M0,-3.0v7 M-2.5,-0.5L0,-3.0L2.5,-0.5"/>
                </g>
                <g id="arrowDown" xlink:href="#dirArrow" transform="rotate(180) translate(-30 -48)" onmousedown="handlePan(0,1)">
                  <use xlink:href="#rim" fill="#404040">
                        <set attributeName="fill" to="#808080" begin="arrowDown.mouseover" end="arrowDown.mouseout"/>
                  </use>
                  <path fill="none" stroke="white" stroke-width="1.5" d="M0,-3.0v7 M-2.5,-0.5L0,-3.0L2.5,-0.5"/>
                </g>
                <g id="arrowLeft" xlink:href="#dirArrow" transform="rotate(270) translate(-36 17)" onmousedown="handlePan(-1,0)">
                  <use xlink:href="#rim" fill="#404040">
                        <set attributeName="fill" to="#808080" begin="arrowLeft.mouseover" end="arrowLeft.mouseout"/>
                  </use>
                  <path fill="none" stroke="white" stroke-width="1.5" d="M0,-3.0v7 M-2.5,-0.5L0,-3.0L2.5,-0.5"/>
                </g>
        </g>
        <svg viewBox="0 0 15 15" width="100%" height="30px" preserveAspectRatio="xMaxYMin meet">
         <g id="arrow_out" transform="scale(0.3 0.3)">
          <a xlink:href="classore_1_1data_1_1_equity_volatility_curve_config_a7efefb9270d6c4933e4c96de0771f17a_cgraph_org.svg" target="_base">
           <rect id="button" ry="5" rx="5" y="6" x="6" height="38" width="38"
                fill="#f2f5e9" fill-opacity="0.5" stroke="#606060" stroke-width="1.0"/>
           <path id="arrow"
             d="M 11.500037,31.436501 C 11.940474,20.09759 22.043105,11.32322 32.158766,21.979434 L 37.068811,17.246167 C 37.068811,17.246167 37.088388,32 37.088388,32 L 22.160133,31.978069 C 22.160133,31.978069 26.997745,27.140456 26.997745,27.140456 C 18.528582,18.264221 13.291696,25.230495 11.500037,31.436501 z"
             style="fill:#404040;"/>
          </a>
         </g>
        </svg>
</svg>
