<?xml version="1.0" encoding="UTF-8" standalone="no"?>
<!DOCTYPE svg PUBLIC "-//W3C//DTD SVG 1.1//EN"
 "http://www.w3.org/Graphics/SVG/1.1/DTD/svg11.dtd">
<!-- Generated by graphviz version 2.38.0 (20140413.2041)
 -->
<!-- Title: buildVolatility Pages: 1 -->
<!--zoomable 1007 -->
<svg id="main" version="1.1" xmlns="http://www.w3.org/2000/svg" xmlns:xlink="http://www.w3.org/1999/xlink" xml:space="preserve" onload="init(evt)">
<style type="text/css"><![CDATA[
.edge:hover path { stroke: red; }
.edge:hover polygon { stroke: red; fill: red; }
]]></style>
<script type="text/javascript"><![CDATA[
var edges = document.getElementsByTagName('g');
if (edges && edges.length) {
  for (var i=0;i<edges.length;i++) {
    if (edges[i].id.substr(0,4)=='edge') {
      edges[i].setAttribute('class','edge');
    }
  }
}
]]></script>
        <defs>
                <circle id="rim" cx="0" cy="0" r="7"/>
                <circle id="rim2" cx="0" cy="0" r="3.5"/>
                <g id="zoomPlus">
                        <use xlink:href="#rim" fill="#404040">
                                <set attributeName="fill" to="#808080" begin="zoomplus.mouseover" end="zoomplus.mouseout"/>
                        </use>
                        <path d="M-4,0h8M0,-4v8" fill="none" stroke="white" stroke-width="1.5" pointer-events="none"/>
                </g>
                <g id="zoomMin">
                        <use xlink:href="#rim" fill="#404040">
                                <set attributeName="fill" to="#808080" begin="zoomminus.mouseover" end="zoomminus.mouseout"/>
                        </use>
                        <path d="M-4,0h8" fill="none" stroke="white" stroke-width="1.5" pointer-events="none"/>
                </g>
                <g id="dirArrow">
                        <path fill="none" stroke="white" stroke-width="1.5" d="M0,-3.0v7 M-2.5,-0.5L0,-3.0L2.5,-0.5"/>
                </g>
               <g id="resetDef">
                       <use xlink:href="#rim2" fill="#404040">
                               <set attributeName="fill" to="#808080" begin="reset.mouseover" end="reset.mouseout"/>
                       </use>
               </g>
        </defs>

<script type="text/javascript">
var viewWidth = 748;
var viewHeight = 1007;
var sectionId = 'dynsection-2';
</script>
<script xlink:href="svgpan.js"/>
<svg id="graph" class="graph">
<g id="viewport">
<title>buildVolatility</title>
<!-- Node1 -->
<g id="node1" class="node"><title>Node1</title>
<g id="a_node1"><a xlink:title="Build a volatility surface from a collection of expiry and strike delta pairs.">
<polygon fill="#999999" stroke="#666666" points="74,-521 0,-521 0,-502 74,-502 74,-521"/>
<text text-anchor="middle" x="37" y="-509" font-family="Helvetica,sans-Serif" font-size="10.00">buildVolatility</text>
</a>
</g>
</g>
<!-- Node2 -->
<g id="node2" class="node"><title>Node2</title>
<g id="a_node2"><a xlink:href="classore_1_1data_1_1_volatility_delta_surface_config.html#a90c9e6709d4483dd3115d3711b36e69e" target="_top" xlink:title=" ">
<polygon fill="white" stroke="#666666" points="257.5,-998.5 114.5,-998.5 114.5,-968.5 257.5,-968.5 257.5,-998.5"/>
<text text-anchor="start" x="122.5" y="-986.5" font-family="Helvetica,sans-Serif" font-size="10.00">ore::data::VolatilityDelta</text>
<text text-anchor="middle" x="186" y="-975.5" font-family="Helvetica,sans-Serif" font-size="10.00">SurfaceConfig::atmDeltaType</text>
</a>
</g>
</g>
<!-- Node1&#45;&gt;Node2 -->
<g id="edge1" class="edge"><title>Node1&#45;&gt;Node2</title>
<path fill="none" stroke="#63b8ff" d="M38.2186,-521.125C39.7424,-579.914 50.5484,-890.363 110,-959.5 110.735,-960.355 111.501,-961.18 112.295,-961.976"/>
<polygon fill="#63b8ff" stroke="#63b8ff" points="110.16,-964.751 120.114,-968.381 114.595,-959.336 110.16,-964.751"/>
</g>
<!-- Node3 -->
<g id="node3" class="node"><title>Node3</title>
<g id="a_node3"><a xlink:href="classore_1_1data_1_1_volatility_delta_surface_config.html#ac1df45ab0edf6303b3a7035109c56731" target="_top" xlink:title=" ">
<polygon fill="white" stroke="#666666" points="246.5,-950.5 125.5,-950.5 125.5,-920.5 246.5,-920.5 246.5,-950.5"/>
<text text-anchor="start" x="133.5" y="-938.5" font-family="Helvetica,sans-Serif" font-size="10.00">ore::data::VolatilityDelta</text>
<text text-anchor="middle" x="186" y="-927.5" font-family="Helvetica,sans-Serif" font-size="10.00">SurfaceConfig::atmType</text>
</a>
</g>
</g>
<!-- Node1&#45;&gt;Node3 -->
<g id="edge2" class="edge"><title>Node1&#45;&gt;Node3</title>
<path fill="none" stroke="#63b8ff" d="M38.4222,-521.151C41.0191,-576.228 56.5194,-850.473 110,-911.5 112.027,-913.813 114.278,-915.906 116.696,-917.797"/>
<polygon fill="#63b8ff" stroke="#63b8ff" points="115.19,-920.992 125.487,-923.489 118.995,-915.116 115.19,-920.992"/>
</g>
<!-- Node4 -->
<g id="node4" class="node"><title>Node4</title>
<g id="a_node4"><a xlink:href="classore_1_1data_1_1_volatility_delta_surface_config.html#a4a120c3eea08f21c354237dd4faa3e0c" target="_top" xlink:title=" ">
<polygon fill="white" stroke="#666666" points="248.5,-902.5 123.5,-902.5 123.5,-872.5 248.5,-872.5 248.5,-902.5"/>
<text text-anchor="start" x="131.5" y="-890.5" font-family="Helvetica,sans-Serif" font-size="10.00">ore::data::VolatilityDelta</text>
<text text-anchor="middle" x="186" y="-879.5" font-family="Helvetica,sans-Serif" font-size="10.00">SurfaceConfig::callDeltas</text>
</a>
</g>
</g>
<!-- Node1&#45;&gt;Node4 -->
<g id="edge3" class="edge"><title>Node1&#45;&gt;Node4</title>
<path fill="none" stroke="#63b8ff" d="M38.691,-521.312C42.4989,-572.713 62.5039,-810.579 110,-863.5 111.558,-865.236 113.242,-866.847 115.027,-868.343"/>
<polygon fill="#63b8ff" stroke="#63b8ff" points="113.225,-871.352 123.434,-874.184 117.219,-865.604 113.225,-871.352"/>
</g>
<!-- Node5 -->
<g id="node5" class="node"><title>Node5</title>
<g id="a_node5"><a xlink:href="classore_1_1data_1_1_equity_volatility_curve_config.html#a3d358ea6ebc33cd2ab59484401f77d54" target="_top" xlink:title=" ">
<polygon fill="white" stroke="#666666" points="249,-854.5 123,-854.5 123,-824.5 249,-824.5 249,-854.5"/>
<text text-anchor="start" x="131" y="-842.5" font-family="Helvetica,sans-Serif" font-size="10.00">ore::data::EquityVolatility</text>
<text text-anchor="middle" x="186" y="-831.5" font-family="Helvetica,sans-Serif" font-size="10.00">CurveConfig::ccy</text>
</a>
</g>
</g>
<!-- Node1&#45;&gt;Node5 -->
<g id="edge4" class="edge"><title>Node1&#45;&gt;Node5</title>
<path fill="none" stroke="#63b8ff" d="M39.0193,-521.193C44.1282,-568.034 68.3658,-770.523 110,-815.5 111.393,-817.005 112.88,-818.416 114.446,-819.739"/>
<polygon fill="#63b8ff" stroke="#63b8ff" points="112.66,-822.761 122.855,-825.646 116.684,-817.033 112.66,-822.761"/>
</g>
<!-- Node7 -->
<g id="node7" class="node"><title>Node7</title>
<g id="a_node7"><a xlink:href="classore_1_1data_1_1_volatility_delta_surface_config.html#a1a94512029afb513f987537604e7e305" target="_top" xlink:title=" ">
<polygon fill="white" stroke="#666666" points="248.5,-806.5 123.5,-806.5 123.5,-776.5 248.5,-776.5 248.5,-806.5"/>
<text text-anchor="start" x="131.5" y="-794.5" font-family="Helvetica,sans-Serif" font-size="10.00">ore::data::VolatilityDelta</text>
<text text-anchor="middle" x="186" y="-783.5" font-family="Helvetica,sans-Serif" font-size="10.00">SurfaceConfig::deltaType</text>
</a>
</g>
</g>
<!-- Node1&#45;&gt;Node7 -->
<g id="edge6" class="edge"><title>Node1&#45;&gt;Node7</title>
<path fill="none" stroke="#63b8ff" d="M37.6818,-521.181C37,-558.502 39.6259,-694.58 110,-767.5 111.581,-769.139 113.274,-770.665 115.058,-772.088"/>
<polygon fill="#63b8ff" stroke="#63b8ff" points="113.138,-775.015 123.392,-777.684 117.041,-769.204 113.138,-775.015"/>
</g>
<!-- Node8 -->
<g id="node8" class="node"><title>Node8</title>
<g id="a_node8"><a xlink:href="classore_1_1data_1_1_equity_volatility_curve_config.html#a82cfb7dd4e47b2580a5c8696465b5fdb" target="_top" xlink:title=" ">
<polygon fill="white" stroke="#666666" points="249,-758.5 123,-758.5 123,-728.5 249,-728.5 249,-758.5"/>
<text text-anchor="start" x="131" y="-746.5" font-family="Helvetica,sans-Serif" font-size="10.00">ore::data::EquityVolatility</text>
<text text-anchor="middle" x="186" y="-735.5" font-family="Helvetica,sans-Serif" font-size="10.00">CurveConfig::equityId</text>
</a>
</g>
</g>
<!-- Node1&#45;&gt;Node8 -->
<g id="edge7" class="edge"><title>Node1&#45;&gt;Node8</title>
<path fill="none" stroke="#63b8ff" d="M38.4261,-521.379C40.3894,-554.402 51.2252,-662.093 110,-719.5 111.43,-720.897 112.942,-722.213 114.521,-723.452"/>
<polygon fill="#63b8ff" stroke="#63b8ff" points="112.648,-726.41 122.913,-729.032 116.524,-720.581 112.648,-726.41"/>
</g>
<!-- Node9 -->
<g id="node9" class="node"><title>Node9</title>
<g id="a_node9"><a xlink:href="classore_1_1data_1_1_volatility_delta_surface_config.html#a8d9a468ec5da7bf937ed55a0fddff280" target="_top" xlink:title=" ">
<polygon fill="white" stroke="#666666" points="246.5,-710.5 125.5,-710.5 125.5,-680.5 246.5,-680.5 246.5,-710.5"/>
<text text-anchor="start" x="133.5" y="-698.5" font-family="Helvetica,sans-Serif" font-size="10.00">ore::data::VolatilityDelta</text>
<text text-anchor="middle" x="186" y="-687.5" font-family="Helvetica,sans-Serif" font-size="10.00">SurfaceConfig::expiries</text>
</a>
</g>
</g>
<!-- Node1&#45;&gt;Node9 -->
<g id="edge8" class="edge"><title>Node1&#45;&gt;Node9</title>
<path fill="none" stroke="#63b8ff" d="M39.5167,-521.015C44.4019,-548.524 62.2829,-628.898 110,-671.5 112.008,-673.293 114.15,-674.951 116.395,-676.486"/>
<polygon fill="#63b8ff" stroke="#63b8ff" points="115.093,-679.78 125.49,-681.814 118.631,-673.74 115.093,-679.78"/>
</g>
<!-- Node10 -->
<g id="node10" class="node"><title>Node10</title>
<g id="a_node10"><a xlink:href="classore_1_1data_1_1_volatility_surface_config.html#a7dd47beba239c5ffec6a4a50f4110664" target="_top" xlink:title=" ">
<polygon fill="white" stroke="#666666" points="251.5,-662.5 120.5,-662.5 120.5,-632.5 251.5,-632.5 251.5,-662.5"/>
<text text-anchor="start" x="128.5" y="-650.5" font-family="Helvetica,sans-Serif" font-size="10.00">ore::data::VolatilitySurface</text>
<text text-anchor="middle" x="186" y="-639.5" font-family="Helvetica,sans-Serif" font-size="10.00">Config::extrapolation</text>
</a>
</g>
</g>
<!-- Node1&#45;&gt;Node10 -->
<g id="edge9" class="edge"><title>Node1&#45;&gt;Node10</title>
<path fill="none" stroke="#63b8ff" d="M41.5637,-521.193C50.0091,-542.826 73.3245,-595.353 110,-623.5 111.806,-624.886 113.695,-626.194 115.648,-627.427"/>
<polygon fill="#63b8ff" stroke="#63b8ff" points="114.121,-630.582 124.564,-632.371 117.516,-624.461 114.121,-630.582"/>
</g>
<!-- Node11 -->
<g id="node11" class="node"><title>Node11</title>
<g id="a_node11"><a xlink:href="classore_1_1data_1_1_loader.html#a19d9f6f808db2631247ec12ffe291225" target="_top" xlink:title="get quote by its unique name, throws if not existent, override in derived classes for performance">
<polygon fill="white" stroke="#666666" points="241,-614 131,-614 131,-595 241,-595 241,-614"/>
<text text-anchor="middle" x="186" y="-602" font-family="Helvetica,sans-Serif" font-size="10.00">ore::data::Loader::get</text>
</a>
</g>
</g>
<!-- Node1&#45;&gt;Node11 -->
<g id="edge10" class="edge"><title>Node1&#45;&gt;Node11</title>
<path fill="none" stroke="#63b8ff" d="M44.4908,-521.249C55.7981,-537.43 80.7198,-569.709 110,-586.5 113.494,-588.504 117.202,-590.285 121.026,-591.868"/>
<polygon fill="#63b8ff" stroke="#63b8ff" points="120.12,-595.264 130.714,-595.411 122.524,-588.689 120.12,-595.264"/>
</g>
<!-- Node13 -->
<g id="node13" class="node"><title>Node13</title>
<g id="a_node13"><a xlink:href="group__utilities.html#gac646d7e5cbc09cb6e4f094729a07558b" target="_top" xlink:title="Convert text to QuantLib::DeltaVolQuote::AtmType.">
<polygon fill="white" stroke="#666666" points="248,-577 124,-577 124,-558 248,-558 248,-577"/>
<text text-anchor="middle" x="186" y="-565" font-family="Helvetica,sans-Serif" font-size="10.00">ore::data::parseAtmType</text>
</a>
</g>
</g>
<!-- Node1&#45;&gt;Node13 -->
<g id="edge12" class="edge"><title>Node1&#45;&gt;Node13</title>
<path fill="none" stroke="#63b8ff" d="M53.4823,-521.133C67.7151,-529.629 89.6332,-541.82 110,-549.5 115.538,-551.588 121.4,-553.492 127.309,-555.213"/>
<polygon fill="#63b8ff" stroke="#63b8ff" points="126.678,-558.669 137.248,-557.936 128.528,-551.918 126.678,-558.669"/>
</g>
<!-- Node14 -->
<g id="node14" class="node"><title>Node14</title>
<g id="a_node14"><a xlink:href="group__utilities.html#gafea498a41f014bd2031e10d3df7891a1" target="_top" xlink:title="Convert text to QuantLib::DeltaVolQuote::DeltaType.">
<polygon fill="white" stroke="#666666" points="250,-540 122,-540 122,-521 250,-521 250,-540"/>
<text text-anchor="middle" x="186" y="-528" font-family="Helvetica,sans-Serif" font-size="10.00">ore::data::parseDeltaType</text>
</a>
</g>
</g>
<!-- Node1&#45;&gt;Node14 -->
<g id="edge13" class="edge"><title>Node1&#45;&gt;Node14</title>
<path fill="none" stroke="#63b8ff" d="M74.3371,-516.197C85.7871,-517.677 98.8699,-519.368 111.934,-521.056"/>
<polygon fill="#63b8ff" stroke="#63b8ff" points="111.528,-524.533 121.894,-522.343 112.425,-517.59 111.528,-524.533"/>
</g>
<!-- Node15 -->
<g id="node15" class="node"><title>Node15</title>
<g id="a_node15"><a xlink:href="namespaceore_1_1data.html#aef9033372c401fe3ddef3c912a716d5a" target="_top" xlink:title="Parse an Expiry from its string representation, strExpiry.">
<polygon fill="white" stroke="#666666" points="242.5,-503 129.5,-503 129.5,-484 242.5,-484 242.5,-503"/>
<text text-anchor="middle" x="186" y="-491" font-family="Helvetica,sans-Serif" font-size="10.00">ore::data::parseExpiry</text>
</a>
</g>
</g>
<!-- Node1&#45;&gt;Node15 -->
<g id="edge14" class="edge"><title>Node1&#45;&gt;Node15</title>
<path fill="none" stroke="#63b8ff" d="M74.3371,-507.051C87.9372,-505.385 103.841,-503.438 119.281,-501.547"/>
<polygon fill="#63b8ff" stroke="#63b8ff" points="119.832,-505.006 129.332,-500.316 118.981,-498.058 119.832,-505.006"/>
</g>
<!-- Node21 -->
<g id="node21" class="node"><title>Node21</title>
<g id="a_node21"><a xlink:href="namespaceore_1_1data.html#aec1b45a4f7d2f40e0800b91d415b94fc" target="_top" xlink:title="Parse Extrapolation from string.">
<polygon fill="white" stroke="#666666" points="257,-466 115,-466 115,-447 257,-447 257,-466"/>
<text text-anchor="middle" x="186" y="-454" font-family="Helvetica,sans-Serif" font-size="10.00">ore::data::parseExtrapolation</text>
</a>
</g>
</g>
<!-- Node1&#45;&gt;Node21 -->
<g id="edge22" class="edge"><title>Node1&#45;&gt;Node21</title>
<path fill="none" stroke="#63b8ff" d="M54.7035,-501.852C69.0084,-493.908 90.3504,-482.804 110,-475.5 116.514,-473.079 123.458,-470.86 130.392,-468.861"/>
<polygon fill="#63b8ff" stroke="#63b8ff" points="131.775,-472.111 140.493,-466.092 129.924,-465.361 131.775,-472.111"/>
</g>
<!-- Node22 -->
<g id="node22" class="node"><title>Node22</title>
<g id="a_node22"><a xlink:href="group__utilities.html#gad1db2a68f9a73667c3b4084d63955bdd" target="_top" xlink:title="Convert text to Real.">
<polygon fill="white" stroke="#666666" points="238,-411 134,-411 134,-392 238,-392 238,-411"/>
<text text-anchor="middle" x="186" y="-399" font-family="Helvetica,sans-Serif" font-size="10.00">ore::data::parseReal</text>
</a>
</g>
</g>
<!-- Node1&#45;&gt;Node22 -->
<g id="edge23" class="edge"><title>Node1&#45;&gt;Node22</title>
<path fill="none" stroke="#63b8ff" d="M45.5804,-501.974C57.8668,-486.996 83.4438,-457.672 110,-438.5 122.599,-429.405 137.771,-421.447 151.164,-415.266"/>
<polygon fill="#63b8ff" stroke="#63b8ff" points="152.83,-418.356 160.539,-411.089 149.98,-411.962 152.83,-418.356"/>
</g>
<!-- Node23 -->
<g id="node23" class="node"><title>Node23</title>
<g id="a_node23"><a xlink:href="classore_1_1data_1_1_volatility_delta_surface_config.html#a33b74d1218630afe6949c5e2355f0569" target="_top" xlink:title=" ">
<polygon fill="white" stroke="#666666" points="248,-373.5 124,-373.5 124,-343.5 248,-343.5 248,-373.5"/>
<text text-anchor="start" x="132" y="-361.5" font-family="Helvetica,sans-Serif" font-size="10.00">ore::data::VolatilityDelta</text>
<text text-anchor="middle" x="186" y="-350.5" font-family="Helvetica,sans-Serif" font-size="10.00">SurfaceConfig::putDeltas</text>
</a>
</g>
</g>
<!-- Node1&#45;&gt;Node23 -->
<g id="edge25" class="edge"><title>Node1&#45;&gt;Node23</title>
<path fill="none" stroke="#63b8ff" d="M40.7402,-501.9C47.9837,-478.233 69.8877,-416.611 110,-383.5 112.038,-381.818 114.193,-380.248 116.436,-378.782"/>
<polygon fill="#63b8ff" stroke="#63b8ff" points="118.516,-381.625 125.467,-373.629 115.047,-375.545 118.516,-381.625"/>
</g>
<!-- Node24 -->
<g id="node24" class="node"><title>Node24</title>
<g id="a_node24"><a xlink:href="classore_1_1data_1_1_curve_config.html#a69738e85aa491109ae0e57fd5833aebb" target="_top" xlink:title="Return all the market quotes required for this config.">
<polygon fill="white" stroke="#666666" points="242,-325.5 130,-325.5 130,-295.5 242,-295.5 242,-325.5"/>
<text text-anchor="start" x="138" y="-313.5" font-family="Helvetica,sans-Serif" font-size="10.00">ore::data::CurveConfig</text>
<text text-anchor="middle" x="186" y="-302.5" font-family="Helvetica,sans-Serif" font-size="10.00">::quotes</text>
</a>
</g>
</g>
<!-- Node1&#45;&gt;Node24 -->
<g id="edge26" class="edge"><title>Node1&#45;&gt;Node24</title>
<path fill="none" stroke="#63b8ff" d="M39.0769,-501.846C42.8859,-472.312 58.401,-382.289 110,-334.5 113.305,-331.439 117.002,-328.768 120.936,-326.438"/>
<polygon fill="#63b8ff" stroke="#63b8ff" points="122.561,-329.538 129.863,-321.862 119.367,-323.309 122.561,-329.538"/>
</g>
<!-- Node25 -->
<g id="node25" class="node"><title>Node25</title>
<g id="a_node25"><a xlink:href="classore_1_1data_1_1_quote_based_volatility_config.html#a385c53054b5d8a065ba24438db33e705" target="_top" xlink:title=" ">
<polygon fill="white" stroke="#666666" points="262,-277.5 110,-277.5 110,-247.5 262,-247.5 262,-277.5"/>
<text text-anchor="start" x="118" y="-265.5" font-family="Helvetica,sans-Serif" font-size="10.00">ore::data::QuoteBasedVolatility</text>
<text text-anchor="middle" x="186" y="-254.5" font-family="Helvetica,sans-Serif" font-size="10.00">Config::quoteType</text>
</a>
</g>
</g>
<!-- Node1&#45;&gt;Node25 -->
<g id="edge27" class="edge"><title>Node1&#45;&gt;Node25</title>
<path fill="none" stroke="#63b8ff" d="M38.1222,-501.807C39.0918,-467.342 47.0676,-349.432 110,-286.5 110.952,-285.548 111.941,-284.634 112.964,-283.757"/>
<polygon fill="#63b8ff" stroke="#63b8ff" points="115.303,-286.386 121.387,-277.712 111.222,-280.699 115.303,-286.386"/>
</g>
<!-- Node26 -->
<g id="node26" class="node"><title>Node26</title>
<g id="a_node26"><a xlink:href="classore_1_1data_1_1_volatility_surface_config.html#ab066a0686be5c8dc20430121a7c7147d" target="_top" xlink:title=" ">
<polygon fill="white" stroke="#666666" points="251.5,-229.5 120.5,-229.5 120.5,-199.5 251.5,-199.5 251.5,-229.5"/>
<text text-anchor="start" x="128.5" y="-217.5" font-family="Helvetica,sans-Serif" font-size="10.00">ore::data::VolatilitySurface</text>
<text text-anchor="middle" x="186" y="-206.5" font-family="Helvetica,sans-Serif" font-size="10.00">Config::strikeExtrapolation</text>
</a>
</g>
</g>
<!-- Node1&#45;&gt;Node26 -->
<g id="edge28" class="edge"><title>Node1&#45;&gt;Node26</title>
<path fill="none" stroke="#63b8ff" d="M37.4869,-501.992C35.9467,-463.435 35.4125,-317.058 110,-238.5 110.927,-237.524 111.893,-236.588 112.894,-235.689"/>
<polygon fill="#63b8ff" stroke="#63b8ff" points="115.254,-238.296 121.188,-229.519 111.076,-232.68 115.254,-238.296"/>
</g>
<!-- Node27 -->
<g id="node27" class="node"><title>Node27</title>
<g id="a_node27"><a xlink:href="classore_1_1data_1_1_volatility_surface_config.html#aad34d8325ea5f1822af8c7a550880411" target="_top" xlink:title=" ">
<polygon fill="white" stroke="#666666" points="251.5,-181.5 120.5,-181.5 120.5,-151.5 251.5,-151.5 251.5,-181.5"/>
<text text-anchor="start" x="128.5" y="-169.5" font-family="Helvetica,sans-Serif" font-size="10.00">ore::data::VolatilitySurface</text>
<text text-anchor="middle" x="186" y="-158.5" font-family="Helvetica,sans-Serif" font-size="10.00">Config::strikeInterpolation</text>
</a>
</g>
</g>
<!-- Node1&#45;&gt;Node27 -->
<g id="edge29" class="edge"><title>Node1&#45;&gt;Node27</title>
<path fill="none" stroke="#63b8ff" d="M38.8782,-501.917C43.476,-453.73 66.2482,-238.333 110,-190.5 110.882,-189.535 111.803,-188.609 112.759,-187.72"/>
<polygon fill="#63b8ff" stroke="#63b8ff" points="114.911,-190.481 120.695,-181.605 110.638,-184.936 114.911,-190.481"/>
</g>
<!-- Node28 -->
<g id="node28" class="node"><title>Node28</title>
<g id="a_node28"><a xlink:href="classore_1_1data_1_1_volatility_surface_config.html#af0ab27eac5840f868d415cb197da2cf5" target="_top" xlink:title=" ">
<polygon fill="white" stroke="#666666" points="251.5,-133.5 120.5,-133.5 120.5,-103.5 251.5,-103.5 251.5,-133.5"/>
<text text-anchor="start" x="128.5" y="-121.5" font-family="Helvetica,sans-Serif" font-size="10.00">ore::data::VolatilitySurface</text>
<text text-anchor="middle" x="186" y="-110.5" font-family="Helvetica,sans-Serif" font-size="10.00">Config::timeExtrapolation</text>
</a>
</g>
</g>
<!-- Node1&#45;&gt;Node28 -->
<g id="edge30" class="edge"><title>Node1&#45;&gt;Node28</title>
<path fill="none" stroke="#63b8ff" d="M38.5764,-501.916C41.9103,-449.548 60.3346,-198.345 110,-142.5 110.869,-141.523 111.777,-140.586 112.721,-139.686"/>
<polygon fill="#63b8ff" stroke="#63b8ff" points="114.886,-142.437 120.586,-133.506 110.561,-136.933 114.886,-142.437"/>
</g>
<!-- Node29 -->
<g id="node29" class="node"><title>Node29</title>
<g id="a_node29"><a xlink:href="classore_1_1data_1_1_volatility_surface_config.html#a13c055eb05fe7ed1272d0021b11a7d61" target="_top" xlink:title=" ">
<polygon fill="white" stroke="#666666" points="251.5,-85.5 120.5,-85.5 120.5,-55.5 251.5,-55.5 251.5,-85.5"/>
<text text-anchor="start" x="128.5" y="-73.5" font-family="Helvetica,sans-Serif" font-size="10.00">ore::data::VolatilitySurface</text>
<text text-anchor="middle" x="186" y="-62.5" font-family="Helvetica,sans-Serif" font-size="10.00">Config::timeInterpolation</text>
</a>
</g>
</g>
<!-- Node1&#45;&gt;Node29 -->
<g id="edge31" class="edge"><title>Node1&#45;&gt;Node29</title>
<path fill="none" stroke="#63b8ff" d="M38.3465,-501.813C40.5572,-445.289 54.4222,-158.377 110,-94.5 110.74,-93.6491 111.511,-92.8281 112.309,-92.036"/>
<polygon fill="#63b8ff" stroke="#63b8ff" points="114.604,-94.6807 120.159,-85.6585 110.19,-89.2477 114.604,-94.6807"/>
</g>
<!-- Node30 -->
<g id="node30" class="node"><title>Node30</title>
<g id="a_node30"><a xlink:href="namespaceore_1_1data.html#a86651dfeb5c18ee891f7a4734d8cf455" target="_top" xlink:title=" ">
<polygon fill="white" stroke="#666666" points="235,-19 137,-19 137,-0 235,-0 235,-19"/>
<text text-anchor="middle" x="186" y="-7" font-family="Helvetica,sans-Serif" font-size="10.00">ore::data::to_string</text>
</a>
</g>
</g>
<!-- Node1&#45;&gt;Node30 -->
<g id="edge32" class="edge"><title>Node1&#45;&gt;Node30</title>
<path fill="none" stroke="#63b8ff" d="M38.315,-501.633C40.4143,-441.347 54.0586,-122.734 110,-46.5 117.591,-36.1551 128.879,-28.5433 140.407,-23.0103"/>
<polygon fill="#63b8ff" stroke="#63b8ff" points="141.856,-26.1968 149.637,-19.0061 139.07,-19.775 141.856,-26.1968"/>
</g>
<!-- Node6 -->
<g id="node6" class="node"><title>Node6</title>
<g id="a_node6"><a xlink:href="group__utilities.html#ga5816082aca07feca7ec905758bd09392" target="_top" xlink:title="Convert text to QuantLib::Currency.">
<polygon fill="white" stroke="#666666" points="431.5,-854.5 307.5,-854.5 307.5,-824.5 431.5,-824.5 431.5,-854.5"/>
<text text-anchor="start" x="315.5" y="-842.5" font-family="Helvetica,sans-Serif" font-size="10.00">ore::data::parseCurrency</text>
<text text-anchor="middle" x="369.5" y="-831.5" font-family="Helvetica,sans-Serif" font-size="10.00">WithMinors</text>
</a>
</g>
</g>
<!-- Node5&#45;&gt;Node6 -->
<g id="edge5" class="edge"><title>Node5&#45;&gt;Node6</title>
<path fill="none" stroke="#63b8ff" d="M249.208,-839.5C264.613,-839.5 281.239,-839.5 297.047,-839.5"/>
<polygon fill="#63b8ff" stroke="#63b8ff" points="297.295,-843 307.295,-839.5 297.295,-836 297.295,-843"/>
</g>
<!-- Node12 -->
<g id="node12" class="node"><title>Node12</title>
<g id="a_node12"><a xlink:href="classore_1_1data_1_1_loader.html#a0086c4f946085ef0b9d5c56bd1539f91" target="_top" xlink:title="get all quotes, TODO change the return value to std::set">
<polygon fill="white" stroke="#666666" points="417.5,-619.5 321.5,-619.5 321.5,-589.5 417.5,-589.5 417.5,-619.5"/>
<text text-anchor="start" x="329.5" y="-607.5" font-family="Helvetica,sans-Serif" font-size="10.00">ore::data::Loader::</text>
<text text-anchor="middle" x="369.5" y="-596.5" font-family="Helvetica,sans-Serif" font-size="10.00">loadQuotes</text>
</a>
</g>
</g>
<!-- Node11&#45;&gt;Node12 -->
<g id="edge11" class="edge"><title>Node11&#45;&gt;Node12</title>
<path fill="none" stroke="#63b8ff" d="M241.456,-604.5C263.55,-604.5 289.081,-604.5 311.434,-604.5"/>
<polygon fill="#63b8ff" stroke="#63b8ff" points="311.457,-608 321.457,-604.5 311.457,-601 311.457,-608"/>
</g>
<!-- Node16 -->
<g id="node16" class="node"><title>Node16</title>
<g id="a_node16"><a xlink:href="group__utilities.html#ga6477391407eac174ea49df689ecf1ab2" target="_top" xlink:title="Convert text to QuantLib::Period or QuantLib::Date.">
<polygon fill="white" stroke="#666666" points="441,-503 298,-503 298,-484 441,-484 441,-503"/>
<text text-anchor="middle" x="369.5" y="-491" font-family="Helvetica,sans-Serif" font-size="10.00">ore::data::parseDateOrPeriod</text>
</a>
</g>
</g>
<!-- Node15&#45;&gt;Node16 -->
<g id="edge15" class="edge"><title>Node15&#45;&gt;Node16</title>
<path fill="none" stroke="#63b8ff" d="M242.937,-493.5C257.07,-493.5 272.531,-493.5 287.623,-493.5"/>
<polygon fill="#63b8ff" stroke="#63b8ff" points="287.991,-497 297.991,-493.5 287.991,-490 287.991,-497"/>
</g>
<!-- Node17 -->
<g id="node17" class="node"><title>Node17</title>
<g id="a_node17"><a xlink:href="group__utilities.html#ga59b5fdda574d90facae95dec2d13040d" target="_top" xlink:title="Convert std::string to QuantLib::Date.">
<polygon fill="white" stroke="#666666" points="586,-522 481,-522 481,-503 586,-503 586,-522"/>
<text text-anchor="middle" x="533.5" y="-510" font-family="Helvetica,sans-Serif" font-size="10.00">ore::data::parseDate</text>
</a>
</g>
</g>
<!-- Node16&#45;&gt;Node17 -->
<g id="edge16" class="edge"><title>Node16&#45;&gt;Node17</title>
<path fill="none" stroke="#63b8ff" d="M441.084,-501.778C450.956,-502.936 461.038,-504.119 470.73,-505.255"/>
<polygon fill="#63b8ff" stroke="#63b8ff" points="470.325,-508.732 480.664,-506.421 471.14,-501.779 470.325,-508.732"/>
</g>
<!-- Node20 -->
<g id="node20" class="node"><title>Node20</title>
<g id="a_node20"><a xlink:href="group__utilities.html#ga8e0623e2cb01e250e9cfec4619256208" target="_top" xlink:title="Convert text to QuantLib::Period.">
<polygon fill="white" stroke="#666666" points="590,-485 477,-485 477,-466 590,-466 590,-485"/>
<text text-anchor="middle" x="533.5" y="-473" font-family="Helvetica,sans-Serif" font-size="10.00">ore::data::parsePeriod</text>
</a>
</g>
</g>
<!-- Node16&#45;&gt;Node20 -->
<g id="edge21" class="edge"><title>Node16&#45;&gt;Node20</title>
<path fill="none" stroke="#63b8ff" d="M441.084,-485.657C449.571,-484.714 458.212,-483.754 466.628,-482.819"/>
<polygon fill="#63b8ff" stroke="#63b8ff" points="467.204,-486.277 476.756,-481.694 466.43,-479.32 467.204,-486.277"/>
</g>
<!-- Node17&#45;&gt;Node17 -->
<g id="edge17" class="edge"><title>Node17&#45;&gt;Node17</title>
<path fill="none" stroke="#63b8ff" d="M510.689,-522.083C499.592,-530.734 507.195,-540 533.5,-540 550.351,-540 559.528,-536.197 561.03,-531.189"/>
<polygon fill="#63b8ff" stroke="#63b8ff" points="564.019,-529.352 556.311,-522.083 557.804,-532.572 564.019,-529.352"/>
</g>
<!-- Node18 -->
<g id="node18" class="node"><title>Node18</title>
<g id="a_node18"><a xlink:href="group__utilities.html#gaecd67eda4fb5f4859bb8f6d383547721" target="_top" xlink:title="Convert text to QuantLib::Integer.">
<polygon fill="white" stroke="#666666" points="740,-541 626,-541 626,-522 740,-522 740,-541"/>
<text text-anchor="middle" x="683" y="-529" font-family="Helvetica,sans-Serif" font-size="10.00">ore::data::parseInteger</text>
</a>
</g>
</g>
<!-- Node17&#45;&gt;Node18 -->
<g id="edge18" class="edge"><title>Node17&#45;&gt;Node18</title>
<path fill="none" stroke="#63b8ff" d="M586.088,-519.145C595.746,-520.389 605.962,-521.705 615.986,-522.997"/>
<polygon fill="#63b8ff" stroke="#63b8ff" points="615.553,-526.469 625.918,-524.276 616.447,-519.527 615.553,-526.469"/>
</g>
<!-- Node19 -->
<g id="node19" class="node"><title>Node19</title>
<g id="a_node19"><a xlink:href="namespaceore_1_1data.html#a777e216dee6069b548bb87da7152699e" target="_top" xlink:title=" ">
<polygon fill="white" stroke="#666666" points="722.5,-504 643.5,-504 643.5,-485 722.5,-485 722.5,-504"/>
<text text-anchor="middle" x="683" y="-492" font-family="Helvetica,sans-Serif" font-size="10.00">ore::data::size</text>
</a>
</g>
</g>
<!-- Node17&#45;&gt;Node19 -->
<g id="edge20" class="edge"><title>Node17&#45;&gt;Node19</title>
<path fill="none" stroke="#63b8ff" d="M586.088,-506.204C601.343,-504.343 617.992,-502.311 633.074,-500.471"/>
<polygon fill="#63b8ff" stroke="#63b8ff" points="633.726,-503.917 643.228,-499.231 632.878,-496.969 633.726,-503.917"/>
</g>
<!-- Node18&#45;&gt;Node18 -->
<g id="edge19" class="edge"><title>Node18&#45;&gt;Node18</title>
<path fill="none" stroke="#63b8ff" d="M660.189,-541.083C649.092,-549.734 656.695,-559 683,-559 699.851,-559 709.028,-555.197 710.53,-550.189"/>
<polygon fill="#63b8ff" stroke="#63b8ff" points="713.519,-548.352 705.811,-541.083 707.304,-551.572 713.519,-548.352"/>
</g>
<!-- Node22&#45;&gt;Node22 -->
<g id="edge24" class="edge"><title>Node22&#45;&gt;Node22</title>
<path fill="none" stroke="#63b8ff" d="M163.189,-411.083C152.092,-419.734 159.695,-429 186,-429 202.851,-429 212.028,-425.197 213.53,-420.189"/>
<polygon fill="#63b8ff" stroke="#63b8ff" points="216.519,-418.352 208.811,-411.083 210.304,-421.572 216.519,-418.352"/>
</g>
<!-- Node30&#45;&gt;Node30 -->
<g id="edge33" class="edge"><title>Node30&#45;&gt;Node30</title>
<path fill="none" stroke="#63b8ff" d="M163.189,-19.0828C152.092,-27.7337 159.695,-37 186,-37 202.851,-37 212.028,-33.1971 213.53,-28.1894"/>
<polygon fill="#63b8ff" stroke="#63b8ff" points="216.519,-26.3515 208.811,-19.0828 210.304,-29.5719 216.519,-26.3515"/>
</g>
</g>
</svg>
        <g id="navigator" transform="translate(0 0)" fill="#404254">
                <rect fill="#f2f5e9" fill-opacity="0.5" stroke="#606060" stroke-width=".5" x="0" y="0" width="60" height="60"/>
                <use id="zoomplus" xlink:href="#zoomPlus" x="17" y="9" onmousedown="handleZoom(evt,'in')"/>
                <use id="zoomminus" xlink:href="#zoomMin" x="42" y="9" onmousedown="handleZoom(evt,'out')"/>
                <use id="reset" xlink:href="#resetDef" x="30" y="36" onmousedown="handleReset()"/>
                <g id="arrowUp" xlink:href="#dirArrow" transform="translate(30 24)" onmousedown="handlePan(0,-1)">
                  <use xlink:href="#rim" fill="#404040">
                        <set attributeName="fill" to="#808080" begin="arrowUp.mouseover" end="arrowUp.mouseout"/>
                  </use>
                  <path fill="none" stroke="white" stroke-width="1.5" d="M0,-3.0v7 M-2.5,-0.5L0,-3.0L2.5,-0.5"/>
                </g>
                <g id="arrowRight" xlink:href="#dirArrow" transform="rotate(90) translate(36 -43)" onmousedown="handlePan(1,0)">
                  <use xlink:href="#rim" fill="#404040">
                        <set attributeName="fill" to="#808080" begin="arrowRight.mouseover" end="arrowRight.mouseout"/>
                  </use>
                  <path fill="none" stroke="white" stroke-width="1.5" d="M0,-3.0v7 M-2.5,-0.5L0,-3.0L2.5,-0.5"/>
                </g>
                <g id="arrowDown" xlink:href="#dirArrow" transform="rotate(180) translate(-30 -48)" onmousedown="handlePan(0,1)">
                  <use xlink:href="#rim" fill="#404040">
                        <set attributeName="fill" to="#808080" begin="arrowDown.mouseover" end="arrowDown.mouseout"/>
                  </use>
                  <path fill="none" stroke="white" stroke-width="1.5" d="M0,-3.0v7 M-2.5,-0.5L0,-3.0L2.5,-0.5"/>
                </g>
                <g id="arrowLeft" xlink:href="#dirArrow" transform="rotate(270) translate(-36 17)" onmousedown="handlePan(-1,0)">
                  <use xlink:href="#rim" fill="#404040">
                        <set attributeName="fill" to="#808080" begin="arrowLeft.mouseover" end="arrowLeft.mouseout"/>
                  </use>
                  <path fill="none" stroke="white" stroke-width="1.5" d="M0,-3.0v7 M-2.5,-0.5L0,-3.0L2.5,-0.5"/>
                </g>
        </g>
        <svg viewBox="0 0 15 15" width="100%" height="30px" preserveAspectRatio="xMaxYMin meet">
         <g id="arrow_out" transform="scale(0.3 0.3)">
          <a xlink:href="classore_1_1data_1_1_equity_vol_curve_afff043fce577f592f6a660001d412371_cgraph_org.svg" target="_base">
           <rect id="button" ry="5" rx="5" y="6" x="6" height="38" width="38"
                fill="#f2f5e9" fill-opacity="0.5" stroke="#606060" stroke-width="1.0"/>
           <path id="arrow"
             d="M 11.500037,31.436501 C 11.940474,20.09759 22.043105,11.32322 32.158766,21.979434 L 37.068811,17.246167 C 37.068811,17.246167 37.088388,32 37.088388,32 L 22.160133,31.978069 C 22.160133,31.978069 26.997745,27.140456 26.997745,27.140456 C 18.528582,18.264221 13.291696,25.230495 11.500037,31.436501 z"
             style="fill:#404040;"/>
          </a>
         </g>
        </svg>
</svg>
