<?xml version="1.0" encoding="UTF-8" standalone="no"?>
<!DOCTYPE svg PUBLIC "-//W3C//DTD SVG 1.1//EN"
 "http://www.w3.org/Graphics/SVG/1.1/DTD/svg11.dtd">
<!-- Generated by graphviz version 2.38.0 (20140413.2041)
 -->
<!-- Title: paymentDate Pages: 1 -->
<svg width="533pt" height="227pt"
 viewBox="0.00 0.00 533.00 227.00" xmlns="http://www.w3.org/2000/svg" xmlns:xlink="http://www.w3.org/1999/xlink">
<g id="graph0" class="graph" transform="scale(1 1) rotate(0) translate(4 223)">
<title>paymentDate</title>
<!-- Node1 -->
<g id="node1" class="node"><title>Node1</title>
<g id="a_node1"><a xlink:title=" ">
<polygon fill="#999999" stroke="#666666" points="525,-167.5 451,-167.5 451,-148.5 525,-148.5 525,-167.5"/>
<text text-anchor="middle" x="488" y="-155.5" font-family="Helvetica,sans-Serif" font-size="10.00">paymentDate</text>
</a>
</g>
</g>
<!-- Node2 -->
<g id="node2" class="node"><title>Node2</title>
<g id="a_node2"><a xlink:href="classore_1_1data_1_1_equity_option.html#af7b69d5b18d278257927e32b10a23ee6" target="_top" xlink:title="Build QuantLib/QuantExt instrument, link pricing engine.">
<polygon fill="white" stroke="#666666" points="328,-219 211,-219 211,-189 328,-189 328,-219"/>
<text text-anchor="start" x="219" y="-207" font-family="Helvetica,sans-Serif" font-size="10.00">ore::data::EquityOption</text>
<text text-anchor="middle" x="269.5" y="-196" font-family="Helvetica,sans-Serif" font-size="10.00">::build</text>
</a>
</g>
</g>
<!-- Node1&#45;&gt;Node2 -->
<g id="edge1" class="edge"><title>Node1&#45;&gt;Node2</title>
<path fill="none" stroke="#63b8ff" d="M440.931,-167.788C407.972,-174.791 363.378,-184.266 328.072,-191.768"/>
<polygon fill="#63b8ff" stroke="#63b8ff" points="441.709,-171.201 450.763,-165.699 440.254,-164.354 441.709,-171.201"/>
</g>
<!-- Node4 -->
<g id="node4" class="node"><title>Node4</title>
<g id="a_node4"><a xlink:href="classore_1_1data_1_1_fx_option.html#af7b69d5b18d278257927e32b10a23ee6" target="_top" xlink:title="Build QuantLib/QuantExt instrument, link pricing engine.">
<polygon fill="white" stroke="#666666" points="320,-171 219,-171 219,-141 320,-141 320,-171"/>
<text text-anchor="start" x="227" y="-159" font-family="Helvetica,sans-Serif" font-size="10.00">ore::data::FxOption</text>
<text text-anchor="middle" x="269.5" y="-148" font-family="Helvetica,sans-Serif" font-size="10.00">::build</text>
</a>
</g>
</g>
<!-- Node1&#45;&gt;Node4 -->
<g id="edge3" class="edge"><title>Node1&#45;&gt;Node4</title>
<path fill="none" stroke="#63b8ff" d="M440.687,-157.572C405.263,-157.245 356.502,-156.794 320.251,-156.46"/>
<polygon fill="#63b8ff" stroke="#63b8ff" points="440.731,-161.073 450.763,-157.665 440.796,-154.073 440.731,-161.073"/>
</g>
<!-- Node6 -->
<g id="node6" class="node"><title>Node6</title>
<g id="a_node6"><a xlink:href="classore_1_1data_1_1_vanilla_option_trade.html#af7b69d5b18d278257927e32b10a23ee6" target="_top" xlink:title="Build QuantLib/QuantExt instrument, link pricing engine.">
<polygon fill="white" stroke="#666666" points="415,-129.5 378,-129.5 378,-110.5 415,-110.5 415,-129.5"/>
<text text-anchor="middle" x="396.5" y="-117.5" font-family="Helvetica,sans-Serif" font-size="10.00">build</text>
</a>
</g>
</g>
<!-- Node1&#45;&gt;Node6 -->
<g id="edge5" class="edge"><title>Node1&#45;&gt;Node6</title>
<path fill="none" stroke="#63b8ff" d="M455.047,-144.433C441.672,-138.755 426.632,-132.369 415.283,-127.55"/>
<polygon fill="#63b8ff" stroke="#63b8ff" points="453.843,-147.724 464.415,-148.411 456.579,-141.281 453.843,-147.724"/>
</g>
<!-- Node3 -->
<g id="node3" class="node"><title>Node3</title>
<g id="a_node3"><a xlink:href="equitytrades_8cpp.html#a9157b4f937ae04fa01bdd86ef531a15d" target="_top" xlink:title=" ">
<polygon fill="white" stroke="#666666" points="152,-213.5 9,-213.5 9,-194.5 152,-194.5 152,-213.5"/>
<text text-anchor="middle" x="80.5" y="-201.5" font-family="Helvetica,sans-Serif" font-size="10.00">BOOST_AUTO_TEST_CASE</text>
</a>
</g>
</g>
<!-- Node2&#45;&gt;Node3 -->
<g id="edge2" class="edge"><title>Node2&#45;&gt;Node3</title>
<path fill="none" stroke="#63b8ff" d="M200.666,-204C184.877,-204 168.029,-204 152.123,-204"/>
<polygon fill="#63b8ff" stroke="#63b8ff" points="200.868,-207.5 210.868,-204 200.868,-200.5 200.868,-207.5"/>
</g>
<!-- Node5 -->
<g id="node5" class="node"><title>Node5</title>
<g id="a_node5"><a xlink:href="test_2fxoption_8cpp.html#a321417ba3c97d0524c8fa2d8acb97d72" target="_top" xlink:title=" ">
<polygon fill="white" stroke="#666666" points="152,-165.5 9,-165.5 9,-146.5 152,-146.5 152,-165.5"/>
<text text-anchor="middle" x="80.5" y="-153.5" font-family="Helvetica,sans-Serif" font-size="10.00">BOOST_AUTO_TEST_CASE</text>
</a>
</g>
</g>
<!-- Node4&#45;&gt;Node5 -->
<g id="edge4" class="edge"><title>Node4&#45;&gt;Node5</title>
<path fill="none" stroke="#63b8ff" d="M208.796,-156C190.765,-156 170.795,-156 152.123,-156"/>
<polygon fill="#63b8ff" stroke="#63b8ff" points="208.878,-159.5 218.878,-156 208.878,-152.5 208.878,-159.5"/>
</g>
<!-- Node6&#45;&gt;Node2 -->
<g id="edge8" class="edge"><title>Node6&#45;&gt;Node2</title>
<path fill="none" stroke="#63b8ff" d="M383.499,-137.876C373.734,-151.178 358.848,-168.884 342,-180 336.863,-183.389 331.203,-186.343 325.384,-188.907"/>
<polygon fill="#63b8ff" stroke="#63b8ff" points="386.499,-139.695 389.402,-129.506 380.778,-135.661 386.499,-139.695"/>
</g>
<!-- Node6&#45;&gt;Node4 -->
<g id="edge9" class="edge"><title>Node6&#45;&gt;Node4</title>
<path fill="none" stroke="#63b8ff" d="M367.885,-127.953C353.868,-131.99 336.406,-137.019 320.155,-141.699"/>
<polygon fill="#63b8ff" stroke="#63b8ff" points="369.215,-131.212 377.856,-125.082 367.278,-124.486 369.215,-131.212"/>
</g>
<!-- Node7 -->
<g id="node7" class="node"><title>Node7</title>
<g id="a_node7"><a xlink:href="classore_1_1data_1_1_equity_future_option.html#af7b69d5b18d278257927e32b10a23ee6" target="_top" xlink:title="Build QuantLib/QuantExt instrument, link pricing engine.">
<polygon fill="white" stroke="#666666" points="342,-123 197,-123 197,-93 342,-93 342,-123"/>
<text text-anchor="start" x="205" y="-111" font-family="Helvetica,sans-Serif" font-size="10.00">ore::data::EquityFutureOption</text>
<text text-anchor="middle" x="269.5" y="-100" font-family="Helvetica,sans-Serif" font-size="10.00">::build</text>
</a>
</g>
</g>
<!-- Node6&#45;&gt;Node7 -->
<g id="edge6" class="edge"><title>Node6&#45;&gt;Node7</title>
<path fill="none" stroke="#63b8ff" d="M367.689,-117.33C359.951,-116.587 351.174,-115.745 342.138,-114.877"/>
<polygon fill="#63b8ff" stroke="#63b8ff" points="367.567,-120.834 377.856,-118.306 368.236,-113.866 367.567,-120.834"/>
</g>
<!-- Node9 -->
<g id="node9" class="node"><title>Node9</title>
<g id="a_node9"><a xlink:href="classore_1_1data_1_1_commodity_option.html#a82238405f67248d44bb177a6951c8c2e" target="_top" xlink:title="Build underlying instrument and link pricing engine.">
<polygon fill="white" stroke="#666666" points="339,-75 200,-75 200,-45 339,-45 339,-75"/>
<text text-anchor="start" x="208" y="-63" font-family="Helvetica,sans-Serif" font-size="10.00">ore::data::CommodityOption</text>
<text text-anchor="middle" x="269.5" y="-52" font-family="Helvetica,sans-Serif" font-size="10.00">::build</text>
</a>
</g>
</g>
<!-- Node6&#45;&gt;Node9 -->
<g id="edge10" class="edge"><title>Node6&#45;&gt;Node9</title>
<path fill="none" stroke="#63b8ff" d="M375.158,-104.421C365.484,-97.515 353.532,-89.6857 342,-84 335.423,-80.7574 328.303,-77.785 321.191,-75.1197"/>
<polygon fill="#63b8ff" stroke="#63b8ff" points="373.193,-107.319 383.325,-110.415 377.334,-101.676 373.193,-107.319"/>
</g>
<!-- Node8 -->
<g id="node8" class="node"><title>Node8</title>
<g id="a_node8"><a xlink:href="equitytrades_8cpp.html#aa42062877db60fac479ac06add9deb01" target="_top" xlink:title=" ">
<polygon fill="white" stroke="#666666" points="152,-117.5 9,-117.5 9,-98.5 152,-98.5 152,-117.5"/>
<text text-anchor="middle" x="80.5" y="-105.5" font-family="Helvetica,sans-Serif" font-size="10.00">BOOST_AUTO_TEST_CASE</text>
</a>
</g>
</g>
<!-- Node7&#45;&gt;Node8 -->
<g id="edge7" class="edge"><title>Node7&#45;&gt;Node8</title>
<path fill="none" stroke="#63b8ff" d="M186.697,-108C175.183,-108 163.428,-108 152.147,-108"/>
<polygon fill="#63b8ff" stroke="#63b8ff" points="186.736,-111.5 196.736,-108 186.736,-104.5 186.736,-111.5"/>
</g>
<!-- Node10 -->
<g id="node10" class="node"><title>Node10</title>
<g id="a_node10"><a xlink:href="classore_1_1data_1_1_commodity_digital_option.html#a82238405f67248d44bb177a6951c8c2e" target="_top" xlink:title="Build underlying instrument and link pricing engine.">
<polygon fill="white" stroke="#666666" points="149,-30 12,-30 12,-0 149,-0 149,-30"/>
<text text-anchor="start" x="20" y="-18" font-family="Helvetica,sans-Serif" font-size="10.00">ore::data::CommodityDigital</text>
<text text-anchor="middle" x="80.5" y="-7" font-family="Helvetica,sans-Serif" font-size="10.00">Option::build</text>
</a>
</g>
</g>
<!-- Node9&#45;&gt;Node10 -->
<g id="edge11" class="edge"><title>Node9&#45;&gt;Node10</title>
<path fill="none" stroke="#63b8ff" d="M195.994,-42.5521C178.821,-38.4196 160.652,-34.0473 143.969,-30.0327"/>
<polygon fill="#63b8ff" stroke="#63b8ff" points="195.43,-46.0162 205.972,-44.9531 197.068,-39.2105 195.43,-46.0162"/>
</g>
<!-- Node11 -->
<g id="node11" class="node"><title>Node11</title>
<g id="a_node11"><a xlink:href="classore_1_1data_1_1_commodity_average_price_option.html#ab927cfcbbf36bfbbaa854f21f964aced" target="_top" xlink:title="Build a standard option.">
<polygon fill="white" stroke="#666666" points="161,-78 0,-78 0,-48 161,-48 161,-78"/>
<text text-anchor="start" x="8" y="-66" font-family="Helvetica,sans-Serif" font-size="10.00">ore::data::CommodityAverage</text>
<text text-anchor="middle" x="80.5" y="-55" font-family="Helvetica,sans-Serif" font-size="10.00">PriceOption::buildStandardOption</text>
</a>
</g>
</g>
<!-- Node9&#45;&gt;Node11 -->
<g id="edge12" class="edge"><title>Node9&#45;&gt;Node11</title>
<path fill="none" stroke="#63b8ff" d="M189.76,-61.2632C180.295,-61.4151 170.623,-61.5702 161.146,-61.7223"/>
<polygon fill="#63b8ff" stroke="#63b8ff" points="189.987,-64.7601 199.93,-61.1001 189.875,-57.761 189.987,-64.7601"/>
</g>
</g>
</svg>
