<?xml version="1.0" encoding="UTF-8" standalone="no"?>
<!DOCTYPE svg PUBLIC "-//W3C//DTD SVG 1.1//EN"
 "http://www.w3.org/Graphics/SVG/1.1/DTD/svg11.dtd">
<!-- Generated by graphviz version 2.38.0 (20140413.2041)
 -->
<!-- Title: tradeType Pages: 1 -->
<svg width="619pt" height="1711pt"
 viewBox="0.00 0.00 619.00 1711.00" xmlns="http://www.w3.org/2000/svg" xmlns:xlink="http://www.w3.org/1999/xlink">
<g id="graph0" class="graph" transform="scale(1 1) rotate(0) translate(4 1707)">
<title>tradeType</title>
<!-- Node1 -->
<g id="node1" class="node"><title>Node1</title>
<g id="a_node1"><a xlink:title=" ">
<polygon fill="#999999" stroke="#666666" points="611,-870.5 552,-870.5 552,-851.5 611,-851.5 611,-870.5"/>
<text text-anchor="middle" x="581.5" y="-858.5" font-family="Helvetica,sans-Serif" font-size="10.00">tradeType</text>
</a>
</g>
</g>
<!-- Node2 -->
<g id="node2" class="node"><title>Node2</title>
<g id="a_node2"><a xlink:href="classore_1_1data_1_1_fx_double_touch_option.html#af7b69d5b18d278257927e32b10a23ee6" target="_top" xlink:title="Build QuantLib/QuantExt instrument, link pricing engine.">
<polygon fill="white" stroke="#666666" points="510,-1703 382,-1703 382,-1673 510,-1673 510,-1703"/>
<text text-anchor="start" x="390" y="-1691" font-family="Helvetica,sans-Serif" font-size="10.00">ore::data::FxDoubleTouch</text>
<text text-anchor="middle" x="446" y="-1680" font-family="Helvetica,sans-Serif" font-size="10.00">Option::build</text>
</a>
</g>
</g>
<!-- Node1&#45;&gt;Node2 -->
<g id="edge1" class="edge"><title>Node1&#45;&gt;Node2</title>
<path fill="none" stroke="#63b8ff" d="M580.19,-880.565C578.172,-997.406 565.411,-1600.08 516,-1664 513.363,-1667.41 510.209,-1670.34 506.722,-1672.85"/>
<polygon fill="#63b8ff" stroke="#63b8ff" points="583.689,-880.604 580.356,-870.547 576.69,-880.487 583.689,-880.604"/>
</g>
<!-- Node4 -->
<g id="node4" class="node"><title>Node4</title>
<g id="a_node4"><a xlink:href="classore_1_1data_1_1_fx_option.html#af7b69d5b18d278257927e32b10a23ee6" target="_top" xlink:title="Build QuantLib/QuantExt instrument, link pricing engine.">
<polygon fill="white" stroke="#666666" points="496.5,-1655 395.5,-1655 395.5,-1625 496.5,-1625 496.5,-1655"/>
<text text-anchor="start" x="403.5" y="-1643" font-family="Helvetica,sans-Serif" font-size="10.00">ore::data::FxOption</text>
<text text-anchor="middle" x="446" y="-1632" font-family="Helvetica,sans-Serif" font-size="10.00">::build</text>
</a>
</g>
</g>
<!-- Node1&#45;&gt;Node4 -->
<g id="edge3" class="edge"><title>Node1&#45;&gt;Node4</title>
<path fill="none" stroke="#63b8ff" d="M580.079,-880.789C577.505,-993.962 562.436,-1556.25 516,-1616 511.019,-1622.41 504.216,-1627.11 496.813,-1630.57"/>
<polygon fill="#63b8ff" stroke="#63b8ff" points="583.579,-880.831 580.301,-870.756 576.58,-880.676 583.579,-880.831"/>
</g>
<!-- Node6 -->
<g id="node6" class="node"><title>Node6</title>
<g id="a_node6"><a xlink:href="classore_1_1data_1_1_fx_touch_option.html#af7b69d5b18d278257927e32b10a23ee6" target="_top" xlink:title="Build QuantLib/QuantExt instrument, link pricing engine.">
<polygon fill="white" stroke="#666666" points="509.5,-1607 382.5,-1607 382.5,-1577 509.5,-1577 509.5,-1607"/>
<text text-anchor="start" x="390.5" y="-1595" font-family="Helvetica,sans-Serif" font-size="10.00">ore::data::FxTouchOption</text>
<text text-anchor="middle" x="446" y="-1584" font-family="Helvetica,sans-Serif" font-size="10.00">::build</text>
</a>
</g>
</g>
<!-- Node1&#45;&gt;Node6 -->
<g id="edge5" class="edge"><title>Node1&#45;&gt;Node6</title>
<path fill="none" stroke="#63b8ff" d="M579.955,-880.864C576.802,-989.857 559.487,-1512.37 516,-1568 513.344,-1571.4 510.177,-1574.32 506.68,-1576.82"/>
<polygon fill="#63b8ff" stroke="#63b8ff" points="583.46,-880.735 580.244,-870.64 576.463,-880.537 583.46,-880.735"/>
</g>
<!-- Node8 -->
<g id="node8" class="node"><title>Node8</title>
<g id="a_node8"><a xlink:href="classore_1_1data_1_1_index_credit_default_swap_option.html#af7b69d5b18d278257927e32b10a23ee6" target="_top" xlink:title=" ">
<polygon fill="white" stroke="#666666" points="516,-1559 376,-1559 376,-1529 516,-1529 516,-1559"/>
<text text-anchor="start" x="384" y="-1547" font-family="Helvetica,sans-Serif" font-size="10.00">ore::data::IndexCreditDefault</text>
<text text-anchor="middle" x="446" y="-1536" font-family="Helvetica,sans-Serif" font-size="10.00">SwapOption::build</text>
</a>
</g>
</g>
<!-- Node1&#45;&gt;Node8 -->
<g id="edge7" class="edge"><title>Node1&#45;&gt;Node8</title>
<path fill="none" stroke="#63b8ff" d="M579.806,-881.141C576.02,-986.202 556.518,-1468.52 516,-1520 513.333,-1523.39 510.157,-1526.3 506.655,-1528.8"/>
<polygon fill="#63b8ff" stroke="#63b8ff" points="583.311,-881.076 580.166,-870.959 576.315,-880.829 583.311,-881.076"/>
</g>
<!-- Node9 -->
<g id="node9" class="node"><title>Node9</title>
<g id="a_node9"><a xlink:href="classore_1_1data_1_1_t_r_s.html#af7b69d5b18d278257927e32b10a23ee6" target="_top" xlink:title=" ">
<polygon fill="white" stroke="#666666" points="312.5,-1108.5 206.5,-1108.5 206.5,-1089.5 312.5,-1089.5 312.5,-1108.5"/>
<text text-anchor="middle" x="259.5" y="-1096.5" font-family="Helvetica,sans-Serif" font-size="10.00">ore::data::TRS::build</text>
</a>
</g>
</g>
<!-- Node1&#45;&gt;Node9 -->
<g id="edge8" class="edge"><title>Node1&#45;&gt;Node9</title>
<path fill="none" stroke="#63b8ff" d="M579.802,-880.823C576.2,-977.481 558.228,-1396.26 516,-1434 469.607,-1475.46 426.663,-1470.12 376,-1434 263.045,-1353.46 259.467,-1154.88 260.218,-1108.7"/>
<polygon fill="#63b8ff" stroke="#63b8ff" points="583.305,-880.8 580.171,-870.679 576.31,-880.545 583.305,-880.8"/>
</g>
<!-- Node10 -->
<g id="node10" class="node"><title>Node10</title>
<g id="a_node10"><a xlink:href="classore_1_1data_1_1_barrier_option.html#ab1db499ff5e65c59fd2009d62276fdaf" target="_top" xlink:title="Build QuantLib/QuantExt instrument, link pricing engine.">
<polygon fill="white" stroke="#666666" points="505,-1511 387,-1511 387,-1481 505,-1481 505,-1511"/>
<text text-anchor="start" x="395" y="-1499" font-family="Helvetica,sans-Serif" font-size="10.00">ore::data::BarrierOption</text>
<text text-anchor="middle" x="446" y="-1488" font-family="Helvetica,sans-Serif" font-size="10.00">::build</text>
</a>
</g>
</g>
<!-- Node1&#45;&gt;Node10 -->
<g id="edge9" class="edge"><title>Node1&#45;&gt;Node10</title>
<path fill="none" stroke="#63b8ff" d="M579.585,-880.698C574.835,-979.559 551.834,-1418.82 516,-1467 511.812,-1472.63 506.321,-1477.18 500.263,-1480.84"/>
<polygon fill="#63b8ff" stroke="#63b8ff" points="583.086,-880.755 580.063,-870.601 576.094,-880.424 583.086,-880.755"/>
</g>
<!-- Node14 -->
<g id="node14" class="node"><title>Node14</title>
<g id="a_node14"><a xlink:href="classore_1_1data_1_1_accumulator.html#a7741ae0fc924943de5bfe02928262eb7" target="_top" xlink:title=" ">
<polygon fill="white" stroke="#666666" points="504,-1425 388,-1425 388,-1395 504,-1395 504,-1425"/>
<text text-anchor="start" x="396" y="-1413" font-family="Helvetica,sans-Serif" font-size="10.00">ore::data::Accumulator</text>
<text text-anchor="middle" x="446" y="-1402" font-family="Helvetica,sans-Serif" font-size="10.00">::fromXML</text>
</a>
</g>
</g>
<!-- Node1&#45;&gt;Node14 -->
<g id="edge13" class="edge"><title>Node1&#45;&gt;Node14</title>
<path fill="none" stroke="#63b8ff" d="M580.765,-880.675C581.527,-966.361 580.385,-1306.24 516,-1386 512.654,-1390.14 508.549,-1393.58 504.023,-1396.42"/>
<polygon fill="#63b8ff" stroke="#63b8ff" points="584.263,-880.481 580.653,-870.52 577.263,-880.558 584.263,-880.481"/>
</g>
<!-- Node15 -->
<g id="node15" class="node"><title>Node15</title>
<g id="a_node15"><a xlink:href="classore_1_1data_1_1_asian_option.html#a7741ae0fc924943de5bfe02928262eb7" target="_top" xlink:title=" ">
<polygon fill="white" stroke="#666666" points="503,-1377 389,-1377 389,-1347 503,-1347 503,-1377"/>
<text text-anchor="start" x="397" y="-1365" font-family="Helvetica,sans-Serif" font-size="10.00">ore::data::AsianOption</text>
<text text-anchor="middle" x="446" y="-1354" font-family="Helvetica,sans-Serif" font-size="10.00">::fromXML</text>
</a>
</g>
</g>
<!-- Node1&#45;&gt;Node15 -->
<g id="edge14" class="edge"><title>Node1&#45;&gt;Node15</title>
<path fill="none" stroke="#63b8ff" d="M580.49,-881.163C580.054,-962.62 574.471,-1266.46 516,-1338 512.468,-1342.32 508.112,-1345.87 503.32,-1348.77"/>
<polygon fill="#63b8ff" stroke="#63b8ff" points="583.991,-880.823 580.523,-870.812 576.992,-880.801 583.991,-880.823"/>
</g>
<!-- Node16 -->
<g id="node16" class="node"><title>Node16</title>
<g id="a_node16"><a xlink:href="classore_1_1data_1_1_basket_option.html#a7741ae0fc924943de5bfe02928262eb7" target="_top" xlink:title=" ">
<polygon fill="white" stroke="#666666" points="506,-1329 386,-1329 386,-1299 506,-1299 506,-1329"/>
<text text-anchor="start" x="394" y="-1317" font-family="Helvetica,sans-Serif" font-size="10.00">ore::data::BasketOption</text>
<text text-anchor="middle" x="446" y="-1306" font-family="Helvetica,sans-Serif" font-size="10.00">::fromXML</text>
</a>
</g>
</g>
<!-- Node1&#45;&gt;Node16 -->
<g id="edge15" class="edge"><title>Node1&#45;&gt;Node16</title>
<path fill="none" stroke="#63b8ff" d="M580.164,-880.569C578.49,-955.929 568.837,-1226.32 516,-1290 513.165,-1293.42 509.816,-1296.35 506.146,-1298.86"/>
<polygon fill="#63b8ff" stroke="#63b8ff" points="583.664,-880.627 580.364,-870.559 576.665,-880.488 583.664,-880.627"/>
</g>
<!-- Node17 -->
<g id="node17" class="node"><title>Node17</title>
<g id="a_node17"><a xlink:href="classore_1_1data_1_1_basket_variance_swap.html#a7741ae0fc924943de5bfe02928262eb7" target="_top" xlink:title=" ">
<polygon fill="white" stroke="#666666" points="511,-1281 381,-1281 381,-1251 511,-1251 511,-1281"/>
<text text-anchor="start" x="389" y="-1269" font-family="Helvetica,sans-Serif" font-size="10.00">ore::data::BasketVariance</text>
<text text-anchor="middle" x="446" y="-1258" font-family="Helvetica,sans-Serif" font-size="10.00">Swap::fromXML</text>
</a>
</g>
</g>
<!-- Node1&#45;&gt;Node17 -->
<g id="edge16" class="edge"><title>Node1&#45;&gt;Node17</title>
<path fill="none" stroke="#63b8ff" d="M579.754,-880.578C576.714,-950.446 563.083,-1186.31 516,-1242 513.134,-1245.39 509.762,-1248.3 506.075,-1250.8"/>
<polygon fill="#63b8ff" stroke="#63b8ff" points="583.254,-880.648 580.167,-870.513 576.26,-880.361 583.254,-880.648"/>
</g>
<!-- Node18 -->
<g id="node18" class="node"><title>Node18</title>
<g id="a_node18"><a xlink:href="classore_1_1data_1_1_best_entry_option.html#a7741ae0fc924943de5bfe02928262eb7" target="_top" xlink:title=" ">
<polygon fill="white" stroke="#666666" points="512.5,-1233 379.5,-1233 379.5,-1203 512.5,-1203 512.5,-1233"/>
<text text-anchor="start" x="387.5" y="-1221" font-family="Helvetica,sans-Serif" font-size="10.00">ore::data::BestEntryOption</text>
<text text-anchor="middle" x="446" y="-1210" font-family="Helvetica,sans-Serif" font-size="10.00">::fromXML</text>
</a>
</g>
</g>
<!-- Node1&#45;&gt;Node18 -->
<g id="edge17" class="edge"><title>Node1&#45;&gt;Node18</title>
<path fill="none" stroke="#63b8ff" d="M579.203,-880.949C574.634,-945.354 557.28,-1146.33 516,-1194 513.011,-1197.45 509.498,-1200.41 505.668,-1202.94"/>
<polygon fill="#63b8ff" stroke="#63b8ff" points="582.721,-880.795 579.91,-870.58 575.738,-880.318 582.721,-880.795"/>
</g>
<!-- Node19 -->
<g id="node19" class="node"><title>Node19</title>
<g id="a_node19"><a xlink:href="classore_1_1data_1_1_composite_trade.html#a7741ae0fc924943de5bfe02928262eb7" target="_top" xlink:title=" ">
<polygon fill="white" stroke="#666666" points="511.5,-1185 380.5,-1185 380.5,-1155 511.5,-1155 511.5,-1185"/>
<text text-anchor="start" x="388.5" y="-1173" font-family="Helvetica,sans-Serif" font-size="10.00">ore::data::CompositeTrade</text>
<text text-anchor="middle" x="446" y="-1162" font-family="Helvetica,sans-Serif" font-size="10.00">::fromXML</text>
</a>
</g>
</g>
<!-- Node1&#45;&gt;Node19 -->
<g id="edge18" class="edge"><title>Node1&#45;&gt;Node19</title>
<path fill="none" stroke="#63b8ff" d="M578.522,-880.675C572.343,-938.459 551.653,-1106.11 516,-1146 512.957,-1149.4 509.406,-1152.33 505.549,-1154.83"/>
<polygon fill="#63b8ff" stroke="#63b8ff" points="582.011,-880.962 579.565,-870.653 575.049,-880.237 582.011,-880.962"/>
</g>
<!-- Node20 -->
<g id="node20" class="node"><title>Node20</title>
<g id="a_node20"><a xlink:href="classore_1_1data_1_1_generic_barrier_option.html#a7741ae0fc924943de5bfe02928262eb7" target="_top" xlink:title=" ">
<polygon fill="white" stroke="#666666" points="507.5,-1137 384.5,-1137 384.5,-1107 507.5,-1107 507.5,-1137"/>
<text text-anchor="start" x="392.5" y="-1125" font-family="Helvetica,sans-Serif" font-size="10.00">ore::data::GenericBarrier</text>
<text text-anchor="middle" x="446" y="-1114" font-family="Helvetica,sans-Serif" font-size="10.00">Option::fromXML</text>
</a>
</g>
</g>
<!-- Node1&#45;&gt;Node20 -->
<g id="edge19" class="edge"><title>Node1&#45;&gt;Node20</title>
<path fill="none" stroke="#63b8ff" d="M580.945,-880.745C580.861,-925.473 574.347,-1035.48 516,-1098 512.798,-1101.43 509.081,-1104.37 505.063,-1106.89"/>
<polygon fill="#63b8ff" stroke="#63b8ff" points="584.444,-880.59 580.851,-870.623 577.444,-880.656 584.444,-880.59"/>
</g>
<!-- Node21 -->
<g id="node21" class="node"><title>Node21</title>
<g id="a_node21"><a xlink:href="classore_1_1data_1_1_knock_out_swap.html#a7741ae0fc924943de5bfe02928262eb7" target="_top" xlink:title=" ">
<polygon fill="white" stroke="#666666" points="510,-1089 382,-1089 382,-1059 510,-1059 510,-1089"/>
<text text-anchor="start" x="390" y="-1077" font-family="Helvetica,sans-Serif" font-size="10.00">ore::data::KnockOutSwap</text>
<text text-anchor="middle" x="446" y="-1066" font-family="Helvetica,sans-Serif" font-size="10.00">::fromXML</text>
</a>
</g>
</g>
<!-- Node1&#45;&gt;Node21 -->
<g id="edge20" class="edge"><title>Node1&#45;&gt;Node21</title>
<path fill="none" stroke="#63b8ff" d="M579.277,-881.065C575.884,-919.194 563.184,-1002.54 516,-1050 512.602,-1053.42 508.693,-1056.35 504.498,-1058.87"/>
<polygon fill="#63b8ff" stroke="#63b8ff" points="582.791,-881.009 580.059,-870.773 575.811,-880.479 582.791,-881.009"/>
</g>
<!-- Node22 -->
<g id="node22" class="node"><title>Node22</title>
<g id="a_node22"><a xlink:href="classore_1_1data_1_1_pairwise_var_swap.html#a7741ae0fc924943de5bfe02928262eb7" target="_top" xlink:title=" ">
<polygon fill="white" stroke="#666666" points="514.5,-1041 377.5,-1041 377.5,-1011 514.5,-1011 514.5,-1041"/>
<text text-anchor="start" x="385.5" y="-1029" font-family="Helvetica,sans-Serif" font-size="10.00">ore::data::PairwiseVarSwap</text>
<text text-anchor="middle" x="446" y="-1018" font-family="Helvetica,sans-Serif" font-size="10.00">::fromXML</text>
</a>
</g>
</g>
<!-- Node1&#45;&gt;Node22 -->
<g id="edge21" class="edge"><title>Node1&#45;&gt;Node22</title>
<path fill="none" stroke="#63b8ff" d="M576.607,-880.937C569.676,-911.253 552.369,-968.908 516,-1002 512.248,-1005.41 507.983,-1008.35 503.459,-1010.87"/>
<polygon fill="#63b8ff" stroke="#63b8ff" points="580.114,-881.274 578.774,-870.764 573.267,-879.816 580.114,-881.274"/>
</g>
<!-- Node23 -->
<g id="node23" class="node"><title>Node23</title>
<g id="a_node23"><a xlink:href="classore_1_1data_1_1_rainbow_option.html#a7741ae0fc924943de5bfe02928262eb7" target="_top" xlink:title=" ">
<polygon fill="white" stroke="#666666" points="509,-993 383,-993 383,-963 509,-963 509,-993"/>
<text text-anchor="start" x="391" y="-981" font-family="Helvetica,sans-Serif" font-size="10.00">ore::data::RainbowOption</text>
<text text-anchor="middle" x="446" y="-970" font-family="Helvetica,sans-Serif" font-size="10.00">::fromXML</text>
</a>
</g>
</g>
<!-- Node1&#45;&gt;Node23 -->
<g id="edge22" class="edge"><title>Node1&#45;&gt;Node23</title>
<path fill="none" stroke="#63b8ff" d="M571.956,-879.815C561.552,-900.736 542.087,-934.186 516,-954 511.455,-957.452 506.376,-960.432 501.091,-962.999"/>
<polygon fill="#63b8ff" stroke="#63b8ff" points="575.174,-881.198 576.324,-870.665 568.857,-878.181 575.174,-881.198"/>
</g>
<!-- Node24 -->
<g id="node24" class="node"><title>Node24</title>
<g id="a_node24"><a xlink:href="classore_1_1data_1_1_swap.html#a7741ae0fc924943de5bfe02928262eb7" target="_top" xlink:title=" ">
<polygon fill="white" stroke="#666666" points="510,-944.5 382,-944.5 382,-925.5 510,-925.5 510,-944.5"/>
<text text-anchor="middle" x="446" y="-932.5" font-family="Helvetica,sans-Serif" font-size="10.00">ore::data::Swap::fromXML</text>
</a>
</g>
</g>
<!-- Node1&#45;&gt;Node24 -->
<g id="edge23" class="edge"><title>Node1&#45;&gt;Node24</title>
<path fill="none" stroke="#63b8ff" d="M564.791,-878.391C552.621,-890.858 534.725,-907.13 516,-917 509.538,-920.406 502.39,-923.198 495.215,-925.478"/>
<polygon fill="#63b8ff" stroke="#63b8ff" points="567.589,-880.525 571.912,-870.853 562.501,-875.718 567.589,-880.525"/>
</g>
<!-- Node25 -->
<g id="node25" class="node"><title>Node25</title>
<g id="a_node25"><a xlink:href="classore_1_1data_1_1_ta_r_f.html#a7741ae0fc924943de5bfe02928262eb7" target="_top" xlink:title=" ">
<polygon fill="white" stroke="#666666" points="510,-907.5 382,-907.5 382,-888.5 510,-888.5 510,-907.5"/>
<text text-anchor="middle" x="446" y="-895.5" font-family="Helvetica,sans-Serif" font-size="10.00">ore::data::TaRF::fromXML</text>
</a>
</g>
</g>
<!-- Node1&#45;&gt;Node25 -->
<g id="edge24" class="edge"><title>Node1&#45;&gt;Node25</title>
<path fill="none" stroke="#63b8ff" d="M542.176,-872.504C533.578,-875.025 524.489,-877.643 516,-880 505.741,-882.848 494.588,-885.814 484.299,-888.497"/>
<polygon fill="#63b8ff" stroke="#63b8ff" points="543.378,-875.798 551.978,-869.61 541.397,-869.084 543.378,-875.798"/>
</g>
<!-- Node26 -->
<g id="node26" class="node"><title>Node26</title>
<g id="a_node26"><a xlink:href="classore_1_1data_1_1_t_r_s.html#a7741ae0fc924943de5bfe02928262eb7" target="_top" xlink:title=" ">
<polygon fill="white" stroke="#666666" points="507.5,-870.5 384.5,-870.5 384.5,-851.5 507.5,-851.5 507.5,-870.5"/>
<text text-anchor="middle" x="446" y="-858.5" font-family="Helvetica,sans-Serif" font-size="10.00">ore::data::TRS::fromXML</text>
</a>
</g>
</g>
<!-- Node1&#45;&gt;Node26 -->
<g id="edge25" class="edge"><title>Node1&#45;&gt;Node26</title>
<path fill="none" stroke="#63b8ff" d="M541.662,-861C531.028,-861 519.24,-861 507.696,-861"/>
<polygon fill="#63b8ff" stroke="#63b8ff" points="541.861,-864.5 551.861,-861 541.861,-857.5 541.861,-864.5"/>
</g>
<!-- Node27 -->
<g id="node27" class="node"><title>Node27</title>
<g id="a_node27"><a xlink:href="classore_1_1data_1_1_var_swap.html#a7741ae0fc924943de5bfe02928262eb7" target="_top" xlink:title=" ">
<polygon fill="white" stroke="#666666" points="496,-833 396,-833 396,-803 496,-803 496,-833"/>
<text text-anchor="start" x="404" y="-821" font-family="Helvetica,sans-Serif" font-size="10.00">ore::data::VarSwap</text>
<text text-anchor="middle" x="446" y="-810" font-family="Helvetica,sans-Serif" font-size="10.00">::fromXML</text>
</a>
</g>
</g>
<!-- Node1&#45;&gt;Node27 -->
<g id="edge26" class="edge"><title>Node1&#45;&gt;Node27</title>
<path fill="none" stroke="#63b8ff" d="M542.3,-848.696C527.156,-843.818 509.597,-838.162 493.707,-833.044"/>
<polygon fill="#63b8ff" stroke="#63b8ff" points="541.269,-852.041 551.861,-851.775 543.416,-845.378 541.269,-852.041"/>
</g>
<!-- Node28 -->
<g id="node28" class="node"><title>Node28</title>
<g id="a_node28"><a xlink:href="classore_1_1data_1_1_window_barrier_option.html#a7741ae0fc924943de5bfe02928262eb7" target="_top" xlink:title=" ">
<polygon fill="white" stroke="#666666" points="508,-785 384,-785 384,-755 508,-755 508,-785"/>
<text text-anchor="start" x="392" y="-773" font-family="Helvetica,sans-Serif" font-size="10.00">ore::data::WindowBarrier</text>
<text text-anchor="middle" x="446" y="-762" font-family="Helvetica,sans-Serif" font-size="10.00">Option::fromXML</text>
</a>
</g>
</g>
<!-- Node1&#45;&gt;Node28 -->
<g id="edge27" class="edge"><title>Node1&#45;&gt;Node28</title>
<path fill="none" stroke="#63b8ff" d="M567.48,-843.406C555.566,-828.413 536.687,-807.247 516,-794 510.766,-790.649 505.008,-787.701 499.118,-785.125"/>
<polygon fill="#63b8ff" stroke="#63b8ff" points="564.775,-845.629 573.651,-851.414 570.319,-841.356 564.775,-845.629"/>
</g>
<!-- Node29 -->
<g id="node29" class="node"><title>Node29</title>
<g id="a_node29"><a xlink:href="classore_1_1data_1_1_worst_of_basket_swap.html#a7741ae0fc924943de5bfe02928262eb7" target="_top" xlink:title=" ">
<polygon fill="white" stroke="#666666" points="510,-737 382,-737 382,-707 510,-707 510,-737"/>
<text text-anchor="start" x="390" y="-725" font-family="Helvetica,sans-Serif" font-size="10.00">ore::data::WorstOfBasket</text>
<text text-anchor="middle" x="446" y="-714" font-family="Helvetica,sans-Serif" font-size="10.00">Swap::fromXML</text>
</a>
</g>
</g>
<!-- Node1&#45;&gt;Node29 -->
<g id="edge28" class="edge"><title>Node1&#45;&gt;Node29</title>
<path fill="none" stroke="#63b8ff" d="M574.57,-841.852C565.764,-816.459 546.865,-771.85 516,-746 511.916,-742.58 507.315,-739.636 502.476,-737.104"/>
<polygon fill="#63b8ff" stroke="#63b8ff" points="571.278,-843.045 577.732,-851.447 577.927,-840.854 571.278,-843.045"/>
</g>
<!-- Node30 -->
<g id="node30" class="node"><title>Node30</title>
<g id="a_node30"><a xlink:href="classore_1_1data_1_1_trade.html#a0f8dab580626fda80cf858adbd7a8ff1" target="_top" xlink:title=" ">
<polygon fill="white" stroke="#666666" points="495.5,-688.5 396.5,-688.5 396.5,-669.5 495.5,-669.5 495.5,-688.5"/>
<text text-anchor="middle" x="446" y="-676.5" font-family="Helvetica,sans-Serif" font-size="10.00">sensitivityTemplate</text>
</a>
</g>
</g>
<!-- Node1&#45;&gt;Node30 -->
<g id="edge29" class="edge"><title>Node1&#45;&gt;Node30</title>
<path fill="none" stroke="#63b8ff" d="M578.33,-841.064C573.513,-806.708 558.736,-736.349 516,-698 510.174,-692.772 503.037,-688.967 495.586,-686.2"/>
<polygon fill="#63b8ff" stroke="#63b8ff" points="574.889,-841.751 579.608,-851.237 581.835,-840.879 574.889,-841.751"/>
</g>
<!-- Node34 -->
<g id="node34" class="node"><title>Node34</title>
<g id="a_node34"><a xlink:href="classore_1_1data_1_1_var_swap.html#a98c77e5a9e18de0cd031a56f97459774" target="_top" xlink:title=" ">
<polygon fill="white" stroke="#666666" points="496,-651 396,-651 396,-621 496,-621 496,-651"/>
<text text-anchor="start" x="404" y="-639" font-family="Helvetica,sans-Serif" font-size="10.00">ore::data::VarSwap</text>
<text text-anchor="middle" x="446" y="-628" font-family="Helvetica,sans-Serif" font-size="10.00">::toXML</text>
</a>
</g>
</g>
<!-- Node1&#45;&gt;Node34 -->
<g id="edge34" class="edge"><title>Node1&#45;&gt;Node34</title>
<path fill="none" stroke="#63b8ff" d="M579.769,-841.03C577.235,-801.172 565.966,-711.192 516,-660 510.419,-654.282 503.406,-649.925 496.004,-646.605"/>
<polygon fill="#63b8ff" stroke="#63b8ff" points="576.276,-841.269 580.285,-851.077 583.267,-840.91 576.276,-841.269"/>
</g>
<!-- Node35 -->
<g id="node35" class="node"><title>Node35</title>
<g id="a_node35"><a xlink:href="classore_1_1data_1_1_accumulator.html#a7efefb9270d6c4933e4c96de0771f17a" target="_top" xlink:title=" ">
<polygon fill="white" stroke="#666666" points="504,-603 388,-603 388,-573 504,-573 504,-603"/>
<text text-anchor="start" x="396" y="-591" font-family="Helvetica,sans-Serif" font-size="10.00">ore::data::Accumulator</text>
<text text-anchor="middle" x="446" y="-580" font-family="Helvetica,sans-Serif" font-size="10.00">::toXML</text>
</a>
</g>
</g>
<!-- Node1&#45;&gt;Node35 -->
<g id="edge35" class="edge"><title>Node1&#45;&gt;Node35</title>
<path fill="none" stroke="#63b8ff" d="M581.263,-841.214C581.947,-794.886 577.108,-678.287 516,-612 512.561,-608.27 508.513,-605.12 504.129,-602.459"/>
<polygon fill="#63b8ff" stroke="#63b8ff" points="577.76,-841.319 581.001,-851.405 584.757,-841.499 577.76,-841.319"/>
</g>
<!-- Node36 -->
<g id="node36" class="node"><title>Node36</title>
<g id="a_node36"><a xlink:href="classore_1_1data_1_1_asian_option.html#a7efefb9270d6c4933e4c96de0771f17a" target="_top" xlink:title=" ">
<polygon fill="white" stroke="#666666" points="503,-555 389,-555 389,-525 503,-525 503,-555"/>
<text text-anchor="start" x="397" y="-543" font-family="Helvetica,sans-Serif" font-size="10.00">ore::data::AsianOption</text>
<text text-anchor="middle" x="446" y="-532" font-family="Helvetica,sans-Serif" font-size="10.00">::toXML</text>
</a>
</g>
</g>
<!-- Node1&#45;&gt;Node36 -->
<g id="edge36" class="edge"><title>Node1&#45;&gt;Node36</title>
<path fill="none" stroke="#63b8ff" d="M578.713,-841.276C572.954,-781.816 553.061,-605.835 516,-564 512.384,-559.918 508.035,-556.53 503.303,-553.718"/>
<polygon fill="#63b8ff" stroke="#63b8ff" points="575.23,-841.625 579.651,-851.254 582.2,-840.97 575.23,-841.625"/>
</g>
<!-- Node37 -->
<g id="node37" class="node"><title>Node37</title>
<g id="a_node37"><a xlink:href="classore_1_1data_1_1_basket_option.html#a7efefb9270d6c4933e4c96de0771f17a" target="_top" xlink:title=" ">
<polygon fill="white" stroke="#666666" points="506,-507 386,-507 386,-477 506,-477 506,-507"/>
<text text-anchor="start" x="394" y="-495" font-family="Helvetica,sans-Serif" font-size="10.00">ore::data::BasketOption</text>
<text text-anchor="middle" x="446" y="-484" font-family="Helvetica,sans-Serif" font-size="10.00">::toXML</text>
</a>
</g>
</g>
<!-- Node1&#45;&gt;Node37 -->
<g id="edge37" class="edge"><title>Node1&#45;&gt;Node37</title>
<path fill="none" stroke="#63b8ff" d="M579.359,-841.187C575.191,-775.415 558.736,-565.676 516,-516 513.022,-512.539 509.517,-509.576 505.693,-507.041"/>
<polygon fill="#63b8ff" stroke="#63b8ff" points="575.88,-841.642 579.98,-851.411 582.867,-841.217 575.88,-841.642"/>
</g>
<!-- Node38 -->
<g id="node38" class="node"><title>Node38</title>
<g id="a_node38"><a xlink:href="classore_1_1data_1_1_basket_variance_swap.html#a7efefb9270d6c4933e4c96de0771f17a" target="_top" xlink:title=" ">
<polygon fill="white" stroke="#666666" points="511,-459 381,-459 381,-429 511,-429 511,-459"/>
<text text-anchor="start" x="389" y="-447" font-family="Helvetica,sans-Serif" font-size="10.00">ore::data::BasketVariance</text>
<text text-anchor="middle" x="446" y="-436" font-family="Helvetica,sans-Serif" font-size="10.00">Swap::toXML</text>
</a>
</g>
</g>
<!-- Node1&#45;&gt;Node38 -->
<g id="edge38" class="edge"><title>Node1&#45;&gt;Node38</title>
<path fill="none" stroke="#63b8ff" d="M579.843,-840.81C577.105,-768.759 564.381,-525.514 516,-468 513.142,-464.603 509.776,-461.686 506.095,-459.182"/>
<polygon fill="#63b8ff" stroke="#63b8ff" points="576.359,-841.321 580.211,-851.19 583.354,-841.072 576.359,-841.321"/>
</g>
<!-- Node39 -->
<g id="node39" class="node"><title>Node39</title>
<g id="a_node39"><a xlink:href="classore_1_1data_1_1_best_entry_option.html#a7efefb9270d6c4933e4c96de0771f17a" target="_top" xlink:title=" ">
<polygon fill="white" stroke="#666666" points="512.5,-411 379.5,-411 379.5,-381 512.5,-381 512.5,-411"/>
<text text-anchor="start" x="387.5" y="-399" font-family="Helvetica,sans-Serif" font-size="10.00">ore::data::BestEntryOption</text>
<text text-anchor="middle" x="446" y="-388" font-family="Helvetica,sans-Serif" font-size="10.00">::toXML</text>
</a>
</g>
</g>
<!-- Node1&#45;&gt;Node39 -->
<g id="edge39" class="edge"><title>Node1&#45;&gt;Node39</title>
<path fill="none" stroke="#63b8ff" d="M580.244,-840.888C578.862,-763.436 570.152,-485.526 516,-420 513.172,-416.578 509.828,-413.643 506.161,-411.126"/>
<polygon fill="#63b8ff" stroke="#63b8ff" points="576.749,-841.231 580.404,-851.175 583.748,-841.122 576.749,-841.231"/>
</g>
<!-- Node40 -->
<g id="node40" class="node"><title>Node40</title>
<g id="a_node40"><a xlink:href="classore_1_1data_1_1_generic_barrier_option.html#a7efefb9270d6c4933e4c96de0771f17a" target="_top" xlink:title=" ">
<polygon fill="white" stroke="#666666" points="507.5,-363 384.5,-363 384.5,-333 507.5,-333 507.5,-363"/>
<text text-anchor="start" x="392.5" y="-351" font-family="Helvetica,sans-Serif" font-size="10.00">ore::data::GenericBarrier</text>
<text text-anchor="middle" x="446" y="-340" font-family="Helvetica,sans-Serif" font-size="10.00">Option::toXML</text>
</a>
</g>
</g>
<!-- Node1&#45;&gt;Node40 -->
<g id="edge40" class="edge"><title>Node1&#45;&gt;Node40</title>
<path fill="none" stroke="#63b8ff" d="M580.565,-840.87C580.435,-758.185 575.925,-445.561 516,-372 513.196,-368.558 509.87,-365.609 506.215,-363.082"/>
<polygon fill="#63b8ff" stroke="#63b8ff" points="577.065,-841.343 580.559,-851.346 584.065,-841.348 577.065,-841.343"/>
</g>
<!-- Node41 -->
<g id="node41" class="node"><title>Node41</title>
<g id="a_node41"><a xlink:href="classore_1_1data_1_1_knock_out_swap.html#a7efefb9270d6c4933e4c96de0771f17a" target="_top" xlink:title=" ">
<polygon fill="white" stroke="#666666" points="510,-315 382,-315 382,-285 510,-285 510,-315"/>
<text text-anchor="start" x="390" y="-303" font-family="Helvetica,sans-Serif" font-size="10.00">ore::data::KnockOutSwap</text>
<text text-anchor="middle" x="446" y="-292" font-family="Helvetica,sans-Serif" font-size="10.00">::toXML</text>
</a>
</g>
</g>
<!-- Node1&#45;&gt;Node41 -->
<g id="edge41" class="edge"><title>Node1&#45;&gt;Node41</title>
<path fill="none" stroke="#63b8ff" d="M580.827,-841.146C581.87,-753.957 581.791,-405.725 516,-324 513.216,-320.542 509.904,-317.581 506.26,-315.046"/>
<polygon fill="#63b8ff" stroke="#63b8ff" points="577.326,-841.216 580.686,-851.264 584.325,-841.313 577.326,-841.216"/>
</g>
<!-- Node42 -->
<g id="node42" class="node"><title>Node42</title>
<g id="a_node42"><a xlink:href="classore_1_1data_1_1_pairwise_var_swap.html#a7efefb9270d6c4933e4c96de0771f17a" target="_top" xlink:title=" ">
<polygon fill="white" stroke="#666666" points="514.5,-267 377.5,-267 377.5,-237 514.5,-237 514.5,-267"/>
<text text-anchor="start" x="385.5" y="-255" font-family="Helvetica,sans-Serif" font-size="10.00">ore::data::PairwiseVarSwap</text>
<text text-anchor="middle" x="446" y="-244" font-family="Helvetica,sans-Serif" font-size="10.00">::toXML</text>
</a>
</g>
</g>
<!-- Node1&#45;&gt;Node42 -->
<g id="edge42" class="edge"><title>Node1&#45;&gt;Node42</title>
<path fill="none" stroke="#63b8ff" d="M579.552,-841.032C574.762,-743.627 552.03,-321.205 516,-276 513.233,-272.529 509.933,-269.558 506.297,-267.016"/>
<polygon fill="#63b8ff" stroke="#63b8ff" points="576.067,-841.433 580.047,-851.252 583.059,-841.094 576.067,-841.433"/>
</g>
<!-- Node43 -->
<g id="node43" class="node"><title>Node43</title>
<g id="a_node43"><a xlink:href="classore_1_1data_1_1_rainbow_option.html#a7efefb9270d6c4933e4c96de0771f17a" target="_top" xlink:title=" ">
<polygon fill="white" stroke="#666666" points="509,-219 383,-219 383,-189 509,-189 509,-219"/>
<text text-anchor="start" x="391" y="-207" font-family="Helvetica,sans-Serif" font-size="10.00">ore::data::RainbowOption</text>
<text text-anchor="middle" x="446" y="-196" font-family="Helvetica,sans-Serif" font-size="10.00">::toXML</text>
</a>
</g>
</g>
<!-- Node1&#45;&gt;Node43 -->
<g id="edge43" class="edge"><title>Node1&#45;&gt;Node43</title>
<path fill="none" stroke="#63b8ff" d="M579.74,-841.344C575.652,-739.787 554.994,-277.34 516,-228 513.326,-224.617 510.146,-221.709 506.64,-219.21"/>
<polygon fill="#63b8ff" stroke="#63b8ff" points="576.247,-841.579 580.139,-851.433 583.241,-841.303 576.247,-841.579"/>
</g>
<!-- Node44 -->
<g id="node44" class="node"><title>Node44</title>
<g id="a_node44"><a xlink:href="classore_1_1data_1_1_swap.html#a7efefb9270d6c4933e4c96de0771f17a" target="_top" xlink:title=" ">
<polygon fill="white" stroke="#666666" points="505,-152.5 387,-152.5 387,-133.5 505,-133.5 505,-152.5"/>
<text text-anchor="middle" x="446" y="-140.5" font-family="Helvetica,sans-Serif" font-size="10.00">ore::data::Swap::toXML</text>
</a>
</g>
</g>
<!-- Node1&#45;&gt;Node44 -->
<g id="edge44" class="edge"><title>Node1&#45;&gt;Node44</title>
<path fill="none" stroke="#63b8ff" d="M579.723,-840.981C575.441,-734.412 553.536,-236.487 516,-180 507.424,-167.094 492.803,-158.345 479.221,-152.61"/>
<polygon fill="#63b8ff" stroke="#63b8ff" points="576.238,-841.418 580.13,-851.272 583.232,-841.141 576.238,-841.418"/>
</g>
<!-- Node45 -->
<g id="node45" class="node"><title>Node45</title>
<g id="a_node45"><a xlink:href="classore_1_1data_1_1_ta_r_f.html#a7efefb9270d6c4933e4c96de0771f17a" target="_top" xlink:title=" ">
<polygon fill="white" stroke="#666666" points="504.5,-115.5 387.5,-115.5 387.5,-96.5 504.5,-96.5 504.5,-115.5"/>
<text text-anchor="middle" x="446" y="-103.5" font-family="Helvetica,sans-Serif" font-size="10.00">ore::data::TaRF::toXML</text>
</a>
</g>
</g>
<!-- Node1&#45;&gt;Node45 -->
<g id="edge46" class="edge"><title>Node1&#45;&gt;Node45</title>
<path fill="none" stroke="#63b8ff" d="M580.11,-841.288C577.728,-729.714 563.632,-180.384 516,-124 512.804,-120.217 508.923,-117.177 504.648,-114.74"/>
<polygon fill="#63b8ff" stroke="#63b8ff" points="576.614,-841.522 580.32,-851.447 583.612,-841.377 576.614,-841.522"/>
</g>
<!-- Node46 -->
<g id="node46" class="node"><title>Node46</title>
<g id="a_node46"><a xlink:href="classore_1_1data_1_1_window_barrier_option.html#a7efefb9270d6c4933e4c96de0771f17a" target="_top" xlink:title=" ">
<polygon fill="white" stroke="#666666" points="508,-78 384,-78 384,-48 508,-48 508,-78"/>
<text text-anchor="start" x="392" y="-66" font-family="Helvetica,sans-Serif" font-size="10.00">ore::data::WindowBarrier</text>
<text text-anchor="middle" x="446" y="-55" font-family="Helvetica,sans-Serif" font-size="10.00">Option::toXML</text>
</a>
</g>
</g>
<!-- Node1&#45;&gt;Node46 -->
<g id="edge47" class="edge"><title>Node1&#45;&gt;Node46</title>
<path fill="none" stroke="#63b8ff" d="M580.12,-841.078C577.757,-725.911 563.583,-148.36 516,-87 513.357,-83.5923 510.2,-80.6664 506.71,-78.1545"/>
<polygon fill="#63b8ff" stroke="#63b8ff" points="576.624,-841.34 580.323,-851.268 583.623,-841.201 576.624,-841.34"/>
</g>
<!-- Node47 -->
<g id="node47" class="node"><title>Node47</title>
<g id="a_node47"><a xlink:href="classore_1_1data_1_1_worst_of_basket_swap.html#a7efefb9270d6c4933e4c96de0771f17a" target="_top" xlink:title=" ">
<polygon fill="white" stroke="#666666" points="510,-30 382,-30 382,-0 510,-0 510,-30"/>
<text text-anchor="start" x="390" y="-18" font-family="Helvetica,sans-Serif" font-size="10.00">ore::data::WorstOfBasket</text>
<text text-anchor="middle" x="446" y="-7" font-family="Helvetica,sans-Serif" font-size="10.00">Swap::toXML</text>
</a>
</g>
</g>
<!-- Node1&#45;&gt;Node47 -->
<g id="edge48" class="edge"><title>Node1&#45;&gt;Node47</title>
<path fill="none" stroke="#63b8ff" d="M580.221,-840.973C578.387,-721.374 566.513,-104.465 516,-39 513.366,-35.5859 510.214,-32.6554 506.729,-30.1401"/>
<polygon fill="#63b8ff" stroke="#63b8ff" points="576.725,-841.28 580.372,-851.228 583.724,-841.177 576.725,-841.28"/>
</g>
<!-- Node3 -->
<g id="node3" class="node"><title>Node3</title>
<g id="a_node3"><a xlink:href="fxexotics_8cpp.html#a356626221d09fa0287e4f5d1646ca231" target="_top" xlink:title=" ">
<polygon fill="white" stroke="#666666" points="331,-1697.5 188,-1697.5 188,-1678.5 331,-1678.5 331,-1697.5"/>
<text text-anchor="middle" x="259.5" y="-1685.5" font-family="Helvetica,sans-Serif" font-size="10.00">BOOST_AUTO_TEST_CASE</text>
</a>
</g>
</g>
<!-- Node2&#45;&gt;Node3 -->
<g id="edge2" class="edge"><title>Node2&#45;&gt;Node3</title>
<path fill="none" stroke="#63b8ff" d="M371.701,-1688C358.376,-1688 344.499,-1688 331.249,-1688"/>
<polygon fill="#63b8ff" stroke="#63b8ff" points="371.764,-1691.5 381.764,-1688 371.764,-1684.5 371.764,-1691.5"/>
</g>
<!-- Node5 -->
<g id="node5" class="node"><title>Node5</title>
<g id="a_node5"><a xlink:href="test_2fxoption_8cpp.html#a321417ba3c97d0524c8fa2d8acb97d72" target="_top" xlink:title=" ">
<polygon fill="white" stroke="#666666" points="331,-1649.5 188,-1649.5 188,-1630.5 331,-1630.5 331,-1649.5"/>
<text text-anchor="middle" x="259.5" y="-1637.5" font-family="Helvetica,sans-Serif" font-size="10.00">BOOST_AUTO_TEST_CASE</text>
</a>
</g>
</g>
<!-- Node4&#45;&gt;Node5 -->
<g id="edge4" class="edge"><title>Node4&#45;&gt;Node5</title>
<path fill="none" stroke="#63b8ff" d="M384.682,-1640C367.61,-1640 348.874,-1640 331.247,-1640"/>
<polygon fill="#63b8ff" stroke="#63b8ff" points="385.072,-1643.5 395.072,-1640 385.072,-1636.5 385.072,-1643.5"/>
</g>
<!-- Node7 -->
<g id="node7" class="node"><title>Node7</title>
<g id="a_node7"><a xlink:href="fxexotics_8cpp.html#a81ded61bff8d1f143845d1a8063ab363" target="_top" xlink:title=" ">
<polygon fill="white" stroke="#666666" points="331,-1601.5 188,-1601.5 188,-1582.5 331,-1582.5 331,-1601.5"/>
<text text-anchor="middle" x="259.5" y="-1589.5" font-family="Helvetica,sans-Serif" font-size="10.00">BOOST_AUTO_TEST_CASE</text>
</a>
</g>
</g>
<!-- Node6&#45;&gt;Node7 -->
<g id="edge6" class="edge"><title>Node6&#45;&gt;Node7</title>
<path fill="none" stroke="#63b8ff" d="M372.133,-1592C358.691,-1592 344.674,-1592 331.295,-1592"/>
<polygon fill="#63b8ff" stroke="#63b8ff" points="372.279,-1595.5 382.279,-1592 372.279,-1588.5 372.279,-1595.5"/>
</g>
<!-- Node11 -->
<g id="node11" class="node"><title>Node11</title>
<g id="a_node11"><a xlink:href="classore_1_1data_1_1_fx_option_with_barrier.html#a023906d726fdb4d1f906576fe597c579" target="_top" xlink:title=" ">
<polygon fill="white" stroke="#666666" points="334,-1487 185,-1487 185,-1457 334,-1457 334,-1487"/>
<text text-anchor="start" x="193" y="-1475" font-family="Helvetica,sans-Serif" font-size="10.00">ore::data::FxOptionWithBarrier</text>
<text text-anchor="middle" x="259.5" y="-1464" font-family="Helvetica,sans-Serif" font-size="10.00">::build</text>
</a>
</g>
</g>
<!-- Node10&#45;&gt;Node11 -->
<g id="edge10" class="edge"><title>Node10&#45;&gt;Node11</title>
<path fill="none" stroke="#63b8ff" d="M376.919,-1487.14C363.026,-1485.34 348.346,-1483.43 334.265,-1481.6"/>
<polygon fill="#63b8ff" stroke="#63b8ff" points="376.508,-1490.62 386.876,-1488.44 377.411,-1483.68 376.508,-1490.62"/>
</g>
<!-- Node13 -->
<g id="node13" class="node"><title>Node13</title>
<g id="a_node13"><a xlink:href="classore_1_1data_1_1_equity_option_with_barrier.html#a023906d726fdb4d1f906576fe597c579" target="_top" xlink:title=" ">
<polygon fill="white" stroke="#666666" points="328,-1535 191,-1535 191,-1505 328,-1505 328,-1535"/>
<text text-anchor="start" x="199" y="-1523" font-family="Helvetica,sans-Serif" font-size="10.00">ore::data::EquityOptionWith</text>
<text text-anchor="middle" x="259.5" y="-1512" font-family="Helvetica,sans-Serif" font-size="10.00">Barrier::build</text>
</a>
</g>
</g>
<!-- Node10&#45;&gt;Node13 -->
<g id="edge12" class="edge"><title>Node10&#45;&gt;Node13</title>
<path fill="none" stroke="#63b8ff" d="M376.668,-1504.89C360.881,-1506.94 344.09,-1509.13 328.325,-1511.18"/>
<polygon fill="#63b8ff" stroke="#63b8ff" points="377.411,-1508.32 386.876,-1503.56 376.508,-1501.38 377.411,-1508.32"/>
</g>
<!-- Node12 -->
<g id="node12" class="node"><title>Node12</title>
<g id="a_node12"><a xlink:href="fxexotics_8cpp.html#a97f1cf85be4712888f153506afc004be" target="_top" xlink:title=" ">
<polygon fill="white" stroke="#666666" points="143,-1481.5 0,-1481.5 0,-1462.5 143,-1462.5 143,-1481.5"/>
<text text-anchor="middle" x="71.5" y="-1469.5" font-family="Helvetica,sans-Serif" font-size="10.00">BOOST_AUTO_TEST_CASE</text>
</a>
</g>
</g>
<!-- Node11&#45;&gt;Node12 -->
<g id="edge11" class="edge"><title>Node11&#45;&gt;Node12</title>
<path fill="none" stroke="#63b8ff" d="M174.867,-1472C164.239,-1472 153.446,-1472 143.051,-1472"/>
<polygon fill="#63b8ff" stroke="#63b8ff" points="174.988,-1475.5 184.988,-1472 174.988,-1468.5 174.988,-1475.5"/>
</g>
<!-- Node30&#45;&gt;Node9 -->
<g id="edge30" class="edge"><title>Node30&#45;&gt;Node9</title>
<path fill="none" stroke="#63b8ff" d="M387.086,-689.829C383.036,-692.074 379.27,-694.768 376,-698 316.742,-756.566 270.733,-1033.58 261.998,-1089.24"/>
<polygon fill="#63b8ff" stroke="#63b8ff" points="388.69,-692.944 396.325,-685.598 385.776,-686.58 388.69,-692.944"/>
</g>
<!-- Node31 -->
<g id="node31" class="node"><title>Node31</title>
<g id="a_node31"><a xlink:href="classore_1_1data_1_1_commodity_digital_option.html#a82238405f67248d44bb177a6951c8c2e" target="_top" xlink:title="Build underlying instrument and link pricing engine.">
<polygon fill="white" stroke="#666666" points="328,-742 191,-742 191,-712 328,-712 328,-742"/>
<text text-anchor="start" x="199" y="-730" font-family="Helvetica,sans-Serif" font-size="10.00">ore::data::CommodityDigital</text>
<text text-anchor="middle" x="259.5" y="-719" font-family="Helvetica,sans-Serif" font-size="10.00">Option::build</text>
</a>
</g>
</g>
<!-- Node30&#45;&gt;Node31 -->
<g id="edge31" class="edge"><title>Node30&#45;&gt;Node31</title>
<path fill="none" stroke="#63b8ff" d="M398.412,-691.12C374.117,-697.441 344.171,-705.232 318.398,-711.937"/>
<polygon fill="#63b8ff" stroke="#63b8ff" points="399.311,-694.503 408.107,-688.598 397.548,-687.729 399.311,-694.503"/>
</g>
<!-- Node32 -->
<g id="node32" class="node"><title>Node32</title>
<g id="a_node32"><a xlink:href="classore_1_1data_1_1_callable_swap.html#ab1db499ff5e65c59fd2009d62276fdaf" target="_top" xlink:title="Build QuantLib/QuantExt instrument, link pricing engine.">
<polygon fill="white" stroke="#666666" points="319,-694 200,-694 200,-664 319,-664 319,-694"/>
<text text-anchor="start" x="208" y="-682" font-family="Helvetica,sans-Serif" font-size="10.00">ore::data::CallableSwap</text>
<text text-anchor="middle" x="259.5" y="-671" font-family="Helvetica,sans-Serif" font-size="10.00">::build</text>
</a>
</g>
</g>
<!-- Node30&#45;&gt;Node32 -->
<g id="edge32" class="edge"><title>Node30&#45;&gt;Node32</title>
<path fill="none" stroke="#63b8ff" d="M385.823,-679C364.513,-679 340.489,-679 319.219,-679"/>
<polygon fill="#63b8ff" stroke="#63b8ff" points="386.042,-682.5 396.042,-679 386.042,-675.5 386.042,-682.5"/>
</g>
<!-- Node33 -->
<g id="node33" class="node"><title>Node33</title>
<g id="a_node33"><a xlink:href="classore_1_1data_1_1_commodity_average_price_option.html#ab927cfcbbf36bfbbaa854f21f964aced" target="_top" xlink:title="Build a standard option.">
<polygon fill="white" stroke="#666666" points="340,-646 179,-646 179,-616 340,-616 340,-646"/>
<text text-anchor="start" x="187" y="-634" font-family="Helvetica,sans-Serif" font-size="10.00">ore::data::CommodityAverage</text>
<text text-anchor="middle" x="259.5" y="-623" font-family="Helvetica,sans-Serif" font-size="10.00">PriceOption::buildStandardOption</text>
</a>
</g>
</g>
<!-- Node30&#45;&gt;Node33 -->
<g id="edge33" class="edge"><title>Node30&#45;&gt;Node33</title>
<path fill="none" stroke="#63b8ff" d="M398.412,-666.88C374.117,-660.559 344.171,-652.768 318.398,-646.063"/>
<polygon fill="#63b8ff" stroke="#63b8ff" points="397.548,-670.271 408.107,-669.402 399.311,-663.497 397.548,-670.271"/>
</g>
<!-- Node44&#45;&gt;Node44 -->
<g id="edge45" class="edge"><title>Node44&#45;&gt;Node44</title>
<path fill="none" stroke="#63b8ff" d="M470.925,-161.689C469.566,-166.697 461.257,-170.5 446,-170.5 422.184,-170.5 415.299,-161.234 425.347,-152.583"/>
<polygon fill="#63b8ff" stroke="#63b8ff" points="474.069,-160.15 466.653,-152.583 467.732,-163.123 474.069,-160.15"/>
</g>
</g>
</svg>
