<?xml version="1.0" encoding="UTF-8" standalone="no"?>
<!DOCTYPE svg PUBLIC "-//W3C//DTD SVG 1.1//EN"
 "http://www.w3.org/Graphics/SVG/1.1/DTD/svg11.dtd">
<!-- Generated by graphviz version 2.38.0 (20140413.2041)
 -->
<!-- Title: fromXML Pages: 1 -->
<svg width="430pt" height="302pt"
 viewBox="0.00 0.00 430.00 302.00" xmlns="http://www.w3.org/2000/svg" xmlns:xlink="http://www.w3.org/1999/xlink">
<g id="graph0" class="graph" transform="scale(1 1) rotate(0) translate(4 298)">
<title>fromXML</title>
<!-- Node1 -->
<g id="node1" class="node"><title>Node1</title>
<g id="a_node1"><a xlink:title="XMLSerializable interface.">
<polygon fill="#999999" stroke="#666666" points="54,-179 0,-179 0,-160 54,-160 54,-179"/>
<text text-anchor="middle" x="27" y="-167" font-family="Helvetica,sans-Serif" font-size="10.00">fromXML</text>
</a>
</g>
</g>
<!-- Node2 -->
<g id="node2" class="node"><title>Node2</title>
<g id="a_node2"><a xlink:href="classore_1_1data_1_1_portfolio.html#a2dee4ce61500d6d075af518a136f0810" target="_top" xlink:title="Add a trade to the portfolio.">
<polygon fill="white" stroke="#666666" points="178.5,-294 146.5,-294 146.5,-275 178.5,-275 178.5,-294"/>
<text text-anchor="middle" x="162.5" y="-282" font-family="Helvetica,sans-Serif" font-size="10.00">add</text>
</a>
</g>
</g>
<!-- Node1&#45;&gt;Node2 -->
<g id="edge1" class="edge"><title>Node1&#45;&gt;Node2</title>
<path fill="none" stroke="#63b8ff" d="M31.4372,-179.08C38.9121,-198.509 58.5449,-242.636 90,-265.5 103.543,-275.345 121.834,-280.09 136.525,-282.376"/>
<polygon fill="#63b8ff" stroke="#63b8ff" points="136.104,-285.851 146.467,-283.645 136.99,-278.907 136.104,-285.851"/>
</g>
<!-- Node4 -->
<g id="node4" class="node"><title>Node4</title>
<g id="a_node4"><a xlink:href="classore_1_1data_1_1_x_m_l_utils.html#a37c092916f4bdf10d4fbf6bb9e474db7" target="_top" xlink:title=" ">
<polygon fill="white" stroke="#666666" points="212,-256.5 113,-256.5 113,-226.5 212,-226.5 212,-256.5"/>
<text text-anchor="start" x="121" y="-244.5" font-family="Helvetica,sans-Serif" font-size="10.00">ore::data::XMLUtils</text>
<text text-anchor="middle" x="162.5" y="-233.5" font-family="Helvetica,sans-Serif" font-size="10.00">::checkNode</text>
</a>
</g>
</g>
<!-- Node1&#45;&gt;Node4 -->
<g id="edge3" class="edge"><title>Node1&#45;&gt;Node4</title>
<path fill="none" stroke="#63b8ff" d="M38.2133,-179.173C49.9217,-189.821 70.076,-206.839 90,-217.5 94.25,-219.774 98.7562,-221.891 103.357,-223.847"/>
<polygon fill="#63b8ff" stroke="#63b8ff" points="102.297,-227.192 112.882,-227.64 104.886,-220.689 102.297,-227.192"/>
</g>
<!-- Node5 -->
<g id="node5" class="node"><title>Node5</title>
<g id="a_node5"><a xlink:href="classore_1_1data_1_1_x_m_l_utils.html#a2d656de3f92d61e867ec7a3c88ad4015" target="_top" xlink:title=" ">
<polygon fill="white" stroke="#666666" points="212,-208.5 113,-208.5 113,-178.5 212,-178.5 212,-208.5"/>
<text text-anchor="start" x="121" y="-196.5" font-family="Helvetica,sans-Serif" font-size="10.00">ore::data::XMLUtils</text>
<text text-anchor="middle" x="162.5" y="-185.5" font-family="Helvetica,sans-Serif" font-size="10.00">::getAttribute</text>
</a>
</g>
</g>
<!-- Node1&#45;&gt;Node5 -->
<g id="edge4" class="edge"><title>Node1&#45;&gt;Node5</title>
<path fill="none" stroke="#63b8ff" d="M54.0571,-174.184C68.012,-176.693 85.8041,-179.892 102.876,-182.961"/>
<polygon fill="#63b8ff" stroke="#63b8ff" points="102.349,-186.422 112.811,-184.747 103.588,-179.533 102.349,-186.422"/>
</g>
<!-- Node6 -->
<g id="node6" class="node"><title>Node6</title>
<g id="a_node6"><a xlink:href="classore_1_1data_1_1_x_m_l_utils.html#a42678b2a0d7c4052dc19123914359ec1" target="_top" xlink:title="Returns all the children with a given name.">
<polygon fill="white" stroke="#666666" points="212,-160.5 113,-160.5 113,-130.5 212,-130.5 212,-160.5"/>
<text text-anchor="start" x="121" y="-148.5" font-family="Helvetica,sans-Serif" font-size="10.00">ore::data::XMLUtils</text>
<text text-anchor="middle" x="162.5" y="-137.5" font-family="Helvetica,sans-Serif" font-size="10.00">::getChildrenNodes</text>
</a>
</g>
</g>
<!-- Node1&#45;&gt;Node6 -->
<g id="edge5" class="edge"><title>Node1&#45;&gt;Node6</title>
<path fill="none" stroke="#63b8ff" d="M54.0571,-164.816C68.012,-162.307 85.8041,-159.108 102.876,-156.039"/>
<polygon fill="#63b8ff" stroke="#63b8ff" points="103.588,-159.467 112.811,-154.253 102.349,-152.578 103.588,-159.467"/>
</g>
<!-- Node7 -->
<g id="node7" class="node"><title>Node7</title>
<g id="a_node7"><a xlink:href="classore_1_1data_1_1_x_m_l_utils.html#a5a1307174ddefdb3aad6e3bd8cc63b27" target="_top" xlink:title=" ">
<polygon fill="white" stroke="#666666" points="212,-112.5 113,-112.5 113,-82.5 212,-82.5 212,-112.5"/>
<text text-anchor="start" x="121" y="-100.5" font-family="Helvetica,sans-Serif" font-size="10.00">ore::data::XMLUtils</text>
<text text-anchor="middle" x="162.5" y="-89.5" font-family="Helvetica,sans-Serif" font-size="10.00">::getChildValue</text>
</a>
</g>
</g>
<!-- Node1&#45;&gt;Node7 -->
<g id="edge6" class="edge"><title>Node1&#45;&gt;Node7</title>
<path fill="none" stroke="#63b8ff" d="M38.2133,-159.827C49.9217,-149.179 70.076,-132.161 90,-121.5 94.25,-119.226 98.7562,-117.109 103.357,-115.153"/>
<polygon fill="#63b8ff" stroke="#63b8ff" points="104.886,-118.311 112.882,-111.36 102.297,-111.808 104.886,-118.311"/>
</g>
<!-- Node9 -->
<g id="node9" class="node"><title>Node9</title>
<g id="a_node9"><a xlink:href="classore_1_1data_1_1_j_s_o_n_message.html#a5e21eca2668ed948bdc409b19a78e5bb" target="_top" xlink:title="generate Boost log record to pass to corresponding sinks">
<polygon fill="white" stroke="#666666" points="235,-62 90,-62 90,-43 235,-43 235,-62"/>
<text text-anchor="middle" x="162.5" y="-50" font-family="Helvetica,sans-Serif" font-size="10.00">ore::data::JSONMessage::log</text>
</a>
</g>
</g>
<!-- Node1&#45;&gt;Node9 -->
<g id="edge8" class="edge"><title>Node1&#45;&gt;Node9</title>
<path fill="none" stroke="#63b8ff" d="M31.4865,-159.986C39.0524,-140.681 58.8441,-96.7704 90,-73.5 93.8158,-70.65 98.0126,-68.1854 102.402,-66.0543"/>
<polygon fill="#63b8ff" stroke="#63b8ff" points="103.79,-69.2673 111.622,-62.1317 101.05,-62.826 103.79,-69.2673"/>
</g>
<!-- Node3 -->
<g id="node3" class="node"><title>Node3</title>
<g id="a_node3"><a xlink:href="classore_1_1data_1_1_portfolio.html#ae9d256db4455a57dfc163ef743ae1c6a" target="_top" xlink:title="Check if a trade id is already in the portfolio.">
<polygon fill="white" stroke="#666666" points="362.5,-294 330.5,-294 330.5,-275 362.5,-275 362.5,-294"/>
<text text-anchor="middle" x="346.5" y="-282" font-family="Helvetica,sans-Serif" font-size="10.00">has</text>
</a>
</g>
</g>
<!-- Node2&#45;&gt;Node3 -->
<g id="edge2" class="edge"><title>Node2&#45;&gt;Node3</title>
<path fill="none" stroke="#63b8ff" d="M178.704,-284.5C209.963,-284.5 281.724,-284.5 320.137,-284.5"/>
<polygon fill="#63b8ff" stroke="#63b8ff" points="320.467,-288 330.467,-284.5 320.467,-281 320.467,-288"/>
</g>
<!-- Node8 -->
<g id="node8" class="node"><title>Node8</title>
<g id="a_node8"><a xlink:href="classore_1_1data_1_1_x_m_l_utils.html#a6704501b110fa9d056096df3e05f0df2" target="_top" xlink:title="Get a node&#39;s value.">
<polygon fill="white" stroke="#666666" points="396,-115.5 297,-115.5 297,-85.5 396,-85.5 396,-115.5"/>
<text text-anchor="start" x="305" y="-103.5" font-family="Helvetica,sans-Serif" font-size="10.00">ore::data::XMLUtils</text>
<text text-anchor="middle" x="346.5" y="-92.5" font-family="Helvetica,sans-Serif" font-size="10.00">::getNodeValue</text>
</a>
</g>
</g>
<!-- Node7&#45;&gt;Node8 -->
<g id="edge7" class="edge"><title>Node7&#45;&gt;Node8</title>
<path fill="none" stroke="#63b8ff" d="M212.273,-98.3039C235.214,-98.6821 262.755,-99.1361 286.828,-99.5329"/>
<polygon fill="#63b8ff" stroke="#63b8ff" points="286.852,-103.034 296.909,-99.699 286.968,-96.0346 286.852,-103.034"/>
</g>
<!-- Node10 -->
<g id="node10" class="node"><title>Node10</title>
<g id="a_node10"><a xlink:href="classore_1_1data_1_1_j_s_o_n_message.html#a6a9077605df871e6e961dd0099645b35" target="_top" xlink:title="generate Boost log record &#45; this method is called by log()">
<polygon fill="white" stroke="#666666" points="409.5,-67.5 283.5,-67.5 283.5,-37.5 409.5,-37.5 409.5,-67.5"/>
<text text-anchor="start" x="291.5" y="-55.5" font-family="Helvetica,sans-Serif" font-size="10.00">ore::data::JSONMessage</text>
<text text-anchor="middle" x="346.5" y="-44.5" font-family="Helvetica,sans-Serif" font-size="10.00">::emitLog</text>
</a>
</g>
</g>
<!-- Node9&#45;&gt;Node10 -->
<g id="edge9" class="edge"><title>Node9&#45;&gt;Node10</title>
<path fill="none" stroke="#63b8ff" d="M235.17,-52.5C247.604,-52.5 260.543,-52.5 272.999,-52.5"/>
<polygon fill="#63b8ff" stroke="#63b8ff" points="273.327,-56.0001 283.327,-52.5 273.327,-49.0001 273.327,-56.0001"/>
</g>
<!-- Node11 -->
<g id="node11" class="node"><title>Node11</title>
<g id="a_node11"><a xlink:href="classore_1_1data_1_1_j_s_o_n_message.html#a39f83a0ab38c425a8844c8892b93d69e" target="_top" xlink:title="return a std::string for the log file">
<polygon fill="white" stroke="#666666" points="422,-19 271,-19 271,-0 422,-0 422,-19"/>
<text text-anchor="middle" x="346.5" y="-7" font-family="Helvetica,sans-Serif" font-size="10.00">ore::data::JSONMessage::msg</text>
</a>
</g>
</g>
<!-- Node9&#45;&gt;Node11 -->
<g id="edge10" class="edge"><title>Node9&#45;&gt;Node11</title>
<path fill="none" stroke="#63b8ff" d="M203.892,-42.9569C230.871,-36.5826 266.553,-28.1523 295.349,-21.349"/>
<polygon fill="#63b8ff" stroke="#63b8ff" points="296.294,-24.7221 305.221,-19.0164 294.684,-17.9096 296.294,-24.7221"/>
</g>
</g>
</svg>
