<?xml version="1.0" encoding="UTF-8" standalone="no"?>
<!DOCTYPE svg PUBLIC "-//W3C//DTD SVG 1.1//EN"
 "http://www.w3.org/Graphics/SVG/1.1/DTD/svg11.dtd">
<!-- Generated by graphviz version 2.38.0 (20140413.2041)
 -->
<!-- Title: toXML Pages: 1 -->
<svg width="680pt" height="180pt"
 viewBox="0.00 0.00 680.00 179.91" xmlns="http://www.w3.org/2000/svg" xmlns:xlink="http://www.w3.org/1999/xlink">
<g id="graph0" class="graph" transform="scale(1 1) rotate(0) translate(4 175.911)">
<title>toXML</title>
<!-- Node1 -->
<g id="node1" class="node"><title>Node1</title>
<g id="a_node1"><a xlink:title=" ">
<polygon fill="#999999" stroke="#666666" points="44,-120.5 0,-120.5 0,-101.5 44,-101.5 44,-120.5"/>
<text text-anchor="middle" x="22" y="-108.5" font-family="Helvetica,sans-Serif" font-size="10.00">toXML</text>
</a>
</g>
</g>
<!-- Node2 -->
<g id="node2" class="node"><title>Node2</title>
<g id="a_node2"><a xlink:href="classore_1_1data_1_1_x_m_l_utils.html#aced1fd4bd35df3642d8022301744b138" target="_top" xlink:title=" ">
<polygon fill="white" stroke="#666666" points="352,-141 253,-141 253,-111 352,-111 352,-141"/>
<text text-anchor="start" x="261" y="-129" font-family="Helvetica,sans-Serif" font-size="10.00">ore::data::XMLUtils</text>
<text text-anchor="middle" x="302.5" y="-118" font-family="Helvetica,sans-Serif" font-size="10.00">::addChild</text>
</a>
</g>
</g>
<!-- Node1&#45;&gt;Node2 -->
<g id="edge1" class="edge"><title>Node1&#45;&gt;Node2</title>
<path fill="none" stroke="#63b8ff" d="M40.6367,-120.587C51.6099,-125.996 66.2125,-132.216 80,-135 134.248,-145.955 197.441,-141.763 242.413,-135.984"/>
<polygon fill="#63b8ff" stroke="#63b8ff" points="243.136,-139.418 252.577,-134.611 242.199,-132.481 243.136,-139.418"/>
</g>
<!-- Node3 -->
<g id="node3" class="node"><title>Node3</title>
<g id="a_node3"><a xlink:href="classore_1_1data_1_1_x_m_l_document.html#a8717c517803f0df2e693e3cadefeafd7" target="_top" xlink:title="util functions that wrap rapidxml">
<polygon fill="white" stroke="#666666" points="512,-141 388,-141 388,-111 512,-111 512,-141"/>
<text text-anchor="start" x="396" y="-129" font-family="Helvetica,sans-Serif" font-size="10.00">ore::data::XMLDocument</text>
<text text-anchor="middle" x="450" y="-118" font-family="Helvetica,sans-Serif" font-size="10.00">::allocNode</text>
</a>
</g>
</g>
<!-- Node1&#45;&gt;Node3 -->
<g id="edge4" class="edge"><title>Node1&#45;&gt;Node3</title>
<path fill="none" stroke="#63b8ff" d="M32.4213,-120.704C42.931,-130.766 60.9723,-145.868 80,-152 195.064,-189.084 232.107,-165.514 352,-150 363.694,-148.487 376.016,-146.085 387.808,-143.374"/>
<polygon fill="#63b8ff" stroke="#63b8ff" points="388.655,-146.77 397.564,-141.036 387.023,-139.963 388.655,-146.77"/>
</g>
<!-- Node5 -->
<g id="node5" class="node"><title>Node5</title>
<g id="a_node5"><a xlink:href="classore_1_1data_1_1_x_m_l_utils.html#ae646b9cdf949a88f35c36c18bf90b370" target="_top" xlink:title=" ">
<polygon fill="white" stroke="#666666" points="198,-126 99,-126 99,-96 198,-96 198,-126"/>
<text text-anchor="start" x="107" y="-114" font-family="Helvetica,sans-Serif" font-size="10.00">ore::data::XMLUtils</text>
<text text-anchor="middle" x="148.5" y="-103" font-family="Helvetica,sans-Serif" font-size="10.00">::appendNode</text>
</a>
</g>
</g>
<!-- Node1&#45;&gt;Node5 -->
<g id="edge5" class="edge"><title>Node1&#45;&gt;Node5</title>
<path fill="none" stroke="#63b8ff" d="M44.1197,-111C56.4122,-111 72.5779,-111 88.4637,-111"/>
<polygon fill="#63b8ff" stroke="#63b8ff" points="88.819,-114.5 98.819,-111 88.819,-107.5 88.819,-114.5"/>
</g>
<!-- Node6 -->
<g id="node6" class="node"><title>Node6</title>
<g id="a_node6"><a xlink:href="classore_1_1data_1_1_netting_set_details.html#a644718bb2fb240de962dc3c9a1fdf0dc" target="_top" xlink:title="Check if the netting set details have been populated.">
<polygon fill="white" stroke="#666666" points="217,-78 80,-78 80,-48 217,-48 217,-78"/>
<text text-anchor="start" x="88" y="-66" font-family="Helvetica,sans-Serif" font-size="10.00">ore::data::NettingSetDetails</text>
<text text-anchor="middle" x="148.5" y="-55" font-family="Helvetica,sans-Serif" font-size="10.00">::empty</text>
</a>
</g>
</g>
<!-- Node1&#45;&gt;Node6 -->
<g id="edge6" class="edge"><title>Node1&#45;&gt;Node6</title>
<path fill="none" stroke="#63b8ff" d="M44.2661,-101.707C54.9335,-97.1322 68.0877,-91.6213 80,-87 84.7342,-85.1634 89.6752,-83.3022 94.6367,-81.4709"/>
<polygon fill="#63b8ff" stroke="#63b8ff" points="95.9582,-84.7145 104.154,-78.0004 93.5601,-78.1381 95.9582,-84.7145"/>
</g>
<!-- Node7 -->
<g id="node7" class="node"><title>Node7</title>
<g id="a_node7"><a xlink:href="classore_1_1data_1_1_netting_set_details.html#a7efefb9270d6c4933e4c96de0771f17a" target="_top" xlink:title=" ">
<polygon fill="white" stroke="#666666" points="217,-30 80,-30 80,-0 217,-0 217,-30"/>
<text text-anchor="start" x="88" y="-18" font-family="Helvetica,sans-Serif" font-size="10.00">ore::data::NettingSetDetails</text>
<text text-anchor="middle" x="148.5" y="-7" font-family="Helvetica,sans-Serif" font-size="10.00">::toXML</text>
</a>
</g>
</g>
<!-- Node1&#45;&gt;Node7 -->
<g id="edge7" class="edge"><title>Node1&#45;&gt;Node7</title>
<path fill="none" stroke="#63b8ff" d="M28.3301,-101.17C37.1372,-85.8016 56.1485,-56.0778 80,-39 82.0794,-37.5111 84.2602,-36.1066 86.5128,-34.7825"/>
<polygon fill="#63b8ff" stroke="#63b8ff" points="88.2681,-37.814 95.4939,-30.0655 85.0132,-31.6168 88.2681,-37.814"/>
</g>
<!-- Node2&#45;&gt;Node3 -->
<g id="edge2" class="edge"><title>Node2&#45;&gt;Node3</title>
<path fill="none" stroke="#63b8ff" d="M352.354,-126C360.543,-126 369.186,-126 377.8,-126"/>
<polygon fill="#63b8ff" stroke="#63b8ff" points="377.87,-129.5 387.87,-126 377.87,-122.5 377.87,-129.5"/>
</g>
<!-- Node4 -->
<g id="node4" class="node"><title>Node4</title>
<g id="a_node4"><a xlink:href="classore_1_1data_1_1_x_m_l_document.html#ae3474059e483990f3afea260096e5c90" target="_top" xlink:title=" ">
<polygon fill="white" stroke="#666666" points="672,-141 548,-141 548,-111 672,-111 672,-141"/>
<text text-anchor="start" x="556" y="-129" font-family="Helvetica,sans-Serif" font-size="10.00">ore::data::XMLDocument</text>
<text text-anchor="middle" x="610" y="-118" font-family="Helvetica,sans-Serif" font-size="10.00">::allocString</text>
</a>
</g>
</g>
<!-- Node3&#45;&gt;Node4 -->
<g id="edge3" class="edge"><title>Node3&#45;&gt;Node4</title>
<path fill="none" stroke="#63b8ff" d="M512.087,-126C520.513,-126 529.226,-126 537.815,-126"/>
<polygon fill="#63b8ff" stroke="#63b8ff" points="537.815,-129.5 547.815,-126 537.815,-122.5 537.815,-129.5"/>
</g>
<!-- Node7&#45;&gt;Node2 -->
<g id="edge8" class="edge"><title>Node7&#45;&gt;Node2</title>
<path fill="none" stroke="#63b8ff" d="M200.116,-30.0841C206.003,-32.677 211.767,-35.64 217,-39 243.701,-56.1443 268.248,-83.2522 283.924,-102.652"/>
<polygon fill="#63b8ff" stroke="#63b8ff" points="281.335,-105.021 290.279,-110.701 286.829,-100.683 281.335,-105.021"/>
</g>
<!-- Node7&#45;&gt;Node3 -->
<g id="edge9" class="edge"><title>Node7&#45;&gt;Node3</title>
<path fill="none" stroke="#63b8ff" d="M192.389,-30.125C200.569,-33.0449 209.056,-36.0984 217,-39 280.185,-62.0783 352.745,-89.4247 399.649,-107.214"/>
<polygon fill="#63b8ff" stroke="#63b8ff" points="398.665,-110.583 409.256,-110.859 401.149,-104.039 398.665,-110.583"/>
</g>
</g>
</svg>
