<?xml version="1.0" encoding="UTF-8" standalone="no"?>
<!DOCTYPE svg PUBLIC "-//W3C//DTD SVG 1.1//EN"
 "http://www.w3.org/Graphics/SVG/1.1/DTD/svg11.dtd">
<!-- Generated by graphviz version 2.38.0 (20140413.2041)
 -->
<!-- Title: optionStrike Pages: 1 -->
<svg width="700pt" height="168pt"
 viewBox="0.00 0.00 700.00 168.00" xmlns="http://www.w3.org/2000/svg" xmlns:xlink="http://www.w3.org/1999/xlink">
<g id="graph0" class="graph" transform="scale(1 1) rotate(0) translate(4 164)">
<title>optionStrike</title>
<!-- Node1 -->
<g id="node1" class="node"><title>Node1</title>
<g id="a_node1"><a xlink:title=" ">
<polygon fill="#999999" stroke="#666666" points="68,-56 0,-56 0,-37 68,-37 68,-56"/>
<text text-anchor="middle" x="34" y="-44" font-family="Helvetica,sans-Serif" font-size="10.00">optionStrike</text>
</a>
</g>
</g>
<!-- Node2 -->
<g id="node2" class="node"><title>Node2</title>
<g id="a_node2"><a xlink:href="classore_1_1data_1_1_fx_bs_builder.html#a81f79f66c53af5b302e1b92331ba5676" target="_top" xlink:title=" ">
<polygon fill="white" stroke="#666666" points="194.5,-97 123.5,-97 123.5,-78 194.5,-78 194.5,-97"/>
<text text-anchor="middle" x="159" y="-85" font-family="Helvetica,sans-Serif" font-size="10.00">optionExpiry</text>
</a>
</g>
</g>
<!-- Node1&#45;&gt;Node2 -->
<g id="edge1" class="edge"><title>Node1&#45;&gt;Node2</title>
<path fill="none" stroke="#63b8ff" d="M63.5278,-56.0093C80.1742,-61.5581 101.396,-68.6321 119.508,-74.6692"/>
<polygon fill="#63b8ff" stroke="#63b8ff" points="118.607,-78.0583 129.201,-77.9003 120.821,-71.4175 118.607,-78.0583"/>
</g>
<!-- Node8 -->
<g id="node8" class="node"><title>Node8</title>
<g id="a_node8"><a xlink:href="group__utilities.html#ga2037f312d2920037572bdc0c30a6395d" target="_top" xlink:title="Convert text to Strike.">
<polygon fill="white" stroke="#666666" points="214,-56 104,-56 104,-37 214,-37 214,-56"/>
<text text-anchor="middle" x="159" y="-44" font-family="Helvetica,sans-Serif" font-size="10.00">ore::data::parseStrike</text>
</a>
</g>
</g>
<!-- Node1&#45;&gt;Node8 -->
<g id="edge9" class="edge"><title>Node1&#45;&gt;Node8</title>
<path fill="none" stroke="#63b8ff" d="M68.2856,-46.5C76.1606,-46.5 84.8236,-46.5 93.5659,-46.5"/>
<polygon fill="#63b8ff" stroke="#63b8ff" points="93.8225,-50.0001 103.822,-46.5 93.8224,-43.0001 93.8225,-50.0001"/>
</g>
<!-- Node10 -->
<g id="node10" class="node"><title>Node10</title>
<g id="a_node10"><a target="_parent" xlink:href="../qle/namespace_quant_ext.html#a1b4a64a3620f987e65fec4ccf7cadcf2" xlink:title=" ">
<polygon fill="white" stroke="#666666" points="199,-19 119,-19 119,-0 199,-0 199,-19"/>
<text text-anchor="middle" x="159" y="-7" font-family="Helvetica,sans-Serif" font-size="10.00">QuantExt::sqrt</text>
</a>
</g>
</g>
<!-- Node1&#45;&gt;Node10 -->
<g id="edge12" class="edge"><title>Node1&#45;&gt;Node10</title>
<path fill="none" stroke="#63b8ff" d="M66.6756,-36.9716C81.7657,-32.4323 100.017,-26.9421 116.224,-22.0668"/>
<polygon fill="#63b8ff" stroke="#63b8ff" points="117.436,-25.3571 126.004,-19.1247 115.42,-18.6538 117.436,-25.3571"/>
</g>
<!-- Node3 -->
<g id="node3" class="node"><title>Node3</title>
<g id="a_node3"><a xlink:href="group__utilities.html#ga6477391407eac174ea49df689ecf1ab2" target="_top" xlink:title="Convert text to QuantLib::Period or QuantLib::Date.">
<polygon fill="white" stroke="#666666" points="393,-106 250,-106 250,-87 393,-87 393,-106"/>
<text text-anchor="middle" x="321.5" y="-94" font-family="Helvetica,sans-Serif" font-size="10.00">ore::data::parseDateOrPeriod</text>
</a>
</g>
</g>
<!-- Node2&#45;&gt;Node3 -->
<g id="edge2" class="edge"><title>Node2&#45;&gt;Node3</title>
<path fill="none" stroke="#63b8ff" d="M194.826,-89.4529C208.061,-90.195 223.754,-91.075 239.486,-91.9572"/>
<polygon fill="#63b8ff" stroke="#63b8ff" points="239.625,-95.4703 249.805,-92.5358 240.017,-88.4813 239.625,-95.4703"/>
</g>
<!-- Node4 -->
<g id="node4" class="node"><title>Node4</title>
<g id="a_node4"><a xlink:href="group__utilities.html#ga59b5fdda574d90facae95dec2d13040d" target="_top" xlink:title="Convert std::string to QuantLib::Date.">
<polygon fill="white" stroke="#666666" points="538,-124 433,-124 433,-105 538,-105 538,-124"/>
<text text-anchor="middle" x="485.5" y="-112" font-family="Helvetica,sans-Serif" font-size="10.00">ore::data::parseDate</text>
</a>
</g>
</g>
<!-- Node3&#45;&gt;Node4 -->
<g id="edge3" class="edge"><title>Node3&#45;&gt;Node4</title>
<path fill="none" stroke="#63b8ff" d="M393.084,-104.343C402.852,-105.428 412.826,-106.536 422.424,-107.603"/>
<polygon fill="#63b8ff" stroke="#63b8ff" points="422.339,-111.115 432.664,-108.74 423.112,-104.157 422.339,-111.115"/>
</g>
<!-- Node7 -->
<g id="node7" class="node"><title>Node7</title>
<g id="a_node7"><a xlink:href="group__utilities.html#ga8e0623e2cb01e250e9cfec4619256208" target="_top" xlink:title="Convert text to QuantLib::Period.">
<polygon fill="white" stroke="#666666" points="542,-87 429,-87 429,-68 542,-68 542,-87"/>
<text text-anchor="middle" x="485.5" y="-75" font-family="Helvetica,sans-Serif" font-size="10.00">ore::data::parsePeriod</text>
</a>
</g>
</g>
<!-- Node3&#45;&gt;Node7 -->
<g id="edge8" class="edge"><title>Node3&#45;&gt;Node7</title>
<path fill="none" stroke="#63b8ff" d="M393.084,-88.2216C401.571,-87.2263 410.212,-86.2127 418.628,-85.2257"/>
<polygon fill="#63b8ff" stroke="#63b8ff" points="419.232,-88.679 428.756,-84.0379 418.416,-81.7267 419.232,-88.679"/>
</g>
<!-- Node4&#45;&gt;Node4 -->
<g id="edge4" class="edge"><title>Node4&#45;&gt;Node4</title>
<path fill="none" stroke="#63b8ff" d="M462.689,-124.083C451.592,-132.734 459.195,-142 485.5,-142 502.351,-142 511.528,-138.197 513.03,-133.189"/>
<polygon fill="#63b8ff" stroke="#63b8ff" points="516.019,-131.352 508.311,-124.083 509.804,-134.572 516.019,-131.352"/>
</g>
<!-- Node5 -->
<g id="node5" class="node"><title>Node5</title>
<g id="a_node5"><a xlink:href="group__utilities.html#gaecd67eda4fb5f4859bb8f6d383547721" target="_top" xlink:title="Convert text to QuantLib::Integer.">
<polygon fill="white" stroke="#666666" points="692,-142 578,-142 578,-123 692,-123 692,-142"/>
<text text-anchor="middle" x="635" y="-130" font-family="Helvetica,sans-Serif" font-size="10.00">ore::data::parseInteger</text>
</a>
</g>
</g>
<!-- Node4&#45;&gt;Node5 -->
<g id="edge5" class="edge"><title>Node4&#45;&gt;Node5</title>
<path fill="none" stroke="#63b8ff" d="M538.088,-120.796C547.746,-121.974 557.962,-123.221 567.986,-124.444"/>
<polygon fill="#63b8ff" stroke="#63b8ff" points="567.567,-127.919 577.918,-125.656 568.415,-120.97 567.567,-127.919"/>
</g>
<!-- Node6 -->
<g id="node6" class="node"><title>Node6</title>
<g id="a_node6"><a xlink:href="namespaceore_1_1data.html#a777e216dee6069b548bb87da7152699e" target="_top" xlink:title=" ">
<polygon fill="white" stroke="#666666" points="674.5,-105 595.5,-105 595.5,-86 674.5,-86 674.5,-105"/>
<text text-anchor="middle" x="635" y="-93" font-family="Helvetica,sans-Serif" font-size="10.00">ore::data::size</text>
</a>
</g>
</g>
<!-- Node4&#45;&gt;Node6 -->
<g id="edge7" class="edge"><title>Node4&#45;&gt;Node6</title>
<path fill="none" stroke="#63b8ff" d="M538.088,-107.855C553.343,-105.89 569.992,-103.745 585.074,-101.802"/>
<polygon fill="#63b8ff" stroke="#63b8ff" points="585.757,-105.243 595.228,-100.494 584.863,-98.3007 585.757,-105.243"/>
</g>
<!-- Node5&#45;&gt;Node5 -->
<g id="edge6" class="edge"><title>Node5&#45;&gt;Node5</title>
<path fill="none" stroke="#63b8ff" d="M612.189,-142.083C601.092,-150.734 608.695,-160 635,-160 651.851,-160 661.028,-156.197 662.53,-151.189"/>
<polygon fill="#63b8ff" stroke="#63b8ff" points="665.519,-149.352 657.811,-142.083 659.304,-152.572 665.519,-149.352"/>
</g>
<!-- Node9 -->
<g id="node9" class="node"><title>Node9</title>
<g id="a_node9"><a xlink:href="group__utilities.html#gad1db2a68f9a73667c3b4084d63955bdd" target="_top" xlink:title="Convert text to Real.">
<polygon fill="white" stroke="#666666" points="373.5,-51 269.5,-51 269.5,-32 373.5,-32 373.5,-51"/>
<text text-anchor="middle" x="321.5" y="-39" font-family="Helvetica,sans-Serif" font-size="10.00">ore::data::parseReal</text>
</a>
</g>
</g>
<!-- Node8&#45;&gt;Node9 -->
<g id="edge10" class="edge"><title>Node8&#45;&gt;Node9</title>
<path fill="none" stroke="#63b8ff" d="M214.338,-44.8072C228.82,-44.3561 244.564,-43.8656 259.384,-43.4039"/>
<polygon fill="#63b8ff" stroke="#63b8ff" points="259.583,-46.8995 269.469,-43.0898 259.365,-39.9029 259.583,-46.8995"/>
</g>
<!-- Node9&#45;&gt;Node9 -->
<g id="edge11" class="edge"><title>Node9&#45;&gt;Node9</title>
<path fill="none" stroke="#63b8ff" d="M296.531,-51.0828C284.384,-59.7337 292.707,-69 321.5,-69 340.395,-69 350.475,-65.0094 351.739,-59.8208"/>
<polygon fill="#63b8ff" stroke="#63b8ff" points="354.631,-57.8383 346.469,-51.0828 348.637,-61.4536 354.631,-57.8383"/>
</g>
</g>
</svg>
