<?xml version="1.0" encoding="UTF-8" standalone="no"?>
<!DOCTYPE svg PUBLIC "-//W3C//DTD SVG 1.1//EN"
 "http://www.w3.org/Graphics/SVG/1.1/DTD/svg11.dtd">
<!-- Generated by graphviz version 2.38.0 (20140413.2041)
 -->
<!-- Title: setType Pages: 1 -->
<!--zoomable 758 -->
<svg id="main" version="1.1" xmlns="http://www.w3.org/2000/svg" xmlns:xlink="http://www.w3.org/1999/xlink" xml:space="preserve" onload="init(evt)">
<style type="text/css"><![CDATA[
.edge:hover path { stroke: red; }
.edge:hover polygon { stroke: red; fill: red; }
]]></style>
<script type="text/javascript"><![CDATA[
var edges = document.getElementsByTagName('g');
if (edges && edges.length) {
  for (var i=0;i<edges.length;i++) {
    if (edges[i].id.substr(0,4)=='edge') {
      edges[i].setAttribute('class','edge');
    }
  }
}
]]></script>
        <defs>
                <circle id="rim" cx="0" cy="0" r="7"/>
                <circle id="rim2" cx="0" cy="0" r="3.5"/>
                <g id="zoomPlus">
                        <use xlink:href="#rim" fill="#404040">
                                <set attributeName="fill" to="#808080" begin="zoomplus.mouseover" end="zoomplus.mouseout"/>
                        </use>
                        <path d="M-4,0h8M0,-4v8" fill="none" stroke="white" stroke-width="1.5" pointer-events="none"/>
                </g>
                <g id="zoomMin">
                        <use xlink:href="#rim" fill="#404040">
                                <set attributeName="fill" to="#808080" begin="zoomminus.mouseover" end="zoomminus.mouseout"/>
                        </use>
                        <path d="M-4,0h8" fill="none" stroke="white" stroke-width="1.5" pointer-events="none"/>
                </g>
                <g id="dirArrow">
                        <path fill="none" stroke="white" stroke-width="1.5" d="M0,-3.0v7 M-2.5,-0.5L0,-3.0L2.5,-0.5"/>
                </g>
               <g id="resetDef">
                       <use xlink:href="#rim2" fill="#404040">
                               <set attributeName="fill" to="#808080" begin="reset.mouseover" end="reset.mouseout"/>
                       </use>
               </g>
        </defs>

<script type="text/javascript">
var viewWidth = 453;
var viewHeight = 758;
var sectionId = 'dynsection-8';
</script>
<script xlink:href="svgpan.js"/>
<svg id="graph" class="graph">
<g id="viewport">
<title>setType</title>
<!-- Node1 -->
<g id="node1" class="node"><title>Node1</title>
<g id="a_node1"><a xlink:title=" ">
<polygon fill="#999999" stroke="#666666" points="445,-384.5 394,-384.5 394,-365.5 445,-365.5 445,-384.5"/>
<text text-anchor="middle" x="419.5" y="-372.5" font-family="Helvetica,sans-Serif" font-size="10.00">setType</text>
</a>
</g>
</g>
<!-- Node2 -->
<g id="node2" class="node"><title>Node2</title>
<g id="a_node2"><a xlink:href="classore_1_1data_1_1_basic_underlying.html#afe2a656ffad788d3824ad24553355c27" target="_top" xlink:title="Default Constructor.">
<polygon fill="white" stroke="#666666" points="344,-750 213,-750 213,-720 344,-720 344,-750"/>
<text text-anchor="start" x="221" y="-738" font-family="Helvetica,sans-Serif" font-size="10.00">ore::data::BasicUnderlying</text>
<text text-anchor="middle" x="278.5" y="-727" font-family="Helvetica,sans-Serif" font-size="10.00">::BasicUnderlying</text>
</a>
</g>
</g>
<!-- Node1&#45;&gt;Node2 -->
<g id="edge1" class="edge"><title>Node1&#45;&gt;Node2</title>
<path fill="none" stroke="#63b8ff" d="M417.579,-394.776C414.174,-459.479 400.23,-663.441 358,-711 354.026,-715.476 349.243,-719.129 344.023,-722.109"/>
<polygon fill="#63b8ff" stroke="#63b8ff" points="421.079,-394.853 418.082,-384.691 414.088,-394.505 421.079,-394.853"/>
</g>
<!-- Node3 -->
<g id="node3" class="node"><title>Node3</title>
<g id="a_node3"><a xlink:href="classore_1_1data_1_1_bond_underlying.html#ab9c2e7a8763e76b2719729d4cbec296d" target="_top" xlink:title="Default constructor.">
<polygon fill="white" stroke="#666666" points="343,-702 214,-702 214,-672 343,-672 343,-702"/>
<text text-anchor="start" x="222" y="-690" font-family="Helvetica,sans-Serif" font-size="10.00">ore::data::BondUnderlying</text>
<text text-anchor="middle" x="278.5" y="-679" font-family="Helvetica,sans-Serif" font-size="10.00">::BondUnderlying</text>
</a>
</g>
</g>
<!-- Node1&#45;&gt;Node3 -->
<g id="edge2" class="edge"><title>Node1&#45;&gt;Node3</title>
<path fill="none" stroke="#63b8ff" d="M416.916,-394.932C411.875,-453.465 394.357,-623.228 358,-663 353.769,-667.628 348.674,-671.374 343.136,-674.405"/>
<polygon fill="#63b8ff" stroke="#63b8ff" points="420.419,-395.036 417.759,-384.78 413.443,-394.456 420.419,-395.036"/>
</g>
<!-- Node4 -->
<g id="node4" class="node"><title>Node4</title>
<g id="a_node4"><a xlink:href="classore_1_1data_1_1_commodity_underlying.html#a35a0f34e65409d2b0ed0281a4248e679" target="_top" xlink:title="Default Constructor.">
<polygon fill="white" stroke="#666666" points="356.5,-654 200.5,-654 200.5,-624 356.5,-624 356.5,-654"/>
<text text-anchor="start" x="208.5" y="-642" font-family="Helvetica,sans-Serif" font-size="10.00">ore::data::CommodityUnderlying</text>
<text text-anchor="middle" x="278.5" y="-631" font-family="Helvetica,sans-Serif" font-size="10.00">::CommodityUnderlying</text>
</a>
</g>
</g>
<!-- Node1&#45;&gt;Node4 -->
<g id="edge3" class="edge"><title>Node1&#45;&gt;Node4</title>
<path fill="none" stroke="#63b8ff" d="M416.008,-394.926C409.17,-446.554 388.565,-582.874 358,-615 354.758,-618.407 351.048,-621.335 347.044,-623.85"/>
<polygon fill="#63b8ff" stroke="#63b8ff" points="419.513,-395.113 417.322,-384.747 412.571,-394.217 419.513,-395.113"/>
</g>
<!-- Node5 -->
<g id="node5" class="node"><title>Node5</title>
<g id="a_node5"><a xlink:href="classore_1_1data_1_1_credit_underlying.html#abea3ad3c18d0d820fcbcfc5f09d78980" target="_top" xlink:title="Default Constructor.">
<polygon fill="white" stroke="#666666" points="344.5,-606 212.5,-606 212.5,-576 344.5,-576 344.5,-606"/>
<text text-anchor="start" x="220.5" y="-594" font-family="Helvetica,sans-Serif" font-size="10.00">ore::data::CreditUnderlying</text>
<text text-anchor="middle" x="278.5" y="-583" font-family="Helvetica,sans-Serif" font-size="10.00">::CreditUnderlying</text>
</a>
</g>
</g>
<!-- Node1&#45;&gt;Node5 -->
<g id="edge4" class="edge"><title>Node1&#45;&gt;Node5</title>
<path fill="none" stroke="#63b8ff" d="M418.043,-394.968C416.059,-433.671 406.132,-519.278 358,-567 354.053,-570.913 349.487,-574.191 344.582,-576.937"/>
<polygon fill="#63b8ff" stroke="#63b8ff" points="421.557,-394.681 418.438,-384.556 414.562,-394.416 421.557,-394.681"/>
</g>
<!-- Node6 -->
<g id="node6" class="node"><title>Node6</title>
<g id="a_node6"><a xlink:href="classore_1_1data_1_1_equity_underlying.html#a91a1a243738f6fefe28e1272b301203c" target="_top" xlink:title="Default constructor.">
<polygon fill="white" stroke="#666666" points="345.5,-558 211.5,-558 211.5,-528 345.5,-528 345.5,-558"/>
<text text-anchor="start" x="219.5" y="-546" font-family="Helvetica,sans-Serif" font-size="10.00">ore::data::EquityUnderlying</text>
<text text-anchor="middle" x="278.5" y="-535" font-family="Helvetica,sans-Serif" font-size="10.00">::EquityUnderlying</text>
</a>
</g>
</g>
<!-- Node1&#45;&gt;Node6 -->
<g id="edge5" class="edge"><title>Node1&#45;&gt;Node6</title>
<path fill="none" stroke="#63b8ff" d="M415.652,-394.645C410.136,-425.558 395.09,-485.48 358,-519 354.194,-522.44 349.906,-525.387 345.346,-527.912"/>
<polygon fill="#63b8ff" stroke="#63b8ff" points="419.123,-395.103 417.276,-384.671 412.214,-393.978 419.123,-395.103"/>
</g>
<!-- Node7 -->
<g id="node7" class="node"><title>Node7</title>
<g id="a_node7"><a xlink:href="classore_1_1data_1_1_f_x_underlying.html#ab8da3f223cdbe9c21c5d0e1167d923c4" target="_top" xlink:title="Default Constructor.">
<polygon fill="white" stroke="#666666" points="337.5,-510 219.5,-510 219.5,-480 337.5,-480 337.5,-510"/>
<text text-anchor="start" x="227.5" y="-498" font-family="Helvetica,sans-Serif" font-size="10.00">ore::data::FXUnderlying</text>
<text text-anchor="middle" x="278.5" y="-487" font-family="Helvetica,sans-Serif" font-size="10.00">::FXUnderlying</text>
</a>
</g>
</g>
<!-- Node1&#45;&gt;Node7 -->
<g id="edge6" class="edge"><title>Node1&#45;&gt;Node7</title>
<path fill="none" stroke="#63b8ff" d="M411.221,-394.272C402.044,-416.015 384.23,-450.953 358,-471 351.886,-475.673 344.858,-479.443 337.574,-482.482"/>
<polygon fill="#63b8ff" stroke="#63b8ff" points="414.553,-395.365 415.031,-384.781 408.057,-392.757 414.553,-395.365"/>
</g>
<!-- Node8 -->
<g id="node8" class="node"><title>Node8</title>
<g id="a_node8"><a xlink:href="classore_1_1data_1_1_inflation_underlying.html#aa529d54714fe360982447470c72c733f" target="_top" xlink:title="Default Constructor.">
<polygon fill="white" stroke="#666666" points="348.5,-462 208.5,-462 208.5,-432 348.5,-432 348.5,-462"/>
<text text-anchor="start" x="216.5" y="-450" font-family="Helvetica,sans-Serif" font-size="10.00">ore::data::InflationUnderlying</text>
<text text-anchor="middle" x="278.5" y="-439" font-family="Helvetica,sans-Serif" font-size="10.00">::InflationUnderlying</text>
</a>
</g>
</g>
<!-- Node1&#45;&gt;Node8 -->
<g id="edge7" class="edge"><title>Node1&#45;&gt;Node8</title>
<path fill="none" stroke="#63b8ff" d="M401.104,-391.718C389.636,-401.965 373.855,-414.671 358,-423 351.566,-426.38 344.58,-429.366 337.517,-431.981"/>
<polygon fill="#63b8ff" stroke="#63b8ff" points="403.644,-394.136 408.631,-384.789 398.903,-388.986 403.644,-394.136"/>
</g>
<!-- Node9 -->
<g id="node9" class="node"><title>Node9</title>
<g id="a_node9"><a xlink:href="classore_1_1data_1_1_interest_rate_underlying.html#a4761fab2538736885b9eadea585a0245" target="_top" xlink:title="Default Constructor.">
<polygon fill="white" stroke="#666666" points="358,-414 199,-414 199,-384 358,-384 358,-414"/>
<text text-anchor="start" x="207" y="-402" font-family="Helvetica,sans-Serif" font-size="10.00">ore::data::InterestRateUnderlying</text>
<text text-anchor="middle" x="278.5" y="-391" font-family="Helvetica,sans-Serif" font-size="10.00">::InterestRateUnderlying</text>
</a>
</g>
</g>
<!-- Node1&#45;&gt;Node9 -->
<g id="edge8" class="edge"><title>Node1&#45;&gt;Node9</title>
<path fill="none" stroke="#63b8ff" d="M383.977,-380.961C375.969,-382.344 367.122,-383.871 358.066,-385.435"/>
<polygon fill="#63b8ff" stroke="#63b8ff" points="384.711,-384.386 393.97,-379.235 383.52,-377.488 384.711,-384.386"/>
</g>
<!-- Node10 -->
<g id="node10" class="node"><title>Node10</title>
<g id="a_node10"><a xlink:href="classore_1_1data_1_1_basic_underlying.html#a7741ae0fc924943de5bfe02928262eb7" target="_top" xlink:title=" ">
<polygon fill="white" stroke="#666666" points="344,-366 213,-366 213,-336 344,-336 344,-366"/>
<text text-anchor="start" x="221" y="-354" font-family="Helvetica,sans-Serif" font-size="10.00">ore::data::BasicUnderlying</text>
<text text-anchor="middle" x="278.5" y="-343" font-family="Helvetica,sans-Serif" font-size="10.00">::fromXML</text>
</a>
</g>
</g>
<!-- Node1&#45;&gt;Node10 -->
<g id="edge9" class="edge"><title>Node1&#45;&gt;Node10</title>
<path fill="none" stroke="#63b8ff" d="M383.889,-369.024C371.8,-366.937 357.808,-364.521 344.075,-362.15"/>
<polygon fill="#63b8ff" stroke="#63b8ff" points="383.52,-372.512 393.97,-370.765 384.711,-365.614 383.52,-372.512"/>
</g>
<!-- Node11 -->
<g id="node11" class="node"><title>Node11</title>
<g id="a_node11"><a xlink:href="classore_1_1data_1_1_equity_underlying.html#a7741ae0fc924943de5bfe02928262eb7" target="_top" xlink:title=" ">
<polygon fill="white" stroke="#666666" points="345.5,-318 211.5,-318 211.5,-288 345.5,-288 345.5,-318"/>
<text text-anchor="start" x="219.5" y="-306" font-family="Helvetica,sans-Serif" font-size="10.00">ore::data::EquityUnderlying</text>
<text text-anchor="middle" x="278.5" y="-295" font-family="Helvetica,sans-Serif" font-size="10.00">::fromXML</text>
</a>
</g>
</g>
<!-- Node1&#45;&gt;Node11 -->
<g id="edge10" class="edge"><title>Node1&#45;&gt;Node11</title>
<path fill="none" stroke="#63b8ff" d="M401.104,-358.282C389.636,-348.035 373.855,-335.329 358,-327 351.566,-323.62 344.58,-320.634 337.517,-318.019"/>
<polygon fill="#63b8ff" stroke="#63b8ff" points="398.903,-361.014 408.631,-365.211 403.644,-355.864 398.903,-361.014"/>
</g>
<!-- Node20 -->
<g id="node20" class="node"><title>Node20</title>
<g id="a_node20"><a xlink:href="classore_1_1data_1_1_commodity_underlying.html#a7741ae0fc924943de5bfe02928262eb7" target="_top" xlink:title=" ">
<polygon fill="white" stroke="#666666" points="356.5,-270 200.5,-270 200.5,-240 356.5,-240 356.5,-270"/>
<text text-anchor="start" x="208.5" y="-258" font-family="Helvetica,sans-Serif" font-size="10.00">ore::data::CommodityUnderlying</text>
<text text-anchor="middle" x="278.5" y="-247" font-family="Helvetica,sans-Serif" font-size="10.00">::fromXML</text>
</a>
</g>
</g>
<!-- Node1&#45;&gt;Node20 -->
<g id="edge19" class="edge"><title>Node1&#45;&gt;Node20</title>
<path fill="none" stroke="#63b8ff" d="M411.221,-355.728C402.044,-333.985 384.23,-299.047 358,-279 353.471,-275.538 348.441,-272.573 343.176,-270.032"/>
<polygon fill="#63b8ff" stroke="#63b8ff" points="408.057,-357.243 415.031,-365.219 414.553,-354.635 408.057,-357.243"/>
</g>
<!-- Node21 -->
<g id="node21" class="node"><title>Node21</title>
<g id="a_node21"><a xlink:href="classore_1_1data_1_1_f_x_underlying.html#a7741ae0fc924943de5bfe02928262eb7" target="_top" xlink:title=" ">
<polygon fill="white" stroke="#666666" points="337.5,-222 219.5,-222 219.5,-192 337.5,-192 337.5,-222"/>
<text text-anchor="start" x="227.5" y="-210" font-family="Helvetica,sans-Serif" font-size="10.00">ore::data::FXUnderlying</text>
<text text-anchor="middle" x="278.5" y="-199" font-family="Helvetica,sans-Serif" font-size="10.00">::fromXML</text>
</a>
</g>
</g>
<!-- Node1&#45;&gt;Node21 -->
<g id="edge20" class="edge"><title>Node1&#45;&gt;Node21</title>
<path fill="none" stroke="#63b8ff" d="M415.652,-355.355C410.136,-324.442 395.09,-264.52 358,-231 352.079,-225.649 344.992,-221.491 337.533,-218.259"/>
<polygon fill="#63b8ff" stroke="#63b8ff" points="412.214,-356.022 417.276,-365.329 419.123,-354.897 412.214,-356.022"/>
</g>
<!-- Node22 -->
<g id="node22" class="node"><title>Node22</title>
<g id="a_node22"><a xlink:href="classore_1_1data_1_1_interest_rate_underlying.html#a7741ae0fc924943de5bfe02928262eb7" target="_top" xlink:title=" ">
<polygon fill="white" stroke="#666666" points="358,-174 199,-174 199,-144 358,-144 358,-174"/>
<text text-anchor="start" x="207" y="-162" font-family="Helvetica,sans-Serif" font-size="10.00">ore::data::InterestRateUnderlying</text>
<text text-anchor="middle" x="278.5" y="-151" font-family="Helvetica,sans-Serif" font-size="10.00">::fromXML</text>
</a>
</g>
</g>
<!-- Node1&#45;&gt;Node22 -->
<g id="edge21" class="edge"><title>Node1&#45;&gt;Node22</title>
<path fill="none" stroke="#63b8ff" d="M418.043,-355.032C416.059,-316.329 406.132,-230.722 358,-183 354.559,-179.588 350.648,-176.66 346.451,-174.146"/>
<polygon fill="#63b8ff" stroke="#63b8ff" points="414.562,-355.584 418.438,-365.444 421.557,-355.319 414.562,-355.584"/>
</g>
<!-- Node23 -->
<g id="node23" class="node"><title>Node23</title>
<g id="a_node23"><a xlink:href="classore_1_1data_1_1_inflation_underlying.html#a7741ae0fc924943de5bfe02928262eb7" target="_top" xlink:title=" ">
<polygon fill="white" stroke="#666666" points="348.5,-126 208.5,-126 208.5,-96 348.5,-96 348.5,-126"/>
<text text-anchor="start" x="216.5" y="-114" font-family="Helvetica,sans-Serif" font-size="10.00">ore::data::InflationUnderlying</text>
<text text-anchor="middle" x="278.5" y="-103" font-family="Helvetica,sans-Serif" font-size="10.00">::fromXML</text>
</a>
</g>
</g>
<!-- Node1&#45;&gt;Node23 -->
<g id="edge22" class="edge"><title>Node1&#45;&gt;Node23</title>
<path fill="none" stroke="#63b8ff" d="M416.008,-355.074C409.17,-303.446 388.565,-167.126 358,-135 354.758,-131.593 351.048,-128.665 347.044,-126.15"/>
<polygon fill="#63b8ff" stroke="#63b8ff" points="412.571,-355.783 417.322,-365.253 419.513,-354.887 412.571,-355.783"/>
</g>
<!-- Node24 -->
<g id="node24" class="node"><title>Node24</title>
<g id="a_node24"><a xlink:href="classore_1_1data_1_1_credit_underlying.html#a7741ae0fc924943de5bfe02928262eb7" target="_top" xlink:title=" ">
<polygon fill="white" stroke="#666666" points="344.5,-78 212.5,-78 212.5,-48 344.5,-48 344.5,-78"/>
<text text-anchor="start" x="220.5" y="-66" font-family="Helvetica,sans-Serif" font-size="10.00">ore::data::CreditUnderlying</text>
<text text-anchor="middle" x="278.5" y="-55" font-family="Helvetica,sans-Serif" font-size="10.00">::fromXML</text>
</a>
</g>
</g>
<!-- Node1&#45;&gt;Node24 -->
<g id="edge23" class="edge"><title>Node1&#45;&gt;Node24</title>
<path fill="none" stroke="#63b8ff" d="M416.916,-355.068C411.875,-296.535 394.357,-126.772 358,-87 354.154,-82.7926 349.593,-79.314 344.635,-76.4393"/>
<polygon fill="#63b8ff" stroke="#63b8ff" points="413.443,-355.544 417.759,-365.22 420.419,-354.964 413.443,-355.544"/>
</g>
<!-- Node25 -->
<g id="node25" class="node"><title>Node25</title>
<g id="a_node25"><a xlink:href="classore_1_1data_1_1_bond_underlying.html#a7741ae0fc924943de5bfe02928262eb7" target="_top" xlink:title=" ">
<polygon fill="white" stroke="#666666" points="343,-30 214,-30 214,-0 343,-0 343,-30"/>
<text text-anchor="start" x="222" y="-18" font-family="Helvetica,sans-Serif" font-size="10.00">ore::data::BondUnderlying</text>
<text text-anchor="middle" x="278.5" y="-7" font-family="Helvetica,sans-Serif" font-size="10.00">::fromXML</text>
</a>
</g>
</g>
<!-- Node1&#45;&gt;Node25 -->
<g id="edge24" class="edge"><title>Node1&#45;&gt;Node25</title>
<path fill="none" stroke="#63b8ff" d="M417.579,-355.224C414.174,-290.521 400.23,-86.5591 358,-39 353.837,-34.3112 348.785,-30.5252 343.274,-27.4701"/>
<polygon fill="#63b8ff" stroke="#63b8ff" points="414.088,-355.495 418.082,-365.309 421.079,-355.147 414.088,-355.495"/>
</g>
<!-- Node12 -->
<g id="node12" class="node"><title>Node12</title>
<g id="a_node12"><a xlink:href="classore_1_1data_1_1_equity_option_with_barrier.html#a32a53e87b35de4acfc761bbc6e559b93" target="_top" xlink:title=" ">
<polygon fill="white" stroke="#666666" points="150,-486 13,-486 13,-456 150,-456 150,-486"/>
<text text-anchor="start" x="21" y="-474" font-family="Helvetica,sans-Serif" font-size="10.00">ore::data::EquityOptionWith</text>
<text text-anchor="middle" x="81.5" y="-463" font-family="Helvetica,sans-Serif" font-size="10.00">Barrier::additionalFromXml</text>
</a>
</g>
</g>
<!-- Node11&#45;&gt;Node12 -->
<g id="edge11" class="edge"><title>Node11&#45;&gt;Node12</title>
<path fill="none" stroke="#63b8ff" d="M202.912,-323.44C201.551,-324.564 200.244,-325.75 199,-327 159.731,-366.476 202.407,-407.661 163,-447 159.181,-450.812 154.785,-454.024 150.057,-456.729"/>
<polygon fill="#63b8ff" stroke="#63b8ff" points="205.025,-326.234 211.237,-317.651 201.029,-320.487 205.025,-326.234"/>
</g>
<!-- Node13 -->
<g id="node13" class="node"><title>Node13</title>
<g id="a_node13"><a xlink:href="classore_1_1data_1_1_equity_digital_option.html#a7741ae0fc924943de5bfe02928262eb7" target="_top" xlink:title=" ">
<polygon fill="white" stroke="#666666" points="139.5,-438 23.5,-438 23.5,-408 139.5,-408 139.5,-438"/>
<text text-anchor="start" x="31.5" y="-426" font-family="Helvetica,sans-Serif" font-size="10.00">ore::data::EquityDigital</text>
<text text-anchor="middle" x="81.5" y="-415" font-family="Helvetica,sans-Serif" font-size="10.00">Option::fromXML</text>
</a>
</g>
</g>
<!-- Node11&#45;&gt;Node13 -->
<g id="edge12" class="edge"><title>Node11&#45;&gt;Node13</title>
<path fill="none" stroke="#63b8ff" d="M203.719,-323.37C202.087,-324.514 200.51,-325.723 199,-327 171.681,-350.101 190.4,-375.994 163,-399 156.187,-404.72 148.05,-409.077 139.607,-412.396"/>
<polygon fill="#63b8ff" stroke="#63b8ff" points="205.556,-326.349 212.285,-318.166 201.922,-320.366 205.556,-326.349"/>
</g>
<!-- Node14 -->
<g id="node14" class="node"><title>Node14</title>
<g id="a_node14"><a xlink:href="classore_1_1data_1_1_equity_double_touch_option.html#a7741ae0fc924943de5bfe02928262eb7" target="_top" xlink:title=" ">
<polygon fill="white" stroke="#666666" points="154,-390 9,-390 9,-360 154,-360 154,-390"/>
<text text-anchor="start" x="17" y="-378" font-family="Helvetica,sans-Serif" font-size="10.00">ore::data::EquityDoubleTouch</text>
<text text-anchor="middle" x="81.5" y="-367" font-family="Helvetica,sans-Serif" font-size="10.00">Option::fromXML</text>
</a>
</g>
</g>
<!-- Node11&#45;&gt;Node14 -->
<g id="edge13" class="edge"><title>Node11&#45;&gt;Node14</title>
<path fill="none" stroke="#63b8ff" d="M211.517,-321.611C207.228,-323.299 203.021,-325.096 199,-327 181.621,-335.232 180.407,-342.829 163,-351 156.003,-354.284 148.453,-357.237 140.879,-359.856"/>
<polygon fill="#63b8ff" stroke="#63b8ff" points="212.838,-324.854 220.996,-318.094 210.403,-318.292 212.838,-324.854"/>
</g>
<!-- Node15 -->
<g id="node15" class="node"><title>Node15</title>
<g id="a_node15"><a xlink:href="classore_1_1data_1_1_equity_european_barrier_option.html#a7741ae0fc924943de5bfe02928262eb7" target="_top" xlink:title=" ">
<polygon fill="white" stroke="#666666" points="146.5,-342 16.5,-342 16.5,-312 146.5,-312 146.5,-342"/>
<text text-anchor="start" x="24.5" y="-330" font-family="Helvetica,sans-Serif" font-size="10.00">ore::data::EquityEuropean</text>
<text text-anchor="middle" x="81.5" y="-319" font-family="Helvetica,sans-Serif" font-size="10.00">BarrierOption::fromXML</text>
</a>
</g>
</g>
<!-- Node11&#45;&gt;Node15 -->
<g id="edge14" class="edge"><title>Node11&#45;&gt;Node15</title>
<path fill="none" stroke="#63b8ff" d="M201.552,-312.347C183.455,-314.575 164.314,-316.931 146.798,-319.086"/>
<polygon fill="#63b8ff" stroke="#63b8ff" points="201.984,-315.821 211.482,-311.125 201.129,-308.873 201.984,-315.821"/>
</g>
<!-- Node16 -->
<g id="node16" class="node"><title>Node16</title>
<g id="a_node16"><a xlink:href="classore_1_1data_1_1_equity_option.html#a7741ae0fc924943de5bfe02928262eb7" target="_top" xlink:title=" ">
<polygon fill="white" stroke="#666666" points="140,-294 23,-294 23,-264 140,-264 140,-294"/>
<text text-anchor="start" x="31" y="-282" font-family="Helvetica,sans-Serif" font-size="10.00">ore::data::EquityOption</text>
<text text-anchor="middle" x="81.5" y="-271" font-family="Helvetica,sans-Serif" font-size="10.00">::fromXML</text>
</a>
</g>
</g>
<!-- Node11&#45;&gt;Node16 -->
<g id="edge15" class="edge"><title>Node11&#45;&gt;Node16</title>
<path fill="none" stroke="#63b8ff" d="M201.322,-293.624C181.022,-291.126 159.425,-288.468 140.289,-286.112"/>
<polygon fill="#63b8ff" stroke="#63b8ff" points="201.129,-297.127 211.482,-294.875 201.984,-290.179 201.129,-297.127"/>
</g>
<!-- Node17 -->
<g id="node17" class="node"><title>Node17</title>
<g id="a_node17"><a xlink:href="classore_1_1data_1_1_equity_option_underlying_data.html#a7741ae0fc924943de5bfe02928262eb7" target="_top" xlink:title=" ">
<polygon fill="white" stroke="#666666" points="163,-246 0,-246 0,-216 163,-216 163,-246"/>
<text text-anchor="start" x="8" y="-234" font-family="Helvetica,sans-Serif" font-size="10.00">ore::data::EquityOptionUnderlying</text>
<text text-anchor="middle" x="81.5" y="-223" font-family="Helvetica,sans-Serif" font-size="10.00">Data::fromXML</text>
</a>
</g>
</g>
<!-- Node11&#45;&gt;Node17 -->
<g id="edge16" class="edge"><title>Node11&#45;&gt;Node17</title>
<path fill="none" stroke="#63b8ff" d="M211.517,-284.389C207.228,-282.701 203.021,-280.904 199,-279 181.621,-270.768 180.407,-263.171 163,-255 156.003,-251.716 148.453,-248.763 140.879,-246.144"/>
<polygon fill="#63b8ff" stroke="#63b8ff" points="210.403,-287.708 220.996,-287.906 212.838,-281.146 210.403,-287.708"/>
</g>
<!-- Node18 -->
<g id="node18" class="node"><title>Node18</title>
<g id="a_node18"><a xlink:href="classore_1_1data_1_1_equity_touch_option.html#a7741ae0fc924943de5bfe02928262eb7" target="_top" xlink:title=" ">
<polygon fill="white" stroke="#666666" points="153,-198 10,-198 10,-168 153,-168 153,-198"/>
<text text-anchor="start" x="18" y="-186" font-family="Helvetica,sans-Serif" font-size="10.00">ore::data::EquityTouchOption</text>
<text text-anchor="middle" x="81.5" y="-175" font-family="Helvetica,sans-Serif" font-size="10.00">::fromXML</text>
</a>
</g>
</g>
<!-- Node11&#45;&gt;Node18 -->
<g id="edge17" class="edge"><title>Node11&#45;&gt;Node18</title>
<path fill="none" stroke="#63b8ff" d="M203.719,-282.63C202.087,-281.486 200.51,-280.277 199,-279 171.681,-255.899 190.4,-230.006 163,-207 158.868,-203.53 154.248,-200.562 149.369,-198.023"/>
<polygon fill="#63b8ff" stroke="#63b8ff" points="201.922,-285.634 212.285,-287.834 205.556,-279.651 201.922,-285.634"/>
</g>
<!-- Node19 -->
<g id="node19" class="node"><title>Node19</title>
<g id="a_node19"><a xlink:href="classore_1_1data_1_1_equity_leg_data.html#a7741ae0fc924943de5bfe02928262eb7" target="_top" xlink:title=" ">
<polygon fill="white" stroke="#666666" points="144,-150 19,-150 19,-120 144,-120 144,-150"/>
<text text-anchor="start" x="27" y="-138" font-family="Helvetica,sans-Serif" font-size="10.00">ore::data::EquityLegData</text>
<text text-anchor="middle" x="81.5" y="-127" font-family="Helvetica,sans-Serif" font-size="10.00">::fromXML</text>
</a>
</g>
</g>
<!-- Node11&#45;&gt;Node19 -->
<g id="edge18" class="edge"><title>Node11&#45;&gt;Node19</title>
<path fill="none" stroke="#63b8ff" d="M202.912,-282.56C201.551,-281.436 200.244,-280.25 199,-279 159.731,-239.524 202.407,-198.339 163,-159 157.633,-153.642 151.125,-149.471 144.161,-146.225"/>
<polygon fill="#63b8ff" stroke="#63b8ff" points="201.029,-285.513 211.237,-288.349 205.025,-279.766 201.029,-285.513"/>
</g>
</g>
</svg>
        <g id="navigator" transform="translate(0 0)" fill="#404254">
                <rect fill="#f2f5e9" fill-opacity="0.5" stroke="#606060" stroke-width=".5" x="0" y="0" width="60" height="60"/>
                <use id="zoomplus" xlink:href="#zoomPlus" x="17" y="9" onmousedown="handleZoom(evt,'in')"/>
                <use id="zoomminus" xlink:href="#zoomMin" x="42" y="9" onmousedown="handleZoom(evt,'out')"/>
                <use id="reset" xlink:href="#resetDef" x="30" y="36" onmousedown="handleReset()"/>
                <g id="arrowUp" xlink:href="#dirArrow" transform="translate(30 24)" onmousedown="handlePan(0,-1)">
                  <use xlink:href="#rim" fill="#404040">
                        <set attributeName="fill" to="#808080" begin="arrowUp.mouseover" end="arrowUp.mouseout"/>
                  </use>
                  <path fill="none" stroke="white" stroke-width="1.5" d="M0,-3.0v7 M-2.5,-0.5L0,-3.0L2.5,-0.5"/>
                </g>
                <g id="arrowRight" xlink:href="#dirArrow" transform="rotate(90) translate(36 -43)" onmousedown="handlePan(1,0)">
                  <use xlink:href="#rim" fill="#404040">
                        <set attributeName="fill" to="#808080" begin="arrowRight.mouseover" end="arrowRight.mouseout"/>
                  </use>
                  <path fill="none" stroke="white" stroke-width="1.5" d="M0,-3.0v7 M-2.5,-0.5L0,-3.0L2.5,-0.5"/>
                </g>
                <g id="arrowDown" xlink:href="#dirArrow" transform="rotate(180) translate(-30 -48)" onmousedown="handlePan(0,1)">
                  <use xlink:href="#rim" fill="#404040">
                        <set attributeName="fill" to="#808080" begin="arrowDown.mouseover" end="arrowDown.mouseout"/>
                  </use>
                  <path fill="none" stroke="white" stroke-width="1.5" d="M0,-3.0v7 M-2.5,-0.5L0,-3.0L2.5,-0.5"/>
                </g>
                <g id="arrowLeft" xlink:href="#dirArrow" transform="rotate(270) translate(-36 17)" onmousedown="handlePan(-1,0)">
                  <use xlink:href="#rim" fill="#404040">
                        <set attributeName="fill" to="#808080" begin="arrowLeft.mouseover" end="arrowLeft.mouseout"/>
                  </use>
                  <path fill="none" stroke="white" stroke-width="1.5" d="M0,-3.0v7 M-2.5,-0.5L0,-3.0L2.5,-0.5"/>
                </g>
        </g>
        <svg viewBox="0 0 15 15" width="100%" height="30px" preserveAspectRatio="xMaxYMin meet">
         <g id="arrow_out" transform="scale(0.3 0.3)">
          <a xlink:href="classore_1_1data_1_1_underlying_aafc7b3e0e653e15f2434a4e7d15cc7cf_icgraph_org.svg" target="_base">
           <rect id="button" ry="5" rx="5" y="6" x="6" height="38" width="38"
                fill="#f2f5e9" fill-opacity="0.5" stroke="#606060" stroke-width="1.0"/>
           <path id="arrow"
             d="M 11.500037,31.436501 C 11.940474,20.09759 22.043105,11.32322 32.158766,21.979434 L 37.068811,17.246167 C 37.068811,17.246167 37.088388,32 37.088388,32 L 22.160133,31.978069 C 22.160133,31.978069 26.997745,27.140456 26.997745,27.140456 C 18.528582,18.264221 13.291696,25.230495 11.500037,31.436501 z"
             style="fill:#404040;"/>
          </a>
         </g>
        </svg>
</svg>
