<?xml version="1.0" encoding="UTF-8" standalone="no"?>
<!DOCTYPE svg PUBLIC "-//W3C//DTD SVG 1.1//EN"
 "http://www.w3.org/Graphics/SVG/1.1/DTD/svg11.dtd">
<!-- Generated by graphviz version 2.38.0 (20140413.2041)
 -->
<!-- Title: fromXML Pages: 1 -->
<svg width="498pt" height="94pt"
 viewBox="0.00 0.00 498.00 93.50" xmlns="http://www.w3.org/2000/svg" xmlns:xlink="http://www.w3.org/1999/xlink">
<g id="graph0" class="graph" transform="scale(1 1) rotate(0) translate(4 89.5)">
<title>fromXML</title>
<!-- Node1 -->
<g id="node1" class="node"><title>Node1</title>
<g id="a_node1"><a xlink:title=" ">
<polygon fill="#999999" stroke="#666666" points="54,-49 0,-49 0,-30 54,-30 54,-49"/>
<text text-anchor="middle" x="27" y="-37" font-family="Helvetica,sans-Serif" font-size="10.00">fromXML</text>
</a>
</g>
</g>
<!-- Node2 -->
<g id="node2" class="node"><title>Node2</title>
<g id="a_node2"><a xlink:href="classore_1_1data_1_1_trade_monetary.html#a750d19f9c0f3e5521544264e4839aa5d" target="_top" xlink:title=" ">
<polygon fill="white" stroke="#666666" points="215,-54.5 90,-54.5 90,-24.5 215,-24.5 215,-54.5"/>
<text text-anchor="start" x="98" y="-42.5" font-family="Helvetica,sans-Serif" font-size="10.00">ore::data::TradeMonetary</text>
<text text-anchor="middle" x="152.5" y="-31.5" font-family="Helvetica,sans-Serif" font-size="10.00">::fromXMLNode</text>
</a>
</g>
</g>
<!-- Node1&#45;&gt;Node2 -->
<g id="edge1" class="edge"><title>Node1&#45;&gt;Node2</title>
<path fill="none" stroke="#63b8ff" d="M54.1912,-39.5C61.805,-39.5 70.5128,-39.5 79.5194,-39.5"/>
<polygon fill="#63b8ff" stroke="#63b8ff" points="79.7726,-43.0001 89.7726,-39.5 79.7726,-36.0001 79.7726,-43.0001"/>
</g>
<!-- Node3 -->
<g id="node3" class="node"><title>Node3</title>
<g id="a_node3"><a xlink:href="classore_1_1data_1_1_x_m_l_utils.html#a5a1307174ddefdb3aad6e3bd8cc63b27" target="_top" xlink:title=" ">
<polygon fill="white" stroke="#666666" points="352.5,-85.5 253.5,-85.5 253.5,-55.5 352.5,-55.5 352.5,-85.5"/>
<text text-anchor="start" x="261.5" y="-73.5" font-family="Helvetica,sans-Serif" font-size="10.00">ore::data::XMLUtils</text>
<text text-anchor="middle" x="303" y="-62.5" font-family="Helvetica,sans-Serif" font-size="10.00">::getChildValue</text>
</a>
</g>
</g>
<!-- Node2&#45;&gt;Node3 -->
<g id="edge2" class="edge"><title>Node2&#45;&gt;Node3</title>
<path fill="none" stroke="#63b8ff" d="M215.187,-52.3775C224.551,-54.3321 234.188,-56.3441 243.482,-58.2841"/>
<polygon fill="#63b8ff" stroke="#63b8ff" points="242.897,-61.7374 253.401,-60.3548 244.328,-54.8851 242.897,-61.7374"/>
</g>
<!-- Node5 -->
<g id="node5" class="node"><title>Node5</title>
<g id="a_node5"><a xlink:href="group__utilities.html#gad1db2a68f9a73667c3b4084d63955bdd" target="_top" xlink:title="Convert text to Real.">
<polygon fill="white" stroke="#666666" points="355,-19 251,-19 251,-0 355,-0 355,-19"/>
<text text-anchor="middle" x="303" y="-7" font-family="Helvetica,sans-Serif" font-size="10.00">ore::data::parseReal</text>
</a>
</g>
</g>
<!-- Node2&#45;&gt;Node5 -->
<g id="edge4" class="edge"><title>Node2&#45;&gt;Node5</title>
<path fill="none" stroke="#63b8ff" d="M215.187,-27.0379C225.005,-25.0545 235.125,-23.0102 244.832,-21.049"/>
<polygon fill="#63b8ff" stroke="#63b8ff" points="245.661,-24.4524 254.77,-19.0415 244.275,-17.591 245.661,-24.4524"/>
</g>
<!-- Node4 -->
<g id="node4" class="node"><title>Node4</title>
<g id="a_node4"><a xlink:href="classore_1_1data_1_1_x_m_l_utils.html#a6704501b110fa9d056096df3e05f0df2" target="_top" xlink:title="Get a node&#39;s value.">
<polygon fill="white" stroke="#666666" points="490,-85.5 391,-85.5 391,-55.5 490,-55.5 490,-85.5"/>
<text text-anchor="start" x="399" y="-73.5" font-family="Helvetica,sans-Serif" font-size="10.00">ore::data::XMLUtils</text>
<text text-anchor="middle" x="440.5" y="-62.5" font-family="Helvetica,sans-Serif" font-size="10.00">::getNodeValue</text>
</a>
</g>
</g>
<!-- Node3&#45;&gt;Node4 -->
<g id="edge3" class="edge"><title>Node3&#45;&gt;Node4</title>
<path fill="none" stroke="#63b8ff" d="M352.536,-70.5C361.682,-70.5 371.337,-70.5 380.755,-70.5"/>
<polygon fill="#63b8ff" stroke="#63b8ff" points="380.848,-74.0001 390.848,-70.5 380.848,-67.0001 380.848,-74.0001"/>
</g>
<!-- Node5&#45;&gt;Node5 -->
<g id="edge5" class="edge"><title>Node5&#45;&gt;Node5</title>
<path fill="none" stroke="#63b8ff" d="M282.038,-19.0828C271.841,-27.7337 278.828,-37 303,-37 318.485,-37 326.918,-33.1971 328.298,-28.1894"/>
<polygon fill="#63b8ff" stroke="#63b8ff" points="331.421,-26.607 323.962,-19.0828 325.1,-29.6163 331.421,-26.607"/>
</g>
</g>
</svg>
