<?xml version="1.0" encoding="UTF-8" standalone="no"?>
<!DOCTYPE svg PUBLIC "-//W3C//DTD SVG 1.1//EN"
 "http://www.w3.org/Graphics/SVG/1.1/DTD/svg11.dtd">
<!-- Generated by graphviz version 2.38.0 (20140413.2041)
 -->
<!-- Title: timeExtrapolation Pages: 1 -->
<svg width="285pt" height="86pt"
 viewBox="0.00 0.00 285.00 86.00" xmlns="http://www.w3.org/2000/svg" xmlns:xlink="http://www.w3.org/1999/xlink">
<g id="graph0" class="graph" transform="scale(1 1) rotate(0) translate(4 82)">
<title>timeExtrapolation</title>
<!-- Node1 -->
<g id="node1" class="node"><title>Node1</title>
<g id="a_node1"><a xlink:title=" ">
<polygon fill="#999999" stroke="#666666" points="277,-48.5 185,-48.5 185,-29.5 277,-29.5 277,-48.5"/>
<text text-anchor="middle" x="231" y="-36.5" font-family="Helvetica,sans-Serif" font-size="10.00">timeExtrapolation</text>
</a>
</g>
</g>
<!-- Node2 -->
<g id="node2" class="node"><title>Node2</title>
<g id="a_node2"><a xlink:href="classore_1_1data_1_1_equity_vol_curve.html#afff043fce577f592f6a660001d412371" target="_top" xlink:title="Build a volatility surface from a collection of expiry and strike delta pairs.">
<polygon fill="white" stroke="#666666" points="138,-78 11,-78 11,-48 138,-48 138,-78"/>
<text text-anchor="start" x="19" y="-66" font-family="Helvetica,sans-Serif" font-size="10.00">ore::data::EquityVolCurve</text>
<text text-anchor="middle" x="74.5" y="-55" font-family="Helvetica,sans-Serif" font-size="10.00">::buildVolatility</text>
</a>
</g>
</g>
<!-- Node1&#45;&gt;Node2 -->
<g id="edge1" class="edge"><title>Node1&#45;&gt;Node2</title>
<path fill="none" stroke="#63b8ff" d="M174.712,-47.5883C162.868,-49.4283 150.271,-51.385 138.171,-53.2648"/>
<polygon fill="#63b8ff" stroke="#63b8ff" points="175.553,-50.9999 184.897,-46.0063 174.478,-44.0829 175.553,-50.9999"/>
</g>
<!-- Node3 -->
<g id="node3" class="node"><title>Node3</title>
<g id="a_node3"><a xlink:href="classore_1_1data_1_1_commodity_vol_curve.html#accbfc0352ecd2e4be852a0cc6238fbb5" target="_top" xlink:title=" ">
<polygon fill="white" stroke="#666666" points="149,-30 0,-30 0,-0 149,-0 149,-30"/>
<text text-anchor="start" x="8" y="-18" font-family="Helvetica,sans-Serif" font-size="10.00">ore::data::CommodityVolCurve</text>
<text text-anchor="middle" x="74.5" y="-7" font-family="Helvetica,sans-Serif" font-size="10.00">::buildVolatilityExplicit</text>
</a>
</g>
</g>
<!-- Node1&#45;&gt;Node3 -->
<g id="edge2" class="edge"><title>Node1&#45;&gt;Node3</title>
<path fill="none" stroke="#63b8ff" d="M174.918,-30.4436C166.559,-29.1451 157.822,-27.7879 149.146,-26.4402"/>
<polygon fill="#63b8ff" stroke="#63b8ff" points="174.478,-33.9171 184.897,-31.9937 175.553,-27.0001 174.478,-33.9171"/>
</g>
</g>
</svg>
