<?xml version="1.0" encoding="UTF-8" standalone="no"?>
<!DOCTYPE svg PUBLIC "-//W3C//DTD SVG 1.1//EN"
 "http://www.w3.org/Graphics/SVG/1.1/DTD/svg11.dtd">
<!-- Generated by graphviz version 2.38.0 (20140413.2041)
 -->
<!-- Title: EngineFactory Pages: 1 -->
<svg width="448pt" height="82pt"
 viewBox="0.00 0.00 448.00 82.00" xmlns="http://www.w3.org/2000/svg" xmlns:xlink="http://www.w3.org/1999/xlink">
<g id="graph0" class="graph" transform="scale(1 1) rotate(0) translate(4 78)">
<title>EngineFactory</title>
<!-- Node1 -->
<g id="node1" class="node"><title>Node1</title>
<g id="a_node1"><a xlink:title="Create an engine factory.">
<polygon fill="#999999" stroke="#666666" points="80,-37 0,-37 0,-18 80,-18 80,-37"/>
<text text-anchor="middle" x="40" y="-25" font-family="Helvetica,sans-Serif" font-size="10.00">EngineFactory</text>
</a>
</g>
</g>
<!-- Node2 -->
<g id="node2" class="node"><title>Node2</title>
<g id="a_node2"><a xlink:href="classore_1_1data_1_1_engine_factory.html#a602c7a49ea32ee38f8ec8b8101ece539" target="_top" xlink:title="Add a set of default engine and leg builders.">
<polygon fill="white" stroke="#666666" points="214,-56 116,-56 116,-37 214,-37 214,-56"/>
<text text-anchor="middle" x="165" y="-44" font-family="Helvetica,sans-Serif" font-size="10.00">addDefaultBuilders</text>
</a>
</g>
</g>
<!-- Node1&#45;&gt;Node2 -->
<g id="edge1" class="edge"><title>Node1&#45;&gt;Node2</title>
<path fill="none" stroke="#63b8ff" d="M80.2561,-33.564C88.3414,-34.8129 97.0194,-36.1534 105.616,-37.4813"/>
<polygon fill="#63b8ff" stroke="#63b8ff" points="105.213,-40.9605 115.63,-39.0282 106.281,-34.0425 105.213,-40.9605"/>
</g>
<!-- Node7 -->
<g id="node7" class="node"><title>Node7</title>
<g id="a_node7"><a xlink:href="classore_1_1data_1_1_engine_factory.html#af286c6d222e48fac82344b47de9de0d8" target="_top" xlink:title="Add a set of default engine and leg builders, overwrite existing builders with same key if specified.">
<polygon fill="white" stroke="#666666" points="210.5,-19 119.5,-19 119.5,-0 210.5,-0 210.5,-19"/>
<text text-anchor="middle" x="165" y="-7" font-family="Helvetica,sans-Serif" font-size="10.00">addExtraBuilders</text>
</a>
</g>
</g>
<!-- Node1&#45;&gt;Node7 -->
<g id="edge7" class="edge"><title>Node1&#45;&gt;Node7</title>
<path fill="none" stroke="#63b8ff" d="M80.2561,-21.7552C89.4399,-20.4112 99.3885,-18.9553 109.114,-17.5321"/>
<polygon fill="#63b8ff" stroke="#63b8ff" points="109.739,-20.978 119.127,-16.0669 108.725,-14.0518 109.739,-20.978"/>
</g>
<!-- Node3 -->
<g id="node3" class="node"><title>Node3</title>
<g id="a_node3"><a xlink:href="classore_1_1data_1_1_engine_factory.html#afb291629fa71143a87af398a160833df" target="_top" xlink:title="Register a builder with the factory.">
<polygon fill="white" stroke="#666666" points="337,-56 258,-56 258,-37 337,-37 337,-56"/>
<text text-anchor="middle" x="297.5" y="-44" font-family="Helvetica,sans-Serif" font-size="10.00">registerBuilder</text>
</a>
</g>
</g>
<!-- Node2&#45;&gt;Node3 -->
<g id="edge2" class="edge"><title>Node2&#45;&gt;Node3</title>
<path fill="none" stroke="#63b8ff" d="M214.223,-46.5C225.117,-46.5 236.692,-46.5 247.614,-46.5"/>
<polygon fill="#63b8ff" stroke="#63b8ff" points="247.841,-50.0001 257.841,-46.5 247.841,-43.0001 247.841,-50.0001"/>
</g>
<!-- Node5 -->
<g id="node5" class="node"><title>Node5</title>
<g id="a_node5"><a xlink:href="classore_1_1data_1_1_engine_factory.html#afb2dd3b5cd2e56acfc5147d6e4fd656e" target="_top" xlink:title="Register a leg builder with the factory.">
<polygon fill="white" stroke="#666666" points="345,-19 250,-19 250,-0 345,-0 345,-19"/>
<text text-anchor="middle" x="297.5" y="-7" font-family="Helvetica,sans-Serif" font-size="10.00">registerLegBuilder</text>
</a>
</g>
</g>
<!-- Node2&#45;&gt;Node5 -->
<g id="edge5" class="edge"><title>Node2&#45;&gt;Node5</title>
<path fill="none" stroke="#63b8ff" d="M199.607,-36.9716C215.768,-32.3895 235.347,-26.8385 252.662,-21.929"/>
<polygon fill="#63b8ff" stroke="#63b8ff" points="253.887,-25.2198 262.553,-19.1247 251.978,-18.4853 253.887,-25.2198"/>
</g>
<!-- Node4 -->
<g id="node4" class="node"><title>Node4</title>
<g id="a_node4"><a xlink:href="classore_1_1data_1_1_engine_factory.html#a42204bc14082d5bbe0e718b675ed5ad8" target="_top" xlink:title="Get a builder by trade type.">
<polygon fill="white" stroke="#666666" points="433,-56 388,-56 388,-37 433,-37 433,-56"/>
<text text-anchor="middle" x="410.5" y="-44" font-family="Helvetica,sans-Serif" font-size="10.00">builder</text>
</a>
</g>
</g>
<!-- Node3&#45;&gt;Node4 -->
<g id="edge3" class="edge"><title>Node3&#45;&gt;Node4</title>
<path fill="none" stroke="#63b8ff" d="M337.011,-46.5C350.317,-46.5 365.065,-46.5 377.765,-46.5"/>
<polygon fill="#63b8ff" stroke="#63b8ff" points="377.876,-50.0001 387.876,-46.5 377.876,-43.0001 377.876,-50.0001"/>
</g>
<!-- Node4&#45;&gt;Node4 -->
<g id="edge4" class="edge"><title>Node4&#45;&gt;Node4</title>
<path fill="none" stroke="#63b8ff" d="M393.238,-56.0828C384.84,-64.7337 390.594,-74 410.5,-74 422.941,-74 429.855,-70.3804 431.24,-65.5536"/>
<polygon fill="#63b8ff" stroke="#63b8ff" points="434.495,-64.2638 427.762,-56.0828 427.924,-66.6764 434.495,-64.2638"/>
</g>
<!-- Node6 -->
<g id="node6" class="node"><title>Node6</title>
<g id="a_node6"><a xlink:href="classore_1_1data_1_1_engine_factory.html#a478ec016dd58ed15c12deae34efa1b60" target="_top" xlink:title="Get a leg builder by leg type.">
<polygon fill="white" stroke="#666666" points="440,-19 381,-19 381,-0 440,-0 440,-19"/>
<text text-anchor="middle" x="410.5" y="-7" font-family="Helvetica,sans-Serif" font-size="10.00">legBuilder</text>
</a>
</g>
</g>
<!-- Node5&#45;&gt;Node6 -->
<g id="edge6" class="edge"><title>Node5&#45;&gt;Node6</title>
<path fill="none" stroke="#63b8ff" d="M345.252,-9.5C353.751,-9.5 362.53,-9.5 370.766,-9.5"/>
<polygon fill="#63b8ff" stroke="#63b8ff" points="370.845,-13.0001 380.845,-9.5 370.845,-6.0001 370.845,-13.0001"/>
</g>
<!-- Node7&#45;&gt;Node3 -->
<g id="edge8" class="edge"><title>Node7&#45;&gt;Node3</title>
<path fill="none" stroke="#63b8ff" d="M199.607,-19.0284C215.768,-23.6105 235.347,-29.1615 252.662,-34.071"/>
<polygon fill="#63b8ff" stroke="#63b8ff" points="251.978,-37.5147 262.553,-36.8753 253.887,-30.7802 251.978,-37.5147"/>
</g>
<!-- Node7&#45;&gt;Node5 -->
<g id="edge9" class="edge"><title>Node7&#45;&gt;Node5</title>
<path fill="none" stroke="#63b8ff" d="M210.546,-9.5C219.972,-9.5 230.04,-9.5 239.846,-9.5"/>
<polygon fill="#63b8ff" stroke="#63b8ff" points="239.931,-13.0001 249.931,-9.5 239.931,-6.0001 239.931,-13.0001"/>
</g>
</g>
</svg>
