<?xml version="1.0" encoding="UTF-8" standalone="no"?>
<!DOCTYPE svg PUBLIC "-//W3C//DTD SVG 1.1//EN"
 "http://www.w3.org/Graphics/SVG/1.1/DTD/svg11.dtd">
<!-- Generated by graphviz version 2.38.0 (20140413.2041)
 -->
<!-- Title: MarketConfiguration Pages: 1 -->
<svg width="299pt" height="324pt"
 viewBox="0.00 0.00 299.00 324.00" xmlns="http://www.w3.org/2000/svg" xmlns:xlink="http://www.w3.org/1999/xlink">
<g id="graph0" class="graph" transform="scale(1 1) rotate(0) translate(4 320)">
<title>MarketConfiguration</title>
<!-- Node1 -->
<g id="node1" class="node"><title>Node1</title>
<g id="a_node1"><a xlink:title=" ">
<polygon fill="#999999" stroke="#666666" points="179,-74 57,-74 57,-0 179,-0 179,-74"/>
<text text-anchor="middle" x="118" y="-62" font-family="Helvetica,sans-Serif" font-size="10.00">{MarketConfiguration</text>
<text text-anchor="start" x="65" y="-51" font-family="Helvetica,sans-Serif" font-size="10.00">||+ MarketConfiguration()</text>
<text text-anchor="start" x="65" y="-40" font-family="Helvetica,sans-Serif" font-size="10.00">+ operator()()</text>
<text text-anchor="start" x="65" y="-29" font-family="Helvetica,sans-Serif" font-size="10.00">+ setId()</text>
<text text-anchor="start" x="65" y="-18" font-family="Helvetica,sans-Serif" font-size="10.00">+ add()</text>
<text text-anchor="middle" x="118" y="-7" font-family="Helvetica,sans-Serif" font-size="10.00">}</text>
</a>
</g>
</g>
<!-- Node2 -->
<g id="node2" class="node"><title>Node2</title>
<g id="a_node2"><a xlink:title=" ">
<polygon fill="white" stroke="#666666" points="172.5,-162 63.5,-162 63.5,-121 172.5,-121 172.5,-162"/>
<text text-anchor="start" x="71.5" y="-150" font-family="Helvetica,sans-Serif" font-size="10.00">{map&lt; MarketObject,</text>
<text text-anchor="middle" x="118" y="-139" font-family="Helvetica,sans-Serif" font-size="10.00"> string &gt;</text>
<text text-anchor="middle" x="118" y="-128" font-family="Helvetica,sans-Serif" font-size="10.00">||}</text>
</a>
</g>
</g>
<!-- Node2&#45;&gt;Node1 -->
<g id="edge1" class="edge"><title>Node2&#45;&gt;Node1</title>
<path fill="none" stroke="#404040" d="M118,-120.737C118,-110.876 118,-98.4769 118,-86.3001"/>
<polygon fill="none" stroke="#404040" points="118,-86.3 114,-80.3 118,-74.3 122,-80.2999 118,-86.3"/>
<text text-anchor="middle" x="159.5" y="-95" font-family="Helvetica,sans-Serif" font-size="10.00"> &#45;marketObjectIds_</text>
</g>
<!-- Node3 -->
<g id="node3" class="node"><title>Node3</title>
<g id="a_node3"><a xlink:title=" ">
<polygon fill="white" stroke="#666666" points="78,-239 0,-239 0,-209 78,-209 78,-239"/>
<text text-anchor="middle" x="39" y="-227" font-family="Helvetica,sans-Serif" font-size="10.00">{MarketObject</text>
<text text-anchor="middle" x="39" y="-216" font-family="Helvetica,sans-Serif" font-size="10.00">||}</text>
</a>
</g>
</g>
<!-- Node3&#45;&gt;Node2 -->
<g id="edge2" class="edge"><title>Node3&#45;&gt;Node2</title>
<path fill="none" stroke="#404040" d="M52.7607,-208.978C63.1052,-198.437 77.6212,-183.645 90.335,-170.69"/>
<polygon fill="none" stroke="#404040" points="90.3703,-170.654 91.718,-163.57 98.7754,-162.09 97.4278,-169.174 90.3703,-170.654"/>
<text text-anchor="middle" x="96.5" y="-183" font-family="Helvetica,sans-Serif" font-size="10.00"> +keys</text>
</g>
<!-- Node4 -->
<g id="node4" class="node"><title>Node4</title>
<g id="a_node4"><a xlink:title=" ">
<polygon fill="white" stroke="#666666" points="140,-239 96,-239 96,-209 140,-209 140,-239"/>
<text text-anchor="middle" x="118" y="-227" font-family="Helvetica,sans-Serif" font-size="10.00">{string</text>
<text text-anchor="middle" x="118" y="-216" font-family="Helvetica,sans-Serif" font-size="10.00">||}</text>
</a>
</g>
</g>
<!-- Node4&#45;&gt;Node2 -->
<g id="edge3" class="edge"><title>Node4&#45;&gt;Node2</title>
<path fill="none" stroke="#404040" d="M118,-208.978C118,-199.349 118,-186.174 118,-174.091"/>
<polygon fill="none" stroke="#404040" points="118,-174.09 114,-168.09 118,-162.09 122,-168.09 118,-174.09"/>
<text text-anchor="middle" x="142.5" y="-183" font-family="Helvetica,sans-Serif" font-size="10.00"> +elements</text>
</g>
<!-- Node5 -->
<g id="node5" class="node"><title>Node5</title>
<g id="a_node5"><a xlink:title=" ">
<polygon fill="white" stroke="#666666" points="167,-316 57,-316 57,-286 167,-286 167,-316"/>
<text text-anchor="middle" x="112" y="-304" font-family="Helvetica,sans-Serif" font-size="10.00">{basic_string&lt; Char &gt;</text>
<text text-anchor="middle" x="112" y="-293" font-family="Helvetica,sans-Serif" font-size="10.00">||}</text>
</a>
</g>
</g>
<!-- Node5&#45;&gt;Node4 -->
<g id="edge4" class="edge"><title>Node5&#45;&gt;Node4</title>
<path fill="none" stroke="#63b8ff" d="M113.927,-275.911C114.901,-263.74 116.048,-249.398 116.877,-239.044"/>
<polygon fill="none" stroke="#63b8ff" points="110.437,-275.646 113.129,-285.893 117.415,-276.204 110.437,-275.646"/>
</g>
<!-- Node6 -->
<g id="node6" class="node"><title>Node6</title>
<g id="a_node6"><a xlink:title=" ">
<polygon fill="white" stroke="#666666" points="237,-239 163,-239 163,-209 237,-209 237,-239"/>
<text text-anchor="middle" x="200" y="-227" font-family="Helvetica,sans-Serif" font-size="10.00">{map&lt; K, T &gt;</text>
<text text-anchor="middle" x="200" y="-216" font-family="Helvetica,sans-Serif" font-size="10.00">||}</text>
</a>
</g>
</g>
<!-- Node6&#45;&gt;Node2 -->
<g id="edge5" class="edge"><title>Node6&#45;&gt;Node2</title>
<path fill="none" stroke="orange" d="M186.693,-199.989C182.181,-193.162 176.8,-185.931 171,-180 164.696,-173.553 157.156,-167.473 149.768,-162.16"/>
<polygon fill="orange" stroke="orange" points="183.992,-202.271 192.266,-208.888 189.925,-198.556 183.992,-202.271"/>
<text text-anchor="middle" x="236" y="-183" font-family="Helvetica,sans-Serif" font-size="10.00"> &lt; MarketObject, string &gt;</text>
</g>
<!-- Node7 -->
<g id="node7" class="node"><title>Node7</title>
<g id="a_node7"><a xlink:title=" ">
<polygon fill="white" stroke="#666666" points="214.5,-316 185.5,-316 185.5,-286 214.5,-286 214.5,-316"/>
<text text-anchor="middle" x="200" y="-304" font-family="Helvetica,sans-Serif" font-size="10.00">{K</text>
<text text-anchor="middle" x="200" y="-293" font-family="Helvetica,sans-Serif" font-size="10.00">||}</text>
</a>
</g>
</g>
<!-- Node7&#45;&gt;Node6 -->
<g id="edge6" class="edge"><title>Node7&#45;&gt;Node6</title>
<path fill="none" stroke="#404040" d="M200,-285.893C200,-276.151 200,-262.901 200,-251.249"/>
<polygon fill="none" stroke="#404040" points="200,-251.044 196,-245.044 200,-239.044 204,-245.044 200,-251.044"/>
<text text-anchor="middle" x="215.5" y="-260" font-family="Helvetica,sans-Serif" font-size="10.00"> +keys</text>
</g>
<!-- Node8 -->
<g id="node8" class="node"><title>Node8</title>
<g id="a_node8"><a xlink:title=" ">
<polygon fill="white" stroke="#666666" points="268.5,-316 239.5,-316 239.5,-286 268.5,-286 268.5,-316"/>
<text text-anchor="middle" x="254" y="-304" font-family="Helvetica,sans-Serif" font-size="10.00">{T</text>
<text text-anchor="middle" x="254" y="-293" font-family="Helvetica,sans-Serif" font-size="10.00">||}</text>
</a>
</g>
</g>
<!-- Node8&#45;&gt;Node6 -->
<g id="edge7" class="edge"><title>Node8&#45;&gt;Node6</title>
<path fill="none" stroke="#404040" d="M248.1,-285.807C244.159,-277.102 238.514,-265.95 232,-257 229.761,-253.923 227.223,-250.865 224.58,-247.929"/>
<polygon fill="none" stroke="#404040" points="224.366,-247.708 217.318,-246.182 216.016,-239.09 223.064,-240.615 224.366,-247.708"/>
<text text-anchor="middle" x="263.5" y="-260" font-family="Helvetica,sans-Serif" font-size="10.00"> +elements</text>
</g>
</g>
</svg>
