<?xml version="1.0" encoding="UTF-8" standalone="no"?>
<!DOCTYPE svg PUBLIC "-//W3C//DTD SVG 1.1//EN"
 "http://www.w3.org/Graphics/SVG/1.1/DTD/svg11.dtd">
<!-- Generated by graphviz version 2.38.0 (20140413.2041)
 -->
<!-- Title: populateIndexName Pages: 1 -->
<svg width="339pt" height="64pt"
 viewBox="0.00 0.00 339.00 64.00" xmlns="http://www.w3.org/2000/svg" xmlns:xlink="http://www.w3.org/1999/xlink">
<g id="graph0" class="graph" transform="scale(1 1) rotate(0) translate(4 60)">
<title>populateIndexName</title>
<!-- Node1 -->
<g id="node1" class="node"><title>Node1</title>
<g id="a_node1"><a xlink:title=" ">
<polygon fill="#999999" stroke="#666666" points="331,-37 229,-37 229,-18 331,-18 331,-37"/>
<text text-anchor="middle" x="280" y="-25" font-family="Helvetica,sans-Serif" font-size="10.00">populateIndexName</text>
</a>
</g>
</g>
<!-- Node2 -->
<g id="node2" class="node"><title>Node2</title>
<g id="a_node2"><a xlink:href="classore_1_1data_1_1_asian_option.html#acfb5662c8346d62dda85653879dbeb05" target="_top" xlink:title=" ">
<polygon fill="white" stroke="#666666" points="193,-37 128,-37 128,-18 193,-18 193,-37"/>
<text text-anchor="middle" x="160.5" y="-25" font-family="Helvetica,sans-Serif" font-size="10.00">indexName</text>
</a>
</g>
</g>
<!-- Node1&#45;&gt;Node2 -->
<g id="edge1" class="edge"><title>Node1&#45;&gt;Node2</title>
<path fill="none" stroke="#63b8ff" d="M218.548,-27.5C209.77,-27.5 201.043,-27.5 193.151,-27.5"/>
<polygon fill="#63b8ff" stroke="#63b8ff" points="218.829,-31.0001 228.829,-27.5 218.829,-24.0001 218.829,-31.0001"/>
</g>
<!-- Node3 -->
<g id="node3" class="node"><title>Node3</title>
<g id="a_node3"><a xlink:href="classore_1_1data_1_1_asian_option.html#af7b69d5b18d278257927e32b10a23ee6" target="_top" xlink:title="Build QuantLib/QuantExt instrument, link pricing engine.">
<polygon fill="white" stroke="#666666" points="64.5,-56 27.5,-56 27.5,-37 64.5,-37 64.5,-56"/>
<text text-anchor="middle" x="46" y="-44" font-family="Helvetica,sans-Serif" font-size="10.00">build</text>
</a>
</g>
</g>
<!-- Node2&#45;&gt;Node3 -->
<g id="edge2" class="edge"><title>Node2&#45;&gt;Node3</title>
<path fill="none" stroke="#63b8ff" d="M117.958,-34.5161C99.614,-37.6141 79.0261,-41.0911 64.7707,-43.4987"/>
<polygon fill="#63b8ff" stroke="#63b8ff" points="118.586,-37.9596 127.863,-32.8431 117.42,-31.0574 118.586,-37.9596"/>
</g>
<!-- Node4 -->
<g id="node4" class="node"><title>Node4</title>
<g id="a_node4"><a xlink:href="classore_1_1data_1_1_asian_option.html#a5172c779c3cbbd760ae110e62e08bb35" target="_top" xlink:title=" ">
<polygon fill="white" stroke="#666666" points="92,-19 0,-19 0,-0 92,-0 92,-19"/>
<text text-anchor="middle" x="46" y="-7" font-family="Helvetica,sans-Serif" font-size="10.00">underlyingIndices</text>
</a>
</g>
</g>
<!-- Node2&#45;&gt;Node4 -->
<g id="edge3" class="edge"><title>Node2&#45;&gt;Node4</title>
<path fill="none" stroke="#63b8ff" d="M117.941,-20.8506C109.573,-19.5116 100.738,-18.098 92.2503,-16.74"/>
<polygon fill="#63b8ff" stroke="#63b8ff" points="117.436,-24.3141 127.863,-22.4381 118.542,-17.4021 117.436,-24.3141"/>
</g>
</g>
</svg>
