<?xml version="1.0" encoding="UTF-8" standalone="no"?>
<!DOCTYPE svg PUBLIC "-//W3C//DTD SVG 1.1//EN"
 "http://www.w3.org/Graphics/SVG/1.1/DTD/svg11.dtd">
<!-- Generated by graphviz version 2.38.0 (20140413.2041)
 -->
<!-- Title: CommoditySpreadOptionData::OptionStripData Pages: 1 -->
<svg width="1457pt" height="1515pt"
 viewBox="0.00 0.00 1457.31 1515.00" xmlns="http://www.w3.org/2000/svg" xmlns:xlink="http://www.w3.org/1999/xlink">
<g id="graph0" class="graph" transform="scale(1 1) rotate(0) translate(4 1511)">
<title>CommoditySpreadOptionData::OptionStripData</title>
<!-- Node1 -->
<g id="node1" class="node"><title>Node1</title>
<g id="a_node1"><a xlink:title=" ">
<polygon fill="#999999" stroke="#666666" points="1336.81,-107 1187.81,-107 1187.81,7.10543e-015 1336.81,7.10543e-015 1336.81,-107"/>
<text text-anchor="start" x="1195.81" y="-95" font-family="Helvetica,sans-Serif" font-size="10.00">{CommoditySpreadOptionData</text>
<text text-anchor="middle" x="1262.31" y="-84" font-family="Helvetica,sans-Serif" font-size="10.00">::OptionStripData</text>
<text text-anchor="start" x="1195.81" y="-73" font-family="Helvetica,sans-Serif" font-size="10.00">||+ schedule()</text>
<text text-anchor="start" x="1195.81" y="-62" font-family="Helvetica,sans-Serif" font-size="10.00">+ bdc()</text>
<text text-anchor="start" x="1195.81" y="-51" font-family="Helvetica,sans-Serif" font-size="10.00">+ lag()</text>
<text text-anchor="start" x="1195.81" y="-40" font-family="Helvetica,sans-Serif" font-size="10.00">+ calendar()</text>
<text text-anchor="start" x="1195.81" y="-29" font-family="Helvetica,sans-Serif" font-size="10.00">* fromXML()</text>
<text text-anchor="start" x="1195.81" y="-18" font-family="Helvetica,sans-Serif" font-size="10.00">* toXML()</text>
<text text-anchor="middle" x="1262.31" y="-7" font-family="Helvetica,sans-Serif" font-size="10.00">}</text>
</a>
</g>
</g>
<!-- Node2 -->
<g id="node2" class="node"><title>Node2</title>
<g id="a_node2"><a xlink:href="classore_1_1data_1_1_x_m_l_serializable.html" target="_top" xlink:title="Base class for all serializable classes.">
<polygon fill="white" stroke="#666666" points="969.805,-1340.5 858.805,-1340.5 858.805,-1233.5 969.805,-1233.5 969.805,-1340.5"/>
<text text-anchor="middle" x="914.305" y="-1328.5" font-family="Helvetica,sans-Serif" font-size="10.00">{XMLSerializable</text>
<text text-anchor="start" x="866.805" y="-1317.5" font-family="Helvetica,sans-Serif" font-size="10.00">||+ ~XMLSerializable()</text>
<text text-anchor="start" x="866.805" y="-1306.5" font-family="Helvetica,sans-Serif" font-size="10.00">+ fromXML()</text>
<text text-anchor="start" x="866.805" y="-1295.5" font-family="Helvetica,sans-Serif" font-size="10.00">+ toXML()</text>
<text text-anchor="start" x="866.805" y="-1284.5" font-family="Helvetica,sans-Serif" font-size="10.00">+ fromFile()</text>
<text text-anchor="start" x="866.805" y="-1273.5" font-family="Helvetica,sans-Serif" font-size="10.00">+ toFile()</text>
<text text-anchor="start" x="866.805" y="-1262.5" font-family="Helvetica,sans-Serif" font-size="10.00">+ fromXMLString()</text>
<text text-anchor="start" x="866.805" y="-1251.5" font-family="Helvetica,sans-Serif" font-size="10.00">+ toXMLString()</text>
<text text-anchor="middle" x="914.305" y="-1240.5" font-family="Helvetica,sans-Serif" font-size="10.00">}</text>
</a>
</g>
</g>
<!-- Node2&#45;&gt;Node1 -->
<g id="edge1" class="edge"><title>Node2&#45;&gt;Node1</title>
<path fill="none" stroke="#63b8ff" d="M967.502,-1226.51C969.75,-1224.6 972.021,-1222.75 974.305,-1221 1043.21,-1168.09 1098.97,-1202.19 1147.31,-1130 1210.89,-1035.04 1171.31,-988.277 1171.31,-874 1171.31,-874 1171.31,-874 1171.31,-316.5 1171.31,-243.786 1163.92,-221.757 1190.31,-154 1196.69,-137.608 1206.44,-121.448 1216.72,-107.072"/>
<polygon fill="none" stroke="#63b8ff" points="965.084,-1223.98 959.962,-1233.25 969.75,-1229.2 965.084,-1223.98"/>
</g>
<!-- Node3 -->
<g id="node3" class="node"><title>Node3</title>
<g id="a_node3"><a xlink:href="classore_1_1data_1_1_schedule_data.html" target="_top" xlink:title="Serializable schedule data.">
<polygon fill="white" stroke="#666666" points="878.305,-481 754.305,-481 754.305,-154 878.305,-154 878.305,-481"/>
<text text-anchor="middle" x="816.305" y="-469" font-family="Helvetica,sans-Serif" font-size="10.00">{ScheduleData</text>
<text text-anchor="start" x="762.305" y="-458" font-family="Helvetica,sans-Serif" font-size="10.00">||+ ScheduleData()</text>
<text text-anchor="start" x="762.305" y="-447" font-family="Helvetica,sans-Serif" font-size="10.00">+ ScheduleData()</text>
<text text-anchor="start" x="762.305" y="-436" font-family="Helvetica,sans-Serif" font-size="10.00">+ ScheduleData()</text>
<text text-anchor="start" x="762.305" y="-425" font-family="Helvetica,sans-Serif" font-size="10.00">+ ScheduleData()</text>
<text text-anchor="start" x="762.305" y="-414" font-family="Helvetica,sans-Serif" font-size="10.00">+ addDates()</text>
<text text-anchor="start" x="762.305" y="-403" font-family="Helvetica,sans-Serif" font-size="10.00">+ addRules()</text>
<text text-anchor="start" x="762.305" y="-392" font-family="Helvetica,sans-Serif" font-size="10.00">+ addDerived()</text>
<text text-anchor="start" x="762.305" y="-381" font-family="Helvetica,sans-Serif" font-size="10.00">+ hasData()</text>
<text text-anchor="start" x="762.305" y="-370" font-family="Helvetica,sans-Serif" font-size="10.00">+ baseScheduleNames()</text>
<text text-anchor="start" x="762.305" y="-359" font-family="Helvetica,sans-Serif" font-size="10.00">+ dates()</text>
<text text-anchor="start" x="762.305" y="-348" font-family="Helvetica,sans-Serif" font-size="10.00">+ rules()</text>
<text text-anchor="start" x="762.305" y="-337" font-family="Helvetica,sans-Serif" font-size="10.00">+ derived()</text>
<text text-anchor="start" x="762.305" y="-326" font-family="Helvetica,sans-Serif" font-size="10.00">+ name()</text>
<text text-anchor="start" x="762.305" y="-315" font-family="Helvetica,sans-Serif" font-size="10.00">+ hasDerived()</text>
<text text-anchor="start" x="762.305" y="-304" font-family="Helvetica,sans-Serif" font-size="10.00">+ modifyDates()</text>
<text text-anchor="start" x="762.305" y="-293" font-family="Helvetica,sans-Serif" font-size="10.00">+ modifyRules()</text>
<text text-anchor="start" x="762.305" y="-282" font-family="Helvetica,sans-Serif" font-size="10.00">+ modifyDerived()</text>
<text text-anchor="start" x="762.305" y="-271" font-family="Helvetica,sans-Serif" font-size="10.00">* fromXML()</text>
<text text-anchor="start" x="762.305" y="-260" font-family="Helvetica,sans-Serif" font-size="10.00">* toXML()</text>
<text text-anchor="start" x="762.305" y="-249" font-family="Helvetica,sans-Serif" font-size="10.00">* dates()</text>
<text text-anchor="start" x="762.305" y="-238" font-family="Helvetica,sans-Serif" font-size="10.00">* rules()</text>
<text text-anchor="start" x="762.305" y="-227" font-family="Helvetica,sans-Serif" font-size="10.00">* derived()</text>
<text text-anchor="start" x="762.305" y="-216" font-family="Helvetica,sans-Serif" font-size="10.00">* name()</text>
<text text-anchor="start" x="762.305" y="-205" font-family="Helvetica,sans-Serif" font-size="10.00">* hasDerived()</text>
<text text-anchor="start" x="762.305" y="-194" font-family="Helvetica,sans-Serif" font-size="10.00">* modifyDates()</text>
<text text-anchor="start" x="762.305" y="-183" font-family="Helvetica,sans-Serif" font-size="10.00">* modifyRules()</text>
<text text-anchor="start" x="762.305" y="-172" font-family="Helvetica,sans-Serif" font-size="10.00">* modifyDerived()</text>
<text text-anchor="middle" x="816.305" y="-161" font-family="Helvetica,sans-Serif" font-size="10.00">}</text>
</a>
</g>
</g>
<!-- Node2&#45;&gt;Node3 -->
<g id="edge3" class="edge"><title>Node2&#45;&gt;Node3</title>
<path fill="none" stroke="#63b8ff" d="M952.126,-1223.9C955.039,-1217.03 957.532,-1209.99 959.305,-1203 965.315,-1179.31 959.673,-1172.44 959.305,-1148 955.749,-911.475 994.182,-847.015 943.305,-616 929.687,-554.163 903.429,-489.087 878.307,-435.62"/>
<polygon fill="none" stroke="#63b8ff" points="948.881,-1222.58 947.922,-1233.13 955.251,-1225.48 948.881,-1222.58"/>
</g>
<!-- Node5 -->
<g id="node5" class="node"><title>Node5</title>
<g id="a_node5"><a xlink:href="classore_1_1data_1_1_schedule_dates.html" target="_top" xlink:title="Serializable object holding schedule Dates data.">
<polygon fill="white" stroke="#666666" points="586.805,-992.5 455.805,-992.5 455.805,-753.5 586.805,-753.5 586.805,-992.5"/>
<text text-anchor="middle" x="521.305" y="-980.5" font-family="Helvetica,sans-Serif" font-size="10.00">{ScheduleDates</text>
<text text-anchor="start" x="463.805" y="-969.5" font-family="Helvetica,sans-Serif" font-size="10.00">||+ ScheduleDates()</text>
<text text-anchor="start" x="463.805" y="-958.5" font-family="Helvetica,sans-Serif" font-size="10.00">+ ScheduleDates()</text>
<text text-anchor="start" x="463.805" y="-947.5" font-family="Helvetica,sans-Serif" font-size="10.00">+ hasData()</text>
<text text-anchor="start" x="463.805" y="-936.5" font-family="Helvetica,sans-Serif" font-size="10.00">+ calendar()</text>
<text text-anchor="start" x="463.805" y="-925.5" font-family="Helvetica,sans-Serif" font-size="10.00">+ convention()</text>
<text text-anchor="start" x="463.805" y="-914.5" font-family="Helvetica,sans-Serif" font-size="10.00">+ tenor()</text>
<text text-anchor="start" x="463.805" y="-903.5" font-family="Helvetica,sans-Serif" font-size="10.00">+ endOfMonth()</text>
<text text-anchor="start" x="463.805" y="-892.5" font-family="Helvetica,sans-Serif" font-size="10.00">+ endOfMonthConvention()</text>
<text text-anchor="start" x="463.805" y="-881.5" font-family="Helvetica,sans-Serif" font-size="10.00">+ dates()</text>
<text text-anchor="start" x="463.805" y="-870.5" font-family="Helvetica,sans-Serif" font-size="10.00">+ modifyDates()</text>
<text text-anchor="start" x="463.805" y="-859.5" font-family="Helvetica,sans-Serif" font-size="10.00">* fromXML()</text>
<text text-anchor="start" x="463.805" y="-848.5" font-family="Helvetica,sans-Serif" font-size="10.00">* toXML()</text>
<text text-anchor="start" x="463.805" y="-837.5" font-family="Helvetica,sans-Serif" font-size="10.00">* calendar()</text>
<text text-anchor="start" x="463.805" y="-826.5" font-family="Helvetica,sans-Serif" font-size="10.00">* convention()</text>
<text text-anchor="start" x="463.805" y="-815.5" font-family="Helvetica,sans-Serif" font-size="10.00">* tenor()</text>
<text text-anchor="start" x="463.805" y="-804.5" font-family="Helvetica,sans-Serif" font-size="10.00">* endOfMonth()</text>
<text text-anchor="start" x="463.805" y="-793.5" font-family="Helvetica,sans-Serif" font-size="10.00">* endOfMonthConvention()</text>
<text text-anchor="start" x="463.805" y="-782.5" font-family="Helvetica,sans-Serif" font-size="10.00">* dates()</text>
<text text-anchor="start" x="463.805" y="-771.5" font-family="Helvetica,sans-Serif" font-size="10.00">* modifyDates()</text>
<text text-anchor="middle" x="521.305" y="-760.5" font-family="Helvetica,sans-Serif" font-size="10.00">}</text>
</a>
</g>
</g>
<!-- Node2&#45;&gt;Node5 -->
<g id="edge6" class="edge"><title>Node2&#45;&gt;Node5</title>
<path fill="none" stroke="#63b8ff" d="M932.501,-1223.14C936.076,-1197.18 934.403,-1168.45 917.305,-1148 888.339,-1113.35 858.055,-1149.46 817.305,-1130 726.875,-1086.81 642.388,-1008.4 587.015,-949.701"/>
<polygon fill="none" stroke="#63b8ff" points="928.999,-1222.87 930.824,-1233.3 935.905,-1224.01 928.999,-1222.87"/>
</g>
<!-- Node13 -->
<g id="node13" class="node"><title>Node13</title>
<g id="a_node13"><a xlink:href="classore_1_1data_1_1_schedule_rules.html" target="_top" xlink:title="Serializable object holding schedule Rules data.">
<polygon fill="white" stroke="#666666" points="437.805,-1130 276.805,-1130 276.805,-616 437.805,-616 437.805,-1130"/>
<text text-anchor="middle" x="357.305" y="-1118" font-family="Helvetica,sans-Serif" font-size="10.00">{ScheduleRules</text>
<text text-anchor="start" x="284.805" y="-1107" font-family="Helvetica,sans-Serif" font-size="10.00">||+ ScheduleRules()</text>
<text text-anchor="start" x="284.805" y="-1096" font-family="Helvetica,sans-Serif" font-size="10.00">+ ScheduleRules()</text>
<text text-anchor="start" x="284.805" y="-1085" font-family="Helvetica,sans-Serif" font-size="10.00">+ hasData()</text>
<text text-anchor="start" x="284.805" y="-1074" font-family="Helvetica,sans-Serif" font-size="10.00">+ startDate()</text>
<text text-anchor="start" x="284.805" y="-1063" font-family="Helvetica,sans-Serif" font-size="10.00">+ endDate()</text>
<text text-anchor="start" x="284.805" y="-1052" font-family="Helvetica,sans-Serif" font-size="10.00">+ tenor()</text>
<text text-anchor="start" x="284.805" y="-1041" font-family="Helvetica,sans-Serif" font-size="10.00">+ calendar()</text>
<text text-anchor="start" x="284.805" y="-1030" font-family="Helvetica,sans-Serif" font-size="10.00">+ convention()</text>
<text text-anchor="start" x="284.805" y="-1019" font-family="Helvetica,sans-Serif" font-size="10.00">+ termConvention()</text>
<text text-anchor="start" x="284.805" y="-1008" font-family="Helvetica,sans-Serif" font-size="10.00">+ rule()</text>
<text text-anchor="start" x="284.805" y="-997" font-family="Helvetica,sans-Serif" font-size="10.00">+ endOfMonth()</text>
<text text-anchor="start" x="284.805" y="-986" font-family="Helvetica,sans-Serif" font-size="10.00">+ endOfMonthConvention()</text>
<text text-anchor="start" x="284.805" y="-975" font-family="Helvetica,sans-Serif" font-size="10.00">+ firstDate()</text>
<text text-anchor="start" x="284.805" y="-964" font-family="Helvetica,sans-Serif" font-size="10.00">+ lastDate()</text>
<text text-anchor="start" x="284.805" y="-953" font-family="Helvetica,sans-Serif" font-size="10.00">+ removeFirstDate()</text>
<text text-anchor="start" x="284.805" y="-942" font-family="Helvetica,sans-Serif" font-size="10.00">+ removeLastDate()</text>
<text text-anchor="start" x="284.805" y="-931" font-family="Helvetica,sans-Serif" font-size="10.00">+ modifyStartDate()</text>
<text text-anchor="start" x="284.805" y="-920" font-family="Helvetica,sans-Serif" font-size="10.00">+ modifyEndDate()</text>
<text text-anchor="start" x="284.805" y="-909" font-family="Helvetica,sans-Serif" font-size="10.00">+ modifyCalendar()</text>
<text text-anchor="start" x="284.805" y="-898" font-family="Helvetica,sans-Serif" font-size="10.00">+ modifyConvention()</text>
<text text-anchor="start" x="284.805" y="-887" font-family="Helvetica,sans-Serif" font-size="10.00">+ modifyTermConvention()</text>
<text text-anchor="start" x="284.805" y="-876" font-family="Helvetica,sans-Serif" font-size="10.00">+ modifyEndOfMonthConvention()</text>
<text text-anchor="start" x="284.805" y="-865" font-family="Helvetica,sans-Serif" font-size="10.00">* termConvention_</text>
<text text-anchor="start" x="284.805" y="-854" font-family="Helvetica,sans-Serif" font-size="10.00">* fromXML()</text>
<text text-anchor="start" x="284.805" y="-843" font-family="Helvetica,sans-Serif" font-size="10.00">* toXML()</text>
<text text-anchor="start" x="284.805" y="-832" font-family="Helvetica,sans-Serif" font-size="10.00">* startDate()</text>
<text text-anchor="start" x="284.805" y="-821" font-family="Helvetica,sans-Serif" font-size="10.00">* endDate()</text>
<text text-anchor="start" x="284.805" y="-810" font-family="Helvetica,sans-Serif" font-size="10.00">* tenor()</text>
<text text-anchor="start" x="284.805" y="-799" font-family="Helvetica,sans-Serif" font-size="10.00">* calendar()</text>
<text text-anchor="start" x="284.805" y="-788" font-family="Helvetica,sans-Serif" font-size="10.00">* convention()</text>
<text text-anchor="start" x="284.805" y="-777" font-family="Helvetica,sans-Serif" font-size="10.00">* termConvention()</text>
<text text-anchor="start" x="284.805" y="-766" font-family="Helvetica,sans-Serif" font-size="10.00">* rule()</text>
<text text-anchor="start" x="284.805" y="-755" font-family="Helvetica,sans-Serif" font-size="10.00">* endOfMonth()</text>
<text text-anchor="start" x="284.805" y="-744" font-family="Helvetica,sans-Serif" font-size="10.00">* endOfMonthConvention()</text>
<text text-anchor="start" x="284.805" y="-733" font-family="Helvetica,sans-Serif" font-size="10.00">* firstDate()</text>
<text text-anchor="start" x="284.805" y="-722" font-family="Helvetica,sans-Serif" font-size="10.00">* lastDate()</text>
<text text-anchor="start" x="284.805" y="-711" font-family="Helvetica,sans-Serif" font-size="10.00">* removeFirstDate()</text>
<text text-anchor="start" x="284.805" y="-700" font-family="Helvetica,sans-Serif" font-size="10.00">* removeLastDate()</text>
<text text-anchor="start" x="284.805" y="-689" font-family="Helvetica,sans-Serif" font-size="10.00">* modifyStartDate()</text>
<text text-anchor="start" x="284.805" y="-678" font-family="Helvetica,sans-Serif" font-size="10.00">* modifyEndDate()</text>
<text text-anchor="start" x="284.805" y="-667" font-family="Helvetica,sans-Serif" font-size="10.00">* modifyCalendar()</text>
<text text-anchor="start" x="284.805" y="-656" font-family="Helvetica,sans-Serif" font-size="10.00">* modifyConvention()</text>
<text text-anchor="start" x="284.805" y="-645" font-family="Helvetica,sans-Serif" font-size="10.00">* modifyTermConvention()</text>
<text text-anchor="start" x="284.805" y="-634" font-family="Helvetica,sans-Serif" font-size="10.00">* modifyEndOfMonthConvention()</text>
<text text-anchor="middle" x="357.305" y="-623" font-family="Helvetica,sans-Serif" font-size="10.00">}</text>
</a>
</g>
</g>
<!-- Node2&#45;&gt;Node13 -->
<g id="edge17" class="edge"><title>Node2&#45;&gt;Node13</title>
<path fill="none" stroke="#63b8ff" d="M849.569,-1262.01C819.299,-1248.31 784.469,-1228.69 759.305,-1203 740.112,-1183.4 754.227,-1163.07 731.305,-1148 678.276,-1113.14 496.838,-1168.39 446.305,-1130 443.401,-1127.79 440.592,-1125.49 437.873,-1123.09"/>
<polygon fill="none" stroke="#63b8ff" points="848.239,-1265.25 858.801,-1266.08 851.057,-1258.84 848.239,-1265.25"/>
</g>
<!-- Node15 -->
<g id="node15" class="node"><title>Node15</title>
<g id="a_node15"><a xlink:href="classore_1_1data_1_1_schedule_derived.html" target="_top" xlink:title="Serializable object holding Derived schedule data.">
<polygon fill="white" stroke="#666666" points="934.305,-1009 826.305,-1009 826.305,-737 934.305,-737 934.305,-1009"/>
<text text-anchor="middle" x="880.305" y="-997" font-family="Helvetica,sans-Serif" font-size="10.00">{ScheduleDerived</text>
<text text-anchor="start" x="834.305" y="-986" font-family="Helvetica,sans-Serif" font-size="10.00">||+ ScheduleDerived()</text>
<text text-anchor="start" x="834.305" y="-975" font-family="Helvetica,sans-Serif" font-size="10.00">+ ScheduleDerived()</text>
<text text-anchor="start" x="834.305" y="-964" font-family="Helvetica,sans-Serif" font-size="10.00">+ baseSchedule()</text>
<text text-anchor="start" x="834.305" y="-953" font-family="Helvetica,sans-Serif" font-size="10.00">+ calendar()</text>
<text text-anchor="start" x="834.305" y="-942" font-family="Helvetica,sans-Serif" font-size="10.00">+ convention()</text>
<text text-anchor="start" x="834.305" y="-931" font-family="Helvetica,sans-Serif" font-size="10.00">+ shift()</text>
<text text-anchor="start" x="834.305" y="-920" font-family="Helvetica,sans-Serif" font-size="10.00">+ removeFirstDate()</text>
<text text-anchor="start" x="834.305" y="-909" font-family="Helvetica,sans-Serif" font-size="10.00">+ removeLastDate()</text>
<text text-anchor="start" x="834.305" y="-898" font-family="Helvetica,sans-Serif" font-size="10.00">+ modifyCalendar()</text>
<text text-anchor="start" x="834.305" y="-887" font-family="Helvetica,sans-Serif" font-size="10.00">+ modifyConvention()</text>
<text text-anchor="start" x="834.305" y="-876" font-family="Helvetica,sans-Serif" font-size="10.00">+ modifyShift()</text>
<text text-anchor="start" x="834.305" y="-865" font-family="Helvetica,sans-Serif" font-size="10.00">* fromXML()</text>
<text text-anchor="start" x="834.305" y="-854" font-family="Helvetica,sans-Serif" font-size="10.00">* toXML()</text>
<text text-anchor="start" x="834.305" y="-843" font-family="Helvetica,sans-Serif" font-size="10.00">* baseSchedule()</text>
<text text-anchor="start" x="834.305" y="-832" font-family="Helvetica,sans-Serif" font-size="10.00">* calendar()</text>
<text text-anchor="start" x="834.305" y="-821" font-family="Helvetica,sans-Serif" font-size="10.00">* convention()</text>
<text text-anchor="start" x="834.305" y="-810" font-family="Helvetica,sans-Serif" font-size="10.00">* shift()</text>
<text text-anchor="start" x="834.305" y="-799" font-family="Helvetica,sans-Serif" font-size="10.00">* removeFirstDate()</text>
<text text-anchor="start" x="834.305" y="-788" font-family="Helvetica,sans-Serif" font-size="10.00">* removeLastDate()</text>
<text text-anchor="start" x="834.305" y="-777" font-family="Helvetica,sans-Serif" font-size="10.00">* modifyCalendar()</text>
<text text-anchor="start" x="834.305" y="-766" font-family="Helvetica,sans-Serif" font-size="10.00">* modifyConvention()</text>
<text text-anchor="start" x="834.305" y="-755" font-family="Helvetica,sans-Serif" font-size="10.00">* modifyShift()</text>
<text text-anchor="middle" x="880.305" y="-744" font-family="Helvetica,sans-Serif" font-size="10.00">}</text>
</a>
</g>
</g>
<!-- Node2&#45;&gt;Node15 -->
<g id="edge23" class="edge"><title>Node2&#45;&gt;Node15</title>
<path fill="none" stroke="#63b8ff" d="M937.836,-1223.25C939.659,-1216.49 941.213,-1209.65 942.305,-1203 952.802,-1139.05 942.393,-1068.39 927.299,-1009"/>
<polygon fill="none" stroke="#63b8ff" points="934.413,-1222.49 934.995,-1233.07 941.137,-1224.44 934.413,-1222.49"/>
</g>
<!-- Node3&#45;&gt;Node1 -->
<g id="edge2" class="edge"><title>Node3&#45;&gt;Node1</title>
<path fill="none" stroke="#404040" d="M878.426,-271.291C935.953,-230.449 1024.68,-170.02 1106.31,-125 1128.56,-112.726 1153.35,-100.786 1176.5,-90.3266"/>
<polygon fill="none" stroke="#404040" points="1176.76,-90.2109 1180.61,-84.1113 1187.72,-85.3158 1183.87,-91.4154 1176.76,-90.2109"/>
<text text-anchor="middle" x="1131.81" y="-128" font-family="Helvetica,sans-Serif" font-size="10.00"> &#45;schedule_</text>
</g>
<!-- Node4 -->
<g id="node4" class="node"><title>Node4</title>
<g id="a_node4"><a xlink:title=" ">
<polygon fill="white" stroke="#666666" points="570.305,-569 472.305,-569 472.305,-528 570.305,-528 570.305,-569"/>
<text text-anchor="start" x="480.305" y="-557" font-family="Helvetica,sans-Serif" font-size="10.00">{vector&lt; ore::data::</text>
<text text-anchor="middle" x="521.305" y="-546" font-family="Helvetica,sans-Serif" font-size="10.00">ScheduleDates &gt;</text>
<text text-anchor="middle" x="521.305" y="-535" font-family="Helvetica,sans-Serif" font-size="10.00">||}</text>
</a>
</g>
</g>
<!-- Node4&#45;&gt;Node3 -->
<g id="edge4" class="edge"><title>Node4&#45;&gt;Node3</title>
<path fill="none" stroke="#404040" d="M537.563,-527.729C545.51,-518.564 555.467,-507.782 565.305,-499 621.802,-448.569 692.267,-398.899 744.142,-364.47"/>
<polygon fill="none" stroke="#404040" points="744.245,-364.402 747.049,-357.758 754.26,-357.791 751.456,-364.435 744.245,-364.402"/>
<text text-anchor="middle" x="583.305" y="-502" font-family="Helvetica,sans-Serif" font-size="10.00"> &#45;dates_</text>
</g>
<!-- Node5&#45;&gt;Node4 -->
<g id="edge5" class="edge"><title>Node5&#45;&gt;Node4</title>
<path fill="none" stroke="#404040" d="M521.305,-753.287C521.305,-691.675 521.305,-621.141 521.305,-581.299"/>
<polygon fill="none" stroke="#404040" points="521.305,-581.257 517.305,-575.257 521.305,-569.257 525.305,-575.257 521.305,-581.257"/>
<text text-anchor="middle" x="545.805" y="-590" font-family="Helvetica,sans-Serif" font-size="10.00"> +elements</text>
</g>
<!-- Node6 -->
<g id="node6" class="node"><title>Node6</title>
<g id="a_node6"><a xlink:title=" ">
<polygon fill="white" stroke="#666666" points="530.305,-1430 486.305,-1430 486.305,-1400 530.305,-1400 530.305,-1430"/>
<text text-anchor="middle" x="508.305" y="-1418" font-family="Helvetica,sans-Serif" font-size="10.00">{string</text>
<text text-anchor="middle" x="508.305" y="-1407" font-family="Helvetica,sans-Serif" font-size="10.00">||}</text>
</a>
</g>
</g>
<!-- Node6&#45;&gt;Node3 -->
<g id="edge27" class="edge"><title>Node6&#45;&gt;Node3</title>
<path fill="none" stroke="#404040" d="M530.5,-1412.92C629.618,-1407.91 1028.87,-1385.83 1073.31,-1353 1099.53,-1333.63 1107.31,-1320.6 1107.31,-1288 1107.31,-1288 1107.31,-1288 1107.31,-547.5 1107.31,-437.02 976.171,-371.674 889.961,-340.651"/>
<polygon fill="none" stroke="#404040" points="889.7,-340.56 882.714,-342.35 878.375,-336.59 885.361,-334.8 889.7,-340.56"/>
<text text-anchor="middle" x="1125.31" y="-870.5" font-family="Helvetica,sans-Serif" font-size="10.00"> &#45;name_</text>
</g>
<!-- Node6&#45;&gt;Node5 -->
<g id="edge7" class="edge"><title>Node6&#45;&gt;Node5</title>
<path fill="none" stroke="#404040" d="M511.072,-1399.88C517.096,-1364.6 527.338,-1271.81 480.305,-1221 455.549,-1194.25 423.072,-1231.46 400.305,-1203 385.035,-1183.91 386.525,-1168.19 400.305,-1148 412.682,-1129.87 431.479,-1146.19 446.305,-1130 477.743,-1095.67 496.056,-1048.83 506.704,-1004.6"/>
<polygon fill="none" stroke="#404040" points="506.722,-1004.51 504.15,-997.777 509.379,-992.811 511.951,-999.548 506.722,-1004.51"/>
<text text-anchor="middle" x="568.805" y="-1312" font-family="Helvetica,sans-Serif" font-size="10.00"> &#45;calendar_</text>
<text text-anchor="middle" x="568.805" y="-1301" font-family="Helvetica,sans-Serif" font-size="10.00">&#45;convention_</text>
<text text-anchor="start" x="517.305" y="-1290" font-family="Helvetica,sans-Serif" font-size="10.00">&#45;endOfMonthConvention</text>
<text text-anchor="middle" x="568.805" y="-1279" font-family="Helvetica,sans-Serif" font-size="10.00">_</text>
<text text-anchor="middle" x="568.805" y="-1268" font-family="Helvetica,sans-Serif" font-size="10.00">&#45;endOfMonth_</text>
<text text-anchor="middle" x="568.805" y="-1257" font-family="Helvetica,sans-Serif" font-size="10.00">&#45;tenor_</text>
</g>
<!-- Node8 -->
<g id="node8" class="node"><title>Node8</title>
<g id="a_node8"><a xlink:title=" ">
<polygon fill="white" stroke="#666666" points="471.805,-1302 384.805,-1302 384.805,-1272 471.805,-1272 471.805,-1302"/>
<text text-anchor="middle" x="428.305" y="-1290" font-family="Helvetica,sans-Serif" font-size="10.00">{vector&lt; string &gt;</text>
<text text-anchor="middle" x="428.305" y="-1279" font-family="Helvetica,sans-Serif" font-size="10.00">||}</text>
</a>
</g>
</g>
<!-- Node6&#45;&gt;Node8 -->
<g id="edge10" class="edge"><title>Node6&#45;&gt;Node8</title>
<path fill="none" stroke="#404040" d="M486.014,-1408.21C472.173,-1403.46 455.194,-1395.28 445.305,-1382 430.846,-1362.57 427.351,-1334.73 427.016,-1314.39"/>
<polygon fill="none" stroke="#404040" points="427.018,-1314.27 423.094,-1308.22 427.169,-1302.27 431.093,-1308.32 427.018,-1314.27"/>
<text text-anchor="middle" x="469.805" y="-1374" font-family="Helvetica,sans-Serif" font-size="10.00"> +elements</text>
</g>
<!-- Node6&#45;&gt;Node13 -->
<g id="edge18" class="edge"><title>Node6&#45;&gt;Node13</title>
<path fill="none" stroke="#404040" d="M485.926,-1411.65C432.247,-1405.51 298.669,-1387.04 272.305,-1353 236.385,-1306.62 251.456,-1275.84 272.305,-1221 276.109,-1211 283.489,-1212.56 288.305,-1203 298.099,-1183.56 306.503,-1162.8 313.715,-1141.52"/>
<polygon fill="none" stroke="#404040" points="313.753,-1141.41 311.82,-1134.46 317.49,-1130 319.423,-1136.95 313.753,-1141.41"/>
<text text-anchor="middle" x="323.805" y="-1345" font-family="Helvetica,sans-Serif" font-size="10.00"> &#45;calendar_</text>
<text text-anchor="middle" x="323.805" y="-1334" font-family="Helvetica,sans-Serif" font-size="10.00">&#45;convention_</text>
<text text-anchor="middle" x="323.805" y="-1323" font-family="Helvetica,sans-Serif" font-size="10.00">&#45;endDate_</text>
<text text-anchor="start" x="272.305" y="-1312" font-family="Helvetica,sans-Serif" font-size="10.00">&#45;endOfMonthConvention</text>
<text text-anchor="middle" x="323.805" y="-1301" font-family="Helvetica,sans-Serif" font-size="10.00">_</text>
<text text-anchor="middle" x="323.805" y="-1290" font-family="Helvetica,sans-Serif" font-size="10.00">&#45;endOfMonth_</text>
<text text-anchor="middle" x="323.805" y="-1279" font-family="Helvetica,sans-Serif" font-size="10.00">&#45;firstDate_</text>
<text text-anchor="middle" x="323.805" y="-1268" font-family="Helvetica,sans-Serif" font-size="10.00">&#45;lastDate_</text>
<text text-anchor="middle" x="323.805" y="-1257" font-family="Helvetica,sans-Serif" font-size="10.00">&#45;rule_</text>
<text text-anchor="middle" x="323.805" y="-1246" font-family="Helvetica,sans-Serif" font-size="10.00">&#45;startDate_</text>
<text text-anchor="middle" x="323.805" y="-1235" font-family="Helvetica,sans-Serif" font-size="10.00">&#45;tenor_</text>
<text text-anchor="middle" x="323.805" y="-1224" font-family="Helvetica,sans-Serif" font-size="10.00">...</text>
</g>
<!-- Node6&#45;&gt;Node15 -->
<g id="edge24" class="edge"><title>Node6&#45;&gt;Node15</title>
<path fill="none" stroke="#404040" d="M530.576,-1412.81C619.831,-1407.8 948.3,-1387.15 978.305,-1353 1021.11,-1304.28 977.891,-1143.03 936.094,-1020.97"/>
<polygon fill="none" stroke="#404040" points="935.976,-1020.62 930.235,-1016.26 932.057,-1009.28 937.797,-1013.65 935.976,-1020.62"/>
<text text-anchor="middle" x="1032.81" y="-1301" font-family="Helvetica,sans-Serif" font-size="10.00"> &#45;baseSchedule_</text>
<text text-anchor="middle" x="1032.81" y="-1290" font-family="Helvetica,sans-Serif" font-size="10.00">&#45;calendar_</text>
<text text-anchor="middle" x="1032.81" y="-1279" font-family="Helvetica,sans-Serif" font-size="10.00">&#45;convention_</text>
<text text-anchor="middle" x="1032.81" y="-1268" font-family="Helvetica,sans-Serif" font-size="10.00">&#45;shift_</text>
</g>
<!-- Node7 -->
<g id="node7" class="node"><title>Node7</title>
<g id="a_node7"><a xlink:title=" ">
<polygon fill="white" stroke="#666666" points="563.305,-1507 453.305,-1507 453.305,-1477 563.305,-1477 563.305,-1507"/>
<text text-anchor="middle" x="508.305" y="-1495" font-family="Helvetica,sans-Serif" font-size="10.00">{basic_string&lt; Char &gt;</text>
<text text-anchor="middle" x="508.305" y="-1484" font-family="Helvetica,sans-Serif" font-size="10.00">||}</text>
</a>
</g>
</g>
<!-- Node7&#45;&gt;Node6 -->
<g id="edge8" class="edge"><title>Node7&#45;&gt;Node6</title>
<path fill="none" stroke="#63b8ff" d="M508.305,-1466.54C508.305,-1454.45 508.305,-1440.29 508.305,-1430.04"/>
<polygon fill="none" stroke="#63b8ff" points="504.805,-1466.89 508.305,-1476.89 511.805,-1466.89 504.805,-1466.89"/>
</g>
<!-- Node8&#45;&gt;Node5 -->
<g id="edge9" class="edge"><title>Node8&#45;&gt;Node5</title>
<path fill="none" stroke="#404040" d="M418.19,-1271.99C407.472,-1257.85 389.473,-1236.02 370.305,-1221 356.846,-1210.46 345.125,-1217.65 336.305,-1203 323.697,-1182.06 320.478,-1166.63 336.305,-1148 368.382,-1110.25 409.192,-1162.81 446.305,-1130 482.212,-1098.25 501.345,-1050.34 511.397,-1004.51"/>
<polygon fill="none" stroke="#404040" points="511.427,-1004.36 508.704,-997.686 513.821,-992.605 516.543,-999.282 511.427,-1004.36"/>
<text text-anchor="middle" x="354.305" y="-1173" font-family="Helvetica,sans-Serif" font-size="10.00"> &#45;dates_</text>
</g>
<!-- Node9 -->
<g id="node9" class="node"><title>Node9</title>
<g id="a_node9"><a xlink:title=" ">
<polygon fill="white" stroke="#666666" points="209.305,-1430 141.305,-1430 141.305,-1400 209.305,-1400 209.305,-1430"/>
<text text-anchor="middle" x="175.305" y="-1418" font-family="Helvetica,sans-Serif" font-size="10.00">{vector&lt; T &gt;</text>
<text text-anchor="middle" x="175.305" y="-1407" font-family="Helvetica,sans-Serif" font-size="10.00">||}</text>
</a>
</g>
</g>
<!-- Node9&#45;&gt;Node4 -->
<g id="edge14" class="edge"><title>Node9&#45;&gt;Node4</title>
<path fill="none" stroke="orange" d="M169.36,-1390.02C144.506,-1283.54 59.5609,-848.5 267.305,-616 281.049,-600.619 402.331,-573.745 472.215,-559.318"/>
<polygon fill="orange" stroke="orange" points="165.969,-1390.89 171.693,-1399.81 172.778,-1389.27 165.969,-1390.89"/>
<text text-anchor="middle" x="205.305" y="-1173" font-family="Helvetica,sans-Serif" font-size="10.00"> &lt; ore::data::ScheduleDates &gt;</text>
</g>
<!-- Node9&#45;&gt;Node8 -->
<g id="edge11" class="edge"><title>Node9&#45;&gt;Node8</title>
<path fill="none" stroke="orange" d="M219.462,-1407.19C260.987,-1399.23 323.585,-1383.13 370.305,-1353 391.024,-1339.64 408.873,-1316.94 419.106,-1302.21"/>
<polygon fill="orange" stroke="orange" points="218.584,-1403.79 209.381,-1409.04 219.849,-1410.67 218.584,-1403.79"/>
<text text-anchor="middle" x="359.305" y="-1374" font-family="Helvetica,sans-Serif" font-size="10.00"> &lt; string &gt;</text>
</g>
<!-- Node12 -->
<g id="node12" class="node"><title>Node12</title>
<g id="a_node12"><a xlink:title=" ">
<polygon fill="white" stroke="#666666" points="406.305,-569 308.305,-569 308.305,-528 406.305,-528 406.305,-569"/>
<text text-anchor="start" x="316.305" y="-557" font-family="Helvetica,sans-Serif" font-size="10.00">{vector&lt; ore::data::</text>
<text text-anchor="middle" x="357.305" y="-546" font-family="Helvetica,sans-Serif" font-size="10.00">ScheduleRules &gt;</text>
<text text-anchor="middle" x="357.305" y="-535" font-family="Helvetica,sans-Serif" font-size="10.00">||}</text>
</a>
</g>
</g>
<!-- Node9&#45;&gt;Node12 -->
<g id="edge20" class="edge"><title>Node9&#45;&gt;Node12</title>
<path fill="none" stroke="orange" d="M151.889,-1392.88C148.251,-1389.34 144.608,-1385.63 141.305,-1382 59.9207,-1292.51 -12.3486,-1268.07 2.3053,-1148 33.4234,-893.019 -46.6619,-762.077 141.305,-587 164.909,-565.015 251.948,-555.703 308.073,-551.921"/>
<polygon fill="orange" stroke="orange" points="149.568,-1395.5 159.236,-1399.83 154.381,-1390.42 149.568,-1395.5"/>
<text text-anchor="middle" x="67.8053" y="-1173" font-family="Helvetica,sans-Serif" font-size="10.00"> &lt; ore::data::ScheduleRules &gt;</text>
</g>
<!-- Node14 -->
<g id="node14" class="node"><title>Node14</title>
<g id="a_node14"><a xlink:title=" ">
<polygon fill="white" stroke="#666666" points="865.305,-569 767.305,-569 767.305,-528 865.305,-528 865.305,-569"/>
<text text-anchor="start" x="775.305" y="-557" font-family="Helvetica,sans-Serif" font-size="10.00">{vector&lt; ore::data::</text>
<text text-anchor="middle" x="816.305" y="-546" font-family="Helvetica,sans-Serif" font-size="10.00">ScheduleDerived &gt;</text>
<text text-anchor="middle" x="816.305" y="-535" font-family="Helvetica,sans-Serif" font-size="10.00">||}</text>
</a>
</g>
</g>
<!-- Node9&#45;&gt;Node14 -->
<g id="edge26" class="edge"><title>Node9&#45;&gt;Node14</title>
<path fill="none" stroke="orange" d="M219.497,-1408.22C262.294,-1402.4 328.949,-1392.77 386.305,-1382 408.241,-1377.88 413.228,-1374.28 435.305,-1371 488.425,-1363.1 631.316,-1382.33 676.305,-1353 813.015,-1263.88 817.039,-683.846 816.484,-569.176"/>
<polygon fill="orange" stroke="orange" points="218.859,-1404.77 209.416,-1409.58 219.794,-1411.71 218.859,-1404.77"/>
<text text-anchor="middle" x="839.305" y="-1173" font-family="Helvetica,sans-Serif" font-size="10.00"> &lt; ore::data::ScheduleDerived &gt;</text>
</g>
<!-- Node10 -->
<g id="node10" class="node"><title>Node10</title>
<g id="a_node10"><a xlink:title=" ">
<polygon fill="white" stroke="#666666" points="189.805,-1507 160.805,-1507 160.805,-1477 189.805,-1477 189.805,-1507"/>
<text text-anchor="middle" x="175.305" y="-1495" font-family="Helvetica,sans-Serif" font-size="10.00">{T</text>
<text text-anchor="middle" x="175.305" y="-1484" font-family="Helvetica,sans-Serif" font-size="10.00">||}</text>
</a>
</g>
</g>
<!-- Node10&#45;&gt;Node9 -->
<g id="edge12" class="edge"><title>Node10&#45;&gt;Node9</title>
<path fill="none" stroke="#404040" d="M175.305,-1476.89C175.305,-1467.15 175.305,-1453.9 175.305,-1442.25"/>
<polygon fill="none" stroke="#404040" points="175.305,-1442.04 171.305,-1436.04 175.305,-1430.04 179.305,-1436.04 175.305,-1442.04"/>
<text text-anchor="middle" x="199.805" y="-1451" font-family="Helvetica,sans-Serif" font-size="10.00"> +elements</text>
</g>
<!-- Node11 -->
<g id="node11" class="node"><title>Node11</title>
<g id="a_node11"><a xlink:href="classbool.html" target="_top" xlink:title=" ">
<polygon fill="white" stroke="#666666" points="667.305,-1302 629.305,-1302 629.305,-1272 667.305,-1272 667.305,-1302"/>
<text text-anchor="middle" x="648.305" y="-1290" font-family="Helvetica,sans-Serif" font-size="10.00">{bool</text>
<text text-anchor="middle" x="648.305" y="-1279" font-family="Helvetica,sans-Serif" font-size="10.00">||}</text>
</a>
</g>
</g>
<!-- Node11&#45;&gt;Node3 -->
<g id="edge28" class="edge"><title>Node11&#45;&gt;Node3</title>
<path fill="none" stroke="#404040" d="M647.806,-1271.94C645.55,-1198.91 639.103,-855.97 705.305,-587 715.962,-543.705 732.493,-498.296 749.572,-457.395"/>
<polygon fill="none" stroke="#404040" points="749.605,-457.316 748.258,-450.232 754.279,-446.264 755.627,-453.348 749.605,-457.316"/>
<text text-anchor="middle" x="734.805" y="-590" font-family="Helvetica,sans-Serif" font-size="10.00"> &#45;hasDerived_</text>
</g>
<!-- Node11&#45;&gt;Node5 -->
<g id="edge13" class="edge"><title>Node11&#45;&gt;Node5</title>
<path fill="none" stroke="#404040" d="M644.591,-1271.83C640.037,-1257.14 630.931,-1234.47 615.305,-1221 596.143,-1204.48 577.311,-1222.59 561.305,-1203 536.771,-1172.97 526.983,-1083.36 523.215,-1005.23"/>
<polygon fill="none" stroke="#404040" points="523.195,-1004.79 518.932,-998.971 522.661,-992.798 526.924,-998.614 523.195,-1004.79"/>
<text text-anchor="middle" x="581.305" y="-1173" font-family="Helvetica,sans-Serif" font-size="10.00"> &#45;was1T_</text>
</g>
<!-- Node11&#45;&gt;Node13 -->
<g id="edge19" class="edge"><title>Node11&#45;&gt;Node13</title>
<path fill="none" stroke="#404040" d="M645.382,-1271.92C641.403,-1256.63 632.688,-1232.8 615.305,-1221 579.115,-1196.44 451.662,-1232.43 419.305,-1203 400.281,-1185.7 385.981,-1164.55 375.34,-1141.4"/>
<polygon fill="none" stroke="#404040" points="375.291,-1141.28 369.248,-1137.35 370.556,-1130.26 376.599,-1134.19 375.291,-1141.28"/>
<text text-anchor="start" x="419.305" y="-1195" font-family="Helvetica,sans-Serif" font-size="10.00"> &#45;adjustEndDateToPrevious</text>
<text text-anchor="middle" x="478.305" y="-1184" font-family="Helvetica,sans-Serif" font-size="10.00">MonthEnd_</text>
<text text-anchor="middle" x="478.305" y="-1173" font-family="Helvetica,sans-Serif" font-size="10.00">&#45;removeFirstDate_</text>
<text text-anchor="middle" x="478.305" y="-1162" font-family="Helvetica,sans-Serif" font-size="10.00">&#45;removeLastDate_</text>
<text text-anchor="middle" x="478.305" y="-1151" font-family="Helvetica,sans-Serif" font-size="10.00">&#45;was1T_</text>
</g>
<!-- Node11&#45;&gt;Node15 -->
<g id="edge25" class="edge"><title>Node11&#45;&gt;Node15</title>
<path fill="none" stroke="#404040" d="M648.871,-1271.66C650.344,-1245.87 655.61,-1190.38 674.305,-1148 709.257,-1068.77 771.032,-991.08 817.844,-938.782"/>
<polygon fill="none" stroke="#404040" points="818.059,-938.544 819.114,-931.411 826.105,-929.642 825.049,-936.775 818.059,-938.544"/>
<text text-anchor="middle" x="715.305" y="-1178.5" font-family="Helvetica,sans-Serif" font-size="10.00"> &#45;removeFirstDate_</text>
<text text-anchor="middle" x="715.305" y="-1167.5" font-family="Helvetica,sans-Serif" font-size="10.00">&#45;removeLastDate_</text>
</g>
<!-- Node12&#45;&gt;Node3 -->
<g id="edge15" class="edge"><title>Node12&#45;&gt;Node3</title>
<path fill="none" stroke="#404040" d="M396.439,-527.976C473.337,-489.61 645.2,-403.866 743.542,-354.802"/>
<polygon fill="none" stroke="#404040" points="743.545,-354.801 747.129,-348.543 754.283,-349.443 750.7,-355.701 743.545,-354.801"/>
<text text-anchor="middle" x="461.805" y="-502" font-family="Helvetica,sans-Serif" font-size="10.00"> &#45;rules_</text>
</g>
<!-- Node13&#45;&gt;Node12 -->
<g id="edge16" class="edge"><title>Node13&#45;&gt;Node12</title>
<path fill="none" stroke="#404040" d="M357.305,-615.931C357.305,-602.966 357.305,-591.268 357.305,-581.433"/>
<polygon fill="none" stroke="#404040" points="357.305,-581.23 353.305,-575.23 357.305,-569.23 361.305,-575.23 357.305,-581.23"/>
<text text-anchor="middle" x="381.805" y="-590" font-family="Helvetica,sans-Serif" font-size="10.00"> +elements</text>
</g>
<!-- Node14&#45;&gt;Node3 -->
<g id="edge21" class="edge"><title>Node14&#45;&gt;Node3</title>
<path fill="none" stroke="#404040" d="M816.305,-527.976C816.305,-518.773 816.305,-506.845 816.305,-493.352"/>
<polygon fill="none" stroke="#404040" points="816.305,-493.12 812.305,-487.12 816.305,-481.12 820.305,-487.12 816.305,-493.12"/>
<text text-anchor="middle" x="837.305" y="-502" font-family="Helvetica,sans-Serif" font-size="10.00"> &#45;derived_</text>
</g>
<!-- Node15&#45;&gt;Node14 -->
<g id="edge22" class="edge"><title>Node15&#45;&gt;Node14</title>
<path fill="none" stroke="#404040" d="M853.442,-736.633C842.078,-679.369 829.827,-617.635 822.624,-581.338"/>
<polygon fill="none" stroke="#404040" points="822.545,-580.942 817.454,-575.836 820.209,-569.172 825.301,-574.278 822.545,-580.942"/>
<text text-anchor="middle" x="850.805" y="-590" font-family="Helvetica,sans-Serif" font-size="10.00"> +elements</text>
</g>
<!-- Node16 -->
<g id="node16" class="node"><title>Node16</title>
<g id="a_node16"><a xlink:title=" ">
<polygon fill="white" stroke="#666666" points="1324.81,-332.5 1199.81,-332.5 1199.81,-302.5 1324.81,-302.5 1324.81,-332.5"/>
<text text-anchor="middle" x="1262.31" y="-320.5" font-family="Helvetica,sans-Serif" font-size="10.00">{BusinessDayConvention</text>
<text text-anchor="middle" x="1262.31" y="-309.5" font-family="Helvetica,sans-Serif" font-size="10.00">||}</text>
</a>
</g>
</g>
<!-- Node16&#45;&gt;Node1 -->
<g id="edge29" class="edge"><title>Node16&#45;&gt;Node1</title>
<path fill="none" stroke="#404040" d="M1262.31,-302.414C1262.31,-268.555 1262.31,-180.86 1262.31,-119.428"/>
<polygon fill="none" stroke="#404040" points="1262.31,-119.131 1258.31,-113.131 1262.31,-107.131 1266.31,-113.131 1262.31,-119.131"/>
<text text-anchor="middle" x="1276.31" y="-128" font-family="Helvetica,sans-Serif" font-size="10.00"> &#45;bdc_</text>
</g>
<!-- Node17 -->
<g id="node17" class="node"><title>Node17</title>
<g id="a_node17"><a xlink:title=" ">
<polygon fill="white" stroke="#666666" points="1373.31,-332.5 1343.31,-332.5 1343.31,-302.5 1373.31,-302.5 1373.31,-332.5"/>
<text text-anchor="middle" x="1358.31" y="-320.5" font-family="Helvetica,sans-Serif" font-size="10.00">{int</text>
<text text-anchor="middle" x="1358.31" y="-309.5" font-family="Helvetica,sans-Serif" font-size="10.00">||}</text>
</a>
</g>
</g>
<!-- Node17&#45;&gt;Node1 -->
<g id="edge30" class="edge"><title>Node17&#45;&gt;Node1</title>
<path fill="none" stroke="#404040" d="M1358.3,-302.446C1357.84,-273.547 1354.38,-205.825 1333.31,-154 1328.17,-141.38 1321.15,-128.833 1313.51,-117.115"/>
<polygon fill="none" stroke="#404040" points="1313.41,-116.974 1306.73,-114.261 1306.66,-107.051 1313.35,-109.763 1313.41,-116.974"/>
<text text-anchor="middle" x="1335.81" y="-128" font-family="Helvetica,sans-Serif" font-size="10.00"> &#45;lag_</text>
</g>
<!-- Node18 -->
<g id="node18" class="node"><title>Node18</title>
<g id="a_node18"><a xlink:title=" ">
<polygon fill="white" stroke="#666666" points="1449.31,-332.5 1391.31,-332.5 1391.31,-302.5 1449.31,-302.5 1449.31,-332.5"/>
<text text-anchor="middle" x="1420.31" y="-320.5" font-family="Helvetica,sans-Serif" font-size="10.00">{Calendar</text>
<text text-anchor="middle" x="1420.31" y="-309.5" font-family="Helvetica,sans-Serif" font-size="10.00">||}</text>
</a>
</g>
</g>
<!-- Node18&#45;&gt;Node1 -->
<g id="edge31" class="edge"><title>Node18&#45;&gt;Node1</title>
<path fill="none" stroke="#404040" d="M1419.67,-302.495C1417.79,-273.112 1410.47,-203.644 1382.31,-154 1373.1,-137.78 1360.16,-123.083 1346.16,-110.264"/>
<polygon fill="none" stroke="#404040" points="1345.87,-110.011 1338.72,-109.074 1336.83,-102.114 1343.98,-103.05 1345.87,-110.011"/>
<text text-anchor="middle" x="1392.81" y="-128" font-family="Helvetica,sans-Serif" font-size="10.00"> &#45;calendar_</text>
</g>
</g>
</svg>
