<?xml version="1.0" encoding="UTF-8" standalone="no"?>
<!DOCTYPE svg PUBLIC "-//W3C//DTD SVG 1.1//EN"
 "http://www.w3.org/Graphics/SVG/1.1/DTD/svg11.dtd">
<!-- Generated by graphviz version 2.38.0 (20140413.2041)
 -->
<!-- Title: toXML Pages: 1 -->
<!--zoomable 169 -->
<svg id="main" version="1.1" xmlns="http://www.w3.org/2000/svg" xmlns:xlink="http://www.w3.org/1999/xlink" xml:space="preserve" onload="init(evt)">
<style type="text/css"><![CDATA[
.edge:hover path { stroke: red; }
.edge:hover polygon { stroke: red; fill: red; }
]]></style>
<script type="text/javascript"><![CDATA[
var edges = document.getElementsByTagName('g');
if (edges && edges.length) {
  for (var i=0;i<edges.length;i++) {
    if (edges[i].id.substr(0,4)=='edge') {
      edges[i].setAttribute('class','edge');
    }
  }
}
]]></script>
        <defs>
                <circle id="rim" cx="0" cy="0" r="7"/>
                <circle id="rim2" cx="0" cy="0" r="3.5"/>
                <g id="zoomPlus">
                        <use xlink:href="#rim" fill="#404040">
                                <set attributeName="fill" to="#808080" begin="zoomplus.mouseover" end="zoomplus.mouseout"/>
                        </use>
                        <path d="M-4,0h8M0,-4v8" fill="none" stroke="white" stroke-width="1.5" pointer-events="none"/>
                </g>
                <g id="zoomMin">
                        <use xlink:href="#rim" fill="#404040">
                                <set attributeName="fill" to="#808080" begin="zoomminus.mouseover" end="zoomminus.mouseout"/>
                        </use>
                        <path d="M-4,0h8" fill="none" stroke="white" stroke-width="1.5" pointer-events="none"/>
                </g>
                <g id="dirArrow">
                        <path fill="none" stroke="white" stroke-width="1.5" d="M0,-3.0v7 M-2.5,-0.5L0,-3.0L2.5,-0.5"/>
                </g>
               <g id="resetDef">
                       <use xlink:href="#rim2" fill="#404040">
                               <set attributeName="fill" to="#808080" begin="reset.mouseover" end="reset.mouseout"/>
                       </use>
               </g>
        </defs>

<script type="text/javascript">
var viewWidth = 580;
var viewHeight = 169;
var sectionId = 'dynsection-3';
</script>
<script xlink:href="svgpan.js"/>
<svg id="graph" class="graph">
<g id="viewport">
<title>toXML</title>
<!-- Node1 -->
<g id="node1" class="node"><title>Node1</title>
<g id="a_node1"><a xlink:title=" ">
<polygon fill="#999999" stroke="#666666" points="44,-72.1769 0,-72.1769 0,-53.1769 44,-53.1769 44,-72.1769"/>
<text text-anchor="middle" x="22" y="-60.1769" font-family="Helvetica,sans-Serif" font-size="10.00">toXML</text>
</a>
</g>
</g>
<!-- Node2 -->
<g id="node2" class="node"><title>Node2</title>
<g id="a_node2"><a xlink:href="classore_1_1data_1_1_x_m_l_utils.html#a60e5b2e453d4610d7ce2ff455d564404" target="_top" xlink:title=" ">
<polygon fill="white" stroke="#666666" points="252,-142.677 80,-142.677 80,-112.677 252,-112.677 252,-142.677"/>
<text text-anchor="start" x="88" y="-130.677" font-family="Helvetica,sans-Serif" font-size="10.00">ore::data::XMLUtils</text>
<text text-anchor="middle" x="166" y="-119.677" font-family="Helvetica,sans-Serif" font-size="10.00">::addChildrenWithOptionalAttributes</text>
</a>
</g>
</g>
<!-- Node1&#45;&gt;Node2 -->
<g id="edge1" class="edge"><title>Node1&#45;&gt;Node2</title>
<path fill="none" stroke="#63b8ff" d="M36.0782,-72.1863C47.3142,-80.045 64.1614,-91.1029 80,-98.6769 87.8696,-102.44 96.359,-105.943 104.822,-109.121"/>
<polygon fill="#63b8ff" stroke="#63b8ff" points="103.736,-112.45 114.33,-112.566 106.121,-105.869 103.736,-112.45"/>
</g>
<!-- Node3 -->
<g id="node3" class="node"><title>Node3</title>
<g id="a_node3"><a xlink:href="classore_1_1data_1_1_x_m_l_document.html#a8717c517803f0df2e693e3cadefeafd7" target="_top" xlink:title="util functions that wrap rapidxml">
<polygon fill="white" stroke="#666666" points="412,-89.6769 288,-89.6769 288,-59.6769 412,-59.6769 412,-89.6769"/>
<text text-anchor="start" x="296" y="-77.6769" font-family="Helvetica,sans-Serif" font-size="10.00">ore::data::XMLDocument</text>
<text text-anchor="middle" x="350" y="-66.6769" font-family="Helvetica,sans-Serif" font-size="10.00">::allocNode</text>
</a>
</g>
</g>
<!-- Node1&#45;&gt;Node3 -->
<g id="edge3" class="edge"><title>Node1&#45;&gt;Node3</title>
<path fill="none" stroke="#63b8ff" d="M44.1095,-63.8844C54.8526,-64.4744 68.1196,-65.1655 80,-65.6769 146.993,-68.5603 223.404,-71.039 277.625,-72.6608"/>
<polygon fill="#63b8ff" stroke="#63b8ff" points="277.724,-76.1652 287.824,-72.9636 277.932,-69.1683 277.724,-76.1652"/>
</g>
<!-- Node5 -->
<g id="node5" class="node"><title>Node5</title>
<g id="a_node5"><a xlink:href="classore_1_1data_1_1_x_m_l_utils.html#ae646b9cdf949a88f35c36c18bf90b370" target="_top" xlink:title=" ">
<polygon fill="white" stroke="#666666" points="399.5,-32.6769 300.5,-32.6769 300.5,-2.67687 399.5,-2.67687 399.5,-32.6769"/>
<text text-anchor="start" x="308.5" y="-20.6769" font-family="Helvetica,sans-Serif" font-size="10.00">ore::data::XMLUtils</text>
<text text-anchor="middle" x="350" y="-9.67687" font-family="Helvetica,sans-Serif" font-size="10.00">::appendNode</text>
</a>
</g>
</g>
<!-- Node1&#45;&gt;Node5 -->
<g id="edge5" class="edge"><title>Node1&#45;&gt;Node5</title>
<path fill="none" stroke="#63b8ff" d="M31.4821,-52.843C41.6953,-41.8326 59.99,-24.6236 80,-17.6769 149.153,6.33046 234.469,0.939285 290.23,-6.85014"/>
<polygon fill="#63b8ff" stroke="#63b8ff" points="289.886,-10.3369 300.288,-8.32595 290.902,-3.41111 289.886,-10.3369"/>
</g>
<!-- Node6 -->
<g id="node6" class="node"><title>Node6</title>
<g id="a_node6"><a xlink:href="classore_1_1data_1_1_schedule_data.html#a7efefb9270d6c4933e4c96de0771f17a" target="_top" xlink:title=" ">
<polygon fill="white" stroke="#666666" points="227,-56.6769 105,-56.6769 105,-26.6769 227,-26.6769 227,-56.6769"/>
<text text-anchor="start" x="113" y="-44.6769" font-family="Helvetica,sans-Serif" font-size="10.00">ore::data::ScheduleData</text>
<text text-anchor="middle" x="166" y="-33.6769" font-family="Helvetica,sans-Serif" font-size="10.00">::toXML</text>
</a>
</g>
</g>
<!-- Node1&#45;&gt;Node6 -->
<g id="edge6" class="edge"><title>Node1&#45;&gt;Node6</title>
<path fill="none" stroke="#63b8ff" d="M44.2588,-59.533C57.9001,-57.5156 76.4643,-54.7702 94.9433,-52.0374"/>
<polygon fill="#63b8ff" stroke="#63b8ff" points="95.4889,-55.4948 104.869,-50.5694 94.4648,-48.5701 95.4889,-55.4948"/>
</g>
<!-- Node2&#45;&gt;Node2 -->
<g id="edge2" class="edge"><title>Node2&#45;&gt;Node2</title>
<path fill="none" stroke="#63b8ff" d="M140.688,-142.952C135.063,-152.083 143.5,-160.677 166,-160.677 179.359,-160.677 187.761,-157.647 191.205,-153.274"/>
<polygon fill="#63b8ff" stroke="#63b8ff" points="194.708,-152.988 191.313,-142.952 187.709,-152.915 194.708,-152.988"/>
</g>
<!-- Node4 -->
<g id="node4" class="node"><title>Node4</title>
<g id="a_node4"><a xlink:href="classore_1_1data_1_1_x_m_l_document.html#ae3474059e483990f3afea260096e5c90" target="_top" xlink:title=" ">
<polygon fill="white" stroke="#666666" points="572,-89.6769 448,-89.6769 448,-59.6769 572,-59.6769 572,-89.6769"/>
<text text-anchor="start" x="456" y="-77.6769" font-family="Helvetica,sans-Serif" font-size="10.00">ore::data::XMLDocument</text>
<text text-anchor="middle" x="510" y="-66.6769" font-family="Helvetica,sans-Serif" font-size="10.00">::allocString</text>
</a>
</g>
</g>
<!-- Node3&#45;&gt;Node4 -->
<g id="edge4" class="edge"><title>Node3&#45;&gt;Node4</title>
<path fill="none" stroke="#63b8ff" d="M412.087,-74.6769C420.513,-74.6769 429.226,-74.6769 437.815,-74.6769"/>
<polygon fill="#63b8ff" stroke="#63b8ff" points="437.815,-78.177 447.815,-74.6769 437.815,-71.177 437.815,-78.177"/>
</g>
<!-- Node6&#45;&gt;Node3 -->
<g id="edge7" class="edge"><title>Node6&#45;&gt;Node3</title>
<path fill="none" stroke="#63b8ff" d="M227.098,-52.5738C243.218,-55.4966 260.806,-58.6856 277.479,-61.7087"/>
<polygon fill="#63b8ff" stroke="#63b8ff" points="277.256,-65.2253 287.72,-63.5657 278.505,-58.3376 277.256,-65.2253"/>
</g>
<!-- Node6&#45;&gt;Node5 -->
<g id="edge8" class="edge"><title>Node6&#45;&gt;Node5</title>
<path fill="none" stroke="#63b8ff" d="M227.098,-33.7519C247.47,-31.0654 270.187,-28.0697 290.438,-25.3993"/>
<polygon fill="#63b8ff" stroke="#63b8ff" points="291.012,-28.8541 300.468,-24.0767 290.097,-21.9141 291.012,-28.8541"/>
</g>
</g>
</svg>
        <g id="navigator" transform="translate(0 0)" fill="#404254">
                <rect fill="#f2f5e9" fill-opacity="0.5" stroke="#606060" stroke-width=".5" x="0" y="0" width="60" height="60"/>
                <use id="zoomplus" xlink:href="#zoomPlus" x="17" y="9" onmousedown="handleZoom(evt,'in')"/>
                <use id="zoomminus" xlink:href="#zoomMin" x="42" y="9" onmousedown="handleZoom(evt,'out')"/>
                <use id="reset" xlink:href="#resetDef" x="30" y="36" onmousedown="handleReset()"/>
                <g id="arrowUp" xlink:href="#dirArrow" transform="translate(30 24)" onmousedown="handlePan(0,-1)">
                  <use xlink:href="#rim" fill="#404040">
                        <set attributeName="fill" to="#808080" begin="arrowUp.mouseover" end="arrowUp.mouseout"/>
                  </use>
                  <path fill="none" stroke="white" stroke-width="1.5" d="M0,-3.0v7 M-2.5,-0.5L0,-3.0L2.5,-0.5"/>
                </g>
                <g id="arrowRight" xlink:href="#dirArrow" transform="rotate(90) translate(36 -43)" onmousedown="handlePan(1,0)">
                  <use xlink:href="#rim" fill="#404040">
                        <set attributeName="fill" to="#808080" begin="arrowRight.mouseover" end="arrowRight.mouseout"/>
                  </use>
                  <path fill="none" stroke="white" stroke-width="1.5" d="M0,-3.0v7 M-2.5,-0.5L0,-3.0L2.5,-0.5"/>
                </g>
                <g id="arrowDown" xlink:href="#dirArrow" transform="rotate(180) translate(-30 -48)" onmousedown="handlePan(0,1)">
                  <use xlink:href="#rim" fill="#404040">
                        <set attributeName="fill" to="#808080" begin="arrowDown.mouseover" end="arrowDown.mouseout"/>
                  </use>
                  <path fill="none" stroke="white" stroke-width="1.5" d="M0,-3.0v7 M-2.5,-0.5L0,-3.0L2.5,-0.5"/>
                </g>
                <g id="arrowLeft" xlink:href="#dirArrow" transform="rotate(270) translate(-36 17)" onmousedown="handlePan(-1,0)">
                  <use xlink:href="#rim" fill="#404040">
                        <set attributeName="fill" to="#808080" begin="arrowLeft.mouseover" end="arrowLeft.mouseout"/>
                  </use>
                  <path fill="none" stroke="white" stroke-width="1.5" d="M0,-3.0v7 M-2.5,-0.5L0,-3.0L2.5,-0.5"/>
                </g>
        </g>
        <svg viewBox="0 0 15 15" width="100%" height="30px" preserveAspectRatio="xMaxYMin meet">
         <g id="arrow_out" transform="scale(0.3 0.3)">
          <a xlink:href="classore_1_1data_1_1_convertible_bond_data_1_1_conversion_data_1_1_conversion_reset_data_a98c77e5a9e18de0cd031a56f97459774_cgraph_org.svg" target="_base">
           <rect id="button" ry="5" rx="5" y="6" x="6" height="38" width="38"
                fill="#f2f5e9" fill-opacity="0.5" stroke="#606060" stroke-width="1.0"/>
           <path id="arrow"
             d="M 11.500037,31.436501 C 11.940474,20.09759 22.043105,11.32322 32.158766,21.979434 L 37.068811,17.246167 C 37.068811,17.246167 37.088388,32 37.088388,32 L 22.160133,31.978069 C 22.160133,31.978069 26.997745,27.140456 26.997745,27.140456 C 18.528582,18.264221 13.291696,25.230495 11.500037,31.436501 z"
             style="fill:#404040;"/>
          </a>
         </g>
        </svg>
</svg>
