<?xml version="1.0" encoding="UTF-8" standalone="no"?>
<!DOCTYPE svg PUBLIC "-//W3C//DTD SVG 1.1//EN"
 "http://www.w3.org/Graphics/SVG/1.1/DTD/svg11.dtd">
<!-- Generated by graphviz version 2.38.0 (20140413.2041)
 -->
<!-- Title: script Pages: 1 -->
<svg width="375pt" height="81pt"
 viewBox="0.00 0.00 375.00 81.00" xmlns="http://www.w3.org/2000/svg" xmlns:xlink="http://www.w3.org/1999/xlink">
<g id="graph0" class="graph" transform="scale(1 1) rotate(0) translate(4 77)">
<title>script</title>
<!-- Node1 -->
<g id="node1" class="node"><title>Node1</title>
<g id="a_node1"><a xlink:title=" ">
<polygon fill="#999999" stroke="#666666" points="367,-45.5 326,-45.5 326,-26.5 367,-26.5 367,-45.5"/>
<text text-anchor="middle" x="346.5" y="-33.5" font-family="Helvetica,sans-Serif" font-size="10.00">script</text>
</a>
</g>
</g>
<!-- Node2 -->
<g id="node2" class="node"><title>Node2</title>
<g id="a_node2"><a xlink:href="classore_1_1data_1_1_best_entry_option.html#af7b69d5b18d278257927e32b10a23ee6" target="_top" xlink:title=" ">
<polygon fill="white" stroke="#666666" points="290,-73 157,-73 157,-43 290,-43 290,-73"/>
<text text-anchor="start" x="165" y="-61" font-family="Helvetica,sans-Serif" font-size="10.00">ore::data::BestEntryOption</text>
<text text-anchor="middle" x="223.5" y="-50" font-family="Helvetica,sans-Serif" font-size="10.00">::build</text>
</a>
</g>
</g>
<!-- Node1&#45;&gt;Node2 -->
<g id="edge1" class="edge"><title>Node1&#45;&gt;Node2</title>
<path fill="none" stroke="#63b8ff" d="M315.699,-41.4184C307.813,-42.8521 298.981,-44.4579 290.001,-46.0906"/>
<polygon fill="#63b8ff" stroke="#63b8ff" points="316.577,-44.8161 325.79,-39.5836 315.325,-37.929 316.577,-44.8161"/>
</g>
<!-- Node3 -->
<g id="node3" class="node"><title>Node3</title>
<g id="a_node3"><a xlink:href="namespaceore_1_1data.html#abf369b185db13d262340194bad6c938c" target="_top" xlink:title=" ">
<polygon fill="white" stroke="#666666" points="273.5,-24.5 173.5,-24.5 173.5,-5.5 273.5,-5.5 273.5,-24.5"/>
<text text-anchor="middle" x="223.5" y="-12.5" font-family="Helvetica,sans-Serif" font-size="10.00">ore::data::getScript</text>
</a>
</g>
</g>
<!-- Node1&#45;&gt;Node3 -->
<g id="edge2" class="edge"><title>Node1&#45;&gt;Node3</title>
<path fill="none" stroke="#63b8ff" d="M315.793,-30.8442C303.115,-28.644 287.979,-26.017 273.711,-23.5407"/>
<polygon fill="#63b8ff" stroke="#63b8ff" points="315.339,-34.3176 325.79,-32.5792 316.536,-27.4207 315.339,-34.3176"/>
</g>
<!-- Node4 -->
<g id="node4" class="node"><title>Node4</title>
<g id="a_node4"><a xlink:href="classore_1_1data_1_1_scripted_trade_engine_builder.html#afa7bc32050325672e45000b32d62ec0b" target="_top" xlink:title=" ">
<polygon fill="white" stroke="#666666" points="121,-30 0,-30 0,-0 121,-0 121,-30"/>
<text text-anchor="start" x="8" y="-18" font-family="Helvetica,sans-Serif" font-size="10.00">ore::data::ScriptedTrade</text>
<text text-anchor="middle" x="60.5" y="-7" font-family="Helvetica,sans-Serif" font-size="10.00">EngineBuilder::engine</text>
</a>
</g>
</g>
<!-- Node3&#45;&gt;Node4 -->
<g id="edge3" class="edge"><title>Node3&#45;&gt;Node4</title>
<path fill="none" stroke="#63b8ff" d="M163.062,-15C149.387,-15 134.841,-15 121.157,-15"/>
<polygon fill="#63b8ff" stroke="#63b8ff" points="163.32,-18.5001 173.32,-15 163.32,-11.5001 163.32,-18.5001"/>
</g>
</g>
</svg>
