<?xml version="1.0" encoding="UTF-8" standalone="no"?>
<!DOCTYPE svg PUBLIC "-//W3C//DTD SVG 1.1//EN"
 "http://www.w3.org/Graphics/SVG/1.1/DTD/svg11.dtd">
<!-- Generated by graphviz version 2.38.0 (20140413.2041)
 -->
<!-- Title: InfDkBuilder Pages: 1 -->
<svg width="768pt" height="441pt"
 viewBox="0.00 0.00 768.00 441.00" xmlns="http://www.w3.org/2000/svg" xmlns:xlink="http://www.w3.org/1999/xlink">
<g id="graph0" class="graph" transform="scale(1 1) rotate(0) translate(4 437)">
<title>InfDkBuilder</title>
<!-- Node1 -->
<g id="node1" class="node"><title>Node1</title>
<g id="a_node1"><a xlink:title=" ">
<polygon fill="#999999" stroke="#666666" points="68,-216.5 0,-216.5 0,-197.5 68,-197.5 68,-216.5"/>
<text text-anchor="middle" x="34" y="-204.5" font-family="Helvetica,sans-Serif" font-size="10.00">InfDkBuilder</text>
</a>
</g>
</g>
<!-- Node2 -->
<g id="node2" class="node"><title>Node2</title>
<g id="a_node2"><a xlink:href="classore_1_1data_1_1_inf_dk_builder.html#a9350bfc39e7d68e89b61e9a4d9b70bd1" target="_top" xlink:title=" ">
<polygon fill="white" stroke="#666666" points="231.5,-355.5 124.5,-355.5 124.5,-336.5 231.5,-336.5 231.5,-355.5"/>
<text text-anchor="middle" x="178" y="-343.5" font-family="Helvetica,sans-Serif" font-size="10.00">buildCapFloorBasket</text>
</a>
</g>
</g>
<!-- Node1&#45;&gt;Node2 -->
<g id="edge1" class="edge"><title>Node1&#45;&gt;Node2</title>
<path fill="none" stroke="#63b8ff" d="M37.7637,-216.835C44.758,-239.862 65.4074,-297.552 104,-327 107.397,-329.592 111.113,-331.832 115.013,-333.767"/>
<polygon fill="#63b8ff" stroke="#63b8ff" points="113.808,-337.058 124.38,-337.753 116.549,-330.617 113.808,-337.058"/>
</g>
<!-- Node4 -->
<g id="node4" class="node"><title>Node4</title>
<g id="a_node4"><a xlink:href="classore_1_1data_1_1_calibration_basket.html#aadb5e6dbce35a5826e9760541a5447f8" target="_top" xlink:title=" ">
<polygon fill="white" stroke="#666666" points="426.5,-433 289.5,-433 289.5,-403 426.5,-403 426.5,-433"/>
<text text-anchor="start" x="297.5" y="-421" font-family="Helvetica,sans-Serif" font-size="10.00">ore::data::CalibrationBasket</text>
<text text-anchor="middle" x="358" y="-410" font-family="Helvetica,sans-Serif" font-size="10.00">::instruments</text>
</a>
</g>
</g>
<!-- Node1&#45;&gt;Node4 -->
<g id="edge13" class="edge"><title>Node1&#45;&gt;Node4</title>
<path fill="none" stroke="#63b8ff" d="M36.1592,-216.629C40.0436,-244.427 55.2335,-325.34 104,-365 152.981,-404.835 224.533,-416.893 279.057,-419.674"/>
<polygon fill="#63b8ff" stroke="#63b8ff" points="279.24,-423.185 289.376,-420.101 279.529,-416.191 279.24,-423.185"/>
</g>
<!-- Node11 -->
<g id="node11" class="node"><title>Node11</title>
<g id="a_node11"><a xlink:href="classore_1_1data_1_1_model_parameter.html#aacf0933dd9d459ffbedbac265f3269b5" target="_top" xlink:title=" ">
<polygon fill="white" stroke="#666666" points="244,-318 112,-318 112,-288 244,-288 244,-318"/>
<text text-anchor="start" x="120" y="-306" font-family="Helvetica,sans-Serif" font-size="10.00">ore::data::ModelParameter</text>
<text text-anchor="middle" x="178" y="-295" font-family="Helvetica,sans-Serif" font-size="10.00">::calibrate</text>
</a>
</g>
</g>
<!-- Node1&#45;&gt;Node11 -->
<g id="edge11" class="edge"><title>Node1&#45;&gt;Node11</title>
<path fill="none" stroke="#63b8ff" d="M41.9076,-216.853C53.1928,-232.254 77.0459,-262.02 104,-279 106.624,-280.653 109.374,-282.204 112.205,-283.658"/>
<polygon fill="#63b8ff" stroke="#63b8ff" points="110.925,-286.923 121.467,-287.975 113.882,-280.578 110.925,-286.923"/>
</g>
<!-- Node12 -->
<g id="node12" class="node"><title>Node12</title>
<g id="a_node12"><a xlink:href="classore_1_1data_1_1_calibration_basket.html#a644718bb2fb240de962dc3c9a1fdf0dc" target="_top" xlink:title="Returns true if the calibration basket is empty.">
<polygon fill="white" stroke="#666666" points="246.5,-270 109.5,-270 109.5,-240 246.5,-240 246.5,-270"/>
<text text-anchor="start" x="117.5" y="-258" font-family="Helvetica,sans-Serif" font-size="10.00">ore::data::CalibrationBasket</text>
<text text-anchor="middle" x="178" y="-247" font-family="Helvetica,sans-Serif" font-size="10.00">::empty</text>
</a>
</g>
</g>
<!-- Node1&#45;&gt;Node12 -->
<g id="edge12" class="edge"><title>Node1&#45;&gt;Node12</title>
<path fill="none" stroke="#63b8ff" d="M62.1637,-216.568C74.8562,-221.008 90.1835,-226.326 104,-231 109.505,-232.862 115.251,-234.786 120.995,-236.696"/>
<polygon fill="#63b8ff" stroke="#63b8ff" points="120.026,-240.061 130.619,-239.884 122.227,-233.417 120.026,-240.061"/>
</g>
<!-- Node13 -->
<g id="node13" class="node"><title>Node13</title>
<g id="a_node13"><a xlink:href="classore_1_1data_1_1_reversion_parameter.html#a8c5dd13b5a108105c52d850a097f93c5" target="_top" xlink:title=" ">
<polygon fill="white" stroke="#666666" points="252,-222 104,-222 104,-192 252,-192 252,-222"/>
<text text-anchor="start" x="112" y="-210" font-family="Helvetica,sans-Serif" font-size="10.00">ore::data::ReversionParameter</text>
<text text-anchor="middle" x="178" y="-199" font-family="Helvetica,sans-Serif" font-size="10.00">::reversionType</text>
</a>
</g>
</g>
<!-- Node1&#45;&gt;Node13 -->
<g id="edge14" class="edge"><title>Node1&#45;&gt;Node13</title>
<path fill="none" stroke="#63b8ff" d="M68.2927,-207C76.095,-207 84.7531,-207 93.6793,-207"/>
<polygon fill="#63b8ff" stroke="#63b8ff" points="93.8398,-210.5 103.84,-207 93.8397,-203.5 93.8398,-210.5"/>
</g>
<!-- Node14 -->
<g id="node14" class="node"><title>Node14</title>
<g id="a_node14"><a xlink:href="classore_1_1data_1_1_model_parameter.html#a23131baceb8e12f265f04d3d772fa628" target="_top" xlink:title=" ">
<polygon fill="white" stroke="#666666" points="244,-174 112,-174 112,-144 244,-144 244,-174"/>
<text text-anchor="start" x="120" y="-162" font-family="Helvetica,sans-Serif" font-size="10.00">ore::data::ModelParameter</text>
<text text-anchor="middle" x="178" y="-151" font-family="Helvetica,sans-Serif" font-size="10.00">::times</text>
</a>
</g>
</g>
<!-- Node1&#45;&gt;Node14 -->
<g id="edge15" class="edge"><title>Node1&#45;&gt;Node14</title>
<path fill="none" stroke="#63b8ff" d="M62.1637,-197.432C74.8562,-192.992 90.1835,-187.674 104,-183 109.505,-181.138 115.251,-179.214 120.995,-177.304"/>
<polygon fill="#63b8ff" stroke="#63b8ff" points="122.227,-180.583 130.619,-174.116 120.026,-173.939 122.227,-180.583"/>
</g>
<!-- Node15 -->
<g id="node15" class="node"><title>Node15</title>
<g id="a_node15"><a xlink:href="classore_1_1data_1_1_model_parameter.html#a8df044e9f3b4bd3e3e5c855a7f84adbb" target="_top" xlink:title=" ">
<polygon fill="white" stroke="#666666" points="244,-126 112,-126 112,-96 244,-96 244,-126"/>
<text text-anchor="start" x="120" y="-114" font-family="Helvetica,sans-Serif" font-size="10.00">ore::data::ModelParameter</text>
<text text-anchor="middle" x="178" y="-103" font-family="Helvetica,sans-Serif" font-size="10.00">::type</text>
</a>
</g>
</g>
<!-- Node1&#45;&gt;Node15 -->
<g id="edge16" class="edge"><title>Node1&#45;&gt;Node15</title>
<path fill="none" stroke="#63b8ff" d="M41.9076,-197.147C53.1928,-181.746 77.0459,-151.98 104,-135 106.624,-133.347 109.374,-131.796 112.205,-130.342"/>
<polygon fill="#63b8ff" stroke="#63b8ff" points="113.882,-133.422 121.467,-126.025 110.925,-127.077 113.882,-133.422"/>
</g>
<!-- Node16 -->
<g id="node16" class="node"><title>Node16</title>
<g id="a_node16"><a xlink:href="classore_1_1data_1_1_model_parameter.html#adaf95a566e294a0739abae733b5475ee" target="_top" xlink:title=" ">
<polygon fill="white" stroke="#666666" points="244,-78 112,-78 112,-48 244,-48 244,-78"/>
<text text-anchor="start" x="120" y="-66" font-family="Helvetica,sans-Serif" font-size="10.00">ore::data::ModelParameter</text>
<text text-anchor="middle" x="178" y="-55" font-family="Helvetica,sans-Serif" font-size="10.00">::values</text>
</a>
</g>
</g>
<!-- Node1&#45;&gt;Node16 -->
<g id="edge17" class="edge"><title>Node1&#45;&gt;Node16</title>
<path fill="none" stroke="#63b8ff" d="M37.8901,-197.326C45.1574,-174.644 66.3542,-117.649 104,-87 105.591,-85.705 107.254,-84.4789 108.974,-83.3183"/>
<polygon fill="#63b8ff" stroke="#63b8ff" points="111.129,-86.1131 117.993,-78.043 107.594,-80.0708 111.129,-86.1131"/>
</g>
<!-- Node17 -->
<g id="node17" class="node"><title>Node17</title>
<g id="a_node17"><a xlink:href="classore_1_1data_1_1_volatility_parameter.html#a24ed2d5eca36f983090654744009e773" target="_top" xlink:title=" ">
<polygon fill="white" stroke="#666666" points="249.5,-30 106.5,-30 106.5,-0 249.5,-0 249.5,-30"/>
<text text-anchor="start" x="114.5" y="-18" font-family="Helvetica,sans-Serif" font-size="10.00">ore::data::VolatilityParameter</text>
<text text-anchor="middle" x="178" y="-7" font-family="Helvetica,sans-Serif" font-size="10.00">::volatilityType</text>
</a>
</g>
</g>
<!-- Node1&#45;&gt;Node17 -->
<g id="edge18" class="edge"><title>Node1&#45;&gt;Node17</title>
<path fill="none" stroke="#63b8ff" d="M36.1314,-197.453C40.0018,-169.061 55.2917,-84.3184 104,-39 105.276,-37.8129 106.612,-36.6845 107.998,-35.6119"/>
<polygon fill="#63b8ff" stroke="#63b8ff" points="110,-38.4843 116.422,-30.0581 106.147,-32.64 110,-38.4843"/>
</g>
<!-- Node3 -->
<g id="node3" class="node"><title>Node3</title>
<g id="a_node3"><a xlink:href="classore_1_1data_1_1_date_grid.html#aca8cf8d394b2ce6e3662fe8a9db4a466" target="_top" xlink:title=" ">
<polygon fill="white" stroke="#666666" points="407.5,-385 308.5,-385 308.5,-355 407.5,-355 407.5,-385"/>
<text text-anchor="start" x="316.5" y="-373" font-family="Helvetica,sans-Serif" font-size="10.00">ore::data::DateGrid</text>
<text text-anchor="middle" x="358" y="-362" font-family="Helvetica,sans-Serif" font-size="10.00">::dates</text>
</a>
</g>
</g>
<!-- Node2&#45;&gt;Node3 -->
<g id="edge2" class="edge"><title>Node2&#45;&gt;Node3</title>
<path fill="none" stroke="#63b8ff" d="M231.924,-353.136C252.803,-355.951 276.87,-359.196 298.282,-362.083"/>
<polygon fill="#63b8ff" stroke="#63b8ff" points="297.854,-365.557 308.232,-363.425 298.789,-358.62 297.854,-365.557"/>
</g>
<!-- Node2&#45;&gt;Node4 -->
<g id="edge3" class="edge"><title>Node2&#45;&gt;Node4</title>
<path fill="none" stroke="#63b8ff" d="M199.286,-355.517C221.022,-365.576 256.636,-381.662 288,-394 292.675,-395.839 297.555,-397.683 302.465,-399.488"/>
<polygon fill="#63b8ff" stroke="#63b8ff" points="301.303,-402.789 311.898,-402.896 303.682,-396.206 301.303,-402.789"/>
</g>
<!-- Node5 -->
<g id="node5" class="node"><title>Node5</title>
<g id="a_node5"><a target="_parent" xlink:href="../qle/namespace_quant_ext_1_1_zero_inflation.html#ad1e7470dcdc1728ec6bca3266b35c85a" xlink:title=" ">
<polygon fill="white" stroke="#666666" points="428,-337 288,-337 288,-307 428,-307 428,-337"/>
<text text-anchor="start" x="296" y="-325" font-family="Helvetica,sans-Serif" font-size="10.00">QuantExt::ZeroInflation</text>
<text text-anchor="middle" x="358" y="-314" font-family="Helvetica,sans-Serif" font-size="10.00">::isCPIVolSurfaceLogNormal</text>
</a>
</g>
</g>
<!-- Node2&#45;&gt;Node5 -->
<g id="edge4" class="edge"><title>Node2&#45;&gt;Node5</title>
<path fill="none" stroke="#63b8ff" d="M231.924,-338.864C246.299,-336.926 262.186,-334.784 277.677,-332.695"/>
<polygon fill="#63b8ff" stroke="#63b8ff" points="278.337,-336.138 287.779,-331.333 277.401,-329.201 278.337,-336.138"/>
</g>
<!-- Node6 -->
<g id="node6" class="node"><title>Node6</title>
<g id="a_node6"><a xlink:href="classore_1_1data_1_1_inf_dk_builder.html#aeedff9fd76d64dab5b5f6576fcc8af3c" target="_top" xlink:title=" ">
<polygon fill="white" stroke="#666666" points="582,-288.5 484,-288.5 484,-269.5 582,-269.5 582,-288.5"/>
<text text-anchor="middle" x="533" y="-276.5" font-family="Helvetica,sans-Serif" font-size="10.00">optionMaturityDate</text>
</a>
</g>
</g>
<!-- Node2&#45;&gt;Node6 -->
<g id="edge5" class="edge"><title>Node2&#45;&gt;Node6</title>
<path fill="none" stroke="#63b8ff" d="M227.574,-336.445C235.948,-333.936 244.397,-330.828 252,-327 270.351,-317.762 268.904,-305.581 288,-298 348.037,-274.165 422.817,-271.939 473.657,-274.062"/>
<polygon fill="#63b8ff" stroke="#63b8ff" points="473.653,-277.566 483.811,-274.557 473.993,-270.574 473.653,-277.566"/>
</g>
<!-- Node8 -->
<g id="node8" class="node"><title>Node8</title>
<g id="a_node8"><a xlink:href="classore_1_1data_1_1_inf_dk_builder.html#add6d324ecc273d8544bef59480ed4216" target="_top" xlink:title=" ">
<polygon fill="white" stroke="#666666" points="404.5,-250.5 311.5,-250.5 311.5,-231.5 404.5,-231.5 404.5,-250.5"/>
<text text-anchor="middle" x="358" y="-238.5" font-family="Helvetica,sans-Serif" font-size="10.00">optionStrikeValue</text>
</a>
</g>
</g>
<!-- Node2&#45;&gt;Node8 -->
<g id="edge7" class="edge"><title>Node2&#45;&gt;Node8</title>
<path fill="none" stroke="#63b8ff" d="M231.602,-337.73C238.897,-335.083 245.952,-331.595 252,-327 277.373,-307.725 263.42,-285.276 288,-265 293.008,-260.869 298.772,-257.43 304.79,-254.572"/>
<polygon fill="#63b8ff" stroke="#63b8ff" points="306.518,-257.643 314.382,-250.543 303.807,-251.189 306.518,-257.643"/>
</g>
<!-- Node7 -->
<g id="node7" class="node"><title>Node7</title>
<g id="a_node7"><a xlink:href="namespaceore_1_1data.html#aa9698dcef891a7e39357dba10d3b1276" target="_top" xlink:title=" ">
<polygon fill="white" stroke="#666666" points="760,-288.5 638,-288.5 638,-269.5 760,-269.5 760,-288.5"/>
<text text-anchor="middle" x="699" y="-276.5" font-family="Helvetica,sans-Serif" font-size="10.00">ore::data::optionMaturity</text>
</a>
</g>
</g>
<!-- Node6&#45;&gt;Node7 -->
<g id="edge6" class="edge"><title>Node6&#45;&gt;Node7</title>
<path fill="none" stroke="#63b8ff" d="M582.318,-279C596.444,-279 612.183,-279 627.39,-279"/>
<polygon fill="#63b8ff" stroke="#63b8ff" points="627.806,-282.5 637.806,-279 627.806,-275.5 627.806,-282.5"/>
</g>
<!-- Node8&#45;&gt;Node6 -->
<g id="edge10" class="edge"><title>Node8&#45;&gt;Node6</title>
<path fill="none" stroke="#63b8ff" d="M402.655,-250.589C425.793,-255.671 454.402,-261.955 478.827,-267.32"/>
<polygon fill="#63b8ff" stroke="#63b8ff" points="478.141,-270.753 488.659,-269.48 479.642,-263.916 478.141,-270.753"/>
</g>
<!-- Node9 -->
<g id="node9" class="node"><title>Node9</title>
<g id="a_node9"><a xlink:href="namespaceore_1_1data.html#af404ba79b74e89755049cec81e49dd61" target="_top" xlink:title="Return a cpi cap/floor strike value, the input strike can be of type absolute or atm forward.">
<polygon fill="white" stroke="#666666" points="602,-251 464,-251 464,-221 602,-221 602,-251"/>
<text text-anchor="start" x="472" y="-239" font-family="Helvetica,sans-Serif" font-size="10.00">ore::data::cpiCapFloorStrike</text>
<text text-anchor="middle" x="533" y="-228" font-family="Helvetica,sans-Serif" font-size="10.00">Value</text>
</a>
</g>
</g>
<!-- Node8&#45;&gt;Node9 -->
<g id="edge8" class="edge"><title>Node8&#45;&gt;Node9</title>
<path fill="none" stroke="#63b8ff" d="M404.907,-239.673C419.828,-239.242 436.834,-238.75 453.445,-238.27"/>
<polygon fill="#63b8ff" stroke="#63b8ff" points="453.82,-241.761 463.715,-237.974 453.618,-234.764 453.82,-241.761"/>
</g>
<!-- Node10 -->
<g id="node10" class="node"><title>Node10</title>
<g id="a_node10"><a target="_parent" xlink:href="../qle/namespace_quant_ext.html#a9af2048ec25ea1962eda9a08b70acbc3" xlink:title=" ">
<polygon fill="white" stroke="#666666" points="715,-245.5 683,-245.5 683,-226.5 715,-226.5 715,-245.5"/>
<text text-anchor="middle" x="699" y="-233.5" font-family="Helvetica,sans-Serif" font-size="10.00">abs</text>
</a>
</g>
</g>
<!-- Node9&#45;&gt;Node10 -->
<g id="edge9" class="edge"><title>Node9&#45;&gt;Node10</title>
<path fill="none" stroke="#63b8ff" d="M602.126,-236C627.139,-236 653.925,-236 672.809,-236"/>
<polygon fill="#63b8ff" stroke="#63b8ff" points="672.941,-239.5 682.941,-236 672.941,-232.5 672.941,-239.5"/>
</g>
</g>
</svg>
