<?xml version="1.0" encoding="UTF-8" standalone="no"?>
<!DOCTYPE svg PUBLIC "-//W3C//DTD SVG 1.1//EN"
 "http://www.w3.org/Graphics/SVG/1.1/DTD/svg11.dtd">
<!-- Generated by graphviz version 2.38.0 (20140413.2041)
 -->
<!-- Title: toXML Pages: 1 -->
<svg width="242pt" height="230pt"
 viewBox="0.00 0.00 242.00 230.00" xmlns="http://www.w3.org/2000/svg" xmlns:xlink="http://www.w3.org/1999/xlink">
<g id="graph0" class="graph" transform="scale(1 1) rotate(0) translate(4 226)">
<title>toXML</title>
<!-- Node1 -->
<g id="node1" class="node"><title>Node1</title>
<g id="a_node1"><a xlink:title=" ">
<polygon fill="#999999" stroke="#666666" points="234,-120.5 190,-120.5 190,-101.5 234,-101.5 234,-120.5"/>
<text text-anchor="middle" x="212" y="-108.5" font-family="Helvetica,sans-Serif" font-size="10.00">toXML</text>
</a>
</g>
</g>
<!-- Node2 -->
<g id="node2" class="node"><title>Node2</title>
<g id="a_node2"><a xlink:href="classore_1_1data_1_1_commodity_volatility_config.html#a5ab84b4972e623b734fc13becbf7902e" target="_top" xlink:title=" ">
<polygon fill="white" stroke="#666666" points="151,-222 3,-222 3,-192 151,-192 151,-222"/>
<text text-anchor="start" x="11" y="-210" font-family="Helvetica,sans-Serif" font-size="10.00">ore::data::CommodityVolatility</text>
<text text-anchor="middle" x="77" y="-199" font-family="Helvetica,sans-Serif" font-size="10.00">Config::toXML</text>
</a>
</g>
</g>
<!-- Node1&#45;&gt;Node2 -->
<g id="edge1" class="edge"><title>Node1&#45;&gt;Node2</title>
<path fill="none" stroke="#63b8ff" d="M200.655,-129.605C190.695,-145.897 174.19,-169.083 154,-183 148.987,-186.455 143.453,-189.432 137.724,-191.992"/>
<polygon fill="#63b8ff" stroke="#63b8ff" points="203.702,-131.328 205.741,-120.931 197.664,-127.787 203.702,-131.328"/>
</g>
<!-- Node3 -->
<g id="node3" class="node"><title>Node3</title>
<g id="a_node3"><a xlink:href="classore_1_1data_1_1_cap_floor_volatility_curve_config.html#a0881d80390ae17ef0094dcd8c91c4936" target="_top" xlink:title=" ">
<polygon fill="white" stroke="#666666" points="145.5,-174 8.5,-174 8.5,-144 145.5,-144 145.5,-174"/>
<text text-anchor="start" x="16.5" y="-162" font-family="Helvetica,sans-Serif" font-size="10.00">ore::data::CapFloorVolatility</text>
<text text-anchor="middle" x="77" y="-151" font-family="Helvetica,sans-Serif" font-size="10.00">CurveConfig::toXML</text>
</a>
</g>
</g>
<!-- Node1&#45;&gt;Node3 -->
<g id="edge2" class="edge"><title>Node1&#45;&gt;Node3</title>
<path fill="none" stroke="#63b8ff" d="M180.579,-124.423C172.043,-128.021 162.714,-131.798 154,-135 145.688,-138.055 136.782,-141.082 128.099,-143.905"/>
<polygon fill="#63b8ff" stroke="#63b8ff" points="181.986,-127.628 189.803,-120.477 179.233,-121.192 181.986,-127.628"/>
</g>
<!-- Node4 -->
<g id="node4" class="node"><title>Node4</title>
<g id="a_node4"><a xlink:href="classore_1_1data_1_1_equity_volatility_curve_config.html#a0881d80390ae17ef0094dcd8c91c4936" target="_top" xlink:title=" ">
<polygon fill="white" stroke="#666666" points="140,-126 14,-126 14,-96 140,-96 140,-126"/>
<text text-anchor="start" x="22" y="-114" font-family="Helvetica,sans-Serif" font-size="10.00">ore::data::EquityVolatility</text>
<text text-anchor="middle" x="77" y="-103" font-family="Helvetica,sans-Serif" font-size="10.00">CurveConfig::toXML</text>
</a>
</g>
</g>
<!-- Node1&#45;&gt;Node4 -->
<g id="edge3" class="edge"><title>Node1&#45;&gt;Node4</title>
<path fill="none" stroke="#63b8ff" d="M179.671,-111C167.787,-111 153.8,-111 140.065,-111"/>
<polygon fill="#63b8ff" stroke="#63b8ff" points="179.926,-114.5 189.926,-111 179.926,-107.5 179.926,-114.5"/>
</g>
<!-- Node5 -->
<g id="node5" class="node"><title>Node5</title>
<g id="a_node5"><a xlink:href="classore_1_1data_1_1_f_x_volatility_curve_config.html#a0881d80390ae17ef0094dcd8c91c4936" target="_top" xlink:title=" ">
<polygon fill="white" stroke="#666666" points="144,-78 10,-78 10,-48 144,-48 144,-78"/>
<text text-anchor="start" x="18" y="-66" font-family="Helvetica,sans-Serif" font-size="10.00">ore::data::FXVolatilityCurve</text>
<text text-anchor="middle" x="77" y="-55" font-family="Helvetica,sans-Serif" font-size="10.00">Config::toXML</text>
</a>
</g>
</g>
<!-- Node1&#45;&gt;Node5 -->
<g id="edge4" class="edge"><title>Node1&#45;&gt;Node5</title>
<path fill="none" stroke="#63b8ff" d="M180.579,-97.5774C172.043,-93.9794 162.714,-90.2025 154,-87 145.688,-83.9452 136.782,-80.9178 128.099,-78.095"/>
<polygon fill="#63b8ff" stroke="#63b8ff" points="179.233,-100.808 189.803,-101.523 181.986,-94.3724 179.233,-100.808"/>
</g>
<!-- Node6 -->
<g id="node6" class="node"><title>Node6</title>
<g id="a_node6"><a xlink:href="classore_1_1data_1_1_generic_yield_volatility_curve_config.html#a0881d80390ae17ef0094dcd8c91c4936" target="_top" xlink:title=" ">
<polygon fill="white" stroke="#666666" points="154,-30 0,-30 0,-0 154,-0 154,-30"/>
<text text-anchor="start" x="8" y="-18" font-family="Helvetica,sans-Serif" font-size="10.00">ore::data::GenericYieldVolatility</text>
<text text-anchor="middle" x="77" y="-7" font-family="Helvetica,sans-Serif" font-size="10.00">CurveConfig::toXML</text>
</a>
</g>
</g>
<!-- Node1&#45;&gt;Node6 -->
<g id="edge5" class="edge"><title>Node1&#45;&gt;Node6</title>
<path fill="none" stroke="#63b8ff" d="M200.655,-92.3947C190.695,-76.1026 174.19,-52.9174 154,-39 148.987,-35.5447 143.453,-32.5682 137.724,-30.0079"/>
<polygon fill="#63b8ff" stroke="#63b8ff" points="197.664,-94.2126 205.741,-101.069 203.702,-90.6718 197.664,-94.2126"/>
</g>
</g>
</svg>
