<?xml version="1.0" encoding="UTF-8" standalone="no"?>
<!DOCTYPE svg PUBLIC "-//W3C//DTD SVG 1.1//EN"
 "http://www.w3.org/Graphics/SVG/1.1/DTD/svg11.dtd">
<!-- Generated by graphviz version 2.38.0 (20140413.2041)
 -->
<!-- Title: getStrike Pages: 1 -->
<svg width="350pt" height="45pt"
 viewBox="0.00 0.00 350.00 45.00" xmlns="http://www.w3.org/2000/svg" xmlns:xlink="http://www.w3.org/1999/xlink">
<g id="graph0" class="graph" transform="scale(1 1) rotate(0) translate(4 41)">
<title>getStrike</title>
<!-- Node1 -->
<g id="node1" class="node"><title>Node1</title>
<g id="a_node1"><a xlink:title=" ">
<polygon fill="#999999" stroke="#666666" points="56,-19 3.55271e-015,-19 3.55271e-015,-0 56,-0 56,-19"/>
<text text-anchor="middle" x="28" y="-7" font-family="Helvetica,sans-Serif" font-size="10.00">getStrike</text>
</a>
</g>
</g>
<!-- Node2 -->
<g id="node2" class="node"><title>Node2</title>
<g id="a_node2"><a xlink:href="group__utilities.html#ga2037f312d2920037572bdc0c30a6395d" target="_top" xlink:title="Convert text to Strike.">
<polygon fill="white" stroke="#666666" points="202,-19 92,-19 92,-0 202,-0 202,-19"/>
<text text-anchor="middle" x="147" y="-7" font-family="Helvetica,sans-Serif" font-size="10.00">ore::data::parseStrike</text>
</a>
</g>
</g>
<!-- Node1&#45;&gt;Node2 -->
<g id="edge1" class="edge"><title>Node1&#45;&gt;Node2</title>
<path fill="none" stroke="#63b8ff" d="M56.1362,-9.5C63.8857,-9.5 72.6777,-9.5 81.6551,-9.5"/>
<polygon fill="#63b8ff" stroke="#63b8ff" points="81.824,-13.0001 91.824,-9.5 81.824,-6.0001 81.824,-13.0001"/>
</g>
<!-- Node3 -->
<g id="node3" class="node"><title>Node3</title>
<g id="a_node3"><a xlink:href="group__utilities.html#gad1db2a68f9a73667c3b4084d63955bdd" target="_top" xlink:title="Convert text to Real.">
<polygon fill="white" stroke="#666666" points="342,-19 238,-19 238,-0 342,-0 342,-19"/>
<text text-anchor="middle" x="290" y="-7" font-family="Helvetica,sans-Serif" font-size="10.00">ore::data::parseReal</text>
</a>
</g>
</g>
<!-- Node2&#45;&gt;Node3 -->
<g id="edge2" class="edge"><title>Node2&#45;&gt;Node3</title>
<path fill="none" stroke="#63b8ff" d="M202.111,-9.5C210.393,-9.5 218.994,-9.5 227.423,-9.5"/>
<polygon fill="#63b8ff" stroke="#63b8ff" points="227.585,-13.0001 237.585,-9.5 227.585,-6.0001 227.585,-13.0001"/>
</g>
<!-- Node3&#45;&gt;Node3 -->
<g id="edge3" class="edge"><title>Node3&#45;&gt;Node3</title>
<path fill="none" stroke="#63b8ff" d="M268.114,-19.0828C257.466,-27.7337 264.762,-37 290,-37 306.168,-37 314.973,-33.1971 316.414,-28.1894"/>
<polygon fill="#63b8ff" stroke="#63b8ff" points="319.472,-26.4792 311.886,-19.0828 313.204,-29.5954 319.472,-26.4792"/>
</g>
</g>
</svg>
