<?xml version="1.0" encoding="UTF-8" standalone="no"?>
<!DOCTYPE svg PUBLIC "-//W3C//DTD SVG 1.1//EN"
 "http://www.w3.org/Graphics/SVG/1.1/DTD/svg11.dtd">
<!-- Generated by graphviz version 2.38.0 (20140413.2041)
 -->
<!-- Title: accuracy Pages: 1 -->
<svg width="389pt" height="248pt"
 viewBox="0.00 0.00 389.00 248.00" xmlns="http://www.w3.org/2000/svg" xmlns:xlink="http://www.w3.org/1999/xlink">
<g id="graph0" class="graph" transform="scale(1 1) rotate(0) translate(4 244)">
<title>accuracy</title>
<!-- Node1 -->
<g id="node1" class="node"><title>Node1</title>
<g id="a_node1"><a xlink:title=" ">
<polygon fill="#999999" stroke="#666666" points="381,-138.5 325,-138.5 325,-119.5 381,-119.5 381,-138.5"/>
<text text-anchor="middle" x="353" y="-126.5" font-family="Helvetica,sans-Serif" font-size="10.00">accuracy</text>
</a>
</g>
</g>
<!-- Node2 -->
<g id="node2" class="node"><title>Node2</title>
<g id="a_node2"><a xlink:href="classore_1_1data_1_1_default_curve.html#a6c2b227db105241eb5c565b654f7dbe4" target="_top" xlink:title="Build a default curve from CDS spread quotes.">
<polygon fill="white" stroke="#666666" points="277.5,-240 162.5,-240 162.5,-210 277.5,-210 277.5,-240"/>
<text text-anchor="start" x="170.5" y="-228" font-family="Helvetica,sans-Serif" font-size="10.00">ore::data::DefaultCurve</text>
<text text-anchor="middle" x="220" y="-217" font-family="Helvetica,sans-Serif" font-size="10.00">::buildCdsCurve</text>
</a>
</g>
</g>
<!-- Node1&#45;&gt;Node2 -->
<g id="edge1" class="edge"><title>Node1&#45;&gt;Node2</title>
<path fill="none" stroke="#63b8ff" d="M340.008,-147.407C328.626,-163.566 310.148,-186.667 289,-201 284.026,-204.371 278.526,-207.322 272.873,-209.892"/>
<polygon fill="#63b8ff" stroke="#63b8ff" points="343.124,-149.05 345.856,-138.813 337.337,-145.111 343.124,-149.05"/>
</g>
<!-- Node4 -->
<g id="node4" class="node"><title>Node4</title>
<g id="a_node4"><a xlink:href="classore_1_1data_1_1_commodity_curve.html#a771e0386d3a147f22a46b810d82f4fd3" target="_top" xlink:title="Build commodity piecewise price curve.">
<polygon fill="white" stroke="#666666" points="287,-192 153,-192 153,-162 287,-162 287,-192"/>
<text text-anchor="start" x="161" y="-180" font-family="Helvetica,sans-Serif" font-size="10.00">ore::data::CommodityCurve</text>
<text text-anchor="middle" x="220" y="-169" font-family="Helvetica,sans-Serif" font-size="10.00">::buildPiecewiseCurve</text>
</a>
</g>
</g>
<!-- Node1&#45;&gt;Node4 -->
<g id="edge3" class="edge"><title>Node1&#45;&gt;Node4</title>
<path fill="none" stroke="#63b8ff" d="M317.841,-142.189C308.506,-145.745 298.379,-149.559 289,-153 281.008,-155.932 272.464,-159 264.225,-161.925"/>
<polygon fill="#63b8ff" stroke="#63b8ff" points="319.128,-145.444 327.218,-138.603 316.627,-138.906 319.128,-145.444"/>
</g>
<!-- Node5 -->
<g id="node5" class="node"><title>Node5</title>
<g id="a_node5"><a xlink:href="classore_1_1data_1_1_cap_floor_vol_curve.html#aabf163efc1172daa6f8dbcf9be1766a9" target="_top" xlink:title="Build ATM optionlet curve from term vol.">
<polygon fill="white" stroke="#666666" points="289,-144 151,-144 151,-114 289,-114 289,-144"/>
<text text-anchor="start" x="159" y="-132" font-family="Helvetica,sans-Serif" font-size="10.00">ore::data::CapFloorVolCurve</text>
<text text-anchor="middle" x="220" y="-121" font-family="Helvetica,sans-Serif" font-size="10.00">::termAtmOptCurve</text>
</a>
</g>
</g>
<!-- Node1&#45;&gt;Node5 -->
<g id="edge4" class="edge"><title>Node1&#45;&gt;Node5</title>
<path fill="none" stroke="#63b8ff" d="M314.755,-129C306.723,-129 297.99,-129 289.192,-129"/>
<polygon fill="#63b8ff" stroke="#63b8ff" points="314.857,-132.5 324.857,-129 314.857,-125.5 314.857,-132.5"/>
</g>
<!-- Node6 -->
<g id="node6" class="node"><title>Node6</title>
<g id="a_node6"><a xlink:href="classore_1_1data_1_1_cap_floor_vol_curve.html#a6b5974432b42f6cb1214882f5776c1db" target="_top" xlink:title="Build optionlet surface from term vol.">
<polygon fill="white" stroke="#666666" points="289,-96 151,-96 151,-66 289,-66 289,-96"/>
<text text-anchor="start" x="159" y="-84" font-family="Helvetica,sans-Serif" font-size="10.00">ore::data::CapFloorVolCurve</text>
<text text-anchor="middle" x="220" y="-73" font-family="Helvetica,sans-Serif" font-size="10.00">::termOptSurface</text>
</a>
</g>
</g>
<!-- Node1&#45;&gt;Node6 -->
<g id="edge5" class="edge"><title>Node1&#45;&gt;Node6</title>
<path fill="none" stroke="#63b8ff" d="M317.841,-115.811C308.506,-112.255 298.379,-108.441 289,-105 281.008,-102.068 272.464,-99 264.225,-96.0754"/>
<polygon fill="#63b8ff" stroke="#63b8ff" points="316.627,-119.094 327.218,-119.397 319.128,-112.556 316.627,-119.094"/>
</g>
<!-- Node7 -->
<g id="node7" class="node"><title>Node7</title>
<g id="a_node7"><a xlink:href="classore_1_1data_1_1_yield_curve_config.html#a7efefb9270d6c4933e4c96de0771f17a" target="_top" xlink:title=" ">
<polygon fill="white" stroke="#666666" points="287,-30 153,-30 153,-0 287,-0 287,-30"/>
<text text-anchor="start" x="161" y="-18" font-family="Helvetica,sans-Serif" font-size="10.00">ore::data::YieldCurveConfig</text>
<text text-anchor="middle" x="220" y="-7" font-family="Helvetica,sans-Serif" font-size="10.00">::toXML</text>
</a>
</g>
</g>
<!-- Node1&#45;&gt;Node7 -->
<g id="edge6" class="edge"><title>Node1&#45;&gt;Node7</title>
<path fill="none" stroke="#63b8ff" d="M338.828,-111.127C326.899,-95.6801 308.285,-73.3301 289,-57 277.034,-46.8673 262.383,-37.4967 249.748,-30.1895"/>
<polygon fill="#63b8ff" stroke="#63b8ff" points="336.208,-113.465 345.034,-119.327 341.79,-109.241 336.208,-113.465"/>
</g>
<!-- Node3 -->
<g id="node3" class="node"><title>Node3</title>
<g id="a_node3"><a xlink:href="classore_1_1data_1_1_default_curve.html#aab7d6b459c59f1a3854a5cefc764f485" target="_top" xlink:title="Detailed constructor.">
<polygon fill="white" stroke="#666666" points="115,-240 0,-240 0,-210 115,-210 115,-240"/>
<text text-anchor="start" x="8" y="-228" font-family="Helvetica,sans-Serif" font-size="10.00">ore::data::DefaultCurve</text>
<text text-anchor="middle" x="57.5" y="-217" font-family="Helvetica,sans-Serif" font-size="10.00">::DefaultCurve</text>
</a>
</g>
</g>
<!-- Node2&#45;&gt;Node3 -->
<g id="edge2" class="edge"><title>Node2&#45;&gt;Node3</title>
<path fill="none" stroke="#63b8ff" d="M152.19,-225C139.865,-225 127.104,-225 115.116,-225"/>
<polygon fill="#63b8ff" stroke="#63b8ff" points="152.414,-228.5 162.414,-225 152.414,-221.5 152.414,-228.5"/>
</g>
<!-- Node7&#45;&gt;Node7 -->
<g id="edge7" class="edge"><title>Node7&#45;&gt;Node7</title>
<path fill="none" stroke="#63b8ff" d="M243.105,-40.5975C239.948,-44.9704 232.246,-48 220,-48 199.375,-48 191.641,-39.4063 196.797,-30.2754"/>
<polygon fill="#63b8ff" stroke="#63b8ff" points="246.608,-40.3083 243.203,-30.2754 239.608,-40.2416 246.608,-40.3083"/>
</g>
</g>
</svg>
