<?xml version="1.0" encoding="UTF-8" standalone="no"?>
<!DOCTYPE svg PUBLIC "-//W3C//DTD SVG 1.1//EN"
 "http://www.w3.org/Graphics/SVG/1.1/DTD/svg11.dtd">
<!-- Generated by graphviz version 2.38.0 (20140413.2041)
 -->
<!-- Title: IndexNameTranslator Pages: 1 -->
<svg width="391pt" height="181pt"
 viewBox="0.00 0.00 390.50 181.00" xmlns="http://www.w3.org/2000/svg" xmlns:xlink="http://www.w3.org/1999/xlink">
<g id="graph0" class="graph" transform="scale(1 1) rotate(0) translate(4 177)">
<title>IndexNameTranslator</title>
<!-- Node1 -->
<g id="node1" class="node"><title>Node1</title>
<g id="a_node1"><a xlink:title="IndexNameTranslator.">
<polygon fill="#999999" stroke="#666666" points="288.5,-74 177.5,-74 177.5,-0 288.5,-0 288.5,-74"/>
<text text-anchor="middle" x="233" y="-62" font-family="Helvetica,sans-Serif" font-size="10.00">{IndexNameTranslator</text>
<text text-anchor="start" x="185.5" y="-51" font-family="Helvetica,sans-Serif" font-size="10.00">||+ oreName()</text>
<text text-anchor="start" x="185.5" y="-40" font-family="Helvetica,sans-Serif" font-size="10.00">+ qlName()</text>
<text text-anchor="start" x="185.5" y="-29" font-family="Helvetica,sans-Serif" font-size="10.00">+ add()</text>
<text text-anchor="start" x="185.5" y="-18" font-family="Helvetica,sans-Serif" font-size="10.00">+ clear()</text>
<text text-anchor="middle" x="233" y="-7" font-family="Helvetica,sans-Serif" font-size="10.00">}</text>
</a>
</g>
</g>
<!-- Node2 -->
<g id="node2" class="node"><title>Node2</title>
<g id="a_node2"><a xlink:title=" ">
<polygon fill="white" stroke="#666666" points="164,-173 0,-173 0,-121 164,-121 164,-173"/>
<text text-anchor="start" x="8" y="-161" font-family="Helvetica,sans-Serif" font-size="10.00">{Singleton&lt; IndexNameTranslator,</text>
<text text-anchor="start" x="8" y="-150" font-family="Helvetica,sans-Serif" font-size="10.00"> std::integral_constant&lt; bool,</text>
<text text-anchor="middle" x="82" y="-139" font-family="Helvetica,sans-Serif" font-size="10.00"> true &gt; &gt;</text>
<text text-anchor="middle" x="82" y="-128" font-family="Helvetica,sans-Serif" font-size="10.00">||}</text>
</a>
</g>
</g>
<!-- Node2&#45;&gt;Node1 -->
<g id="edge1" class="edge"><title>Node2&#45;&gt;Node1</title>
<path fill="none" stroke="#63b8ff" d="M125.497,-114.89C143.283,-102.169 163.976,-87.3683 182.43,-74.1689"/>
<polygon fill="none" stroke="#63b8ff" points="123.12,-112.287 117.022,-120.951 127.192,-117.98 123.12,-112.287"/>
</g>
<!-- Node3 -->
<g id="node3" class="node"><title>Node3</title>
<g id="a_node3"><a xlink:title=" ">
<polygon fill="white" stroke="#666666" points="283.5,-167.5 182.5,-167.5 182.5,-126.5 283.5,-126.5 283.5,-167.5"/>
<text text-anchor="start" x="190.5" y="-155.5" font-family="Helvetica,sans-Serif" font-size="10.00">{bimap&lt; std::string,</text>
<text text-anchor="middle" x="233" y="-144.5" font-family="Helvetica,sans-Serif" font-size="10.00"> std::string &gt;</text>
<text text-anchor="middle" x="233" y="-133.5" font-family="Helvetica,sans-Serif" font-size="10.00">||}</text>
</a>
</g>
</g>
<!-- Node3&#45;&gt;Node1 -->
<g id="edge2" class="edge"><title>Node3&#45;&gt;Node1</title>
<path fill="none" stroke="#404040" d="M233,-126.442C233,-115.159 233,-100.432 233,-86.2414"/>
<polygon fill="none" stroke="#404040" points="233,-86.0093 229,-80.0094 233,-74.0093 237,-80.0093 233,-86.0093"/>
<text text-anchor="middle" x="248.5" y="-95" font-family="Helvetica,sans-Serif" font-size="10.00"> &#45;data_</text>
</g>
<!-- Node4 -->
<g id="node4" class="node"><title>Node4</title>
<g id="a_node4"><a xlink:title=" ">
<polygon fill="white" stroke="#666666" points="382.5,-162 301.5,-162 301.5,-132 382.5,-132 382.5,-162"/>
<text text-anchor="middle" x="342" y="-150" font-family="Helvetica,sans-Serif" font-size="10.00">{shared_mutex</text>
<text text-anchor="middle" x="342" y="-139" font-family="Helvetica,sans-Serif" font-size="10.00">||}</text>
</a>
</g>
</g>
<!-- Node4&#45;&gt;Node1 -->
<g id="edge3" class="edge"><title>Node4&#45;&gt;Node1</title>
<path fill="none" stroke="#404040" d="M327.75,-131.881C315.154,-119.4 296.076,-100.498 278.333,-82.9175"/>
<polygon fill="none" stroke="#404040" points="278.289,-82.8735 271.211,-81.4919 269.765,-74.4274 276.842,-75.809 278.289,-82.8735"/>
<text text-anchor="middle" x="317.5" y="-95" font-family="Helvetica,sans-Serif" font-size="10.00"> &#45;mutex_</text>
</g>
</g>
</svg>
