<?xml version="1.0" encoding="UTF-8" standalone="no"?>
<!DOCTYPE svg PUBLIC "-//W3C//DTD SVG 1.1//EN"
 "http://www.w3.org/Graphics/SVG/1.1/DTD/svg11.dtd">
<!-- Generated by graphviz version 2.38.0 (20140413.2041)
 -->
<!-- Title: fromXML Pages: 1 -->
<!--zoomable 738 -->
<svg id="main" version="1.1" xmlns="http://www.w3.org/2000/svg" xmlns:xlink="http://www.w3.org/1999/xlink" xml:space="preserve" onload="init(evt)">
<style type="text/css"><![CDATA[
.edge:hover path { stroke: red; }
.edge:hover polygon { stroke: red; fill: red; }
]]></style>
<script type="text/javascript"><![CDATA[
var edges = document.getElementsByTagName('g');
if (edges && edges.length) {
  for (var i=0;i<edges.length;i++) {
    if (edges[i].id.substr(0,4)=='edge') {
      edges[i].setAttribute('class','edge');
    }
  }
}
]]></script>
        <defs>
                <circle id="rim" cx="0" cy="0" r="7"/>
                <circle id="rim2" cx="0" cy="0" r="3.5"/>
                <g id="zoomPlus">
                        <use xlink:href="#rim" fill="#404040">
                                <set attributeName="fill" to="#808080" begin="zoomplus.mouseover" end="zoomplus.mouseout"/>
                        </use>
                        <path d="M-4,0h8M0,-4v8" fill="none" stroke="white" stroke-width="1.5" pointer-events="none"/>
                </g>
                <g id="zoomMin">
                        <use xlink:href="#rim" fill="#404040">
                                <set attributeName="fill" to="#808080" begin="zoomminus.mouseover" end="zoomminus.mouseout"/>
                        </use>
                        <path d="M-4,0h8" fill="none" stroke="white" stroke-width="1.5" pointer-events="none"/>
                </g>
                <g id="dirArrow">
                        <path fill="none" stroke="white" stroke-width="1.5" d="M0,-3.0v7 M-2.5,-0.5L0,-3.0L2.5,-0.5"/>
                </g>
               <g id="resetDef">
                       <use xlink:href="#rim2" fill="#404040">
                               <set attributeName="fill" to="#808080" begin="reset.mouseover" end="reset.mouseout"/>
                       </use>
               </g>
        </defs>

<script type="text/javascript">
var viewWidth = 858;
var viewHeight = 738;
var sectionId = 'dynsection-3';
</script>
<script xlink:href="svgpan.js"/>
<svg id="graph" class="graph">
<g id="viewport">
<title>fromXML</title>
<!-- Node1 -->
<g id="node1" class="node"><title>Node1</title>
<g id="a_node1"><a xlink:title=" ">
<polygon fill="#999999" stroke="#666666" points="54,-598.007 0,-598.007 0,-579.007 54,-579.007 54,-598.007"/>
<text text-anchor="middle" x="27" y="-586.007" font-family="Helvetica,sans-Serif" font-size="10.00">fromXML</text>
</a>
</g>
</g>
<!-- Node2 -->
<g id="node2" class="node"><title>Node2</title>
<g id="a_node2"><a xlink:href="classore_1_1data_1_1_reference_datum.html#a7741ae0fc924943de5bfe02928262eb7" target="_top" xlink:title=" ">
<polygon fill="white" stroke="#666666" points="396,-646.507 263,-646.507 263,-616.507 396,-616.507 396,-646.507"/>
<text text-anchor="start" x="271" y="-634.507" font-family="Helvetica,sans-Serif" font-size="10.00">ore::data::ReferenceDatum</text>
<text text-anchor="middle" x="329.5" y="-623.507" font-family="Helvetica,sans-Serif" font-size="10.00">::fromXML</text>
</a>
</g>
</g>
<!-- Node1&#45;&gt;Node2 -->
<g id="edge1" class="edge"><title>Node1&#45;&gt;Node2</title>
<path fill="none" stroke="#63b8ff" d="M54.1284,-595.024C65.1493,-597.611 78.1485,-600.454 90,-602.507 144.18,-611.894 205.804,-619.303 252.838,-624.283"/>
<polygon fill="#63b8ff" stroke="#63b8ff" points="252.637,-627.781 262.947,-625.339 253.365,-620.819 252.637,-627.781"/>
</g>
<!-- Node10 -->
<g id="node10" class="node"><title>Node10</title>
<g id="a_node10"><a xlink:href="structore_1_1data_1_1_bond_reference_datum_1_1_bond_data.html#a7741ae0fc924943de5bfe02928262eb7" target="_top" xlink:title=" ">
<polygon fill="white" stroke="#666666" points="227,-522.507 90,-522.507 90,-492.507 227,-492.507 227,-522.507"/>
<text text-anchor="start" x="98" y="-510.507" font-family="Helvetica,sans-Serif" font-size="10.00">ore::data::BondReference</text>
<text text-anchor="middle" x="158.5" y="-499.507" font-family="Helvetica,sans-Serif" font-size="10.00">Datum::BondData::fromXML</text>
</a>
</g>
</g>
<!-- Node1&#45;&gt;Node10 -->
<g id="edge11" class="edge"><title>Node1&#45;&gt;Node10</title>
<path fill="none" stroke="#63b8ff" d="M43.3639,-578.898C63.2614,-566.452 98.4776,-544.425 124.547,-528.119"/>
<polygon fill="#63b8ff" stroke="#63b8ff" points="126.724,-530.886 133.346,-522.615 123.012,-524.951 126.724,-530.886"/>
</g>
<!-- Node15 -->
<g id="node15" class="node"><title>Node15</title>
<g id="a_node15"><a xlink:href="classore_1_1data_1_1_x_m_l_utils.html#a5f2b91a4af900e85c356cfe807e64501" target="_top" xlink:title=" ">
<polygon fill="white" stroke="#666666" points="548,-522.507 449,-522.507 449,-492.507 548,-492.507 548,-522.507"/>
<text text-anchor="start" x="457" y="-510.507" font-family="Helvetica,sans-Serif" font-size="10.00">ore::data::XMLUtils</text>
<text text-anchor="middle" x="498.5" y="-499.507" font-family="Helvetica,sans-Serif" font-size="10.00">::getChildNode</text>
</a>
</g>
</g>
<!-- Node1&#45;&gt;Node15 -->
<g id="edge39" class="edge"><title>Node1&#45;&gt;Node15</title>
<path fill="none" stroke="#63b8ff" d="M54.4433,-588.614C115.716,-588.223 271.671,-583.55 396,-548.507 413.031,-543.707 415.676,-538.336 432,-531.507 436.198,-529.751 440.576,-527.993 444.989,-526.272"/>
<polygon fill="#63b8ff" stroke="#63b8ff" points="446.561,-529.418 454.651,-522.578 444.061,-522.88 446.561,-529.418"/>
</g>
<!-- Node3 -->
<g id="node3" class="node"><title>Node3</title>
<g id="a_node3"><a xlink:href="classore_1_1data_1_1_x_m_l_utils.html#a37c092916f4bdf10d4fbf6bb9e474db7" target="_top" xlink:title=" ">
<polygon fill="white" stroke="#666666" points="548,-570.507 449,-570.507 449,-540.507 548,-540.507 548,-570.507"/>
<text text-anchor="start" x="457" y="-558.507" font-family="Helvetica,sans-Serif" font-size="10.00">ore::data::XMLUtils</text>
<text text-anchor="middle" x="498.5" y="-547.507" font-family="Helvetica,sans-Serif" font-size="10.00">::checkNode</text>
</a>
</g>
</g>
<!-- Node2&#45;&gt;Node3 -->
<g id="edge2" class="edge"><title>Node2&#45;&gt;Node3</title>
<path fill="none" stroke="#63b8ff" d="M365.311,-616.457C375.266,-612.055 386.1,-607.171 396,-602.507 412.183,-594.884 415.817,-592.131 432,-584.507 438.807,-581.301 446.054,-577.991 453.154,-574.804"/>
<polygon fill="#63b8ff" stroke="#63b8ff" points="454.978,-577.823 462.689,-570.558 452.131,-571.429 454.978,-577.823"/>
</g>
<!-- Node4 -->
<g id="node4" class="node"><title>Node4</title>
<g id="a_node4"><a xlink:href="classore_1_1data_1_1_x_m_l_utils.html#a2d656de3f92d61e867ec7a3c88ad4015" target="_top" xlink:title=" ">
<polygon fill="white" stroke="#666666" points="548,-656.507 449,-656.507 449,-626.507 548,-626.507 548,-656.507"/>
<text text-anchor="start" x="457" y="-644.507" font-family="Helvetica,sans-Serif" font-size="10.00">ore::data::XMLUtils</text>
<text text-anchor="middle" x="498.5" y="-633.507" font-family="Helvetica,sans-Serif" font-size="10.00">::getAttribute</text>
</a>
</g>
</g>
<!-- Node2&#45;&gt;Node4 -->
<g id="edge3" class="edge"><title>Node2&#45;&gt;Node4</title>
<path fill="none" stroke="#63b8ff" d="M396.024,-635.431C410.077,-636.273 424.844,-637.157 438.628,-637.982"/>
<polygon fill="#63b8ff" stroke="#63b8ff" points="438.757,-641.496 448.949,-638.6 439.176,-634.509 438.757,-641.496"/>
</g>
<!-- Node5 -->
<g id="node5" class="node"><title>Node5</title>
<g id="a_node5"><a xlink:href="classore_1_1data_1_1_x_m_l_utils.html#a5a1307174ddefdb3aad6e3bd8cc63b27" target="_top" xlink:title=" ">
<polygon fill="white" stroke="#666666" points="707.5,-360.507 608.5,-360.507 608.5,-330.507 707.5,-330.507 707.5,-360.507"/>
<text text-anchor="start" x="616.5" y="-348.507" font-family="Helvetica,sans-Serif" font-size="10.00">ore::data::XMLUtils</text>
<text text-anchor="middle" x="658" y="-337.507" font-family="Helvetica,sans-Serif" font-size="10.00">::getChildValue</text>
</a>
</g>
</g>
<!-- Node2&#45;&gt;Node5 -->
<g id="edge4" class="edge"><title>Node2&#45;&gt;Node5</title>
<path fill="none" stroke="#63b8ff" d="M396.129,-620.691C461.253,-609.371 553.056,-591.595 565,-579.507 619.896,-523.954 565.597,-477.123 601,-407.507 608.586,-392.591 620.708,-378.526 631.738,-367.576"/>
<polygon fill="#63b8ff" stroke="#63b8ff" points="634.313,-369.956 639.13,-360.52 629.479,-364.893 634.313,-369.956"/>
</g>
<!-- Node7 -->
<g id="node7" class="node"><title>Node7</title>
<g id="a_node7"><a xlink:href="group__utilities.html#ga59b5fdda574d90facae95dec2d13040d" target="_top" xlink:title="Convert std::string to QuantLib::Date.">
<polygon fill="white" stroke="#666666" points="551,-694.007 446,-694.007 446,-675.007 551,-675.007 551,-694.007"/>
<text text-anchor="middle" x="498.5" y="-682.007" font-family="Helvetica,sans-Serif" font-size="10.00">ore::data::parseDate</text>
</a>
</g>
</g>
<!-- Node2&#45;&gt;Node7 -->
<g id="edge6" class="edge"><title>Node2&#45;&gt;Node7</title>
<path fill="none" stroke="#63b8ff" d="M374.088,-646.543C391.979,-652.601 412.931,-659.551 432,-665.507 439.071,-667.716 446.597,-669.98 453.935,-672.14"/>
<polygon fill="#63b8ff" stroke="#63b8ff" points="453.183,-675.567 463.763,-675.007 455.143,-668.847 453.183,-675.567"/>
</g>
<!-- Node6 -->
<g id="node6" class="node"><title>Node6</title>
<g id="a_node6"><a xlink:href="classore_1_1data_1_1_x_m_l_utils.html#a6704501b110fa9d056096df3e05f0df2" target="_top" xlink:title="Get a node&#39;s value.">
<polygon fill="white" stroke="#666666" points="850,-403.507 751,-403.507 751,-373.507 850,-373.507 850,-403.507"/>
<text text-anchor="start" x="759" y="-391.507" font-family="Helvetica,sans-Serif" font-size="10.00">ore::data::XMLUtils</text>
<text text-anchor="middle" x="800.5" y="-380.507" font-family="Helvetica,sans-Serif" font-size="10.00">::getNodeValue</text>
</a>
</g>
</g>
<!-- Node5&#45;&gt;Node6 -->
<g id="edge5" class="edge"><title>Node5&#45;&gt;Node6</title>
<path fill="none" stroke="#63b8ff" d="M707.746,-360.426C718.535,-363.728 730.072,-367.259 741.198,-370.664"/>
<polygon fill="#63b8ff" stroke="#63b8ff" points="740.254,-374.035 750.84,-373.615 742.302,-367.342 740.254,-374.035"/>
</g>
<!-- Node7&#45;&gt;Node7 -->
<g id="edge7" class="edge"><title>Node7&#45;&gt;Node7</title>
<path fill="none" stroke="#63b8ff" d="M474.148,-694.09C462.301,-702.741 470.418,-712.007 498.5,-712.007 516.929,-712.007 526.76,-708.017 527.992,-702.828"/>
<polygon fill="#63b8ff" stroke="#63b8ff" points="530.939,-700.935 522.852,-694.09 524.906,-704.484 530.939,-700.935"/>
</g>
<!-- Node8 -->
<g id="node8" class="node"><title>Node8</title>
<g id="a_node8"><a xlink:href="group__utilities.html#gaecd67eda4fb5f4859bb8f6d383547721" target="_top" xlink:title="Convert text to QuantLib::Integer.">
<polygon fill="white" stroke="#666666" points="715,-712.007 601,-712.007 601,-693.007 715,-693.007 715,-712.007"/>
<text text-anchor="middle" x="658" y="-700.007" font-family="Helvetica,sans-Serif" font-size="10.00">ore::data::parseInteger</text>
</a>
</g>
</g>
<!-- Node7&#45;&gt;Node8 -->
<g id="edge8" class="edge"><title>Node7&#45;&gt;Node8</title>
<path fill="none" stroke="#63b8ff" d="M551.071,-690.401C563.797,-691.856 577.601,-693.433 590.911,-694.954"/>
<polygon fill="#63b8ff" stroke="#63b8ff" points="590.633,-698.445 600.966,-696.103 591.428,-691.491 590.633,-698.445"/>
</g>
<!-- Node9 -->
<g id="node9" class="node"><title>Node9</title>
<g id="a_node9"><a xlink:href="namespaceore_1_1data.html#a777e216dee6069b548bb87da7152699e" target="_top" xlink:title=" ">
<polygon fill="white" stroke="#666666" points="697.5,-675.007 618.5,-675.007 618.5,-656.007 697.5,-656.007 697.5,-675.007"/>
<text text-anchor="middle" x="658" y="-663.007" font-family="Helvetica,sans-Serif" font-size="10.00">ore::data::size</text>
</a>
</g>
</g>
<!-- Node7&#45;&gt;Node9 -->
<g id="edge10" class="edge"><title>Node7&#45;&gt;Node9</title>
<path fill="none" stroke="#63b8ff" d="M551.071,-678.286C569.456,-676.068 590.093,-673.579 608.234,-671.39"/>
<polygon fill="#63b8ff" stroke="#63b8ff" points="608.798,-674.848 618.307,-670.175 607.96,-667.898 608.798,-674.848"/>
</g>
<!-- Node8&#45;&gt;Node8 -->
<g id="edge9" class="edge"><title>Node8&#45;&gt;Node8</title>
<path fill="none" stroke="#63b8ff" d="M636.114,-712.09C625.466,-720.741 632.762,-730.007 658,-730.007 674.168,-730.007 682.973,-726.205 684.414,-721.197"/>
<polygon fill="#63b8ff" stroke="#63b8ff" points="687.472,-719.487 679.886,-712.09 681.204,-722.603 687.472,-719.487"/>
</g>
<!-- Node10&#45;&gt;Node5 -->
<g id="edge37" class="edge"><title>Node10&#45;&gt;Node5</title>
<path fill="none" stroke="#63b8ff" d="M205.857,-492.412C297.601,-462.538 501.989,-395.983 601.043,-363.729"/>
<polygon fill="#63b8ff" stroke="#63b8ff" points="602.155,-367.048 610.58,-360.623 599.987,-360.392 602.155,-367.048"/>
</g>
<!-- Node11 -->
<g id="node11" class="node"><title>Node11</title>
<g id="a_node11"><a xlink:href="classore_1_1data_1_1_leg_data.html#a7741ae0fc924943de5bfe02928262eb7" target="_top" xlink:title=" ">
<polygon fill="white" stroke="#666666" points="378,-301.507 281,-301.507 281,-271.507 378,-271.507 378,-301.507"/>
<text text-anchor="start" x="289" y="-289.507" font-family="Helvetica,sans-Serif" font-size="10.00">ore::data::LegData</text>
<text text-anchor="middle" x="329.5" y="-278.507" font-family="Helvetica,sans-Serif" font-size="10.00">::fromXML</text>
</a>
</g>
</g>
<!-- Node10&#45;&gt;Node11 -->
<g id="edge12" class="edge"><title>Node10&#45;&gt;Node11</title>
<path fill="none" stroke="#63b8ff" d="M171.116,-492.317C200.19,-454.297 276.243,-354.843 310.871,-309.561"/>
<polygon fill="#63b8ff" stroke="#63b8ff" points="313.732,-311.581 317.026,-301.512 308.171,-307.329 313.732,-311.581"/>
</g>
<!-- Node10&#45;&gt;Node15 -->
<g id="edge36" class="edge"><title>Node10&#45;&gt;Node15</title>
<path fill="none" stroke="#63b8ff" d="M213.882,-522.565C229.604,-526.25 246.873,-529.662 263,-531.507 321.728,-538.227 337.287,-538.354 396,-531.507 410.039,-529.87 424.952,-527 438.902,-523.801"/>
<polygon fill="#63b8ff" stroke="#63b8ff" points="439.948,-527.15 448.864,-521.427 438.325,-520.341 439.948,-527.15"/>
</g>
<!-- Node23 -->
<g id="node23" class="node"><title>Node23</title>
<g id="a_node23"><a xlink:href="classore_1_1data_1_1_x_m_l_utils.html#a7fedec5ac495a3e67a9abd7e4aae74aa" target="_top" xlink:title="Get a node&#39;s next sibling node.">
<polygon fill="white" stroke="#666666" points="379,-522.507 280,-522.507 280,-492.507 379,-492.507 379,-522.507"/>
<text text-anchor="start" x="288" y="-510.507" font-family="Helvetica,sans-Serif" font-size="10.00">ore::data::XMLUtils</text>
<text text-anchor="middle" x="329.5" y="-499.507" font-family="Helvetica,sans-Serif" font-size="10.00">::getNextSibling</text>
</a>
</g>
</g>
<!-- Node10&#45;&gt;Node23 -->
<g id="edge38" class="edge"><title>Node10&#45;&gt;Node23</title>
<path fill="none" stroke="#63b8ff" d="M227.265,-507.507C241.315,-507.507 256.008,-507.507 269.705,-507.507"/>
<polygon fill="#63b8ff" stroke="#63b8ff" points="269.958,-511.008 279.958,-507.507 269.958,-504.008 269.958,-511.008"/>
</g>
<!-- Node11&#45;&gt;Node3 -->
<g id="edge13" class="edge"><title>Node11&#45;&gt;Node3</title>
<path fill="none" stroke="#63b8ff" d="M335.031,-301.71C349.627,-349.806 396.533,-497.484 432,-531.507 434.524,-533.928 437.311,-536.108 440.271,-538.071"/>
<polygon fill="#63b8ff" stroke="#63b8ff" points="438.573,-541.132 448.993,-543.047 442.042,-535.052 438.573,-541.132"/>
</g>
<!-- Node11&#45;&gt;Node5 -->
<g id="edge21" class="edge"><title>Node11&#45;&gt;Node5</title>
<path fill="none" stroke="#63b8ff" d="M357.562,-301.685C377.489,-312.058 405.598,-325.054 432,-331.507 487.316,-345.028 552.433,-347.702 598.343,-347.491"/>
<polygon fill="#63b8ff" stroke="#63b8ff" points="598.45,-350.991 608.417,-347.398 598.385,-343.991 598.45,-350.991"/>
</g>
<!-- Node11&#45;&gt;Node6 -->
<g id="edge30" class="edge"><title>Node11&#45;&gt;Node6</title>
<path fill="none" stroke="#63b8ff" d="M347.752,-301.783C366.874,-317.729 399.345,-341.986 432,-353.507 536.192,-390.27 666.709,-393.392 740.848,-391.51"/>
<polygon fill="#63b8ff" stroke="#63b8ff" points="741.033,-395.006 750.926,-391.214 740.828,-388.009 741.033,-395.006"/>
</g>
<!-- Node12 -->
<g id="node12" class="node"><title>Node12</title>
<g id="a_node12"><a xlink:href="classore_1_1data_1_1_schedule_data.html#a7741ae0fc924943de5bfe02928262eb7" target="_top" xlink:title=" ">
<polygon fill="white" stroke="#666666" points="559.5,-112.507 437.5,-112.507 437.5,-82.5074 559.5,-82.5074 559.5,-112.507"/>
<text text-anchor="start" x="445.5" y="-100.507" font-family="Helvetica,sans-Serif" font-size="10.00">ore::data::ScheduleData</text>
<text text-anchor="middle" x="498.5" y="-89.5074" font-family="Helvetica,sans-Serif" font-size="10.00">::fromXML</text>
</a>
</g>
</g>
<!-- Node11&#45;&gt;Node12 -->
<g id="edge14" class="edge"><title>Node11&#45;&gt;Node12</title>
<path fill="none" stroke="#63b8ff" d="M336.563,-271.195C349.605,-240.023 383.152,-168.591 432,-126.507 435.904,-123.144 440.261,-120.109 444.821,-117.386"/>
<polygon fill="#63b8ff" stroke="#63b8ff" points="446.656,-120.372 453.775,-112.526 443.317,-114.22 446.656,-120.372"/>
</g>
<!-- Node13 -->
<g id="node13" class="node"><title>Node13</title>
<g id="a_node13"><a xlink:href="classore_1_1data_1_1_x_m_l_utils.html#a42678b2a0d7c4052dc19123914359ec1" target="_top" xlink:title="Returns all the children with a given name.">
<polygon fill="white" stroke="#666666" points="707.5,-155.507 608.5,-155.507 608.5,-125.507 707.5,-125.507 707.5,-155.507"/>
<text text-anchor="start" x="616.5" y="-143.507" font-family="Helvetica,sans-Serif" font-size="10.00">ore::data::XMLUtils</text>
<text text-anchor="middle" x="658" y="-132.507" font-family="Helvetica,sans-Serif" font-size="10.00">::getChildrenNodes</text>
</a>
</g>
</g>
<!-- Node11&#45;&gt;Node13 -->
<g id="edge18" class="edge"><title>Node11&#45;&gt;Node13</title>
<path fill="none" stroke="#63b8ff" d="M339.862,-271.22C355.606,-246.965 389.837,-200.105 432,-177.507 483.685,-149.806 550.891,-141.774 598.351,-139.924"/>
<polygon fill="#63b8ff" stroke="#63b8ff" points="598.578,-143.419 608.465,-139.611 598.361,-136.422 598.578,-143.419"/>
</g>
<!-- Node11&#45;&gt;Node15 -->
<g id="edge17" class="edge"><title>Node11&#45;&gt;Node15</title>
<path fill="none" stroke="#63b8ff" d="M339.125,-301.595C355.615,-329.949 393.418,-392.641 432,-440.507 444.8,-456.388 460.776,-472.786 473.744,-485.384"/>
<polygon fill="#63b8ff" stroke="#63b8ff" points="471.346,-487.934 480.986,-492.33 476.192,-482.882 471.346,-487.934"/>
</g>
<!-- Node16 -->
<g id="node16" class="node"><title>Node16</title>
<g id="a_node16"><a xlink:href="classore_1_1data_1_1_x_m_l_utils.html#aaf4e8600c620cb901bd271e3ec76d702" target="_top" xlink:title=" ">
<polygon fill="white" stroke="#666666" points="708.5,-446.507 607.5,-446.507 607.5,-416.507 708.5,-416.507 708.5,-446.507"/>
<text text-anchor="start" x="615.5" y="-434.507" font-family="Helvetica,sans-Serif" font-size="10.00">ore::data::XMLUtils</text>
<text text-anchor="middle" x="658" y="-423.507" font-family="Helvetica,sans-Serif" font-size="10.00">::getChildrenValues</text>
</a>
</g>
</g>
<!-- Node11&#45;&gt;Node16 -->
<g id="edge19" class="edge"><title>Node11&#45;&gt;Node16</title>
<path fill="none" stroke="#63b8ff" d="M338.785,-301.701C353.68,-327.368 387.613,-378.828 432,-402.507 483.152,-429.796 549.869,-435.291 597.34,-435.032"/>
<polygon fill="#63b8ff" stroke="#63b8ff" points="597.515,-438.53 607.465,-434.889 597.416,-431.531 597.515,-438.53"/>
</g>
<!-- Node17 -->
<g id="node17" class="node"><title>Node17</title>
<g id="a_node17"><a xlink:href="classore_1_1data_1_1_x_m_l_utils.html#a5dc9d9e82028f69de452d27da6b43db0" target="_top" xlink:title=" ">
<polygon fill="white" stroke="#666666" points="555.5,-322.507 441.5,-322.507 441.5,-292.507 555.5,-292.507 555.5,-322.507"/>
<text text-anchor="start" x="449.5" y="-310.507" font-family="Helvetica,sans-Serif" font-size="10.00">ore::data::XMLUtils</text>
<text text-anchor="middle" x="498.5" y="-299.507" font-family="Helvetica,sans-Serif" font-size="10.00">::getChildValueAsBool</text>
</a>
</g>
</g>
<!-- Node11&#45;&gt;Node17 -->
<g id="edge22" class="edge"><title>Node11&#45;&gt;Node17</title>
<path fill="none" stroke="#63b8ff" d="M378.355,-292.525C394.792,-294.592 413.497,-296.944 431.135,-299.162"/>
<polygon fill="#63b8ff" stroke="#63b8ff" points="431.014,-302.674 441.372,-300.449 431.887,-295.729 431.014,-302.674"/>
</g>
<!-- Node18 -->
<g id="node18" class="node"><title>Node18</title>
<g id="a_node18"><a xlink:href="group__utilities.html#ga94621f11193864fa1338296232dc5be9" target="_top" xlink:title="Convert text to bool.">
<polygon fill="white" stroke="#666666" points="710,-284.007 606,-284.007 606,-265.007 710,-265.007 710,-284.007"/>
<text text-anchor="middle" x="658" y="-272.007" font-family="Helvetica,sans-Serif" font-size="10.00">ore::data::parseBool</text>
</a>
</g>
</g>
<!-- Node11&#45;&gt;Node18 -->
<g id="edge34" class="edge"><title>Node11&#45;&gt;Node18</title>
<path fill="none" stroke="#63b8ff" d="M378.326,-284.75C435.876,-282.634 532.609,-279.079 595.618,-276.763"/>
<polygon fill="#63b8ff" stroke="#63b8ff" points="595.951,-280.254 605.815,-276.389 595.694,-273.258 595.951,-280.254"/>
</g>
<!-- Node19 -->
<g id="node19" class="node"><title>Node19</title>
<g id="a_node19"><a xlink:href="classore_1_1data_1_1_x_m_l_utils.html#a450d9b1fe5949d01160aeb42654d7f1d" target="_top" xlink:title=" ">
<polygon fill="white" stroke="#666666" points="561,-236.507 436,-236.507 436,-206.507 561,-206.507 561,-236.507"/>
<text text-anchor="start" x="444" y="-224.507" font-family="Helvetica,sans-Serif" font-size="10.00">ore::data::XMLUtils</text>
<text text-anchor="middle" x="498.5" y="-213.507" font-family="Helvetica,sans-Serif" font-size="10.00">::getChildValueAsDouble</text>
</a>
</g>
</g>
<!-- Node11&#45;&gt;Node19 -->
<g id="edge26" class="edge"><title>Node11&#45;&gt;Node19</title>
<path fill="none" stroke="#63b8ff" d="M369.233,-271.432C393.07,-262.154 423.819,-250.186 449.234,-240.293"/>
<polygon fill="#63b8ff" stroke="#63b8ff" points="450.639,-243.503 458.688,-236.614 448.1,-236.979 450.639,-243.503"/>
</g>
<!-- Node20 -->
<g id="node20" class="node"><title>Node20</title>
<g id="a_node20"><a xlink:href="group__utilities.html#gad1db2a68f9a73667c3b4084d63955bdd" target="_top" xlink:title="Convert text to Real.">
<polygon fill="white" stroke="#666666" points="710,-206.007 606,-206.007 606,-187.007 710,-187.007 710,-206.007"/>
<text text-anchor="middle" x="658" y="-194.007" font-family="Helvetica,sans-Serif" font-size="10.00">ore::data::parseReal</text>
</a>
</g>
</g>
<!-- Node11&#45;&gt;Node20 -->
<g id="edge35" class="edge"><title>Node11&#45;&gt;Node20</title>
<path fill="none" stroke="#63b8ff" d="M341.877,-271.23C358.777,-249.961 392.77,-212.37 432,-197.507 485.09,-177.393 550.418,-179.795 596.977,-185.63"/>
<polygon fill="#63b8ff" stroke="#63b8ff" points="596.534,-189.102 606.911,-186.963 597.465,-182.164 596.534,-189.102"/>
</g>
<!-- Node21 -->
<g id="node21" class="node"><title>Node21</title>
<g id="a_node21"><a xlink:href="classore_1_1data_1_1_leg_data.html#a58e282e54a30c37dab5b0403eede425d" target="_top" xlink:title=" ">
<polygon fill="white" stroke="#666666" points="565,-64.5074 432,-64.5074 432,-34.5074 565,-34.5074 565,-64.5074"/>
<text text-anchor="start" x="440" y="-52.5074" font-family="Helvetica,sans-Serif" font-size="10.00">ore::data::LegData</text>
<text text-anchor="middle" x="498.5" y="-41.5074" font-family="Helvetica,sans-Serif" font-size="10.00">::initialiseConcreteLegData</text>
</a>
</g>
</g>
<!-- Node11&#45;&gt;Node21 -->
<g id="edge31" class="edge"><title>Node11&#45;&gt;Node21</title>
<path fill="none" stroke="#63b8ff" d="M333.588,-271.247C342.175,-232.621 369.912,-130.047 432,-73.5074 433.293,-72.3301 434.648,-71.2093 436.055,-70.1423"/>
<polygon fill="#63b8ff" stroke="#63b8ff" points="438.111,-72.9807 444.595,-64.6018 434.301,-67.1083 438.111,-72.9807"/>
</g>
<!-- Node22 -->
<g id="node22" class="node"><title>Node22</title>
<g id="a_node22"><a xlink:href="classore_1_1data_1_1_leg_data.html#a81b9d9c795e1f72812f0da9b14382f4a" target="_top" xlink:title=" ">
<polygon fill="white" stroke="#666666" points="706.5,-40.5074 609.5,-40.5074 609.5,-10.5074 706.5,-10.5074 706.5,-40.5074"/>
<text text-anchor="start" x="617.5" y="-28.5074" font-family="Helvetica,sans-Serif" font-size="10.00">ore::data::LegData</text>
<text text-anchor="middle" x="658" y="-17.5074" font-family="Helvetica,sans-Serif" font-size="10.00">::legType</text>
</a>
</g>
</g>
<!-- Node11&#45;&gt;Node22 -->
<g id="edge33" class="edge"><title>Node11&#45;&gt;Node22</title>
<path fill="none" stroke="#63b8ff" d="M330.925,-271.185C333.149,-224.503 346.929,-83.7015 432,-25.5074 480.864,7.91856 550.731,1.76646 599.607,-8.81686"/>
<polygon fill="#63b8ff" stroke="#63b8ff" points="598.867,-12.238 609.396,-11.0558 600.428,-5.4142 598.867,-12.238"/>
</g>
<!-- Node12&#45;&gt;Node13 -->
<g id="edge15" class="edge"><title>Node12&#45;&gt;Node13</title>
<path fill="none" stroke="#63b8ff" d="M554.586,-112.547C568.785,-116.423 584.115,-120.609 598.482,-124.531"/>
<polygon fill="#63b8ff" stroke="#63b8ff" points="597.679,-127.94 608.248,-127.197 599.523,-121.187 597.679,-127.94"/>
</g>
<!-- Node14 -->
<g id="node14" class="node"><title>Node14</title>
<g id="a_node14"><a xlink:href="classore_1_1data_1_1_x_m_l_utils.html#a4e041c36cab0a16681fb41dfbd991882" target="_top" xlink:title="Get and set a node&#39;s name.">
<polygon fill="white" stroke="#666666" points="707.5,-107.507 608.5,-107.507 608.5,-77.5074 707.5,-77.5074 707.5,-107.507"/>
<text text-anchor="start" x="616.5" y="-95.5074" font-family="Helvetica,sans-Serif" font-size="10.00">ore::data::XMLUtils</text>
<text text-anchor="middle" x="658" y="-84.5074" font-family="Helvetica,sans-Serif" font-size="10.00">::getNodeName</text>
</a>
</g>
</g>
<!-- Node12&#45;&gt;Node14 -->
<g id="edge16" class="edge"><title>Node12&#45;&gt;Node14</title>
<path fill="none" stroke="#63b8ff" d="M559.943,-95.5886C572.413,-95.1927 585.532,-94.7762 597.952,-94.382"/>
<polygon fill="#63b8ff" stroke="#63b8ff" points="598.307,-97.8725 608.191,-94.0569 598.085,-90.8761 598.307,-97.8725"/>
</g>
<!-- Node16&#45;&gt;Node6 -->
<g id="edge20" class="edge"><title>Node16&#45;&gt;Node6</title>
<path fill="none" stroke="#63b8ff" d="M708.14,-416.468C718.682,-413.242 729.923,-409.801 740.786,-406.477"/>
<polygon fill="#63b8ff" stroke="#63b8ff" points="742.087,-409.739 750.625,-403.466 740.038,-403.045 742.087,-409.739"/>
</g>
<!-- Node17&#45;&gt;Node5 -->
<g id="edge23" class="edge"><title>Node17&#45;&gt;Node5</title>
<path fill="none" stroke="#63b8ff" d="M555.916,-321.119C569.696,-324.444 584.47,-328.008 598.351,-331.357"/>
<polygon fill="#63b8ff" stroke="#63b8ff" points="597.731,-334.808 608.273,-333.751 599.373,-328.003 597.731,-334.808"/>
</g>
<!-- Node17&#45;&gt;Node18 -->
<g id="edge24" class="edge"><title>Node17&#45;&gt;Node18</title>
<path fill="none" stroke="#63b8ff" d="M555.916,-295.687C570.762,-292.576 586.762,-289.224 601.555,-286.124"/>
<polygon fill="#63b8ff" stroke="#63b8ff" points="602.506,-289.501 611.576,-284.025 601.07,-282.65 602.506,-289.501"/>
</g>
<!-- Node18&#45;&gt;Node18 -->
<g id="edge25" class="edge"><title>Node18&#45;&gt;Node18</title>
<path fill="none" stroke="#63b8ff" d="M636.114,-284.09C625.466,-292.741 632.762,-302.007 658,-302.007 674.168,-302.007 682.973,-298.205 684.414,-293.197"/>
<polygon fill="#63b8ff" stroke="#63b8ff" points="687.472,-291.487 679.886,-284.09 681.204,-294.603 687.472,-291.487"/>
</g>
<!-- Node19&#45;&gt;Node5 -->
<g id="edge27" class="edge"><title>Node19&#45;&gt;Node5</title>
<path fill="none" stroke="#63b8ff" d="M515.001,-236.52C534.354,-254.92 568.837,-286.599 601,-310.507 607.664,-315.461 615.039,-320.413 622.19,-324.968"/>
<polygon fill="#63b8ff" stroke="#63b8ff" points="620.719,-328.175 631.057,-330.495 624.422,-322.235 620.719,-328.175"/>
</g>
<!-- Node19&#45;&gt;Node20 -->
<g id="edge28" class="edge"><title>Node19&#45;&gt;Node20</title>
<path fill="none" stroke="#63b8ff" d="M561.296,-211.699C572.513,-209.918 584.212,-208.061 595.422,-206.282"/>
<polygon fill="#63b8ff" stroke="#63b8ff" points="596.225,-209.698 605.553,-204.674 595.128,-202.785 596.225,-209.698"/>
</g>
<!-- Node20&#45;&gt;Node20 -->
<g id="edge29" class="edge"><title>Node20&#45;&gt;Node20</title>
<path fill="none" stroke="#63b8ff" d="M636.114,-206.09C625.466,-214.741 632.762,-224.007 658,-224.007 674.168,-224.007 682.973,-220.205 684.414,-215.197"/>
<polygon fill="#63b8ff" stroke="#63b8ff" points="687.472,-213.487 679.886,-206.09 681.204,-216.603 687.472,-213.487"/>
</g>
<!-- Node21&#45;&gt;Node22 -->
<g id="edge32" class="edge"><title>Node21&#45;&gt;Node22</title>
<path fill="none" stroke="#63b8ff" d="M565.382,-39.4683C576.611,-37.7571 588.2,-35.9913 599.2,-34.315"/>
<polygon fill="#63b8ff" stroke="#63b8ff" points="599.751,-37.7715 609.11,-32.8049 598.697,-30.8514 599.751,-37.7715"/>
</g>
</g>
</svg>
        <g id="navigator" transform="translate(0 0)" fill="#404254">
                <rect fill="#f2f5e9" fill-opacity="0.5" stroke="#606060" stroke-width=".5" x="0" y="0" width="60" height="60"/>
                <use id="zoomplus" xlink:href="#zoomPlus" x="17" y="9" onmousedown="handleZoom(evt,'in')"/>
                <use id="zoomminus" xlink:href="#zoomMin" x="42" y="9" onmousedown="handleZoom(evt,'out')"/>
                <use id="reset" xlink:href="#resetDef" x="30" y="36" onmousedown="handleReset()"/>
                <g id="arrowUp" xlink:href="#dirArrow" transform="translate(30 24)" onmousedown="handlePan(0,-1)">
                  <use xlink:href="#rim" fill="#404040">
                        <set attributeName="fill" to="#808080" begin="arrowUp.mouseover" end="arrowUp.mouseout"/>
                  </use>
                  <path fill="none" stroke="white" stroke-width="1.5" d="M0,-3.0v7 M-2.5,-0.5L0,-3.0L2.5,-0.5"/>
                </g>
                <g id="arrowRight" xlink:href="#dirArrow" transform="rotate(90) translate(36 -43)" onmousedown="handlePan(1,0)">
                  <use xlink:href="#rim" fill="#404040">
                        <set attributeName="fill" to="#808080" begin="arrowRight.mouseover" end="arrowRight.mouseout"/>
                  </use>
                  <path fill="none" stroke="white" stroke-width="1.5" d="M0,-3.0v7 M-2.5,-0.5L0,-3.0L2.5,-0.5"/>
                </g>
                <g id="arrowDown" xlink:href="#dirArrow" transform="rotate(180) translate(-30 -48)" onmousedown="handlePan(0,1)">
                  <use xlink:href="#rim" fill="#404040">
                        <set attributeName="fill" to="#808080" begin="arrowDown.mouseover" end="arrowDown.mouseout"/>
                  </use>
                  <path fill="none" stroke="white" stroke-width="1.5" d="M0,-3.0v7 M-2.5,-0.5L0,-3.0L2.5,-0.5"/>
                </g>
                <g id="arrowLeft" xlink:href="#dirArrow" transform="rotate(270) translate(-36 17)" onmousedown="handlePan(-1,0)">
                  <use xlink:href="#rim" fill="#404040">
                        <set attributeName="fill" to="#808080" begin="arrowLeft.mouseover" end="arrowLeft.mouseout"/>
                  </use>
                  <path fill="none" stroke="white" stroke-width="1.5" d="M0,-3.0v7 M-2.5,-0.5L0,-3.0L2.5,-0.5"/>
                </g>
        </g>
        <svg viewBox="0 0 15 15" width="100%" height="30px" preserveAspectRatio="xMaxYMin meet">
         <g id="arrow_out" transform="scale(0.3 0.3)">
          <a xlink:href="classore_1_1data_1_1_bond_reference_datum_a7741ae0fc924943de5bfe02928262eb7_cgraph_org.svg" target="_base">
           <rect id="button" ry="5" rx="5" y="6" x="6" height="38" width="38"
                fill="#f2f5e9" fill-opacity="0.5" stroke="#606060" stroke-width="1.0"/>
           <path id="arrow"
             d="M 11.500037,31.436501 C 11.940474,20.09759 22.043105,11.32322 32.158766,21.979434 L 37.068811,17.246167 C 37.068811,17.246167 37.088388,32 37.088388,32 L 22.160133,31.978069 C 22.160133,31.978069 26.997745,27.140456 26.997745,27.140456 C 18.528582,18.264221 13.291696,25.230495 11.500037,31.436501 z"
             style="fill:#404040;"/>
          </a>
         </g>
        </svg>
</svg>
