<?xml version="1.0" encoding="UTF-8" standalone="no"?>
<!DOCTYPE svg PUBLIC "-//W3C//DTD SVG 1.1//EN"
 "http://www.w3.org/Graphics/SVG/1.1/DTD/svg11.dtd">
<!-- Generated by graphviz version 2.38.0 (20140413.2041)
 -->
<!-- Title: CamAmcCurrencySwapEngineBuilder Pages: 1 -->
<svg width="1402pt" height="832pt"
 viewBox="0.00 0.00 1402.00 832.00" xmlns="http://www.w3.org/2000/svg" xmlns:xlink="http://www.w3.org/1999/xlink">
<g id="graph0" class="graph" transform="scale(1 1) rotate(0) translate(4 828)">
<title>CamAmcCurrencySwapEngineBuilder</title>
<!-- Node1 -->
<g id="node1" class="node"><title>Node1</title>
<g id="a_node1"><a xlink:title="Multileg option engine builder for external cam, with additional simulation dates (AMC)">
<polygon fill="#999999" stroke="#666666" points="1156,-74 992,-74 992,-0 1156,-0 1156,-74"/>
<text text-anchor="start" x="1000" y="-62" font-family="Helvetica,sans-Serif" font-size="10.00">{CamAmcCurrencySwapEngine</text>
<text text-anchor="middle" x="1074" y="-51" font-family="Helvetica,sans-Serif" font-size="10.00">Builder</text>
<text text-anchor="start" x="1000" y="-40" font-family="Helvetica,sans-Serif" font-size="10.00">||+ CamAmcCurrencySwapEngine</text>
<text text-anchor="start" x="1000" y="-29" font-family="Helvetica,sans-Serif" font-size="10.00">Builder()</text>
<text text-anchor="start" x="1000" y="-18" font-family="Helvetica,sans-Serif" font-size="10.00"># engineImpl()</text>
<text text-anchor="middle" x="1074" y="-7" font-family="Helvetica,sans-Serif" font-size="10.00">}</text>
</a>
</g>
</g>
<!-- Node2 -->
<g id="node2" class="node"><title>Node2</title>
<g id="a_node2"><a xlink:href="classore_1_1data_1_1_cross_currency_swap_engine_builder_base.html" target="_top" xlink:title="Engine Builder base class for Cross Currency Swaps.">
<polygon fill="white" stroke="#666666" points="931.5,-184 740.5,-184 740.5,-121 931.5,-121 931.5,-184"/>
<text text-anchor="middle" x="836" y="-172" font-family="Helvetica,sans-Serif" font-size="10.00">{CrossCurrencySwapEngineBuilderBase</text>
<text text-anchor="start" x="748.5" y="-161" font-family="Helvetica,sans-Serif" font-size="10.00">||+ CrossCurrencySwapEngineBuilder</text>
<text text-anchor="start" x="748.5" y="-150" font-family="Helvetica,sans-Serif" font-size="10.00">Base()</text>
<text text-anchor="start" x="748.5" y="-139" font-family="Helvetica,sans-Serif" font-size="10.00"># keyImpl()</text>
<text text-anchor="middle" x="836" y="-128" font-family="Helvetica,sans-Serif" font-size="10.00">}</text>
</a>
</g>
</g>
<!-- Node2&#45;&gt;Node1 -->
<g id="edge1" class="edge"><title>Node2&#45;&gt;Node1</title>
<path fill="none" stroke="#63b8ff" d="M909.13,-116.625C937.44,-103.124 969.839,-87.6732 998.381,-74.062"/>
<polygon fill="none" stroke="#63b8ff" points="907.612,-113.471 900.093,-120.935 910.625,-119.789 907.612,-113.471"/>
</g>
<!-- Node3 -->
<g id="node3" class="node"><title>Node3</title>
<g id="a_node3"><a xlink:href="classore_1_1data_1_1_caching_engine_builder.html" target="_top" xlink:title="Abstract template EngineBuilder class that can cache engines and coupon pricers.">
<polygon fill="white" stroke="#666666" points="868,-328 694,-328 694,-221 868,-221 868,-328"/>
<text text-anchor="start" x="702" y="-316" font-family="Helvetica,sans-Serif" font-size="10.00">{CachingPricingEngineBuilder</text>
<text text-anchor="start" x="702" y="-305" font-family="Helvetica,sans-Serif" font-size="10.00">&lt; string, const std::vector</text>
<text text-anchor="middle" x="781" y="-294" font-family="Helvetica,sans-Serif" font-size="10.00">&lt; Currency &gt; &amp;, const Currency &amp; &gt;</text>
<text text-anchor="start" x="702" y="-283" font-family="Helvetica,sans-Serif" font-size="10.00">||+ CachingEngineBuilder()</text>
<text text-anchor="start" x="702" y="-272" font-family="Helvetica,sans-Serif" font-size="10.00">+ engine()</text>
<text text-anchor="start" x="702" y="-261" font-family="Helvetica,sans-Serif" font-size="10.00">+ reset()</text>
<text text-anchor="start" x="702" y="-250" font-family="Helvetica,sans-Serif" font-size="10.00"># keyImpl()</text>
<text text-anchor="start" x="702" y="-239" font-family="Helvetica,sans-Serif" font-size="10.00"># engineImpl()</text>
<text text-anchor="middle" x="781" y="-228" font-family="Helvetica,sans-Serif" font-size="10.00">}</text>
</a>
</g>
</g>
<!-- Node3&#45;&gt;Node2 -->
<g id="edge2" class="edge"><title>Node3&#45;&gt;Node2</title>
<path fill="none" stroke="#63b8ff" d="M809.339,-211.67C813.741,-202.065 818.115,-192.523 822.008,-184.028"/>
<polygon fill="none" stroke="#63b8ff" points="806.109,-210.317 805.124,-220.866 812.472,-213.234 806.109,-210.317"/>
</g>
<!-- Node4 -->
<g id="node4" class="node"><title>Node4</title>
<g id="a_node4"><a xlink:href="classore_1_1data_1_1_engine_builder.html" target="_top" xlink:title="Base PricingEngine Builder class for a specific model and engine.">
<polygon fill="white" stroke="#666666" points="833.5,-516 728.5,-516 728.5,-365 833.5,-365 833.5,-516"/>
<text text-anchor="middle" x="781" y="-504" font-family="Helvetica,sans-Serif" font-size="10.00">{EngineBuilder</text>
<text text-anchor="start" x="736.5" y="-493" font-family="Helvetica,sans-Serif" font-size="10.00">||+ EngineBuilder()</text>
<text text-anchor="start" x="736.5" y="-482" font-family="Helvetica,sans-Serif" font-size="10.00">+ ~EngineBuilder()</text>
<text text-anchor="start" x="736.5" y="-471" font-family="Helvetica,sans-Serif" font-size="10.00">+ model()</text>
<text text-anchor="start" x="736.5" y="-460" font-family="Helvetica,sans-Serif" font-size="10.00">+ engine()</text>
<text text-anchor="start" x="736.5" y="-449" font-family="Helvetica,sans-Serif" font-size="10.00">+ tradeTypes()</text>
<text text-anchor="start" x="736.5" y="-438" font-family="Helvetica,sans-Serif" font-size="10.00">+ configuration()</text>
<text text-anchor="start" x="736.5" y="-427" font-family="Helvetica,sans-Serif" font-size="10.00">+ reset()</text>
<text text-anchor="start" x="736.5" y="-416" font-family="Helvetica,sans-Serif" font-size="10.00">+ init()</text>
<text text-anchor="start" x="736.5" y="-405" font-family="Helvetica,sans-Serif" font-size="10.00">+ modelBuilders()</text>
<text text-anchor="start" x="736.5" y="-394" font-family="Helvetica,sans-Serif" font-size="10.00">+ engineParameter()</text>
<text text-anchor="start" x="736.5" y="-383" font-family="Helvetica,sans-Serif" font-size="10.00">+ modelParameter()</text>
<text text-anchor="middle" x="781" y="-372" font-family="Helvetica,sans-Serif" font-size="10.00">}</text>
</a>
</g>
</g>
<!-- Node4&#45;&gt;Node3 -->
<g id="edge3" class="edge"><title>Node4&#45;&gt;Node3</title>
<path fill="none" stroke="#63b8ff" d="M781,-354.555C781,-345.568 781,-336.628 781,-328.168"/>
<polygon fill="none" stroke="#63b8ff" points="777.5,-354.699 781,-364.699 784.5,-354.699 777.5,-354.699"/>
</g>
<!-- Node5 -->
<g id="node5" class="node"><title>Node5</title>
<g id="a_node5"><a xlink:title=" ">
<polygon fill="white" stroke="#666666" points="1055,-736 1011,-736 1011,-706 1055,-706 1055,-736"/>
<text text-anchor="middle" x="1033" y="-724" font-family="Helvetica,sans-Serif" font-size="10.00">{string</text>
<text text-anchor="middle" x="1033" y="-713" font-family="Helvetica,sans-Serif" font-size="10.00">||}</text>
</a>
</g>
</g>
<!-- Node5&#45;&gt;Node4 -->
<g id="edge4" class="edge"><title>Node5&#45;&gt;Node4</title>
<path fill="none" stroke="#404040" d="M1055.11,-718.189C1080.49,-714.793 1121.05,-705.032 1140,-677 1152.62,-658.329 1134.21,-589.163 1127,-574 1078.14,-471.303 931.733,-447.259 845.824,-442.211"/>
<polygon fill="none" stroke="#404040" points="845.591,-442.199 839.398,-445.893 833.606,-441.597 839.799,-437.903 845.591,-442.199"/>
<text text-anchor="middle" x="1163.5" y="-603" font-family="Helvetica,sans-Serif" font-size="10.00"> #engine_</text>
<text text-anchor="middle" x="1163.5" y="-592" font-family="Helvetica,sans-Serif" font-size="10.00">#model_</text>
</g>
<!-- Node7 -->
<g id="node7" class="node"><title>Node7</title>
<g id="a_node7"><a xlink:title=" ">
<polygon fill="white" stroke="#666666" points="707.5,-615 632.5,-615 632.5,-585 707.5,-585 707.5,-615"/>
<text text-anchor="middle" x="670" y="-603" font-family="Helvetica,sans-Serif" font-size="10.00">{set&lt; string &gt;</text>
<text text-anchor="middle" x="670" y="-592" font-family="Helvetica,sans-Serif" font-size="10.00">||}</text>
</a>
</g>
</g>
<!-- Node5&#45;&gt;Node7 -->
<g id="edge7" class="edge"><title>Node5&#45;&gt;Node7</title>
<path fill="none" stroke="#404040" d="M1010.93,-719.081C935.302,-715.709 689.987,-702.845 667,-677 655.112,-663.633 656.646,-643.131 660.725,-626.789"/>
<polygon fill="none" stroke="#404040" points="660.726,-626.787 658.611,-619.893 664.161,-615.289 666.276,-622.183 660.726,-626.787"/>
<text text-anchor="middle" x="682.5" y="-658" font-family="Helvetica,sans-Serif" font-size="10.00"> +keys</text>
</g>
<!-- Node11 -->
<g id="node11" class="node"><title>Node11</title>
<g id="a_node11"><a xlink:title=" ">
<polygon fill="white" stroke="#666666" points="1118,-620.5 1004,-620.5 1004,-579.5 1118,-579.5 1118,-620.5"/>
<text text-anchor="start" x="1012" y="-608.5" font-family="Helvetica,sans-Serif" font-size="10.00">{map&lt; MarketContext,</text>
<text text-anchor="middle" x="1061" y="-597.5" font-family="Helvetica,sans-Serif" font-size="10.00"> string &gt;</text>
<text text-anchor="middle" x="1061" y="-586.5" font-family="Helvetica,sans-Serif" font-size="10.00">||}</text>
</a>
</g>
</g>
<!-- Node5&#45;&gt;Node11 -->
<g id="edge13" class="edge"><title>Node5&#45;&gt;Node11</title>
<path fill="none" stroke="#404040" d="M1055.23,-707.242C1065.74,-699.886 1077.22,-689.591 1083,-677 1089.58,-662.663 1085.83,-645.894 1079.69,-631.761"/>
<polygon fill="none" stroke="#404040" points="1079.49,-631.364 1073.24,-627.774 1074.15,-620.62 1080.4,-624.211 1079.49,-631.364"/>
<text text-anchor="middle" x="1111.5" y="-658" font-family="Helvetica,sans-Serif" font-size="10.00"> +elements</text>
</g>
<!-- Node15 -->
<g id="node15" class="node"><title>Node15</title>
<g id="a_node15"><a xlink:title=" ">
<polygon fill="white" stroke="#666666" points="836,-615 726,-615 726,-585 836,-585 836,-615"/>
<text text-anchor="middle" x="781" y="-603" font-family="Helvetica,sans-Serif" font-size="10.00">{map&lt; string, string &gt;</text>
<text text-anchor="middle" x="781" y="-592" font-family="Helvetica,sans-Serif" font-size="10.00">||}</text>
</a>
</g>
</g>
<!-- Node5&#45;&gt;Node15 -->
<g id="edge18" class="edge"><title>Node5&#45;&gt;Node15</title>
<path fill="none" stroke="#404040" d="M1010.96,-717.781C963.56,-712.646 853.796,-698.698 824,-677 814.874,-670.354 801.813,-645.718 792.484,-626.274"/>
<polygon fill="none" stroke="#404040" points="792.445,-626.19 786.277,-622.453 787.354,-615.323 793.521,-619.059 792.445,-626.19"/>
<text text-anchor="middle" x="848.5" y="-663.5" font-family="Helvetica,sans-Serif" font-size="10.00"> +elements</text>
<text text-anchor="middle" x="848.5" y="-652.5" font-family="Helvetica,sans-Serif" font-size="10.00">+keys</text>
</g>
<!-- Node16 -->
<g id="node16" class="node"><title>Node16</title>
<g id="a_node16"><a xlink:title=" ">
<polygon fill="white" stroke="#666666" points="964,-620.5 854,-620.5 854,-579.5 964,-579.5 964,-620.5"/>
<text text-anchor="start" x="862" y="-608.5" font-family="Helvetica,sans-Serif" font-size="10.00">{map&lt; std::string, std</text>
<text text-anchor="middle" x="909" y="-597.5" font-family="Helvetica,sans-Serif" font-size="10.00">::string &gt;</text>
<text text-anchor="middle" x="909" y="-586.5" font-family="Helvetica,sans-Serif" font-size="10.00">||}</text>
</a>
</g>
</g>
<!-- Node5&#45;&gt;Node16 -->
<g id="edge21" class="edge"><title>Node5&#45;&gt;Node16</title>
<path fill="none" stroke="#404040" d="M1032.47,-705.94C1031.13,-689.239 1026.52,-661.451 1011,-644 1001.37,-633.173 988.57,-624.994 975.296,-618.842"/>
<polygon fill="none" stroke="#404040" points="975.159,-618.784 968.078,-620.148 964.095,-614.137 971.176,-612.773 975.159,-618.784"/>
<text text-anchor="middle" x="1052.5" y="-663.5" font-family="Helvetica,sans-Serif" font-size="10.00"> +elements</text>
<text text-anchor="middle" x="1052.5" y="-652.5" font-family="Helvetica,sans-Serif" font-size="10.00">+keys</text>
</g>
<!-- Node6 -->
<g id="node6" class="node"><title>Node6</title>
<g id="a_node6"><a xlink:title=" ">
<polygon fill="white" stroke="#666666" points="1088,-824 978,-824 978,-794 1088,-794 1088,-824"/>
<text text-anchor="middle" x="1033" y="-812" font-family="Helvetica,sans-Serif" font-size="10.00">{basic_string&lt; Char &gt;</text>
<text text-anchor="middle" x="1033" y="-801" font-family="Helvetica,sans-Serif" font-size="10.00">||}</text>
</a>
</g>
</g>
<!-- Node6&#45;&gt;Node5 -->
<g id="edge5" class="edge"><title>Node6&#45;&gt;Node5</title>
<path fill="none" stroke="#63b8ff" d="M1033,-783.49C1033,-768.198 1033,-749.051 1033,-736.222"/>
<polygon fill="none" stroke="#63b8ff" points="1029.5,-783.799 1033,-793.799 1036.5,-783.799 1029.5,-783.799"/>
</g>
<!-- Node7&#45;&gt;Node4 -->
<g id="edge6" class="edge"><title>Node7&#45;&gt;Node4</title>
<path fill="none" stroke="#404040" d="M679.774,-584.758C688.851,-571.562 702.767,-551.405 715,-534 717.115,-530.99 719.273,-527.928 721.455,-524.837"/>
<polygon fill="none" stroke="#404040" points="721.557,-524.693 721.756,-517.485 728.487,-514.897 728.287,-522.105 721.557,-524.693"/>
<text text-anchor="middle" x="746" y="-542.5" font-family="Helvetica,sans-Serif" font-size="10.00"> #tradeTypes_</text>
</g>
<!-- Node8 -->
<g id="node8" class="node"><title>Node8</title>
<g id="a_node8"><a xlink:title=" ">
<polygon fill="white" stroke="#666666" points="389,-736 331,-736 331,-706 389,-706 389,-736"/>
<text text-anchor="middle" x="360" y="-724" font-family="Helvetica,sans-Serif" font-size="10.00">{set&lt; K &gt;</text>
<text text-anchor="middle" x="360" y="-713" font-family="Helvetica,sans-Serif" font-size="10.00">||}</text>
</a>
</g>
</g>
<!-- Node8&#45;&gt;Node7 -->
<g id="edge8" class="edge"><title>Node8&#45;&gt;Node7</title>
<path fill="none" stroke="orange" d="M367.657,-696.196C374.546,-676.371 384.947,-650.385 394,-644 435.714,-614.578 573.994,-640.286 623,-626 631.518,-623.517 640.257,-619.381 647.853,-615.18"/>
<polygon fill="orange" stroke="orange" points="364.275,-695.271 364.4,-705.865 370.909,-697.505 364.275,-695.271"/>
<text text-anchor="middle" x="417" y="-658" font-family="Helvetica,sans-Serif" font-size="10.00"> &lt; string &gt;</text>
</g>
<!-- Node17 -->
<g id="node17" class="node"><title>Node17</title>
<g id="a_node17"><a xlink:title=" ">
<polygon fill="white" stroke="#666666" points="375.5,-626 202.5,-626 202.5,-574 375.5,-574 375.5,-626"/>
<text text-anchor="start" x="210.5" y="-614" font-family="Helvetica,sans-Serif" font-size="10.00">{set&lt; std::pair&lt; string,</text>
<text text-anchor="start" x="210.5" y="-603" font-family="Helvetica,sans-Serif" font-size="10.00"> QuantLib::ext::shared</text>
<text text-anchor="middle" x="289" y="-592" font-family="Helvetica,sans-Serif" font-size="10.00">_ptr&lt; QuantExt::ModelBuilder &gt; &gt; &gt;</text>
<text text-anchor="middle" x="289" y="-581" font-family="Helvetica,sans-Serif" font-size="10.00">||}</text>
</a>
</g>
</g>
<!-- Node8&#45;&gt;Node17 -->
<g id="edge25" class="edge"><title>Node8&#45;&gt;Node17</title>
<path fill="none" stroke="orange" d="M333.224,-700.458C329.574,-698.376 325.78,-696.481 322,-695 276.693,-677.243 245.454,-714.13 214,-677 204.52,-665.809 206.648,-656.691 214,-644 217.988,-637.117 223.539,-631.241 229.835,-626.25"/>
<polygon fill="orange" stroke="orange" points="331.576,-703.556 341.911,-705.891 335.288,-697.621 331.576,-703.556"/>
<text text-anchor="start" x="214" y="-669" font-family="Helvetica,sans-Serif" font-size="10.00"> &lt; std::pair&lt; string,</text>
<text text-anchor="start" x="214" y="-658" font-family="Helvetica,sans-Serif" font-size="10.00"> QuantLib::ext::shared</text>
<text text-anchor="middle" x="292.5" y="-647" font-family="Helvetica,sans-Serif" font-size="10.00">_ptr&lt; QuantExt::ModelBuilder &gt; &gt; &gt;</text>
</g>
<!-- Node9 -->
<g id="node9" class="node"><title>Node9</title>
<g id="a_node9"><a xlink:title=" ">
<polygon fill="white" stroke="#666666" points="67.5,-824 38.5,-824 38.5,-794 67.5,-794 67.5,-824"/>
<text text-anchor="middle" x="53" y="-812" font-family="Helvetica,sans-Serif" font-size="10.00">{K</text>
<text text-anchor="middle" x="53" y="-801" font-family="Helvetica,sans-Serif" font-size="10.00">||}</text>
</a>
</g>
</g>
<!-- Node9&#45;&gt;Node8 -->
<g id="edge9" class="edge"><title>Node9&#45;&gt;Node8</title>
<path fill="none" stroke="#404040" d="M38.2982,-796.519C28.225,-787.306 18.1527,-774.404 27,-765 49.5023,-741.083 290.843,-757.374 322,-747 325.557,-745.816 329.101,-744.211 332.515,-742.383"/>
<polygon fill="none" stroke="#404040" points="332.619,-742.318 335.627,-735.765 342.834,-736.02 339.826,-742.574 332.619,-742.318"/>
<text text-anchor="middle" x="42.5" y="-768" font-family="Helvetica,sans-Serif" font-size="10.00"> +keys</text>
</g>
<!-- Node13 -->
<g id="node13" class="node"><title>Node13</title>
<g id="a_node13"><a xlink:title=" ">
<polygon fill="white" stroke="#666666" points="608,-736 534,-736 534,-706 608,-706 608,-736"/>
<text text-anchor="middle" x="571" y="-724" font-family="Helvetica,sans-Serif" font-size="10.00">{map&lt; K, T &gt;</text>
<text text-anchor="middle" x="571" y="-713" font-family="Helvetica,sans-Serif" font-size="10.00">||}</text>
</a>
</g>
</g>
<!-- Node9&#45;&gt;Node13 -->
<g id="edge15" class="edge"><title>Node9&#45;&gt;Node13</title>
<path fill="none" stroke="#404040" d="M67.6683,-805.565C134.082,-794.538 408.269,-749.017 521.617,-730.199"/>
<polygon fill="none" stroke="#404040" points="521.829,-730.164 527.093,-725.235 533.667,-728.198 528.404,-733.127 521.829,-730.164"/>
<text text-anchor="middle" x="327.5" y="-768" font-family="Helvetica,sans-Serif" font-size="10.00"> +keys</text>
</g>
<!-- Node10 -->
<g id="node10" class="node"><title>Node10</title>
<g id="a_node10"><a xlink:title=" ">
<polygon fill="white" stroke="#666666" points="614.5,-620.5 501.5,-620.5 501.5,-579.5 614.5,-579.5 614.5,-620.5"/>
<text text-anchor="start" x="509.5" y="-608.5" font-family="Helvetica,sans-Serif" font-size="10.00">{shared_ptr&lt; ore::data</text>
<text text-anchor="middle" x="558" y="-597.5" font-family="Helvetica,sans-Serif" font-size="10.00">::Market &gt;</text>
<text text-anchor="middle" x="558" y="-586.5" font-family="Helvetica,sans-Serif" font-size="10.00">||}</text>
</a>
</g>
</g>
<!-- Node10&#45;&gt;Node4 -->
<g id="edge10" class="edge"><title>Node10&#45;&gt;Node4</title>
<path fill="none" stroke="#404040" d="M585.792,-579.371C618.721,-556.114 674.604,-516.645 718.161,-485.881"/>
<polygon fill="none" stroke="#404040" points="718.297,-485.786 720.891,-479.057 728.099,-478.863 725.506,-485.591 718.297,-485.786"/>
<text text-anchor="middle" x="672" y="-542.5" font-family="Helvetica,sans-Serif" font-size="10.00"> #market_</text>
</g>
<!-- Node11&#45;&gt;Node4 -->
<g id="edge11" class="edge"><title>Node11&#45;&gt;Node4</title>
<path fill="none" stroke="#404040" d="M1041.58,-579.358C1027.14,-565.478 1006.47,-547.089 986,-534 941.501,-505.541 886.785,-481.329 845.078,-464.823"/>
<polygon fill="none" stroke="#404040" points="844.857,-464.737 837.814,-466.282 833.678,-460.375 840.722,-458.83 844.857,-464.737"/>
<text text-anchor="middle" x="1052" y="-542.5" font-family="Helvetica,sans-Serif" font-size="10.00"> #configurations_</text>
</g>
<!-- Node12 -->
<g id="node12" class="node"><title>Node12</title>
<g id="a_node12"><a xlink:title=" ">
<polygon fill="white" stroke="#666666" points="1231.5,-736 1148.5,-736 1148.5,-706 1231.5,-706 1231.5,-736"/>
<text text-anchor="middle" x="1190" y="-724" font-family="Helvetica,sans-Serif" font-size="10.00">{MarketContext</text>
<text text-anchor="middle" x="1190" y="-713" font-family="Helvetica,sans-Serif" font-size="10.00">||}</text>
</a>
</g>
</g>
<!-- Node12&#45;&gt;Node11 -->
<g id="edge12" class="edge"><title>Node12&#45;&gt;Node11</title>
<path fill="none" stroke="#404040" d="M1183.41,-705.894C1175.14,-689.403 1159.64,-662.07 1140,-644 1133.05,-637.608 1124.98,-631.836 1116.7,-626.748"/>
<polygon fill="none" stroke="#404040" points="1116.56,-626.671 1109.37,-627.138 1106.17,-620.675 1113.36,-620.208 1116.56,-626.671"/>
<text text-anchor="middle" x="1182.5" y="-658" font-family="Helvetica,sans-Serif" font-size="10.00"> +keys</text>
</g>
<!-- Node13&#45;&gt;Node11 -->
<g id="edge14" class="edge"><title>Node13&#45;&gt;Node11</title>
<path fill="none" stroke="orange" d="M618.098,-718.264C692.351,-714.716 832.366,-704.497 873,-677 887.016,-667.515 878.36,-654.019 892,-644 921.722,-622.168 937.248,-635.043 973,-626 983.008,-623.469 993.608,-620.611 1003.85,-617.756"/>
<polygon fill="orange" stroke="orange" points="617.905,-714.769 608.075,-718.721 618.224,-721.762 617.905,-714.769"/>
<text text-anchor="middle" x="949.5" y="-658" font-family="Helvetica,sans-Serif" font-size="10.00"> &lt; MarketContext, string &gt;</text>
</g>
<!-- Node13&#45;&gt;Node15 -->
<g id="edge19" class="edge"><title>Node13&#45;&gt;Node15</title>
<path fill="none" stroke="orange" d="M563.863,-695.906C560.542,-679.291 559.659,-657.796 572,-644 593.501,-619.965 684.72,-633.846 716,-626 727.024,-623.235 738.716,-619.13 749.099,-615.041"/>
<polygon fill="orange" stroke="orange" points="560.545,-697.083 566.282,-705.99 567.352,-695.45 560.545,-697.083"/>
<text text-anchor="middle" x="610" y="-658" font-family="Helvetica,sans-Serif" font-size="10.00"> &lt; string, string &gt;</text>
</g>
<!-- Node13&#45;&gt;Node16 -->
<g id="edge22" class="edge"><title>Node13&#45;&gt;Node16</title>
<path fill="none" stroke="orange" d="M617.996,-712.681C644.763,-706.647 677.698,-695.885 702,-677 715.727,-666.333 708.414,-653.458 723,-644 768.987,-614.18 792.025,-640.061 845,-626 850.765,-624.47 856.719,-622.584 862.569,-620.539"/>
<polygon fill="orange" stroke="orange" points="617.135,-709.286 608.07,-714.77 618.577,-716.136 617.135,-709.286"/>
<text text-anchor="start" x="723" y="-663.5" font-family="Helvetica,sans-Serif" font-size="10.00"> &lt; std::string, std</text>
<text text-anchor="middle" x="761" y="-652.5" font-family="Helvetica,sans-Serif" font-size="10.00">::string &gt;</text>
</g>
<!-- Node19 -->
<g id="node19" class="node"><title>Node19</title>
<g id="a_node19"><a xlink:title=" ">
<polygon fill="white" stroke="#666666" points="184.5,-620.5 67.5,-620.5 67.5,-579.5 184.5,-579.5 184.5,-620.5"/>
<text text-anchor="start" x="75.5" y="-608.5" font-family="Helvetica,sans-Serif" font-size="10.00">{map&lt; T, QuantLib::ext</text>
<text text-anchor="middle" x="126" y="-597.5" font-family="Helvetica,sans-Serif" font-size="10.00">::shared_ptr&lt; U &gt; &gt;</text>
<text text-anchor="middle" x="126" y="-586.5" font-family="Helvetica,sans-Serif" font-size="10.00">||}</text>
</a>
</g>
</g>
<!-- Node13&#45;&gt;Node19 -->
<g id="edge29" class="edge"><title>Node13&#45;&gt;Node19</title>
<path fill="none" stroke="orange" d="M524.582,-704.207C507.289,-697.226 487.992,-688.065 472,-677 455.199,-665.376 458.512,-652.642 440,-644 390.132,-620.72 246.768,-637.738 193,-626 186.571,-624.597 179.933,-622.703 173.447,-620.582"/>
<polygon fill="orange" stroke="orange" points="523.361,-707.488 533.949,-707.86 525.904,-700.966 523.361,-707.488"/>
<text text-anchor="start" x="472" y="-663.5" font-family="Helvetica,sans-Serif" font-size="10.00"> &lt; T, QuantLib::ext</text>
<text text-anchor="middle" x="515" y="-652.5" font-family="Helvetica,sans-Serif" font-size="10.00">::shared_ptr&lt; U &gt; &gt;</text>
</g>
<!-- Node14 -->
<g id="node14" class="node"><title>Node14</title>
<g id="a_node14"><a xlink:title=" ">
<polygon fill="white" stroke="#666666" points="585.5,-824 556.5,-824 556.5,-794 585.5,-794 585.5,-824"/>
<text text-anchor="middle" x="571" y="-812" font-family="Helvetica,sans-Serif" font-size="10.00">{T</text>
<text text-anchor="middle" x="571" y="-801" font-family="Helvetica,sans-Serif" font-size="10.00">||}</text>
</a>
</g>
</g>
<!-- Node14&#45;&gt;Node13 -->
<g id="edge16" class="edge"><title>Node14&#45;&gt;Node13</title>
<path fill="none" stroke="#404040" d="M571,-793.799C571,-781.475 571,-763.309 571,-748.334"/>
<polygon fill="none" stroke="#404040" points="571,-748.222 567,-742.222 571,-736.222 575,-742.222 571,-748.222"/>
<text text-anchor="middle" x="595.5" y="-768" font-family="Helvetica,sans-Serif" font-size="10.00"> +elements</text>
</g>
<!-- Node14&#45;&gt;Node19 -->
<g id="edge27" class="edge"><title>Node14&#45;&gt;Node19</title>
<path fill="none" stroke="#404040" d="M556.401,-808.302C487.245,-809.402 193.532,-810.249 135,-747 106.829,-716.559 110.94,-665.536 117.608,-632.582"/>
<polygon fill="none" stroke="#404040" points="117.692,-632.211 115.108,-625.479 120.329,-620.504 122.913,-627.237 117.692,-632.211"/>
<text text-anchor="middle" x="150.5" y="-718.5" font-family="Helvetica,sans-Serif" font-size="10.00"> +keys</text>
</g>
<!-- Node24 -->
<g id="node24" class="node"><title>Node24</title>
<g id="a_node24"><a xlink:title=" ">
<polygon fill="white" stroke="#666666" points="1318,-736 1250,-736 1250,-706 1318,-706 1318,-736"/>
<text text-anchor="middle" x="1284" y="-724" font-family="Helvetica,sans-Serif" font-size="10.00">{vector&lt; T &gt;</text>
<text text-anchor="middle" x="1284" y="-713" font-family="Helvetica,sans-Serif" font-size="10.00">||}</text>
</a>
</g>
</g>
<!-- Node14&#45;&gt;Node24 -->
<g id="edge34" class="edge"><title>Node14&#45;&gt;Node24</title>
<path fill="none" stroke="#404040" d="M585.773,-807.502C672.088,-804.464 1111.74,-787.211 1240,-747 1244.28,-745.66 1248.59,-743.861 1252.77,-741.84"/>
<polygon fill="none" stroke="#404040" points="1252.79,-741.828 1256.17,-735.46 1263.35,-736.133 1259.97,-742.501 1252.79,-741.828"/>
<text text-anchor="middle" x="1170.5" y="-768" font-family="Helvetica,sans-Serif" font-size="10.00"> +elements</text>
</g>
<!-- Node15&#45;&gt;Node4 -->
<g id="edge17" class="edge"><title>Node15&#45;&gt;Node4</title>
<path fill="none" stroke="#404040" d="M781,-584.745C781,-571.456 781,-550.447 781,-528.571"/>
<polygon fill="none" stroke="#404040" points="781,-528.373 777,-522.373 781,-516.373 785,-522.373 781,-528.373"/>
<text text-anchor="middle" x="827.5" y="-548" font-family="Helvetica,sans-Serif" font-size="10.00"> #engineParameters_</text>
<text text-anchor="middle" x="827.5" y="-537" font-family="Helvetica,sans-Serif" font-size="10.00">#modelParameters_</text>
</g>
<!-- Node16&#45;&gt;Node4 -->
<g id="edge20" class="edge"><title>Node16&#45;&gt;Node4</title>
<path fill="none" stroke="#404040" d="M901.883,-579.497C896.46,-566.026 888.197,-548.072 878,-534 867.738,-519.839 855.141,-506.02 842.465,-493.563"/>
<polygon fill="none" stroke="#404040" points="842.369,-493.471 835.269,-492.208 833.704,-485.169 840.803,-486.431 842.369,-493.471"/>
<text text-anchor="middle" x="937" y="-542.5" font-family="Helvetica,sans-Serif" font-size="10.00"> #globalParameters_</text>
</g>
<!-- Node17&#45;&gt;Node4 -->
<g id="edge23" class="edge"><title>Node17&#45;&gt;Node4</title>
<path fill="none" stroke="#404040" d="M367.231,-573.957C464.016,-542.973 626.977,-490.806 716.789,-462.055"/>
<polygon fill="none" stroke="#404040" points="717.002,-461.987 721.497,-456.348 728.431,-458.329 723.936,-463.967 717.002,-461.987"/>
<text text-anchor="middle" x="529" y="-542.5" font-family="Helvetica,sans-Serif" font-size="10.00"> #modelBuilders_</text>
</g>
<!-- Node18 -->
<g id="node18" class="node"><title>Node18</title>
<g id="a_node18"><a xlink:title=" ">
<polygon fill="white" stroke="#666666" points="313,-747 175,-747 175,-695 313,-695 313,-747"/>
<text text-anchor="start" x="183" y="-735" font-family="Helvetica,sans-Serif" font-size="10.00">{pair&lt; string, QuantLib</text>
<text text-anchor="start" x="183" y="-724" font-family="Helvetica,sans-Serif" font-size="10.00">::ext::shared_ptr&lt; QuantExt</text>
<text text-anchor="middle" x="244" y="-713" font-family="Helvetica,sans-Serif" font-size="10.00">::ModelBuilder &gt; &gt;</text>
<text text-anchor="middle" x="244" y="-702" font-family="Helvetica,sans-Serif" font-size="10.00">||}</text>
</a>
</g>
</g>
<!-- Node18&#45;&gt;Node17 -->
<g id="edge24" class="edge"><title>Node18&#45;&gt;Node17</title>
<path fill="none" stroke="#404040" d="M176.663,-694.856C170.082,-689.887 164.273,-683.988 160,-677 152.348,-664.487 151.424,-655.898 160,-644 162.594,-640.402 174.783,-635.21 190.71,-629.671"/>
<polygon fill="none" stroke="#404040" points="190.884,-629.612 195.3,-623.912 202.261,-625.796 197.845,-631.496 190.884,-629.612"/>
<text text-anchor="middle" x="175.5" y="-658" font-family="Helvetica,sans-Serif" font-size="10.00"> +keys</text>
</g>
<!-- Node19&#45;&gt;Node3 -->
<g id="edge26" class="edge"><title>Node19&#45;&gt;Node3</title>
<path fill="none" stroke="#404040" d="M165.498,-579.492C266.483,-529.616 536.441,-396.286 683.025,-323.889"/>
<polygon fill="none" stroke="#404040" points="683.034,-323.885 686.642,-317.641 693.793,-318.571 690.185,-324.814 683.034,-323.885"/>
<text text-anchor="middle" x="623" y="-438" font-family="Helvetica,sans-Serif" font-size="10.00"> #engines_</text>
</g>
<!-- Node20 -->
<g id="node20" class="node"><title>Node20</title>
<g id="a_node20"><a xlink:title=" ">
<polygon fill="white" stroke="#666666" points="90,-736 0,-736 0,-706 90,-706 90,-736"/>
<text text-anchor="middle" x="45" y="-724" font-family="Helvetica,sans-Serif" font-size="10.00">{shared_ptr&lt; U &gt;</text>
<text text-anchor="middle" x="45" y="-713" font-family="Helvetica,sans-Serif" font-size="10.00">||}</text>
</a>
</g>
</g>
<!-- Node20&#45;&gt;Node19 -->
<g id="edge28" class="edge"><title>Node20&#45;&gt;Node19</title>
<path fill="none" stroke="#404040" d="M45.3441,-705.887C46.3764,-689.637 50.0958,-662.772 63,-644 67.0848,-638.058 72.2822,-632.698 77.9342,-627.941"/>
<polygon fill="none" stroke="#404040" points="78.1882,-627.749 80.5606,-620.94 87.7589,-620.51 85.3866,-627.32 78.1882,-627.749"/>
<text text-anchor="middle" x="87.5" y="-658" font-family="Helvetica,sans-Serif" font-size="10.00"> +elements</text>
</g>
<!-- Node21 -->
<g id="node21" class="node"><title>Node21</title>
<g id="a_node21"><a xlink:title=" ">
<polygon fill="white" stroke="#666666" points="1132,-173 1016,-173 1016,-132 1132,-132 1132,-173"/>
<text text-anchor="start" x="1024" y="-161" font-family="Helvetica,sans-Serif" font-size="10.00">{shared_ptr&lt; QuantExt</text>
<text text-anchor="middle" x="1074" y="-150" font-family="Helvetica,sans-Serif" font-size="10.00">::CrossAssetModel &gt;</text>
<text text-anchor="middle" x="1074" y="-139" font-family="Helvetica,sans-Serif" font-size="10.00">||}</text>
</a>
</g>
</g>
<!-- Node21&#45;&gt;Node1 -->
<g id="edge30" class="edge"><title>Node21&#45;&gt;Node1</title>
<path fill="none" stroke="#404040" d="M1074,-131.989C1074,-119.362 1074,-102.332 1074,-86.2361"/>
<polygon fill="none" stroke="#404040" points="1074,-86.1985 1070,-80.1986 1074,-74.1985 1078,-80.1985 1074,-86.1985"/>
<text text-anchor="middle" x="1089.5" y="-95" font-family="Helvetica,sans-Serif" font-size="10.00"> &#45;cam_</text>
</g>
<!-- Node22 -->
<g id="node22" class="node"><title>Node22</title>
<g id="a_node22"><a xlink:title=" ">
<polygon fill="white" stroke="#666666" points="1325.5,-615 1242.5,-615 1242.5,-585 1325.5,-585 1325.5,-615"/>
<text text-anchor="middle" x="1284" y="-603" font-family="Helvetica,sans-Serif" font-size="10.00">{vector&lt; Date &gt;</text>
<text text-anchor="middle" x="1284" y="-592" font-family="Helvetica,sans-Serif" font-size="10.00">||}</text>
</a>
</g>
</g>
<!-- Node22&#45;&gt;Node1 -->
<g id="edge31" class="edge"><title>Node22&#45;&gt;Node1</title>
<path fill="none" stroke="#404040" d="M1276.03,-584.738C1261.69,-557.686 1233,-496.684 1233,-441.5 1233,-441.5 1233,-441.5 1233,-151.5 1233,-113.08 1201.87,-86.4375 1167.15,-68.6724"/>
<polygon fill="none" stroke="#404040" points="1167.1,-68.6498 1159.96,-69.6489 1156.29,-63.4409 1163.44,-62.4418 1167.1,-68.6498"/>
<text text-anchor="middle" x="1274" y="-272" font-family="Helvetica,sans-Serif" font-size="10.00"> &#45;simulationDates_</text>
</g>
<!-- Node23 -->
<g id="node23" class="node"><title>Node23</title>
<g id="a_node23"><a xlink:title=" ">
<polygon fill="white" stroke="#666666" points="1376,-736 1336,-736 1336,-706 1376,-706 1376,-736"/>
<text text-anchor="middle" x="1356" y="-724" font-family="Helvetica,sans-Serif" font-size="10.00">{Date</text>
<text text-anchor="middle" x="1356" y="-713" font-family="Helvetica,sans-Serif" font-size="10.00">||}</text>
</a>
</g>
</g>
<!-- Node23&#45;&gt;Node22 -->
<g id="edge32" class="edge"><title>Node23&#45;&gt;Node22</title>
<path fill="none" stroke="#404040" d="M1353.35,-705.919C1349.86,-689.936 1342.65,-663.552 1330,-644 1325.21,-636.6 1318.88,-629.597 1312.44,-623.473"/>
<polygon fill="none" stroke="#404040" points="1312.09,-623.158 1304.95,-622.164 1303.12,-615.188 1310.26,-616.183 1312.09,-623.158"/>
<text text-anchor="middle" x="1369.5" y="-658" font-family="Helvetica,sans-Serif" font-size="10.00"> +elements</text>
</g>
<!-- Node24&#45;&gt;Node22 -->
<g id="edge33" class="edge"><title>Node24&#45;&gt;Node22</title>
<path fill="none" stroke="orange" d="M1284,-695.691C1284,-671.419 1284,-634.95 1284,-615.1"/>
<polygon fill="orange" stroke="orange" points="1280.5,-695.882 1284,-705.882 1287.5,-695.882 1280.5,-695.882"/>
<text text-anchor="middle" x="1305" y="-658" font-family="Helvetica,sans-Serif" font-size="10.00"> &lt; Date &gt;</text>
</g>
</g>
</svg>
