<?xml version="1.0" encoding="UTF-8" standalone="no"?>
<!DOCTYPE svg PUBLIC "-//W3C//DTD SVG 1.1//EN"
 "http://www.w3.org/Graphics/SVG/1.1/DTD/svg11.dtd">
<!-- Generated by graphviz version 2.38.0 (20140413.2041)
 -->
<!-- Title: fromXML Pages: 1 -->
<!--zoomable 294 -->
<svg id="main" version="1.1" xmlns="http://www.w3.org/2000/svg" xmlns:xlink="http://www.w3.org/1999/xlink" xml:space="preserve" onload="init(evt)">
<style type="text/css"><![CDATA[
.edge:hover path { stroke: red; }
.edge:hover polygon { stroke: red; fill: red; }
]]></style>
<script type="text/javascript"><![CDATA[
var edges = document.getElementsByTagName('g');
if (edges && edges.length) {
  for (var i=0;i<edges.length;i++) {
    if (edges[i].id.substr(0,4)=='edge') {
      edges[i].setAttribute('class','edge');
    }
  }
}
]]></script>
        <defs>
                <circle id="rim" cx="0" cy="0" r="7"/>
                <circle id="rim2" cx="0" cy="0" r="3.5"/>
                <g id="zoomPlus">
                        <use xlink:href="#rim" fill="#404040">
                                <set attributeName="fill" to="#808080" begin="zoomplus.mouseover" end="zoomplus.mouseout"/>
                        </use>
                        <path d="M-4,0h8M0,-4v8" fill="none" stroke="white" stroke-width="1.5" pointer-events="none"/>
                </g>
                <g id="zoomMin">
                        <use xlink:href="#rim" fill="#404040">
                                <set attributeName="fill" to="#808080" begin="zoomminus.mouseover" end="zoomminus.mouseout"/>
                        </use>
                        <path d="M-4,0h8" fill="none" stroke="white" stroke-width="1.5" pointer-events="none"/>
                </g>
                <g id="dirArrow">
                        <path fill="none" stroke="white" stroke-width="1.5" d="M0,-3.0v7 M-2.5,-0.5L0,-3.0L2.5,-0.5"/>
                </g>
               <g id="resetDef">
                       <use xlink:href="#rim2" fill="#404040">
                               <set attributeName="fill" to="#808080" begin="reset.mouseover" end="reset.mouseout"/>
                       </use>
               </g>
        </defs>

<script type="text/javascript">
var viewWidth = 631;
var viewHeight = 294;
var sectionId = 'dynsection-3';
</script>
<script xlink:href="svgpan.js"/>
<svg id="graph" class="graph">
<g id="viewport">
<title>fromXML</title>
<!-- Node1 -->
<g id="node1" class="node"><title>Node1</title>
<g id="a_node1"><a xlink:title=" ">
<polygon fill="#999999" stroke="#666666" points="54,-88.5 0,-88.5 0,-69.5 54,-69.5 54,-88.5"/>
<text text-anchor="middle" x="27" y="-76.5" font-family="Helvetica,sans-Serif" font-size="10.00">fromXML</text>
</a>
</g>
</g>
<!-- Node2 -->
<g id="node2" class="node"><title>Node2</title>
<g id="a_node2"><a xlink:href="classore_1_1data_1_1_commodity_future_convention.html#a9169b2d8ee8001dbb250c4ce2c26818c" target="_top" xlink:title="Implementation.">
<polygon fill="white" stroke="#666666" points="228,-147 90,-147 90,-117 228,-117 228,-147"/>
<text text-anchor="start" x="98" y="-135" font-family="Helvetica,sans-Serif" font-size="10.00">ore::data::CommodityFuture</text>
<text text-anchor="middle" x="159" y="-124" font-family="Helvetica,sans-Serif" font-size="10.00">Convention::build</text>
</a>
</g>
</g>
<!-- Node1&#45;&gt;Node2 -->
<g id="edge1" class="edge"><title>Node1&#45;&gt;Node2</title>
<path fill="none" stroke="#63b8ff" d="M51.542,-88.5979C68.2808,-95.4222 91.315,-104.813 111.677,-113.114"/>
<polygon fill="#63b8ff" stroke="#63b8ff" points="110.533,-116.428 121.115,-116.962 113.176,-109.946 110.533,-116.428"/>
</g>
<!-- Node10 -->
<g id="node10" class="node"><title>Node10</title>
<g id="a_node10"><a xlink:href="classore_1_1data_1_1_x_m_l_utils.html#a37c092916f4bdf10d4fbf6bb9e474db7" target="_top" xlink:title=" ">
<polygon fill="white" stroke="#666666" points="208.5,-94 109.5,-94 109.5,-64 208.5,-64 208.5,-94"/>
<text text-anchor="start" x="117.5" y="-82" font-family="Helvetica,sans-Serif" font-size="10.00">ore::data::XMLUtils</text>
<text text-anchor="middle" x="159" y="-71" font-family="Helvetica,sans-Serif" font-size="10.00">::checkNode</text>
</a>
</g>
</g>
<!-- Node1&#45;&gt;Node10 -->
<g id="edge9" class="edge"><title>Node1&#45;&gt;Node10</title>
<path fill="none" stroke="#63b8ff" d="M54.3074,-79C67.2708,-79 83.4624,-79 99.1691,-79"/>
<polygon fill="#63b8ff" stroke="#63b8ff" points="99.382,-82.5001 109.382,-79 99.3819,-75.5001 99.382,-82.5001"/>
</g>
<!-- Node11 -->
<g id="node11" class="node"><title>Node11</title>
<g id="a_node11"><a xlink:href="classore_1_1data_1_1_x_m_l_utils.html#a5a1307174ddefdb3aad6e3bd8cc63b27" target="_top" xlink:title=" ">
<polygon fill="white" stroke="#666666" points="208.5,-36 109.5,-36 109.5,-6 208.5,-6 208.5,-36"/>
<text text-anchor="start" x="117.5" y="-24" font-family="Helvetica,sans-Serif" font-size="10.00">ore::data::XMLUtils</text>
<text text-anchor="middle" x="159" y="-13" font-family="Helvetica,sans-Serif" font-size="10.00">::getChildValue</text>
</a>
</g>
</g>
<!-- Node1&#45;&gt;Node11 -->
<g id="edge10" class="edge"><title>Node1&#45;&gt;Node11</title>
<path fill="none" stroke="#63b8ff" d="M49.4669,-69.4225C67.2616,-61.4833 93.1125,-49.9498 115.121,-40.1304"/>
<polygon fill="#63b8ff" stroke="#63b8ff" points="116.578,-43.3133 124.284,-36.0425 113.726,-36.9207 116.578,-43.3133"/>
</g>
<!-- Node3 -->
<g id="node3" class="node"><title>Node3</title>
<g id="a_node3"><a xlink:href="classore_1_1data_1_1_commodity_future_convention.html#a313f7f9e6cdb41c395b0f50a8368a4e0" target="_top" xlink:title=" ">
<polygon fill="white" stroke="#666666" points="429,-286 291,-286 291,-256 429,-256 429,-286"/>
<text text-anchor="start" x="299" y="-274" font-family="Helvetica,sans-Serif" font-size="10.00">ore::data::CommodityFuture</text>
<text text-anchor="middle" x="360" y="-263" font-family="Helvetica,sans-Serif" font-size="10.00">Convention::isAveraging</text>
</a>
</g>
</g>
<!-- Node2&#45;&gt;Node3 -->
<g id="edge2" class="edge"><title>Node2&#45;&gt;Node3</title>
<path fill="none" stroke="#63b8ff" d="M169.451,-147.304C185.635,-172.179 221.095,-221.193 264,-247 269.357,-250.222 275.134,-253.014 281.1,-255.432"/>
<polygon fill="#63b8ff" stroke="#63b8ff" points="280.003,-258.758 290.596,-258.934 282.424,-252.191 280.003,-258.758"/>
</g>
<!-- Node4 -->
<g id="node4" class="node"><title>Node4</title>
<g id="a_node4"><a xlink:href="classore_1_1data_1_1_commodity_future_convention.html#a6a4ac83ae8f26ef517ecb8fe3aa3c72a" target="_top" xlink:title="Populate and check frequency.">
<polygon fill="white" stroke="#666666" points="456,-238 264,-238 264,-208 456,-208 456,-238"/>
<text text-anchor="start" x="272" y="-226" font-family="Helvetica,sans-Serif" font-size="10.00">ore::data::CommodityFuture</text>
<text text-anchor="middle" x="360" y="-215" font-family="Helvetica,sans-Serif" font-size="10.00">Convention::parseAndValidateFrequency</text>
</a>
</g>
</g>
<!-- Node2&#45;&gt;Node4 -->
<g id="edge3" class="edge"><title>Node2&#45;&gt;Node4</title>
<path fill="none" stroke="#63b8ff" d="M179.234,-147.139C199.327,-162.273 232.285,-185.22 264,-199 268.754,-201.065 273.722,-202.979 278.785,-204.748"/>
<polygon fill="#63b8ff" stroke="#63b8ff" points="278.018,-208.18 288.61,-207.973 280.201,-201.529 278.018,-208.18"/>
</g>
<!-- Node6 -->
<g id="node6" class="node"><title>Node6</title>
<g id="a_node6"><a xlink:href="group__utilities.html#ga86adcf55f91e340ff40783964666e732" target="_top" xlink:title="Convert text to QuantLib::BusinessDayConvention.">
<polygon fill="white" stroke="#666666" points="422.5,-190 297.5,-190 297.5,-160 422.5,-160 422.5,-190"/>
<text text-anchor="start" x="305.5" y="-178" font-family="Helvetica,sans-Serif" font-size="10.00">ore::data::parseBusiness</text>
<text text-anchor="middle" x="360" y="-167" font-family="Helvetica,sans-Serif" font-size="10.00">DayConvention</text>
</a>
</g>
</g>
<!-- Node2&#45;&gt;Node6 -->
<g id="edge5" class="edge"><title>Node2&#45;&gt;Node6</title>
<path fill="none" stroke="#63b8ff" d="M228.206,-146.738C247.273,-150.858 268.046,-155.347 287.308,-159.509"/>
<polygon fill="#63b8ff" stroke="#63b8ff" points="286.712,-162.961 297.225,-161.652 288.19,-156.119 286.712,-162.961"/>
</g>
<!-- Node7 -->
<g id="node7" class="node"><title>Node7</title>
<g id="a_node7"><a xlink:href="group__utilities.html#ga0f72d6fcccae10a674bdcd5095200f14" target="_top" xlink:title="Convert text to QuantLib::Calendar.">
<polygon fill="white" stroke="#666666" points="421.5,-141.5 298.5,-141.5 298.5,-122.5 421.5,-122.5 421.5,-141.5"/>
<text text-anchor="middle" x="360" y="-129.5" font-family="Helvetica,sans-Serif" font-size="10.00">ore::data::parseCalendar</text>
</a>
</g>
</g>
<!-- Node2&#45;&gt;Node7 -->
<g id="edge6" class="edge"><title>Node2&#45;&gt;Node7</title>
<path fill="none" stroke="#63b8ff" d="M228.206,-132C247.56,-132 268.673,-132 288.178,-132"/>
<polygon fill="#63b8ff" stroke="#63b8ff" points="288.213,-135.5 298.213,-132 288.213,-128.5 288.213,-135.5"/>
</g>
<!-- Node8 -->
<g id="node8" class="node"><title>Node8</title>
<g id="a_node8"><a xlink:href="group__utilities.html#ga23ece47d1c91b88847b78bcb8516e721" target="_top" xlink:title=" ">
<polygon fill="white" stroke="#666666" points="416,-104.5 304,-104.5 304,-85.5 416,-85.5 416,-104.5"/>
<text text-anchor="middle" x="360" y="-92.5" font-family="Helvetica,sans-Serif" font-size="10.00">ore::data::parseMonth</text>
</a>
</g>
</g>
<!-- Node2&#45;&gt;Node8 -->
<g id="edge7" class="edge"><title>Node2&#45;&gt;Node8</title>
<path fill="none" stroke="#63b8ff" d="M228.206,-119.318C250.842,-115.11 275.884,-110.454 297.946,-106.352"/>
<polygon fill="#63b8ff" stroke="#63b8ff" points="298.662,-109.779 307.854,-104.51 297.382,-102.897 298.662,-109.779"/>
</g>
<!-- Node9 -->
<g id="node9" class="node"><title>Node9</title>
<g id="a_node9"><a xlink:href="group__utilities.html#gaa599df209128dc5195af19136613e6ff" target="_top" xlink:title=" ">
<polygon fill="white" stroke="#666666" points="423,-67.5 297,-67.5 297,-48.5 423,-48.5 423,-67.5"/>
<text text-anchor="middle" x="360" y="-55.5" font-family="Helvetica,sans-Serif" font-size="10.00">ore::data::parseWeekday</text>
</a>
</g>
</g>
<!-- Node2&#45;&gt;Node9 -->
<g id="edge8" class="edge"><title>Node2&#45;&gt;Node9</title>
<path fill="none" stroke="#63b8ff" d="M199.975,-116.847C209.38,-112.768 219.218,-108.067 228,-103 245.323,-93.005 245.701,-84.0707 264,-76 271.316,-72.7734 279.198,-70.1243 287.183,-67.9496"/>
<polygon fill="#63b8ff" stroke="#63b8ff" points="288.081,-71.333 296.942,-65.5252 286.393,-64.5394 288.081,-71.333"/>
</g>
<!-- Node5 -->
<g id="node5" class="node"><title>Node5</title>
<g id="a_node5"><a xlink:href="group__utilities.html#ga8ecdc1d4eace894d29940dc88c5e2043" target="_top" xlink:title="Convert text to QuantLib::Frequency.">
<polygon fill="white" stroke="#666666" points="623,-232.5 492,-232.5 492,-213.5 623,-213.5 623,-232.5"/>
<text text-anchor="middle" x="557.5" y="-220.5" font-family="Helvetica,sans-Serif" font-size="10.00">ore::data::parseFrequency</text>
</a>
</g>
</g>
<!-- Node4&#45;&gt;Node5 -->
<g id="edge4" class="edge"><title>Node4&#45;&gt;Node5</title>
<path fill="none" stroke="#63b8ff" d="M456.173,-223C464.802,-223 473.459,-223 481.873,-223"/>
<polygon fill="#63b8ff" stroke="#63b8ff" points="481.998,-226.5 491.998,-223 481.998,-219.5 481.998,-226.5"/>
</g>
<!-- Node12 -->
<g id="node12" class="node"><title>Node12</title>
<g id="a_node12"><a xlink:href="classore_1_1data_1_1_x_m_l_utils.html#a6704501b110fa9d056096df3e05f0df2" target="_top" xlink:title="Get a node&#39;s value.">
<polygon fill="white" stroke="#666666" points="409.5,-30 310.5,-30 310.5,-0 409.5,-0 409.5,-30"/>
<text text-anchor="start" x="318.5" y="-18" font-family="Helvetica,sans-Serif" font-size="10.00">ore::data::XMLUtils</text>
<text text-anchor="middle" x="360" y="-7" font-family="Helvetica,sans-Serif" font-size="10.00">::getNodeValue</text>
</a>
</g>
</g>
<!-- Node11&#45;&gt;Node12 -->
<g id="edge11" class="edge"><title>Node11&#45;&gt;Node12</title>
<path fill="none" stroke="#63b8ff" d="M208.681,-19.5322C236.369,-18.6974 271.234,-17.6462 300.414,-16.7664"/>
<polygon fill="#63b8ff" stroke="#63b8ff" points="300.587,-20.2629 310.477,-16.463 300.376,-13.2661 300.587,-20.2629"/>
</g>
</g>
</svg>
        <g id="navigator" transform="translate(0 0)" fill="#404254">
                <rect fill="#f2f5e9" fill-opacity="0.5" stroke="#606060" stroke-width=".5" x="0" y="0" width="60" height="60"/>
                <use id="zoomplus" xlink:href="#zoomPlus" x="17" y="9" onmousedown="handleZoom(evt,'in')"/>
                <use id="zoomminus" xlink:href="#zoomMin" x="42" y="9" onmousedown="handleZoom(evt,'out')"/>
                <use id="reset" xlink:href="#resetDef" x="30" y="36" onmousedown="handleReset()"/>
                <g id="arrowUp" xlink:href="#dirArrow" transform="translate(30 24)" onmousedown="handlePan(0,-1)">
                  <use xlink:href="#rim" fill="#404040">
                        <set attributeName="fill" to="#808080" begin="arrowUp.mouseover" end="arrowUp.mouseout"/>
                  </use>
                  <path fill="none" stroke="white" stroke-width="1.5" d="M0,-3.0v7 M-2.5,-0.5L0,-3.0L2.5,-0.5"/>
                </g>
                <g id="arrowRight" xlink:href="#dirArrow" transform="rotate(90) translate(36 -43)" onmousedown="handlePan(1,0)">
                  <use xlink:href="#rim" fill="#404040">
                        <set attributeName="fill" to="#808080" begin="arrowRight.mouseover" end="arrowRight.mouseout"/>
                  </use>
                  <path fill="none" stroke="white" stroke-width="1.5" d="M0,-3.0v7 M-2.5,-0.5L0,-3.0L2.5,-0.5"/>
                </g>
                <g id="arrowDown" xlink:href="#dirArrow" transform="rotate(180) translate(-30 -48)" onmousedown="handlePan(0,1)">
                  <use xlink:href="#rim" fill="#404040">
                        <set attributeName="fill" to="#808080" begin="arrowDown.mouseover" end="arrowDown.mouseout"/>
                  </use>
                  <path fill="none" stroke="white" stroke-width="1.5" d="M0,-3.0v7 M-2.5,-0.5L0,-3.0L2.5,-0.5"/>
                </g>
                <g id="arrowLeft" xlink:href="#dirArrow" transform="rotate(270) translate(-36 17)" onmousedown="handlePan(-1,0)">
                  <use xlink:href="#rim" fill="#404040">
                        <set attributeName="fill" to="#808080" begin="arrowLeft.mouseover" end="arrowLeft.mouseout"/>
                  </use>
                  <path fill="none" stroke="white" stroke-width="1.5" d="M0,-3.0v7 M-2.5,-0.5L0,-3.0L2.5,-0.5"/>
                </g>
        </g>
        <svg viewBox="0 0 15 15" width="100%" height="30px" preserveAspectRatio="xMaxYMin meet">
         <g id="arrow_out" transform="scale(0.3 0.3)">
          <a xlink:href="classore_1_1data_1_1_commodity_future_convention_1_1_off_peak_power_index_data_a7741ae0fc924943de5bfe02928262eb7_cgraph_org.svg" target="_base">
           <rect id="button" ry="5" rx="5" y="6" x="6" height="38" width="38"
                fill="#f2f5e9" fill-opacity="0.5" stroke="#606060" stroke-width="1.0"/>
           <path id="arrow"
             d="M 11.500037,31.436501 C 11.940474,20.09759 22.043105,11.32322 32.158766,21.979434 L 37.068811,17.246167 C 37.068811,17.246167 37.088388,32 37.088388,32 L 22.160133,31.978069 C 22.160133,31.978069 26.997745,27.140456 26.997745,27.140456 C 18.528582,18.264221 13.291696,25.230495 11.500037,31.436501 z"
             style="fill:#404040;"/>
          </a>
         </g>
        </svg>
</svg>
