<?xml version="1.0" encoding="UTF-8" standalone="no"?>
<!DOCTYPE svg PUBLIC "-//W3C//DTD SVG 1.1//EN"
 "http://www.w3.org/Graphics/SVG/1.1/DTD/svg11.dtd">
<!-- Generated by graphviz version 2.38.0 (20140413.2041)
 -->
<!-- Title: correlationMatrix Pages: 1 -->
<svg width="228pt" height="45pt"
 viewBox="0.00 0.00 228.00 45.00" xmlns="http://www.w3.org/2000/svg" xmlns:xlink="http://www.w3.org/1999/xlink">
<g id="graph0" class="graph" transform="scale(1 1) rotate(0) translate(4 41)">
<title>correlationMatrix</title>
<!-- Node1 -->
<g id="node1" class="node"><title>Node1</title>
<g id="a_node1"><a xlink:title=" ">
<polygon fill="#999999" stroke="#666666" points="89,-19 0,-19 0,-0 89,-0 89,-19"/>
<text text-anchor="middle" x="44.5" y="-7" font-family="Helvetica,sans-Serif" font-size="10.00">correlationMatrix</text>
</a>
</g>
</g>
<!-- Node1&#45;&gt;Node1 -->
<g id="edge1" class="edge"><title>Node1&#45;&gt;Node1</title>
<path fill="none" stroke="#63b8ff" d="M24.7715,-19.0828C15.1738,-27.7337 21.75,-37 44.5,-37 58.7188,-37 66.6196,-33.3804 68.2025,-28.5536"/>
<polygon fill="#63b8ff" stroke="#63b8ff" points="71.3252,-26.9497 64.2285,-19.0828 64.8704,-29.6582 71.3252,-26.9497"/>
</g>
<!-- Node2 -->
<g id="node2" class="node"><title>Node2</title>
<g id="a_node2"><a xlink:href="classore_1_1data_1_1_correlation_matrix_builder.html#a9836dbf357b941836de95e4bcccd7c99" target="_top" xlink:title=" ">
<polygon fill="white" stroke="#666666" points="220,-19 125,-19 125,-0 220,-0 220,-19"/>
<text text-anchor="middle" x="172.5" y="-7" font-family="Helvetica,sans-Serif" font-size="10.00">createProcessInfo</text>
</a>
</g>
</g>
<!-- Node1&#45;&gt;Node2 -->
<g id="edge2" class="edge"><title>Node1&#45;&gt;Node2</title>
<path fill="none" stroke="#63b8ff" d="M89.2151,-9.5C97.4012,-9.5 106.068,-9.5 114.585,-9.5"/>
<polygon fill="#63b8ff" stroke="#63b8ff" points="114.858,-13.0001 124.858,-9.5 114.858,-6.0001 114.858,-13.0001"/>
</g>
</g>
</svg>
