<?xml version="1.0" encoding="UTF-8" standalone="no"?>
<!DOCTYPE svg PUBLIC "-//W3C//DTD SVG 1.1//EN"
 "http://www.w3.org/Graphics/SVG/1.1/DTD/svg11.dtd">
<!-- Generated by graphviz version 2.38.0 (20140413.2041)
 -->
<!-- Title: ScriptLibraryData Pages: 1 -->
<!--zoomable 522 -->
<svg id="main" version="1.1" xmlns="http://www.w3.org/2000/svg" xmlns:xlink="http://www.w3.org/1999/xlink" xml:space="preserve" onload="init(evt)">
<style type="text/css"><![CDATA[
.edge:hover path { stroke: red; }
.edge:hover polygon { stroke: red; fill: red; }
]]></style>
<script type="text/javascript"><![CDATA[
var edges = document.getElementsByTagName('g');
if (edges && edges.length) {
  for (var i=0;i<edges.length;i++) {
    if (edges[i].id.substr(0,4)=='edge') {
      edges[i].setAttribute('class','edge');
    }
  }
}
]]></script>
        <defs>
                <circle id="rim" cx="0" cy="0" r="7"/>
                <circle id="rim2" cx="0" cy="0" r="3.5"/>
                <g id="zoomPlus">
                        <use xlink:href="#rim" fill="#404040">
                                <set attributeName="fill" to="#808080" begin="zoomplus.mouseover" end="zoomplus.mouseout"/>
                        </use>
                        <path d="M-4,0h8M0,-4v8" fill="none" stroke="white" stroke-width="1.5" pointer-events="none"/>
                </g>
                <g id="zoomMin">
                        <use xlink:href="#rim" fill="#404040">
                                <set attributeName="fill" to="#808080" begin="zoomminus.mouseover" end="zoomminus.mouseout"/>
                        </use>
                        <path d="M-4,0h8" fill="none" stroke="white" stroke-width="1.5" pointer-events="none"/>
                </g>
                <g id="dirArrow">
                        <path fill="none" stroke="white" stroke-width="1.5" d="M0,-3.0v7 M-2.5,-0.5L0,-3.0L2.5,-0.5"/>
                </g>
               <g id="resetDef">
                       <use xlink:href="#rim2" fill="#404040">
                               <set attributeName="fill" to="#808080" begin="reset.mouseover" end="reset.mouseout"/>
                       </use>
               </g>
        </defs>

<script type="text/javascript">
var viewWidth = 437;
var viewHeight = 522;
var sectionId = 'dynsection-1';
</script>
<script xlink:href="svgpan.js"/>
<svg id="graph" class="graph">
<g id="viewport">
<title>ScriptLibraryData</title>
<!-- Node1 -->
<g id="node1" class="node"><title>Node1</title>
<g id="a_node1"><a xlink:title=" ">
<polygon fill="#999999" stroke="#666666" points="156,-129 45,-129 45,-0 156,-0 156,-129"/>
<text text-anchor="middle" x="100.5" y="-117" font-family="Helvetica,sans-Serif" font-size="10.00">{ScriptLibraryData</text>
<text text-anchor="start" x="53" y="-106" font-family="Helvetica,sans-Serif" font-size="10.00">||+ ScriptLibraryData()</text>
<text text-anchor="start" x="53" y="-95" font-family="Helvetica,sans-Serif" font-size="10.00">+ ScriptLibraryData()</text>
<text text-anchor="start" x="53" y="-84" font-family="Helvetica,sans-Serif" font-size="10.00">+ ScriptLibraryData()</text>
<text text-anchor="start" x="53" y="-73" font-family="Helvetica,sans-Serif" font-size="10.00">+ operator=()</text>
<text text-anchor="start" x="53" y="-62" font-family="Helvetica,sans-Serif" font-size="10.00">+ operator=()</text>
<text text-anchor="start" x="53" y="-51" font-family="Helvetica,sans-Serif" font-size="10.00">+ fromXML()</text>
<text text-anchor="start" x="53" y="-40" font-family="Helvetica,sans-Serif" font-size="10.00">+ toXML()</text>
<text text-anchor="start" x="53" y="-29" font-family="Helvetica,sans-Serif" font-size="10.00">+ has()</text>
<text text-anchor="start" x="53" y="-18" font-family="Helvetica,sans-Serif" font-size="10.00">+ get()</text>
<text text-anchor="middle" x="100.5" y="-7" font-family="Helvetica,sans-Serif" font-size="10.00">}</text>
</a>
</g>
</g>
<!-- Node2 -->
<g id="node2" class="node"><title>Node2</title>
<g id="a_node2"><a xlink:href="classore_1_1data_1_1_x_m_l_serializable.html" target="_top" xlink:title="Base class for all serializable classes.">
<polygon fill="white" stroke="#666666" points="111,-283 0,-283 0,-176 111,-176 111,-283"/>
<text text-anchor="middle" x="55.5" y="-271" font-family="Helvetica,sans-Serif" font-size="10.00">{XMLSerializable</text>
<text text-anchor="start" x="8" y="-260" font-family="Helvetica,sans-Serif" font-size="10.00">||+ ~XMLSerializable()</text>
<text text-anchor="start" x="8" y="-249" font-family="Helvetica,sans-Serif" font-size="10.00">+ fromXML()</text>
<text text-anchor="start" x="8" y="-238" font-family="Helvetica,sans-Serif" font-size="10.00">+ toXML()</text>
<text text-anchor="start" x="8" y="-227" font-family="Helvetica,sans-Serif" font-size="10.00">+ fromFile()</text>
<text text-anchor="start" x="8" y="-216" font-family="Helvetica,sans-Serif" font-size="10.00">+ toFile()</text>
<text text-anchor="start" x="8" y="-205" font-family="Helvetica,sans-Serif" font-size="10.00">+ fromXMLString()</text>
<text text-anchor="start" x="8" y="-194" font-family="Helvetica,sans-Serif" font-size="10.00">+ toXMLString()</text>
<text text-anchor="middle" x="55.5" y="-183" font-family="Helvetica,sans-Serif" font-size="10.00">}</text>
</a>
</g>
</g>
<!-- Node2&#45;&gt;Node1 -->
<g id="edge1" class="edge"><title>Node2&#45;&gt;Node1</title>
<path fill="none" stroke="#63b8ff" d="M72.8382,-165.697C76.1377,-153.746 79.5937,-141.227 82.9012,-129.247"/>
<polygon fill="none" stroke="#63b8ff" points="69.3977,-165.008 70.1102,-175.579 76.1453,-166.871 69.3977,-165.008"/>
</g>
<!-- Node3 -->
<g id="node3" class="node"><title>Node3</title>
<g id="a_node3"><a xlink:title=" ">
<polygon fill="white" stroke="#666666" points="278,-266.5 129,-266.5 129,-192.5 278,-192.5 278,-266.5"/>
<text text-anchor="start" x="137" y="-254.5" font-family="Helvetica,sans-Serif" font-size="10.00">{map&lt; std::string, std</text>
<text text-anchor="start" x="137" y="-243.5" font-family="Helvetica,sans-Serif" font-size="10.00">::pair&lt; std::string,</text>
<text text-anchor="start" x="137" y="-232.5" font-family="Helvetica,sans-Serif" font-size="10.00"> std::map&lt; std::string,</text>
<text text-anchor="start" x="137" y="-221.5" font-family="Helvetica,sans-Serif" font-size="10.00"> ore::data::ScriptedTradeScript</text>
<text text-anchor="middle" x="203.5" y="-210.5" font-family="Helvetica,sans-Serif" font-size="10.00">Data &gt; &gt; &gt;</text>
<text text-anchor="middle" x="203.5" y="-199.5" font-family="Helvetica,sans-Serif" font-size="10.00">||}</text>
</a>
</g>
</g>
<!-- Node3&#45;&gt;Node1 -->
<g id="edge2" class="edge"><title>Node3&#45;&gt;Node1</title>
<path fill="none" stroke="#404040" d="M180.641,-192.325C170.74,-176.656 158.767,-157.71 147.13,-139.293"/>
<polygon fill="none" stroke="#404040" points="147.125,-139.284 140.538,-136.349 140.714,-129.14 147.301,-132.075 147.125,-139.284"/>
<text text-anchor="middle" x="179" y="-150" font-family="Helvetica,sans-Serif" font-size="10.00"> &#45;scripts_</text>
</g>
<!-- Node4 -->
<g id="node4" class="node"><title>Node4</title>
<g id="a_node4"><a xlink:title=" ">
<polygon fill="white" stroke="#666666" points="110.5,-420.5 66.5,-420.5 66.5,-390.5 110.5,-390.5 110.5,-420.5"/>
<text text-anchor="middle" x="88.5" y="-408.5" font-family="Helvetica,sans-Serif" font-size="10.00">{string</text>
<text text-anchor="middle" x="88.5" y="-397.5" font-family="Helvetica,sans-Serif" font-size="10.00">||}</text>
</a>
</g>
</g>
<!-- Node4&#45;&gt;Node3 -->
<g id="edge3" class="edge"><title>Node4&#45;&gt;Node3</title>
<path fill="none" stroke="#404040" d="M97.9109,-390.261C114.092,-365.778 147.856,-314.692 172.869,-276.846"/>
<polygon fill="none" stroke="#404040" points="173.053,-276.567 173.024,-269.356 179.67,-266.556 179.698,-273.767 173.053,-276.567"/>
<text text-anchor="middle" x="172" y="-326" font-family="Helvetica,sans-Serif" font-size="10.00"> +keys</text>
</g>
<!-- Node5 -->
<g id="node5" class="node"><title>Node5</title>
<g id="a_node5"><a xlink:title=" ">
<polygon fill="white" stroke="#666666" points="143.5,-514 33.5,-514 33.5,-484 143.5,-484 143.5,-514"/>
<text text-anchor="middle" x="88.5" y="-502" font-family="Helvetica,sans-Serif" font-size="10.00">{basic_string&lt; Char &gt;</text>
<text text-anchor="middle" x="88.5" y="-491" font-family="Helvetica,sans-Serif" font-size="10.00">||}</text>
</a>
</g>
</g>
<!-- Node5&#45;&gt;Node4 -->
<g id="edge4" class="edge"><title>Node5&#45;&gt;Node4</title>
<path fill="none" stroke="#63b8ff" d="M88.5,-473.458C88.5,-456.582 88.5,-434.761 88.5,-420.696"/>
<polygon fill="none" stroke="#63b8ff" points="85.0001,-473.703 88.5,-483.703 92.0001,-473.703 85.0001,-473.703"/>
</g>
<!-- Node6 -->
<g id="node6" class="node"><title>Node6</title>
<g id="a_node6"><a xlink:title=" ">
<polygon fill="white" stroke="#666666" points="278,-437 129,-437 129,-374 278,-374 278,-437"/>
<text text-anchor="start" x="137" y="-425" font-family="Helvetica,sans-Serif" font-size="10.00">{pair&lt; std::string,</text>
<text text-anchor="start" x="137" y="-414" font-family="Helvetica,sans-Serif" font-size="10.00"> std::map&lt; std::string,</text>
<text text-anchor="start" x="137" y="-403" font-family="Helvetica,sans-Serif" font-size="10.00"> ore::data::ScriptedTradeScript</text>
<text text-anchor="middle" x="203.5" y="-392" font-family="Helvetica,sans-Serif" font-size="10.00">Data &gt; &gt;</text>
<text text-anchor="middle" x="203.5" y="-381" font-family="Helvetica,sans-Serif" font-size="10.00">||}</text>
</a>
</g>
</g>
<!-- Node6&#45;&gt;Node3 -->
<g id="edge5" class="edge"><title>Node6&#45;&gt;Node3</title>
<path fill="none" stroke="#404040" d="M203.5,-373.793C203.5,-347.468 203.5,-309.093 203.5,-278.68"/>
<polygon fill="none" stroke="#404040" points="203.5,-278.615 199.5,-272.615 203.5,-266.615 207.5,-272.615 203.5,-278.615"/>
<text text-anchor="middle" x="228" y="-326" font-family="Helvetica,sans-Serif" font-size="10.00"> +elements</text>
</g>
<!-- Node7 -->
<g id="node7" class="node"><title>Node7</title>
<g id="a_node7"><a xlink:title=" ">
<polygon fill="white" stroke="#666666" points="370.5,-420.5 296.5,-420.5 296.5,-390.5 370.5,-390.5 370.5,-420.5"/>
<text text-anchor="middle" x="333.5" y="-408.5" font-family="Helvetica,sans-Serif" font-size="10.00">{map&lt; K, T &gt;</text>
<text text-anchor="middle" x="333.5" y="-397.5" font-family="Helvetica,sans-Serif" font-size="10.00">||}</text>
</a>
</g>
</g>
<!-- Node7&#45;&gt;Node3 -->
<g id="edge6" class="edge"><title>Node7&#45;&gt;Node3</title>
<path fill="none" stroke="orange" d="M316.935,-382.166C301.363,-361.188 277.391,-328.934 256.5,-301 248.155,-289.841 239.045,-277.707 230.77,-266.701"/>
<polygon fill="orange" stroke="orange" points="314.291,-384.476 323.061,-390.421 319.912,-380.305 314.291,-384.476"/>
<text text-anchor="start" x="295.5" y="-348" font-family="Helvetica,sans-Serif" font-size="10.00"> &lt; std::string, std</text>
<text text-anchor="start" x="295.5" y="-337" font-family="Helvetica,sans-Serif" font-size="10.00">::pair&lt; std::string,</text>
<text text-anchor="start" x="295.5" y="-326" font-family="Helvetica,sans-Serif" font-size="10.00"> std::map&lt; std::string,</text>
<text text-anchor="start" x="295.5" y="-315" font-family="Helvetica,sans-Serif" font-size="10.00"> ore::data::ScriptedTradeScript</text>
<text text-anchor="middle" x="362" y="-304" font-family="Helvetica,sans-Serif" font-size="10.00">Data &gt; &gt; &gt;</text>
</g>
<!-- Node8 -->
<g id="node8" class="node"><title>Node8</title>
<g id="a_node8"><a xlink:title=" ">
<polygon fill="white" stroke="#666666" points="321,-514 292,-514 292,-484 321,-484 321,-514"/>
<text text-anchor="middle" x="306.5" y="-502" font-family="Helvetica,sans-Serif" font-size="10.00">{K</text>
<text text-anchor="middle" x="306.5" y="-491" font-family="Helvetica,sans-Serif" font-size="10.00">||}</text>
</a>
</g>
</g>
<!-- Node8&#45;&gt;Node7 -->
<g id="edge7" class="edge"><title>Node8&#45;&gt;Node7</title>
<path fill="none" stroke="#404040" d="M305.19,-483.826C304.807,-475.329 305.026,-464.387 307.5,-455 309.666,-446.779 313.468,-438.414 317.507,-430.997"/>
<polygon fill="none" stroke="#404040" points="317.537,-430.946 317.142,-423.746 323.636,-420.612 324.031,-427.812 317.537,-430.946"/>
<text text-anchor="middle" x="323" y="-458" font-family="Helvetica,sans-Serif" font-size="10.00"> +keys</text>
</g>
<!-- Node9 -->
<g id="node9" class="node"><title>Node9</title>
<g id="a_node9"><a xlink:title=" ">
<polygon fill="white" stroke="#666666" points="375,-514 346,-514 346,-484 375,-484 375,-514"/>
<text text-anchor="middle" x="360.5" y="-502" font-family="Helvetica,sans-Serif" font-size="10.00">{T</text>
<text text-anchor="middle" x="360.5" y="-491" font-family="Helvetica,sans-Serif" font-size="10.00">||}</text>
</a>
</g>
</g>
<!-- Node9&#45;&gt;Node7 -->
<g id="edge8" class="edge"><title>Node9&#45;&gt;Node7</title>
<path fill="none" stroke="#404040" d="M356.281,-483.703C352.239,-470.005 346.046,-449.016 341.136,-432.378"/>
<polygon fill="none" stroke="#404040" points="341.085,-432.206 335.551,-427.583 337.689,-420.696 343.224,-425.319 341.085,-432.206"/>
<text text-anchor="middle" x="375" y="-458" font-family="Helvetica,sans-Serif" font-size="10.00"> +elements</text>
</g>
</g>
</svg>
        <g id="navigator" transform="translate(0 0)" fill="#404254">
                <rect fill="#f2f5e9" fill-opacity="0.5" stroke="#606060" stroke-width=".5" x="0" y="0" width="60" height="60"/>
                <use id="zoomplus" xlink:href="#zoomPlus" x="17" y="9" onmousedown="handleZoom(evt,'in')"/>
                <use id="zoomminus" xlink:href="#zoomMin" x="42" y="9" onmousedown="handleZoom(evt,'out')"/>
                <use id="reset" xlink:href="#resetDef" x="30" y="36" onmousedown="handleReset()"/>
                <g id="arrowUp" xlink:href="#dirArrow" transform="translate(30 24)" onmousedown="handlePan(0,-1)">
                  <use xlink:href="#rim" fill="#404040">
                        <set attributeName="fill" to="#808080" begin="arrowUp.mouseover" end="arrowUp.mouseout"/>
                  </use>
                  <path fill="none" stroke="white" stroke-width="1.5" d="M0,-3.0v7 M-2.5,-0.5L0,-3.0L2.5,-0.5"/>
                </g>
                <g id="arrowRight" xlink:href="#dirArrow" transform="rotate(90) translate(36 -43)" onmousedown="handlePan(1,0)">
                  <use xlink:href="#rim" fill="#404040">
                        <set attributeName="fill" to="#808080" begin="arrowRight.mouseover" end="arrowRight.mouseout"/>
                  </use>
                  <path fill="none" stroke="white" stroke-width="1.5" d="M0,-3.0v7 M-2.5,-0.5L0,-3.0L2.5,-0.5"/>
                </g>
                <g id="arrowDown" xlink:href="#dirArrow" transform="rotate(180) translate(-30 -48)" onmousedown="handlePan(0,1)">
                  <use xlink:href="#rim" fill="#404040">
                        <set attributeName="fill" to="#808080" begin="arrowDown.mouseover" end="arrowDown.mouseout"/>
                  </use>
                  <path fill="none" stroke="white" stroke-width="1.5" d="M0,-3.0v7 M-2.5,-0.5L0,-3.0L2.5,-0.5"/>
                </g>
                <g id="arrowLeft" xlink:href="#dirArrow" transform="rotate(270) translate(-36 17)" onmousedown="handlePan(-1,0)">
                  <use xlink:href="#rim" fill="#404040">
                        <set attributeName="fill" to="#808080" begin="arrowLeft.mouseover" end="arrowLeft.mouseout"/>
                  </use>
                  <path fill="none" stroke="white" stroke-width="1.5" d="M0,-3.0v7 M-2.5,-0.5L0,-3.0L2.5,-0.5"/>
                </g>
        </g>
        <svg viewBox="0 0 15 15" width="100%" height="30px" preserveAspectRatio="xMaxYMin meet">
         <g id="arrow_out" transform="scale(0.3 0.3)">
          <a xlink:href="classore_1_1data_1_1_script_library_data__coll__graph_org.svg" target="_base">
           <rect id="button" ry="5" rx="5" y="6" x="6" height="38" width="38"
                fill="#f2f5e9" fill-opacity="0.5" stroke="#606060" stroke-width="1.0"/>
           <path id="arrow"
             d="M 11.500037,31.436501 C 11.940474,20.09759 22.043105,11.32322 32.158766,21.979434 L 37.068811,17.246167 C 37.068811,17.246167 37.088388,32 37.088388,32 L 22.160133,31.978069 C 22.160133,31.978069 26.997745,27.140456 26.997745,27.140456 C 18.528582,18.264221 13.291696,25.230495 11.500037,31.436501 z"
             style="fill:#404040;"/>
          </a>
         </g>
        </svg>
</svg>
