<?xml version="1.0" encoding="UTF-8" standalone="no"?>
<!DOCTYPE svg PUBLIC "-//W3C//DTD SVG 1.1//EN"
 "http://www.w3.org/Graphics/SVG/1.1/DTD/svg11.dtd">
<!-- Generated by graphviz version 2.38.0 (20140413.2041)
 -->
<!-- Title: IborFallbackConfig Pages: 1 -->
<!--zoomable 633 -->
<svg id="main" version="1.1" xmlns="http://www.w3.org/2000/svg" xmlns:xlink="http://www.w3.org/1999/xlink" xml:space="preserve" onload="init(evt)">
<style type="text/css"><![CDATA[
.edge:hover path { stroke: red; }
.edge:hover polygon { stroke: red; fill: red; }
]]></style>
<script type="text/javascript"><![CDATA[
var edges = document.getElementsByTagName('g');
if (edges && edges.length) {
  for (var i=0;i<edges.length;i++) {
    if (edges[i].id.substr(0,4)=='edge') {
      edges[i].setAttribute('class','edge');
    }
  }
}
]]></script>
        <defs>
                <circle id="rim" cx="0" cy="0" r="7"/>
                <circle id="rim2" cx="0" cy="0" r="3.5"/>
                <g id="zoomPlus">
                        <use xlink:href="#rim" fill="#404040">
                                <set attributeName="fill" to="#808080" begin="zoomplus.mouseover" end="zoomplus.mouseout"/>
                        </use>
                        <path d="M-4,0h8M0,-4v8" fill="none" stroke="white" stroke-width="1.5" pointer-events="none"/>
                </g>
                <g id="zoomMin">
                        <use xlink:href="#rim" fill="#404040">
                                <set attributeName="fill" to="#808080" begin="zoomminus.mouseover" end="zoomminus.mouseout"/>
                        </use>
                        <path d="M-4,0h8" fill="none" stroke="white" stroke-width="1.5" pointer-events="none"/>
                </g>
                <g id="dirArrow">
                        <path fill="none" stroke="white" stroke-width="1.5" d="M0,-3.0v7 M-2.5,-0.5L0,-3.0L2.5,-0.5"/>
                </g>
               <g id="resetDef">
                       <use xlink:href="#rim2" fill="#404040">
                               <set attributeName="fill" to="#808080" begin="reset.mouseover" end="reset.mouseout"/>
                       </use>
               </g>
        </defs>

<script type="text/javascript">
var viewWidth = 486;
var viewHeight = 633;
var sectionId = 'dynsection-1';
</script>
<script xlink:href="svgpan.js"/>
<svg id="graph" class="graph">
<g id="viewport">
<title>IborFallbackConfig</title>
<!-- Node1 -->
<g id="node1" class="node"><title>Node1</title>
<g id="a_node1"><a xlink:title=" ">
<polygon fill="#999999" stroke="#666666" points="232,-184 65,-184 65,-0 232,-0 232,-184"/>
<text text-anchor="middle" x="148.5" y="-172" font-family="Helvetica,sans-Serif" font-size="10.00">{IborFallbackConfig</text>
<text text-anchor="start" x="73" y="-161" font-family="Helvetica,sans-Serif" font-size="10.00">||+ IborFallbackConfig()</text>
<text text-anchor="start" x="73" y="-150" font-family="Helvetica,sans-Serif" font-size="10.00">+ IborFallbackConfig()</text>
<text text-anchor="start" x="73" y="-139" font-family="Helvetica,sans-Serif" font-size="10.00">+ enableIborFallbacks()</text>
<text text-anchor="start" x="73" y="-128" font-family="Helvetica,sans-Serif" font-size="10.00">+ useRfrCurveInTodaysMarket()</text>
<text text-anchor="start" x="73" y="-117" font-family="Helvetica,sans-Serif" font-size="10.00">+ useRfrCurveInSimulationMarket()</text>
<text text-anchor="start" x="73" y="-106" font-family="Helvetica,sans-Serif" font-size="10.00">+ addIndexFallbackRule()</text>
<text text-anchor="start" x="73" y="-95" font-family="Helvetica,sans-Serif" font-size="10.00">+ isIndexReplaced()</text>
<text text-anchor="start" x="73" y="-84" font-family="Helvetica,sans-Serif" font-size="10.00">+ fallbackData()</text>
<text text-anchor="start" x="73" y="-73" font-family="Helvetica,sans-Serif" font-size="10.00">+ fromXML()</text>
<text text-anchor="start" x="73" y="-62" font-family="Helvetica,sans-Serif" font-size="10.00">+ toXML()</text>
<text text-anchor="start" x="73" y="-51" font-family="Helvetica,sans-Serif" font-size="10.00">+ clear()</text>
<text text-anchor="start" x="73" y="-40" font-family="Helvetica,sans-Serif" font-size="10.00">+ updateSwitchDate()</text>
<text text-anchor="start" x="73" y="-29" font-family="Helvetica,sans-Serif" font-size="10.00">+ logSwitchDates()</text>
<text text-anchor="start" x="73" y="-18" font-family="Helvetica,sans-Serif" font-size="10.00">+ defaultConfig()</text>
<text text-anchor="middle" x="148.5" y="-7" font-family="Helvetica,sans-Serif" font-size="10.00">}</text>
</a>
</g>
</g>
<!-- Node2 -->
<g id="node2" class="node"><title>Node2</title>
<g id="a_node2"><a xlink:href="classore_1_1data_1_1_x_m_l_serializable.html" target="_top" xlink:title="Base class for all serializable classes.">
<polygon fill="white" stroke="#666666" points="111,-382 0,-382 0,-275 111,-275 111,-382"/>
<text text-anchor="middle" x="55.5" y="-370" font-family="Helvetica,sans-Serif" font-size="10.00">{XMLSerializable</text>
<text text-anchor="start" x="8" y="-359" font-family="Helvetica,sans-Serif" font-size="10.00">||+ ~XMLSerializable()</text>
<text text-anchor="start" x="8" y="-348" font-family="Helvetica,sans-Serif" font-size="10.00">+ fromXML()</text>
<text text-anchor="start" x="8" y="-337" font-family="Helvetica,sans-Serif" font-size="10.00">+ toXML()</text>
<text text-anchor="start" x="8" y="-326" font-family="Helvetica,sans-Serif" font-size="10.00">+ fromFile()</text>
<text text-anchor="start" x="8" y="-315" font-family="Helvetica,sans-Serif" font-size="10.00">+ toFile()</text>
<text text-anchor="start" x="8" y="-304" font-family="Helvetica,sans-Serif" font-size="10.00">+ fromXMLString()</text>
<text text-anchor="start" x="8" y="-293" font-family="Helvetica,sans-Serif" font-size="10.00">+ toXMLString()</text>
<text text-anchor="middle" x="55.5" y="-282" font-family="Helvetica,sans-Serif" font-size="10.00">}</text>
</a>
</g>
</g>
<!-- Node2&#45;&gt;Node1 -->
<g id="edge1" class="edge"><title>Node2&#45;&gt;Node1</title>
<path fill="none" stroke="#63b8ff" d="M80.0689,-265.549C89.95,-240.634 101.545,-211.398 112.353,-184.144"/>
<polygon fill="none" stroke="#63b8ff" points="76.8041,-264.288 76.371,-274.874 83.3111,-266.868 76.8041,-264.288"/>
</g>
<!-- Node3 -->
<g id="node3" class="node"><title>Node3</title>
<g id="a_node3"><a xlink:href="classbool.html" target="_top" xlink:title=" ">
<polygon fill="white" stroke="#666666" points="167.5,-343.5 129.5,-343.5 129.5,-313.5 167.5,-313.5 167.5,-343.5"/>
<text text-anchor="middle" x="148.5" y="-331.5" font-family="Helvetica,sans-Serif" font-size="10.00">{bool</text>
<text text-anchor="middle" x="148.5" y="-320.5" font-family="Helvetica,sans-Serif" font-size="10.00">||}</text>
</a>
</g>
</g>
<!-- Node3&#45;&gt;Node1 -->
<g id="edge2" class="edge"><title>Node3&#45;&gt;Node1</title>
<path fill="none" stroke="#404040" d="M148.5,-313.184C148.5,-289.861 148.5,-241.702 148.5,-196.355"/>
<polygon fill="none" stroke="#404040" points="148.5,-196.285 144.5,-190.285 148.5,-184.285 152.5,-190.285 148.5,-196.285"/>
<text text-anchor="start" x="148.5" y="-249" font-family="Helvetica,sans-Serif" font-size="10.00"> &#45;enableIborFallbacks</text>
<text text-anchor="middle" x="213.5" y="-238" font-family="Helvetica,sans-Serif" font-size="10.00">_</text>
<text text-anchor="start" x="148.5" y="-227" font-family="Helvetica,sans-Serif" font-size="10.00">&#45;useRfrCurveInSimulation</text>
<text text-anchor="middle" x="213.5" y="-216" font-family="Helvetica,sans-Serif" font-size="10.00">Market_</text>
<text text-anchor="middle" x="213.5" y="-205" font-family="Helvetica,sans-Serif" font-size="10.00">&#45;useRfrCurveInTodaysMarket_</text>
</g>
<!-- Node4 -->
<g id="node4" class="node"><title>Node4</title>
<g id="a_node4"><a xlink:title=" ">
<polygon fill="white" stroke="#666666" points="365,-354.5 238,-354.5 238,-302.5 365,-302.5 365,-354.5"/>
<text text-anchor="start" x="246" y="-342.5" font-family="Helvetica,sans-Serif" font-size="10.00">{map&lt; std::string, ore</text>
<text text-anchor="start" x="246" y="-331.5" font-family="Helvetica,sans-Serif" font-size="10.00">::data::IborFallbackConfig</text>
<text text-anchor="middle" x="301.5" y="-320.5" font-family="Helvetica,sans-Serif" font-size="10.00">::FallbackData &gt;</text>
<text text-anchor="middle" x="301.5" y="-309.5" font-family="Helvetica,sans-Serif" font-size="10.00">||}</text>
</a>
</g>
</g>
<!-- Node4&#45;&gt;Node1 -->
<g id="edge3" class="edge"><title>Node4&#45;&gt;Node1</title>
<path fill="none" stroke="#404040" d="M302.056,-302.197C301.553,-275.546 297.577,-233.197 279.5,-202 269.673,-185.041 256.159,-169.559 241.524,-155.926"/>
<polygon fill="none" stroke="#404040" points="241.241,-155.673 234.101,-154.66 232.29,-147.68 239.43,-148.693 241.241,-155.673"/>
<text text-anchor="middle" x="321.5" y="-227" font-family="Helvetica,sans-Serif" font-size="10.00"> &#45;fallbacks_</text>
</g>
<!-- Node5 -->
<g id="node5" class="node"><title>Node5</title>
<g id="a_node5"><a xlink:title=" ">
<polygon fill="white" stroke="#666666" points="295.5,-558 251.5,-558 251.5,-528 295.5,-528 295.5,-558"/>
<text text-anchor="middle" x="273.5" y="-546" font-family="Helvetica,sans-Serif" font-size="10.00">{string</text>
<text text-anchor="middle" x="273.5" y="-535" font-family="Helvetica,sans-Serif" font-size="10.00">||}</text>
</a>
</g>
</g>
<!-- Node5&#45;&gt;Node4 -->
<g id="edge4" class="edge"><title>Node5&#45;&gt;Node4</title>
<path fill="none" stroke="#404040" d="M279.166,-527.869C281.154,-522.373 283.211,-515.972 284.5,-510 295.04,-461.148 299.045,-403.459 300.567,-366.688"/>
<polygon fill="none" stroke="#404040" points="300.571,-366.594 296.792,-360.452 301.009,-354.602 304.787,-360.744 300.571,-366.594"/>
<text text-anchor="middle" x="309" y="-463.5" font-family="Helvetica,sans-Serif" font-size="10.00"> +keys</text>
</g>
<!-- Node7 -->
<g id="node7" class="node"><title>Node7</title>
<g id="a_node7"><a xlink:href="structore_1_1data_1_1_ibor_fallback_config_1_1_fallback_data.html" target="_top" xlink:title=" ">
<polygon fill="white" stroke="#666666" points="234,-481 157,-481 157,-451 234,-451 234,-481"/>
<text text-anchor="middle" x="195.5" y="-469" font-family="Helvetica,sans-Serif" font-size="10.00">{FallbackData</text>
<text text-anchor="middle" x="195.5" y="-458" font-family="Helvetica,sans-Serif" font-size="10.00">||}</text>
</a>
</g>
</g>
<!-- Node5&#45;&gt;Node7 -->
<g id="edge7" class="edge"><title>Node5&#45;&gt;Node7</title>
<path fill="none" stroke="#404040" d="M258.829,-527.893C247.607,-517.103 231.912,-502.011 218.954,-489.552"/>
<polygon fill="none" stroke="#404040" points="218.755,-489.361 211.658,-488.086 210.105,-481.044 217.203,-482.319 218.755,-489.361"/>
<text text-anchor="middle" x="260" y="-502" font-family="Helvetica,sans-Serif" font-size="10.00"> +rfrIndex</text>
</g>
<!-- Node6 -->
<g id="node6" class="node"><title>Node6</title>
<g id="a_node6"><a xlink:title=" ">
<polygon fill="white" stroke="#666666" points="328.5,-625 218.5,-625 218.5,-595 328.5,-595 328.5,-625"/>
<text text-anchor="middle" x="273.5" y="-613" font-family="Helvetica,sans-Serif" font-size="10.00">{basic_string&lt; Char &gt;</text>
<text text-anchor="middle" x="273.5" y="-602" font-family="Helvetica,sans-Serif" font-size="10.00">||}</text>
</a>
</g>
</g>
<!-- Node6&#45;&gt;Node5 -->
<g id="edge5" class="edge"><title>Node6&#45;&gt;Node5</title>
<path fill="none" stroke="#63b8ff" d="M273.5,-584.608C273.5,-575.654 273.5,-565.823 273.5,-558.077"/>
<polygon fill="none" stroke="#63b8ff" points="270,-584.896 273.5,-594.896 277,-584.896 270,-584.896"/>
</g>
<!-- Node7&#45;&gt;Node4 -->
<g id="edge6" class="edge"><title>Node7&#45;&gt;Node4</title>
<path fill="none" stroke="#404040" d="M203.999,-450.903C212.294,-437.459 225.528,-416.823 238.5,-400 247.975,-387.712 259.043,-374.886 269.235,-363.595"/>
<polygon fill="none" stroke="#404040" points="269.439,-363.372 270.536,-356.245 277.537,-354.517 276.44,-361.644 269.439,-363.372"/>
<text text-anchor="middle" x="263" y="-414" font-family="Helvetica,sans-Serif" font-size="10.00"> +elements</text>
</g>
<!-- Node8 -->
<g id="node8" class="node"><title>Node8</title>
<g id="a_node8"><a xlink:title=" ">
<polygon fill="white" stroke="#666666" points="122,-558 83,-558 83,-528 122,-528 122,-558"/>
<text text-anchor="middle" x="102.5" y="-546" font-family="Helvetica,sans-Serif" font-size="10.00">{Real</text>
<text text-anchor="middle" x="102.5" y="-535" font-family="Helvetica,sans-Serif" font-size="10.00">||}</text>
</a>
</g>
</g>
<!-- Node8&#45;&gt;Node7 -->
<g id="edge8" class="edge"><title>Node8&#45;&gt;Node7</title>
<path fill="none" stroke="#404040" d="M105.545,-527.661C108.149,-518.457 112.744,-506.809 120.5,-499 127.521,-491.931 136.351,-486.329 145.464,-481.924"/>
<polygon fill="none" stroke="#404040" points="145.595,-481.868 149.525,-475.822 156.618,-477.124 152.687,-483.17 145.595,-481.868"/>
<text text-anchor="middle" x="140" y="-502" font-family="Helvetica,sans-Serif" font-size="10.00"> +spread</text>
</g>
<!-- Node9 -->
<g id="node9" class="node"><title>Node9</title>
<g id="a_node9"><a xlink:title=" ">
<polygon fill="white" stroke="#666666" points="184.5,-558 144.5,-558 144.5,-528 184.5,-528 184.5,-558"/>
<text text-anchor="middle" x="164.5" y="-546" font-family="Helvetica,sans-Serif" font-size="10.00">{Date</text>
<text text-anchor="middle" x="164.5" y="-535" font-family="Helvetica,sans-Serif" font-size="10.00">||}</text>
</a>
</g>
</g>
<!-- Node9&#45;&gt;Node7 -->
<g id="edge9" class="edge"><title>Node9&#45;&gt;Node7</title>
<path fill="none" stroke="#404040" d="M162.35,-527.929C161.62,-519.271 161.769,-508.123 165.5,-499 166.685,-496.101 168.264,-493.308 170.079,-490.661"/>
<polygon fill="none" stroke="#404040" points="170.231,-490.479 171.004,-483.31 177.919,-481.265 177.147,-488.435 170.231,-490.479"/>
<text text-anchor="middle" x="194.5" y="-502" font-family="Helvetica,sans-Serif" font-size="10.00"> +switchDate</text>
</g>
<!-- Node10 -->
<g id="node10" class="node"><title>Node10</title>
<g id="a_node10"><a xlink:title=" ">
<polygon fill="white" stroke="#666666" points="424.5,-481 350.5,-481 350.5,-451 424.5,-451 424.5,-481"/>
<text text-anchor="middle" x="387.5" y="-469" font-family="Helvetica,sans-Serif" font-size="10.00">{map&lt; K, T &gt;</text>
<text text-anchor="middle" x="387.5" y="-458" font-family="Helvetica,sans-Serif" font-size="10.00">||}</text>
</a>
</g>
</g>
<!-- Node10&#45;&gt;Node4 -->
<g id="edge10" class="edge"><title>Node10&#45;&gt;Node4</title>
<path fill="none" stroke="orange" d="M373.027,-442.196C357.622,-417.926 333.319,-379.633 317.393,-354.54"/>
<polygon fill="orange" stroke="orange" points="370.145,-444.188 378.459,-450.755 376.055,-440.437 370.145,-444.188"/>
<text text-anchor="start" x="366.5" y="-425" font-family="Helvetica,sans-Serif" font-size="10.00"> &lt; std::string, ore</text>
<text text-anchor="start" x="366.5" y="-414" font-family="Helvetica,sans-Serif" font-size="10.00">::data::IborFallbackConfig</text>
<text text-anchor="middle" x="422" y="-403" font-family="Helvetica,sans-Serif" font-size="10.00">::FallbackData &gt;</text>
</g>
<!-- Node11 -->
<g id="node11" class="node"><title>Node11</title>
<g id="a_node11"><a xlink:title=" ">
<polygon fill="white" stroke="#666666" points="376,-558 347,-558 347,-528 376,-528 376,-558"/>
<text text-anchor="middle" x="361.5" y="-546" font-family="Helvetica,sans-Serif" font-size="10.00">{K</text>
<text text-anchor="middle" x="361.5" y="-535" font-family="Helvetica,sans-Serif" font-size="10.00">||}</text>
</a>
</g>
</g>
<!-- Node11&#45;&gt;Node10 -->
<g id="edge11" class="edge"><title>Node11&#45;&gt;Node10</title>
<path fill="none" stroke="#404040" d="M359.614,-527.647C359.026,-519.087 359.233,-508.141 362.5,-499 363.481,-496.255 364.797,-493.562 366.314,-490.976"/>
<polygon fill="none" stroke="#404040" points="366.391,-490.868 366.607,-483.661 373.343,-481.087 373.127,-488.295 366.391,-490.868"/>
<text text-anchor="middle" x="378" y="-502" font-family="Helvetica,sans-Serif" font-size="10.00"> +keys</text>
</g>
<!-- Node12 -->
<g id="node12" class="node"><title>Node12</title>
<g id="a_node12"><a xlink:title=" ">
<polygon fill="white" stroke="#666666" points="430,-558 401,-558 401,-528 430,-528 430,-558"/>
<text text-anchor="middle" x="415.5" y="-546" font-family="Helvetica,sans-Serif" font-size="10.00">{T</text>
<text text-anchor="middle" x="415.5" y="-535" font-family="Helvetica,sans-Serif" font-size="10.00">||}</text>
</a>
</g>
</g>
<!-- Node12&#45;&gt;Node10 -->
<g id="edge12" class="edge"><title>Node12&#45;&gt;Node10</title>
<path fill="none" stroke="#404040" d="M410.233,-527.893C406.518,-517.941 401.436,-504.33 397.02,-492.499"/>
<polygon fill="none" stroke="#404040" points="396.94,-492.286 391.094,-488.064 392.743,-481.044 398.589,-485.266 396.94,-492.286"/>
<text text-anchor="middle" x="427" y="-502" font-family="Helvetica,sans-Serif" font-size="10.00"> +elements</text>
</g>
</g>
</svg>
        <g id="navigator" transform="translate(0 0)" fill="#404254">
                <rect fill="#f2f5e9" fill-opacity="0.5" stroke="#606060" stroke-width=".5" x="0" y="0" width="60" height="60"/>
                <use id="zoomplus" xlink:href="#zoomPlus" x="17" y="9" onmousedown="handleZoom(evt,'in')"/>
                <use id="zoomminus" xlink:href="#zoomMin" x="42" y="9" onmousedown="handleZoom(evt,'out')"/>
                <use id="reset" xlink:href="#resetDef" x="30" y="36" onmousedown="handleReset()"/>
                <g id="arrowUp" xlink:href="#dirArrow" transform="translate(30 24)" onmousedown="handlePan(0,-1)">
                  <use xlink:href="#rim" fill="#404040">
                        <set attributeName="fill" to="#808080" begin="arrowUp.mouseover" end="arrowUp.mouseout"/>
                  </use>
                  <path fill="none" stroke="white" stroke-width="1.5" d="M0,-3.0v7 M-2.5,-0.5L0,-3.0L2.5,-0.5"/>
                </g>
                <g id="arrowRight" xlink:href="#dirArrow" transform="rotate(90) translate(36 -43)" onmousedown="handlePan(1,0)">
                  <use xlink:href="#rim" fill="#404040">
                        <set attributeName="fill" to="#808080" begin="arrowRight.mouseover" end="arrowRight.mouseout"/>
                  </use>
                  <path fill="none" stroke="white" stroke-width="1.5" d="M0,-3.0v7 M-2.5,-0.5L0,-3.0L2.5,-0.5"/>
                </g>
                <g id="arrowDown" xlink:href="#dirArrow" transform="rotate(180) translate(-30 -48)" onmousedown="handlePan(0,1)">
                  <use xlink:href="#rim" fill="#404040">
                        <set attributeName="fill" to="#808080" begin="arrowDown.mouseover" end="arrowDown.mouseout"/>
                  </use>
                  <path fill="none" stroke="white" stroke-width="1.5" d="M0,-3.0v7 M-2.5,-0.5L0,-3.0L2.5,-0.5"/>
                </g>
                <g id="arrowLeft" xlink:href="#dirArrow" transform="rotate(270) translate(-36 17)" onmousedown="handlePan(-1,0)">
                  <use xlink:href="#rim" fill="#404040">
                        <set attributeName="fill" to="#808080" begin="arrowLeft.mouseover" end="arrowLeft.mouseout"/>
                  </use>
                  <path fill="none" stroke="white" stroke-width="1.5" d="M0,-3.0v7 M-2.5,-0.5L0,-3.0L2.5,-0.5"/>
                </g>
        </g>
        <svg viewBox="0 0 15 15" width="100%" height="30px" preserveAspectRatio="xMaxYMin meet">
         <g id="arrow_out" transform="scale(0.3 0.3)">
          <a xlink:href="classore_1_1data_1_1_ibor_fallback_config__coll__graph_org.svg" target="_base">
           <rect id="button" ry="5" rx="5" y="6" x="6" height="38" width="38"
                fill="#f2f5e9" fill-opacity="0.5" stroke="#606060" stroke-width="1.0"/>
           <path id="arrow"
             d="M 11.500037,31.436501 C 11.940474,20.09759 22.043105,11.32322 32.158766,21.979434 L 37.068811,17.246167 C 37.068811,17.246167 37.088388,32 37.088388,32 L 22.160133,31.978069 C 22.160133,31.978069 26.997745,27.140456 26.997745,27.140456 C 18.528582,18.264221 13.291696,25.230495 11.500037,31.436501 z"
             style="fill:#404040;"/>
          </a>
         </g>
        </svg>
</svg>
