<?xml version="1.0" encoding="UTF-8" standalone="no"?>
<!DOCTYPE svg PUBLIC "-//W3C//DTD SVG 1.1//EN"
 "http://www.w3.org/Graphics/SVG/1.1/DTD/svg11.dtd">
<!-- Generated by graphviz version 2.38.0 (20140413.2041)
 -->
<!-- Title: engineImpl Pages: 1 -->
<svg width="404pt" height="282pt"
 viewBox="0.00 0.00 404.00 281.50" xmlns="http://www.w3.org/2000/svg" xmlns:xlink="http://www.w3.org/1999/xlink">
<g id="graph0" class="graph" transform="scale(1 1) rotate(0) translate(4 277.5)">
<title>engineImpl</title>
<!-- Node1 -->
<g id="node1" class="node"><title>Node1</title>
<g id="a_node1"><a xlink:title=" ">
<polygon fill="#999999" stroke="#666666" points="63,-141 0,-141 0,-122 63,-122 63,-141"/>
<text text-anchor="middle" x="31.5" y="-129" font-family="Helvetica,sans-Serif" font-size="10.00">engineImpl</text>
</a>
</g>
</g>
<!-- Node2 -->
<g id="node2" class="node"><title>Node2</title>
<g id="a_node2"><a xlink:href="classore_1_1data_1_1_engine_builder.html#aaacbfbb4007edcf8c34df2f37f8ebae5" target="_top" xlink:title="Return a configuration (or the default one if key not found)">
<polygon fill="white" stroke="#666666" points="228,-273.5 107,-273.5 107,-243.5 228,-243.5 228,-273.5"/>
<text text-anchor="start" x="115" y="-261.5" font-family="Helvetica,sans-Serif" font-size="10.00">ore::data::EngineBuilder</text>
<text text-anchor="middle" x="167.5" y="-250.5" font-family="Helvetica,sans-Serif" font-size="10.00">::configuration</text>
</a>
</g>
</g>
<!-- Node1&#45;&gt;Node2 -->
<g id="edge1" class="edge"><title>Node1&#45;&gt;Node2</title>
<path fill="none" stroke="#63b8ff" d="M36.2294,-141.244C44.4652,-161.51 66.1216,-208.476 99,-234.5 100.609,-235.774 102.291,-236.983 104.03,-238.131"/>
<polygon fill="#63b8ff" stroke="#63b8ff" points="102.713,-241.411 113.125,-243.371 106.208,-235.346 102.713,-241.411"/>
</g>
<!-- Node3 -->
<g id="node3" class="node"><title>Node3</title>
<g id="a_node3"><a xlink:href="classore_1_1data_1_1_engine_builder.html#a9d7654707f3b935dcf6a7b19df70c085" target="_top" xlink:title=" ">
<polygon fill="white" stroke="#666666" points="228,-225.5 107,-225.5 107,-195.5 228,-195.5 228,-225.5"/>
<text text-anchor="start" x="115" y="-213.5" font-family="Helvetica,sans-Serif" font-size="10.00">ore::data::EngineBuilder</text>
<text text-anchor="middle" x="167.5" y="-202.5" font-family="Helvetica,sans-Serif" font-size="10.00">::engineParameter</text>
</a>
</g>
</g>
<!-- Node1&#45;&gt;Node3 -->
<g id="edge2" class="edge"><title>Node1&#45;&gt;Node3</title>
<path fill="none" stroke="#63b8ff" d="M42.0423,-141.27C54.2742,-153.323 76.5899,-173.778 99,-186.5 102.012,-188.21 105.167,-189.831 108.398,-191.364"/>
<polygon fill="#63b8ff" stroke="#63b8ff" points="107.091,-194.613 117.653,-195.446 109.916,-188.208 107.091,-194.613"/>
</g>
<!-- Node4 -->
<g id="node4" class="node"><title>Node4</title>
<g id="a_node4"><a xlink:href="classore_1_1data_1_1_engine_builder.html#a5b42b4fc92c1fab7879d756cce6bc6b9" target="_top" xlink:title="Return the model name.">
<polygon fill="white" stroke="#666666" points="228,-177.5 107,-177.5 107,-147.5 228,-147.5 228,-177.5"/>
<text text-anchor="start" x="115" y="-165.5" font-family="Helvetica,sans-Serif" font-size="10.00">ore::data::EngineBuilder</text>
<text text-anchor="middle" x="167.5" y="-154.5" font-family="Helvetica,sans-Serif" font-size="10.00">::model</text>
</a>
</g>
</g>
<!-- Node1&#45;&gt;Node4 -->
<g id="edge3" class="edge"><title>Node1&#45;&gt;Node4</title>
<path fill="none" stroke="#63b8ff" d="M63.2423,-138.612C73.3838,-140.958 85.1112,-143.671 96.9452,-146.409"/>
<polygon fill="#63b8ff" stroke="#63b8ff" points="96.3466,-149.863 106.878,-148.707 97.9244,-143.043 96.3466,-149.863"/>
</g>
<!-- Node5 -->
<g id="node5" class="node"><title>Node5</title>
<g id="a_node5"><a xlink:href="group__utilities.html#gaecd67eda4fb5f4859bb8f6d383547721" target="_top" xlink:title="Convert text to QuantLib::Integer.">
<polygon fill="white" stroke="#666666" points="224.5,-111 110.5,-111 110.5,-92 224.5,-92 224.5,-111"/>
<text text-anchor="middle" x="167.5" y="-99" font-family="Helvetica,sans-Serif" font-size="10.00">ore::data::parseInteger</text>
</a>
</g>
</g>
<!-- Node1&#45;&gt;Node5 -->
<g id="edge4" class="edge"><title>Node1&#45;&gt;Node5</title>
<path fill="none" stroke="#63b8ff" d="M63.2423,-124.617C78.2921,-121.248 96.8347,-117.097 114.035,-113.246"/>
<polygon fill="#63b8ff" stroke="#63b8ff" points="114.976,-116.622 123.97,-111.022 113.447,-109.791 114.976,-116.622"/>
</g>
<!-- Node6 -->
<g id="node6" class="node"><title>Node6</title>
<g id="a_node6"><a xlink:href="group__utilities.html#gad1db2a68f9a73667c3b4084d63955bdd" target="_top" xlink:title="Convert text to Real.">
<polygon fill="white" stroke="#666666" points="219.5,-56 115.5,-56 115.5,-37 219.5,-37 219.5,-56"/>
<text text-anchor="middle" x="167.5" y="-44" font-family="Helvetica,sans-Serif" font-size="10.00">ore::data::parseReal</text>
</a>
</g>
</g>
<!-- Node1&#45;&gt;Node6 -->
<g id="edge6" class="edge"><title>Node1&#45;&gt;Node6</title>
<path fill="none" stroke="#63b8ff" d="M44.9252,-121.82C58.0479,-111.767 79.4976,-95.8173 99,-83.5 111.695,-75.4818 126.25,-67.3745 138.585,-60.8009"/>
<polygon fill="#63b8ff" stroke="#63b8ff" points="140.299,-63.8542 147.519,-56.0999 137.039,-57.6595 140.299,-63.8542"/>
</g>
<!-- Node7 -->
<g id="node7" class="node"><title>Node7</title>
<g id="a_node7"><a xlink:href="group__utilities.html#gaf17e7976e4fe2449bb4e226ee19c0fd9" target="_top" xlink:title="Try to convert std::string to QuantLib::IborIndex.">
<polygon fill="white" stroke="#666666" points="236,-19 99,-19 99,-0 236,-0 236,-19"/>
<text text-anchor="middle" x="167.5" y="-7" font-family="Helvetica,sans-Serif" font-size="10.00">ore::data::tryParseIborIndex</text>
</a>
</g>
</g>
<!-- Node1&#45;&gt;Node7 -->
<g id="edge8" class="edge"><title>Node1&#45;&gt;Node7</title>
<path fill="none" stroke="#63b8ff" d="M35.9725,-121.889C43.8558,-101.457 65.0942,-53.531 99,-28.5 101.644,-26.5477 104.482,-24.7959 107.442,-23.224"/>
<polygon fill="#63b8ff" stroke="#63b8ff" points="108.983,-26.3683 116.622,-19.0273 106.072,-20.002 108.983,-26.3683"/>
</g>
<!-- Node5&#45;&gt;Node5 -->
<g id="edge5" class="edge"><title>Node5&#45;&gt;Node5</title>
<path fill="none" stroke="#63b8ff" d="M146.538,-111.083C136.341,-119.734 143.328,-129 167.5,-129 182.985,-129 191.418,-125.197 192.798,-120.189"/>
<polygon fill="#63b8ff" stroke="#63b8ff" points="195.921,-118.607 188.462,-111.083 189.6,-121.616 195.921,-118.607"/>
</g>
<!-- Node6&#45;&gt;Node6 -->
<g id="edge7" class="edge"><title>Node6&#45;&gt;Node6</title>
<path fill="none" stroke="#63b8ff" d="M146.538,-56.0828C136.341,-64.7337 143.328,-74 167.5,-74 182.985,-74 191.418,-70.1971 192.798,-65.1894"/>
<polygon fill="#63b8ff" stroke="#63b8ff" points="195.921,-63.607 188.462,-56.0828 189.6,-66.6163 195.921,-63.607"/>
</g>
<!-- Node8 -->
<g id="node8" class="node"><title>Node8</title>
<g id="a_node8"><a xlink:href="group__utilities.html#gac1ecdc5f20e7d73327bccd5f930f8782" target="_top" xlink:title="Convert std::string to QuantLib::IborIndex.">
<polygon fill="white" stroke="#666666" points="396,-19 272,-19 272,-0 396,-0 396,-19"/>
<text text-anchor="middle" x="334" y="-7" font-family="Helvetica,sans-Serif" font-size="10.00">ore::data::parseIborIndex</text>
</a>
</g>
</g>
<!-- Node7&#45;&gt;Node8 -->
<g id="edge9" class="edge"><title>Node7&#45;&gt;Node8</title>
<path fill="none" stroke="#63b8ff" d="M236.358,-9.5C244.727,-9.5 253.3,-9.5 261.717,-9.5"/>
<polygon fill="#63b8ff" stroke="#63b8ff" points="261.883,-13.0001 271.883,-9.5 261.883,-6.0001 261.883,-13.0001"/>
</g>
<!-- Node8&#45;&gt;Node8 -->
<g id="edge10" class="edge"><title>Node8&#45;&gt;Node8</title>
<path fill="none" stroke="#63b8ff" d="M308.415,-19.0828C295.968,-27.7337 304.496,-37 334,-37 353.362,-37 363.691,-33.0094 364.986,-27.8208"/>
<polygon fill="#63b8ff" stroke="#63b8ff" points="367.82,-25.7493 359.585,-19.0828 361.865,-29.4294 367.82,-25.7493"/>
</g>
</g>
</svg>
