<?xml version="1.0" encoding="UTF-8" standalone="no"?>
<!DOCTYPE svg PUBLIC "-//W3C//DTD SVG 1.1//EN"
 "http://www.w3.org/Graphics/SVG/1.1/DTD/svg11.dtd">
<!-- Generated by graphviz version 2.38.0 (20140413.2041)
 -->
<!-- Title: model Pages: 1 -->
<svg width="399pt" height="534pt"
 viewBox="0.00 0.00 399.00 533.50" xmlns="http://www.w3.org/2000/svg" xmlns:xlink="http://www.w3.org/1999/xlink">
<g id="graph0" class="graph" transform="scale(1 1) rotate(0) translate(4 529.5)">
<title>model</title>
<!-- Node1 -->
<g id="node1" class="node"><title>Node1</title>
<g id="a_node1"><a xlink:title=" ">
<polygon fill="#999999" stroke="#666666" points="43,-249 0,-249 0,-230 43,-230 43,-249"/>
<text text-anchor="middle" x="21.5" y="-237" font-family="Helvetica,sans-Serif" font-size="10.00">model</text>
</a>
</g>
</g>
<!-- Node2 -->
<g id="node2" class="node"><title>Node2</title>
<g id="a_node2"><a xlink:href="classore_1_1data_1_1_engine_builder.html#aaacbfbb4007edcf8c34df2f37f8ebae5" target="_top" xlink:title="Return a configuration (or the default one if key not found)">
<polygon fill="white" stroke="#666666" points="215.5,-525.5 94.5,-525.5 94.5,-495.5 215.5,-495.5 215.5,-525.5"/>
<text text-anchor="start" x="102.5" y="-513.5" font-family="Helvetica,sans-Serif" font-size="10.00">ore::data::EngineBuilder</text>
<text text-anchor="middle" x="155" y="-502.5" font-family="Helvetica,sans-Serif" font-size="10.00">::configuration</text>
</a>
</g>
</g>
<!-- Node1&#45;&gt;Node2 -->
<g id="edge1" class="edge"><title>Node1&#45;&gt;Node2</title>
<path fill="none" stroke="#63b8ff" d="M23.4486,-249.231C27.6551,-290.482 45.8937,-450.459 79,-486.5 81.0376,-488.718 83.2799,-490.732 85.6766,-492.561"/>
<polygon fill="#63b8ff" stroke="#63b8ff" points="84.0343,-495.665 94.3474,-498.092 87.7988,-489.763 84.0343,-495.665"/>
</g>
<!-- Node3 -->
<g id="node3" class="node"><title>Node3</title>
<g id="a_node3"><a xlink:href="classore_1_1data_1_1_engine_builder.html#a5b42b4fc92c1fab7879d756cce6bc6b9" target="_top" xlink:title="Return the model name.">
<polygon fill="white" stroke="#666666" points="215.5,-477.5 94.5,-477.5 94.5,-447.5 215.5,-447.5 215.5,-477.5"/>
<text text-anchor="start" x="102.5" y="-465.5" font-family="Helvetica,sans-Serif" font-size="10.00">ore::data::EngineBuilder</text>
<text text-anchor="middle" x="155" y="-454.5" font-family="Helvetica,sans-Serif" font-size="10.00">::model</text>
</a>
</g>
</g>
<!-- Node1&#45;&gt;Node3 -->
<g id="edge2" class="edge"><title>Node1&#45;&gt;Node3</title>
<path fill="none" stroke="#63b8ff" d="M22.2481,-249.351C21.9834,-281.316 25.5603,-383.264 79,-438.5 81.0497,-440.619 83.2862,-442.551 85.6635,-444.312"/>
<polygon fill="#63b8ff" stroke="#63b8ff" points="83.8886,-447.331 94.2218,-449.67 87.6031,-441.397 83.8886,-447.331"/>
</g>
<!-- Node4 -->
<g id="node4" class="node"><title>Node4</title>
<g id="a_node4"><a xlink:href="classore_1_1data_1_1_engine_builder.html#a71eb734e0723ecb94e47fdb853e56359" target="_top" xlink:title=" ">
<polygon fill="white" stroke="#666666" points="215.5,-429.5 94.5,-429.5 94.5,-399.5 215.5,-399.5 215.5,-429.5"/>
<text text-anchor="start" x="102.5" y="-417.5" font-family="Helvetica,sans-Serif" font-size="10.00">ore::data::EngineBuilder</text>
<text text-anchor="middle" x="155" y="-406.5" font-family="Helvetica,sans-Serif" font-size="10.00">::modelParameter</text>
</a>
</g>
</g>
<!-- Node1&#45;&gt;Node4 -->
<g id="edge3" class="edge"><title>Node1&#45;&gt;Node4</title>
<path fill="none" stroke="#63b8ff" d="M23.2685,-249.199C25.8947,-275.756 36.8494,-350.339 79,-390.5 80.9486,-392.357 83.0411,-394.07 85.2438,-395.65"/>
<polygon fill="#63b8ff" stroke="#63b8ff" points="83.8535,-398.901 94.2149,-401.113 87.4941,-392.923 83.8535,-398.901"/>
</g>
<!-- Node5 -->
<g id="node5" class="node"><title>Node5</title>
<g id="a_node5"><a xlink:href="group__utilities.html#ga94621f11193864fa1338296232dc5be9" target="_top" xlink:title="Convert text to bool.">
<polygon fill="white" stroke="#666666" points="207,-363 103,-363 103,-344 207,-344 207,-363"/>
<text text-anchor="middle" x="155" y="-351" font-family="Helvetica,sans-Serif" font-size="10.00">ore::data::parseBool</text>
</a>
</g>
</g>
<!-- Node1&#45;&gt;Node5 -->
<g id="edge4" class="edge"><title>Node1&#45;&gt;Node5</title>
<path fill="none" stroke="#63b8ff" d="M25.3889,-249.002C31.752,-268.267 48.8586,-312.003 79,-334.5 83.373,-337.764 88.2468,-340.47 93.3524,-342.714"/>
<polygon fill="#63b8ff" stroke="#63b8ff" points="92.1433,-345.999 102.735,-346.274 94.6264,-339.454 92.1433,-345.999"/>
</g>
<!-- Node6 -->
<g id="node6" class="node"><title>Node6</title>
<g id="a_node6"><a xlink:href="namespaceore_1_1data.html#a55354bd89a9a819ebcc3706bd1072bff" target="_top" xlink:title="Convert calibration strategy string into enumerated class value.">
<polygon fill="white" stroke="#666666" points="220.5,-325.5 89.5,-325.5 89.5,-295.5 220.5,-295.5 220.5,-325.5"/>
<text text-anchor="start" x="97.5" y="-313.5" font-family="Helvetica,sans-Serif" font-size="10.00">ore::data::parseCalibration</text>
<text text-anchor="middle" x="155" y="-302.5" font-family="Helvetica,sans-Serif" font-size="10.00">Strategy</text>
</a>
</g>
</g>
<!-- Node1&#45;&gt;Node6 -->
<g id="edge6" class="edge"><title>Node1&#45;&gt;Node6</title>
<path fill="none" stroke="#63b8ff" d="M31.6542,-249.065C42.1868,-259.575 60.4307,-276.312 79,-286.5 82.2474,-288.282 85.6476,-289.955 89.1317,-291.523"/>
<polygon fill="#63b8ff" stroke="#63b8ff" points="87.9265,-294.812 98.5034,-295.43 90.6199,-288.351 87.9265,-294.812"/>
</g>
<!-- Node7 -->
<g id="node7" class="node"><title>Node7</title>
<g id="a_node7"><a xlink:href="namespaceore_1_1data.html#a3fcd3e2237bc47c69b4b81c0fa50a4cc" target="_top" xlink:title="Convert calibration type string into enumerated class value.">
<polygon fill="white" stroke="#666666" points="231,-277 79,-277 79,-258 231,-258 231,-277"/>
<text text-anchor="middle" x="155" y="-265" font-family="Helvetica,sans-Serif" font-size="10.00">ore::data::parseCalibrationType</text>
</a>
</g>
</g>
<!-- Node1&#45;&gt;Node7 -->
<g id="edge7" class="edge"><title>Node1&#45;&gt;Node7</title>
<path fill="none" stroke="#63b8ff" d="M43.0469,-243.875C58.1248,-247.086 79.3498,-251.605 99.2037,-255.832"/>
<polygon fill="#63b8ff" stroke="#63b8ff" points="98.6033,-259.283 109.113,-257.942 100.061,-252.436 98.6033,-259.283"/>
</g>
<!-- Node8 -->
<g id="node8" class="node"><title>Node8</title>
<g id="a_node8"><a xlink:href="group__utilities.html#gad1db2a68f9a73667c3b4084d63955bdd" target="_top" xlink:title="Convert text to Real.">
<polygon fill="white" stroke="#666666" points="207,-222 103,-222 103,-203 207,-203 207,-222"/>
<text text-anchor="middle" x="155" y="-210" font-family="Helvetica,sans-Serif" font-size="10.00">ore::data::parseReal</text>
</a>
</g>
</g>
<!-- Node1&#45;&gt;Node8 -->
<g id="edge8" class="edge"><title>Node1&#45;&gt;Node8</title>
<path fill="none" stroke="#63b8ff" d="M43.0469,-235.281C57.7484,-232.263 78.2939,-228.044 97.7143,-224.057"/>
<polygon fill="#63b8ff" stroke="#63b8ff" points="98.6388,-227.44 107.73,-222 97.2309,-220.583 98.6388,-227.44"/>
</g>
<!-- Node9 -->
<g id="node9" class="node"><title>Node9</title>
<g id="a_node9"><a xlink:href="namespaceore_1_1data.html#a89cca6472a3558ad9f7b64415375cf64" target="_top" xlink:title="Enum parsers used in CrossAssetModelBuilder&#39;s fromXML.">
<polygon fill="white" stroke="#666666" points="229,-185 81,-185 81,-166 229,-166 229,-185"/>
<text text-anchor="middle" x="155" y="-173" font-family="Helvetica,sans-Serif" font-size="10.00">ore::data::parseReversionType</text>
</a>
</g>
</g>
<!-- Node1&#45;&gt;Node9 -->
<g id="edge10" class="edge"><title>Node1&#45;&gt;Node9</title>
<path fill="none" stroke="#63b8ff" d="M32.0076,-229.782C42.5696,-219.535 60.5753,-203.636 79,-194.5 83.6932,-192.173 88.6971,-190.114 93.8081,-188.295"/>
<polygon fill="#63b8ff" stroke="#63b8ff" points="95.2801,-191.497 103.715,-185.087 93.1234,-184.838 95.2801,-191.497"/>
</g>
<!-- Node10 -->
<g id="node10" class="node"><title>Node10</title>
<g id="a_node10"><a xlink:href="namespaceore_1_1data.html#aab2c021a56c88e579dcdefd09aaead20" target="_top" xlink:title=" ">
<polygon fill="white" stroke="#666666" points="226.5,-148 83.5,-148 83.5,-129 226.5,-129 226.5,-148"/>
<text text-anchor="middle" x="155" y="-136" font-family="Helvetica,sans-Serif" font-size="10.00">ore::data::parseVolatilityType</text>
</a>
</g>
</g>
<!-- Node1&#45;&gt;Node10 -->
<g id="edge11" class="edge"><title>Node1&#45;&gt;Node10</title>
<path fill="none" stroke="#63b8ff" d="M26.3351,-229.972C33.7837,-212.721 51.8931,-176.357 79,-157.5 81.8996,-155.483 84.995,-153.68 88.2152,-152.068"/>
<polygon fill="#63b8ff" stroke="#63b8ff" points="89.7814,-155.204 97.5622,-148.013 86.9953,-148.782 89.7814,-155.204"/>
</g>
<!-- Node11 -->
<g id="node11" class="node"><title>Node11</title>
<g id="a_node11"><a xlink:href="namespaceore_1_1data.html#a86651dfeb5c18ee891f7a4734d8cf455" target="_top" xlink:title=" ">
<polygon fill="white" stroke="#666666" points="204,-93 106,-93 106,-74 204,-74 204,-93"/>
<text text-anchor="middle" x="155" y="-81" font-family="Helvetica,sans-Serif" font-size="10.00">ore::data::to_string</text>
</a>
</g>
</g>
<!-- Node1&#45;&gt;Node11 -->
<g id="edge12" class="edge"><title>Node1&#45;&gt;Node11</title>
<path fill="none" stroke="#63b8ff" d="M24.736,-229.917C30.3078,-207.931 46.7402,-153.248 79,-120.5 88.8246,-110.527 101.888,-102.817 114.357,-97.0812"/>
<polygon fill="#63b8ff" stroke="#63b8ff" points="115.898,-100.229 123.713,-93.0747 113.142,-93.7941 115.898,-100.229"/>
</g>
<!-- Node12 -->
<g id="node12" class="node"><title>Node12</title>
<g id="a_node12"><a xlink:href="group__utilities.html#gaf17e7976e4fe2449bb4e226ee19c0fd9" target="_top" xlink:title="Try to convert std::string to QuantLib::IborIndex.">
<polygon fill="white" stroke="#666666" points="223.5,-56 86.5,-56 86.5,-37 223.5,-37 223.5,-56"/>
<text text-anchor="middle" x="155" y="-44" font-family="Helvetica,sans-Serif" font-size="10.00">ore::data::tryParseIborIndex</text>
</a>
</g>
</g>
<!-- Node1&#45;&gt;Node12 -->
<g id="edge14" class="edge"><title>Node1&#45;&gt;Node12</title>
<path fill="none" stroke="#63b8ff" d="M22.5773,-229.925C23.3563,-200.646 29.8464,-111.518 79,-65.5 80.6731,-63.9336 82.4563,-62.4917 84.3275,-61.1645"/>
<polygon fill="#63b8ff" stroke="#63b8ff" points="86.18,-64.1355 93.0274,-56.0507 82.6328,-58.1008 86.18,-64.1355"/>
</g>
<!-- Node14 -->
<g id="node14" class="node"><title>Node14</title>
<g id="a_node14"><a xlink:href="namespaceore_1_1data.html#a6a0250258f27a26b9e68baa6ff3752ba" target="_top" xlink:title="Imply QuantLib::VolatilityType from CapFloorVolatilityCurveConfig::VolatilityType.">
<polygon fill="white" stroke="#666666" points="213,-19 97,-19 97,-0 213,-0 213,-19"/>
<text text-anchor="middle" x="155" y="-7" font-family="Helvetica,sans-Serif" font-size="10.00">ore::data::volatilityType</text>
</a>
</g>
</g>
<!-- Node1&#45;&gt;Node14 -->
<g id="edge17" class="edge"><title>Node1&#45;&gt;Node14</title>
<path fill="none" stroke="#63b8ff" d="M21.9363,-229.869C20.5546,-196.691 20.6888,-86.0281 79,-28.5 81.6923,-25.8439 84.6996,-23.5422 87.9201,-21.5491"/>
<polygon fill="#63b8ff" stroke="#63b8ff" points="89.5687,-24.6371 96.8728,-16.9625 86.3769,-18.4071 89.5687,-24.6371"/>
</g>
<!-- Node5&#45;&gt;Node5 -->
<g id="edge5" class="edge"><title>Node5&#45;&gt;Node5</title>
<path fill="none" stroke="#63b8ff" d="M134.655,-363.083C124.757,-371.734 131.539,-381 155,-381 170.03,-381 178.214,-377.197 179.553,-372.189"/>
<polygon fill="#63b8ff" stroke="#63b8ff" points="182.717,-370.692 175.345,-363.083 176.363,-373.629 182.717,-370.692"/>
</g>
<!-- Node8&#45;&gt;Node8 -->
<g id="edge9" class="edge"><title>Node8&#45;&gt;Node8</title>
<path fill="none" stroke="#63b8ff" d="M134.655,-222.083C124.757,-230.734 131.539,-240 155,-240 170.03,-240 178.214,-236.197 179.553,-231.189"/>
<polygon fill="#63b8ff" stroke="#63b8ff" points="182.717,-229.692 175.345,-222.083 176.363,-232.629 182.717,-229.692"/>
</g>
<!-- Node11&#45;&gt;Node11 -->
<g id="edge13" class="edge"><title>Node11&#45;&gt;Node11</title>
<path fill="none" stroke="#63b8ff" d="M134.655,-93.0828C124.757,-101.734 131.539,-111 155,-111 170.03,-111 178.214,-107.197 179.553,-102.189"/>
<polygon fill="#63b8ff" stroke="#63b8ff" points="182.717,-100.692 175.345,-93.0828 176.363,-103.629 182.717,-100.692"/>
</g>
<!-- Node13 -->
<g id="node13" class="node"><title>Node13</title>
<g id="a_node13"><a xlink:href="group__utilities.html#gac1ecdc5f20e7d73327bccd5f930f8782" target="_top" xlink:title="Convert std::string to QuantLib::IborIndex.">
<polygon fill="white" stroke="#666666" points="391,-56 267,-56 267,-37 391,-37 391,-56"/>
<text text-anchor="middle" x="329" y="-44" font-family="Helvetica,sans-Serif" font-size="10.00">ore::data::parseIborIndex</text>
</a>
</g>
</g>
<!-- Node12&#45;&gt;Node13 -->
<g id="edge15" class="edge"><title>Node12&#45;&gt;Node13</title>
<path fill="none" stroke="#63b8ff" d="M223.979,-46.5C234.724,-46.5 245.862,-46.5 256.68,-46.5"/>
<polygon fill="#63b8ff" stroke="#63b8ff" points="256.932,-50.0001 266.932,-46.5 256.932,-43.0001 256.932,-50.0001"/>
</g>
<!-- Node13&#45;&gt;Node13 -->
<g id="edge16" class="edge"><title>Node13&#45;&gt;Node13</title>
<path fill="none" stroke="#63b8ff" d="M302.182,-56.0828C289.135,-64.7337 298.074,-74 329,-74 349.778,-74 360.632,-69.8171 361.56,-64.4482"/>
<polygon fill="#63b8ff" stroke="#63b8ff" points="364.363,-62.3472 355.818,-56.0828 358.592,-66.3083 364.363,-62.3472"/>
</g>
</g>
</svg>
