<?xml version="1.0" encoding="UTF-8" standalone="no"?>
<!DOCTYPE svg PUBLIC "-//W3C//DTD SVG 1.1//EN"
 "http://www.w3.org/Graphics/SVG/1.1/DTD/svg11.dtd">
<!-- Generated by graphviz version 2.38.0 (20140413.2041)
 -->
<!-- Title: fxTerms Pages: 1 -->
<svg width="371pt" height="27pt"
 viewBox="0.00 0.00 371.00 27.00" xmlns="http://www.w3.org/2000/svg" xmlns:xlink="http://www.w3.org/1999/xlink">
<g id="graph0" class="graph" transform="scale(1 1) rotate(0) translate(4 23)">
<title>fxTerms</title>
<!-- Node1 -->
<g id="node1" class="node"><title>Node1</title>
<g id="a_node1"><a xlink:title=" ">
<polygon fill="#999999" stroke="#666666" points="363,-19 312,-19 312,-0 363,-0 363,-19"/>
<text text-anchor="middle" x="337.5" y="-7" font-family="Helvetica,sans-Serif" font-size="10.00">fxTerms</text>
</a>
</g>
</g>
<!-- Node2 -->
<g id="node2" class="node"><title>Node2</title>
<g id="a_node2"><a xlink:href="classore_1_1data_1_1_t_r_s.html#a17c52770813ed95c459d58cf70d87051" target="_top" xlink:title=" ">
<polygon fill="white" stroke="#666666" points="276,-19 142,-19 142,-0 276,-0 276,-19"/>
<text text-anchor="middle" x="209" y="-7" font-family="Helvetica,sans-Serif" font-size="10.00">ore::data::TRS::getFxIndex</text>
</a>
</g>
</g>
<!-- Node1&#45;&gt;Node2 -->
<g id="edge1" class="edge"><title>Node1&#45;&gt;Node2</title>
<path fill="none" stroke="#63b8ff" d="M301.783,-9.5C293.773,-9.5 284.991,-9.5 276.133,-9.5"/>
<polygon fill="#63b8ff" stroke="#63b8ff" points="301.809,-13.0001 311.809,-9.5 301.809,-6.0001 301.809,-13.0001"/>
</g>
<!-- Node3 -->
<g id="node3" class="node"><title>Node3</title>
<g id="a_node3"><a xlink:href="classore_1_1data_1_1_t_r_s.html#af7b69d5b18d278257927e32b10a23ee6" target="_top" xlink:title=" ">
<polygon fill="white" stroke="#666666" points="106,-19 0,-19 0,-0 106,-0 106,-19"/>
<text text-anchor="middle" x="53" y="-7" font-family="Helvetica,sans-Serif" font-size="10.00">ore::data::TRS::build</text>
</a>
</g>
</g>
<!-- Node2&#45;&gt;Node3 -->
<g id="edge2" class="edge"><title>Node2&#45;&gt;Node3</title>
<path fill="none" stroke="#63b8ff" d="M131.697,-9.5C123.066,-9.5 114.424,-9.5 106.205,-9.5"/>
<polygon fill="#63b8ff" stroke="#63b8ff" points="131.796,-13.0001 141.796,-9.5 131.796,-6.0001 131.796,-13.0001"/>
</g>
</g>
</svg>
