<?xml version="1.0" encoding="UTF-8" standalone="no"?>
<!DOCTYPE svg PUBLIC "-//W3C//DTD SVG 1.1//EN"
 "http://www.w3.org/Graphics/SVG/1.1/DTD/svg11.dtd">
<!-- Generated by graphviz version 2.38.0 (20140413.2041)
 -->
<!-- Title: initIndices Pages: 1 -->
<svg width="193pt" height="101pt"
 viewBox="0.00 0.00 193.00 101.00" xmlns="http://www.w3.org/2000/svg" xmlns:xlink="http://www.w3.org/1999/xlink">
<g id="graph0" class="graph" transform="scale(1 1) rotate(0) translate(4 97)">
<title>initIndices</title>
<!-- Node1 -->
<g id="node1" class="node"><title>Node1</title>
<g id="a_node1"><a xlink:title=" ">
<polygon fill="#999999" stroke="#666666" points="185,-56 125,-56 125,-37 185,-37 185,-56"/>
<text text-anchor="middle" x="155" y="-44" font-family="Helvetica,sans-Serif" font-size="10.00">initIndices</text>
</a>
</g>
</g>
<!-- Node2 -->
<g id="node2" class="node"><title>Node2</title>
<g id="a_node2"><a xlink:href="classore_1_1data_1_1_best_entry_option.html#a6578a45eb7e5e5657c84dc8b89920ba5" target="_top" xlink:title=" ">
<polygon fill="white" stroke="#666666" points="89,-93 0,-93 0,-74 89,-74 89,-93"/>
<text text-anchor="middle" x="44.5" y="-81" font-family="Helvetica,sans-Serif" font-size="10.00">BestEntryOption</text>
</a>
</g>
</g>
<!-- Node1&#45;&gt;Node2 -->
<g id="edge1" class="edge"><title>Node1&#45;&gt;Node2</title>
<path fill="none" stroke="#63b8ff" d="M116.235,-59.3783C102.271,-64.1403 86.6964,-69.4515 73.7239,-73.8753"/>
<polygon fill="#63b8ff" stroke="#63b8ff" points="117.723,-62.5688 126.059,-56.0284 115.464,-55.9434 117.723,-62.5688"/>
</g>
<!-- Node3 -->
<g id="node3" class="node"><title>Node3</title>
<g id="a_node3"><a xlink:href="classore_1_1data_1_1_best_entry_option.html#af7b69d5b18d278257927e32b10a23ee6" target="_top" xlink:title=" ">
<polygon fill="white" stroke="#666666" points="63,-56 26,-56 26,-37 63,-37 63,-56"/>
<text text-anchor="middle" x="44.5" y="-44" font-family="Helvetica,sans-Serif" font-size="10.00">build</text>
</a>
</g>
</g>
<!-- Node1&#45;&gt;Node3 -->
<g id="edge2" class="edge"><title>Node1&#45;&gt;Node3</title>
<path fill="none" stroke="#63b8ff" d="M114.826,-46.5C97.1114,-46.5 77.0666,-46.5 63.104,-46.5"/>
<polygon fill="#63b8ff" stroke="#63b8ff" points="114.924,-50.0001 124.924,-46.5 114.924,-43.0001 114.924,-50.0001"/>
</g>
<!-- Node4 -->
<g id="node4" class="node"><title>Node4</title>
<g id="a_node4"><a xlink:href="classore_1_1data_1_1_best_entry_option.html#a7741ae0fc924943de5bfe02928262eb7" target="_top" xlink:title=" ">
<polygon fill="white" stroke="#666666" points="71.5,-19 17.5,-19 17.5,-0 71.5,-0 71.5,-19"/>
<text text-anchor="middle" x="44.5" y="-7" font-family="Helvetica,sans-Serif" font-size="10.00">fromXML</text>
</a>
</g>
</g>
<!-- Node1&#45;&gt;Node4 -->
<g id="edge3" class="edge"><title>Node1&#45;&gt;Node4</title>
<path fill="none" stroke="#63b8ff" d="M116.261,-33.6304C101.612,-28.635 85.1882,-23.0342 71.8535,-18.4869"/>
<polygon fill="#63b8ff" stroke="#63b8ff" points="115.464,-37.0566 126.059,-36.9716 117.723,-30.4312 115.464,-37.0566"/>
</g>
</g>
</svg>
