<?xml version="1.0" encoding="UTF-8" standalone="no"?>
<!DOCTYPE svg PUBLIC "-//W3C//DTD SVG 1.1//EN"
 "http://www.w3.org/Graphics/SVG/1.1/DTD/svg11.dtd">
<!-- Generated by graphviz version 2.38.0 (20140413.2041)
 -->
<!-- Title: populateQuotes Pages: 1 -->
<svg width="556pt" height="70pt"
 viewBox="0.00 0.00 556.00 69.50" xmlns="http://www.w3.org/2000/svg" xmlns:xlink="http://www.w3.org/1999/xlink">
<g id="graph0" class="graph" transform="scale(1 1) rotate(0) translate(4 65.5)">
<title>populateQuotes</title>
<!-- Node1 -->
<g id="node1" class="node"><title>Node1</title>
<g id="a_node1"><a xlink:title="Populate quotes.">
<polygon fill="#999999" stroke="#666666" points="548,-42.5 463,-42.5 463,-23.5 548,-23.5 548,-42.5"/>
<text text-anchor="middle" x="505.5" y="-30.5" font-family="Helvetica,sans-Serif" font-size="10.00">populateQuotes</text>
</a>
</g>
</g>
<!-- Node2 -->
<g id="node2" class="node"><title>Node2</title>
<g id="a_node2"><a xlink:href="classore_1_1data_1_1_price_segment.html#a0b0296cb419fe64088af821359be4a78" target="_top" xlink:title="Detailed constructor.">
<polygon fill="white" stroke="#666666" points="427,-61.5 349,-61.5 349,-42.5 427,-42.5 427,-61.5"/>
<text text-anchor="middle" x="388" y="-49.5" font-family="Helvetica,sans-Serif" font-size="10.00">PriceSegment</text>
</a>
</g>
</g>
<!-- Node1&#45;&gt;Node2 -->
<g id="edge1" class="edge"><title>Node1&#45;&gt;Node2</title>
<path fill="none" stroke="#63b8ff" d="M452.811,-41.5029C444.189,-42.9212 435.385,-44.3695 427.179,-45.7194"/>
<polygon fill="#63b8ff" stroke="#63b8ff" points="453.503,-44.9363 462.802,-39.8594 452.366,-38.0291 453.503,-44.9363"/>
</g>
<!-- Node3 -->
<g id="node3" class="node"><title>Node3</title>
<g id="a_node3"><a xlink:href="classore_1_1data_1_1_price_segment.html#a7741ae0fc924943de5bfe02928262eb7" target="_top" xlink:title=" ">
<polygon fill="white" stroke="#666666" points="415,-24.5 361,-24.5 361,-5.5 415,-5.5 415,-24.5"/>
<text text-anchor="middle" x="388" y="-12.5" font-family="Helvetica,sans-Serif" font-size="10.00">fromXML</text>
</a>
</g>
</g>
<!-- Node1&#45;&gt;Node3 -->
<g id="edge2" class="edge"><title>Node1&#45;&gt;Node3</title>
<path fill="none" stroke="#63b8ff" d="M452.558,-24.9051C439.617,-22.8884 426.283,-20.8103 415.191,-19.0817"/>
<polygon fill="#63b8ff" stroke="#63b8ff" points="452.382,-28.4199 462.802,-26.5016 453.46,-21.5034 452.382,-28.4199"/>
</g>
<!-- Node4 -->
<g id="node4" class="node"><title>Node4</title>
<g id="a_node4"><a xlink:href="classore_1_1data_1_1_commodity_curve_config.html#a7741ae0fc924943de5bfe02928262eb7" target="_top" xlink:title=" ">
<polygon fill="white" stroke="#666666" points="313,-30 179,-30 179,-0 313,-0 313,-30"/>
<text text-anchor="start" x="187" y="-18" font-family="Helvetica,sans-Serif" font-size="10.00">ore::data::CommodityCurve</text>
<text text-anchor="middle" x="246" y="-7" font-family="Helvetica,sans-Serif" font-size="10.00">Config::fromXML</text>
</a>
</g>
</g>
<!-- Node3&#45;&gt;Node4 -->
<g id="edge3" class="edge"><title>Node3&#45;&gt;Node4</title>
<path fill="none" stroke="#63b8ff" d="M350.87,-15C339.289,-15 326.078,-15 313.051,-15"/>
<polygon fill="#63b8ff" stroke="#63b8ff" points="350.995,-18.5001 360.995,-15 350.995,-11.5001 350.995,-18.5001"/>
</g>
<!-- Node5 -->
<g id="node5" class="node"><title>Node5</title>
<g id="a_node5"><a xlink:href="test_2commoditycurveconfig_8cpp.html#a211329d4e6d8e3d23c39ccee40f56f99" target="_top" xlink:title=" ">
<polygon fill="white" stroke="#666666" points="143,-24.5 0,-24.5 0,-5.5 143,-5.5 143,-24.5"/>
<text text-anchor="middle" x="71.5" y="-12.5" font-family="Helvetica,sans-Serif" font-size="10.00">BOOST_AUTO_TEST_CASE</text>
</a>
</g>
</g>
<!-- Node4&#45;&gt;Node5 -->
<g id="edge4" class="edge"><title>Node4&#45;&gt;Node5</title>
<path fill="none" stroke="#63b8ff" d="M168.558,-15C160.091,-15 151.496,-15 143.106,-15"/>
<polygon fill="#63b8ff" stroke="#63b8ff" points="168.8,-18.5001 178.8,-15 168.8,-11.5001 168.8,-18.5001"/>
</g>
</g>
</svg>
