<?xml version="1.0" encoding="UTF-8" standalone="no"?>
<!DOCTYPE svg PUBLIC "-//W3C//DTD SVG 1.1//EN"
 "http://www.w3.org/Graphics/SVG/1.1/DTD/svg11.dtd">
<!-- Generated by graphviz version 2.38.0 (20140413.2041)
 -->
<!-- Title: fromXML Pages: 1 -->
<svg width="543pt" height="397pt"
 viewBox="0.00 0.00 543.00 397.00" xmlns="http://www.w3.org/2000/svg" xmlns:xlink="http://www.w3.org/1999/xlink">
<g id="graph0" class="graph" transform="scale(1 1) rotate(0) translate(4 393)">
<title>fromXML</title>
<!-- Node1 -->
<g id="node1" class="node"><title>Node1</title>
<g id="a_node1"><a xlink:title=" ">
<polygon fill="#999999" stroke="#666666" points="54,-211.5 0,-211.5 0,-192.5 54,-192.5 54,-211.5"/>
<text text-anchor="middle" x="27" y="-199.5" font-family="Helvetica,sans-Serif" font-size="10.00">fromXML</text>
</a>
</g>
</g>
<!-- Node2 -->
<g id="node2" class="node"><title>Node2</title>
<g id="a_node2"><a xlink:href="classore_1_1data_1_1_x_m_l_utils.html#a37c092916f4bdf10d4fbf6bb9e474db7" target="_top" xlink:title=" ">
<polygon fill="white" stroke="#666666" points="208,-389 109,-389 109,-359 208,-359 208,-389"/>
<text text-anchor="start" x="117" y="-377" font-family="Helvetica,sans-Serif" font-size="10.00">ore::data::XMLUtils</text>
<text text-anchor="middle" x="158.5" y="-366" font-family="Helvetica,sans-Serif" font-size="10.00">::checkNode</text>
</a>
</g>
</g>
<!-- Node1&#45;&gt;Node2 -->
<g id="edge1" class="edge"><title>Node1&#45;&gt;Node2</title>
<path fill="none" stroke="#63b8ff" d="M29.3414,-211.834C33.4293,-238.06 48.1164,-310.363 90,-350 92.9641,-352.805 96.2773,-355.285 99.8014,-357.478"/>
<polygon fill="#63b8ff" stroke="#63b8ff" points="98.4489,-360.724 108.917,-362.357 101.752,-354.553 98.4489,-360.724"/>
</g>
<!-- Node3 -->
<g id="node3" class="node"><title>Node3</title>
<g id="a_node3"><a xlink:href="classore_1_1data_1_1_netting_set_details.html#a7741ae0fc924943de5bfe02928262eb7" target="_top" xlink:title=" ">
<polygon fill="white" stroke="#666666" points="227,-341 90,-341 90,-311 227,-311 227,-341"/>
<text text-anchor="start" x="98" y="-329" font-family="Helvetica,sans-Serif" font-size="10.00">ore::data::NettingSetDetails</text>
<text text-anchor="middle" x="158.5" y="-318" font-family="Helvetica,sans-Serif" font-size="10.00">::fromXML</text>
</a>
</g>
</g>
<!-- Node1&#45;&gt;Node3 -->
<g id="edge2" class="edge"><title>Node1&#45;&gt;Node3</title>
<path fill="none" stroke="#63b8ff" d="M32.0026,-211.691C40.23,-230.533 60.7569,-272.41 90,-297 93.9856,-300.351 98.4168,-303.372 103.05,-306.081"/>
<polygon fill="#63b8ff" stroke="#63b8ff" points="101.672,-309.312 112.145,-310.913 104.956,-303.13 101.672,-309.312"/>
</g>
<!-- Node4 -->
<g id="node4" class="node"><title>Node4</title>
<g id="a_node4"><a xlink:href="classore_1_1data_1_1_x_m_l_utils.html#a5a1307174ddefdb3aad6e3bd8cc63b27" target="_top" xlink:title=" ">
<polygon fill="white" stroke="#666666" points="381,-303 282,-303 282,-273 381,-273 381,-303"/>
<text text-anchor="start" x="290" y="-291" font-family="Helvetica,sans-Serif" font-size="10.00">ore::data::XMLUtils</text>
<text text-anchor="middle" x="331.5" y="-280" font-family="Helvetica,sans-Serif" font-size="10.00">::getChildValue</text>
</a>
</g>
</g>
<!-- Node1&#45;&gt;Node4 -->
<g id="edge7" class="edge"><title>Node1&#45;&gt;Node4</title>
<path fill="none" stroke="#63b8ff" d="M35.1764,-211.617C45.6208,-224.807 66.3615,-248.11 90,-259 147.713,-285.587 221.076,-290.893 271.513,-290.776"/>
<polygon fill="#63b8ff" stroke="#63b8ff" points="271.632,-294.275 281.598,-290.68 271.565,-287.276 271.632,-294.275"/>
</g>
<!-- Node5 -->
<g id="node5" class="node"><title>Node5</title>
<g id="a_node5"><a xlink:href="classore_1_1data_1_1_x_m_l_utils.html#a6704501b110fa9d056096df3e05f0df2" target="_top" xlink:title="Get a node&#39;s value.">
<polygon fill="white" stroke="#666666" points="535,-281 436,-281 436,-251 535,-251 535,-281"/>
<text text-anchor="start" x="444" y="-269" font-family="Helvetica,sans-Serif" font-size="10.00">ore::data::XMLUtils</text>
<text text-anchor="middle" x="485.5" y="-258" font-family="Helvetica,sans-Serif" font-size="10.00">::getNodeValue</text>
</a>
</g>
</g>
<!-- Node1&#45;&gt;Node5 -->
<g id="edge10" class="edge"><title>Node1&#45;&gt;Node5</title>
<path fill="none" stroke="#63b8ff" d="M48.5043,-211.539C60.3748,-216.651 75.745,-222.584 90,-226 206.926,-254.018 347.935,-262.424 425.739,-264.937"/>
<polygon fill="#63b8ff" stroke="#63b8ff" points="425.728,-268.439 435.829,-265.241 425.939,-261.442 425.728,-268.439"/>
</g>
<!-- Node6 -->
<g id="node6" class="node"><title>Node6</title>
<g id="a_node6"><a xlink:href="classore_1_1data_1_1_x_m_l_utils.html#a5f2b91a4af900e85c356cfe807e64501" target="_top" xlink:title=" ">
<polygon fill="white" stroke="#666666" points="208,-217 109,-217 109,-187 208,-187 208,-217"/>
<text text-anchor="start" x="117" y="-205" font-family="Helvetica,sans-Serif" font-size="10.00">ore::data::XMLUtils</text>
<text text-anchor="middle" x="158.5" y="-194" font-family="Helvetica,sans-Serif" font-size="10.00">::getChildNode</text>
</a>
</g>
</g>
<!-- Node1&#45;&gt;Node6 -->
<g id="edge5" class="edge"><title>Node1&#45;&gt;Node6</title>
<path fill="none" stroke="#63b8ff" d="M54.2063,-202C67.0591,-202 83.0977,-202 98.675,-202"/>
<polygon fill="#63b8ff" stroke="#63b8ff" points="98.8069,-205.5 108.807,-202 98.8068,-198.5 98.8069,-205.5"/>
</g>
<!-- Node7 -->
<g id="node7" class="node"><title>Node7</title>
<g id="a_node7"><a xlink:href="classore_1_1data_1_1_x_m_l_utils.html#a42678b2a0d7c4052dc19123914359ec1" target="_top" xlink:title="Returns all the children with a given name.">
<polygon fill="white" stroke="#666666" points="208,-169 109,-169 109,-139 208,-139 208,-169"/>
<text text-anchor="start" x="117" y="-157" font-family="Helvetica,sans-Serif" font-size="10.00">ore::data::XMLUtils</text>
<text text-anchor="middle" x="158.5" y="-146" font-family="Helvetica,sans-Serif" font-size="10.00">::getChildrenNodes</text>
</a>
</g>
</g>
<!-- Node1&#45;&gt;Node7 -->
<g id="edge6" class="edge"><title>Node1&#45;&gt;Node7</title>
<path fill="none" stroke="#63b8ff" d="M52.0848,-192.498C63.5414,-188.024 77.4481,-182.66 90,-178 94.8316,-176.206 99.8675,-174.364 104.915,-172.537"/>
<polygon fill="#63b8ff" stroke="#63b8ff" points="106.361,-175.736 114.586,-169.057 103.991,-169.15 106.361,-175.736"/>
</g>
<!-- Node8 -->
<g id="node8" class="node"><title>Node8</title>
<g id="a_node8"><a xlink:href="classore_1_1data_1_1_x_m_l_utils.html#a7fedec5ac495a3e67a9abd7e4aae74aa" target="_top" xlink:title="Get a node&#39;s next sibling node.">
<polygon fill="white" stroke="#666666" points="208,-121 109,-121 109,-91 208,-91 208,-121"/>
<text text-anchor="start" x="117" y="-109" font-family="Helvetica,sans-Serif" font-size="10.00">ore::data::XMLUtils</text>
<text text-anchor="middle" x="158.5" y="-98" font-family="Helvetica,sans-Serif" font-size="10.00">::getNextSibling</text>
</a>
</g>
</g>
<!-- Node1&#45;&gt;Node8 -->
<g id="edge8" class="edge"><title>Node1&#45;&gt;Node8</title>
<path fill="none" stroke="#63b8ff" d="M34.0126,-192.189C43.8869,-176.846 64.9621,-147.157 90,-130 93.0523,-127.908 96.3067,-125.979 99.6752,-124.202"/>
<polygon fill="#63b8ff" stroke="#63b8ff" points="101.28,-127.314 108.797,-119.848 98.2647,-120.997 101.28,-127.314"/>
</g>
<!-- Node9 -->
<g id="node9" class="node"><title>Node9</title>
<g id="a_node9"><a xlink:href="classore_1_1data_1_1_x_m_l_utils.html#a4e041c36cab0a16681fb41dfbd991882" target="_top" xlink:title="Get and set a node&#39;s name.">
<polygon fill="white" stroke="#666666" points="208,-73 109,-73 109,-43 208,-43 208,-73"/>
<text text-anchor="start" x="117" y="-61" font-family="Helvetica,sans-Serif" font-size="10.00">ore::data::XMLUtils</text>
<text text-anchor="middle" x="158.5" y="-50" font-family="Helvetica,sans-Serif" font-size="10.00">::getNodeName</text>
</a>
</g>
</g>
<!-- Node1&#45;&gt;Node9 -->
<g id="edge9" class="edge"><title>Node1&#45;&gt;Node9</title>
<path fill="none" stroke="#63b8ff" d="M30.3493,-192.393C36.3444,-169.858 54.3183,-113.154 90,-82 93.0229,-79.3606 96.3561,-77.0053 99.8734,-74.9044"/>
<polygon fill="#63b8ff" stroke="#63b8ff" points="101.672,-77.9139 108.923,-70.1892 98.4377,-71.7059 101.672,-77.9139"/>
</g>
<!-- Node10 -->
<g id="node10" class="node"><title>Node10</title>
<g id="a_node10"><a xlink:href="classore_1_1data_1_1_envelope.html#a9bf8e40febad0782c5855488041ecfd7" target="_top" xlink:title=" ">
<polygon fill="white" stroke="#666666" points="192.5,-24.5 124.5,-24.5 124.5,-5.5 192.5,-5.5 192.5,-24.5"/>
<text text-anchor="middle" x="158.5" y="-12.5" font-family="Helvetica,sans-Serif" font-size="10.00">nettingSetId</text>
</a>
</g>
</g>
<!-- Node1&#45;&gt;Node10 -->
<g id="edge11" class="edge"><title>Node1&#45;&gt;Node10</title>
<path fill="none" stroke="#63b8ff" d="M28.6072,-192.378C30.9413,-163.778 41.8155,-78.5136 90,-34 96.8297,-27.6906 105.592,-23.4548 114.526,-20.6169"/>
<polygon fill="#63b8ff" stroke="#63b8ff" points="115.434,-23.9972 124.205,-18.0541 113.642,-17.2304 115.434,-23.9972"/>
</g>
<!-- Node3&#45;&gt;Node4 -->
<g id="edge3" class="edge"><title>Node3&#45;&gt;Node4</title>
<path fill="none" stroke="#63b8ff" d="M227.084,-310.981C241.95,-307.678 257.574,-304.206 272.045,-300.99"/>
<polygon fill="#63b8ff" stroke="#63b8ff" points="272.853,-304.396 281.856,-298.81 271.335,-297.563 272.853,-304.396"/>
</g>
<!-- Node4&#45;&gt;Node5 -->
<g id="edge4" class="edge"><title>Node4&#45;&gt;Node5</title>
<path fill="none" stroke="#63b8ff" d="M381.012,-280.979C395.271,-278.915 411.023,-276.635 425.845,-274.49"/>
<polygon fill="#63b8ff" stroke="#63b8ff" points="426.532,-277.927 435.928,-273.03 425.53,-270.999 426.532,-277.927"/>
</g>
<!-- Node11 -->
<g id="node11" class="node"><title>Node11</title>
<g id="a_node11"><a xlink:href="classore_1_1data_1_1_netting_set_details.html#a9bf8e40febad0782c5855488041ecfd7" target="_top" xlink:title=" ">
<polygon fill="white" stroke="#666666" points="400,-30 263,-30 263,-0 400,-0 400,-30"/>
<text text-anchor="start" x="271" y="-18" font-family="Helvetica,sans-Serif" font-size="10.00">ore::data::NettingSetDetails</text>
<text text-anchor="middle" x="331.5" y="-7" font-family="Helvetica,sans-Serif" font-size="10.00">::nettingSetId</text>
</a>
</g>
</g>
<!-- Node10&#45;&gt;Node11 -->
<g id="edge12" class="edge"><title>Node10&#45;&gt;Node11</title>
<path fill="none" stroke="#63b8ff" d="M192.876,-15C210,-15 231.633,-15 252.646,-15"/>
<polygon fill="#63b8ff" stroke="#63b8ff" points="252.888,-18.5001 262.888,-15 252.888,-11.5001 252.888,-18.5001"/>
</g>
</g>
</svg>
