<?xml version="1.0" encoding="UTF-8" standalone="no"?>
<!DOCTYPE svg PUBLIC "-//W3C//DTD SVG 1.1//EN"
 "http://www.w3.org/Graphics/SVG/1.1/DTD/svg11.dtd">
<!-- Generated by graphviz version 2.38.0 (20140413.2041)
 -->
<!-- Title: ScriptLibraryStorage Pages: 1 -->
<svg width="135pt" height="192pt"
 viewBox="0.00 0.00 135.00 192.00" xmlns="http://www.w3.org/2000/svg" xmlns:xlink="http://www.w3.org/1999/xlink">
<g id="graph0" class="graph" transform="scale(1 1) rotate(0) translate(4 188)">
<title>ScriptLibraryStorage</title>
<!-- Node1 -->
<g id="node1" class="node"><title>Node1</title>
<g id="a_node1"><a xlink:title=" ">
<polygon fill="#999999" stroke="#666666" points="117.5,-96 9.5,-96 9.5,-0 117.5,-0 117.5,-96"/>
<text text-anchor="middle" x="63.5" y="-84" font-family="Helvetica,sans-Serif" font-size="10.00">{ScriptLibraryStorage</text>
<text text-anchor="start" x="17.5" y="-73" font-family="Helvetica,sans-Serif" font-size="10.00">|&#45; data_</text>
<text text-anchor="start" x="17.5" y="-62" font-family="Helvetica,sans-Serif" font-size="10.00">&#45; mutex_</text>
<text text-anchor="start" x="17.5" y="-51" font-family="Helvetica,sans-Serif" font-size="10.00">|+ get()</text>
<text text-anchor="start" x="17.5" y="-40" font-family="Helvetica,sans-Serif" font-size="10.00">+ set()</text>
<text text-anchor="start" x="17.5" y="-29" font-family="Helvetica,sans-Serif" font-size="10.00">+ set()</text>
<text text-anchor="start" x="17.5" y="-18" font-family="Helvetica,sans-Serif" font-size="10.00">+ clear()</text>
<text text-anchor="middle" x="63.5" y="-7" font-family="Helvetica,sans-Serif" font-size="10.00">}</text>
</a>
</g>
</g>
<!-- Node2 -->
<g id="node2" class="node"><title>Node2</title>
<g id="a_node2"><a xlink:title=" ">
<polygon fill="white" stroke="#666666" points="127,-184 -7.10543e-015,-184 -7.10543e-015,-132 127,-132 127,-184"/>
<text text-anchor="start" x="8" y="-172" font-family="Helvetica,sans-Serif" font-size="10.00">{Singleton&lt; ScriptLibrary</text>
<text text-anchor="start" x="8" y="-161" font-family="Helvetica,sans-Serif" font-size="10.00">Storage, std::integral</text>
<text text-anchor="middle" x="63.5" y="-150" font-family="Helvetica,sans-Serif" font-size="10.00">_constant&lt; bool, true &gt; &gt;</text>
<text text-anchor="middle" x="63.5" y="-139" font-family="Helvetica,sans-Serif" font-size="10.00">||}</text>
</a>
</g>
</g>
<!-- Node2&#45;&gt;Node1 -->
<g id="edge1" class="edge"><title>Node2&#45;&gt;Node1</title>
<path fill="none" stroke="#63b8ff" d="M63.5,-121.753C63.5,-113.659 63.5,-104.924 63.5,-96.4097"/>
<polygon fill="none" stroke="#63b8ff" points="60.0001,-121.951 63.5,-131.951 67.0001,-121.951 60.0001,-121.951"/>
</g>
</g>
</svg>
