<?xml version="1.0" encoding="UTF-8" standalone="no"?>
<!DOCTYPE svg PUBLIC "-//W3C//DTD SVG 1.1//EN"
 "http://www.w3.org/Graphics/SVG/1.1/DTD/svg11.dtd">
<!-- Generated by graphviz version 2.38.0 (20140413.2041)
 -->
<!-- Title: getExpiryAndTerm Pages: 1 -->
<svg width="529pt" height="141pt"
 viewBox="0.00 0.00 529.00 141.00" xmlns="http://www.w3.org/2000/svg" xmlns:xlink="http://www.w3.org/1999/xlink">
<g id="graph0" class="graph" transform="scale(1 1) rotate(0) translate(4 137)">
<title>getExpiryAndTerm</title>
<!-- Node1 -->
<g id="node1" class="node"><title>Node1</title>
<g id="a_node1"><a xlink:title=" ">
<polygon fill="#999999" stroke="#666666" points="521,-76 424,-76 424,-57 521,-57 521,-76"/>
<text text-anchor="middle" x="472.5" y="-64" font-family="Helvetica,sans-Serif" font-size="10.00">getExpiryAndTerm</text>
</a>
</g>
</g>
<!-- Node2 -->
<g id="node2" class="node"><title>Node2</title>
<g id="a_node2"><a xlink:href="classore_1_1data_1_1_lgm_builder.html#aa8e3fec1edec54f0f963e747c4c44a9b" target="_top" xlink:title=" ">
<polygon fill="white" stroke="#666666" points="388,-95 281,-95 281,-76 388,-76 388,-95"/>
<text text-anchor="middle" x="334.5" y="-83" font-family="Helvetica,sans-Serif" font-size="10.00">buildSwaptionBasket</text>
</a>
</g>
</g>
<!-- Node1&#45;&gt;Node2 -->
<g id="edge1" class="edge"><title>Node1&#45;&gt;Node2</title>
<path fill="none" stroke="#63b8ff" d="M413.791,-74.5623C405.358,-75.7404 396.709,-76.9487 388.379,-78.1125"/>
<polygon fill="#63b8ff" stroke="#63b8ff" points="414.514,-77.9953 423.934,-73.1453 413.546,-71.0626 414.514,-77.9953"/>
</g>
<!-- Node5 -->
<g id="node5" class="node"><title>Node5</title>
<g id="a_node5"><a xlink:href="classore_1_1data_1_1_lgm_builder.html#a11d6981c9430b09a2c7d82f2c0d7290d" target="_top" xlink:title=" ">
<polygon fill="white" stroke="#666666" points="384,-57 285,-57 285,-38 384,-38 384,-57"/>
<text text-anchor="middle" x="334.5" y="-45" font-family="Helvetica,sans-Serif" font-size="10.00">volSurfaceChanged</text>
</a>
</g>
</g>
<!-- Node1&#45;&gt;Node5 -->
<g id="edge4" class="edge"><title>Node1&#45;&gt;Node5</title>
<path fill="none" stroke="#63b8ff" d="M413.802,-58.4392C403.942,-57.0618 393.787,-55.643 384.191,-54.3024"/>
<polygon fill="#63b8ff" stroke="#63b8ff" points="413.546,-61.9374 423.934,-59.8547 414.514,-55.0047 413.546,-61.9374"/>
</g>
<!-- Node3 -->
<g id="node3" class="node"><title>Node3</title>
<g id="a_node3"><a xlink:href="classore_1_1data_1_1_lgm_builder.html#a1cabc6bdb40969003b68e3154b43e856" target="_top" xlink:title=" ">
<polygon fill="white" stroke="#666666" points="224,-133 159,-133 159,-114 224,-114 224,-133"/>
<text text-anchor="middle" x="191.5" y="-121" font-family="Helvetica,sans-Serif" font-size="10.00">LgmBuilder</text>
</a>
</g>
</g>
<!-- Node2&#45;&gt;Node3 -->
<g id="edge2" class="edge"><title>Node2&#45;&gt;Node3</title>
<path fill="none" stroke="#63b8ff" d="M288.007,-97.7605C267.19,-103.371 243.031,-109.882 224.22,-114.951"/>
<polygon fill="#63b8ff" stroke="#63b8ff" points="289.175,-101.071 297.92,-95.089 287.353,-94.3118 289.175,-101.071"/>
</g>
<!-- Node4 -->
<g id="node4" class="node"><title>Node4</title>
<g id="a_node4"><a xlink:href="classore_1_1data_1_1_lgm_builder.html#a1127cccc9668a02247dc139d27121708" target="_top" xlink:title=" ">
<polygon fill="white" stroke="#666666" points="102,-57 0,-57 0,-38 102,-38 102,-57"/>
<text text-anchor="middle" x="51" y="-45" font-family="Helvetica,sans-Serif" font-size="10.00">performCalculations</text>
</a>
</g>
</g>
<!-- Node2&#45;&gt;Node4 -->
<g id="edge3" class="edge"><title>Node2&#45;&gt;Node4</title>
<path fill="none" stroke="#63b8ff" d="M270.739,-78.4294C232.356,-73.9477 182.283,-67.8201 138,-61.5 126.469,-59.8543 114.094,-57.932 102.426,-56.0484"/>
<polygon fill="#63b8ff" stroke="#63b8ff" points="270.399,-81.9134 280.736,-79.5904 271.207,-74.9601 270.399,-81.9134"/>
</g>
<!-- Node5&#45;&gt;Node4 -->
<g id="edge5" class="edge"><title>Node5&#45;&gt;Node4</title>
<path fill="none" stroke="#63b8ff" d="M274.554,-47.5C223.449,-47.5 150.306,-47.5 102.009,-47.5"/>
<polygon fill="#63b8ff" stroke="#63b8ff" points="274.788,-51.0001 284.788,-47.5 274.788,-44.0001 274.788,-51.0001"/>
</g>
<!-- Node6 -->
<g id="node6" class="node"><title>Node6</title>
<g id="a_node6"><a xlink:href="classore_1_1data_1_1_lgm_builder.html#a83cbd1c07f17f2f51faea02f40eeaac9" target="_top" xlink:title=" ">
<polygon fill="white" stroke="#666666" points="245,-19 138,-19 138,-0 245,-0 245,-19"/>
<text text-anchor="middle" x="191.5" y="-7" font-family="Helvetica,sans-Serif" font-size="10.00">requiresRecalibration</text>
</a>
</g>
</g>
<!-- Node5&#45;&gt;Node6 -->
<g id="edge6" class="edge"><title>Node5&#45;&gt;Node6</title>
<path fill="none" stroke="#63b8ff" d="M288.06,-35.2538C268.625,-30.016 246.269,-23.9909 228.069,-19.0859"/>
<polygon fill="#63b8ff" stroke="#63b8ff" points="287.353,-38.6882 297.92,-37.911 289.175,-31.9293 287.353,-38.6882"/>
</g>
<!-- Node6&#45;&gt;Node4 -->
<g id="edge7" class="edge"><title>Node6&#45;&gt;Node4</title>
<path fill="none" stroke="#63b8ff" d="M145.866,-21.7462C126.775,-26.984 104.816,-33.0091 86.9382,-37.9141"/>
<polygon fill="#63b8ff" stroke="#63b8ff" points="146.833,-25.1102 155.551,-19.089 144.981,-18.3597 146.833,-25.1102"/>
</g>
</g>
</svg>
