<?xml version="1.0" encoding="UTF-8" standalone="no"?>
<!DOCTYPE svg PUBLIC "-//W3C//DTD SVG 1.1//EN"
 "http://www.w3.org/Graphics/SVG/1.1/DTD/svg11.dtd">
<!-- Generated by graphviz version 2.38.0 (20140413.2041)
 -->
<!-- Title: LegBuilder Pages: 1 -->
<svg width="118pt" height="226pt"
 viewBox="0.00 0.00 118.00 226.00" xmlns="http://www.w3.org/2000/svg" xmlns:xlink="http://www.w3.org/1999/xlink">
<g id="graph0" class="graph" transform="scale(1 1) rotate(0) translate(4 222)">
<title>LegBuilder</title>
<!-- Node1 -->
<g id="node1" class="node"><title>Node1</title>
<g id="a_node1"><a xlink:title=" ">
<polygon fill="#999999" stroke="#666666" points="96.5,-74 13.5,-74 13.5,-0 96.5,-0 96.5,-74"/>
<text text-anchor="middle" x="55" y="-62" font-family="Helvetica,sans-Serif" font-size="10.00">{LegBuilder</text>
<text text-anchor="start" x="21.5" y="-51" font-family="Helvetica,sans-Serif" font-size="10.00">||+ LegBuilder()</text>
<text text-anchor="start" x="21.5" y="-40" font-family="Helvetica,sans-Serif" font-size="10.00">+ ~LegBuilder()</text>
<text text-anchor="start" x="21.5" y="-29" font-family="Helvetica,sans-Serif" font-size="10.00">+ buildLeg()</text>
<text text-anchor="start" x="21.5" y="-18" font-family="Helvetica,sans-Serif" font-size="10.00">+ legType()</text>
<text text-anchor="middle" x="55" y="-7" font-family="Helvetica,sans-Serif" font-size="10.00">}</text>
</a>
</g>
</g>
<!-- Node2 -->
<g id="node2" class="node"><title>Node2</title>
<g id="a_node2"><a xlink:title=" ">
<polygon fill="white" stroke="#666666" points="77,-151 33,-151 33,-121 77,-121 77,-151"/>
<text text-anchor="middle" x="55" y="-139" font-family="Helvetica,sans-Serif" font-size="10.00">{string</text>
<text text-anchor="middle" x="55" y="-128" font-family="Helvetica,sans-Serif" font-size="10.00">||}</text>
</a>
</g>
</g>
<!-- Node2&#45;&gt;Node1 -->
<g id="edge1" class="edge"><title>Node2&#45;&gt;Node1</title>
<path fill="none" stroke="#404040" d="M55,-120.687C55,-111.518 55,-99.0305 55,-86.54"/>
<polygon fill="none" stroke="#404040" points="55.0001,-86.1709 51,-80.171 55,-74.1709 59,-80.1709 55.0001,-86.1709"/>
<text text-anchor="middle" x="78" y="-95" font-family="Helvetica,sans-Serif" font-size="10.00"> &#45;legType_</text>
</g>
<!-- Node3 -->
<g id="node3" class="node"><title>Node3</title>
<g id="a_node3"><a xlink:title=" ">
<polygon fill="white" stroke="#666666" points="110,-218 0,-218 0,-188 110,-188 110,-218"/>
<text text-anchor="middle" x="55" y="-206" font-family="Helvetica,sans-Serif" font-size="10.00">{basic_string&lt; Char &gt;</text>
<text text-anchor="middle" x="55" y="-195" font-family="Helvetica,sans-Serif" font-size="10.00">||}</text>
</a>
</g>
</g>
<!-- Node3&#45;&gt;Node2 -->
<g id="edge2" class="edge"><title>Node3&#45;&gt;Node2</title>
<path fill="none" stroke="#63b8ff" d="M55,-177.608C55,-168.654 55,-158.823 55,-151.077"/>
<polygon fill="none" stroke="#63b8ff" points="51.5001,-177.896 55,-187.896 58.5001,-177.896 51.5001,-177.896"/>
</g>
</g>
</svg>
