<?xml version="1.0" encoding="UTF-8" standalone="no"?>
<!DOCTYPE svg PUBLIC "-//W3C//DTD SVG 1.1//EN"
 "http://www.w3.org/Graphics/SVG/1.1/DTD/svg11.dtd">
<!-- Generated by graphviz version 2.38.0 (20140413.2041)
 -->
<!-- Title: DurationAdjustedCmsLegData Pages: 1 -->
<svg width="726pt" height="951pt"
 viewBox="0.00 0.00 726.00 951.00" xmlns="http://www.w3.org/2000/svg" xmlns:xlink="http://www.w3.org/1999/xlink">
<g id="graph0" class="graph" transform="scale(1 1) rotate(0) translate(4 947)">
<title>DurationAdjustedCmsLegData</title>
<!-- Node1 -->
<g id="node1" class="node"><title>Node1</title>
<g id="a_node1"><a xlink:title=" ">
<polygon fill="#999999" stroke="#666666" points="436.5,-470 269.5,-470 269.5,-0 436.5,-0 436.5,-470"/>
<text text-anchor="middle" x="353" y="-458" font-family="Helvetica,sans-Serif" font-size="10.00">{DurationAdjustedCmsLegData</text>
<text text-anchor="start" x="277.5" y="-447" font-family="Helvetica,sans-Serif" font-size="10.00">||+ DurationAdjustedCmsLegData()</text>
<text text-anchor="start" x="277.5" y="-436" font-family="Helvetica,sans-Serif" font-size="10.00">+ DurationAdjustedCmsLegData()</text>
<text text-anchor="start" x="277.5" y="-425" font-family="Helvetica,sans-Serif" font-size="10.00">+ swapIndex()</text>
<text text-anchor="start" x="277.5" y="-414" font-family="Helvetica,sans-Serif" font-size="10.00">+ duration()</text>
<text text-anchor="start" x="277.5" y="-403" font-family="Helvetica,sans-Serif" font-size="10.00">+ fixingDays()</text>
<text text-anchor="start" x="277.5" y="-392" font-family="Helvetica,sans-Serif" font-size="10.00">+ isInArrears()</text>
<text text-anchor="start" x="277.5" y="-381" font-family="Helvetica,sans-Serif" font-size="10.00">+ spreads()</text>
<text text-anchor="start" x="277.5" y="-370" font-family="Helvetica,sans-Serif" font-size="10.00">+ spreadDates()</text>
<text text-anchor="start" x="277.5" y="-359" font-family="Helvetica,sans-Serif" font-size="10.00">+ caps()</text>
<text text-anchor="start" x="277.5" y="-348" font-family="Helvetica,sans-Serif" font-size="10.00">+ capDates()</text>
<text text-anchor="start" x="277.5" y="-337" font-family="Helvetica,sans-Serif" font-size="10.00">+ floors()</text>
<text text-anchor="start" x="277.5" y="-326" font-family="Helvetica,sans-Serif" font-size="10.00">+ floorDates()</text>
<text text-anchor="start" x="277.5" y="-315" font-family="Helvetica,sans-Serif" font-size="10.00">+ gearings()</text>
<text text-anchor="start" x="277.5" y="-304" font-family="Helvetica,sans-Serif" font-size="10.00">+ gearingDates()</text>
<text text-anchor="start" x="277.5" y="-293" font-family="Helvetica,sans-Serif" font-size="10.00">+ nakedOption()</text>
<text text-anchor="start" x="277.5" y="-282" font-family="Helvetica,sans-Serif" font-size="10.00">+ caps()</text>
<text text-anchor="start" x="277.5" y="-271" font-family="Helvetica,sans-Serif" font-size="10.00">+ capDates()</text>
<text text-anchor="start" x="277.5" y="-260" font-family="Helvetica,sans-Serif" font-size="10.00">+ floors()</text>
<text text-anchor="start" x="277.5" y="-249" font-family="Helvetica,sans-Serif" font-size="10.00">+ floorDates()</text>
<text text-anchor="start" x="277.5" y="-238" font-family="Helvetica,sans-Serif" font-size="10.00">+ nakedOption()</text>
<text text-anchor="start" x="277.5" y="-227" font-family="Helvetica,sans-Serif" font-size="10.00">* fromXML()</text>
<text text-anchor="start" x="277.5" y="-216" font-family="Helvetica,sans-Serif" font-size="10.00">* toXML()</text>
<text text-anchor="start" x="277.5" y="-205" font-family="Helvetica,sans-Serif" font-size="10.00">* swapIndex()</text>
<text text-anchor="start" x="277.5" y="-194" font-family="Helvetica,sans-Serif" font-size="10.00">* duration()</text>
<text text-anchor="start" x="277.5" y="-183" font-family="Helvetica,sans-Serif" font-size="10.00">* fixingDays()</text>
<text text-anchor="start" x="277.5" y="-172" font-family="Helvetica,sans-Serif" font-size="10.00">* isInArrears()</text>
<text text-anchor="start" x="277.5" y="-161" font-family="Helvetica,sans-Serif" font-size="10.00">* spreads()</text>
<text text-anchor="start" x="277.5" y="-150" font-family="Helvetica,sans-Serif" font-size="10.00">* spreadDates()</text>
<text text-anchor="start" x="277.5" y="-139" font-family="Helvetica,sans-Serif" font-size="10.00">* caps()</text>
<text text-anchor="start" x="277.5" y="-128" font-family="Helvetica,sans-Serif" font-size="10.00">* capDates()</text>
<text text-anchor="start" x="277.5" y="-117" font-family="Helvetica,sans-Serif" font-size="10.00">* floors()</text>
<text text-anchor="start" x="277.5" y="-106" font-family="Helvetica,sans-Serif" font-size="10.00">* floorDates()</text>
<text text-anchor="start" x="277.5" y="-95" font-family="Helvetica,sans-Serif" font-size="10.00">* gearings()</text>
<text text-anchor="start" x="277.5" y="-84" font-family="Helvetica,sans-Serif" font-size="10.00">* gearingDates()</text>
<text text-anchor="start" x="277.5" y="-73" font-family="Helvetica,sans-Serif" font-size="10.00">* nakedOption()</text>
<text text-anchor="start" x="277.5" y="-62" font-family="Helvetica,sans-Serif" font-size="10.00">* caps()</text>
<text text-anchor="start" x="277.5" y="-51" font-family="Helvetica,sans-Serif" font-size="10.00">* capDates()</text>
<text text-anchor="start" x="277.5" y="-40" font-family="Helvetica,sans-Serif" font-size="10.00">* floors()</text>
<text text-anchor="start" x="277.5" y="-29" font-family="Helvetica,sans-Serif" font-size="10.00">* floorDates()</text>
<text text-anchor="start" x="277.5" y="-18" font-family="Helvetica,sans-Serif" font-size="10.00">* nakedOption()</text>
<text text-anchor="middle" x="353" y="-7" font-family="Helvetica,sans-Serif" font-size="10.00">}</text>
</a>
</g>
</g>
<!-- Node2 -->
<g id="node2" class="node"><title>Node2</title>
<g id="a_node2"><a xlink:href="classore_1_1data_1_1_leg_additional_data.html" target="_top" xlink:title="Serializable Additional Leg Data.">
<polygon fill="white" stroke="#666666" points="469.5,-635 354.5,-635 354.5,-550 469.5,-550 469.5,-635"/>
<text text-anchor="middle" x="412" y="-623" font-family="Helvetica,sans-Serif" font-size="10.00">{LegAdditionalData</text>
<text text-anchor="start" x="362.5" y="-612" font-family="Helvetica,sans-Serif" font-size="10.00">||+ LegAdditionalData()</text>
<text text-anchor="start" x="362.5" y="-601" font-family="Helvetica,sans-Serif" font-size="10.00">+ LegAdditionalData()</text>
<text text-anchor="start" x="362.5" y="-590" font-family="Helvetica,sans-Serif" font-size="10.00">+ legType()</text>
<text text-anchor="start" x="362.5" y="-579" font-family="Helvetica,sans-Serif" font-size="10.00">+ legNodeName()</text>
<text text-anchor="start" x="362.5" y="-568" font-family="Helvetica,sans-Serif" font-size="10.00">+ indices()</text>
<text text-anchor="middle" x="412" y="-557" font-family="Helvetica,sans-Serif" font-size="10.00">}</text>
</a>
</g>
</g>
<!-- Node2&#45;&gt;Node1 -->
<g id="edge1" class="edge"><title>Node2&#45;&gt;Node1</title>
<path fill="none" stroke="#63b8ff" d="M403.409,-539.735C400.127,-519.957 396.133,-495.897 391.847,-470.067"/>
<polygon fill="none" stroke="#63b8ff" points="399.968,-540.382 405.058,-549.674 406.874,-539.236 399.968,-540.382"/>
</g>
<!-- Node3 -->
<g id="node3" class="node"><title>Node3</title>
<g id="a_node3"><a xlink:href="classore_1_1data_1_1_x_m_l_serializable.html" target="_top" xlink:title="Base class for all serializable classes.">
<polygon fill="white" stroke="#666666" points="587.5,-789 476.5,-789 476.5,-682 587.5,-682 587.5,-789"/>
<text text-anchor="middle" x="532" y="-777" font-family="Helvetica,sans-Serif" font-size="10.00">{XMLSerializable</text>
<text text-anchor="start" x="484.5" y="-766" font-family="Helvetica,sans-Serif" font-size="10.00">||+ ~XMLSerializable()</text>
<text text-anchor="start" x="484.5" y="-755" font-family="Helvetica,sans-Serif" font-size="10.00">+ fromXML()</text>
<text text-anchor="start" x="484.5" y="-744" font-family="Helvetica,sans-Serif" font-size="10.00">+ toXML()</text>
<text text-anchor="start" x="484.5" y="-733" font-family="Helvetica,sans-Serif" font-size="10.00">+ fromFile()</text>
<text text-anchor="start" x="484.5" y="-722" font-family="Helvetica,sans-Serif" font-size="10.00">+ toFile()</text>
<text text-anchor="start" x="484.5" y="-711" font-family="Helvetica,sans-Serif" font-size="10.00">+ fromXMLString()</text>
<text text-anchor="start" x="484.5" y="-700" font-family="Helvetica,sans-Serif" font-size="10.00">+ toXMLString()</text>
<text text-anchor="middle" x="532" y="-689" font-family="Helvetica,sans-Serif" font-size="10.00">}</text>
</a>
</g>
</g>
<!-- Node3&#45;&gt;Node2 -->
<g id="edge2" class="edge"><title>Node3&#45;&gt;Node2</title>
<path fill="none" stroke="#63b8ff" d="M480.749,-674.28C469.492,-661.054 457.816,-647.333 447.35,-635.036"/>
<polygon fill="none" stroke="#63b8ff" points="478.17,-676.65 487.316,-681.997 483.501,-672.113 478.17,-676.65"/>
</g>
<!-- Node4 -->
<g id="node4" class="node"><title>Node4</title>
<g id="a_node4"><a xlink:title=" ">
<polygon fill="white" stroke="#666666" points="700.5,-750.5 605.5,-750.5 605.5,-720.5 700.5,-720.5 700.5,-750.5"/>
<text text-anchor="middle" x="653" y="-738.5" font-family="Helvetica,sans-Serif" font-size="10.00">{set&lt; std::string &gt;</text>
<text text-anchor="middle" x="653" y="-727.5" font-family="Helvetica,sans-Serif" font-size="10.00">||}</text>
</a>
</g>
</g>
<!-- Node4&#45;&gt;Node2 -->
<g id="edge3" class="edge"><title>Node4&#45;&gt;Node2</title>
<path fill="none" stroke="#404040" d="M640.56,-720.479C629.714,-708.926 613.08,-692.748 596,-682 551.301,-653.871 531.006,-659.622 480.489,-635.895"/>
<polygon fill="none" stroke="#404040" points="480.373,-635.837 473.224,-636.785 469.6,-630.55 476.749,-629.603 480.373,-635.837"/>
<text text-anchor="middle" x="581.5" y="-656" font-family="Helvetica,sans-Serif" font-size="10.00"> #indices_</text>
</g>
<!-- Node5 -->
<g id="node5" class="node"><title>Node5</title>
<g id="a_node5"><a xlink:title=" ">
<polygon fill="white" stroke="#666666" points="378,-866 334,-866 334,-836 378,-836 378,-866"/>
<text text-anchor="middle" x="356" y="-854" font-family="Helvetica,sans-Serif" font-size="10.00">{string</text>
<text text-anchor="middle" x="356" y="-843" font-family="Helvetica,sans-Serif" font-size="10.00">||}</text>
</a>
</g>
</g>
<!-- Node5&#45;&gt;Node1 -->
<g id="edge9" class="edge"><title>Node5&#45;&gt;Node1</title>
<path fill="none" stroke="#404040" d="M353.811,-835.576C349.2,-804.376 338.615,-728.242 335,-664 331.692,-605.213 332.151,-541.852 334.365,-482.369"/>
<polygon fill="none" stroke="#404040" points="334.374,-482.124 330.613,-475.971 334.846,-470.133 338.607,-476.286 334.374,-482.124"/>
<text text-anchor="middle" x="364" y="-656" font-family="Helvetica,sans-Serif" font-size="10.00"> &#45;swapIndex_</text>
</g>
<!-- Node5&#45;&gt;Node2 -->
<g id="edge8" class="edge"><title>Node5&#45;&gt;Node2</title>
<path fill="none" stroke="#404040" d="M359.091,-835.844C366.792,-800.571 387.157,-707.292 400.257,-647.287"/>
<polygon fill="none" stroke="#404040" points="400.295,-647.112 397.667,-640.397 402.855,-635.388 405.483,-642.103 400.295,-647.112"/>
<text text-anchor="middle" x="429.5" y="-738.5" font-family="Helvetica,sans-Serif" font-size="10.00"> &#45;legNodeName_</text>
<text text-anchor="middle" x="429.5" y="-727.5" font-family="Helvetica,sans-Serif" font-size="10.00">&#45;legType_</text>
</g>
<!-- Node5&#45;&gt;Node4 -->
<g id="edge4" class="edge"><title>Node5&#45;&gt;Node4</title>
<path fill="none" stroke="#404040" d="M378.169,-848.028C422.139,-843.354 522.483,-828.84 596,-789 609.765,-781.54 622.795,-770.014 632.913,-759.659"/>
<polygon fill="none" stroke="#404040" points="633.144,-759.41 634.307,-752.294 641.324,-750.63 640.161,-757.746 633.144,-759.41"/>
<text text-anchor="middle" x="569.5" y="-810" font-family="Helvetica,sans-Serif" font-size="10.00"> +keys</text>
</g>
<!-- Node15 -->
<g id="node15" class="node"><title>Node15</title>
<g id="a_node15"><a xlink:title=" ">
<polygon fill="white" stroke="#666666" points="297.5,-607.5 190.5,-607.5 190.5,-577.5 297.5,-577.5 297.5,-607.5"/>
<text text-anchor="middle" x="244" y="-595.5" font-family="Helvetica,sans-Serif" font-size="10.00">{vector&lt; std::string &gt;</text>
<text text-anchor="middle" x="244" y="-584.5" font-family="Helvetica,sans-Serif" font-size="10.00">||}</text>
</a>
</g>
</g>
<!-- Node5&#45;&gt;Node15 -->
<g id="edge17" class="edge"><title>Node5&#45;&gt;Node15</title>
<path fill="none" stroke="#404040" d="M333.727,-842.026C311.717,-832.874 279.079,-815.607 263,-789 230.833,-735.77 234.856,-659.158 239.83,-619.497"/>
<polygon fill="none" stroke="#404040" points="239.838,-619.435 236.709,-612.938 241.502,-607.551 244.632,-614.047 239.838,-619.435"/>
<text text-anchor="middle" x="287.5" y="-733" font-family="Helvetica,sans-Serif" font-size="10.00"> +elements</text>
</g>
<!-- Node6 -->
<g id="node6" class="node"><title>Node6</title>
<g id="a_node6"><a xlink:title=" ">
<polygon fill="white" stroke="#666666" points="411,-943 301,-943 301,-913 411,-913 411,-943"/>
<text text-anchor="middle" x="356" y="-931" font-family="Helvetica,sans-Serif" font-size="10.00">{basic_string&lt; Char &gt;</text>
<text text-anchor="middle" x="356" y="-920" font-family="Helvetica,sans-Serif" font-size="10.00">||}</text>
</a>
</g>
</g>
<!-- Node6&#45;&gt;Node5 -->
<g id="edge5" class="edge"><title>Node6&#45;&gt;Node5</title>
<path fill="none" stroke="#63b8ff" d="M356,-902.541C356,-890.451 356,-876.294 356,-866.044"/>
<polygon fill="none" stroke="#63b8ff" points="352.5,-902.893 356,-912.893 359.5,-902.893 352.5,-902.893"/>
</g>
<!-- Node7 -->
<g id="node7" class="node"><title>Node7</title>
<g id="a_node7"><a xlink:title=" ">
<polygon fill="white" stroke="#666666" points="682,-866 624,-866 624,-836 682,-836 682,-866"/>
<text text-anchor="middle" x="653" y="-854" font-family="Helvetica,sans-Serif" font-size="10.00">{set&lt; K &gt;</text>
<text text-anchor="middle" x="653" y="-843" font-family="Helvetica,sans-Serif" font-size="10.00">||}</text>
</a>
</g>
</g>
<!-- Node7&#45;&gt;Node4 -->
<g id="edge6" class="edge"><title>Node7&#45;&gt;Node4</title>
<path fill="none" stroke="orange" d="M653,-825.37C653,-802.571 653,-769.46 653,-750.758"/>
<polygon fill="orange" stroke="orange" points="649.5,-825.625 653,-835.625 656.5,-825.625 649.5,-825.625"/>
<text text-anchor="middle" x="685.5" y="-810" font-family="Helvetica,sans-Serif" font-size="10.00"> &lt; std::string &gt;</text>
</g>
<!-- Node8 -->
<g id="node8" class="node"><title>Node8</title>
<g id="a_node8"><a xlink:title=" ">
<polygon fill="white" stroke="#666666" points="667.5,-943 638.5,-943 638.5,-913 667.5,-913 667.5,-943"/>
<text text-anchor="middle" x="653" y="-931" font-family="Helvetica,sans-Serif" font-size="10.00">{K</text>
<text text-anchor="middle" x="653" y="-920" font-family="Helvetica,sans-Serif" font-size="10.00">||}</text>
</a>
</g>
</g>
<!-- Node8&#45;&gt;Node7 -->
<g id="edge7" class="edge"><title>Node8&#45;&gt;Node7</title>
<path fill="none" stroke="#404040" d="M653,-912.893C653,-903.151 653,-889.901 653,-878.249"/>
<polygon fill="none" stroke="#404040" points="653,-878.044 649,-872.044 653,-866.044 657,-872.044 653,-878.044"/>
<text text-anchor="middle" x="668.5" y="-887" font-family="Helvetica,sans-Serif" font-size="10.00"> +keys</text>
</g>
<!-- Node9 -->
<g id="node9" class="node"><title>Node9</title>
<g id="a_node9"><a xlink:title=" ">
<polygon fill="white" stroke="#666666" points="526.5,-607.5 487.5,-607.5 487.5,-577.5 526.5,-577.5 526.5,-607.5"/>
<text text-anchor="middle" x="507" y="-595.5" font-family="Helvetica,sans-Serif" font-size="10.00">{Size</text>
<text text-anchor="middle" x="507" y="-584.5" font-family="Helvetica,sans-Serif" font-size="10.00">||}</text>
</a>
</g>
</g>
<!-- Node9&#45;&gt;Node1 -->
<g id="edge10" class="edge"><title>Node9&#45;&gt;Node1</title>
<path fill="none" stroke="#404040" d="M500.772,-577.124C489.988,-552.229 466.573,-498.176 441.493,-440.281"/>
<polygon fill="none" stroke="#404040" points="441.396,-440.058 435.341,-436.142 436.626,-429.047 442.682,-432.962 441.396,-440.058"/>
<text text-anchor="middle" x="509" y="-513" font-family="Helvetica,sans-Serif" font-size="10.00"> &#45;duration_</text>
<text text-anchor="middle" x="509" y="-502" font-family="Helvetica,sans-Serif" font-size="10.00">&#45;fixingDays_</text>
</g>
<!-- Node10 -->
<g id="node10" class="node"><title>Node10</title>
<g id="a_node10"><a xlink:href="classbool.html" target="_top" xlink:title=" ">
<polygon fill="white" stroke="#666666" points="593,-607.5 555,-607.5 555,-577.5 593,-577.5 593,-607.5"/>
<text text-anchor="middle" x="574" y="-595.5" font-family="Helvetica,sans-Serif" font-size="10.00">{bool</text>
<text text-anchor="middle" x="574" y="-584.5" font-family="Helvetica,sans-Serif" font-size="10.00">||}</text>
</a>
</g>
</g>
<!-- Node10&#45;&gt;Node1 -->
<g id="edge11" class="edge"><title>Node10&#45;&gt;Node1</title>
<path fill="none" stroke="#404040" d="M570.848,-577.201C565.989,-556.686 555.57,-518.062 540,-488 513.736,-437.291 477.628,-385.859 444.14,-342.797"/>
<polygon fill="none" stroke="#404040" points="443.999,-342.617 437.148,-340.364 436.593,-333.175 443.443,-335.427 443.999,-342.617"/>
<text text-anchor="middle" x="590" y="-513" font-family="Helvetica,sans-Serif" font-size="10.00"> &#45;isInArrears_</text>
<text text-anchor="middle" x="590" y="-502" font-family="Helvetica,sans-Serif" font-size="10.00">&#45;nakedOption_</text>
</g>
<!-- Node11 -->
<g id="node11" class="node"><title>Node11</title>
<g id="a_node11"><a xlink:title=" ">
<polygon fill="white" stroke="#666666" points="142,-607.5 50,-607.5 50,-577.5 142,-577.5 142,-607.5"/>
<text text-anchor="middle" x="96" y="-595.5" font-family="Helvetica,sans-Serif" font-size="10.00">{vector&lt; double &gt;</text>
<text text-anchor="middle" x="96" y="-584.5" font-family="Helvetica,sans-Serif" font-size="10.00">||}</text>
</a>
</g>
</g>
<!-- Node11&#45;&gt;Node1 -->
<g id="edge12" class="edge"><title>Node11&#45;&gt;Node1</title>
<path fill="none" stroke="#404040" d="M106.393,-577.124C132.562,-540.924 203.3,-443.075 262.338,-361.41"/>
<polygon fill="none" stroke="#404040" points="262.446,-361.261 262.719,-354.055 269.476,-351.536 269.203,-358.742 262.446,-361.261"/>
<text text-anchor="middle" x="188" y="-524" font-family="Helvetica,sans-Serif" font-size="10.00"> &#45;caps_</text>
<text text-anchor="middle" x="188" y="-513" font-family="Helvetica,sans-Serif" font-size="10.00">&#45;floors_</text>
<text text-anchor="middle" x="188" y="-502" font-family="Helvetica,sans-Serif" font-size="10.00">&#45;gearings_</text>
<text text-anchor="middle" x="188" y="-491" font-family="Helvetica,sans-Serif" font-size="10.00">&#45;spreads_</text>
</g>
<!-- Node12 -->
<g id="node12" class="node"><title>Node12</title>
<g id="a_node12"><a xlink:title=" ">
<polygon fill="white" stroke="#666666" points="48,-750.5 0,-750.5 0,-720.5 48,-720.5 48,-750.5"/>
<text text-anchor="middle" x="24" y="-738.5" font-family="Helvetica,sans-Serif" font-size="10.00">{double</text>
<text text-anchor="middle" x="24" y="-727.5" font-family="Helvetica,sans-Serif" font-size="10.00">||}</text>
</a>
</g>
</g>
<!-- Node12&#45;&gt;Node11 -->
<g id="edge13" class="edge"><title>Node12&#45;&gt;Node11</title>
<path fill="none" stroke="#404040" d="M25.1755,-720.212C27.0374,-703.334 31.6974,-674.797 43,-653 50.0207,-639.46 60.8243,-626.547 70.8503,-616.232"/>
<polygon fill="none" stroke="#404040" points="71.1403,-615.948 72.6238,-608.891 79.7084,-607.546 78.2249,-614.603 71.1403,-615.948"/>
<text text-anchor="middle" x="67.5" y="-656" font-family="Helvetica,sans-Serif" font-size="10.00"> +elements</text>
</g>
<!-- Node13 -->
<g id="node13" class="node"><title>Node13</title>
<g id="a_node13"><a xlink:title=" ">
<polygon fill="white" stroke="#666666" points="169,-750.5 101,-750.5 101,-720.5 169,-720.5 169,-750.5"/>
<text text-anchor="middle" x="135" y="-738.5" font-family="Helvetica,sans-Serif" font-size="10.00">{vector&lt; T &gt;</text>
<text text-anchor="middle" x="135" y="-727.5" font-family="Helvetica,sans-Serif" font-size="10.00">||}</text>
</a>
</g>
</g>
<!-- Node13&#45;&gt;Node11 -->
<g id="edge14" class="edge"><title>Node13&#45;&gt;Node11</title>
<path fill="none" stroke="orange" d="M119.112,-711.778C110.792,-698.506 101.433,-681.057 97,-664 92.0427,-644.926 92.9252,-621.959 94.2629,-607.54"/>
<polygon fill="orange" stroke="orange" points="116.238,-713.778 124.633,-720.242 122.101,-709.954 116.238,-713.778"/>
<text text-anchor="middle" x="122" y="-656" font-family="Helvetica,sans-Serif" font-size="10.00"> &lt; double &gt;</text>
</g>
<!-- Node13&#45;&gt;Node15 -->
<g id="edge18" class="edge"><title>Node13&#45;&gt;Node15</title>
<path fill="none" stroke="orange" d="M141.819,-710.626C147.503,-693.456 156.81,-670.365 170,-653 184.06,-634.49 205.08,-618.32 221.129,-607.528"/>
<polygon fill="orange" stroke="orange" points="138.392,-709.858 138.746,-720.447 145.072,-711.948 138.392,-709.858"/>
<text text-anchor="middle" x="202.5" y="-656" font-family="Helvetica,sans-Serif" font-size="10.00"> &lt; std::string &gt;</text>
</g>
<!-- Node14 -->
<g id="node14" class="node"><title>Node14</title>
<g id="a_node14"><a xlink:title=" ">
<polygon fill="white" stroke="#666666" points="149.5,-866 120.5,-866 120.5,-836 149.5,-836 149.5,-866"/>
<text text-anchor="middle" x="135" y="-854" font-family="Helvetica,sans-Serif" font-size="10.00">{T</text>
<text text-anchor="middle" x="135" y="-843" font-family="Helvetica,sans-Serif" font-size="10.00">||}</text>
</a>
</g>
</g>
<!-- Node14&#45;&gt;Node13 -->
<g id="edge15" class="edge"><title>Node14&#45;&gt;Node13</title>
<path fill="none" stroke="#404040" d="M135,-835.625C135,-817.375 135,-785.54 135,-762.873"/>
<polygon fill="none" stroke="#404040" points="135,-762.758 131,-756.758 135,-750.758 139,-756.758 135,-762.758"/>
<text text-anchor="middle" x="159.5" y="-810" font-family="Helvetica,sans-Serif" font-size="10.00"> +elements</text>
</g>
<!-- Node15&#45;&gt;Node1 -->
<g id="edge16" class="edge"><title>Node15&#45;&gt;Node1</title>
<path fill="none" stroke="#404040" d="M242.583,-577.243C240.961,-557.102 239.318,-519.285 246,-488 250.777,-465.633 257.539,-442.771 265.371,-420.39"/>
<polygon fill="none" stroke="#404040" points="265.372,-420.386 263.635,-413.387 269.428,-409.092 271.165,-416.091 265.372,-420.386"/>
<text text-anchor="middle" x="279" y="-524" font-family="Helvetica,sans-Serif" font-size="10.00"> &#45;capDates_</text>
<text text-anchor="middle" x="279" y="-513" font-family="Helvetica,sans-Serif" font-size="10.00">&#45;floorDates_</text>
<text text-anchor="middle" x="279" y="-502" font-family="Helvetica,sans-Serif" font-size="10.00">&#45;gearingDates_</text>
<text text-anchor="middle" x="279" y="-491" font-family="Helvetica,sans-Serif" font-size="10.00">&#45;spreadDates_</text>
</g>
</g>
</svg>
