<?xml version="1.0" encoding="UTF-8" standalone="no"?>
<!DOCTYPE svg PUBLIC "-//W3C//DTD SVG 1.1//EN"
 "http://www.w3.org/Graphics/SVG/1.1/DTD/svg11.dtd">
<!-- Generated by graphviz version 2.38.0 (20140413.2041)
 -->
<!-- Title: fromXML Pages: 1 -->
<svg width="483pt" height="352pt"
 viewBox="0.00 0.00 483.00 352.00" xmlns="http://www.w3.org/2000/svg" xmlns:xlink="http://www.w3.org/1999/xlink">
<g id="graph0" class="graph" transform="scale(1 1) rotate(0) translate(4 348)">
<title>fromXML</title>
<!-- Node1 -->
<g id="node1" class="node"><title>Node1</title>
<g id="a_node1"><a xlink:title=" ">
<polygon fill="#999999" stroke="#666666" points="54,-131.5 0,-131.5 0,-112.5 54,-112.5 54,-131.5"/>
<text text-anchor="middle" x="27" y="-119.5" font-family="Helvetica,sans-Serif" font-size="10.00">fromXML</text>
</a>
</g>
</g>
<!-- Node2 -->
<g id="node2" class="node"><title>Node2</title>
<g id="a_node2"><a xlink:href="classore_1_1data_1_1_underlying.html#a510baf06568510646decfeaf1753e526" target="_top" xlink:title=" ">
<polygon fill="white" stroke="#666666" points="197,-253 90,-253 90,-223 197,-223 197,-253"/>
<text text-anchor="start" x="98" y="-241" font-family="Helvetica,sans-Serif" font-size="10.00">ore::data::Underlying</text>
<text text-anchor="middle" x="143.5" y="-230" font-family="Helvetica,sans-Serif" font-size="10.00">::fromXML</text>
</a>
</g>
</g>
<!-- Node1&#45;&gt;Node2 -->
<g id="edge1" class="edge"><title>Node1&#45;&gt;Node2</title>
<path fill="none" stroke="#63b8ff" d="M37.7622,-131.89C55.8961,-150.262 95.2004,-190.081 120.168,-215.375"/>
<polygon fill="#63b8ff" stroke="#63b8ff" points="117.901,-218.061 127.417,-222.719 122.883,-213.144 117.901,-218.061"/>
</g>
<!-- Node4 -->
<g id="node4" class="node"><title>Node4</title>
<g id="a_node4"><a xlink:href="classore_1_1data_1_1_x_m_l_utils.html#a5a1307174ddefdb3aad6e3bd8cc63b27" target="_top" xlink:title=" ">
<polygon fill="white" stroke="#666666" points="336,-344 237,-344 237,-314 336,-314 336,-344"/>
<text text-anchor="start" x="245" y="-332" font-family="Helvetica,sans-Serif" font-size="10.00">ore::data::XMLUtils</text>
<text text-anchor="middle" x="286.5" y="-321" font-family="Helvetica,sans-Serif" font-size="10.00">::getChildValue</text>
</a>
</g>
</g>
<!-- Node1&#45;&gt;Node4 -->
<g id="edge8" class="edge"><title>Node1&#45;&gt;Node4</title>
<path fill="none" stroke="#63b8ff" d="M29.5523,-131.701C34.0868,-156.892 49.6369,-224.994 90,-262 127.827,-296.681 184.414,-313.523 226.989,-321.634"/>
<polygon fill="#63b8ff" stroke="#63b8ff" points="226.48,-325.099 236.942,-323.421 227.718,-318.209 226.48,-325.099"/>
</g>
<!-- Node5 -->
<g id="node5" class="node"><title>Node5</title>
<g id="a_node5"><a xlink:href="classore_1_1data_1_1_x_m_l_utils.html#a6704501b110fa9d056096df3e05f0df2" target="_top" xlink:title="Get a node&#39;s value.">
<polygon fill="white" stroke="#666666" points="475,-253 376,-253 376,-223 475,-223 475,-253"/>
<text text-anchor="start" x="384" y="-241" font-family="Helvetica,sans-Serif" font-size="10.00">ore::data::XMLUtils</text>
<text text-anchor="middle" x="425.5" y="-230" font-family="Helvetica,sans-Serif" font-size="10.00">::getNodeValue</text>
</a>
</g>
</g>
<!-- Node1&#45;&gt;Node5 -->
<g id="edge10" class="edge"><title>Node1&#45;&gt;Node5</title>
<path fill="none" stroke="#63b8ff" d="M54.1492,-123.464C119.633,-127.442 289.06,-139.743 340,-163 366.305,-175.01 390.336,-198.059 405.988,-215.451"/>
<polygon fill="#63b8ff" stroke="#63b8ff" points="403.354,-217.755 412.569,-222.983 408.626,-213.15 403.354,-217.755"/>
</g>
<!-- Node7 -->
<g id="node7" class="node"><title>Node7</title>
<g id="a_node7"><a xlink:href="classore_1_1data_1_1_x_m_l_utils.html#a4e041c36cab0a16681fb41dfbd991882" target="_top" xlink:title="Get and set a node&#39;s name.">
<polygon fill="white" stroke="#666666" points="193,-116 94,-116 94,-86 193,-86 193,-116"/>
<text text-anchor="start" x="102" y="-104" font-family="Helvetica,sans-Serif" font-size="10.00">ore::data::XMLUtils</text>
<text text-anchor="middle" x="143.5" y="-93" font-family="Helvetica,sans-Serif" font-size="10.00">::getNodeName</text>
</a>
</g>
</g>
<!-- Node1&#45;&gt;Node7 -->
<g id="edge9" class="edge"><title>Node1&#45;&gt;Node7</title>
<path fill="none" stroke="#63b8ff" d="M54.2686,-117.182C63.1746,-115.549 73.5121,-113.653 83.9086,-111.746"/>
<polygon fill="#63b8ff" stroke="#63b8ff" points="84.6451,-115.169 93.8496,-109.923 83.3822,-108.284 84.6451,-115.169"/>
</g>
<!-- Node8 -->
<g id="node8" class="node"><title>Node8</title>
<g id="a_node8"><a xlink:href="classore_1_1data_1_1_equity_underlying.html#a03f1abe9e9578f4e26433c530cb86592" target="_top" xlink:title="set name of equity">
<polygon fill="white" stroke="#666666" points="185,-67.5 102,-67.5 102,-48.5 185,-48.5 185,-67.5"/>
<text text-anchor="middle" x="143.5" y="-55.5" font-family="Helvetica,sans-Serif" font-size="10.00">setEquityName</text>
</a>
</g>
</g>
<!-- Node1&#45;&gt;Node8 -->
<g id="edge11" class="edge"><title>Node1&#45;&gt;Node8</title>
<path fill="none" stroke="#63b8ff" d="M39.2393,-112.337C51.1924,-102.433 70.964,-87.0935 90,-77 93.8055,-74.9822 97.8718,-73.0924 101.994,-71.347"/>
<polygon fill="#63b8ff" stroke="#63b8ff" points="103.602,-74.4748 111.615,-67.5441 101.029,-67.9649 103.602,-74.4748"/>
</g>
<!-- Node10 -->
<g id="node10" class="node"><title>Node10</title>
<g id="a_node10"><a xlink:href="classore_1_1data_1_1_underlying.html#aafc7b3e0e653e15f2434a4e7d15cc7cf" target="_top" xlink:title=" ">
<polygon fill="white" stroke="#666666" points="197,-30 90,-30 90,-0 197,-0 197,-30"/>
<text text-anchor="start" x="98" y="-18" font-family="Helvetica,sans-Serif" font-size="10.00">ore::data::Underlying</text>
<text text-anchor="middle" x="143.5" y="-7" font-family="Helvetica,sans-Serif" font-size="10.00">::setType</text>
</a>
</g>
</g>
<!-- Node1&#45;&gt;Node10 -->
<g id="edge13" class="edge"><title>Node1&#45;&gt;Node10</title>
<path fill="none" stroke="#63b8ff" d="M33.0814,-112.307C42.3593,-95.4146 63.546,-60.3487 90,-39 91.55,-37.7491 93.1759,-36.5478 94.8563,-35.3958"/>
<polygon fill="#63b8ff" stroke="#63b8ff" points="96.9053,-38.2457 103.616,-30.0473 93.2575,-32.2712 96.9053,-38.2457"/>
</g>
<!-- Node3 -->
<g id="node3" class="node"><title>Node3</title>
<g id="a_node3"><a xlink:href="classore_1_1data_1_1_x_m_l_utils.html#a5f2b91a4af900e85c356cfe807e64501" target="_top" xlink:title=" ">
<polygon fill="white" stroke="#666666" points="336,-296 237,-296 237,-266 336,-266 336,-296"/>
<text text-anchor="start" x="245" y="-284" font-family="Helvetica,sans-Serif" font-size="10.00">ore::data::XMLUtils</text>
<text text-anchor="middle" x="286.5" y="-273" font-family="Helvetica,sans-Serif" font-size="10.00">::getChildNode</text>
</a>
</g>
</g>
<!-- Node2&#45;&gt;Node3 -->
<g id="edge2" class="edge"><title>Node2&#45;&gt;Node3</title>
<path fill="none" stroke="#63b8ff" d="M193.815,-253.039C204.625,-256.336 216.168,-259.856 227.29,-263.248"/>
<polygon fill="#63b8ff" stroke="#63b8ff" points="226.34,-266.617 236.926,-266.187 228.382,-259.922 226.34,-266.617"/>
</g>
<!-- Node2&#45;&gt;Node4 -->
<g id="edge3" class="edge"><title>Node2&#45;&gt;Node4</title>
<path fill="none" stroke="#63b8ff" d="M161.986,-253.074C179.274,-267.525 206.859,-289.387 233,-305 235.46,-306.469 238.026,-307.91 240.643,-309.31"/>
<polygon fill="#63b8ff" stroke="#63b8ff" points="239.158,-312.481 249.658,-313.895 242.331,-306.242 239.158,-312.481"/>
</g>
<!-- Node2&#45;&gt;Node5 -->
<g id="edge5" class="edge"><title>Node2&#45;&gt;Node5</title>
<path fill="none" stroke="#63b8ff" d="M197.166,-238C245.084,-238 315.73,-238 365.524,-238"/>
<polygon fill="#63b8ff" stroke="#63b8ff" points="365.818,-241.5 375.818,-238 365.818,-234.5 365.818,-241.5"/>
</g>
<!-- Node6 -->
<g id="node6" class="node"><title>Node6</title>
<g id="a_node6"><a xlink:href="group__utilities.html#gad1db2a68f9a73667c3b4084d63955bdd" target="_top" xlink:title="Convert text to Real.">
<polygon fill="white" stroke="#666666" points="338.5,-191.5 234.5,-191.5 234.5,-172.5 338.5,-172.5 338.5,-191.5"/>
<text text-anchor="middle" x="286.5" y="-179.5" font-family="Helvetica,sans-Serif" font-size="10.00">ore::data::parseReal</text>
</a>
</g>
</g>
<!-- Node2&#45;&gt;Node6 -->
<g id="edge6" class="edge"><title>Node2&#45;&gt;Node6</title>
<path fill="none" stroke="#63b8ff" d="M182.285,-222.993C203.975,-214.379 230.973,-203.656 251.917,-195.338"/>
<polygon fill="#63b8ff" stroke="#63b8ff" points="253.365,-198.529 261.366,-191.585 250.781,-192.023 253.365,-198.529"/>
</g>
<!-- Node4&#45;&gt;Node5 -->
<g id="edge4" class="edge"><title>Node4&#45;&gt;Node5</title>
<path fill="none" stroke="#63b8ff" d="M323.404,-313.997C329.077,-311.227 334.787,-308.193 340,-305 361.48,-291.842 383.723,-274.008 399.993,-260.048"/>
<polygon fill="#63b8ff" stroke="#63b8ff" points="402.677,-262.351 407.921,-253.145 398.081,-257.072 402.677,-262.351"/>
</g>
<!-- Node6&#45;&gt;Node6 -->
<g id="edge7" class="edge"><title>Node6&#45;&gt;Node6</title>
<path fill="none" stroke="#63b8ff" d="M265.23,-191.583C254.883,-200.234 261.973,-209.5 286.5,-209.5 302.213,-209.5 310.769,-205.697 312.17,-200.689"/>
<polygon fill="#63b8ff" stroke="#63b8ff" points="315.272,-199.064 307.77,-191.583 308.969,-202.11 315.272,-199.064"/>
</g>
<!-- Node9 -->
<g id="node9" class="node"><title>Node9</title>
<g id="a_node9"><a xlink:href="classore_1_1data_1_1_equity_underlying.html#a8a0d2b7dfdad1504296ddb6685bd4b30" target="_top" xlink:title=" ">
<polygon fill="white" stroke="#666666" points="307,-67.5 266,-67.5 266,-48.5 307,-48.5 307,-67.5"/>
<text text-anchor="middle" x="286.5" y="-55.5" font-family="Helvetica,sans-Serif" font-size="10.00">name</text>
</a>
</g>
</g>
<!-- Node8&#45;&gt;Node9 -->
<g id="edge12" class="edge"><title>Node8&#45;&gt;Node9</title>
<path fill="none" stroke="#63b8ff" d="M185.283,-58C207.862,-58 235.419,-58 255.917,-58"/>
<polygon fill="#63b8ff" stroke="#63b8ff" points="255.929,-61.5001 265.929,-58 255.929,-54.5001 255.929,-61.5001"/>
</g>
<!-- Node11 -->
<g id="node11" class="node"><title>Node11</title>
<g id="a_node11"><a xlink:href="classore_1_1data_1_1_underlying.html#a4acb75b8abcd83a41915c116edbd003c" target="_top" xlink:title=" ">
<polygon fill="white" stroke="#666666" points="340,-30 233,-30 233,-0 340,-0 340,-30"/>
<text text-anchor="start" x="241" y="-18" font-family="Helvetica,sans-Serif" font-size="10.00">ore::data::Underlying</text>
<text text-anchor="middle" x="286.5" y="-7" font-family="Helvetica,sans-Serif" font-size="10.00">::type</text>
</a>
</g>
</g>
<!-- Node10&#45;&gt;Node11 -->
<g id="edge14" class="edge"><title>Node10&#45;&gt;Node11</title>
<path fill="none" stroke="#63b8ff" d="M197.003,-15C205.445,-15 214.255,-15 222.905,-15"/>
<polygon fill="#63b8ff" stroke="#63b8ff" points="222.953,-18.5001 232.953,-15 222.953,-11.5001 222.953,-18.5001"/>
</g>
</g>
</svg>
