<?xml version="1.0" encoding="UTF-8" standalone="no"?>
<!DOCTYPE svg PUBLIC "-//W3C//DTD SVG 1.1//EN"
 "http://www.w3.org/Graphics/SVG/1.1/DTD/svg11.dtd">
<!-- Generated by graphviz version 2.38.0 (20140413.2041)
 -->
<!-- Title: addAverageOISs Pages: 1 -->
<!--zoomable 134 -->
<svg id="main" version="1.1" xmlns="http://www.w3.org/2000/svg" xmlns:xlink="http://www.w3.org/1999/xlink" xml:space="preserve" onload="init(evt)">
<style type="text/css"><![CDATA[
.edge:hover path { stroke: red; }
.edge:hover polygon { stroke: red; fill: red; }
]]></style>
<script type="text/javascript"><![CDATA[
var edges = document.getElementsByTagName('g');
if (edges && edges.length) {
  for (var i=0;i<edges.length;i++) {
    if (edges[i].id.substr(0,4)=='edge') {
      edges[i].setAttribute('class','edge');
    }
  }
}
]]></script>
        <defs>
                <circle id="rim" cx="0" cy="0" r="7"/>
                <circle id="rim2" cx="0" cy="0" r="3.5"/>
                <g id="zoomPlus">
                        <use xlink:href="#rim" fill="#404040">
                                <set attributeName="fill" to="#808080" begin="zoomplus.mouseover" end="zoomplus.mouseout"/>
                        </use>
                        <path d="M-4,0h8M0,-4v8" fill="none" stroke="white" stroke-width="1.5" pointer-events="none"/>
                </g>
                <g id="zoomMin">
                        <use xlink:href="#rim" fill="#404040">
                                <set attributeName="fill" to="#808080" begin="zoomminus.mouseover" end="zoomminus.mouseout"/>
                        </use>
                        <path d="M-4,0h8" fill="none" stroke="white" stroke-width="1.5" pointer-events="none"/>
                </g>
                <g id="dirArrow">
                        <path fill="none" stroke="white" stroke-width="1.5" d="M0,-3.0v7 M-2.5,-0.5L0,-3.0L2.5,-0.5"/>
                </g>
               <g id="resetDef">
                       <use xlink:href="#rim2" fill="#404040">
                               <set attributeName="fill" to="#808080" begin="reset.mouseover" end="reset.mouseout"/>
                       </use>
               </g>
        </defs>

<script type="text/javascript">
var viewWidth = 529;
var viewHeight = 134;
var sectionId = 'dynsection-36';
</script>
<script xlink:href="svgpan.js"/>
<svg id="graph" class="graph">
<g id="viewport">
<title>addAverageOISs</title>
<!-- Node1 -->
<g id="node1" class="node"><title>Node1</title>
<g id="a_node1"><a xlink:title=" ">
<polygon fill="#999999" stroke="#666666" points="89,-94.5 0,-94.5 0,-75.5 89,-75.5 89,-94.5"/>
<text text-anchor="middle" x="44.5" y="-82.5" font-family="Helvetica,sans-Serif" font-size="10.00">addAverageOISs</text>
</a>
</g>
</g>
<!-- Node2 -->
<g id="node2" class="node"><title>Node2</title>
<g id="a_node2"><a xlink:href="classore_1_1data_1_1_loader.html#a1b9199cf1feab53f4fda69ddccc4a63c" target="_top" xlink:title="get quote by its unique name, throws if not existent, override in derived classes for performance">
<polygon fill="white" stroke="#666666" points="235,-117.5 125,-117.5 125,-98.5 235,-98.5 235,-117.5"/>
<text text-anchor="middle" x="180" y="-105.5" font-family="Helvetica,sans-Serif" font-size="10.00">ore::data::Loader::get</text>
</a>
</g>
</g>
<!-- Node1&#45;&gt;Node2 -->
<g id="edge1" class="edge"><title>Node1&#45;&gt;Node2</title>
<path fill="none" stroke="#63b8ff" d="M89.2129,-92.5311C97.4113,-93.9435 106.138,-95.447 114.808,-96.9406"/>
<polygon fill="#63b8ff" stroke="#63b8ff" points="114.474,-100.435 124.923,-98.6834 115.662,-93.5363 114.474,-100.435"/>
</g>
<!-- Node4 -->
<g id="node4" class="node"><title>Node4</title>
<g id="a_node4"><a xlink:href="classore_1_1data_1_1_curve_spec.html#afa7a10b4b56522f03c698ac514b0f844" target="_top" xlink:title="returns the unique curve name">
<polygon fill="white" stroke="#666666" points="233.5,-78 126.5,-78 126.5,-48 233.5,-48 233.5,-78"/>
<text text-anchor="start" x="134.5" y="-66" font-family="Helvetica,sans-Serif" font-size="10.00">ore::data::CurveSpec</text>
<text text-anchor="middle" x="180" y="-55" font-family="Helvetica,sans-Serif" font-size="10.00">::name</text>
</a>
</g>
</g>
<!-- Node1&#45;&gt;Node4 -->
<g id="edge3" class="edge"><title>Node1&#45;&gt;Node4</title>
<path fill="none" stroke="#63b8ff" d="M89.2129,-77.7964C97.9246,-76.3607 107.233,-74.8268 116.435,-73.3103"/>
<polygon fill="#63b8ff" stroke="#63b8ff" points="117.047,-76.7567 126.345,-71.6772 115.909,-69.8499 117.047,-76.7567"/>
</g>
<!-- Node3 -->
<g id="node3" class="node"><title>Node3</title>
<g id="a_node3"><a xlink:href="classore_1_1data_1_1_loader.html#a0113deda97c9b9f64d1a436cda884a51" target="_top" xlink:title="get all quotes, TODO change the return value to std::set">
<polygon fill="white" stroke="#666666" points="372.5,-126 276.5,-126 276.5,-96 372.5,-96 372.5,-126"/>
<text text-anchor="start" x="284.5" y="-114" font-family="Helvetica,sans-Serif" font-size="10.00">ore::data::Loader::</text>
<text text-anchor="middle" x="324.5" y="-103" font-family="Helvetica,sans-Serif" font-size="10.00">loadQuotes</text>
</a>
</g>
</g>
<!-- Node2&#45;&gt;Node3 -->
<g id="edge2" class="edge"><title>Node2&#45;&gt;Node3</title>
<path fill="none" stroke="#63b8ff" d="M235.28,-109.143C245.426,-109.356 256.06,-109.58 266.291,-109.796"/>
<polygon fill="#63b8ff" stroke="#63b8ff" points="266.284,-113.296 276.356,-110.007 266.432,-106.298 266.284,-113.296"/>
</g>
<!-- Node5 -->
<g id="node5" class="node"><title>Node5</title>
<g id="a_node5"><a xlink:href="classore_1_1data_1_1_curve_spec.html#a3d24768215bf6280c80eca3930ea3f55" target="_top" xlink:title=" ">
<polygon fill="white" stroke="#666666" points="378,-78 271,-78 271,-48 378,-48 378,-78"/>
<text text-anchor="start" x="279" y="-66" font-family="Helvetica,sans-Serif" font-size="10.00">ore::data::CurveSpec</text>
<text text-anchor="middle" x="324.5" y="-55" font-family="Helvetica,sans-Serif" font-size="10.00">::baseName</text>
</a>
</g>
</g>
<!-- Node4&#45;&gt;Node5 -->
<g id="edge4" class="edge"><title>Node4&#45;&gt;Node5</title>
<path fill="none" stroke="#63b8ff" d="M233.657,-63C242.413,-63 251.571,-63 260.552,-63"/>
<polygon fill="#63b8ff" stroke="#63b8ff" points="260.584,-66.5001 270.584,-63 260.584,-59.5001 260.584,-66.5001"/>
</g>
<!-- Node8 -->
<g id="node8" class="node"><title>Node8</title>
<g id="a_node8"><a xlink:href="classore_1_1data_1_1_curve_spec.html#a471fbcf9df5ab7ac2153495b4c8ac723" target="_top" xlink:title=" ">
<polygon fill="white" stroke="#666666" points="378,-30 271,-30 271,-0 378,-0 378,-30"/>
<text text-anchor="start" x="279" y="-18" font-family="Helvetica,sans-Serif" font-size="10.00">ore::data::CurveSpec</text>
<text text-anchor="middle" x="324.5" y="-7" font-family="Helvetica,sans-Serif" font-size="10.00">::subName</text>
</a>
</g>
</g>
<!-- Node4&#45;&gt;Node8 -->
<g id="edge8" class="edge"><title>Node4&#45;&gt;Node8</title>
<path fill="none" stroke="#63b8ff" d="M225.697,-47.9442C239.491,-43.2977 254.835,-38.1294 269.202,-33.2898"/>
<polygon fill="#63b8ff" stroke="#63b8ff" points="270.602,-36.5115 278.962,-30.0024 268.368,-29.8777 270.602,-36.5115"/>
</g>
<!-- Node6 -->
<g id="node6" class="node"><title>Node6</title>
<g id="a_node6"><a xlink:href="classore_1_1data_1_1_curve_spec.html#a0106d2fb6472e64456c6ebd018aa6300" target="_top" xlink:title=" ">
<polygon fill="white" stroke="#666666" points="521,-109 414,-109 414,-79 521,-79 521,-109"/>
<text text-anchor="start" x="422" y="-97" font-family="Helvetica,sans-Serif" font-size="10.00">ore::data::CurveSpec</text>
<text text-anchor="middle" x="467.5" y="-86" font-family="Helvetica,sans-Serif" font-size="10.00">::baseType</text>
</a>
</g>
</g>
<!-- Node5&#45;&gt;Node6 -->
<g id="edge5" class="edge"><title>Node5&#45;&gt;Node6</title>
<path fill="none" stroke="#63b8ff" d="M378.003,-74.5433C386.445,-76.3992 395.255,-78.3362 403.905,-80.2379"/>
<polygon fill="#63b8ff" stroke="#63b8ff" points="403.435,-83.7181 413.953,-82.4471 404.938,-76.8814 403.435,-83.7181"/>
</g>
<!-- Node7 -->
<g id="node7" class="node"><title>Node7</title>
<g id="a_node7"><a xlink:href="namespaceore_1_1data.html#a86651dfeb5c18ee891f7a4734d8cf455" target="_top" xlink:title=" ">
<polygon fill="white" stroke="#666666" points="516.5,-42.5 418.5,-42.5 418.5,-23.5 516.5,-23.5 516.5,-42.5"/>
<text text-anchor="middle" x="467.5" y="-30.5" font-family="Helvetica,sans-Serif" font-size="10.00">ore::data::to_string</text>
</a>
</g>
</g>
<!-- Node5&#45;&gt;Node7 -->
<g id="edge6" class="edge"><title>Node5&#45;&gt;Node7</title>
<path fill="none" stroke="#63b8ff" d="M378.003,-51.8291C389.033,-49.4823 400.693,-47.0014 411.802,-44.6379"/>
<polygon fill="#63b8ff" stroke="#63b8ff" points="412.761,-48.0122 421.814,-42.5076 411.305,-41.1654 412.761,-48.0122"/>
</g>
<!-- Node7&#45;&gt;Node7 -->
<g id="edge7" class="edge"><title>Node7&#45;&gt;Node7</title>
<path fill="none" stroke="#63b8ff" d="M445.614,-42.5828C434.966,-51.2337 442.262,-60.5 467.5,-60.5 483.668,-60.5 492.473,-56.6971 493.914,-51.6894"/>
<polygon fill="#63b8ff" stroke="#63b8ff" points="496.972,-49.9792 489.386,-42.5828 490.704,-53.0954 496.972,-49.9792"/>
</g>
</g>
</svg>
        <g id="navigator" transform="translate(0 0)" fill="#404254">
                <rect fill="#f2f5e9" fill-opacity="0.5" stroke="#606060" stroke-width=".5" x="0" y="0" width="60" height="60"/>
                <use id="zoomplus" xlink:href="#zoomPlus" x="17" y="9" onmousedown="handleZoom(evt,'in')"/>
                <use id="zoomminus" xlink:href="#zoomMin" x="42" y="9" onmousedown="handleZoom(evt,'out')"/>
                <use id="reset" xlink:href="#resetDef" x="30" y="36" onmousedown="handleReset()"/>
                <g id="arrowUp" xlink:href="#dirArrow" transform="translate(30 24)" onmousedown="handlePan(0,-1)">
                  <use xlink:href="#rim" fill="#404040">
                        <set attributeName="fill" to="#808080" begin="arrowUp.mouseover" end="arrowUp.mouseout"/>
                  </use>
                  <path fill="none" stroke="white" stroke-width="1.5" d="M0,-3.0v7 M-2.5,-0.5L0,-3.0L2.5,-0.5"/>
                </g>
                <g id="arrowRight" xlink:href="#dirArrow" transform="rotate(90) translate(36 -43)" onmousedown="handlePan(1,0)">
                  <use xlink:href="#rim" fill="#404040">
                        <set attributeName="fill" to="#808080" begin="arrowRight.mouseover" end="arrowRight.mouseout"/>
                  </use>
                  <path fill="none" stroke="white" stroke-width="1.5" d="M0,-3.0v7 M-2.5,-0.5L0,-3.0L2.5,-0.5"/>
                </g>
                <g id="arrowDown" xlink:href="#dirArrow" transform="rotate(180) translate(-30 -48)" onmousedown="handlePan(0,1)">
                  <use xlink:href="#rim" fill="#404040">
                        <set attributeName="fill" to="#808080" begin="arrowDown.mouseover" end="arrowDown.mouseout"/>
                  </use>
                  <path fill="none" stroke="white" stroke-width="1.5" d="M0,-3.0v7 M-2.5,-0.5L0,-3.0L2.5,-0.5"/>
                </g>
                <g id="arrowLeft" xlink:href="#dirArrow" transform="rotate(270) translate(-36 17)" onmousedown="handlePan(-1,0)">
                  <use xlink:href="#rim" fill="#404040">
                        <set attributeName="fill" to="#808080" begin="arrowLeft.mouseover" end="arrowLeft.mouseout"/>
                  </use>
                  <path fill="none" stroke="white" stroke-width="1.5" d="M0,-3.0v7 M-2.5,-0.5L0,-3.0L2.5,-0.5"/>
                </g>
        </g>
        <svg viewBox="0 0 15 15" width="100%" height="30px" preserveAspectRatio="xMaxYMin meet">
         <g id="arrow_out" transform="scale(0.3 0.3)">
          <a xlink:href="classore_1_1data_1_1_yield_curve_a6004702da04c9cd1f32e23ee9c5d7b4a_cgraph_org.svg" target="_base">
           <rect id="button" ry="5" rx="5" y="6" x="6" height="38" width="38"
                fill="#f2f5e9" fill-opacity="0.5" stroke="#606060" stroke-width="1.0"/>
           <path id="arrow"
             d="M 11.500037,31.436501 C 11.940474,20.09759 22.043105,11.32322 32.158766,21.979434 L 37.068811,17.246167 C 37.068811,17.246167 37.088388,32 37.088388,32 L 22.160133,31.978069 C 22.160133,31.978069 26.997745,27.140456 26.997745,27.140456 C 18.528582,18.264221 13.291696,25.230495 11.500037,31.436501 z"
             style="fill:#404040;"/>
          </a>
         </g>
        </svg>
</svg>
