<?xml version="1.0" encoding="UTF-8" standalone="no"?>
<!DOCTYPE svg PUBLIC "-//W3C//DTD SVG 1.1//EN"
 "http://www.w3.org/Graphics/SVG/1.1/DTD/svg11.dtd">
<!-- Generated by graphviz version 2.38.0 (20140413.2041)
 -->
<!-- Title: strike Pages: 1 -->
<svg width="208pt" height="86pt"
 viewBox="0.00 0.00 208.00 86.00" xmlns="http://www.w3.org/2000/svg" xmlns:xlink="http://www.w3.org/1999/xlink">
<g id="graph0" class="graph" transform="scale(1 1) rotate(0) translate(4 82)">
<title>strike</title>
<!-- Node1 -->
<g id="node1" class="node"><title>Node1</title>
<g id="a_node1"><a xlink:title=" ">
<polygon fill="#999999" stroke="#666666" points="200,-48.5 159,-48.5 159,-29.5 200,-29.5 200,-48.5"/>
<text text-anchor="middle" x="179.5" y="-36.5" font-family="Helvetica,sans-Serif" font-size="10.00">strike</text>
</a>
</g>
</g>
<!-- Node2 -->
<g id="node2" class="node"><title>Node2</title>
<g id="a_node2"><a xlink:href="classore_1_1data_1_1_zc_inflation_cap_floor_quote.html#ac093e742f5faa92a783e7da776e6a637" target="_top" xlink:title="Make a copy of the market datum.">
<polygon fill="white" stroke="#666666" points="122.5,-78 0.5,-78 0.5,-48 122.5,-48 122.5,-78"/>
<text text-anchor="start" x="8.5" y="-66" font-family="Helvetica,sans-Serif" font-size="10.00">ore::data::ZcInflationCap</text>
<text text-anchor="middle" x="61.5" y="-55" font-family="Helvetica,sans-Serif" font-size="10.00">FloorQuote::clone</text>
</a>
</g>
</g>
<!-- Node1&#45;&gt;Node2 -->
<g id="edge1" class="edge"><title>Node1&#45;&gt;Node2</title>
<path fill="none" stroke="#63b8ff" d="M148.833,-45.138C140.75,-46.8103 131.694,-48.684 122.569,-50.5719"/>
<polygon fill="#63b8ff" stroke="#63b8ff" points="149.739,-48.5248 158.822,-43.0713 148.32,-41.67 149.739,-48.5248"/>
</g>
<!-- Node3 -->
<g id="node3" class="node"><title>Node3</title>
<g id="a_node3"><a xlink:href="classore_1_1data_1_1_yy_inflation_cap_floor_quote.html#ac093e742f5faa92a783e7da776e6a637" target="_top" xlink:title="Make a copy of the market datum.">
<polygon fill="white" stroke="#666666" points="123,-30 0,-30 0,-0 123,-0 123,-30"/>
<text text-anchor="start" x="8" y="-18" font-family="Helvetica,sans-Serif" font-size="10.00">ore::data::YyInflationCap</text>
<text text-anchor="middle" x="61.5" y="-7" font-family="Helvetica,sans-Serif" font-size="10.00">FloorQuote::clone</text>
</a>
</g>
</g>
<!-- Node1&#45;&gt;Node3 -->
<g id="edge2" class="edge"><title>Node1&#45;&gt;Node3</title>
<path fill="none" stroke="#63b8ff" d="M148.968,-32.89C140.999,-31.2412 132.076,-29.3951 123.071,-27.5319"/>
<polygon fill="#63b8ff" stroke="#63b8ff" points="148.32,-36.33 158.822,-34.9287 149.739,-29.4752 148.32,-36.33"/>
</g>
</g>
</svg>
