<?xml version="1.0" encoding="UTF-8" standalone="no"?>
<!DOCTYPE svg PUBLIC "-//W3C//DTD SVG 1.1//EN"
 "http://www.w3.org/Graphics/SVG/1.1/DTD/svg11.dtd">
<!-- Generated by graphviz version 2.38.0 (20140413.2041)
 -->
<!-- Title: end Pages: 1 -->
<svg width="402pt" height="89pt"
 viewBox="0.00 0.00 402.00 88.50" xmlns="http://www.w3.org/2000/svg" xmlns:xlink="http://www.w3.org/1999/xlink">
<g id="graph0" class="graph" transform="scale(1 1) rotate(0) translate(4 84.5)">
<title>end</title>
<!-- Node1 -->
<g id="node1" class="node"><title>Node1</title>
<g id="a_node1"><a xlink:title=" ">
<polygon fill="#999999" stroke="#666666" points="394,-43.5 362,-43.5 362,-24.5 394,-24.5 394,-43.5"/>
<text text-anchor="middle" x="378" y="-31.5" font-family="Helvetica,sans-Serif" font-size="10.00">end</text>
</a>
</g>
</g>
<!-- Node2 -->
<g id="node2" class="node"><title>Node2</title>
<g id="a_node2"><a xlink:href="classore_1_1data_1_1_c_s_v_file_report.html#a54db19233f6bb3e8131dfc805e4046fd" target="_top" xlink:title=" ">
<polygon fill="white" stroke="#666666" points="326,-80.5 239,-80.5 239,-61.5 326,-61.5 326,-80.5"/>
<text text-anchor="middle" x="282.5" y="-68.5" font-family="Helvetica,sans-Serif" font-size="10.00">~CSVFileReport</text>
</a>
</g>
</g>
<!-- Node1&#45;&gt;Node2 -->
<g id="edge1" class="edge"><title>Node1&#45;&gt;Node2</title>
<path fill="none" stroke="#63b8ff" d="M352.584,-43.6619C338.716,-49.1497 321.421,-55.9937 307.605,-61.4611"/>
<polygon fill="#63b8ff" stroke="#63b8ff" points="353.967,-46.8788 361.978,-39.9447 351.391,-40.3699 353.967,-46.8788"/>
</g>
<!-- Node3 -->
<g id="node3" class="node"><title>Node3</title>
<g id="a_node3"><a xlink:href="classore_1_1data_1_1_c_s_v_file_report.html#a1445193a5ee913dfadf174b47a49f1d2" target="_top" xlink:title=" ">
<polygon fill="white" stroke="#666666" points="306,-43.5 259,-43.5 259,-24.5 306,-24.5 306,-43.5"/>
<text text-anchor="middle" x="282.5" y="-31.5" font-family="Helvetica,sans-Serif" font-size="10.00">rollover</text>
</a>
</g>
</g>
<!-- Node1&#45;&gt;Node3 -->
<g id="edge2" class="edge"><title>Node1&#45;&gt;Node3</title>
<path fill="none" stroke="#63b8ff" d="M351.882,-34C337.646,-34 319.978,-34 306.167,-34"/>
<polygon fill="#63b8ff" stroke="#63b8ff" points="351.978,-37.5001 361.978,-34 351.978,-30.5001 351.978,-37.5001"/>
</g>
<!-- Node5 -->
<g id="node5" class="node"><title>Node5</title>
<g id="a_node5"><a xlink:href="classore_1_1data_1_1_in_memory_report.html#abe91a6caf015cdc4c4e53c3f03dcc103" target="_top" xlink:title=" ">
<polygon fill="white" stroke="#666666" points="132,-30 0,-30 0,-0 132,-0 132,-30"/>
<text text-anchor="start" x="8" y="-18" font-family="Helvetica,sans-Serif" font-size="10.00">ore::data::InMemoryReport</text>
<text text-anchor="middle" x="66" y="-7" font-family="Helvetica,sans-Serif" font-size="10.00">::toFile</text>
</a>
</g>
</g>
<!-- Node1&#45;&gt;Node5 -->
<g id="edge5" class="edge"><title>Node1&#45;&gt;Node5</title>
<path fill="none" stroke="#63b8ff" d="M352.408,-22.8233C344.187,-19.636 334.859,-16.5965 326,-15 260.838,-3.25631 184.948,-5.02245 132.23,-8.64223"/>
<polygon fill="#63b8ff" stroke="#63b8ff" points="351.203,-26.1123 361.781,-26.6975 353.877,-19.6431 351.203,-26.1123"/>
</g>
<!-- Node4 -->
<g id="node4" class="node"><title>Node4</title>
<g id="a_node4"><a xlink:href="classore_1_1data_1_1_c_s_v_file_report.html#a7ba407af8cfb7f4701894176d4a3ea74" target="_top" xlink:title=" ">
<polygon fill="white" stroke="#666666" points="203,-43.5 168,-43.5 168,-24.5 203,-24.5 203,-43.5"/>
<text text-anchor="middle" x="185.5" y="-31.5" font-family="Helvetica,sans-Serif" font-size="10.00">next</text>
</a>
</g>
</g>
<!-- Node3&#45;&gt;Node4 -->
<g id="edge3" class="edge"><title>Node3&#45;&gt;Node4</title>
<path fill="none" stroke="#63b8ff" d="M248.809,-34C233.448,-34 215.791,-34 203.204,-34"/>
<polygon fill="#63b8ff" stroke="#63b8ff" points="248.986,-37.5001 258.986,-34 248.986,-30.5001 248.986,-37.5001"/>
</g>
<!-- Node4&#45;&gt;Node5 -->
<g id="edge4" class="edge"><title>Node4&#45;&gt;Node5</title>
<path fill="none" stroke="#63b8ff" d="M157.784,-29.68C150.053,-28.4298 141.255,-27.0073 132.252,-25.5514"/>
<polygon fill="#63b8ff" stroke="#63b8ff" points="157.484,-33.1768 167.914,-31.3181 158.601,-26.2666 157.484,-33.1768"/>
</g>
</g>
</svg>
