<?xml version="1.0" encoding="UTF-8" standalone="no"?>
<!DOCTYPE svg PUBLIC "-//W3C//DTD SVG 1.1//EN"
 "http://www.w3.org/Graphics/SVG/1.1/DTD/svg11.dtd">
<!-- Generated by graphviz version 2.38.0 (20140413.2041)
 -->
<!-- Title: VolatilityDeltaSurfaceConfig Pages: 1 -->
<!--zoomable 1040 -->
<svg id="main" version="1.1" xmlns="http://www.w3.org/2000/svg" xmlns:xlink="http://www.w3.org/1999/xlink" xml:space="preserve" onload="init(evt)">
<style type="text/css"><![CDATA[
.edge:hover path { stroke: red; }
.edge:hover polygon { stroke: red; fill: red; }
]]></style>
<script type="text/javascript"><![CDATA[
var edges = document.getElementsByTagName('g');
if (edges && edges.length) {
  for (var i=0;i<edges.length;i++) {
    if (edges[i].id.substr(0,4)=='edge') {
      edges[i].setAttribute('class','edge');
    }
  }
}
]]></script>
        <defs>
                <circle id="rim" cx="0" cy="0" r="7"/>
                <circle id="rim2" cx="0" cy="0" r="3.5"/>
                <g id="zoomPlus">
                        <use xlink:href="#rim" fill="#404040">
                                <set attributeName="fill" to="#808080" begin="zoomplus.mouseover" end="zoomplus.mouseout"/>
                        </use>
                        <path d="M-4,0h8M0,-4v8" fill="none" stroke="white" stroke-width="1.5" pointer-events="none"/>
                </g>
                <g id="zoomMin">
                        <use xlink:href="#rim" fill="#404040">
                                <set attributeName="fill" to="#808080" begin="zoomminus.mouseover" end="zoomminus.mouseout"/>
                        </use>
                        <path d="M-4,0h8" fill="none" stroke="white" stroke-width="1.5" pointer-events="none"/>
                </g>
                <g id="dirArrow">
                        <path fill="none" stroke="white" stroke-width="1.5" d="M0,-3.0v7 M-2.5,-0.5L0,-3.0L2.5,-0.5"/>
                </g>
               <g id="resetDef">
                       <use xlink:href="#rim2" fill="#404040">
                               <set attributeName="fill" to="#808080" begin="reset.mouseover" end="reset.mouseout"/>
                       </use>
               </g>
        </defs>

<script type="text/javascript">
var viewWidth = 640;
var viewHeight = 1040;
var sectionId = 'dynsection-1';
</script>
<script xlink:href="svgpan.js"/>
<svg id="graph" class="graph">
<g id="viewport">
<title>VolatilityDeltaSurfaceConfig</title>
<!-- Node1 -->
<g id="node1" class="node"><title>Node1</title>
<g id="a_node1"><a xlink:title=" ">
<polygon fill="#999999" stroke="#666666" points="326,-250 170,-250 170,-0 326,-0 326,-250"/>
<text text-anchor="middle" x="248" y="-238" font-family="Helvetica,sans-Serif" font-size="10.00">{VolatilityDeltaSurfaceConfig</text>
<text text-anchor="start" x="178" y="-227" font-family="Helvetica,sans-Serif" font-size="10.00">||+ VolatilityDeltaSurfaceConfig()</text>
<text text-anchor="start" x="178" y="-216" font-family="Helvetica,sans-Serif" font-size="10.00">+ VolatilityDeltaSurfaceConfig()</text>
<text text-anchor="start" x="178" y="-205" font-family="Helvetica,sans-Serif" font-size="10.00">+ deltaType()</text>
<text text-anchor="start" x="178" y="-194" font-family="Helvetica,sans-Serif" font-size="10.00">+ atmType()</text>
<text text-anchor="start" x="178" y="-183" font-family="Helvetica,sans-Serif" font-size="10.00">+ putDeltas()</text>
<text text-anchor="start" x="178" y="-172" font-family="Helvetica,sans-Serif" font-size="10.00">+ callDeltas()</text>
<text text-anchor="start" x="178" y="-161" font-family="Helvetica,sans-Serif" font-size="10.00">+ expiries()</text>
<text text-anchor="start" x="178" y="-150" font-family="Helvetica,sans-Serif" font-size="10.00">+ atmDeltaType()</text>
<text text-anchor="start" x="178" y="-139" font-family="Helvetica,sans-Serif" font-size="10.00">+ futurePriceCorrection()</text>
<text text-anchor="start" x="178" y="-128" font-family="Helvetica,sans-Serif" font-size="10.00">+ quotes()</text>
<text text-anchor="start" x="178" y="-117" font-family="Helvetica,sans-Serif" font-size="10.00">* fromXML()</text>
<text text-anchor="start" x="178" y="-106" font-family="Helvetica,sans-Serif" font-size="10.00">* toXML()</text>
<text text-anchor="start" x="178" y="-95" font-family="Helvetica,sans-Serif" font-size="10.00">* deltaType()</text>
<text text-anchor="start" x="178" y="-84" font-family="Helvetica,sans-Serif" font-size="10.00">* atmType()</text>
<text text-anchor="start" x="178" y="-73" font-family="Helvetica,sans-Serif" font-size="10.00">* putDeltas()</text>
<text text-anchor="start" x="178" y="-62" font-family="Helvetica,sans-Serif" font-size="10.00">* callDeltas()</text>
<text text-anchor="start" x="178" y="-51" font-family="Helvetica,sans-Serif" font-size="10.00">* expiries()</text>
<text text-anchor="start" x="178" y="-40" font-family="Helvetica,sans-Serif" font-size="10.00">* atmDeltaType()</text>
<text text-anchor="start" x="178" y="-29" font-family="Helvetica,sans-Serif" font-size="10.00">* futurePriceCorrection()</text>
<text text-anchor="start" x="178" y="-18" font-family="Helvetica,sans-Serif" font-size="10.00">* quotes()</text>
<text text-anchor="middle" x="248" y="-7" font-family="Helvetica,sans-Serif" font-size="10.00">}</text>
</a>
</g>
</g>
<!-- Node2 -->
<g id="node2" class="node"><title>Node2</title>
<g id="a_node2"><a xlink:href="classore_1_1data_1_1_volatility_surface_config.html" target="_top" xlink:title=" ">
<polygon fill="white" stroke="#666666" points="386,-427 252,-427 252,-287 386,-287 386,-427"/>
<text text-anchor="middle" x="319" y="-415" font-family="Helvetica,sans-Serif" font-size="10.00">{VolatilitySurfaceConfig</text>
<text text-anchor="start" x="260" y="-404" font-family="Helvetica,sans-Serif" font-size="10.00">||+ VolatilitySurfaceConfig()</text>
<text text-anchor="start" x="260" y="-393" font-family="Helvetica,sans-Serif" font-size="10.00">+ VolatilitySurfaceConfig()</text>
<text text-anchor="start" x="260" y="-382" font-family="Helvetica,sans-Serif" font-size="10.00">* timeInterpolation()</text>
<text text-anchor="start" x="260" y="-371" font-family="Helvetica,sans-Serif" font-size="10.00">* strikeInterpolation()</text>
<text text-anchor="start" x="260" y="-360" font-family="Helvetica,sans-Serif" font-size="10.00">* extrapolation()</text>
<text text-anchor="start" x="260" y="-349" font-family="Helvetica,sans-Serif" font-size="10.00">* timeExtrapolation()</text>
<text text-anchor="start" x="260" y="-338" font-family="Helvetica,sans-Serif" font-size="10.00">* strikeExtrapolation()</text>
<text text-anchor="start" x="260" y="-327" font-family="Helvetica,sans-Serif" font-size="10.00">* quotes()</text>
<text text-anchor="start" x="260" y="-316" font-family="Helvetica,sans-Serif" font-size="10.00">* fromNode()</text>
<text text-anchor="start" x="260" y="-305" font-family="Helvetica,sans-Serif" font-size="10.00">* addNodes()</text>
<text text-anchor="middle" x="319" y="-294" font-family="Helvetica,sans-Serif" font-size="10.00">}</text>
</a>
</g>
</g>
<!-- Node2&#45;&gt;Node1 -->
<g id="edge1" class="edge"><title>Node2&#45;&gt;Node1</title>
<path fill="none" stroke="#63b8ff" d="M294.701,-277.284C292.007,-268.557 289.217,-259.52 286.403,-250.403"/>
<polygon fill="none" stroke="#63b8ff" points="291.404,-278.47 297.698,-286.992 298.092,-276.405 291.404,-278.47"/>
</g>
<!-- Node3 -->
<g id="node3" class="node"><title>Node3</title>
<g id="a_node3"><a xlink:href="classore_1_1data_1_1_quote_based_volatility_config.html" target="_top" xlink:title=" ">
<polygon fill="white" stroke="#666666" points="469.5,-603 314.5,-603 314.5,-496 469.5,-496 469.5,-603"/>
<text text-anchor="middle" x="392" y="-591" font-family="Helvetica,sans-Serif" font-size="10.00">{QuoteBasedVolatilityConfig</text>
<text text-anchor="start" x="322.5" y="-580" font-family="Helvetica,sans-Serif" font-size="10.00">||+ QuoteBasedVolatilityConfig()</text>
<text text-anchor="start" x="322.5" y="-569" font-family="Helvetica,sans-Serif" font-size="10.00">+ quoteType()</text>
<text text-anchor="start" x="322.5" y="-558" font-family="Helvetica,sans-Serif" font-size="10.00">+ exerciseType()</text>
<text text-anchor="start" x="322.5" y="-547" font-family="Helvetica,sans-Serif" font-size="10.00">* fromBaseNode()</text>
<text text-anchor="start" x="322.5" y="-536" font-family="Helvetica,sans-Serif" font-size="10.00">* toBaseNode()</text>
<text text-anchor="start" x="322.5" y="-525" font-family="Helvetica,sans-Serif" font-size="10.00">* quoteType()</text>
<text text-anchor="start" x="322.5" y="-514" font-family="Helvetica,sans-Serif" font-size="10.00">* exerciseType()</text>
<text text-anchor="middle" x="392" y="-503" font-family="Helvetica,sans-Serif" font-size="10.00">}</text>
</a>
</g>
</g>
<!-- Node3&#45;&gt;Node2 -->
<g id="edge2" class="edge"><title>Node3&#45;&gt;Node2</title>
<path fill="none" stroke="#63b8ff" d="M368.248,-486.518C360.981,-467.552 352.942,-446.575 345.503,-427.163"/>
<polygon fill="none" stroke="#63b8ff" points="365.013,-487.855 371.859,-495.941 371.549,-485.35 365.013,-487.855"/>
</g>
<!-- Node4 -->
<g id="node4" class="node"><title>Node4</title>
<g id="a_node4"><a xlink:href="classore_1_1data_1_1_volatility_config.html" target="_top" xlink:title=" ">
<polygon fill="white" stroke="#666666" points="442.5,-801 341.5,-801 341.5,-716 442.5,-716 442.5,-801"/>
<text text-anchor="middle" x="392" y="-789" font-family="Helvetica,sans-Serif" font-size="10.00">{VolatilityConfig</text>
<text text-anchor="start" x="349.5" y="-778" font-family="Helvetica,sans-Serif" font-size="10.00">||+ VolatilityConfig()</text>
<text text-anchor="start" x="349.5" y="-767" font-family="Helvetica,sans-Serif" font-size="10.00">+ fromXMLNode()</text>
<text text-anchor="start" x="349.5" y="-756" font-family="Helvetica,sans-Serif" font-size="10.00">+ toXMLNode()</text>
<text text-anchor="start" x="349.5" y="-745" font-family="Helvetica,sans-Serif" font-size="10.00">+ priority()</text>
<text text-anchor="start" x="349.5" y="-734" font-family="Helvetica,sans-Serif" font-size="10.00">+ calendar()</text>
<text text-anchor="middle" x="392" y="-723" font-family="Helvetica,sans-Serif" font-size="10.00">}</text>
</a>
</g>
</g>
<!-- Node4&#45;&gt;Node3 -->
<g id="edge3" class="edge"><title>Node4&#45;&gt;Node3</title>
<path fill="none" stroke="#63b8ff" d="M392,-705.381C392,-674.203 392,-634.691 392,-603.379"/>
<polygon fill="none" stroke="#63b8ff" points="388.5,-705.61 392,-715.61 395.5,-705.61 388.5,-705.61"/>
</g>
<!-- Node5 -->
<g id="node5" class="node"><title>Node5</title>
<g id="a_node5"><a xlink:href="classore_1_1data_1_1_x_m_l_serializable.html" target="_top" xlink:title="Base class for all serializable classes.">
<polygon fill="white" stroke="#666666" points="413.5,-955 302.5,-955 302.5,-848 413.5,-848 413.5,-955"/>
<text text-anchor="middle" x="358" y="-943" font-family="Helvetica,sans-Serif" font-size="10.00">{XMLSerializable</text>
<text text-anchor="start" x="310.5" y="-932" font-family="Helvetica,sans-Serif" font-size="10.00">||+ ~XMLSerializable()</text>
<text text-anchor="start" x="310.5" y="-921" font-family="Helvetica,sans-Serif" font-size="10.00">+ fromXML()</text>
<text text-anchor="start" x="310.5" y="-910" font-family="Helvetica,sans-Serif" font-size="10.00">+ toXML()</text>
<text text-anchor="start" x="310.5" y="-899" font-family="Helvetica,sans-Serif" font-size="10.00">+ fromFile()</text>
<text text-anchor="start" x="310.5" y="-888" font-family="Helvetica,sans-Serif" font-size="10.00">+ toFile()</text>
<text text-anchor="start" x="310.5" y="-877" font-family="Helvetica,sans-Serif" font-size="10.00">+ fromXMLString()</text>
<text text-anchor="start" x="310.5" y="-866" font-family="Helvetica,sans-Serif" font-size="10.00">+ toXMLString()</text>
<text text-anchor="middle" x="358" y="-855" font-family="Helvetica,sans-Serif" font-size="10.00">}</text>
</a>
</g>
</g>
<!-- Node5&#45;&gt;Node4 -->
<g id="edge4" class="edge"><title>Node5&#45;&gt;Node4</title>
<path fill="none" stroke="#63b8ff" d="M376.985,-838.051C377.689,-835.337 378.364,-832.644 379,-830 381.24,-820.682 383.309,-810.591 385.106,-801.036"/>
<polygon fill="none" stroke="#63b8ff" points="373.547,-837.36 374.331,-847.926 380.307,-839.177 373.547,-837.36"/>
</g>
<!-- Node6 -->
<g id="node6" class="node"><title>Node6</title>
<g id="a_node6"><a xlink:title=" ">
<polygon fill="white" stroke="#666666" points="490,-916.5 432,-916.5 432,-886.5 490,-886.5 490,-916.5"/>
<text text-anchor="middle" x="461" y="-904.5" font-family="Helvetica,sans-Serif" font-size="10.00">{Calendar</text>
<text text-anchor="middle" x="461" y="-893.5" font-family="Helvetica,sans-Serif" font-size="10.00">||}</text>
</a>
</g>
</g>
<!-- Node6&#45;&gt;Node4 -->
<g id="edge5" class="edge"><title>Node6&#45;&gt;Node4</title>
<path fill="none" stroke="#404040" d="M454.132,-886.465C445.653,-869.139 430.749,-838.683 417.664,-811.943"/>
<polygon fill="none" stroke="#404040" points="417.655,-811.925 411.424,-808.294 412.38,-801.146 418.61,-804.777 417.655,-811.925"/>
<text text-anchor="middle" x="451.5" y="-822" font-family="Helvetica,sans-Serif" font-size="10.00"> &#45;calendar_</text>
</g>
<!-- Node7 -->
<g id="node7" class="node"><title>Node7</title>
<g id="a_node7"><a xlink:title=" ">
<polygon fill="white" stroke="#666666" points="246,-916.5 202,-916.5 202,-886.5 246,-886.5 246,-916.5"/>
<text text-anchor="middle" x="224" y="-904.5" font-family="Helvetica,sans-Serif" font-size="10.00">{string</text>
<text text-anchor="middle" x="224" y="-893.5" font-family="Helvetica,sans-Serif" font-size="10.00">||}</text>
</a>
</g>
</g>
<!-- Node7&#45;&gt;Node1 -->
<g id="edge13" class="edge"><title>Node7&#45;&gt;Node1</title>
<path fill="none" stroke="#404040" d="M217.554,-886.428C206.712,-861.435 186,-807.416 186,-759.5 186,-759.5 186,-759.5 186,-356 186,-324.921 191.343,-292.269 198.891,-261.646"/>
<polygon fill="none" stroke="#404040" points="198.894,-261.637 196.516,-254.829 201.886,-250.016 204.264,-256.824 198.894,-261.637"/>
<text text-anchor="middle" x="222" y="-558" font-family="Helvetica,sans-Serif" font-size="10.00"> &#45;atmDeltaType_</text>
<text text-anchor="middle" x="222" y="-547" font-family="Helvetica,sans-Serif" font-size="10.00">&#45;atmType_</text>
<text text-anchor="middle" x="222" y="-536" font-family="Helvetica,sans-Serif" font-size="10.00">&#45;deltaType_</text>
</g>
<!-- Node7&#45;&gt;Node2 -->
<g id="edge11" class="edge"><title>Node7&#45;&gt;Node2</title>
<path fill="none" stroke="#404040" d="M226.492,-886.268C237.436,-823.772 281.715,-570.918 304.816,-438.997"/>
<polygon fill="none" stroke="#404040" points="304.846,-438.826 301.941,-432.225 306.916,-427.005 309.821,-433.605 304.846,-438.826"/>
<text text-anchor="start" x="273" y="-690" font-family="Helvetica,sans-Serif" font-size="10.00"> &#45;strikeExtrapolation</text>
<text text-anchor="middle" x="317" y="-679" font-family="Helvetica,sans-Serif" font-size="10.00">_</text>
<text text-anchor="start" x="273" y="-668" font-family="Helvetica,sans-Serif" font-size="10.00">&#45;strikeInterpolation</text>
<text text-anchor="middle" x="317" y="-657" font-family="Helvetica,sans-Serif" font-size="10.00">_</text>
<text text-anchor="start" x="273" y="-646" font-family="Helvetica,sans-Serif" font-size="10.00">&#45;timeExtrapolation</text>
<text text-anchor="middle" x="317" y="-635" font-family="Helvetica,sans-Serif" font-size="10.00">_</text>
<text text-anchor="middle" x="317" y="-624" font-family="Helvetica,sans-Serif" font-size="10.00">&#45;timeInterpolation_</text>
</g>
<!-- Node7&#45;&gt;Node4 -->
<g id="edge6" class="edge"><title>Node7&#45;&gt;Node4</title>
<path fill="none" stroke="#404040" d="M238.941,-886.257C256.521,-869.667 286.773,-841.645 314,-819 319.672,-814.283 325.657,-809.459 331.687,-804.699"/>
<polygon fill="none" stroke="#404040" points="331.706,-804.684 333.971,-797.838 341.162,-797.297 338.897,-804.143 331.706,-804.684"/>
<text text-anchor="middle" x="344.5" y="-822" font-family="Helvetica,sans-Serif" font-size="10.00"> &#45;calendarStr_</text>
</g>
<!-- Node13 -->
<g id="node13" class="node"><title>Node13</title>
<g id="a_node13"><a xlink:title=" ">
<polygon fill="white" stroke="#666666" points="157.5,-773.5 50.5,-773.5 50.5,-743.5 157.5,-743.5 157.5,-773.5"/>
<text text-anchor="middle" x="104" y="-761.5" font-family="Helvetica,sans-Serif" font-size="10.00">{vector&lt; std::string &gt;</text>
<text text-anchor="middle" x="104" y="-750.5" font-family="Helvetica,sans-Serif" font-size="10.00">||}</text>
</a>
</g>
</g>
<!-- Node7&#45;&gt;Node13 -->
<g id="edge15" class="edge"><title>Node7&#45;&gt;Node13</title>
<path fill="none" stroke="#404040" d="M201.629,-890.641C178.503,-879.305 143.034,-858.523 123,-830 113.852,-816.975 109.107,-799.767 106.646,-785.613"/>
<polygon fill="none" stroke="#404040" points="106.639,-785.563 101.843,-780.178 104.968,-773.68 109.765,-779.064 106.639,-785.563"/>
<text text-anchor="middle" x="147.5" y="-822" font-family="Helvetica,sans-Serif" font-size="10.00"> +elements</text>
</g>
<!-- Node8 -->
<g id="node8" class="node"><title>Node8</title>
<g id="a_node8"><a xlink:title=" ">
<polygon fill="white" stroke="#666666" points="279,-1032 169,-1032 169,-1002 279,-1002 279,-1032"/>
<text text-anchor="middle" x="224" y="-1020" font-family="Helvetica,sans-Serif" font-size="10.00">{basic_string&lt; Char &gt;</text>
<text text-anchor="middle" x="224" y="-1009" font-family="Helvetica,sans-Serif" font-size="10.00">||}</text>
</a>
</g>
</g>
<!-- Node8&#45;&gt;Node7 -->
<g id="edge7" class="edge"><title>Node8&#45;&gt;Node7</title>
<path fill="none" stroke="#63b8ff" d="M224,-991.37C224,-968.571 224,-935.46 224,-916.758"/>
<polygon fill="none" stroke="#63b8ff" points="220.5,-991.625 224,-1001.63 227.5,-991.625 220.5,-991.625"/>
</g>
<!-- Node9 -->
<g id="node9" class="node"><title>Node9</title>
<g id="a_node9"><a xlink:title=" ">
<polygon fill="white" stroke="#666666" points="558,-916.5 508,-916.5 508,-886.5 558,-886.5 558,-916.5"/>
<text text-anchor="middle" x="533" y="-904.5" font-family="Helvetica,sans-Serif" font-size="10.00">{Natural</text>
<text text-anchor="middle" x="533" y="-893.5" font-family="Helvetica,sans-Serif" font-size="10.00">||}</text>
</a>
</g>
</g>
<!-- Node9&#45;&gt;Node4 -->
<g id="edge8" class="edge"><title>Node9&#45;&gt;Node4</title>
<path fill="none" stroke="#404040" d="M523.785,-886.226C516.957,-875.66 507.416,-860.92 499,-848 490.59,-835.089 491.028,-829.761 480,-819 471.178,-810.392 465.901,-809.413 453.004,-801.885"/>
<polygon fill="none" stroke="#404040" points="452.895,-801.817 445.687,-802.027 442.721,-795.454 449.929,-795.244 452.895,-801.817"/>
<text text-anchor="middle" x="509.5" y="-822" font-family="Helvetica,sans-Serif" font-size="10.00"> &#45;priority_</text>
</g>
<!-- Node10 -->
<g id="node10" class="node"><title>Node10</title>
<g id="a_node10"><a xlink:title=" ">
<polygon fill="white" stroke="#666666" points="527.5,-773.5 460.5,-773.5 460.5,-743.5 527.5,-743.5 527.5,-773.5"/>
<text text-anchor="middle" x="494" y="-761.5" font-family="Helvetica,sans-Serif" font-size="10.00">{QuoteType</text>
<text text-anchor="middle" x="494" y="-750.5" font-family="Helvetica,sans-Serif" font-size="10.00">||}</text>
</a>
</g>
</g>
<!-- Node10&#45;&gt;Node3 -->
<g id="edge9" class="edge"><title>Node10&#45;&gt;Node3</title>
<path fill="none" stroke="#404040" d="M486.989,-743.272C474.058,-717.028 445.728,-659.536 423.353,-614.129"/>
<polygon fill="none" stroke="#404040" points="423.256,-613.932 417.016,-610.318 417.952,-603.168 424.192,-606.782 423.256,-613.932"/>
<text text-anchor="middle" x="492.5" y="-657" font-family="Helvetica,sans-Serif" font-size="10.00"> &#45;quoteType_</text>
</g>
<!-- Node11 -->
<g id="node11" class="node"><title>Node11</title>
<g id="a_node11"><a xlink:title=" ">
<polygon fill="white" stroke="#666666" points="590.5,-773.5 549.5,-773.5 549.5,-743.5 590.5,-743.5 590.5,-773.5"/>
<text text-anchor="middle" x="570" y="-761.5" font-family="Helvetica,sans-Serif" font-size="10.00">{Type</text>
<text text-anchor="middle" x="570" y="-750.5" font-family="Helvetica,sans-Serif" font-size="10.00">||}</text>
</a>
</g>
</g>
<!-- Node11&#45;&gt;Node3 -->
<g id="edge10" class="edge"><title>Node11&#45;&gt;Node3</title>
<path fill="none" stroke="#404040" d="M569.181,-743.122C566.874,-715.794 558.112,-655.969 525,-621 512.028,-607.3 501.922,-611.022 481.065,-603.238"/>
<polygon fill="none" stroke="#404040" points="480.901,-603.166 473.802,-604.431 469.903,-598.365 477.002,-597.099 480.901,-603.166"/>
<text text-anchor="middle" x="597" y="-657" font-family="Helvetica,sans-Serif" font-size="10.00"> &#45;exerciseType_</text>
</g>
<!-- Node12 -->
<g id="node12" class="node"><title>Node12</title>
<g id="a_node12"><a xlink:href="classbool.html" target="_top" xlink:title=" ">
<polygon fill="white" stroke="#666666" points="526,-564.5 488,-564.5 488,-534.5 526,-534.5 526,-564.5"/>
<text text-anchor="middle" x="507" y="-552.5" font-family="Helvetica,sans-Serif" font-size="10.00">{bool</text>
<text text-anchor="middle" x="507" y="-541.5" font-family="Helvetica,sans-Serif" font-size="10.00">||}</text>
</a>
</g>
</g>
<!-- Node12&#45;&gt;Node1 -->
<g id="edge18" class="edge"><title>Node12&#45;&gt;Node1</title>
<path fill="none" stroke="#404040" d="M504.824,-534.414C501.424,-514.159 493.971,-475.848 482,-445 452.999,-370.266 441.686,-352.167 395,-287 377,-261.874 355.526,-236.396 334.626,-213.347"/>
<polygon fill="none" stroke="#404040" points="334.447,-213.152 327.445,-211.429 326.342,-204.303 333.345,-206.026 334.447,-213.152"/>
<text text-anchor="middle" x="526.5" y="-354.5" font-family="Helvetica,sans-Serif" font-size="10.00"> &#45;futurePriceCorrection_</text>
</g>
<!-- Node12&#45;&gt;Node2 -->
<g id="edge12" class="edge"><title>Node12&#45;&gt;Node2</title>
<path fill="none" stroke="#404040" d="M502.662,-534.426C498.286,-522.516 490.384,-505.856 478,-496 455.215,-477.866 439.243,-494.133 415,-478 398.446,-466.984 383.394,-452.21 370.372,-436.802"/>
<polygon fill="none" stroke="#404040" points="370.099,-436.466 363.211,-434.332 362.531,-427.153 369.42,-429.287 370.099,-436.466"/>
<text text-anchor="middle" x="448.5" y="-459" font-family="Helvetica,sans-Serif" font-size="10.00"> &#45;extrapolation_</text>
</g>
<!-- Node13&#45;&gt;Node1 -->
<g id="edge14" class="edge"><title>Node13&#45;&gt;Node1</title>
<path fill="none" stroke="#404040" d="M103.293,-743.346C101.353,-698.961 97.3162,-558.697 117,-445 131.052,-363.83 140.198,-343.991 172,-268 172.97,-265.683 173.965,-263.353 174.983,-261.015"/>
<polygon fill="none" stroke="#404040" points="175,-260.978 173.799,-253.867 179.9,-250.024 181.101,-257.134 175,-260.978"/>
<text text-anchor="middle" x="144.5" y="-470" font-family="Helvetica,sans-Serif" font-size="10.00"> &#45;callDeltas_</text>
<text text-anchor="middle" x="144.5" y="-459" font-family="Helvetica,sans-Serif" font-size="10.00">&#45;expiries_</text>
<text text-anchor="middle" x="144.5" y="-448" font-family="Helvetica,sans-Serif" font-size="10.00">&#45;putDeltas_</text>
</g>
<!-- Node14 -->
<g id="node14" class="node"><title>Node14</title>
<g id="a_node14"><a xlink:title=" ">
<polygon fill="white" stroke="#666666" points="68,-916.5 0,-916.5 0,-886.5 68,-886.5 68,-916.5"/>
<text text-anchor="middle" x="34" y="-904.5" font-family="Helvetica,sans-Serif" font-size="10.00">{vector&lt; T &gt;</text>
<text text-anchor="middle" x="34" y="-893.5" font-family="Helvetica,sans-Serif" font-size="10.00">||}</text>
</a>
</g>
</g>
<!-- Node14&#45;&gt;Node13 -->
<g id="edge16" class="edge"><title>Node14&#45;&gt;Node13</title>
<path fill="none" stroke="orange" d="M29.2543,-876.328C27.1197,-859.473 26.6712,-836.889 35,-819 44.0798,-799.498 62.9859,-783.924 78.7154,-773.609"/>
<polygon fill="orange" stroke="orange" points="25.8357,-877.124 30.8252,-886.47 32.7532,-876.052 25.8357,-877.124"/>
<text text-anchor="middle" x="67.5" y="-822" font-family="Helvetica,sans-Serif" font-size="10.00"> &lt; std::string &gt;</text>
</g>
<!-- Node15 -->
<g id="node15" class="node"><title>Node15</title>
<g id="a_node15"><a xlink:title=" ">
<polygon fill="white" stroke="#666666" points="48.5,-1032 19.5,-1032 19.5,-1002 48.5,-1002 48.5,-1032"/>
<text text-anchor="middle" x="34" y="-1020" font-family="Helvetica,sans-Serif" font-size="10.00">{T</text>
<text text-anchor="middle" x="34" y="-1009" font-family="Helvetica,sans-Serif" font-size="10.00">||}</text>
</a>
</g>
</g>
<!-- Node15&#45;&gt;Node14 -->
<g id="edge17" class="edge"><title>Node15&#45;&gt;Node14</title>
<path fill="none" stroke="#404040" d="M34,-1001.63C34,-983.375 34,-951.54 34,-928.873"/>
<polygon fill="none" stroke="#404040" points="34.0001,-928.758 30,-922.758 34,-916.758 38,-922.758 34.0001,-928.758"/>
<text text-anchor="middle" x="58.5" y="-976" font-family="Helvetica,sans-Serif" font-size="10.00"> +elements</text>
</g>
</g>
</svg>
        <g id="navigator" transform="translate(0 0)" fill="#404254">
                <rect fill="#f2f5e9" fill-opacity="0.5" stroke="#606060" stroke-width=".5" x="0" y="0" width="60" height="60"/>
                <use id="zoomplus" xlink:href="#zoomPlus" x="17" y="9" onmousedown="handleZoom(evt,'in')"/>
                <use id="zoomminus" xlink:href="#zoomMin" x="42" y="9" onmousedown="handleZoom(evt,'out')"/>
                <use id="reset" xlink:href="#resetDef" x="30" y="36" onmousedown="handleReset()"/>
                <g id="arrowUp" xlink:href="#dirArrow" transform="translate(30 24)" onmousedown="handlePan(0,-1)">
                  <use xlink:href="#rim" fill="#404040">
                        <set attributeName="fill" to="#808080" begin="arrowUp.mouseover" end="arrowUp.mouseout"/>
                  </use>
                  <path fill="none" stroke="white" stroke-width="1.5" d="M0,-3.0v7 M-2.5,-0.5L0,-3.0L2.5,-0.5"/>
                </g>
                <g id="arrowRight" xlink:href="#dirArrow" transform="rotate(90) translate(36 -43)" onmousedown="handlePan(1,0)">
                  <use xlink:href="#rim" fill="#404040">
                        <set attributeName="fill" to="#808080" begin="arrowRight.mouseover" end="arrowRight.mouseout"/>
                  </use>
                  <path fill="none" stroke="white" stroke-width="1.5" d="M0,-3.0v7 M-2.5,-0.5L0,-3.0L2.5,-0.5"/>
                </g>
                <g id="arrowDown" xlink:href="#dirArrow" transform="rotate(180) translate(-30 -48)" onmousedown="handlePan(0,1)">
                  <use xlink:href="#rim" fill="#404040">
                        <set attributeName="fill" to="#808080" begin="arrowDown.mouseover" end="arrowDown.mouseout"/>
                  </use>
                  <path fill="none" stroke="white" stroke-width="1.5" d="M0,-3.0v7 M-2.5,-0.5L0,-3.0L2.5,-0.5"/>
                </g>
                <g id="arrowLeft" xlink:href="#dirArrow" transform="rotate(270) translate(-36 17)" onmousedown="handlePan(-1,0)">
                  <use xlink:href="#rim" fill="#404040">
                        <set attributeName="fill" to="#808080" begin="arrowLeft.mouseover" end="arrowLeft.mouseout"/>
                  </use>
                  <path fill="none" stroke="white" stroke-width="1.5" d="M0,-3.0v7 M-2.5,-0.5L0,-3.0L2.5,-0.5"/>
                </g>
        </g>
        <svg viewBox="0 0 15 15" width="100%" height="30px" preserveAspectRatio="xMaxYMin meet">
         <g id="arrow_out" transform="scale(0.3 0.3)">
          <a xlink:href="classore_1_1data_1_1_volatility_delta_surface_config__coll__graph_org.svg" target="_base">
           <rect id="button" ry="5" rx="5" y="6" x="6" height="38" width="38"
                fill="#f2f5e9" fill-opacity="0.5" stroke="#606060" stroke-width="1.0"/>
           <path id="arrow"
             d="M 11.500037,31.436501 C 11.940474,20.09759 22.043105,11.32322 32.158766,21.979434 L 37.068811,17.246167 C 37.068811,17.246167 37.088388,32 37.088388,32 L 22.160133,31.978069 C 22.160133,31.978069 26.997745,27.140456 26.997745,27.140456 C 18.528582,18.264221 13.291696,25.230495 11.500037,31.436501 z"
             style="fill:#404040;"/>
          </a>
         </g>
        </svg>
</svg>
