<?xml version="1.0" encoding="UTF-8" standalone="no"?>
<!DOCTYPE svg PUBLIC "-//W3C//DTD SVG 1.1//EN"
 "http://www.w3.org/Graphics/SVG/1.1/DTD/svg11.dtd">
<!-- Generated by graphviz version 2.38.0 (20140413.2041)
 -->
<!-- Title: FXSpotConfig Pages: 1 -->
<svg width="243pt" height="76pt"
 viewBox="0.00 0.00 243.00 75.50" xmlns="http://www.w3.org/2000/svg" xmlns:xlink="http://www.w3.org/1999/xlink">
<g id="graph0" class="graph" transform="scale(1 1) rotate(0) translate(4 71.5)">
<title>FXSpotConfig</title>
<!-- Node1 -->
<g id="node1" class="node"><title>Node1</title>
<g id="a_node1"><a xlink:title="Detailed constructor.">
<polygon fill="#999999" stroke="#666666" points="75,-40 0,-40 0,-21 75,-21 75,-40"/>
<text text-anchor="middle" x="37.5" y="-28" font-family="Helvetica,sans-Serif" font-size="10.00">FXSpotConfig</text>
</a>
</g>
</g>
<!-- Node2 -->
<g id="node2" class="node"><title>Node2</title>
<g id="a_node2"><a xlink:href="classore_1_1data_1_1_curve_config.html#a469f15054f3eb55783dfeb953fdf4373" target="_top" xlink:title=" ">
<polygon fill="white" stroke="#666666" points="229,-67.5 117,-67.5 117,-37.5 229,-37.5 229,-67.5"/>
<text text-anchor="start" x="125" y="-55.5" font-family="Helvetica,sans-Serif" font-size="10.00">ore::data::CurveConfig</text>
<text text-anchor="middle" x="173" y="-44.5" font-family="Helvetica,sans-Serif" font-size="10.00">::curveID</text>
</a>
</g>
</g>
<!-- Node1&#45;&gt;Node2 -->
<g id="edge1" class="edge"><title>Node1&#45;&gt;Node2</title>
<path fill="none" stroke="#63b8ff" d="M75.3329,-36.5698C85.1417,-38.1863 96.0373,-39.9818 106.876,-41.7679"/>
<polygon fill="#63b8ff" stroke="#63b8ff" points="106.344,-45.2275 116.78,-43.4002 107.483,-38.3206 106.344,-45.2275"/>
</g>
<!-- Node3 -->
<g id="node3" class="node"><title>Node3</title>
<g id="a_node3"><a xlink:href="group__utilities.html#ga6e9e781a58e78200301c76161589fc7b" target="_top" xlink:title="Convert text to QuantLib::Currency.">
<polygon fill="white" stroke="#666666" points="235,-19 111,-19 111,-0 235,-0 235,-19"/>
<text text-anchor="middle" x="173" y="-7" font-family="Helvetica,sans-Serif" font-size="10.00">ore::data::parseCurrency</text>
</a>
</g>
</g>
<!-- Node1&#45;&gt;Node3 -->
<g id="edge2" class="edge"><title>Node1&#45;&gt;Node3</title>
<path fill="none" stroke="#63b8ff" d="M75.3329,-24.7061C83.4637,-23.4271 92.3413,-22.0306 101.314,-20.6191"/>
<polygon fill="#63b8ff" stroke="#63b8ff" points="102.116,-24.0362 111.45,-19.0247 101.028,-17.1212 102.116,-24.0362"/>
</g>
</g>
</svg>
