<?xml version="1.0" encoding="UTF-8" standalone="no"?>
<!DOCTYPE svg PUBLIC "-//W3C//DTD SVG 1.1//EN"
 "http://www.w3.org/Graphics/SVG/1.1/DTD/svg11.dtd">
<!-- Generated by graphviz version 2.38.0 (20140413.2041)
 -->
<!-- Title: build Pages: 1 -->
<svg width="878pt" height="1181pt"
 viewBox="0.00 0.00 878.00 1180.50" xmlns="http://www.w3.org/2000/svg" xmlns:xlink="http://www.w3.org/1999/xlink">
<g id="graph0" class="graph" transform="scale(1 1) rotate(0) translate(4 1176.5)">
<title>build</title>
<!-- Node1 -->
<g id="node1" class="node"><title>Node1</title>
<g id="a_node1"><a xlink:title="Build QuantLib/QuantExt instrument, link pricing engine.">
<polygon fill="#999999" stroke="#666666" points="37,-105.5 0,-105.5 0,-86.5 37,-86.5 37,-105.5"/>
<text text-anchor="middle" x="18.5" y="-93.5" font-family="Helvetica,sans-Serif" font-size="10.00">build</text>
</a>
</g>
</g>
<!-- Node2 -->
<g id="node2" class="node"><title>Node2</title>
<g id="a_node2"><a xlink:href="classore_1_1data_1_1_vanilla_option_trade.html#af7b69d5b18d278257927e32b10a23ee6" target="_top" xlink:title="Build QuantLib/QuantExt instrument, link pricing engine.">
<polygon fill="white" stroke="#666666" points="192,-626 73,-626 73,-596 192,-596 192,-626"/>
<text text-anchor="start" x="81" y="-614" font-family="Helvetica,sans-Serif" font-size="10.00">ore::data::VanillaOption</text>
<text text-anchor="middle" x="132.5" y="-603" font-family="Helvetica,sans-Serif" font-size="10.00">Trade::build</text>
</a>
</g>
</g>
<!-- Node1&#45;&gt;Node2 -->
<g id="edge1" class="edge"><title>Node1&#45;&gt;Node2</title>
<path fill="none" stroke="#63b8ff" d="M21.6373,-105.828C34.8735,-166.69 105.76,-492.642 126.063,-585.999"/>
<polygon fill="#63b8ff" stroke="#63b8ff" points="122.685,-586.936 128.23,-595.963 129.525,-585.448 122.685,-586.936"/>
</g>
<!-- Node20 -->
<g id="node20" class="node"><title>Node20</title>
<g id="a_node20"><a xlink:href="group__utilities.html#ga20c18a22a7c42fb8d358d9778a956011" target="_top" xlink:title="Convert text to QuantLib::Exercise::Type.">
<polygon fill="white" stroke="#666666" points="379.5,-143.5 235.5,-143.5 235.5,-124.5 379.5,-124.5 379.5,-143.5"/>
<text text-anchor="middle" x="307.5" y="-131.5" font-family="Helvetica,sans-Serif" font-size="10.00">ore::data::parseExerciseType</text>
</a>
</g>
</g>
<!-- Node1&#45;&gt;Node20 -->
<g id="edge46" class="edge"><title>Node1&#45;&gt;Node20</title>
<path fill="none" stroke="#63b8ff" d="M37.2101,-100.925C47.5718,-103.65 60.9468,-106.9 73,-109 123.316,-117.768 180.304,-123.941 225.384,-127.96"/>
<polygon fill="#63b8ff" stroke="#63b8ff" points="225.133,-131.451 235.4,-128.835 225.742,-124.477 225.133,-131.451"/>
</g>
<!-- Node35 -->
<g id="node35" class="node"><title>Node35</title>
<g id="a_node35"><a xlink:href="classore_1_1data_1_1_option_data.html#a657c7d1172af0024c7594ad4082a040e" target="_top" xlink:title=" ">
<polygon fill="white" stroke="#666666" points="362.5,-106 252.5,-106 252.5,-76 362.5,-76 362.5,-106"/>
<text text-anchor="start" x="260.5" y="-94" font-family="Helvetica,sans-Serif" font-size="10.00">ore::data::OptionData</text>
<text text-anchor="middle" x="307.5" y="-83" font-family="Helvetica,sans-Serif" font-size="10.00">::style</text>
</a>
</g>
</g>
<!-- Node1&#45;&gt;Node35 -->
<g id="edge49" class="edge"><title>Node1&#45;&gt;Node35</title>
<path fill="none" stroke="#63b8ff" d="M37.0211,-95.6948C76.8187,-95.0014 175.705,-93.2787 241.968,-92.1243"/>
<polygon fill="#63b8ff" stroke="#63b8ff" points="242.371,-95.6179 252.309,-91.9441 242.249,-88.6189 242.371,-95.6179"/>
</g>
<!-- Node37 -->
<g id="node37" class="node"><title>Node37</title>
<g id="a_node37"><a xlink:href="classore_1_1data_1_1_equity_future_option.html#a24dcbf29c0d6cd766009a182a6484e3b" target="_top" xlink:title=" ">
<polygon fill="white" stroke="#666666" points="153,-67.5 112,-67.5 112,-48.5 153,-48.5 153,-67.5"/>
<text text-anchor="middle" x="132.5" y="-55.5" font-family="Helvetica,sans-Serif" font-size="10.00">name</text>
</a>
</g>
</g>
<!-- Node1&#45;&gt;Node37 -->
<g id="edge45" class="edge"><title>Node1&#45;&gt;Node37</title>
<path fill="none" stroke="#63b8ff" d="M37.4947,-89.8946C54.9246,-83.9809 81.6551,-74.9117 102.163,-67.9537"/>
<polygon fill="#63b8ff" stroke="#63b8ff" points="103.317,-71.2582 111.662,-64.7307 101.068,-64.6293 103.317,-71.2582"/>
</g>
<!-- Node38 -->
<g id="node38" class="node"><title>Node38</title>
<g id="a_node38"><a xlink:href="classore_1_1data_1_1_option_data.html#a1cfb277f3dd4b0a49b290c3abc176b72" target="_top" xlink:title=" ">
<polygon fill="white" stroke="#666666" points="192,-30 73,-30 73,-0 192,-0 192,-30"/>
<text text-anchor="start" x="81" y="-18" font-family="Helvetica,sans-Serif" font-size="10.00">ore::data::OptionData</text>
<text text-anchor="middle" x="132.5" y="-7" font-family="Helvetica,sans-Serif" font-size="10.00">::setAutomaticExercise</text>
</a>
</g>
</g>
<!-- Node1&#45;&gt;Node38 -->
<g id="edge47" class="edge"><title>Node1&#45;&gt;Node38</title>
<path fill="none" stroke="#63b8ff" d="M26.4648,-86.3253C35.8256,-73.9145 53.5522,-52.3962 73,-39 75.0963,-37.556 77.2927,-36.1767 79.554,-34.8623"/>
<polygon fill="#63b8ff" stroke="#63b8ff" points="81.3226,-37.8862 88.5226,-30.1138 78.0472,-31.6998 81.3226,-37.8862"/>
</g>
<!-- Node3 -->
<g id="node3" class="node"><title>Node3</title>
<g id="a_node3"><a xlink:href="classore_1_1data_1_1_required_fixings.html#ab7dfe7e5dd7a3d8d8f67fc9096a3c57d" target="_top" xlink:title=" ">
<polygon fill="white" stroke="#666666" points="373,-772 242,-772 242,-742 373,-742 373,-772"/>
<text text-anchor="start" x="250" y="-760" font-family="Helvetica,sans-Serif" font-size="10.00">ore::data::RequiredFixings</text>
<text text-anchor="middle" x="307.5" y="-749" font-family="Helvetica,sans-Serif" font-size="10.00">::addFixingDate</text>
</a>
</g>
</g>
<!-- Node2&#45;&gt;Node3 -->
<g id="edge2" class="edge"><title>Node2&#45;&gt;Node3</title>
<path fill="none" stroke="#63b8ff" d="M141.187,-626.194C155.015,-652.003 186.55,-704.385 228,-733 230.155,-734.488 232.405,-735.886 234.725,-737.199"/>
<polygon fill="#63b8ff" stroke="#63b8ff" points="233.466,-740.483 243.972,-741.855 236.614,-734.231 233.466,-740.483"/>
</g>
<!-- Node5 -->
<g id="node5" class="node"><title>Node5</title>
<g id="a_node5"><a xlink:href="classore_1_1data_1_1_trade.html#a775ea85ca706b8f39e0b3c24a1262b57" target="_top" xlink:title=" ">
<polygon fill="white" stroke="#666666" points="383,-723.5 232,-723.5 232,-704.5 383,-704.5 383,-723.5"/>
<text text-anchor="middle" x="307.5" y="-711.5" font-family="Helvetica,sans-Serif" font-size="10.00">ore::data::Trade::addPremiums</text>
</a>
</g>
</g>
<!-- Node2&#45;&gt;Node5 -->
<g id="edge4" class="edge"><title>Node2&#45;&gt;Node5</title>
<path fill="none" stroke="#63b8ff" d="M147.815,-626.206C165.219,-643.871 196.225,-672.785 228,-690 236.19,-694.437 245.315,-698.173 254.363,-701.276"/>
<polygon fill="#63b8ff" stroke="#63b8ff" points="253.513,-704.679 264.104,-704.399 255.65,-698.013 253.513,-704.679"/>
</g>
<!-- Node7 -->
<g id="node7" class="node"><title>Node7</title>
<g id="a_node7"><a xlink:href="group__utilities.html#ga5816082aca07feca7ec905758bd09392" target="_top" xlink:title="Convert text to QuantLib::Currency.">
<polygon fill="white" stroke="#666666" points="870,-672 746,-672 746,-642 870,-642 870,-672"/>
<text text-anchor="start" x="754" y="-660" font-family="Helvetica,sans-Serif" font-size="10.00">ore::data::parseCurrency</text>
<text text-anchor="middle" x="808" y="-649" font-family="Helvetica,sans-Serif" font-size="10.00">WithMinors</text>
</a>
</g>
</g>
<!-- Node2&#45;&gt;Node7 -->
<g id="edge17" class="edge"><title>Node2&#45;&gt;Node7</title>
<path fill="none" stroke="#63b8ff" d="M157.258,-626.219C175.733,-637.125 202.438,-650.92 228,-657 406.759,-699.517 625.439,-681.317 735.89,-667.43"/>
<polygon fill="#63b8ff" stroke="#63b8ff" points="736.44,-670.889 745.914,-666.145 735.55,-663.946 736.44,-670.889"/>
</g>
<!-- Node9 -->
<g id="node9" class="node"><title>Node9</title>
<g id="a_node9"><a xlink:href="classore_1_1data_1_1_option_data.html#a26e655a989f3bd0e0fd895fd3bd50497" target="_top" xlink:title=" ">
<polygon fill="white" stroke="#666666" points="362.5,-476 252.5,-476 252.5,-446 362.5,-446 362.5,-476"/>
<text text-anchor="start" x="260.5" y="-464" font-family="Helvetica,sans-Serif" font-size="10.00">ore::data::OptionData</text>
<text text-anchor="middle" x="307.5" y="-453" font-family="Helvetica,sans-Serif" font-size="10.00">::callPut</text>
</a>
</g>
</g>
<!-- Node2&#45;&gt;Node9 -->
<g id="edge8" class="edge"><title>Node2&#45;&gt;Node9</title>
<path fill="none" stroke="#63b8ff" d="M141.622,-595.775C155.878,-570.411 187.749,-519.398 228,-490 233.005,-486.345 238.521,-483.102 244.24,-480.237"/>
<polygon fill="#63b8ff" stroke="#63b8ff" points="245.731,-483.404 253.348,-476.039 242.801,-477.046 245.731,-483.404"/>
</g>
<!-- Node10 -->
<g id="node10" class="node"><title>Node10</title>
<g id="a_node10"><a xlink:href="classore_1_1data_1_1_trade_strike.html#a79ae4d803e6ff99821ed6f7e674898f7" target="_top" xlink:title=" ">
<polygon fill="white" stroke="#666666" points="541,-476 431,-476 431,-446 541,-446 541,-476"/>
<text text-anchor="start" x="439" y="-464" font-family="Helvetica,sans-Serif" font-size="10.00">ore::data::TradeStrike</text>
<text text-anchor="middle" x="486" y="-453" font-family="Helvetica,sans-Serif" font-size="10.00">::currency</text>
</a>
</g>
</g>
<!-- Node2&#45;&gt;Node10 -->
<g id="edge9" class="edge"><title>Node2&#45;&gt;Node10</title>
<path fill="none" stroke="#63b8ff" d="M145.511,-595.713C161.961,-575.854 193.425,-541.539 228,-523 292.032,-488.665 316.381,-502.086 387,-485 397.995,-482.34 409.68,-479.494 421.006,-476.726"/>
<polygon fill="#63b8ff" stroke="#63b8ff" points="421.959,-480.097 430.841,-474.321 420.296,-473.297 421.959,-480.097"/>
</g>
<!-- Node13 -->
<g id="node13" class="node"><title>Node13</title>
<g id="a_node13"><a xlink:href="classore_1_1data_1_1_option_data.html#ab55874deb46a8404d56db05d2b6e7e9c" target="_top" xlink:title=" ">
<polygon fill="white" stroke="#666666" points="362.5,-428 252.5,-428 252.5,-398 362.5,-398 362.5,-428"/>
<text text-anchor="start" x="260.5" y="-416" font-family="Helvetica,sans-Serif" font-size="10.00">ore::data::OptionData</text>
<text text-anchor="middle" x="307.5" y="-405" font-family="Helvetica,sans-Serif" font-size="10.00">::exerciseData</text>
</a>
</g>
</g>
<!-- Node2&#45;&gt;Node13 -->
<g id="edge13" class="edge"><title>Node2&#45;&gt;Node13</title>
<path fill="none" stroke="#63b8ff" d="M137.444,-595.908C147.028,-562.231 174.757,-480.497 228,-437 232.525,-433.303 237.614,-430.175 242.971,-427.528"/>
<polygon fill="#63b8ff" stroke="#63b8ff" points="244.416,-430.716 252.185,-423.513 241.619,-424.299 244.416,-430.716"/>
</g>
<!-- Node14 -->
<g id="node14" class="node"><title>Node14</title>
<g id="a_node14"><a xlink:href="classore_1_1data_1_1_option_data.html#af82897aa671c01e0988878f1476ef9b8" target="_top" xlink:title=" ">
<polygon fill="white" stroke="#666666" points="362.5,-380 252.5,-380 252.5,-350 362.5,-350 362.5,-380"/>
<text text-anchor="start" x="260.5" y="-368" font-family="Helvetica,sans-Serif" font-size="10.00">ore::data::OptionData</text>
<text text-anchor="middle" x="307.5" y="-357" font-family="Helvetica,sans-Serif" font-size="10.00">::exerciseDates</text>
</a>
</g>
</g>
<!-- Node2&#45;&gt;Node14 -->
<g id="edge14" class="edge"><title>Node2&#45;&gt;Node14</title>
<path fill="none" stroke="#63b8ff" d="M135.52,-595.798C141.642,-555.819 163.689,-446.847 228,-389 232.412,-385.031 237.466,-381.719 242.836,-378.954"/>
<polygon fill="#63b8ff" stroke="#63b8ff" points="244.418,-382.081 252.114,-374.799 241.556,-375.692 244.418,-382.081"/>
</g>
<!-- Node15 -->
<g id="node15" class="node"><title>Node15</title>
<g id="a_node15"><a xlink:href="classore_1_1data_1_1_option_data.html#aac4007ef1d4cf94ee4a6597839e9846b" target="_top" xlink:title="Automatic exercise assumed false if not explicitly provided.">
<polygon fill="white" stroke="#666666" points="364,-332 251,-332 251,-302 364,-302 364,-332"/>
<text text-anchor="start" x="259" y="-320" font-family="Helvetica,sans-Serif" font-size="10.00">ore::data::OptionData</text>
<text text-anchor="middle" x="307.5" y="-309" font-family="Helvetica,sans-Serif" font-size="10.00">::isAutomaticExercise</text>
</a>
</g>
</g>
<!-- Node2&#45;&gt;Node15 -->
<g id="edge15" class="edge"><title>Node2&#45;&gt;Node15</title>
<path fill="none" stroke="#63b8ff" d="M134.208,-595.958C137.166,-550.591 152.258,-413.774 228,-341 232.046,-337.112 236.705,-333.853 241.692,-331.12"/>
<polygon fill="#63b8ff" stroke="#63b8ff" points="243.41,-334.179 250.962,-326.748 240.424,-327.848 243.41,-334.179"/>
</g>
<!-- Node16 -->
<g id="node16" class="node"><title>Node16</title>
<g id="a_node16"><a xlink:href="classore_1_1data_1_1_option_data.html#a50b9f07b1c2bd1b4fea7f2e7da7fdb2b" target="_top" xlink:title=" ">
<polygon fill="white" stroke="#666666" points="362.5,-284 252.5,-284 252.5,-254 362.5,-254 362.5,-284"/>
<text text-anchor="start" x="260.5" y="-272" font-family="Helvetica,sans-Serif" font-size="10.00">ore::data::OptionData</text>
<text text-anchor="middle" x="307.5" y="-261" font-family="Helvetica,sans-Serif" font-size="10.00">::longShort</text>
</a>
</g>
</g>
<!-- Node2&#45;&gt;Node16 -->
<g id="edge16" class="edge"><title>Node2&#45;&gt;Node16</title>
<path fill="none" stroke="#63b8ff" d="M133.284,-595.907C133.409,-545.454 140.785,-380.903 228,-293 232.308,-288.658 237.379,-285.097 242.834,-282.178"/>
<polygon fill="#63b8ff" stroke="#63b8ff" points="244.673,-285.185 252.313,-277.845 241.763,-278.819 244.673,-285.185"/>
</g>
<!-- Node17 -->
<g id="node17" class="node"><title>Node17</title>
<g id="a_node17"><a xlink:href="group__utilities.html#ga59b5fdda574d90facae95dec2d13040d" target="_top" xlink:title="Convert std::string to QuantLib::Date.">
<polygon fill="white" stroke="#666666" points="360,-217.5 255,-217.5 255,-198.5 360,-198.5 360,-217.5"/>
<text text-anchor="middle" x="307.5" y="-205.5" font-family="Helvetica,sans-Serif" font-size="10.00">ore::data::parseDate</text>
</a>
</g>
</g>
<!-- Node2&#45;&gt;Node17 -->
<g id="edge18" class="edge"><title>Node2&#45;&gt;Node17</title>
<path fill="none" stroke="#63b8ff" d="M133.088,-595.743C132.43,-541.401 137.187,-354.694 228,-245 236.575,-234.642 248.712,-227.009 260.886,-221.46"/>
<polygon fill="#63b8ff" stroke="#63b8ff" points="262.252,-224.683 270.143,-217.613 259.566,-218.219 262.252,-224.683"/>
</g>
<!-- Node2&#45;&gt;Node20 -->
<g id="edge23" class="edge"><title>Node2&#45;&gt;Node20</title>
<path fill="none" stroke="#63b8ff" d="M134.473,-595.8C139.394,-523.772 163.865,-217.585 228,-152 228.806,-151.175 229.643,-150.385 230.505,-149.628"/>
<polygon fill="#63b8ff" stroke="#63b8ff" points="232.781,-152.305 238.921,-143.67 228.737,-146.592 232.781,-152.305"/>
</g>
<!-- Node21 -->
<g id="node21" class="node"><title>Node21</title>
<g id="a_node21"><a xlink:href="group__utilities.html#gafba82f05ecaf8827537fb3144f436002" target="_top" xlink:title="Convert text to QuantLib::Option::Type.">
<polygon fill="white" stroke="#666666" points="374.5,-180.5 240.5,-180.5 240.5,-161.5 374.5,-161.5 374.5,-180.5"/>
<text text-anchor="middle" x="307.5" y="-168.5" font-family="Helvetica,sans-Serif" font-size="10.00">ore::data::parseOptionType</text>
</a>
</g>
</g>
<!-- Node2&#45;&gt;Node21 -->
<g id="edge24" class="edge"><title>Node2&#45;&gt;Node21</title>
<path fill="none" stroke="#63b8ff" d="M134.781,-595.661C140.822,-526.996 168.693,-248.611 228,-189 229.254,-187.739 230.578,-186.559 231.96,-185.456"/>
<polygon fill="#63b8ff" stroke="#63b8ff" points="233.982,-188.316 240.456,-179.929 230.165,-182.448 233.982,-188.316"/>
</g>
<!-- Node22 -->
<g id="node22" class="node"><title>Node22</title>
<g id="a_node22"><a xlink:href="group__utilities.html#ga71937c757a73b33221be6ce6a8046839" target="_top" xlink:title="Convert text to QuantLib::Position::Type.">
<polygon fill="white" stroke="#666666" points="378,-1172.5 237,-1172.5 237,-1153.5 378,-1153.5 378,-1172.5"/>
<text text-anchor="middle" x="307.5" y="-1160.5" font-family="Helvetica,sans-Serif" font-size="10.00">ore::data::parsePositionType</text>
</a>
</g>
</g>
<!-- Node2&#45;&gt;Node22 -->
<g id="edge25" class="edge"><title>Node2&#45;&gt;Node22</title>
<path fill="none" stroke="#63b8ff" d="M133.999,-626.235C136.9,-705.206 154.118,-1067.31 228,-1145 228.795,-1145.84 229.62,-1146.64 230.473,-1147.4"/>
<polygon fill="#63b8ff" stroke="#63b8ff" points="228.66,-1150.41 238.815,-1153.43 232.76,-1144.74 228.66,-1150.41"/>
</g>
<!-- Node23 -->
<g id="node23" class="node"><title>Node23</title>
<g id="a_node23"><a xlink:href="group__utilities.html#gaedc713e911316c8eb473fdaf83fcfaa6" target="_top" xlink:title="Convert text to QuantLib::Settlement::Type.">
<polygon fill="white" stroke="#666666" points="384,-1135.5 231,-1135.5 231,-1116.5 384,-1116.5 384,-1135.5"/>
<text text-anchor="middle" x="307.5" y="-1123.5" font-family="Helvetica,sans-Serif" font-size="10.00">ore::data::parseSettlementType</text>
</a>
</g>
</g>
<!-- Node2&#45;&gt;Node23 -->
<g id="edge26" class="edge"><title>Node2&#45;&gt;Node23</title>
<path fill="none" stroke="#63b8ff" d="M134.249,-626.377C138.249,-702.155 159.55,-1035.1 228,-1107 229.23,-1108.29 230.531,-1109.5 231.894,-1110.64"/>
<polygon fill="#63b8ff" stroke="#63b8ff" points="230.056,-1113.62 240.299,-1116.33 233.98,-1107.82 230.056,-1113.62"/>
</g>
<!-- Node24 -->
<g id="node24" class="node"><title>Node24</title>
<g id="a_node24"><a xlink:href="classore_1_1data_1_1_option_data.html#aaf9f088b33dedab37e1b4e1b7d01502c" target="_top" xlink:title=" ">
<polygon fill="white" stroke="#666666" points="362.5,-1098 252.5,-1098 252.5,-1068 362.5,-1068 362.5,-1098"/>
<text text-anchor="start" x="260.5" y="-1086" font-family="Helvetica,sans-Serif" font-size="10.00">ore::data::OptionData</text>
<text text-anchor="middle" x="307.5" y="-1075" font-family="Helvetica,sans-Serif" font-size="10.00">::paymentData</text>
</a>
</g>
</g>
<!-- Node2&#45;&gt;Node24 -->
<g id="edge27" class="edge"><title>Node2&#45;&gt;Node24</title>
<path fill="none" stroke="#63b8ff" d="M134.666,-626.215C140.382,-696.952 167.636,-993.022 228,-1059 232.293,-1063.69 237.474,-1067.48 243.104,-1070.53"/>
<polygon fill="#63b8ff" stroke="#63b8ff" points="241.71,-1073.74 252.257,-1074.75 244.64,-1067.38 241.71,-1073.74"/>
</g>
<!-- Node25 -->
<g id="node25" class="node"><title>Node25</title>
<g id="a_node25"><a xlink:href="classore_1_1data_1_1_vanilla_option_trade.html#aa9d67cb6d3421238c05aa530e7f42885" target="_top" xlink:title=" ">
<polygon fill="white" stroke="#666666" points="367,-1050 248,-1050 248,-1020 367,-1020 367,-1050"/>
<text text-anchor="start" x="256" y="-1038" font-family="Helvetica,sans-Serif" font-size="10.00">ore::data::VanillaOption</text>
<text text-anchor="middle" x="307.5" y="-1027" font-family="Helvetica,sans-Serif" font-size="10.00">Trade::paymentDate</text>
</a>
</g>
</g>
<!-- Node2&#45;&gt;Node25 -->
<g id="edge28" class="edge"><title>Node2&#45;&gt;Node25</title>
<path fill="none" stroke="#63b8ff" d="M135.094,-626.333C142.266,-692.512 173.591,-952.951 228,-1011 231.155,-1014.37 234.768,-1017.27 238.672,-1019.76"/>
<polygon fill="#63b8ff" stroke="#63b8ff" points="237.159,-1022.92 247.619,-1024.6 240.492,-1016.77 237.159,-1022.92"/>
</g>
<!-- Node26 -->
<g id="node26" class="node"><title>Node26</title>
<g id="a_node26"><a xlink:href="classore_1_1data_1_1_option_data.html#aa84255ed88a50b2ba174afe04df43ed8" target="_top" xlink:title=" ">
<polygon fill="white" stroke="#666666" points="362.5,-1002 252.5,-1002 252.5,-972 362.5,-972 362.5,-1002"/>
<text text-anchor="start" x="260.5" y="-990" font-family="Helvetica,sans-Serif" font-size="10.00">ore::data::OptionData</text>
<text text-anchor="middle" x="307.5" y="-979" font-family="Helvetica,sans-Serif" font-size="10.00">::payoffAtExpiry</text>
</a>
</g>
</g>
<!-- Node2&#45;&gt;Node26 -->
<g id="edge29" class="edge"><title>Node2&#45;&gt;Node26</title>
<path fill="none" stroke="#63b8ff" d="M135.592,-626.12C144.289,-686.921 179.418,-912.716 228,-963 232.25,-967.399 237.282,-970.998 242.714,-973.941"/>
<polygon fill="#63b8ff" stroke="#63b8ff" points="241.618,-977.29 252.165,-978.3 244.55,-970.933 241.618,-977.29"/>
</g>
<!-- Node27 -->
<g id="node27" class="node"><title>Node27</title>
<g id="a_node27"><a xlink:href="classore_1_1data_1_1_option_data.html#adcb66e32b32e9b291c5a6f37e82c5692" target="_top" xlink:title=" ">
<polygon fill="white" stroke="#666666" points="362.5,-954 252.5,-954 252.5,-924 362.5,-924 362.5,-954"/>
<text text-anchor="start" x="260.5" y="-942" font-family="Helvetica,sans-Serif" font-size="10.00">ore::data::OptionData</text>
<text text-anchor="middle" x="307.5" y="-931" font-family="Helvetica,sans-Serif" font-size="10.00">::premiumData</text>
</a>
</g>
</g>
<!-- Node2&#45;&gt;Node27 -->
<g id="edge30" class="edge"><title>Node2&#45;&gt;Node27</title>
<path fill="none" stroke="#63b8ff" d="M133.527,-626.125C134.458,-675.189 144.171,-831.562 228,-915 232.335,-919.315 237.424,-922.858 242.891,-925.766"/>
<polygon fill="#63b8ff" stroke="#63b8ff" points="241.831,-929.129 252.382,-930.086 244.73,-922.758 241.831,-929.129"/>
</g>
<!-- Node28 -->
<g id="node28" class="node"><title>Node28</title>
<g id="a_node28"><a xlink:href="classore_1_1data_1_1_trade_strike.html#a56307f76ba467cb0eaa001badcc11b4c" target="_top" xlink:title=" ">
<polygon fill="white" stroke="#666666" points="362.5,-562 252.5,-562 252.5,-532 362.5,-532 362.5,-562"/>
<text text-anchor="start" x="260.5" y="-550" font-family="Helvetica,sans-Serif" font-size="10.00">ore::data::TradeStrike</text>
<text text-anchor="middle" x="307.5" y="-539" font-family="Helvetica,sans-Serif" font-size="10.00">::setCurrency</text>
</a>
</g>
</g>
<!-- Node2&#45;&gt;Node28 -->
<g id="edge31" class="edge"><title>Node2&#45;&gt;Node28</title>
<path fill="none" stroke="#63b8ff" d="M174.43,-595.832C191.053,-589.674 210.443,-582.494 228,-576 237.102,-572.633 246.799,-569.049 256.16,-565.59"/>
<polygon fill="#63b8ff" stroke="#63b8ff" points="257.587,-568.794 265.755,-562.045 255.161,-562.228 257.587,-568.794"/>
</g>
<!-- Node30 -->
<g id="node30" class="node"><title>Node30</title>
<g id="a_node30"><a xlink:href="classore_1_1data_1_1_vanilla_option_trade.html#a412e144fa3140f658a7476ab85fb6677" target="_top" xlink:title=" ">
<polygon fill="white" stroke="#666666" points="387,-648 228,-648 228,-618 387,-618 387,-648"/>
<text text-anchor="start" x="236" y="-636" font-family="Helvetica,sans-Serif" font-size="10.00">ore::data::VanillaOption</text>
<text text-anchor="middle" x="307.5" y="-625" font-family="Helvetica,sans-Serif" font-size="10.00">Trade::setNotionalAndCurrencies</text>
</a>
</g>
</g>
<!-- Node2&#45;&gt;Node30 -->
<g id="edge36" class="edge"><title>Node2&#45;&gt;Node30</title>
<path fill="none" stroke="#63b8ff" d="M192.07,-618.448C200.313,-619.496 208.936,-620.593 217.59,-621.694"/>
<polygon fill="#63b8ff" stroke="#63b8ff" points="217.382,-625.195 227.744,-622.985 218.265,-618.251 217.382,-625.195"/>
</g>
<!-- Node31 -->
<g id="node31" class="node"><title>Node31</title>
<g id="a_node31"><a xlink:href="classore_1_1data_1_1_trade_strike.html#ab0070e2cd9d998541431e9aba2e5583b" target="_top" xlink:title=" ">
<polygon fill="white" stroke="#666666" points="541,-610 431,-610 431,-580 541,-580 541,-610"/>
<text text-anchor="start" x="439" y="-598" font-family="Helvetica,sans-Serif" font-size="10.00">ore::data::TradeStrike</text>
<text text-anchor="middle" x="486" y="-587" font-family="Helvetica,sans-Serif" font-size="10.00">::value</text>
</a>
</g>
</g>
<!-- Node2&#45;&gt;Node31 -->
<g id="edge44" class="edge"><title>Node2&#45;&gt;Node31</title>
<path fill="none" stroke="#63b8ff" d="M192.333,-608.322C255.5,-605.447 355.544,-600.893 420.734,-597.925"/>
<polygon fill="#63b8ff" stroke="#63b8ff" points="421.056,-601.414 430.887,-597.463 420.738,-594.422 421.056,-601.414"/>
</g>
<!-- Node32 -->
<g id="node32" class="node"><title>Node32</title>
<g id="a_node32"><a xlink:href="classore_1_1data_1_1_trade.html#a788e0abfac5089ac015b7d71dbda25e3" target="_top" xlink:title=" ">
<polygon fill="white" stroke="#666666" points="382,-906 233,-906 233,-876 382,-876 382,-906"/>
<text text-anchor="start" x="241" y="-894" font-family="Helvetica,sans-Serif" font-size="10.00">ore::data::Trade::setSensitivity</text>
<text text-anchor="middle" x="307.5" y="-883" font-family="Helvetica,sans-Serif" font-size="10.00">Template</text>
</a>
</g>
</g>
<!-- Node2&#45;&gt;Node32 -->
<g id="edge39" class="edge"><title>Node2&#45;&gt;Node32</title>
<path fill="none" stroke="#63b8ff" d="M134.552,-626.209C138.419,-670.182 155.677,-798.681 228,-867 229.133,-868.07 230.313,-869.093 231.533,-870.07"/>
<polygon fill="#63b8ff" stroke="#63b8ff" points="229.866,-873.169 240.107,-875.881 233.793,-867.374 229.866,-873.169"/>
</g>
<!-- Node34 -->
<g id="node34" class="node"><title>Node34</title>
<g id="a_node34"><a xlink:href="classore_1_1data_1_1_option_data.html#a77098ad5025357188934116cfc632fd3" target="_top" xlink:title=" ">
<polygon fill="white" stroke="#666666" points="362.5,-858 252.5,-858 252.5,-828 362.5,-828 362.5,-858"/>
<text text-anchor="start" x="260.5" y="-846" font-family="Helvetica,sans-Serif" font-size="10.00">ore::data::OptionData</text>
<text text-anchor="middle" x="307.5" y="-835" font-family="Helvetica,sans-Serif" font-size="10.00">::settlement</text>
</a>
</g>
</g>
<!-- Node2&#45;&gt;Node34 -->
<g id="edge41" class="edge"><title>Node2&#45;&gt;Node34</title>
<path fill="none" stroke="#63b8ff" d="M135.982,-626.089C143.057,-664.245 166.899,-765.353 228,-819 232.459,-822.915 237.545,-826.192 242.935,-828.934"/>
<polygon fill="#63b8ff" stroke="#63b8ff" points="241.677,-832.205 252.237,-833.062 244.517,-825.807 241.677,-832.205"/>
</g>
<!-- Node2&#45;&gt;Node35 -->
<g id="edge42" class="edge"><title>Node2&#45;&gt;Node35</title>
<path fill="none" stroke="#63b8ff" d="M134.335,-595.703C138.747,-520.305 161.709,-188.899 228,-115 232.247,-110.266 237.398,-106.453 243.01,-103.384"/>
<polygon fill="#63b8ff" stroke="#63b8ff" points="244.544,-106.531 252.143,-99.1483 241.599,-100.18 244.544,-106.531"/>
</g>
<!-- Node36 -->
<g id="node36" class="node"><title>Node36</title>
<g id="a_node36"><a xlink:href="classore_1_1data_1_1_trade.html#a009f004d62a7bce6dd0e870f8389cd85" target="_top" xlink:title="Set the trade actions.">
<polygon fill="white" stroke="#666666" points="380.5,-809.5 234.5,-809.5 234.5,-790.5 380.5,-790.5 380.5,-809.5"/>
<text text-anchor="middle" x="307.5" y="-797.5" font-family="Helvetica,sans-Serif" font-size="10.00">ore::data::Trade::tradeActions</text>
</a>
</g>
</g>
<!-- Node2&#45;&gt;Node36 -->
<g id="edge43" class="edge"><title>Node2&#45;&gt;Node36</title>
<path fill="none" stroke="#63b8ff" d="M137.443,-626.226C146.946,-659.752 174.39,-740.206 228,-781 230.354,-782.791 232.853,-784.416 235.457,-785.89"/>
<polygon fill="#63b8ff" stroke="#63b8ff" points="234.132,-789.137 244.658,-790.342 237.181,-782.836 234.132,-789.137"/>
</g>
<!-- Node4 -->
<g id="node4" class="node"><title>Node4</title>
<g id="a_node4"><a target="_parent" xlink:href="../qle/namespace_quant_ext_1_1_zero_inflation.html#a57de786c1c8988b6da9d354282b4b370" xlink:title=" ">
<polygon fill="white" stroke="#666666" points="515.5,-857.5 456.5,-857.5 456.5,-838.5 515.5,-838.5 515.5,-857.5"/>
<text text-anchor="middle" x="486" y="-845.5" font-family="Helvetica,sans-Serif" font-size="10.00">fixingDate</text>
</a>
</g>
</g>
<!-- Node3&#45;&gt;Node4 -->
<g id="edge3" class="edge"><title>Node3&#45;&gt;Node4</title>
<path fill="none" stroke="#63b8ff" d="M369.037,-772.051C375.375,-774.845 381.501,-778.134 387,-782 408.526,-797.133 401.392,-813.986 423,-829 430.11,-833.94 438.544,-837.627 446.864,-840.368"/>
<polygon fill="#63b8ff" stroke="#63b8ff" points="445.913,-843.736 456.493,-843.169 447.869,-837.015 445.913,-843.736"/>
</g>
<!-- Node6 -->
<g id="node6" class="node"><title>Node6</title>
<g id="a_node6"><a xlink:href="group__utilities.html#ga63a24b69574b9f0dc9f49cddbcaa242e" target="_top" xlink:title="Convert a value from a minor ccy to major.">
<polygon fill="white" stroke="#666666" points="549,-772 423,-772 423,-742 549,-742 549,-772"/>
<text text-anchor="start" x="431" y="-760" font-family="Helvetica,sans-Serif" font-size="10.00">ore::data::convertMinorTo</text>
<text text-anchor="middle" x="486" y="-749" font-family="Helvetica,sans-Serif" font-size="10.00">MajorCurrency</text>
</a>
</g>
</g>
<!-- Node5&#45;&gt;Node6 -->
<g id="edge5" class="edge"><title>Node5&#45;&gt;Node6</title>
<path fill="none" stroke="#63b8ff" d="M348.037,-723.548C360.505,-726.564 374.33,-729.915 387,-733 395.749,-735.13 404.936,-737.373 414.032,-739.596"/>
<polygon fill="#63b8ff" stroke="#63b8ff" points="413.297,-743.019 423.842,-741.996 414.96,-736.22 413.297,-743.019"/>
</g>
<!-- Node5&#45;&gt;Node7 -->
<g id="edge6" class="edge"><title>Node5&#45;&gt;Node7</title>
<path fill="none" stroke="#63b8ff" d="M383.252,-715.475C464.454,-715.703 597.624,-712.057 710,-690 726.912,-686.68 744.918,-681.147 760.766,-675.55"/>
<polygon fill="#63b8ff" stroke="#63b8ff" points="762.122,-678.781 770.326,-672.076 759.732,-672.202 762.122,-678.781"/>
</g>
<!-- Node8 -->
<g id="node8" class="node"><title>Node8</title>
<g id="a_node8"><a xlink:href="classore_1_1data_1_1_premium_data.html#a123c02cf2a8c6d52ae16203dbde172fa" target="_top" xlink:title=" ">
<polygon fill="white" stroke="#666666" points="546,-820 426,-820 426,-790 546,-790 546,-820"/>
<text text-anchor="start" x="434" y="-808" font-family="Helvetica,sans-Serif" font-size="10.00">ore::data::PremiumData</text>
<text text-anchor="middle" x="486" y="-797" font-family="Helvetica,sans-Serif" font-size="10.00">::premiumData</text>
</a>
</g>
</g>
<!-- Node5&#45;&gt;Node8 -->
<g id="edge7" class="edge"><title>Node5&#45;&gt;Node8</title>
<path fill="none" stroke="#63b8ff" d="M367.812,-723.618C374.582,-726.069 381.145,-729.144 387,-733 409.271,-747.667 401.744,-764.898 423,-781 424.831,-782.387 426.753,-783.704 428.739,-784.953"/>
<polygon fill="#63b8ff" stroke="#63b8ff" points="427.349,-788.185 437.787,-790 430.759,-782.072 427.349,-788.185"/>
</g>
<!-- Node11 -->
<g id="node11" class="node"><title>Node11</title>
<g id="a_node11"><a xlink:href="classore_1_1data_1_1_trade_monetary.html#a2fd1bb34ef1df644354f3c6872bb90ff" target="_top" xlink:title=" ">
<polygon fill="white" stroke="#666666" points="710,-519 585,-519 585,-489 710,-489 710,-519"/>
<text text-anchor="start" x="593" y="-507" font-family="Helvetica,sans-Serif" font-size="10.00">ore::data::TradeMonetary</text>
<text text-anchor="middle" x="647.5" y="-496" font-family="Helvetica,sans-Serif" font-size="10.00">::currency</text>
</a>
</g>
</g>
<!-- Node10&#45;&gt;Node11 -->
<g id="edge10" class="edge"><title>Node10&#45;&gt;Node11</title>
<path fill="none" stroke="#63b8ff" d="M541.445,-475.678C554.102,-479.09 567.707,-482.758 580.792,-486.286"/>
<polygon fill="#63b8ff" stroke="#63b8ff" points="580.106,-489.726 590.673,-488.949 581.928,-482.967 580.106,-489.726"/>
</g>
<!-- Node12 -->
<g id="node12" class="node"><title>Node12</title>
<g id="a_node12"><a xlink:href="classore_1_1data_1_1_trade_strike.html#af95e1cce2d25b241417ca60f5be7ea65" target="_top" xlink:title=" ">
<polygon fill="white" stroke="#666666" points="702.5,-567 592.5,-567 592.5,-537 702.5,-537 702.5,-567"/>
<text text-anchor="start" x="600.5" y="-555" font-family="Helvetica,sans-Serif" font-size="10.00">ore::data::TradeStrike</text>
<text text-anchor="middle" x="647.5" y="-544" font-family="Helvetica,sans-Serif" font-size="10.00">::strikePrice</text>
</a>
</g>
</g>
<!-- Node10&#45;&gt;Node12 -->
<g id="edge12" class="edge"><title>Node10&#45;&gt;Node12</title>
<path fill="none" stroke="#63b8ff" d="M533.714,-476.083C539.084,-478.676 544.308,-481.639 549,-485 569.263,-499.514 564.757,-513.459 585,-528 586.891,-529.358 588.869,-530.652 590.908,-531.883"/>
<polygon fill="#63b8ff" stroke="#63b8ff" points="589.701,-535.209 600.163,-536.884 593.029,-529.051 589.701,-535.209"/>
</g>
<!-- Node11&#45;&gt;Node7 -->
<g id="edge11" class="edge"><title>Node11&#45;&gt;Node7</title>
<path fill="none" stroke="#63b8ff" d="M695.327,-519.04C700.512,-521.631 705.526,-524.605 710,-528 747.905,-556.76 778.202,-604.122 794.307,-632.756"/>
<polygon fill="#63b8ff" stroke="#63b8ff" points="791.334,-634.614 799.215,-641.695 797.47,-631.245 791.334,-634.614"/>
</g>
<!-- Node17&#45;&gt;Node17 -->
<g id="edge19" class="edge"><title>Node17&#45;&gt;Node17</title>
<path fill="none" stroke="#63b8ff" d="M280.682,-217.583C267.635,-226.234 276.574,-235.5 307.5,-235.5 328.278,-235.5 339.132,-231.317 340.06,-225.948"/>
<polygon fill="#63b8ff" stroke="#63b8ff" points="342.863,-223.847 334.318,-217.583 337.092,-227.808 342.863,-223.847"/>
</g>
<!-- Node18 -->
<g id="node18" class="node"><title>Node18</title>
<g id="a_node18"><a xlink:href="group__utilities.html#gaecd67eda4fb5f4859bb8f6d383547721" target="_top" xlink:title="Convert text to QuantLib::Integer.">
<polygon fill="white" stroke="#666666" points="543,-236.5 429,-236.5 429,-217.5 543,-217.5 543,-236.5"/>
<text text-anchor="middle" x="486" y="-224.5" font-family="Helvetica,sans-Serif" font-size="10.00">ore::data::parseInteger</text>
</a>
</g>
</g>
<!-- Node17&#45;&gt;Node18 -->
<g id="edge20" class="edge"><title>Node17&#45;&gt;Node18</title>
<path fill="none" stroke="#63b8ff" d="M360.026,-213.547C378.395,-215.524 399.348,-217.78 418.778,-219.871"/>
<polygon fill="#63b8ff" stroke="#63b8ff" points="418.462,-223.357 428.779,-220.948 419.211,-216.398 418.462,-223.357"/>
</g>
<!-- Node19 -->
<g id="node19" class="node"><title>Node19</title>
<g id="a_node19"><a xlink:href="namespaceore_1_1data.html#a777e216dee6069b548bb87da7152699e" target="_top" xlink:title=" ">
<polygon fill="white" stroke="#666666" points="525.5,-199.5 446.5,-199.5 446.5,-180.5 525.5,-180.5 525.5,-199.5"/>
<text text-anchor="middle" x="486" y="-187.5" font-family="Helvetica,sans-Serif" font-size="10.00">ore::data::size</text>
</a>
</g>
</g>
<!-- Node17&#45;&gt;Node19 -->
<g id="edge22" class="edge"><title>Node17&#45;&gt;Node19</title>
<path fill="none" stroke="#63b8ff" d="M360.026,-202.745C384.046,-200.296 412.483,-197.395 436.159,-194.981"/>
<polygon fill="#63b8ff" stroke="#63b8ff" points="436.734,-198.441 446.327,-193.944 436.023,-191.477 436.734,-198.441"/>
</g>
<!-- Node18&#45;&gt;Node18 -->
<g id="edge21" class="edge"><title>Node18&#45;&gt;Node18</title>
<path fill="none" stroke="#63b8ff" d="M461.339,-236.583C449.342,-245.234 457.563,-254.5 486,-254.5 504.662,-254.5 514.617,-250.509 515.866,-245.321"/>
<polygon fill="#63b8ff" stroke="#63b8ff" points="518.785,-243.383 510.661,-236.583 512.771,-246.965 518.785,-243.383"/>
</g>
<!-- Node28&#45;&gt;Node10 -->
<g id="edge32" class="edge"><title>Node28&#45;&gt;Node10</title>
<path fill="none" stroke="#63b8ff" d="M358.439,-531.873C368.235,-527.997 378.195,-523.373 387,-518 405.528,-506.694 404.56,-496.449 423,-485 425.482,-483.459 428.08,-481.988 430.745,-480.588"/>
<polygon fill="#63b8ff" stroke="#63b8ff" points="432.528,-483.614 440.003,-476.106 429.477,-477.314 432.528,-483.614"/>
</g>
<!-- Node28&#45;&gt;Node12 -->
<g id="edge35" class="edge"><title>Node28&#45;&gt;Node12</title>
<path fill="none" stroke="#63b8ff" d="M362.806,-547.803C422.554,-548.687 518.516,-550.107 582.034,-551.046"/>
<polygon fill="#63b8ff" stroke="#63b8ff" points="582.279,-554.55 592.329,-551.199 582.382,-547.551 582.279,-554.55"/>
</g>
<!-- Node29 -->
<g id="node29" class="node"><title>Node29</title>
<g id="a_node29"><a xlink:href="classore_1_1data_1_1_trade_monetary.html#a56307f76ba467cb0eaa001badcc11b4c" target="_top" xlink:title=" ">
<polygon fill="white" stroke="#666666" points="548.5,-524 423.5,-524 423.5,-494 548.5,-494 548.5,-524"/>
<text text-anchor="start" x="431.5" y="-512" font-family="Helvetica,sans-Serif" font-size="10.00">ore::data::TradeMonetary</text>
<text text-anchor="middle" x="486" y="-501" font-family="Helvetica,sans-Serif" font-size="10.00">::setCurrency</text>
</a>
</g>
</g>
<!-- Node28&#45;&gt;Node29 -->
<g id="edge33" class="edge"><title>Node28&#45;&gt;Node29</title>
<path fill="none" stroke="#63b8ff" d="M362.896,-535.289C378.899,-531.843 396.652,-528.021 413.552,-524.383"/>
<polygon fill="#63b8ff" stroke="#63b8ff" points="414.345,-527.792 423.384,-522.266 412.871,-520.949 414.345,-527.792"/>
</g>
<!-- Node29&#45;&gt;Node11 -->
<g id="edge34" class="edge"><title>Node29&#45;&gt;Node11</title>
<path fill="none" stroke="#63b8ff" d="M548.667,-507.067C557.236,-506.798 566.099,-506.52 574.831,-506.247"/>
<polygon fill="#63b8ff" stroke="#63b8ff" points="575.112,-509.74 584.997,-505.928 574.892,-502.743 575.112,-509.74"/>
</g>
<!-- Node30&#45;&gt;Node7 -->
<g id="edge37" class="edge"><title>Node30&#45;&gt;Node7</title>
<path fill="none" stroke="#63b8ff" d="M387.214,-636.79C483.077,-641.405 643.598,-649.133 735.884,-653.576"/>
<polygon fill="#63b8ff" stroke="#63b8ff" points="735.811,-657.077 745.968,-654.062 736.148,-650.085 735.811,-657.077"/>
</g>
<!-- Node30&#45;&gt;Node31 -->
<g id="edge38" class="edge"><title>Node30&#45;&gt;Node31</title>
<path fill="none" stroke="#63b8ff" d="M378.257,-617.981C392.369,-614.943 407.142,-611.763 421.042,-608.77"/>
<polygon fill="#63b8ff" stroke="#63b8ff" points="421.948,-612.155 430.987,-606.629 420.475,-605.312 421.948,-612.155"/>
</g>
<!-- Node33 -->
<g id="node33" class="node"><title>Node33</title>
<g id="a_node33"><a xlink:href="classore_1_1data_1_1_engine_builder.html#a9d7654707f3b935dcf6a7b19df70c085" target="_top" xlink:title=" ">
<polygon fill="white" stroke="#666666" points="546.5,-906 425.5,-906 425.5,-876 546.5,-876 546.5,-906"/>
<text text-anchor="start" x="433.5" y="-894" font-family="Helvetica,sans-Serif" font-size="10.00">ore::data::EngineBuilder</text>
<text text-anchor="middle" x="486" y="-883" font-family="Helvetica,sans-Serif" font-size="10.00">::engineParameter</text>
</a>
</g>
</g>
<!-- Node32&#45;&gt;Node33 -->
<g id="edge40" class="edge"><title>Node32&#45;&gt;Node33</title>
<path fill="none" stroke="#63b8ff" d="M382.074,-891C393.041,-891 404.319,-891 415.205,-891"/>
<polygon fill="#63b8ff" stroke="#63b8ff" points="415.499,-894.5 425.499,-891 415.499,-887.5 415.499,-894.5"/>
</g>
<!-- Node39 -->
<g id="node39" class="node"><title>Node39</title>
<g id="a_node39"><a xlink:href="classore_1_1data_1_1_option_data.html#a438cc7ae64a148b4e658c5785d5212a9" target="_top" xlink:title=" ">
<polygon fill="white" stroke="#666666" points="362.5,-30 252.5,-30 252.5,-0 362.5,-0 362.5,-30"/>
<text text-anchor="start" x="260.5" y="-18" font-family="Helvetica,sans-Serif" font-size="10.00">ore::data::OptionData</text>
<text text-anchor="middle" x="307.5" y="-7" font-family="Helvetica,sans-Serif" font-size="10.00">::automaticExercise</text>
</a>
</g>
</g>
<!-- Node38&#45;&gt;Node39 -->
<g id="edge48" class="edge"><title>Node38&#45;&gt;Node39</title>
<path fill="none" stroke="#63b8ff" d="M192.07,-15C208.224,-15 225.834,-15 242.289,-15"/>
<polygon fill="#63b8ff" stroke="#63b8ff" points="242.362,-18.5001 252.362,-15 242.362,-11.5001 242.362,-18.5001"/>
</g>
</g>
</svg>
