<?xml version="1.0" encoding="UTF-8" standalone="no"?>
<!DOCTYPE svg PUBLIC "-//W3C//DTD SVG 1.1//EN"
 "http://www.w3.org/Graphics/SVG/1.1/DTD/svg11.dtd">
<!-- Generated by graphviz version 2.38.0 (20140413.2041)
 -->
<!-- Title: StructuredMessage Pages: 1 -->
<!--zoomable 368 -->
<svg id="main" version="1.1" xmlns="http://www.w3.org/2000/svg" xmlns:xlink="http://www.w3.org/1999/xlink" xml:space="preserve" onload="init(evt)">
<style type="text/css"><![CDATA[
.edge:hover path { stroke: red; }
.edge:hover polygon { stroke: red; fill: red; }
]]></style>
<script type="text/javascript"><![CDATA[
var edges = document.getElementsByTagName('g');
if (edges && edges.length) {
  for (var i=0;i<edges.length;i++) {
    if (edges[i].id.substr(0,4)=='edge') {
      edges[i].setAttribute('class','edge');
    }
  }
}
]]></script>
        <defs>
                <circle id="rim" cx="0" cy="0" r="7"/>
                <circle id="rim2" cx="0" cy="0" r="3.5"/>
                <g id="zoomPlus">
                        <use xlink:href="#rim" fill="#404040">
                                <set attributeName="fill" to="#808080" begin="zoomplus.mouseover" end="zoomplus.mouseout"/>
                        </use>
                        <path d="M-4,0h8M0,-4v8" fill="none" stroke="white" stroke-width="1.5" pointer-events="none"/>
                </g>
                <g id="zoomMin">
                        <use xlink:href="#rim" fill="#404040">
                                <set attributeName="fill" to="#808080" begin="zoomminus.mouseover" end="zoomminus.mouseout"/>
                        </use>
                        <path d="M-4,0h8" fill="none" stroke="white" stroke-width="1.5" pointer-events="none"/>
                </g>
                <g id="dirArrow">
                        <path fill="none" stroke="white" stroke-width="1.5" d="M0,-3.0v7 M-2.5,-0.5L0,-3.0L2.5,-0.5"/>
                </g>
               <g id="resetDef">
                       <use xlink:href="#rim2" fill="#404040">
                               <set attributeName="fill" to="#808080" begin="reset.mouseover" end="reset.mouseout"/>
                       </use>
               </g>
        </defs>

<script type="text/javascript">
var viewWidth = 1696;
var viewHeight = 368;
var sectionId = 'dynsection-0';
</script>
<script xlink:href="svgpan.js"/>
<svg id="graph" class="graph">
<g id="viewport">
<title>StructuredMessage</title>
<!-- Node1 -->
<g id="node1" class="node"><title>Node1</title>
<g id="a_node1"><a xlink:title=" ">
<polygon fill="#999999" stroke="#666666" points="889,-206 767,-206 767,-99 889,-99 889,-206"/>
<text text-anchor="middle" x="828" y="-194" font-family="Helvetica,sans-Serif" font-size="10.00">{StructuredMessage</text>
<text text-anchor="start" x="775" y="-183" font-family="Helvetica,sans-Serif" font-size="10.00">|+ name</text>
<text text-anchor="start" x="775" y="-172" font-family="Helvetica,sans-Serif" font-size="10.00">|+ StructuredMessage()</text>
<text text-anchor="start" x="775" y="-161" font-family="Helvetica,sans-Serif" font-size="10.00">+ StructuredMessage()</text>
<text text-anchor="start" x="775" y="-150" font-family="Helvetica,sans-Serif" font-size="10.00">+ ~StructuredMessage()</text>
<text text-anchor="start" x="775" y="-139" font-family="Helvetica,sans-Serif" font-size="10.00">+ msg()</text>
<text text-anchor="start" x="775" y="-128" font-family="Helvetica,sans-Serif" font-size="10.00">+ emitLog()</text>
<text text-anchor="start" x="775" y="-117" font-family="Helvetica,sans-Serif" font-size="10.00"># addSubFields()</text>
<text text-anchor="middle" x="828" y="-106" font-family="Helvetica,sans-Serif" font-size="10.00">}</text>
</a>
</g>
</g>
<!-- Node3 -->
<g id="node3" class="node"><title>Node3</title>
<g id="a_node3"><a xlink:href="classore_1_1data_1_1_structured_configuration_error_message.html" target="_top" xlink:title="Utility classes for Structured configuration errors, contains the configuration type and ID (NettingS...">
<polygon fill="white" stroke="#666666" points="152,-63 0,-63 0,-0 152,-0 152,-63"/>
<text text-anchor="start" x="8" y="-51" font-family="Helvetica,sans-Serif" font-size="10.00">{StructuredConfigurationError</text>
<text text-anchor="middle" x="76" y="-40" font-family="Helvetica,sans-Serif" font-size="10.00">Message</text>
<text text-anchor="start" x="8" y="-29" font-family="Helvetica,sans-Serif" font-size="10.00">||+ StructuredConfigurationError</text>
<text text-anchor="start" x="8" y="-18" font-family="Helvetica,sans-Serif" font-size="10.00">Message()</text>
<text text-anchor="middle" x="76" y="-7" font-family="Helvetica,sans-Serif" font-size="10.00">}</text>
</a>
</g>
</g>
<!-- Node1&#45;&gt;Node3 -->
<g id="edge2" class="edge"><title>Node1&#45;&gt;Node3</title>
<path fill="none" stroke="#63b8ff" d="M756.922,-147.049C633.996,-138.25 374.369,-114.811 161,-63 158.105,-62.2971 155.172,-61.5305 152.222,-60.7136"/>
<polygon fill="none" stroke="#63b8ff" points="756.74,-150.544 766.962,-147.756 757.232,-143.562 756.74,-150.544"/>
</g>
<!-- Node4 -->
<g id="node4" class="node"><title>Node4</title>
<g id="a_node4"><a xlink:href="classore_1_1data_1_1_structured_configuration_warning_message.html" target="_top" xlink:title="Utility classes for Structured warnings, contains the configuration type and ID (NettingSetId,...">
<polygon fill="white" stroke="#666666" points="337.5,-63 170.5,-63 170.5,-0 337.5,-0 337.5,-63"/>
<text text-anchor="start" x="178.5" y="-51" font-family="Helvetica,sans-Serif" font-size="10.00">{StructuredConfigurationWarning</text>
<text text-anchor="middle" x="254" y="-40" font-family="Helvetica,sans-Serif" font-size="10.00">Message</text>
<text text-anchor="start" x="178.5" y="-29" font-family="Helvetica,sans-Serif" font-size="10.00">||+ StructuredConfigurationWarning</text>
<text text-anchor="start" x="178.5" y="-18" font-family="Helvetica,sans-Serif" font-size="10.00">Message()</text>
<text text-anchor="middle" x="254" y="-7" font-family="Helvetica,sans-Serif" font-size="10.00">}</text>
</a>
</g>
</g>
<!-- Node1&#45;&gt;Node4 -->
<g id="edge3" class="edge"><title>Node1&#45;&gt;Node4</title>
<path fill="none" stroke="#63b8ff" d="M756.667,-141.456C662.178,-127.452 490.693,-99.6036 347,-63 343.954,-62.224 340.862,-61.4009 337.748,-60.5415"/>
<polygon fill="none" stroke="#63b8ff" points="756.281,-144.937 766.684,-142.931 757.301,-138.011 756.281,-144.937"/>
</g>
<!-- Node5 -->
<g id="node5" class="node"><title>Node5</title>
<g id="a_node5"><a xlink:href="classore_1_1data_1_1_structured_curve_error_message.html" target="_top" xlink:title="Utility class for Structured Curve errors, contains the curve ID.">
<polygon fill="white" stroke="#666666" points="522,-52 356,-52 356,-11 522,-11 522,-52"/>
<text text-anchor="middle" x="439" y="-40" font-family="Helvetica,sans-Serif" font-size="10.00">{StructuredCurveErrorMessage</text>
<text text-anchor="start" x="364" y="-29" font-family="Helvetica,sans-Serif" font-size="10.00">||+ StructuredCurveErrorMessage()</text>
<text text-anchor="middle" x="439" y="-18" font-family="Helvetica,sans-Serif" font-size="10.00">}</text>
</a>
</g>
</g>
<!-- Node1&#45;&gt;Node5 -->
<g id="edge4" class="edge"><title>Node1&#45;&gt;Node5</title>
<path fill="none" stroke="#63b8ff" d="M757.175,-131.055C696.886,-113.494 608.056,-87.2472 531,-63 520.085,-59.5654 508.478,-55.8035 497.316,-52.1305"/>
<polygon fill="none" stroke="#63b8ff" points="756.391,-134.472 766.971,-133.905 758.347,-127.751 756.391,-134.472"/>
</g>
<!-- Node6 -->
<g id="node6" class="node"><title>Node6</title>
<g id="a_node6"><a xlink:href="classore_1_1data_1_1_structured_curve_warning_message.html" target="_top" xlink:title=" ">
<polygon fill="white" stroke="#666666" points="721.5,-52 540.5,-52 540.5,-11 721.5,-11 721.5,-52"/>
<text text-anchor="middle" x="631" y="-40" font-family="Helvetica,sans-Serif" font-size="10.00">{StructuredCurveWarningMessage</text>
<text text-anchor="start" x="548.5" y="-29" font-family="Helvetica,sans-Serif" font-size="10.00">||+ StructuredCurveWarningMessage()</text>
<text text-anchor="middle" x="631" y="-18" font-family="Helvetica,sans-Serif" font-size="10.00">}</text>
</a>
</g>
</g>
<!-- Node1&#45;&gt;Node6 -->
<g id="edge5" class="edge"><title>Node1&#45;&gt;Node6</title>
<path fill="none" stroke="#63b8ff" d="M757.782,-109.084C725.531,-89.6025 688.861,-67.4515 663.284,-52.0016"/>
<polygon fill="none" stroke="#63b8ff" points="756.379,-112.325 766.748,-114.5 759.998,-106.334 756.379,-112.325"/>
</g>
<!-- Node7 -->
<g id="node7" class="node"><title>Node7</title>
<g id="a_node7"><a xlink:href="classore_1_1data_1_1_structured_logging_error_message.html" target="_top" xlink:title=" ">
<polygon fill="white" stroke="#666666" points="916,-52 740,-52 740,-11 916,-11 916,-52"/>
<text text-anchor="middle" x="828" y="-40" font-family="Helvetica,sans-Serif" font-size="10.00">{StructuredLoggingErrorMessage</text>
<text text-anchor="start" x="748" y="-29" font-family="Helvetica,sans-Serif" font-size="10.00">||+ StructuredLoggingErrorMessage()</text>
<text text-anchor="middle" x="828" y="-18" font-family="Helvetica,sans-Serif" font-size="10.00">}</text>
</a>
</g>
</g>
<!-- Node1&#45;&gt;Node7 -->
<g id="edge6" class="edge"><title>Node1&#45;&gt;Node7</title>
<path fill="none" stroke="#63b8ff" d="M828,-88.7434C828,-75.3826 828,-62.2415 828,-52.0255"/>
<polygon fill="none" stroke="#63b8ff" points="824.5,-88.9584 828,-98.9585 831.5,-88.9585 824.5,-88.9584"/>
</g>
<!-- Node8 -->
<g id="node8" class="node"><title>Node8</title>
<g id="a_node8"><a xlink:href="classore_1_1data_1_1_structured_model_error_message.html" target="_top" xlink:title="Utility class for Structured Model errors.">
<polygon fill="white" stroke="#666666" points="1102,-52 934,-52 934,-11 1102,-11 1102,-52"/>
<text text-anchor="middle" x="1018" y="-40" font-family="Helvetica,sans-Serif" font-size="10.00">{StructuredModelErrorMessage</text>
<text text-anchor="start" x="942" y="-29" font-family="Helvetica,sans-Serif" font-size="10.00">||+ StructuredModelErrorMessage()</text>
<text text-anchor="middle" x="1018" y="-18" font-family="Helvetica,sans-Serif" font-size="10.00">}</text>
</a>
</g>
</g>
<!-- Node1&#45;&gt;Node8 -->
<g id="edge7" class="edge"><title>Node1&#45;&gt;Node8</title>
<path fill="none" stroke="#63b8ff" d="M897.677,-107.86C928.259,-88.7064 962.617,-67.1872 986.765,-52.0629"/>
<polygon fill="none" stroke="#63b8ff" points="895.78,-104.918 889.163,-113.193 899.496,-110.851 895.78,-104.918"/>
</g>
<!-- Node9 -->
<g id="node9" class="node"><title>Node9</title>
<g id="a_node9"><a xlink:href="classore_1_1data_1_1_structured_model_warning_message.html" target="_top" xlink:title="Utility class for Structured Model errors.">
<polygon fill="white" stroke="#666666" points="1303.5,-52 1120.5,-52 1120.5,-11 1303.5,-11 1303.5,-52"/>
<text text-anchor="middle" x="1212" y="-40" font-family="Helvetica,sans-Serif" font-size="10.00">{StructuredModelWarningMessage</text>
<text text-anchor="start" x="1128.5" y="-29" font-family="Helvetica,sans-Serif" font-size="10.00">||+ StructuredModelWarningMessage()</text>
<text text-anchor="middle" x="1212" y="-18" font-family="Helvetica,sans-Serif" font-size="10.00">}</text>
</a>
</g>
</g>
<!-- Node1&#45;&gt;Node9 -->
<g id="edge8" class="edge"><title>Node1&#45;&gt;Node9</title>
<path fill="none" stroke="#63b8ff" d="M899.127,-129.458C970.816,-107.242 1080.4,-73.2823 1149.03,-52.013"/>
<polygon fill="none" stroke="#63b8ff" points="897.786,-126.209 889.271,-132.513 899.858,-132.896 897.786,-126.209"/>
</g>
<!-- Node10 -->
<g id="node10" class="node"><title>Node10</title>
<g id="a_node10"><a xlink:href="classore_1_1data_1_1_structured_trade_error_message.html" target="_top" xlink:title="Utility class for Structured Trade errors, contains the Trade ID and Type.">
<polygon fill="white" stroke="#666666" points="1488,-57.5 1322,-57.5 1322,-5.5 1488,-5.5 1488,-57.5"/>
<text text-anchor="middle" x="1405" y="-45.5" font-family="Helvetica,sans-Serif" font-size="10.00">{StructuredTradeErrorMessage</text>
<text text-anchor="start" x="1330" y="-34.5" font-family="Helvetica,sans-Serif" font-size="10.00">||+ StructuredTradeErrorMessage()</text>
<text text-anchor="start" x="1330" y="-23.5" font-family="Helvetica,sans-Serif" font-size="10.00">+ StructuredTradeErrorMessage()</text>
<text text-anchor="middle" x="1405" y="-12.5" font-family="Helvetica,sans-Serif" font-size="10.00">}</text>
</a>
</g>
</g>
<!-- Node1&#45;&gt;Node10 -->
<g id="edge9" class="edge"><title>Node1&#45;&gt;Node10</title>
<path fill="none" stroke="#63b8ff" d="M899.159,-141.698C994.291,-127.872 1167.78,-100.127 1313,-63 1319.44,-61.3536 1326.08,-59.4892 1332.71,-57.5132"/>
<polygon fill="none" stroke="#63b8ff" points="898.475,-138.26 889.078,-143.154 899.475,-145.189 898.475,-138.26"/>
</g>
<!-- Node11 -->
<g id="node11" class="node"><title>Node11</title>
<g id="a_node11"><a xlink:href="classore_1_1data_1_1_structured_trade_warning_message.html" target="_top" xlink:title="Utility classes for Structured warnings, contains the Trade ID and Type.">
<polygon fill="white" stroke="#666666" points="1687.5,-57.5 1506.5,-57.5 1506.5,-5.5 1687.5,-5.5 1687.5,-57.5"/>
<text text-anchor="middle" x="1597" y="-45.5" font-family="Helvetica,sans-Serif" font-size="10.00">{StructuredTradeWarningMessage</text>
<text text-anchor="start" x="1514.5" y="-34.5" font-family="Helvetica,sans-Serif" font-size="10.00">||+ StructuredTradeWarningMessage()</text>
<text text-anchor="start" x="1514.5" y="-23.5" font-family="Helvetica,sans-Serif" font-size="10.00">+ StructuredTradeWarningMessage()</text>
<text text-anchor="middle" x="1597" y="-12.5" font-family="Helvetica,sans-Serif" font-size="10.00">}</text>
</a>
</g>
</g>
<!-- Node1&#45;&gt;Node11 -->
<g id="edge10" class="edge"><title>Node1&#45;&gt;Node11</title>
<path fill="none" stroke="#63b8ff" d="M899.038,-145.97C1021.95,-135.544 1281.8,-109.72 1497,-63 1504.27,-61.4212 1511.78,-59.5658 1519.26,-57.5628"/>
<polygon fill="none" stroke="#63b8ff" points="898.672,-142.488 889,-146.813 899.258,-149.464 898.672,-142.488"/>
</g>
<!-- Node2 -->
<g id="node2" class="node"><title>Node2</title>
<g id="a_node2"><a xlink:href="classore_1_1data_1_1_j_s_o_n_message.html" target="_top" xlink:title=" ">
<polygon fill="white" stroke="#666666" points="880.5,-360 775.5,-360 775.5,-242 880.5,-242 880.5,-360"/>
<text text-anchor="middle" x="828" y="-348" font-family="Helvetica,sans-Serif" font-size="10.00">{JSONMessage</text>
<text text-anchor="start" x="783.5" y="-337" font-family="Helvetica,sans-Serif" font-size="10.00">|# data_</text>
<text text-anchor="start" x="783.5" y="-326" font-family="Helvetica,sans-Serif" font-size="10.00">|+ ~JSONMessage()</text>
<text text-anchor="start" x="783.5" y="-315" font-family="Helvetica,sans-Serif" font-size="10.00">+ msg()</text>
<text text-anchor="start" x="783.5" y="-304" font-family="Helvetica,sans-Serif" font-size="10.00">+ log()</text>
<text text-anchor="start" x="783.5" y="-293" font-family="Helvetica,sans-Serif" font-size="10.00">+ json()</text>
<text text-anchor="start" x="783.5" y="-282" font-family="Helvetica,sans-Serif" font-size="10.00">+ set()</text>
<text text-anchor="start" x="783.5" y="-271" font-family="Helvetica,sans-Serif" font-size="10.00"># emitLog()</text>
<text text-anchor="start" x="783.5" y="-260" font-family="Helvetica,sans-Serif" font-size="10.00"># jsonify()</text>
<text text-anchor="middle" x="828" y="-249" font-family="Helvetica,sans-Serif" font-size="10.00">}</text>
</a>
</g>
</g>
<!-- Node2&#45;&gt;Node1 -->
<g id="edge1" class="edge"><title>Node2&#45;&gt;Node1</title>
<path fill="none" stroke="#63b8ff" d="M828,-231.474C828,-223.05 828,-214.542 828,-206.398"/>
<polygon fill="none" stroke="#63b8ff" points="824.5,-231.678 828,-241.678 831.5,-231.678 824.5,-231.678"/>
</g>
</g>
</svg>
        <g id="navigator" transform="translate(0 0)" fill="#404254">
                <rect fill="#f2f5e9" fill-opacity="0.5" stroke="#606060" stroke-width=".5" x="0" y="0" width="60" height="60"/>
                <use id="zoomplus" xlink:href="#zoomPlus" x="17" y="9" onmousedown="handleZoom(evt,'in')"/>
                <use id="zoomminus" xlink:href="#zoomMin" x="42" y="9" onmousedown="handleZoom(evt,'out')"/>
                <use id="reset" xlink:href="#resetDef" x="30" y="36" onmousedown="handleReset()"/>
                <g id="arrowUp" xlink:href="#dirArrow" transform="translate(30 24)" onmousedown="handlePan(0,-1)">
                  <use xlink:href="#rim" fill="#404040">
                        <set attributeName="fill" to="#808080" begin="arrowUp.mouseover" end="arrowUp.mouseout"/>
                  </use>
                  <path fill="none" stroke="white" stroke-width="1.5" d="M0,-3.0v7 M-2.5,-0.5L0,-3.0L2.5,-0.5"/>
                </g>
                <g id="arrowRight" xlink:href="#dirArrow" transform="rotate(90) translate(36 -43)" onmousedown="handlePan(1,0)">
                  <use xlink:href="#rim" fill="#404040">
                        <set attributeName="fill" to="#808080" begin="arrowRight.mouseover" end="arrowRight.mouseout"/>
                  </use>
                  <path fill="none" stroke="white" stroke-width="1.5" d="M0,-3.0v7 M-2.5,-0.5L0,-3.0L2.5,-0.5"/>
                </g>
                <g id="arrowDown" xlink:href="#dirArrow" transform="rotate(180) translate(-30 -48)" onmousedown="handlePan(0,1)">
                  <use xlink:href="#rim" fill="#404040">
                        <set attributeName="fill" to="#808080" begin="arrowDown.mouseover" end="arrowDown.mouseout"/>
                  </use>
                  <path fill="none" stroke="white" stroke-width="1.5" d="M0,-3.0v7 M-2.5,-0.5L0,-3.0L2.5,-0.5"/>
                </g>
                <g id="arrowLeft" xlink:href="#dirArrow" transform="rotate(270) translate(-36 17)" onmousedown="handlePan(-1,0)">
                  <use xlink:href="#rim" fill="#404040">
                        <set attributeName="fill" to="#808080" begin="arrowLeft.mouseover" end="arrowLeft.mouseout"/>
                  </use>
                  <path fill="none" stroke="white" stroke-width="1.5" d="M0,-3.0v7 M-2.5,-0.5L0,-3.0L2.5,-0.5"/>
                </g>
        </g>
        <svg viewBox="0 0 15 15" width="100%" height="30px" preserveAspectRatio="xMaxYMin meet">
         <g id="arrow_out" transform="scale(0.3 0.3)">
          <a xlink:href="classore_1_1data_1_1_structured_message__inherit__graph_org.svg" target="_base">
           <rect id="button" ry="5" rx="5" y="6" x="6" height="38" width="38"
                fill="#f2f5e9" fill-opacity="0.5" stroke="#606060" stroke-width="1.0"/>
           <path id="arrow"
             d="M 11.500037,31.436501 C 11.940474,20.09759 22.043105,11.32322 32.158766,21.979434 L 37.068811,17.246167 C 37.068811,17.246167 37.088388,32 37.088388,32 L 22.160133,31.978069 C 22.160133,31.978069 26.997745,27.140456 26.997745,27.140456 C 18.528582,18.264221 13.291696,25.230495 11.500037,31.436501 z"
             style="fill:#404040;"/>
          </a>
         </g>
        </svg>
</svg>
