<?xml version="1.0" encoding="UTF-8" standalone="no"?>
<!DOCTYPE svg PUBLIC "-//W3C//DTD SVG 1.1//EN"
 "http://www.w3.org/Graphics/SVG/1.1/DTD/svg11.dtd">
<!-- Generated by graphviz version 2.38.0 (20140413.2041)
 -->
<!-- Title: reducedDiscountBond Pages: 1 -->
<svg width="405pt" height="86pt"
 viewBox="0.00 0.00 405.00 86.00" xmlns="http://www.w3.org/2000/svg" xmlns:xlink="http://www.w3.org/1999/xlink">
<g id="graph0" class="graph" transform="scale(1 1) rotate(0) translate(4 82)">
<title>reducedDiscountBond</title>
<!-- Node1 -->
<g id="node1" class="node"><title>Node1</title>
<g id="a_node1"><a xlink:title=" ">
<polygon fill="#999999" stroke="#666666" points="397,-49.5 285,-49.5 285,-30.5 397,-30.5 397,-49.5"/>
<text text-anchor="middle" x="341" y="-37.5" font-family="Helvetica,sans-Serif" font-size="10.00">reducedDiscountBond</text>
</a>
</g>
</g>
<!-- Node2 -->
<g id="node2" class="node"><title>Node2</title>
<g id="a_node2"><a xlink:href="classore_1_1data_1_1_lgm_c_g.html#ace77a6c182f86d623a008aab4f305098" target="_top" xlink:title=" ">
<polygon fill="white" stroke="#666666" points="249,-69.5 173,-69.5 173,-50.5 249,-50.5 249,-69.5"/>
<text text-anchor="middle" x="211" y="-57.5" font-family="Helvetica,sans-Serif" font-size="10.00">discountBond</text>
</a>
</g>
</g>
<!-- Node1&#45;&gt;Node2 -->
<g id="edge1" class="edge"><title>Node1&#45;&gt;Node2</title>
<path fill="none" stroke="#63b8ff" d="M275.018,-50.1534C266.179,-51.5346 257.364,-52.9119 249.249,-54.1799"/>
<polygon fill="#63b8ff" stroke="#63b8ff" points="275.634,-53.5998 284.974,-48.5979 274.553,-46.6837 275.634,-53.5998"/>
</g>
<!-- Node4 -->
<g id="node4" class="node"><title>Node4</title>
<g id="a_node4"><a xlink:href="classore_1_1data_1_1_lgm_c_g.html#ac943e54cb7c0fca092463a1543d8edd3" target="_top" xlink:title=" ">
<polygon fill="white" stroke="#666666" points="230.5,-29.5 191.5,-29.5 191.5,-10.5 230.5,-10.5 230.5,-29.5"/>
<text text-anchor="middle" x="211" y="-17.5" font-family="Helvetica,sans-Serif" font-size="10.00">fixing</text>
</a>
</g>
</g>
<!-- Node1&#45;&gt;Node4 -->
<g id="edge3" class="edge"><title>Node1&#45;&gt;Node4</title>
<path fill="none" stroke="#63b8ff" d="M274.919,-29.8311C258.731,-27.3017 242.635,-24.7866 230.775,-22.9336"/>
<polygon fill="#63b8ff" stroke="#63b8ff" points="274.553,-33.3163 284.974,-31.4021 275.634,-26.4002 274.553,-33.3163"/>
</g>
<!-- Node3 -->
<g id="node3" class="node"><title>Node3</title>
<g id="a_node3"><a xlink:href="classore_1_1data_1_1_gaussian_cam_c_g.html#abf6f98b24020510a254ae590e6020d27" target="_top" xlink:title=" ">
<polygon fill="white" stroke="#666666" points="137,-78 0,-78 0,-48 137,-48 137,-78"/>
<text text-anchor="start" x="8" y="-66" font-family="Helvetica,sans-Serif" font-size="10.00">ore::data::GaussianCamCG</text>
<text text-anchor="middle" x="68.5" y="-55" font-family="Helvetica,sans-Serif" font-size="10.00">::getDiscount</text>
</a>
</g>
</g>
<!-- Node2&#45;&gt;Node3 -->
<g id="edge2" class="edge"><title>Node2&#45;&gt;Node3</title>
<path fill="none" stroke="#63b8ff" d="M162.615,-61.0118C154.411,-61.187 145.74,-61.3721 137.122,-61.5561"/>
<polygon fill="#63b8ff" stroke="#63b8ff" points="162.794,-64.5088 172.717,-60.7961 162.645,-57.5104 162.794,-64.5088"/>
</g>
<!-- Node5 -->
<g id="node5" class="node"><title>Node5</title>
<g id="a_node5"><a xlink:href="classore_1_1data_1_1_gaussian_cam_c_g.html#a9ac494d33de086073701a0e5df956443" target="_top" xlink:title=" ">
<polygon fill="white" stroke="#666666" points="137,-30 0,-30 0,-0 137,-0 137,-30"/>
<text text-anchor="start" x="8" y="-18" font-family="Helvetica,sans-Serif" font-size="10.00">ore::data::GaussianCamCG</text>
<text text-anchor="middle" x="68.5" y="-7" font-family="Helvetica,sans-Serif" font-size="10.00">::getIrIndexValue</text>
</a>
</g>
</g>
<!-- Node4&#45;&gt;Node5 -->
<g id="edge4" class="edge"><title>Node4&#45;&gt;Node5</title>
<path fill="none" stroke="#63b8ff" d="M181.321,-18.9794C168.504,-18.5233 152.803,-17.9645 137.265,-17.4116"/>
<polygon fill="#63b8ff" stroke="#63b8ff" points="181.225,-22.4781 191.343,-19.336 181.474,-15.4825 181.225,-22.4781"/>
</g>
</g>
</svg>
