<?xml version="1.0" encoding="UTF-8" standalone="no"?>
<!DOCTYPE svg PUBLIC "-//W3C//DTD SVG 1.1//EN"
 "http://www.w3.org/Graphics/SVG/1.1/DTD/svg11.dtd">
<!-- Generated by graphviz version 2.38.0 (20140413.2041)
 -->
<!-- Title: toXML Pages: 1 -->
<!--zoomable 239 -->
<svg id="main" version="1.1" xmlns="http://www.w3.org/2000/svg" xmlns:xlink="http://www.w3.org/1999/xlink" xml:space="preserve" onload="init(evt)">
<style type="text/css"><![CDATA[
.edge:hover path { stroke: red; }
.edge:hover polygon { stroke: red; fill: red; }
]]></style>
<script type="text/javascript"><![CDATA[
var edges = document.getElementsByTagName('g');
if (edges && edges.length) {
  for (var i=0;i<edges.length;i++) {
    if (edges[i].id.substr(0,4)=='edge') {
      edges[i].setAttribute('class','edge');
    }
  }
}
]]></script>
        <defs>
                <circle id="rim" cx="0" cy="0" r="7"/>
                <circle id="rim2" cx="0" cy="0" r="3.5"/>
                <g id="zoomPlus">
                        <use xlink:href="#rim" fill="#404040">
                                <set attributeName="fill" to="#808080" begin="zoomplus.mouseover" end="zoomplus.mouseout"/>
                        </use>
                        <path d="M-4,0h8M0,-4v8" fill="none" stroke="white" stroke-width="1.5" pointer-events="none"/>
                </g>
                <g id="zoomMin">
                        <use xlink:href="#rim" fill="#404040">
                                <set attributeName="fill" to="#808080" begin="zoomminus.mouseover" end="zoomminus.mouseout"/>
                        </use>
                        <path d="M-4,0h8" fill="none" stroke="white" stroke-width="1.5" pointer-events="none"/>
                </g>
                <g id="dirArrow">
                        <path fill="none" stroke="white" stroke-width="1.5" d="M0,-3.0v7 M-2.5,-0.5L0,-3.0L2.5,-0.5"/>
                </g>
               <g id="resetDef">
                       <use xlink:href="#rim2" fill="#404040">
                               <set attributeName="fill" to="#808080" begin="reset.mouseover" end="reset.mouseout"/>
                       </use>
               </g>
        </defs>

<script type="text/javascript">
var viewWidth = 878;
var viewHeight = 239;
var sectionId = 'dynsection-6';
</script>
<script xlink:href="svgpan.js"/>
<svg id="graph" class="graph">
<g id="viewport">
<title>toXML</title>
<!-- Node1 -->
<g id="node1" class="node"><title>Node1</title>
<g id="a_node1"><a xlink:title=" ">
<polygon fill="#999999" stroke="#666666" points="44,-182.5 0,-182.5 0,-163.5 44,-163.5 44,-182.5"/>
<text text-anchor="middle" x="22" y="-170.5" font-family="Helvetica,sans-Serif" font-size="10.00">toXML</text>
</a>
</g>
</g>
<!-- Node2 -->
<g id="node2" class="node"><title>Node2</title>
<g id="a_node2"><a xlink:href="classore_1_1data_1_1_x_m_l_utils.html#aced1fd4bd35df3642d8022301744b138" target="_top" xlink:title=" ">
<polygon fill="white" stroke="#666666" points="528,-148 429,-148 429,-118 528,-118 528,-148"/>
<text text-anchor="start" x="437" y="-136" font-family="Helvetica,sans-Serif" font-size="10.00">ore::data::XMLUtils</text>
<text text-anchor="middle" x="478.5" y="-125" font-family="Helvetica,sans-Serif" font-size="10.00">::addChild</text>
</a>
</g>
</g>
<!-- Node1&#45;&gt;Node2 -->
<g id="edge1" class="edge"><title>Node1&#45;&gt;Node2</title>
<path fill="none" stroke="#63b8ff" d="M44.0099,-171.151C110.258,-165.32 316.423,-147.176 418.717,-138.173"/>
<polygon fill="#63b8ff" stroke="#63b8ff" points="419.224,-141.642 428.879,-137.279 418.61,-134.669 419.224,-141.642"/>
</g>
<!-- Node3 -->
<g id="node3" class="node"><title>Node3</title>
<g id="a_node3"><a xlink:href="classore_1_1data_1_1_x_m_l_document.html#a8717c517803f0df2e693e3cadefeafd7" target="_top" xlink:title="util functions that wrap rapidxml">
<polygon fill="white" stroke="#666666" points="699,-148 575,-148 575,-118 699,-118 699,-148"/>
<text text-anchor="start" x="583" y="-136" font-family="Helvetica,sans-Serif" font-size="10.00">ore::data::XMLDocument</text>
<text text-anchor="middle" x="637" y="-125" font-family="Helvetica,sans-Serif" font-size="10.00">::allocNode</text>
</a>
</g>
</g>
<!-- Node1&#45;&gt;Node3 -->
<g id="edge6" class="edge"><title>Node1&#45;&gt;Node3</title>
<path fill="none" stroke="#63b8ff" d="M31.0749,-182.649C41.1688,-193.878 59.6161,-211.801 80,-219 143.7,-241.497 164.695,-224.809 232,-219 355.84,-208.312 497.194,-172.67 575.569,-150.767"/>
<polygon fill="#63b8ff" stroke="#63b8ff" points="576.596,-154.114 585.274,-148.035 574.699,-147.376 576.596,-154.114"/>
</g>
<!-- Node5 -->
<g id="node5" class="node"><title>Node5</title>
<g id="a_node5"><a xlink:href="classore_1_1data_1_1_x_m_l_utils.html#a29cd524fd4d9381e10c71939131fa4d4" target="_top" xlink:title=" ">
<polygon fill="white" stroke="#666666" points="205.5,-210 106.5,-210 106.5,-180 205.5,-180 205.5,-210"/>
<text text-anchor="start" x="114.5" y="-198" font-family="Helvetica,sans-Serif" font-size="10.00">ore::data::XMLUtils</text>
<text text-anchor="middle" x="156" y="-187" font-family="Helvetica,sans-Serif" font-size="10.00">::addChildren</text>
</a>
</g>
</g>
<!-- Node1&#45;&gt;Node5 -->
<g id="edge4" class="edge"><title>Node1&#45;&gt;Node5</title>
<path fill="none" stroke="#63b8ff" d="M44.2081,-176.535C58.4164,-178.903 77.8685,-182.145 96.5107,-185.252"/>
<polygon fill="#63b8ff" stroke="#63b8ff" points="96.0091,-188.716 106.448,-186.908 97.1599,-181.812 96.0091,-188.716"/>
</g>
<!-- Node6 -->
<g id="node6" class="node"><title>Node6</title>
<g id="a_node6"><a xlink:href="classore_1_1data_1_1_quote_based_volatility_config.html#a887b346ad1d1be5da030606f708cd3f6" target="_top" xlink:title=" ">
<polygon fill="white" stroke="#666666" points="232,-99 80,-99 80,-69 232,-69 232,-99"/>
<text text-anchor="start" x="88" y="-87" font-family="Helvetica,sans-Serif" font-size="10.00">ore::data::QuoteBasedVolatility</text>
<text text-anchor="middle" x="156" y="-76" font-family="Helvetica,sans-Serif" font-size="10.00">Config::toBaseNode</text>
</a>
</g>
</g>
<!-- Node1&#45;&gt;Node6 -->
<g id="edge7" class="edge"><title>Node1&#45;&gt;Node6</title>
<path fill="none" stroke="#63b8ff" d="M37.1263,-163.475C57.771,-149.556 96.7084,-123.303 124.17,-104.787"/>
<polygon fill="#63b8ff" stroke="#63b8ff" points="126.311,-107.565 132.645,-99.0725 122.397,-101.761 126.311,-107.565"/>
</g>
<!-- Node2&#45;&gt;Node3 -->
<g id="edge2" class="edge"><title>Node2&#45;&gt;Node3</title>
<path fill="none" stroke="#63b8ff" d="M528.16,-133C539.726,-133 552.304,-133 564.652,-133"/>
<polygon fill="#63b8ff" stroke="#63b8ff" points="564.942,-136.5 574.942,-133 564.941,-129.5 564.942,-136.5"/>
</g>
<!-- Node4 -->
<g id="node4" class="node"><title>Node4</title>
<g id="a_node4"><a xlink:href="classore_1_1data_1_1_x_m_l_document.html#ae3474059e483990f3afea260096e5c90" target="_top" xlink:title=" ">
<polygon fill="white" stroke="#666666" points="870,-122 746,-122 746,-92 870,-92 870,-122"/>
<text text-anchor="start" x="754" y="-110" font-family="Helvetica,sans-Serif" font-size="10.00">ore::data::XMLDocument</text>
<text text-anchor="middle" x="808" y="-99" font-family="Helvetica,sans-Serif" font-size="10.00">::allocString</text>
</a>
</g>
</g>
<!-- Node3&#45;&gt;Node4 -->
<g id="edge3" class="edge"><title>Node3&#45;&gt;Node4</title>
<path fill="none" stroke="#63b8ff" d="M699.013,-123.613C710.905,-121.784 723.472,-119.851 735.663,-117.975"/>
<polygon fill="#63b8ff" stroke="#63b8ff" points="736.442,-121.396 745.793,-116.416 735.377,-114.478 736.442,-121.396"/>
</g>
<!-- Node5&#45;&gt;Node2 -->
<g id="edge5" class="edge"><title>Node5&#45;&gt;Node2</title>
<path fill="none" stroke="#63b8ff" d="M205.561,-192.585C253.735,-189.362 329.361,-182.066 393,-166 407.008,-162.464 421.827,-157.224 435.077,-151.956"/>
<polygon fill="#63b8ff" stroke="#63b8ff" points="436.482,-155.163 444.414,-148.14 433.833,-148.684 436.482,-155.163"/>
</g>
<!-- Node6&#45;&gt;Node2 -->
<g id="edge8" class="edge"><title>Node6&#45;&gt;Node2</title>
<path fill="none" stroke="#63b8ff" d="M232.143,-95.4883C289.037,-104.187 366.092,-115.967 418.57,-123.99"/>
<polygon fill="#63b8ff" stroke="#63b8ff" points="418.311,-127.491 428.725,-125.543 419.369,-120.572 418.311,-127.491"/>
</g>
<!-- Node7 -->
<g id="node7" class="node"><title>Node7</title>
<g id="a_node7"><a xlink:href="namespaceore_1_1data.html#a86651dfeb5c18ee891f7a4734d8cf455" target="_top" xlink:title=" ">
<polygon fill="white" stroke="#666666" points="379.5,-67.5 281.5,-67.5 281.5,-48.5 379.5,-48.5 379.5,-67.5"/>
<text text-anchor="middle" x="330.5" y="-55.5" font-family="Helvetica,sans-Serif" font-size="10.00">ore::data::to_string</text>
</a>
</g>
</g>
<!-- Node6&#45;&gt;Node7 -->
<g id="edge9" class="edge"><title>Node6&#45;&gt;Node7</title>
<path fill="none" stroke="#63b8ff" d="M232.159,-72.6717C245.341,-70.6848 258.874,-68.645 271.5,-66.7421"/>
<polygon fill="#63b8ff" stroke="#63b8ff" points="272.04,-70.2003 281.406,-65.2489 270.996,-63.2785 272.04,-70.2003"/>
</g>
<!-- Node8 -->
<g id="node8" class="node"><title>Node8</title>
<g id="a_node8"><a xlink:href="classore_1_1data_1_1_volatility_config.html#ac4517056339af1a2ae5b94c9df66b545" target="_top" xlink:title=" ">
<polygon fill="white" stroke="#666666" points="393,-30 268,-30 268,-0 393,-0 393,-30"/>
<text text-anchor="start" x="276" y="-18" font-family="Helvetica,sans-Serif" font-size="10.00">ore::data::VolatilityConfig</text>
<text text-anchor="middle" x="330.5" y="-7" font-family="Helvetica,sans-Serif" font-size="10.00">::toXMLNode</text>
</a>
</g>
</g>
<!-- Node6&#45;&gt;Node8 -->
<g id="edge11" class="edge"><title>Node6&#45;&gt;Node8</title>
<path fill="none" stroke="#63b8ff" d="M193.699,-68.9817C215.302,-60.1763 243.172,-48.8768 268,-39 272.248,-37.3101 276.666,-35.564 281.097,-33.8204"/>
<polygon fill="#63b8ff" stroke="#63b8ff" points="282.727,-36.9407 290.758,-30.03 280.17,-30.4243 282.727,-36.9407"/>
</g>
<!-- Node7&#45;&gt;Node7 -->
<g id="edge10" class="edge"><title>Node7&#45;&gt;Node7</title>
<path fill="none" stroke="#63b8ff" d="M307.689,-67.5828C296.592,-76.2337 304.195,-85.5 330.5,-85.5 347.351,-85.5 356.528,-81.6971 358.03,-76.6894"/>
<polygon fill="#63b8ff" stroke="#63b8ff" points="361.019,-74.8515 353.311,-67.5828 354.804,-78.0719 361.019,-74.8515"/>
</g>
<!-- Node8&#45;&gt;Node2 -->
<g id="edge15" class="edge"><title>Node8&#45;&gt;Node2</title>
<path fill="none" stroke="#63b8ff" d="M377.403,-30.1234C382.861,-32.7205 388.193,-35.6739 393,-39 420.947,-58.3387 446.006,-88.6824 461.443,-109.638"/>
<polygon fill="#63b8ff" stroke="#63b8ff" points="458.768,-111.912 467.45,-117.984 464.45,-107.823 458.768,-111.912"/>
</g>
<!-- Node9 -->
<g id="node9" class="node"><title>Node9</title>
<g id="a_node9"><a xlink:href="classore_1_1data_1_1_x_m_l_utils.html#a226c81c31def2ba2c853ca803d1fafc5" target="_top" xlink:title=" ">
<polygon fill="white" stroke="#666666" points="528,-40 429,-40 429,-10 528,-10 528,-40"/>
<text text-anchor="start" x="437" y="-28" font-family="Helvetica,sans-Serif" font-size="10.00">ore::data::XMLUtils</text>
<text text-anchor="middle" x="478.5" y="-17" font-family="Helvetica,sans-Serif" font-size="10.00">::addAttribute</text>
</a>
</g>
</g>
<!-- Node8&#45;&gt;Node9 -->
<g id="edge12" class="edge"><title>Node8&#45;&gt;Node9</title>
<path fill="none" stroke="#63b8ff" d="M393.417,-19.2409C401.816,-19.8161 410.415,-20.4051 418.755,-20.9764"/>
<polygon fill="#63b8ff" stroke="#63b8ff" points="418.554,-24.4707 428.77,-21.6623 419.033,-17.4871 418.554,-24.4707"/>
</g>
<!-- Node9&#45;&gt;Node4 -->
<g id="edge13" class="edge"><title>Node9&#45;&gt;Node4</title>
<path fill="none" stroke="#63b8ff" d="M528.176,-37.1877C583.484,-51.0358 674.208,-73.7512 737.079,-89.493"/>
<polygon fill="#63b8ff" stroke="#63b8ff" points="736.37,-92.9234 746.92,-91.9571 738.07,-86.133 736.37,-92.9234"/>
</g>
<!-- Node10 -->
<g id="node10" class="node"><title>Node10</title>
<g id="a_node10"><a xlink:href="classore_1_1data_1_1_x_m_l_document.html#a46d969cdb00bff64f3f4c0d2975a08d3" target="_top" xlink:title=" ">
<polygon fill="white" stroke="#666666" points="710,-34.5 564,-34.5 564,-15.5 710,-15.5 710,-34.5"/>
<text text-anchor="middle" x="637" y="-22.5" font-family="Helvetica,sans-Serif" font-size="10.00">ore::data::XMLDocument::doc</text>
</a>
</g>
</g>
<!-- Node9&#45;&gt;Node10 -->
<g id="edge14" class="edge"><title>Node9&#45;&gt;Node10</title>
<path fill="none" stroke="#63b8ff" d="M528.16,-25C536.286,-25 544.911,-25 553.605,-25"/>
<polygon fill="#63b8ff" stroke="#63b8ff" points="553.816,-28.5001 563.816,-25 553.816,-21.5001 553.816,-28.5001"/>
</g>
</g>
</svg>
        <g id="navigator" transform="translate(0 0)" fill="#404254">
                <rect fill="#f2f5e9" fill-opacity="0.5" stroke="#606060" stroke-width=".5" x="0" y="0" width="60" height="60"/>
                <use id="zoomplus" xlink:href="#zoomPlus" x="17" y="9" onmousedown="handleZoom(evt,'in')"/>
                <use id="zoomminus" xlink:href="#zoomMin" x="42" y="9" onmousedown="handleZoom(evt,'out')"/>
                <use id="reset" xlink:href="#resetDef" x="30" y="36" onmousedown="handleReset()"/>
                <g id="arrowUp" xlink:href="#dirArrow" transform="translate(30 24)" onmousedown="handlePan(0,-1)">
                  <use xlink:href="#rim" fill="#404040">
                        <set attributeName="fill" to="#808080" begin="arrowUp.mouseover" end="arrowUp.mouseout"/>
                  </use>
                  <path fill="none" stroke="white" stroke-width="1.5" d="M0,-3.0v7 M-2.5,-0.5L0,-3.0L2.5,-0.5"/>
                </g>
                <g id="arrowRight" xlink:href="#dirArrow" transform="rotate(90) translate(36 -43)" onmousedown="handlePan(1,0)">
                  <use xlink:href="#rim" fill="#404040">
                        <set attributeName="fill" to="#808080" begin="arrowRight.mouseover" end="arrowRight.mouseout"/>
                  </use>
                  <path fill="none" stroke="white" stroke-width="1.5" d="M0,-3.0v7 M-2.5,-0.5L0,-3.0L2.5,-0.5"/>
                </g>
                <g id="arrowDown" xlink:href="#dirArrow" transform="rotate(180) translate(-30 -48)" onmousedown="handlePan(0,1)">
                  <use xlink:href="#rim" fill="#404040">
                        <set attributeName="fill" to="#808080" begin="arrowDown.mouseover" end="arrowDown.mouseout"/>
                  </use>
                  <path fill="none" stroke="white" stroke-width="1.5" d="M0,-3.0v7 M-2.5,-0.5L0,-3.0L2.5,-0.5"/>
                </g>
                <g id="arrowLeft" xlink:href="#dirArrow" transform="rotate(270) translate(-36 17)" onmousedown="handlePan(-1,0)">
                  <use xlink:href="#rim" fill="#404040">
                        <set attributeName="fill" to="#808080" begin="arrowLeft.mouseover" end="arrowLeft.mouseout"/>
                  </use>
                  <path fill="none" stroke="white" stroke-width="1.5" d="M0,-3.0v7 M-2.5,-0.5L0,-3.0L2.5,-0.5"/>
                </g>
        </g>
        <svg viewBox="0 0 15 15" width="100%" height="30px" preserveAspectRatio="xMaxYMin meet">
         <g id="arrow_out" transform="scale(0.3 0.3)">
          <a xlink:href="classore_1_1data_1_1_volatility_curve_config_a98c77e5a9e18de0cd031a56f97459774_cgraph_org.svg" target="_base">
           <rect id="button" ry="5" rx="5" y="6" x="6" height="38" width="38"
                fill="#f2f5e9" fill-opacity="0.5" stroke="#606060" stroke-width="1.0"/>
           <path id="arrow"
             d="M 11.500037,31.436501 C 11.940474,20.09759 22.043105,11.32322 32.158766,21.979434 L 37.068811,17.246167 C 37.068811,17.246167 37.088388,32 37.088388,32 L 22.160133,31.978069 C 22.160133,31.978069 26.997745,27.140456 26.997745,27.140456 C 18.528582,18.264221 13.291696,25.230495 11.500037,31.436501 z"
             style="fill:#404040;"/>
          </a>
         </g>
        </svg>
</svg>
