<?xml version="1.0" encoding="UTF-8" standalone="no"?>
<!DOCTYPE svg PUBLIC "-//W3C//DTD SVG 1.1//EN"
 "http://www.w3.org/Graphics/SVG/1.1/DTD/svg11.dtd">
<!-- Generated by graphviz version 2.38.0 (20140413.2041)
 -->
<!-- Title: eval Pages: 1 -->
<svg width="212pt" height="76pt"
 viewBox="0.00 0.00 212.00 75.50" xmlns="http://www.w3.org/2000/svg" xmlns:xlink="http://www.w3.org/1999/xlink">
<g id="graph0" class="graph" transform="scale(1 1) rotate(0) translate(4 71.5)">
<title>eval</title>
<!-- Node1 -->
<g id="node1" class="node"><title>Node1</title>
<g id="a_node1"><a xlink:title=" ">
<polygon fill="#999999" stroke="#666666" points="204,-45.5 171,-45.5 171,-26.5 204,-26.5 204,-45.5"/>
<text text-anchor="middle" x="187.5" y="-33.5" font-family="Helvetica,sans-Serif" font-size="10.00">eval</text>
</a>
</g>
</g>
<!-- Node2 -->
<g id="node2" class="node"><title>Node2</title>
<g id="a_node2"><a xlink:href="classore_1_1data_1_1_model_c_g_impl.html#a935b238fcd1d59e45582e83c9de40ba8" target="_top" xlink:title=" ">
<polygon fill="white" stroke="#666666" points="112,-67.5 23,-67.5 23,-48.5 112,-48.5 112,-67.5"/>
<text text-anchor="middle" x="67.5" y="-55.5" font-family="Helvetica,sans-Serif" font-size="10.00">barrierProbability</text>
</a>
</g>
</g>
<!-- Node1&#45;&gt;Node2 -->
<g id="edge1" class="edge"><title>Node1&#45;&gt;Node2</title>
<path fill="none" stroke="#63b8ff" d="M160.545,-40.839C146.335,-43.4884 128.349,-46.8417 112.054,-49.8798"/>
<polygon fill="#63b8ff" stroke="#63b8ff" points="161.397,-44.2406 170.586,-38.967 160.114,-37.3592 161.397,-44.2406"/>
</g>
<!-- Node3 -->
<g id="node3" class="node"><title>Node3</title>
<g id="a_node3"><a xlink:href="classore_1_1data_1_1_black_scholes_c_g.html#a4881d30442518e57e72ec865222d5940" target="_top" xlink:title=" ">
<polygon fill="white" stroke="#666666" points="135,-30 0,-30 0,-0 135,-0 135,-30"/>
<text text-anchor="start" x="8" y="-18" font-family="Helvetica,sans-Serif" font-size="10.00">ore::data::BlackScholesCG</text>
<text text-anchor="middle" x="67.5" y="-7" font-family="Helvetica,sans-Serif" font-size="10.00">::getFutureBarrierProb</text>
</a>
</g>
</g>
<!-- Node1&#45;&gt;Node3 -->
<g id="edge2" class="edge"><title>Node1&#45;&gt;Node3</title>
<path fill="none" stroke="#63b8ff" d="M160.54,-31.38C152.849,-30.0114 144.053,-28.446 135.018,-26.838"/>
<polygon fill="#63b8ff" stroke="#63b8ff" points="160.127,-34.8615 170.586,-33.1678 161.354,-27.9698 160.127,-34.8615"/>
</g>
</g>
</svg>
