<?xml version="1.0" encoding="UTF-8" standalone="no"?>
<!DOCTYPE svg PUBLIC "-//W3C//DTD SVG 1.1//EN"
 "http://www.w3.org/Graphics/SVG/1.1/DTD/svg11.dtd">
<!-- Generated by graphviz version 2.38.0 (20140413.2041)
 -->
<!-- Title: toXML Pages: 1 -->
<!--zoomable 290 -->
<svg id="main" version="1.1" xmlns="http://www.w3.org/2000/svg" xmlns:xlink="http://www.w3.org/1999/xlink" xml:space="preserve" onload="init(evt)">
<style type="text/css"><![CDATA[
.edge:hover path { stroke: red; }
.edge:hover polygon { stroke: red; fill: red; }
]]></style>
<script type="text/javascript"><![CDATA[
var edges = document.getElementsByTagName('g');
if (edges && edges.length) {
  for (var i=0;i<edges.length;i++) {
    if (edges[i].id.substr(0,4)=='edge') {
      edges[i].setAttribute('class','edge');
    }
  }
}
]]></script>
        <defs>
                <circle id="rim" cx="0" cy="0" r="7"/>
                <circle id="rim2" cx="0" cy="0" r="3.5"/>
                <g id="zoomPlus">
                        <use xlink:href="#rim" fill="#404040">
                                <set attributeName="fill" to="#808080" begin="zoomplus.mouseover" end="zoomplus.mouseout"/>
                        </use>
                        <path d="M-4,0h8M0,-4v8" fill="none" stroke="white" stroke-width="1.5" pointer-events="none"/>
                </g>
                <g id="zoomMin">
                        <use xlink:href="#rim" fill="#404040">
                                <set attributeName="fill" to="#808080" begin="zoomminus.mouseover" end="zoomminus.mouseout"/>
                        </use>
                        <path d="M-4,0h8" fill="none" stroke="white" stroke-width="1.5" pointer-events="none"/>
                </g>
                <g id="dirArrow">
                        <path fill="none" stroke="white" stroke-width="1.5" d="M0,-3.0v7 M-2.5,-0.5L0,-3.0L2.5,-0.5"/>
                </g>
               <g id="resetDef">
                       <use xlink:href="#rim2" fill="#404040">
                               <set attributeName="fill" to="#808080" begin="reset.mouseover" end="reset.mouseout"/>
                       </use>
               </g>
        </defs>

<script type="text/javascript">
var viewWidth = 668;
var viewHeight = 290;
var sectionId = 'dynsection-17';
</script>
<script xlink:href="svgpan.js"/>
<svg id="graph" class="graph">
<g id="viewport">
<title>toXML</title>
<!-- Node1 -->
<g id="node1" class="node"><title>Node1</title>
<g id="a_node1"><a xlink:title=" ">
<polygon fill="#999999" stroke="#666666" points="44,-159.5 0,-159.5 0,-140.5 44,-140.5 44,-159.5"/>
<text text-anchor="middle" x="22" y="-147.5" font-family="Helvetica,sans-Serif" font-size="10.00">toXML</text>
</a>
</g>
</g>
<!-- Node2 -->
<g id="node2" class="node"><title>Node2</title>
<g id="a_node2"><a xlink:href="classore_1_1data_1_1_x_m_l_utils.html#aced1fd4bd35df3642d8022301744b138" target="_top" xlink:title=" ">
<polygon fill="white" stroke="#666666" points="340,-246 241,-246 241,-216 340,-216 340,-246"/>
<text text-anchor="start" x="249" y="-234" font-family="Helvetica,sans-Serif" font-size="10.00">ore::data::XMLUtils</text>
<text text-anchor="middle" x="290.5" y="-223" font-family="Helvetica,sans-Serif" font-size="10.00">::addChild</text>
</a>
</g>
</g>
<!-- Node1&#45;&gt;Node2 -->
<g id="edge1" class="edge"><title>Node1&#45;&gt;Node2</title>
<path fill="none" stroke="#63b8ff" d="M28.0338,-159.92C36.4348,-175.281 54.8998,-204.367 80,-217 126.724,-240.517 186.891,-242.069 230.751,-238.891"/>
<polygon fill="#63b8ff" stroke="#63b8ff" points="231.293,-242.358 240.969,-238.044 230.715,-235.382 231.293,-242.358"/>
</g>
<!-- Node3 -->
<g id="node3" class="node"><title>Node3</title>
<g id="a_node3"><a xlink:href="classore_1_1data_1_1_x_m_l_document.html#a8717c517803f0df2e693e3cadefeafd7" target="_top" xlink:title="util functions that wrap rapidxml">
<polygon fill="white" stroke="#666666" points="500,-267 376,-267 376,-237 500,-237 500,-267"/>
<text text-anchor="start" x="384" y="-255" font-family="Helvetica,sans-Serif" font-size="10.00">ore::data::XMLDocument</text>
<text text-anchor="middle" x="438" y="-244" font-family="Helvetica,sans-Serif" font-size="10.00">::allocNode</text>
</a>
</g>
</g>
<!-- Node1&#45;&gt;Node3 -->
<g id="edge4" class="edge"><title>Node1&#45;&gt;Node3</title>
<path fill="none" stroke="#63b8ff" d="M25.7465,-159.629C31.8558,-179.073 48.5721,-222.803 80,-242 167.86,-295.667 291.935,-283.923 368.284,-269.043"/>
<polygon fill="#63b8ff" stroke="#63b8ff" points="369.162,-272.436 378.271,-267.025 367.776,-265.575 369.162,-272.436"/>
</g>
<!-- Node5 -->
<g id="node5" class="node"><title>Node5</title>
<g id="a_node5"><a xlink:href="classore_1_1data_1_1_x_m_l_utils.html#ae646b9cdf949a88f35c36c18bf90b370" target="_top" xlink:title=" ">
<polygon fill="white" stroke="#666666" points="192,-208 93,-208 93,-178 192,-178 192,-208"/>
<text text-anchor="start" x="101" y="-196" font-family="Helvetica,sans-Serif" font-size="10.00">ore::data::XMLUtils</text>
<text text-anchor="middle" x="142.5" y="-185" font-family="Helvetica,sans-Serif" font-size="10.00">::appendNode</text>
</a>
</g>
</g>
<!-- Node1&#45;&gt;Node5 -->
<g id="edge5" class="edge"><title>Node1&#45;&gt;Node5</title>
<path fill="none" stroke="#63b8ff" d="M44.1854,-157.688C57.0962,-162.372 74.1886,-168.575 90.4424,-174.473"/>
<polygon fill="#63b8ff" stroke="#63b8ff" points="89.2834,-177.775 99.8775,-177.896 91.6712,-171.195 89.2834,-177.775"/>
</g>
<!-- Node6 -->
<g id="node6" class="node"><title>Node6</title>
<g id="a_node6"><a xlink:href="classore_1_1data_1_1_trade_strike.html#af8c266414ee2c6abfd1994cb39f8552b" target="_top" xlink:title=" ">
<polygon fill="white" stroke="#666666" points="174,-159.5 111,-159.5 111,-140.5 174,-140.5 174,-159.5"/>
<text text-anchor="middle" x="142.5" y="-147.5" font-family="Helvetica,sans-Serif" font-size="10.00">strikePrice</text>
</a>
</g>
</g>
<!-- Node1&#45;&gt;Node6 -->
<g id="edge6" class="edge"><title>Node1&#45;&gt;Node6</title>
<path fill="none" stroke="#63b8ff" d="M44.1854,-150C59.8007,-150 81.533,-150 100.5,-150"/>
<polygon fill="#63b8ff" stroke="#63b8ff" points="100.697,-153.5 110.697,-150 100.697,-146.5 100.697,-153.5"/>
</g>
<!-- Node7 -->
<g id="node7" class="node"><title>Node7</title>
<g id="a_node7"><a xlink:href="classore_1_1data_1_1_trade_strike.html#aadd83080c0624770619b114a02c8c3d2" target="_top" xlink:title=" ">
<polygon fill="white" stroke="#666666" points="173.5,-122.5 111.5,-122.5 111.5,-103.5 173.5,-103.5 173.5,-122.5"/>
<text text-anchor="middle" x="142.5" y="-110.5" font-family="Helvetica,sans-Serif" font-size="10.00">strikeYield</text>
</a>
</g>
</g>
<!-- Node1&#45;&gt;Node7 -->
<g id="edge7" class="edge"><title>Node1&#45;&gt;Node7</title>
<path fill="none" stroke="#63b8ff" d="M44.1042,-143.301C54.846,-139.9 68.1134,-135.713 80,-132 87.0401,-129.801 94.5378,-127.473 101.789,-125.229"/>
<polygon fill="#63b8ff" stroke="#63b8ff" points="102.939,-128.537 111.459,-122.24 100.871,-121.849 102.939,-128.537"/>
</g>
<!-- Node8 -->
<g id="node8" class="node"><title>Node8</title>
<g id="a_node8"><a xlink:href="namespaceore_1_1data.html#a86651dfeb5c18ee891f7a4734d8cf455" target="_top" xlink:title=" ">
<polygon fill="white" stroke="#666666" points="191.5,-67.5 93.5,-67.5 93.5,-48.5 191.5,-48.5 191.5,-67.5"/>
<text text-anchor="middle" x="142.5" y="-55.5" font-family="Helvetica,sans-Serif" font-size="10.00">ore::data::to_string</text>
</a>
</g>
</g>
<!-- Node1&#45;&gt;Node8 -->
<g id="edge8" class="edge"><title>Node1&#45;&gt;Node8</title>
<path fill="none" stroke="#63b8ff" d="M31.6973,-140.368C42.4039,-128.817 61.4545,-109.233 80,-95 90.7344,-86.7618 103.428,-78.855 114.488,-72.4808"/>
<polygon fill="#63b8ff" stroke="#63b8ff" points="116.316,-75.4681 123.314,-67.5133 112.883,-69.3678 116.316,-75.4681"/>
</g>
<!-- Node9 -->
<g id="node9" class="node"><title>Node9</title>
<g id="a_node9"><a xlink:href="classore_1_1data_1_1_trade_monetary.html#affd40009e63f171e02eeb7ffcb3cfad2" target="_top" xlink:title=" ">
<polygon fill="white" stroke="#666666" points="205,-30 80,-30 80,-0 205,-0 205,-30"/>
<text text-anchor="start" x="88" y="-18" font-family="Helvetica,sans-Serif" font-size="10.00">ore::data::TradeMonetary</text>
<text text-anchor="middle" x="142.5" y="-7" font-family="Helvetica,sans-Serif" font-size="10.00">::toXMLNode</text>
</a>
</g>
</g>
<!-- Node1&#45;&gt;Node9 -->
<g id="edge10" class="edge"><title>Node1&#45;&gt;Node9</title>
<path fill="none" stroke="#63b8ff" d="M25.4595,-140.238C31.306,-118.936 47.9977,-67.8842 80,-39 81.2869,-37.8385 82.6364,-36.7305 84.0366,-35.6737"/>
<polygon fill="#63b8ff" stroke="#63b8ff" points="86.0434,-38.5438 92.5278,-30.1652 82.2337,-32.6713 86.0434,-38.5438"/>
</g>
<!-- Node2&#45;&gt;Node3 -->
<g id="edge2" class="edge"><title>Node2&#45;&gt;Node3</title>
<path fill="none" stroke="#63b8ff" d="M340.354,-238.051C348.543,-239.233 357.186,-240.48 365.8,-241.724"/>
<polygon fill="#63b8ff" stroke="#63b8ff" points="365.472,-245.213 375.87,-243.177 366.472,-238.284 365.472,-245.213"/>
</g>
<!-- Node4 -->
<g id="node4" class="node"><title>Node4</title>
<g id="a_node4"><a xlink:href="classore_1_1data_1_1_x_m_l_document.html#ae3474059e483990f3afea260096e5c90" target="_top" xlink:title=" ">
<polygon fill="white" stroke="#666666" points="660,-267 536,-267 536,-237 660,-237 660,-267"/>
<text text-anchor="start" x="544" y="-255" font-family="Helvetica,sans-Serif" font-size="10.00">ore::data::XMLDocument</text>
<text text-anchor="middle" x="598" y="-244" font-family="Helvetica,sans-Serif" font-size="10.00">::allocString</text>
</a>
</g>
</g>
<!-- Node3&#45;&gt;Node4 -->
<g id="edge3" class="edge"><title>Node3&#45;&gt;Node4</title>
<path fill="none" stroke="#63b8ff" d="M500.087,-252C508.513,-252 517.226,-252 525.815,-252"/>
<polygon fill="#63b8ff" stroke="#63b8ff" points="525.815,-255.5 535.815,-252 525.815,-248.5 525.815,-255.5"/>
</g>
<!-- Node8&#45;&gt;Node8 -->
<g id="edge9" class="edge"><title>Node8&#45;&gt;Node8</title>
<path fill="none" stroke="#63b8ff" d="M124.005,-67.5828C115.007,-76.2337 121.172,-85.5 142.5,-85.5 155.83,-85.5 163.237,-81.8804 164.721,-77.0536"/>
<polygon fill="#63b8ff" stroke="#63b8ff" points="167.913,-75.6074 160.995,-67.5828 161.399,-78.17 167.913,-75.6074"/>
</g>
<!-- Node9&#45;&gt;Node2 -->
<g id="edge11" class="edge"><title>Node9&#45;&gt;Node2</title>
<path fill="none" stroke="#63b8ff" d="M192.988,-30.1141C197.344,-32.6484 201.442,-35.59 205,-39 253.756,-85.7257 276.215,-165.496 284.892,-205.925"/>
<polygon fill="#63b8ff" stroke="#63b8ff" points="281.471,-206.669 286.897,-215.77 288.33,-205.272 281.471,-206.669"/>
</g>
</g>
</svg>
        <g id="navigator" transform="translate(0 0)" fill="#404254">
                <rect fill="#f2f5e9" fill-opacity="0.5" stroke="#606060" stroke-width=".5" x="0" y="0" width="60" height="60"/>
                <use id="zoomplus" xlink:href="#zoomPlus" x="17" y="9" onmousedown="handleZoom(evt,'in')"/>
                <use id="zoomminus" xlink:href="#zoomMin" x="42" y="9" onmousedown="handleZoom(evt,'out')"/>
                <use id="reset" xlink:href="#resetDef" x="30" y="36" onmousedown="handleReset()"/>
                <g id="arrowUp" xlink:href="#dirArrow" transform="translate(30 24)" onmousedown="handlePan(0,-1)">
                  <use xlink:href="#rim" fill="#404040">
                        <set attributeName="fill" to="#808080" begin="arrowUp.mouseover" end="arrowUp.mouseout"/>
                  </use>
                  <path fill="none" stroke="white" stroke-width="1.5" d="M0,-3.0v7 M-2.5,-0.5L0,-3.0L2.5,-0.5"/>
                </g>
                <g id="arrowRight" xlink:href="#dirArrow" transform="rotate(90) translate(36 -43)" onmousedown="handlePan(1,0)">
                  <use xlink:href="#rim" fill="#404040">
                        <set attributeName="fill" to="#808080" begin="arrowRight.mouseover" end="arrowRight.mouseout"/>
                  </use>
                  <path fill="none" stroke="white" stroke-width="1.5" d="M0,-3.0v7 M-2.5,-0.5L0,-3.0L2.5,-0.5"/>
                </g>
                <g id="arrowDown" xlink:href="#dirArrow" transform="rotate(180) translate(-30 -48)" onmousedown="handlePan(0,1)">
                  <use xlink:href="#rim" fill="#404040">
                        <set attributeName="fill" to="#808080" begin="arrowDown.mouseover" end="arrowDown.mouseout"/>
                  </use>
                  <path fill="none" stroke="white" stroke-width="1.5" d="M0,-3.0v7 M-2.5,-0.5L0,-3.0L2.5,-0.5"/>
                </g>
                <g id="arrowLeft" xlink:href="#dirArrow" transform="rotate(270) translate(-36 17)" onmousedown="handlePan(-1,0)">
                  <use xlink:href="#rim" fill="#404040">
                        <set attributeName="fill" to="#808080" begin="arrowLeft.mouseover" end="arrowLeft.mouseout"/>
                  </use>
                  <path fill="none" stroke="white" stroke-width="1.5" d="M0,-3.0v7 M-2.5,-0.5L0,-3.0L2.5,-0.5"/>
                </g>
        </g>
        <svg viewBox="0 0 15 15" width="100%" height="30px" preserveAspectRatio="xMaxYMin meet">
         <g id="arrow_out" transform="scale(0.3 0.3)">
          <a xlink:href="classore_1_1data_1_1_trade_strike_a7963e54dd2afe712b214bdf73bb35ecf_cgraph_org.svg" target="_base">
           <rect id="button" ry="5" rx="5" y="6" x="6" height="38" width="38"
                fill="#f2f5e9" fill-opacity="0.5" stroke="#606060" stroke-width="1.0"/>
           <path id="arrow"
             d="M 11.500037,31.436501 C 11.940474,20.09759 22.043105,11.32322 32.158766,21.979434 L 37.068811,17.246167 C 37.068811,17.246167 37.088388,32 37.088388,32 L 22.160133,31.978069 C 22.160133,31.978069 26.997745,27.140456 26.997745,27.140456 C 18.528582,18.264221 13.291696,25.230495 11.500037,31.436501 z"
             style="fill:#404040;"/>
          </a>
         </g>
        </svg>
</svg>
