<?xml version="1.0" encoding="UTF-8" standalone="no"?>
<!DOCTYPE svg PUBLIC "-//W3C//DTD SVG 1.1//EN"
 "http://www.w3.org/Graphics/SVG/1.1/DTD/svg11.dtd">
<!-- Generated by graphviz version 2.38.0 (20140413.2041)
 -->
<!-- Title: toXML Pages: 1 -->
<svg width="233pt" height="422pt"
 viewBox="0.00 0.00 233.00 422.00" xmlns="http://www.w3.org/2000/svg" xmlns:xlink="http://www.w3.org/1999/xlink">
<g id="graph0" class="graph" transform="scale(1 1) rotate(0) translate(4 418)">
<title>toXML</title>
<!-- Node1 -->
<g id="node1" class="node"><title>Node1</title>
<g id="a_node1"><a xlink:title=" ">
<polygon fill="#999999" stroke="#666666" points="225,-216.5 181,-216.5 181,-197.5 225,-197.5 225,-216.5"/>
<text text-anchor="middle" x="203" y="-204.5" font-family="Helvetica,sans-Serif" font-size="10.00">toXML</text>
</a>
</g>
</g>
<!-- Node2 -->
<g id="node2" class="node"><title>Node2</title>
<g id="a_node2"><a xlink:href="classore_1_1data_1_1_equity_option_with_barrier.html#a732254a57cc0734198825ab1f6420459" target="_top" xlink:title=" ">
<polygon fill="white" stroke="#666666" points="141,-414 4,-414 4,-384 141,-384 141,-414"/>
<text text-anchor="start" x="12" y="-402" font-family="Helvetica,sans-Serif" font-size="10.00">ore::data::EquityOptionWith</text>
<text text-anchor="middle" x="72.5" y="-391" font-family="Helvetica,sans-Serif" font-size="10.00">Barrier::additionalToXml</text>
</a>
</g>
</g>
<!-- Node1&#45;&gt;Node2 -->
<g id="edge1" class="edge"><title>Node1&#45;&gt;Node2</title>
<path fill="none" stroke="#63b8ff" d="M200.786,-227.236C197.609,-262.169 186.157,-333.977 145,-375 141.569,-378.42 137.636,-381.353 133.418,-383.868"/>
<polygon fill="#63b8ff" stroke="#63b8ff" points="204.304,-227.139 201.577,-216.901 197.324,-226.604 204.304,-227.139"/>
</g>
<!-- Node3 -->
<g id="node3" class="node"><title>Node3</title>
<g id="a_node3"><a xlink:href="classore_1_1data_1_1_accumulator.html#a7efefb9270d6c4933e4c96de0771f17a" target="_top" xlink:title=" ">
<polygon fill="white" stroke="#666666" points="130.5,-366 14.5,-366 14.5,-336 130.5,-336 130.5,-366"/>
<text text-anchor="start" x="22.5" y="-354" font-family="Helvetica,sans-Serif" font-size="10.00">ore::data::Accumulator</text>
<text text-anchor="middle" x="72.5" y="-343" font-family="Helvetica,sans-Serif" font-size="10.00">::toXML</text>
</a>
</g>
</g>
<!-- Node1&#45;&gt;Node3 -->
<g id="edge2" class="edge"><title>Node1&#45;&gt;Node3</title>
<path fill="none" stroke="#63b8ff" d="M197.762,-226.603C191.053,-253.048 175.497,-299.948 145,-327 140.69,-330.823 135.749,-334.041 130.522,-336.749"/>
<polygon fill="#63b8ff" stroke="#63b8ff" points="201.223,-227.175 200.114,-216.639 194.411,-225.568 201.223,-227.175"/>
</g>
<!-- Node4 -->
<g id="node4" class="node"><title>Node4</title>
<g id="a_node4"><a xlink:href="classore_1_1data_1_1_asian_option.html#a7efefb9270d6c4933e4c96de0771f17a" target="_top" xlink:title=" ">
<polygon fill="white" stroke="#666666" points="129.5,-318 15.5,-318 15.5,-288 129.5,-288 129.5,-318"/>
<text text-anchor="start" x="23.5" y="-306" font-family="Helvetica,sans-Serif" font-size="10.00">ore::data::AsianOption</text>
<text text-anchor="middle" x="72.5" y="-295" font-family="Helvetica,sans-Serif" font-size="10.00">::toXML</text>
</a>
</g>
</g>
<!-- Node1&#45;&gt;Node4 -->
<g id="edge3" class="edge"><title>Node1&#45;&gt;Node4</title>
<path fill="none" stroke="#63b8ff" d="M191.595,-225.519C181.595,-241.753 165.064,-264.902 145,-279 140.179,-282.388 134.843,-285.326 129.323,-287.868"/>
<polygon fill="#63b8ff" stroke="#63b8ff" points="194.626,-227.269 196.706,-216.88 188.602,-223.705 194.626,-227.269"/>
</g>
<!-- Node5 -->
<g id="node5" class="node"><title>Node5</title>
<g id="a_node5"><a xlink:href="classore_1_1data_1_1_basket_option.html#a7efefb9270d6c4933e4c96de0771f17a" target="_top" xlink:title=" ">
<polygon fill="white" stroke="#666666" points="132.5,-270 12.5,-270 12.5,-240 132.5,-240 132.5,-270"/>
<text text-anchor="start" x="20.5" y="-258" font-family="Helvetica,sans-Serif" font-size="10.00">ore::data::BasketOption</text>
<text text-anchor="middle" x="72.5" y="-247" font-family="Helvetica,sans-Serif" font-size="10.00">::toXML</text>
</a>
</g>
</g>
<!-- Node1&#45;&gt;Node5 -->
<g id="edge4" class="edge"><title>Node1&#45;&gt;Node5</title>
<path fill="none" stroke="#63b8ff" d="M171.541,-220.32C163.005,-223.917 153.685,-227.719 145,-231 137.038,-234.008 128.51,-237.035 120.216,-239.879"/>
<polygon fill="#63b8ff" stroke="#63b8ff" points="172.943,-223.527 180.769,-216.384 170.197,-217.088 172.943,-223.527"/>
</g>
<!-- Node6 -->
<g id="node6" class="node"><title>Node6</title>
<g id="a_node6"><a xlink:href="classore_1_1data_1_1_commodity_option.html#a7efefb9270d6c4933e4c96de0771f17a" target="_top" xlink:title=" ">
<polygon fill="white" stroke="#666666" points="142,-222 3,-222 3,-192 142,-192 142,-222"/>
<text text-anchor="start" x="11" y="-210" font-family="Helvetica,sans-Serif" font-size="10.00">ore::data::CommodityOption</text>
<text text-anchor="middle" x="72.5" y="-199" font-family="Helvetica,sans-Serif" font-size="10.00">::toXML</text>
</a>
</g>
</g>
<!-- Node1&#45;&gt;Node6 -->
<g id="edge5" class="edge"><title>Node1&#45;&gt;Node6</title>
<path fill="none" stroke="#63b8ff" d="M170.764,-207C162.046,-207 152.214,-207 142.238,-207"/>
<polygon fill="#63b8ff" stroke="#63b8ff" points="170.781,-210.5 180.781,-207 170.781,-203.5 170.781,-210.5"/>
</g>
<!-- Node7 -->
<g id="node7" class="node"><title>Node7</title>
<g id="a_node7"><a xlink:href="classore_1_1data_1_1_equity_european_barrier_option.html#a7efefb9270d6c4933e4c96de0771f17a" target="_top" xlink:title=" ">
<polygon fill="white" stroke="#666666" points="137.5,-174 7.5,-174 7.5,-144 137.5,-144 137.5,-174"/>
<text text-anchor="start" x="15.5" y="-162" font-family="Helvetica,sans-Serif" font-size="10.00">ore::data::EquityEuropean</text>
<text text-anchor="middle" x="72.5" y="-151" font-family="Helvetica,sans-Serif" font-size="10.00">BarrierOption::toXML</text>
</a>
</g>
</g>
<!-- Node1&#45;&gt;Node7 -->
<g id="edge6" class="edge"><title>Node1&#45;&gt;Node7</title>
<path fill="none" stroke="#63b8ff" d="M171.541,-193.68C163.005,-190.083 153.685,-186.281 145,-183 137.038,-179.992 128.51,-176.965 120.216,-174.121"/>
<polygon fill="#63b8ff" stroke="#63b8ff" points="170.197,-196.912 180.769,-197.616 172.943,-190.473 170.197,-196.912"/>
</g>
<!-- Node8 -->
<g id="node8" class="node"><title>Node8</title>
<g id="a_node8"><a xlink:href="classore_1_1data_1_1_equity_future_option.html#a7efefb9270d6c4933e4c96de0771f17a" target="_top" xlink:title=" ">
<polygon fill="white" stroke="#666666" points="145,-126 0,-126 0,-96 145,-96 145,-126"/>
<text text-anchor="start" x="8" y="-114" font-family="Helvetica,sans-Serif" font-size="10.00">ore::data::EquityFutureOption</text>
<text text-anchor="middle" x="72.5" y="-103" font-family="Helvetica,sans-Serif" font-size="10.00">::toXML</text>
</a>
</g>
</g>
<!-- Node1&#45;&gt;Node8 -->
<g id="edge7" class="edge"><title>Node1&#45;&gt;Node8</title>
<path fill="none" stroke="#63b8ff" d="M191.595,-188.481C181.595,-172.247 165.064,-149.098 145,-135 140.179,-131.612 134.843,-128.674 129.323,-126.132"/>
<polygon fill="#63b8ff" stroke="#63b8ff" points="188.602,-190.295 196.706,-197.12 194.626,-186.731 188.602,-190.295"/>
</g>
<!-- Node9 -->
<g id="node9" class="node"><title>Node9</title>
<g id="a_node9"><a xlink:href="classore_1_1data_1_1_equity_option.html#a7efefb9270d6c4933e4c96de0771f17a" target="_top" xlink:title=" ">
<polygon fill="white" stroke="#666666" points="131,-78 14,-78 14,-48 131,-48 131,-78"/>
<text text-anchor="start" x="22" y="-66" font-family="Helvetica,sans-Serif" font-size="10.00">ore::data::EquityOption</text>
<text text-anchor="middle" x="72.5" y="-55" font-family="Helvetica,sans-Serif" font-size="10.00">::toXML</text>
</a>
</g>
</g>
<!-- Node1&#45;&gt;Node9 -->
<g id="edge8" class="edge"><title>Node1&#45;&gt;Node9</title>
<path fill="none" stroke="#63b8ff" d="M197.762,-187.397C191.053,-160.952 175.497,-114.052 145,-87 140.886,-83.3507 136.197,-80.2528 131.233,-77.6237"/>
<polygon fill="#63b8ff" stroke="#63b8ff" points="194.411,-188.432 200.114,-197.361 201.223,-186.825 194.411,-188.432"/>
</g>
<!-- Node10 -->
<g id="node10" class="node"><title>Node10</title>
<g id="a_node10"><a xlink:href="classore_1_1data_1_1_window_barrier_option.html#a7efefb9270d6c4933e4c96de0771f17a" target="_top" xlink:title=" ">
<polygon fill="white" stroke="#666666" points="134.5,-30 10.5,-30 10.5,-0 134.5,-0 134.5,-30"/>
<text text-anchor="start" x="18.5" y="-18" font-family="Helvetica,sans-Serif" font-size="10.00">ore::data::WindowBarrier</text>
<text text-anchor="middle" x="72.5" y="-7" font-family="Helvetica,sans-Serif" font-size="10.00">Option::toXML</text>
</a>
</g>
</g>
<!-- Node1&#45;&gt;Node10 -->
<g id="edge9" class="edge"><title>Node1&#45;&gt;Node10</title>
<path fill="none" stroke="#63b8ff" d="M200.786,-186.764C197.609,-151.831 186.157,-80.0234 145,-39 141.569,-35.5798 137.636,-32.647 133.418,-30.132"/>
<polygon fill="#63b8ff" stroke="#63b8ff" points="197.324,-187.396 201.577,-197.099 204.304,-186.861 197.324,-187.396"/>
</g>
</g>
</svg>
