<?xml version="1.0" encoding="UTF-8" standalone="no"?>
<!DOCTYPE svg PUBLIC "-//W3C//DTD SVG 1.1//EN"
 "http://www.w3.org/Graphics/SVG/1.1/DTD/svg11.dtd">
<!-- Generated by graphviz version 2.38.0 (20140413.2041)
 -->
<!-- Title: InfJyBuilder Pages: 1 -->
<svg width="898pt" height="804pt"
 viewBox="0.00 0.00 898.00 804.00" xmlns="http://www.w3.org/2000/svg" xmlns:xlink="http://www.w3.org/1999/xlink">
<g id="graph0" class="graph" transform="scale(1 1) rotate(0) translate(4 800)">
<title>InfJyBuilder</title>
<!-- Node1 -->
<g id="node1" class="node"><title>Node1</title>
<g id="a_node1"><a xlink:title=" ">
<polygon fill="#999999" stroke="#666666" points="66,-191.5 0,-191.5 0,-172.5 66,-172.5 66,-191.5"/>
<text text-anchor="middle" x="33" y="-179.5" font-family="Helvetica,sans-Serif" font-size="10.00">InfJyBuilder</text>
</a>
</g>
</g>
<!-- Node2 -->
<g id="node2" class="node"><title>Node2</title>
<g id="a_node2"><a xlink:href="classore_1_1data_1_1_inf_jy_builder.html#a935e1c16b02ca6dbe5e1e5f32882b2c7" target="_top" xlink:title="Build any calibration baskets requested by the configuration i.e. via the data_ member.">
<polygon fill="white" stroke="#666666" points="221,-380.5 102,-380.5 102,-361.5 221,-361.5 221,-380.5"/>
<text text-anchor="middle" x="161.5" y="-368.5" font-family="Helvetica,sans-Serif" font-size="10.00">buildCalibrationBaskets</text>
</a>
</g>
</g>
<!-- Node1&#45;&gt;Node2 -->
<g id="edge1" class="edge"><title>Node1&#45;&gt;Node2</title>
<path fill="none" stroke="#63b8ff" d="M40.4471,-191.632C60.4899,-221.578 121.941,-313.39 148.293,-352.761"/>
<polygon fill="#63b8ff" stroke="#63b8ff" points="145.443,-354.797 153.914,-361.16 151.261,-350.903 145.443,-354.797"/>
</g>
<!-- Node24 -->
<g id="node24" class="node"><title>Node24</title>
<g id="a_node24"><a xlink:href="classore_1_1data_1_1_inf_jy_builder.html#ac1ee56313b677fe9f5a81bd624030030" target="_top" xlink:title="Create the inflation index parameterisation.">
<polygon fill="white" stroke="#666666" points="209,-229.5 114,-229.5 114,-210.5 209,-210.5 209,-229.5"/>
<text text-anchor="middle" x="161.5" y="-217.5" font-family="Helvetica,sans-Serif" font-size="10.00">createIndexParam</text>
</a>
</g>
</g>
<!-- Node1&#45;&gt;Node24 -->
<g id="edge32" class="edge"><title>Node1&#45;&gt;Node24</title>
<path fill="none" stroke="#63b8ff" d="M65.9213,-191.589C81.9516,-196.404 101.574,-202.299 118.782,-207.468"/>
<polygon fill="#63b8ff" stroke="#63b8ff" points="118.005,-210.889 128.589,-210.414 120.019,-204.185 118.005,-210.889"/>
</g>
<!-- Node29 -->
<g id="node29" class="node"><title>Node29</title>
<g id="a_node29"><a xlink:href="classore_1_1data_1_1_inf_jy_builder.html#a8b5569dab308b4dac0cf78307e3189ff" target="_top" xlink:title="Create the real rate parameterisation.">
<polygon fill="white" stroke="#666666" points="217.5,-153.5 105.5,-153.5 105.5,-134.5 217.5,-134.5 217.5,-153.5"/>
<text text-anchor="middle" x="161.5" y="-141.5" font-family="Helvetica,sans-Serif" font-size="10.00">createRealRateParam</text>
</a>
</g>
</g>
<!-- Node1&#45;&gt;Node29 -->
<g id="edge41" class="edge"><title>Node1&#45;&gt;Node29</title>
<path fill="none" stroke="#63b8ff" d="M65.9213,-172.411C81.9516,-167.596 101.574,-161.701 118.782,-156.532"/>
<polygon fill="#63b8ff" stroke="#63b8ff" points="120.019,-159.815 128.589,-153.586 118.005,-153.111 120.019,-159.815"/>
</g>
<!-- Node32 -->
<g id="node32" class="node"><title>Node32</title>
<g id="a_node32"><a xlink:href="classore_1_1data_1_1_inf_jy_builder.html#a653cb2f17648c48732f61cf3ceb947fb" target="_top" xlink:title="Attempt to initialise market data members that may be needed for building calibration instruments.">
<polygon fill="white" stroke="#666666" points="202.5,-116.5 120.5,-116.5 120.5,-97.5 202.5,-97.5 202.5,-116.5"/>
<text text-anchor="middle" x="161.5" y="-104.5" font-family="Helvetica,sans-Serif" font-size="10.00">initialiseMarket</text>
</a>
</g>
</g>
<!-- Node1&#45;&gt;Node32 -->
<g id="edge47" class="edge"><title>Node1&#45;&gt;Node32</title>
<path fill="none" stroke="#63b8ff" d="M43.213,-172.143C55.5006,-159.536 78.4526,-137.805 102,-125 105.224,-123.247 108.642,-121.64 112.144,-120.17"/>
<polygon fill="#63b8ff" stroke="#63b8ff" points="113.431,-123.425 121.532,-116.598 110.941,-116.883 113.431,-123.425"/>
</g>
<!-- Node3 -->
<g id="node3" class="node"><title>Node3</title>
<g id="a_node3"><a xlink:href="classore_1_1data_1_1_inf_jy_builder.html#a04274cbe5a4625db825e42c300eef575" target="_top" xlink:title="Build the calibration basket.">
<polygon fill="white" stroke="#666666" points="387.5,-464.5 274.5,-464.5 274.5,-445.5 387.5,-445.5 387.5,-464.5"/>
<text text-anchor="middle" x="331" y="-452.5" font-family="Helvetica,sans-Serif" font-size="10.00">buildCalibrationBasket</text>
</a>
</g>
</g>
<!-- Node2&#45;&gt;Node3 -->
<g id="edge2" class="edge"><title>Node2&#45;&gt;Node3</title>
<path fill="none" stroke="#63b8ff" d="M178.989,-380.665C197.662,-391.47 229.12,-409.253 257,-423 270.055,-429.437 284.706,-435.987 297.438,-441.47"/>
<polygon fill="#63b8ff" stroke="#63b8ff" points="296.17,-444.734 306.741,-445.435 298.915,-438.295 296.17,-444.734"/>
</g>
<!-- Node21 -->
<g id="node21" class="node"><title>Node21</title>
<g id="a_node21"><a xlink:href="classore_1_1data_1_1_model_parameter.html#aacf0933dd9d459ffbedbac265f3269b5" target="_top" xlink:title=" ">
<polygon fill="white" stroke="#666666" points="575.5,-331 443.5,-331 443.5,-301 575.5,-301 575.5,-331"/>
<text text-anchor="start" x="451.5" y="-319" font-family="Helvetica,sans-Serif" font-size="10.00">ore::data::ModelParameter</text>
<text text-anchor="middle" x="509.5" y="-308" font-family="Helvetica,sans-Serif" font-size="10.00">::calibrate</text>
</a>
</g>
</g>
<!-- Node2&#45;&gt;Node21 -->
<g id="edge29" class="edge"><title>Node2&#45;&gt;Node21</title>
<path fill="none" stroke="#63b8ff" d="M185.8,-380.506C230.942,-397.335 332.272,-427.254 405,-390 429.372,-377.516 419.105,-356.445 441,-340 442.858,-338.604 444.805,-337.284 446.818,-336.037"/>
<polygon fill="#63b8ff" stroke="#63b8ff" points="448.897,-338.888 455.99,-331.018 445.537,-332.747 448.897,-338.888"/>
</g>
<!-- Node22 -->
<g id="node22" class="node"><title>Node22</title>
<g id="a_node22"><a xlink:href="classore_1_1data_1_1_inf_jy_builder.html#a3bc0c8081ffc221edaa8f90c065a2747" target="_top" xlink:title="Find calibration basket with parameter value equal to parameter.">
<polygon fill="white" stroke="#666666" points="377,-380.5 285,-380.5 285,-361.5 377,-361.5 377,-380.5"/>
<text text-anchor="middle" x="331" y="-368.5" font-family="Helvetica,sans-Serif" font-size="10.00">calibrationBasket</text>
</a>
</g>
</g>
<!-- Node2&#45;&gt;Node22 -->
<g id="edge30" class="edge"><title>Node2&#45;&gt;Node22</title>
<path fill="none" stroke="#63b8ff" d="M221.083,-371C238.427,-371 257.359,-371 274.501,-371"/>
<polygon fill="#63b8ff" stroke="#63b8ff" points="274.913,-374.5 284.913,-371 274.913,-367.5 274.913,-374.5"/>
</g>
<!-- Node23 -->
<g id="node23" class="node"><title>Node23</title>
<g id="a_node23"><a xlink:href="namespaceore_1_1data.html#a777e216dee6069b548bb87da7152699e" target="_top" xlink:title=" ">
<polygon fill="white" stroke="#666666" points="370.5,-343.5 291.5,-343.5 291.5,-324.5 370.5,-324.5 370.5,-343.5"/>
<text text-anchor="middle" x="331" y="-331.5" font-family="Helvetica,sans-Serif" font-size="10.00">ore::data::size</text>
</a>
</g>
</g>
<!-- Node2&#45;&gt;Node23 -->
<g id="edge31" class="edge"><title>Node2&#45;&gt;Node23</title>
<path fill="none" stroke="#63b8ff" d="M205.635,-361.472C228.79,-356.357 257.41,-350.035 281.355,-344.746"/>
<polygon fill="#63b8ff" stroke="#63b8ff" points="282.291,-348.123 291.301,-342.548 280.781,-341.288 282.291,-348.123"/>
</g>
<!-- Node4 -->
<g id="node4" class="node"><title>Node4</title>
<g id="a_node4"><a xlink:href="classore_1_1data_1_1_inf_jy_builder.html#a69c1e8a74b5a706e29821a070c83907d" target="_top" xlink:title="Build a CPI cap floor calibration basket.">
<polygon fill="white" stroke="#666666" points="570,-625.5 449,-625.5 449,-606.5 570,-606.5 570,-625.5"/>
<text text-anchor="middle" x="509.5" y="-613.5" font-family="Helvetica,sans-Serif" font-size="10.00">buildCpiCapFloorBasket</text>
</a>
</g>
</g>
<!-- Node3&#45;&gt;Node4 -->
<g id="edge3" class="edge"><title>Node3&#45;&gt;Node4</title>
<path fill="none" stroke="#63b8ff" d="M342.512,-464.589C371.628,-491.148 453.585,-565.908 490.307,-599.404"/>
<polygon fill="#63b8ff" stroke="#63b8ff" points="488.073,-602.104 497.82,-606.258 492.79,-596.932 488.073,-602.104"/>
</g>
<!-- Node10 -->
<g id="node10" class="node"><title>Node10</title>
<g id="a_node10"><a xlink:href="classore_1_1data_1_1_calibration_basket.html#aadb5e6dbce35a5826e9760541a5447f8" target="_top" xlink:title=" ">
<polygon fill="white" stroke="#666666" points="753,-465 616,-465 616,-435 753,-435 753,-465"/>
<text text-anchor="start" x="624" y="-453" font-family="Helvetica,sans-Serif" font-size="10.00">ore::data::CalibrationBasket</text>
<text text-anchor="middle" x="684.5" y="-442" font-family="Helvetica,sans-Serif" font-size="10.00">::instruments</text>
</a>
</g>
</g>
<!-- Node3&#45;&gt;Node10 -->
<g id="edge27" class="edge"><title>Node3&#45;&gt;Node10</title>
<path fill="none" stroke="#63b8ff" d="M387.696,-454.208C446.405,-453.373 539.349,-452.051 605.372,-451.111"/>
<polygon fill="#63b8ff" stroke="#63b8ff" points="605.779,-454.606 615.728,-450.964 605.679,-447.607 605.779,-454.606"/>
</g>
<!-- Node15 -->
<g id="node15" class="node"><title>Node15</title>
<g id="a_node15"><a xlink:href="classore_1_1data_1_1_inf_jy_builder.html#a62a24690024d3d23ae7d3f880eef8ef2" target="_top" xlink:title="Build a YoY cap floor calibration basket.">
<polygon fill="white" stroke="#666666" points="572,-542.5 447,-542.5 447,-523.5 572,-523.5 572,-542.5"/>
<text text-anchor="middle" x="509.5" y="-530.5" font-family="Helvetica,sans-Serif" font-size="10.00">buildYoYCapFloorBasket</text>
</a>
</g>
</g>
<!-- Node3&#45;&gt;Node15 -->
<g id="edge14" class="edge"><title>Node3&#45;&gt;Node15</title>
<path fill="none" stroke="#63b8ff" d="M348.176,-464.642C369.081,-476.823 406.854,-497.895 441,-512 448.338,-515.031 456.277,-517.871 464.045,-520.423"/>
<polygon fill="#63b8ff" stroke="#63b8ff" points="463.145,-523.809 473.736,-523.494 465.26,-517.137 463.145,-523.809"/>
</g>
<!-- Node17 -->
<g id="node17" class="node"><title>Node17</title>
<g id="a_node17"><a xlink:href="classore_1_1data_1_1_inf_jy_builder.html#a133d1dc488d0f63362752706f448007e" target="_top" xlink:title="Build a YoY swap calibration basket.">
<polygon fill="white" stroke="#666666" points="564.5,-502.5 454.5,-502.5 454.5,-483.5 564.5,-483.5 564.5,-502.5"/>
<text text-anchor="middle" x="509.5" y="-490.5" font-family="Helvetica,sans-Serif" font-size="10.00">buildYoYSwapBasket</text>
</a>
</g>
</g>
<!-- Node3&#45;&gt;Node17 -->
<g id="edge21" class="edge"><title>Node3&#45;&gt;Node17</title>
<path fill="none" stroke="#63b8ff" d="M376.538,-464.589C400.144,-469.671 429.332,-475.955 454.251,-481.32"/>
<polygon fill="#63b8ff" stroke="#63b8ff" points="453.769,-484.797 464.282,-483.48 455.243,-477.954 453.769,-484.797"/>
</g>
<!-- Node19 -->
<g id="node19" class="node"><title>Node19</title>
<g id="a_node19"><a xlink:href="classore_1_1data_1_1_calibration_basket.html#a644718bb2fb240de962dc3c9a1fdf0dc" target="_top" xlink:title="Returns true if the calibration basket is empty.">
<polygon fill="white" stroke="#666666" points="578,-427 441,-427 441,-397 578,-397 578,-427"/>
<text text-anchor="start" x="449" y="-415" font-family="Helvetica,sans-Serif" font-size="10.00">ore::data::CalibrationBasket</text>
<text text-anchor="middle" x="509.5" y="-404" font-family="Helvetica,sans-Serif" font-size="10.00">::empty</text>
</a>
</g>
</g>
<!-- Node3&#45;&gt;Node19 -->
<g id="edge26" class="edge"><title>Node3&#45;&gt;Node19</title>
<path fill="none" stroke="#63b8ff" d="M371.171,-445.457C390.545,-440.737 414.547,-434.889 437.039,-429.41"/>
<polygon fill="#63b8ff" stroke="#63b8ff" points="438.017,-432.774 446.904,-427.006 436.36,-425.973 438.017,-432.774"/>
</g>
<!-- Node20 -->
<g id="node20" class="node"><title>Node20</title>
<g id="a_node20"><a xlink:href="classore_1_1data_1_1_calibration_basket.html#aa525cac0662eacaed44a94894b9a002a" target="_top" xlink:title=" ">
<polygon fill="white" stroke="#666666" points="578,-379 441,-379 441,-349 578,-349 578,-379"/>
<text text-anchor="start" x="449" y="-367" font-family="Helvetica,sans-Serif" font-size="10.00">ore::data::CalibrationBasket</text>
<text text-anchor="middle" x="509.5" y="-356" font-family="Helvetica,sans-Serif" font-size="10.00">::instrumentType</text>
</a>
</g>
</g>
<!-- Node3&#45;&gt;Node20 -->
<g id="edge28" class="edge"><title>Node3&#45;&gt;Node20</title>
<path fill="none" stroke="#63b8ff" d="M359.901,-445.486C374.039,-440.007 391.108,-432.346 405,-423 423.515,-410.543 422.051,-399.787 441,-388 443.609,-386.377 446.343,-384.844 449.153,-383.398"/>
<polygon fill="#63b8ff" stroke="#63b8ff" points="450.775,-386.504 458.331,-379.077 447.793,-380.171 450.775,-386.504"/>
</g>
<!-- Node5 -->
<g id="node5" class="node"><title>Node5</title>
<g id="a_node5"><a xlink:href="namespaceore_1_1data.html#af404ba79b74e89755049cec81e49dd61" target="_top" xlink:title="Return a cpi cap/floor strike value, the input strike can be of type absolute or atm forward.">
<polygon fill="white" stroke="#666666" points="753.5,-796 615.5,-796 615.5,-766 753.5,-766 753.5,-796"/>
<text text-anchor="start" x="623.5" y="-784" font-family="Helvetica,sans-Serif" font-size="10.00">ore::data::cpiCapFloorStrike</text>
<text text-anchor="middle" x="684.5" y="-773" font-family="Helvetica,sans-Serif" font-size="10.00">Value</text>
</a>
</g>
</g>
<!-- Node4&#45;&gt;Node5 -->
<g id="edge4" class="edge"><title>Node4&#45;&gt;Node5</title>
<path fill="none" stroke="#63b8ff" d="M515.039,-625.788C527.31,-651.204 563.641,-719.892 614,-757 615.879,-758.384 617.843,-759.693 619.872,-760.931"/>
<polygon fill="#63b8ff" stroke="#63b8ff" points="618.648,-764.247 629.112,-765.909 621.969,-758.084 618.648,-764.247"/>
</g>
<!-- Node7 -->
<g id="node7" class="node"><title>Node7</title>
<g id="a_node7"><a target="_parent" xlink:href="../qle/namespace_quant_ext_1_1_zero_inflation.html#a57de786c1c8988b6da9d354282b4b370" xlink:title=" ">
<polygon fill="white" stroke="#666666" points="714,-625.5 655,-625.5 655,-606.5 714,-606.5 714,-625.5"/>
<text text-anchor="middle" x="684.5" y="-613.5" font-family="Helvetica,sans-Serif" font-size="10.00">fixingDate</text>
</a>
</g>
</g>
<!-- Node4&#45;&gt;Node7 -->
<g id="edge6" class="edge"><title>Node4&#45;&gt;Node7</title>
<path fill="none" stroke="#63b8ff" d="M570.037,-616C594.731,-616 622.684,-616 644.665,-616"/>
<polygon fill="#63b8ff" stroke="#63b8ff" points="644.936,-619.5 654.936,-616 644.936,-612.5 644.936,-619.5"/>
</g>
<!-- Node8 -->
<g id="node8" class="node"><title>Node8</title>
<g id="a_node8"><a xlink:href="classore_1_1data_1_1_inf_jy_builder.html#ad22960d15d32d9e5be44c045744d8a3a" target="_top" xlink:title=" ">
<polygon fill="white" stroke="#666666" points="721,-662.5 648,-662.5 648,-643.5 721,-643.5 721,-662.5"/>
<text text-anchor="middle" x="684.5" y="-650.5" font-family="Helvetica,sans-Serif" font-size="10.00">inflationIndex</text>
</a>
</g>
</g>
<!-- Node4&#45;&gt;Node8 -->
<g id="edge7" class="edge"><title>Node4&#45;&gt;Node8</title>
<path fill="none" stroke="#63b8ff" d="M555.052,-625.528C580.506,-630.972 612.354,-637.784 637.97,-643.262"/>
<polygon fill="#63b8ff" stroke="#63b8ff" points="637.301,-646.698 647.812,-645.367 638.765,-639.853 637.301,-646.698"/>
</g>
<!-- Node9 -->
<g id="node9" class="node"><title>Node9</title>
<g id="a_node9"><a target="_parent" xlink:href="../qle/namespace_quant_ext.html#a78aebbc0de375f5058e2837300a8c038" xlink:title=" ">
<polygon fill="white" stroke="#666666" points="720,-588.5 649,-588.5 649,-569.5 720,-569.5 720,-588.5"/>
<text text-anchor="middle" x="684.5" y="-576.5" font-family="Helvetica,sans-Serif" font-size="10.00">inflationTime</text>
</a>
</g>
</g>
<!-- Node4&#45;&gt;Node9 -->
<g id="edge8" class="edge"><title>Node4&#45;&gt;Node9</title>
<path fill="none" stroke="#63b8ff" d="M555.052,-606.472C580.859,-600.952 613.24,-594.027 639.034,-588.51"/>
<polygon fill="#63b8ff" stroke="#63b8ff" points="639.879,-591.909 648.926,-586.394 638.415,-585.063 639.879,-591.909"/>
</g>
<!-- Node4&#45;&gt;Node10 -->
<g id="edge9" class="edge"><title>Node4&#45;&gt;Node10</title>
<path fill="none" stroke="#63b8ff" d="M523.32,-606.313C538.022,-594.692 562.133,-574.007 578,-552 600.094,-521.356 586.087,-500.456 614,-475 615.732,-473.42 617.571,-471.939 619.493,-470.55"/>
<polygon fill="#63b8ff" stroke="#63b8ff" points="621.73,-473.281 628.377,-465.03 618.036,-467.335 621.73,-473.281"/>
</g>
<!-- Node11 -->
<g id="node11" class="node"><title>Node11</title>
<g id="a_node11"><a target="_parent" xlink:href="../qle/namespace_quant_ext_1_1_zero_inflation.html#ad1e7470dcdc1728ec6bca3266b35c85a" xlink:title=" ">
<polygon fill="white" stroke="#666666" points="754.5,-748 614.5,-748 614.5,-718 754.5,-718 754.5,-748"/>
<text text-anchor="start" x="622.5" y="-736" font-family="Helvetica,sans-Serif" font-size="10.00">QuantExt::ZeroInflation</text>
<text text-anchor="middle" x="684.5" y="-725" font-family="Helvetica,sans-Serif" font-size="10.00">::isCPIVolSurfaceLogNormal</text>
</a>
</g>
</g>
<!-- Node4&#45;&gt;Node11 -->
<g id="edge10" class="edge"><title>Node4&#45;&gt;Node11</title>
<path fill="none" stroke="#63b8ff" d="M518.666,-625.538C535.002,-644.072 573.618,-685.217 614,-709 616.86,-710.684 619.856,-712.274 622.93,-713.771"/>
<polygon fill="#63b8ff" stroke="#63b8ff" points="621.777,-717.09 632.334,-717.986 624.64,-710.702 621.777,-717.09"/>
</g>
<!-- Node12 -->
<g id="node12" class="node"><title>Node12</title>
<g id="a_node12"><a xlink:href="namespaceore_1_1data.html#aa9698dcef891a7e39357dba10d3b1276" target="_top" xlink:title=" ">
<polygon fill="white" stroke="#666666" points="745.5,-699.5 623.5,-699.5 623.5,-680.5 745.5,-680.5 745.5,-699.5"/>
<text text-anchor="middle" x="684.5" y="-687.5" font-family="Helvetica,sans-Serif" font-size="10.00">ore::data::optionMaturity</text>
</a>
</g>
</g>
<!-- Node4&#45;&gt;Node12 -->
<g id="edge11" class="edge"><title>Node4&#45;&gt;Node12</title>
<path fill="none" stroke="#63b8ff" d="M525.372,-625.551C544.992,-637.795 580.918,-658.99 614,-672 619.147,-674.024 624.598,-675.888 630.093,-677.585"/>
<polygon fill="#63b8ff" stroke="#63b8ff" points="629.395,-681.027 639.975,-680.46 631.351,-674.306 629.395,-681.027"/>
</g>
<!-- Node13 -->
<g id="node13" class="node"><title>Node13</title>
<g id="a_node13"><a xlink:href="classore_1_1data_1_1_inf_jy_builder.html#acc7b35fae386b8e18ed5b7a4bbe99cea" target="_top" xlink:title="Create the reference calibration dates.">
<polygon fill="white" stroke="#666666" points="748.5,-502.5 620.5,-502.5 620.5,-483.5 748.5,-483.5 748.5,-502.5"/>
<text text-anchor="middle" x="684.5" y="-490.5" font-family="Helvetica,sans-Serif" font-size="10.00">referenceCalibrationDates</text>
</a>
</g>
</g>
<!-- Node4&#45;&gt;Node13 -->
<g id="edge12" class="edge"><title>Node4&#45;&gt;Node13</title>
<path fill="none" stroke="#63b8ff" d="M521.272,-606.276C534.809,-593.946 558.616,-571.894 578,-552 594.691,-534.87 593.64,-524.551 614,-512 617.436,-509.882 621.109,-507.996 624.906,-506.318"/>
<polygon fill="#63b8ff" stroke="#63b8ff" points="626.492,-509.456 634.534,-502.558 623.946,-502.935 626.492,-509.456"/>
</g>
<!-- Node6 -->
<g id="node6" class="node"><title>Node6</title>
<g id="a_node6"><a target="_parent" xlink:href="../qle/namespace_quant_ext.html#a9af2048ec25ea1962eda9a08b70acbc3" xlink:title=" ">
<polygon fill="white" stroke="#666666" points="856.5,-667.5 824.5,-667.5 824.5,-648.5 856.5,-648.5 856.5,-667.5"/>
<text text-anchor="middle" x="840.5" y="-655.5" font-family="Helvetica,sans-Serif" font-size="10.00">abs</text>
</a>
</g>
</g>
<!-- Node5&#45;&gt;Node6 -->
<g id="edge5" class="edge"><title>Node5&#45;&gt;Node6</title>
<path fill="none" stroke="#63b8ff" d="M738.92,-765.888C744.563,-763.327 750.043,-760.38 755,-757 787.02,-735.17 814.062,-698.158 828.424,-676.103"/>
<polygon fill="#63b8ff" stroke="#63b8ff" points="831.382,-677.974 833.781,-667.654 825.47,-674.225 831.382,-677.974"/>
</g>
<!-- Node14 -->
<g id="node14" class="node"><title>Node14</title>
<g id="a_node14"><a xlink:href="classore_1_1data_1_1_date_grid.html#aca8cf8d394b2ce6e3662fe8a9db4a466" target="_top" xlink:title=" ">
<polygon fill="white" stroke="#666666" points="890,-508 791,-508 791,-478 890,-478 890,-508"/>
<text text-anchor="start" x="799" y="-496" font-family="Helvetica,sans-Serif" font-size="10.00">ore::data::DateGrid</text>
<text text-anchor="middle" x="840.5" y="-485" font-family="Helvetica,sans-Serif" font-size="10.00">::dates</text>
</a>
</g>
</g>
<!-- Node13&#45;&gt;Node14 -->
<g id="edge13" class="edge"><title>Node13&#45;&gt;Node14</title>
<path fill="none" stroke="#63b8ff" d="M748.582,-493C759.173,-493 770.127,-493 780.607,-493"/>
<polygon fill="#63b8ff" stroke="#63b8ff" points="780.897,-496.5 790.897,-493 780.897,-489.5 780.897,-496.5"/>
</g>
<!-- Node15&#45;&gt;Node7 -->
<g id="edge15" class="edge"><title>Node15&#45;&gt;Node7</title>
<path fill="none" stroke="#63b8ff" d="M522.864,-542.553C541.597,-556.597 578.733,-582.794 614,-598 623.7,-602.182 634.595,-605.568 644.83,-608.227"/>
<polygon fill="#63b8ff" stroke="#63b8ff" points="644.232,-611.684 654.776,-610.645 645.886,-604.882 644.232,-611.684"/>
</g>
<!-- Node15&#45;&gt;Node9 -->
<g id="edge16" class="edge"><title>Node15&#45;&gt;Node9</title>
<path fill="none" stroke="#63b8ff" d="M546.346,-542.531C573.259,-549.687 610.275,-559.53 639.069,-567.186"/>
<polygon fill="#63b8ff" stroke="#63b8ff" points="638.317,-570.608 648.881,-569.795 640.116,-563.843 638.317,-570.608"/>
</g>
<!-- Node15&#45;&gt;Node10 -->
<g id="edge17" class="edge"><title>Node15&#45;&gt;Node10</title>
<path fill="none" stroke="#63b8ff" d="M552.603,-523.452C561.353,-520.508 570.259,-516.75 578,-512 597.556,-500.001 594.711,-487.424 614,-475 617.093,-473.008 620.365,-471.149 623.738,-469.417"/>
<polygon fill="#63b8ff" stroke="#63b8ff" points="625.29,-472.555 632.846,-465.129 622.308,-466.222 625.29,-472.555"/>
</g>
<!-- Node15&#45;&gt;Node13 -->
<g id="edge18" class="edge"><title>Node15&#45;&gt;Node13</title>
<path fill="none" stroke="#63b8ff" d="M551.938,-523.419C576.118,-517.828 606.815,-510.731 632.475,-504.798"/>
<polygon fill="#63b8ff" stroke="#63b8ff" points="633.446,-508.166 642.4,-502.503 631.869,-501.346 633.446,-508.166"/>
</g>
<!-- Node16 -->
<g id="node16" class="node"><title>Node16</title>
<g id="a_node16"><a xlink:href="namespaceore_1_1data.html#a1e1fac0190b6d1bab00cb4a76fe22b1e" target="_top" xlink:title="Return a yoy cap/floor strike value, the input strike can be of type absolute or atm forward.">
<polygon fill="white" stroke="#666666" points="755,-551 614,-551 614,-521 755,-521 755,-551"/>
<text text-anchor="start" x="622" y="-539" font-family="Helvetica,sans-Serif" font-size="10.00">ore::data::yoyCapFloorStrike</text>
<text text-anchor="middle" x="684.5" y="-528" font-family="Helvetica,sans-Serif" font-size="10.00">Value</text>
</a>
</g>
</g>
<!-- Node15&#45;&gt;Node16 -->
<g id="edge19" class="edge"><title>Node15&#45;&gt;Node16</title>
<path fill="none" stroke="#63b8ff" d="M572.468,-534.075C582.608,-534.25 593.237,-534.435 603.734,-534.617"/>
<polygon fill="#63b8ff" stroke="#63b8ff" points="603.677,-538.116 613.736,-534.79 603.798,-531.117 603.677,-538.116"/>
</g>
<!-- Node16&#45;&gt;Node6 -->
<g id="edge20" class="edge"><title>Node16&#45;&gt;Node6</title>
<path fill="none" stroke="#63b8ff" d="M737.077,-551.155C743.36,-553.97 749.496,-557.237 755,-561 786.317,-582.413 813.277,-618.116 827.875,-639.718"/>
<polygon fill="#63b8ff" stroke="#63b8ff" points="825.095,-641.861 833.517,-648.289 830.942,-638.012 825.095,-641.861"/>
</g>
<!-- Node17&#45;&gt;Node9 -->
<g id="edge23" class="edge"><title>Node17&#45;&gt;Node9</title>
<path fill="none" stroke="#63b8ff" d="M552.616,-502.55C561.459,-505.671 570.4,-509.738 578,-515 599.058,-529.579 592.597,-545.933 614,-560 621.519,-564.942 630.299,-568.607 639.039,-571.322"/>
<polygon fill="#63b8ff" stroke="#63b8ff" points="638.25,-574.734 648.819,-574.001 640.099,-567.983 638.25,-574.734"/>
</g>
<!-- Node17&#45;&gt;Node10 -->
<g id="edge24" class="edge"><title>Node17&#45;&gt;Node10</title>
<path fill="none" stroke="#63b8ff" d="M548.894,-483.457C567.799,-478.758 591.2,-472.942 613.159,-467.484"/>
<polygon fill="#63b8ff" stroke="#63b8ff" points="614.265,-470.815 623.126,-465.006 612.577,-464.022 614.265,-470.815"/>
</g>
<!-- Node17&#45;&gt;Node13 -->
<g id="edge25" class="edge"><title>Node17&#45;&gt;Node13</title>
<path fill="none" stroke="#63b8ff" d="M564.764,-493C579.095,-493 594.804,-493 609.968,-493"/>
<polygon fill="#63b8ff" stroke="#63b8ff" points="610.357,-496.5 620.357,-493 610.357,-489.5 610.357,-496.5"/>
</g>
<!-- Node18 -->
<g id="node18" class="node"><title>Node18</title>
<g id="a_node18"><a target="_parent" xlink:href="../qle/namespace_quant_ext.html#a1cab4fb6a720eff245acb9f3a7a9e7c5" xlink:title=" ">
<polygon fill="white" stroke="#666666" points="746.5,-416.5 622.5,-416.5 622.5,-397.5 746.5,-397.5 746.5,-416.5"/>
<text text-anchor="middle" x="684.5" y="-404.5" font-family="Helvetica,sans-Serif" font-size="10.00">QuantExt::close_enough</text>
</a>
</g>
</g>
<!-- Node17&#45;&gt;Node18 -->
<g id="edge22" class="edge"><title>Node17&#45;&gt;Node18</title>
<path fill="none" stroke="#63b8ff" d="M522.531,-483.43C541.129,-469.062 578.439,-441.91 614,-426 619.34,-423.611 625.048,-421.461 630.812,-419.542"/>
<polygon fill="#63b8ff" stroke="#63b8ff" points="631.997,-422.839 640.509,-416.529 629.921,-416.154 631.997,-422.839"/>
</g>
<!-- Node25 -->
<g id="node25" class="node"><title>Node25</title>
<g id="a_node25"><a xlink:href="classore_1_1data_1_1_inf_jy_builder.html#abc7000ad61c727a1c92edf461dfeda9e" target="_top" xlink:title=" ">
<polygon fill="white" stroke="#666666" points="368,-229.5 294,-229.5 294,-210.5 368,-210.5 368,-229.5"/>
<text text-anchor="middle" x="331" y="-217.5" font-family="Helvetica,sans-Serif" font-size="10.00">setupParams</text>
</a>
</g>
</g>
<!-- Node24&#45;&gt;Node25 -->
<g id="edge33" class="edge"><title>Node24&#45;&gt;Node25</title>
<path fill="none" stroke="#63b8ff" d="M209.158,-220C232.411,-220 260.444,-220 283.653,-220"/>
<polygon fill="#63b8ff" stroke="#63b8ff" points="283.943,-223.5 293.943,-220 283.943,-216.5 283.943,-223.5"/>
</g>
<!-- Node26 -->
<g id="node26" class="node"><title>Node26</title>
<g id="a_node26"><a xlink:href="classore_1_1data_1_1_model_parameter.html#a23131baceb8e12f265f04d3d772fa628" target="_top" xlink:title=" ">
<polygon fill="white" stroke="#666666" points="575.5,-187 443.5,-187 443.5,-157 575.5,-157 575.5,-187"/>
<text text-anchor="start" x="451.5" y="-175" font-family="Helvetica,sans-Serif" font-size="10.00">ore::data::ModelParameter</text>
<text text-anchor="middle" x="509.5" y="-164" font-family="Helvetica,sans-Serif" font-size="10.00">::times</text>
</a>
</g>
</g>
<!-- Node24&#45;&gt;Node26 -->
<g id="edge38" class="edge"><title>Node24&#45;&gt;Node26</title>
<path fill="none" stroke="#63b8ff" d="M209.013,-210.475C224.264,-207.53 241.32,-204.425 257,-202 316.051,-192.865 383.276,-184.975 433.358,-179.583"/>
<polygon fill="#63b8ff" stroke="#63b8ff" points="433.885,-183.046 443.456,-178.504 433.141,-176.086 433.885,-183.046"/>
</g>
<!-- Node27 -->
<g id="node27" class="node"><title>Node27</title>
<g id="a_node27"><a xlink:href="classore_1_1data_1_1_model_parameter.html#a8df044e9f3b4bd3e3e5c855a7f84adbb" target="_top" xlink:title=" ">
<polygon fill="white" stroke="#666666" points="575.5,-283 443.5,-283 443.5,-253 575.5,-253 575.5,-283"/>
<text text-anchor="start" x="451.5" y="-271" font-family="Helvetica,sans-Serif" font-size="10.00">ore::data::ModelParameter</text>
<text text-anchor="middle" x="509.5" y="-260" font-family="Helvetica,sans-Serif" font-size="10.00">::type</text>
</a>
</g>
</g>
<!-- Node24&#45;&gt;Node27 -->
<g id="edge39" class="edge"><title>Node24&#45;&gt;Node27</title>
<path fill="none" stroke="#63b8ff" d="M182.984,-229.652C201.774,-238.002 230.611,-249.563 257,-255 315.391,-267.029 382.931,-269.932 433.308,-270.018"/>
<polygon fill="#63b8ff" stroke="#63b8ff" points="433.474,-273.518 443.467,-269.998 433.46,-266.518 433.474,-273.518"/>
</g>
<!-- Node28 -->
<g id="node28" class="node"><title>Node28</title>
<g id="a_node28"><a xlink:href="classore_1_1data_1_1_model_parameter.html#adaf95a566e294a0739abae733b5475ee" target="_top" xlink:title=" ">
<polygon fill="white" stroke="#666666" points="575.5,-235 443.5,-235 443.5,-205 575.5,-205 575.5,-235"/>
<text text-anchor="start" x="451.5" y="-223" font-family="Helvetica,sans-Serif" font-size="10.00">ore::data::ModelParameter</text>
<text text-anchor="middle" x="509.5" y="-212" font-family="Helvetica,sans-Serif" font-size="10.00">::values</text>
</a>
</g>
</g>
<!-- Node24&#45;&gt;Node28 -->
<g id="edge40" class="edge"><title>Node24&#45;&gt;Node28</title>
<path fill="none" stroke="#63b8ff" d="M200.86,-229.51C217.93,-233.275 238.349,-237.144 257,-239 322.454,-245.515 339.493,-244.963 405,-239 414.25,-238.158 423.907,-236.901 433.447,-235.427"/>
<polygon fill="#63b8ff" stroke="#63b8ff" points="434.014,-238.881 443.322,-233.821 432.89,-231.972 434.014,-238.881"/>
</g>
<!-- Node25&#45;&gt;Node21 -->
<g id="edge34" class="edge"><title>Node25&#45;&gt;Node21</title>
<path fill="none" stroke="#63b8ff" d="M344.475,-229.706C364.12,-244.643 403.861,-273.475 441,-292 444.53,-293.761 448.222,-295.454 451.981,-297.069"/>
<polygon fill="#63b8ff" stroke="#63b8ff" points="450.828,-300.378 461.409,-300.916 453.473,-293.897 450.828,-300.378"/>
</g>
<!-- Node25&#45;&gt;Node26 -->
<g id="edge35" class="edge"><title>Node25&#45;&gt;Node26</title>
<path fill="none" stroke="#63b8ff" d="M367.293,-210.402C389.059,-204.483 417.645,-196.709 443.4,-189.704"/>
<polygon fill="#63b8ff" stroke="#63b8ff" points="444.381,-193.065 453.112,-187.063 442.544,-186.31 444.381,-193.065"/>
</g>
<!-- Node25&#45;&gt;Node27 -->
<g id="edge36" class="edge"><title>Node25&#45;&gt;Node27</title>
<path fill="none" stroke="#63b8ff" d="M367.293,-229.598C389.059,-235.517 417.645,-243.291 443.4,-250.296"/>
<polygon fill="#63b8ff" stroke="#63b8ff" points="442.544,-253.69 453.112,-252.937 444.381,-246.935 442.544,-253.69"/>
</g>
<!-- Node25&#45;&gt;Node28 -->
<g id="edge37" class="edge"><title>Node25&#45;&gt;Node28</title>
<path fill="none" stroke="#63b8ff" d="M368.143,-220C386.947,-220 410.668,-220 433.232,-220"/>
<polygon fill="#63b8ff" stroke="#63b8ff" points="433.496,-223.5 443.496,-220 433.496,-216.5 433.496,-223.5"/>
</g>
<!-- Node29&#45;&gt;Node25 -->
<g id="edge43" class="edge"><title>Node29&#45;&gt;Node25</title>
<path fill="none" stroke="#63b8ff" d="M183.714,-153.625C213.039,-166.931 266.129,-191.02 299.646,-206.228"/>
<polygon fill="#63b8ff" stroke="#63b8ff" points="298.406,-209.508 308.958,-210.453 301.298,-203.133 298.406,-209.508"/>
</g>
<!-- Node29&#45;&gt;Node26 -->
<g id="edge44" class="edge"><title>Node29&#45;&gt;Node26</title>
<path fill="none" stroke="#63b8ff" d="M209.455,-134.43C258.649,-125.996 337.948,-116.914 405,-130 427.632,-134.417 451.57,-143.792 470.717,-152.567"/>
<polygon fill="#63b8ff" stroke="#63b8ff" points="469.445,-155.836 479.982,-156.936 472.43,-149.505 469.445,-155.836"/>
</g>
<!-- Node29&#45;&gt;Node28 -->
<g id="edge45" class="edge"><title>Node29&#45;&gt;Node28</title>
<path fill="none" stroke="#63b8ff" d="M205.971,-153.548C262.972,-166.069 363.871,-188.232 433.368,-203.497"/>
<polygon fill="#63b8ff" stroke="#63b8ff" points="432.867,-206.97 443.385,-205.697 434.368,-200.133 432.867,-206.97"/>
</g>
<!-- Node30 -->
<g id="node30" class="node"><title>Node30</title>
<g id="a_node30"><a xlink:href="classore_1_1data_1_1_reversion_parameter.html#a8c5dd13b5a108105c52d850a097f93c5" target="_top" xlink:title=" ">
<polygon fill="white" stroke="#666666" points="405,-30 257,-30 257,-0 405,-0 405,-30"/>
<text text-anchor="start" x="265" y="-18" font-family="Helvetica,sans-Serif" font-size="10.00">ore::data::ReversionParameter</text>
<text text-anchor="middle" x="331" y="-7" font-family="Helvetica,sans-Serif" font-size="10.00">::reversionType</text>
</a>
</g>
</g>
<!-- Node29&#45;&gt;Node30 -->
<g id="edge42" class="edge"><title>Node29&#45;&gt;Node30</title>
<path fill="none" stroke="#63b8ff" d="M206.366,-134.475C211.703,-132.01 216.758,-128.906 221,-125 251.482,-96.9321 226.569,-67.1227 257,-39 258.28,-37.8172 259.619,-36.6927 261.008,-35.6235"/>
<polygon fill="#63b8ff" stroke="#63b8ff" points="263.007,-38.4982 269.448,-30.0853 259.167,-32.6458 263.007,-38.4982"/>
</g>
<!-- Node31 -->
<g id="node31" class="node"><title>Node31</title>
<g id="a_node31"><a xlink:href="classore_1_1data_1_1_volatility_parameter.html#a24ed2d5eca36f983090654744009e773" target="_top" xlink:title=" ">
<polygon fill="white" stroke="#666666" points="402.5,-78 259.5,-78 259.5,-48 402.5,-48 402.5,-78"/>
<text text-anchor="start" x="267.5" y="-66" font-family="Helvetica,sans-Serif" font-size="10.00">ore::data::VolatilityParameter</text>
<text text-anchor="middle" x="331" y="-55" font-family="Helvetica,sans-Serif" font-size="10.00">::volatilityType</text>
</a>
</g>
</g>
<!-- Node29&#45;&gt;Node31 -->
<g id="edge46" class="edge"><title>Node29&#45;&gt;Node31</title>
<path fill="none" stroke="#63b8ff" d="M200.044,-134.449C207.243,-131.893 214.543,-128.766 221,-125 239.749,-114.065 238.611,-103.53 257,-92 262.744,-88.3982 269.011,-85.1016 275.38,-82.1275"/>
<polygon fill="#63b8ff" stroke="#63b8ff" points="276.998,-85.2393 284.737,-78.0029 274.174,-78.8341 276.998,-85.2393"/>
</g>
</g>
</svg>
