<?xml version="1.0" encoding="UTF-8" standalone="no"?>
<!DOCTYPE svg PUBLIC "-//W3C//DTD SVG 1.1//EN"
 "http://www.w3.org/Graphics/SVG/1.1/DTD/svg11.dtd">
<!-- Generated by graphviz version 2.38.0 (20140413.2041)
 -->
<!-- Title: toXML Pages: 1 -->
<svg width="1067pt" height="1080pt"
 viewBox="0.00 0.00 1067.00 1079.58" xmlns="http://www.w3.org/2000/svg" xmlns:xlink="http://www.w3.org/1999/xlink">
<g id="graph0" class="graph" transform="scale(1 1) rotate(0) translate(4 1075.58)">
<title>toXML</title>
<!-- Node1 -->
<g id="node1" class="node"><title>Node1</title>
<g id="a_node1"><a xlink:title=" ">
<polygon fill="#999999" stroke="#666666" points="44,-732.733 0,-732.733 0,-713.733 44,-713.733 44,-732.733"/>
<text text-anchor="middle" x="22" y="-720.733" font-family="Helvetica,sans-Serif" font-size="10.00">toXML</text>
</a>
</g>
</g>
<!-- Node2 -->
<g id="node2" class="node"><title>Node2</title>
<g id="a_node2"><a xlink:href="classore_1_1data_1_1_x_m_l_utils.html#aced1fd4bd35df3642d8022301744b138" target="_top" xlink:title=" ">
<polygon fill="white" stroke="#666666" points="739,-570.233 640,-570.233 640,-540.233 739,-540.233 739,-570.233"/>
<text text-anchor="start" x="648" y="-558.233" font-family="Helvetica,sans-Serif" font-size="10.00">ore::data::XMLUtils</text>
<text text-anchor="middle" x="689.5" y="-547.233" font-family="Helvetica,sans-Serif" font-size="10.00">::addChild</text>
</a>
</g>
</g>
<!-- Node1&#45;&gt;Node2 -->
<g id="edge1" class="edge"><title>Node1&#45;&gt;Node2</title>
<path fill="none" stroke="#63b8ff" d="M44.1992,-729.416C54.8502,-732.271 68.0098,-735.424 80,-737.233 154.839,-748.529 174.346,-745.01 250,-747.233 328.771,-749.548 539.56,-771.595 604,-726.233 653.626,-691.3 675.505,-618.745 683.931,-580.339"/>
<polygon fill="#63b8ff" stroke="#63b8ff" points="687.374,-580.972 685.963,-570.471 680.518,-579.56 687.374,-580.972"/>
</g>
<!-- Node3 -->
<g id="node3" class="node"><title>Node3</title>
<g id="a_node3"><a xlink:href="classore_1_1data_1_1_x_m_l_document.html#a8717c517803f0df2e693e3cadefeafd7" target="_top" xlink:title="util functions that wrap rapidxml">
<polygon fill="white" stroke="#666666" points="899,-486.233 775,-486.233 775,-456.233 899,-456.233 899,-486.233"/>
<text text-anchor="start" x="783" y="-474.233" font-family="Helvetica,sans-Serif" font-size="10.00">ore::data::XMLDocument</text>
<text text-anchor="middle" x="837" y="-463.233" font-family="Helvetica,sans-Serif" font-size="10.00">::allocNode</text>
</a>
</g>
</g>
<!-- Node1&#45;&gt;Node3 -->
<g id="edge4" class="edge"><title>Node1&#45;&gt;Node3</title>
<path fill="none" stroke="#63b8ff" d="M23.6129,-732.871C25.8659,-759.971 36.0374,-837.513 80,-878.233 167.192,-958.994 500.051,-1042.85 604,-985.233 789.59,-882.37 827.221,-585.273 834.399,-496.546"/>
<polygon fill="#63b8ff" stroke="#63b8ff" points="837.907,-496.569 835.162,-486.336 830.926,-496.047 837.907,-496.569"/>
</g>
<!-- Node5 -->
<g id="node5" class="node"><title>Node5</title>
<g id="a_node5"><a xlink:href="classore_1_1data_1_1_x_m_l_utils.html#ae646b9cdf949a88f35c36c18bf90b370" target="_top" xlink:title=" ">
<polygon fill="white" stroke="#666666" points="580.5,-424.233 481.5,-424.233 481.5,-394.233 580.5,-394.233 580.5,-424.233"/>
<text text-anchor="start" x="489.5" y="-412.233" font-family="Helvetica,sans-Serif" font-size="10.00">ore::data::XMLUtils</text>
<text text-anchor="middle" x="531" y="-401.233" font-family="Helvetica,sans-Serif" font-size="10.00">::appendNode</text>
</a>
</g>
</g>
<!-- Node1&#45;&gt;Node5 -->
<g id="edge5" class="edge"><title>Node1&#45;&gt;Node5</title>
<path fill="none" stroke="#63b8ff" d="M23.7461,-713.613C27.33,-669.719 44.1017,-488.799 80,-447.233 176.241,-335.799 373.451,-367.41 471.696,-392.161"/>
<polygon fill="#63b8ff" stroke="#63b8ff" points="470.902,-395.571 481.46,-394.681 472.652,-388.793 470.902,-395.571"/>
</g>
<!-- Node6 -->
<g id="node6" class="node"><title>Node6</title>
<g id="a_node6"><a xlink:href="classore_1_1data_1_1_trade_strike.html#a8c6573cb2ef47dafba7caaa30085b78c" target="_top" xlink:title=" ">
<polygon fill="white" stroke="#666666" points="202,-869.233 92,-869.233 92,-839.233 202,-839.233 202,-869.233"/>
<text text-anchor="start" x="100" y="-857.233" font-family="Helvetica,sans-Serif" font-size="10.00">ore::data::TradeStrike</text>
<text text-anchor="middle" x="147" y="-846.233" font-family="Helvetica,sans-Serif" font-size="10.00">::empty</text>
</a>
</g>
</g>
<!-- Node1&#45;&gt;Node6 -->
<g id="edge6" class="edge"><title>Node1&#45;&gt;Node6</title>
<path fill="none" stroke="#63b8ff" d="M26.5665,-732.964C33.9318,-751.915 52.4713,-794.194 80,-820.233 85.472,-825.409 91.885,-829.994 98.5241,-833.987"/>
<polygon fill="#63b8ff" stroke="#63b8ff" points="97.2106,-837.262 107.651,-839.067 100.615,-831.145 97.2106,-837.262"/>
</g>
<!-- Node8 -->
<g id="node8" class="node"><title>Node8</title>
<g id="a_node8"><a xlink:href="classore_1_1data_1_1_schedule_data.html#a314b19ebe3b2ce78e9df49fee95c21dd" target="_top" xlink:title="Check if has any dates/rules/derived schedules.">
<polygon fill="white" stroke="#666666" points="397,-738.233 275,-738.233 275,-708.233 397,-708.233 397,-738.233"/>
<text text-anchor="start" x="283" y="-726.233" font-family="Helvetica,sans-Serif" font-size="10.00">ore::data::ScheduleData</text>
<text text-anchor="middle" x="336" y="-715.233" font-family="Helvetica,sans-Serif" font-size="10.00">::hasData</text>
</a>
</g>
</g>
<!-- Node1&#45;&gt;Node8 -->
<g id="edge8" class="edge"><title>Node1&#45;&gt;Node8</title>
<path fill="none" stroke="#63b8ff" d="M44.445,-723.233C89.126,-723.233 193.904,-723.233 264.64,-723.233"/>
<polygon fill="#63b8ff" stroke="#63b8ff" points="264.819,-726.733 274.819,-723.233 264.819,-719.733 264.819,-726.733"/>
</g>
<!-- Node9 -->
<g id="node9" class="node"><title>Node9</title>
<g id="a_node9"><a xlink:href="classore_1_1data_1_1_x_m_l_utils.html#ac1ace6a9e07990c65081057f2ecdf164" target="_top" xlink:title=" ">
<polygon fill="white" stroke="#666666" points="385.5,-1060.23 286.5,-1060.23 286.5,-1030.23 385.5,-1030.23 385.5,-1060.23"/>
<text text-anchor="start" x="294.5" y="-1048.23" font-family="Helvetica,sans-Serif" font-size="10.00">ore::data::XMLUtils</text>
<text text-anchor="middle" x="336" y="-1037.23" font-family="Helvetica,sans-Serif" font-size="10.00">::setNodeName</text>
</a>
</g>
</g>
<!-- Node1&#45;&gt;Node9 -->
<g id="edge9" class="edge"><title>Node1&#45;&gt;Node9</title>
<path fill="none" stroke="#63b8ff" d="M23.4071,-733.031C25.5476,-779.442 37.0872,-976.579 80,-1016.23 132.326,-1064.59 218.769,-1063.85 276.297,-1056.48"/>
<polygon fill="#63b8ff" stroke="#63b8ff" points="276.907,-1059.93 286.332,-1055.09 275.947,-1053 276.907,-1059.93"/>
</g>
<!-- Node10 -->
<g id="node10" class="node"><title>Node10</title>
<g id="a_node10"><a xlink:href="classore_1_1data_1_1_trade_strike.html#a45e1903bb07ce3054a2b4a2e22b4b092" target="_top" xlink:title=" ">
<polygon fill="white" stroke="#666666" points="391,-824.233 281,-824.233 281,-794.233 391,-794.233 391,-824.233"/>
<text text-anchor="start" x="289" y="-812.233" font-family="Helvetica,sans-Serif" font-size="10.00">ore::data::TradeStrike</text>
<text text-anchor="middle" x="336" y="-801.233" font-family="Helvetica,sans-Serif" font-size="10.00">::toXML</text>
</a>
</g>
</g>
<!-- Node1&#45;&gt;Node10 -->
<g id="edge11" class="edge"><title>Node1&#45;&gt;Node10</title>
<path fill="none" stroke="#63b8ff" d="M29.401,-732.87C38.7695,-746.083 57.5618,-769.413 80,-780.233 140.137,-809.232 217.239,-814.219 270.843,-813.369"/>
<polygon fill="#63b8ff" stroke="#63b8ff" points="270.986,-816.866 280.903,-813.136 270.825,-809.868 270.986,-816.866"/>
</g>
<!-- Node15 -->
<g id="node15" class="node"><title>Node15</title>
<g id="a_node15"><a xlink:href="classore_1_1data_1_1_option_data.html#a7efefb9270d6c4933e4c96de0771f17a" target="_top" xlink:title=" ">
<polygon fill="white" stroke="#666666" points="202,-617.233 92,-617.233 92,-587.233 202,-587.233 202,-617.233"/>
<text text-anchor="start" x="100" y="-605.233" font-family="Helvetica,sans-Serif" font-size="10.00">ore::data::OptionData</text>
<text text-anchor="middle" x="147" y="-594.233" font-family="Helvetica,sans-Serif" font-size="10.00">::toXML</text>
</a>
</g>
</g>
<!-- Node1&#45;&gt;Node15 -->
<g id="edge21" class="edge"><title>Node1&#45;&gt;Node15</title>
<path fill="none" stroke="#63b8ff" d="M33.0656,-713.331C52.596,-694.119 96.0757,-651.346 123.027,-624.833"/>
<polygon fill="#63b8ff" stroke="#63b8ff" points="125.812,-627.003 130.486,-617.495 120.903,-622.013 125.812,-627.003"/>
</g>
<!-- Node19 -->
<g id="node19" class="node"><title>Node19</title>
<g id="a_node19"><a xlink:href="classore_1_1data_1_1_schedule_data.html#a7efefb9270d6c4933e4c96de0771f17a" target="_top" xlink:title=" ">
<polygon fill="white" stroke="#666666" points="397,-424.233 275,-424.233 275,-394.233 397,-394.233 397,-424.233"/>
<text text-anchor="start" x="283" y="-412.233" font-family="Helvetica,sans-Serif" font-size="10.00">ore::data::ScheduleData</text>
<text text-anchor="middle" x="336" y="-401.233" font-family="Helvetica,sans-Serif" font-size="10.00">::toXML</text>
</a>
</g>
</g>
<!-- Node1&#45;&gt;Node19 -->
<g id="edge38" class="edge"><title>Node1&#45;&gt;Node19</title>
<path fill="none" stroke="#63b8ff" d="M25.0788,-713.656C30.7106,-689.266 48.0299,-623.539 80,-578.233 137.758,-496.383 161.11,-476.428 250,-430.233 254.805,-427.736 259.919,-425.527 265.162,-423.575"/>
<polygon fill="#63b8ff" stroke="#63b8ff" points="266.362,-426.864 274.702,-420.331 264.108,-420.237 266.362,-426.864"/>
</g>
<!-- Node20 -->
<g id="node20" class="node"><title>Node20</title>
<g id="a_node20"><a xlink:href="classore_1_1data_1_1_trade.html#a7efefb9270d6c4933e4c96de0771f17a" target="_top" xlink:title=" ">
<polygon fill="white" stroke="#666666" points="206,-251.733 88,-251.733 88,-232.733 206,-232.733 206,-251.733"/>
<text text-anchor="middle" x="147" y="-239.733" font-family="Helvetica,sans-Serif" font-size="10.00">ore::data::Trade::toXML</text>
</a>
</g>
</g>
<!-- Node1&#45;&gt;Node20 -->
<g id="edge39" class="edge"><title>Node1&#45;&gt;Node20</title>
<path fill="none" stroke="#63b8ff" d="M23.1259,-713.728C23.9685,-670.605 30.4364,-489.532 80,-352.233 92.6475,-317.198 116.94,-280.99 132.263,-260.096"/>
<polygon fill="#63b8ff" stroke="#63b8ff" points="135.222,-261.983 138.41,-251.88 129.617,-257.79 135.222,-261.983"/>
</g>
<!-- Node29 -->
<g id="node29" class="node"><title>Node29</title>
<g id="a_node29"><a xlink:href="classore_1_1data_1_1_trade.html#aec03b18fc42a659e6dca829a82659809" target="_top" xlink:title=" ">
<polygon fill="white" stroke="#666666" points="214,-214.733 80,-214.733 80,-195.733 214,-195.733 214,-214.733"/>
<text text-anchor="middle" x="147" y="-202.733" font-family="Helvetica,sans-Serif" font-size="10.00">ore::data::Trade::tradeType</text>
</a>
</g>
</g>
<!-- Node1&#45;&gt;Node29 -->
<g id="edge59" class="edge"><title>Node1&#45;&gt;Node29</title>
<path fill="none" stroke="#63b8ff" d="M23.4532,-713.65C26.6563,-647.656 46.7224,-262.026 80,-223.233 80.6259,-222.504 81.2782,-221.802 81.9546,-221.128"/>
<polygon fill="#63b8ff" stroke="#63b8ff" points="84.2497,-223.777 90.0192,-214.891 79.9675,-218.24 84.2497,-223.777"/>
</g>
<!-- Node2&#45;&gt;Node3 -->
<g id="edge2" class="edge"><title>Node2&#45;&gt;Node3</title>
<path fill="none" stroke="#63b8ff" d="M716.512,-540.216C740.057,-526.623 774.927,-506.492 800.928,-491.481"/>
<polygon fill="#63b8ff" stroke="#63b8ff" points="802.812,-494.435 809.722,-486.404 799.312,-488.373 802.812,-494.435"/>
</g>
<!-- Node4 -->
<g id="node4" class="node"><title>Node4</title>
<g id="a_node4"><a xlink:href="classore_1_1data_1_1_x_m_l_document.html#ae3474059e483990f3afea260096e5c90" target="_top" xlink:title=" ">
<polygon fill="white" stroke="#666666" points="1059,-486.233 935,-486.233 935,-456.233 1059,-456.233 1059,-486.233"/>
<text text-anchor="start" x="943" y="-474.233" font-family="Helvetica,sans-Serif" font-size="10.00">ore::data::XMLDocument</text>
<text text-anchor="middle" x="997" y="-463.233" font-family="Helvetica,sans-Serif" font-size="10.00">::allocString</text>
</a>
</g>
</g>
<!-- Node3&#45;&gt;Node4 -->
<g id="edge3" class="edge"><title>Node3&#45;&gt;Node4</title>
<path fill="none" stroke="#63b8ff" d="M899.087,-471.233C907.513,-471.233 916.226,-471.233 924.815,-471.233"/>
<polygon fill="#63b8ff" stroke="#63b8ff" points="924.815,-474.733 934.815,-471.233 924.815,-467.733 924.815,-474.733"/>
</g>
<!-- Node7 -->
<g id="node7" class="node"><title>Node7</title>
<g id="a_node7"><a xlink:href="classore_1_1data_1_1_trade_strike.html#ab0070e2cd9d998541431e9aba2e5583b" target="_top" xlink:title=" ">
<polygon fill="white" stroke="#666666" points="391,-872.233 281,-872.233 281,-842.233 391,-842.233 391,-872.233"/>
<text text-anchor="start" x="289" y="-860.233" font-family="Helvetica,sans-Serif" font-size="10.00">ore::data::TradeStrike</text>
<text text-anchor="middle" x="336" y="-849.233" font-family="Helvetica,sans-Serif" font-size="10.00">::value</text>
</a>
</g>
</g>
<!-- Node6&#45;&gt;Node7 -->
<g id="edge7" class="edge"><title>Node6&#45;&gt;Node7</title>
<path fill="none" stroke="#63b8ff" d="M202.088,-855.101C223.509,-855.445 248.308,-855.843 270.643,-856.201"/>
<polygon fill="#63b8ff" stroke="#63b8ff" points="270.655,-859.701 280.71,-856.362 270.767,-852.702 270.655,-859.701"/>
</g>
<!-- Node9&#45;&gt;Node4 -->
<g id="edge10" class="edge"><title>Node9&#45;&gt;Node4</title>
<path fill="none" stroke="#63b8ff" d="M385.655,-1056.55C466.716,-1072.47 631.136,-1091.92 739,-1018.23 926.963,-889.829 980.919,-586.207 993.005,-496.569"/>
<polygon fill="#63b8ff" stroke="#63b8ff" points="996.496,-496.864 994.306,-486.498 989.554,-495.967 996.496,-496.864"/>
</g>
<!-- Node10&#45;&gt;Node2 -->
<g id="edge12" class="edge"><title>Node10&#45;&gt;Node2</title>
<path fill="none" stroke="#63b8ff" d="M391.288,-817.448C459.41,-826.518 571.295,-836.936 604,-813.233 679.535,-758.49 688.781,-634.179 689.089,-580.592"/>
<polygon fill="#63b8ff" stroke="#63b8ff" points="692.588,-580.265 689.04,-570.281 685.588,-580.298 692.588,-580.265"/>
</g>
<!-- Node10&#45;&gt;Node3 -->
<g id="edge13" class="edge"><title>Node10&#45;&gt;Node3</title>
<path fill="none" stroke="#63b8ff" d="M391.116,-823.419C411.875,-828.185 435.886,-832.884 458,-835.233 522.526,-842.088 547.107,-866.438 604,-835.233 741.18,-759.992 808.914,-565.37 829.234,-496.136"/>
<polygon fill="#63b8ff" stroke="#63b8ff" points="832.606,-497.075 831.992,-486.498 825.876,-495.149 832.606,-497.075"/>
</g>
<!-- Node10&#45;&gt;Node5 -->
<g id="edge14" class="edge"><title>Node10&#45;&gt;Node5</title>
<path fill="none" stroke="#63b8ff" d="M368.705,-794.195C387.285,-783.686 409.493,-767.846 422,-747.233 477.494,-655.771 417.617,-608.3 458,-509.233 469.941,-479.939 492.111,-451.121 508.708,-432.004"/>
<polygon fill="#63b8ff" stroke="#63b8ff" points="511.41,-434.232 515.434,-424.432 506.176,-429.584 511.41,-434.232"/>
</g>
<!-- Node11 -->
<g id="node11" class="node"><title>Node11</title>
<g id="a_node11"><a xlink:href="classore_1_1data_1_1_trade_strike.html#af95e1cce2d25b241417ca60f5be7ea65" target="_top" xlink:title=" ">
<polygon fill="white" stroke="#666666" points="586,-976.233 476,-976.233 476,-946.233 586,-946.233 586,-976.233"/>
<text text-anchor="start" x="484" y="-964.233" font-family="Helvetica,sans-Serif" font-size="10.00">ore::data::TradeStrike</text>
<text text-anchor="middle" x="531" y="-953.233" font-family="Helvetica,sans-Serif" font-size="10.00">::strikePrice</text>
</a>
</g>
</g>
<!-- Node10&#45;&gt;Node11 -->
<g id="edge15" class="edge"><title>Node10&#45;&gt;Node11</title>
<path fill="none" stroke="#63b8ff" d="M391.402,-816.282C402.589,-819.871 413.524,-825.235 422,-833.233 457.576,-866.802 423.215,-902.846 458,-937.233 460.688,-939.891 463.678,-942.254 466.868,-944.355"/>
<polygon fill="#63b8ff" stroke="#63b8ff" points="465.279,-947.477 475.711,-949.33 468.711,-941.376 465.279,-947.477"/>
</g>
<!-- Node12 -->
<g id="node12" class="node"><title>Node12</title>
<g id="a_node12"><a xlink:href="classore_1_1data_1_1_trade_strike.html#a9ec7a95258a5adb834ea92717dff7433" target="_top" xlink:title=" ">
<polygon fill="white" stroke="#666666" points="586,-928.233 476,-928.233 476,-898.233 586,-898.233 586,-928.233"/>
<text text-anchor="start" x="484" y="-916.233" font-family="Helvetica,sans-Serif" font-size="10.00">ore::data::TradeStrike</text>
<text text-anchor="middle" x="531" y="-905.233" font-family="Helvetica,sans-Serif" font-size="10.00">::strikeYield</text>
</a>
</g>
</g>
<!-- Node10&#45;&gt;Node12 -->
<g id="edge16" class="edge"><title>Node10&#45;&gt;Node12</title>
<path fill="none" stroke="#63b8ff" d="M391.197,-818.582C402.023,-822.04 412.862,-826.769 422,-833.233 444.651,-849.256 436.245,-867.015 458,-884.233 462.359,-887.683 467.182,-890.774 472.208,-893.532"/>
<polygon fill="#63b8ff" stroke="#63b8ff" points="470.905,-896.795 481.414,-898.144 474.04,-890.536 470.905,-896.795"/>
</g>
<!-- Node13 -->
<g id="node13" class="node"><title>Node13</title>
<g id="a_node13"><a xlink:href="namespaceore_1_1data.html#a86651dfeb5c18ee891f7a4734d8cf455" target="_top" xlink:title=" ">
<polygon fill="white" stroke="#666666" points="580,-699.733 482,-699.733 482,-680.733 580,-680.733 580,-699.733"/>
<text text-anchor="middle" x="531" y="-687.733" font-family="Helvetica,sans-Serif" font-size="10.00">ore::data::to_string</text>
</a>
</g>
</g>
<!-- Node10&#45;&gt;Node13 -->
<g id="edge17" class="edge"><title>Node10&#45;&gt;Node13</title>
<path fill="none" stroke="#63b8ff" d="M361.444,-794.162C398.566,-771.273 468.743,-728.003 505.75,-705.185"/>
<polygon fill="#63b8ff" stroke="#63b8ff" points="507.729,-708.077 514.404,-699.85 504.055,-702.119 507.729,-708.077"/>
</g>
<!-- Node14 -->
<g id="node14" class="node"><title>Node14</title>
<g id="a_node14"><a xlink:href="classore_1_1data_1_1_trade_monetary.html#affd40009e63f171e02eeb7ffcb3cfad2" target="_top" xlink:title=" ">
<polygon fill="white" stroke="#666666" points="593.5,-804.233 468.5,-804.233 468.5,-774.233 593.5,-774.233 593.5,-804.233"/>
<text text-anchor="start" x="476.5" y="-792.233" font-family="Helvetica,sans-Serif" font-size="10.00">ore::data::TradeMonetary</text>
<text text-anchor="middle" x="531" y="-781.233" font-family="Helvetica,sans-Serif" font-size="10.00">::toXMLNode</text>
</a>
</g>
</g>
<!-- Node10&#45;&gt;Node14 -->
<g id="edge19" class="edge"><title>Node10&#45;&gt;Node14</title>
<path fill="none" stroke="#63b8ff" d="M391.018,-803.636C411.81,-801.481 435.888,-798.986 458.103,-796.684"/>
<polygon fill="#63b8ff" stroke="#63b8ff" points="458.575,-800.154 468.161,-795.642 457.853,-793.191 458.575,-800.154"/>
</g>
<!-- Node13&#45;&gt;Node13 -->
<g id="edge18" class="edge"><title>Node13&#45;&gt;Node13</title>
<path fill="none" stroke="#63b8ff" d="M506.648,-699.816C494.801,-708.467 502.918,-717.733 531,-717.733 549.429,-717.733 559.26,-713.743 560.492,-708.554"/>
<polygon fill="#63b8ff" stroke="#63b8ff" points="563.439,-706.661 555.352,-699.816 557.406,-710.21 563.439,-706.661"/>
</g>
<!-- Node14&#45;&gt;Node2 -->
<g id="edge20" class="edge"><title>Node14&#45;&gt;Node2</title>
<path fill="none" stroke="#63b8ff" d="M584.262,-774.092C591.488,-770.391 598.355,-765.833 604,-760.233 655.288,-709.357 676.79,-622.909 684.615,-580.381"/>
<polygon fill="#63b8ff" stroke="#63b8ff" points="688.098,-580.777 686.358,-570.326 681.201,-579.582 688.098,-580.777"/>
</g>
<!-- Node15&#45;&gt;Node2 -->
<g id="edge22" class="edge"><title>Node15&#45;&gt;Node2</title>
<path fill="none" stroke="#63b8ff" d="M202.171,-609.169C217.598,-610.847 234.438,-612.397 250,-613.233 326.334,-617.337 348.623,-634.672 422,-613.233 440.225,-607.908 440.228,-596.915 458,-590.233 513.946,-569.2 582.042,-560.786 629.657,-557.432"/>
<polygon fill="#63b8ff" stroke="#63b8ff" points="630.043,-560.914 639.795,-556.772 629.589,-553.929 630.043,-560.914"/>
</g>
<!-- Node15&#45;&gt;Node3 -->
<g id="edge27" class="edge"><title>Node15&#45;&gt;Node3</title>
<path fill="none" stroke="#63b8ff" d="M162.199,-587.047C180.509,-568.579 214.273,-538.153 250,-524.233 296.911,-505.956 619.093,-484.398 764.758,-475.451"/>
<polygon fill="#63b8ff" stroke="#63b8ff" points="765.167,-478.933 774.934,-474.829 764.739,-471.946 765.167,-478.933"/>
</g>
<!-- Node15&#45;&gt;Node5 -->
<g id="edge28" class="edge"><title>Node15&#45;&gt;Node5</title>
<path fill="none" stroke="#63b8ff" d="M155.824,-587.114C170.491,-560.346 204.767,-504.754 250,-476.233 259.452,-470.273 392.363,-439.939 471.613,-422.197"/>
<polygon fill="#63b8ff" stroke="#63b8ff" points="472.478,-425.59 481.474,-419.992 470.951,-418.759 472.478,-425.59"/>
</g>
<!-- Node15&#45;&gt;Node8 -->
<g id="edge29" class="edge"><title>Node15&#45;&gt;Node8</title>
<path fill="none" stroke="#63b8ff" d="M159.816,-617.405C177.266,-638.786 211.99,-677.585 250,-699.233 254.83,-701.984 259.997,-704.437 265.307,-706.622"/>
<polygon fill="#63b8ff" stroke="#63b8ff" points="264.389,-710.016 274.981,-710.27 266.859,-703.467 264.389,-710.016"/>
</g>
<!-- Node15&#45;&gt;Node9 -->
<g id="edge30" class="edge"><title>Node15&#45;&gt;Node9</title>
<path fill="none" stroke="#63b8ff" d="M152.761,-617.319C166.275,-659.636 206.71,-782.802 250,-881.233 272.464,-932.312 303.659,-989.72 321.338,-1021.26"/>
<polygon fill="#63b8ff" stroke="#63b8ff" points="318.407,-1023.18 326.367,-1030.18 324.505,-1019.75 318.407,-1023.18"/>
</g>
<!-- Node16 -->
<g id="node16" class="node"><title>Node16</title>
<g id="a_node16"><a xlink:href="classore_1_1data_1_1_x_m_l_utils.html#a29cd524fd4d9381e10c71939131fa4d4" target="_top" xlink:title=" ">
<polygon fill="white" stroke="#666666" points="580.5,-548.233 481.5,-548.233 481.5,-518.233 580.5,-518.233 580.5,-548.233"/>
<text text-anchor="start" x="489.5" y="-536.233" font-family="Helvetica,sans-Serif" font-size="10.00">ore::data::XMLUtils</text>
<text text-anchor="middle" x="531" y="-525.233" font-family="Helvetica,sans-Serif" font-size="10.00">::addChildren</text>
</a>
</g>
</g>
<!-- Node15&#45;&gt;Node16 -->
<g id="edge23" class="edge"><title>Node15&#45;&gt;Node16</title>
<path fill="none" stroke="#63b8ff" d="M169.077,-587.221C188.908,-574.012 219.965,-555.618 250,-547.233 324.296,-526.492 413.915,-526.066 471.409,-528.751"/>
<polygon fill="#63b8ff" stroke="#63b8ff" points="471.241,-532.247 481.408,-529.265 471.6,-525.256 471.241,-532.247"/>
</g>
<!-- Node17 -->
<g id="node17" class="node"><title>Node17</title>
<g id="a_node17"><a xlink:href="classore_1_1data_1_1_x_m_l_utils.html#a60e5b2e453d4610d7ce2ff455d564404" target="_top" xlink:title=" ">
<polygon fill="white" stroke="#666666" points="422,-586.233 250,-586.233 250,-556.233 422,-556.233 422,-586.233"/>
<text text-anchor="start" x="258" y="-574.233" font-family="Helvetica,sans-Serif" font-size="10.00">ore::data::XMLUtils</text>
<text text-anchor="middle" x="336" y="-563.233" font-family="Helvetica,sans-Serif" font-size="10.00">::addChildrenWithOptionalAttributes</text>
</a>
</g>
</g>
<!-- Node15&#45;&gt;Node17 -->
<g id="edge25" class="edge"><title>Node15&#45;&gt;Node17</title>
<path fill="none" stroke="#63b8ff" d="M202.088,-593.267C213.95,-591.3 226.848,-589.162 239.79,-587.017"/>
<polygon fill="#63b8ff" stroke="#63b8ff" points="240.386,-590.466 249.679,-585.378 239.241,-583.56 240.386,-590.466"/>
</g>
<!-- Node18 -->
<g id="node18" class="node"><title>Node18</title>
<g id="a_node18"><a xlink:href="classore_1_1data_1_1_premium_data.html#a7efefb9270d6c4933e4c96de0771f17a" target="_top" xlink:title=" ">
<polygon fill="white" stroke="#666666" points="396,-690.233 276,-690.233 276,-660.233 396,-660.233 396,-690.233"/>
<text text-anchor="start" x="284" y="-678.233" font-family="Helvetica,sans-Serif" font-size="10.00">ore::data::PremiumData</text>
<text text-anchor="middle" x="336" y="-667.233" font-family="Helvetica,sans-Serif" font-size="10.00">::toXML</text>
</a>
</g>
</g>
<!-- Node15&#45;&gt;Node18 -->
<g id="edge31" class="edge"><title>Node15&#45;&gt;Node18</title>
<path fill="none" stroke="#63b8ff" d="M181.264,-617.367C201.069,-626.18 226.787,-637.283 250,-646.233 259.274,-649.809 269.201,-653.403 278.879,-656.783"/>
<polygon fill="#63b8ff" stroke="#63b8ff" points="277.847,-660.13 288.442,-660.084 280.131,-653.513 277.847,-660.13"/>
</g>
<!-- Node15&#45;&gt;Node19 -->
<g id="edge35" class="edge"><title>Node15&#45;&gt;Node19</title>
<path fill="none" stroke="#63b8ff" d="M155.74,-587.049C174.592,-550.572 223.292,-459.462 250,-438.233 254.692,-434.504 259.891,-431.241 265.339,-428.388"/>
<polygon fill="#63b8ff" stroke="#63b8ff" points="267.153,-431.402 274.698,-423.964 264.161,-425.074 267.153,-431.402"/>
</g>
<!-- Node16&#45;&gt;Node2 -->
<g id="edge24" class="edge"><title>Node16&#45;&gt;Node2</title>
<path fill="none" stroke="#63b8ff" d="M580.66,-540.074C596.264,-542.267 613.709,-544.72 629.945,-547.002"/>
<polygon fill="#63b8ff" stroke="#63b8ff" points="629.48,-550.471 639.87,-548.397 630.455,-543.539 629.48,-550.471"/>
</g>
<!-- Node17&#45;&gt;Node17 -->
<g id="edge26" class="edge"><title>Node17&#45;&gt;Node17</title>
<path fill="none" stroke="#63b8ff" d="M302.953,-586.509C295.609,-595.64 306.625,-604.233 336,-604.233 353.441,-604.233 364.41,-601.204 368.907,-596.831"/>
<polygon fill="#63b8ff" stroke="#63b8ff" points="372.411,-596.555 369.047,-586.509 365.412,-596.46 372.411,-596.555"/>
</g>
<!-- Node18&#45;&gt;Node2 -->
<g id="edge32" class="edge"><title>Node18&#45;&gt;Node2</title>
<path fill="none" stroke="#63b8ff" d="M386.034,-660.168C451.406,-639.989 563.565,-605.014 604,-590.233 617.192,-585.411 631.355,-579.743 644.244,-574.389"/>
<polygon fill="#63b8ff" stroke="#63b8ff" points="645.947,-577.47 653.815,-570.375 643.24,-571.015 645.947,-577.47"/>
</g>
<!-- Node18&#45;&gt;Node3 -->
<g id="edge33" class="edge"><title>Node18&#45;&gt;Node3</title>
<path fill="none" stroke="#63b8ff" d="M396.029,-673.863C479.273,-669.283 632.829,-650.874 739,-579.233 773.049,-556.258 803.06,-518.761 820.374,-494.547"/>
<polygon fill="#63b8ff" stroke="#63b8ff" points="823.295,-496.477 826.162,-486.278 817.56,-492.463 823.295,-496.477"/>
</g>
<!-- Node18&#45;&gt;Node13 -->
<g id="edge34" class="edge"><title>Node18&#45;&gt;Node13</title>
<path fill="none" stroke="#63b8ff" d="M396.218,-679.836C420.263,-681.705 447.958,-683.857 471.889,-685.717"/>
<polygon fill="#63b8ff" stroke="#63b8ff" points="471.652,-689.209 481.893,-686.494 472.194,-682.23 471.652,-689.209"/>
</g>
<!-- Node19&#45;&gt;Node3 -->
<g id="edge36" class="edge"><title>Node19&#45;&gt;Node3</title>
<path fill="none" stroke="#63b8ff" d="M397.118,-422.336C416.486,-426.24 438.089,-430.265 458,-433.233 564.229,-449.071 688.26,-460.136 764.463,-466.091"/>
<polygon fill="#63b8ff" stroke="#63b8ff" points="764.652,-469.616 774.892,-466.898 765.191,-462.637 764.652,-469.616"/>
</g>
<!-- Node19&#45;&gt;Node5 -->
<g id="edge37" class="edge"><title>Node19&#45;&gt;Node5</title>
<path fill="none" stroke="#63b8ff" d="M397.008,-409.233C420.624,-409.233 447.66,-409.233 471.16,-409.233"/>
<polygon fill="#63b8ff" stroke="#63b8ff" points="471.339,-412.733 481.339,-409.233 471.339,-405.733 471.339,-412.733"/>
</g>
<!-- Node20&#45;&gt;Node2 -->
<g id="edge43" class="edge"><title>Node20&#45;&gt;Node2</title>
<path fill="none" stroke="#63b8ff" d="M206.266,-233.154C264.427,-226.983 354.611,-225.463 422,-261.233 444.931,-273.405 438.122,-290.534 458,-307.233 514.33,-354.555 552.749,-332.454 604,-385.233 645.377,-427.844 670.373,-494.706 681.547,-530.56"/>
<polygon fill="#63b8ff" stroke="#63b8ff" points="678.22,-531.652 684.454,-540.218 684.923,-529.634 678.22,-531.652"/>
</g>
<!-- Node20&#45;&gt;Node3 -->
<g id="edge44" class="edge"><title>Node20&#45;&gt;Node3</title>
<path fill="none" stroke="#63b8ff" d="M199.586,-232.681C204.85,-230.215 209.797,-227.118 214,-223.233 247.461,-192.301 215.041,-156.462 250,-127.233 310.698,-76.4841 531.071,-58.5548 604,-89.2333 754.995,-152.752 814.727,-371.301 831.031,-445.982"/>
<polygon fill="#63b8ff" stroke="#63b8ff" points="827.638,-446.858 833.127,-455.921 834.488,-445.414 827.638,-446.858"/>
</g>
<!-- Node20&#45;&gt;Node5 -->
<g id="edge45" class="edge"><title>Node20&#45;&gt;Node5</title>
<path fill="none" stroke="#63b8ff" d="M159.788,-251.912C178.028,-266.42 214.683,-293.754 250,-309.233 322.169,-340.865 351.151,-317.746 422,-352.233 440.225,-361.105 440.429,-370.127 458,-380.233 464.043,-383.709 470.584,-386.965 477.175,-389.947"/>
<polygon fill="#63b8ff" stroke="#63b8ff" points="476.248,-393.359 486.816,-394.114 479.025,-386.933 476.248,-393.359"/>
</g>
<!-- Node21 -->
<g id="node21" class="node"><title>Node21</title>
<g id="a_node21"><a xlink:href="classore_1_1data_1_1_x_m_l_utils.html#a226c81c31def2ba2c853ca803d1fafc5" target="_top" xlink:title=" ">
<polygon fill="white" stroke="#666666" points="385.5,-42.2333 286.5,-42.2333 286.5,-12.2333 385.5,-12.2333 385.5,-42.2333"/>
<text text-anchor="start" x="294.5" y="-30.2333" font-family="Helvetica,sans-Serif" font-size="10.00">ore::data::XMLUtils</text>
<text text-anchor="middle" x="336" y="-19.2333" font-family="Helvetica,sans-Serif" font-size="10.00">::addAttribute</text>
</a>
</g>
</g>
<!-- Node20&#45;&gt;Node21 -->
<g id="edge40" class="edge"><title>Node20&#45;&gt;Node21</title>
<path fill="none" stroke="#63b8ff" d="M201.452,-232.612C206.118,-230.144 210.418,-227.067 214,-223.233 265.833,-167.751 199.527,-112.956 250,-56.2333 257.221,-48.1177 266.808,-42.2715 276.937,-38.0606"/>
<polygon fill="#63b8ff" stroke="#63b8ff" points="278.143,-41.3466 286.34,-34.6349 275.746,-34.7695 278.143,-41.3466"/>
</g>
<!-- Node23 -->
<g id="node23" class="node"><title>Node23</title>
<g id="a_node23"><a xlink:href="classore_1_1data_1_1_trade_actions.html#a644718bb2fb240de962dc3c9a1fdf0dc" target="_top" xlink:title="Returns true of this set of actions is empty.">
<polygon fill="white" stroke="#666666" points="395,-166.233 277,-166.233 277,-136.233 395,-136.233 395,-166.233"/>
<text text-anchor="start" x="285" y="-154.233" font-family="Helvetica,sans-Serif" font-size="10.00">ore::data::TradeActions</text>
<text text-anchor="middle" x="336" y="-143.233" font-family="Helvetica,sans-Serif" font-size="10.00">::empty</text>
</a>
</g>
</g>
<!-- Node20&#45;&gt;Node23 -->
<g id="edge46" class="edge"><title>Node20&#45;&gt;Node23</title>
<path fill="none" stroke="#63b8ff" d="M195.499,-232.635C202.03,-230.175 208.405,-227.092 214,-223.233 235.952,-208.093 228.01,-190.318 250,-175.233 255.311,-171.59 261.167,-168.497 267.246,-165.87"/>
<polygon fill="#63b8ff" stroke="#63b8ff" points="268.877,-168.992 276.938,-162.116 266.349,-162.465 268.877,-168.992"/>
</g>
<!-- Node24 -->
<g id="node24" class="node"><title>Node24</title>
<g id="a_node24"><a xlink:href="classore_1_1data_1_1_envelope.html#a7efefb9270d6c4933e4c96de0771f17a" target="_top" xlink:title=" ">
<polygon fill="white" stroke="#666666" points="386,-214.233 286,-214.233 286,-184.233 386,-184.233 386,-214.233"/>
<text text-anchor="start" x="294" y="-202.233" font-family="Helvetica,sans-Serif" font-size="10.00">ore::data::Envelope</text>
<text text-anchor="middle" x="336" y="-191.233" font-family="Helvetica,sans-Serif" font-size="10.00">::toXML</text>
</a>
</g>
</g>
<!-- Node20&#45;&gt;Node24 -->
<g id="edge47" class="edge"><title>Node20&#45;&gt;Node24</title>
<path fill="none" stroke="#63b8ff" d="M189.501,-232.69C214.897,-226.851 247.797,-219.285 275.886,-212.826"/>
<polygon fill="#63b8ff" stroke="#63b8ff" points="277.033,-216.154 285.994,-210.502 275.464,-209.332 277.033,-216.154"/>
</g>
<!-- Node28 -->
<g id="node28" class="node"><title>Node28</title>
<g id="a_node28"><a xlink:href="classore_1_1data_1_1_trade_actions.html#a7efefb9270d6c4933e4c96de0771f17a" target="_top" xlink:title=" ">
<polygon fill="white" stroke="#666666" points="395,-300.233 277,-300.233 277,-270.233 395,-270.233 395,-300.233"/>
<text text-anchor="start" x="285" y="-288.233" font-family="Helvetica,sans-Serif" font-size="10.00">ore::data::TradeActions</text>
<text text-anchor="middle" x="336" y="-277.233" font-family="Helvetica,sans-Serif" font-size="10.00">::toXML</text>
</a>
</g>
</g>
<!-- Node20&#45;&gt;Node28 -->
<g id="edge56" class="edge"><title>Node20&#45;&gt;Node28</title>
<path fill="none" stroke="#63b8ff" d="M189.501,-251.776C212.305,-257.02 241.159,-263.655 267.147,-269.631"/>
<polygon fill="#63b8ff" stroke="#63b8ff" points="266.419,-273.055 276.949,-271.885 267.988,-266.233 266.419,-273.055"/>
</g>
<!-- Node21&#45;&gt;Node4 -->
<g id="edge41" class="edge"><title>Node21&#45;&gt;Node4</title>
<path fill="none" stroke="#63b8ff" d="M385.538,-14.7034C440.042,-2.8961 530.482,9.84054 604,-13.2333 819.905,-80.9961 950.73,-360.991 986.182,-446.391"/>
<polygon fill="#63b8ff" stroke="#63b8ff" points="983.009,-447.881 990.032,-455.814 989.489,-445.233 983.009,-447.881"/>
</g>
<!-- Node22 -->
<g id="node22" class="node"><title>Node22</title>
<g id="a_node22"><a xlink:href="classore_1_1data_1_1_x_m_l_document.html#a46d969cdb00bff64f3f4c0d2975a08d3" target="_top" xlink:title=" ">
<polygon fill="white" stroke="#666666" points="604,-41.7333 458,-41.7333 458,-22.7333 604,-22.7333 604,-41.7333"/>
<text text-anchor="middle" x="531" y="-29.7333" font-family="Helvetica,sans-Serif" font-size="10.00">ore::data::XMLDocument::doc</text>
</a>
</g>
</g>
<!-- Node21&#45;&gt;Node22 -->
<g id="edge42" class="edge"><title>Node21&#45;&gt;Node22</title>
<path fill="none" stroke="#63b8ff" d="M385.702,-28.495C404.511,-28.9823 426.562,-29.5536 447.685,-30.1008"/>
<polygon fill="#63b8ff" stroke="#63b8ff" points="447.875,-33.6068 457.962,-30.367 448.056,-26.6091 447.875,-33.6068"/>
</g>
<!-- Node24&#45;&gt;Node2 -->
<g id="edge48" class="edge"><title>Node24&#45;&gt;Node2</title>
<path fill="none" stroke="#63b8ff" d="M386.368,-211.035C398.642,-215.29 411.328,-220.912 422,-228.233 442.553,-242.333 437.153,-257.572 458,-271.233 514.579,-308.31 554.968,-267.632 604,-314.233 666.296,-373.442 682.699,-481.159 686.992,-529.979"/>
<polygon fill="#63b8ff" stroke="#63b8ff" points="683.506,-530.301 687.773,-539.999 690.485,-529.757 683.506,-530.301"/>
</g>
<!-- Node24&#45;&gt;Node3 -->
<g id="edge49" class="edge"><title>Node24&#45;&gt;Node3</title>
<path fill="none" stroke="#63b8ff" d="M386.188,-195.032C470.294,-190.727 642.027,-194.94 739,-288.233 786.491,-333.922 815.698,-407.983 828.46,-446.377"/>
<polygon fill="#63b8ff" stroke="#63b8ff" points="825.229,-447.761 831.625,-456.207 831.892,-445.616 825.229,-447.761"/>
</g>
<!-- Node24&#45;&gt;Node5 -->
<g id="edge50" class="edge"><title>Node24&#45;&gt;Node5</title>
<path fill="none" stroke="#63b8ff" d="M361.643,-214.258C379.511,-225.825 403.658,-242.895 422,-261.233 442.685,-281.914 489.39,-349.266 514.053,-385.556"/>
<polygon fill="#63b8ff" stroke="#63b8ff" points="511.312,-387.751 519.819,-394.066 517.107,-383.824 511.312,-387.751"/>
</g>
<!-- Node25 -->
<g id="node25" class="node"><title>Node25</title>
<g id="a_node25"><a xlink:href="classore_1_1data_1_1_netting_set_details.html#ab87072d461177abcb48735d002150bfb" target="_top" xlink:title=" ">
<polygon fill="white" stroke="#666666" points="599.5,-176.233 462.5,-176.233 462.5,-146.233 599.5,-146.233 599.5,-176.233"/>
<text text-anchor="start" x="470.5" y="-164.233" font-family="Helvetica,sans-Serif" font-size="10.00">ore::data::NettingSetDetails</text>
<text text-anchor="middle" x="531" y="-153.233" font-family="Helvetica,sans-Serif" font-size="10.00">::emptyOptionalFields</text>
</a>
</g>
</g>
<!-- Node24&#45;&gt;Node25 -->
<g id="edge51" class="edge"><title>Node24&#45;&gt;Node25</title>
<path fill="none" stroke="#63b8ff" d="M386.201,-189.546C406.339,-185.581 430.129,-180.897 452.499,-176.493"/>
<polygon fill="#63b8ff" stroke="#63b8ff" points="453.186,-179.925 462.321,-174.559 451.833,-173.057 453.186,-179.925"/>
</g>
<!-- Node26 -->
<g id="node26" class="node"><title>Node26</title>
<g id="a_node26"><a xlink:href="classore_1_1data_1_1_netting_set_details.html#a9bf8e40febad0782c5855488041ecfd7" target="_top" xlink:title=" ">
<polygon fill="white" stroke="#666666" points="599.5,-128.233 462.5,-128.233 462.5,-98.2333 599.5,-98.2333 599.5,-128.233"/>
<text text-anchor="start" x="470.5" y="-116.233" font-family="Helvetica,sans-Serif" font-size="10.00">ore::data::NettingSetDetails</text>
<text text-anchor="middle" x="531" y="-105.233" font-family="Helvetica,sans-Serif" font-size="10.00">::nettingSetId</text>
</a>
</g>
</g>
<!-- Node24&#45;&gt;Node26 -->
<g id="edge52" class="edge"><title>Node24&#45;&gt;Node26</title>
<path fill="none" stroke="#63b8ff" d="M386.067,-190.188C398.345,-186.656 411.109,-181.818 422,-175.233 441.908,-163.196 438.377,-149.73 458,-137.233 460.584,-135.588 463.292,-134.043 466.081,-132.595"/>
<polygon fill="#63b8ff" stroke="#63b8ff" points="467.658,-135.721 475.209,-128.29 464.672,-129.39 467.658,-135.721"/>
</g>
<!-- Node27 -->
<g id="node27" class="node"><title>Node27</title>
<g id="a_node27"><a xlink:href="classore_1_1data_1_1_netting_set_details.html#a7efefb9270d6c4933e4c96de0771f17a" target="_top" xlink:title=" ">
<polygon fill="white" stroke="#666666" points="599.5,-262.233 462.5,-262.233 462.5,-232.233 599.5,-232.233 599.5,-262.233"/>
<text text-anchor="start" x="470.5" y="-250.233" font-family="Helvetica,sans-Serif" font-size="10.00">ore::data::NettingSetDetails</text>
<text text-anchor="middle" x="531" y="-239.233" font-family="Helvetica,sans-Serif" font-size="10.00">::toXML</text>
</a>
</g>
</g>
<!-- Node24&#45;&gt;Node27 -->
<g id="edge53" class="edge"><title>Node24&#45;&gt;Node27</title>
<path fill="none" stroke="#63b8ff" d="M386.201,-211.47C408.483,-217.012 435.235,-223.665 459.589,-229.722"/>
<polygon fill="#63b8ff" stroke="#63b8ff" points="458.952,-233.17 469.501,-232.187 460.642,-226.377 458.952,-233.17"/>
</g>
<!-- Node27&#45;&gt;Node2 -->
<g id="edge54" class="edge"><title>Node27&#45;&gt;Node2</title>
<path fill="none" stroke="#63b8ff" d="M585.482,-262.287C592.37,-265.985 598.815,-270.566 604,-276.233 671.598,-350.118 685.181,-476.465 687.864,-530.037"/>
<polygon fill="#63b8ff" stroke="#63b8ff" points="684.367,-530.185 688.278,-540.032 691.361,-529.896 684.367,-530.185"/>
</g>
<!-- Node27&#45;&gt;Node3 -->
<g id="edge55" class="edge"><title>Node27&#45;&gt;Node3</title>
<path fill="none" stroke="#63b8ff" d="M575.033,-262.301C619.434,-279.309 689.063,-310.188 739,-352.233 772.741,-380.643 803.394,-422.05 820.851,-447.779"/>
<polygon fill="#63b8ff" stroke="#63b8ff" points="817.996,-449.806 826.459,-456.179 823.817,-445.919 817.996,-449.806"/>
</g>
<!-- Node28&#45;&gt;Node3 -->
<g id="edge57" class="edge"><title>Node28&#45;&gt;Node3</title>
<path fill="none" stroke="#63b8ff" d="M395.386,-297.746C404.36,-300.021 413.472,-302.537 422,-305.233 561.205,-349.244 719.917,-418.465 793.901,-451.893"/>
<polygon fill="#63b8ff" stroke="#63b8ff" points="792.791,-455.233 803.344,-456.174 795.681,-448.857 792.791,-455.233"/>
</g>
<!-- Node28&#45;&gt;Node5 -->
<g id="edge58" class="edge"><title>Node28&#45;&gt;Node5</title>
<path fill="none" stroke="#63b8ff" d="M395.4,-298.669C404.955,-302.62 414.249,-307.703 422,-314.233 447.553,-335.762 433.038,-358.021 458,-380.233 462.216,-383.985 466.979,-387.285 471.997,-390.18"/>
<polygon fill="#63b8ff" stroke="#63b8ff" points="470.753,-393.478 481.243,-394.967 473.972,-387.261 470.753,-393.478"/>
</g>
</g>
</svg>
