<?xml version="1.0" encoding="UTF-8" standalone="no"?>
<!DOCTYPE svg PUBLIC "-//W3C//DTD SVG 1.1//EN"
 "http://www.w3.org/Graphics/SVG/1.1/DTD/svg11.dtd">
<!-- Generated by graphviz version 2.38.0 (20140413.2041)
 -->
<!-- Title: CreditIndexConstituent Pages: 1 -->
<svg width="406pt" height="435pt"
 viewBox="0.00 0.00 405.50 435.00" xmlns="http://www.w3.org/2000/svg" xmlns:xlink="http://www.w3.org/1999/xlink">
<g id="graph0" class="graph" transform="scale(1 1) rotate(0) translate(4 431)">
<title>CreditIndexConstituent</title>
<!-- Node1 -->
<g id="node1" class="node"><title>Node1</title>
<g id="a_node1"><a xlink:title=" ">
<polygon fill="#999999" stroke="#666666" points="247.5,-162 113.5,-162 113.5,-0 247.5,-0 247.5,-162"/>
<text text-anchor="middle" x="180.5" y="-150" font-family="Helvetica,sans-Serif" font-size="10.00">{CreditIndexConstituent</text>
<text text-anchor="start" x="121.5" y="-139" font-family="Helvetica,sans-Serif" font-size="10.00">||+ CreditIndexConstituent()</text>
<text text-anchor="start" x="121.5" y="-128" font-family="Helvetica,sans-Serif" font-size="10.00">+ CreditIndexConstituent()</text>
<text text-anchor="start" x="121.5" y="-117" font-family="Helvetica,sans-Serif" font-size="10.00">+ fromXML()</text>
<text text-anchor="start" x="121.5" y="-106" font-family="Helvetica,sans-Serif" font-size="10.00">+ toXML()</text>
<text text-anchor="start" x="121.5" y="-95" font-family="Helvetica,sans-Serif" font-size="10.00">+ name()</text>
<text text-anchor="start" x="121.5" y="-84" font-family="Helvetica,sans-Serif" font-size="10.00">+ weight()</text>
<text text-anchor="start" x="121.5" y="-73" font-family="Helvetica,sans-Serif" font-size="10.00">+ priorWeight()</text>
<text text-anchor="start" x="121.5" y="-62" font-family="Helvetica,sans-Serif" font-size="10.00">+ recovery()</text>
<text text-anchor="start" x="121.5" y="-51" font-family="Helvetica,sans-Serif" font-size="10.00">+ auctionDate()</text>
<text text-anchor="start" x="121.5" y="-40" font-family="Helvetica,sans-Serif" font-size="10.00">+ auctionSettlementDate()</text>
<text text-anchor="start" x="121.5" y="-29" font-family="Helvetica,sans-Serif" font-size="10.00">+ defaultDate()</text>
<text text-anchor="start" x="121.5" y="-18" font-family="Helvetica,sans-Serif" font-size="10.00">+ eventDeterminationDate()</text>
<text text-anchor="middle" x="180.5" y="-7" font-family="Helvetica,sans-Serif" font-size="10.00">}</text>
</a>
</g>
</g>
<!-- Node2 -->
<g id="node2" class="node"><title>Node2</title>
<g id="a_node2"><a xlink:href="classore_1_1data_1_1_x_m_l_serializable.html" target="_top" xlink:title="Base class for all serializable classes.">
<polygon fill="white" stroke="#666666" points="111,-360 0,-360 0,-253 111,-253 111,-360"/>
<text text-anchor="middle" x="55.5" y="-348" font-family="Helvetica,sans-Serif" font-size="10.00">{XMLSerializable</text>
<text text-anchor="start" x="8" y="-337" font-family="Helvetica,sans-Serif" font-size="10.00">||+ ~XMLSerializable()</text>
<text text-anchor="start" x="8" y="-326" font-family="Helvetica,sans-Serif" font-size="10.00">+ fromXML()</text>
<text text-anchor="start" x="8" y="-315" font-family="Helvetica,sans-Serif" font-size="10.00">+ toXML()</text>
<text text-anchor="start" x="8" y="-304" font-family="Helvetica,sans-Serif" font-size="10.00">+ fromFile()</text>
<text text-anchor="start" x="8" y="-293" font-family="Helvetica,sans-Serif" font-size="10.00">+ toFile()</text>
<text text-anchor="start" x="8" y="-282" font-family="Helvetica,sans-Serif" font-size="10.00">+ fromXMLString()</text>
<text text-anchor="start" x="8" y="-271" font-family="Helvetica,sans-Serif" font-size="10.00">+ toXMLString()</text>
<text text-anchor="middle" x="55.5" y="-260" font-family="Helvetica,sans-Serif" font-size="10.00">}</text>
</a>
</g>
</g>
<!-- Node2&#45;&gt;Node1 -->
<g id="edge1" class="edge"><title>Node2&#45;&gt;Node1</title>
<path fill="none" stroke="#63b8ff" d="M89.8519,-244.079C103.972,-218.832 120.515,-189.254 135.575,-162.325"/>
<polygon fill="none" stroke="#63b8ff" points="86.7916,-242.38 84.965,-252.817 92.901,-245.797 86.7916,-242.38"/>
</g>
<!-- Node3 -->
<g id="node3" class="node"><title>Node3</title>
<g id="a_node3"><a xlink:title=" ">
<polygon fill="white" stroke="#666666" points="173.5,-321.5 129.5,-321.5 129.5,-291.5 173.5,-291.5 173.5,-321.5"/>
<text text-anchor="middle" x="151.5" y="-309.5" font-family="Helvetica,sans-Serif" font-size="10.00">{string</text>
<text text-anchor="middle" x="151.5" y="-298.5" font-family="Helvetica,sans-Serif" font-size="10.00">||}</text>
</a>
</g>
</g>
<!-- Node3&#45;&gt;Node1 -->
<g id="edge2" class="edge"><title>Node3&#45;&gt;Node1</title>
<path fill="none" stroke="#404040" d="M150.387,-291.479C148.811,-268.187 146.719,-220.113 152.5,-180 152.791,-177.983 153.112,-175.95 153.46,-173.905"/>
<polygon fill="none" stroke="#404040" points="153.462,-173.893 150.668,-167.245 155.729,-162.109 158.524,-168.756 153.462,-173.893"/>
<text text-anchor="middle" x="170.5" y="-205" font-family="Helvetica,sans-Serif" font-size="10.00"> &#45;name_</text>
</g>
<!-- Node4 -->
<g id="node4" class="node"><title>Node4</title>
<g id="a_node4"><a xlink:title=" ">
<polygon fill="white" stroke="#666666" points="206.5,-427 96.5,-427 96.5,-397 206.5,-397 206.5,-427"/>
<text text-anchor="middle" x="151.5" y="-415" font-family="Helvetica,sans-Serif" font-size="10.00">{basic_string&lt; Char &gt;</text>
<text text-anchor="middle" x="151.5" y="-404" font-family="Helvetica,sans-Serif" font-size="10.00">||}</text>
</a>
</g>
</g>
<!-- Node4&#45;&gt;Node3 -->
<g id="edge3" class="edge"><title>Node4&#45;&gt;Node3</title>
<path fill="none" stroke="#63b8ff" d="M151.5,-386.597C151.5,-366.425 151.5,-338.476 151.5,-321.769"/>
<polygon fill="none" stroke="#63b8ff" points="148,-386.609 151.5,-396.609 155,-386.609 148,-386.609"/>
</g>
<!-- Node5 -->
<g id="node5" class="node"><title>Node5</title>
<g id="a_node5"><a xlink:title=" ">
<polygon fill="white" stroke="#666666" points="231,-321.5 192,-321.5 192,-291.5 231,-291.5 231,-321.5"/>
<text text-anchor="middle" x="211.5" y="-309.5" font-family="Helvetica,sans-Serif" font-size="10.00">{Real</text>
<text text-anchor="middle" x="211.5" y="-298.5" font-family="Helvetica,sans-Serif" font-size="10.00">||}</text>
</a>
</g>
</g>
<!-- Node5&#45;&gt;Node1 -->
<g id="edge4" class="edge"><title>Node5&#45;&gt;Node1</title>
<path fill="none" stroke="#404040" d="M209.514,-291.179C206.245,-267.615 199.479,-218.832 193.302,-174.3"/>
<polygon fill="none" stroke="#404040" points="193.27,-174.068 188.484,-168.674 191.621,-162.182 196.408,-167.575 193.27,-174.068"/>
<text text-anchor="middle" x="232" y="-216" font-family="Helvetica,sans-Serif" font-size="10.00"> &#45;priorWeight_</text>
<text text-anchor="middle" x="232" y="-205" font-family="Helvetica,sans-Serif" font-size="10.00">&#45;recovery_</text>
<text text-anchor="middle" x="232" y="-194" font-family="Helvetica,sans-Serif" font-size="10.00">&#45;weight_</text>
</g>
<!-- Node6 -->
<g id="node6" class="node"><title>Node6</title>
<g id="a_node6"><a xlink:title=" ">
<polygon fill="white" stroke="#666666" points="314.5,-321.5 274.5,-321.5 274.5,-291.5 314.5,-291.5 314.5,-321.5"/>
<text text-anchor="middle" x="294.5" y="-309.5" font-family="Helvetica,sans-Serif" font-size="10.00">{Date</text>
<text text-anchor="middle" x="294.5" y="-298.5" font-family="Helvetica,sans-Serif" font-size="10.00">||}</text>
</a>
</g>
</g>
<!-- Node6&#45;&gt;Node1 -->
<g id="edge5" class="edge"><title>Node6&#45;&gt;Node1</title>
<path fill="none" stroke="#404040" d="M293.614,-291.175C291.63,-267.029 285.402,-217.221 266.5,-180 263.07,-173.245 259.066,-166.581 254.698,-160.1"/>
<polygon fill="none" stroke="#404040" points="254.524,-159.856 247.786,-157.288 247.565,-150.08 254.303,-152.648 254.524,-159.856"/>
<text text-anchor="middle" x="341.5" y="-227" font-family="Helvetica,sans-Serif" font-size="10.00"> &#45;auctionDate_</text>
<text text-anchor="start" x="285.5" y="-216" font-family="Helvetica,sans-Serif" font-size="10.00">&#45;auctionSettlementDate</text>
<text text-anchor="middle" x="341.5" y="-205" font-family="Helvetica,sans-Serif" font-size="10.00">_</text>
<text text-anchor="middle" x="341.5" y="-194" font-family="Helvetica,sans-Serif" font-size="10.00">&#45;defaultDate_</text>
<text text-anchor="middle" x="341.5" y="-183" font-family="Helvetica,sans-Serif" font-size="10.00">&#45;eventDeterminationDate_</text>
</g>
</g>
</svg>
