<?xml version="1.0" encoding="UTF-8" standalone="no"?>
<!DOCTYPE svg PUBLIC "-//W3C//DTD SVG 1.1//EN"
 "http://www.w3.org/Graphics/SVG/1.1/DTD/svg11.dtd">
<!-- Generated by graphviz version 2.38.0 (20140413.2041)
 -->
<!-- Title: reportOnStrikeSpreadGrid Pages: 1 -->
<svg width="627pt" height="230pt"
 viewBox="0.00 0.00 627.00 230.00" xmlns="http://www.w3.org/2000/svg" xmlns:xlink="http://www.w3.org/1999/xlink">
<g id="graph0" class="graph" transform="scale(1 1) rotate(0) translate(4 226)">
<title>reportOnStrikeSpreadGrid</title>
<!-- Node1 -->
<g id="node1" class="node"><title>Node1</title>
<g id="a_node1"><a xlink:title=" ">
<polygon fill="#999999" stroke="#666666" points="619,-168.5 491,-168.5 491,-149.5 619,-149.5 619,-168.5"/>
<text text-anchor="middle" x="555" y="-156.5" font-family="Helvetica,sans-Serif" font-size="10.00">reportOnStrikeSpreadGrid</text>
</a>
</g>
</g>
<!-- Node2 -->
<g id="node2" class="node"><title>Node2</title>
<g id="a_node2"><a xlink:href="classore_1_1data_1_1_generic_yield_vol_curve.html#a206631fc6017f18c7333840e67b1b228" target="_top" xlink:title="Detailed constructor.">
<polygon fill="white" stroke="#666666" points="290.5,-222 150.5,-222 150.5,-192 290.5,-192 290.5,-222"/>
<text text-anchor="start" x="158.5" y="-210" font-family="Helvetica,sans-Serif" font-size="10.00">ore::data::GenericYieldVol</text>
<text text-anchor="middle" x="220.5" y="-199" font-family="Helvetica,sans-Serif" font-size="10.00">Curve::GenericYieldVolCurve</text>
</a>
</g>
</g>
<!-- Node1&#45;&gt;Node2 -->
<g id="edge1" class="edge"><title>Node1&#45;&gt;Node2</title>
<path fill="none" stroke="#63b8ff" d="M480.711,-169.58C424.059,-177.758 346.181,-189.001 290.61,-197.023"/>
<polygon fill="#63b8ff" stroke="#63b8ff" points="481.279,-173.034 490.677,-168.141 480.279,-166.106 481.279,-173.034"/>
</g>
<!-- Node3 -->
<g id="node3" class="node"><title>Node3</title>
<g id="a_node3"><a xlink:href="classore_1_1data_1_1_cap_floor_vol_curve.html#a5430220ab06a25c32730c1e8f9bf1fe8" target="_top" xlink:title="Build calibration info.">
<polygon fill="white" stroke="#666666" points="289.5,-174 151.5,-174 151.5,-144 289.5,-144 289.5,-174"/>
<text text-anchor="start" x="159.5" y="-162" font-family="Helvetica,sans-Serif" font-size="10.00">ore::data::CapFloorVolCurve</text>
<text text-anchor="middle" x="220.5" y="-151" font-family="Helvetica,sans-Serif" font-size="10.00">::buildCalibrationInfo</text>
</a>
</g>
</g>
<!-- Node1&#45;&gt;Node3 -->
<g id="edge2" class="edge"><title>Node1&#45;&gt;Node3</title>
<path fill="none" stroke="#63b8ff" d="M480.661,-159C423.715,-159 345.348,-159 289.738,-159"/>
<polygon fill="#63b8ff" stroke="#63b8ff" points="480.677,-162.5 490.677,-159 480.677,-155.5 480.677,-162.5"/>
</g>
<!-- Node4 -->
<g id="node4" class="node"><title>Node4</title>
<g id="a_node4"><a xlink:href="namespaceore_1_1data.html#a5e51bfe798b6a12ac603d4578c144c6b" target="_top" xlink:title=" ">
<polygon fill="white" stroke="#666666" points="455,-128 331,-128 331,-98 455,-98 455,-128"/>
<text text-anchor="start" x="339" y="-116" font-family="Helvetica,sans-Serif" font-size="10.00">ore::data::effectiveReport</text>
<text text-anchor="middle" x="393" y="-105" font-family="Helvetica,sans-Serif" font-size="10.00">Config</text>
</a>
</g>
</g>
<!-- Node1&#45;&gt;Node4 -->
<g id="edge3" class="edge"><title>Node1&#45;&gt;Node4</title>
<path fill="none" stroke="#63b8ff" d="M511.117,-146.671C491.186,-140.941 467.305,-134.075 446.323,-128.043"/>
<polygon fill="#63b8ff" stroke="#63b8ff" points="510.27,-150.069 520.848,-149.469 512.204,-143.342 510.27,-150.069"/>
</g>
<!-- Node4&#45;&gt;Node2 -->
<g id="edge4" class="edge"><title>Node4&#45;&gt;Node2</title>
<path fill="none" stroke="#63b8ff" d="M366.712,-134.614C347.922,-149.809 321.124,-169.718 295,-183 288.539,-186.285 281.533,-189.252 274.499,-191.889"/>
<polygon fill="#63b8ff" stroke="#63b8ff" points="368.996,-137.268 374.5,-128.215 364.552,-131.86 368.996,-137.268"/>
</g>
<!-- Node4&#45;&gt;Node3 -->
<g id="edge5" class="edge"><title>Node4&#45;&gt;Node3</title>
<path fill="none" stroke="#63b8ff" d="M326.234,-130.743C310.03,-135.115 292.835,-139.754 277.162,-143.983"/>
<polygon fill="#63b8ff" stroke="#63b8ff" points="327.429,-134.046 336.172,-128.062 325.605,-127.288 327.429,-134.046"/>
</g>
<!-- Node5 -->
<g id="node5" class="node"><title>Node5</title>
<g id="a_node5"><a xlink:href="classore_1_1data_1_1_equity_vol_curve.html#a3987971ffc25c840ee49e2eca623218a" target="_top" xlink:title="Build the calibration info.">
<polygon fill="white" stroke="#666666" points="284,-126 157,-126 157,-96 284,-96 284,-126"/>
<text text-anchor="start" x="165" y="-114" font-family="Helvetica,sans-Serif" font-size="10.00">ore::data::EquityVolCurve</text>
<text text-anchor="middle" x="220.5" y="-103" font-family="Helvetica,sans-Serif" font-size="10.00">::buildCalibrationInfo</text>
</a>
</g>
</g>
<!-- Node4&#45;&gt;Node5 -->
<g id="edge6" class="edge"><title>Node4&#45;&gt;Node5</title>
<path fill="none" stroke="#63b8ff" d="M320.819,-112.165C308.649,-112.022 296.085,-111.875 284.157,-111.735"/>
<polygon fill="#63b8ff" stroke="#63b8ff" points="320.887,-115.666 330.927,-112.284 320.969,-108.666 320.887,-115.666"/>
</g>
<!-- Node6 -->
<g id="node6" class="node"><title>Node6</title>
<g id="a_node6"><a xlink:href="classore_1_1data_1_1_commodity_vol_curve.html#a817951613d73e2bcfa7eec984fddb440" target="_top" xlink:title="Build the calibration info.">
<polygon fill="white" stroke="#666666" points="295,-78 146,-78 146,-48 295,-48 295,-78"/>
<text text-anchor="start" x="154" y="-66" font-family="Helvetica,sans-Serif" font-size="10.00">ore::data::CommodityVolCurve</text>
<text text-anchor="middle" x="220.5" y="-55" font-family="Helvetica,sans-Serif" font-size="10.00">::buildVolCalibrationInfo</text>
</a>
</g>
</g>
<!-- Node4&#45;&gt;Node6 -->
<g id="edge7" class="edge"><title>Node4&#45;&gt;Node6</title>
<path fill="none" stroke="#63b8ff" d="M331.072,-95.1326C312.034,-89.5497 291.23,-83.4488 272.914,-78.0774"/>
<polygon fill="#63b8ff" stroke="#63b8ff" points="330.264,-98.5428 340.844,-97.9984 332.233,-91.8257 330.264,-98.5428"/>
</g>
<!-- Node7 -->
<g id="node7" class="node"><title>Node7</title>
<g id="a_node7"><a xlink:href="classore_1_1data_1_1_f_x_vol_curve.html#aa5334770a51cbfa81ecf8b7d14a3acf1" target="_top" xlink:title=" ">
<polygon fill="white" stroke="#666666" points="275.5,-30 165.5,-30 165.5,-0 275.5,-0 275.5,-30"/>
<text text-anchor="start" x="173.5" y="-18" font-family="Helvetica,sans-Serif" font-size="10.00">ore::data::FXVolCurve</text>
<text text-anchor="middle" x="220.5" y="-7" font-family="Helvetica,sans-Serif" font-size="10.00">::init</text>
</a>
</g>
</g>
<!-- Node4&#45;&gt;Node7 -->
<g id="edge8" class="edge"><title>Node4&#45;&gt;Node7</title>
<path fill="none" stroke="#63b8ff" d="M367.946,-90.9547C349.216,-74.7437 321.952,-53.157 295,-39 288.702,-35.6916 281.861,-32.7245 274.972,-30.099"/>
<polygon fill="#63b8ff" stroke="#63b8ff" points="365.854,-93.7756 375.672,-97.7568 370.48,-88.5217 365.854,-93.7756"/>
</g>
<!-- Node8 -->
<g id="node8" class="node"><title>Node8</title>
<g id="a_node8"><a xlink:href="classore_1_1data_1_1_f_x_vol_curve.html#af2e42c318046fe68ebaa0a7d0cc5067d" target="_top" xlink:title="Detailed constructor.">
<polygon fill="white" stroke="#666666" points="110,-30 0,-30 0,-0 110,-0 110,-30"/>
<text text-anchor="start" x="8" y="-18" font-family="Helvetica,sans-Serif" font-size="10.00">ore::data::FXVolCurve</text>
<text text-anchor="middle" x="55" y="-7" font-family="Helvetica,sans-Serif" font-size="10.00">::FXVolCurve</text>
</a>
</g>
</g>
<!-- Node7&#45;&gt;Node8 -->
<g id="edge9" class="edge"><title>Node7&#45;&gt;Node8</title>
<path fill="none" stroke="#63b8ff" d="M154.952,-15C140.137,-15 124.532,-15 110.205,-15"/>
<polygon fill="#63b8ff" stroke="#63b8ff" points="155.057,-18.5001 165.057,-15 155.057,-11.5001 155.057,-18.5001"/>
</g>
</g>
</svg>
