<?xml version="1.0" encoding="UTF-8" standalone="no"?>
<!DOCTYPE svg PUBLIC "-//W3C//DTD SVG 1.1//EN"
 "http://www.w3.org/Graphics/SVG/1.1/DTD/svg11.dtd">
<!-- Generated by graphviz version 2.38.0 (20140413.2041)
 -->
<!-- Title: DateGrid Pages: 1 -->
<svg width="348pt" height="101pt"
 viewBox="0.00 0.00 348.00 101.00" xmlns="http://www.w3.org/2000/svg" xmlns:xlink="http://www.w3.org/1999/xlink">
<g id="graph0" class="graph" transform="scale(1 1) rotate(0) translate(4 97)">
<title>DateGrid</title>
<!-- Node1 -->
<g id="node1" class="node"><title>Node1</title>
<g id="a_node1"><a xlink:title=" ">
<polygon fill="#999999" stroke="#666666" points="55,-56 0,-56 0,-37 55,-37 55,-56"/>
<text text-anchor="middle" x="27.5" y="-44" font-family="Helvetica,sans-Serif" font-size="10.00">DateGrid</text>
</a>
</g>
</g>
<!-- Node2 -->
<g id="node2" class="node"><title>Node2</title>
<g id="a_node2"><a xlink:href="classore_1_1data_1_1_date_grid.html#afebe417f286f8a5dbc48cddc71dcb877" target="_top" xlink:title=" ">
<polygon fill="white" stroke="#666666" points="178.5,-93 116.5,-93 116.5,-74 178.5,-74 178.5,-93"/>
<text text-anchor="middle" x="147.5" y="-81" font-family="Helvetica,sans-Serif" font-size="10.00">buildDates</text>
</a>
</g>
</g>
<!-- Node1&#45;&gt;Node2 -->
<g id="edge1" class="edge"><title>Node1&#45;&gt;Node2</title>
<path fill="none" stroke="#63b8ff" d="M55.276,-54.8959C70.396,-59.6369 89.5889,-65.655 106.465,-70.9467"/>
<polygon fill="#63b8ff" stroke="#63b8ff" points="105.497,-74.311 116.086,-73.9633 107.591,-67.6316 105.497,-74.311"/>
</g>
<!-- Node5 -->
<g id="node5" class="node"><title>Node5</title>
<g id="a_node5"><a xlink:href="classore_1_1data_1_1_date_grid.html#a878c3d7ce8419bd77556a8bca13dfca1" target="_top" xlink:title=" ">
<polygon fill="white" stroke="#666666" points="180.5,-56 114.5,-56 114.5,-37 180.5,-37 180.5,-56"/>
<text text-anchor="middle" x="147.5" y="-44" font-family="Helvetica,sans-Serif" font-size="10.00">dayCounter</text>
</a>
</g>
</g>
<!-- Node1&#45;&gt;Node5 -->
<g id="edge4" class="edge"><title>Node1&#45;&gt;Node5</title>
<path fill="none" stroke="#63b8ff" d="M55.276,-46.5C69.6672,-46.5 87.748,-46.5 104.009,-46.5"/>
<polygon fill="#63b8ff" stroke="#63b8ff" points="104.375,-50.0001 114.375,-46.5 104.375,-43.0001 104.375,-50.0001"/>
</g>
<!-- Node6 -->
<g id="node6" class="node"><title>Node6</title>
<g id="a_node6"><a xlink:href="group__utilities.html#ga8e0623e2cb01e250e9cfec4619256208" target="_top" xlink:title="Convert text to QuantLib::Period.">
<polygon fill="white" stroke="#666666" points="204,-19 91,-19 91,-0 204,-0 204,-19"/>
<text text-anchor="middle" x="147.5" y="-7" font-family="Helvetica,sans-Serif" font-size="10.00">ore::data::parsePeriod</text>
</a>
</g>
</g>
<!-- Node1&#45;&gt;Node6 -->
<g id="edge5" class="edge"><title>Node1&#45;&gt;Node6</title>
<path fill="none" stroke="#63b8ff" d="M55.276,-38.1041C70.396,-33.3631 89.5889,-27.345 106.465,-22.0533"/>
<polygon fill="#63b8ff" stroke="#63b8ff" points="107.591,-25.3684 116.086,-19.0367 105.497,-18.689 107.591,-25.3684"/>
</g>
<!-- Node3 -->
<g id="node3" class="node"><title>Node3</title>
<g id="a_node3"><a xlink:href="classore_1_1data_1_1_date_grid.html#aa5af53510557e77a03906c5016ebe66f" target="_top" xlink:title=" ">
<polygon fill="white" stroke="#666666" points="269,-93 240,-93 240,-74 269,-74 269,-93"/>
<text text-anchor="middle" x="254.5" y="-81" font-family="Helvetica,sans-Serif" font-size="10.00">log</text>
</a>
</g>
</g>
<!-- Node2&#45;&gt;Node3 -->
<g id="edge2" class="edge"><title>Node2&#45;&gt;Node3</title>
<path fill="none" stroke="#63b8ff" d="M178.589,-83.5C194.876,-83.5 214.706,-83.5 229.871,-83.5"/>
<polygon fill="#63b8ff" stroke="#63b8ff" points="229.972,-87.0001 239.972,-83.5 229.972,-80.0001 229.972,-87.0001"/>
</g>
<!-- Node4 -->
<g id="node4" class="node"><title>Node4</title>
<g id="a_node4"><a xlink:href="classore_1_1data_1_1_date_grid.html#a48b90275c7bccf5822418ef47bb922ee" target="_top" xlink:title="The size of the date grid.">
<polygon fill="white" stroke="#666666" points="340,-93 305,-93 305,-74 340,-74 340,-93"/>
<text text-anchor="middle" x="322.5" y="-81" font-family="Helvetica,sans-Serif" font-size="10.00">size</text>
</a>
</g>
</g>
<!-- Node3&#45;&gt;Node4 -->
<g id="edge3" class="edge"><title>Node3&#45;&gt;Node4</title>
<path fill="none" stroke="#63b8ff" d="M269.175,-83.5C276.477,-83.5 285.727,-83.5 294.412,-83.5"/>
<polygon fill="#63b8ff" stroke="#63b8ff" points="294.557,-87.0001 304.557,-83.5 294.557,-80.0001 294.557,-87.0001"/>
</g>
</g>
</svg>
