<?xml version="1.0" encoding="UTF-8" standalone="no"?>
<!DOCTYPE svg PUBLIC "-//W3C//DTD SVG 1.1//EN"
 "http://www.w3.org/Graphics/SVG/1.1/DTD/svg11.dtd">
<!-- Generated by graphviz version 2.38.0 (20140413.2041)
 -->
<!-- Title: name Pages: 1 -->
<svg width="785pt" height="442pt"
 viewBox="0.00 0.00 785.00 442.00" xmlns="http://www.w3.org/2000/svg" xmlns:xlink="http://www.w3.org/1999/xlink">
<g id="graph0" class="graph" transform="scale(1 1) rotate(0) translate(4 438)">
<title>name</title>
<!-- Node1 -->
<g id="node1" class="node"><title>Node1</title>
<g id="a_node1"><a xlink:title=" ">
<polygon fill="#999999" stroke="#666666" points="777,-227.5 736,-227.5 736,-208.5 777,-208.5 777,-227.5"/>
<text text-anchor="middle" x="756.5" y="-215.5" font-family="Helvetica,sans-Serif" font-size="10.00">name</text>
</a>
</g>
</g>
<!-- Node2 -->
<g id="node2" class="node"><title>Node2</title>
<g id="a_node2"><a xlink:href="classore_1_1data_1_1_index_info.html#a4a4b506377c2c463c36ebd016b62c124" target="_top" xlink:title=" ">
<polygon fill="white" stroke="#666666" points="673.5,-398.5 618.5,-398.5 618.5,-379.5 673.5,-379.5 673.5,-398.5"/>
<text text-anchor="middle" x="646" y="-386.5" font-family="Helvetica,sans-Serif" font-size="10.00">IndexInfo</text>
</a>
</g>
</g>
<!-- Node1&#45;&gt;Node2 -->
<g id="edge1" class="edge"><title>Node1&#45;&gt;Node2</title>
<path fill="none" stroke="#63b8ff" d="M752.976,-237.474C748.038,-268.231 734.402,-328.315 700,-365 692.883,-372.589 682.914,-377.956 673.539,-381.661"/>
<polygon fill="#63b8ff" stroke="#63b8ff" points="756.441,-237.969 754.424,-227.568 749.514,-236.956 756.441,-237.969"/>
</g>
<!-- Node3 -->
<g id="node3" class="node"><title>Node3</title>
<g id="a_node3"><a xlink:href="classore_1_1data_1_1_index_info.html#abafc48290dd88aec0e49edaa1d08c02e" target="_top" xlink:title=" ">
<polygon fill="white" stroke="#666666" points="668,-170.5 624,-170.5 624,-151.5 668,-151.5 668,-170.5"/>
<text text-anchor="middle" x="646" y="-158.5" font-family="Helvetica,sans-Serif" font-size="10.00">comm</text>
</a>
</g>
</g>
<!-- Node1&#45;&gt;Node3 -->
<g id="edge2" class="edge"><title>Node1&#45;&gt;Node3</title>
<path fill="none" stroke="#63b8ff" d="M731.543,-202.964C721.881,-197.11 710.545,-190.501 700,-185 689.701,-179.628 677.96,-174.239 668.15,-169.932"/>
<polygon fill="#63b8ff" stroke="#63b8ff" points="729.858,-206.037 740.212,-208.285 733.52,-200.071 729.858,-206.037"/>
</g>
<!-- Node11 -->
<g id="node11" class="node"><title>Node11</title>
<g id="a_node11"><a xlink:href="classore_1_1data_1_1_scripted_trade_engine_builder.html#ae84ff5f56b92bdffaec8771a2cf24cb2" target="_top" xlink:title=" ">
<polygon fill="white" stroke="#666666" points="349.5,-214 179.5,-214 179.5,-184 349.5,-184 349.5,-214"/>
<text text-anchor="start" x="187.5" y="-202" font-family="Helvetica,sans-Serif" font-size="10.00">ore::data::ScriptedTrade</text>
<text text-anchor="middle" x="264.5" y="-191" font-family="Helvetica,sans-Serif" font-size="10.00">EngineBuilder::populateFixingsMap</text>
</a>
</g>
</g>
<!-- Node1&#45;&gt;Node11 -->
<g id="edge33" class="edge"><title>Node1&#45;&gt;Node11</title>
<path fill="none" stroke="#63b8ff" d="M725.658,-216.843C652.356,-214.001 461.333,-206.594 349.803,-202.269"/>
<polygon fill="#63b8ff" stroke="#63b8ff" points="725.861,-220.353 735.989,-217.243 726.132,-213.359 725.861,-220.353"/>
</g>
<!-- Node13 -->
<g id="node13" class="node"><title>Node13</title>
<g id="a_node13"><a xlink:href="classore_1_1data_1_1_scripted_trade_engine_builder.html#a148e1a4ab9d00e707002b9de78016538" target="_top" xlink:title=" ">
<polygon fill="white" stroke="#666666" points="556,-316.5 394,-316.5 394,-275.5 556,-275.5 556,-316.5"/>
<text text-anchor="start" x="402" y="-304.5" font-family="Helvetica,sans-Serif" font-size="10.00">ore::data::ScriptedTrade</text>
<text text-anchor="start" x="402" y="-293.5" font-family="Helvetica,sans-Serif" font-size="10.00">EngineBuilder::compileSimulation</text>
<text text-anchor="middle" x="475" y="-282.5" font-family="Helvetica,sans-Serif" font-size="10.00">AndAddDates</text>
</a>
</g>
</g>
<!-- Node1&#45;&gt;Node13 -->
<g id="edge15" class="edge"><title>Node1&#45;&gt;Node13</title>
<path fill="none" stroke="#63b8ff" d="M726.551,-230.972C718.091,-234.496 708.762,-238.127 700,-241 653.007,-256.407 599.223,-269.749 556.137,-279.433"/>
<polygon fill="#63b8ff" stroke="#63b8ff" points="728.175,-234.084 735.996,-226.937 725.425,-227.647 728.175,-234.084"/>
</g>
<!-- Node14 -->
<g id="node14" class="node"><title>Node14</title>
<g id="a_node14"><a xlink:href="classore_1_1data_1_1_scripted_trade_engine_builder.html#a49512e4f85a8ba872b2b05b90478cb4b" target="_top" xlink:title=" ">
<polygon fill="white" stroke="#666666" points="546.5,-257 403.5,-257 403.5,-227 546.5,-227 546.5,-257"/>
<text text-anchor="start" x="411.5" y="-245" font-family="Helvetica,sans-Serif" font-size="10.00">ore::data::ScriptedTrade</text>
<text text-anchor="middle" x="475" y="-234" font-family="Helvetica,sans-Serif" font-size="10.00">EngineBuilder::extractIndices</text>
</a>
</g>
</g>
<!-- Node1&#45;&gt;Node14 -->
<g id="edge17" class="edge"><title>Node1&#45;&gt;Node14</title>
<path fill="none" stroke="#63b8ff" d="M725.641,-220.564C683.24,-224.205 604.319,-230.982 546.528,-235.944"/>
<polygon fill="#63b8ff" stroke="#63b8ff" points="726.182,-224.03 735.846,-219.688 725.583,-217.056 726.182,-224.03"/>
</g>
<!-- Node15 -->
<g id="node15" class="node"><title>Node15</title>
<g id="a_node15"><a xlink:href="classore_1_1data_1_1_scripted_trade_engine_builder.html#abba8572fc9dc55d54264540f8f276217" target="_top" xlink:title=" ">
<polygon fill="white" stroke="#666666" points="546,-413 404,-413 404,-383 546,-383 546,-413"/>
<text text-anchor="start" x="412" y="-401" font-family="Helvetica,sans-Serif" font-size="10.00">ore::data::ScriptedTrade</text>
<text text-anchor="middle" x="475" y="-390" font-family="Helvetica,sans-Serif" font-size="10.00">EngineBuilder::getCommCcy</text>
</a>
</g>
</g>
<!-- Node1&#45;&gt;Node15 -->
<g id="edge19" class="edge"><title>Node1&#45;&gt;Node15</title>
<path fill="none" stroke="#63b8ff" d="M747.732,-236.735C738.752,-256.44 722.298,-287.271 700,-307 655.91,-346.01 592.898,-369.59 544.93,-382.937"/>
<polygon fill="#63b8ff" stroke="#63b8ff" points="750.943,-238.127 751.738,-227.562 744.528,-235.326 750.943,-238.127"/>
</g>
<!-- Node19 -->
<g id="node19" class="node"><title>Node19</title>
<g id="a_node19"><a xlink:href="classore_1_1data_1_1_scripted_trade_engine_builder.html#afce9c1a8fdc0a930a897834caea0e42b" target="_top" xlink:title=" ">
<polygon fill="white" stroke="#666666" points="537.5,-365 412.5,-365 412.5,-335 537.5,-335 537.5,-365"/>
<text text-anchor="start" x="420.5" y="-353" font-family="Helvetica,sans-Serif" font-size="10.00">ore::data::ScriptedTrade</text>
<text text-anchor="middle" x="475" y="-342" font-family="Helvetica,sans-Serif" font-size="10.00">EngineBuilder::getEqCcy</text>
</a>
</g>
</g>
<!-- Node1&#45;&gt;Node19 -->
<g id="edge26" class="edge"><title>Node1&#45;&gt;Node19</title>
<path fill="none" stroke="#63b8ff" d="M739.793,-235.392C729.339,-246.174 714.842,-259.694 700,-269 649.373,-300.743 584.531,-322.459 537.652,-335.353"/>
<polygon fill="#63b8ff" stroke="#63b8ff" points="742.635,-237.478 746.937,-227.796 737.536,-232.682 742.635,-237.478"/>
</g>
<!-- Node20 -->
<g id="node20" class="node"><title>Node20</title>
<g id="a_node20"><a xlink:href="classore_1_1data_1_1_index_info.html#a9902f060020e7975122cac8eb56d401c" target="_top" xlink:title=" ">
<polygon fill="white" stroke="#666666" points="675,-133.5 617,-133.5 617,-114.5 675,-114.5 675,-133.5"/>
<text text-anchor="middle" x="646" y="-121.5" font-family="Helvetica,sans-Serif" font-size="10.00">operator&lt;</text>
</a>
</g>
</g>
<!-- Node1&#45;&gt;Node20 -->
<g id="edge30" class="edge"><title>Node1&#45;&gt;Node20</title>
<path fill="none" stroke="#63b8ff" d="M745.901,-199.339C736.349,-182.461 720.217,-158.02 700,-143 692.703,-137.579 683.713,-133.589 675.223,-130.706"/>
<polygon fill="#63b8ff" stroke="#63b8ff" points="742.902,-201.151 750.745,-208.274 749.055,-197.815 742.902,-201.151"/>
</g>
<!-- Node21 -->
<g id="node21" class="node"><title>Node21</title>
<g id="a_node21"><a xlink:href="namespaceore_1_1data.html#afbb968fe0a8ccf155b0a7a150513b92f" target="_top" xlink:title=" ">
<polygon fill="white" stroke="#666666" points="700,-96.5 592,-96.5 592,-77.5 700,-77.5 700,-96.5"/>
<text text-anchor="middle" x="646" y="-84.5" font-family="Helvetica,sans-Serif" font-size="10.00">ore::data::operator&lt;&lt;</text>
</a>
</g>
</g>
<!-- Node1&#45;&gt;Node21 -->
<g id="edge31" class="edge"><title>Node1&#45;&gt;Node21</title>
<path fill="none" stroke="#63b8ff" d="M750.772,-198.71C743.745,-173.934 728.236,-131.141 700,-106 695.693,-102.165 690.556,-99.0884 685.2,-96.6245"/>
<polygon fill="#63b8ff" stroke="#63b8ff" points="747.398,-199.643 753.348,-208.41 754.164,-197.846 747.398,-199.643"/>
</g>
<!-- Node22 -->
<g id="node22" class="node"><title>Node22</title>
<g id="a_node22"><a xlink:href="classore_1_1data_1_1_index_info.html#a31dfe21ac30cd8131cf5d9e7e0b0c01d" target="_top" xlink:title=" ">
<polygon fill="white" stroke="#666666" points="678,-59.5 614,-59.5 614,-40.5 678,-40.5 678,-59.5"/>
<text text-anchor="middle" x="646" y="-47.5" font-family="Helvetica,sans-Serif" font-size="10.00">operator==</text>
</a>
</g>
</g>
<!-- Node1&#45;&gt;Node22 -->
<g id="edge32" class="edge"><title>Node1&#45;&gt;Node22</title>
<path fill="none" stroke="#63b8ff" d="M753.572,-198.183C749.436,-166.378 736.86,-103.879 700,-68 694.011,-62.1709 686.065,-58.2268 678.152,-55.5592"/>
<polygon fill="#63b8ff" stroke="#63b8ff" points="750.128,-198.869 754.743,-208.406 757.082,-198.073 750.128,-198.869"/>
</g>
<!-- Node4 -->
<g id="node4" class="node"><title>Node4</title>
<g id="a_node4"><a xlink:href="classore_1_1data_1_1_index_info.html#a048b99d07832f71a6ff085a8f1fcb3c9" target="_top" xlink:title=" ">
<polygon fill="white" stroke="#666666" points="495,-127.5 455,-127.5 455,-108.5 495,-108.5 495,-127.5"/>
<text text-anchor="middle" x="475" y="-115.5" font-family="Helvetica,sans-Serif" font-size="10.00">index</text>
</a>
</g>
</g>
<!-- Node3&#45;&gt;Node4 -->
<g id="edge3" class="edge"><title>Node3&#45;&gt;Node4</title>
<path fill="none" stroke="#63b8ff" d="M613.875,-153.081C579.183,-144.254 524.168,-130.256 495.236,-122.894"/>
<polygon fill="#63b8ff" stroke="#63b8ff" points="613.383,-156.567 623.938,-155.641 615.11,-149.783 613.383,-156.567"/>
</g>
<!-- Node3&#45;&gt;Node11 -->
<g id="edge14" class="edge"><title>Node3&#45;&gt;Node11</title>
<path fill="none" stroke="#63b8ff" d="M613.582,-163.87C566.04,-168.243 472.984,-176.922 394,-185 379.712,-186.461 364.537,-188.067 349.811,-189.654"/>
<polygon fill="#63b8ff" stroke="#63b8ff" points="614.197,-167.328 623.835,-162.929 613.557,-160.358 614.197,-167.328"/>
</g>
<!-- Node5 -->
<g id="node5" class="node"><title>Node5</title>
<g id="a_node5"><a xlink:href="classore_1_1data_1_1_model_impl.html#a4ac21d3f7cd5f0f32151f1a7f55b5c08" target="_top" xlink:title=" ">
<polygon fill="white" stroke="#666666" points="120,-174 15,-174 15,-144 120,-144 120,-174"/>
<text text-anchor="start" x="23" y="-162" font-family="Helvetica,sans-Serif" font-size="10.00">ore::data::ModelImpl</text>
<text text-anchor="middle" x="67.5" y="-151" font-family="Helvetica,sans-Serif" font-size="10.00">::barrierProbability</text>
</a>
</g>
</g>
<!-- Node4&#45;&gt;Node5 -->
<g id="edge4" class="edge"><title>Node4&#45;&gt;Node5</title>
<path fill="none" stroke="#63b8ff" d="M444.806,-123.5C421.408,-127.735 387.696,-133.446 358,-137 275.045,-146.927 178.15,-153.222 120.142,-156.426"/>
<polygon fill="#63b8ff" stroke="#63b8ff" points="445.574,-126.918 454.779,-121.672 444.312,-120.033 445.574,-126.918"/>
</g>
<!-- Node6 -->
<g id="node6" class="node"><title>Node6</title>
<g id="a_node6"><a xlink:href="classore_1_1data_1_1_model_c_g_impl.html#a935b238fcd1d59e45582e83c9de40ba8" target="_top" xlink:title=" ">
<polygon fill="white" stroke="#666666" points="127,-78 8,-78 8,-48 127,-48 127,-78"/>
<text text-anchor="start" x="16" y="-66" font-family="Helvetica,sans-Serif" font-size="10.00">ore::data::ModelCGImpl</text>
<text text-anchor="middle" x="67.5" y="-55" font-family="Helvetica,sans-Serif" font-size="10.00">::barrierProbability</text>
</a>
</g>
</g>
<!-- Node4&#45;&gt;Node6 -->
<g id="edge5" class="edge"><title>Node4&#45;&gt;Node6</title>
<path fill="none" stroke="#63b8ff" d="M445.286,-109.497C421.97,-102.914 388.133,-94.0881 358,-89 278.635,-75.5991 185.786,-68.8041 127.064,-65.5855"/>
<polygon fill="#63b8ff" stroke="#63b8ff" points="444.322,-112.862 454.9,-112.252 446.251,-106.132 444.322,-112.862"/>
</g>
<!-- Node7 -->
<g id="node7" class="node"><title>Node7</title>
<g id="a_node7"><a xlink:href="classore_1_1data_1_1_model_c_g_impl.html#af4890e5ce9f5da39271fcd03a5fa4ded" target="_top" xlink:title=" ">
<polygon fill="white" stroke="#666666" points="324,-42 205,-42 205,-12 324,-12 324,-42"/>
<text text-anchor="start" x="213" y="-30" font-family="Helvetica,sans-Serif" font-size="10.00">ore::data::ModelCGImpl</text>
<text text-anchor="middle" x="264.5" y="-19" font-family="Helvetica,sans-Serif" font-size="10.00">::eval</text>
</a>
</g>
</g>
<!-- Node4&#45;&gt;Node7 -->
<g id="edge6" class="edge"><title>Node4&#45;&gt;Node7</title>
<path fill="none" stroke="#63b8ff" d="M449.572,-103.207C426.538,-89.6809 390.756,-69.7461 358,-56 345.74,-50.8552 332.238,-46.124 319.428,-42.0412"/>
<polygon fill="#63b8ff" stroke="#63b8ff" points="447.939,-106.308 458.325,-108.399 451.51,-100.287 447.939,-106.308"/>
</g>
<!-- Node9 -->
<g id="node9" class="node"><title>Node9</title>
<g id="a_node9"><a xlink:href="classore_1_1data_1_1_model_impl.html#a81a2b43ee72d5f48b3882dd1f906f753" target="_top" xlink:title=" ">
<polygon fill="white" stroke="#666666" points="317,-128 212,-128 212,-98 317,-98 317,-128"/>
<text text-anchor="start" x="220" y="-116" font-family="Helvetica,sans-Serif" font-size="10.00">ore::data::ModelImpl</text>
<text text-anchor="middle" x="264.5" y="-105" font-family="Helvetica,sans-Serif" font-size="10.00">::eval</text>
</a>
</g>
</g>
<!-- Node4&#45;&gt;Node9 -->
<g id="edge9" class="edge"><title>Node4&#45;&gt;Node9</title>
<path fill="none" stroke="#63b8ff" d="M444.422,-117.291C411.418,-116.499 357.402,-115.204 317.341,-114.243"/>
<polygon fill="#63b8ff" stroke="#63b8ff" points="444.677,-120.798 454.759,-117.539 444.845,-113.8 444.677,-120.798"/>
</g>
<!-- Node4&#45;&gt;Node11 -->
<g id="edge12" class="edge"><title>Node4&#45;&gt;Node11</title>
<path fill="none" stroke="#63b8ff" d="M445.18,-126.734C429.671,-131.856 410.412,-138.907 394,-147 376.971,-155.398 375.209,-161.979 358,-170 346.712,-175.261 334.221,-179.904 322.165,-183.846"/>
<polygon fill="#63b8ff" stroke="#63b8ff" points="446.313,-130.046 454.763,-123.654 444.171,-123.382 446.313,-130.046"/>
</g>
<!-- Node7&#45;&gt;Node6 -->
<g id="edge7" class="edge"><title>Node7&#45;&gt;Node6</title>
<path fill="none" stroke="#63b8ff" d="M195.014,-39.6436C172.918,-43.7229 148.635,-48.2059 127.302,-52.1443"/>
<polygon fill="#63b8ff" stroke="#63b8ff" points="195.795,-43.0586 204.994,-37.8012 194.524,-36.1749 195.795,-43.0586"/>
</g>
<!-- Node8 -->
<g id="node8" class="node"><title>Node8</title>
<g id="a_node8"><a xlink:href="classore_1_1data_1_1_black_scholes_c_g.html#a4881d30442518e57e72ec865222d5940" target="_top" xlink:title=" ">
<polygon fill="white" stroke="#666666" points="135,-30 0,-30 0,-0 135,-0 135,-30"/>
<text text-anchor="start" x="8" y="-18" font-family="Helvetica,sans-Serif" font-size="10.00">ore::data::BlackScholesCG</text>
<text text-anchor="middle" x="67.5" y="-7" font-family="Helvetica,sans-Serif" font-size="10.00">::getFutureBarrierProb</text>
</a>
</g>
</g>
<!-- Node7&#45;&gt;Node8 -->
<g id="edge8" class="edge"><title>Node7&#45;&gt;Node8</title>
<path fill="none" stroke="#63b8ff" d="M195.011,-22.7853C175.592,-21.5903 154.483,-20.2913 135.173,-19.103"/>
<polygon fill="#63b8ff" stroke="#63b8ff" points="194.797,-26.2787 204.994,-23.3996 195.227,-19.2919 194.797,-26.2787"/>
</g>
<!-- Node9&#45;&gt;Node5 -->
<g id="edge10" class="edge"><title>Node9&#45;&gt;Node5</title>
<path fill="none" stroke="#63b8ff" d="M201.894,-127.533C175.595,-133.737 145.247,-140.896 120.148,-146.816"/>
<polygon fill="#63b8ff" stroke="#63b8ff" points="202.826,-130.909 211.756,-125.206 201.219,-124.096 202.826,-130.909"/>
</g>
<!-- Node10 -->
<g id="node10" class="node"><title>Node10</title>
<g id="a_node10"><a xlink:href="classore_1_1data_1_1_black_scholes.html#a1750263c28cbb6063301d48df87c0541" target="_top" xlink:title=" ">
<polygon fill="white" stroke="#666666" points="128,-126 7,-126 7,-96 128,-96 128,-126"/>
<text text-anchor="start" x="15" y="-114" font-family="Helvetica,sans-Serif" font-size="10.00">ore::data::BlackScholes</text>
<text text-anchor="middle" x="67.5" y="-103" font-family="Helvetica,sans-Serif" font-size="10.00">::getFutureBarrierProb</text>
</a>
</g>
</g>
<!-- Node9&#45;&gt;Node10 -->
<g id="edge11" class="edge"><title>Node9&#45;&gt;Node10</title>
<path fill="none" stroke="#63b8ff" d="M201.554,-112.365C178.055,-112.124 151.364,-111.85 128.087,-111.611"/>
<polygon fill="#63b8ff" stroke="#63b8ff" points="201.72,-115.866 211.756,-112.469 201.792,-108.867 201.72,-115.866"/>
</g>
<!-- Node12 -->
<g id="node12" class="node"><title>Node12</title>
<g id="a_node12"><a xlink:href="classore_1_1data_1_1_scripted_trade_engine_builder.html#afa7bc32050325672e45000b32d62ec0b" target="_top" xlink:title=" ">
<polygon fill="white" stroke="#666666" points="128,-316 7,-316 7,-286 128,-286 128,-316"/>
<text text-anchor="start" x="15" y="-304" font-family="Helvetica,sans-Serif" font-size="10.00">ore::data::ScriptedTrade</text>
<text text-anchor="middle" x="67.5" y="-293" font-family="Helvetica,sans-Serif" font-size="10.00">EngineBuilder::engine</text>
</a>
</g>
</g>
<!-- Node11&#45;&gt;Node12 -->
<g id="edge13" class="edge"><title>Node11&#45;&gt;Node12</title>
<path fill="none" stroke="#63b8ff" d="M195.982,-217.419C187.408,-220.553 178.884,-224.081 171,-228 138.721,-244.046 105.471,-269.734 85.9111,-285.968"/>
<polygon fill="#63b8ff" stroke="#63b8ff" points="197.36,-220.645 205.651,-214.049 195.056,-214.035 197.36,-220.645"/>
</g>
<!-- Node13&#45;&gt;Node12 -->
<g id="edge16" class="edge"><title>Node13&#45;&gt;Node12</title>
<path fill="none" stroke="#63b8ff" d="M383.693,-296.667C323.448,-297.168 242.479,-297.949 171,-299 157.119,-299.204 142.181,-299.47 128.119,-299.74"/>
<polygon fill="#63b8ff" stroke="#63b8ff" points="383.963,-300.165 393.934,-296.583 383.906,-293.166 383.963,-300.165"/>
</g>
<!-- Node14&#45;&gt;Node12 -->
<g id="edge18" class="edge"><title>Node14&#45;&gt;Node12</title>
<path fill="none" stroke="#63b8ff" d="M393.072,-253.775C314.854,-265.156 198.192,-282.13 128.108,-292.327"/>
<polygon fill="#63b8ff" stroke="#63b8ff" points="393.975,-257.18 403.367,-252.277 392.968,-250.253 393.975,-257.18"/>
</g>
<!-- Node16 -->
<g id="node16" class="node"><title>Node16</title>
<g id="a_node16"><a xlink:href="classore_1_1data_1_1_scripted_trade_engine_builder.html#a8f7fd6b51798363b9f87020fb40b792b" target="_top" xlink:title=" ">
<polygon fill="white" stroke="#666666" points="346.5,-338 182.5,-338 182.5,-308 346.5,-308 346.5,-338"/>
<text text-anchor="start" x="190.5" y="-326" font-family="Helvetica,sans-Serif" font-size="10.00">ore::data::ScriptedTrade</text>
<text text-anchor="middle" x="264.5" y="-315" font-family="Helvetica,sans-Serif" font-size="10.00">EngineBuilder::buildGaussianCam</text>
</a>
</g>
</g>
<!-- Node15&#45;&gt;Node16 -->
<g id="edge20" class="edge"><title>Node15&#45;&gt;Node16</title>
<path fill="none" stroke="#63b8ff" d="M405.572,-379.271C401.599,-377.63 397.713,-375.875 394,-374 376.146,-364.987 376.02,-355.676 358,-347 350.974,-343.618 343.41,-340.668 335.743,-338.107"/>
<polygon fill="#63b8ff" stroke="#63b8ff" points="404.371,-382.558 414.96,-382.889 406.888,-376.027 404.371,-382.558"/>
</g>
<!-- Node17 -->
<g id="node17" class="node"><title>Node17</title>
<g id="a_node17"><a xlink:href="classore_1_1data_1_1_scripted_trade_engine_builder.html#a2ed97ef63fce9142884cd39bd0bf56df" target="_top" xlink:title=" ">
<polygon fill="white" stroke="#666666" points="352.5,-434 176.5,-434 176.5,-404 352.5,-404 352.5,-434"/>
<text text-anchor="start" x="184.5" y="-422" font-family="Helvetica,sans-Serif" font-size="10.00">ore::data::ScriptedTrade</text>
<text text-anchor="middle" x="264.5" y="-411" font-family="Helvetica,sans-Serif" font-size="10.00">EngineBuilder::compileModelCcyList</text>
</a>
</g>
</g>
<!-- Node15&#45;&gt;Node17 -->
<g id="edge22" class="edge"><title>Node15&#45;&gt;Node17</title>
<path fill="none" stroke="#63b8ff" d="M393.83,-406.075C380.374,-407.43 366.353,-408.842 352.73,-410.214"/>
<polygon fill="#63b8ff" stroke="#63b8ff" points="394.394,-409.536 403.992,-405.051 393.692,-402.571 394.394,-409.536"/>
</g>
<!-- Node18 -->
<g id="node18" class="node"><title>Node18</title>
<g id="a_node18"><a xlink:href="classore_1_1data_1_1_scripted_trade_engine_builder.html#ae13e914b702c5f8b9c7fa8c5540ce47c" target="_top" xlink:title=" ">
<polygon fill="white" stroke="#666666" points="358,-386 171,-386 171,-356 358,-356 358,-386"/>
<text text-anchor="start" x="179" y="-374" font-family="Helvetica,sans-Serif" font-size="10.00">ore::data::ScriptedTrade</text>
<text text-anchor="middle" x="264.5" y="-363" font-family="Helvetica,sans-Serif" font-size="10.00">EngineBuilder::compileModelIndexLists</text>
</a>
</g>
</g>
<!-- Node15&#45;&gt;Node18 -->
<g id="edge24" class="edge"><title>Node15&#45;&gt;Node18</title>
<path fill="none" stroke="#63b8ff" d="M393.881,-387.625C382.232,-386.116 370.157,-384.553 358.284,-383.015"/>
<polygon fill="#63b8ff" stroke="#63b8ff" points="393.626,-391.121 403.992,-388.934 394.525,-384.179 393.626,-391.121"/>
</g>
<!-- Node16&#45;&gt;Node12 -->
<g id="edge21" class="edge"><title>Node16&#45;&gt;Node12</title>
<path fill="none" stroke="#63b8ff" d="M172.189,-312.698C157.23,-311.011 142.076,-309.301 128.143,-307.729"/>
<polygon fill="#63b8ff" stroke="#63b8ff" points="172.167,-316.218 182.497,-313.861 172.952,-309.262 172.167,-316.218"/>
</g>
<!-- Node17&#45;&gt;Node12 -->
<g id="edge23" class="edge"><title>Node17&#45;&gt;Node12</title>
<path fill="none" stroke="#63b8ff" d="M181.678,-400.181C178.006,-398.587 174.428,-396.864 171,-395 133.242,-374.47 98.4366,-337.044 80.7323,-316.144"/>
<polygon fill="#63b8ff" stroke="#63b8ff" points="180.384,-403.433 190.969,-403.881 182.974,-396.93 180.384,-403.433"/>
</g>
<!-- Node18&#45;&gt;Node12 -->
<g id="edge25" class="edge"><title>Node18&#45;&gt;Node12</title>
<path fill="none" stroke="#63b8ff" d="M189.48,-352.985C183.189,-351.094 176.958,-349.093 171,-347 145.973,-338.207 118.609,-325.775 98.4541,-316.051"/>
<polygon fill="#63b8ff" stroke="#63b8ff" points="188.806,-356.434 199.385,-355.862 190.758,-349.711 188.806,-356.434"/>
</g>
<!-- Node19&#45;&gt;Node16 -->
<g id="edge27" class="edge"><title>Node19&#45;&gt;Node16</title>
<path fill="none" stroke="#63b8ff" d="M401.986,-340.674C384.184,-338.369 364.99,-335.884 346.78,-333.526"/>
<polygon fill="#63b8ff" stroke="#63b8ff" points="401.923,-344.195 412.289,-342.009 402.822,-337.253 401.923,-344.195"/>
</g>
<!-- Node19&#45;&gt;Node17 -->
<g id="edge28" class="edge"><title>Node19&#45;&gt;Node17</title>
<path fill="none" stroke="#63b8ff" d="M407.742,-368.528C403.045,-370.252 398.422,-372.079 394,-374 377.01,-381.38 375.126,-387.941 358,-395 349.87,-398.351 341.142,-401.343 332.412,-403.981"/>
<polygon fill="#63b8ff" stroke="#63b8ff" points="409.163,-371.739 417.447,-365.134 406.852,-365.131 409.163,-371.739"/>
</g>
<!-- Node19&#45;&gt;Node18 -->
<g id="edge29" class="edge"><title>Node19&#45;&gt;Node18</title>
<path fill="none" stroke="#63b8ff" d="M402.179,-357.234C388.056,-358.656 373.052,-360.167 358.353,-361.648"/>
<polygon fill="#63b8ff" stroke="#63b8ff" points="402.691,-360.7 412.289,-356.215 401.989,-353.735 402.691,-360.7"/>
</g>
</g>
</svg>
