<?xml version="1.0" encoding="UTF-8" standalone="no"?>
<!DOCTYPE svg PUBLIC "-//W3C//DTD SVG 1.1//EN"
 "http://www.w3.org/Graphics/SVG/1.1/DTD/svg11.dtd">
<!-- Generated by graphviz version 2.38.0 (20140413.2041)
 -->
<!-- Title: ZeroRateConvention Pages: 1 -->
<svg width="364pt" height="242pt"
 viewBox="0.00 0.00 364.00 242.00" xmlns="http://www.w3.org/2000/svg" xmlns:xlink="http://www.w3.org/1999/xlink">
<g id="graph0" class="graph" transform="scale(1 1) rotate(0) translate(4 238)">
<title>ZeroRateConvention</title>
<!-- Node1 -->
<g id="node1" class="node"><title>Node1</title>
<g id="a_node1"><a xlink:title=" ">
<polygon fill="#999999" stroke="#666666" points="103,-111 0,-111 0,-92 103,-92 103,-111"/>
<text text-anchor="middle" x="51.5" y="-99" font-family="Helvetica,sans-Serif" font-size="10.00">ZeroRateConvention</text>
</a>
</g>
</g>
<!-- Node2 -->
<g id="node2" class="node"><title>Node2</title>
<g id="a_node2"><a xlink:href="classore_1_1data_1_1_zero_rate_convention.html#a9169b2d8ee8001dbb250c4ce2c26818c" target="_top" xlink:title=" ">
<polygon fill="white" stroke="#666666" points="176,-111 139,-111 139,-92 176,-92 176,-111"/>
<text text-anchor="middle" x="157.5" y="-99" font-family="Helvetica,sans-Serif" font-size="10.00">build</text>
</a>
</g>
</g>
<!-- Node1&#45;&gt;Node2 -->
<g id="edge1" class="edge"><title>Node1&#45;&gt;Node2</title>
<path fill="none" stroke="#63b8ff" d="M103.281,-101.5C112.073,-101.5 120.911,-101.5 128.789,-101.5"/>
<polygon fill="#63b8ff" stroke="#63b8ff" points="128.843,-105 138.843,-101.5 128.843,-98.0001 128.843,-105"/>
</g>
<!-- Node3 -->
<g id="node3" class="node"><title>Node3</title>
<g id="a_node3"><a xlink:href="group__utilities.html#ga94621f11193864fa1338296232dc5be9" target="_top" xlink:title="Convert text to bool.">
<polygon fill="white" stroke="#666666" points="336,-216 232,-216 232,-197 336,-197 336,-216"/>
<text text-anchor="middle" x="284" y="-204" font-family="Helvetica,sans-Serif" font-size="10.00">ore::data::parseBool</text>
</a>
</g>
</g>
<!-- Node2&#45;&gt;Node3 -->
<g id="edge2" class="edge"><title>Node2&#45;&gt;Node3</title>
<path fill="none" stroke="#63b8ff" d="M161.774,-111.168C168.345,-129.073 184.878,-167.395 212,-187.5 215.251,-189.91 218.787,-192.015 222.487,-193.853"/>
<polygon fill="#63b8ff" stroke="#63b8ff" points="221.381,-197.186 231.952,-197.893 224.129,-190.748 221.381,-197.186"/>
</g>
<!-- Node4 -->
<g id="node4" class="node"><title>Node4</title>
<g id="a_node4"><a xlink:href="group__utilities.html#ga86adcf55f91e340ff40783964666e732" target="_top" xlink:title="Convert text to QuantLib::BusinessDayConvention.">
<polygon fill="white" stroke="#666666" points="346.5,-178.5 221.5,-178.5 221.5,-148.5 346.5,-148.5 346.5,-178.5"/>
<text text-anchor="start" x="229.5" y="-166.5" font-family="Helvetica,sans-Serif" font-size="10.00">ore::data::parseBusiness</text>
<text text-anchor="middle" x="284" y="-155.5" font-family="Helvetica,sans-Serif" font-size="10.00">DayConvention</text>
</a>
</g>
</g>
<!-- Node2&#45;&gt;Node4 -->
<g id="edge4" class="edge"><title>Node2&#45;&gt;Node4</title>
<path fill="none" stroke="#63b8ff" d="M170.177,-111.322C180.606,-119.709 196.575,-131.63 212,-139.5 215.486,-141.279 219.133,-142.971 222.855,-144.572"/>
<polygon fill="#63b8ff" stroke="#63b8ff" points="221.63,-147.852 232.213,-148.362 224.258,-141.364 221.63,-147.852"/>
</g>
<!-- Node5 -->
<g id="node5" class="node"><title>Node5</title>
<g id="a_node5"><a xlink:href="group__utilities.html#ga0f72d6fcccae10a674bdcd5095200f14" target="_top" xlink:title="Convert text to QuantLib::Calendar.">
<polygon fill="white" stroke="#666666" points="345.5,-130 222.5,-130 222.5,-111 345.5,-111 345.5,-130"/>
<text text-anchor="middle" x="284" y="-118" font-family="Helvetica,sans-Serif" font-size="10.00">ore::data::parseCalendar</text>
</a>
</g>
</g>
<!-- Node2&#45;&gt;Node5 -->
<g id="edge5" class="edge"><title>Node2&#45;&gt;Node5</title>
<path fill="none" stroke="#63b8ff" d="M176.074,-104.182C185.944,-105.688 198.982,-107.678 212.549,-109.748"/>
<polygon fill="#63b8ff" stroke="#63b8ff" points="212.069,-113.216 222.483,-111.264 213.126,-106.296 212.069,-113.216"/>
</g>
<!-- Node6 -->
<g id="node6" class="node"><title>Node6</title>
<g id="a_node6"><a xlink:href="group__utilities.html#ga9b1841641b66742d2035aad83acdfa4a" target="_top" xlink:title="Convert text to QuantLib::Compounding;.">
<polygon fill="white" stroke="#666666" points="356,-93 212,-93 212,-74 356,-74 356,-93"/>
<text text-anchor="middle" x="284" y="-81" font-family="Helvetica,sans-Serif" font-size="10.00">ore::data::parseCompounding</text>
</a>
</g>
</g>
<!-- Node2&#45;&gt;Node6 -->
<g id="edge6" class="edge"><title>Node2&#45;&gt;Node6</title>
<path fill="none" stroke="#63b8ff" d="M176.074,-98.9592C184.662,-97.7176 195.648,-96.1293 207.293,-94.4456"/>
<polygon fill="#63b8ff" stroke="#63b8ff" points="207.796,-97.9093 217.193,-93.0143 206.795,-90.9813 207.796,-97.9093"/>
</g>
<!-- Node7 -->
<g id="node7" class="node"><title>Node7</title>
<g id="a_node7"><a xlink:href="group__utilities.html#gaefb008d0de256c79140545d9c7549093" target="_top" xlink:title="Convert text to QuantLib::DayCounter.">
<polygon fill="white" stroke="#666666" points="352,-56 216,-56 216,-37 352,-37 352,-56"/>
<text text-anchor="middle" x="284" y="-44" font-family="Helvetica,sans-Serif" font-size="10.00">ore::data::parseDayCounter</text>
</a>
</g>
</g>
<!-- Node2&#45;&gt;Node7 -->
<g id="edge7" class="edge"><title>Node2&#45;&gt;Node7</title>
<path fill="none" stroke="#63b8ff" d="M170.146,-91.9916C180.554,-83.916 196.51,-72.5457 212,-65.5 217.283,-63.097 222.93,-60.948 228.645,-59.0388"/>
<polygon fill="#63b8ff" stroke="#63b8ff" points="229.762,-62.3569 238.275,-56.0494 227.686,-55.6716 229.762,-62.3569"/>
</g>
<!-- Node8 -->
<g id="node8" class="node"><title>Node8</title>
<g id="a_node8"><a xlink:href="group__utilities.html#ga8ecdc1d4eace894d29940dc88c5e2043" target="_top" xlink:title="Convert text to QuantLib::Frequency.">
<polygon fill="white" stroke="#666666" points="349.5,-19 218.5,-19 218.5,-0 349.5,-0 349.5,-19"/>
<text text-anchor="middle" x="284" y="-7" font-family="Helvetica,sans-Serif" font-size="10.00">ore::data::parseFrequency</text>
</a>
</g>
</g>
<!-- Node2&#45;&gt;Node8 -->
<g id="edge8" class="edge"><title>Node2&#45;&gt;Node8</title>
<path fill="none" stroke="#63b8ff" d="M162.902,-91.8117C170.566,-76.0596 187.877,-45 212,-28.5 214.933,-26.4941 218.067,-24.6999 221.325,-23.0948"/>
<polygon fill="#63b8ff" stroke="#63b8ff" points="222.951,-26.2061 230.768,-19.0542 220.197,-19.7705 222.951,-26.2061"/>
</g>
<!-- Node3&#45;&gt;Node3 -->
<g id="edge3" class="edge"><title>Node3&#45;&gt;Node3</title>
<path fill="none" stroke="#63b8ff" d="M264.58,-216.083C255.132,-224.734 261.605,-234 284,-234 297.997,-234 305.774,-230.38 307.332,-225.554"/>
<polygon fill="#63b8ff" stroke="#63b8ff" points="310.473,-223.989 303.42,-216.083 304.003,-226.662 310.473,-223.989"/>
</g>
</g>
</svg>
