<?xml version="1.0" encoding="UTF-8" standalone="no"?>
<!DOCTYPE svg PUBLIC "-//W3C//DTD SVG 1.1//EN"
 "http://www.w3.org/Graphics/SVG/1.1/DTD/svg11.dtd">
<!-- Generated by graphviz version 2.38.0 (20140413.2041)
 -->
<!-- Title: correlationMatrix Pages: 1 -->
<svg width="307pt" height="27pt"
 viewBox="0.00 0.00 307.00 27.00" xmlns="http://www.w3.org/2000/svg" xmlns:xlink="http://www.w3.org/1999/xlink">
<g id="graph0" class="graph" transform="scale(1 1) rotate(0) translate(4 23)">
<title>correlationMatrix</title>
<!-- Node1 -->
<g id="node1" class="node"><title>Node1</title>
<g id="a_node1"><a xlink:title=" ">
<polygon fill="#999999" stroke="#666666" points="89,-19 0,-19 0,-0 89,-0 89,-19"/>
<text text-anchor="middle" x="44.5" y="-7" font-family="Helvetica,sans-Serif" font-size="10.00">correlationMatrix</text>
</a>
</g>
</g>
<!-- Node2 -->
<g id="node2" class="node"><title>Node2</title>
<g id="a_node2"><a xlink:href="classore_1_1data_1_1_correlation_matrix_builder.html#a5882077b018d4dc4392458043460563c" target="_top" xlink:title="Get the correlation between the factor f_1 and f_2.">
<polygon fill="white" stroke="#666666" points="202,-19 125,-19 125,-0 202,-0 202,-19"/>
<text text-anchor="middle" x="163.5" y="-7" font-family="Helvetica,sans-Serif" font-size="10.00">getCorrelation</text>
</a>
</g>
</g>
<!-- Node1&#45;&gt;Node2 -->
<g id="edge1" class="edge"><title>Node1&#45;&gt;Node2</title>
<path fill="none" stroke="#63b8ff" d="M89.0665,-9.5C97.3806,-9.5 106.126,-9.5 114.568,-9.5"/>
<polygon fill="#63b8ff" stroke="#63b8ff" points="114.665,-13.0001 124.665,-9.5 114.665,-6.0001 114.665,-13.0001"/>
</g>
<!-- Node3 -->
<g id="node3" class="node"><title>Node3</title>
<g id="a_node3"><a xlink:href="classore_1_1data_1_1_correlation_matrix_builder.html#a6cdcfd6b6973b72911c7ad77d1a67510" target="_top" xlink:title=" ">
<polygon fill="white" stroke="#666666" points="299,-19 238,-19 238,-0 299,-0 299,-19"/>
<text text-anchor="middle" x="268.5" y="-7" font-family="Helvetica,sans-Serif" font-size="10.00">createKey</text>
</a>
</g>
</g>
<!-- Node2&#45;&gt;Node3 -->
<g id="edge2" class="edge"><title>Node2&#45;&gt;Node3</title>
<path fill="none" stroke="#63b8ff" d="M202.269,-9.5C210.504,-9.5 219.245,-9.5 227.561,-9.5"/>
<polygon fill="#63b8ff" stroke="#63b8ff" points="227.799,-13.0001 237.799,-9.5 227.799,-6.0001 227.799,-13.0001"/>
</g>
</g>
</svg>
