<?xml version="1.0" encoding="UTF-8" standalone="no"?>
<!DOCTYPE svg PUBLIC "-//W3C//DTD SVG 1.1//EN"
 "http://www.w3.org/Graphics/SVG/1.1/DTD/svg11.dtd">
<!-- Generated by graphviz version 2.38.0 (20140413.2041)
 -->
<!-- Title: discountBond Pages: 1 -->
<svg width="232pt" height="64pt"
 viewBox="0.00 0.00 232.00 64.00" xmlns="http://www.w3.org/2000/svg" xmlns:xlink="http://www.w3.org/1999/xlink">
<g id="graph0" class="graph" transform="scale(1 1) rotate(0) translate(4 60)">
<title>discountBond</title>
<!-- Node1 -->
<g id="node1" class="node"><title>Node1</title>
<g id="a_node1"><a xlink:title=" ">
<polygon fill="#999999" stroke="#666666" points="224,-37 148,-37 148,-18 224,-18 224,-37"/>
<text text-anchor="middle" x="186" y="-25" font-family="Helvetica,sans-Serif" font-size="10.00">discountBond</text>
</a>
</g>
</g>
<!-- Node2 -->
<g id="node2" class="node"><title>Node2</title>
<g id="a_node2"><a xlink:href="classore_1_1data_1_1_hw_c_g.html#ac943e54cb7c0fca092463a1543d8edd3" target="_top" xlink:title=" ">
<polygon fill="white" stroke="#666666" points="75.5,-56 36.5,-56 36.5,-37 75.5,-37 75.5,-56"/>
<text text-anchor="middle" x="56" y="-44" font-family="Helvetica,sans-Serif" font-size="10.00">fixing</text>
</a>
</g>
</g>
<!-- Node1&#45;&gt;Node2 -->
<g id="edge1" class="edge"><title>Node1&#45;&gt;Node2</title>
<path fill="none" stroke="#63b8ff" d="M137.992,-34.4777C116.448,-37.6756 92.1348,-41.2847 75.8181,-43.7067"/>
<polygon fill="#63b8ff" stroke="#63b8ff" points="138.599,-37.926 147.977,-32.9956 137.572,-31.0019 138.599,-37.926"/>
</g>
<!-- Node3 -->
<g id="node3" class="node"><title>Node3</title>
<g id="a_node3"><a xlink:href="classore_1_1data_1_1_hw_c_g.html#aaf7e326a6f401939cc2c6abbe41c1c47" target="_top" xlink:title=" ">
<polygon fill="white" stroke="#666666" points="112,-19 7.10543e-015,-19 7.10543e-015,-0 112,-0 112,-19"/>
<text text-anchor="middle" x="56" y="-7" font-family="Helvetica,sans-Serif" font-size="10.00">reducedDiscountBond</text>
</a>
</g>
</g>
<!-- Node1&#45;&gt;Node3 -->
<g id="edge2" class="edge"><title>Node1&#45;&gt;Node3</title>
<path fill="none" stroke="#63b8ff" d="M137.949,-20.8834C129.52,-19.6981 120.668,-18.4533 112.038,-17.2397"/>
<polygon fill="#63b8ff" stroke="#63b8ff" points="137.587,-24.3669 147.977,-22.2937 138.562,-17.4351 137.587,-24.3669"/>
</g>
</g>
</svg>
