<?xml version="1.0" encoding="UTF-8" standalone="no"?>
<!DOCTYPE svg PUBLIC "-//W3C//DTD SVG 1.1//EN"
 "http://www.w3.org/Graphics/SVG/1.1/DTD/svg11.dtd">
<!-- Generated by graphviz version 2.38.0 (20140413.2041)
 -->
<!-- Title: setCurrency Pages: 1 -->
<!--zoomable 95 -->
<svg id="main" version="1.1" xmlns="http://www.w3.org/2000/svg" xmlns:xlink="http://www.w3.org/1999/xlink" xml:space="preserve" onload="init(evt)">
<style type="text/css"><![CDATA[
.edge:hover path { stroke: red; }
.edge:hover polygon { stroke: red; fill: red; }
]]></style>
<script type="text/javascript"><![CDATA[
var edges = document.getElementsByTagName('g');
if (edges && edges.length) {
  for (var i=0;i<edges.length;i++) {
    if (edges[i].id.substr(0,4)=='edge') {
      edges[i].setAttribute('class','edge');
    }
  }
}
]]></script>
        <defs>
                <circle id="rim" cx="0" cy="0" r="7"/>
                <circle id="rim2" cx="0" cy="0" r="3.5"/>
                <g id="zoomPlus">
                        <use xlink:href="#rim" fill="#404040">
                                <set attributeName="fill" to="#808080" begin="zoomplus.mouseover" end="zoomplus.mouseout"/>
                        </use>
                        <path d="M-4,0h8M0,-4v8" fill="none" stroke="white" stroke-width="1.5" pointer-events="none"/>
                </g>
                <g id="zoomMin">
                        <use xlink:href="#rim" fill="#404040">
                                <set attributeName="fill" to="#808080" begin="zoomminus.mouseover" end="zoomminus.mouseout"/>
                        </use>
                        <path d="M-4,0h8" fill="none" stroke="white" stroke-width="1.5" pointer-events="none"/>
                </g>
                <g id="dirArrow">
                        <path fill="none" stroke="white" stroke-width="1.5" d="M0,-3.0v7 M-2.5,-0.5L0,-3.0L2.5,-0.5"/>
                </g>
               <g id="resetDef">
                       <use xlink:href="#rim2" fill="#404040">
                               <set attributeName="fill" to="#808080" begin="reset.mouseover" end="reset.mouseout"/>
                       </use>
               </g>
        </defs>

<script type="text/javascript">
var viewWidth = 559;
var viewHeight = 95;
var sectionId = 'dynsection-13';
</script>
<script xlink:href="svgpan.js"/>
<svg id="graph" class="graph">
<g id="viewport">
<title>setCurrency</title>
<!-- Node1 -->
<g id="node1" class="node"><title>Node1</title>
<g id="a_node1"><a xlink:title=" ">
<polygon fill="#999999" stroke="#666666" points="69,-38 0,-38 0,-19 69,-19 69,-38"/>
<text text-anchor="middle" x="34.5" y="-26" font-family="Helvetica,sans-Serif" font-size="10.00">setCurrency</text>
</a>
</g>
</g>
<!-- Node2 -->
<g id="node2" class="node"><title>Node2</title>
<g id="a_node2"><a xlink:href="classore_1_1data_1_1_trade_strike.html#a79ae4d803e6ff99821ed6f7e674898f7" target="_top" xlink:title=" ">
<polygon fill="white" stroke="#666666" points="194.5,-38 140.5,-38 140.5,-19 194.5,-19 194.5,-38"/>
<text text-anchor="middle" x="167.5" y="-26" font-family="Helvetica,sans-Serif" font-size="10.00">currency</text>
</a>
</g>
</g>
<!-- Node1&#45;&gt;Node2 -->
<g id="edge1" class="edge"><title>Node1&#45;&gt;Node2</title>
<path fill="none" stroke="#63b8ff" d="M69.2358,-28.5C87.9133,-28.5 111.137,-28.5 130.208,-28.5"/>
<polygon fill="#63b8ff" stroke="#63b8ff" points="130.32,-32.0001 140.32,-28.5 130.32,-25.0001 130.32,-32.0001"/>
</g>
<!-- Node5 -->
<g id="node5" class="node"><title>Node5</title>
<g id="a_node5"><a xlink:href="classore_1_1data_1_1_trade_strike.html#af95e1cce2d25b241417ca60f5be7ea65" target="_top" xlink:title=" ">
<polygon fill="white" stroke="#666666" points="360,-19 297,-19 297,-0 360,-0 360,-19"/>
<text text-anchor="middle" x="328.5" y="-7" font-family="Helvetica,sans-Serif" font-size="10.00">strikePrice</text>
</a>
</g>
</g>
<!-- Node1&#45;&gt;Node5 -->
<g id="edge7" class="edge"><title>Node1&#45;&gt;Node5</title>
<path fill="none" stroke="#63b8ff" d="M63.5515,-18.9972C76.0763,-15.2335 91.1147,-11.3638 105,-9.5 167.912,-1.05539 241.736,-3.45196 286.54,-6.25129"/>
<polygon fill="#63b8ff" stroke="#63b8ff" points="286.527,-9.75796 296.736,-6.92693 286.989,-2.77327 286.527,-9.75796"/>
</g>
<!-- Node6 -->
<g id="node6" class="node"><title>Node6</title>
<g id="a_node6"><a xlink:href="classore_1_1data_1_1_trade_monetary.html#a56307f76ba467cb0eaa001badcc11b4c" target="_top" xlink:title=" ">
<polygon fill="white" stroke="#666666" points="230,-86.5 105,-86.5 105,-56.5 230,-56.5 230,-86.5"/>
<text text-anchor="start" x="113" y="-74.5" font-family="Helvetica,sans-Serif" font-size="10.00">ore::data::TradeMonetary</text>
<text text-anchor="middle" x="167.5" y="-63.5" font-family="Helvetica,sans-Serif" font-size="10.00">::setCurrency</text>
</a>
</g>
</g>
<!-- Node1&#45;&gt;Node6 -->
<g id="edge5" class="edge"><title>Node1&#45;&gt;Node6</title>
<path fill="none" stroke="#63b8ff" d="M64.5731,-38.0431C78.2437,-42.5304 95.0183,-48.0365 110.983,-53.2768"/>
<polygon fill="#63b8ff" stroke="#63b8ff" points="110.19,-56.7003 120.783,-56.4937 112.373,-50.0495 110.19,-56.7003"/>
</g>
<!-- Node3 -->
<g id="node3" class="node"><title>Node3</title>
<g id="a_node3"><a xlink:href="classore_1_1data_1_1_trade_monetary.html#a2fd1bb34ef1df644354f3c6872bb90ff" target="_top" xlink:title=" ">
<polygon fill="white" stroke="#666666" points="391,-76.5 266,-76.5 266,-46.5 391,-46.5 391,-76.5"/>
<text text-anchor="start" x="274" y="-64.5" font-family="Helvetica,sans-Serif" font-size="10.00">ore::data::TradeMonetary</text>
<text text-anchor="middle" x="328.5" y="-53.5" font-family="Helvetica,sans-Serif" font-size="10.00">::currency</text>
</a>
</g>
</g>
<!-- Node2&#45;&gt;Node3 -->
<g id="edge2" class="edge"><title>Node2&#45;&gt;Node3</title>
<path fill="none" stroke="#63b8ff" d="M194.756,-33.9493C211.507,-37.4259 234.095,-42.114 255.885,-46.6365"/>
<polygon fill="#63b8ff" stroke="#63b8ff" points="255.314,-50.0925 265.817,-48.6978 256.737,-43.2386 255.314,-50.0925"/>
</g>
<!-- Node2&#45;&gt;Node5 -->
<g id="edge4" class="edge"><title>Node2&#45;&gt;Node5</title>
<path fill="none" stroke="#63b8ff" d="M194.756,-25.3625C219.737,-22.3774 257.699,-17.841 286.637,-14.383"/>
<polygon fill="#63b8ff" stroke="#63b8ff" points="287.335,-17.8246 296.849,-13.1627 286.504,-10.874 287.335,-17.8246"/>
</g>
<!-- Node4 -->
<g id="node4" class="node"><title>Node4</title>
<g id="a_node4"><a xlink:href="group__utilities.html#ga5816082aca07feca7ec905758bd09392" target="_top" xlink:title="Convert text to QuantLib::Currency.">
<polygon fill="white" stroke="#666666" points="551,-76.5 427,-76.5 427,-46.5 551,-46.5 551,-76.5"/>
<text text-anchor="start" x="435" y="-64.5" font-family="Helvetica,sans-Serif" font-size="10.00">ore::data::parseCurrency</text>
<text text-anchor="middle" x="489" y="-53.5" font-family="Helvetica,sans-Serif" font-size="10.00">WithMinors</text>
</a>
</g>
</g>
<!-- Node3&#45;&gt;Node4 -->
<g id="edge3" class="edge"><title>Node3&#45;&gt;Node4</title>
<path fill="none" stroke="#63b8ff" d="M391.234,-61.5C399.577,-61.5 408.192,-61.5 416.684,-61.5"/>
<polygon fill="#63b8ff" stroke="#63b8ff" points="416.955,-65.0001 426.955,-61.5 416.955,-58.0001 416.955,-65.0001"/>
</g>
<!-- Node6&#45;&gt;Node3 -->
<g id="edge6" class="edge"><title>Node6&#45;&gt;Node3</title>
<path fill="none" stroke="#63b8ff" d="M230.429,-67.6051C238.674,-67.0866 247.184,-66.5513 255.58,-66.0232"/>
<polygon fill="#63b8ff" stroke="#63b8ff" points="255.98,-69.5051 265.74,-65.3843 255.54,-62.5189 255.98,-69.5051"/>
</g>
</g>
</svg>
        <g id="navigator" transform="translate(0 0)" fill="#404254">
                <rect fill="#f2f5e9" fill-opacity="0.5" stroke="#606060" stroke-width=".5" x="0" y="0" width="60" height="60"/>
                <use id="zoomplus" xlink:href="#zoomPlus" x="17" y="9" onmousedown="handleZoom(evt,'in')"/>
                <use id="zoomminus" xlink:href="#zoomMin" x="42" y="9" onmousedown="handleZoom(evt,'out')"/>
                <use id="reset" xlink:href="#resetDef" x="30" y="36" onmousedown="handleReset()"/>
                <g id="arrowUp" xlink:href="#dirArrow" transform="translate(30 24)" onmousedown="handlePan(0,-1)">
                  <use xlink:href="#rim" fill="#404040">
                        <set attributeName="fill" to="#808080" begin="arrowUp.mouseover" end="arrowUp.mouseout"/>
                  </use>
                  <path fill="none" stroke="white" stroke-width="1.5" d="M0,-3.0v7 M-2.5,-0.5L0,-3.0L2.5,-0.5"/>
                </g>
                <g id="arrowRight" xlink:href="#dirArrow" transform="rotate(90) translate(36 -43)" onmousedown="handlePan(1,0)">
                  <use xlink:href="#rim" fill="#404040">
                        <set attributeName="fill" to="#808080" begin="arrowRight.mouseover" end="arrowRight.mouseout"/>
                  </use>
                  <path fill="none" stroke="white" stroke-width="1.5" d="M0,-3.0v7 M-2.5,-0.5L0,-3.0L2.5,-0.5"/>
                </g>
                <g id="arrowDown" xlink:href="#dirArrow" transform="rotate(180) translate(-30 -48)" onmousedown="handlePan(0,1)">
                  <use xlink:href="#rim" fill="#404040">
                        <set attributeName="fill" to="#808080" begin="arrowDown.mouseover" end="arrowDown.mouseout"/>
                  </use>
                  <path fill="none" stroke="white" stroke-width="1.5" d="M0,-3.0v7 M-2.5,-0.5L0,-3.0L2.5,-0.5"/>
                </g>
                <g id="arrowLeft" xlink:href="#dirArrow" transform="rotate(270) translate(-36 17)" onmousedown="handlePan(-1,0)">
                  <use xlink:href="#rim" fill="#404040">
                        <set attributeName="fill" to="#808080" begin="arrowLeft.mouseover" end="arrowLeft.mouseout"/>
                  </use>
                  <path fill="none" stroke="white" stroke-width="1.5" d="M0,-3.0v7 M-2.5,-0.5L0,-3.0L2.5,-0.5"/>
                </g>
        </g>
        <svg viewBox="0 0 15 15" width="100%" height="30px" preserveAspectRatio="xMaxYMin meet">
         <g id="arrow_out" transform="scale(0.3 0.3)">
          <a xlink:href="classore_1_1data_1_1_trade_strike_a56307f76ba467cb0eaa001badcc11b4c_cgraph_org.svg" target="_base">
           <rect id="button" ry="5" rx="5" y="6" x="6" height="38" width="38"
                fill="#f2f5e9" fill-opacity="0.5" stroke="#606060" stroke-width="1.0"/>
           <path id="arrow"
             d="M 11.500037,31.436501 C 11.940474,20.09759 22.043105,11.32322 32.158766,21.979434 L 37.068811,17.246167 C 37.068811,17.246167 37.088388,32 37.088388,32 L 22.160133,31.978069 C 22.160133,31.978069 26.997745,27.140456 26.997745,27.140456 C 18.528582,18.264221 13.291696,25.230495 11.500037,31.436501 z"
             style="fill:#404040;"/>
          </a>
         </g>
        </svg>
</svg>
