<?xml version="1.0" encoding="UTF-8" standalone="no"?>
<!DOCTYPE svg PUBLIC "-//W3C//DTD SVG 1.1//EN"
 "http://www.w3.org/Graphics/SVG/1.1/DTD/svg11.dtd">
<!-- Generated by graphviz version 2.38.0 (20140413.2041)
 -->
<!-- Title: getDiscount Pages: 1 -->
<svg width="231pt" height="131pt"
 viewBox="0.00 0.00 231.00 130.50" xmlns="http://www.w3.org/2000/svg" xmlns:xlink="http://www.w3.org/1999/xlink">
<g id="graph0" class="graph" transform="scale(1 1) rotate(0) translate(4 126.5)">
<title>getDiscount</title>
<!-- Node1 -->
<g id="node1" class="node"><title>Node1</title>
<g id="a_node1"><a xlink:title=" ">
<polygon fill="#999999" stroke="#666666" points="68,-74 0,-74 0,-55 68,-55 68,-74"/>
<text text-anchor="middle" x="34" y="-62" font-family="Helvetica,sans-Serif" font-size="10.00">getDiscount</text>
</a>
</g>
</g>
<!-- Node2 -->
<g id="node2" class="node"><title>Node2</title>
<g id="a_node2"><a xlink:href="classore_1_1data_1_1_model_c_g_impl.html#a0aa0911eb0694bde089f3a6777907ef8" target="_top" xlink:title=" ">
<polygon fill="white" stroke="#666666" points="223,-122.5 104,-122.5 104,-92.5 223,-92.5 223,-122.5"/>
<text text-anchor="start" x="112" y="-110.5" font-family="Helvetica,sans-Serif" font-size="10.00">ore::data::ModelCGImpl</text>
<text text-anchor="middle" x="163.5" y="-99.5" font-family="Helvetica,sans-Serif" font-size="10.00">::addModelParameter</text>
</a>
</g>
</g>
<!-- Node1&#45;&gt;Node2 -->
<g id="edge1" class="edge"><title>Node1&#45;&gt;Node2</title>
<path fill="none" stroke="#63b8ff" d="M63.2964,-74.0431C76.5409,-78.5099 92.7791,-83.9863 108.253,-89.205"/>
<polygon fill="#63b8ff" stroke="#63b8ff" points="107.161,-92.5304 117.756,-92.4097 109.398,-85.8975 107.161,-92.5304"/>
</g>
<!-- Node3 -->
<g id="node3" class="node"><title>Node3</title>
<g id="a_node3"><a target="_parent" xlink:href="../qle/namespace_quant_ext.html#af9e5b577978a54b0c479508d897b24f0" xlink:title=" ">
<polygon fill="white" stroke="#666666" points="209,-74 118,-74 118,-55 209,-55 209,-74"/>
<text text-anchor="middle" x="163.5" y="-62" font-family="Helvetica,sans-Serif" font-size="10.00">QuantExt::cg_div</text>
</a>
</g>
</g>
<!-- Node1&#45;&gt;Node3 -->
<g id="edge2" class="edge"><title>Node1&#45;&gt;Node3</title>
<path fill="none" stroke="#63b8ff" d="M68.1663,-64.5C80.2785,-64.5 94.321,-64.5 107.811,-64.5"/>
<polygon fill="#63b8ff" stroke="#63b8ff" points="107.978,-68.0001 117.978,-64.5 107.978,-61.0001 107.978,-68.0001"/>
</g>
<!-- Node4 -->
<g id="node4" class="node"><title>Node4</title>
<g id="a_node4"><a xlink:href="namespaceore_1_1data.html#a86651dfeb5c18ee891f7a4734d8cf455" target="_top" xlink:title=" ">
<polygon fill="white" stroke="#666666" points="212.5,-19 114.5,-19 114.5,-0 212.5,-0 212.5,-19"/>
<text text-anchor="middle" x="163.5" y="-7" font-family="Helvetica,sans-Serif" font-size="10.00">ore::data::to_string</text>
</a>
</g>
</g>
<!-- Node1&#45;&gt;Node4 -->
<g id="edge3" class="edge"><title>Node1&#45;&gt;Node4</title>
<path fill="none" stroke="#63b8ff" d="M57.2088,-54.9197C77.5605,-46.1406 107.917,-33.0457 130.813,-23.1689"/>
<polygon fill="#63b8ff" stroke="#63b8ff" points="132.322,-26.3297 140.118,-19.155 129.549,-19.9023 132.322,-26.3297"/>
</g>
<!-- Node4&#45;&gt;Node4 -->
<g id="edge4" class="edge"><title>Node4&#45;&gt;Node4</title>
<path fill="none" stroke="#63b8ff" d="M143.771,-19.0828C134.174,-27.7337 140.75,-37 163.5,-37 177.719,-37 185.62,-33.3804 187.203,-28.5536"/>
<polygon fill="#63b8ff" stroke="#63b8ff" points="190.325,-26.9497 183.229,-19.0828 183.87,-29.6582 190.325,-26.9497"/>
</g>
</g>
</svg>
