<?xml version="1.0" encoding="UTF-8" standalone="no"?>
<!DOCTYPE svg PUBLIC "-//W3C//DTD SVG 1.1//EN"
 "http://www.w3.org/Graphics/SVG/1.1/DTD/svg11.dtd">
<!-- Generated by graphviz version 2.38.0 (20140413.2041)
 -->
<!-- Title: build Pages: 1 -->
<svg width="529pt" height="310pt"
 viewBox="0.00 0.00 529.00 309.50" xmlns="http://www.w3.org/2000/svg" xmlns:xlink="http://www.w3.org/1999/xlink">
<g id="graph0" class="graph" transform="scale(1 1) rotate(0) translate(4 305.5)">
<title>build</title>
<!-- Node1 -->
<g id="node1" class="node"><title>Node1</title>
<g id="a_node1"><a xlink:title=" ">
<polygon fill="#999999" stroke="#666666" points="37,-143.5 0,-143.5 0,-124.5 37,-124.5 37,-143.5"/>
<text text-anchor="middle" x="18.5" y="-131.5" font-family="Helvetica,sans-Serif" font-size="10.00">build</text>
</a>
</g>
</g>
<!-- Node2 -->
<g id="node2" class="node"><title>Node2</title>
<g id="a_node2"><a xlink:href="namespaceore_1_1data.html#af158e922cf963a59228878344ca5858d" target="_top" xlink:title=" ">
<polygon fill="white" stroke="#666666" points="204,-181.5 79,-181.5 79,-162.5 204,-162.5 204,-181.5"/>
<text text-anchor="middle" x="141.5" y="-169.5" font-family="Helvetica,sans-Serif" font-size="10.00">ore::data::makeSchedule</text>
</a>
</g>
</g>
<!-- Node1&#45;&gt;Node2 -->
<g id="edge1" class="edge"><title>Node1&#45;&gt;Node2</title>
<path fill="none" stroke="#63b8ff" d="M37.0944,-139.526C53.6917,-144.738 79.1647,-152.738 100.675,-159.493"/>
<polygon fill="#63b8ff" stroke="#63b8ff" points="99.6432,-162.837 110.232,-162.494 101.741,-156.159 99.6432,-162.837"/>
</g>
<!-- Node3 -->
<g id="node3" class="node"><title>Node3</title>
<g id="a_node3"><a xlink:href="group__utilities.html#ga94621f11193864fa1338296232dc5be9" target="_top" xlink:title="Convert text to bool.">
<polygon fill="white" stroke="#666666" points="360.5,-283.5 256.5,-283.5 256.5,-264.5 360.5,-264.5 360.5,-283.5"/>
<text text-anchor="middle" x="308.5" y="-271.5" font-family="Helvetica,sans-Serif" font-size="10.00">ore::data::parseBool</text>
</a>
</g>
</g>
<!-- Node1&#45;&gt;Node3 -->
<g id="edge12" class="edge"><title>Node1&#45;&gt;Node3</title>
<path fill="none" stroke="#63b8ff" d="M22.3919,-143.547C28.5065,-162.02 44.5725,-202.626 73,-223 123.69,-259.33 195.276,-270.611 245.99,-273.715"/>
<polygon fill="#63b8ff" stroke="#63b8ff" points="245.992,-277.22 256.161,-274.246 246.357,-270.23 245.992,-277.22"/>
</g>
<!-- Node4 -->
<g id="node4" class="node"><title>Node4</title>
<g id="a_node4"><a xlink:href="group__utilities.html#ga86adcf55f91e340ff40783964666e732" target="_top" xlink:title="Convert text to QuantLib::BusinessDayConvention.">
<polygon fill="white" stroke="#666666" points="371,-246 246,-246 246,-216 371,-216 371,-246"/>
<text text-anchor="start" x="254" y="-234" font-family="Helvetica,sans-Serif" font-size="10.00">ore::data::parseBusiness</text>
<text text-anchor="middle" x="308.5" y="-223" font-family="Helvetica,sans-Serif" font-size="10.00">DayConvention</text>
</a>
</g>
</g>
<!-- Node1&#45;&gt;Node4 -->
<g id="edge13" class="edge"><title>Node1&#45;&gt;Node4</title>
<path fill="none" stroke="#63b8ff" d="M25.7438,-143.908C34.5616,-156.993 51.9579,-179.695 73,-191 123.099,-217.916 187.153,-227.449 235.652,-230.512"/>
<polygon fill="#63b8ff" stroke="#63b8ff" points="235.576,-234.013 245.755,-231.072 235.963,-227.024 235.576,-234.013"/>
</g>
<!-- Node5 -->
<g id="node5" class="node"><title>Node5</title>
<g id="a_node5"><a xlink:href="group__utilities.html#ga0f72d6fcccae10a674bdcd5095200f14" target="_top" xlink:title="Convert text to QuantLib::Calendar.">
<polygon fill="white" stroke="#666666" points="370,-142.5 247,-142.5 247,-123.5 370,-123.5 370,-142.5"/>
<text text-anchor="middle" x="308.5" y="-130.5" font-family="Helvetica,sans-Serif" font-size="10.00">ore::data::parseCalendar</text>
</a>
</g>
</g>
<!-- Node1&#45;&gt;Node5 -->
<g id="edge14" class="edge"><title>Node1&#45;&gt;Node5</title>
<path fill="none" stroke="#63b8ff" d="M37.0822,-133.939C75.8012,-133.805 170.255,-133.477 236.575,-133.246"/>
<polygon fill="#63b8ff" stroke="#63b8ff" points="236.976,-136.745 246.964,-133.21 236.952,-129.745 236.976,-136.745"/>
</g>
<!-- Node9 -->
<g id="node9" class="node"><title>Node9</title>
<g id="a_node9"><a xlink:href="group__utilities.html#ga8e0623e2cb01e250e9cfec4619256208" target="_top" xlink:title="Convert text to QuantLib::Period.">
<polygon fill="white" stroke="#666666" points="365,-105.5 252,-105.5 252,-86.5 365,-86.5 365,-105.5"/>
<text text-anchor="middle" x="308.5" y="-93.5" font-family="Helvetica,sans-Serif" font-size="10.00">ore::data::parsePeriod</text>
</a>
</g>
</g>
<!-- Node1&#45;&gt;Node9 -->
<g id="edge16" class="edge"><title>Node1&#45;&gt;Node9</title>
<path fill="none" stroke="#63b8ff" d="M37.0822,-131.68C76.8683,-126.431 175.504,-113.416 241.992,-104.643"/>
<polygon fill="#63b8ff" stroke="#63b8ff" points="242.508,-108.106 251.965,-103.328 241.593,-101.166 242.508,-108.106"/>
</g>
<!-- Node10 -->
<g id="node10" class="node"><title>Node10</title>
<g id="a_node10"><a xlink:href="group__utilities.html#gaefb008d0de256c79140545d9c7549093" target="_top" xlink:title="Convert text to QuantLib::DayCounter.">
<polygon fill="white" stroke="#666666" points="209.5,-67.5 73.5,-67.5 73.5,-48.5 209.5,-48.5 209.5,-67.5"/>
<text text-anchor="middle" x="141.5" y="-55.5" font-family="Helvetica,sans-Serif" font-size="10.00">ore::data::parseDayCounter</text>
</a>
</g>
</g>
<!-- Node1&#45;&gt;Node10 -->
<g id="edge15" class="edge"><title>Node1&#45;&gt;Node10</title>
<path fill="none" stroke="#63b8ff" d="M27.226,-124.275C36.8448,-112.744 54.3018,-93.6292 73,-82 79.7577,-77.7971 87.354,-74.1959 94.9476,-71.1581"/>
<polygon fill="#63b8ff" stroke="#63b8ff" points="96.3464,-74.3723 104.501,-67.6088 93.9086,-67.8105 96.3464,-74.3723"/>
</g>
<!-- Node11 -->
<g id="node11" class="node"><title>Node11</title>
<g id="a_node11"><a xlink:href="group__utilities.html#ga03699115fbdbcf46b6351c3735fdec87" target="_top" xlink:title="Convert std::string to QuantLib::ZeroInflationIndex.">
<polygon fill="white" stroke="#666666" points="210,-30 73,-30 73,-0 210,-0 210,-30"/>
<text text-anchor="start" x="81" y="-18" font-family="Helvetica,sans-Serif" font-size="10.00">ore::data::parseZeroInflation</text>
<text text-anchor="middle" x="141.5" y="-7" font-family="Helvetica,sans-Serif" font-size="10.00">Index</text>
</a>
</g>
</g>
<!-- Node1&#45;&gt;Node11 -->
<g id="edge17" class="edge"><title>Node1&#45;&gt;Node11</title>
<path fill="none" stroke="#63b8ff" d="M22.3556,-124.438C28.502,-105.449 44.7634,-62.7718 73,-39 74.5342,-37.7084 76.143,-36.4842 77.8108,-35.3242"/>
<polygon fill="#63b8ff" stroke="#63b8ff" points="79.8137,-38.2036 86.5704,-30.0427 76.1993,-32.2089 79.8137,-38.2036"/>
</g>
<!-- Node2&#45;&gt;Node3 -->
<g id="edge2" class="edge"><title>Node2&#45;&gt;Node3</title>
<path fill="none" stroke="#63b8ff" d="M151.882,-181.616C169.054,-198.705 207.341,-234.49 246,-255 250.052,-257.15 254.386,-259.099 258.807,-260.856"/>
<polygon fill="#63b8ff" stroke="#63b8ff" points="257.954,-264.27 268.549,-264.4 260.348,-257.692 257.954,-264.27"/>
</g>
<!-- Node2&#45;&gt;Node4 -->
<g id="edge4" class="edge"><title>Node2&#45;&gt;Node4</title>
<path fill="none" stroke="#63b8ff" d="M169.377,-181.611C192.76,-189.972 227.3,-202.322 255.99,-212.581"/>
<polygon fill="#63b8ff" stroke="#63b8ff" points="254.876,-215.9 265.471,-215.971 257.233,-209.309 254.876,-215.9"/>
</g>
<!-- Node2&#45;&gt;Node5 -->
<g id="edge5" class="edge"><title>Node2&#45;&gt;Node5</title>
<path fill="none" stroke="#63b8ff" d="M182.864,-162.46C205.32,-157.152 233.47,-150.498 257.332,-144.858"/>
<polygon fill="#63b8ff" stroke="#63b8ff" points="258.341,-148.216 267.268,-142.509 256.731,-141.404 258.341,-148.216"/>
</g>
<!-- Node6 -->
<g id="node6" class="node"><title>Node6</title>
<g id="a_node6"><a xlink:href="group__utilities.html#ga59b5fdda574d90facae95dec2d13040d" target="_top" xlink:title="Convert std::string to QuantLib::Date.">
<polygon fill="white" stroke="#666666" points="361,-179.5 256,-179.5 256,-160.5 361,-160.5 361,-179.5"/>
<text text-anchor="middle" x="308.5" y="-167.5" font-family="Helvetica,sans-Serif" font-size="10.00">ore::data::parseDate</text>
</a>
</g>
</g>
<!-- Node2&#45;&gt;Node6 -->
<g id="edge6" class="edge"><title>Node2&#45;&gt;Node6</title>
<path fill="none" stroke="#63b8ff" d="M204.409,-171.25C217.89,-171.086 232.155,-170.913 245.634,-170.75"/>
<polygon fill="#63b8ff" stroke="#63b8ff" points="245.806,-174.248 255.762,-170.627 245.721,-167.249 245.806,-174.248"/>
</g>
<!-- Node2&#45;&gt;Node9 -->
<g id="edge11" class="edge"><title>Node2&#45;&gt;Node9</title>
<path fill="none" stroke="#63b8ff" d="M157.047,-162.448C176.605,-149.939 212.768,-127.963 246,-114 250.506,-112.107 255.278,-110.333 260.09,-108.694"/>
<polygon fill="#63b8ff" stroke="#63b8ff" points="261.505,-111.915 269.954,-105.522 259.362,-105.251 261.505,-111.915"/>
</g>
<!-- Node3&#45;&gt;Node3 -->
<g id="edge3" class="edge"><title>Node3&#45;&gt;Node3</title>
<path fill="none" stroke="#63b8ff" d="M284.764,-283.583C273.217,-292.234 281.129,-301.5 308.5,-301.5 326.462,-301.5 336.044,-297.509 337.246,-292.321"/>
<polygon fill="#63b8ff" stroke="#63b8ff" points="340.246,-290.517 332.236,-283.583 334.174,-293.999 340.246,-290.517"/>
</g>
<!-- Node6&#45;&gt;Node6 -->
<g id="edge7" class="edge"><title>Node6&#45;&gt;Node6</title>
<path fill="none" stroke="#63b8ff" d="M284.764,-179.583C273.217,-188.234 281.129,-197.5 308.5,-197.5 326.462,-197.5 336.044,-193.509 337.246,-188.321"/>
<polygon fill="#63b8ff" stroke="#63b8ff" points="340.246,-186.517 332.236,-179.583 334.174,-189.999 340.246,-186.517"/>
</g>
<!-- Node7 -->
<g id="node7" class="node"><title>Node7</title>
<g id="a_node7"><a xlink:href="group__utilities.html#gaecd67eda4fb5f4859bb8f6d383547721" target="_top" xlink:title="Convert text to QuantLib::Integer.">
<polygon fill="white" stroke="#666666" points="521,-198.5 407,-198.5 407,-179.5 521,-179.5 521,-198.5"/>
<text text-anchor="middle" x="464" y="-186.5" font-family="Helvetica,sans-Serif" font-size="10.00">ore::data::parseInteger</text>
</a>
</g>
</g>
<!-- Node6&#45;&gt;Node7 -->
<g id="edge8" class="edge"><title>Node6&#45;&gt;Node7</title>
<path fill="none" stroke="#63b8ff" d="M361.04,-176.38C372.54,-177.803 384.889,-179.331 396.884,-180.816"/>
<polygon fill="#63b8ff" stroke="#63b8ff" points="396.496,-184.295 406.851,-182.05 397.356,-177.348 396.496,-184.295"/>
</g>
<!-- Node8 -->
<g id="node8" class="node"><title>Node8</title>
<g id="a_node8"><a xlink:href="namespaceore_1_1data.html#a777e216dee6069b548bb87da7152699e" target="_top" xlink:title=" ">
<polygon fill="white" stroke="#666666" points="503.5,-161.5 424.5,-161.5 424.5,-142.5 503.5,-142.5 503.5,-161.5"/>
<text text-anchor="middle" x="464" y="-149.5" font-family="Helvetica,sans-Serif" font-size="10.00">ore::data::size</text>
</a>
</g>
</g>
<!-- Node6&#45;&gt;Node8 -->
<g id="edge10" class="edge"><title>Node6&#45;&gt;Node8</title>
<path fill="none" stroke="#63b8ff" d="M361.04,-163.956C378.206,-161.943 397.265,-159.708 414.216,-157.721"/>
<polygon fill="#63b8ff" stroke="#63b8ff" points="414.938,-161.16 424.462,-156.519 414.122,-154.208 414.938,-161.16"/>
</g>
<!-- Node7&#45;&gt;Node7 -->
<g id="edge9" class="edge"><title>Node7&#45;&gt;Node7</title>
<path fill="none" stroke="#63b8ff" d="M440.264,-198.583C428.717,-207.234 436.629,-216.5 464,-216.5 481.962,-216.5 491.544,-212.509 492.746,-207.321"/>
<polygon fill="#63b8ff" stroke="#63b8ff" points="495.746,-205.517 487.736,-198.583 489.674,-208.999 495.746,-205.517"/>
</g>
</g>
</svg>
