<?xml version="1.0" encoding="UTF-8" standalone="no"?>
<!DOCTYPE svg PUBLIC "-//W3C//DTD SVG 1.1//EN"
 "http://www.w3.org/Graphics/SVG/1.1/DTD/svg11.dtd">
<!-- Generated by graphviz version 2.38.0 (20140413.2041)
 -->
<!-- Title: toFile Pages: 1 -->
<svg width="865pt" height="297pt"
 viewBox="0.00 0.00 865.00 296.50" xmlns="http://www.w3.org/2000/svg" xmlns:xlink="http://www.w3.org/1999/xlink">
<g id="graph0" class="graph" transform="scale(1 1) rotate(0) translate(4 292.5)">
<title>toFile</title>
<!-- Node1 -->
<g id="node1" class="node"><title>Node1</title>
<g id="a_node1"><a xlink:title=" ">
<polygon fill="#999999" stroke="#666666" points="41,-202.5 0,-202.5 0,-183.5 41,-183.5 41,-202.5"/>
<text text-anchor="middle" x="20.5" y="-190.5" font-family="Helvetica,sans-Serif" font-size="10.00">toFile</text>
</a>
</g>
</g>
<!-- Node2 -->
<g id="node2" class="node"><title>Node2</title>
<g id="a_node2"><a xlink:href="classore_1_1data_1_1_c_s_v_file_report.html#a0b8f13b57d2b70800ffaaca84efbae99" target="_top" xlink:title=" ">
<polygon fill="white" stroke="#666666" points="385,-288.5 238,-288.5 238,-269.5 385,-269.5 385,-288.5"/>
<text text-anchor="middle" x="311.5" y="-276.5" font-family="Helvetica,sans-Serif" font-size="10.00">ore::data::CSVFileReport::add</text>
</a>
</g>
</g>
<!-- Node1&#45;&gt;Node2 -->
<g id="edge1" class="edge"><title>Node1&#45;&gt;Node2</title>
<path fill="none" stroke="#63b8ff" d="M33.553,-202.685C44.3325,-210.874 60.875,-222.312 77,-229 125.062,-248.935 182.121,-261.341 227.804,-268.809"/>
<polygon fill="#63b8ff" stroke="#63b8ff" points="227.541,-272.311 237.965,-270.42 228.637,-265.397 227.541,-272.311"/>
</g>
<!-- Node4 -->
<g id="node4" class="node"><title>Node4</title>
<g id="a_node4"><a xlink:href="classore_1_1data_1_1_c_s_v_file_report.html#ab78c52d6fb1074c61907e16ae254f149" target="_top" xlink:title=" ">
<polygon fill="white" stroke="#666666" points="374,-251 249,-251 249,-221 374,-221 374,-251"/>
<text text-anchor="start" x="257" y="-239" font-family="Helvetica,sans-Serif" font-size="10.00">ore::data::CSVFileReport</text>
<text text-anchor="middle" x="311.5" y="-228" font-family="Helvetica,sans-Serif" font-size="10.00">::addColumn</text>
</a>
</g>
</g>
<!-- Node1&#45;&gt;Node4 -->
<g id="edge3" class="edge"><title>Node1&#45;&gt;Node4</title>
<path fill="none" stroke="#63b8ff" d="M41.1474,-198.586C51.705,-201.428 64.9865,-204.748 77,-207 130.864,-217.099 192.398,-224.577 238.772,-229.408"/>
<polygon fill="#63b8ff" stroke="#63b8ff" points="238.421,-232.89 248.726,-230.429 239.135,-225.927 238.421,-232.89"/>
</g>
<!-- Node5 -->
<g id="node5" class="node"><title>Node5</title>
<g id="a_node5"><a xlink:href="classore_1_1data_1_1_in_memory_report.html#a86a771d47cf764c4ef43aab250442fda" target="_top" xlink:title=" ">
<polygon fill="white" stroke="#666666" points="166,-116.5 113,-116.5 113,-97.5 166,-97.5 166,-116.5"/>
<text text-anchor="middle" x="139.5" y="-104.5" font-family="Helvetica,sans-Serif" font-size="10.00">columns</text>
</a>
</g>
</g>
<!-- Node1&#45;&gt;Node5 -->
<g id="edge5" class="edge"><title>Node1&#45;&gt;Node5</title>
<path fill="none" stroke="#63b8ff" d="M27.0027,-183.272C35.7366,-168.697 54.147,-141.279 77,-126 84.7622,-120.81 94.0089,-116.984 102.944,-114.185"/>
<polygon fill="#63b8ff" stroke="#63b8ff" points="104.108,-117.494 112.804,-111.442 102.232,-110.75 104.108,-117.494"/>
</g>
<!-- Node6 -->
<g id="node6" class="node"><title>Node6</title>
<g id="a_node6"><a xlink:href="classore_1_1data_1_1_c_s_v_file_report.html#a64e9fa75beda50a9e8400ee0d4e61984" target="_top" xlink:title=" ">
<polygon fill="white" stroke="#666666" points="568,-209.5 421,-209.5 421,-190.5 568,-190.5 568,-209.5"/>
<text text-anchor="middle" x="494.5" y="-197.5" font-family="Helvetica,sans-Serif" font-size="10.00">ore::data::CSVFileReport::end</text>
</a>
</g>
</g>
<!-- Node1&#45;&gt;Node6 -->
<g id="edge6" class="edge"><title>Node1&#45;&gt;Node6</title>
<path fill="none" stroke="#63b8ff" d="M41.1803,-193.292C103.273,-194.213 297.588,-197.095 410.309,-198.766"/>
<polygon fill="#63b8ff" stroke="#63b8ff" points="410.57,-202.27 420.621,-198.919 410.674,-195.271 410.57,-202.27"/>
</g>
<!-- Node7 -->
<g id="node7" class="node"><title>Node7</title>
<g id="a_node7"><a xlink:href="classore_1_1data_1_1_c_s_v_file_report.html#a7ba407af8cfb7f4701894176d4a3ea74" target="_top" xlink:title=" ">
<polygon fill="white" stroke="#666666" points="202,-165 77,-165 77,-135 202,-135 202,-165"/>
<text text-anchor="start" x="85" y="-153" font-family="Helvetica,sans-Serif" font-size="10.00">ore::data::CSVFileReport</text>
<text text-anchor="middle" x="139.5" y="-142" font-family="Helvetica,sans-Serif" font-size="10.00">::next</text>
</a>
</g>
</g>
<!-- Node1&#45;&gt;Node7 -->
<g id="edge8" class="edge"><title>Node1&#45;&gt;Node7</title>
<path fill="none" stroke="#63b8ff" d="M41.0832,-185.803C53.9169,-181.086 71.3238,-174.689 87.8743,-168.606"/>
<polygon fill="#63b8ff" stroke="#63b8ff" points="89.3001,-171.811 97.4789,-165.076 86.8854,-165.241 89.3001,-171.811"/>
</g>
<!-- Node3 -->
<g id="node3" class="node"><title>Node3</title>
<g id="a_node3"><a xlink:href="classore_1_1data_1_1_c_s_v_file_report.html#a8e86a3cfdda98b89c6b67a792afa7bda" target="_top" xlink:title=" ">
<polygon fill="white" stroke="#666666" points="729,-215 604,-215 604,-185 729,-185 729,-215"/>
<text text-anchor="start" x="612" y="-203" font-family="Helvetica,sans-Serif" font-size="10.00">ore::data::CSVFileReport</text>
<text text-anchor="middle" x="666.5" y="-192" font-family="Helvetica,sans-Serif" font-size="10.00">::checkIsOpen</text>
</a>
</g>
</g>
<!-- Node2&#45;&gt;Node3 -->
<g id="edge2" class="edge"><title>Node2&#45;&gt;Node3</title>
<path fill="none" stroke="#63b8ff" d="M385.001,-272.053C436.655,-266.042 507.385,-255.639 568,-239 586.664,-233.877 606.616,-226.295 623.578,-219.176"/>
<polygon fill="#63b8ff" stroke="#63b8ff" points="625.373,-222.215 633.187,-215.06 622.617,-215.78 625.373,-222.215"/>
</g>
<!-- Node4&#45;&gt;Node3 -->
<g id="edge4" class="edge"><title>Node4&#45;&gt;Node3</title>
<path fill="none" stroke="#63b8ff" d="M374.147,-234.076C426.03,-231.936 502.095,-227.579 568,-219 576.358,-217.912 585.079,-216.547 593.719,-215.05"/>
<polygon fill="#63b8ff" stroke="#63b8ff" points="594.573,-218.453 603.798,-213.241 593.337,-211.563 594.573,-218.453"/>
</g>
<!-- Node6&#45;&gt;Node3 -->
<g id="edge7" class="edge"><title>Node6&#45;&gt;Node3</title>
<path fill="none" stroke="#63b8ff" d="M568.088,-200C576.557,-200 585.194,-200 593.653,-200"/>
<polygon fill="#63b8ff" stroke="#63b8ff" points="593.859,-203.5 603.859,-200 593.859,-196.5 593.859,-203.5"/>
</g>
<!-- Node7&#45;&gt;Node3 -->
<g id="edge9" class="edge"><title>Node7&#45;&gt;Node3</title>
<path fill="none" stroke="#63b8ff" d="M177.89,-134.994C252.799,-104.959 414.682,-40.2047 421,-39 485.177,-26.7635 511.081,-6.92697 568,-39 581.631,-46.6806 629.434,-132.976 652.652,-175.962"/>
<polygon fill="#63b8ff" stroke="#63b8ff" points="649.652,-177.772 657.473,-184.92 655.816,-174.455 649.652,-177.772"/>
</g>
<!-- Node8 -->
<g id="node8" class="node"><title>Node8</title>
<g id="a_node8"><a xlink:href="classore_1_1data_1_1_c_s_v_file_report.html#a1445193a5ee913dfadf174b47a49f1d2" target="_top" xlink:title=" ">
<polygon fill="white" stroke="#666666" points="374,-165 249,-165 249,-135 374,-135 374,-165"/>
<text text-anchor="start" x="257" y="-153" font-family="Helvetica,sans-Serif" font-size="10.00">ore::data::CSVFileReport</text>
<text text-anchor="middle" x="311.5" y="-142" font-family="Helvetica,sans-Serif" font-size="10.00">::rollover</text>
</a>
</g>
</g>
<!-- Node7&#45;&gt;Node8 -->
<g id="edge10" class="edge"><title>Node7&#45;&gt;Node8</title>
<path fill="none" stroke="#63b8ff" d="M202.355,-150C214.222,-150 226.74,-150 238.885,-150"/>
<polygon fill="#63b8ff" stroke="#63b8ff" points="238.976,-153.5 248.976,-150 238.976,-146.5 238.976,-153.5"/>
</g>
<!-- Node8&#45;&gt;Node3 -->
<g id="edge11" class="edge"><title>Node8&#45;&gt;Node3</title>
<path fill="none" stroke="#63b8ff" d="M374.107,-156.222C425.964,-161.759 502.016,-170.582 568,-181 576.478,-182.339 585.345,-183.875 594.128,-185.481"/>
<polygon fill="#63b8ff" stroke="#63b8ff" points="593.513,-188.927 603.985,-187.318 594.796,-182.045 593.513,-188.927"/>
</g>
<!-- Node8&#45;&gt;Node6 -->
<g id="edge12" class="edge"><title>Node8&#45;&gt;Node6</title>
<path fill="none" stroke="#63b8ff" d="M366.806,-165.002C393.072,-172.258 424.209,-180.859 449.042,-187.719"/>
<polygon fill="#63b8ff" stroke="#63b8ff" points="448.346,-191.158 458.917,-190.447 450.21,-184.41 448.346,-191.158"/>
</g>
<!-- Node9 -->
<g id="node9" class="node"><title>Node9</title>
<g id="a_node9"><a xlink:href="classore_1_1data_1_1_c_s_v_file_report.html#a9e8555112049fc2b4945120b3c45f8ab" target="_top" xlink:title=" ">
<polygon fill="white" stroke="#666666" points="557,-78 432,-78 432,-48 557,-48 557,-78"/>
<text text-anchor="start" x="440" y="-66" font-family="Helvetica,sans-Serif" font-size="10.00">ore::data::CSVFileReport</text>
<text text-anchor="middle" x="494.5" y="-55" font-family="Helvetica,sans-Serif" font-size="10.00">::open</text>
</a>
</g>
</g>
<!-- Node8&#45;&gt;Node9 -->
<g id="edge13" class="edge"><title>Node8&#45;&gt;Node9</title>
<path fill="none" stroke="#63b8ff" d="M335.463,-134.789C356.931,-121.028 390.212,-100.855 421,-87 425.124,-85.1441 429.436,-83.3567 433.813,-81.6524"/>
<polygon fill="#63b8ff" stroke="#63b8ff" points="435.303,-84.8325 443.451,-78.0602 432.858,-78.2733 435.303,-84.8325"/>
</g>
<!-- Node14 -->
<g id="node14" class="node"><title>Node14</title>
<g id="a_node14"><a xlink:href="namespaceore_1_1data.html#a86651dfeb5c18ee891f7a4734d8cf455" target="_top" xlink:title=" ">
<polygon fill="white" stroke="#666666" points="543.5,-115.5 445.5,-115.5 445.5,-96.5 543.5,-96.5 543.5,-115.5"/>
<text text-anchor="middle" x="494.5" y="-103.5" font-family="Helvetica,sans-Serif" font-size="10.00">ore::data::to_string</text>
</a>
</g>
</g>
<!-- Node8&#45;&gt;Node14 -->
<g id="edge18" class="edge"><title>Node8&#45;&gt;Node14</title>
<path fill="none" stroke="#63b8ff" d="M374.031,-135.042C396.945,-129.472 422.63,-123.228 444.295,-117.961"/>
<polygon fill="#63b8ff" stroke="#63b8ff" points="445.369,-121.302 454.259,-115.539 443.715,-114.5 445.369,-121.302"/>
</g>
<!-- Node10 -->
<g id="node10" class="node"><title>Node10</title>
<g id="a_node10"><a xlink:href="classore_1_1data_1_1_file_i_o.html#add2edb3654b2130d8e6e23f70395543b" target="_top" xlink:title="Retry wrapper for std::fopen.">
<polygon fill="white" stroke="#666666" points="712.5,-78 620.5,-78 620.5,-48 712.5,-48 712.5,-78"/>
<text text-anchor="start" x="628.5" y="-66" font-family="Helvetica,sans-Serif" font-size="10.00">ore::data::FileIO::</text>
<text text-anchor="middle" x="666.5" y="-55" font-family="Helvetica,sans-Serif" font-size="10.00">fopen</text>
</a>
</g>
</g>
<!-- Node9&#45;&gt;Node10 -->
<g id="edge14" class="edge"><title>Node9&#45;&gt;Node10</title>
<path fill="none" stroke="#63b8ff" d="M557.355,-63C574.651,-63 593.331,-63 610.22,-63"/>
<polygon fill="#63b8ff" stroke="#63b8ff" points="610.477,-66.5001 620.476,-63 610.476,-59.5001 610.477,-66.5001"/>
</g>
<!-- Node11 -->
<g id="node11" class="node"><title>Node11</title>
<g id="a_node11"><a xlink:href="classore_1_1data_1_1_file_i_o.html#a1daa2e3edf57698976d9a2fca1f6819e" target="_top" xlink:title=" ">
<polygon fill="white" stroke="#666666" points="857,-126 765,-126 765,-96 857,-96 857,-126"/>
<text text-anchor="start" x="773" y="-114" font-family="Helvetica,sans-Serif" font-size="10.00">ore::data::FileIO::</text>
<text text-anchor="middle" x="811" y="-103" font-family="Helvetica,sans-Serif" font-size="10.00">backoff</text>
</a>
</g>
</g>
<!-- Node10&#45;&gt;Node11 -->
<g id="edge15" class="edge"><title>Node10&#45;&gt;Node11</title>
<path fill="none" stroke="#63b8ff" d="M712.197,-78.0558C725.991,-82.7023 741.335,-87.8706 755.702,-92.7102"/>
<polygon fill="#63b8ff" stroke="#63b8ff" points="754.868,-96.1223 765.462,-95.9976 757.102,-89.4885 754.868,-96.1223"/>
</g>
<!-- Node12 -->
<g id="node12" class="node"><title>Node12</title>
<g id="a_node12"><a xlink:href="classore_1_1data_1_1_file_i_o.html#a77fced44211da5e22aeaad73ab8055ca" target="_top" xlink:title=" ">
<polygon fill="white" stroke="#666666" points="857,-78 765,-78 765,-48 857,-48 857,-78"/>
<text text-anchor="start" x="773" y="-66" font-family="Helvetica,sans-Serif" font-size="10.00">ore::data::FileIO::</text>
<text text-anchor="middle" x="811" y="-55" font-family="Helvetica,sans-Serif" font-size="10.00">maxBackoff</text>
</a>
</g>
</g>
<!-- Node10&#45;&gt;Node12 -->
<g id="edge16" class="edge"><title>Node10&#45;&gt;Node12</title>
<path fill="none" stroke="#63b8ff" d="M712.588,-63C725.843,-63 740.501,-63 754.335,-63"/>
<polygon fill="#63b8ff" stroke="#63b8ff" points="754.716,-66.5001 764.716,-63 754.716,-59.5001 754.716,-66.5001"/>
</g>
<!-- Node13 -->
<g id="node13" class="node"><title>Node13</title>
<g id="a_node13"><a xlink:href="classore_1_1data_1_1_file_i_o.html#a7b4c3165ded4410d0be9f0369c5b2113" target="_top" xlink:title="The maximum number of retries, defaults to 7.">
<polygon fill="white" stroke="#666666" points="857,-30 765,-30 765,-0 857,-0 857,-30"/>
<text text-anchor="start" x="773" y="-18" font-family="Helvetica,sans-Serif" font-size="10.00">ore::data::FileIO::</text>
<text text-anchor="middle" x="811" y="-7" font-family="Helvetica,sans-Serif" font-size="10.00">maxRetries</text>
</a>
</g>
</g>
<!-- Node10&#45;&gt;Node13 -->
<g id="edge17" class="edge"><title>Node10&#45;&gt;Node13</title>
<path fill="none" stroke="#63b8ff" d="M712.197,-47.9442C725.991,-43.2977 741.335,-38.1294 755.702,-33.2898"/>
<polygon fill="#63b8ff" stroke="#63b8ff" points="757.102,-36.5115 765.462,-30.0024 754.868,-29.8777 757.102,-36.5115"/>
</g>
<!-- Node14&#45;&gt;Node14 -->
<g id="edge19" class="edge"><title>Node14&#45;&gt;Node14</title>
<path fill="none" stroke="#63b8ff" d="M467.99,-115.583C455.093,-124.234 463.93,-133.5 494.5,-133.5 515.039,-133.5 525.768,-129.317 526.686,-123.948"/>
<polygon fill="#63b8ff" stroke="#63b8ff" points="529.521,-121.893 521.01,-115.583 523.728,-125.823 529.521,-121.893"/>
</g>
</g>
</svg>
