<?xml version="1.0" encoding="UTF-8" standalone="no"?>
<!DOCTYPE svg PUBLIC "-//W3C//DTD SVG 1.1//EN"
 "http://www.w3.org/Graphics/SVG/1.1/DTD/svg11.dtd">
<!-- Generated by graphviz version 2.38.0 (20140413.2041)
 -->
<!-- Title: StructuredCurveWarningMessage Pages: 1 -->
<svg width="189pt" height="346pt"
 viewBox="0.00 0.00 189.00 346.00" xmlns="http://www.w3.org/2000/svg" xmlns:xlink="http://www.w3.org/1999/xlink">
<g id="graph0" class="graph" transform="scale(1 1) rotate(0) translate(4 342)">
<title>StructuredCurveWarningMessage</title>
<!-- Node1 -->
<g id="node1" class="node"><title>Node1</title>
<g id="a_node1"><a xlink:title=" ">
<polygon fill="#999999" stroke="#666666" points="181,-41 0,-41 0,-0 181,-0 181,-41"/>
<text text-anchor="middle" x="90.5" y="-29" font-family="Helvetica,sans-Serif" font-size="10.00">{StructuredCurveWarningMessage</text>
<text text-anchor="start" x="8" y="-18" font-family="Helvetica,sans-Serif" font-size="10.00">||+ StructuredCurveWarningMessage()</text>
<text text-anchor="middle" x="90.5" y="-7" font-family="Helvetica,sans-Serif" font-size="10.00">}</text>
</a>
</g>
</g>
<!-- Node2 -->
<g id="node2" class="node"><title>Node2</title>
<g id="a_node2"><a xlink:href="classore_1_1data_1_1_structured_message.html" target="_top" xlink:title=" ">
<polygon fill="white" stroke="#666666" points="151.5,-184 29.5,-184 29.5,-77 151.5,-77 151.5,-184"/>
<text text-anchor="middle" x="90.5" y="-172" font-family="Helvetica,sans-Serif" font-size="10.00">{StructuredMessage</text>
<text text-anchor="start" x="37.5" y="-161" font-family="Helvetica,sans-Serif" font-size="10.00">|+ name</text>
<text text-anchor="start" x="37.5" y="-150" font-family="Helvetica,sans-Serif" font-size="10.00">|+ StructuredMessage()</text>
<text text-anchor="start" x="37.5" y="-139" font-family="Helvetica,sans-Serif" font-size="10.00">+ StructuredMessage()</text>
<text text-anchor="start" x="37.5" y="-128" font-family="Helvetica,sans-Serif" font-size="10.00">+ ~StructuredMessage()</text>
<text text-anchor="start" x="37.5" y="-117" font-family="Helvetica,sans-Serif" font-size="10.00">+ msg()</text>
<text text-anchor="start" x="37.5" y="-106" font-family="Helvetica,sans-Serif" font-size="10.00">+ emitLog()</text>
<text text-anchor="start" x="37.5" y="-95" font-family="Helvetica,sans-Serif" font-size="10.00"># addSubFields()</text>
<text text-anchor="middle" x="90.5" y="-84" font-family="Helvetica,sans-Serif" font-size="10.00">}</text>
</a>
</g>
</g>
<!-- Node2&#45;&gt;Node1 -->
<g id="edge1" class="edge"><title>Node2&#45;&gt;Node1</title>
<path fill="none" stroke="#63b8ff" d="M90.5,-66.6437C90.5,-57.3955 90.5,-48.5036 90.5,-41.0932"/>
<polygon fill="none" stroke="#63b8ff" points="87.0001,-66.7655 90.5,-76.7655 94.0001,-66.7656 87.0001,-66.7655"/>
</g>
<!-- Node3 -->
<g id="node3" class="node"><title>Node3</title>
<g id="a_node3"><a xlink:href="classore_1_1data_1_1_j_s_o_n_message.html" target="_top" xlink:title=" ">
<polygon fill="white" stroke="#666666" points="143,-338 38,-338 38,-220 143,-220 143,-338"/>
<text text-anchor="middle" x="90.5" y="-326" font-family="Helvetica,sans-Serif" font-size="10.00">{JSONMessage</text>
<text text-anchor="start" x="46" y="-315" font-family="Helvetica,sans-Serif" font-size="10.00">|# data_</text>
<text text-anchor="start" x="46" y="-304" font-family="Helvetica,sans-Serif" font-size="10.00">|+ ~JSONMessage()</text>
<text text-anchor="start" x="46" y="-293" font-family="Helvetica,sans-Serif" font-size="10.00">+ msg()</text>
<text text-anchor="start" x="46" y="-282" font-family="Helvetica,sans-Serif" font-size="10.00">+ log()</text>
<text text-anchor="start" x="46" y="-271" font-family="Helvetica,sans-Serif" font-size="10.00">+ json()</text>
<text text-anchor="start" x="46" y="-260" font-family="Helvetica,sans-Serif" font-size="10.00">+ set()</text>
<text text-anchor="start" x="46" y="-249" font-family="Helvetica,sans-Serif" font-size="10.00"># emitLog()</text>
<text text-anchor="start" x="46" y="-238" font-family="Helvetica,sans-Serif" font-size="10.00"># jsonify()</text>
<text text-anchor="middle" x="90.5" y="-227" font-family="Helvetica,sans-Serif" font-size="10.00">}</text>
</a>
</g>
</g>
<!-- Node3&#45;&gt;Node2 -->
<g id="edge2" class="edge"><title>Node3&#45;&gt;Node2</title>
<path fill="none" stroke="#63b8ff" d="M90.5,-209.474C90.5,-201.05 90.5,-192.542 90.5,-184.398"/>
<polygon fill="none" stroke="#63b8ff" points="87.0001,-209.678 90.5,-219.678 94.0001,-209.678 87.0001,-209.678"/>
</g>
</g>
</svg>
