<?xml version="1.0" encoding="UTF-8" standalone="no"?>
<!DOCTYPE svg PUBLIC "-//W3C//DTD SVG 1.1//EN"
 "http://www.w3.org/Graphics/SVG/1.1/DTD/svg11.dtd">
<!-- Generated by graphviz version 2.38.0 (20140413.2041)
 -->
<!-- Title: FXVolCurve Pages: 1 -->
<svg width="1811pt" height="677pt"
 viewBox="0.00 0.00 1811.00 677.00" xmlns="http://www.w3.org/2000/svg" xmlns:xlink="http://www.w3.org/1999/xlink">
<g id="graph0" class="graph" transform="scale(1 1) rotate(0) translate(4 673)">
<title>FXVolCurve</title>
<!-- Node1 -->
<g id="node1" class="node"><title>Node1</title>
<g id="a_node1"><a xlink:title="Wrapper class for building FX volatility structures.">
<polygon fill="#999999" stroke="#666666" points="1000.5,-173 843.5,-173 843.5,-0 1000.5,-0 1000.5,-173"/>
<text text-anchor="middle" x="922" y="-161" font-family="Helvetica,sans-Serif" font-size="10.00">{FXVolCurve</text>
<text text-anchor="start" x="851.5" y="-150" font-family="Helvetica,sans-Serif" font-size="10.00">||+ FXVolCurve()</text>
<text text-anchor="start" x="851.5" y="-139" font-family="Helvetica,sans-Serif" font-size="10.00">+ FXVolCurve()</text>
<text text-anchor="start" x="851.5" y="-128" font-family="Helvetica,sans-Serif" font-size="10.00">* spec()</text>
<text text-anchor="start" x="851.5" y="-117" font-family="Helvetica,sans-Serif" font-size="10.00">* volTermStructure()</text>
<text text-anchor="start" x="851.5" y="-106" font-family="Helvetica,sans-Serif" font-size="10.00">* calibrationInfo()</text>
<text text-anchor="start" x="851.5" y="-95" font-family="Helvetica,sans-Serif" font-size="10.00">* init()</text>
<text text-anchor="start" x="851.5" y="-84" font-family="Helvetica,sans-Serif" font-size="10.00">* buildATMTriangulated()</text>
<text text-anchor="start" x="851.5" y="-73" font-family="Helvetica,sans-Serif" font-size="10.00">* buildSmileDeltaCurve()</text>
<text text-anchor="start" x="851.5" y="-62" font-family="Helvetica,sans-Serif" font-size="10.00">* buildSmileBfRrCurve()</text>
<text text-anchor="start" x="851.5" y="-51" font-family="Helvetica,sans-Serif" font-size="10.00">* buildVannaVolgaOrATMCurve()</text>
<text text-anchor="start" x="851.5" y="-40" font-family="Helvetica,sans-Serif" font-size="10.00">* buildSmileAbsoluteCurve()</text>
<text text-anchor="start" x="851.5" y="-29" font-family="Helvetica,sans-Serif" font-size="10.00">* FXVolCurve()</text>
<text text-anchor="start" x="851.5" y="-18" font-family="Helvetica,sans-Serif" font-size="10.00">* FXVolCurve()</text>
<text text-anchor="middle" x="922" y="-7" font-family="Helvetica,sans-Serif" font-size="10.00">}</text>
</a>
</g>
</g>
<!-- Node2 -->
<g id="node2" class="node"><title>Node2</title>
<g id="a_node2"><a xlink:href="classore_1_1data_1_1_f_x_volatility_curve_spec.html" target="_top" xlink:title="FX Volatility curve description.">
<polygon fill="white" stroke="#666666" points="168.5,-349 37.5,-349 37.5,-231 168.5,-231 168.5,-349"/>
<text text-anchor="middle" x="103" y="-337" font-family="Helvetica,sans-Serif" font-size="10.00">{FXVolatilityCurveSpec</text>
<text text-anchor="start" x="45.5" y="-326" font-family="Helvetica,sans-Serif" font-size="10.00">||+ FXVolatilityCurveSpec()</text>
<text text-anchor="start" x="45.5" y="-315" font-family="Helvetica,sans-Serif" font-size="10.00">+ FXVolatilityCurveSpec()</text>
<text text-anchor="start" x="45.5" y="-304" font-family="Helvetica,sans-Serif" font-size="10.00">* baseType()</text>
<text text-anchor="start" x="45.5" y="-293" font-family="Helvetica,sans-Serif" font-size="10.00">* unitCcy()</text>
<text text-anchor="start" x="45.5" y="-282" font-family="Helvetica,sans-Serif" font-size="10.00">* ccy()</text>
<text text-anchor="start" x="45.5" y="-271" font-family="Helvetica,sans-Serif" font-size="10.00">* subName()</text>
<text text-anchor="start" x="45.5" y="-260" font-family="Helvetica,sans-Serif" font-size="10.00">* FXVolatilityCurveSpec()</text>
<text text-anchor="start" x="45.5" y="-249" font-family="Helvetica,sans-Serif" font-size="10.00">* FXVolatilityCurveSpec()</text>
<text text-anchor="middle" x="103" y="-238" font-family="Helvetica,sans-Serif" font-size="10.00">}</text>
</a>
</g>
</g>
<!-- Node2&#45;&gt;Node1 -->
<g id="edge1" class="edge"><title>Node2&#45;&gt;Node1</title>
<path fill="none" stroke="#404040" d="M119.564,-230.903C126.595,-215.726 136.415,-200.873 150,-191 257.001,-113.239 651.291,-93.8839 831.304,-89.0795"/>
<polygon fill="none" stroke="#404040" points="831.371,-89.0779 837.267,-84.9257 843.367,-88.7709 837.472,-92.9231 831.371,-89.0779"/>
<text text-anchor="middle" x="166.5" y="-199.5" font-family="Helvetica,sans-Serif" font-size="10.00"> &#45;spec_</text>
</g>
<!-- Node3 -->
<g id="node3" class="node"><title>Node3</title>
<g id="a_node3"><a xlink:href="classore_1_1data_1_1_curve_spec.html" target="_top" xlink:title="Curve Specification.">
<polygon fill="white" stroke="#666666" points="88,-525 0,-525 0,-407 88,-407 88,-525"/>
<text text-anchor="middle" x="44" y="-513" font-family="Helvetica,sans-Serif" font-size="10.00">{CurveSpec</text>
<text text-anchor="start" x="8" y="-502" font-family="Helvetica,sans-Serif" font-size="10.00">||+ CurveSpec()</text>
<text text-anchor="start" x="8" y="-491" font-family="Helvetica,sans-Serif" font-size="10.00">+ CurveSpec()</text>
<text text-anchor="start" x="8" y="-480" font-family="Helvetica,sans-Serif" font-size="10.00">+ ~CurveSpec()</text>
<text text-anchor="start" x="8" y="-469" font-family="Helvetica,sans-Serif" font-size="10.00">* baseType()</text>
<text text-anchor="start" x="8" y="-458" font-family="Helvetica,sans-Serif" font-size="10.00">* subName()</text>
<text text-anchor="start" x="8" y="-447" font-family="Helvetica,sans-Serif" font-size="10.00">* name()</text>
<text text-anchor="start" x="8" y="-436" font-family="Helvetica,sans-Serif" font-size="10.00">* curveConfigID()</text>
<text text-anchor="start" x="8" y="-425" font-family="Helvetica,sans-Serif" font-size="10.00">* baseName()</text>
<text text-anchor="middle" x="44" y="-414" font-family="Helvetica,sans-Serif" font-size="10.00">}</text>
</a>
</g>
</g>
<!-- Node3&#45;&gt;Node2 -->
<g id="edge2" class="edge"><title>Node3&#45;&gt;Node2</title>
<path fill="none" stroke="#63b8ff" d="M67.0895,-396.905C72.428,-381.161 78.0608,-364.549 83.242,-349.269"/>
<polygon fill="none" stroke="#63b8ff" points="63.7069,-395.982 63.8103,-406.576 70.3362,-398.23 63.7069,-395.982"/>
</g>
<!-- Node4 -->
<g id="node4" class="node"><title>Node4</title>
<g id="a_node4"><a xlink:title=" ">
<polygon fill="white" stroke="#666666" points="184,-602 140,-602 140,-572 184,-572 184,-602"/>
<text text-anchor="middle" x="162" y="-590" font-family="Helvetica,sans-Serif" font-size="10.00">{string</text>
<text text-anchor="middle" x="162" y="-579" font-family="Helvetica,sans-Serif" font-size="10.00">||}</text>
</a>
</g>
</g>
<!-- Node4&#45;&gt;Node1 -->
<g id="edge11" class="edge"><title>Node4&#45;&gt;Node1</title>
<path fill="none" stroke="#404040" d="M167.92,-571.716C172.731,-559.515 179.306,-541.389 183,-525 197.454,-460.865 171.738,-279.612 216,-231 297.565,-141.418 659.978,-105.24 831.472,-92.9405"/>
<polygon fill="none" stroke="#404040" points="831.513,-92.9377 837.218,-88.5266 843.484,-92.0957 837.779,-96.5069 831.513,-92.9377"/>
<text text-anchor="middle" x="218" y="-381" font-family="Helvetica,sans-Serif" font-size="10.00"> &#45;sourceCcy_</text>
<text text-anchor="middle" x="218" y="-370" font-family="Helvetica,sans-Serif" font-size="10.00">&#45;targetCcy_</text>
</g>
<!-- Node4&#45;&gt;Node2 -->
<g id="edge5" class="edge"><title>Node4&#45;&gt;Node2</title>
<path fill="none" stroke="#404040" d="M156.287,-571.666C151.602,-559.436 145.096,-541.294 141,-525 127.368,-470.771 117.503,-408.196 111.245,-361.407"/>
<polygon fill="none" stroke="#404040" points="111.213,-361.158 106.467,-355.728 109.654,-349.259 114.4,-354.689 111.213,-361.158"/>
<text text-anchor="middle" x="162" y="-469" font-family="Helvetica,sans-Serif" font-size="10.00"> &#45;ccy_</text>
<text text-anchor="middle" x="162" y="-458" font-family="Helvetica,sans-Serif" font-size="10.00">&#45;unitCcy_</text>
</g>
<!-- Node4&#45;&gt;Node3 -->
<g id="edge3" class="edge"><title>Node4&#45;&gt;Node3</title>
<path fill="none" stroke="#404040" d="M139.861,-583.254C108.787,-578.893 54.7144,-569.281 43,-554 39.1359,-548.959 36.568,-543.228 34.9749,-537.168"/>
<polygon fill="none" stroke="#404040" points="34.9557,-537.05 30.0439,-531.77 33.0281,-525.205 37.94,-530.485 34.9557,-537.05"/>
<text text-anchor="middle" x="78" y="-546" font-family="Helvetica,sans-Serif" font-size="10.00"> &#45;curveConfigID_</text>
</g>
<!-- Node10 -->
<g id="node10" class="node"><title>Node10</title>
<g id="a_node10"><a xlink:title=" ">
<polygon fill="white" stroke="#666666" points="747.5,-305 660.5,-305 660.5,-275 747.5,-275 747.5,-305"/>
<text text-anchor="middle" x="704" y="-293" font-family="Helvetica,sans-Serif" font-size="10.00">{vector&lt; string &gt;</text>
<text text-anchor="middle" x="704" y="-282" font-family="Helvetica,sans-Serif" font-size="10.00">||}</text>
</a>
</g>
</g>
<!-- Node4&#45;&gt;Node10 -->
<g id="edge13" class="edge"><title>Node4&#45;&gt;Node10</title>
<path fill="none" stroke="#404040" d="M184.255,-583.958C250.775,-577.555 446.904,-556.406 502,-525 592.861,-473.206 662.444,-364.668 690.492,-315.791"/>
<polygon fill="none" stroke="#404040" points="690.541,-315.704 689.998,-308.513 696.426,-305.246 696.969,-312.437 690.541,-315.704"/>
<text text-anchor="middle" x="652.5" y="-463.5" font-family="Helvetica,sans-Serif" font-size="10.00"> +elements</text>
</g>
<!-- Node5 -->
<g id="node5" class="node"><title>Node5</title>
<g id="a_node5"><a xlink:title=" ">
<polygon fill="white" stroke="#666666" points="217,-669 107,-669 107,-639 217,-639 217,-669"/>
<text text-anchor="middle" x="162" y="-657" font-family="Helvetica,sans-Serif" font-size="10.00">{basic_string&lt; Char &gt;</text>
<text text-anchor="middle" x="162" y="-646" font-family="Helvetica,sans-Serif" font-size="10.00">||}</text>
</a>
</g>
</g>
<!-- Node5&#45;&gt;Node4 -->
<g id="edge4" class="edge"><title>Node5&#45;&gt;Node4</title>
<path fill="none" stroke="#63b8ff" d="M162,-628.608C162,-619.654 162,-609.823 162,-602.077"/>
<polygon fill="none" stroke="#63b8ff" points="158.5,-628.896 162,-638.896 165.5,-628.896 158.5,-628.896"/>
</g>
<!-- Node6 -->
<g id="node6" class="node"><title>Node6</title>
<g id="a_node6"><a xlink:title=" ">
<polygon fill="white" stroke="#666666" points="360.5,-310.5 225.5,-310.5 225.5,-269.5 360.5,-269.5 360.5,-310.5"/>
<text text-anchor="start" x="233.5" y="-298.5" font-family="Helvetica,sans-Serif" font-size="10.00">{shared_ptr&lt; BlackVolTerm</text>
<text text-anchor="middle" x="293" y="-287.5" font-family="Helvetica,sans-Serif" font-size="10.00">Structure &gt;</text>
<text text-anchor="middle" x="293" y="-276.5" font-family="Helvetica,sans-Serif" font-size="10.00">||}</text>
</a>
</g>
</g>
<!-- Node6&#45;&gt;Node1 -->
<g id="edge6" class="edge"><title>Node6&#45;&gt;Node1</title>
<path fill="none" stroke="#404040" d="M314.966,-269.47C329.717,-257.134 350.038,-241.583 370,-231 520.457,-151.23 717.891,-113.875 831.276,-97.9478"/>
<polygon fill="none" stroke="#404040" points="831.441,-97.9252 836.841,-93.1454 843.33,-96.2911 837.93,-101.071 831.441,-97.9252"/>
<text text-anchor="middle" x="466.5" y="-199.5" font-family="Helvetica,sans-Serif" font-size="10.00"> &#45;vol_</text>
</g>
<!-- Node7 -->
<g id="node7" class="node"><title>Node7</title>
<g id="a_node7"><a xlink:title=" ">
<polygon fill="white" stroke="#666666" points="473,-305 379,-305 379,-275 473,-275 473,-305"/>
<text text-anchor="middle" x="426" y="-293" font-family="Helvetica,sans-Serif" font-size="10.00">{Handle&lt; Quote &gt;</text>
<text text-anchor="middle" x="426" y="-282" font-family="Helvetica,sans-Serif" font-size="10.00">||}</text>
</a>
</g>
</g>
<!-- Node7&#45;&gt;Node1 -->
<g id="edge7" class="edge"><title>Node7&#45;&gt;Node1</title>
<path fill="none" stroke="#404040" d="M436.6,-274.844C446.939,-261.891 463.74,-242.973 482,-231 590.789,-159.672 737.962,-121.168 831.456,-102.5"/>
<polygon fill="none" stroke="#404040" points="831.657,-102.461 836.778,-97.3838 843.434,-100.158 838.313,-105.235 831.657,-102.461"/>
<text text-anchor="middle" x="568" y="-199.5" font-family="Helvetica,sans-Serif" font-size="10.00"> &#45;fxSpot_</text>
</g>
<!-- Node8 -->
<g id="node8" class="node"><title>Node8</title>
<g id="a_node8"><a xlink:title=" ">
<polygon fill="white" stroke="#666666" points="493,-481 443,-481 443,-451 493,-451 493,-481"/>
<text text-anchor="middle" x="468" y="-469" font-family="Helvetica,sans-Serif" font-size="10.00">{Handle</text>
<text text-anchor="middle" x="468" y="-458" font-family="Helvetica,sans-Serif" font-size="10.00">||}</text>
</a>
</g>
</g>
<!-- Node8&#45;&gt;Node7 -->
<g id="edge8" class="edge"><title>Node8&#45;&gt;Node7</title>
<path fill="none" stroke="orange" d="M456.894,-441.428C450.4,-426.675 442.599,-407.096 438,-389 430.568,-359.762 427.683,-324.406 426.606,-305.164"/>
<polygon fill="orange" stroke="orange" points="453.818,-443.121 461.126,-450.793 460.197,-440.239 453.818,-443.121"/>
<text text-anchor="middle" x="462" y="-375.5" font-family="Helvetica,sans-Serif" font-size="10.00"> &lt; Quote &gt;</text>
</g>
<!-- Node9 -->
<g id="node9" class="node"><title>Node9</title>
<g id="a_node9"><a xlink:title=" ">
<polygon fill="white" stroke="#666666" points="642.5,-305 491.5,-305 491.5,-275 642.5,-275 642.5,-305"/>
<text text-anchor="middle" x="567" y="-293" font-family="Helvetica,sans-Serif" font-size="10.00">{Handle&lt; YieldTermStructure &gt;</text>
<text text-anchor="middle" x="567" y="-282" font-family="Helvetica,sans-Serif" font-size="10.00">||}</text>
</a>
</g>
</g>
<!-- Node8&#45;&gt;Node9 -->
<g id="edge10" class="edge"><title>Node8&#45;&gt;Node9</title>
<path fill="none" stroke="orange" d="M477.291,-441.585C485.666,-421.338 498.813,-391.543 513,-367 526.122,-344.298 544.261,-319.894 555.812,-305.033"/>
<polygon fill="orange" stroke="orange" points="474.004,-440.377 473.473,-450.959 480.487,-443.018 474.004,-440.377"/>
<text text-anchor="middle" x="565.5" y="-375.5" font-family="Helvetica,sans-Serif" font-size="10.00"> &lt; YieldTermStructure &gt;</text>
</g>
<!-- Node9&#45;&gt;Node1 -->
<g id="edge9" class="edge"><title>Node9&#45;&gt;Node1</title>
<path fill="none" stroke="#404040" d="M576.912,-274.787C592.16,-253.853 623.269,-214.66 658,-191 710.972,-154.914 778.348,-128.762 831.775,-111.774"/>
<polygon fill="none" stroke="#404040" points="831.842,-111.753 836.38,-106.149 843.299,-108.182 838.761,-113.786 831.842,-111.753"/>
<text text-anchor="middle" x="681" y="-205" font-family="Helvetica,sans-Serif" font-size="10.00"> &#45;domYts_</text>
<text text-anchor="middle" x="681" y="-194" font-family="Helvetica,sans-Serif" font-size="10.00">&#45;forYts_</text>
</g>
<!-- Node10&#45;&gt;Node1 -->
<g id="edge12" class="edge"><title>Node10&#45;&gt;Node1</title>
<path fill="none" stroke="#404040" d="M702.206,-274.866C700.382,-254.382 699.985,-216.149 718,-191 745.322,-152.857 790.874,-127.876 832.01,-112.033"/>
<polygon fill="none" stroke="#404040" points="832.218,-111.956 836.463,-106.127 843.477,-107.803 839.232,-113.633 832.218,-111.956"/>
<text text-anchor="middle" x="769.5" y="-199.5" font-family="Helvetica,sans-Serif" font-size="10.00"> &#45;expiriesNoDuplicates_</text>
</g>
<!-- Node11 -->
<g id="node11" class="node"><title>Node11</title>
<g id="a_node11"><a xlink:title=" ">
<polygon fill="white" stroke="#666666" points="784,-481 716,-481 716,-451 784,-451 784,-481"/>
<text text-anchor="middle" x="750" y="-469" font-family="Helvetica,sans-Serif" font-size="10.00">{vector&lt; T &gt;</text>
<text text-anchor="middle" x="750" y="-458" font-family="Helvetica,sans-Serif" font-size="10.00">||}</text>
</a>
</g>
</g>
<!-- Node11&#45;&gt;Node10 -->
<g id="edge14" class="edge"><title>Node11&#45;&gt;Node10</title>
<path fill="none" stroke="orange" d="M726.291,-443.758C712.509,-429.754 696.436,-410.143 689,-389 678.893,-360.26 689.933,-324.414 697.709,-305.027"/>
<polygon fill="orange" stroke="orange" points="724.041,-446.454 733.642,-450.936 728.932,-441.445 724.041,-446.454"/>
<text text-anchor="middle" x="712" y="-375.5" font-family="Helvetica,sans-Serif" font-size="10.00"> &lt; string &gt;</text>
</g>
<!-- Node13 -->
<g id="node13" class="node"><title>Node13</title>
<g id="a_node13"><a xlink:title=" ">
<polygon fill="white" stroke="#666666" points="856.5,-305 765.5,-305 765.5,-275 856.5,-275 856.5,-305"/>
<text text-anchor="middle" x="811" y="-293" font-family="Helvetica,sans-Serif" font-size="10.00">{vector&lt; Period &gt;</text>
<text text-anchor="middle" x="811" y="-282" font-family="Helvetica,sans-Serif" font-size="10.00">||}</text>
</a>
</g>
</g>
<!-- Node11&#45;&gt;Node13 -->
<g id="edge18" class="edge"><title>Node11&#45;&gt;Node13</title>
<path fill="none" stroke="orange" d="M753.667,-440.829C757.136,-420.693 763.142,-391.46 772,-367 780.181,-344.411 793.626,-319.977 802.396,-305.079"/>
<polygon fill="orange" stroke="orange" points="750.209,-440.289 752.041,-450.724 757.117,-441.424 750.209,-440.289"/>
<text text-anchor="middle" x="796.5" y="-375.5" font-family="Helvetica,sans-Serif" font-size="10.00"> &lt; Period &gt;</text>
</g>
<!-- Node12 -->
<g id="node12" class="node"><title>Node12</title>
<g id="a_node12"><a xlink:title=" ">
<polygon fill="white" stroke="#666666" points="764.5,-602 735.5,-602 735.5,-572 764.5,-572 764.5,-602"/>
<text text-anchor="middle" x="750" y="-590" font-family="Helvetica,sans-Serif" font-size="10.00">{T</text>
<text text-anchor="middle" x="750" y="-579" font-family="Helvetica,sans-Serif" font-size="10.00">||}</text>
</a>
</g>
</g>
<!-- Node12&#45;&gt;Node11 -->
<g id="edge15" class="edge"><title>Node12&#45;&gt;Node11</title>
<path fill="none" stroke="#404040" d="M750,-571.882C750,-552.558 750,-517.51 750,-493.28"/>
<polygon fill="none" stroke="#404040" points="750,-493.1 746,-487.1 750,-481.1 754,-487.1 750,-493.1"/>
<text text-anchor="middle" x="774.5" y="-546" font-family="Helvetica,sans-Serif" font-size="10.00"> +elements</text>
</g>
<!-- Node13&#45;&gt;Node1 -->
<g id="edge16" class="edge"><title>Node13&#45;&gt;Node1</title>
<path fill="none" stroke="#404040" d="M812.002,-274.975C813.874,-255.28 819.067,-218.736 833,-191 834.301,-188.409 835.682,-185.83 837.131,-183.266"/>
<polygon fill="none" stroke="#404040" points="837.233,-183.097 836.916,-175.893 843.445,-172.83 843.761,-180.035 837.233,-183.097"/>
<text text-anchor="middle" x="856" y="-199.5" font-family="Helvetica,sans-Serif" font-size="10.00"> &#45;expiries_</text>
</g>
<!-- Node14 -->
<g id="node14" class="node"><title>Node14</title>
<g id="a_node14"><a xlink:title=" ">
<polygon fill="white" stroke="#666666" points="884.5,-481 837.5,-481 837.5,-451 884.5,-451 884.5,-481"/>
<text text-anchor="middle" x="861" y="-469" font-family="Helvetica,sans-Serif" font-size="10.00">{Period</text>
<text text-anchor="middle" x="861" y="-458" font-family="Helvetica,sans-Serif" font-size="10.00">||}</text>
</a>
</g>
</g>
<!-- Node14&#45;&gt;Node1 -->
<g id="edge22" class="edge"><title>Node14&#45;&gt;Node1</title>
<path fill="none" stroke="#404040" d="M864.773,-450.795C868.715,-435.589 874.889,-410.716 879,-389 880.915,-378.885 896.418,-269.469 908.265,-185.33"/>
<polygon fill="none" stroke="#404040" points="908.275,-185.26 905.15,-178.761 909.947,-173.377 913.072,-179.876 908.275,-185.26"/>
<text text-anchor="middle" x="934" y="-287.5" font-family="Helvetica,sans-Serif" font-size="10.00"> &#45;switchTenor_</text>
</g>
<!-- Node14&#45;&gt;Node13 -->
<g id="edge17" class="edge"><title>Node14&#45;&gt;Node13</title>
<path fill="none" stroke="#404040" d="M854.195,-450.734C847.252,-435.682 836.588,-411.125 830,-389 822.894,-365.133 817.779,-337.185 814.659,-317.256"/>
<polygon fill="none" stroke="#404040" points="814.626,-317.034 809.785,-311.689 812.857,-305.165 817.697,-310.51 814.626,-317.034"/>
<text text-anchor="middle" x="854.5" y="-375.5" font-family="Helvetica,sans-Serif" font-size="10.00"> +elements</text>
</g>
<!-- Node15 -->
<g id="node15" class="node"><title>Node15</title>
<g id="a_node15"><a xlink:title=" ">
<polygon fill="white" stroke="#666666" points="1076.5,-310.5 975.5,-310.5 975.5,-269.5 1076.5,-269.5 1076.5,-310.5"/>
<text text-anchor="start" x="983.5" y="-298.5" font-family="Helvetica,sans-Serif" font-size="10.00">{optional&lt; ore::data</text>
<text text-anchor="middle" x="1026" y="-287.5" font-family="Helvetica,sans-Serif" font-size="10.00">::Wildcard &gt;</text>
<text text-anchor="middle" x="1026" y="-276.5" font-family="Helvetica,sans-Serif" font-size="10.00">||}</text>
</a>
</g>
</g>
<!-- Node15&#45;&gt;Node1 -->
<g id="edge19" class="edge"><title>Node15&#45;&gt;Node1</title>
<path fill="none" stroke="#404040" d="M1008.22,-269.192C995.705,-254.491 979.253,-233.52 968,-213 963.014,-203.908 958.368,-194.167 954.093,-184.279"/>
<polygon fill="none" stroke="#404040" points="954.043,-184.158 948.043,-180.158 949.428,-173.081 955.428,-177.081 954.043,-184.158"/>
<text text-anchor="middle" x="1010" y="-199.5" font-family="Helvetica,sans-Serif" font-size="10.00"> &#45;expiriesWildcard_</text>
</g>
<!-- Node16 -->
<g id="node16" class="node"><title>Node16</title>
<g id="a_node16"><a xlink:title=" ">
<polygon fill="white" stroke="#666666" points="1133.5,-305 1094.5,-305 1094.5,-275 1133.5,-275 1133.5,-305"/>
<text text-anchor="middle" x="1114" y="-293" font-family="Helvetica,sans-Serif" font-size="10.00">{Size</text>
<text text-anchor="middle" x="1114" y="-282" font-family="Helvetica,sans-Serif" font-size="10.00">||}</text>
</a>
</g>
</g>
<!-- Node16&#45;&gt;Node1 -->
<g id="edge20" class="edge"><title>Node16&#45;&gt;Node1</title>
<path fill="none" stroke="#404040" d="M1107.94,-274.684C1102.58,-262.635 1094.21,-245.156 1085,-231 1065.23,-200.609 1037.31,-172.801 1010.16,-149.925"/>
<polygon fill="none" stroke="#404040" points="1009.86,-149.678 1002.69,-148.946 1000.6,-142.043 1007.78,-142.774 1009.86,-149.678"/>
<text text-anchor="middle" x="1098.5" y="-199.5" font-family="Helvetica,sans-Serif" font-size="10.00"> &#45;spotDays_</text>
</g>
<!-- Node17 -->
<g id="node17" class="node"><title>Node17</title>
<g id="a_node17"><a xlink:title=" ">
<polygon fill="white" stroke="#666666" points="1210,-305 1152,-305 1152,-275 1210,-275 1210,-305"/>
<text text-anchor="middle" x="1181" y="-293" font-family="Helvetica,sans-Serif" font-size="10.00">{Calendar</text>
<text text-anchor="middle" x="1181" y="-282" font-family="Helvetica,sans-Serif" font-size="10.00">||}</text>
</a>
</g>
</g>
<!-- Node17&#45;&gt;Node1 -->
<g id="edge21" class="edge"><title>Node17&#45;&gt;Node1</title>
<path fill="none" stroke="#404040" d="M1176.49,-274.972C1169.22,-254.274 1153.13,-215.38 1128,-191 1095.31,-159.287 1050.99,-135.318 1011.83,-118.474"/>
<polygon fill="none" stroke="#404040" points="1011.73,-118.435 1004.65,-119.809 1000.66,-113.803 1007.74,-112.429 1011.73,-118.435"/>
<text text-anchor="middle" x="1180.5" y="-199.5" font-family="Helvetica,sans-Serif" font-size="10.00"> &#45;spotCalendar_</text>
</g>
<!-- Node18 -->
<g id="node18" class="node"><title>Node18</title>
<g id="a_node18"><a xlink:title=" ">
<polygon fill="white" stroke="#666666" points="1287.5,-305 1228.5,-305 1228.5,-275 1287.5,-275 1287.5,-305"/>
<text text-anchor="middle" x="1258" y="-293" font-family="Helvetica,sans-Serif" font-size="10.00">{AtmType</text>
<text text-anchor="middle" x="1258" y="-282" font-family="Helvetica,sans-Serif" font-size="10.00">||}</text>
</a>
</g>
</g>
<!-- Node18&#45;&gt;Node1 -->
<g id="edge23" class="edge"><title>Node18&#45;&gt;Node1</title>
<path fill="none" stroke="#404040" d="M1256.14,-274.946C1252.63,-253.857 1243.07,-214.049 1219,-191 1162.84,-137.23 1077.27,-111.255 1012.39,-98.7901"/>
<polygon fill="none" stroke="#404040" points="1012.33,-98.7791 1005.7,-101.632 1000.52,-96.6162 1007.14,-93.7632 1012.33,-98.7791"/>
<text text-anchor="middle" x="1279" y="-205" font-family="Helvetica,sans-Serif" font-size="10.00"> &#45;atmType_</text>
<text text-anchor="middle" x="1279" y="-194" font-family="Helvetica,sans-Serif" font-size="10.00">&#45;longTermAtmType_</text>
</g>
<!-- Node19 -->
<g id="node19" class="node"><title>Node19</title>
<g id="a_node19"><a xlink:title=" ">
<polygon fill="white" stroke="#666666" points="1384.5,-305 1321.5,-305 1321.5,-275 1384.5,-275 1384.5,-305"/>
<text text-anchor="middle" x="1353" y="-293" font-family="Helvetica,sans-Serif" font-size="10.00">{DeltaType</text>
<text text-anchor="middle" x="1353" y="-282" font-family="Helvetica,sans-Serif" font-size="10.00">||}</text>
</a>
</g>
</g>
<!-- Node19&#45;&gt;Node1 -->
<g id="edge24" class="edge"><title>Node19&#45;&gt;Node1</title>
<path fill="none" stroke="#404040" d="M1353.44,-274.821C1353.3,-253.569 1349.76,-213.55 1327,-191 1283.07,-147.471 1118.13,-116.027 1012.77,-99.8702"/>
<polygon fill="none" stroke="#404040" points="1012.73,-99.8643 1006.2,-102.922 1000.87,-98.0705 1007.4,-95.0123 1012.73,-99.8643"/>
<text text-anchor="middle" x="1387" y="-205" font-family="Helvetica,sans-Serif" font-size="10.00"> &#45;deltaType_</text>
<text text-anchor="middle" x="1387" y="-194" font-family="Helvetica,sans-Serif" font-size="10.00">&#45;longTermDeltaType_</text>
</g>
<!-- Node20 -->
<g id="node20" class="node"><title>Node20</title>
<g id="a_node20"><a xlink:title=" ">
<polygon fill="white" stroke="#666666" points="1488.5,-305 1447.5,-305 1447.5,-275 1488.5,-275 1488.5,-305"/>
<text text-anchor="middle" x="1468" y="-293" font-family="Helvetica,sans-Serif" font-size="10.00">{Type</text>
<text text-anchor="middle" x="1468" y="-282" font-family="Helvetica,sans-Serif" font-size="10.00">||}</text>
</a>
</g>
</g>
<!-- Node20&#45;&gt;Node1 -->
<g id="edge25" class="edge"><title>Node20&#45;&gt;Node1</title>
<path fill="none" stroke="#404040" d="M1467.8,-274.959C1466.7,-253.517 1461.3,-212.811 1437,-191 1375.6,-135.902 1143.78,-106.989 1013.08,-94.7687"/>
<polygon fill="none" stroke="#404040" points="1012.7,-94.7344 1006.36,-98.1694 1000.75,-93.6378 1007.09,-90.2029 1012.7,-94.7344"/>
<text text-anchor="middle" x="1506.5" y="-199.5" font-family="Helvetica,sans-Serif" font-size="10.00"> &#45;riskReversalInFavorOf_</text>
</g>
<!-- Node21 -->
<g id="node21" class="node"><title>Node21</title>
<g id="a_node21"><a xlink:href="classbool.html" target="_top" xlink:title=" ">
<polygon fill="white" stroke="#666666" points="1615,-305 1577,-305 1577,-275 1615,-275 1615,-305"/>
<text text-anchor="middle" x="1596" y="-293" font-family="Helvetica,sans-Serif" font-size="10.00">{bool</text>
<text text-anchor="middle" x="1596" y="-282" font-family="Helvetica,sans-Serif" font-size="10.00">||}</text>
</a>
</g>
</g>
<!-- Node21&#45;&gt;Node1 -->
<g id="edge26" class="edge"><title>Node21&#45;&gt;Node1</title>
<path fill="none" stroke="#404040" d="M1595.59,-274.82C1594.16,-253.192 1588.06,-212.241 1563,-191 1481.57,-121.992 1169.86,-98.443 1013.11,-90.8598"/>
<polygon fill="none" stroke="#404040" points="1012.71,-90.8412 1006.53,-94.5553 1000.73,-90.2783 1006.91,-86.5641 1012.71,-90.8412"/>
<text text-anchor="middle" x="1632.5" y="-199.5" font-family="Helvetica,sans-Serif" font-size="10.00"> &#45;butterflyIsBrokerStyle_</text>
</g>
<!-- Node22 -->
<g id="node22" class="node"><title>Node22</title>
<g id="a_node22"><a xlink:title=" ">
<polygon fill="white" stroke="#666666" points="1803,-310.5 1645,-310.5 1645,-269.5 1803,-269.5 1803,-310.5"/>
<text text-anchor="start" x="1653" y="-298.5" font-family="Helvetica,sans-Serif" font-size="10.00">{shared_ptr&lt; ore::data</text>
<text text-anchor="middle" x="1724" y="-287.5" font-family="Helvetica,sans-Serif" font-size="10.00">::FxEqCommVolCalibrationInfo &gt;</text>
<text text-anchor="middle" x="1724" y="-276.5" font-family="Helvetica,sans-Serif" font-size="10.00">||}</text>
</a>
</g>
</g>
<!-- Node22&#45;&gt;Node1 -->
<g id="edge27" class="edge"><title>Node22&#45;&gt;Node1</title>
<path fill="none" stroke="#404040" d="M1722.84,-269.398C1720.38,-246.773 1712.72,-210.221 1689,-191 1586.88,-108.26 1192.93,-91.5355 1012.81,-88.2488"/>
<polygon fill="none" stroke="#404040" points="1012.73,-88.2477 1006.67,-92.1447 1000.74,-88.0429 1006.8,-84.1459 1012.73,-88.2477"/>
<text text-anchor="middle" x="1742.5" y="-199.5" font-family="Helvetica,sans-Serif" font-size="10.00"> &#45;calibrationInfo_</text>
</g>
</g>
</svg>
