<?xml version="1.0" encoding="UTF-8" standalone="no"?>
<!DOCTYPE svg PUBLIC "-//W3C//DTD SVG 1.1//EN"
 "http://www.w3.org/Graphics/SVG/1.1/DTD/svg11.dtd">
<!-- Generated by graphviz version 2.38.0 (20140413.2041)
 -->
<!-- Title: LegAdditionalData Pages: 1 -->
<svg width="360pt" height="401pt"
 viewBox="0.00 0.00 359.50 401.00" xmlns="http://www.w3.org/2000/svg" xmlns:xlink="http://www.w3.org/1999/xlink">
<g id="graph0" class="graph" transform="scale(1 1) rotate(0) translate(4 397)">
<title>LegAdditionalData</title>
<!-- Node1 -->
<g id="node1" class="node"><title>Node1</title>
<g id="a_node1"><a xlink:title="Serializable Additional Leg Data.">
<polygon fill="#999999" stroke="#666666" points="205,-85 90,-85 90,-0 205,-0 205,-85"/>
<text text-anchor="middle" x="147.5" y="-73" font-family="Helvetica,sans-Serif" font-size="10.00">{LegAdditionalData</text>
<text text-anchor="start" x="98" y="-62" font-family="Helvetica,sans-Serif" font-size="10.00">||+ LegAdditionalData()</text>
<text text-anchor="start" x="98" y="-51" font-family="Helvetica,sans-Serif" font-size="10.00">+ LegAdditionalData()</text>
<text text-anchor="start" x="98" y="-40" font-family="Helvetica,sans-Serif" font-size="10.00">+ legType()</text>
<text text-anchor="start" x="98" y="-29" font-family="Helvetica,sans-Serif" font-size="10.00">+ legNodeName()</text>
<text text-anchor="start" x="98" y="-18" font-family="Helvetica,sans-Serif" font-size="10.00">+ indices()</text>
<text text-anchor="middle" x="147.5" y="-7" font-family="Helvetica,sans-Serif" font-size="10.00">}</text>
</a>
</g>
</g>
<!-- Node2 -->
<g id="node2" class="node"><title>Node2</title>
<g id="a_node2"><a xlink:href="classore_1_1data_1_1_x_m_l_serializable.html" target="_top" xlink:title="Base class for all serializable classes.">
<polygon fill="white" stroke="#666666" points="111,-239 0,-239 0,-132 111,-132 111,-239"/>
<text text-anchor="middle" x="55.5" y="-227" font-family="Helvetica,sans-Serif" font-size="10.00">{XMLSerializable</text>
<text text-anchor="start" x="8" y="-216" font-family="Helvetica,sans-Serif" font-size="10.00">||+ ~XMLSerializable()</text>
<text text-anchor="start" x="8" y="-205" font-family="Helvetica,sans-Serif" font-size="10.00">+ fromXML()</text>
<text text-anchor="start" x="8" y="-194" font-family="Helvetica,sans-Serif" font-size="10.00">+ toXML()</text>
<text text-anchor="start" x="8" y="-183" font-family="Helvetica,sans-Serif" font-size="10.00">+ fromFile()</text>
<text text-anchor="start" x="8" y="-172" font-family="Helvetica,sans-Serif" font-size="10.00">+ toFile()</text>
<text text-anchor="start" x="8" y="-161" font-family="Helvetica,sans-Serif" font-size="10.00">+ fromXMLString()</text>
<text text-anchor="start" x="8" y="-150" font-family="Helvetica,sans-Serif" font-size="10.00">+ toXMLString()</text>
<text text-anchor="middle" x="55.5" y="-139" font-family="Helvetica,sans-Serif" font-size="10.00">}</text>
</a>
</g>
</g>
<!-- Node2&#45;&gt;Node1 -->
<g id="edge1" class="edge"><title>Node2&#45;&gt;Node1</title>
<path fill="none" stroke="#63b8ff" d="M95.2764,-123.538C103.757,-110.541 112.525,-97.1034 120.398,-85.0361"/>
<polygon fill="none" stroke="#63b8ff" points="92.2907,-121.709 89.7574,-131.997 98.1532,-125.534 92.2907,-121.709"/>
</g>
<!-- Node3 -->
<g id="node3" class="node"><title>Node3</title>
<g id="a_node3"><a xlink:title=" ">
<polygon fill="white" stroke="#666666" points="334,-200.5 239,-200.5 239,-170.5 334,-170.5 334,-200.5"/>
<text text-anchor="middle" x="286.5" y="-188.5" font-family="Helvetica,sans-Serif" font-size="10.00">{set&lt; std::string &gt;</text>
<text text-anchor="middle" x="286.5" y="-177.5" font-family="Helvetica,sans-Serif" font-size="10.00">||}</text>
</a>
</g>
</g>
<!-- Node3&#45;&gt;Node1 -->
<g id="edge2" class="edge"><title>Node3&#45;&gt;Node1</title>
<path fill="none" stroke="#404040" d="M272.664,-170.465C255.128,-152.677 223.949,-121.049 197.098,-93.812"/>
<polygon fill="none" stroke="#404040" points="196.98,-93.6918 189.919,-92.2271 188.555,-85.1461 195.616,-86.6108 196.98,-93.6918"/>
<text text-anchor="middle" x="240" y="-106" font-family="Helvetica,sans-Serif" font-size="10.00"> #indices_</text>
</g>
<!-- Node4 -->
<g id="node4" class="node"><title>Node4</title>
<g id="a_node4"><a xlink:title=" ">
<polygon fill="white" stroke="#666666" points="195.5,-316 151.5,-316 151.5,-286 195.5,-286 195.5,-316"/>
<text text-anchor="middle" x="173.5" y="-304" font-family="Helvetica,sans-Serif" font-size="10.00">{string</text>
<text text-anchor="middle" x="173.5" y="-293" font-family="Helvetica,sans-Serif" font-size="10.00">||}</text>
</a>
</g>
</g>
<!-- Node4&#45;&gt;Node1 -->
<g id="edge7" class="edge"><title>Node4&#45;&gt;Node1</title>
<path fill="none" stroke="#404040" d="M168.836,-285.633C165.077,-273.382 160.016,-255.229 157.5,-239 150.147,-191.574 147.863,-136.981 147.294,-97.5604"/>
<polygon fill="none" stroke="#404040" points="147.291,-97.3222 143.228,-91.3647 147.165,-85.3229 151.228,-91.2803 147.291,-97.3222"/>
<text text-anchor="middle" x="194" y="-188.5" font-family="Helvetica,sans-Serif" font-size="10.00"> &#45;legNodeName_</text>
<text text-anchor="middle" x="194" y="-177.5" font-family="Helvetica,sans-Serif" font-size="10.00">&#45;legType_</text>
</g>
<!-- Node4&#45;&gt;Node3 -->
<g id="edge3" class="edge"><title>Node4&#45;&gt;Node3</title>
<path fill="none" stroke="#404040" d="M187.812,-285.625C206.915,-266.437 240.97,-232.231 263.648,-209.453"/>
<polygon fill="none" stroke="#404040" points="263.838,-209.262 265.237,-202.188 272.305,-200.758 270.906,-207.832 263.838,-209.262"/>
<text text-anchor="middle" x="229" y="-260" font-family="Helvetica,sans-Serif" font-size="10.00"> +keys</text>
</g>
<!-- Node5 -->
<g id="node5" class="node"><title>Node5</title>
<g id="a_node5"><a xlink:title=" ">
<polygon fill="white" stroke="#666666" points="228.5,-393 118.5,-393 118.5,-363 228.5,-363 228.5,-393"/>
<text text-anchor="middle" x="173.5" y="-381" font-family="Helvetica,sans-Serif" font-size="10.00">{basic_string&lt; Char &gt;</text>
<text text-anchor="middle" x="173.5" y="-370" font-family="Helvetica,sans-Serif" font-size="10.00">||}</text>
</a>
</g>
</g>
<!-- Node5&#45;&gt;Node4 -->
<g id="edge4" class="edge"><title>Node5&#45;&gt;Node4</title>
<path fill="none" stroke="#63b8ff" d="M173.5,-352.541C173.5,-340.451 173.5,-326.294 173.5,-316.044"/>
<polygon fill="none" stroke="#63b8ff" points="170,-352.893 173.5,-362.893 177,-352.893 170,-352.893"/>
</g>
<!-- Node6 -->
<g id="node6" class="node"><title>Node6</title>
<g id="a_node6"><a xlink:title=" ">
<polygon fill="white" stroke="#666666" points="315.5,-316 257.5,-316 257.5,-286 315.5,-286 315.5,-316"/>
<text text-anchor="middle" x="286.5" y="-304" font-family="Helvetica,sans-Serif" font-size="10.00">{set&lt; K &gt;</text>
<text text-anchor="middle" x="286.5" y="-293" font-family="Helvetica,sans-Serif" font-size="10.00">||}</text>
</a>
</g>
</g>
<!-- Node6&#45;&gt;Node3 -->
<g id="edge5" class="edge"><title>Node6&#45;&gt;Node3</title>
<path fill="none" stroke="orange" d="M286.5,-275.37C286.5,-252.571 286.5,-219.46 286.5,-200.758"/>
<polygon fill="orange" stroke="orange" points="283,-275.625 286.5,-285.625 290,-275.625 283,-275.625"/>
<text text-anchor="middle" x="319" y="-260" font-family="Helvetica,sans-Serif" font-size="10.00"> &lt; std::string &gt;</text>
</g>
<!-- Node7 -->
<g id="node7" class="node"><title>Node7</title>
<g id="a_node7"><a xlink:title=" ">
<polygon fill="white" stroke="#666666" points="301,-393 272,-393 272,-363 301,-363 301,-393"/>
<text text-anchor="middle" x="286.5" y="-381" font-family="Helvetica,sans-Serif" font-size="10.00">{K</text>
<text text-anchor="middle" x="286.5" y="-370" font-family="Helvetica,sans-Serif" font-size="10.00">||}</text>
</a>
</g>
</g>
<!-- Node7&#45;&gt;Node6 -->
<g id="edge6" class="edge"><title>Node7&#45;&gt;Node6</title>
<path fill="none" stroke="#404040" d="M286.5,-362.893C286.5,-353.151 286.5,-339.901 286.5,-328.249"/>
<polygon fill="none" stroke="#404040" points="286.5,-328.044 282.5,-322.044 286.5,-316.044 290.5,-322.044 286.5,-328.044"/>
<text text-anchor="middle" x="302" y="-337" font-family="Helvetica,sans-Serif" font-size="10.00"> +keys</text>
</g>
</g>
</svg>
