<?xml version="1.0" encoding="UTF-8" standalone="no"?>
<!DOCTYPE svg PUBLIC "-//W3C//DTD SVG 1.1//EN"
 "http://www.w3.org/Graphics/SVG/1.1/DTD/svg11.dtd">
<!-- Generated by graphviz version 2.38.0 (20140413.2041)
 -->
<!-- Title: CurrencyConfig Pages: 1 -->
<svg width="376pt" height="412pt"
 viewBox="0.00 0.00 375.50 412.00" xmlns="http://www.w3.org/2000/svg" xmlns:xlink="http://www.w3.org/1999/xlink">
<g id="graph0" class="graph" transform="scale(1 1) rotate(0) translate(4 408)">
<title>CurrencyConfig</title>
<!-- Node1 -->
<g id="node1" class="node"><title>Node1</title>
<g id="a_node1"><a xlink:title="Currency configuration.">
<polygon fill="#999999" stroke="#666666" points="152.5,-74 50.5,-74 50.5,-0 152.5,-0 152.5,-74"/>
<text text-anchor="middle" x="101.5" y="-62" font-family="Helvetica,sans-Serif" font-size="10.00">{CurrencyConfig</text>
<text text-anchor="start" x="58.5" y="-51" font-family="Helvetica,sans-Serif" font-size="10.00">||+ CurrencyConfig()</text>
<text text-anchor="start" x="58.5" y="-40" font-family="Helvetica,sans-Serif" font-size="10.00">+ getCurrencies()</text>
<text text-anchor="start" x="58.5" y="-29" font-family="Helvetica,sans-Serif" font-size="10.00">+ fromXML()</text>
<text text-anchor="start" x="58.5" y="-18" font-family="Helvetica,sans-Serif" font-size="10.00">+ toXML()</text>
<text text-anchor="middle" x="101.5" y="-7" font-family="Helvetica,sans-Serif" font-size="10.00">}</text>
</a>
</g>
</g>
<!-- Node2 -->
<g id="node2" class="node"><title>Node2</title>
<g id="a_node2"><a xlink:href="classore_1_1data_1_1_x_m_l_serializable.html" target="_top" xlink:title="Base class for all serializable classes.">
<polygon fill="white" stroke="#666666" points="111,-228 0,-228 0,-121 111,-121 111,-228"/>
<text text-anchor="middle" x="55.5" y="-216" font-family="Helvetica,sans-Serif" font-size="10.00">{XMLSerializable</text>
<text text-anchor="start" x="8" y="-205" font-family="Helvetica,sans-Serif" font-size="10.00">||+ ~XMLSerializable()</text>
<text text-anchor="start" x="8" y="-194" font-family="Helvetica,sans-Serif" font-size="10.00">+ fromXML()</text>
<text text-anchor="start" x="8" y="-183" font-family="Helvetica,sans-Serif" font-size="10.00">+ toXML()</text>
<text text-anchor="start" x="8" y="-172" font-family="Helvetica,sans-Serif" font-size="10.00">+ fromFile()</text>
<text text-anchor="start" x="8" y="-161" font-family="Helvetica,sans-Serif" font-size="10.00">+ toFile()</text>
<text text-anchor="start" x="8" y="-150" font-family="Helvetica,sans-Serif" font-size="10.00">+ fromXMLString()</text>
<text text-anchor="start" x="8" y="-139" font-family="Helvetica,sans-Serif" font-size="10.00">+ toXMLString()</text>
<text text-anchor="middle" x="55.5" y="-128" font-family="Helvetica,sans-Serif" font-size="10.00">}</text>
</a>
</g>
</g>
<!-- Node2&#45;&gt;Node1 -->
<g id="edge1" class="edge"><title>Node2&#45;&gt;Node1</title>
<path fill="none" stroke="#63b8ff" d="M76.6815,-111.107C80.9862,-98.4266 85.3763,-85.4949 89.2436,-74.1029"/>
<polygon fill="none" stroke="#63b8ff" points="73.317,-110.13 73.4165,-120.724 79.9455,-112.38 73.317,-110.13"/>
</g>
<!-- Node3 -->
<g id="node3" class="node"><title>Node3</title>
<g id="a_node3"><a xlink:title=" ">
<polygon fill="white" stroke="#666666" points="284,-195 129,-195 129,-154 284,-154 284,-195"/>
<text text-anchor="start" x="137" y="-183" font-family="Helvetica,sans-Serif" font-size="10.00">{vector&lt; QuantExt::Configurable</text>
<text text-anchor="middle" x="206.5" y="-172" font-family="Helvetica,sans-Serif" font-size="10.00">Currency &gt;</text>
<text text-anchor="middle" x="206.5" y="-161" font-family="Helvetica,sans-Serif" font-size="10.00">||}</text>
</a>
</g>
</g>
<!-- Node3&#45;&gt;Node1 -->
<g id="edge2" class="edge"><title>Node3&#45;&gt;Node1</title>
<path fill="none" stroke="#404040" d="M191.232,-153.797C177.035,-135.476 155.353,-107.497 136.86,-83.6306"/>
<polygon fill="none" stroke="#404040" points="136.775,-83.5217 129.938,-81.2291 129.425,-74.0363 136.262,-76.3289 136.775,-83.5217"/>
<text text-anchor="middle" x="179" y="-95" font-family="Helvetica,sans-Serif" font-size="10.00"> &#45;currencies_</text>
</g>
<!-- Node4 -->
<g id="node4" class="node"><title>Node4</title>
<g id="a_node4"><a target="_parent" xlink:href="../qle/class_quant_ext_1_1_configurable_currency.html" xlink:title=" ">
<polygon fill="white" stroke="#666666" points="223.5,-327 95.5,-327 95.5,-286 223.5,-286 223.5,-327"/>
<text text-anchor="middle" x="159.5" y="-315" font-family="Helvetica,sans-Serif" font-size="10.00">{ConfigurableCurrency</text>
<text text-anchor="start" x="103.5" y="-304" font-family="Helvetica,sans-Serif" font-size="10.00">||+ ConfigurableCurrency()</text>
<text text-anchor="middle" x="159.5" y="-293" font-family="Helvetica,sans-Serif" font-size="10.00">}</text>
</a>
</g>
</g>
<!-- Node4&#45;&gt;Node3 -->
<g id="edge3" class="edge"><title>Node4&#45;&gt;Node3</title>
<path fill="none" stroke="#404040" d="M166.638,-285.756C174.239,-264.732 186.374,-231.167 195.26,-206.589"/>
<polygon fill="none" stroke="#404040" points="195.368,-206.289 193.647,-199.287 199.449,-195.004 201.17,-202.007 195.368,-206.289"/>
<text text-anchor="middle" x="204" y="-254.5" font-family="Helvetica,sans-Serif" font-size="10.00"> +elements</text>
</g>
<!-- Node5 -->
<g id="node5" class="node"><title>Node5</title>
<g id="a_node5"><a xlink:title=" ">
<polygon fill="white" stroke="#666666" points="309.5,-321.5 241.5,-321.5 241.5,-291.5 309.5,-291.5 309.5,-321.5"/>
<text text-anchor="middle" x="275.5" y="-309.5" font-family="Helvetica,sans-Serif" font-size="10.00">{vector&lt; T &gt;</text>
<text text-anchor="middle" x="275.5" y="-298.5" font-family="Helvetica,sans-Serif" font-size="10.00">||}</text>
</a>
</g>
</g>
<!-- Node5&#45;&gt;Node3 -->
<g id="edge4" class="edge"><title>Node5&#45;&gt;Node3</title>
<path fill="none" stroke="orange" d="M263.168,-282.266C249.986,-257.431 229.315,-218.486 216.919,-195.131"/>
<polygon fill="orange" stroke="orange" points="260.205,-284.148 267.984,-291.34 266.388,-280.866 260.205,-284.148"/>
<text text-anchor="start" x="254.5" y="-260" font-family="Helvetica,sans-Serif" font-size="10.00"> &lt; QuantExt::Configurable</text>
<text text-anchor="middle" x="311" y="-249" font-family="Helvetica,sans-Serif" font-size="10.00">Currency &gt;</text>
</g>
<!-- Node6 -->
<g id="node6" class="node"><title>Node6</title>
<g id="a_node6"><a xlink:title=" ">
<polygon fill="white" stroke="#666666" points="290,-404 261,-404 261,-374 290,-374 290,-404"/>
<text text-anchor="middle" x="275.5" y="-392" font-family="Helvetica,sans-Serif" font-size="10.00">{T</text>
<text text-anchor="middle" x="275.5" y="-381" font-family="Helvetica,sans-Serif" font-size="10.00">||}</text>
</a>
</g>
</g>
<!-- Node6&#45;&gt;Node5 -->
<g id="edge5" class="edge"><title>Node6&#45;&gt;Node5</title>
<path fill="none" stroke="#404040" d="M275.5,-373.978C275.5,-362.964 275.5,-347.309 275.5,-333.958"/>
<polygon fill="none" stroke="#404040" points="275.5,-333.631 271.5,-327.631 275.5,-321.631 279.5,-327.631 275.5,-333.631"/>
<text text-anchor="middle" x="300" y="-348" font-family="Helvetica,sans-Serif" font-size="10.00"> +elements</text>
</g>
</g>
</svg>
