<?xml version="1.0" encoding="UTF-8" standalone="no"?>
<!DOCTYPE svg PUBLIC "-//W3C//DTD SVG 1.1//EN"
 "http://www.w3.org/Graphics/SVG/1.1/DTD/svg11.dtd">
<!-- Generated by graphviz version 2.38.0 (20140413.2041)
 -->
<!-- Title: npv Pages: 1 -->
<svg width="399pt" height="243pt"
 viewBox="0.00 0.00 399.00 242.50" xmlns="http://www.w3.org/2000/svg" xmlns:xlink="http://www.w3.org/1999/xlink">
<g id="graph0" class="graph" transform="scale(1 1) rotate(0) translate(4 238.5)">
<title>npv</title>
<!-- Node1 -->
<g id="node1" class="node"><title>Node1</title>
<g id="a_node1"><a xlink:title=" ">
<polygon fill="#999999" stroke="#666666" points="31,-133 0,-133 0,-114 31,-114 31,-133"/>
<text text-anchor="middle" x="15.5" y="-121" font-family="Helvetica,sans-Serif" font-size="10.00">npv</text>
</a>
</g>
</g>
<!-- Node2 -->
<g id="node2" class="node"><title>Node2</title>
<g id="a_node2"><a target="_parent" xlink:href="../qle/struct_quant_ext_1_1_random_variable.html#a6e0fdc031c26ed1d1a956019d2cee4a1" xlink:title=" ">
<polygon fill="white" stroke="#666666" points="202,-234.5 67,-234.5 67,-204.5 202,-204.5 202,-234.5"/>
<text text-anchor="start" x="75" y="-222.5" font-family="Helvetica,sans-Serif" font-size="10.00">QuantExt::RandomVariable</text>
<text text-anchor="middle" x="134.5" y="-211.5" font-family="Helvetica,sans-Serif" font-size="10.00">::deterministic</text>
</a>
</g>
</g>
<!-- Node1&#45;&gt;Node2 -->
<g id="edge1" class="edge"><title>Node1&#45;&gt;Node2</title>
<path fill="none" stroke="#63b8ff" d="M20.9408,-133.333C28.3578,-148.707 44.6821,-178.437 67,-195.5 68.8222,-196.893 70.7327,-198.211 72.7089,-199.456"/>
<polygon fill="#63b8ff" stroke="#63b8ff" points="71.2837,-202.669 81.7244,-204.469 74.6852,-196.551 71.2837,-202.669"/>
</g>
<!-- Node3 -->
<g id="node3" class="node"><title>Node3</title>
<g id="a_node3"><a target="_parent" xlink:href="../qle/struct_quant_ext_1_1_random_variable.html#adaeda39d7b8cc716a40c4da65b00ba77" xlink:title=" ">
<polygon fill="white" stroke="#666666" points="202,-186.5 67,-186.5 67,-156.5 202,-156.5 202,-186.5"/>
<text text-anchor="start" x="75" y="-174.5" font-family="Helvetica,sans-Serif" font-size="10.00">QuantExt::RandomVariable</text>
<text text-anchor="middle" x="134.5" y="-163.5" font-family="Helvetica,sans-Serif" font-size="10.00">::initialised</text>
</a>
</g>
</g>
<!-- Node1&#45;&gt;Node3 -->
<g id="edge2" class="edge"><title>Node1&#45;&gt;Node3</title>
<path fill="none" stroke="#63b8ff" d="M31.3537,-131.028C41.3241,-135.964 54.8149,-142.42 67,-147.5 71.3722,-149.323 75.9376,-151.142 80.5384,-152.916"/>
<polygon fill="#63b8ff" stroke="#63b8ff" points="79.39,-156.223 89.9816,-156.483 81.8635,-149.675 79.39,-156.223"/>
</g>
<!-- Node4 -->
<g id="node4" class="node"><title>Node4</title>
<g id="a_node4"><a target="_parent" xlink:href="../qle/struct_quant_ext_1_1_random_variable.html#a7715599b27d9f0c69d0abd43a2469dd2" xlink:title=" ">
<polygon fill="white" stroke="#666666" points="202,-138.5 67,-138.5 67,-108.5 202,-108.5 202,-138.5"/>
<text text-anchor="start" x="75" y="-126.5" font-family="Helvetica,sans-Serif" font-size="10.00">QuantExt::RandomVariable</text>
<text text-anchor="middle" x="134.5" y="-115.5" font-family="Helvetica,sans-Serif" font-size="10.00">::setTime</text>
</a>
</g>
</g>
<!-- Node1&#45;&gt;Node4 -->
<g id="edge3" class="edge"><title>Node1&#45;&gt;Node4</title>
<path fill="none" stroke="#63b8ff" d="M31.3181,-123.5C38.255,-123.5 47.0958,-123.5 56.6646,-123.5"/>
<polygon fill="#63b8ff" stroke="#63b8ff" points="56.8507,-127 66.8506,-123.5 56.8506,-120 56.8507,-127"/>
</g>
<!-- Node5 -->
<g id="node5" class="node"><title>Node5</title>
<g id="a_node5"><a target="_parent" xlink:href="../qle/struct_quant_ext_1_1_random_variable.html#a769e6c6c6680ce0b532bc4efa48db44f" xlink:title=" ">
<polygon fill="white" stroke="#666666" points="202,-90.5 67,-90.5 67,-60.5 202,-60.5 202,-90.5"/>
<text text-anchor="start" x="75" y="-78.5" font-family="Helvetica,sans-Serif" font-size="10.00">QuantExt::RandomVariable</text>
<text text-anchor="middle" x="134.5" y="-67.5" font-family="Helvetica,sans-Serif" font-size="10.00">::time</text>
</a>
</g>
</g>
<!-- Node1&#45;&gt;Node5 -->
<g id="edge4" class="edge"><title>Node1&#45;&gt;Node5</title>
<path fill="none" stroke="#63b8ff" d="M31.3537,-115.972C41.3241,-111.036 54.8149,-104.58 67,-99.5 71.3722,-97.6772 75.9376,-95.8585 80.5384,-94.0841"/>
<polygon fill="#63b8ff" stroke="#63b8ff" points="81.8635,-97.325 89.9816,-90.5171 79.39,-90.7766 81.8635,-97.325"/>
</g>
<!-- Node6 -->
<g id="node6" class="node"><title>Node6</title>
<g id="a_node6"><a xlink:href="classore_1_1data_1_1_model.html#a6fead1da49affdddae755f95d693c4f3" target="_top" xlink:title=" ">
<polygon fill="white" stroke="#666666" points="201.5,-42.5 67.5,-42.5 67.5,-12.5 201.5,-12.5 201.5,-42.5"/>
<text text-anchor="start" x="75.5" y="-30.5" font-family="Helvetica,sans-Serif" font-size="10.00">ore::data::Model::timeFrom</text>
<text text-anchor="middle" x="134.5" y="-19.5" font-family="Helvetica,sans-Serif" font-size="10.00">Reference</text>
</a>
</g>
</g>
<!-- Node1&#45;&gt;Node6 -->
<g id="edge5" class="edge"><title>Node1&#45;&gt;Node6</title>
<path fill="none" stroke="#63b8ff" d="M20.9408,-113.667C28.3578,-98.2933 44.6821,-68.5631 67,-51.5 68.8222,-50.1069 70.7327,-48.7892 72.7089,-47.5435"/>
<polygon fill="#63b8ff" stroke="#63b8ff" points="74.6852,-50.4494 81.7244,-42.531 71.2837,-44.3314 74.6852,-50.4494"/>
</g>
<!-- Node7 -->
<g id="node7" class="node"><title>Node7</title>
<g id="a_node7"><a xlink:href="classore_1_1data_1_1_model.html#a03ae29747e458dc27b32188899fdbf7a" target="_top" xlink:title=" ">
<polygon fill="white" stroke="#666666" points="365,-56 264,-56 264,-37 365,-37 365,-56"/>
<text text-anchor="middle" x="314.5" y="-44" font-family="Helvetica,sans-Serif" font-size="10.00">ore::data::Model::dt</text>
</a>
</g>
</g>
<!-- Node6&#45;&gt;Node7 -->
<g id="edge6" class="edge"><title>Node6&#45;&gt;Node7</title>
<path fill="none" stroke="#63b8ff" d="M201.528,-34.5479C218.652,-36.3758 236.994,-38.3336 253.774,-40.1248"/>
<polygon fill="#63b8ff" stroke="#63b8ff" points="253.68,-43.6345 263.995,-41.2158 254.423,-36.6741 253.68,-43.6345"/>
</g>
<!-- Node8 -->
<g id="node8" class="node"><title>Node8</title>
<g id="a_node8"><a xlink:href="classore_1_1data_1_1_model.html#a06843bb9dcd2cb5e4ef8185cc5fe57c9" target="_top" xlink:title=" ">
<polygon fill="white" stroke="#666666" points="391,-19 238,-19 238,-0 391,-0 391,-19"/>
<text text-anchor="middle" x="314.5" y="-7" font-family="Helvetica,sans-Serif" font-size="10.00">ore::data::Model::referenceDate</text>
</a>
</g>
</g>
<!-- Node6&#45;&gt;Node8 -->
<g id="edge7" class="edge"><title>Node6&#45;&gt;Node8</title>
<path fill="none" stroke="#63b8ff" d="M201.528,-20.823C210.154,-19.9507 219.089,-19.0471 227.978,-18.1483"/>
<polygon fill="#63b8ff" stroke="#63b8ff" points="228.379,-21.6257 237.976,-17.1373 227.674,-14.6612 228.379,-21.6257"/>
</g>
</g>
</svg>
