<?xml version="1.0" encoding="UTF-8" standalone="no"?>
<!DOCTYPE svg PUBLIC "-//W3C//DTD SVG 1.1//EN"
 "http://www.w3.org/Graphics/SVG/1.1/DTD/svg11.dtd">
<!-- Generated by graphviz version 2.38.0 (20140413.2041)
 -->
<!-- Title: fromBaseNode Pages: 1 -->
<svg width="273pt" height="278pt"
 viewBox="0.00 0.00 273.00 278.00" xmlns="http://www.w3.org/2000/svg" xmlns:xlink="http://www.w3.org/1999/xlink">
<g id="graph0" class="graph" transform="scale(1 1) rotate(0) translate(4 274)">
<title>fromBaseNode</title>
<!-- Node1 -->
<g id="node1" class="node"><title>Node1</title>
<g id="a_node1"><a xlink:title=" ">
<polygon fill="#999999" stroke="#666666" points="265,-144.5 185,-144.5 185,-125.5 265,-125.5 265,-144.5"/>
<text text-anchor="middle" x="225" y="-132.5" font-family="Helvetica,sans-Serif" font-size="10.00">fromBaseNode</text>
</a>
</g>
</g>
<!-- Node2 -->
<g id="node2" class="node"><title>Node2</title>
<g id="a_node2"><a xlink:href="classore_1_1data_1_1_constant_volatility_config.html#a510baf06568510646decfeaf1753e526" target="_top" xlink:title=" ">
<polygon fill="white" stroke="#666666" points="143,-270 6,-270 6,-240 143,-240 143,-270"/>
<text text-anchor="start" x="14" y="-258" font-family="Helvetica,sans-Serif" font-size="10.00">ore::data::ConstantVolatility</text>
<text text-anchor="middle" x="74.5" y="-247" font-family="Helvetica,sans-Serif" font-size="10.00">Config::fromXML</text>
</a>
</g>
</g>
<!-- Node1&#45;&gt;Node2 -->
<g id="edge1" class="edge"><title>Node1&#45;&gt;Node2</title>
<path fill="none" stroke="#63b8ff" d="M214.063,-153.576C201.604,-175.171 178.282,-210.464 149,-231 144.164,-234.391 138.82,-237.326 133.284,-239.86"/>
<polygon fill="#63b8ff" stroke="#63b8ff" points="217.188,-155.159 219.006,-144.721 211.076,-151.747 217.188,-155.159"/>
</g>
<!-- Node3 -->
<g id="node3" class="node"><title>Node3</title>
<g id="a_node3"><a xlink:href="classore_1_1data_1_1_volatility_curve_config.html#a510baf06568510646decfeaf1753e526" target="_top" xlink:title=" ">
<polygon fill="white" stroke="#666666" points="135.5,-222 13.5,-222 13.5,-192 135.5,-192 135.5,-222"/>
<text text-anchor="start" x="21.5" y="-210" font-family="Helvetica,sans-Serif" font-size="10.00">ore::data::VolatilityCurve</text>
<text text-anchor="middle" x="74.5" y="-199" font-family="Helvetica,sans-Serif" font-size="10.00">Config::fromXML</text>
</a>
</g>
</g>
<!-- Node1&#45;&gt;Node3 -->
<g id="edge2" class="edge"><title>Node1&#45;&gt;Node3</title>
<path fill="none" stroke="#63b8ff" d="M203.005,-150.49C188.411,-160.733 168.205,-173.901 149,-183 142.085,-186.276 134.606,-189.283 127.157,-191.978"/>
<polygon fill="#63b8ff" stroke="#63b8ff" points="205.209,-153.216 211.308,-144.552 201.138,-147.522 205.209,-153.216"/>
</g>
<!-- Node4 -->
<g id="node4" class="node"><title>Node4</title>
<g id="a_node4"><a xlink:href="classore_1_1data_1_1_volatility_strike_surface_config.html#a510baf06568510646decfeaf1753e526" target="_top" xlink:title=" ">
<polygon fill="white" stroke="#666666" points="136.5,-174 12.5,-174 12.5,-144 136.5,-144 136.5,-174"/>
<text text-anchor="start" x="20.5" y="-162" font-family="Helvetica,sans-Serif" font-size="10.00">ore::data::VolatilityStrike</text>
<text text-anchor="middle" x="74.5" y="-151" font-family="Helvetica,sans-Serif" font-size="10.00">SurfaceConfig::fromXML</text>
</a>
</g>
</g>
<!-- Node1&#45;&gt;Node4 -->
<g id="edge3" class="edge"><title>Node1&#45;&gt;Node4</title>
<path fill="none" stroke="#63b8ff" d="M174.97,-142.924C162.717,-144.904 149.424,-147.053 136.664,-149.115"/>
<polygon fill="#63b8ff" stroke="#63b8ff" points="175.67,-146.356 184.983,-141.306 174.553,-139.446 175.67,-146.356"/>
</g>
<!-- Node5 -->
<g id="node5" class="node"><title>Node5</title>
<g id="a_node5"><a xlink:href="classore_1_1data_1_1_volatility_delta_surface_config.html#a510baf06568510646decfeaf1753e526" target="_top" xlink:title=" ">
<polygon fill="white" stroke="#666666" points="135,-126 14,-126 14,-96 135,-96 135,-126"/>
<text text-anchor="start" x="22" y="-114" font-family="Helvetica,sans-Serif" font-size="10.00">ore::data::VolatilityDelta</text>
<text text-anchor="middle" x="74.5" y="-103" font-family="Helvetica,sans-Serif" font-size="10.00">SurfaceConfig::fromXML</text>
</a>
</g>
</g>
<!-- Node1&#45;&gt;Node5 -->
<g id="edge4" class="edge"><title>Node1&#45;&gt;Node5</title>
<path fill="none" stroke="#63b8ff" d="M175.049,-127.089C162.319,-125.031 148.461,-122.792 135.242,-120.655"/>
<polygon fill="#63b8ff" stroke="#63b8ff" points="174.553,-130.554 184.983,-128.694 175.67,-123.644 174.553,-130.554"/>
</g>
<!-- Node6 -->
<g id="node6" class="node"><title>Node6</title>
<g id="a_node6"><a xlink:href="classore_1_1data_1_1_volatility_moneyness_surface_config.html#a510baf06568510646decfeaf1753e526" target="_top" xlink:title=" ">
<polygon fill="white" stroke="#666666" points="149,-78 0,-78 0,-48 149,-48 149,-78"/>
<text text-anchor="start" x="8" y="-66" font-family="Helvetica,sans-Serif" font-size="10.00">ore::data::VolatilityMoneyness</text>
<text text-anchor="middle" x="74.5" y="-55" font-family="Helvetica,sans-Serif" font-size="10.00">SurfaceConfig::fromXML</text>
</a>
</g>
</g>
<!-- Node1&#45;&gt;Node6 -->
<g id="edge5" class="edge"><title>Node1&#45;&gt;Node6</title>
<path fill="none" stroke="#63b8ff" d="M203.005,-119.51C188.411,-109.267 168.205,-96.0992 149,-87 142.085,-83.7239 134.606,-80.7169 127.157,-78.0216"/>
<polygon fill="#63b8ff" stroke="#63b8ff" points="201.138,-122.478 211.308,-125.448 205.209,-116.784 201.138,-122.478"/>
</g>
<!-- Node7 -->
<g id="node7" class="node"><title>Node7</title>
<g id="a_node7"><a xlink:href="classore_1_1data_1_1_volatility_apo_future_surface_config.html#a510baf06568510646decfeaf1753e526" target="_top" xlink:title=" ">
<polygon fill="white" stroke="#666666" points="148.5,-30 0.5,-30 0.5,-0 148.5,-0 148.5,-30"/>
<text text-anchor="start" x="8.5" y="-18" font-family="Helvetica,sans-Serif" font-size="10.00">ore::data::VolatilityApo</text>
<text text-anchor="middle" x="74.5" y="-7" font-family="Helvetica,sans-Serif" font-size="10.00">FutureSurfaceConfig::fromXML</text>
</a>
</g>
</g>
<!-- Node1&#45;&gt;Node7 -->
<g id="edge6" class="edge"><title>Node1&#45;&gt;Node7</title>
<path fill="none" stroke="#63b8ff" d="M214.063,-116.424C201.604,-94.8292 178.282,-59.5355 149,-39 144.164,-35.6087 138.82,-32.6742 133.284,-30.1396"/>
<polygon fill="#63b8ff" stroke="#63b8ff" points="211.076,-118.253 219.006,-125.279 217.188,-114.841 211.076,-118.253"/>
</g>
</g>
</svg>
