<?xml version="1.0" encoding="UTF-8" standalone="no"?>
<!DOCTYPE svg PUBLIC "-//W3C//DTD SVG 1.1//EN"
 "http://www.w3.org/Graphics/SVG/1.1/DTD/svg11.dtd">
<!-- Generated by graphviz version 2.38.0 (20140413.2041)
 -->
<!-- Title: EquityCurve Pages: 1 -->
<svg width="733pt" height="653pt"
 viewBox="0.00 0.00 733.00 652.50" xmlns="http://www.w3.org/2000/svg" xmlns:xlink="http://www.w3.org/1999/xlink">
<g id="graph0" class="graph" transform="scale(1 1) rotate(0) translate(4 648.5)">
<title>EquityCurve</title>
<!-- Node1 -->
<g id="node1" class="node"><title>Node1</title>
<g id="a_node1"><a xlink:title="Detailed constructor.">
<polygon fill="#999999" stroke="#666666" points="68,-328 0,-328 0,-309 68,-309 68,-328"/>
<text text-anchor="middle" x="34" y="-316" font-family="Helvetica,sans-Serif" font-size="10.00">EquityCurve</text>
</a>
</g>
</g>
<!-- Node2 -->
<g id="node2" class="node"><title>Node2</title>
<g id="a_node2"><a xlink:href="group__utilities.html#ga63a24b69574b9f0dc9f49cddbcaa242e" target="_top" xlink:title="Convert a value from a minor ccy to major.">
<polygon fill="white" stroke="#666666" points="238.5,-644.5 112.5,-644.5 112.5,-614.5 238.5,-614.5 238.5,-644.5"/>
<text text-anchor="start" x="120.5" y="-632.5" font-family="Helvetica,sans-Serif" font-size="10.00">ore::data::convertMinorTo</text>
<text text-anchor="middle" x="175.5" y="-621.5" font-family="Helvetica,sans-Serif" font-size="10.00">MajorCurrency</text>
</a>
</g>
</g>
<!-- Node1&#45;&gt;Node2 -->
<g id="edge1" class="edge"><title>Node1&#45;&gt;Node2</title>
<path fill="none" stroke="#63b8ff" d="M36.0815,-328.232C41.2915,-373.482 65.1555,-562.899 104,-605.5 104.882,-606.467 105.805,-607.396 106.763,-608.287"/>
<polygon fill="#63b8ff" stroke="#63b8ff" points="104.676,-611.097 114.739,-614.411 108.939,-605.544 104.676,-611.097"/>
</g>
<!-- Node3 -->
<g id="node3" class="node"><title>Node3</title>
<g id="a_node3"><a xlink:href="classore_1_1data_1_1_curve_spec.html#a15e57a287887def554123ab18355c33c" target="_top" xlink:title=" ">
<polygon fill="white" stroke="#666666" points="229,-596.5 122,-596.5 122,-566.5 229,-566.5 229,-596.5"/>
<text text-anchor="start" x="130" y="-584.5" font-family="Helvetica,sans-Serif" font-size="10.00">ore::data::CurveSpec</text>
<text text-anchor="middle" x="175.5" y="-573.5" font-family="Helvetica,sans-Serif" font-size="10.00">::curveConfigID</text>
</a>
</g>
</g>
<!-- Node1&#45;&gt;Node3 -->
<g id="edge2" class="edge"><title>Node1&#45;&gt;Node3</title>
<path fill="none" stroke="#63b8ff" d="M34.8138,-328.232C34.6705,-363.964 39.0113,-489.379 104,-557.5 106.655,-560.283 109.645,-562.743 112.857,-564.919"/>
<polygon fill="#63b8ff" stroke="#63b8ff" points="111.379,-568.105 121.796,-570.035 114.856,-562.03 111.379,-568.105"/>
</g>
<!-- Node4 -->
<g id="node4" class="node"><title>Node4</title>
<g id="a_node4"><a xlink:href="namespaceore_1_1data.html#aa184f2d487261594f30eb71bae3ca981" target="_top" xlink:title="Create a Interpolated Discount Curve and apply interpolators.">
<polygon fill="white" stroke="#666666" points="235.5,-548 115.5,-548 115.5,-529 235.5,-529 235.5,-548"/>
<text text-anchor="middle" x="175.5" y="-536" font-family="Helvetica,sans-Serif" font-size="10.00">ore::data::discountcurve</text>
</a>
</g>
</g>
<!-- Node1&#45;&gt;Node4 -->
<g id="edge3" class="edge"><title>Node1&#45;&gt;Node4</title>
<path fill="none" stroke="#63b8ff" d="M35.2391,-328.224C36.5852,-360.704 45.4743,-466.434 104,-520.5 105.131,-521.545 106.314,-522.531 107.541,-523.461"/>
<polygon fill="#63b8ff" stroke="#63b8ff" points="105.866,-526.541 116.211,-528.832 109.553,-520.59 105.866,-526.541"/>
</g>
<!-- Node5 -->
<g id="node5" class="node"><title>Node5</title>
<g id="a_node5"><a xlink:href="classore_1_1data_1_1_loader.html#a19d9f6f808db2631247ec12ffe291225" target="_top" xlink:title="get quote by its unique name, throws if not existent, override in derived classes for performance">
<polygon fill="white" stroke="#666666" points="230.5,-511 120.5,-511 120.5,-492 230.5,-492 230.5,-511"/>
<text text-anchor="middle" x="175.5" y="-499" font-family="Helvetica,sans-Serif" font-size="10.00">ore::data::Loader::get</text>
</a>
</g>
</g>
<!-- Node1&#45;&gt;Node5 -->
<g id="edge4" class="edge"><title>Node1&#45;&gt;Node5</title>
<path fill="none" stroke="#63b8ff" d="M36.1504,-328.349C40.0107,-356.808 55.1419,-439.83 104,-482.5 106.238,-484.454 108.657,-486.21 111.205,-487.787"/>
<polygon fill="#63b8ff" stroke="#63b8ff" points="109.801,-491.002 120.291,-492.49 113.019,-484.785 109.801,-491.002"/>
</g>
<!-- Node7 -->
<g id="node7" class="node"><title>Node7</title>
<g id="a_node7"><a xlink:href="group__marketdata.html#ga71fc1e19d4a9d3acd5e6cd6b6ae533b6" target="_top" xlink:title="Get a date from a date string or period.">
<polygon fill="white" stroke="#666666" points="244,-473.5 107,-473.5 107,-443.5 244,-443.5 244,-473.5"/>
<text text-anchor="start" x="115" y="-461.5" font-family="Helvetica,sans-Serif" font-size="10.00">ore::data::getDateFromDate</text>
<text text-anchor="middle" x="175.5" y="-450.5" font-family="Helvetica,sans-Serif" font-size="10.00">OrPeriod</text>
</a>
</g>
</g>
<!-- Node1&#45;&gt;Node7 -->
<g id="edge6" class="edge"><title>Node1&#45;&gt;Node7</title>
<path fill="none" stroke="#63b8ff" d="M38.613,-328.219C46.9582,-349.435 69.5351,-400.327 104,-429.5 108.001,-432.887 112.452,-435.92 117.117,-438.628"/>
<polygon fill="#63b8ff" stroke="#63b8ff" points="115.811,-441.894 126.292,-443.441 119.063,-435.696 115.811,-441.894"/>
</g>
<!-- Node9 -->
<g id="node9" class="node"><title>Node9</title>
<g id="a_node9"><a xlink:href="group__utilities.html#ga59b5fdda574d90facae95dec2d13040d" target="_top" xlink:title="Convert std::string to QuantLib::Date.">
<polygon fill="white" stroke="#666666" points="571,-425 466,-425 466,-406 571,-406 571,-425"/>
<text text-anchor="middle" x="518.5" y="-413" font-family="Helvetica,sans-Serif" font-size="10.00">ore::data::parseDate</text>
</a>
</g>
</g>
<!-- Node1&#45;&gt;Node9 -->
<g id="edge25" class="edge"><title>Node1&#45;&gt;Node9</title>
<path fill="none" stroke="#63b8ff" d="M40.0613,-328.15C49.7719,-345.513 72.8491,-381.597 104,-396.5 219.595,-451.802 374.772,-439.283 458.308,-426.591"/>
<polygon fill="#63b8ff" stroke="#63b8ff" points="459.044,-430.019 468.379,-425.007 457.957,-423.104 459.044,-430.019"/>
</g>
<!-- Node13 -->
<g id="node13" class="node"><title>Node13</title>
<g id="a_node13"><a xlink:href="namespaceore_1_1data.html#afb4bd26f4cf89fd9281278c484e0f9c3" target="_top" xlink:title="checks if at most one element in C has a wild card and returns it in this case">
<polygon fill="white" stroke="#666666" points="247,-387 104,-387 104,-368 247,-368 247,-387"/>
<text text-anchor="middle" x="175.5" y="-375" font-family="Helvetica,sans-Serif" font-size="10.00">ore::data::getUniqueWildcard</text>
</a>
</g>
</g>
<!-- Node1&#45;&gt;Node13 -->
<g id="edge14" class="edge"><title>Node1&#45;&gt;Node13</title>
<path fill="none" stroke="#63b8ff" d="M48.3969,-328.043C61.8733,-337.253 83.5339,-351.014 104,-359.5 108.835,-361.505 113.952,-363.332 119.133,-364.987"/>
<polygon fill="#63b8ff" stroke="#63b8ff" points="118.535,-368.461 129.118,-367.958 120.532,-361.752 118.535,-368.461"/>
</g>
<!-- Node15 -->
<g id="node15" class="node"><title>Node15</title>
<g id="a_node15"><a target="_parent" xlink:href="../qle/namespace_quant_ext.html#a250ccc1dd6b0731854784fddafb97284" xlink:title=" ">
<polygon fill="white" stroke="#666666" points="214,-350 137,-350 137,-331 214,-331 214,-350"/>
<text text-anchor="middle" x="175.5" y="-338" font-family="Helvetica,sans-Serif" font-size="10.00">QuantExt::log</text>
</a>
</g>
</g>
<!-- Node1&#45;&gt;Node15 -->
<g id="edge16" class="edge"><title>Node1&#45;&gt;Node15</title>
<path fill="none" stroke="#63b8ff" d="M68.0596,-323.714C85.5433,-326.471 107.327,-329.906 126.625,-332.95"/>
<polygon fill="#63b8ff" stroke="#63b8ff" points="126.326,-336.446 136.749,-334.546 127.417,-329.531 126.326,-336.446"/>
</g>
<!-- Node16 -->
<g id="node16" class="node"><title>Node16</title>
<g id="a_node16"><a xlink:href="classore_1_1data_1_1_curve_spec.html#afa7a10b4b56522f03c698ac514b0f844" target="_top" xlink:title="returns the unique curve name">
<polygon fill="white" stroke="#666666" points="229,-312.5 122,-312.5 122,-282.5 229,-282.5 229,-312.5"/>
<text text-anchor="start" x="130" y="-300.5" font-family="Helvetica,sans-Serif" font-size="10.00">ore::data::CurveSpec</text>
<text text-anchor="middle" x="175.5" y="-289.5" font-family="Helvetica,sans-Serif" font-size="10.00">::name</text>
</a>
</g>
</g>
<!-- Node1&#45;&gt;Node16 -->
<g id="edge17" class="edge"><title>Node1&#45;&gt;Node16</title>
<path fill="none" stroke="#63b8ff" d="M68.0596,-313.523C81.0868,-311.562 96.5011,-309.242 111.496,-306.985"/>
<polygon fill="#63b8ff" stroke="#63b8ff" points="112.407,-310.387 121.775,-305.437 111.365,-303.465 112.407,-310.387"/>
</g>
<!-- Node21 -->
<g id="node21" class="node"><title>Node21</title>
<g id="a_node21"><a xlink:href="group__utilities.html#ga0f72d6fcccae10a674bdcd5095200f14" target="_top" xlink:title="Convert text to QuantLib::Calendar.">
<polygon fill="white" stroke="#666666" points="237,-264 114,-264 114,-245 237,-245 237,-264"/>
<text text-anchor="middle" x="175.5" y="-252" font-family="Helvetica,sans-Serif" font-size="10.00">ore::data::parseCalendar</text>
</a>
</g>
</g>
<!-- Node1&#45;&gt;Node21 -->
<g id="edge23" class="edge"><title>Node1&#45;&gt;Node21</title>
<path fill="none" stroke="#63b8ff" d="M47.0335,-308.952C60.2935,-298.851 82.5894,-283.076 104,-273.5 109.337,-271.113 115.04,-268.969 120.803,-267.058"/>
<polygon fill="#63b8ff" stroke="#63b8ff" points="121.984,-270.357 130.505,-264.061 119.918,-263.669 121.984,-270.357"/>
</g>
<!-- Node22 -->
<g id="node22" class="node"><title>Node22</title>
<g id="a_node22"><a xlink:href="group__utilities.html#ga6e9e781a58e78200301c76161589fc7b" target="_top" xlink:title="Convert text to QuantLib::Currency.">
<polygon fill="white" stroke="#666666" points="237.5,-227 113.5,-227 113.5,-208 237.5,-208 237.5,-227"/>
<text text-anchor="middle" x="175.5" y="-215" font-family="Helvetica,sans-Serif" font-size="10.00">ore::data::parseCurrency</text>
</a>
</g>
</g>
<!-- Node1&#45;&gt;Node22 -->
<g id="edge24" class="edge"><title>Node1&#45;&gt;Node22</title>
<path fill="none" stroke="#63b8ff" d="M40.449,-308.747C50.6192,-291.463 74.1862,-255.495 104,-236.5 107.333,-234.377 110.899,-232.489 114.592,-230.811"/>
<polygon fill="#63b8ff" stroke="#63b8ff" points="115.992,-234.02 123.976,-227.056 113.391,-227.522 115.992,-234.02"/>
</g>
<!-- Node23 -->
<g id="node23" class="node"><title>Node23</title>
<g id="a_node23"><a xlink:href="group__utilities.html#gaefb008d0de256c79140545d9c7549093" target="_top" xlink:title="Convert text to QuantLib::DayCounter.">
<polygon fill="white" stroke="#666666" points="243.5,-190 107.5,-190 107.5,-171 243.5,-171 243.5,-190"/>
<text text-anchor="middle" x="175.5" y="-178" font-family="Helvetica,sans-Serif" font-size="10.00">ore::data::parseDayCounter</text>
</a>
</g>
</g>
<!-- Node1&#45;&gt;Node23 -->
<g id="edge26" class="edge"><title>Node1&#45;&gt;Node23</title>
<path fill="none" stroke="#63b8ff" d="M37.8057,-308.768C44.8908,-285.978 65.7222,-228.859 104,-199.5 106.436,-197.632 109.042,-195.947 111.764,-194.427"/>
<polygon fill="#63b8ff" stroke="#63b8ff" points="113.273,-197.585 120.787,-190.116 110.255,-191.269 113.273,-197.585"/>
</g>
<!-- Node24 -->
<g id="node24" class="node"><title>Node24</title>
<g id="a_node24"><a xlink:href="namespaceore_1_1data.html#ab06f33389d243260219e8c0445fd2b41" target="_top" xlink:title="Helper function for parsing interpolation method.">
<polygon fill="white" stroke="#666666" points="241,-152.5 110,-152.5 110,-122.5 241,-122.5 241,-152.5"/>
<text text-anchor="start" x="118" y="-140.5" font-family="Helvetica,sans-Serif" font-size="10.00">ore::data::parseYieldCurve</text>
<text text-anchor="middle" x="175.5" y="-129.5" font-family="Helvetica,sans-Serif" font-size="10.00">InterpolationMethod</text>
</a>
</g>
</g>
<!-- Node1&#45;&gt;Node24 -->
<g id="edge27" class="edge"><title>Node1&#45;&gt;Node24</title>
<path fill="none" stroke="#63b8ff" d="M36.5335,-308.911C41.3437,-281.928 58.6104,-204.579 104,-162.5 105.702,-160.922 107.511,-159.442 109.402,-158.055"/>
<polygon fill="#63b8ff" stroke="#63b8ff" points="111.555,-160.835 118.153,-152.546 107.826,-154.911 111.555,-160.835"/>
</g>
<!-- Node25 -->
<g id="node25" class="node"><title>Node25</title>
<g id="a_node25"><a xlink:href="namespaceore_1_1data.html#a63671ca627840642f69b9eab242239fd" target="_top" xlink:title="Helper function for parsing interpolation variable.">
<polygon fill="white" stroke="#666666" points="241,-104.5 110,-104.5 110,-74.5 241,-74.5 241,-104.5"/>
<text text-anchor="start" x="118" y="-92.5" font-family="Helvetica,sans-Serif" font-size="10.00">ore::data::parseYieldCurve</text>
<text text-anchor="middle" x="175.5" y="-81.5" font-family="Helvetica,sans-Serif" font-size="10.00">InterpolationVariable</text>
</a>
</g>
</g>
<!-- Node1&#45;&gt;Node25 -->
<g id="edge28" class="edge"><title>Node1&#45;&gt;Node25</title>
<path fill="none" stroke="#63b8ff" d="M35.3572,-308.81C37.0766,-276.412 47.0086,-170.688 104,-113.5 104.95,-112.547 105.939,-111.632 106.962,-110.753"/>
<polygon fill="#63b8ff" stroke="#63b8ff" points="109.317,-113.372 115.406,-104.701 105.239,-107.682 109.317,-113.372"/>
</g>
<!-- Node26 -->
<g id="node26" class="node"><title>Node26</title>
<g id="a_node26"><a xlink:href="classore_1_1data_1_1_equity_curve.html#a09f2137c29370d67a53e984f4f0735e5" target="_top" xlink:title=" ">
<polygon fill="white" stroke="#666666" points="194.5,-56 156.5,-56 156.5,-37 194.5,-37 194.5,-56"/>
<text text-anchor="middle" x="175.5" y="-44" font-family="Helvetica,sans-Serif" font-size="10.00">spec</text>
</a>
</g>
</g>
<!-- Node1&#45;&gt;Node26 -->
<g id="edge29" class="edge"><title>Node1&#45;&gt;Node26</title>
<path fill="none" stroke="#63b8ff" d="M34.4921,-308.84C33.0927,-271.619 33.2302,-136.058 104,-65.5 115.124,-54.409 131.999,-49.6035 146.449,-47.5971"/>
<polygon fill="#63b8ff" stroke="#63b8ff" points="146.833,-51.0763 156.427,-46.581 146.123,-44.1123 146.833,-51.0763"/>
</g>
<!-- Node27 -->
<g id="node27" class="node"><title>Node27</title>
<g id="a_node27"><a xlink:href="namespaceore_1_1data.html#ae1d27033e39ac9a482852f335b186756" target="_top" xlink:title="Create a Interpolated Zero Curve and apply interpolators.">
<polygon fill="white" stroke="#666666" points="226.5,-19 124.5,-19 124.5,-0 226.5,-0 226.5,-19"/>
<text text-anchor="middle" x="175.5" y="-7" font-family="Helvetica,sans-Serif" font-size="10.00">ore::data::zerocurve</text>
</a>
</g>
</g>
<!-- Node1&#45;&gt;Node27 -->
<g id="edge30" class="edge"><title>Node1&#45;&gt;Node27</title>
<path fill="none" stroke="#63b8ff" d="M35.9741,-308.915C40.7773,-263.491 63.3559,-70.3679 104,-28.5 107.216,-25.1873 110.944,-22.4326 114.973,-20.1442"/>
<polygon fill="#63b8ff" stroke="#63b8ff" points="116.609,-23.2429 124.192,-15.8437 113.65,-16.8991 116.609,-23.2429"/>
</g>
<!-- Node6 -->
<g id="node6" class="node"><title>Node6</title>
<g id="a_node6"><a xlink:href="classore_1_1data_1_1_loader.html#a0086c4f946085ef0b9d5c56bd1539f91" target="_top" xlink:title="get all quotes, TODO change the return value to std::set">
<polygon fill="white" stroke="#666666" points="402.5,-516.5 306.5,-516.5 306.5,-486.5 402.5,-486.5 402.5,-516.5"/>
<text text-anchor="start" x="314.5" y="-504.5" font-family="Helvetica,sans-Serif" font-size="10.00">ore::data::Loader::</text>
<text text-anchor="middle" x="354.5" y="-493.5" font-family="Helvetica,sans-Serif" font-size="10.00">loadQuotes</text>
</a>
</g>
</g>
<!-- Node5&#45;&gt;Node6 -->
<g id="edge5" class="edge"><title>Node5&#45;&gt;Node6</title>
<path fill="none" stroke="#63b8ff" d="M230.568,-501.5C251.361,-501.5 275.159,-501.5 296.243,-501.5"/>
<polygon fill="#63b8ff" stroke="#63b8ff" points="296.351,-505 306.351,-501.5 296.351,-498 296.351,-505"/>
</g>
<!-- Node8 -->
<g id="node8" class="node"><title>Node8</title>
<g id="a_node8"><a xlink:href="group__utilities.html#ga6477391407eac174ea49df689ecf1ab2" target="_top" xlink:title="Convert text to QuantLib::Period or QuantLib::Date.">
<polygon fill="white" stroke="#666666" points="426,-468 283,-468 283,-449 426,-449 426,-468"/>
<text text-anchor="middle" x="354.5" y="-456" font-family="Helvetica,sans-Serif" font-size="10.00">ore::data::parseDateOrPeriod</text>
</a>
</g>
</g>
<!-- Node7&#45;&gt;Node8 -->
<g id="edge7" class="edge"><title>Node7&#45;&gt;Node8</title>
<path fill="none" stroke="#63b8ff" d="M244.174,-458.5C253.491,-458.5 263.134,-458.5 272.659,-458.5"/>
<polygon fill="#63b8ff" stroke="#63b8ff" points="272.926,-462 282.926,-458.5 272.926,-455 272.926,-462"/>
</g>
<!-- Node8&#45;&gt;Node9 -->
<g id="edge8" class="edge"><title>Node8&#45;&gt;Node9</title>
<path fill="none" stroke="#63b8ff" d="M391.453,-448.957C415.153,-442.666 446.398,-434.373 471.849,-427.617"/>
<polygon fill="#63b8ff" stroke="#63b8ff" points="472.88,-430.965 481.647,-425.016 471.084,-424.199 472.88,-430.965"/>
</g>
<!-- Node12 -->
<g id="node12" class="node"><title>Node12</title>
<g id="a_node12"><a xlink:href="group__utilities.html#ga8e0623e2cb01e250e9cfec4619256208" target="_top" xlink:title="Convert text to QuantLib::Period.">
<polygon fill="white" stroke="#666666" points="575,-480 462,-480 462,-461 575,-461 575,-480"/>
<text text-anchor="middle" x="518.5" y="-468" font-family="Helvetica,sans-Serif" font-size="10.00">ore::data::parsePeriod</text>
</a>
</g>
</g>
<!-- Node8&#45;&gt;Node12 -->
<g id="edge13" class="edge"><title>Node8&#45;&gt;Node12</title>
<path fill="none" stroke="#63b8ff" d="M426.084,-463.728C434.571,-464.357 443.212,-464.997 451.628,-465.621"/>
<polygon fill="#63b8ff" stroke="#63b8ff" points="451.525,-469.122 461.756,-466.371 452.042,-462.142 451.525,-469.122"/>
</g>
<!-- Node9&#45;&gt;Node9 -->
<g id="edge9" class="edge"><title>Node9&#45;&gt;Node9</title>
<path fill="none" stroke="#63b8ff" d="M495.689,-425.083C484.592,-433.734 492.195,-443 518.5,-443 535.351,-443 544.528,-439.197 546.03,-434.189"/>
<polygon fill="#63b8ff" stroke="#63b8ff" points="549.019,-432.352 541.311,-425.083 542.804,-435.572 549.019,-432.352"/>
</g>
<!-- Node10 -->
<g id="node10" class="node"><title>Node10</title>
<g id="a_node10"><a xlink:href="group__utilities.html#gaecd67eda4fb5f4859bb8f6d383547721" target="_top" xlink:title="Convert text to QuantLib::Integer.">
<polygon fill="white" stroke="#666666" points="725,-444 611,-444 611,-425 725,-425 725,-444"/>
<text text-anchor="middle" x="668" y="-432" font-family="Helvetica,sans-Serif" font-size="10.00">ore::data::parseInteger</text>
</a>
</g>
</g>
<!-- Node9&#45;&gt;Node10 -->
<g id="edge10" class="edge"><title>Node9&#45;&gt;Node10</title>
<path fill="none" stroke="#63b8ff" d="M571.088,-422.145C580.746,-423.389 590.962,-424.705 600.986,-425.997"/>
<polygon fill="#63b8ff" stroke="#63b8ff" points="600.553,-429.469 610.918,-427.276 601.447,-422.527 600.553,-429.469"/>
</g>
<!-- Node11 -->
<g id="node11" class="node"><title>Node11</title>
<g id="a_node11"><a xlink:href="namespaceore_1_1data.html#a777e216dee6069b548bb87da7152699e" target="_top" xlink:title=" ">
<polygon fill="white" stroke="#666666" points="707.5,-407 628.5,-407 628.5,-388 707.5,-388 707.5,-407"/>
<text text-anchor="middle" x="668" y="-395" font-family="Helvetica,sans-Serif" font-size="10.00">ore::data::size</text>
</a>
</g>
</g>
<!-- Node9&#45;&gt;Node11 -->
<g id="edge12" class="edge"><title>Node9&#45;&gt;Node11</title>
<path fill="none" stroke="#63b8ff" d="M571.088,-409.204C586.343,-407.343 602.992,-405.311 618.074,-403.471"/>
<polygon fill="#63b8ff" stroke="#63b8ff" points="618.726,-406.917 628.228,-402.231 617.878,-399.969 618.726,-406.917"/>
</g>
<!-- Node10&#45;&gt;Node10 -->
<g id="edge11" class="edge"><title>Node10&#45;&gt;Node10</title>
<path fill="none" stroke="#63b8ff" d="M645.189,-444.083C634.092,-452.734 641.695,-462 668,-462 684.851,-462 694.028,-458.197 695.53,-453.189"/>
<polygon fill="#63b8ff" stroke="#63b8ff" points="698.519,-451.352 690.811,-444.083 692.304,-454.572 698.519,-451.352"/>
</g>
<!-- Node14 -->
<g id="node14" class="node"><title>Node14</title>
<g id="a_node14"><a xlink:href="classore_1_1data_1_1_wildcard.html#a2c8716c3eecd1edf1c1675aa730d59e3" target="_top" xlink:title=" ">
<polygon fill="white" stroke="#666666" points="404,-387.5 305,-387.5 305,-357.5 404,-357.5 404,-387.5"/>
<text text-anchor="start" x="313" y="-375.5" font-family="Helvetica,sans-Serif" font-size="10.00">ore::data::Wildcard</text>
<text text-anchor="middle" x="354.5" y="-364.5" font-family="Helvetica,sans-Serif" font-size="10.00">::hasWildcard</text>
</a>
</g>
</g>
<!-- Node13&#45;&gt;Node14 -->
<g id="edge15" class="edge"><title>Node13&#45;&gt;Node14</title>
<path fill="none" stroke="#63b8ff" d="M247.218,-375.502C262.944,-375.058 279.451,-374.592 294.641,-374.163"/>
<polygon fill="#63b8ff" stroke="#63b8ff" points="295.023,-377.653 304.92,-373.872 294.826,-370.656 295.023,-377.653"/>
</g>
<!-- Node17 -->
<g id="node17" class="node"><title>Node17</title>
<g id="a_node17"><a xlink:href="classore_1_1data_1_1_curve_spec.html#a3d24768215bf6280c80eca3930ea3f55" target="_top" xlink:title=" ">
<polygon fill="white" stroke="#666666" points="408,-322.5 301,-322.5 301,-292.5 408,-292.5 408,-322.5"/>
<text text-anchor="start" x="309" y="-310.5" font-family="Helvetica,sans-Serif" font-size="10.00">ore::data::CurveSpec</text>
<text text-anchor="middle" x="354.5" y="-299.5" font-family="Helvetica,sans-Serif" font-size="10.00">::baseName</text>
</a>
</g>
</g>
<!-- Node16&#45;&gt;Node17 -->
<g id="edge18" class="edge"><title>Node16&#45;&gt;Node17</title>
<path fill="none" stroke="#63b8ff" d="M229.127,-300.473C248.48,-301.567 270.588,-302.816 290.744,-303.954"/>
<polygon fill="#63b8ff" stroke="#63b8ff" points="290.589,-307.451 300.771,-304.521 290.984,-300.462 290.589,-307.451"/>
</g>
<!-- Node20 -->
<g id="node20" class="node"><title>Node20</title>
<g id="a_node20"><a xlink:href="classore_1_1data_1_1_curve_spec.html#a471fbcf9df5ab7ac2153495b4c8ac723" target="_top" xlink:title=" ">
<polygon fill="white" stroke="#666666" points="408,-274.5 301,-274.5 301,-244.5 408,-244.5 408,-274.5"/>
<text text-anchor="start" x="309" y="-262.5" font-family="Helvetica,sans-Serif" font-size="10.00">ore::data::CurveSpec</text>
<text text-anchor="middle" x="354.5" y="-251.5" font-family="Helvetica,sans-Serif" font-size="10.00">::subName</text>
</a>
</g>
</g>
<!-- Node16&#45;&gt;Node20 -->
<g id="edge22" class="edge"><title>Node16&#45;&gt;Node20</title>
<path fill="none" stroke="#63b8ff" d="M229.127,-286.202C248.48,-282.047 270.588,-277.3 290.744,-272.973"/>
<polygon fill="#63b8ff" stroke="#63b8ff" points="291.728,-276.342 300.771,-270.82 290.259,-269.498 291.728,-276.342"/>
</g>
<!-- Node18 -->
<g id="node18" class="node"><title>Node18</title>
<g id="a_node18"><a xlink:href="classore_1_1data_1_1_curve_spec.html#a0106d2fb6472e64456c6ebd018aa6300" target="_top" xlink:title=" ">
<polygon fill="white" stroke="#666666" points="572,-377.5 465,-377.5 465,-347.5 572,-347.5 572,-377.5"/>
<text text-anchor="start" x="473" y="-365.5" font-family="Helvetica,sans-Serif" font-size="10.00">ore::data::CurveSpec</text>
<text text-anchor="middle" x="518.5" y="-354.5" font-family="Helvetica,sans-Serif" font-size="10.00">::baseType</text>
</a>
</g>
</g>
<!-- Node17&#45;&gt;Node18 -->
<g id="edge19" class="edge"><title>Node17&#45;&gt;Node18</title>
<path fill="none" stroke="#63b8ff" d="M399.767,-322.529C419.5,-329.229 442.924,-337.181 463.661,-344.221"/>
<polygon fill="#63b8ff" stroke="#63b8ff" points="462.692,-347.588 473.286,-347.489 464.942,-340.96 462.692,-347.588"/>
</g>
<!-- Node19 -->
<g id="node19" class="node"><title>Node19</title>
<g id="a_node19"><a xlink:href="namespaceore_1_1data.html#a86651dfeb5c18ee891f7a4734d8cf455" target="_top" xlink:title=" ">
<polygon fill="white" stroke="#666666" points="567.5,-311 469.5,-311 469.5,-292 567.5,-292 567.5,-311"/>
<text text-anchor="middle" x="518.5" y="-299" font-family="Helvetica,sans-Serif" font-size="10.00">ore::data::to_string</text>
</a>
</g>
</g>
<!-- Node17&#45;&gt;Node19 -->
<g id="edge20" class="edge"><title>Node17&#45;&gt;Node19</title>
<path fill="none" stroke="#63b8ff" d="M408.097,-305.552C424.393,-304.948 442.446,-304.28 459.111,-303.663"/>
<polygon fill="#63b8ff" stroke="#63b8ff" points="459.416,-307.154 469.279,-303.286 459.157,-300.159 459.416,-307.154"/>
</g>
<!-- Node19&#45;&gt;Node19 -->
<g id="edge21" class="edge"><title>Node19&#45;&gt;Node19</title>
<path fill="none" stroke="#63b8ff" d="M495.689,-311.083C484.592,-319.734 492.195,-329 518.5,-329 535.351,-329 544.528,-325.197 546.03,-320.189"/>
<polygon fill="#63b8ff" stroke="#63b8ff" points="549.019,-318.352 541.311,-311.083 542.804,-321.572 549.019,-318.352"/>
</g>
</g>
</svg>
