<?xml version="1.0" encoding="UTF-8" standalone="no"?>
<!DOCTYPE svg PUBLIC "-//W3C//DTD SVG 1.1//EN"
 "http://www.w3.org/Graphics/SVG/1.1/DTD/svg11.dtd">
<!-- Generated by graphviz version 2.38.0 (20140413.2041)
 -->
<!-- Title: baseYieldCurveId Pages: 1 -->
<svg width="595pt" height="64pt"
 viewBox="0.00 0.00 595.00 64.00" xmlns="http://www.w3.org/2000/svg" xmlns:xlink="http://www.w3.org/1999/xlink">
<g id="graph0" class="graph" transform="scale(1 1) rotate(0) translate(4 60)">
<title>baseYieldCurveId</title>
<!-- Node1 -->
<g id="node1" class="node"><title>Node1</title>
<g id="a_node1"><a xlink:title=" ">
<polygon fill="#999999" stroke="#666666" points="587,-37 496,-37 496,-18 587,-18 587,-37"/>
<text text-anchor="middle" x="541.5" y="-25" font-family="Helvetica,sans-Serif" font-size="10.00">baseYieldCurveId</text>
</a>
</g>
</g>
<!-- Node2 -->
<g id="node2" class="node"><title>Node2</title>
<g id="a_node2"><a xlink:href="classore_1_1data_1_1_commodity_curve_config.html#a09cdbe524aa89af7bba59a844397ebb9" target="_top" xlink:title="Populate any dependent curve IDs.">
<polygon fill="white" stroke="#666666" points="460,-37 332,-37 332,-18 460,-18 460,-37"/>
<text text-anchor="middle" x="396" y="-25" font-family="Helvetica,sans-Serif" font-size="10.00">populateRequiredCurveIds</text>
</a>
</g>
</g>
<!-- Node1&#45;&gt;Node2 -->
<g id="edge1" class="edge"><title>Node1&#45;&gt;Node2</title>
<path fill="none" stroke="#63b8ff" d="M485.804,-27.5C477.378,-27.5 468.619,-27.5 460.029,-27.5"/>
<polygon fill="#63b8ff" stroke="#63b8ff" points="485.882,-31.0001 495.882,-27.5 485.882,-24.0001 485.882,-31.0001"/>
</g>
<!-- Node3 -->
<g id="node3" class="node"><title>Node3</title>
<g id="a_node3"><a xlink:href="classore_1_1data_1_1_commodity_curve_config.html#a388a9d5457a9194cab4c52e5f45c2415" target="_top" xlink:title="Detailed constructor for CrossCurrency commodity curve configuration.">
<polygon fill="white" stroke="#666666" points="296,-56 179,-56 179,-37 296,-37 296,-56"/>
<text text-anchor="middle" x="237.5" y="-44" font-family="Helvetica,sans-Serif" font-size="10.00">CommodityCurveConfig</text>
</a>
</g>
</g>
<!-- Node2&#45;&gt;Node3 -->
<g id="edge2" class="edge"><title>Node2&#45;&gt;Node3</title>
<path fill="none" stroke="#63b8ff" d="M321.76,-36.3918C313.157,-37.4362 304.473,-38.4905 296.126,-39.5038"/>
<polygon fill="#63b8ff" stroke="#63b8ff" points="322.291,-39.853 331.797,-35.1733 321.448,-32.9041 322.291,-39.853"/>
</g>
<!-- Node4 -->
<g id="node4" class="node"><title>Node4</title>
<g id="a_node4"><a xlink:href="classore_1_1data_1_1_commodity_curve_config.html#a7741ae0fc924943de5bfe02928262eb7" target="_top" xlink:title=" ">
<polygon fill="white" stroke="#666666" points="264.5,-19 210.5,-19 210.5,-0 264.5,-0 264.5,-19"/>
<text text-anchor="middle" x="237.5" y="-7" font-family="Helvetica,sans-Serif" font-size="10.00">fromXML</text>
</a>
</g>
</g>
<!-- Node2&#45;&gt;Node4 -->
<g id="edge3" class="edge"><title>Node2&#45;&gt;Node4</title>
<path fill="none" stroke="#63b8ff" d="M321.833,-19.0846C301.41,-16.7356 280.523,-14.3333 264.769,-12.5214"/>
<polygon fill="#63b8ff" stroke="#63b8ff" points="321.462,-22.565 331.797,-20.2306 322.262,-15.6108 321.462,-22.565"/>
</g>
<!-- Node5 -->
<g id="node5" class="node"><title>Node5</title>
<g id="a_node5"><a xlink:href="test_2commoditycurveconfig_8cpp.html#a211329d4e6d8e3d23c39ccee40f56f99" target="_top" xlink:title=" ">
<polygon fill="white" stroke="#666666" points="143,-19 0,-19 0,-0 143,-0 143,-19"/>
<text text-anchor="middle" x="71.5" y="-7" font-family="Helvetica,sans-Serif" font-size="10.00">BOOST_AUTO_TEST_CASE</text>
</a>
</g>
</g>
<!-- Node4&#45;&gt;Node5 -->
<g id="edge4" class="edge"><title>Node4&#45;&gt;Node5</title>
<path fill="none" stroke="#63b8ff" d="M199.717,-9.5C182.964,-9.5 162.549,-9.5 143.019,-9.5"/>
<polygon fill="#63b8ff" stroke="#63b8ff" points="200.151,-13.0001 210.151,-9.5 200.151,-6.0001 200.151,-13.0001"/>
</g>
</g>
</svg>
