<?xml version="1.0" encoding="UTF-8" standalone="no"?>
<!DOCTYPE svg PUBLIC "-//W3C//DTD SVG 1.1//EN"
 "http://www.w3.org/Graphics/SVG/1.1/DTD/svg11.dtd">
<!-- Generated by graphviz version 2.38.0 (20140413.2041)
 -->
<!-- Title: fwdCompAvg Pages: 1 -->
<svg width="227pt" height="76pt"
 viewBox="0.00 0.00 227.00 75.50" xmlns="http://www.w3.org/2000/svg" xmlns:xlink="http://www.w3.org/1999/xlink">
<g id="graph0" class="graph" transform="scale(1 1) rotate(0) translate(4 71.5)">
<title>fwdCompAvg</title>
<!-- Node1 -->
<g id="node1" class="node"><title>Node1</title>
<g id="a_node1"><a xlink:title=" ">
<polygon fill="#999999" stroke="#666666" points="72,-40 0,-40 0,-21 72,-21 72,-40"/>
<text text-anchor="middle" x="36" y="-28" font-family="Helvetica,sans-Serif" font-size="10.00">fwdCompAvg</text>
</a>
</g>
</g>
<!-- Node2 -->
<g id="node2" class="node"><title>Node2</title>
<g id="a_node2"><a xlink:href="classore_1_1data_1_1_index_info.html#abc8c599d5c46ac1e07223efa375553f2" target="_top" xlink:title=" ">
<polygon fill="white" stroke="#666666" points="213,-67.5 114,-67.5 114,-37.5 213,-37.5 213,-67.5"/>
<text text-anchor="start" x="122" y="-55.5" font-family="Helvetica,sans-Serif" font-size="10.00">ore::data::IndexInfo</text>
<text text-anchor="middle" x="163.5" y="-44.5" font-family="Helvetica,sans-Serif" font-size="10.00">::irIbor</text>
</a>
</g>
</g>
<!-- Node1&#45;&gt;Node2 -->
<g id="edge1" class="edge"><title>Node1&#45;&gt;Node2</title>
<path fill="none" stroke="#63b8ff" d="M72.2927,-36.6868C82.1731,-38.4188 93.1847,-40.3491 104.025,-42.2495"/>
<polygon fill="#63b8ff" stroke="#63b8ff" points="103.441,-45.7004 113.896,-43.9797 104.65,-38.8055 103.441,-45.7004"/>
</g>
<!-- Node3 -->
<g id="node3" class="node"><title>Node3</title>
<g id="a_node3"><a xlink:href="classore_1_1data_1_1_model.html#a9edcd102946c4e3bd0bcdba2fc64e397" target="_top" xlink:title=" ">
<polygon fill="white" stroke="#666666" points="219,-19 108,-19 108,-0 219,-0 219,-19"/>
<text text-anchor="middle" x="163.5" y="-7" font-family="Helvetica,sans-Serif" font-size="10.00">ore::data::Model::size</text>
</a>
</g>
</g>
<!-- Node1&#45;&gt;Node3 -->
<g id="edge2" class="edge"><title>Node1&#45;&gt;Node3</title>
<path fill="none" stroke="#63b8ff" d="M72.2927,-24.5944C80.2994,-23.2547 89.049,-21.7906 97.8485,-20.3182"/>
<polygon fill="#63b8ff" stroke="#63b8ff" points="98.4824,-23.7609 107.768,-18.6584 97.3271,-16.8568 98.4824,-23.7609"/>
</g>
</g>
</svg>
