<?xml version="1.0" encoding="UTF-8" standalone="no"?>
<!DOCTYPE svg PUBLIC "-//W3C//DTD SVG 1.1//EN"
 "http://www.w3.org/Graphics/SVG/1.1/DTD/svg11.dtd">
<!-- Generated by graphviz version 2.38.0 (20140413.2041)
 -->
<!-- Title: filter Pages: 1 -->
<svg width="200pt" height="46pt"
 viewBox="0.00 0.00 200.00 46.00" xmlns="http://www.w3.org/2000/svg" xmlns:xlink="http://www.w3.org/1999/xlink">
<g id="graph0" class="graph" transform="scale(1 1) rotate(0) translate(4 42)">
<title>filter</title>
<!-- Node1 -->
<g id="node1" class="node"><title>Node1</title>
<g id="a_node1"><a xlink:title=" ">
<polygon fill="#999999" stroke="#666666" points="35,-19 0,-19 0,-0 35,-0 35,-19"/>
<text text-anchor="middle" x="17.5" y="-7" font-family="Helvetica,sans-Serif" font-size="10.00">filter</text>
</a>
</g>
</g>
<!-- Node2 -->
<g id="node2" class="node"><title>Node2</title>
<g id="a_node2"><a xlink:href="classore_1_1data_1_1_log.html#a9b3a4c0dcdb635df501bf7690381131f" target="_top" xlink:title=" ">
<polygon fill="white" stroke="#666666" points="112,-38 71,-38 71,-19 112,-19 112,-38"/>
<text text-anchor="middle" x="91.5" y="-26" font-family="Helvetica,sans-Serif" font-size="10.00">mask</text>
</a>
</g>
</g>
<!-- Node1&#45;&gt;Node2 -->
<g id="edge1" class="edge"><title>Node1&#45;&gt;Node2</title>
<path fill="none" stroke="#63b8ff" d="M35.1992,-13.9067C42.843,-15.9238 52.1349,-18.3759 60.9032,-20.6897"/>
<polygon fill="#63b8ff" stroke="#63b8ff" points="60.2636,-24.1407 70.8257,-23.3082 62.0497,-17.3724 60.2636,-24.1407"/>
</g>
<!-- Node3 -->
<g id="node3" class="node"><title>Node3</title>
<g id="a_node3"><a xlink:href="classore_1_1data_1_1_log.html#a34bd0616cd8be189e8a064df92bcdab7" target="_top" xlink:title="mutex to acquire locks">
<polygon fill="white" stroke="#666666" points="192,-19 148,-19 148,-0 192,-0 192,-19"/>
<text text-anchor="middle" x="170" y="-7" font-family="Helvetica,sans-Serif" font-size="10.00">mutex</text>
</a>
</g>
</g>
<!-- Node1&#45;&gt;Node3 -->
<g id="edge3" class="edge"><title>Node1&#45;&gt;Node3</title>
<path fill="none" stroke="#63b8ff" d="M35.1812,-9.5C59.8269,-9.5 106.409,-9.5 137.582,-9.5"/>
<polygon fill="#63b8ff" stroke="#63b8ff" points="137.905,-13.0001 147.905,-9.5 137.905,-6.0001 137.905,-13.0001"/>
</g>
<!-- Node2&#45;&gt;Node3 -->
<g id="edge2" class="edge"><title>Node2&#45;&gt;Node3</title>
<path fill="none" stroke="#63b8ff" d="M112.201,-23.607C120.028,-21.6629 129.223,-19.3792 137.908,-17.2223"/>
<polygon fill="#63b8ff" stroke="#63b8ff" points="138.894,-20.5837 147.756,-14.7764 137.207,-13.7901 138.894,-20.5837"/>
</g>
</g>
</svg>
