<?xml version="1.0" encoding="UTF-8" standalone="no"?>
<!DOCTYPE svg PUBLIC "-//W3C//DTD SVG 1.1//EN"
 "http://www.w3.org/Graphics/SVG/1.1/DTD/svg11.dtd">
<!-- Generated by graphviz version 2.38.0 (20140413.2041)
 -->
<!-- Title: sensitivityTemplate Pages: 1 -->
<svg width="475pt" height="92pt"
 viewBox="0.00 0.00 475.00 91.50" xmlns="http://www.w3.org/2000/svg" xmlns:xlink="http://www.w3.org/1999/xlink">
<g id="graph0" class="graph" transform="scale(1 1) rotate(0) translate(4 87.5)">
<title>sensitivityTemplate</title>
<!-- Node1 -->
<g id="node1" class="node"><title>Node1</title>
<g id="a_node1"><a xlink:title=" ">
<polygon fill="#999999" stroke="#666666" points="99,-37 0,-37 0,-18 99,-18 99,-37"/>
<text text-anchor="middle" x="49.5" y="-25" font-family="Helvetica,sans-Serif" font-size="10.00">sensitivityTemplate</text>
</a>
</g>
</g>
<!-- Node2 -->
<g id="node2" class="node"><title>Node2</title>
<g id="a_node2"><a xlink:href="classore_1_1data_1_1_j_s_o_n_message.html#a5e21eca2668ed948bdc409b19a78e5bb" target="_top" xlink:title="generate Boost log record to pass to corresponding sinks">
<polygon fill="white" stroke="#666666" points="280,-56 135,-56 135,-37 280,-37 280,-56"/>
<text text-anchor="middle" x="207.5" y="-44" font-family="Helvetica,sans-Serif" font-size="10.00">ore::data::JSONMessage::log</text>
</a>
</g>
</g>
<!-- Node1&#45;&gt;Node2 -->
<g id="edge1" class="edge"><title>Node1&#45;&gt;Node2</title>
<path fill="none" stroke="#63b8ff" d="M99.0042,-33.4076C107.257,-34.4128 116.027,-35.4809 124.859,-36.5566"/>
<polygon fill="#63b8ff" stroke="#63b8ff" points="124.483,-40.0366 134.833,-37.7714 125.33,-33.0879 124.483,-40.0366"/>
</g>
<!-- Node5 -->
<g id="node5" class="node"><title>Node5</title>
<g id="a_node5"><a xlink:href="classore_1_1data_1_1_trade.html#aec03b18fc42a659e6dca829a82659809" target="_top" xlink:title=" ">
<polygon fill="white" stroke="#666666" points="237,-19 178,-19 178,-0 237,-0 237,-19"/>
<text text-anchor="middle" x="207.5" y="-7" font-family="Helvetica,sans-Serif" font-size="10.00">tradeType</text>
</a>
</g>
</g>
<!-- Node1&#45;&gt;Node5 -->
<g id="edge4" class="edge"><title>Node1&#45;&gt;Node5</title>
<path fill="none" stroke="#63b8ff" d="M99.0042,-21.9034C121.04,-19.3607 146.76,-16.3931 167.516,-13.9982"/>
<polygon fill="#63b8ff" stroke="#63b8ff" points="168.036,-17.4615 177.569,-12.8382 167.233,-10.5076 168.036,-17.4615"/>
</g>
<!-- Node3 -->
<g id="node3" class="node"><title>Node3</title>
<g id="a_node3"><a xlink:href="classore_1_1data_1_1_j_s_o_n_message.html#a6a9077605df871e6e961dd0099645b35" target="_top" xlink:title="generate Boost log record &#45; this method is called by log()">
<polygon fill="white" stroke="#666666" points="454.5,-83.5 328.5,-83.5 328.5,-53.5 454.5,-53.5 454.5,-83.5"/>
<text text-anchor="start" x="336.5" y="-71.5" font-family="Helvetica,sans-Serif" font-size="10.00">ore::data::JSONMessage</text>
<text text-anchor="middle" x="391.5" y="-60.5" font-family="Helvetica,sans-Serif" font-size="10.00">::emitLog</text>
</a>
</g>
</g>
<!-- Node2&#45;&gt;Node3 -->
<g id="edge2" class="edge"><title>Node2&#45;&gt;Node3</title>
<path fill="none" stroke="#63b8ff" d="M280.17,-55.1634C292.729,-56.6815 305.802,-58.2618 318.373,-59.7813"/>
<polygon fill="#63b8ff" stroke="#63b8ff" points="317.979,-63.2592 328.327,-60.9846 318.82,-56.3098 317.979,-63.2592"/>
</g>
<!-- Node4 -->
<g id="node4" class="node"><title>Node4</title>
<g id="a_node4"><a xlink:href="classore_1_1data_1_1_j_s_o_n_message.html#a39f83a0ab38c425a8844c8892b93d69e" target="_top" xlink:title="return a std::string for the log file">
<polygon fill="white" stroke="#666666" points="467,-35 316,-35 316,-16 467,-16 467,-35"/>
<text text-anchor="middle" x="391.5" y="-23" font-family="Helvetica,sans-Serif" font-size="10.00">ore::data::JSONMessage::msg</text>
</a>
</g>
</g>
<!-- Node2&#45;&gt;Node4 -->
<g id="edge3" class="edge"><title>Node2&#45;&gt;Node4</title>
<path fill="none" stroke="#63b8ff" d="M280.17,-38.2304C288.607,-37.2569 297.276,-36.2567 305.868,-35.2652"/>
<polygon fill="#63b8ff" stroke="#63b8ff" points="306.369,-38.7307 315.902,-34.1074 305.567,-31.7768 306.369,-38.7307"/>
</g>
</g>
</svg>
