<?xml version="1.0" encoding="UTF-8" standalone="no"?>
<!DOCTYPE svg PUBLIC "-//W3C//DTD SVG 1.1//EN"
 "http://www.w3.org/Graphics/SVG/1.1/DTD/svg11.dtd">
<!-- Generated by graphviz version 2.38.0 (20140413.2041)
 -->
<!-- Title: buildVolatilityExplicit Pages: 1 -->
<svg width="408pt" height="337pt"
 viewBox="0.00 0.00 408.00 337.00" xmlns="http://www.w3.org/2000/svg" xmlns:xlink="http://www.w3.org/1999/xlink">
<g id="graph0" class="graph" transform="scale(1 1) rotate(0) translate(4 333)">
<title>buildVolatilityExplicit</title>
<!-- Node1 -->
<g id="node1" class="node"><title>Node1</title>
<g id="a_node1"><a xlink:title=" ">
<polygon fill="#999999" stroke="#666666" points="107,-184.5 0,-184.5 0,-165.5 107,-165.5 107,-184.5"/>
<text text-anchor="middle" x="53.5" y="-172.5" font-family="Helvetica,sans-Serif" font-size="10.00">buildVolatilityExplicit</text>
</a>
</g>
</g>
<!-- Node2 -->
<g id="node2" class="node"><title>Node2</title>
<g id="a_node2"><a xlink:href="classore_1_1data_1_1_loader.html#a19d9f6f808db2631247ec12ffe291225" target="_top" xlink:title="get quote by its unique name, throws if not existent, override in derived classes for performance">
<polygon fill="white" stroke="#666666" points="260.5,-323.5 150.5,-323.5 150.5,-304.5 260.5,-304.5 260.5,-323.5"/>
<text text-anchor="middle" x="205.5" y="-311.5" font-family="Helvetica,sans-Serif" font-size="10.00">ore::data::Loader::get</text>
</a>
</g>
</g>
<!-- Node1&#45;&gt;Node2 -->
<g id="edge1" class="edge"><title>Node1&#45;&gt;Node2</title>
<path fill="none" stroke="#63b8ff" d="M58.7487,-184.508C69.4458,-207.347 99.7565,-265.646 143,-296 145.111,-297.482 147.345,-298.843 149.661,-300.093"/>
<polygon fill="#63b8ff" stroke="#63b8ff" points="148.376,-303.355 158.92,-304.385 151.319,-297.004 148.376,-303.355"/>
</g>
<!-- Node4 -->
<g id="node4" class="node"><title>Node4</title>
<g id="a_node4"><a xlink:href="classore_1_1data_1_1_c_d_s_vol_curve.html#a0aa378cee997b473bcc55b83a9dcdad3" target="_top" xlink:title="Get an explicit expiry date from a CDS option quote&#39;s Expiry.">
<polygon fill="white" stroke="#666666" points="234.5,-286.5 176.5,-286.5 176.5,-267.5 234.5,-267.5 234.5,-286.5"/>
<text text-anchor="middle" x="205.5" y="-274.5" font-family="Helvetica,sans-Serif" font-size="10.00">getExpiry</text>
</a>
</g>
</g>
<!-- Node1&#45;&gt;Node4 -->
<g id="edge3" class="edge"><title>Node1&#45;&gt;Node4</title>
<path fill="none" stroke="#63b8ff" d="M61.936,-184.594C75.9261,-201.996 107.928,-238.825 143,-259 150.267,-263.18 158.585,-266.459 166.705,-269.005"/>
<polygon fill="#63b8ff" stroke="#63b8ff" points="165.853,-272.402 176.429,-271.759 167.761,-265.667 165.853,-272.402"/>
</g>
<!-- Node5 -->
<g id="node5" class="node"><title>Node5</title>
<g id="a_node5"><a xlink:href="group__utilities.html#ga8e0623e2cb01e250e9cfec4619256208" target="_top" xlink:title="Convert text to QuantLib::Period.">
<polygon fill="white" stroke="#666666" points="262,-249.5 149,-249.5 149,-230.5 262,-230.5 262,-249.5"/>
<text text-anchor="middle" x="205.5" y="-237.5" font-family="Helvetica,sans-Serif" font-size="10.00">ore::data::parsePeriod</text>
</a>
</g>
</g>
<!-- Node1&#45;&gt;Node5 -->
<g id="edge4" class="edge"><title>Node1&#45;&gt;Node5</title>
<path fill="none" stroke="#63b8ff" d="M70.7149,-184.558C88.1497,-194.564 116.889,-210.282 143,-221 148.431,-223.229 154.222,-225.343 159.998,-227.296"/>
<polygon fill="#63b8ff" stroke="#63b8ff" points="159.044,-230.666 169.636,-230.422 161.204,-224.008 159.044,-230.666"/>
</g>
<!-- Node6 -->
<g id="node6" class="node"><title>Node6</title>
<g id="a_node6"><a xlink:href="classore_1_1data_1_1_curve_config.html#a69738e85aa491109ae0e57fd5833aebb" target="_top" xlink:title="Return all the market quotes required for this config.">
<polygon fill="white" stroke="#666666" points="261.5,-212 149.5,-212 149.5,-182 261.5,-182 261.5,-212"/>
<text text-anchor="start" x="157.5" y="-200" font-family="Helvetica,sans-Serif" font-size="10.00">ore::data::CurveConfig</text>
<text text-anchor="middle" x="205.5" y="-189" font-family="Helvetica,sans-Serif" font-size="10.00">::quotes</text>
</a>
</g>
</g>
<!-- Node1&#45;&gt;Node6 -->
<g id="edge5" class="edge"><title>Node1&#45;&gt;Node6</title>
<path fill="none" stroke="#63b8ff" d="M107.384,-182.756C117.675,-184.266 128.577,-185.865 139.213,-187.425"/>
<polygon fill="#63b8ff" stroke="#63b8ff" points="138.898,-190.916 149.3,-188.904 139.914,-183.99 138.898,-190.916"/>
</g>
<!-- Node7 -->
<g id="node7" class="node"><title>Node7</title>
<g id="a_node7"><a xlink:href="namespaceore_1_1data.html#a777e216dee6069b548bb87da7152699e" target="_top" xlink:title=" ">
<polygon fill="white" stroke="#666666" points="245,-163.5 166,-163.5 166,-144.5 245,-144.5 245,-163.5"/>
<text text-anchor="middle" x="205.5" y="-151.5" font-family="Helvetica,sans-Serif" font-size="10.00">ore::data::size</text>
</a>
</g>
</g>
<!-- Node1&#45;&gt;Node7 -->
<g id="edge6" class="edge"><title>Node1&#45;&gt;Node7</title>
<path fill="none" stroke="#63b8ff" d="M107.384,-167.596C123.01,-165.409 140.042,-163.024 155.417,-160.872"/>
<polygon fill="#63b8ff" stroke="#63b8ff" points="156.34,-164.277 165.759,-159.424 155.37,-157.344 156.34,-164.277"/>
</g>
<!-- Node8 -->
<g id="node8" class="node"><title>Node8</title>
<g id="a_node8"><a xlink:href="classore_1_1data_1_1_c_d_s_volatility_curve_config.html#a1e79f7fe8e33c7f7609d08916c197cb1" target="_top" xlink:title=" ">
<polygon fill="white" stroke="#666666" points="268,-126 143,-126 143,-96 268,-96 268,-126"/>
<text text-anchor="start" x="151" y="-114" font-family="Helvetica,sans-Serif" font-size="10.00">ore::data::CDSVolatility</text>
<text text-anchor="middle" x="205.5" y="-103" font-family="Helvetica,sans-Serif" font-size="10.00">CurveConfig::strikeFactor</text>
</a>
</g>
</g>
<!-- Node1&#45;&gt;Node8 -->
<g id="edge7" class="edge"><title>Node1&#45;&gt;Node8</title>
<path fill="none" stroke="#63b8ff" d="M75.8845,-165.369C93.7622,-157.367 119.963,-145.756 143,-136 147.721,-134.001 152.659,-131.941 157.594,-129.903"/>
<polygon fill="#63b8ff" stroke="#63b8ff" points="159.106,-133.066 167.027,-126.031 156.447,-126.591 159.106,-133.066"/>
</g>
<!-- Node9 -->
<g id="node9" class="node"><title>Node9</title>
<g id="a_node9"><a xlink:href="classore_1_1data_1_1_c_d_s_volatility_curve_config.html#a6df329e2ca7dcb6a1318e25ce2754614" target="_top" xlink:title=" ">
<polygon fill="white" stroke="#666666" points="266.5,-78 144.5,-78 144.5,-48 266.5,-48 266.5,-78"/>
<text text-anchor="start" x="152.5" y="-66" font-family="Helvetica,sans-Serif" font-size="10.00">ore::data::CDSVolatility</text>
<text text-anchor="middle" x="205.5" y="-55" font-family="Helvetica,sans-Serif" font-size="10.00">CurveConfig::termCurves</text>
</a>
</g>
</g>
<!-- Node1&#45;&gt;Node9 -->
<g id="edge8" class="edge"><title>Node1&#45;&gt;Node9</title>
<path fill="none" stroke="#63b8ff" d="M62.0122,-165.23C76.1262,-147.456 108.322,-109.587 143,-87 145.386,-85.4459 147.888,-83.9675 150.461,-82.5646"/>
<polygon fill="#63b8ff" stroke="#63b8ff" points="152.039,-85.6887 159.418,-78.0859 148.909,-79.4277 152.039,-85.6887"/>
</g>
<!-- Node10 -->
<g id="node10" class="node"><title>Node10</title>
<g id="a_node10"><a xlink:href="classore_1_1data_1_1_c_d_s_volatility_curve_config.html#a0eaaa05c716936d3fffd39da0cc67f11" target="_top" xlink:title=" ">
<polygon fill="white" stroke="#666666" points="265,-30 146,-30 146,-0 265,-0 265,-30"/>
<text text-anchor="start" x="154" y="-18" font-family="Helvetica,sans-Serif" font-size="10.00">ore::data::CDSVolatility</text>
<text text-anchor="middle" x="205.5" y="-7" font-family="Helvetica,sans-Serif" font-size="10.00">CurveConfig::terms</text>
</a>
</g>
</g>
<!-- Node1&#45;&gt;Node10 -->
<g id="edge9" class="edge"><title>Node1&#45;&gt;Node10</title>
<path fill="none" stroke="#63b8ff" d="M58.3042,-165.297C68.4012,-140.732 98.2048,-75.4459 143,-39 144.567,-37.7251 146.21,-36.512 147.91,-35.3583"/>
<polygon fill="#63b8ff" stroke="#63b8ff" points="150.001,-38.1872 156.813,-30.0723 146.427,-32.1682 150.001,-38.1872"/>
</g>
<!-- Node3 -->
<g id="node3" class="node"><title>Node3</title>
<g id="a_node3"><a xlink:href="classore_1_1data_1_1_loader.html#a0086c4f946085ef0b9d5c56bd1539f91" target="_top" xlink:title="get all quotes, TODO change the return value to std::set">
<polygon fill="white" stroke="#666666" points="400,-329 304,-329 304,-299 400,-299 400,-329"/>
<text text-anchor="start" x="312" y="-317" font-family="Helvetica,sans-Serif" font-size="10.00">ore::data::Loader::</text>
<text text-anchor="middle" x="352" y="-306" font-family="Helvetica,sans-Serif" font-size="10.00">loadQuotes</text>
</a>
</g>
</g>
<!-- Node2&#45;&gt;Node3 -->
<g id="edge2" class="edge"><title>Node2&#45;&gt;Node3</title>
<path fill="none" stroke="#63b8ff" d="M260.718,-314C271.399,-314 282.641,-314 293.428,-314"/>
<polygon fill="#63b8ff" stroke="#63b8ff" points="293.598,-317.5 303.598,-314 293.598,-310.5 293.598,-317.5"/>
</g>
</g>
</svg>
