<?xml version="1.0" encoding="UTF-8" standalone="no"?>
<!DOCTYPE svg PUBLIC "-//W3C//DTD SVG 1.1//EN"
 "http://www.w3.org/Graphics/SVG/1.1/DTD/svg11.dtd">
<!-- Generated by graphviz version 2.38.0 (20140413.2041)
 -->
<!-- Title: bondNotional Pages: 1 -->
<!--zoomable 268 -->
<svg id="main" version="1.1" xmlns="http://www.w3.org/2000/svg" xmlns:xlink="http://www.w3.org/1999/xlink" xml:space="preserve" onload="init(evt)">
<style type="text/css"><![CDATA[
.edge:hover path { stroke: red; }
.edge:hover polygon { stroke: red; fill: red; }
]]></style>
<script type="text/javascript"><![CDATA[
var edges = document.getElementsByTagName('g');
if (edges && edges.length) {
  for (var i=0;i<edges.length;i++) {
    if (edges[i].id.substr(0,4)=='edge') {
      edges[i].setAttribute('class','edge');
    }
  }
}
]]></script>
        <defs>
                <circle id="rim" cx="0" cy="0" r="7"/>
                <circle id="rim2" cx="0" cy="0" r="3.5"/>
                <g id="zoomPlus">
                        <use xlink:href="#rim" fill="#404040">
                                <set attributeName="fill" to="#808080" begin="zoomplus.mouseover" end="zoomplus.mouseout"/>
                        </use>
                        <path d="M-4,0h8M0,-4v8" fill="none" stroke="white" stroke-width="1.5" pointer-events="none"/>
                </g>
                <g id="zoomMin">
                        <use xlink:href="#rim" fill="#404040">
                                <set attributeName="fill" to="#808080" begin="zoomminus.mouseover" end="zoomminus.mouseout"/>
                        </use>
                        <path d="M-4,0h8" fill="none" stroke="white" stroke-width="1.5" pointer-events="none"/>
                </g>
                <g id="dirArrow">
                        <path fill="none" stroke="white" stroke-width="1.5" d="M0,-3.0v7 M-2.5,-0.5L0,-3.0L2.5,-0.5"/>
                </g>
               <g id="resetDef">
                       <use xlink:href="#rim2" fill="#404040">
                               <set attributeName="fill" to="#808080" begin="reset.mouseover" end="reset.mouseout"/>
                       </use>
               </g>
        </defs>

<script type="text/javascript">
var viewWidth = 639;
var viewHeight = 268;
var sectionId = 'dynsection-16';
</script>
<script xlink:href="svgpan.js"/>
<svg id="graph" class="graph">
<g id="viewport">
<title>bondNotional</title>
<!-- Node1 -->
<g id="node1" class="node"><title>Node1</title>
<g id="a_node1"><a xlink:title=" ">
<polygon fill="#999999" stroke="#666666" points="631,-115.5 558,-115.5 558,-96.5 631,-96.5 631,-115.5"/>
<text text-anchor="middle" x="594.5" y="-103.5" font-family="Helvetica,sans-Serif" font-size="10.00">bondNotional</text>
</a>
</g>
</g>
<!-- Node2 -->
<g id="node2" class="node"><title>Node2</title>
<g id="a_node2"><a xlink:href="classore_1_1data_1_1_bond.html#af7b69d5b18d278257927e32b10a23ee6" target="_top" xlink:title="Trade interface.">
<polygon fill="white" stroke="#666666" points="505.5,-158.5 395.5,-158.5 395.5,-139.5 505.5,-139.5 505.5,-158.5"/>
<text text-anchor="middle" x="450.5" y="-146.5" font-family="Helvetica,sans-Serif" font-size="10.00">ore::data::Bond::build</text>
</a>
</g>
</g>
<!-- Node1&#45;&gt;Node2 -->
<g id="edge1" class="edge"><title>Node1&#45;&gt;Node2</title>
<path fill="none" stroke="#63b8ff" d="M556.993,-118.729C545.809,-122.5 533.439,-126.542 522,-130 511.201,-133.264 499.389,-136.555 488.575,-139.46"/>
<polygon fill="#63b8ff" stroke="#63b8ff" points="558.123,-122.041 566.462,-115.506 555.868,-115.414 558.123,-122.041"/>
</g>
<!-- Node8 -->
<g id="node8" class="node"><title>Node8</title>
<g id="a_node8"><a xlink:href="structore_1_1data_1_1_bond_trs_underlying_builder.html#ae7c6300ad19fb2871bbe4bf757902d99" target="_top" xlink:title=" ">
<polygon fill="white" stroke="#666666" points="522,-121 379,-121 379,-91 522,-91 522,-121"/>
<text text-anchor="start" x="387" y="-109" font-family="Helvetica,sans-Serif" font-size="10.00">ore::data::BondTrsUnderlying</text>
<text text-anchor="middle" x="450.5" y="-98" font-family="Helvetica,sans-Serif" font-size="10.00">Builder::build</text>
</a>
</g>
</g>
<!-- Node1&#45;&gt;Node8 -->
<g id="edge7" class="edge"><title>Node1&#45;&gt;Node8</title>
<path fill="none" stroke="#63b8ff" d="M547.66,-106C539.514,-106 530.861,-106 522.214,-106"/>
<polygon fill="#63b8ff" stroke="#63b8ff" points="547.667,-109.5 557.667,-106 547.667,-102.5 547.667,-109.5"/>
</g>
<!-- Node9 -->
<g id="node9" class="node"><title>Node9</title>
<g id="a_node9"><a xlink:href="namespaceore_1_1data.html#af4767922f7ade7cf09a2c3f6691b2c27" target="_top" xlink:title=" ">
<polygon fill="white" stroke="#666666" points="521.5,-72.5 379.5,-72.5 379.5,-53.5 521.5,-53.5 521.5,-72.5"/>
<text text-anchor="middle" x="450.5" y="-60.5" font-family="Helvetica,sans-Serif" font-size="10.00">ore::data::makeBondTRSLeg</text>
</a>
</g>
</g>
<!-- Node1&#45;&gt;Node9 -->
<g id="edge8" class="edge"><title>Node1&#45;&gt;Node9</title>
<path fill="none" stroke="#63b8ff" d="M556.993,-93.2715C545.809,-89.5004 533.439,-85.4578 522,-82 511.201,-78.7356 499.389,-75.4445 488.575,-72.5399"/>
<polygon fill="#63b8ff" stroke="#63b8ff" points="555.868,-96.5857 566.462,-96.494 558.123,-89.9589 555.868,-96.5857"/>
</g>
<!-- Node3 -->
<g id="node3" class="node"><title>Node3</title>
<g id="a_node3"><a xlink:href="structore_1_1data_1_1_vanilla_bond_builder.html#ae1e21501ab505df04314d15d13f876e1" target="_top" xlink:title=" ">
<polygon fill="white" stroke="#666666" points="325,-260 182,-260 182,-230 325,-230 325,-260"/>
<text text-anchor="start" x="190" y="-248" font-family="Helvetica,sans-Serif" font-size="10.00">ore::data::VanillaBondBuilder</text>
<text text-anchor="middle" x="253.5" y="-237" font-family="Helvetica,sans-Serif" font-size="10.00">::build</text>
</a>
</g>
</g>
<!-- Node2&#45;&gt;Node3 -->
<g id="edge2" class="edge"><title>Node2&#45;&gt;Node3</title>
<path fill="none" stroke="#63b8ff" d="M430.216,-164.939C409.735,-181.146 375.844,-205.951 343,-221 335.619,-224.382 327.666,-227.369 319.663,-229.984"/>
<polygon fill="#63b8ff" stroke="#63b8ff" points="432.531,-167.569 438.13,-158.574 428.144,-162.114 432.531,-167.569"/>
</g>
<!-- Node4 -->
<g id="node4" class="node"><title>Node4</title>
<g id="a_node4"><a xlink:href="classore_1_1data_1_1_convertible_bond.html#ab1db499ff5e65c59fd2009d62276fdaf" target="_top" xlink:title=" ">
<polygon fill="white" stroke="#666666" points="319,-212 188,-212 188,-182 319,-182 319,-212"/>
<text text-anchor="start" x="196" y="-200" font-family="Helvetica,sans-Serif" font-size="10.00">ore::data::ConvertibleBond</text>
<text text-anchor="middle" x="253.5" y="-189" font-family="Helvetica,sans-Serif" font-size="10.00">::build</text>
</a>
</g>
</g>
<!-- Node2&#45;&gt;Node4 -->
<g id="edge3" class="edge"><title>Node2&#45;&gt;Node4</title>
<path fill="none" stroke="#63b8ff" d="M400.603,-161.036C374.865,-167.372 343.054,-175.202 315.693,-181.937"/>
<polygon fill="#63b8ff" stroke="#63b8ff" points="401.634,-164.387 410.508,-158.598 399.961,-157.59 401.634,-164.387"/>
</g>
<!-- Node5 -->
<g id="node5" class="node"><title>Node5</title>
<g id="a_node5"><a xlink:href="classore_1_1data_1_1_risk_participation_agreement.html#a225490c21ddfa2450a67f04007c16f4c" target="_top" xlink:title=" ">
<polygon fill="white" stroke="#666666" points="343,-164 164,-164 164,-134 343,-134 343,-164"/>
<text text-anchor="start" x="172" y="-152" font-family="Helvetica,sans-Serif" font-size="10.00">ore::data::RiskParticipation</text>
<text text-anchor="middle" x="253.5" y="-141" font-family="Helvetica,sans-Serif" font-size="10.00">Agreement::buildWithTlockUnderlying</text>
</a>
</g>
</g>
<!-- Node2&#45;&gt;Node5 -->
<g id="edge4" class="edge"><title>Node2&#45;&gt;Node5</title>
<path fill="none" stroke="#63b8ff" d="M385.32,-149C371.813,-149 357.335,-149 343.111,-149"/>
<polygon fill="#63b8ff" stroke="#63b8ff" points="385.441,-152.5 395.441,-149 385.441,-145.5 385.441,-152.5"/>
</g>
<!-- Node6 -->
<g id="node6" class="node"><title>Node6</title>
<g id="a_node6"><a xlink:href="namespaceore_1_1data.html#a7e30fb6a46cf70b26b33a0528e47cd6c" target="_top" xlink:title=" ">
<polygon fill="white" stroke="#666666" points="314.5,-115.5 192.5,-115.5 192.5,-96.5 314.5,-96.5 314.5,-115.5"/>
<text text-anchor="middle" x="253.5" y="-103.5" font-family="Helvetica,sans-Serif" font-size="10.00">ore::data::makeCMBLeg</text>
</a>
</g>
</g>
<!-- Node2&#45;&gt;Node6 -->
<g id="edge5" class="edge"><title>Node2&#45;&gt;Node6</title>
<path fill="none" stroke="#63b8ff" d="M397.82,-137.243C380.412,-133.312 360.872,-128.932 343,-125 328.88,-121.893 313.479,-118.566 299.541,-115.577"/>
<polygon fill="#63b8ff" stroke="#63b8ff" points="397.268,-140.706 407.794,-139.498 398.812,-133.879 397.268,-140.706"/>
</g>
<!-- Node7 -->
<g id="node7" class="node"><title>Node7</title>
<g id="a_node7"><a xlink:href="classore_1_1data_1_1_c_m_b_leg_builder.html#aea285351d9f3458189a9e2d965349d23" target="_top" xlink:title=" ">
<polygon fill="white" stroke="#666666" points="128,-121 0,-121 0,-91 128,-91 128,-121"/>
<text text-anchor="start" x="8" y="-109" font-family="Helvetica,sans-Serif" font-size="10.00">ore::data::CMBLegBuilder</text>
<text text-anchor="middle" x="64" y="-98" font-family="Helvetica,sans-Serif" font-size="10.00">::buildLeg</text>
</a>
</g>
</g>
<!-- Node6&#45;&gt;Node7 -->
<g id="edge6" class="edge"><title>Node6&#45;&gt;Node7</title>
<path fill="none" stroke="#63b8ff" d="M182.152,-106C164.479,-106 145.62,-106 128.314,-106"/>
<polygon fill="#63b8ff" stroke="#63b8ff" points="182.4,-109.5 192.4,-106 182.4,-102.5 182.4,-109.5"/>
</g>
<!-- Node10 -->
<g id="node10" class="node"><title>Node10</title>
<g id="a_node10"><a xlink:href="structore_1_1data_1_1_convertible_bond_trs_underlying_builder.html#ae7c6300ad19fb2871bbe4bf757902d99" target="_top" xlink:title=" ">
<polygon fill="white" stroke="#666666" points="319.5,-78 187.5,-78 187.5,-48 319.5,-48 319.5,-78"/>
<text text-anchor="start" x="195.5" y="-66" font-family="Helvetica,sans-Serif" font-size="10.00">ore::data::ConvertibleBond</text>
<text text-anchor="middle" x="253.5" y="-55" font-family="Helvetica,sans-Serif" font-size="10.00">TrsUnderlyingBuilder::build</text>
</a>
</g>
</g>
<!-- Node9&#45;&gt;Node10 -->
<g id="edge9" class="edge"><title>Node9&#45;&gt;Node10</title>
<path fill="none" stroke="#63b8ff" d="M369.232,-63C352.772,-63 335.635,-63 319.779,-63"/>
<polygon fill="#63b8ff" stroke="#63b8ff" points="369.376,-66.5001 379.376,-63 369.376,-59.5001 369.376,-66.5001"/>
</g>
<!-- Node11 -->
<g id="node11" class="node"><title>Node11</title>
<g id="a_node11"><a xlink:href="structore_1_1data_1_1_bond_position_trs_underlying_builder.html#ae7c6300ad19fb2871bbe4bf757902d99" target="_top" xlink:title=" ">
<polygon fill="white" stroke="#666666" points="319.5,-30 187.5,-30 187.5,-0 319.5,-0 319.5,-30"/>
<text text-anchor="start" x="195.5" y="-18" font-family="Helvetica,sans-Serif" font-size="10.00">ore::data::BondPositionTrs</text>
<text text-anchor="middle" x="253.5" y="-7" font-family="Helvetica,sans-Serif" font-size="10.00">UnderlyingBuilder::build</text>
</a>
</g>
</g>
<!-- Node9&#45;&gt;Node11 -->
<g id="edge10" class="edge"><title>Node9&#45;&gt;Node11</title>
<path fill="none" stroke="#63b8ff" d="M400.603,-50.9639C374.865,-44.6282 343.054,-36.7979 315.693,-30.063"/>
<polygon fill="#63b8ff" stroke="#63b8ff" points="399.961,-54.4101 410.508,-53.4018 401.634,-47.613 399.961,-54.4101"/>
</g>
</g>
</svg>
        <g id="navigator" transform="translate(0 0)" fill="#404254">
                <rect fill="#f2f5e9" fill-opacity="0.5" stroke="#606060" stroke-width=".5" x="0" y="0" width="60" height="60"/>
                <use id="zoomplus" xlink:href="#zoomPlus" x="17" y="9" onmousedown="handleZoom(evt,'in')"/>
                <use id="zoomminus" xlink:href="#zoomMin" x="42" y="9" onmousedown="handleZoom(evt,'out')"/>
                <use id="reset" xlink:href="#resetDef" x="30" y="36" onmousedown="handleReset()"/>
                <g id="arrowUp" xlink:href="#dirArrow" transform="translate(30 24)" onmousedown="handlePan(0,-1)">
                  <use xlink:href="#rim" fill="#404040">
                        <set attributeName="fill" to="#808080" begin="arrowUp.mouseover" end="arrowUp.mouseout"/>
                  </use>
                  <path fill="none" stroke="white" stroke-width="1.5" d="M0,-3.0v7 M-2.5,-0.5L0,-3.0L2.5,-0.5"/>
                </g>
                <g id="arrowRight" xlink:href="#dirArrow" transform="rotate(90) translate(36 -43)" onmousedown="handlePan(1,0)">
                  <use xlink:href="#rim" fill="#404040">
                        <set attributeName="fill" to="#808080" begin="arrowRight.mouseover" end="arrowRight.mouseout"/>
                  </use>
                  <path fill="none" stroke="white" stroke-width="1.5" d="M0,-3.0v7 M-2.5,-0.5L0,-3.0L2.5,-0.5"/>
                </g>
                <g id="arrowDown" xlink:href="#dirArrow" transform="rotate(180) translate(-30 -48)" onmousedown="handlePan(0,1)">
                  <use xlink:href="#rim" fill="#404040">
                        <set attributeName="fill" to="#808080" begin="arrowDown.mouseover" end="arrowDown.mouseout"/>
                  </use>
                  <path fill="none" stroke="white" stroke-width="1.5" d="M0,-3.0v7 M-2.5,-0.5L0,-3.0L2.5,-0.5"/>
                </g>
                <g id="arrowLeft" xlink:href="#dirArrow" transform="rotate(270) translate(-36 17)" onmousedown="handlePan(-1,0)">
                  <use xlink:href="#rim" fill="#404040">
                        <set attributeName="fill" to="#808080" begin="arrowLeft.mouseover" end="arrowLeft.mouseout"/>
                  </use>
                  <path fill="none" stroke="white" stroke-width="1.5" d="M0,-3.0v7 M-2.5,-0.5L0,-3.0L2.5,-0.5"/>
                </g>
        </g>
        <svg viewBox="0 0 15 15" width="100%" height="30px" preserveAspectRatio="xMaxYMin meet">
         <g id="arrow_out" transform="scale(0.3 0.3)">
          <a xlink:href="classore_1_1data_1_1_bond_data_aff5578e4cb6bb52d2c44b97e57050194_icgraph_org.svg" target="_base">
           <rect id="button" ry="5" rx="5" y="6" x="6" height="38" width="38"
                fill="#f2f5e9" fill-opacity="0.5" stroke="#606060" stroke-width="1.0"/>
           <path id="arrow"
             d="M 11.500037,31.436501 C 11.940474,20.09759 22.043105,11.32322 32.158766,21.979434 L 37.068811,17.246167 C 37.068811,17.246167 37.088388,32 37.088388,32 L 22.160133,31.978069 C 22.160133,31.978069 26.997745,27.140456 26.997745,27.140456 C 18.528582,18.264221 13.291696,25.230495 11.500037,31.436501 z"
             style="fill:#404040;"/>
          </a>
         </g>
        </svg>
</svg>
