<?xml version="1.0" encoding="UTF-8" standalone="no"?>
<!DOCTYPE svg PUBLIC "-//W3C//DTD SVG 1.1//EN"
 "http://www.w3.org/Graphics/SVG/1.1/DTD/svg11.dtd">
<!-- Generated by graphviz version 2.38.0 (20140413.2041)
 -->
<!-- Title: PriceSegment Pages: 1 -->
<svg width="776pt" height="599pt"
 viewBox="0.00 0.00 776.00 599.00" xmlns="http://www.w3.org/2000/svg" xmlns:xlink="http://www.w3.org/1999/xlink">
<g id="graph0" class="graph" transform="scale(1 1) rotate(0) translate(4 595)">
<title>PriceSegment</title>
<!-- Node1 -->
<g id="node1" class="node"><title>Node1</title>
<g id="a_node1"><a xlink:title=" ">
<polygon fill="#999999" stroke="#666666" points="483,-283 370,-283 370,-0 483,-0 483,-283"/>
<text text-anchor="middle" x="426.5" y="-271" font-family="Helvetica,sans-Serif" font-size="10.00">{PriceSegment</text>
<text text-anchor="start" x="378" y="-260" font-family="Helvetica,sans-Serif" font-size="10.00">||+ PriceSegment()</text>
<text text-anchor="start" x="378" y="-249" font-family="Helvetica,sans-Serif" font-size="10.00">+ PriceSegment()</text>
<text text-anchor="start" x="378" y="-238" font-family="Helvetica,sans-Serif" font-size="10.00">+ type()</text>
<text text-anchor="start" x="378" y="-227" font-family="Helvetica,sans-Serif" font-size="10.00">+ conventionsId()</text>
<text text-anchor="start" x="378" y="-216" font-family="Helvetica,sans-Serif" font-size="10.00">+ quotes()</text>
<text text-anchor="start" x="378" y="-205" font-family="Helvetica,sans-Serif" font-size="10.00">+ priority()</text>
<text text-anchor="start" x="378" y="-194" font-family="Helvetica,sans-Serif" font-size="10.00">+ offPeakDaily()</text>
<text text-anchor="start" x="378" y="-183" font-family="Helvetica,sans-Serif" font-size="10.00">+ peakPriceCurveId()</text>
<text text-anchor="start" x="378" y="-172" font-family="Helvetica,sans-Serif" font-size="10.00">+ peakPriceCalendar()</text>
<text text-anchor="start" x="378" y="-161" font-family="Helvetica,sans-Serif" font-size="10.00">+ empty()</text>
<text text-anchor="start" x="378" y="-150" font-family="Helvetica,sans-Serif" font-size="10.00">* fromXML()</text>
<text text-anchor="start" x="378" y="-139" font-family="Helvetica,sans-Serif" font-size="10.00">* toXML()</text>
<text text-anchor="start" x="378" y="-128" font-family="Helvetica,sans-Serif" font-size="10.00">* populateQuotes()</text>
<text text-anchor="start" x="378" y="-117" font-family="Helvetica,sans-Serif" font-size="10.00">* PriceSegment()</text>
<text text-anchor="start" x="378" y="-106" font-family="Helvetica,sans-Serif" font-size="10.00">* PriceSegment()</text>
<text text-anchor="start" x="378" y="-95" font-family="Helvetica,sans-Serif" font-size="10.00">* type()</text>
<text text-anchor="start" x="378" y="-84" font-family="Helvetica,sans-Serif" font-size="10.00">* conventionsId()</text>
<text text-anchor="start" x="378" y="-73" font-family="Helvetica,sans-Serif" font-size="10.00">* quotes()</text>
<text text-anchor="start" x="378" y="-62" font-family="Helvetica,sans-Serif" font-size="10.00">* priority()</text>
<text text-anchor="start" x="378" y="-51" font-family="Helvetica,sans-Serif" font-size="10.00">* offPeakDaily()</text>
<text text-anchor="start" x="378" y="-40" font-family="Helvetica,sans-Serif" font-size="10.00">* peakPriceCurveId()</text>
<text text-anchor="start" x="378" y="-29" font-family="Helvetica,sans-Serif" font-size="10.00">* peakPriceCalendar()</text>
<text text-anchor="start" x="378" y="-18" font-family="Helvetica,sans-Serif" font-size="10.00">* empty()</text>
<text text-anchor="middle" x="426.5" y="-7" font-family="Helvetica,sans-Serif" font-size="10.00">}</text>
</a>
</g>
</g>
<!-- Node2 -->
<g id="node2" class="node"><title>Node2</title>
<g id="a_node2"><a xlink:href="classore_1_1data_1_1_x_m_l_serializable.html" target="_top" xlink:title="Base class for all serializable classes.">
<polygon fill="white" stroke="#666666" points="111,-437 0,-437 0,-330 111,-330 111,-437"/>
<text text-anchor="middle" x="55.5" y="-425" font-family="Helvetica,sans-Serif" font-size="10.00">{XMLSerializable</text>
<text text-anchor="start" x="8" y="-414" font-family="Helvetica,sans-Serif" font-size="10.00">||+ ~XMLSerializable()</text>
<text text-anchor="start" x="8" y="-403" font-family="Helvetica,sans-Serif" font-size="10.00">+ fromXML()</text>
<text text-anchor="start" x="8" y="-392" font-family="Helvetica,sans-Serif" font-size="10.00">+ toXML()</text>
<text text-anchor="start" x="8" y="-381" font-family="Helvetica,sans-Serif" font-size="10.00">+ fromFile()</text>
<text text-anchor="start" x="8" y="-370" font-family="Helvetica,sans-Serif" font-size="10.00">+ toFile()</text>
<text text-anchor="start" x="8" y="-359" font-family="Helvetica,sans-Serif" font-size="10.00">+ fromXMLString()</text>
<text text-anchor="start" x="8" y="-348" font-family="Helvetica,sans-Serif" font-size="10.00">+ toXMLString()</text>
<text text-anchor="middle" x="55.5" y="-337" font-family="Helvetica,sans-Serif" font-size="10.00">}</text>
</a>
</g>
</g>
<!-- Node2&#45;&gt;Node1 -->
<g id="edge1" class="edge"><title>Node2&#45;&gt;Node1</title>
<path fill="none" stroke="#63b8ff" d="M119.247,-330.18C119.332,-330.12 119.416,-330.06 119.5,-330 203.636,-270.233 307.072,-209.499 369.834,-173.949"/>
<polygon fill="none" stroke="#63b8ff" points="117.356,-327.227 111.346,-335.952 121.486,-332.879 117.356,-327.227"/>
</g>
<!-- Node3 -->
<g id="node3" class="node"><title>Node3</title>
<g id="a_node3"><a xlink:title=" ">
<polygon fill="white" stroke="#666666" points="262.5,-514 218.5,-514 218.5,-484 262.5,-484 262.5,-514"/>
<text text-anchor="middle" x="240.5" y="-502" font-family="Helvetica,sans-Serif" font-size="10.00">{string</text>
<text text-anchor="middle" x="240.5" y="-491" font-family="Helvetica,sans-Serif" font-size="10.00">||}</text>
</a>
</g>
</g>
<!-- Node3&#45;&gt;Node1 -->
<g id="edge2" class="edge"><title>Node3&#45;&gt;Node1</title>
<path fill="none" stroke="#404040" d="M249.851,-483.846C253.034,-478.455 256.332,-472.13 258.5,-466 278.941,-408.206 256.901,-386.151 281.5,-330 300.819,-285.9 332.767,-242.946 361.764,-209.301"/>
<polygon fill="none" stroke="#404040" points="361.946,-209.094 362.89,-201.944 369.852,-200.066 368.908,-207.215 361.946,-209.094"/>
<text text-anchor="middle" x="324" y="-408.5" font-family="Helvetica,sans-Serif" font-size="10.00"> &#45;conventionsId_</text>
<text text-anchor="start" x="281.5" y="-397.5" font-family="Helvetica,sans-Serif" font-size="10.00">&#45;peakPriceCalendar</text>
<text text-anchor="middle" x="324" y="-386.5" font-family="Helvetica,sans-Serif" font-size="10.00">_</text>
<text text-anchor="start" x="281.5" y="-375.5" font-family="Helvetica,sans-Serif" font-size="10.00">&#45;peakPriceCurveId</text>
<text text-anchor="middle" x="324" y="-364.5" font-family="Helvetica,sans-Serif" font-size="10.00">_</text>
<text text-anchor="middle" x="324" y="-353.5" font-family="Helvetica,sans-Serif" font-size="10.00">&#45;strType_</text>
</g>
<!-- Node5 -->
<g id="node5" class="node"><title>Node5</title>
<g id="a_node5"><a xlink:title=" ">
<polygon fill="white" stroke="#666666" points="236,-398.5 129,-398.5 129,-368.5 236,-368.5 236,-398.5"/>
<text text-anchor="middle" x="182.5" y="-386.5" font-family="Helvetica,sans-Serif" font-size="10.00">{vector&lt; std::string &gt;</text>
<text text-anchor="middle" x="182.5" y="-375.5" font-family="Helvetica,sans-Serif" font-size="10.00">||}</text>
</a>
</g>
</g>
<!-- Node3&#45;&gt;Node5 -->
<g id="edge5" class="edge"><title>Node3&#45;&gt;Node5</title>
<path fill="none" stroke="#404040" d="M224.139,-483.887C218.891,-478.692 213.428,-472.483 209.5,-466 199.139,-448.899 192.223,-427.343 187.986,-410.695"/>
<polygon fill="none" stroke="#404040" points="187.885,-410.26 182.622,-405.33 185.149,-398.576 190.411,-403.506 187.885,-410.26"/>
<text text-anchor="middle" x="234" y="-458" font-family="Helvetica,sans-Serif" font-size="10.00"> +elements</text>
</g>
<!-- Node4 -->
<g id="node4" class="node"><title>Node4</title>
<g id="a_node4"><a xlink:title=" ">
<polygon fill="white" stroke="#666666" points="295.5,-591 185.5,-591 185.5,-561 295.5,-561 295.5,-591"/>
<text text-anchor="middle" x="240.5" y="-579" font-family="Helvetica,sans-Serif" font-size="10.00">{basic_string&lt; Char &gt;</text>
<text text-anchor="middle" x="240.5" y="-568" font-family="Helvetica,sans-Serif" font-size="10.00">||}</text>
</a>
</g>
</g>
<!-- Node4&#45;&gt;Node3 -->
<g id="edge3" class="edge"><title>Node4&#45;&gt;Node3</title>
<path fill="none" stroke="#63b8ff" d="M240.5,-550.541C240.5,-538.451 240.5,-524.294 240.5,-514.044"/>
<polygon fill="none" stroke="#63b8ff" points="237,-550.893 240.5,-560.893 244,-550.893 237,-550.893"/>
</g>
<!-- Node5&#45;&gt;Node1 -->
<g id="edge4" class="edge"><title>Node5&#45;&gt;Node1</title>
<path fill="none" stroke="#404040" d="M186.148,-368.371C191.11,-351.137 201.277,-321.741 217.5,-301 256.414,-251.251 314.51,-208.884 359.58,-180.503"/>
<polygon fill="none" stroke="#404040" points="359.661,-180.452 362.652,-173.891 369.86,-174.128 366.868,-180.69 359.661,-180.452"/>
<text text-anchor="middle" x="238" y="-304" font-family="Helvetica,sans-Serif" font-size="10.00"> &#45;quotes_</text>
</g>
<!-- Node6 -->
<g id="node6" class="node"><title>Node6</title>
<g id="a_node6"><a xlink:title=" ">
<polygon fill="white" stroke="#666666" points="154.5,-514 86.5,-514 86.5,-484 154.5,-484 154.5,-514"/>
<text text-anchor="middle" x="120.5" y="-502" font-family="Helvetica,sans-Serif" font-size="10.00">{vector&lt; T &gt;</text>
<text text-anchor="middle" x="120.5" y="-491" font-family="Helvetica,sans-Serif" font-size="10.00">||}</text>
</a>
</g>
</g>
<!-- Node6&#45;&gt;Node5 -->
<g id="edge6" class="edge"><title>Node6&#45;&gt;Node5</title>
<path fill="none" stroke="orange" d="M127.764,-473.741C129.954,-467.505 132.566,-460.895 135.5,-455 145.791,-434.324 161.136,-412.493 171.467,-398.699"/>
<polygon fill="orange" stroke="orange" points="124.291,-473.098 124.496,-483.691 130.942,-475.283 124.291,-473.098"/>
<text text-anchor="middle" x="168" y="-458" font-family="Helvetica,sans-Serif" font-size="10.00"> &lt; std::string &gt;</text>
</g>
<!-- Node7 -->
<g id="node7" class="node"><title>Node7</title>
<g id="a_node7"><a xlink:title=" ">
<polygon fill="white" stroke="#666666" points="135,-591 106,-591 106,-561 135,-561 135,-591"/>
<text text-anchor="middle" x="120.5" y="-579" font-family="Helvetica,sans-Serif" font-size="10.00">{T</text>
<text text-anchor="middle" x="120.5" y="-568" font-family="Helvetica,sans-Serif" font-size="10.00">||}</text>
</a>
</g>
</g>
<!-- Node7&#45;&gt;Node6 -->
<g id="edge7" class="edge"><title>Node7&#45;&gt;Node6</title>
<path fill="none" stroke="#404040" d="M120.5,-560.893C120.5,-551.151 120.5,-537.901 120.5,-526.249"/>
<polygon fill="none" stroke="#404040" points="120.5,-526.044 116.5,-520.044 120.5,-514.044 124.5,-520.044 120.5,-526.044"/>
<text text-anchor="middle" x="145" y="-535" font-family="Helvetica,sans-Serif" font-size="10.00"> +elements</text>
</g>
<!-- Node8 -->
<g id="node8" class="node"><title>Node8</title>
<g id="a_node8"><a xlink:title=" ">
<polygon fill="white" stroke="#666666" points="477,-404 376,-404 376,-363 477,-363 477,-404"/>
<text text-anchor="start" x="384" y="-392" font-family="Helvetica,sans-Serif" font-size="10.00">{optional&lt; unsigned</text>
<text text-anchor="middle" x="426.5" y="-381" font-family="Helvetica,sans-Serif" font-size="10.00"> short &gt;</text>
<text text-anchor="middle" x="426.5" y="-370" font-family="Helvetica,sans-Serif" font-size="10.00">||}</text>
</a>
</g>
</g>
<!-- Node8&#45;&gt;Node1 -->
<g id="edge8" class="edge"><title>Node8&#45;&gt;Node1</title>
<path fill="none" stroke="#404040" d="M426.5,-362.86C426.5,-346.72 426.5,-322.199 426.5,-295.295"/>
<polygon fill="none" stroke="#404040" points="426.5,-295.214 422.5,-289.214 426.5,-283.214 430.5,-289.214 426.5,-295.214"/>
<text text-anchor="middle" x="447" y="-304" font-family="Helvetica,sans-Serif" font-size="10.00"> &#45;priority_</text>
</g>
<!-- Node9 -->
<g id="node9" class="node"><title>Node9</title>
<g id="a_node9"><a xlink:title=" ">
<polygon fill="white" stroke="#666666" points="650,-404 495,-404 495,-363 650,-363 650,-404"/>
<text text-anchor="start" x="503" y="-392" font-family="Helvetica,sans-Serif" font-size="10.00">{optional&lt; ore::data</text>
<text text-anchor="middle" x="572.5" y="-381" font-family="Helvetica,sans-Serif" font-size="10.00">::PriceSegment::OffPeakDaily &gt;</text>
<text text-anchor="middle" x="572.5" y="-370" font-family="Helvetica,sans-Serif" font-size="10.00">||}</text>
</a>
</g>
</g>
<!-- Node9&#45;&gt;Node1 -->
<g id="edge9" class="edge"><title>Node9&#45;&gt;Node1</title>
<path fill="none" stroke="#404040" d="M560.552,-362.86C544.885,-337.105 516.232,-290.005 489.427,-245.941"/>
<polygon fill="none" stroke="#404040" points="489.26,-245.667 482.724,-242.62 483.023,-235.415 489.559,-238.462 489.26,-245.667"/>
<text text-anchor="middle" x="562.5" y="-304" font-family="Helvetica,sans-Serif" font-size="10.00"> &#45;offPeakDaily_</text>
</g>
<!-- Node10 -->
<g id="node10" class="node"><title>Node10</title>
<g id="a_node10"><a xlink:href="classbool.html" target="_top" xlink:title=" ">
<polygon fill="white" stroke="#666666" points="706.5,-398.5 668.5,-398.5 668.5,-368.5 706.5,-368.5 706.5,-398.5"/>
<text text-anchor="middle" x="687.5" y="-386.5" font-family="Helvetica,sans-Serif" font-size="10.00">{bool</text>
<text text-anchor="middle" x="687.5" y="-375.5" font-family="Helvetica,sans-Serif" font-size="10.00">||}</text>
</a>
</g>
</g>
<!-- Node10&#45;&gt;Node1 -->
<g id="edge10" class="edge"><title>Node10&#45;&gt;Node1</title>
<path fill="none" stroke="#404040" d="M681.449,-368.203C676.328,-357.086 668.269,-341.648 658.5,-330 610.555,-272.831 543.094,-220.623 493.269,-185.899"/>
<polygon fill="none" stroke="#404040" points="493.112,-185.791 485.902,-185.676 483.235,-178.976 490.445,-179.091 493.112,-185.791"/>
<text text-anchor="middle" x="663" y="-304" font-family="Helvetica,sans-Serif" font-size="10.00"> &#45;empty_</text>
</g>
<!-- Node11 -->
<g id="node11" class="node"><title>Node11</title>
<g id="a_node11"><a xlink:title=" ">
<polygon fill="white" stroke="#666666" points="768,-398.5 727,-398.5 727,-368.5 768,-368.5 768,-398.5"/>
<text text-anchor="middle" x="747.5" y="-386.5" font-family="Helvetica,sans-Serif" font-size="10.00">{Type</text>
<text text-anchor="middle" x="747.5" y="-375.5" font-family="Helvetica,sans-Serif" font-size="10.00">||}</text>
</a>
</g>
</g>
<!-- Node11&#45;&gt;Node1 -->
<g id="edge11" class="edge"><title>Node11&#45;&gt;Node1</title>
<path fill="none" stroke="#404040" d="M739.94,-368.084C733.939,-357.183 725.002,-342.082 715.5,-330 704.232,-315.672 700.828,-312.268 686.5,-301 625.174,-252.77 548.146,-207.471 493.902,-177.754"/>
<polygon fill="none" stroke="#404040" points="493.569,-177.573 486.387,-178.219 483.028,-171.838 490.21,-171.192 493.569,-177.573"/>
<text text-anchor="middle" x="716" y="-304" font-family="Helvetica,sans-Serif" font-size="10.00"> &#45;type_</text>
</g>
</g>
</svg>
