<?xml version="1.0" encoding="UTF-8" standalone="no"?>
<!DOCTYPE svg PUBLIC "-//W3C//DTD SVG 1.1//EN"
 "http://www.w3.org/Graphics/SVG/1.1/DTD/svg11.dtd">
<!-- Generated by graphviz version 2.38.0 (20140413.2041)
 -->
<!-- Title: EquityOptionPositionInstrumentWrapper Pages: 1 -->
<svg width="770pt" height="401pt"
 viewBox="0.00 0.00 769.50 401.00" xmlns="http://www.w3.org/2000/svg" xmlns:xlink="http://www.w3.org/1999/xlink">
<g id="graph0" class="graph" transform="scale(1 1) rotate(0) translate(4 397)">
<title>EquityOptionPositionInstrumentWrapper</title>
<!-- Node1 -->
<g id="node1" class="node"><title>Node1</title>
<g id="a_node1"><a xlink:title="Equity Option Position instrument wrapper.">
<polygon fill="#999999" stroke="#666666" points="353,-107 186,-107 186,7.10543e-015 353,7.10543e-015 353,-107"/>
<text text-anchor="start" x="194" y="-95" font-family="Helvetica,sans-Serif" font-size="10.00">{EquityOptionPositionInstrument</text>
<text text-anchor="middle" x="269.5" y="-84" font-family="Helvetica,sans-Serif" font-size="10.00">Wrapper</text>
<text text-anchor="start" x="194" y="-73" font-family="Helvetica,sans-Serif" font-size="10.00">||+ EquityOptionPositionInstrument</text>
<text text-anchor="start" x="194" y="-62" font-family="Helvetica,sans-Serif" font-size="10.00">Wrapper()</text>
<text text-anchor="start" x="194" y="-51" font-family="Helvetica,sans-Serif" font-size="10.00">+ setNpvCurrencyConversion()</text>
<text text-anchor="start" x="194" y="-40" font-family="Helvetica,sans-Serif" font-size="10.00">* isExpired()</text>
<text text-anchor="start" x="194" y="-29" font-family="Helvetica,sans-Serif" font-size="10.00">* setupArguments()</text>
<text text-anchor="start" x="194" y="-18" font-family="Helvetica,sans-Serif" font-size="10.00">* fetchResults()</text>
<text text-anchor="middle" x="269.5" y="-7" font-family="Helvetica,sans-Serif" font-size="10.00">}</text>
</a>
</g>
</g>
<!-- Node2 -->
<g id="node2" class="node"><title>Node2</title>
<g id="a_node2"><a xlink:title=" ">
<polygon fill="white" stroke="#666666" points="65,-206 0,-206 0,-176 65,-176 65,-206"/>
<text text-anchor="middle" x="32.5" y="-194" font-family="Helvetica,sans-Serif" font-size="10.00">{Instrument</text>
<text text-anchor="middle" x="32.5" y="-183" font-family="Helvetica,sans-Serif" font-size="10.00">||}</text>
</a>
</g>
</g>
<!-- Node2&#45;&gt;Node1 -->
<g id="edge1" class="edge"><title>Node2&#45;&gt;Node1</title>
<path fill="none" stroke="#63b8ff" d="M47.3248,-167.27C57.2915,-153.479 71.501,-136.399 87.5,-125 116.891,-104.06 153.326,-88.3411 185.858,-77.1236"/>
<polygon fill="none" stroke="#63b8ff" points="44.252,-165.558 41.4119,-175.765 49.9973,-169.557 44.252,-165.558"/>
</g>
<!-- Node3 -->
<g id="node3" class="node"><title>Node3</title>
<g id="a_node3"><a xlink:title=" ">
<polygon fill="white" stroke="#666666" points="126,-310.5 87,-310.5 87,-280.5 126,-280.5 126,-310.5"/>
<text text-anchor="middle" x="106.5" y="-298.5" font-family="Helvetica,sans-Serif" font-size="10.00">{Real</text>
<text text-anchor="middle" x="106.5" y="-287.5" font-family="Helvetica,sans-Serif" font-size="10.00">||}</text>
</a>
</g>
</g>
<!-- Node3&#45;&gt;Node1 -->
<g id="edge2" class="edge"><title>Node3&#45;&gt;Node1</title>
<path fill="none" stroke="#404040" d="M104.36,-280.157C101.347,-255.007 98.3557,-202.104 119.5,-165 133.032,-141.255 153.972,-121.146 175.956,-104.861"/>
<polygon fill="none" stroke="#404040" points="175.986,-104.839 178.556,-98.1018 185.764,-97.8826 183.194,-104.62 175.986,-104.839"/>
<text text-anchor="middle" x="142.5" y="-188.5" font-family="Helvetica,sans-Serif" font-size="10.00"> &#45;quantity_</text>
</g>
<!-- Node8 -->
<g id="node8" class="node"><title>Node8</title>
<g id="a_node8"><a xlink:title=" ">
<polygon fill="white" stroke="#666666" points="258,-206 175,-206 175,-176 258,-176 258,-206"/>
<text text-anchor="middle" x="216.5" y="-194" font-family="Helvetica,sans-Serif" font-size="10.00">{vector&lt; Real &gt;</text>
<text text-anchor="middle" x="216.5" y="-183" font-family="Helvetica,sans-Serif" font-size="10.00">||}</text>
</a>
</g>
</g>
<!-- Node3&#45;&gt;Node8 -->
<g id="edge8" class="edge"><title>Node3&#45;&gt;Node8</title>
<path fill="none" stroke="#404040" d="M110.616,-280.258C115,-267.167 123.045,-247.893 135.5,-235 144.554,-225.628 156.097,-217.854 167.613,-211.613"/>
<polygon fill="none" stroke="#404040" points="167.847,-211.496 171.406,-205.225 178.564,-206.098 175.005,-212.37 167.847,-211.496"/>
<text text-anchor="middle" x="160" y="-243.5" font-family="Helvetica,sans-Serif" font-size="10.00"> +elements</text>
</g>
<!-- Node4 -->
<g id="node4" class="node"><title>Node4</title>
<g id="a_node4"><a xlink:title=" ">
<polygon fill="white" stroke="#666666" points="392.5,-217 276.5,-217 276.5,-165 392.5,-165 392.5,-217"/>
<text text-anchor="start" x="284.5" y="-205" font-family="Helvetica,sans-Serif" font-size="10.00">{vector&lt; QuantLib::ext</text>
<text text-anchor="start" x="284.5" y="-194" font-family="Helvetica,sans-Serif" font-size="10.00">::shared_ptr&lt; QuantLib</text>
<text text-anchor="middle" x="334.5" y="-183" font-family="Helvetica,sans-Serif" font-size="10.00">::VanillaOption &gt; &gt;</text>
<text text-anchor="middle" x="334.5" y="-172" font-family="Helvetica,sans-Serif" font-size="10.00">||}</text>
</a>
</g>
</g>
<!-- Node4&#45;&gt;Node1 -->
<g id="edge3" class="edge"><title>Node4&#45;&gt;Node1</title>
<path fill="none" stroke="#404040" d="M322.426,-164.831C316.042,-151.521 307.888,-134.524 299.904,-117.88"/>
<polygon fill="none" stroke="#404040" points="299.892,-117.856 293.691,-114.176 294.702,-107.036 300.904,-110.716 299.892,-117.856"/>
<text text-anchor="middle" x="335" y="-133.5" font-family="Helvetica,sans-Serif" font-size="10.00"> &#45;options_</text>
</g>
<!-- Node5 -->
<g id="node5" class="node"><title>Node5</title>
<g id="a_node5"><a xlink:title=" ">
<polygon fill="white" stroke="#666666" points="263,-316 150,-316 150,-275 263,-275 263,-316"/>
<text text-anchor="start" x="158" y="-304" font-family="Helvetica,sans-Serif" font-size="10.00">{shared_ptr&lt; QuantLib</text>
<text text-anchor="middle" x="206.5" y="-293" font-family="Helvetica,sans-Serif" font-size="10.00">::VanillaOption &gt;</text>
<text text-anchor="middle" x="206.5" y="-282" font-family="Helvetica,sans-Serif" font-size="10.00">||}</text>
</a>
</g>
</g>
<!-- Node5&#45;&gt;Node4 -->
<g id="edge4" class="edge"><title>Node5&#45;&gt;Node4</title>
<path fill="none" stroke="#404040" d="M204.611,-274.754C204.473,-262.059 206.447,-245.951 215.5,-235 228.841,-218.862 240.479,-223.363 264.669,-217.067"/>
<polygon fill="none" stroke="#404040" points="264.82,-217.021 269.363,-211.421 276.28,-213.461 271.736,-219.061 264.82,-217.021"/>
<text text-anchor="middle" x="240" y="-243.5" font-family="Helvetica,sans-Serif" font-size="10.00"> +elements</text>
</g>
<!-- Node6 -->
<g id="node6" class="node"><title>Node6</title>
<g id="a_node6"><a xlink:title=" ">
<polygon fill="white" stroke="#666666" points="376.5,-310.5 308.5,-310.5 308.5,-280.5 376.5,-280.5 376.5,-310.5"/>
<text text-anchor="middle" x="342.5" y="-298.5" font-family="Helvetica,sans-Serif" font-size="10.00">{vector&lt; T &gt;</text>
<text text-anchor="middle" x="342.5" y="-287.5" font-family="Helvetica,sans-Serif" font-size="10.00">||}</text>
</a>
</g>
</g>
<!-- Node6&#45;&gt;Node4 -->
<g id="edge5" class="edge"><title>Node6&#45;&gt;Node4</title>
<path fill="none" stroke="orange" d="M340.594,-270.081C339.348,-254.109 337.723,-233.294 336.465,-217.173"/>
<polygon fill="orange" stroke="orange" points="337.12,-270.551 341.388,-280.248 344.099,-270.006 337.12,-270.551"/>
<text text-anchor="start" x="339.5" y="-249" font-family="Helvetica,sans-Serif" font-size="10.00"> &lt; QuantLib::ext::shared</text>
<text text-anchor="middle" x="413" y="-238" font-family="Helvetica,sans-Serif" font-size="10.00">_ptr&lt; QuantLib::VanillaOption &gt; &gt;</text>
</g>
<!-- Node6&#45;&gt;Node8 -->
<g id="edge9" class="edge"><title>Node6&#45;&gt;Node8</title>
<path fill="none" stroke="orange" d="M315.57,-274.257C308.348,-268.729 300.581,-262.693 293.5,-257 272.231,-239.9 248.29,-219.504 232.832,-206.178"/>
<polygon fill="orange" stroke="orange" points="313.646,-277.191 323.723,-280.462 317.885,-271.621 313.646,-277.191"/>
<text text-anchor="middle" x="314" y="-243.5" font-family="Helvetica,sans-Serif" font-size="10.00"> &lt; Real &gt;</text>
</g>
<!-- Node9 -->
<g id="node9" class="node"><title>Node9</title>
<g id="a_node9"><a xlink:title=" ">
<polygon fill="white" stroke="#666666" points="581,-206 444,-206 444,-176 581,-176 581,-206"/>
<text text-anchor="middle" x="512.5" y="-194" font-family="Helvetica,sans-Serif" font-size="10.00">{vector&lt; Handle&lt; Quote &gt; &gt;</text>
<text text-anchor="middle" x="512.5" y="-183" font-family="Helvetica,sans-Serif" font-size="10.00">||}</text>
</a>
</g>
</g>
<!-- Node6&#45;&gt;Node9 -->
<g id="edge13" class="edge"><title>Node6&#45;&gt;Node9</title>
<path fill="none" stroke="orange" d="M386.657,-294.124C419.197,-291.531 462.491,-282.9 490.5,-257 504.845,-243.735 509.839,-220.79 511.576,-206.011"/>
<polygon fill="orange" stroke="orange" points="386.261,-290.641 376.503,-294.767 386.704,-297.627 386.261,-290.641"/>
<text text-anchor="middle" x="552.5" y="-243.5" font-family="Helvetica,sans-Serif" font-size="10.00"> &lt; Handle&lt; Quote &gt; &gt;</text>
</g>
<!-- Node7 -->
<g id="node7" class="node"><title>Node7</title>
<g id="a_node7"><a xlink:title=" ">
<polygon fill="white" stroke="#666666" points="357,-393 328,-393 328,-363 357,-363 357,-393"/>
<text text-anchor="middle" x="342.5" y="-381" font-family="Helvetica,sans-Serif" font-size="10.00">{T</text>
<text text-anchor="middle" x="342.5" y="-370" font-family="Helvetica,sans-Serif" font-size="10.00">||}</text>
</a>
</g>
</g>
<!-- Node7&#45;&gt;Node6 -->
<g id="edge6" class="edge"><title>Node7&#45;&gt;Node6</title>
<path fill="none" stroke="#404040" d="M342.5,-362.978C342.5,-351.964 342.5,-336.309 342.5,-322.958"/>
<polygon fill="none" stroke="#404040" points="342.5,-322.631 338.5,-316.631 342.5,-310.631 346.5,-316.631 342.5,-322.631"/>
<text text-anchor="middle" x="367" y="-337" font-family="Helvetica,sans-Serif" font-size="10.00"> +elements</text>
</g>
<!-- Node8&#45;&gt;Node1 -->
<g id="edge7" class="edge"><title>Node8&#45;&gt;Node1</title>
<path fill="none" stroke="#404040" d="M221.186,-175.96C225.667,-162.732 232.726,-142.402 239.5,-125 240.35,-122.815 241.226,-120.597 242.119,-118.361"/>
<polygon fill="none" stroke="#404040" points="242.18,-118.212 240.732,-111.147 246.697,-107.094 248.144,-114.159 242.18,-118.212"/>
<text text-anchor="middle" x="265" y="-139" font-family="Helvetica,sans-Serif" font-size="10.00"> &#45;positions_</text>
<text text-anchor="middle" x="265" y="-128" font-family="Helvetica,sans-Serif" font-size="10.00">&#45;weights_</text>
</g>
<!-- Node9&#45;&gt;Node1 -->
<g id="edge10" class="edge"><title>Node9&#45;&gt;Node1</title>
<path fill="none" stroke="#404040" d="M486.954,-175.755C457.736,-159.463 408.193,-131.837 363.769,-107.066"/>
<polygon fill="none" stroke="#404040" points="363.678,-107.015 356.49,-107.586 353.197,-101.171 360.386,-100.599 363.678,-107.015"/>
<text text-anchor="middle" x="468" y="-133.5" font-family="Helvetica,sans-Serif" font-size="10.00"> &#45;fxConversion_</text>
</g>
<!-- Node10 -->
<g id="node10" class="node"><title>Node10</title>
<g id="a_node10"><a xlink:title=" ">
<polygon fill="white" stroke="#666666" points="710.5,-310.5 616.5,-310.5 616.5,-280.5 710.5,-280.5 710.5,-310.5"/>
<text text-anchor="middle" x="663.5" y="-298.5" font-family="Helvetica,sans-Serif" font-size="10.00">{Handle&lt; Quote &gt;</text>
<text text-anchor="middle" x="663.5" y="-287.5" font-family="Helvetica,sans-Serif" font-size="10.00">||}</text>
</a>
</g>
</g>
<!-- Node10&#45;&gt;Node1 -->
<g id="edge14" class="edge"><title>Node10&#45;&gt;Node1</title>
<path fill="none" stroke="#404040" d="M673.586,-280.306C681.042,-267.933 688.747,-249.717 681.5,-235 658.959,-189.223 634.06,-191.574 590.5,-165 520.37,-122.218 431.45,-93.2658 364.99,-75.7662"/>
<polygon fill="none" stroke="#404040" points="364.889,-75.7402 358.079,-78.1116 353.271,-72.7375 360.081,-70.3661 364.889,-75.7402"/>
<text text-anchor="middle" x="716" y="-188.5" font-family="Helvetica,sans-Serif" font-size="10.00"> &#45;npvCcyConversion_</text>
</g>
<!-- Node10&#45;&gt;Node9 -->
<g id="edge11" class="edge"><title>Node10&#45;&gt;Node9</title>
<path fill="none" stroke="#404040" d="M651.882,-280.399C639.045,-265.063 618.942,-241.82 609.5,-235 596.173,-225.373 580.348,-217.233 565.387,-210.712"/>
<polygon fill="none" stroke="#404040" points="565.25,-210.655 558.173,-212.042 554.171,-206.043 561.247,-204.656 565.25,-210.655"/>
<text text-anchor="middle" x="654" y="-243.5" font-family="Helvetica,sans-Serif" font-size="10.00"> +elements</text>
</g>
<!-- Node11 -->
<g id="node11" class="node"><title>Node11</title>
<g id="a_node11"><a xlink:title=" ">
<polygon fill="white" stroke="#666666" points="688.5,-393 638.5,-393 638.5,-363 688.5,-363 688.5,-393"/>
<text text-anchor="middle" x="663.5" y="-381" font-family="Helvetica,sans-Serif" font-size="10.00">{Handle</text>
<text text-anchor="middle" x="663.5" y="-370" font-family="Helvetica,sans-Serif" font-size="10.00">||}</text>
</a>
</g>
</g>
<!-- Node11&#45;&gt;Node10 -->
<g id="edge12" class="edge"><title>Node11&#45;&gt;Node10</title>
<path fill="none" stroke="orange" d="M663.5,-352.738C663.5,-338.982 663.5,-322.251 663.5,-310.631"/>
<polygon fill="orange" stroke="orange" points="660,-352.978 663.5,-362.978 667,-352.978 660,-352.978"/>
<text text-anchor="middle" x="687.5" y="-337" font-family="Helvetica,sans-Serif" font-size="10.00"> &lt; Quote &gt;</text>
</g>
</g>
</svg>
