<?xml version="1.0" encoding="UTF-8" standalone="no"?>
<!DOCTYPE svg PUBLIC "-//W3C//DTD SVG 1.1//EN"
 "http://www.w3.org/Graphics/SVG/1.1/DTD/svg11.dtd">
<!-- Generated by graphviz version 2.38.0 (20140413.2041)
 -->
<!-- Title: BondOptionShiftQuote Pages: 1 -->
<svg width="566pt" height="489pt"
 viewBox="0.00 0.00 565.50 489.00" xmlns="http://www.w3.org/2000/svg" xmlns:xlink="http://www.w3.org/1999/xlink">
<g id="graph0" class="graph" transform="scale(1 1) rotate(0) translate(4 485)">
<title>BondOptionShiftQuote</title>
<!-- Node1 -->
<g id="node1" class="node"><title>Node1</title>
<g id="a_node1"><a xlink:title="Shift data class (for SLN bond option volatilities)">
<polygon fill="#999999" stroke="#666666" points="513.5,-118 380.5,-118 380.5,-0 513.5,-0 513.5,-118"/>
<text text-anchor="middle" x="447" y="-106" font-family="Helvetica,sans-Serif" font-size="10.00">{BondOptionShiftQuote</text>
<text text-anchor="start" x="388.5" y="-95" font-family="Helvetica,sans-Serif" font-size="10.00">||+ BondOptionShiftQuote()</text>
<text text-anchor="start" x="388.5" y="-84" font-family="Helvetica,sans-Serif" font-size="10.00">+ BondOptionShiftQuote()</text>
<text text-anchor="start" x="388.5" y="-73" font-family="Helvetica,sans-Serif" font-size="10.00">+ clone()</text>
<text text-anchor="start" x="388.5" y="-62" font-family="Helvetica,sans-Serif" font-size="10.00">* boost::serialization</text>
<text text-anchor="start" x="388.5" y="-51" font-family="Helvetica,sans-Serif" font-size="10.00">::access</text>
<text text-anchor="start" x="388.5" y="-40" font-family="Helvetica,sans-Serif" font-size="10.00">* qualifier()</text>
<text text-anchor="start" x="388.5" y="-29" font-family="Helvetica,sans-Serif" font-size="10.00">* term()</text>
<text text-anchor="start" x="388.5" y="-18" font-family="Helvetica,sans-Serif" font-size="10.00">* serialize()</text>
<text text-anchor="middle" x="447" y="-7" font-family="Helvetica,sans-Serif" font-size="10.00">}</text>
</a>
</g>
</g>
<!-- Node2 -->
<g id="node2" class="node"><title>Node2</title>
<g id="a_node2"><a xlink:href="classore_1_1data_1_1_market_datum.html" target="_top" xlink:title="Base market data class.">
<polygon fill="white" stroke="#666666" points="312.5,-327 207.5,-327 207.5,-165 312.5,-165 312.5,-327"/>
<text text-anchor="middle" x="260" y="-315" font-family="Helvetica,sans-Serif" font-size="10.00">{MarketDatum</text>
<text text-anchor="start" x="215.5" y="-304" font-family="Helvetica,sans-Serif" font-size="10.00">||+ MarketDatum()</text>
<text text-anchor="start" x="215.5" y="-293" font-family="Helvetica,sans-Serif" font-size="10.00">+ MarketDatum()</text>
<text text-anchor="start" x="215.5" y="-282" font-family="Helvetica,sans-Serif" font-size="10.00">+ ~MarketDatum()</text>
<text text-anchor="start" x="215.5" y="-271" font-family="Helvetica,sans-Serif" font-size="10.00">+ clone()</text>
<text text-anchor="start" x="215.5" y="-260" font-family="Helvetica,sans-Serif" font-size="10.00">* boost::serialization</text>
<text text-anchor="start" x="215.5" y="-249" font-family="Helvetica,sans-Serif" font-size="10.00">::access</text>
<text text-anchor="start" x="215.5" y="-238" font-family="Helvetica,sans-Serif" font-size="10.00">* name()</text>
<text text-anchor="start" x="215.5" y="-227" font-family="Helvetica,sans-Serif" font-size="10.00">* quote()</text>
<text text-anchor="start" x="215.5" y="-216" font-family="Helvetica,sans-Serif" font-size="10.00">* asofDate()</text>
<text text-anchor="start" x="215.5" y="-205" font-family="Helvetica,sans-Serif" font-size="10.00">* instrumentType()</text>
<text text-anchor="start" x="215.5" y="-194" font-family="Helvetica,sans-Serif" font-size="10.00">* quoteType()</text>
<text text-anchor="start" x="215.5" y="-183" font-family="Helvetica,sans-Serif" font-size="10.00">* serialize()</text>
<text text-anchor="middle" x="260" y="-172" font-family="Helvetica,sans-Serif" font-size="10.00">}</text>
</a>
</g>
</g>
<!-- Node2&#45;&gt;Node1 -->
<g id="edge1" class="edge"><title>Node2&#45;&gt;Node1</title>
<path fill="none" stroke="#63b8ff" d="M319.888,-185.752C341.76,-164.115 366.462,-139.677 388.235,-118.137"/>
<polygon fill="none" stroke="#63b8ff" points="317.235,-183.454 312.588,-192.975 322.158,-188.43 317.235,-183.454"/>
</g>
<!-- Node3 -->
<g id="node3" class="node"><title>Node3</title>
<g id="a_node3"><a xlink:title=" ">
<polygon fill="white" stroke="#666666" points="152,-404 58,-404 58,-374 152,-374 152,-404"/>
<text text-anchor="middle" x="105" y="-392" font-family="Helvetica,sans-Serif" font-size="10.00">{Handle&lt; Quote &gt;</text>
<text text-anchor="middle" x="105" y="-381" font-family="Helvetica,sans-Serif" font-size="10.00">||}</text>
</a>
</g>
</g>
<!-- Node3&#45;&gt;Node2 -->
<g id="edge2" class="edge"><title>Node3&#45;&gt;Node2</title>
<path fill="none" stroke="#404040" d="M120.429,-373.965C138.601,-357.434 169.913,-328.951 198.279,-303.146"/>
<polygon fill="none" stroke="#404040" points="198.489,-302.956 200.235,-295.959 207.365,-294.881 205.619,-301.877 198.489,-302.956"/>
<text text-anchor="middle" x="170" y="-348" font-family="Helvetica,sans-Serif" font-size="10.00"> #quote_</text>
</g>
<!-- Node4 -->
<g id="node4" class="node"><title>Node4</title>
<g id="a_node4"><a xlink:title=" ">
<polygon fill="white" stroke="#666666" points="130,-481 80,-481 80,-451 130,-451 130,-481"/>
<text text-anchor="middle" x="105" y="-469" font-family="Helvetica,sans-Serif" font-size="10.00">{Handle</text>
<text text-anchor="middle" x="105" y="-458" font-family="Helvetica,sans-Serif" font-size="10.00">||}</text>
</a>
</g>
</g>
<!-- Node4&#45;&gt;Node3 -->
<g id="edge3" class="edge"><title>Node4&#45;&gt;Node3</title>
<path fill="none" stroke="orange" d="M105,-440.541C105,-428.451 105,-414.294 105,-404.044"/>
<polygon fill="orange" stroke="orange" points="101.5,-440.893 105,-450.893 108.5,-440.893 101.5,-440.893"/>
<text text-anchor="middle" x="129" y="-425" font-family="Helvetica,sans-Serif" font-size="10.00"> &lt; Quote &gt;</text>
</g>
<!-- Node5 -->
<g id="node5" class="node"><title>Node5</title>
<g id="a_node5"><a xlink:title=" ">
<polygon fill="white" stroke="#666666" points="40,-404 0,-404 0,-374 40,-374 40,-404"/>
<text text-anchor="middle" x="20" y="-392" font-family="Helvetica,sans-Serif" font-size="10.00">{Date</text>
<text text-anchor="middle" x="20" y="-381" font-family="Helvetica,sans-Serif" font-size="10.00">||}</text>
</a>
</g>
</g>
<!-- Node5&#45;&gt;Node2 -->
<g id="edge4" class="edge"><title>Node5&#45;&gt;Node2</title>
<path fill="none" stroke="#404040" d="M40.0479,-374.723C53.2663,-366.072 71.0248,-354.641 87,-345 122.846,-323.367 163.559,-300.234 196.481,-281.879"/>
<polygon fill="none" stroke="#404040" points="196.841,-281.679 200.141,-275.267 207.329,-275.847 204.029,-282.259 196.841,-281.679"/>
<text text-anchor="middle" x="113" y="-348" font-family="Helvetica,sans-Serif" font-size="10.00"> #asofDate_</text>
</g>
<!-- Node6 -->
<g id="node6" class="node"><title>Node6</title>
<g id="a_node6"><a xlink:title=" ">
<polygon fill="white" stroke="#666666" points="442,-404 398,-404 398,-374 442,-374 442,-404"/>
<text text-anchor="middle" x="420" y="-392" font-family="Helvetica,sans-Serif" font-size="10.00">{string</text>
<text text-anchor="middle" x="420" y="-381" font-family="Helvetica,sans-Serif" font-size="10.00">||}</text>
</a>
</g>
</g>
<!-- Node6&#45;&gt;Node1 -->
<g id="edge9" class="edge"><title>Node6&#45;&gt;Node1</title>
<path fill="none" stroke="#404040" d="M421.895,-373.997C422.613,-368.406 423.402,-361.905 424,-356 431.812,-278.878 438.383,-190.217 442.475,-130.189"/>
<polygon fill="none" stroke="#404040" points="442.476,-130.175 438.89,-123.919 443.285,-118.203 446.871,-124.459 442.476,-130.175"/>
<text text-anchor="middle" x="462.5" y="-243.5" font-family="Helvetica,sans-Serif" font-size="10.00"> &#45;qualifier_</text>
</g>
<!-- Node6&#45;&gt;Node2 -->
<g id="edge5" class="edge"><title>Node6&#45;&gt;Node2</title>
<path fill="none" stroke="#404040" d="M404.074,-373.965C384.876,-357.047 351.472,-327.61 321.659,-301.337"/>
<polygon fill="none" stroke="#404040" points="321.545,-301.237 314.399,-300.271 312.542,-293.303 319.688,-294.269 321.545,-301.237"/>
<text text-anchor="middle" x="401" y="-348" font-family="Helvetica,sans-Serif" font-size="10.00"> #name_</text>
</g>
<!-- Node7 -->
<g id="node7" class="node"><title>Node7</title>
<g id="a_node7"><a xlink:title=" ">
<polygon fill="white" stroke="#666666" points="475,-481 365,-481 365,-451 475,-451 475,-481"/>
<text text-anchor="middle" x="420" y="-469" font-family="Helvetica,sans-Serif" font-size="10.00">{basic_string&lt; Char &gt;</text>
<text text-anchor="middle" x="420" y="-458" font-family="Helvetica,sans-Serif" font-size="10.00">||}</text>
</a>
</g>
</g>
<!-- Node7&#45;&gt;Node6 -->
<g id="edge6" class="edge"><title>Node7&#45;&gt;Node6</title>
<path fill="none" stroke="#63b8ff" d="M420,-440.541C420,-428.451 420,-414.294 420,-404.044"/>
<polygon fill="none" stroke="#63b8ff" points="416.5,-440.893 420,-450.893 423.5,-440.893 416.5,-440.893"/>
</g>
<!-- Node8 -->
<g id="node8" class="node"><title>Node8</title>
<g id="a_node8"><a xlink:title=" ">
<polygon fill="white" stroke="#666666" points="256,-404 170,-404 170,-374 256,-374 256,-404"/>
<text text-anchor="middle" x="213" y="-392" font-family="Helvetica,sans-Serif" font-size="10.00">{InstrumentType</text>
<text text-anchor="middle" x="213" y="-381" font-family="Helvetica,sans-Serif" font-size="10.00">||}</text>
</a>
</g>
</g>
<!-- Node8&#45;&gt;Node2 -->
<g id="edge7" class="edge"><title>Node8&#45;&gt;Node2</title>
<path fill="none" stroke="#404040" d="M209.364,-373.884C207.752,-365.408 206.684,-354.468 209,-345 209.524,-342.857 210.104,-340.71 210.734,-338.561"/>
<polygon fill="none" stroke="#404040" points="210.759,-338.484 208.854,-331.529 214.541,-327.096 216.447,-334.05 210.759,-338.484"/>
<text text-anchor="middle" x="249.5" y="-348" font-family="Helvetica,sans-Serif" font-size="10.00"> #instrumentType_</text>
</g>
<!-- Node9 -->
<g id="node9" class="node"><title>Node9</title>
<g id="a_node9"><a xlink:title=" ">
<polygon fill="white" stroke="#666666" points="345.5,-404 278.5,-404 278.5,-374 345.5,-374 345.5,-404"/>
<text text-anchor="middle" x="312" y="-392" font-family="Helvetica,sans-Serif" font-size="10.00">{QuoteType</text>
<text text-anchor="middle" x="312" y="-381" font-family="Helvetica,sans-Serif" font-size="10.00">||}</text>
</a>
</g>
</g>
<!-- Node9&#45;&gt;Node2 -->
<g id="edge8" class="edge"><title>Node9&#45;&gt;Node2</title>
<path fill="none" stroke="#404040" d="M306.824,-373.965C303.479,-364.896 298.808,-352.229 293.701,-338.381"/>
<polygon fill="none" stroke="#404040" points="293.681,-338.327 287.852,-334.082 289.529,-327.068 295.358,-331.314 293.681,-338.327"/>
<text text-anchor="middle" x="329.5" y="-348" font-family="Helvetica,sans-Serif" font-size="10.00"> #quoteType_</text>
</g>
<!-- Node10 -->
<g id="node10" class="node"><title>Node10</title>
<g id="a_node10"><a xlink:title=" ">
<polygon fill="white" stroke="#666666" points="557.5,-261 510.5,-261 510.5,-231 557.5,-231 557.5,-261"/>
<text text-anchor="middle" x="534" y="-249" font-family="Helvetica,sans-Serif" font-size="10.00">{Period</text>
<text text-anchor="middle" x="534" y="-238" font-family="Helvetica,sans-Serif" font-size="10.00">||}</text>
</a>
</g>
</g>
<!-- Node10&#45;&gt;Node1 -->
<g id="edge10" class="edge"><title>Node10&#45;&gt;Node1</title>
<path fill="none" stroke="#404040" d="M527.318,-230.791C517.185,-209.244 497.263,-166.881 479.796,-129.738"/>
<polygon fill="none" stroke="#404040" points="479.574,-129.266 473.401,-125.539 474.467,-118.407 480.64,-122.134 479.574,-129.266"/>
<text text-anchor="middle" x="503.5" y="-139" font-family="Helvetica,sans-Serif" font-size="10.00"> &#45;term_</text>
</g>
</g>
</svg>
