<?xml version="1.0" encoding="UTF-8" standalone="no"?>
<!DOCTYPE svg PUBLIC "-//W3C//DTD SVG 1.1//EN"
 "http://www.w3.org/Graphics/SVG/1.1/DTD/svg11.dtd">
<!-- Generated by graphviz version 2.38.0 (20140413.2041)
 -->
<!-- Title: oreName Pages: 1 -->
<svg width="218pt" height="46pt"
 viewBox="0.00 0.00 218.00 46.00" xmlns="http://www.w3.org/2000/svg" xmlns:xlink="http://www.w3.org/1999/xlink">
<g id="graph0" class="graph" transform="scale(1 1) rotate(0) translate(4 42)">
<title>oreName</title>
<!-- Node1 -->
<g id="node1" class="node"><title>Node1</title>
<g id="a_node1"><a xlink:title="throws if qlName is not known">
<polygon fill="#999999" stroke="#666666" points="210,-19 154,-19 154,-0 210,-0 210,-19"/>
<text text-anchor="middle" x="182" y="-7" font-family="Helvetica,sans-Serif" font-size="10.00">oreName</text>
</a>
</g>
</g>
<!-- Node2 -->
<g id="node2" class="node"><title>Node2</title>
<g id="a_node2"><a xlink:href="classore_1_1data_1_1_index_name_translator.html#a5754782d9b8e46cfe536fb66c9b17fb0" target="_top" xlink:title="adds a pair to the mapping">
<polygon fill="white" stroke="#666666" points="32,-38 0,-38 0,-19 32,-19 32,-38"/>
<text text-anchor="middle" x="16" y="-26" font-family="Helvetica,sans-Serif" font-size="10.00">add</text>
</a>
</g>
</g>
<!-- Node1&#45;&gt;Node2 -->
<g id="edge1" class="edge"><title>Node1&#45;&gt;Node2</title>
<path fill="none" stroke="#63b8ff" d="M145.647,-22.1386C136.739,-24.7724 127.115,-27.1555 118,-28.5 87.8162,-32.9525 52.004,-31.3524 32.1587,-29.8705"/>
<polygon fill="#63b8ff" stroke="#63b8ff" points="146.841,-25.4324 155.335,-19.1004 144.746,-18.7532 146.841,-25.4324"/>
</g>
<!-- Node3 -->
<g id="node3" class="node"><title>Node3</title>
<g id="a_node3"><a xlink:href="classore_1_1data_1_1_index_name_translator.html#af63dca04d592a404524bffa894d36e53" target="_top" xlink:title="throws if oreName is not known">
<polygon fill="white" stroke="#666666" points="118,-19 68,-19 68,-0 118,-0 118,-19"/>
<text text-anchor="middle" x="93" y="-7" font-family="Helvetica,sans-Serif" font-size="10.00">qlName</text>
</a>
</g>
</g>
<!-- Node1&#45;&gt;Node3 -->
<g id="edge2" class="edge"><title>Node1&#45;&gt;Node3</title>
<path fill="none" stroke="#63b8ff" d="M143.932,-2.81602C135.185,-2.63528 126.084,-2.82564 118.085,-3.38709"/>
<polygon fill="#63b8ff" stroke="#63b8ff" points="143.823,-6.31432 153.95,-3.19865 144.09,0.680577 143.823,-6.31432"/>
</g>
<!-- Node3&#45;&gt;Node1 -->
<g id="edge4" class="edge"><title>Node3&#45;&gt;Node1</title>
<path fill="none" stroke="#63b8ff" d="M128.176,-16.1102C136.732,-16.3704 145.793,-16.2674 153.95,-15.8013"/>
<polygon fill="#63b8ff" stroke="#63b8ff" points="128.245,-12.6095 118.085,-15.6129 127.9,-19.601 128.245,-12.6095"/>
</g>
<!-- Node3&#45;&gt;Node2 -->
<g id="edge3" class="edge"><title>Node3&#45;&gt;Node2</title>
<path fill="none" stroke="#63b8ff" d="M57.9686,-18.1213C49.0129,-20.3901 39.791,-22.7263 32.3697,-24.6063"/>
<polygon fill="#63b8ff" stroke="#63b8ff" points="59.0225,-21.465 67.8567,-15.6163 57.3034,-14.6793 59.0225,-21.465"/>
</g>
</g>
</svg>
