<?xml version="1.0" encoding="UTF-8" standalone="no"?>
<!DOCTYPE svg PUBLIC "-//W3C//DTD SVG 1.1//EN"
 "http://www.w3.org/Graphics/SVG/1.1/DTD/svg11.dtd">
<!-- Generated by graphviz version 2.38.0 (20140413.2041)
 -->
<!-- Title: exerciseData Pages: 1 -->
<svg width="642pt" height="382pt"
 viewBox="0.00 0.00 642.00 382.00" xmlns="http://www.w3.org/2000/svg" xmlns:xlink="http://www.w3.org/1999/xlink">
<g id="graph0" class="graph" transform="scale(1 1) rotate(0) translate(4 378)">
<title>exerciseData</title>
<!-- Node1 -->
<g id="node1" class="node"><title>Node1</title>
<g id="a_node1"><a xlink:title=" ">
<polygon fill="#999999" stroke="#666666" points="634,-277.5 560,-277.5 560,-258.5 634,-258.5 634,-277.5"/>
<text text-anchor="middle" x="597" y="-265.5" font-family="Helvetica,sans-Serif" font-size="10.00">exerciseData</text>
</a>
</g>
</g>
<!-- Node2 -->
<g id="node2" class="node"><title>Node2</title>
<g id="a_node2"><a xlink:href="classore_1_1data_1_1_exercise_builder.html#a616a8a498a5610f9c35725ae63a8929f" target="_top" xlink:title=" ">
<polygon fill="white" stroke="#666666" points="517.5,-374 388.5,-374 388.5,-344 517.5,-344 517.5,-374"/>
<text text-anchor="start" x="396.5" y="-362" font-family="Helvetica,sans-Serif" font-size="10.00">ore::data::ExerciseBuilder</text>
<text text-anchor="middle" x="453" y="-351" font-family="Helvetica,sans-Serif" font-size="10.00">::ExerciseBuilder</text>
</a>
</g>
</g>
<!-- Node1&#45;&gt;Node2 -->
<g id="edge1" class="edge"><title>Node1&#45;&gt;Node2</title>
<path fill="none" stroke="#63b8ff" d="M581.445,-285.124C567.907,-300.105 546.491,-321.522 524,-335 518.38,-338.368 512.221,-341.346 505.961,-343.957"/>
<polygon fill="#63b8ff" stroke="#63b8ff" points="584.129,-287.372 588.112,-277.554 578.876,-282.745 584.129,-287.372"/>
</g>
<!-- Node3 -->
<g id="node3" class="node"><title>Node3</title>
<g id="a_node3"><a xlink:href="classore_1_1data_1_1_fx_european_barrier_option.html#af7b69d5b18d278257927e32b10a23ee6" target="_top" xlink:title="Build QuantLib/QuantExt instrument, link pricing engine.">
<polygon fill="white" stroke="#666666" points="524,-326 382,-326 382,-296 524,-296 524,-326"/>
<text text-anchor="start" x="390" y="-314" font-family="Helvetica,sans-Serif" font-size="10.00">ore::data::FxEuropeanBarrier</text>
<text text-anchor="middle" x="453" y="-303" font-family="Helvetica,sans-Serif" font-size="10.00">Option::build</text>
</a>
</g>
</g>
<!-- Node1&#45;&gt;Node3 -->
<g id="edge2" class="edge"><title>Node1&#45;&gt;Node3</title>
<path fill="none" stroke="#63b8ff" d="M554.862,-280.457C538.83,-285.312 520.313,-290.919 503.556,-295.994"/>
<polygon fill="#63b8ff" stroke="#63b8ff" points="555.929,-283.791 564.486,-277.543 553.9,-277.092 555.929,-283.791"/>
</g>
<!-- Node5 -->
<g id="node5" class="node"><title>Node5</title>
<g id="a_node5"><a xlink:href="classore_1_1data_1_1_fx_option.html#af7b69d5b18d278257927e32b10a23ee6" target="_top" xlink:title="Build QuantLib/QuantExt instrument, link pricing engine.">
<polygon fill="white" stroke="#666666" points="322,-286 221,-286 221,-256 322,-256 322,-286"/>
<text text-anchor="start" x="229" y="-274" font-family="Helvetica,sans-Serif" font-size="10.00">ore::data::FxOption</text>
<text text-anchor="middle" x="271.5" y="-263" font-family="Helvetica,sans-Serif" font-size="10.00">::build</text>
</a>
</g>
</g>
<!-- Node1&#45;&gt;Node5 -->
<g id="edge4" class="edge"><title>Node1&#45;&gt;Node5</title>
<path fill="none" stroke="#63b8ff" d="M549.825,-268.428C489.467,-268.988 384.162,-269.964 322.139,-270.54"/>
<polygon fill="#63b8ff" stroke="#63b8ff" points="549.865,-271.928 559.832,-268.335 549.8,-264.928 549.865,-271.928"/>
</g>
<!-- Node7 -->
<g id="node7" class="node"><title>Node7</title>
<g id="a_node7"><a xlink:href="classore_1_1data_1_1_vanilla_option_trade.html#af7b69d5b18d278257927e32b10a23ee6" target="_top" xlink:title="Build QuantLib/QuantExt instrument, link pricing engine.">
<polygon fill="white" stroke="#666666" points="512.5,-238 393.5,-238 393.5,-208 512.5,-208 512.5,-238"/>
<text text-anchor="start" x="401.5" y="-226" font-family="Helvetica,sans-Serif" font-size="10.00">ore::data::VanillaOption</text>
<text text-anchor="middle" x="453" y="-215" font-family="Helvetica,sans-Serif" font-size="10.00">Trade::build</text>
</a>
</g>
</g>
<!-- Node1&#45;&gt;Node7 -->
<g id="edge6" class="edge"><title>Node1&#45;&gt;Node7</title>
<path fill="none" stroke="#63b8ff" d="M556.244,-255.401C539.214,-250.005 519.189,-243.658 501.395,-238.02"/>
<polygon fill="#63b8ff" stroke="#63b8ff" points="555.295,-258.772 565.885,-258.457 557.41,-252.099 555.295,-258.772"/>
</g>
<!-- Node15 -->
<g id="node15" class="node"><title>Node15</title>
<g id="a_node15"><a xlink:href="classore_1_1data_1_1_barrier_option.html#ab1db499ff5e65c59fd2009d62276fdaf" target="_top" xlink:title="Build QuantLib/QuantExt instrument, link pricing engine.">
<polygon fill="white" stroke="#666666" points="512,-78 394,-78 394,-48 512,-48 512,-78"/>
<text text-anchor="start" x="402" y="-66" font-family="Helvetica,sans-Serif" font-size="10.00">ore::data::BarrierOption</text>
<text text-anchor="middle" x="453" y="-55" font-family="Helvetica,sans-Serif" font-size="10.00">::build</text>
</a>
</g>
</g>
<!-- Node1&#45;&gt;Node15 -->
<g id="edge15" class="edge"><title>Node1&#45;&gt;Node15</title>
<path fill="none" stroke="#63b8ff" d="M583.646,-250.165C556.121,-210.428 490.162,-115.205 464.482,-78.1327"/>
<polygon fill="#63b8ff" stroke="#63b8ff" points="580.77,-252.16 589.342,-258.387 586.524,-248.174 580.77,-252.16"/>
</g>
<!-- Node4 -->
<g id="node4" class="node"><title>Node4</title>
<g id="a_node4"><a xlink:href="fxexotics_8cpp.html#acfd93f4169abaf3c0d3541c4a297d9de" target="_top" xlink:title=" ">
<polygon fill="white" stroke="#666666" points="343,-323.5 200,-323.5 200,-304.5 343,-304.5 343,-323.5"/>
<text text-anchor="middle" x="271.5" y="-311.5" font-family="Helvetica,sans-Serif" font-size="10.00">BOOST_AUTO_TEST_CASE</text>
</a>
</g>
</g>
<!-- Node3&#45;&gt;Node4 -->
<g id="edge3" class="edge"><title>Node3&#45;&gt;Node4</title>
<path fill="none" stroke="#63b8ff" d="M371.626,-312.343C362.153,-312.502 352.539,-312.662 343.212,-312.818"/>
<polygon fill="#63b8ff" stroke="#63b8ff" points="371.889,-315.839 381.829,-312.173 371.772,-308.84 371.889,-315.839"/>
</g>
<!-- Node6 -->
<g id="node6" class="node"><title>Node6</title>
<g id="a_node6"><a xlink:href="test_2fxoption_8cpp.html#a321417ba3c97d0524c8fa2d8acb97d72" target="_top" xlink:title=" ">
<polygon fill="white" stroke="#666666" points="152,-280.5 9,-280.5 9,-261.5 152,-261.5 152,-280.5"/>
<text text-anchor="middle" x="80.5" y="-268.5" font-family="Helvetica,sans-Serif" font-size="10.00">BOOST_AUTO_TEST_CASE</text>
</a>
</g>
</g>
<!-- Node5&#45;&gt;Node6 -->
<g id="edge5" class="edge"><title>Node5&#45;&gt;Node6</title>
<path fill="none" stroke="#63b8ff" d="M210.74,-271C192.128,-271 171.428,-271 152.145,-271"/>
<polygon fill="#63b8ff" stroke="#63b8ff" points="210.843,-274.5 220.842,-271 210.842,-267.5 210.843,-274.5"/>
</g>
<!-- Node7&#45;&gt;Node5 -->
<g id="edge11" class="edge"><title>Node7&#45;&gt;Node5</title>
<path fill="none" stroke="#63b8ff" d="M385.86,-240.687C364.816,-246.314 341.908,-252.44 322.228,-257.702"/>
<polygon fill="#63b8ff" stroke="#63b8ff" points="386.941,-244.02 395.698,-238.056 385.133,-237.258 386.941,-244.02"/>
</g>
<!-- Node8 -->
<g id="node8" class="node"><title>Node8</title>
<g id="a_node8"><a xlink:href="classore_1_1data_1_1_equity_future_option.html#af7b69d5b18d278257927e32b10a23ee6" target="_top" xlink:title="Build QuantLib/QuantExt instrument, link pricing engine.">
<polygon fill="white" stroke="#666666" points="344,-238 199,-238 199,-208 344,-208 344,-238"/>
<text text-anchor="start" x="207" y="-226" font-family="Helvetica,sans-Serif" font-size="10.00">ore::data::EquityFutureOption</text>
<text text-anchor="middle" x="271.5" y="-215" font-family="Helvetica,sans-Serif" font-size="10.00">::build</text>
</a>
</g>
</g>
<!-- Node7&#45;&gt;Node8 -->
<g id="edge7" class="edge"><title>Node7&#45;&gt;Node8</title>
<path fill="none" stroke="#63b8ff" d="M383.156,-223C370.415,-223 357.078,-223 344.253,-223"/>
<polygon fill="#63b8ff" stroke="#63b8ff" points="383.225,-226.5 393.225,-223 383.225,-219.5 383.225,-226.5"/>
</g>
<!-- Node10 -->
<g id="node10" class="node"><title>Node10</title>
<g id="a_node10"><a xlink:href="classore_1_1data_1_1_equity_option.html#af7b69d5b18d278257927e32b10a23ee6" target="_top" xlink:title="Build QuantLib/QuantExt instrument, link pricing engine.">
<polygon fill="white" stroke="#666666" points="330,-190 213,-190 213,-160 330,-160 330,-190"/>
<text text-anchor="start" x="221" y="-178" font-family="Helvetica,sans-Serif" font-size="10.00">ore::data::EquityOption</text>
<text text-anchor="middle" x="271.5" y="-167" font-family="Helvetica,sans-Serif" font-size="10.00">::build</text>
</a>
</g>
</g>
<!-- Node7&#45;&gt;Node10 -->
<g id="edge9" class="edge"><title>Node7&#45;&gt;Node10</title>
<path fill="none" stroke="#63b8ff" d="M385.998,-205.351C367.151,-200.311 346.798,-194.868 328.603,-190.002"/>
<polygon fill="#63b8ff" stroke="#63b8ff" points="385.133,-208.742 395.698,-207.944 386.941,-201.98 385.133,-208.742"/>
</g>
<!-- Node12 -->
<g id="node12" class="node"><title>Node12</title>
<g id="a_node12"><a xlink:href="classore_1_1data_1_1_commodity_option.html#a82238405f67248d44bb177a6951c8c2e" target="_top" xlink:title="Build underlying instrument and link pricing engine.">
<polygon fill="white" stroke="#666666" points="341,-142 202,-142 202,-112 341,-112 341,-142"/>
<text text-anchor="start" x="210" y="-130" font-family="Helvetica,sans-Serif" font-size="10.00">ore::data::CommodityOption</text>
<text text-anchor="middle" x="271.5" y="-119" font-family="Helvetica,sans-Serif" font-size="10.00">::build</text>
</a>
</g>
</g>
<!-- Node7&#45;&gt;Node12 -->
<g id="edge12" class="edge"><title>Node7&#45;&gt;Node12</title>
<path fill="none" stroke="#63b8ff" d="M425.081,-201.576C404.397,-185.913 374.612,-165.039 346,-151 339.372,-147.748 332.199,-144.785 325.022,-142.138"/>
<polygon fill="#63b8ff" stroke="#63b8ff" points="423.022,-204.408 433.086,-207.722 427.285,-198.855 423.022,-204.408"/>
</g>
<!-- Node9 -->
<g id="node9" class="node"><title>Node9</title>
<g id="a_node9"><a xlink:href="equitytrades_8cpp.html#aa42062877db60fac479ac06add9deb01" target="_top" xlink:title=" ">
<polygon fill="white" stroke="#666666" points="152,-232.5 9,-232.5 9,-213.5 152,-213.5 152,-232.5"/>
<text text-anchor="middle" x="80.5" y="-220.5" font-family="Helvetica,sans-Serif" font-size="10.00">BOOST_AUTO_TEST_CASE</text>
</a>
</g>
</g>
<!-- Node8&#45;&gt;Node9 -->
<g id="edge8" class="edge"><title>Node8&#45;&gt;Node9</title>
<path fill="none" stroke="#63b8ff" d="M188.67,-223C176.535,-223 164.117,-223 152.235,-223"/>
<polygon fill="#63b8ff" stroke="#63b8ff" points="188.778,-226.5 198.778,-223 188.778,-219.5 188.778,-226.5"/>
</g>
<!-- Node11 -->
<g id="node11" class="node"><title>Node11</title>
<g id="a_node11"><a xlink:href="equitytrades_8cpp.html#a9157b4f937ae04fa01bdd86ef531a15d" target="_top" xlink:title=" ">
<polygon fill="white" stroke="#666666" points="152,-189.5 9,-189.5 9,-170.5 152,-170.5 152,-189.5"/>
<text text-anchor="middle" x="80.5" y="-177.5" font-family="Helvetica,sans-Serif" font-size="10.00">BOOST_AUTO_TEST_CASE</text>
</a>
</g>
</g>
<!-- Node10&#45;&gt;Node11 -->
<g id="edge10" class="edge"><title>Node10&#45;&gt;Node11</title>
<path fill="none" stroke="#63b8ff" d="M202.724,-176.793C186.321,-177.227 168.747,-177.692 152.213,-178.129"/>
<polygon fill="#63b8ff" stroke="#63b8ff" points="202.863,-180.291 212.767,-176.527 202.678,-173.293 202.863,-180.291"/>
</g>
<!-- Node13 -->
<g id="node13" class="node"><title>Node13</title>
<g id="a_node13"><a xlink:href="classore_1_1data_1_1_commodity_digital_option.html#a82238405f67248d44bb177a6951c8c2e" target="_top" xlink:title="Build underlying instrument and link pricing engine.">
<polygon fill="white" stroke="#666666" points="149,-152 12,-152 12,-122 149,-122 149,-152"/>
<text text-anchor="start" x="20" y="-140" font-family="Helvetica,sans-Serif" font-size="10.00">ore::data::CommodityDigital</text>
<text text-anchor="middle" x="80.5" y="-129" font-family="Helvetica,sans-Serif" font-size="10.00">Option::build</text>
</a>
</g>
</g>
<!-- Node12&#45;&gt;Node13 -->
<g id="edge13" class="edge"><title>Node12&#45;&gt;Node13</title>
<path fill="none" stroke="#63b8ff" d="M191.786,-131.165C177.615,-131.915 162.956,-132.69 149.134,-133.421"/>
<polygon fill="#63b8ff" stroke="#63b8ff" points="192.198,-134.648 201.999,-130.624 191.828,-127.658 192.198,-134.648"/>
</g>
<!-- Node14 -->
<g id="node14" class="node"><title>Node14</title>
<g id="a_node14"><a xlink:href="classore_1_1data_1_1_commodity_average_price_option.html#ab927cfcbbf36bfbbaa854f21f964aced" target="_top" xlink:title="Build a standard option.">
<polygon fill="white" stroke="#666666" points="161,-104 0,-104 0,-74 161,-74 161,-104"/>
<text text-anchor="start" x="8" y="-92" font-family="Helvetica,sans-Serif" font-size="10.00">ore::data::CommodityAverage</text>
<text text-anchor="middle" x="80.5" y="-81" font-family="Helvetica,sans-Serif" font-size="10.00">PriceOption::buildStandardOption</text>
</a>
</g>
</g>
<!-- Node12&#45;&gt;Node14 -->
<g id="edge14" class="edge"><title>Node12&#45;&gt;Node14</title>
<path fill="none" stroke="#63b8ff" d="M192.107,-111.239C180.212,-108.847 167.966,-106.385 156.154,-104.01"/>
<polygon fill="#63b8ff" stroke="#63b8ff" points="191.506,-114.688 201.999,-113.227 192.886,-107.825 191.506,-114.688"/>
</g>
<!-- Node16 -->
<g id="node16" class="node"><title>Node16</title>
<g id="a_node16"><a xlink:href="classore_1_1data_1_1_fx_option_with_barrier.html#a023906d726fdb4d1f906576fe597c579" target="_top" xlink:title=" ">
<polygon fill="white" stroke="#666666" points="346,-78 197,-78 197,-48 346,-48 346,-78"/>
<text text-anchor="start" x="205" y="-66" font-family="Helvetica,sans-Serif" font-size="10.00">ore::data::FxOptionWithBarrier</text>
<text text-anchor="middle" x="271.5" y="-55" font-family="Helvetica,sans-Serif" font-size="10.00">::build</text>
</a>
</g>
</g>
<!-- Node15&#45;&gt;Node16 -->
<g id="edge16" class="edge"><title>Node15&#45;&gt;Node16</title>
<path fill="none" stroke="#63b8ff" d="M383.604,-63C371.376,-63 358.587,-63 346.218,-63"/>
<polygon fill="#63b8ff" stroke="#63b8ff" points="383.722,-66.5001 393.721,-63 383.721,-59.5001 383.722,-66.5001"/>
</g>
<!-- Node18 -->
<g id="node18" class="node"><title>Node18</title>
<g id="a_node18"><a xlink:href="classore_1_1data_1_1_equity_option_with_barrier.html#a023906d726fdb4d1f906576fe597c579" target="_top" xlink:title=" ">
<polygon fill="white" stroke="#666666" points="340,-30 203,-30 203,-0 340,-0 340,-30"/>
<text text-anchor="start" x="211" y="-18" font-family="Helvetica,sans-Serif" font-size="10.00">ore::data::EquityOptionWith</text>
<text text-anchor="middle" x="271.5" y="-7" font-family="Helvetica,sans-Serif" font-size="10.00">Barrier::build</text>
</a>
</g>
</g>
<!-- Node15&#45;&gt;Node18 -->
<g id="edge18" class="edge"><title>Node15&#45;&gt;Node18</title>
<path fill="none" stroke="#63b8ff" d="M385.998,-45.3505C367.151,-40.3106 346.798,-34.868 328.603,-30.0024"/>
<polygon fill="#63b8ff" stroke="#63b8ff" points="385.133,-48.742 395.698,-47.9442 386.941,-41.9796 385.133,-48.742"/>
</g>
<!-- Node17 -->
<g id="node17" class="node"><title>Node17</title>
<g id="a_node17"><a xlink:href="fxexotics_8cpp.html#a97f1cf85be4712888f153506afc004be" target="_top" xlink:title=" ">
<polygon fill="white" stroke="#666666" points="152,-55.5 9,-55.5 9,-36.5 152,-36.5 152,-55.5"/>
<text text-anchor="middle" x="80.5" y="-43.5" font-family="Helvetica,sans-Serif" font-size="10.00">BOOST_AUTO_TEST_CASE</text>
</a>
</g>
</g>
<!-- Node16&#45;&gt;Node17 -->
<g id="edge17" class="edge"><title>Node16&#45;&gt;Node17</title>
<path fill="none" stroke="#63b8ff" d="M186.791,-55.4706C175.219,-54.4297 163.428,-53.3692 152.124,-52.3525"/>
<polygon fill="#63b8ff" stroke="#63b8ff" points="186.613,-58.9687 196.886,-56.3787 187.24,-51.9968 186.613,-58.9687"/>
</g>
</g>
</svg>
