<?xml version="1.0" encoding="UTF-8" standalone="no"?>
<!DOCTYPE svg PUBLIC "-//W3C//DTD SVG 1.1//EN"
 "http://www.w3.org/Graphics/SVG/1.1/DTD/svg11.dtd">
<!-- Generated by graphviz version 2.38.0 (20140413.2041)
 -->
<!-- Title: fromXML Pages: 1 -->
<svg width="899pt" height="1275pt"
 viewBox="0.00 0.00 899.00 1274.50" xmlns="http://www.w3.org/2000/svg" xmlns:xlink="http://www.w3.org/1999/xlink">
<g id="graph0" class="graph" transform="scale(1 1) rotate(0) translate(4 1270.5)">
<title>fromXML</title>
<!-- Node1 -->
<g id="node1" class="node"><title>Node1</title>
<g id="a_node1"><a xlink:title=" ">
<polygon fill="#999999" stroke="#666666" points="54,-669.5 0,-669.5 0,-650.5 54,-650.5 54,-669.5"/>
<text text-anchor="middle" x="27" y="-657.5" font-family="Helvetica,sans-Serif" font-size="10.00">fromXML</text>
</a>
</g>
</g>
<!-- Node2 -->
<g id="node2" class="node"><title>Node2</title>
<g id="a_node2"><a xlink:href="classore_1_1data_1_1_option_data.html#a7741ae0fc924943de5bfe02928262eb7" target="_top" xlink:title=" ">
<polygon fill="white" stroke="#666666" points="209,-923 99,-923 99,-893 209,-893 209,-923"/>
<text text-anchor="start" x="107" y="-911" font-family="Helvetica,sans-Serif" font-size="10.00">ore::data::OptionData</text>
<text text-anchor="middle" x="154" y="-900" font-family="Helvetica,sans-Serif" font-size="10.00">::fromXML</text>
</a>
</g>
</g>
<!-- Node1&#45;&gt;Node2 -->
<g id="edge1" class="edge"><title>Node1&#45;&gt;Node2</title>
<path fill="none" stroke="#63b8ff" d="M32.9001,-669.722C50.9598,-705.552 114.133,-830.888 140.885,-883.964"/>
<polygon fill="#63b8ff" stroke="#63b8ff" points="137.811,-885.641 145.437,-892.995 144.062,-882.49 137.811,-885.641"/>
</g>
<!-- Node6 -->
<g id="node6" class="node"><title>Node6</title>
<g id="a_node6"><a xlink:href="classore_1_1data_1_1_x_m_l_utils.html#a5f2b91a4af900e85c356cfe807e64501" target="_top" xlink:title=" ">
<polygon fill="white" stroke="#666666" points="560.5,-460 461.5,-460 461.5,-430 560.5,-430 560.5,-460"/>
<text text-anchor="start" x="469.5" y="-448" font-family="Helvetica,sans-Serif" font-size="10.00">ore::data::XMLUtils</text>
<text text-anchor="middle" x="511" y="-437" font-family="Helvetica,sans-Serif" font-size="10.00">::getChildNode</text>
</a>
</g>
</g>
<!-- Node1&#45;&gt;Node6 -->
<g id="edge67" class="edge"><title>Node1&#45;&gt;Node6</title>
<path fill="none" stroke="#63b8ff" d="M38.3556,-650.452C68.8531,-622.874 161.983,-542.499 254,-502 318.209,-473.74 397.856,-458.85 451.103,-451.473"/>
<polygon fill="#63b8ff" stroke="#63b8ff" points="451.611,-454.936 461.057,-450.139 450.681,-447.998 451.611,-454.936"/>
</g>
<!-- Node8 -->
<g id="node8" class="node"><title>Node8</title>
<g id="a_node8"><a xlink:href="classore_1_1data_1_1_x_m_l_utils.html#a5a1307174ddefdb3aad6e3bd8cc63b27" target="_top" xlink:title=" ">
<polygon fill="white" stroke="#666666" points="737,-718 638,-718 638,-688 737,-688 737,-718"/>
<text text-anchor="start" x="646" y="-706" font-family="Helvetica,sans-Serif" font-size="10.00">ore::data::XMLUtils</text>
<text text-anchor="middle" x="687.5" y="-695" font-family="Helvetica,sans-Serif" font-size="10.00">::getChildValue</text>
</a>
</g>
</g>
<!-- Node1&#45;&gt;Node8 -->
<g id="edge68" class="edge"><title>Node1&#45;&gt;Node8</title>
<path fill="none" stroke="#63b8ff" d="M54.1542,-659.108C133.897,-656.769 380.84,-652.356 583,-679 597.71,-680.939 613.394,-684.029 627.988,-687.355"/>
<polygon fill="#63b8ff" stroke="#63b8ff" points="627.356,-690.802 637.892,-689.684 628.959,-683.987 627.356,-690.802"/>
</g>
<!-- Node9 -->
<g id="node9" class="node"><title>Node9</title>
<g id="a_node9"><a xlink:href="classore_1_1data_1_1_x_m_l_utils.html#a6704501b110fa9d056096df3e05f0df2" target="_top" xlink:title="Get a node&#39;s value.">
<polygon fill="white" stroke="#666666" points="891,-877 792,-877 792,-847 891,-847 891,-877"/>
<text text-anchor="start" x="800" y="-865" font-family="Helvetica,sans-Serif" font-size="10.00">ore::data::XMLUtils</text>
<text text-anchor="middle" x="841.5" y="-854" font-family="Helvetica,sans-Serif" font-size="10.00">::getNodeValue</text>
</a>
</g>
</g>
<!-- Node1&#45;&gt;Node9 -->
<g id="edge70" class="edge"><title>Node1&#45;&gt;Node9</title>
<path fill="none" stroke="#63b8ff" d="M27.7882,-650.416C26.5265,-569.253 28.3412,-0 327.5,-0 327.5,-0 327.5,-0 512,-0 562.715,-0 722.495,-27.4644 756,-67 807.009,-127.19 834.066,-707.602 839.48,-836.658"/>
<polygon fill="#63b8ff" stroke="#63b8ff" points="835.988,-836.921 839.898,-846.768 842.982,-836.632 835.988,-836.921"/>
</g>
<!-- Node10 -->
<g id="node10" class="node"><title>Node10</title>
<g id="a_node10"><a xlink:href="classore_1_1data_1_1_x_m_l_utils.html#a450d9b1fe5949d01160aeb42654d7f1d" target="_top" xlink:title=" ">
<polygon fill="white" stroke="#666666" points="573.5,-766 448.5,-766 448.5,-736 573.5,-736 573.5,-766"/>
<text text-anchor="start" x="456.5" y="-754" font-family="Helvetica,sans-Serif" font-size="10.00">ore::data::XMLUtils</text>
<text text-anchor="middle" x="511" y="-743" font-family="Helvetica,sans-Serif" font-size="10.00">::getChildValueAsDouble</text>
</a>
</g>
</g>
<!-- Node1&#45;&gt;Node10 -->
<g id="edge69" class="edge"><title>Node1&#45;&gt;Node10</title>
<path fill="none" stroke="#63b8ff" d="M54.1949,-666.164C65.2266,-668.695 78.2158,-671.59 90,-674 211.962,-698.939 354.636,-724.291 438.373,-738.784"/>
<polygon fill="#63b8ff" stroke="#63b8ff" points="437.838,-742.244 448.288,-740.497 439.029,-735.346 437.838,-742.244"/>
</g>
<!-- Node12 -->
<g id="node12" class="node"><title>Node12</title>
<g id="a_node12"><a xlink:href="group__utilities.html#ga59b5fdda574d90facae95dec2d13040d" target="_top" xlink:title="Convert std::string to QuantLib::Date.">
<polygon fill="white" stroke="#666666" points="563.5,-1193.5 458.5,-1193.5 458.5,-1174.5 563.5,-1174.5 563.5,-1193.5"/>
<text text-anchor="middle" x="511" y="-1181.5" font-family="Helvetica,sans-Serif" font-size="10.00">ore::data::parseDate</text>
</a>
</g>
</g>
<!-- Node1&#45;&gt;Node12 -->
<g id="edge72" class="edge"><title>Node1&#45;&gt;Node12</title>
<path fill="none" stroke="#63b8ff" d="M28.6242,-669.698C33.038,-729.062 65.1356,-1044.45 254,-1154 313.366,-1188.43 393.48,-1192.38 448.177,-1190"/>
<polygon fill="#63b8ff" stroke="#63b8ff" points="448.617,-1193.49 458.423,-1189.47 448.255,-1186.5 448.617,-1193.49"/>
</g>
<!-- Node20 -->
<g id="node20" class="node"><title>Node20</title>
<g id="a_node20"><a xlink:href="group__utilities.html#ga94621f11193864fa1338296232dc5be9" target="_top" xlink:title="Convert text to bool.">
<polygon fill="white" stroke="#666666" points="563,-1248.5 459,-1248.5 459,-1229.5 563,-1229.5 563,-1248.5"/>
<text text-anchor="middle" x="511" y="-1236.5" font-family="Helvetica,sans-Serif" font-size="10.00">ore::data::parseBool</text>
</a>
</g>
</g>
<!-- Node1&#45;&gt;Node20 -->
<g id="edge71" class="edge"><title>Node1&#45;&gt;Node20</title>
<path fill="none" stroke="#63b8ff" d="M28.6304,-669.821C32.2147,-723.527 51.2503,-981.731 90,-1050 136.882,-1132.6 168.404,-1145.85 254,-1187 316.206,-1216.91 394.926,-1229.63 448.541,-1235.04"/>
<polygon fill="#63b8ff" stroke="#63b8ff" points="448.296,-1238.53 458.583,-1235.99 448.96,-1231.56 448.296,-1238.53"/>
</g>
<!-- Node21 -->
<g id="node21" class="node"><title>Node21</title>
<g id="a_node21"><a xlink:href="classore_1_1data_1_1_trade.html#a7741ae0fc924943de5bfe02928262eb7" target="_top" xlink:title=" ">
<polygon fill="white" stroke="#666666" points="218,-272.5 90,-272.5 90,-253.5 218,-253.5 218,-272.5"/>
<text text-anchor="middle" x="154" y="-260.5" font-family="Helvetica,sans-Serif" font-size="10.00">ore::data::Trade::fromXML</text>
</a>
</g>
</g>
<!-- Node1&#45;&gt;Node21 -->
<g id="edge37" class="edge"><title>Node1&#45;&gt;Node21</title>
<path fill="none" stroke="#63b8ff" d="M31.0899,-650.186C47.47,-598.163 124.252,-354.305 146.775,-282.771"/>
<polygon fill="#63b8ff" stroke="#63b8ff" points="150.241,-283.415 149.906,-272.826 143.564,-281.313 150.241,-283.415"/>
</g>
<!-- Node29 -->
<g id="node29" class="node"><title>Node29</title>
<g id="a_node29"><a xlink:href="classore_1_1data_1_1_trade_strike.html#a6c15037ae8b60dd252ad751b1bf70a3a" target="_top" xlink:title=" ">
<polygon fill="white" stroke="#666666" points="383.5,-625 273.5,-625 273.5,-595 383.5,-595 383.5,-625"/>
<text text-anchor="start" x="281.5" y="-613" font-family="Helvetica,sans-Serif" font-size="10.00">ore::data::TradeStrike</text>
<text text-anchor="middle" x="328.5" y="-602" font-family="Helvetica,sans-Serif" font-size="10.00">::fromXML</text>
</a>
</g>
</g>
<!-- Node1&#45;&gt;Node29 -->
<g id="edge57" class="edge"><title>Node1&#45;&gt;Node29</title>
<path fill="none" stroke="#63b8ff" d="M54.1595,-653.656C65.1855,-651.096 78.18,-648.227 90,-646 148.348,-635.005 215.254,-625.105 263.152,-618.483"/>
<polygon fill="#63b8ff" stroke="#63b8ff" points="263.644,-621.948 273.075,-617.12 262.692,-615.013 263.644,-621.948"/>
</g>
<!-- Node3 -->
<g id="node3" class="node"><title>Node3</title>
<g id="a_node3"><a xlink:href="classore_1_1data_1_1_x_m_l_utils.html#a37c092916f4bdf10d4fbf6bb9e474db7" target="_top" xlink:title=" ">
<polygon fill="white" stroke="#666666" points="560.5,-58 461.5,-58 461.5,-28 560.5,-28 560.5,-58"/>
<text text-anchor="start" x="469.5" y="-46" font-family="Helvetica,sans-Serif" font-size="10.00">ore::data::XMLUtils</text>
<text text-anchor="middle" x="511" y="-35" font-family="Helvetica,sans-Serif" font-size="10.00">::checkNode</text>
</a>
</g>
</g>
<!-- Node2&#45;&gt;Node3 -->
<g id="edge2" class="edge"><title>Node2&#45;&gt;Node3</title>
<path fill="none" stroke="#63b8ff" d="M156.073,-892.999C163.227,-794.76 205.234,-245.586 254,-191 299.532,-140.034 351.263,-197.653 403,-153 434.368,-125.927 408.686,-95.2493 439,-67 442.886,-63.3782 447.339,-60.3013 452.079,-57.6874"/>
<polygon fill="#63b8ff" stroke="#63b8ff" points="453.951,-60.6721 461.473,-53.2102 450.94,-54.353 453.951,-60.6721"/>
</g>
<!-- Node4 -->
<g id="node4" class="node"><title>Node4</title>
<g id="a_node4"><a xlink:href="classore_1_1data_1_1_premium_data.html#a7741ae0fc924943de5bfe02928262eb7" target="_top" xlink:title=" ">
<polygon fill="white" stroke="#666666" points="388.5,-885 268.5,-885 268.5,-855 388.5,-855 388.5,-885"/>
<text text-anchor="start" x="276.5" y="-873" font-family="Helvetica,sans-Serif" font-size="10.00">ore::data::PremiumData</text>
<text text-anchor="middle" x="328.5" y="-862" font-family="Helvetica,sans-Serif" font-size="10.00">::fromXML</text>
</a>
</g>
</g>
<!-- Node2&#45;&gt;Node4 -->
<g id="edge3" class="edge"><title>Node2&#45;&gt;Node4</title>
<path fill="none" stroke="#63b8ff" d="M209.107,-896.081C224.735,-892.638 242.006,-888.833 258.414,-885.219"/>
<polygon fill="#63b8ff" stroke="#63b8ff" points="259.483,-888.567 268.496,-882.998 257.977,-881.731 259.483,-888.567"/>
</g>
<!-- Node2&#45;&gt;Node6 -->
<g id="edge23" class="edge"><title>Node2&#45;&gt;Node6</title>
<path fill="none" stroke="#63b8ff" d="M155.782,-892.715C159.065,-842.999 175.509,-683.488 254,-586 301.675,-526.786 341.468,-546.643 403,-502 420.568,-489.254 420.316,-480.047 439,-469 443.123,-466.562 447.529,-464.329 452.05,-462.293"/>
<polygon fill="#63b8ff" stroke="#63b8ff" points="453.552,-465.459 461.44,-458.385 450.863,-458.996 453.552,-465.459"/>
</g>
<!-- Node2&#45;&gt;Node8 -->
<g id="edge29" class="edge"><title>Node2&#45;&gt;Node8</title>
<path fill="none" stroke="#63b8ff" d="M174.732,-892.733C193.951,-878.591 224.504,-857.988 254,-846 323.29,-817.839 514.41,-804.826 583,-775 612.156,-762.322 641.546,-740.852 661.518,-724.648"/>
<polygon fill="#63b8ff" stroke="#63b8ff" points="663.999,-727.138 669.473,-718.067 659.537,-721.745 663.999,-727.138"/>
</g>
<!-- Node2&#45;&gt;Node9 -->
<g id="edge34" class="edge"><title>Node2&#45;&gt;Node9</title>
<path fill="none" stroke="#63b8ff" d="M190.561,-923.038C200.278,-928.333 210.253,-935.001 218,-943 242.338,-968.131 224.137,-994.777 254,-1013 310.529,-1047.49 336.905,-1017.1 403,-1013 560.799,-1003.2 618.263,-1046.62 756,-969 789.828,-949.936 815,-911.369 828.718,-886.121"/>
<polygon fill="#63b8ff" stroke="#63b8ff" points="831.87,-887.647 833.41,-877.165 825.669,-884.399 831.87,-887.647"/>
</g>
<!-- Node11 -->
<g id="node11" class="node"><title>Node11</title>
<g id="a_node11"><a xlink:href="group__utilities.html#gad1db2a68f9a73667c3b4084d63955bdd" target="_top" xlink:title="Convert text to Real.">
<polygon fill="white" stroke="#666666" points="739.5,-917.5 635.5,-917.5 635.5,-898.5 739.5,-898.5 739.5,-917.5"/>
<text text-anchor="middle" x="687.5" y="-905.5" font-family="Helvetica,sans-Serif" font-size="10.00">ore::data::parseReal</text>
</a>
</g>
</g>
<!-- Node2&#45;&gt;Node11 -->
<g id="edge36" class="edge"><title>Node2&#45;&gt;Node11</title>
<path fill="none" stroke="#63b8ff" d="M209.051,-908.374C290.242,-908.881 448.508,-909.65 583,-909 596.603,-908.934 611.212,-908.82 625.042,-908.692"/>
<polygon fill="#63b8ff" stroke="#63b8ff" points="625.471,-912.188 635.437,-908.591 625.403,-905.188 625.471,-912.188"/>
</g>
<!-- Node15 -->
<g id="node15" class="node"><title>Node15</title>
<g id="a_node15"><a xlink:href="classore_1_1data_1_1_schedule_data.html#a7741ae0fc924943de5bfe02928262eb7" target="_top" xlink:title=" ">
<polygon fill="white" stroke="#666666" points="389.5,-374 267.5,-374 267.5,-344 389.5,-344 389.5,-374"/>
<text text-anchor="start" x="275.5" y="-362" font-family="Helvetica,sans-Serif" font-size="10.00">ore::data::ScheduleData</text>
<text text-anchor="middle" x="328.5" y="-351" font-family="Helvetica,sans-Serif" font-size="10.00">::fromXML</text>
</a>
</g>
</g>
<!-- Node2&#45;&gt;Node15 -->
<g id="edge20" class="edge"><title>Node2&#45;&gt;Node15</title>
<path fill="none" stroke="#63b8ff" d="M158.381,-892.682C169.772,-841.775 208.585,-673.831 254,-539 273.123,-482.226 301.058,-417.657 316.395,-383.39"/>
<polygon fill="#63b8ff" stroke="#63b8ff" points="319.635,-384.72 320.548,-374.164 313.252,-381.846 319.635,-384.72"/>
</g>
<!-- Node17 -->
<g id="node17" class="node"><title>Node17</title>
<g id="a_node17"><a xlink:href="classore_1_1data_1_1_x_m_l_utils.html#aaf4e8600c620cb901bd271e3ec76d702" target="_top" xlink:title=" ">
<polygon fill="white" stroke="#666666" points="561.5,-1118 460.5,-1118 460.5,-1088 561.5,-1088 561.5,-1118"/>
<text text-anchor="start" x="468.5" y="-1106" font-family="Helvetica,sans-Serif" font-size="10.00">ore::data::XMLUtils</text>
<text text-anchor="middle" x="511" y="-1095" font-family="Helvetica,sans-Serif" font-size="10.00">::getChildrenValues</text>
</a>
</g>
</g>
<!-- Node2&#45;&gt;Node17 -->
<g id="edge24" class="edge"><title>Node2&#45;&gt;Node17</title>
<path fill="none" stroke="#63b8ff" d="M159.96,-923.422C171.101,-955.354 201.339,-1028.6 254,-1063 312.552,-1101.25 394.411,-1107.8 449.669,-1107.04"/>
<polygon fill="#63b8ff" stroke="#63b8ff" points="450.089,-1110.53 460.008,-1106.8 449.932,-1103.53 450.089,-1110.53"/>
</g>
<!-- Node18 -->
<g id="node18" class="node"><title>Node18</title>
<g id="a_node18"><a xlink:href="classore_1_1data_1_1_x_m_l_utils.html#a22d59f6c82230e427e33c739b8f18f1d" target="_top" xlink:title=" ">
<polygon fill="white" stroke="#666666" points="403,-1004 254,-1004 254,-974 403,-974 403,-1004"/>
<text text-anchor="start" x="262" y="-992" font-family="Helvetica,sans-Serif" font-size="10.00">ore::data::XMLUtils</text>
<text text-anchor="middle" x="328.5" y="-981" font-family="Helvetica,sans-Serif" font-size="10.00">::getChildrenValuesAsDoubles</text>
</a>
</g>
</g>
<!-- Node2&#45;&gt;Node18 -->
<g id="edge26" class="edge"><title>Node2&#45;&gt;Node18</title>
<path fill="none" stroke="#63b8ff" d="M181.92,-923.148C201.61,-933.979 229.115,-948.595 254,-960 261.619,-963.492 269.787,-966.968 277.809,-970.238"/>
<polygon fill="#63b8ff" stroke="#63b8ff" points="276.532,-973.497 287.117,-973.971 279.138,-967 276.532,-973.497"/>
</g>
<!-- Node19 -->
<g id="node19" class="node"><title>Node19</title>
<g id="a_node19"><a xlink:href="classore_1_1data_1_1_x_m_l_utils.html#a5dc9d9e82028f69de452d27da6b43db0" target="_top" xlink:title=" ">
<polygon fill="white" stroke="#666666" points="385.5,-1145 271.5,-1145 271.5,-1115 385.5,-1115 385.5,-1145"/>
<text text-anchor="start" x="279.5" y="-1133" font-family="Helvetica,sans-Serif" font-size="10.00">ore::data::XMLUtils</text>
<text text-anchor="middle" x="328.5" y="-1122" font-family="Helvetica,sans-Serif" font-size="10.00">::getChildValueAsBool</text>
</a>
</g>
</g>
<!-- Node2&#45;&gt;Node19 -->
<g id="edge30" class="edge"><title>Node2&#45;&gt;Node19</title>
<path fill="none" stroke="#63b8ff" d="M158.761,-923.054C168.439,-958.834 197.498,-1049.79 254,-1101 257.778,-1104.42 262.009,-1107.47 266.481,-1110.16"/>
<polygon fill="#63b8ff" stroke="#63b8ff" points="264.861,-1113.27 275.323,-1114.94 268.186,-1107.11 264.861,-1113.27"/>
</g>
<!-- Node2&#45;&gt;Node20 -->
<g id="edge35" class="edge"><title>Node2&#45;&gt;Node20</title>
<path fill="none" stroke="#63b8ff" d="M156.77,-923.09C162.539,-965.558 184.619,-1087.34 254,-1154 307.119,-1205.04 391.618,-1225.45 448.875,-1233.6"/>
<polygon fill="#63b8ff" stroke="#63b8ff" points="448.505,-1237.08 458.881,-1234.94 449.434,-1230.14 448.505,-1237.08"/>
</g>
<!-- Node5 -->
<g id="node5" class="node"><title>Node5</title>
<g id="a_node5"><a target="_parent" xlink:href="../qle/namespace_quant_ext.html#a1cab4fb6a720eff245acb9f3a7a9e7c5" xlink:title=" ">
<polygon fill="white" stroke="#666666" points="573,-879.5 449,-879.5 449,-860.5 573,-860.5 573,-879.5"/>
<text text-anchor="middle" x="511" y="-867.5" font-family="Helvetica,sans-Serif" font-size="10.00">QuantExt::close_enough</text>
</a>
</g>
</g>
<!-- Node4&#45;&gt;Node5 -->
<g id="edge4" class="edge"><title>Node4&#45;&gt;Node5</title>
<path fill="none" stroke="#63b8ff" d="M388.602,-870C404.61,-870 422.107,-870 438.707,-870"/>
<polygon fill="#63b8ff" stroke="#63b8ff" points="438.907,-873.5 448.907,-870 438.907,-866.5 438.907,-873.5"/>
</g>
<!-- Node4&#45;&gt;Node6 -->
<g id="edge5" class="edge"><title>Node4&#45;&gt;Node6</title>
<path fill="none" stroke="#63b8ff" d="M334.69,-854.947C347.404,-817.758 380.687,-718.43 403,-634 422.178,-561.433 388.956,-524.941 439,-469 442.741,-464.818 447.237,-461.364 452.126,-458.511"/>
<polygon fill="#63b8ff" stroke="#63b8ff" points="453.855,-461.561 461.275,-453.998 450.759,-455.283 453.855,-461.561"/>
</g>
<!-- Node7 -->
<g id="node7" class="node"><title>Node7</title>
<g id="a_node7"><a xlink:href="classore_1_1data_1_1_x_m_l_utils.html#a42678b2a0d7c4052dc19123914359ec1" target="_top" xlink:title="Returns all the children with a given name.">
<polygon fill="white" stroke="#666666" points="560.5,-374 461.5,-374 461.5,-344 560.5,-344 560.5,-374"/>
<text text-anchor="start" x="469.5" y="-362" font-family="Helvetica,sans-Serif" font-size="10.00">ore::data::XMLUtils</text>
<text text-anchor="middle" x="511" y="-351" font-family="Helvetica,sans-Serif" font-size="10.00">::getChildrenNodes</text>
</a>
</g>
</g>
<!-- Node4&#45;&gt;Node7 -->
<g id="edge6" class="edge"><title>Node4&#45;&gt;Node7</title>
<path fill="none" stroke="#63b8ff" d="M335.042,-854.737C348.396,-817.479 382.744,-718.726 403,-634 425.325,-540.622 392.114,-504.782 439,-421 448.067,-404.798 463.042,-390.78 476.908,-380.192"/>
<polygon fill="#63b8ff" stroke="#63b8ff" points="479.313,-382.77 485.335,-374.053 475.191,-377.112 479.313,-382.77"/>
</g>
<!-- Node4&#45;&gt;Node8 -->
<g id="edge7" class="edge"><title>Node4&#45;&gt;Node8</title>
<path fill="none" stroke="#63b8ff" d="M388.76,-859.391C452.831,-847.245 550.197,-826.618 583,-808 619.282,-787.408 651.317,-750.476 669.807,-726.357"/>
<polygon fill="#63b8ff" stroke="#63b8ff" points="672.795,-728.206 675.989,-718.104 667.193,-724.009 672.795,-728.206"/>
</g>
<!-- Node4&#45;&gt;Node9 -->
<g id="edge13" class="edge"><title>Node4&#45;&gt;Node9</title>
<path fill="none" stroke="#63b8ff" d="M357.557,-885.049C427.45,-920.411 613.925,-1001.6 756,-944 785.044,-932.224 809.607,-905.143 824.639,-885.313"/>
<polygon fill="#63b8ff" stroke="#63b8ff" points="827.596,-887.197 830.67,-877.058 821.944,-883.068 827.596,-887.197"/>
</g>
<!-- Node4&#45;&gt;Node10 -->
<g id="edge9" class="edge"><title>Node4&#45;&gt;Node10</title>
<path fill="none" stroke="#63b8ff" d="M352.36,-854.929C384.28,-833.884 442.331,-795.613 478.379,-771.847"/>
<polygon fill="#63b8ff" stroke="#63b8ff" points="480.618,-774.563 487.041,-766.137 476.765,-768.719 480.618,-774.563"/>
</g>
<!-- Node4&#45;&gt;Node11 -->
<g id="edge19" class="edge"><title>Node4&#45;&gt;Node11</title>
<path fill="none" stroke="#63b8ff" d="M388.758,-880.655C405.007,-883.327 422.65,-885.999 439,-888 502.25,-895.741 574.974,-901.21 625.144,-904.451"/>
<polygon fill="#63b8ff" stroke="#63b8ff" points="624.98,-907.947 635.182,-905.089 625.424,-900.961 624.98,-907.947"/>
</g>
<!-- Node4&#45;&gt;Node12 -->
<g id="edge14" class="edge"><title>Node4&#45;&gt;Node12</title>
<path fill="none" stroke="#63b8ff" d="M344.612,-885.031C361.439,-902.65 388.212,-933.471 403,-965 434.321,-1031.78 400.04,-1064.37 439,-1127 449.958,-1144.62 468.341,-1159.15 483.656,-1169.13"/>
<polygon fill="#63b8ff" stroke="#63b8ff" points="481.9,-1172.16 492.239,-1174.47 485.598,-1166.22 481.9,-1172.16"/>
</g>
<!-- Node8&#45;&gt;Node9 -->
<g id="edge8" class="edge"><title>Node8&#45;&gt;Node9</title>
<path fill="none" stroke="#63b8ff" d="M703.074,-718.246C729.903,-746.309 787.233,-806.28 818.705,-839.201"/>
<polygon fill="#63b8ff" stroke="#63b8ff" points="816.306,-841.757 825.746,-846.567 821.366,-836.92 816.306,-841.757"/>
</g>
<!-- Node10&#45;&gt;Node8 -->
<g id="edge10" class="edge"><title>Node10&#45;&gt;Node8</title>
<path fill="none" stroke="#63b8ff" d="M566.734,-735.944C586.229,-730.582 608.252,-724.524 628.047,-719.079"/>
<polygon fill="#63b8ff" stroke="#63b8ff" points="629.153,-722.405 637.867,-716.378 627.296,-715.655 629.153,-722.405"/>
</g>
<!-- Node10&#45;&gt;Node11 -->
<g id="edge11" class="edge"><title>Node10&#45;&gt;Node11</title>
<path fill="none" stroke="#63b8ff" d="M528.732,-766.054C561.446,-795.487 633.667,-860.465 667.857,-891.227"/>
<polygon fill="#63b8ff" stroke="#63b8ff" points="665.908,-894.181 675.683,-898.268 670.59,-888.977 665.908,-894.181"/>
</g>
<!-- Node11&#45;&gt;Node11 -->
<g id="edge12" class="edge"><title>Node11&#45;&gt;Node11</title>
<path fill="none" stroke="#63b8ff" d="M663.764,-917.583C652.217,-926.234 660.129,-935.5 687.5,-935.5 705.462,-935.5 715.044,-931.509 716.246,-926.321"/>
<polygon fill="#63b8ff" stroke="#63b8ff" points="719.246,-924.517 711.236,-917.583 713.174,-927.999 719.246,-924.517"/>
</g>
<!-- Node12&#45;&gt;Node12 -->
<g id="edge15" class="edge"><title>Node12&#45;&gt;Node12</title>
<path fill="none" stroke="#63b8ff" d="M483.873,-1193.58C470.677,-1202.23 479.719,-1211.5 511,-1211.5 532.017,-1211.5 542.995,-1207.32 543.934,-1201.95"/>
<polygon fill="#63b8ff" stroke="#63b8ff" points="546.705,-1199.8 538.127,-1193.58 540.954,-1203.79 546.705,-1199.8"/>
</g>
<!-- Node13 -->
<g id="node13" class="node"><title>Node13</title>
<g id="a_node13"><a xlink:href="group__utilities.html#gaecd67eda4fb5f4859bb8f6d383547721" target="_top" xlink:title="Convert text to QuantLib::Integer.">
<polygon fill="white" stroke="#666666" points="744.5,-1211.5 630.5,-1211.5 630.5,-1192.5 744.5,-1192.5 744.5,-1211.5"/>
<text text-anchor="middle" x="687.5" y="-1199.5" font-family="Helvetica,sans-Serif" font-size="10.00">ore::data::parseInteger</text>
</a>
</g>
</g>
<!-- Node12&#45;&gt;Node13 -->
<g id="edge16" class="edge"><title>Node12&#45;&gt;Node13</title>
<path fill="none" stroke="#63b8ff" d="M563.883,-1189.35C581.515,-1191.17 601.466,-1193.23 620.075,-1195.15"/>
<polygon fill="#63b8ff" stroke="#63b8ff" points="619.945,-1198.65 630.251,-1196.2 620.663,-1191.69 619.945,-1198.65"/>
</g>
<!-- Node14 -->
<g id="node14" class="node"><title>Node14</title>
<g id="a_node14"><a xlink:href="namespaceore_1_1data.html#a777e216dee6069b548bb87da7152699e" target="_top" xlink:title=" ">
<polygon fill="white" stroke="#666666" points="727,-1174.5 648,-1174.5 648,-1155.5 727,-1155.5 727,-1174.5"/>
<text text-anchor="middle" x="687.5" y="-1162.5" font-family="Helvetica,sans-Serif" font-size="10.00">ore::data::size</text>
</a>
</g>
</g>
<!-- Node12&#45;&gt;Node14 -->
<g id="edge18" class="edge"><title>Node12&#45;&gt;Node14</title>
<path fill="none" stroke="#63b8ff" d="M563.883,-1178.35C587.232,-1175.81 614.648,-1172.82 637.628,-1170.32"/>
<polygon fill="#63b8ff" stroke="#63b8ff" points="638.281,-1173.77 647.844,-1169.21 637.524,-1166.81 638.281,-1173.77"/>
</g>
<!-- Node13&#45;&gt;Node13 -->
<g id="edge17" class="edge"><title>Node13&#45;&gt;Node13</title>
<path fill="none" stroke="#63b8ff" d="M663.764,-1211.58C652.217,-1220.23 660.129,-1229.5 687.5,-1229.5 705.462,-1229.5 715.044,-1225.51 716.246,-1220.32"/>
<polygon fill="#63b8ff" stroke="#63b8ff" points="719.246,-1218.52 711.236,-1211.58 713.174,-1222 719.246,-1218.52"/>
</g>
<!-- Node15&#45;&gt;Node7 -->
<g id="edge21" class="edge"><title>Node15&#45;&gt;Node7</title>
<path fill="none" stroke="#63b8ff" d="M389.604,-359C409.428,-359 431.445,-359 451.172,-359"/>
<polygon fill="#63b8ff" stroke="#63b8ff" points="451.256,-362.5 461.256,-359 451.256,-355.5 451.256,-362.5"/>
</g>
<!-- Node16 -->
<g id="node16" class="node"><title>Node16</title>
<g id="a_node16"><a xlink:href="classore_1_1data_1_1_x_m_l_utils.html#a4e041c36cab0a16681fb41dfbd991882" target="_top" xlink:title="Get and set a node&#39;s name.">
<polygon fill="white" stroke="#666666" points="560.5,-326 461.5,-326 461.5,-296 560.5,-296 560.5,-326"/>
<text text-anchor="start" x="469.5" y="-314" font-family="Helvetica,sans-Serif" font-size="10.00">ore::data::XMLUtils</text>
<text text-anchor="middle" x="511" y="-303" font-family="Helvetica,sans-Serif" font-size="10.00">::getNodeName</text>
</a>
</g>
</g>
<!-- Node15&#45;&gt;Node16 -->
<g id="edge22" class="edge"><title>Node15&#45;&gt;Node16</title>
<path fill="none" stroke="#63b8ff" d="M386.116,-343.944C407.001,-338.39 430.691,-332.091 451.721,-326.498"/>
<polygon fill="#63b8ff" stroke="#63b8ff" points="452.726,-329.853 461.49,-323.9 450.927,-323.088 452.726,-329.853"/>
</g>
<!-- Node17&#45;&gt;Node9 -->
<g id="edge25" class="edge"><title>Node17&#45;&gt;Node9</title>
<path fill="none" stroke="#63b8ff" d="M561.901,-1110.91C615.466,-1116.53 700.344,-1116.74 756,-1074 815.948,-1027.96 833.474,-932.811 838.514,-887.311"/>
<polygon fill="#63b8ff" stroke="#63b8ff" points="842.02,-887.42 839.522,-877.124 835.054,-886.73 842.02,-887.42"/>
</g>
<!-- Node18&#45;&gt;Node11 -->
<g id="edge28" class="edge"><title>Node18&#45;&gt;Node11</title>
<path fill="none" stroke="#63b8ff" d="M403.253,-987.373C454.579,-984.604 524.099,-977.56 583,-960 612.078,-951.331 642.835,-934.816 663.19,-922.716"/>
<polygon fill="#63b8ff" stroke="#63b8ff" points="665.033,-925.691 671.767,-917.511 661.402,-919.707 665.033,-925.691"/>
</g>
<!-- Node18&#45;&gt;Node17 -->
<g id="edge27" class="edge"><title>Node18&#45;&gt;Node17</title>
<path fill="none" stroke="#63b8ff" d="M353.469,-1004.14C385.383,-1024.29 441.943,-1060.02 477.625,-1082.55"/>
<polygon fill="#63b8ff" stroke="#63b8ff" points="475.895,-1085.6 486.219,-1087.98 479.633,-1079.68 475.895,-1085.6"/>
</g>
<!-- Node19&#45;&gt;Node8 -->
<g id="edge31" class="edge"><title>Node19&#45;&gt;Node8</title>
<path fill="none" stroke="#63b8ff" d="M385.683,-1137.43C451.346,-1144.77 554.657,-1151.67 583,-1127 623.346,-1091.88 605.812,-940.839 619,-889 634.109,-829.611 660.938,-762.672 675.816,-727.544"/>
<polygon fill="#63b8ff" stroke="#63b8ff" points="679.137,-728.68 679.85,-718.109 672.701,-725.928 679.137,-728.68"/>
</g>
<!-- Node19&#45;&gt;Node20 -->
<g id="edge32" class="edge"><title>Node19&#45;&gt;Node20</title>
<path fill="none" stroke="#63b8ff" d="M380.63,-1145.03C388.639,-1148.78 396.428,-1153.39 403,-1159 426.941,-1179.44 413.931,-1200.96 439,-1220 442.223,-1222.45 445.737,-1224.58 449.421,-1226.44"/>
<polygon fill="#63b8ff" stroke="#63b8ff" points="448.291,-1229.76 458.859,-1230.52 451.067,-1223.34 448.291,-1229.76"/>
</g>
<!-- Node20&#45;&gt;Node20 -->
<g id="edge33" class="edge"><title>Node20&#45;&gt;Node20</title>
<path fill="none" stroke="#63b8ff" d="M483.873,-1248.58C470.677,-1257.23 479.719,-1266.5 511,-1266.5 532.017,-1266.5 542.995,-1262.32 543.934,-1256.95"/>
<polygon fill="#63b8ff" stroke="#63b8ff" points="546.705,-1254.8 538.127,-1248.58 540.954,-1258.79 546.705,-1254.8"/>
</g>
<!-- Node21&#45;&gt;Node3 -->
<g id="edge38" class="edge"><title>Node21&#45;&gt;Node3</title>
<path fill="none" stroke="#63b8ff" d="M158.098,-253.378C167.561,-225.601 198.846,-144.737 254,-105 312.331,-62.9742 395.566,-49.1833 451.118,-44.7978"/>
<polygon fill="#63b8ff" stroke="#63b8ff" points="451.43,-48.2845 461.157,-44.0837 450.933,-41.3022 451.43,-48.2845"/>
</g>
<!-- Node21&#45;&gt;Node6 -->
<g id="edge55" class="edge"><title>Node21&#45;&gt;Node6</title>
<path fill="none" stroke="#63b8ff" d="M157.97,-272.655C167.084,-300.47 197.52,-381.01 254,-416 313.476,-452.846 395.844,-455.492 450.926,-451.975"/>
<polygon fill="#63b8ff" stroke="#63b8ff" points="451.503,-455.443 461.223,-451.226 450.995,-448.461 451.503,-455.443"/>
</g>
<!-- Node21&#45;&gt;Node8 -->
<g id="edge56" class="edge"><title>Node21&#45;&gt;Node8</title>
<path fill="none" stroke="#63b8ff" d="M159.603,-272.585C171.47,-296.107 205.595,-356.682 254,-383 383.316,-453.309 467.354,-329.939 583,-421 665.012,-485.577 682.05,-621.562 685.581,-677.816"/>
<polygon fill="#63b8ff" stroke="#63b8ff" points="682.094,-678.16 686.123,-687.959 689.085,-677.787 682.094,-678.16"/>
</g>
<!-- Node22 -->
<g id="node22" class="node"><title>Node22</title>
<g id="a_node22"><a xlink:href="classore_1_1data_1_1_trade_actions.html#ac8bb3912a3ce86b15842e79d0b421204" target="_top" xlink:title="Clear the trade actions.">
<polygon fill="white" stroke="#666666" points="387.5,-144 269.5,-144 269.5,-114 387.5,-114 387.5,-144"/>
<text text-anchor="start" x="277.5" y="-132" font-family="Helvetica,sans-Serif" font-size="10.00">ore::data::TradeActions</text>
<text text-anchor="middle" x="328.5" y="-121" font-family="Helvetica,sans-Serif" font-size="10.00">::clear</text>
</a>
</g>
</g>
<!-- Node21&#45;&gt;Node22 -->
<g id="edge39" class="edge"><title>Node21&#45;&gt;Node22</title>
<path fill="none" stroke="#63b8ff" d="M161.84,-253.25C176.538,-232.936 213.134,-185.677 254,-158 259.218,-154.466 264.929,-151.267 270.79,-148.396"/>
<polygon fill="#63b8ff" stroke="#63b8ff" points="272.432,-151.494 280.072,-144.153 269.522,-145.127 272.432,-151.494"/>
</g>
<!-- Node23 -->
<g id="node23" class="node"><title>Node23</title>
<g id="a_node23"><a xlink:href="classore_1_1data_1_1_envelope.html#a7741ae0fc924943de5bfe02928262eb7" target="_top" xlink:title=" ">
<polygon fill="white" stroke="#666666" points="378.5,-278 278.5,-278 278.5,-248 378.5,-248 378.5,-278"/>
<text text-anchor="start" x="286.5" y="-266" font-family="Helvetica,sans-Serif" font-size="10.00">ore::data::Envelope</text>
<text text-anchor="middle" x="328.5" y="-255" font-family="Helvetica,sans-Serif" font-size="10.00">::fromXML</text>
</a>
</g>
</g>
<!-- Node21&#45;&gt;Node23 -->
<g id="edge40" class="edge"><title>Node21&#45;&gt;Node23</title>
<path fill="none" stroke="#63b8ff" d="M218.253,-263C234.502,-263 251.925,-263 267.978,-263"/>
<polygon fill="#63b8ff" stroke="#63b8ff" points="268.303,-266.5 278.303,-263 268.303,-259.5 268.303,-266.5"/>
</g>
<!-- Node28 -->
<g id="node28" class="node"><title>Node28</title>
<g id="a_node28"><a xlink:href="classore_1_1data_1_1_trade_actions.html#a7741ae0fc924943de5bfe02928262eb7" target="_top" xlink:title=" ">
<polygon fill="white" stroke="#666666" points="387.5,-230 269.5,-230 269.5,-200 387.5,-200 387.5,-230"/>
<text text-anchor="start" x="277.5" y="-218" font-family="Helvetica,sans-Serif" font-size="10.00">ore::data::TradeActions</text>
<text text-anchor="middle" x="328.5" y="-207" font-family="Helvetica,sans-Serif" font-size="10.00">::fromXML</text>
</a>
</g>
</g>
<!-- Node21&#45;&gt;Node28 -->
<g id="edge52" class="edge"><title>Node21&#45;&gt;Node28</title>
<path fill="none" stroke="#63b8ff" d="M189.493,-253.402C210.672,-247.509 238.458,-239.777 263.542,-232.797"/>
<polygon fill="#63b8ff" stroke="#63b8ff" points="264.672,-236.116 273.367,-230.063 262.795,-229.372 264.672,-236.116"/>
</g>
<!-- Node23&#45;&gt;Node3 -->
<g id="edge41" class="edge"><title>Node23&#45;&gt;Node3</title>
<path fill="none" stroke="#63b8ff" d="M378.831,-254.782C387.913,-251.244 396.549,-246.197 403,-239 455.127,-180.84 387.175,-125.429 439,-67 442.723,-62.8021 447.207,-59.3375 452.089,-56.4782"/>
<polygon fill="#63b8ff" stroke="#63b8ff" points="453.818,-59.5282 461.23,-51.9577 450.715,-53.2536 453.818,-59.5282"/>
</g>
<!-- Node23&#45;&gt;Node6 -->
<g id="edge44" class="edge"><title>Node23&#45;&gt;Node6</title>
<path fill="none" stroke="#63b8ff" d="M346.273,-278.055C361.656,-292.175 384.752,-314.177 403,-335 420.576,-355.055 420.857,-363.456 439,-383 452.369,-397.402 468.817,-411.934 482.515,-423.305"/>
<polygon fill="#63b8ff" stroke="#63b8ff" points="480.679,-426.326 490.636,-429.948 485.111,-420.907 480.679,-426.326"/>
</g>
<!-- Node23&#45;&gt;Node7 -->
<g id="edge45" class="edge"><title>Node23&#45;&gt;Node7</title>
<path fill="none" stroke="#63b8ff" d="M349.157,-278.165C370.39,-293.998 405.668,-318.742 439,-335 443.057,-336.979 447.317,-338.862 451.653,-340.639"/>
<polygon fill="#63b8ff" stroke="#63b8ff" points="450.623,-343.994 461.212,-344.356 453.16,-337.47 450.623,-343.994"/>
</g>
<!-- Node23&#45;&gt;Node8 -->
<g id="edge46" class="edge"><title>Node23&#45;&gt;Node8</title>
<path fill="none" stroke="#63b8ff" d="M378.576,-250.499C443.284,-235.313 552.515,-214.566 583,-239 652.789,-294.937 678.593,-588.727 684.867,-677.544"/>
<polygon fill="#63b8ff" stroke="#63b8ff" points="681.393,-678.042 685.567,-687.78 688.377,-677.565 681.393,-678.042"/>
</g>
<!-- Node23&#45;&gt;Node9 -->
<g id="edge49" class="edge"><title>Node23&#45;&gt;Node9</title>
<path fill="none" stroke="#63b8ff" d="M377.53,-247.923C386.055,-245.075 394.819,-242.034 403,-239 419.251,-232.972 422.003,-227.399 439,-224 501.757,-211.449 529.948,-188.202 583,-224 801.069,-371.147 834.508,-737.328 839.596,-836.749"/>
<polygon fill="#63b8ff" stroke="#63b8ff" points="836.101,-836.951 840.056,-846.78 843.094,-836.63 836.101,-836.951"/>
</g>
<!-- Node23&#45;&gt;Node16 -->
<g id="edge48" class="edge"><title>Node23&#45;&gt;Node16</title>
<path fill="none" stroke="#63b8ff" d="M378.822,-276.116C401.29,-282.091 428.052,-289.208 451.525,-295.45"/>
<polygon fill="#63b8ff" stroke="#63b8ff" points="450.799,-298.878 461.362,-298.066 452.598,-292.113 450.799,-298.878"/>
</g>
<!-- Node24 -->
<g id="node24" class="node"><title>Node24</title>
<g id="a_node24"><a xlink:href="classore_1_1data_1_1_netting_set_details.html#a7741ae0fc924943de5bfe02928262eb7" target="_top" xlink:title=" ">
<polygon fill="white" stroke="#666666" points="579.5,-278 442.5,-278 442.5,-248 579.5,-248 579.5,-278"/>
<text text-anchor="start" x="450.5" y="-266" font-family="Helvetica,sans-Serif" font-size="10.00">ore::data::NettingSetDetails</text>
<text text-anchor="middle" x="511" y="-255" font-family="Helvetica,sans-Serif" font-size="10.00">::fromXML</text>
</a>
</g>
</g>
<!-- Node23&#45;&gt;Node24 -->
<g id="edge42" class="edge"><title>Node23&#45;&gt;Node24</title>
<path fill="none" stroke="#63b8ff" d="M378.822,-263C395.38,-263 414.269,-263 432.455,-263"/>
<polygon fill="#63b8ff" stroke="#63b8ff" points="432.468,-266.5 442.468,-263 432.468,-259.5 432.468,-266.5"/>
</g>
<!-- Node25 -->
<g id="node25" class="node"><title>Node25</title>
<g id="a_node25"><a xlink:href="classore_1_1data_1_1_x_m_l_utils.html#a7fedec5ac495a3e67a9abd7e4aae74aa" target="_top" xlink:title="Get a node&#39;s next sibling node.">
<polygon fill="white" stroke="#666666" points="560.5,-154 461.5,-154 461.5,-124 560.5,-124 560.5,-154"/>
<text text-anchor="start" x="469.5" y="-142" font-family="Helvetica,sans-Serif" font-size="10.00">ore::data::XMLUtils</text>
<text text-anchor="middle" x="511" y="-131" font-family="Helvetica,sans-Serif" font-size="10.00">::getNextSibling</text>
</a>
</g>
</g>
<!-- Node23&#45;&gt;Node25 -->
<g id="edge47" class="edge"><title>Node23&#45;&gt;Node25</title>
<path fill="none" stroke="#63b8ff" d="M378.602,-252.939C387.386,-249.549 395.967,-245.027 403,-239 429.864,-215.976 412.984,-191.978 439,-168 443.039,-164.278 447.619,-161.002 452.462,-158.126"/>
<polygon fill="#63b8ff" stroke="#63b8ff" points="454.218,-161.156 461.403,-153.369 450.93,-154.976 454.218,-161.156"/>
</g>
<!-- Node26 -->
<g id="node26" class="node"><title>Node26</title>
<g id="a_node26"><a xlink:href="classore_1_1data_1_1_envelope.html#a9bf8e40febad0782c5855488041ecfd7" target="_top" xlink:title=" ">
<polygon fill="white" stroke="#666666" points="561,-106 461,-106 461,-76 561,-76 561,-106"/>
<text text-anchor="start" x="469" y="-94" font-family="Helvetica,sans-Serif" font-size="10.00">ore::data::Envelope</text>
<text text-anchor="middle" x="511" y="-83" font-family="Helvetica,sans-Serif" font-size="10.00">::nettingSetId</text>
</a>
</g>
</g>
<!-- Node23&#45;&gt;Node26 -->
<g id="edge50" class="edge"><title>Node23&#45;&gt;Node26</title>
<path fill="none" stroke="#63b8ff" d="M378.793,-254.246C387.769,-250.746 396.373,-245.85 403,-239 442.902,-197.756 399.312,-156.45 439,-115 442.674,-111.163 446.982,-107.939 451.628,-105.231"/>
<polygon fill="#63b8ff" stroke="#63b8ff" points="453.499,-108.21 460.903,-100.632 450.389,-101.939 453.499,-108.21"/>
</g>
<!-- Node24&#45;&gt;Node8 -->
<g id="edge43" class="edge"><title>Node24&#45;&gt;Node8</title>
<path fill="none" stroke="#63b8ff" d="M572.152,-278.076C576.142,-280.604 579.827,-283.555 583,-287 636.935,-345.556 673.006,-596.77 683.404,-677.741"/>
<polygon fill="#63b8ff" stroke="#63b8ff" points="679.974,-678.517 684.7,-687.999 686.919,-677.639 679.974,-678.517"/>
</g>
<!-- Node27 -->
<g id="node27" class="node"><title>Node27</title>
<g id="a_node27"><a xlink:href="classore_1_1data_1_1_netting_set_details.html#a9bf8e40febad0782c5855488041ecfd7" target="_top" xlink:title=" ">
<polygon fill="white" stroke="#666666" points="756,-106 619,-106 619,-76 756,-76 756,-106"/>
<text text-anchor="start" x="627" y="-94" font-family="Helvetica,sans-Serif" font-size="10.00">ore::data::NettingSetDetails</text>
<text text-anchor="middle" x="687.5" y="-83" font-family="Helvetica,sans-Serif" font-size="10.00">::nettingSetId</text>
</a>
</g>
</g>
<!-- Node26&#45;&gt;Node27 -->
<g id="edge51" class="edge"><title>Node26&#45;&gt;Node27</title>
<path fill="none" stroke="#63b8ff" d="M561.072,-91C575.932,-91 592.632,-91 608.88,-91"/>
<polygon fill="#63b8ff" stroke="#63b8ff" points="608.919,-94.5001 618.919,-91 608.919,-87.5001 608.919,-94.5001"/>
</g>
<!-- Node28&#45;&gt;Node3 -->
<g id="edge53" class="edge"><title>Node28&#45;&gt;Node3</title>
<path fill="none" stroke="#63b8ff" d="M384.457,-199.902C391.351,-196.216 397.795,-191.65 403,-186 440.437,-145.359 400.562,-106.696 439,-67 442.847,-63.0273 447.373,-59.7122 452.247,-56.9458"/>
<polygon fill="#63b8ff" stroke="#63b8ff" points="453.86,-60.0536 461.325,-52.5355 450.801,-53.7573 453.86,-60.0536"/>
</g>
<!-- Node28&#45;&gt;Node7 -->
<g id="edge54" class="edge"><title>Node28&#45;&gt;Node7</title>
<path fill="none" stroke="#63b8ff" d="M387.731,-228.332C393.311,-231.218 398.541,-234.729 403,-239 435.909,-270.519 406.254,-303.311 439,-335 442.818,-338.694 447.223,-341.821 451.933,-344.466"/>
<polygon fill="#63b8ff" stroke="#63b8ff" points="450.761,-347.787 461.288,-348.984 453.805,-341.484 450.761,-347.787"/>
</g>
<!-- Node29&#45;&gt;Node6 -->
<g id="edge61" class="edge"><title>Node29&#45;&gt;Node6</title>
<path fill="none" stroke="#63b8ff" d="M366.03,-594.995C379.153,-588.099 393.133,-578.792 403,-567 432.777,-531.413 405.764,-501.38 439,-469 442.805,-465.293 447.202,-462.158 451.906,-459.506"/>
<polygon fill="#63b8ff" stroke="#63b8ff" points="453.779,-462.489 461.255,-454.981 450.729,-456.188 453.779,-462.489"/>
</g>
<!-- Node29&#45;&gt;Node8 -->
<g id="edge62" class="edge"><title>Node29&#45;&gt;Node8</title>
<path fill="none" stroke="#63b8ff" d="M383.714,-612.04C435.944,-615.312 516.592,-623.828 583,-646 608.985,-654.676 636.025,-669.812 655.948,-682.306"/>
<polygon fill="#63b8ff" stroke="#63b8ff" points="654.263,-685.383 664.572,-687.829 658.038,-679.489 654.263,-685.383"/>
</g>
<!-- Node29&#45;&gt;Node10 -->
<g id="edge63" class="edge"><title>Node29&#45;&gt;Node10</title>
<path fill="none" stroke="#63b8ff" d="M339.826,-625.174C357.405,-649.912 395.497,-698.979 439,-727 441.461,-728.585 444.038,-730.077 446.692,-731.48"/>
<polygon fill="#63b8ff" stroke="#63b8ff" points="445.42,-734.752 455.951,-735.913 448.442,-728.438 445.42,-734.752"/>
</g>
<!-- Node30 -->
<g id="node30" class="node"><title>Node30</title>
<g id="a_node30"><a xlink:href="classore_1_1data_1_1_trade_monetary.html#a750d19f9c0f3e5521544264e4839aa5d" target="_top" xlink:title=" ">
<polygon fill="white" stroke="#666666" points="573.5,-718 448.5,-718 448.5,-688 573.5,-688 573.5,-718"/>
<text text-anchor="start" x="456.5" y="-706" font-family="Helvetica,sans-Serif" font-size="10.00">ore::data::TradeMonetary</text>
<text text-anchor="middle" x="511" y="-695" font-family="Helvetica,sans-Serif" font-size="10.00">::fromXMLNode</text>
</a>
</g>
</g>
<!-- Node29&#45;&gt;Node30 -->
<g id="edge58" class="edge"><title>Node29&#45;&gt;Node30</title>
<path fill="none" stroke="#63b8ff" d="M358.902,-625.149C389.583,-640.957 437.824,-665.813 471.519,-683.173"/>
<polygon fill="#63b8ff" stroke="#63b8ff" points="470.118,-686.389 480.61,-687.857 473.324,-680.166 470.118,-686.389"/>
</g>
<!-- Node31 -->
<g id="node31" class="node"><title>Node31</title>
<g id="a_node31"><a xlink:href="group__utilities.html#ga9b1841641b66742d2035aad83acdfa4a" target="_top" xlink:title="Convert text to QuantLib::Compounding;.">
<polygon fill="white" stroke="#666666" points="583,-545.5 439,-545.5 439,-526.5 583,-526.5 583,-545.5"/>
<text text-anchor="middle" x="511" y="-533.5" font-family="Helvetica,sans-Serif" font-size="10.00">ore::data::parseCompounding</text>
</a>
</g>
</g>
<!-- Node29&#45;&gt;Node31 -->
<g id="edge64" class="edge"><title>Node29&#45;&gt;Node31</title>
<path fill="none" stroke="#63b8ff" d="M355.81,-594.87C377.572,-582.827 409.572,-566.194 439,-555 445.33,-552.592 452.088,-550.366 458.823,-548.35"/>
<polygon fill="#63b8ff" stroke="#63b8ff" points="459.97,-551.662 468.623,-545.549 458.046,-544.932 459.97,-551.662"/>
</g>
<!-- Node32 -->
<g id="node32" class="node"><title>Node32</title>
<g id="a_node32"><a xlink:href="classore_1_1data_1_1_trade_strike.html#af95e1cce2d25b241417ca60f5be7ea65" target="_top" xlink:title=" ">
<polygon fill="white" stroke="#666666" points="566,-508 456,-508 456,-478 566,-478 566,-508"/>
<text text-anchor="start" x="464" y="-496" font-family="Helvetica,sans-Serif" font-size="10.00">ore::data::TradeStrike</text>
<text text-anchor="middle" x="511" y="-485" font-family="Helvetica,sans-Serif" font-size="10.00">::strikePrice</text>
</a>
</g>
</g>
<!-- Node29&#45;&gt;Node32 -->
<g id="edge65" class="edge"><title>Node29&#45;&gt;Node32</title>
<path fill="none" stroke="#63b8ff" d="M361.844,-594.869C375.43,-587.592 390.86,-578.041 403,-567 423.257,-548.575 416.977,-533.273 439,-517 441.484,-515.165 444.117,-513.463 446.851,-511.887"/>
<polygon fill="#63b8ff" stroke="#63b8ff" points="448.563,-514.943 455.866,-507.267 445.37,-508.713 448.563,-514.943"/>
</g>
<!-- Node33 -->
<g id="node33" class="node"><title>Node33</title>
<g id="a_node33"><a xlink:href="classore_1_1data_1_1_trade_strike.html#a9ec7a95258a5adb834ea92717dff7433" target="_top" xlink:title=" ">
<polygon fill="white" stroke="#666666" points="566,-594 456,-594 456,-564 566,-564 566,-594"/>
<text text-anchor="start" x="464" y="-582" font-family="Helvetica,sans-Serif" font-size="10.00">ore::data::TradeStrike</text>
<text text-anchor="middle" x="511" y="-571" font-family="Helvetica,sans-Serif" font-size="10.00">::strikeYield</text>
</a>
</g>
</g>
<!-- Node29&#45;&gt;Node33 -->
<g id="edge66" class="edge"><title>Node29&#45;&gt;Node33</title>
<path fill="none" stroke="#63b8ff" d="M383.656,-600.699C403.199,-597.342 425.447,-593.522 445.769,-590.031"/>
<polygon fill="#63b8ff" stroke="#63b8ff" points="446.619,-593.437 455.882,-588.294 445.434,-586.538 446.619,-593.437"/>
</g>
<!-- Node30&#45;&gt;Node8 -->
<g id="edge59" class="edge"><title>Node30&#45;&gt;Node8</title>
<path fill="none" stroke="#63b8ff" d="M573.522,-703C591.158,-703 610.333,-703 627.795,-703"/>
<polygon fill="#63b8ff" stroke="#63b8ff" points="627.853,-706.5 637.853,-703 627.853,-699.5 627.853,-706.5"/>
</g>
<!-- Node30&#45;&gt;Node11 -->
<g id="edge60" class="edge"><title>Node30&#45;&gt;Node11</title>
<path fill="none" stroke="#63b8ff" d="M569.404,-718.177C574.26,-720.69 578.881,-723.61 583,-727 636.928,-771.387 668.361,-851.689 680.572,-888.55"/>
<polygon fill="#63b8ff" stroke="#63b8ff" points="677.252,-889.659 683.63,-898.119 683.92,-887.528 677.252,-889.659"/>
</g>
</g>
</svg>
