<?xml version="1.0" encoding="UTF-8" standalone="no"?>
<!DOCTYPE svg PUBLIC "-//W3C//DTD SVG 1.1//EN"
 "http://www.w3.org/Graphics/SVG/1.1/DTD/svg11.dtd">
<!-- Generated by graphviz version 2.38.0 (20140413.2041)
 -->
<!-- Title: build Pages: 1 -->
<svg width="208pt" height="64pt"
 viewBox="0.00 0.00 208.00 64.00" xmlns="http://www.w3.org/2000/svg" xmlns:xlink="http://www.w3.org/1999/xlink">
<g id="graph0" class="graph" transform="scale(1 1) rotate(0) translate(4 60)">
<title>build</title>
<!-- Node1 -->
<g id="node1" class="node"><title>Node1</title>
<g id="a_node1"><a xlink:title=" ">
<polygon fill="#999999" stroke="#666666" points="37,-37 0,-37 0,-18 37,-18 37,-37"/>
<text text-anchor="middle" x="18.5" y="-25" font-family="Helvetica,sans-Serif" font-size="10.00">build</text>
</a>
</g>
</g>
<!-- Node2 -->
<g id="node2" class="node"><title>Node2</title>
<g id="a_node2"><a xlink:href="namespaceore_1_1data.html#a43e91fce1c1cb13a28fa91d7d893109d" target="_top" xlink:title=" ">
<polygon fill="white" stroke="#666666" points="199.5,-56 73.5,-56 73.5,-37 199.5,-37 199.5,-56"/>
<text text-anchor="middle" x="136.5" y="-44" font-family="Helvetica,sans-Serif" font-size="10.00">ore::data::currentNotional</text>
</a>
</g>
</g>
<!-- Node1&#45;&gt;Node2 -->
<g id="edge1" class="edge"><title>Node1&#45;&gt;Node2</title>
<path fill="none" stroke="#63b8ff" d="M37.1179,-30.3857C45.5494,-31.7667 56.2413,-33.518 67.4496,-35.3538"/>
<polygon fill="#63b8ff" stroke="#63b8ff" points="66.9542,-38.8192 77.3885,-36.9817 68.0858,-31.9113 66.9542,-38.8192"/>
</g>
<!-- Node3 -->
<g id="node3" class="node"><title>Node3</title>
<g id="a_node3"><a xlink:href="namespaceore_1_1data.html#a7cfc87add518625c1375588cf6bedaa8" target="_top" xlink:title=" ">
<polygon fill="white" stroke="#666666" points="200,-19 73,-19 73,-0 200,-0 200,-19"/>
<text text-anchor="middle" x="136.5" y="-7" font-family="Helvetica,sans-Serif" font-size="10.00">ore::data::originalNotional</text>
</a>
</g>
</g>
<!-- Node1&#45;&gt;Node3 -->
<g id="edge2" class="edge"><title>Node1&#45;&gt;Node3</title>
<path fill="none" stroke="#63b8ff" d="M37.1179,-24.7662C44.676,-23.5934 54.0503,-22.1387 63.9848,-20.5972"/>
<polygon fill="#63b8ff" stroke="#63b8ff" points="64.7145,-24.0259 74.0596,-19.0339 63.6411,-17.1087 64.7145,-24.0259"/>
</g>
</g>
</svg>
