<?xml version="1.0" encoding="UTF-8" standalone="no"?>
<!DOCTYPE svg PUBLIC "-//W3C//DTD SVG 1.1//EN"
 "http://www.w3.org/Graphics/SVG/1.1/DTD/svg11.dtd">
<!-- Generated by graphviz version 2.38.0 (20140413.2041)
 -->
<!-- Title: build Pages: 1 -->
<svg width="229pt" height="64pt"
 viewBox="0.00 0.00 229.00 64.00" xmlns="http://www.w3.org/2000/svg" xmlns:xlink="http://www.w3.org/1999/xlink">
<g id="graph0" class="graph" transform="scale(1 1) rotate(0) translate(4 60)">
<title>build</title>
<!-- Node1 -->
<g id="node1" class="node"><title>Node1</title>
<g id="a_node1"><a xlink:title=" ">
<polygon fill="#999999" stroke="#666666" points="221,-37 184,-37 184,-18 221,-18 221,-37"/>
<text text-anchor="middle" x="202.5" y="-25" font-family="Helvetica,sans-Serif" font-size="10.00">build</text>
</a>
</g>
</g>
<!-- Node2 -->
<g id="node2" class="node"><title>Node2</title>
<g id="a_node2"><a xlink:href="classore_1_1data_1_1_commodity_forward_convention.html#ac5ca86144ccc19bc46c75bbba0497d9a" target="_top" xlink:title="Detailed constructor.">
<polygon fill="white" stroke="#666666" points="148,-56 0,-56 0,-37 148,-37 148,-56"/>
<text text-anchor="middle" x="74" y="-44" font-family="Helvetica,sans-Serif" font-size="10.00">CommodityForwardConvention</text>
</a>
</g>
</g>
<!-- Node1&#45;&gt;Node2 -->
<g id="edge1" class="edge"><title>Node1&#45;&gt;Node2</title>
<path fill="none" stroke="#63b8ff" d="M173.759,-31.6667C163.27,-33.2421 150.854,-35.1069 138.43,-36.973"/>
<polygon fill="#63b8ff" stroke="#63b8ff" points="174.542,-35.0884 183.911,-30.1419 173.502,-28.1661 174.542,-35.0884"/>
</g>
<!-- Node3 -->
<g id="node3" class="node"><title>Node3</title>
<g id="a_node3"><a xlink:href="classore_1_1data_1_1_commodity_forward_convention.html#a7741ae0fc924943de5bfe02928262eb7" target="_top" xlink:title=" ">
<polygon fill="white" stroke="#666666" points="101,-19 47,-19 47,-0 101,-0 101,-19"/>
<text text-anchor="middle" x="74" y="-7" font-family="Helvetica,sans-Serif" font-size="10.00">fromXML</text>
</a>
</g>
</g>
<!-- Node1&#45;&gt;Node3 -->
<g id="edge2" class="edge"><title>Node1&#45;&gt;Node3</title>
<path fill="none" stroke="#63b8ff" d="M173.749,-23.5513C152.163,-20.4798 122.42,-16.2475 101.23,-13.2323"/>
<polygon fill="#63b8ff" stroke="#63b8ff" points="173.517,-27.0535 183.911,-24.9972 174.504,-20.1233 173.517,-27.0535"/>
</g>
</g>
</svg>
