<?xml version="1.0" encoding="UTF-8" standalone="no"?>
<!DOCTYPE svg PUBLIC "-//W3C//DTD SVG 1.1//EN"
 "http://www.w3.org/Graphics/SVG/1.1/DTD/svg11.dtd">
<!-- Generated by graphviz version 2.38.0 (20140413.2041)
 -->
<!-- Title: ConvertibleBondData::CallabilityData::MakeWholeData::ConversionRatioIncreaseData Pages: 1 -->
<!--zoomable 533 -->
<svg id="main" version="1.1" xmlns="http://www.w3.org/2000/svg" xmlns:xlink="http://www.w3.org/1999/xlink" xml:space="preserve" onload="init(evt)">
<style type="text/css"><![CDATA[
.edge:hover path { stroke: red; }
.edge:hover polygon { stroke: red; fill: red; }
]]></style>
<script type="text/javascript"><![CDATA[
var edges = document.getElementsByTagName('g');
if (edges && edges.length) {
  for (var i=0;i<edges.length;i++) {
    if (edges[i].id.substr(0,4)=='edge') {
      edges[i].setAttribute('class','edge');
    }
  }
}
]]></script>
        <defs>
                <circle id="rim" cx="0" cy="0" r="7"/>
                <circle id="rim2" cx="0" cy="0" r="3.5"/>
                <g id="zoomPlus">
                        <use xlink:href="#rim" fill="#404040">
                                <set attributeName="fill" to="#808080" begin="zoomplus.mouseover" end="zoomplus.mouseout"/>
                        </use>
                        <path d="M-4,0h8M0,-4v8" fill="none" stroke="white" stroke-width="1.5" pointer-events="none"/>
                </g>
                <g id="zoomMin">
                        <use xlink:href="#rim" fill="#404040">
                                <set attributeName="fill" to="#808080" begin="zoomminus.mouseover" end="zoomminus.mouseout"/>
                        </use>
                        <path d="M-4,0h8" fill="none" stroke="white" stroke-width="1.5" pointer-events="none"/>
                </g>
                <g id="dirArrow">
                        <path fill="none" stroke="white" stroke-width="1.5" d="M0,-3.0v7 M-2.5,-0.5L0,-3.0L2.5,-0.5"/>
                </g>
               <g id="resetDef">
                       <use xlink:href="#rim2" fill="#404040">
                               <set attributeName="fill" to="#808080" begin="reset.mouseover" end="reset.mouseout"/>
                       </use>
               </g>
        </defs>

<script type="text/javascript">
var viewWidth = 635;
var viewHeight = 533;
var sectionId = 'dynsection-1';
</script>
<script xlink:href="svgpan.js"/>
<svg id="graph" class="graph">
<g id="viewport">
<title>ConvertibleBondData::CallabilityData::MakeWholeData::ConversionRatioIncreaseData</title>
<!-- Node1 -->
<g id="node1" class="node"><title>Node1</title>
<g id="a_node1"><a xlink:title=" ">
<polygon fill="#999999" stroke="#666666" points="341.5,-140 171.5,-140 171.5,-0 341.5,-0 341.5,-140"/>
<text text-anchor="start" x="179.5" y="-128" font-family="Helvetica,sans-Serif" font-size="10.00">{ConvertibleBondData</text>
<text text-anchor="start" x="179.5" y="-117" font-family="Helvetica,sans-Serif" font-size="10.00">::CallabilityData::MakeWhole</text>
<text text-anchor="middle" x="256.5" y="-106" font-family="Helvetica,sans-Serif" font-size="10.00">Data::ConversionRatioIncreaseData</text>
<text text-anchor="start" x="179.5" y="-95" font-family="Helvetica,sans-Serif" font-size="10.00">||+ ConversionRatioIncreaseData()</text>
<text text-anchor="start" x="179.5" y="-84" font-family="Helvetica,sans-Serif" font-size="10.00">+ initialised()</text>
<text text-anchor="start" x="179.5" y="-73" font-family="Helvetica,sans-Serif" font-size="10.00">+ cap()</text>
<text text-anchor="start" x="179.5" y="-62" font-family="Helvetica,sans-Serif" font-size="10.00">+ stockPrices()</text>
<text text-anchor="start" x="179.5" y="-51" font-family="Helvetica,sans-Serif" font-size="10.00">+ crIncrease()</text>
<text text-anchor="start" x="179.5" y="-40" font-family="Helvetica,sans-Serif" font-size="10.00">+ crIncreaseDates()</text>
<text text-anchor="start" x="179.5" y="-29" font-family="Helvetica,sans-Serif" font-size="10.00">+ fromXML()</text>
<text text-anchor="start" x="179.5" y="-18" font-family="Helvetica,sans-Serif" font-size="10.00">+ toXML()</text>
<text text-anchor="middle" x="256.5" y="-7" font-family="Helvetica,sans-Serif" font-size="10.00">}</text>
</a>
</g>
</g>
<!-- Node2 -->
<g id="node2" class="node"><title>Node2</title>
<g id="a_node2"><a xlink:href="classore_1_1data_1_1_x_m_l_serializable.html" target="_top" xlink:title="Base class for all serializable classes.">
<polygon fill="white" stroke="#666666" points="111,-294 0,-294 0,-187 111,-187 111,-294"/>
<text text-anchor="middle" x="55.5" y="-282" font-family="Helvetica,sans-Serif" font-size="10.00">{XMLSerializable</text>
<text text-anchor="start" x="8" y="-271" font-family="Helvetica,sans-Serif" font-size="10.00">||+ ~XMLSerializable()</text>
<text text-anchor="start" x="8" y="-260" font-family="Helvetica,sans-Serif" font-size="10.00">+ fromXML()</text>
<text text-anchor="start" x="8" y="-249" font-family="Helvetica,sans-Serif" font-size="10.00">+ toXML()</text>
<text text-anchor="start" x="8" y="-238" font-family="Helvetica,sans-Serif" font-size="10.00">+ fromFile()</text>
<text text-anchor="start" x="8" y="-227" font-family="Helvetica,sans-Serif" font-size="10.00">+ toFile()</text>
<text text-anchor="start" x="8" y="-216" font-family="Helvetica,sans-Serif" font-size="10.00">+ fromXMLString()</text>
<text text-anchor="start" x="8" y="-205" font-family="Helvetica,sans-Serif" font-size="10.00">+ toXMLString()</text>
<text text-anchor="middle" x="55.5" y="-194" font-family="Helvetica,sans-Serif" font-size="10.00">}</text>
</a>
</g>
</g>
<!-- Node2&#45;&gt;Node1 -->
<g id="edge1" class="edge"><title>Node2&#45;&gt;Node1</title>
<path fill="none" stroke="#63b8ff" d="M117.509,-179.993C125.797,-172.461 134.275,-164.961 142.5,-158 151.717,-150.2 161.534,-142.232 171.392,-134.441"/>
<polygon fill="none" stroke="#63b8ff" points="114.974,-177.569 109.965,-186.905 119.702,-182.731 114.974,-177.569"/>
</g>
<!-- Node3 -->
<g id="node3" class="node"><title>Node3</title>
<g id="a_node3"><a xlink:href="classbool.html" target="_top" xlink:title=" ">
<polygon fill="white" stroke="#666666" points="167.5,-255.5 129.5,-255.5 129.5,-225.5 167.5,-225.5 167.5,-255.5"/>
<text text-anchor="middle" x="148.5" y="-243.5" font-family="Helvetica,sans-Serif" font-size="10.00">{bool</text>
<text text-anchor="middle" x="148.5" y="-232.5" font-family="Helvetica,sans-Serif" font-size="10.00">||}</text>
</a>
</g>
</g>
<!-- Node3&#45;&gt;Node1 -->
<g id="edge2" class="edge"><title>Node3&#45;&gt;Node1</title>
<path fill="none" stroke="#404040" d="M145.219,-225.42C142.026,-208.492 139.032,-179.659 149.5,-158 153.14,-150.469 157.779,-143.373 163.077,-136.733"/>
<polygon fill="none" stroke="#404040" points="163.385,-136.38 164.313,-129.229 171.271,-127.335 170.343,-134.487 163.385,-136.38"/>
<text text-anchor="middle" x="175.5" y="-161" font-family="Helvetica,sans-Serif" font-size="10.00"> &#45;initialised_</text>
</g>
<!-- Node4 -->
<g id="node4" class="node"><title>Node4</title>
<g id="a_node4"><a xlink:title=" ">
<polygon fill="white" stroke="#666666" points="593.5,-371 549.5,-371 549.5,-341 593.5,-341 593.5,-371"/>
<text text-anchor="middle" x="571.5" y="-359" font-family="Helvetica,sans-Serif" font-size="10.00">{string</text>
<text text-anchor="middle" x="571.5" y="-348" font-family="Helvetica,sans-Serif" font-size="10.00">||}</text>
</a>
</g>
</g>
<!-- Node4&#45;&gt;Node1 -->
<g id="edge3" class="edge"><title>Node4&#45;&gt;Node1</title>
<path fill="none" stroke="#404040" d="M571.959,-340.579C572.197,-309.046 568.502,-233.102 530.5,-187 486.374,-133.469 413.14,-104.179 353.48,-88.4281"/>
<polygon fill="none" stroke="#404040" points="353.375,-88.4014 346.577,-90.8059 341.742,-85.4553 348.541,-83.0508 353.375,-88.4014"/>
<text text-anchor="middle" x="582.5" y="-238" font-family="Helvetica,sans-Serif" font-size="10.00"> &#45;cap_</text>
</g>
<!-- Node11 -->
<g id="node11" class="node"><title>Node11</title>
<g id="a_node11"><a xlink:title=" ">
<polygon fill="white" stroke="#666666" points="522,-255.5 415,-255.5 415,-225.5 522,-225.5 522,-255.5"/>
<text text-anchor="middle" x="468.5" y="-243.5" font-family="Helvetica,sans-Serif" font-size="10.00">{vector&lt; std::string &gt;</text>
<text text-anchor="middle" x="468.5" y="-232.5" font-family="Helvetica,sans-Serif" font-size="10.00">||}</text>
</a>
</g>
</g>
<!-- Node4&#45;&gt;Node11 -->
<g id="edge13" class="edge"><title>Node4&#45;&gt;Node11</title>
<path fill="none" stroke="#404040" d="M549.45,-345.89C530.308,-337.824 505.103,-326.765 501.5,-323 486.808,-307.646 478.336,-284.89 473.664,-267.323"/>
<polygon fill="none" stroke="#404040" points="473.661,-267.307 468.387,-262.388 470.9,-255.629 476.173,-260.548 473.661,-267.307"/>
<text text-anchor="middle" x="526" y="-315" font-family="Helvetica,sans-Serif" font-size="10.00"> +elements</text>
</g>
<!-- Node5 -->
<g id="node5" class="node"><title>Node5</title>
<g id="a_node5"><a xlink:title=" ">
<polygon fill="white" stroke="#666666" points="626.5,-448 516.5,-448 516.5,-418 626.5,-418 626.5,-448"/>
<text text-anchor="middle" x="571.5" y="-436" font-family="Helvetica,sans-Serif" font-size="10.00">{basic_string&lt; Char &gt;</text>
<text text-anchor="middle" x="571.5" y="-425" font-family="Helvetica,sans-Serif" font-size="10.00">||}</text>
</a>
</g>
</g>
<!-- Node5&#45;&gt;Node4 -->
<g id="edge4" class="edge"><title>Node5&#45;&gt;Node4</title>
<path fill="none" stroke="#63b8ff" d="M571.5,-407.541C571.5,-395.451 571.5,-381.294 571.5,-371.044"/>
<polygon fill="none" stroke="#63b8ff" points="568,-407.893 571.5,-417.893 575,-407.893 568,-407.893"/>
</g>
<!-- Node6 -->
<g id="node6" class="node"><title>Node6</title>
<g id="a_node6"><a xlink:title=" ">
<polygon fill="white" stroke="#666666" points="274.5,-371 182.5,-371 182.5,-341 274.5,-341 274.5,-371"/>
<text text-anchor="middle" x="228.5" y="-359" font-family="Helvetica,sans-Serif" font-size="10.00">{vector&lt; double &gt;</text>
<text text-anchor="middle" x="228.5" y="-348" font-family="Helvetica,sans-Serif" font-size="10.00">||}</text>
</a>
</g>
</g>
<!-- Node6&#45;&gt;Node1 -->
<g id="edge5" class="edge"><title>Node6&#45;&gt;Node1</title>
<path fill="none" stroke="#404040" d="M227.317,-340.96C226.339,-328.605 225.028,-310.123 224.5,-294 222.943,-246.47 218.119,-234.126 224.5,-187 226.04,-175.63 228.391,-163.799 231.136,-152.229"/>
<polygon fill="none" stroke="#404040" points="231.209,-151.938 228.784,-145.147 234.121,-140.297 236.545,-147.088 231.209,-151.938"/>
<text text-anchor="middle" x="256.5" y="-238" font-family="Helvetica,sans-Serif" font-size="10.00"> &#45;stockPrices_</text>
</g>
<!-- Node10 -->
<g id="node10" class="node"><title>Node10</title>
<g id="a_node10"><a xlink:title=" ">
<polygon fill="white" stroke="#666666" points="397,-261 298,-261 298,-220 397,-220 397,-261"/>
<text text-anchor="start" x="306" y="-249" font-family="Helvetica,sans-Serif" font-size="10.00">{vector&lt; std::vector</text>
<text text-anchor="middle" x="347.5" y="-238" font-family="Helvetica,sans-Serif" font-size="10.00">&lt; double &gt; &gt;</text>
<text text-anchor="middle" x="347.5" y="-227" font-family="Helvetica,sans-Serif" font-size="10.00">||}</text>
</a>
</g>
</g>
<!-- Node6&#45;&gt;Node10 -->
<g id="edge10" class="edge"><title>Node6&#45;&gt;Node10</title>
<path fill="none" stroke="#404040" d="M234.988,-340.675C239.544,-331.706 246.282,-320.314 254.5,-312 265.164,-301.211 271.165,-302.83 283.5,-294 294.304,-286.266 305.652,-277.271 315.741,-268.935"/>
<polygon fill="none" stroke="#404040" points="315.77,-268.911 317.802,-261.992 324.97,-261.206 322.938,-268.125 315.77,-268.911"/>
<text text-anchor="middle" x="279" y="-315" font-family="Helvetica,sans-Serif" font-size="10.00"> +elements</text>
</g>
<!-- Node7 -->
<g id="node7" class="node"><title>Node7</title>
<g id="a_node7"><a xlink:title=" ">
<polygon fill="white" stroke="#666666" points="204.5,-448 156.5,-448 156.5,-418 204.5,-418 204.5,-448"/>
<text text-anchor="middle" x="180.5" y="-436" font-family="Helvetica,sans-Serif" font-size="10.00">{double</text>
<text text-anchor="middle" x="180.5" y="-425" font-family="Helvetica,sans-Serif" font-size="10.00">||}</text>
</a>
</g>
</g>
<!-- Node7&#45;&gt;Node6 -->
<g id="edge6" class="edge"><title>Node7&#45;&gt;Node6</title>
<path fill="none" stroke="#404040" d="M177.707,-418C176.669,-409.16 176.719,-397.79 181.5,-389 183.543,-385.244 186.24,-381.843 189.311,-378.784"/>
<polygon fill="none" stroke="#404040" points="189.448,-378.672 191.55,-371.774 198.725,-371.06 196.624,-377.958 189.448,-378.672"/>
<text text-anchor="middle" x="206" y="-392" font-family="Helvetica,sans-Serif" font-size="10.00"> +elements</text>
</g>
<!-- Node8 -->
<g id="node8" class="node"><title>Node8</title>
<g id="a_node8"><a xlink:title=" ">
<polygon fill="white" stroke="#666666" points="351.5,-448 283.5,-448 283.5,-418 351.5,-418 351.5,-448"/>
<text text-anchor="middle" x="317.5" y="-436" font-family="Helvetica,sans-Serif" font-size="10.00">{vector&lt; T &gt;</text>
<text text-anchor="middle" x="317.5" y="-425" font-family="Helvetica,sans-Serif" font-size="10.00">||}</text>
</a>
</g>
</g>
<!-- Node8&#45;&gt;Node6 -->
<g id="edge7" class="edge"><title>Node8&#45;&gt;Node6</title>
<path fill="none" stroke="orange" d="M273.977,-414.576C266.647,-410.471 259.486,-405.62 253.5,-400 244.938,-391.961 238.418,-380.328 234.186,-371.188"/>
<polygon fill="orange" stroke="orange" points="272.786,-417.9 283.277,-419.377 275.997,-411.68 272.786,-417.9"/>
<text text-anchor="middle" x="278.5" y="-392" font-family="Helvetica,sans-Serif" font-size="10.00"> &lt; double &gt;</text>
</g>
<!-- Node8&#45;&gt;Node10 -->
<g id="edge11" class="edge"><title>Node8&#45;&gt;Node10</title>
<path fill="none" stroke="orange" d="M321.192,-407.702C323.989,-389.368 327.945,-363.597 331.5,-341 335.851,-313.346 341.013,-281.392 344.273,-261.316"/>
<polygon fill="orange" stroke="orange" points="317.699,-407.396 319.653,-417.809 324.619,-408.45 317.699,-407.396"/>
<text text-anchor="middle" x="388" y="-353.5" font-family="Helvetica,sans-Serif" font-size="10.00"> &lt; std::vector&lt; double &gt; &gt;</text>
</g>
<!-- Node8&#45;&gt;Node11 -->
<g id="edge14" class="edge"><title>Node8&#45;&gt;Node11</title>
<path fill="none" stroke="orange" d="M361.197,-421.937C389.266,-413.181 424.157,-397.587 444.5,-371 471.039,-336.316 471.337,-281.3 469.777,-255.598"/>
<polygon fill="orange" stroke="orange" points="360.199,-418.582 351.589,-424.756 362.17,-425.299 360.199,-418.582"/>
<text text-anchor="middle" x="493" y="-353.5" font-family="Helvetica,sans-Serif" font-size="10.00"> &lt; std::string &gt;</text>
</g>
<!-- Node9 -->
<g id="node9" class="node"><title>Node9</title>
<g id="a_node9"><a xlink:title=" ">
<polygon fill="white" stroke="#666666" points="332,-525 303,-525 303,-495 332,-495 332,-525"/>
<text text-anchor="middle" x="317.5" y="-513" font-family="Helvetica,sans-Serif" font-size="10.00">{T</text>
<text text-anchor="middle" x="317.5" y="-502" font-family="Helvetica,sans-Serif" font-size="10.00">||}</text>
</a>
</g>
</g>
<!-- Node9&#45;&gt;Node8 -->
<g id="edge8" class="edge"><title>Node9&#45;&gt;Node8</title>
<path fill="none" stroke="#404040" d="M317.5,-494.893C317.5,-485.151 317.5,-471.901 317.5,-460.249"/>
<polygon fill="none" stroke="#404040" points="317.5,-460.044 313.5,-454.044 317.5,-448.044 321.5,-454.044 317.5,-460.044"/>
<text text-anchor="middle" x="342" y="-469" font-family="Helvetica,sans-Serif" font-size="10.00"> +elements</text>
</g>
<!-- Node10&#45;&gt;Node1 -->
<g id="edge9" class="edge"><title>Node10&#45;&gt;Node1</title>
<path fill="none" stroke="#404040" d="M336.883,-219.841C327.57,-202.597 313.385,-176.331 299.51,-150.638"/>
<polygon fill="none" stroke="#404040" points="299.508,-150.635 293.137,-147.257 293.806,-140.077 300.176,-143.455 299.508,-150.635"/>
<text text-anchor="middle" x="336" y="-161" font-family="Helvetica,sans-Serif" font-size="10.00"> &#45;crIncrease_</text>
</g>
<!-- Node11&#45;&gt;Node1 -->
<g id="edge12" class="edge"><title>Node11&#45;&gt;Node1</title>
<path fill="none" stroke="#404040" d="M451.767,-225.324C439.136,-214.68 421.334,-199.798 405.5,-187 388.182,-173.003 369.566,-158.268 351.558,-144.171"/>
<polygon fill="none" stroke="#404040" points="351.085,-143.801 343.894,-143.26 341.628,-136.414 348.819,-136.955 351.085,-143.801"/>
<text text-anchor="middle" x="422.5" y="-161" font-family="Helvetica,sans-Serif" font-size="10.00"> &#45;crIncreaseDates_</text>
</g>
</g>
</svg>
        <g id="navigator" transform="translate(0 0)" fill="#404254">
                <rect fill="#f2f5e9" fill-opacity="0.5" stroke="#606060" stroke-width=".5" x="0" y="0" width="60" height="60"/>
                <use id="zoomplus" xlink:href="#zoomPlus" x="17" y="9" onmousedown="handleZoom(evt,'in')"/>
                <use id="zoomminus" xlink:href="#zoomMin" x="42" y="9" onmousedown="handleZoom(evt,'out')"/>
                <use id="reset" xlink:href="#resetDef" x="30" y="36" onmousedown="handleReset()"/>
                <g id="arrowUp" xlink:href="#dirArrow" transform="translate(30 24)" onmousedown="handlePan(0,-1)">
                  <use xlink:href="#rim" fill="#404040">
                        <set attributeName="fill" to="#808080" begin="arrowUp.mouseover" end="arrowUp.mouseout"/>
                  </use>
                  <path fill="none" stroke="white" stroke-width="1.5" d="M0,-3.0v7 M-2.5,-0.5L0,-3.0L2.5,-0.5"/>
                </g>
                <g id="arrowRight" xlink:href="#dirArrow" transform="rotate(90) translate(36 -43)" onmousedown="handlePan(1,0)">
                  <use xlink:href="#rim" fill="#404040">
                        <set attributeName="fill" to="#808080" begin="arrowRight.mouseover" end="arrowRight.mouseout"/>
                  </use>
                  <path fill="none" stroke="white" stroke-width="1.5" d="M0,-3.0v7 M-2.5,-0.5L0,-3.0L2.5,-0.5"/>
                </g>
                <g id="arrowDown" xlink:href="#dirArrow" transform="rotate(180) translate(-30 -48)" onmousedown="handlePan(0,1)">
                  <use xlink:href="#rim" fill="#404040">
                        <set attributeName="fill" to="#808080" begin="arrowDown.mouseover" end="arrowDown.mouseout"/>
                  </use>
                  <path fill="none" stroke="white" stroke-width="1.5" d="M0,-3.0v7 M-2.5,-0.5L0,-3.0L2.5,-0.5"/>
                </g>
                <g id="arrowLeft" xlink:href="#dirArrow" transform="rotate(270) translate(-36 17)" onmousedown="handlePan(-1,0)">
                  <use xlink:href="#rim" fill="#404040">
                        <set attributeName="fill" to="#808080" begin="arrowLeft.mouseover" end="arrowLeft.mouseout"/>
                  </use>
                  <path fill="none" stroke="white" stroke-width="1.5" d="M0,-3.0v7 M-2.5,-0.5L0,-3.0L2.5,-0.5"/>
                </g>
        </g>
        <svg viewBox="0 0 15 15" width="100%" height="30px" preserveAspectRatio="xMaxYMin meet">
         <g id="arrow_out" transform="scale(0.3 0.3)">
          <a xlink:href="classore_1_1data_1_1_convertible_bond_data_1_1_callability_data_1_1_make_whole_data_1_1_conversi1d957b66d286f4b27723dd84d55b349d_org.svg" target="_base">
           <rect id="button" ry="5" rx="5" y="6" x="6" height="38" width="38"
                fill="#f2f5e9" fill-opacity="0.5" stroke="#606060" stroke-width="1.0"/>
           <path id="arrow"
             d="M 11.500037,31.436501 C 11.940474,20.09759 22.043105,11.32322 32.158766,21.979434 L 37.068811,17.246167 C 37.068811,17.246167 37.088388,32 37.088388,32 L 22.160133,31.978069 C 22.160133,31.978069 26.997745,27.140456 26.997745,27.140456 C 18.528582,18.264221 13.291696,25.230495 11.500037,31.436501 z"
             style="fill:#404040;"/>
          </a>
         </g>
        </svg>
</svg>
