<?xml version="1.0" encoding="UTF-8" standalone="no"?>
<!DOCTYPE svg PUBLIC "-//W3C//DTD SVG 1.1//EN"
 "http://www.w3.org/Graphics/SVG/1.1/DTD/svg11.dtd">
<!-- Generated by graphviz version 2.38.0 (20140413.2041)
 -->
<!-- Title: StructuredLogger Pages: 1 -->
<svg width="278pt" height="76pt"
 viewBox="0.00 0.00 278.00 75.50" xmlns="http://www.w3.org/2000/svg" xmlns:xlink="http://www.w3.org/1999/xlink">
<g id="graph0" class="graph" transform="scale(1 1) rotate(0) translate(4 71.5)">
<title>StructuredLogger</title>
<!-- Node1 -->
<g id="node1" class="node"><title>Node1</title>
<g id="a_node1"><a xlink:title="Constructors.">
<polygon fill="#999999" stroke="#666666" points="91,-45.5 0,-45.5 0,-26.5 91,-26.5 91,-45.5"/>
<text text-anchor="middle" x="45.5" y="-33.5" font-family="Helvetica,sans-Serif" font-size="10.00">StructuredLogger</text>
</a>
</g>
</g>
<!-- Node2 -->
<g id="node2" class="node"><title>Node2</title>
<g id="a_node2"><a xlink:href="classore_1_1data_1_1_structured_logger.html#a584f6d8eb8a934050974a9fa7202617c" target="_top" xlink:title=" ">
<polygon fill="white" stroke="#666666" points="222.5,-67.5 174.5,-67.5 174.5,-48.5 222.5,-48.5 222.5,-67.5"/>
<text text-anchor="middle" x="198.5" y="-55.5" font-family="Helvetica,sans-Serif" font-size="10.00">fileSink</text>
</a>
</g>
</g>
<!-- Node1&#45;&gt;Node2 -->
<g id="edge1" class="edge"><title>Node1&#45;&gt;Node2</title>
<path fill="none" stroke="#63b8ff" d="M91.3961,-42.5412C114.855,-45.959 143.059,-50.0682 164.49,-53.1906"/>
<polygon fill="#63b8ff" stroke="#63b8ff" points="164.016,-56.6584 174.416,-54.6368 165.025,-49.7315 164.016,-56.6584"/>
</g>
<!-- Node3 -->
<g id="node3" class="node"><title>Node3</title>
<g id="a_node3"><a xlink:href="classore_1_1data_1_1_independent_logger.html#a4dba1cfdc2569ab70965270ade7bae38" target="_top" xlink:title=" ">
<polygon fill="white" stroke="#666666" points="270,-30 127,-30 127,-0 270,-0 270,-30"/>
<text text-anchor="start" x="135" y="-18" font-family="Helvetica,sans-Serif" font-size="10.00">ore::data::IndependentLogger</text>
<text text-anchor="middle" x="198.5" y="-7" font-family="Helvetica,sans-Serif" font-size="10.00">::messages</text>
</a>
</g>
</g>
<!-- Node1&#45;&gt;Node3 -->
<g id="edge2" class="edge"><title>Node1&#45;&gt;Node3</title>
<path fill="none" stroke="#63b8ff" d="M91.3961,-29.7562C99.3942,-28.6439 107.944,-27.4548 116.588,-26.2526"/>
<polygon fill="#63b8ff" stroke="#63b8ff" points="117.33,-29.6832 126.753,-24.839 116.366,-22.7499 117.33,-29.6832"/>
</g>
</g>
</svg>
