<?xml version="1.0" encoding="UTF-8" standalone="no"?>
<!DOCTYPE svg PUBLIC "-//W3C//DTD SVG 1.1//EN"
 "http://www.w3.org/Graphics/SVG/1.1/DTD/svg11.dtd">
<!-- Generated by graphviz version 2.38.0 (20140413.2041)
 -->
<!-- Title: currency Pages: 1 -->
<svg width="410pt" height="220pt"
 viewBox="0.00 0.00 410.00 219.50" xmlns="http://www.w3.org/2000/svg" xmlns:xlink="http://www.w3.org/1999/xlink">
<g id="graph0" class="graph" transform="scale(1 1) rotate(0) translate(4 215.5)">
<title>currency</title>
<!-- Node1 -->
<g id="node1" class="node"><title>Node1</title>
<g id="a_node1"><a xlink:title=" ">
<polygon fill="#999999" stroke="#666666" points="402,-110 348,-110 348,-91 402,-91 402,-110"/>
<text text-anchor="middle" x="375" y="-98" font-family="Helvetica,sans-Serif" font-size="10.00">currency</text>
</a>
</g>
</g>
<!-- Node2 -->
<g id="node2" class="node"><title>Node2</title>
<g id="a_node2"><a xlink:href="classore_1_1data_1_1_cap_floor_vol_curve.html#a66839a2708a675b2f86cd2e92a9499d0" target="_top" xlink:title="Build an ATM cap floor term volatility curve.">
<polygon fill="white" stroke="#666666" points="312,-211.5 174,-211.5 174,-181.5 312,-181.5 312,-211.5"/>
<text text-anchor="start" x="182" y="-199.5" font-family="Helvetica,sans-Serif" font-size="10.00">ore::data::CapFloorVolCurve</text>
<text text-anchor="middle" x="243" y="-188.5" font-family="Helvetica,sans-Serif" font-size="10.00">::atmCurve</text>
</a>
</g>
</g>
<!-- Node1&#45;&gt;Node2 -->
<g id="edge1" class="edge"><title>Node1&#45;&gt;Node2</title>
<path fill="none" stroke="#63b8ff" d="M362.263,-118.914C351.104,-135.078 332.947,-158.182 312,-172.5 307.039,-175.891 301.548,-178.854 295.899,-181.431"/>
<polygon fill="#63b8ff" stroke="#63b8ff" points="365.358,-120.58 367.992,-110.318 359.534,-116.698 365.358,-120.58"/>
</g>
<!-- Node5 -->
<g id="node5" class="node"><title>Node5</title>
<g id="a_node5"><a xlink:href="classore_1_1data_1_1_cap_floor_vol_curve.html#a4c12b080309225a852ff617a5fa9ea71" target="_top" xlink:title="Build a cap floor term volatility surface.">
<polygon fill="white" stroke="#666666" points="312,-163.5 174,-163.5 174,-133.5 312,-133.5 312,-163.5"/>
<text text-anchor="start" x="182" y="-151.5" font-family="Helvetica,sans-Serif" font-size="10.00">ore::data::CapFloorVolCurve</text>
<text text-anchor="middle" x="243" y="-140.5" font-family="Helvetica,sans-Serif" font-size="10.00">::capSurface</text>
</a>
</g>
</g>
<!-- Node1&#45;&gt;Node5 -->
<g id="edge4" class="edge"><title>Node1&#45;&gt;Node5</title>
<path fill="none" stroke="#63b8ff" d="M340.344,-113.74C331.172,-117.29 321.222,-121.089 312,-124.5 304.016,-127.454 295.475,-130.531 287.237,-133.459"/>
<polygon fill="#63b8ff" stroke="#63b8ff" points="341.869,-116.902 349.92,-110.015 339.331,-110.378 341.869,-116.902"/>
</g>
<!-- Node6 -->
<g id="node6" class="node"><title>Node6</title>
<g id="a_node6"><a xlink:href="classore_1_1data_1_1_cap_floor_vol_curve.html#ab28542f8e848ad13635a3482674e662c" target="_top" xlink:title="Build ATM optionlet curve from optionlet vol.">
<polygon fill="white" stroke="#666666" points="312,-115.5 174,-115.5 174,-85.5 312,-85.5 312,-115.5"/>
<text text-anchor="start" x="182" y="-103.5" font-family="Helvetica,sans-Serif" font-size="10.00">ore::data::CapFloorVolCurve</text>
<text text-anchor="middle" x="243" y="-92.5" font-family="Helvetica,sans-Serif" font-size="10.00">::optAtmOptCurve</text>
</a>
</g>
</g>
<!-- Node1&#45;&gt;Node6 -->
<g id="edge6" class="edge"><title>Node1&#45;&gt;Node6</title>
<path fill="none" stroke="#63b8ff" d="M337.675,-100.5C329.698,-100.5 321,-100.5 312.224,-100.5"/>
<polygon fill="#63b8ff" stroke="#63b8ff" points="337.693,-104 347.693,-100.5 337.693,-97.0001 337.693,-104"/>
</g>
<!-- Node7 -->
<g id="node7" class="node"><title>Node7</title>
<g id="a_node7"><a xlink:href="classore_1_1data_1_1_cap_floor_vol_curve.html#a86ac4c3309abc2191a9965372928ab82" target="_top" xlink:title="Build optionlet surface from optionlet vol.">
<polygon fill="white" stroke="#666666" points="312,-67.5 174,-67.5 174,-37.5 312,-37.5 312,-67.5"/>
<text text-anchor="start" x="182" y="-55.5" font-family="Helvetica,sans-Serif" font-size="10.00">ore::data::CapFloorVolCurve</text>
<text text-anchor="middle" x="243" y="-44.5" font-family="Helvetica,sans-Serif" font-size="10.00">::optOptSurface</text>
</a>
</g>
</g>
<!-- Node1&#45;&gt;Node7 -->
<g id="edge7" class="edge"><title>Node1&#45;&gt;Node7</title>
<path fill="none" stroke="#63b8ff" d="M340.344,-87.2602C331.172,-83.7099 321.222,-79.9114 312,-76.5 304.016,-73.5464 295.475,-70.4686 287.237,-67.5408"/>
<polygon fill="#63b8ff" stroke="#63b8ff" points="339.331,-90.6219 349.92,-90.9852 341.869,-84.0981 339.331,-90.6219"/>
</g>
<!-- Node8 -->
<g id="node8" class="node"><title>Node8</title>
<g id="a_node8"><a xlink:href="classore_1_1data_1_1_cap_floor_volatility_curve_config.html#a19ed6e6444ea03ab24f69f1bf17d2151" target="_top" xlink:title="Populate the quotes vector.">
<polygon fill="white" stroke="#666666" points="285.5,-19 200.5,-19 200.5,-0 285.5,-0 285.5,-19"/>
<text text-anchor="middle" x="243" y="-7" font-family="Helvetica,sans-Serif" font-size="10.00">populateQuotes</text>
</a>
</g>
</g>
<!-- Node1&#45;&gt;Node8 -->
<g id="edge8" class="edge"><title>Node1&#45;&gt;Node8</title>
<path fill="none" stroke="#63b8ff" d="M362.842,-82.2798C351.869,-65.8637 333.646,-42.258 312,-28.5 304.034,-23.4371 294.709,-19.701 285.562,-16.9515"/>
<polygon fill="#63b8ff" stroke="#63b8ff" points="360.086,-84.4648 368.436,-90.9857 365.975,-80.6807 360.086,-84.4648"/>
</g>
<!-- Node3 -->
<g id="node3" class="node"><title>Node3</title>
<g id="a_node3"><a xlink:href="classore_1_1data_1_1_cap_floor_vol_curve.html#aabf163efc1172daa6f8dbcf9be1766a9" target="_top" xlink:title="Build ATM optionlet curve from term vol.">
<polygon fill="white" stroke="#666666" points="138,-211.5 0,-211.5 0,-181.5 138,-181.5 138,-211.5"/>
<text text-anchor="start" x="8" y="-199.5" font-family="Helvetica,sans-Serif" font-size="10.00">ore::data::CapFloorVolCurve</text>
<text text-anchor="middle" x="69" y="-188.5" font-family="Helvetica,sans-Serif" font-size="10.00">::termAtmOptCurve</text>
</a>
</g>
</g>
<!-- Node2&#45;&gt;Node3 -->
<g id="edge2" class="edge"><title>Node2&#45;&gt;Node3</title>
<path fill="none" stroke="#63b8ff" d="M163.363,-196.5C154.975,-196.5 146.492,-196.5 138.238,-196.5"/>
<polygon fill="#63b8ff" stroke="#63b8ff" points="163.527,-200 173.527,-196.5 163.527,-193 163.527,-200"/>
</g>
<!-- Node4 -->
<g id="node4" class="node"><title>Node4</title>
<g id="a_node4"><a xlink:href="classore_1_1data_1_1_cap_floor_vol_curve.html#a6b5974432b42f6cb1214882f5776c1db" target="_top" xlink:title="Build optionlet surface from term vol.">
<polygon fill="white" stroke="#666666" points="138,-163.5 0,-163.5 0,-133.5 138,-133.5 138,-163.5"/>
<text text-anchor="start" x="8" y="-151.5" font-family="Helvetica,sans-Serif" font-size="10.00">ore::data::CapFloorVolCurve</text>
<text text-anchor="middle" x="69" y="-140.5" font-family="Helvetica,sans-Serif" font-size="10.00">::termOptSurface</text>
</a>
</g>
</g>
<!-- Node2&#45;&gt;Node4 -->
<g id="edge3" class="edge"><title>Node2&#45;&gt;Node4</title>
<path fill="none" stroke="#63b8ff" d="M178.259,-178.712C160.338,-173.711 141.034,-168.323 123.759,-163.502"/>
<polygon fill="#63b8ff" stroke="#63b8ff" points="177.477,-182.127 188.05,-181.444 179.359,-175.385 177.477,-182.127"/>
</g>
<!-- Node5&#45;&gt;Node4 -->
<g id="edge5" class="edge"><title>Node5&#45;&gt;Node4</title>
<path fill="none" stroke="#63b8ff" d="M163.363,-148.5C154.975,-148.5 146.492,-148.5 138.238,-148.5"/>
<polygon fill="#63b8ff" stroke="#63b8ff" points="163.527,-152 173.527,-148.5 163.527,-145 163.527,-152"/>
</g>
<!-- Node9 -->
<g id="node9" class="node"><title>Node9</title>
<g id="a_node9"><a xlink:href="classore_1_1data_1_1_cap_floor_volatility_curve_config.html#a7741ae0fc924943de5bfe02928262eb7" target="_top" xlink:title=" ">
<polygon fill="white" stroke="#666666" points="96,-19 42,-19 42,-0 96,-0 96,-19"/>
<text text-anchor="middle" x="69" y="-7" font-family="Helvetica,sans-Serif" font-size="10.00">fromXML</text>
</a>
</g>
</g>
<!-- Node8&#45;&gt;Node9 -->
<g id="edge9" class="edge"><title>Node8&#45;&gt;Node9</title>
<path fill="none" stroke="#63b8ff" d="M190.127,-9.5C159.053,-9.5 120.884,-9.5 96.0268,-9.5"/>
<polygon fill="#63b8ff" stroke="#63b8ff" points="190.364,-13.0001 200.364,-9.5 190.364,-6.0001 190.364,-13.0001"/>
</g>
</g>
</svg>
