<?xml version="1.0" encoding="UTF-8" standalone="no"?>
<!DOCTYPE svg PUBLIC "-//W3C//DTD SVG 1.1//EN"
 "http://www.w3.org/Graphics/SVG/1.1/DTD/svg11.dtd">
<!-- Generated by graphviz version 2.38.0 (20140413.2041)
 -->
<!-- Title: getNumeraire Pages: 1 -->
<svg width="237pt" height="168pt"
 viewBox="0.00 0.00 237.00 167.50" xmlns="http://www.w3.org/2000/svg" xmlns:xlink="http://www.w3.org/1999/xlink">
<g id="graph0" class="graph" transform="scale(1 1) rotate(0) translate(4 163.5)">
<title>getNumeraire</title>
<!-- Node1 -->
<g id="node1" class="node"><title>Node1</title>
<g id="a_node1"><a xlink:title=" ">
<polygon fill="#999999" stroke="#666666" points="74,-92 0,-92 0,-73 74,-73 74,-92"/>
<text text-anchor="middle" x="37" y="-80" font-family="Helvetica,sans-Serif" font-size="10.00">getNumeraire</text>
</a>
</g>
</g>
<!-- Node2 -->
<g id="node2" class="node"><title>Node2</title>
<g id="a_node2"><a xlink:href="classore_1_1data_1_1_model_c_g_impl.html#a0aa0911eb0694bde089f3a6777907ef8" target="_top" xlink:title=" ">
<polygon fill="white" stroke="#666666" points="229,-159.5 110,-159.5 110,-129.5 229,-129.5 229,-159.5"/>
<text text-anchor="start" x="118" y="-147.5" font-family="Helvetica,sans-Serif" font-size="10.00">ore::data::ModelCGImpl</text>
<text text-anchor="middle" x="169.5" y="-136.5" font-family="Helvetica,sans-Serif" font-size="10.00">::addModelParameter</text>
</a>
</g>
</g>
<!-- Node1&#45;&gt;Node2 -->
<g id="edge1" class="edge"><title>Node1&#45;&gt;Node2</title>
<path fill="none" stroke="#63b8ff" d="M54.9324,-92.03C69.377,-100.016 90.7954,-111.518 110,-120.5 113.535,-122.153 117.216,-123.81 120.934,-125.438"/>
<polygon fill="#63b8ff" stroke="#63b8ff" points="119.623,-128.683 130.193,-129.404 122.379,-122.249 119.623,-128.683"/>
</g>
<!-- Node3 -->
<g id="node3" class="node"><title>Node3</title>
<g id="a_node3"><a target="_parent" xlink:href="../qle/namespace_quant_ext.html#a0a5a4a36dc0da3e5341b65b4be8967a5" xlink:title=" ">
<polygon fill="white" stroke="#666666" points="221.5,-111 117.5,-111 117.5,-92 221.5,-92 221.5,-111"/>
<text text-anchor="middle" x="169.5" y="-99" font-family="Helvetica,sans-Serif" font-size="10.00">QuantExt::cg_const</text>
</a>
</g>
</g>
<!-- Node1&#45;&gt;Node3 -->
<g id="edge2" class="edge"><title>Node1&#45;&gt;Node3</title>
<path fill="none" stroke="#63b8ff" d="M74.0052,-87.7421C84.3916,-89.2543 96.0246,-90.948 107.483,-92.6163"/>
<polygon fill="#63b8ff" stroke="#63b8ff" points="107.071,-96.0932 117.471,-94.0706 108.08,-89.1662 107.071,-96.0932"/>
</g>
<!-- Node4 -->
<g id="node4" class="node"><title>Node4</title>
<g id="a_node4"><a target="_parent" xlink:href="../qle/namespace_quant_ext.html#af9e5b577978a54b0c479508d897b24f0" xlink:title=" ">
<polygon fill="white" stroke="#666666" points="215,-74 124,-74 124,-55 215,-55 215,-74"/>
<text text-anchor="middle" x="169.5" y="-62" font-family="Helvetica,sans-Serif" font-size="10.00">QuantExt::cg_div</text>
</a>
</g>
</g>
<!-- Node1&#45;&gt;Node4 -->
<g id="edge3" class="edge"><title>Node1&#45;&gt;Node4</title>
<path fill="none" stroke="#63b8ff" d="M74.0052,-77.5338C86.2695,-75.8421 100.272,-73.9108 113.672,-72.0625"/>
<polygon fill="#63b8ff" stroke="#63b8ff" points="114.335,-75.5042 123.763,-70.6706 113.379,-68.5699 114.335,-75.5042"/>
</g>
<!-- Node5 -->
<g id="node5" class="node"><title>Node5</title>
<g id="a_node5"><a xlink:href="namespaceore_1_1data.html#a86651dfeb5c18ee891f7a4734d8cf455" target="_top" xlink:title=" ">
<polygon fill="white" stroke="#666666" points="218.5,-19 120.5,-19 120.5,-0 218.5,-0 218.5,-19"/>
<text text-anchor="middle" x="169.5" y="-7" font-family="Helvetica,sans-Serif" font-size="10.00">ore::data::to_string</text>
</a>
</g>
</g>
<!-- Node1&#45;&gt;Node5 -->
<g id="edge4" class="edge"><title>Node1&#45;&gt;Node5</title>
<path fill="none" stroke="#63b8ff" d="M55.0606,-72.9565C77.3353,-60.4963 116.538,-38.5666 142.518,-24.034"/>
<polygon fill="#63b8ff" stroke="#63b8ff" points="144.417,-26.9824 151.435,-19.0458 140.999,-20.8733 144.417,-26.9824"/>
</g>
<!-- Node5&#45;&gt;Node5 -->
<g id="edge5" class="edge"><title>Node5&#45;&gt;Node5</title>
<path fill="none" stroke="#63b8ff" d="M149.155,-19.0828C139.257,-27.7337 146.039,-37 169.5,-37 184.53,-37 192.714,-33.1971 194.053,-28.1894"/>
<polygon fill="#63b8ff" stroke="#63b8ff" points="197.217,-26.6921 189.845,-19.0828 190.863,-29.6287 197.217,-26.6921"/>
</g>
</g>
</svg>
