<?xml version="1.0" encoding="UTF-8" standalone="no"?>
<!DOCTYPE svg PUBLIC "-//W3C//DTD SVG 1.1//EN"
 "http://www.w3.org/Graphics/SVG/1.1/DTD/svg11.dtd">
<!-- Generated by graphviz version 2.38.0 (20140413.2041)
 -->
<!-- Title: build Pages: 1 -->
<svg width="402pt" height="253pt"
 viewBox="0.00 0.00 402.00 252.50" xmlns="http://www.w3.org/2000/svg" xmlns:xlink="http://www.w3.org/1999/xlink">
<g id="graph0" class="graph" transform="scale(1 1) rotate(0) translate(4 248.5)">
<title>build</title>
<!-- Node1 -->
<g id="node1" class="node"><title>Node1</title>
<g id="a_node1"><a xlink:title=" ">
<polygon fill="#999999" stroke="#666666" points="37,-111 0,-111 0,-92 37,-92 37,-111"/>
<text text-anchor="middle" x="18.5" y="-99" font-family="Helvetica,sans-Serif" font-size="10.00">build</text>
</a>
</g>
</g>
<!-- Node2 -->
<g id="node2" class="node"><title>Node2</title>
<g id="a_node2"><a xlink:href="classore_1_1data_1_1_scripted_trade.html#af7b69d5b18d278257927e32b10a23ee6" target="_top" xlink:title=" ">
<polygon fill="white" stroke="#666666" points="204,-226.5 83,-226.5 83,-196.5 204,-196.5 204,-226.5"/>
<text text-anchor="start" x="91" y="-214.5" font-family="Helvetica,sans-Serif" font-size="10.00">ore::data::ScriptedTrade</text>
<text text-anchor="middle" x="143.5" y="-203.5" font-family="Helvetica,sans-Serif" font-size="10.00">::build</text>
</a>
</g>
</g>
<!-- Node1&#45;&gt;Node2 -->
<g id="edge1" class="edge"><title>Node1&#45;&gt;Node2</title>
<path fill="none" stroke="#63b8ff" d="M23.0181,-111.266C29.8869,-128.991 46.7462,-166.555 73,-187.5 74.6091,-188.784 76.2911,-190.001 78.0307,-191.155"/>
<polygon fill="#63b8ff" stroke="#63b8ff" points="76.7251,-194.443 87.1351,-196.413 80.2261,-188.381 76.7251,-194.443"/>
</g>
<!-- Node3 -->
<g id="node3" class="node"><title>Node3</title>
<g id="a_node3"><a xlink:href="classore_1_1data_1_1_scripted_trade.html#ac8bb3912a3ce86b15842e79d0b421204" target="_top" xlink:title=" ">
<polygon fill="white" stroke="#666666" points="204,-178.5 83,-178.5 83,-148.5 204,-148.5 204,-178.5"/>
<text text-anchor="start" x="91" y="-166.5" font-family="Helvetica,sans-Serif" font-size="10.00">ore::data::ScriptedTrade</text>
<text text-anchor="middle" x="143.5" y="-155.5" font-family="Helvetica,sans-Serif" font-size="10.00">::clear</text>
</a>
</g>
</g>
<!-- Node1&#45;&gt;Node3 -->
<g id="edge3" class="edge"><title>Node1&#45;&gt;Node3</title>
<path fill="none" stroke="#63b8ff" d="M31.1902,-111.297C41.6271,-119.668 57.6006,-131.58 73,-139.5 76.4764,-141.288 80.1157,-142.992 83.8292,-144.606"/>
<polygon fill="#63b8ff" stroke="#63b8ff" points="82.5815,-147.877 93.162,-148.43 85.2356,-141.399 82.5815,-147.877"/>
</g>
<!-- Node4 -->
<g id="node4" class="node"><title>Node4</title>
<g id="a_node4"><a xlink:href="classore_1_1data_1_1_european_option_barrier.html#a207c6701b5856e4a18bf06f71ce54287" target="_top" xlink:title=" ">
<polygon fill="white" stroke="#666666" points="173.5,-130 113.5,-130 113.5,-111 173.5,-111 173.5,-130"/>
<text text-anchor="middle" x="143.5" y="-118" font-family="Helvetica,sans-Serif" font-size="10.00">initIndices</text>
</a>
</g>
</g>
<!-- Node1&#45;&gt;Node4 -->
<g id="edge4" class="edge"><title>Node1&#45;&gt;Node4</title>
<path fill="none" stroke="#63b8ff" d="M37.1229,-104.222C54.2118,-106.862 80.7316,-110.959 102.891,-114.382"/>
<polygon fill="#63b8ff" stroke="#63b8ff" points="102.619,-117.881 113.036,-115.949 103.688,-110.963 102.619,-117.881"/>
</g>
<!-- Node6 -->
<g id="node6" class="node"><title>Node6</title>
<g id="a_node6"><a xlink:href="group__utilities.html#gab90425924b36d115487ef18cc4578df6" target="_top" xlink:title="Convert std::string to QuantLib::BarrierType.">
<polygon fill="white" stroke="#666666" points="210.5,-93 76.5,-93 76.5,-74 210.5,-74 210.5,-93"/>
<text text-anchor="middle" x="143.5" y="-81" font-family="Helvetica,sans-Serif" font-size="10.00">ore::data::parseBarrierType</text>
</a>
</g>
</g>
<!-- Node1&#45;&gt;Node6 -->
<g id="edge6" class="edge"><title>Node1&#45;&gt;Node6</title>
<path fill="none" stroke="#63b8ff" d="M37.1229,-98.921C45.4974,-97.6955 56.1367,-96.1385 67.4178,-94.4876"/>
<polygon fill="#63b8ff" stroke="#63b8ff" points="68.0682,-97.9298 77.4559,-93.0186 67.0545,-91.0036 68.0682,-97.9298"/>
</g>
<!-- Node7 -->
<g id="node7" class="node"><title>Node7</title>
<g id="a_node7"><a xlink:href="group__utilities.html#gafba82f05ecaf8827537fb3144f436002" target="_top" xlink:title="Convert text to QuantLib::Option::Type.">
<polygon fill="white" stroke="#666666" points="210.5,-56 76.5,-56 76.5,-37 210.5,-37 210.5,-56"/>
<text text-anchor="middle" x="143.5" y="-44" font-family="Helvetica,sans-Serif" font-size="10.00">ore::data::parseOptionType</text>
</a>
</g>
</g>
<!-- Node1&#45;&gt;Node7 -->
<g id="edge7" class="edge"><title>Node1&#45;&gt;Node7</title>
<path fill="none" stroke="#63b8ff" d="M31.5689,-91.6923C41.9892,-83.6516 57.733,-72.4941 73,-65.5 78.2454,-63.097 83.8569,-60.9431 89.5321,-59.0266"/>
<polygon fill="#63b8ff" stroke="#63b8ff" points="90.5992,-62.3601 99.0901,-56.0232 88.5007,-55.682 90.5992,-62.3601"/>
</g>
<!-- Node8 -->
<g id="node8" class="node"><title>Node8</title>
<g id="a_node8"><a xlink:href="group__utilities.html#ga71937c757a73b33221be6ce6a8046839" target="_top" xlink:title="Convert text to QuantLib::Position::Type.">
<polygon fill="white" stroke="#666666" points="214,-19 73,-19 73,-0 214,-0 214,-19"/>
<text text-anchor="middle" x="143.5" y="-7" font-family="Helvetica,sans-Serif" font-size="10.00">ore::data::parsePositionType</text>
</a>
</g>
</g>
<!-- Node1&#45;&gt;Node8 -->
<g id="edge8" class="edge"><title>Node1&#45;&gt;Node8</title>
<path fill="none" stroke="#63b8ff" d="M23.9119,-91.8262C31.5901,-76.0951 48.922,-45.0648 73,-28.5 75.9226,-26.4894 79.0505,-24.6911 82.3025,-23.0827"/>
<polygon fill="#63b8ff" stroke="#63b8ff" points="83.921,-26.1968 91.728,-19.0343 81.1584,-19.7649 83.921,-26.1968"/>
</g>
<!-- Node2&#45;&gt;Node2 -->
<g id="edge2" class="edge"><title>Node2&#45;&gt;Node2</title>
<path fill="none" stroke="#63b8ff" d="M121.703,-226.775C116.859,-235.906 124.125,-244.5 143.5,-244.5 155.004,-244.5 162.239,-241.47 165.205,-237.098"/>
<polygon fill="#63b8ff" stroke="#63b8ff" points="168.707,-236.806 165.297,-226.775 161.708,-236.744 168.707,-236.806"/>
</g>
<!-- Node5 -->
<g id="node5" class="node"><title>Node5</title>
<g id="a_node5"><a xlink:href="namespaceore_1_1data.html#a425a020b34a447b90e7656c00c54d2db" target="_top" xlink:title=" ">
<polygon fill="white" stroke="#666666" points="394,-130 250,-130 250,-111 394,-111 394,-130"/>
<text text-anchor="middle" x="322" y="-118" font-family="Helvetica,sans-Serif" font-size="10.00">ore::data::scriptedIndexName</text>
</a>
</g>
</g>
<!-- Node4&#45;&gt;Node5 -->
<g id="edge5" class="edge"><title>Node4&#45;&gt;Node5</title>
<path fill="none" stroke="#63b8ff" d="M173.645,-120.5C191.808,-120.5 216.152,-120.5 239.815,-120.5"/>
<polygon fill="#63b8ff" stroke="#63b8ff" points="239.894,-124 249.894,-120.5 239.894,-117 239.894,-124"/>
</g>
</g>
</svg>
