<?xml version="1.0" encoding="UTF-8" standalone="no"?>
<!DOCTYPE svg PUBLIC "-//W3C//DTD SVG 1.1//EN"
 "http://www.w3.org/Graphics/SVG/1.1/DTD/svg11.dtd">
<!-- Generated by graphviz version 2.38.0 (20140413.2041)
 -->
<!-- Title: AverageOISYieldCurveSegment Pages: 1 -->
<svg width="611pt" height="831pt"
 viewBox="0.00 0.00 610.50 831.00" xmlns="http://www.w3.org/2000/svg" xmlns:xlink="http://www.w3.org/1999/xlink">
<g id="graph0" class="graph" transform="scale(1 1) rotate(0) translate(4 827)">
<title>AverageOISYieldCurveSegment</title>
<!-- Node1 -->
<g id="node1" class="node"><title>Node1</title>
<g id="a_node1"><a xlink:title="Average OIS yield curve segment.">
<polygon fill="#999999" stroke="#666666" points="527,-173 354,-173 354,-0 527,-0 527,-173"/>
<text text-anchor="middle" x="440.5" y="-161" font-family="Helvetica,sans-Serif" font-size="10.00">{AverageOISYieldCurveSegment</text>
<text text-anchor="start" x="362" y="-150" font-family="Helvetica,sans-Serif" font-size="10.00">||+ AverageOISYieldCurveSegment()</text>
<text text-anchor="start" x="362" y="-139" font-family="Helvetica,sans-Serif" font-size="10.00">+ AverageOISYieldCurveSegment()</text>
<text text-anchor="start" x="362" y="-128" font-family="Helvetica,sans-Serif" font-size="10.00">+ ~AverageOISYieldCurveSegment()</text>
<text text-anchor="start" x="362" y="-117" font-family="Helvetica,sans-Serif" font-size="10.00">+ fromXML()</text>
<text text-anchor="start" x="362" y="-106" font-family="Helvetica,sans-Serif" font-size="10.00">+ toXML()</text>
<text text-anchor="start" x="362" y="-95" font-family="Helvetica,sans-Serif" font-size="10.00">+ projectionCurveID()</text>
<text text-anchor="start" x="362" y="-84" font-family="Helvetica,sans-Serif" font-size="10.00">* accept()</text>
<text text-anchor="start" x="362" y="-73" font-family="Helvetica,sans-Serif" font-size="10.00">* AverageOISYieldCurveSegment()</text>
<text text-anchor="start" x="362" y="-62" font-family="Helvetica,sans-Serif" font-size="10.00">* AverageOISYieldCurveSegment()</text>
<text text-anchor="start" x="362" y="-51" font-family="Helvetica,sans-Serif" font-size="10.00">* ~AverageOISYieldCurveSegment()</text>
<text text-anchor="start" x="362" y="-40" font-family="Helvetica,sans-Serif" font-size="10.00">* fromXML()</text>
<text text-anchor="start" x="362" y="-29" font-family="Helvetica,sans-Serif" font-size="10.00">* toXML()</text>
<text text-anchor="start" x="362" y="-18" font-family="Helvetica,sans-Serif" font-size="10.00">* projectionCurveID()</text>
<text text-anchor="middle" x="440.5" y="-7" font-family="Helvetica,sans-Serif" font-size="10.00">}</text>
</a>
</g>
</g>
<!-- Node2 -->
<g id="node2" class="node"><title>Node2</title>
<g id="a_node2"><a xlink:href="classore_1_1data_1_1_yield_curve_segment.html" target="_top" xlink:title="Base class for yield curve segments.">
<polygon fill="white" stroke="#666666" points="381,-504 254,-504 254,-210 381,-210 381,-504"/>
<text text-anchor="middle" x="317.5" y="-492" font-family="Helvetica,sans-Serif" font-size="10.00">{YieldCurveSegment</text>
<text text-anchor="start" x="262" y="-481" font-family="Helvetica,sans-Serif" font-size="10.00">||+ ~YieldCurveSegment()</text>
<text text-anchor="start" x="262" y="-470" font-family="Helvetica,sans-Serif" font-size="10.00">+ fromXML()</text>
<text text-anchor="start" x="262" y="-459" font-family="Helvetica,sans-Serif" font-size="10.00">+ toXML()</text>
<text text-anchor="start" x="262" y="-448" font-family="Helvetica,sans-Serif" font-size="10.00">+ type()</text>
<text text-anchor="start" x="262" y="-437" font-family="Helvetica,sans-Serif" font-size="10.00">+ typeID()</text>
<text text-anchor="start" x="262" y="-426" font-family="Helvetica,sans-Serif" font-size="10.00">+ conventionsID()</text>
<text text-anchor="start" x="262" y="-415" font-family="Helvetica,sans-Serif" font-size="10.00">+ pillarChoice()</text>
<text text-anchor="start" x="262" y="-404" font-family="Helvetica,sans-Serif" font-size="10.00">+ priority()</text>
<text text-anchor="start" x="262" y="-393" font-family="Helvetica,sans-Serif" font-size="10.00">+ minDistance()</text>
<text text-anchor="start" x="262" y="-382" font-family="Helvetica,sans-Serif" font-size="10.00">+ quotes()</text>
<text text-anchor="start" x="262" y="-371" font-family="Helvetica,sans-Serif" font-size="10.00">+ accept()</text>
<text text-anchor="start" x="262" y="-360" font-family="Helvetica,sans-Serif" font-size="10.00">* YieldCurveSegment()</text>
<text text-anchor="start" x="262" y="-349" font-family="Helvetica,sans-Serif" font-size="10.00">* YieldCurveSegment()</text>
<text text-anchor="start" x="262" y="-338" font-family="Helvetica,sans-Serif" font-size="10.00">* quote()</text>
<text text-anchor="start" x="262" y="-327" font-family="Helvetica,sans-Serif" font-size="10.00">* fromXML()</text>
<text text-anchor="start" x="262" y="-316" font-family="Helvetica,sans-Serif" font-size="10.00">* toXML()</text>
<text text-anchor="start" x="262" y="-305" font-family="Helvetica,sans-Serif" font-size="10.00">* type()</text>
<text text-anchor="start" x="262" y="-294" font-family="Helvetica,sans-Serif" font-size="10.00">* typeID()</text>
<text text-anchor="start" x="262" y="-283" font-family="Helvetica,sans-Serif" font-size="10.00">* conventionsID()</text>
<text text-anchor="start" x="262" y="-272" font-family="Helvetica,sans-Serif" font-size="10.00">* pillarChoice()</text>
<text text-anchor="start" x="262" y="-261" font-family="Helvetica,sans-Serif" font-size="10.00">* priority()</text>
<text text-anchor="start" x="262" y="-250" font-family="Helvetica,sans-Serif" font-size="10.00">* minDistance()</text>
<text text-anchor="start" x="262" y="-239" font-family="Helvetica,sans-Serif" font-size="10.00">* quotes()</text>
<text text-anchor="start" x="262" y="-228" font-family="Helvetica,sans-Serif" font-size="10.00">* accept()</text>
<text text-anchor="middle" x="317.5" y="-217" font-family="Helvetica,sans-Serif" font-size="10.00">}</text>
</a>
</g>
</g>
<!-- Node2&#45;&gt;Node1 -->
<g id="edge1" class="edge"><title>Node2&#45;&gt;Node1</title>
<path fill="none" stroke="#63b8ff" d="M385.334,-207.924C390.776,-196.043 396.152,-184.309 401.287,-173.098"/>
<polygon fill="none" stroke="#63b8ff" points="382.145,-206.482 381.162,-217.031 388.509,-209.397 382.145,-206.482"/>
</g>
<!-- Node3 -->
<g id="node3" class="node"><title>Node3</title>
<g id="a_node3"><a xlink:href="classore_1_1data_1_1_x_m_l_serializable.html" target="_top" xlink:title="Base class for all serializable classes.">
<polygon fill="white" stroke="#666666" points="111,-669 0,-669 0,-562 111,-562 111,-669"/>
<text text-anchor="middle" x="55.5" y="-657" font-family="Helvetica,sans-Serif" font-size="10.00">{XMLSerializable</text>
<text text-anchor="start" x="8" y="-646" font-family="Helvetica,sans-Serif" font-size="10.00">||+ ~XMLSerializable()</text>
<text text-anchor="start" x="8" y="-635" font-family="Helvetica,sans-Serif" font-size="10.00">+ fromXML()</text>
<text text-anchor="start" x="8" y="-624" font-family="Helvetica,sans-Serif" font-size="10.00">+ toXML()</text>
<text text-anchor="start" x="8" y="-613" font-family="Helvetica,sans-Serif" font-size="10.00">+ fromFile()</text>
<text text-anchor="start" x="8" y="-602" font-family="Helvetica,sans-Serif" font-size="10.00">+ toFile()</text>
<text text-anchor="start" x="8" y="-591" font-family="Helvetica,sans-Serif" font-size="10.00">+ fromXMLString()</text>
<text text-anchor="start" x="8" y="-580" font-family="Helvetica,sans-Serif" font-size="10.00">+ toXMLString()</text>
<text text-anchor="middle" x="55.5" y="-569" font-family="Helvetica,sans-Serif" font-size="10.00">}</text>
</a>
</g>
</g>
<!-- Node3&#45;&gt;Node2 -->
<g id="edge2" class="edge"><title>Node3&#45;&gt;Node2</title>
<path fill="none" stroke="#63b8ff" d="M116.428,-554.851C157.639,-514.505 211.961,-461.323 253.753,-420.409"/>
<polygon fill="none" stroke="#63b8ff" points="113.849,-552.478 109.152,-561.974 118.746,-557.48 113.849,-552.478"/>
</g>
<!-- Node4 -->
<g id="node4" class="node"><title>Node4</title>
<g id="a_node4"><a xlink:title=" ">
<polygon fill="white" stroke="#666666" points="235.5,-636 129.5,-636 129.5,-595 235.5,-595 235.5,-636"/>
<text text-anchor="start" x="137.5" y="-624" font-family="Helvetica,sans-Serif" font-size="10.00">{vector&lt; pair&lt; string,</text>
<text text-anchor="middle" x="182.5" y="-613" font-family="Helvetica,sans-Serif" font-size="10.00"> bool &gt; &gt;</text>
<text text-anchor="middle" x="182.5" y="-602" font-family="Helvetica,sans-Serif" font-size="10.00">||}</text>
</a>
</g>
</g>
<!-- Node4&#45;&gt;Node2 -->
<g id="edge3" class="edge"><title>Node4&#45;&gt;Node2</title>
<path fill="none" stroke="#404040" d="M192.869,-594.799C205.109,-571.543 226.555,-530.795 248.243,-489.588"/>
<polygon fill="none" stroke="#404040" points="248.317,-489.447 247.572,-482.274 253.906,-478.828 254.652,-486 248.317,-489.447"/>
<text text-anchor="middle" x="252" y="-530.5" font-family="Helvetica,sans-Serif" font-size="10.00"> #quotes_</text>
</g>
<!-- Node5 -->
<g id="node5" class="node"><title>Node5</title>
<g id="a_node5"><a xlink:title=" ">
<polygon fill="white" stroke="#666666" points="251,-746 150,-746 150,-716 251,-716 251,-746"/>
<text text-anchor="middle" x="200.5" y="-734" font-family="Helvetica,sans-Serif" font-size="10.00">{pair&lt; string, bool &gt;</text>
<text text-anchor="middle" x="200.5" y="-723" font-family="Helvetica,sans-Serif" font-size="10.00">||}</text>
</a>
</g>
</g>
<!-- Node5&#45;&gt;Node4 -->
<g id="edge4" class="edge"><title>Node5&#45;&gt;Node4</title>
<path fill="none" stroke="#404040" d="M198.22,-715.625C195.547,-698.771 191.037,-670.331 187.531,-648.226"/>
<polygon fill="none" stroke="#404040" points="187.485,-647.93 182.594,-642.63 185.605,-636.078 190.495,-641.377 187.485,-647.93"/>
<text text-anchor="middle" x="220" y="-690" font-family="Helvetica,sans-Serif" font-size="10.00"> +elements</text>
</g>
<!-- Node6 -->
<g id="node6" class="node"><title>Node6</title>
<g id="a_node6"><a xlink:title=" ">
<polygon fill="white" stroke="#666666" points="218,-823 183,-823 183,-793 218,-793 218,-823"/>
<text text-anchor="middle" x="200.5" y="-811" font-family="Helvetica,sans-Serif" font-size="10.00">{pair</text>
<text text-anchor="middle" x="200.5" y="-800" font-family="Helvetica,sans-Serif" font-size="10.00">||}</text>
</a>
</g>
</g>
<!-- Node6&#45;&gt;Node5 -->
<g id="edge5" class="edge"><title>Node6&#45;&gt;Node5</title>
<path fill="none" stroke="orange" d="M200.5,-782.541C200.5,-770.451 200.5,-756.294 200.5,-746.044"/>
<polygon fill="orange" stroke="orange" points="197,-782.893 200.5,-792.893 204,-782.893 197,-782.893"/>
<text text-anchor="middle" x="235.5" y="-767" font-family="Helvetica,sans-Serif" font-size="10.00"> &lt; string, bool &gt;</text>
</g>
<!-- Node7 -->
<g id="node7" class="node"><title>Node7</title>
<g id="a_node7"><a xlink:title=" ">
<polygon fill="white" stroke="#666666" points="108.5,-746 40.5,-746 40.5,-716 108.5,-716 108.5,-746"/>
<text text-anchor="middle" x="74.5" y="-734" font-family="Helvetica,sans-Serif" font-size="10.00">{vector&lt; T &gt;</text>
<text text-anchor="middle" x="74.5" y="-723" font-family="Helvetica,sans-Serif" font-size="10.00">||}</text>
</a>
</g>
</g>
<!-- Node7&#45;&gt;Node4 -->
<g id="edge6" class="edge"><title>Node7&#45;&gt;Node4</title>
<path fill="none" stroke="orange" d="M78.3182,-705.946C80.2464,-699.3 83.1449,-692.43 87.5,-687 97.7097,-674.271 106.065,-678.262 119.5,-669 133.918,-659.061 149.025,-646.553 160.83,-636.239"/>
<polygon fill="orange" stroke="orange" points="74.844,-705.437 76.0169,-715.967 81.6664,-707.004 74.844,-705.437"/>
<text text-anchor="middle" x="139" y="-690" font-family="Helvetica,sans-Serif" font-size="10.00"> &lt; pair&lt; string, bool &gt; &gt;</text>
</g>
<!-- Node8 -->
<g id="node8" class="node"><title>Node8</title>
<g id="a_node8"><a xlink:title=" ">
<polygon fill="white" stroke="#666666" points="89,-823 60,-823 60,-793 89,-793 89,-823"/>
<text text-anchor="middle" x="74.5" y="-811" font-family="Helvetica,sans-Serif" font-size="10.00">{T</text>
<text text-anchor="middle" x="74.5" y="-800" font-family="Helvetica,sans-Serif" font-size="10.00">||}</text>
</a>
</g>
</g>
<!-- Node8&#45;&gt;Node7 -->
<g id="edge7" class="edge"><title>Node8&#45;&gt;Node7</title>
<path fill="none" stroke="#404040" d="M74.5,-792.893C74.5,-783.151 74.5,-769.901 74.5,-758.249"/>
<polygon fill="none" stroke="#404040" points="74.5001,-758.044 70.5,-752.044 74.5,-746.044 78.5,-752.044 74.5001,-758.044"/>
<text text-anchor="middle" x="99" y="-767" font-family="Helvetica,sans-Serif" font-size="10.00"> +elements</text>
</g>
<!-- Node9 -->
<g id="node9" class="node"><title>Node9</title>
<g id="a_node9"><a xlink:title=" ">
<polygon fill="white" stroke="#666666" points="295,-630.5 254,-630.5 254,-600.5 295,-600.5 295,-630.5"/>
<text text-anchor="middle" x="274.5" y="-618.5" font-family="Helvetica,sans-Serif" font-size="10.00">{Type</text>
<text text-anchor="middle" x="274.5" y="-607.5" font-family="Helvetica,sans-Serif" font-size="10.00">||}</text>
</a>
</g>
</g>
<!-- Node9&#45;&gt;Node2 -->
<g id="edge8" class="edge"><title>Node9&#45;&gt;Node2</title>
<path fill="none" stroke="#404040" d="M274.954,-600.328C275.678,-582.118 277.452,-549.566 281.5,-522 281.798,-519.968 282.108,-517.923 282.427,-515.868"/>
<polygon fill="none" stroke="#404040" points="282.43,-515.847 279.447,-509.282 284.36,-504.003 287.343,-510.568 282.43,-515.847"/>
<text text-anchor="middle" x="297" y="-530.5" font-family="Helvetica,sans-Serif" font-size="10.00"> &#45;type_</text>
</g>
<!-- Node10 -->
<g id="node10" class="node"><title>Node10</title>
<g id="a_node10"><a xlink:title=" ">
<polygon fill="white" stroke="#666666" points="363.5,-630.5 319.5,-630.5 319.5,-600.5 363.5,-600.5 363.5,-630.5"/>
<text text-anchor="middle" x="341.5" y="-618.5" font-family="Helvetica,sans-Serif" font-size="10.00">{string</text>
<text text-anchor="middle" x="341.5" y="-607.5" font-family="Helvetica,sans-Serif" font-size="10.00">||}</text>
</a>
</g>
</g>
<!-- Node10&#45;&gt;Node1 -->
<g id="edge13" class="edge"><title>Node10&#45;&gt;Node1</title>
<path fill="none" stroke="#404040" d="M347.851,-600.165C353.958,-588.087 364.349,-571.328 378.5,-562 410.741,-540.748 439.187,-574.001 463.5,-544 544.923,-443.528 513.358,-285.977 479.663,-184.736"/>
<polygon fill="none" stroke="#404040" points="479.633,-184.648 473.912,-180.257 475.764,-173.288 481.485,-177.678 479.633,-184.648"/>
<text text-anchor="middle" x="559" y="-354.5" font-family="Helvetica,sans-Serif" font-size="10.00"> &#45;projectionCurveID_</text>
</g>
<!-- Node10&#45;&gt;Node2 -->
<g id="edge9" class="edge"><title>Node10&#45;&gt;Node2</title>
<path fill="none" stroke="#404040" d="M335.397,-600.244C329.748,-586.229 321.748,-564.081 318.5,-544 317.032,-534.922 315.878,-525.563 314.986,-516.096"/>
<polygon fill="none" stroke="#404040" points="314.98,-516.021 310.5,-510.37 313.993,-504.061 318.473,-509.712 314.98,-516.021"/>
<text text-anchor="middle" x="354.5" y="-536" font-family="Helvetica,sans-Serif" font-size="10.00"> &#45;conventionsID_</text>
<text text-anchor="middle" x="354.5" y="-525" font-family="Helvetica,sans-Serif" font-size="10.00">&#45;typeID_</text>
</g>
<!-- Node11 -->
<g id="node11" class="node"><title>Node11</title>
<g id="a_node11"><a xlink:title=" ">
<polygon fill="white" stroke="#666666" points="396.5,-746 286.5,-746 286.5,-716 396.5,-716 396.5,-746"/>
<text text-anchor="middle" x="341.5" y="-734" font-family="Helvetica,sans-Serif" font-size="10.00">{basic_string&lt; Char &gt;</text>
<text text-anchor="middle" x="341.5" y="-723" font-family="Helvetica,sans-Serif" font-size="10.00">||}</text>
</a>
</g>
</g>
<!-- Node11&#45;&gt;Node10 -->
<g id="edge10" class="edge"><title>Node11&#45;&gt;Node10</title>
<path fill="none" stroke="#63b8ff" d="M341.5,-705.37C341.5,-682.571 341.5,-649.46 341.5,-630.758"/>
<polygon fill="none" stroke="#63b8ff" points="338,-705.625 341.5,-715.625 345,-705.625 338,-705.625"/>
</g>
<!-- Node12 -->
<g id="node12" class="node"><title>Node12</title>
<g id="a_node12"><a xlink:title=" ">
<polygon fill="white" stroke="#666666" points="437.5,-630.5 387.5,-630.5 387.5,-600.5 437.5,-600.5 437.5,-630.5"/>
<text text-anchor="middle" x="412.5" y="-618.5" font-family="Helvetica,sans-Serif" font-size="10.00">{Choice</text>
<text text-anchor="middle" x="412.5" y="-607.5" font-family="Helvetica,sans-Serif" font-size="10.00">||}</text>
</a>
</g>
</g>
<!-- Node12&#45;&gt;Node2 -->
<g id="edge11" class="edge"><title>Node12&#45;&gt;Node2</title>
<path fill="none" stroke="#404040" d="M410.007,-600.483C406.559,-582.163 399.702,-549.208 390.5,-522 388.871,-517.184 387.154,-512.316 385.365,-507.422"/>
<polygon fill="none" stroke="#404040" points="385.283,-507.205 379.432,-502.99 381.071,-495.968 386.923,-500.182 385.283,-507.205"/>
<text text-anchor="middle" x="428.5" y="-530.5" font-family="Helvetica,sans-Serif" font-size="10.00"> &#45;pillarChoice_</text>
</g>
<!-- Node13 -->
<g id="node13" class="node"><title>Node13</title>
<g id="a_node13"><a xlink:title=" ">
<polygon fill="white" stroke="#666666" points="542,-630.5 503,-630.5 503,-600.5 542,-600.5 542,-630.5"/>
<text text-anchor="middle" x="522.5" y="-618.5" font-family="Helvetica,sans-Serif" font-size="10.00">{Size</text>
<text text-anchor="middle" x="522.5" y="-607.5" font-family="Helvetica,sans-Serif" font-size="10.00">||}</text>
</a>
</g>
</g>
<!-- Node13&#45;&gt;Node2 -->
<g id="edge12" class="edge"><title>Node13&#45;&gt;Node2</title>
<path fill="none" stroke="#404040" d="M514.372,-600.244C503.565,-581.666 483.494,-548.433 463.5,-522 440.773,-491.954 413.835,-460.665 389.323,-433.57"/>
<polygon fill="none" stroke="#404040" points="389.191,-433.425 382.194,-431.68 381.114,-424.551 388.111,-426.295 389.191,-433.425"/>
<text text-anchor="middle" x="511.5" y="-536" font-family="Helvetica,sans-Serif" font-size="10.00"> &#45;minDistance_</text>
<text text-anchor="middle" x="511.5" y="-525" font-family="Helvetica,sans-Serif" font-size="10.00">&#45;priority_</text>
</g>
</g>
</svg>
