<?xml version="1.0" encoding="UTF-8" standalone="no"?>
<!DOCTYPE svg PUBLIC "-//W3C//DTD SVG 1.1//EN"
 "http://www.w3.org/Graphics/SVG/1.1/DTD/svg11.dtd">
<!-- Generated by graphviz version 2.38.0 (20140413.2041)
 -->
<!-- Title: swapIndexBases Pages: 1 -->
<svg width="431pt" height="64pt"
 viewBox="0.00 0.00 431.00 64.00" xmlns="http://www.w3.org/2000/svg" xmlns:xlink="http://www.w3.org/1999/xlink">
<g id="graph0" class="graph" transform="scale(1 1) rotate(0) translate(4 60)">
<title>swapIndexBases</title>
<!-- Node1 -->
<g id="node1" class="node"><title>Node1</title>
<g id="a_node1"><a xlink:title=" ">
<polygon fill="#999999" stroke="#666666" points="90,-37 0,-37 0,-18 90,-18 90,-37"/>
<text text-anchor="middle" x="45" y="-25" font-family="Helvetica,sans-Serif" font-size="10.00">swapIndexBases</text>
</a>
</g>
</g>
<!-- Node2 -->
<g id="node2" class="node"><title>Node2</title>
<g id="a_node2"><a xlink:href="classore_1_1data_1_1_market_impl.html#af2e760ddfcac8f64fa739d3e8bf6362b" target="_top" xlink:title=" ">
<polygon fill="white" stroke="#666666" points="217.5,-56 171.5,-56 171.5,-37 217.5,-37 217.5,-56"/>
<text text-anchor="middle" x="194.5" y="-44" font-family="Helvetica,sans-Serif" font-size="10.00">require</text>
</a>
</g>
</g>
<!-- Node1&#45;&gt;Node2 -->
<g id="edge1" class="edge"><title>Node1&#45;&gt;Node2</title>
<path fill="none" stroke="#63b8ff" d="M90.2549,-33.2006C113.194,-36.1555 140.692,-39.6976 161.539,-42.383"/>
<polygon fill="#63b8ff" stroke="#63b8ff" points="161.117,-45.8575 171.483,-43.6638 162.012,-38.9149 161.117,-45.8575"/>
</g>
<!-- Node3 -->
<g id="node3" class="node"><title>Node3</title>
<g id="a_node3"><a xlink:href="group__utilities.html#ga53500116b2cd1c6fd1598065f9ef64b2" target="_top" xlink:title="Try to convert std::string to QuantLib::IborIndex.">
<polygon fill="white" stroke="#666666" points="263,-19 126,-19 126,-0 263,-0 263,-19"/>
<text text-anchor="middle" x="194.5" y="-7" font-family="Helvetica,sans-Serif" font-size="10.00">ore::data::tryParseIborIndex</text>
</a>
</g>
</g>
<!-- Node1&#45;&gt;Node3 -->
<g id="edge2" class="edge"><title>Node1&#45;&gt;Node3</title>
<path fill="none" stroke="#63b8ff" d="M90.2549,-22.0994C98.3057,-21.1169 106.918,-20.0659 115.607,-19.0056"/>
<polygon fill="#63b8ff" stroke="#63b8ff" points="116.312,-22.4457 125.814,-17.76 115.464,-15.4972 116.312,-22.4457"/>
</g>
<!-- Node4 -->
<g id="node4" class="node"><title>Node4</title>
<g id="a_node4"><a xlink:href="group__utilities.html#ga2d18ab5807f92319c9db2c13f4904738" target="_top" xlink:title="Convert std::string to QuantLib::IborIndex.">
<polygon fill="white" stroke="#666666" points="423,-19 299,-19 299,-0 423,-0 423,-19"/>
<text text-anchor="middle" x="361" y="-7" font-family="Helvetica,sans-Serif" font-size="10.00">ore::data::parseIborIndex</text>
</a>
</g>
</g>
<!-- Node3&#45;&gt;Node4 -->
<g id="edge3" class="edge"><title>Node3&#45;&gt;Node4</title>
<path fill="none" stroke="#63b8ff" d="M263.358,-9.5C271.727,-9.5 280.3,-9.5 288.717,-9.5"/>
<polygon fill="#63b8ff" stroke="#63b8ff" points="288.883,-13.0001 298.883,-9.5 288.883,-6.0001 288.883,-13.0001"/>
</g>
<!-- Node4&#45;&gt;Node4 -->
<g id="edge4" class="edge"><title>Node4&#45;&gt;Node4</title>
<path fill="none" stroke="#63b8ff" d="M335.415,-19.0828C322.968,-27.7337 331.496,-37 361,-37 380.362,-37 390.691,-33.0094 391.986,-27.8208"/>
<polygon fill="#63b8ff" stroke="#63b8ff" points="394.82,-25.7493 386.585,-19.0828 388.865,-29.4294 394.82,-25.7493"/>
</g>
</g>
</svg>
