<?xml version="1.0" encoding="UTF-8" standalone="no"?>
<!DOCTYPE svg PUBLIC "-//W3C//DTD SVG 1.1//EN"
 "http://www.w3.org/Graphics/SVG/1.1/DTD/svg11.dtd">
<!-- Generated by graphviz version 2.38.0 (20140413.2041)
 -->
<!-- Title: DiscountQuote Pages: 1 -->
<svg width="562pt" height="500pt"
 viewBox="0.00 0.00 561.50 500.00" xmlns="http://www.w3.org/2000/svg" xmlns:xlink="http://www.w3.org/1999/xlink">
<g id="graph0" class="graph" transform="scale(1 1) rotate(0) translate(4 496)">
<title>DiscountQuote</title>
<!-- Node1 -->
<g id="node1" class="node"><title>Node1</title>
<g id="a_node1"><a xlink:title="Discount market data class.">
<polygon fill="#999999" stroke="#666666" points="466.5,-129 361.5,-129 361.5,-0 466.5,-0 466.5,-129"/>
<text text-anchor="middle" x="414" y="-117" font-family="Helvetica,sans-Serif" font-size="10.00">{DiscountQuote</text>
<text text-anchor="start" x="369.5" y="-106" font-family="Helvetica,sans-Serif" font-size="10.00">||+ DiscountQuote()</text>
<text text-anchor="start" x="369.5" y="-95" font-family="Helvetica,sans-Serif" font-size="10.00">+ DiscountQuote()</text>
<text text-anchor="start" x="369.5" y="-84" font-family="Helvetica,sans-Serif" font-size="10.00">+ clone()</text>
<text text-anchor="start" x="369.5" y="-73" font-family="Helvetica,sans-Serif" font-size="10.00">* boost::serialization</text>
<text text-anchor="start" x="369.5" y="-62" font-family="Helvetica,sans-Serif" font-size="10.00">::access</text>
<text text-anchor="start" x="369.5" y="-51" font-family="Helvetica,sans-Serif" font-size="10.00">* ccy()</text>
<text text-anchor="start" x="369.5" y="-40" font-family="Helvetica,sans-Serif" font-size="10.00">* date()</text>
<text text-anchor="start" x="369.5" y="-29" font-family="Helvetica,sans-Serif" font-size="10.00">* tenor()</text>
<text text-anchor="start" x="369.5" y="-18" font-family="Helvetica,sans-Serif" font-size="10.00">* serialize()</text>
<text text-anchor="middle" x="414" y="-7" font-family="Helvetica,sans-Serif" font-size="10.00">}</text>
</a>
</g>
</g>
<!-- Node2 -->
<g id="node2" class="node"><title>Node2</title>
<g id="a_node2"><a xlink:href="classore_1_1data_1_1_market_datum.html" target="_top" xlink:title="Base market data class.">
<polygon fill="white" stroke="#666666" points="340.5,-338 235.5,-338 235.5,-176 340.5,-176 340.5,-338"/>
<text text-anchor="middle" x="288" y="-326" font-family="Helvetica,sans-Serif" font-size="10.00">{MarketDatum</text>
<text text-anchor="start" x="243.5" y="-315" font-family="Helvetica,sans-Serif" font-size="10.00">||+ MarketDatum()</text>
<text text-anchor="start" x="243.5" y="-304" font-family="Helvetica,sans-Serif" font-size="10.00">+ MarketDatum()</text>
<text text-anchor="start" x="243.5" y="-293" font-family="Helvetica,sans-Serif" font-size="10.00">+ ~MarketDatum()</text>
<text text-anchor="start" x="243.5" y="-282" font-family="Helvetica,sans-Serif" font-size="10.00">+ clone()</text>
<text text-anchor="start" x="243.5" y="-271" font-family="Helvetica,sans-Serif" font-size="10.00">* boost::serialization</text>
<text text-anchor="start" x="243.5" y="-260" font-family="Helvetica,sans-Serif" font-size="10.00">::access</text>
<text text-anchor="start" x="243.5" y="-249" font-family="Helvetica,sans-Serif" font-size="10.00">* name()</text>
<text text-anchor="start" x="243.5" y="-238" font-family="Helvetica,sans-Serif" font-size="10.00">* quote()</text>
<text text-anchor="start" x="243.5" y="-227" font-family="Helvetica,sans-Serif" font-size="10.00">* asofDate()</text>
<text text-anchor="start" x="243.5" y="-216" font-family="Helvetica,sans-Serif" font-size="10.00">* instrumentType()</text>
<text text-anchor="start" x="243.5" y="-205" font-family="Helvetica,sans-Serif" font-size="10.00">* quoteType()</text>
<text text-anchor="start" x="243.5" y="-194" font-family="Helvetica,sans-Serif" font-size="10.00">* serialize()</text>
<text text-anchor="middle" x="288" y="-183" font-family="Helvetica,sans-Serif" font-size="10.00">}</text>
</a>
</g>
</g>
<!-- Node2&#45;&gt;Node1 -->
<g id="edge1" class="edge"><title>Node2&#45;&gt;Node1</title>
<path fill="none" stroke="#63b8ff" d="M346.197,-168.012C354.867,-154.903 363.661,-141.608 371.913,-129.131"/>
<polygon fill="none" stroke="#63b8ff" points="343.12,-166.319 340.523,-176.59 348.959,-170.18 343.12,-166.319"/>
</g>
<!-- Node3 -->
<g id="node3" class="node"><title>Node3</title>
<g id="a_node3"><a xlink:title=" ">
<polygon fill="white" stroke="#666666" points="393,-415 299,-415 299,-385 393,-385 393,-415"/>
<text text-anchor="middle" x="346" y="-403" font-family="Helvetica,sans-Serif" font-size="10.00">{Handle&lt; Quote &gt;</text>
<text text-anchor="middle" x="346" y="-392" font-family="Helvetica,sans-Serif" font-size="10.00">||}</text>
</a>
</g>
</g>
<!-- Node3&#45;&gt;Node2 -->
<g id="edge2" class="edge"><title>Node3&#45;&gt;Node2</title>
<path fill="none" stroke="#404040" d="M338.535,-384.803C335.739,-379.299 332.609,-372.91 330,-367 327.505,-361.347 325.008,-355.496 322.547,-349.574"/>
<polygon fill="none" stroke="#404040" points="322.409,-349.237 316.435,-345.198 317.865,-338.13 323.839,-342.169 322.409,-349.237"/>
<text text-anchor="middle" x="349" y="-359" font-family="Helvetica,sans-Serif" font-size="10.00"> #quote_</text>
</g>
<!-- Node4 -->
<g id="node4" class="node"><title>Node4</title>
<g id="a_node4"><a xlink:title=" ">
<polygon fill="white" stroke="#666666" points="371,-492 321,-492 321,-462 371,-462 371,-492"/>
<text text-anchor="middle" x="346" y="-480" font-family="Helvetica,sans-Serif" font-size="10.00">{Handle</text>
<text text-anchor="middle" x="346" y="-469" font-family="Helvetica,sans-Serif" font-size="10.00">||}</text>
</a>
</g>
</g>
<!-- Node4&#45;&gt;Node3 -->
<g id="edge3" class="edge"><title>Node4&#45;&gt;Node3</title>
<path fill="none" stroke="orange" d="M346,-451.541C346,-439.451 346,-425.294 346,-415.044"/>
<polygon fill="orange" stroke="orange" points="342.5,-451.893 346,-461.893 349.5,-451.893 342.5,-451.893"/>
<text text-anchor="middle" x="370" y="-436" font-family="Helvetica,sans-Serif" font-size="10.00"> &lt; Quote &gt;</text>
</g>
<!-- Node5 -->
<g id="node5" class="node"><title>Node5</title>
<g id="a_node5"><a xlink:title=" ">
<polygon fill="white" stroke="#666666" points="464,-415 424,-415 424,-385 464,-385 464,-415"/>
<text text-anchor="middle" x="444" y="-403" font-family="Helvetica,sans-Serif" font-size="10.00">{Date</text>
<text text-anchor="middle" x="444" y="-392" font-family="Helvetica,sans-Serif" font-size="10.00">||}</text>
</a>
</g>
</g>
<!-- Node5&#45;&gt;Node1 -->
<g id="edge10" class="edge"><title>Node5&#45;&gt;Node1</title>
<path fill="none" stroke="#404040" d="M443.94,-384.655C443.836,-376.29 443.586,-365.54 443,-356 438.509,-282.912 429.85,-199.797 423.159,-141.25"/>
<polygon fill="none" stroke="#404040" points="423.137,-141.063 418.477,-135.561 421.763,-129.142 426.424,-134.644 423.137,-141.063"/>
<text text-anchor="middle" x="457.5" y="-254.5" font-family="Helvetica,sans-Serif" font-size="10.00"> &#45;date_</text>
</g>
<!-- Node5&#45;&gt;Node2 -->
<g id="edge4" class="edge"><title>Node5&#45;&gt;Node2</title>
<path fill="none" stroke="#404040" d="M423.776,-388.498C413.52,-382.757 401.126,-375.162 391,-367 376.617,-355.406 362.294,-341.865 349.103,-328.347"/>
<polygon fill="none" stroke="#404040" points="348.914,-328.15 341.874,-326.587 340.608,-319.488 347.648,-321.05 348.914,-328.15"/>
<text text-anchor="middle" x="417" y="-359" font-family="Helvetica,sans-Serif" font-size="10.00"> #asofDate_</text>
</g>
<!-- Node6 -->
<g id="node6" class="node"><title>Node6</title>
<g id="a_node6"><a xlink:title=" ">
<polygon fill="white" stroke="#666666" points="77,-415 33,-415 33,-385 77,-385 77,-415"/>
<text text-anchor="middle" x="55" y="-403" font-family="Helvetica,sans-Serif" font-size="10.00">{string</text>
<text text-anchor="middle" x="55" y="-392" font-family="Helvetica,sans-Serif" font-size="10.00">||}</text>
</a>
</g>
</g>
<!-- Node6&#45;&gt;Node1 -->
<g id="edge9" class="edge"><title>Node6&#45;&gt;Node1</title>
<path fill="none" stroke="#404040" d="M60.842,-384.925C77.2684,-346.803 127.316,-240.118 198,-176 242.292,-135.822 303.888,-106.223 349.973,-87.8263"/>
<polygon fill="none" stroke="#404040" points="350.157,-87.7546 354.292,-81.8466 361.336,-83.3909 357.201,-89.2989 350.157,-87.7546"/>
<text text-anchor="middle" x="212" y="-254.5" font-family="Helvetica,sans-Serif" font-size="10.00"> &#45;ccy_</text>
</g>
<!-- Node6&#45;&gt;Node2 -->
<g id="edge5" class="edge"><title>Node6&#45;&gt;Node2</title>
<path fill="none" stroke="#404040" d="M73.2121,-384.876C84.6803,-376.197 99.9268,-365.048 114,-356 149.789,-332.991 191.25,-309.522 224.721,-291.321"/>
<polygon fill="none" stroke="#404040" points="224.735,-291.313 228.109,-284.94 235.29,-285.604 231.916,-291.977 224.735,-291.313"/>
<text text-anchor="middle" x="133" y="-359" font-family="Helvetica,sans-Serif" font-size="10.00"> #name_</text>
</g>
<!-- Node7 -->
<g id="node7" class="node"><title>Node7</title>
<g id="a_node7"><a xlink:title=" ">
<polygon fill="white" stroke="#666666" points="110,-492 0,-492 0,-462 110,-462 110,-492"/>
<text text-anchor="middle" x="55" y="-480" font-family="Helvetica,sans-Serif" font-size="10.00">{basic_string&lt; Char &gt;</text>
<text text-anchor="middle" x="55" y="-469" font-family="Helvetica,sans-Serif" font-size="10.00">||}</text>
</a>
</g>
</g>
<!-- Node7&#45;&gt;Node6 -->
<g id="edge6" class="edge"><title>Node7&#45;&gt;Node6</title>
<path fill="none" stroke="#63b8ff" d="M55,-451.541C55,-439.451 55,-425.294 55,-415.044"/>
<polygon fill="none" stroke="#63b8ff" points="51.5001,-451.893 55,-461.893 58.5001,-451.893 51.5001,-451.893"/>
</g>
<!-- Node8 -->
<g id="node8" class="node"><title>Node8</title>
<g id="a_node8"><a xlink:title=" ">
<polygon fill="white" stroke="#666666" points="186,-415 100,-415 100,-385 186,-385 186,-415"/>
<text text-anchor="middle" x="143" y="-403" font-family="Helvetica,sans-Serif" font-size="10.00">{InstrumentType</text>
<text text-anchor="middle" x="143" y="-392" font-family="Helvetica,sans-Serif" font-size="10.00">||}</text>
</a>
</g>
</g>
<!-- Node8&#45;&gt;Node2 -->
<g id="edge7" class="edge"><title>Node8&#45;&gt;Node2</title>
<path fill="none" stroke="#404040" d="M147.247,-384.884C150.379,-375.998 155.27,-364.62 162,-356 179.526,-333.554 203.284,-313.337 225.447,-297.176"/>
<polygon fill="none" stroke="#404040" points="225.707,-296.992 228.282,-290.257 235.49,-290.043 232.915,-296.779 225.707,-296.992"/>
<text text-anchor="middle" x="202.5" y="-359" font-family="Helvetica,sans-Serif" font-size="10.00"> #instrumentType_</text>
</g>
<!-- Node9 -->
<g id="node9" class="node"><title>Node9</title>
<g id="a_node9"><a xlink:title=" ">
<polygon fill="white" stroke="#666666" points="280.5,-415 213.5,-415 213.5,-385 280.5,-385 280.5,-415"/>
<text text-anchor="middle" x="247" y="-403" font-family="Helvetica,sans-Serif" font-size="10.00">{QuoteType</text>
<text text-anchor="middle" x="247" y="-392" font-family="Helvetica,sans-Serif" font-size="10.00">||}</text>
</a>
</g>
</g>
<!-- Node9&#45;&gt;Node2 -->
<g id="edge8" class="edge"><title>Node9&#45;&gt;Node2</title>
<path fill="none" stroke="#404040" d="M246.049,-384.91C245.793,-376.444 246.02,-365.503 248,-356 248.425,-353.959 248.891,-351.907 249.394,-349.848"/>
<polygon fill="none" stroke="#404040" points="249.464,-349.592 247.193,-342.748 252.638,-338.02 254.908,-344.864 249.464,-349.592"/>
<text text-anchor="middle" x="277.5" y="-359" font-family="Helvetica,sans-Serif" font-size="10.00"> #quoteType_</text>
</g>
<!-- Node10 -->
<g id="node10" class="node"><title>Node10</title>
<g id="a_node10"><a xlink:title=" ">
<polygon fill="white" stroke="#666666" points="553.5,-272 506.5,-272 506.5,-242 553.5,-242 553.5,-272"/>
<text text-anchor="middle" x="530" y="-260" font-family="Helvetica,sans-Serif" font-size="10.00">{Period</text>
<text text-anchor="middle" x="530" y="-249" font-family="Helvetica,sans-Serif" font-size="10.00">||}</text>
</a>
</g>
</g>
<!-- Node10&#45;&gt;Node1 -->
<g id="edge11" class="edge"><title>Node10&#45;&gt;Node1</title>
<path fill="none" stroke="#404040" d="M524.114,-241.753C517.182,-225.458 504.96,-198.167 492,-176 484.87,-163.805 476.785,-151.24 468.585,-139.152"/>
<polygon fill="none" stroke="#404040" points="468.491,-139.015 461.795,-136.339 461.69,-129.129 468.386,-131.805 468.491,-139.015"/>
<text text-anchor="middle" x="498" y="-150" font-family="Helvetica,sans-Serif" font-size="10.00"> &#45;tenor_</text>
</g>
</g>
</svg>
