<?xml version="1.0" encoding="UTF-8" standalone="no"?>
<!DOCTYPE svg PUBLIC "-//W3C//DTD SVG 1.1//EN"
 "http://www.w3.org/Graphics/SVG/1.1/DTD/svg11.dtd">
<!-- Generated by graphviz version 2.38.0 (20140413.2041)
 -->
<!-- Title: swapIndexBases Pages: 1 -->
<svg width="410pt" height="64pt"
 viewBox="0.00 0.00 410.00 64.00" xmlns="http://www.w3.org/2000/svg" xmlns:xlink="http://www.w3.org/1999/xlink">
<g id="graph0" class="graph" transform="scale(1 1) rotate(0) translate(4 60)">
<title>swapIndexBases</title>
<!-- Node1 -->
<g id="node1" class="node"><title>Node1</title>
<g id="a_node1"><a xlink:title=" ">
<polygon fill="#999999" stroke="#666666" points="402,-37 312,-37 312,-18 402,-18 402,-37"/>
<text text-anchor="middle" x="357" y="-25" font-family="Helvetica,sans-Serif" font-size="10.00">swapIndexBases</text>
</a>
</g>
</g>
<!-- Node2 -->
<g id="node2" class="node"><title>Node2</title>
<g id="a_node2"><a xlink:href="classore_1_1data_1_1_market_impl.html#a0dd15d7307d3eabe0b1d9012e64cd3aa" target="_top" xlink:title=" ">
<polygon fill="white" stroke="#666666" points="276,-56 168,-56 168,-37 276,-37 276,-56"/>
<text text-anchor="middle" x="222" y="-44" font-family="Helvetica,sans-Serif" font-size="10.00">shortSwapIndexBase</text>
</a>
</g>
</g>
<!-- Node1&#45;&gt;Node2 -->
<g id="edge1" class="edge"><title>Node1&#45;&gt;Node2</title>
<path fill="none" stroke="#63b8ff" d="M301.677,-35.2604C293.31,-36.4557 284.677,-37.6889 276.333,-38.881"/>
<polygon fill="#63b8ff" stroke="#63b8ff" points="302.308,-38.7058 311.713,-33.8267 301.318,-31.7762 302.308,-38.7058"/>
</g>
<!-- Node4 -->
<g id="node4" class="node"><title>Node4</title>
<g id="a_node4"><a xlink:href="classore_1_1data_1_1_market_impl.html#a1177363d3c16f7c943b873d8ebd14f4d" target="_top" xlink:title=" ">
<polygon fill="white" stroke="#666666" points="264.5,-19 179.5,-19 179.5,-0 264.5,-0 264.5,-19"/>
<text text-anchor="middle" x="222" y="-7" font-family="Helvetica,sans-Serif" font-size="10.00">swapIndexBase</text>
</a>
</g>
</g>
<!-- Node1&#45;&gt;Node4 -->
<g id="edge3" class="edge"><title>Node1&#45;&gt;Node4</title>
<path fill="none" stroke="#63b8ff" d="M301.585,-20.1356C289.323,-18.4761 276.495,-16.7399 264.842,-15.1629"/>
<polygon fill="#63b8ff" stroke="#63b8ff" points="301.334,-23.6334 311.713,-21.5063 302.273,-16.6966 301.334,-23.6334"/>
</g>
<!-- Node3 -->
<g id="node3" class="node"><title>Node3</title>
<g id="a_node3"><a xlink:href="class_ored_test_market.html#ab19dad4599472bbfab0270154f542504" target="_top" xlink:title=" ">
<polygon fill="white" stroke="#666666" points="132,-42.5 0,-42.5 0,-12.5 132,-12.5 132,-42.5"/>
<text text-anchor="start" x="8" y="-30.5" font-family="Helvetica,sans-Serif" font-size="10.00">OredTestMarket::OredTest</text>
<text text-anchor="middle" x="66" y="-19.5" font-family="Helvetica,sans-Serif" font-size="10.00">Market</text>
</a>
</g>
</g>
<!-- Node2&#45;&gt;Node3 -->
<g id="edge2" class="edge"><title>Node2&#45;&gt;Node3</title>
<path fill="none" stroke="#63b8ff" d="M157.461,-38.6607C149.06,-37.6243 140.439,-36.5606 132.013,-35.5211"/>
<polygon fill="#63b8ff" stroke="#63b8ff" points="157.217,-42.1571 167.57,-39.908 158.074,-35.2098 157.217,-42.1571"/>
</g>
<!-- Node4&#45;&gt;Node3 -->
<g id="edge4" class="edge"><title>Node4&#45;&gt;Node3</title>
<path fill="none" stroke="#63b8ff" d="M169.16,-15.5592C157.293,-16.9463 144.529,-18.4381 132.182,-19.8814"/>
<polygon fill="#63b8ff" stroke="#63b8ff" points="169.799,-19.0084 179.325,-14.3711 168.987,-12.0557 169.799,-19.0084"/>
</g>
</g>
</svg>
