<?xml version="1.0" encoding="UTF-8" standalone="no"?>
<!DOCTYPE svg PUBLIC "-//W3C//DTD SVG 1.1//EN"
 "http://www.w3.org/Graphics/SVG/1.1/DTD/svg11.dtd">
<!-- Generated by graphviz version 2.38.0 (20140413.2041)
 -->
<!-- Title: BlackScholesModelBuilderBase Pages: 1 -->
<svg width="1314pt" height="742pt"
 viewBox="0.00 0.00 1314.00 742.00" xmlns="http://www.w3.org/2000/svg" xmlns:xlink="http://www.w3.org/1999/xlink">
<g id="graph0" class="graph" transform="scale(1 1) rotate(0) translate(4 738)">
<title>BlackScholesModelBuilderBase</title>
<!-- Node1 -->
<g id="node1" class="node"><title>Node1</title>
<g id="a_node1"><a xlink:title=" ">
<polygon fill="#999999" stroke="#666666" points="596,-195 438,-195 438,-0 596,-0 596,-195"/>
<text text-anchor="middle" x="517" y="-183" font-family="Helvetica,sans-Serif" font-size="10.00">{BlackScholesModelBuilderBase</text>
<text text-anchor="start" x="446" y="-172" font-family="Helvetica,sans-Serif" font-size="10.00">||+ BlackScholesModelBuilder</text>
<text text-anchor="start" x="446" y="-161" font-family="Helvetica,sans-Serif" font-size="10.00">Base()</text>
<text text-anchor="start" x="446" y="-150" font-family="Helvetica,sans-Serif" font-size="10.00">+ BlackScholesModelBuilder</text>
<text text-anchor="start" x="446" y="-139" font-family="Helvetica,sans-Serif" font-size="10.00">Base()</text>
<text text-anchor="start" x="446" y="-128" font-family="Helvetica,sans-Serif" font-size="10.00">+ model()</text>
<text text-anchor="start" x="446" y="-117" font-family="Helvetica,sans-Serif" font-size="10.00">* forceRecalculate()</text>
<text text-anchor="start" x="446" y="-106" font-family="Helvetica,sans-Serif" font-size="10.00">* requiresRecalibration()</text>
<text text-anchor="start" x="446" y="-95" font-family="Helvetica,sans-Serif" font-size="10.00">* BlackScholesModelBuilder</text>
<text text-anchor="start" x="446" y="-84" font-family="Helvetica,sans-Serif" font-size="10.00">Base()</text>
<text text-anchor="start" x="446" y="-73" font-family="Helvetica,sans-Serif" font-size="10.00">* setupDatesAndTimes()</text>
<text text-anchor="start" x="446" y="-62" font-family="Helvetica,sans-Serif" font-size="10.00">* getCalibratedProcesses()</text>
<text text-anchor="start" x="446" y="-51" font-family="Helvetica,sans-Serif" font-size="10.00">* getCurveTimes()</text>
<text text-anchor="start" x="446" y="-40" font-family="Helvetica,sans-Serif" font-size="10.00">* getVolTimesStrikes()</text>
<text text-anchor="start" x="446" y="-29" font-family="Helvetica,sans-Serif" font-size="10.00">* performCalculations()</text>
<text text-anchor="start" x="446" y="-18" font-family="Helvetica,sans-Serif" font-size="10.00">* calibrationPointsChanged()</text>
<text text-anchor="middle" x="517" y="-7" font-family="Helvetica,sans-Serif" font-size="10.00">}</text>
</a>
</g>
</g>
<!-- Node2 -->
<g id="node2" class="node"><title>Node2</title>
<g id="a_node2"><a target="_parent" xlink:href="../qle/class_quant_ext_1_1_model_builder.html" xlink:title=" ">
<polygon fill="white" stroke="#666666" points="122,-338 7.10543e-015,-338 7.10543e-015,-275 122,-275 122,-338"/>
<text text-anchor="middle" x="61" y="-326" font-family="Helvetica,sans-Serif" font-size="10.00">{ModelBuilder</text>
<text text-anchor="start" x="8" y="-315" font-family="Helvetica,sans-Serif" font-size="10.00">||+ recalibrate()</text>
<text text-anchor="start" x="8" y="-304" font-family="Helvetica,sans-Serif" font-size="10.00">+ forceRecalculate()</text>
<text text-anchor="start" x="8" y="-293" font-family="Helvetica,sans-Serif" font-size="10.00">+ requiresRecalibration()</text>
<text text-anchor="middle" x="61" y="-282" font-family="Helvetica,sans-Serif" font-size="10.00">}</text>
</a>
</g>
</g>
<!-- Node2&#45;&gt;Node1 -->
<g id="edge1" class="edge"><title>Node2&#45;&gt;Node1</title>
<path fill="none" stroke="#63b8ff" d="M84.6723,-266.466C97.7247,-247.89 115.451,-226.78 136,-213 228.786,-150.778 356.423,-121.474 437.828,-108.33"/>
<polygon fill="none" stroke="#63b8ff" points="81.7423,-264.551 79.0108,-274.787 87.5298,-268.488 81.7423,-264.551"/>
</g>
<!-- Node3 -->
<g id="node3" class="node"><title>Node3</title>
<g id="a_node3"><a xlink:title=" ">
<polygon fill="white" stroke="#666666" points="362.5,-541.5 225.5,-541.5 225.5,-500.5 362.5,-500.5 362.5,-541.5"/>
<text text-anchor="start" x="233.5" y="-529.5" font-family="Helvetica,sans-Serif" font-size="10.00">{vector&lt; Handle&lt; YieldTerm</text>
<text text-anchor="middle" x="294" y="-518.5" font-family="Helvetica,sans-Serif" font-size="10.00">Structure &gt; &gt;</text>
<text text-anchor="middle" x="294" y="-507.5" font-family="Helvetica,sans-Serif" font-size="10.00">||}</text>
</a>
</g>
</g>
<!-- Node3&#45;&gt;Node1 -->
<g id="edge2" class="edge"><title>Node3&#45;&gt;Node1</title>
<path fill="none" stroke="#404040" d="M284.56,-500.431C261.104,-448.705 206.23,-305.961 266,-213 301.126,-158.368 369.466,-129.487 425.978,-114.404"/>
<polygon fill="none" stroke="#404040" points="426.21,-114.345 431.041,-108.991 437.841,-111.391 433.011,-116.745 426.21,-114.345"/>
<text text-anchor="middle" x="273.5" y="-375.5" font-family="Helvetica,sans-Serif" font-size="10.00"> #allCurves_</text>
<text text-anchor="middle" x="273.5" y="-364.5" font-family="Helvetica,sans-Serif" font-size="10.00">#curves_</text>
</g>
<!-- Node4 -->
<g id="node4" class="node"><title>Node4</title>
<g id="a_node4"><a xlink:title=" ">
<polygon fill="white" stroke="#666666" points="382.5,-651.5 231.5,-651.5 231.5,-621.5 382.5,-621.5 382.5,-651.5"/>
<text text-anchor="middle" x="307" y="-639.5" font-family="Helvetica,sans-Serif" font-size="10.00">{Handle&lt; YieldTermStructure &gt;</text>
<text text-anchor="middle" x="307" y="-628.5" font-family="Helvetica,sans-Serif" font-size="10.00">||}</text>
</a>
</g>
</g>
<!-- Node4&#45;&gt;Node3 -->
<g id="edge3" class="edge"><title>Node4&#45;&gt;Node3</title>
<path fill="none" stroke="#404040" d="M290.825,-621.44C284.623,-614.999 278.257,-606.833 275,-598 269.687,-583.59 272.758,-567.105 277.851,-553.18"/>
<polygon fill="none" stroke="#404040" points="278.022,-552.774 276.669,-545.691 282.686,-541.718 284.039,-548.801 278.022,-552.774"/>
<text text-anchor="middle" x="299.5" y="-579" font-family="Helvetica,sans-Serif" font-size="10.00"> +elements</text>
</g>
<!-- Node5 -->
<g id="node5" class="node"><title>Node5</title>
<g id="a_node5"><a xlink:title=" ">
<polygon fill="white" stroke="#666666" points="418,-734 368,-734 368,-704 418,-704 418,-734"/>
<text text-anchor="middle" x="393" y="-722" font-family="Helvetica,sans-Serif" font-size="10.00">{Handle</text>
<text text-anchor="middle" x="393" y="-711" font-family="Helvetica,sans-Serif" font-size="10.00">||}</text>
</a>
</g>
</g>
<!-- Node5&#45;&gt;Node4 -->
<g id="edge4" class="edge"><title>Node5&#45;&gt;Node4</title>
<path fill="none" stroke="orange" d="M358.851,-702.085C351.144,-697.554 343.368,-692.15 337,-686 326.745,-676.096 318.534,-661.988 313.313,-651.54"/>
<polygon fill="orange" stroke="orange" points="357.329,-705.243 367.778,-706.997 360.704,-699.11 357.329,-705.243"/>
<text text-anchor="middle" x="389.5" y="-678" font-family="Helvetica,sans-Serif" font-size="10.00"> &lt; YieldTermStructure &gt;</text>
</g>
<!-- Node20 -->
<g id="node20" class="node"><title>Node20</title>
<g id="a_node20"><a xlink:title=" ">
<polygon fill="white" stroke="#666666" points="576,-651.5 408,-651.5 408,-621.5 576,-621.5 576,-651.5"/>
<text text-anchor="middle" x="492" y="-639.5" font-family="Helvetica,sans-Serif" font-size="10.00">{Handle&lt; BlackVolTermStructure &gt;</text>
<text text-anchor="middle" x="492" y="-628.5" font-family="Helvetica,sans-Serif" font-size="10.00">||}</text>
</a>
</g>
</g>
<!-- Node5&#45;&gt;Node20 -->
<g id="edge21" class="edge"><title>Node5&#45;&gt;Node20</title>
<path fill="none" stroke="orange" d="M424.944,-698.411C430.759,-694.492 436.668,-690.262 442,-686 455.225,-675.429 468.939,-661.915 478.651,-651.838"/>
<polygon fill="orange" stroke="orange" points="423.014,-695.492 416.57,-703.901 426.852,-701.346 423.014,-695.492"/>
<text text-anchor="middle" x="515" y="-678" font-family="Helvetica,sans-Serif" font-size="10.00"> &lt; BlackVolTermStructure &gt;</text>
</g>
<!-- Node6 -->
<g id="node6" class="node"><title>Node6</title>
<g id="a_node6"><a xlink:title=" ">
<polygon fill="white" stroke="#666666" points="881,-651.5 813,-651.5 813,-621.5 881,-621.5 881,-651.5"/>
<text text-anchor="middle" x="847" y="-639.5" font-family="Helvetica,sans-Serif" font-size="10.00">{vector&lt; T &gt;</text>
<text text-anchor="middle" x="847" y="-628.5" font-family="Helvetica,sans-Serif" font-size="10.00">||}</text>
</a>
</g>
</g>
<!-- Node6&#45;&gt;Node3 -->
<g id="edge5" class="edge"><title>Node6&#45;&gt;Node3</title>
<path fill="none" stroke="orange" d="M802.774,-632.312C739.657,-627.209 627.353,-615.919 591,-598 572.112,-588.69 576.111,-573.845 557,-565 481.629,-530.116 452.31,-563.924 371,-547 363.982,-545.539 356.705,-543.669 349.549,-541.609"/>
<polygon fill="orange" stroke="orange" points="802.592,-635.808 812.836,-633.107 803.143,-628.83 802.592,-635.808"/>
<text text-anchor="middle" x="667.5" y="-579" font-family="Helvetica,sans-Serif" font-size="10.00"> &lt; Handle&lt; YieldTermStructure &gt; &gt;</text>
</g>
<!-- Node8 -->
<g id="node8" class="node"><title>Node8</title>
<g id="a_node8"><a xlink:title=" ">
<polygon fill="white" stroke="#666666" points="207,-547 53,-547 53,-495 207,-495 207,-547"/>
<text text-anchor="start" x="61" y="-535" font-family="Helvetica,sans-Serif" font-size="10.00">{vector&lt; QuantLib::ext</text>
<text text-anchor="start" x="61" y="-524" font-family="Helvetica,sans-Serif" font-size="10.00">::shared_ptr&lt; GeneralizedBlack</text>
<text text-anchor="middle" x="130" y="-513" font-family="Helvetica,sans-Serif" font-size="10.00">ScholesProcess &gt; &gt;</text>
<text text-anchor="middle" x="130" y="-502" font-family="Helvetica,sans-Serif" font-size="10.00">||}</text>
</a>
</g>
</g>
<!-- Node6&#45;&gt;Node8 -->
<g id="edge9" class="edge"><title>Node6&#45;&gt;Node8</title>
<path fill="none" stroke="orange" d="M802.532,-632.195C681.006,-623.156 352.249,-598.65 351,-598 334.194,-589.245 340.397,-574.5 324,-565 281.894,-540.605 263.446,-557.811 216,-547 213.12,-546.344 210.193,-545.647 207.243,-544.92"/>
<polygon fill="orange" stroke="orange" points="802.384,-635.694 812.616,-632.945 802.903,-628.713 802.384,-635.694"/>
<text text-anchor="start" x="351" y="-590" font-family="Helvetica,sans-Serif" font-size="10.00"> &lt; QuantLib::ext::shared</text>
<text text-anchor="start" x="351" y="-579" font-family="Helvetica,sans-Serif" font-size="10.00">_ptr&lt; GeneralizedBlackScholes</text>
<text text-anchor="middle" x="420" y="-568" font-family="Helvetica,sans-Serif" font-size="10.00">Process &gt; &gt;</text>
</g>
<!-- Node19 -->
<g id="node19" class="node"><title>Node19</title>
<g id="a_node19"><a xlink:title=" ">
<polygon fill="white" stroke="#666666" points="821,-541.5 689,-541.5 689,-500.5 821,-500.5 821,-541.5"/>
<text text-anchor="start" x="697" y="-529.5" font-family="Helvetica,sans-Serif" font-size="10.00">{vector&lt; Handle&lt; BlackVol</text>
<text text-anchor="middle" x="755" y="-518.5" font-family="Helvetica,sans-Serif" font-size="10.00">TermStructure &gt; &gt;</text>
<text text-anchor="middle" x="755" y="-507.5" font-family="Helvetica,sans-Serif" font-size="10.00">||}</text>
</a>
</g>
</g>
<!-- Node6&#45;&gt;Node19 -->
<g id="edge22" class="edge"><title>Node6&#45;&gt;Node19</title>
<path fill="none" stroke="orange" d="M802.432,-628.044C784.96,-622.717 766.592,-613.598 756,-598 744.806,-581.516 746.47,-558.036 749.717,-541.549"/>
<polygon fill="orange" stroke="orange" points="801.985,-631.548 812.551,-630.762 803.801,-624.788 801.985,-631.548"/>
<text text-anchor="middle" x="841" y="-579" font-family="Helvetica,sans-Serif" font-size="10.00"> &lt; Handle&lt; BlackVolTermStructure &gt; &gt;</text>
</g>
<!-- Node22 -->
<g id="node22" class="node"><title>Node22</title>
<g id="a_node22"><a xlink:title=" ">
<polygon fill="white" stroke="#666666" points="1050.5,-448 951.5,-448 951.5,-407 1050.5,-407 1050.5,-448"/>
<text text-anchor="start" x="959.5" y="-436" font-family="Helvetica,sans-Serif" font-size="10.00">{vector&lt; std::vector</text>
<text text-anchor="middle" x="1001" y="-425" font-family="Helvetica,sans-Serif" font-size="10.00">&lt; Real &gt; &gt;</text>
<text text-anchor="middle" x="1001" y="-414" font-family="Helvetica,sans-Serif" font-size="10.00">||}</text>
</a>
</g>
</g>
<!-- Node6&#45;&gt;Node22 -->
<g id="edge29" class="edge"><title>Node6&#45;&gt;Node22</title>
<path fill="none" stroke="orange" d="M890.718,-622.977C903.751,-617.282 916.955,-609.225 926,-598 955.492,-561.4 929.912,-537.495 950,-495 958.146,-477.769 971.309,-460.759 982.223,-448.256"/>
<polygon fill="orange" stroke="orange" points="889.317,-619.768 881.32,-626.718 891.906,-626.271 889.317,-619.768"/>
<text text-anchor="middle" x="1002" y="-518.5" font-family="Helvetica,sans-Serif" font-size="10.00"> &lt; std::vector&lt; Real &gt; &gt;</text>
</g>
<!-- Node23 -->
<g id="node23" class="node"><title>Node23</title>
<g id="a_node23"><a xlink:title=" ">
<polygon fill="white" stroke="#666666" points="1145.5,-536 1062.5,-536 1062.5,-506 1145.5,-506 1145.5,-536"/>
<text text-anchor="middle" x="1104" y="-524" font-family="Helvetica,sans-Serif" font-size="10.00">{vector&lt; Real &gt;</text>
<text text-anchor="middle" x="1104" y="-513" font-family="Helvetica,sans-Serif" font-size="10.00">||}</text>
</a>
</g>
</g>
<!-- Node6&#45;&gt;Node23 -->
<g id="edge28" class="edge"><title>Node6&#45;&gt;Node23</title>
<path fill="none" stroke="orange" d="M891.142,-626.07C910.863,-620.304 933.539,-611.387 951,-598 965.188,-587.123 959.249,-575.1 974,-565 1001.93,-545.878 1015.97,-557.944 1048,-547 1056.97,-543.936 1066.47,-539.981 1075.05,-536.125"/>
<polygon fill="orange" stroke="orange" points="890.159,-622.71 881.44,-628.729 892.009,-629.462 890.159,-622.71"/>
<text text-anchor="middle" x="994.5" y="-579" font-family="Helvetica,sans-Serif" font-size="10.00"> &lt; Real &gt;</text>
</g>
<!-- Node25 -->
<g id="node25" class="node"><title>Node25</title>
<g id="a_node25"><a xlink:title=" ">
<polygon fill="white" stroke="#666666" points="1306,-541.5 1164,-541.5 1164,-500.5 1306,-500.5 1306,-541.5"/>
<text text-anchor="start" x="1172" y="-529.5" font-family="Helvetica,sans-Serif" font-size="10.00">{vector&lt; std::vector</text>
<text text-anchor="middle" x="1235" y="-518.5" font-family="Helvetica,sans-Serif" font-size="10.00">&lt; std::pair&lt; Real, Real &gt; &gt; &gt;</text>
<text text-anchor="middle" x="1235" y="-507.5" font-family="Helvetica,sans-Serif" font-size="10.00">||}</text>
</a>
</g>
</g>
<!-- Node6&#45;&gt;Node25 -->
<g id="edge32" class="edge"><title>Node6&#45;&gt;Node25</title>
<path fill="none" stroke="orange" d="M891.518,-635.16C927.918,-632.783 979.062,-624.424 1015,-598 1028.63,-587.975 1020.01,-574.529 1034,-565 1078.93,-534.389 1102,-559.145 1155,-547 1161.81,-545.44 1168.88,-543.586 1175.87,-541.603"/>
<polygon fill="orange" stroke="orange" points="891.001,-631.682 881.198,-635.7 891.367,-638.672 891.001,-631.682"/>
<text text-anchor="start" x="1034" y="-584.5" font-family="Helvetica,sans-Serif" font-size="10.00"> &lt; std::vector&lt; std</text>
<text text-anchor="middle" x="1085.5" y="-573.5" font-family="Helvetica,sans-Serif" font-size="10.00">::pair&lt; Real, Real &gt; &gt; &gt;</text>
</g>
<!-- Node7 -->
<g id="node7" class="node"><title>Node7</title>
<g id="a_node7"><a xlink:title=" ">
<polygon fill="white" stroke="#666666" points="861.5,-734 832.5,-734 832.5,-704 861.5,-704 861.5,-734"/>
<text text-anchor="middle" x="847" y="-722" font-family="Helvetica,sans-Serif" font-size="10.00">{T</text>
<text text-anchor="middle" x="847" y="-711" font-family="Helvetica,sans-Serif" font-size="10.00">||}</text>
</a>
</g>
</g>
<!-- Node7&#45;&gt;Node6 -->
<g id="edge6" class="edge"><title>Node7&#45;&gt;Node6</title>
<path fill="none" stroke="#404040" d="M847,-703.978C847,-692.964 847,-677.309 847,-663.958"/>
<polygon fill="none" stroke="#404040" points="847,-663.631 843,-657.631 847,-651.631 851,-657.631 847,-663.631"/>
<text text-anchor="middle" x="871.5" y="-678" font-family="Helvetica,sans-Serif" font-size="10.00"> +elements</text>
</g>
<!-- Node8&#45;&gt;Node1 -->
<g id="edge7" class="edge"><title>Node8&#45;&gt;Node1</title>
<path fill="none" stroke="#404040" d="M132.09,-494.615C138.223,-436.505 161.277,-292.706 243,-213 293.24,-164 367.521,-134.736 426.072,-118.074"/>
<polygon fill="none" stroke="#404040" points="426.367,-117.993 431.09,-112.544 437.937,-114.807 433.214,-120.257 426.367,-117.993"/>
<text text-anchor="middle" x="190.5" y="-370" font-family="Helvetica,sans-Serif" font-size="10.00"> #processes_</text>
</g>
<!-- Node9 -->
<g id="node9" class="node"><title>Node9</title>
<g id="a_node9"><a xlink:title=" ">
<polygon fill="white" stroke="#666666" points="205.5,-657 54.5,-657 54.5,-616 205.5,-616 205.5,-657"/>
<text text-anchor="start" x="62.5" y="-645" font-family="Helvetica,sans-Serif" font-size="10.00">{shared_ptr&lt; GeneralizedBlack</text>
<text text-anchor="middle" x="130" y="-634" font-family="Helvetica,sans-Serif" font-size="10.00">ScholesProcess &gt;</text>
<text text-anchor="middle" x="130" y="-623" font-family="Helvetica,sans-Serif" font-size="10.00">||}</text>
</a>
</g>
</g>
<!-- Node9&#45;&gt;Node8 -->
<g id="edge8" class="edge"><title>Node9&#45;&gt;Node8</title>
<path fill="none" stroke="#404040" d="M130,-615.989C130,-600.465 130,-578.286 130,-559.371"/>
<polygon fill="none" stroke="#404040" points="130,-559.218 126,-553.218 130,-547.218 134,-553.218 130,-559.218"/>
<text text-anchor="middle" x="154.5" y="-579" font-family="Helvetica,sans-Serif" font-size="10.00"> +elements</text>
</g>
<!-- Node10 -->
<g id="node10" class="node"><title>Node10</title>
<g id="a_node10"><a xlink:title=" ">
<polygon fill="white" stroke="#666666" points="362.5,-321.5 291.5,-321.5 291.5,-291.5 362.5,-291.5 362.5,-321.5"/>
<text text-anchor="middle" x="327" y="-309.5" font-family="Helvetica,sans-Serif" font-size="10.00">{set&lt; Date &gt;</text>
<text text-anchor="middle" x="327" y="-298.5" font-family="Helvetica,sans-Serif" font-size="10.00">||}</text>
</a>
</g>
</g>
<!-- Node10&#45;&gt;Node1 -->
<g id="edge10" class="edge"><title>Node10&#45;&gt;Node1</title>
<path fill="none" stroke="#404040" d="M305.334,-291.424C294.322,-282.928 282.022,-271.036 276,-257 268.29,-239.028 265.552,-229.531 276,-213 308.913,-160.924 372.67,-132.054 426.342,-116.333"/>
<polygon fill="none" stroke="#404040" points="426.421,-116.311 431.122,-110.843 437.978,-113.081 433.276,-118.548 426.421,-116.311"/>
<text text-anchor="middle" x="332" y="-249" font-family="Helvetica,sans-Serif" font-size="10.00"> #addDates_</text>
<text text-anchor="start" x="276" y="-238" font-family="Helvetica,sans-Serif" font-size="10.00">#effectiveSimulationDates</text>
<text text-anchor="middle" x="332" y="-227" font-family="Helvetica,sans-Serif" font-size="10.00">_</text>
<text text-anchor="middle" x="332" y="-216" font-family="Helvetica,sans-Serif" font-size="10.00">#simulationDates_</text>
</g>
<!-- Node11 -->
<g id="node11" class="node"><title>Node11</title>
<g id="a_node11"><a xlink:title=" ">
<polygon fill="white" stroke="#666666" points="630,-442.5 590,-442.5 590,-412.5 630,-412.5 630,-442.5"/>
<text text-anchor="middle" x="610" y="-430.5" font-family="Helvetica,sans-Serif" font-size="10.00">{Date</text>
<text text-anchor="middle" x="610" y="-419.5" font-family="Helvetica,sans-Serif" font-size="10.00">||}</text>
</a>
</g>
</g>
<!-- Node11&#45;&gt;Node10 -->
<g id="edge11" class="edge"><title>Node11&#45;&gt;Node10</title>
<path fill="none" stroke="#404040" d="M589.746,-419.735C539.655,-402.886 411.121,-358.907 371,-338 365.714,-335.246 360.316,-331.957 355.193,-328.576"/>
<polygon fill="none" stroke="#404040" points="355.052,-328.478 347.842,-328.349 345.188,-321.644 352.398,-321.773 355.052,-328.478"/>
<text text-anchor="middle" x="512.5" y="-370" font-family="Helvetica,sans-Serif" font-size="10.00"> +keys</text>
</g>
<!-- Node21 -->
<g id="node21" class="node"><title>Node21</title>
<g id="a_node21"><a xlink:href="classore_1_1data_1_1_calibration_point_cache.html" target="_top" xlink:title=" ">
<polygon fill="white" stroke="#666666" points="1059,-327 943,-327 943,-286 1059,-286 1059,-327"/>
<text text-anchor="middle" x="1001" y="-315" font-family="Helvetica,sans-Serif" font-size="10.00">{CalibrationPointCache</text>
<text text-anchor="start" x="951" y="-304" font-family="Helvetica,sans-Serif" font-size="10.00">||+ hasChanged()</text>
<text text-anchor="middle" x="1001" y="-293" font-family="Helvetica,sans-Serif" font-size="10.00">}</text>
</a>
</g>
</g>
<!-- Node11&#45;&gt;Node21 -->
<g id="edge24" class="edge"><title>Node11&#45;&gt;Node21</title>
<path fill="none" stroke="#404040" d="M630.217,-419.213C667.618,-405.851 750.25,-376.888 821,-356 851.809,-346.904 859.965,-346.292 891,-338 903.9,-334.553 917.629,-330.808 930.857,-327.161"/>
<polygon fill="none" stroke="#404040" points="931.261,-327.049 935.977,-321.594 942.826,-323.85 938.11,-329.305 931.261,-327.049"/>
<text text-anchor="middle" x="857" y="-370" font-family="Helvetica,sans-Serif" font-size="10.00"> &#45;referenceDate_</text>
</g>
<!-- Node12 -->
<g id="node12" class="node"><title>Node12</title>
<g id="a_node12"><a xlink:title=" ">
<polygon fill="white" stroke="#666666" points="412,-442.5 354,-442.5 354,-412.5 412,-412.5 412,-442.5"/>
<text text-anchor="middle" x="383" y="-430.5" font-family="Helvetica,sans-Serif" font-size="10.00">{set&lt; K &gt;</text>
<text text-anchor="middle" x="383" y="-419.5" font-family="Helvetica,sans-Serif" font-size="10.00">||}</text>
</a>
</g>
</g>
<!-- Node12&#45;&gt;Node10 -->
<g id="edge12" class="edge"><title>Node12&#45;&gt;Node10</title>
<path fill="none" stroke="orange" d="M372.021,-403.169C360.604,-378.908 343.103,-341.719 333.635,-321.6"/>
<polygon fill="orange" stroke="orange" points="368.931,-404.824 376.356,-412.382 375.265,-401.843 368.931,-404.824"/>
<text text-anchor="middle" x="386" y="-370" font-family="Helvetica,sans-Serif" font-size="10.00"> &lt; Date &gt;</text>
</g>
<!-- Node13 -->
<g id="node13" class="node"><title>Node13</title>
<g id="a_node13"><a xlink:title=" ">
<polygon fill="white" stroke="#666666" points="409.5,-536 380.5,-536 380.5,-506 409.5,-506 409.5,-536"/>
<text text-anchor="middle" x="395" y="-524" font-family="Helvetica,sans-Serif" font-size="10.00">{K</text>
<text text-anchor="middle" x="395" y="-513" font-family="Helvetica,sans-Serif" font-size="10.00">||}</text>
</a>
</g>
</g>
<!-- Node13&#45;&gt;Node12 -->
<g id="edge13" class="edge"><title>Node13&#45;&gt;Node12</title>
<path fill="none" stroke="#404040" d="M393.125,-505.703C391.346,-492.139 388.63,-471.426 386.458,-454.869"/>
<polygon fill="none" stroke="#404040" points="386.422,-454.595 381.676,-449.166 384.862,-442.696 389.608,-448.125 386.422,-454.595"/>
<text text-anchor="middle" x="405.5" y="-469" font-family="Helvetica,sans-Serif" font-size="10.00"> +keys</text>
</g>
<!-- Node14 -->
<g id="node14" class="node"><title>Node14</title>
<g id="a_node14"><a xlink:title=" ">
<polygon fill="white" stroke="#666666" points="419.5,-321.5 380.5,-321.5 380.5,-291.5 419.5,-291.5 419.5,-321.5"/>
<text text-anchor="middle" x="400" y="-309.5" font-family="Helvetica,sans-Serif" font-size="10.00">{Size</text>
<text text-anchor="middle" x="400" y="-298.5" font-family="Helvetica,sans-Serif" font-size="10.00">||}</text>
</a>
</g>
</g>
<!-- Node14&#45;&gt;Node1 -->
<g id="edge14" class="edge"><title>Node14&#45;&gt;Node1</title>
<path fill="none" stroke="#404040" d="M396.22,-291.347C391.969,-272.593 386.993,-238.865 398,-213 405.275,-195.904 416.493,-180.126 429.19,-166.095"/>
<polygon fill="none" stroke="#404040" points="429.449,-165.823 430.688,-158.719 437.722,-157.13 436.483,-164.234 429.449,-165.823"/>
<text text-anchor="middle" x="445" y="-232.5" font-family="Helvetica,sans-Serif" font-size="10.00"> #timeStepsPerYear_</text>
</g>
<!-- Node15 -->
<g id="node15" class="node"><title>Node15</title>
<g id="a_node15"><a xlink:title=" ">
<polygon fill="white" stroke="#666666" points="518.5,-321.5 459.5,-321.5 459.5,-291.5 518.5,-291.5 518.5,-321.5"/>
<text text-anchor="middle" x="489" y="-309.5" font-family="Helvetica,sans-Serif" font-size="10.00">{TimeGrid</text>
<text text-anchor="middle" x="489" y="-298.5" font-family="Helvetica,sans-Serif" font-size="10.00">||}</text>
</a>
</g>
</g>
<!-- Node15&#45;&gt;Node1 -->
<g id="edge15" class="edge"><title>Node15&#45;&gt;Node1</title>
<path fill="none" stroke="#404040" d="M490.925,-291.272C493.351,-273.334 497.752,-240.796 502.256,-207.498"/>
<polygon fill="none" stroke="#404040" points="502.308,-207.113 499.149,-200.631 503.917,-195.221 507.077,-201.703 502.308,-207.113"/>
<text text-anchor="middle" x="557.5" y="-232.5" font-family="Helvetica,sans-Serif" font-size="10.00"> #discretisationTimeGrid_</text>
</g>
<!-- Node16 -->
<g id="node16" class="node"><title>Node16</title>
<g id="a_node16"><a xlink:title=" ">
<polygon fill="white" stroke="#666666" points="691.5,-327 536.5,-327 536.5,-286 691.5,-286 691.5,-327"/>
<text text-anchor="start" x="544.5" y="-315" font-family="Helvetica,sans-Serif" font-size="10.00">{RelinkableHandle&lt; QuantExt</text>
<text text-anchor="middle" x="614" y="-304" font-family="Helvetica,sans-Serif" font-size="10.00">::BlackScholesModelWrapper &gt;</text>
<text text-anchor="middle" x="614" y="-293" font-family="Helvetica,sans-Serif" font-size="10.00">||}</text>
</a>
</g>
</g>
<!-- Node16&#45;&gt;Node1 -->
<g id="edge16" class="edge"><title>Node16&#45;&gt;Node1</title>
<path fill="none" stroke="#404040" d="M618.903,-285.662C622.685,-266.433 625.918,-236.769 617,-213 613.402,-203.409 608.596,-194.095 603.031,-185.193"/>
<polygon fill="none" stroke="#404040" points="602.847,-184.917 596.187,-182.153 596.177,-174.941 602.837,-177.706 602.847,-184.917"/>
<text text-anchor="middle" x="643" y="-232.5" font-family="Helvetica,sans-Serif" font-size="10.00"> #model_</text>
</g>
<!-- Node17 -->
<g id="node17" class="node"><title>Node17</title>
<g id="a_node17"><a xlink:href="classbool.html" target="_top" xlink:title=" ">
<polygon fill="white" stroke="#666666" points="748,-321.5 710,-321.5 710,-291.5 748,-291.5 748,-321.5"/>
<text text-anchor="middle" x="729" y="-309.5" font-family="Helvetica,sans-Serif" font-size="10.00">{bool</text>
<text text-anchor="middle" x="729" y="-298.5" font-family="Helvetica,sans-Serif" font-size="10.00">||}</text>
</a>
</g>
</g>
<!-- Node17&#45;&gt;Node1 -->
<g id="edge17" class="edge"><title>Node17&#45;&gt;Node1</title>
<path fill="none" stroke="#404040" d="M721.449,-291.308C710.873,-272.213 690.309,-237.788 667,-213 648.803,-193.648 627.085,-175.069 605.903,-158.713"/>
<polygon fill="none" stroke="#404040" points="605.779,-158.619 598.581,-158.175 596.223,-151.361 603.42,-151.805 605.779,-158.619"/>
<text text-anchor="middle" x="741.5" y="-232.5" font-family="Helvetica,sans-Serif" font-size="10.00"> #forceCalibration_</text>
</g>
<!-- Node18 -->
<g id="node18" class="node"><title>Node18</title>
<g id="a_node18"><a xlink:title=" ">
<polygon fill="white" stroke="#666666" points="882,-327 766,-327 766,-286 882,-286 882,-327"/>
<text text-anchor="start" x="774" y="-315" font-family="Helvetica,sans-Serif" font-size="10.00">{shared_ptr&lt; QuantExt</text>
<text text-anchor="middle" x="824" y="-304" font-family="Helvetica,sans-Serif" font-size="10.00">::MarketObserver &gt;</text>
<text text-anchor="middle" x="824" y="-293" font-family="Helvetica,sans-Serif" font-size="10.00">||}</text>
</a>
</g>
</g>
<!-- Node18&#45;&gt;Node1 -->
<g id="edge18" class="edge"><title>Node18&#45;&gt;Node1</title>
<path fill="none" stroke="#404040" d="M820.471,-285.719C815.852,-265.131 805.884,-233.136 786,-213 737.706,-164.092 665.232,-134.887 607.674,-118.226"/>
<polygon fill="none" stroke="#404040" points="607.559,-118.194 600.703,-120.428 596.003,-114.958 602.86,-112.724 607.559,-118.194"/>
<text text-anchor="middle" x="853" y="-232.5" font-family="Helvetica,sans-Serif" font-size="10.00"> #marketObserver_</text>
</g>
<!-- Node19&#45;&gt;Node1 -->
<g id="edge19" class="edge"><title>Node19&#45;&gt;Node1</title>
<path fill="none" stroke="#404040" d="M787.315,-500.326C820.629,-478 870.748,-438.214 893,-389 925.24,-317.696 944.697,-275.794 898,-213 863.296,-166.333 709.377,-131.515 608.107,-113.152"/>
<polygon fill="none" stroke="#404040" points="607.842,-113.104 601.232,-115.987 596.029,-110.994 602.639,-108.112 607.842,-113.104"/>
<text text-anchor="middle" x="923.5" y="-370" font-family="Helvetica,sans-Serif" font-size="10.00"> #vols_</text>
</g>
<!-- Node20&#45;&gt;Node19 -->
<g id="edge20" class="edge"><title>Node20&#45;&gt;Node19</title>
<path fill="none" stroke="#404040" d="M490.954,-621.385C490.602,-605.349 492.716,-579.526 508,-565 531.847,-542.334 613.661,-531.443 676.666,-526.324"/>
<polygon fill="none" stroke="#404040" points="677.028,-526.296 682.704,-521.848 688.993,-525.375 683.318,-529.824 677.028,-526.296"/>
<text text-anchor="middle" x="532.5" y="-579" font-family="Helvetica,sans-Serif" font-size="10.00"> +elements</text>
</g>
<!-- Node21&#45;&gt;Node1 -->
<g id="edge23" class="edge"><title>Node21&#45;&gt;Node1</title>
<path fill="none" stroke="#404040" d="M990.75,-285.829C978.744,-264.712 956.897,-231.688 929,-213 831.36,-147.593 696.932,-119.295 608.551,-107.222"/>
<polygon fill="none" stroke="#404040" points="608.292,-107.188 601.821,-110.372 596.394,-105.624 602.864,-102.44 608.292,-107.188"/>
<text text-anchor="middle" x="992" y="-232.5" font-family="Helvetica,sans-Serif" font-size="10.00"> #cache_</text>
</g>
<!-- Node22&#45;&gt;Node21 -->
<g id="edge25" class="edge"><title>Node22&#45;&gt;Node21</title>
<path fill="none" stroke="#404040" d="M1001,-406.85C1001,-388.504 1001,-360.805 1001,-339.311"/>
<polygon fill="none" stroke="#404040" points="1001,-339.18 997,-333.18 1001,-327.18 1005,-333.18 1001,-339.18"/>
<text text-anchor="middle" x="1030" y="-381" font-family="Helvetica,sans-Serif" font-size="10.00"> &#45;curveData_</text>
<text text-anchor="middle" x="1030" y="-370" font-family="Helvetica,sans-Serif" font-size="10.00">&#45;curveTimes_</text>
<text text-anchor="middle" x="1030" y="-359" font-family="Helvetica,sans-Serif" font-size="10.00">&#45;volData_</text>
</g>
<!-- Node23&#45;&gt;Node22 -->
<g id="edge26" class="edge"><title>Node23&#45;&gt;Node22</title>
<path fill="none" stroke="#404040" d="M1087.91,-505.703C1073.07,-492.52 1050.62,-472.584 1032.26,-456.273"/>
<polygon fill="none" stroke="#404040" points="1032.07,-456.099 1024.93,-455.104 1023.1,-448.129 1030.24,-449.123 1032.07,-456.099"/>
<text text-anchor="middle" x="1079.5" y="-469" font-family="Helvetica,sans-Serif" font-size="10.00"> +elements</text>
</g>
<!-- Node24 -->
<g id="node24" class="node"><title>Node24</title>
<g id="a_node24"><a xlink:title=" ">
<polygon fill="white" stroke="#666666" points="1182.5,-651.5 1143.5,-651.5 1143.5,-621.5 1182.5,-621.5 1182.5,-651.5"/>
<text text-anchor="middle" x="1163" y="-639.5" font-family="Helvetica,sans-Serif" font-size="10.00">{Real</text>
<text text-anchor="middle" x="1163" y="-628.5" font-family="Helvetica,sans-Serif" font-size="10.00">||}</text>
</a>
</g>
</g>
<!-- Node24&#45;&gt;Node23 -->
<g id="edge27" class="edge"><title>Node24&#45;&gt;Node23</title>
<path fill="none" stroke="#404040" d="M1160.36,-621.311C1157.21,-606.57 1151.08,-583.163 1141,-565 1137.27,-558.269 1132.36,-551.64 1127.35,-545.678"/>
<polygon fill="none" stroke="#404040" points="1127.02,-545.308 1120.04,-543.512 1119.01,-536.375 1125.99,-538.17 1127.02,-545.308"/>
<text text-anchor="middle" x="1177.5" y="-579" font-family="Helvetica,sans-Serif" font-size="10.00"> +elements</text>
</g>
<!-- Node25&#45;&gt;Node21 -->
<g id="edge30" class="edge"><title>Node25&#45;&gt;Node21</title>
<path fill="none" stroke="#404040" d="M1215.72,-500.416C1184.51,-468.989 1120.59,-405.776 1063,-356 1054.66,-348.793 1045.42,-341.314 1036.68,-334.449"/>
<polygon fill="none" stroke="#404040" points="1036.57,-334.365 1029.38,-333.845 1027.09,-327.006 1034.29,-327.526 1036.57,-334.365"/>
<text text-anchor="middle" x="1200" y="-425" font-family="Helvetica,sans-Serif" font-size="10.00"> &#45;volTimesStrikes_</text>
</g>
<!-- Node26 -->
<g id="node26" class="node"><title>Node26</title>
<g id="a_node26"><a xlink:title=" ">
<polygon fill="white" stroke="#666666" points="1295.5,-657 1200.5,-657 1200.5,-616 1295.5,-616 1295.5,-657"/>
<text text-anchor="start" x="1208.5" y="-645" font-family="Helvetica,sans-Serif" font-size="10.00">{vector&lt; std::pair&lt;</text>
<text text-anchor="middle" x="1248" y="-634" font-family="Helvetica,sans-Serif" font-size="10.00"> Real, Real &gt; &gt;</text>
<text text-anchor="middle" x="1248" y="-623" font-family="Helvetica,sans-Serif" font-size="10.00">||}</text>
</a>
</g>
</g>
<!-- Node26&#45;&gt;Node25 -->
<g id="edge31" class="edge"><title>Node26&#45;&gt;Node25</title>
<path fill="none" stroke="#404040" d="M1245.77,-615.989C1243.8,-598.854 1240.91,-573.61 1238.62,-553.597"/>
<polygon fill="none" stroke="#404040" points="1238.61,-553.559 1233.96,-548.053 1237.25,-541.637 1241.91,-547.142 1238.61,-553.559"/>
<text text-anchor="middle" x="1267.5" y="-579" font-family="Helvetica,sans-Serif" font-size="10.00"> +elements</text>
</g>
</g>
</svg>
