<?xml version="1.0" encoding="UTF-8" standalone="no"?>
<!DOCTYPE svg PUBLIC "-//W3C//DTD SVG 1.1//EN"
 "http://www.w3.org/Graphics/SVG/1.1/DTD/svg11.dtd">
<!-- Generated by graphviz version 2.38.0 (20140413.2041)
 -->
<!-- Title: BaseCorrelationCurve Pages: 1 -->
<svg width="492pt" height="557pt"
 viewBox="0.00 0.00 491.50 557.00" xmlns="http://www.w3.org/2000/svg" xmlns:xlink="http://www.w3.org/1999/xlink">
<g id="graph0" class="graph" transform="scale(1 1) rotate(0) translate(4 553)">
<title>BaseCorrelationCurve</title>
<!-- Node1 -->
<g id="node1" class="node"><title>Node1</title>
<g id="a_node1"><a xlink:title=" ">
<polygon fill="#999999" stroke="#666666" points="330,-85 172,-85 172,-0 330,-0 330,-85"/>
<text text-anchor="middle" x="251" y="-73" font-family="Helvetica,sans-Serif" font-size="10.00">{BaseCorrelationCurve</text>
<text text-anchor="start" x="180" y="-62" font-family="Helvetica,sans-Serif" font-size="10.00">||+ BaseCorrelationCurve()</text>
<text text-anchor="start" x="180" y="-51" font-family="Helvetica,sans-Serif" font-size="10.00">+ BaseCorrelationCurve()</text>
<text text-anchor="start" x="180" y="-40" font-family="Helvetica,sans-Serif" font-size="10.00">* spec()</text>
<text text-anchor="start" x="180" y="-29" font-family="Helvetica,sans-Serif" font-size="10.00">* baseCorrelationTermStructure()</text>
<text text-anchor="start" x="180" y="-18" font-family="Helvetica,sans-Serif" font-size="10.00">* adjustForLosses()</text>
<text text-anchor="middle" x="251" y="-7" font-family="Helvetica,sans-Serif" font-size="10.00">}</text>
</a>
</g>
</g>
<!-- Node2 -->
<g id="node2" class="node"><title>Node2</title>
<g id="a_node2"><a xlink:href="classore_1_1data_1_1_base_correlation_curve_spec.html" target="_top" xlink:title="Base Correlation surface description.">
<polygon fill="white" stroke="#666666" points="152,-250 0,-250 0,-132 152,-132 152,-250"/>
<text text-anchor="middle" x="76" y="-238" font-family="Helvetica,sans-Serif" font-size="10.00">{BaseCorrelationCurveSpec</text>
<text text-anchor="start" x="8" y="-227" font-family="Helvetica,sans-Serif" font-size="10.00">||+ BaseCorrelationCurveSpec()</text>
<text text-anchor="start" x="8" y="-216" font-family="Helvetica,sans-Serif" font-size="10.00">+ BaseCorrelationCurveSpec()</text>
<text text-anchor="start" x="8" y="-205" font-family="Helvetica,sans-Serif" font-size="10.00">+ baseType()</text>
<text text-anchor="start" x="8" y="-194" font-family="Helvetica,sans-Serif" font-size="10.00">+ subName()</text>
<text text-anchor="start" x="8" y="-183" font-family="Helvetica,sans-Serif" font-size="10.00">* BaseCorrelationCurveSpec()</text>
<text text-anchor="start" x="8" y="-172" font-family="Helvetica,sans-Serif" font-size="10.00">* BaseCorrelationCurveSpec()</text>
<text text-anchor="start" x="8" y="-161" font-family="Helvetica,sans-Serif" font-size="10.00">* baseType()</text>
<text text-anchor="start" x="8" y="-150" font-family="Helvetica,sans-Serif" font-size="10.00">* subName()</text>
<text text-anchor="middle" x="76" y="-139" font-family="Helvetica,sans-Serif" font-size="10.00">}</text>
</a>
</g>
</g>
<!-- Node2&#45;&gt;Node1 -->
<g id="edge1" class="edge"><title>Node2&#45;&gt;Node1</title>
<path fill="none" stroke="#404040" d="M145.416,-131.889C160.759,-119.045 176.878,-105.551 191.772,-93.0825"/>
<polygon fill="none" stroke="#404040" points="192.161,-92.7569 194.194,-85.8383 201.362,-85.054 199.329,-91.9726 192.161,-92.7569"/>
<text text-anchor="middle" x="196.5" y="-106" font-family="Helvetica,sans-Serif" font-size="10.00"> &#45;spec_</text>
</g>
<!-- Node3 -->
<g id="node3" class="node"><title>Node3</title>
<g id="a_node3"><a xlink:href="classore_1_1data_1_1_curve_spec.html" target="_top" xlink:title="Curve Specification.">
<polygon fill="white" stroke="#666666" points="120,-405 32,-405 32,-287 120,-287 120,-405"/>
<text text-anchor="middle" x="76" y="-393" font-family="Helvetica,sans-Serif" font-size="10.00">{CurveSpec</text>
<text text-anchor="start" x="40" y="-382" font-family="Helvetica,sans-Serif" font-size="10.00">||+ CurveSpec()</text>
<text text-anchor="start" x="40" y="-371" font-family="Helvetica,sans-Serif" font-size="10.00">+ CurveSpec()</text>
<text text-anchor="start" x="40" y="-360" font-family="Helvetica,sans-Serif" font-size="10.00">+ ~CurveSpec()</text>
<text text-anchor="start" x="40" y="-349" font-family="Helvetica,sans-Serif" font-size="10.00">* baseType()</text>
<text text-anchor="start" x="40" y="-338" font-family="Helvetica,sans-Serif" font-size="10.00">* subName()</text>
<text text-anchor="start" x="40" y="-327" font-family="Helvetica,sans-Serif" font-size="10.00">* name()</text>
<text text-anchor="start" x="40" y="-316" font-family="Helvetica,sans-Serif" font-size="10.00">* curveConfigID()</text>
<text text-anchor="start" x="40" y="-305" font-family="Helvetica,sans-Serif" font-size="10.00">* baseName()</text>
<text text-anchor="middle" x="76" y="-294" font-family="Helvetica,sans-Serif" font-size="10.00">}</text>
</a>
</g>
</g>
<!-- Node3&#45;&gt;Node2 -->
<g id="edge2" class="edge"><title>Node3&#45;&gt;Node2</title>
<path fill="none" stroke="#63b8ff" d="M76,-276.481C76,-267.678 76,-258.732 76,-250.117"/>
<polygon fill="none" stroke="#63b8ff" points="72.5001,-276.721 76,-286.721 79.5001,-276.721 72.5001,-276.721"/>
</g>
<!-- Node4 -->
<g id="node4" class="node"><title>Node4</title>
<g id="a_node4"><a xlink:title=" ">
<polygon fill="white" stroke="#666666" points="98,-482 54,-482 54,-452 98,-452 98,-482"/>
<text text-anchor="middle" x="76" y="-470" font-family="Helvetica,sans-Serif" font-size="10.00">{string</text>
<text text-anchor="middle" x="76" y="-459" font-family="Helvetica,sans-Serif" font-size="10.00">||}</text>
</a>
</g>
</g>
<!-- Node4&#45;&gt;Node3 -->
<g id="edge3" class="edge"><title>Node4&#45;&gt;Node3</title>
<path fill="none" stroke="#404040" d="M76,-451.882C76,-442.879 76,-430.463 76,-417.318"/>
<polygon fill="none" stroke="#404040" points="76.0001,-417.118 72,-411.118 76,-405.118 80,-411.118 76.0001,-417.118"/>
<text text-anchor="middle" x="111" y="-426" font-family="Helvetica,sans-Serif" font-size="10.00"> &#45;curveConfigID_</text>
</g>
<!-- Node5 -->
<g id="node5" class="node"><title>Node5</title>
<g id="a_node5"><a xlink:title=" ">
<polygon fill="white" stroke="#666666" points="131,-549 21,-549 21,-519 131,-519 131,-549"/>
<text text-anchor="middle" x="76" y="-537" font-family="Helvetica,sans-Serif" font-size="10.00">{basic_string&lt; Char &gt;</text>
<text text-anchor="middle" x="76" y="-526" font-family="Helvetica,sans-Serif" font-size="10.00">||}</text>
</a>
</g>
</g>
<!-- Node5&#45;&gt;Node4 -->
<g id="edge4" class="edge"><title>Node5&#45;&gt;Node4</title>
<path fill="none" stroke="#63b8ff" d="M76,-508.608C76,-499.654 76,-489.823 76,-482.077"/>
<polygon fill="none" stroke="#63b8ff" points="72.5001,-508.896 76,-518.896 79.5001,-508.896 72.5001,-508.896"/>
</g>
<!-- Node6 -->
<g id="node6" class="node"><title>Node6</title>
<g id="a_node6"><a xlink:title=" ">
<polygon fill="white" stroke="#666666" points="332,-211.5 170,-211.5 170,-170.5 332,-170.5 332,-211.5"/>
<text text-anchor="start" x="178" y="-199.5" font-family="Helvetica,sans-Serif" font-size="10.00">{shared_ptr&lt; QuantExt</text>
<text text-anchor="middle" x="251" y="-188.5" font-family="Helvetica,sans-Serif" font-size="10.00">::BaseCorrelationTermStructure &gt;</text>
<text text-anchor="middle" x="251" y="-177.5" font-family="Helvetica,sans-Serif" font-size="10.00">||}</text>
</a>
</g>
</g>
<!-- Node6&#45;&gt;Node1 -->
<g id="edge5" class="edge"><title>Node6&#45;&gt;Node1</title>
<path fill="none" stroke="#404040" d="M251,-170.242C251,-151.583 251,-122.742 251,-97.2834"/>
<polygon fill="none" stroke="#404040" points="251,-97.1167 247,-91.1167 251,-85.1167 255,-91.1166 251,-97.1167"/>
<text text-anchor="middle" x="290.5" y="-106" font-family="Helvetica,sans-Serif" font-size="10.00"> &#45;baseCorrelation_</text>
</g>
<!-- Node7 -->
<g id="node7" class="node"><title>Node7</title>
<g id="a_node7"><a xlink:title=" ">
<polygon fill="white" stroke="#666666" points="483.5,-211.5 350.5,-211.5 350.5,-170.5 483.5,-170.5 483.5,-211.5"/>
<text text-anchor="start" x="358.5" y="-199.5" font-family="Helvetica,sans-Serif" font-size="10.00">{shared_ptr&lt; ore::data</text>
<text text-anchor="middle" x="417" y="-188.5" font-family="Helvetica,sans-Serif" font-size="10.00">::ReferenceDataManager &gt;</text>
<text text-anchor="middle" x="417" y="-177.5" font-family="Helvetica,sans-Serif" font-size="10.00">||}</text>
</a>
</g>
</g>
<!-- Node7&#45;&gt;Node1 -->
<g id="edge6" class="edge"><title>Node7&#45;&gt;Node1</title>
<path fill="none" stroke="#404040" d="M400.152,-170.324C384.025,-151.995 358.581,-124.361 334,-103 329.977,-99.5038 325.754,-96.0082 321.434,-92.5612"/>
<polygon fill="none" stroke="#404040" points="321.331,-92.4813 314.139,-91.9534 311.861,-85.1117 319.052,-85.6397 321.331,-92.4813"/>
<text text-anchor="middle" x="383" y="-106" font-family="Helvetica,sans-Serif" font-size="10.00"> &#45;referenceData_</text>
</g>
</g>
</svg>
