<?xml version="1.0" encoding="UTF-8" standalone="no"?>
<!DOCTYPE svg PUBLIC "-//W3C//DTD SVG 1.1//EN"
 "http://www.w3.org/Graphics/SVG/1.1/DTD/svg11.dtd">
<!-- Generated by graphviz version 2.38.0 (20140413.2041)
 -->
<!-- Title: EquityForwardQuote Pages: 1 -->
<!--zoomable 490 -->
<svg id="main" version="1.1" xmlns="http://www.w3.org/2000/svg" xmlns:xlink="http://www.w3.org/1999/xlink" xml:space="preserve" onload="init(evt)">
<style type="text/css"><![CDATA[
.edge:hover path { stroke: red; }
.edge:hover polygon { stroke: red; fill: red; }
]]></style>
<script type="text/javascript"><![CDATA[
var edges = document.getElementsByTagName('g');
if (edges && edges.length) {
  for (var i=0;i<edges.length;i++) {
    if (edges[i].id.substr(0,4)=='edge') {
      edges[i].setAttribute('class','edge');
    }
  }
}
]]></script>
        <defs>
                <circle id="rim" cx="0" cy="0" r="7"/>
                <circle id="rim2" cx="0" cy="0" r="3.5"/>
                <g id="zoomPlus">
                        <use xlink:href="#rim" fill="#404040">
                                <set attributeName="fill" to="#808080" begin="zoomplus.mouseover" end="zoomplus.mouseout"/>
                        </use>
                        <path d="M-4,0h8M0,-4v8" fill="none" stroke="white" stroke-width="1.5" pointer-events="none"/>
                </g>
                <g id="zoomMin">
                        <use xlink:href="#rim" fill="#404040">
                                <set attributeName="fill" to="#808080" begin="zoomminus.mouseover" end="zoomminus.mouseout"/>
                        </use>
                        <path d="M-4,0h8" fill="none" stroke="white" stroke-width="1.5" pointer-events="none"/>
                </g>
                <g id="dirArrow">
                        <path fill="none" stroke="white" stroke-width="1.5" d="M0,-3.0v7 M-2.5,-0.5L0,-3.0L2.5,-0.5"/>
                </g>
               <g id="resetDef">
                       <use xlink:href="#rim2" fill="#404040">
                               <set attributeName="fill" to="#808080" begin="reset.mouseover" end="reset.mouseout"/>
                       </use>
               </g>
        </defs>

<script type="text/javascript">
var viewWidth = 482;
var viewHeight = 490;
var sectionId = 'dynsection-1';
</script>
<script xlink:href="svgpan.js"/>
<svg id="graph" class="graph">
<g id="viewport">
<title>EquityForwardQuote</title>
<!-- Node1 -->
<g id="node1" class="node"><title>Node1</title>
<g id="a_node1"><a xlink:title="Equity forward data class.">
<polygon fill="#999999" stroke="#666666" points="309.5,-129 184.5,-129 184.5,-0 309.5,-0 309.5,-129"/>
<text text-anchor="middle" x="247" y="-117" font-family="Helvetica,sans-Serif" font-size="10.00">{EquityForwardQuote</text>
<text text-anchor="start" x="192.5" y="-106" font-family="Helvetica,sans-Serif" font-size="10.00">||+ EquityForwardQuote()</text>
<text text-anchor="start" x="192.5" y="-95" font-family="Helvetica,sans-Serif" font-size="10.00">+ EquityForwardQuote()</text>
<text text-anchor="start" x="192.5" y="-84" font-family="Helvetica,sans-Serif" font-size="10.00">+ clone()</text>
<text text-anchor="start" x="192.5" y="-73" font-family="Helvetica,sans-Serif" font-size="10.00">* boost::serialization</text>
<text text-anchor="start" x="192.5" y="-62" font-family="Helvetica,sans-Serif" font-size="10.00">::access</text>
<text text-anchor="start" x="192.5" y="-51" font-family="Helvetica,sans-Serif" font-size="10.00">* eqName()</text>
<text text-anchor="start" x="192.5" y="-40" font-family="Helvetica,sans-Serif" font-size="10.00">* ccy()</text>
<text text-anchor="start" x="192.5" y="-29" font-family="Helvetica,sans-Serif" font-size="10.00">* expiryDate()</text>
<text text-anchor="start" x="192.5" y="-18" font-family="Helvetica,sans-Serif" font-size="10.00">* serialize()</text>
<text text-anchor="middle" x="247" y="-7" font-family="Helvetica,sans-Serif" font-size="10.00">}</text>
</a>
</g>
</g>
<!-- Node2 -->
<g id="node2" class="node"><title>Node2</title>
<g id="a_node2"><a xlink:href="classore_1_1data_1_1_market_datum.html" target="_top" xlink:title="Base market data class.">
<polygon fill="white" stroke="#666666" points="299.5,-328 194.5,-328 194.5,-166 299.5,-166 299.5,-328"/>
<text text-anchor="middle" x="247" y="-316" font-family="Helvetica,sans-Serif" font-size="10.00">{MarketDatum</text>
<text text-anchor="start" x="202.5" y="-305" font-family="Helvetica,sans-Serif" font-size="10.00">||+ MarketDatum()</text>
<text text-anchor="start" x="202.5" y="-294" font-family="Helvetica,sans-Serif" font-size="10.00">+ MarketDatum()</text>
<text text-anchor="start" x="202.5" y="-283" font-family="Helvetica,sans-Serif" font-size="10.00">+ ~MarketDatum()</text>
<text text-anchor="start" x="202.5" y="-272" font-family="Helvetica,sans-Serif" font-size="10.00">+ clone()</text>
<text text-anchor="start" x="202.5" y="-261" font-family="Helvetica,sans-Serif" font-size="10.00">* boost::serialization</text>
<text text-anchor="start" x="202.5" y="-250" font-family="Helvetica,sans-Serif" font-size="10.00">::access</text>
<text text-anchor="start" x="202.5" y="-239" font-family="Helvetica,sans-Serif" font-size="10.00">* name()</text>
<text text-anchor="start" x="202.5" y="-228" font-family="Helvetica,sans-Serif" font-size="10.00">* quote()</text>
<text text-anchor="start" x="202.5" y="-217" font-family="Helvetica,sans-Serif" font-size="10.00">* asofDate()</text>
<text text-anchor="start" x="202.5" y="-206" font-family="Helvetica,sans-Serif" font-size="10.00">* instrumentType()</text>
<text text-anchor="start" x="202.5" y="-195" font-family="Helvetica,sans-Serif" font-size="10.00">* quoteType()</text>
<text text-anchor="start" x="202.5" y="-184" font-family="Helvetica,sans-Serif" font-size="10.00">* serialize()</text>
<text text-anchor="middle" x="247" y="-173" font-family="Helvetica,sans-Serif" font-size="10.00">}</text>
</a>
</g>
</g>
<!-- Node2&#45;&gt;Node1 -->
<g id="edge1" class="edge"><title>Node2&#45;&gt;Node1</title>
<path fill="none" stroke="#63b8ff" d="M247,-155.701C247,-146.759 247,-137.817 247,-129.227"/>
<polygon fill="none" stroke="#63b8ff" points="243.5,-155.779 247,-165.779 250.5,-155.779 243.5,-155.779"/>
</g>
<!-- Node3 -->
<g id="node3" class="node"><title>Node3</title>
<g id="a_node3"><a xlink:title=" ">
<polygon fill="white" stroke="#666666" points="393,-405 299,-405 299,-375 393,-375 393,-405"/>
<text text-anchor="middle" x="346" y="-393" font-family="Helvetica,sans-Serif" font-size="10.00">{Handle&lt; Quote &gt;</text>
<text text-anchor="middle" x="346" y="-382" font-family="Helvetica,sans-Serif" font-size="10.00">||}</text>
</a>
</g>
</g>
<!-- Node3&#45;&gt;Node2 -->
<g id="edge2" class="edge"><title>Node3&#45;&gt;Node2</title>
<path fill="none" stroke="#404040" d="M336.146,-374.965C328.815,-364.524 318.136,-349.315 306.698,-333.024"/>
<polygon fill="none" stroke="#404040" points="306.396,-332.595 299.675,-329.983 299.501,-322.774 306.222,-325.386 306.396,-332.595"/>
<text text-anchor="middle" x="342" y="-349" font-family="Helvetica,sans-Serif" font-size="10.00"> #quote_</text>
</g>
<!-- Node4 -->
<g id="node4" class="node"><title>Node4</title>
<g id="a_node4"><a xlink:title=" ">
<polygon fill="white" stroke="#666666" points="371,-482 321,-482 321,-452 371,-452 371,-482"/>
<text text-anchor="middle" x="346" y="-470" font-family="Helvetica,sans-Serif" font-size="10.00">{Handle</text>
<text text-anchor="middle" x="346" y="-459" font-family="Helvetica,sans-Serif" font-size="10.00">||}</text>
</a>
</g>
</g>
<!-- Node4&#45;&gt;Node3 -->
<g id="edge3" class="edge"><title>Node4&#45;&gt;Node3</title>
<path fill="none" stroke="orange" d="M346,-441.541C346,-429.451 346,-415.294 346,-405.044"/>
<polygon fill="orange" stroke="orange" points="342.5,-441.893 346,-451.893 349.5,-441.893 342.5,-441.893"/>
<text text-anchor="middle" x="370" y="-426" font-family="Helvetica,sans-Serif" font-size="10.00"> &lt; Quote &gt;</text>
</g>
<!-- Node5 -->
<g id="node5" class="node"><title>Node5</title>
<g id="a_node5"><a xlink:title=" ">
<polygon fill="white" stroke="#666666" points="464,-405 424,-405 424,-375 464,-375 464,-405"/>
<text text-anchor="middle" x="444" y="-393" font-family="Helvetica,sans-Serif" font-size="10.00">{Date</text>
<text text-anchor="middle" x="444" y="-382" font-family="Helvetica,sans-Serif" font-size="10.00">||}</text>
</a>
</g>
</g>
<!-- Node5&#45;&gt;Node1 -->
<g id="edge10" class="edge"><title>Node5&#45;&gt;Node1</title>
<path fill="none" stroke="#404040" d="M445.708,-374.708C446.233,-366.17 446.022,-355.225 443,-346 417.266,-267.443 361.602,-191.415 316.147,-138.374"/>
<polygon fill="none" stroke="#404040" points="315.942,-138.138 308.988,-136.227 308.078,-129.073 315.031,-130.985 315.942,-138.138"/>
<text text-anchor="middle" x="455" y="-244.5" font-family="Helvetica,sans-Serif" font-size="10.00"> &#45;expiry_</text>
</g>
<!-- Node5&#45;&gt;Node2 -->
<g id="edge4" class="edge"><title>Node5&#45;&gt;Node2</title>
<path fill="none" stroke="#404040" d="M423.807,-377.48C413.785,-371.594 401.589,-364.175 391,-357 363.617,-338.444 334.349,-316.671 309.399,-297.484"/>
<polygon fill="none" stroke="#404040" points="309.201,-297.331 302.007,-296.827 299.706,-289.993 306.899,-290.497 309.201,-297.331"/>
<text text-anchor="middle" x="417" y="-349" font-family="Helvetica,sans-Serif" font-size="10.00"> #asofDate_</text>
</g>
<!-- Node6 -->
<g id="node6" class="node"><title>Node6</title>
<g id="a_node6"><a xlink:title=" ">
<polygon fill="white" stroke="#666666" points="77,-405 33,-405 33,-375 77,-375 77,-405"/>
<text text-anchor="middle" x="55" y="-393" font-family="Helvetica,sans-Serif" font-size="10.00">{string</text>
<text text-anchor="middle" x="55" y="-382" font-family="Helvetica,sans-Serif" font-size="10.00">||}</text>
</a>
</g>
</g>
<!-- Node6&#45;&gt;Node1 -->
<g id="edge9" class="edge"><title>Node6&#45;&gt;Node1</title>
<path fill="none" stroke="#404040" d="M58.023,-374.917C66.3993,-338.093 92.4831,-236.9 140,-166 149.914,-151.207 162.388,-137.002 175.285,-124.166"/>
<polygon fill="none" stroke="#404040" points="175.621,-123.842 177.161,-116.797 184.256,-115.508 182.716,-122.553 175.621,-123.842"/>
<text text-anchor="middle" x="162.5" y="-250" font-family="Helvetica,sans-Serif" font-size="10.00"> &#45;ccy_</text>
<text text-anchor="middle" x="162.5" y="-239" font-family="Helvetica,sans-Serif" font-size="10.00">&#45;eqName_</text>
</g>
<!-- Node6&#45;&gt;Node2 -->
<g id="edge5" class="edge"><title>Node6&#45;&gt;Node2</title>
<path fill="none" stroke="#404040" d="M74.1116,-374.965C99.6234,-356.23 146.042,-322.141 184.362,-294"/>
<polygon fill="none" stroke="#404040" points="184.748,-293.716 187.216,-286.941 194.42,-286.613 191.952,-293.389 184.748,-293.716"/>
<text text-anchor="middle" x="131" y="-349" font-family="Helvetica,sans-Serif" font-size="10.00"> #name_</text>
</g>
<!-- Node7 -->
<g id="node7" class="node"><title>Node7</title>
<g id="a_node7"><a xlink:title=" ">
<polygon fill="white" stroke="#666666" points="110,-482 0,-482 0,-452 110,-452 110,-482"/>
<text text-anchor="middle" x="55" y="-470" font-family="Helvetica,sans-Serif" font-size="10.00">{basic_string&lt; Char &gt;</text>
<text text-anchor="middle" x="55" y="-459" font-family="Helvetica,sans-Serif" font-size="10.00">||}</text>
</a>
</g>
</g>
<!-- Node7&#45;&gt;Node6 -->
<g id="edge6" class="edge"><title>Node7&#45;&gt;Node6</title>
<path fill="none" stroke="#63b8ff" d="M55,-441.541C55,-429.451 55,-415.294 55,-405.044"/>
<polygon fill="none" stroke="#63b8ff" points="51.5001,-441.893 55,-451.893 58.5001,-441.893 51.5001,-441.893"/>
</g>
<!-- Node8 -->
<g id="node8" class="node"><title>Node8</title>
<g id="a_node8"><a xlink:title=" ">
<polygon fill="white" stroke="#666666" points="186,-405 100,-405 100,-375 186,-375 186,-405"/>
<text text-anchor="middle" x="143" y="-393" font-family="Helvetica,sans-Serif" font-size="10.00">{InstrumentType</text>
<text text-anchor="middle" x="143" y="-382" font-family="Helvetica,sans-Serif" font-size="10.00">||}</text>
</a>
</g>
</g>
<!-- Node8&#45;&gt;Node2 -->
<g id="edge7" class="edge"><title>Node8&#45;&gt;Node2</title>
<path fill="none" stroke="#404040" d="M147.993,-374.911C151.358,-366.245 156.229,-355.097 162,-346 169.231,-334.6 177.736,-323.166 186.522,-312.338"/>
<polygon fill="none" stroke="#404040" points="186.618,-312.223 187.378,-305.052 194.29,-302.996 193.53,-310.166 186.618,-312.223"/>
<text text-anchor="middle" x="202.5" y="-349" font-family="Helvetica,sans-Serif" font-size="10.00"> #instrumentType_</text>
</g>
<!-- Node9 -->
<g id="node9" class="node"><title>Node9</title>
<g id="a_node9"><a xlink:title=" ">
<polygon fill="white" stroke="#666666" points="280.5,-405 213.5,-405 213.5,-375 280.5,-375 280.5,-405"/>
<text text-anchor="middle" x="247" y="-393" font-family="Helvetica,sans-Serif" font-size="10.00">{QuoteType</text>
<text text-anchor="middle" x="247" y="-382" font-family="Helvetica,sans-Serif" font-size="10.00">||}</text>
</a>
</g>
</g>
<!-- Node9&#45;&gt;Node2 -->
<g id="edge8" class="edge"><title>Node9&#45;&gt;Node2</title>
<path fill="none" stroke="#404040" d="M247,-374.965C247,-366.075 247,-353.73 247,-340.203"/>
<polygon fill="none" stroke="#404040" points="247,-340.068 243,-334.068 247,-328.068 251,-334.068 247,-340.068"/>
<text text-anchor="middle" x="276.5" y="-349" font-family="Helvetica,sans-Serif" font-size="10.00"> #quoteType_</text>
</g>
</g>
</svg>
        <g id="navigator" transform="translate(0 0)" fill="#404254">
                <rect fill="#f2f5e9" fill-opacity="0.5" stroke="#606060" stroke-width=".5" x="0" y="0" width="60" height="60"/>
                <use id="zoomplus" xlink:href="#zoomPlus" x="17" y="9" onmousedown="handleZoom(evt,'in')"/>
                <use id="zoomminus" xlink:href="#zoomMin" x="42" y="9" onmousedown="handleZoom(evt,'out')"/>
                <use id="reset" xlink:href="#resetDef" x="30" y="36" onmousedown="handleReset()"/>
                <g id="arrowUp" xlink:href="#dirArrow" transform="translate(30 24)" onmousedown="handlePan(0,-1)">
                  <use xlink:href="#rim" fill="#404040">
                        <set attributeName="fill" to="#808080" begin="arrowUp.mouseover" end="arrowUp.mouseout"/>
                  </use>
                  <path fill="none" stroke="white" stroke-width="1.5" d="M0,-3.0v7 M-2.5,-0.5L0,-3.0L2.5,-0.5"/>
                </g>
                <g id="arrowRight" xlink:href="#dirArrow" transform="rotate(90) translate(36 -43)" onmousedown="handlePan(1,0)">
                  <use xlink:href="#rim" fill="#404040">
                        <set attributeName="fill" to="#808080" begin="arrowRight.mouseover" end="arrowRight.mouseout"/>
                  </use>
                  <path fill="none" stroke="white" stroke-width="1.5" d="M0,-3.0v7 M-2.5,-0.5L0,-3.0L2.5,-0.5"/>
                </g>
                <g id="arrowDown" xlink:href="#dirArrow" transform="rotate(180) translate(-30 -48)" onmousedown="handlePan(0,1)">
                  <use xlink:href="#rim" fill="#404040">
                        <set attributeName="fill" to="#808080" begin="arrowDown.mouseover" end="arrowDown.mouseout"/>
                  </use>
                  <path fill="none" stroke="white" stroke-width="1.5" d="M0,-3.0v7 M-2.5,-0.5L0,-3.0L2.5,-0.5"/>
                </g>
                <g id="arrowLeft" xlink:href="#dirArrow" transform="rotate(270) translate(-36 17)" onmousedown="handlePan(-1,0)">
                  <use xlink:href="#rim" fill="#404040">
                        <set attributeName="fill" to="#808080" begin="arrowLeft.mouseover" end="arrowLeft.mouseout"/>
                  </use>
                  <path fill="none" stroke="white" stroke-width="1.5" d="M0,-3.0v7 M-2.5,-0.5L0,-3.0L2.5,-0.5"/>
                </g>
        </g>
        <svg viewBox="0 0 15 15" width="100%" height="30px" preserveAspectRatio="xMaxYMin meet">
         <g id="arrow_out" transform="scale(0.3 0.3)">
          <a xlink:href="classore_1_1data_1_1_equity_forward_quote__coll__graph_org.svg" target="_base">
           <rect id="button" ry="5" rx="5" y="6" x="6" height="38" width="38"
                fill="#f2f5e9" fill-opacity="0.5" stroke="#606060" stroke-width="1.0"/>
           <path id="arrow"
             d="M 11.500037,31.436501 C 11.940474,20.09759 22.043105,11.32322 32.158766,21.979434 L 37.068811,17.246167 C 37.068811,17.246167 37.088388,32 37.088388,32 L 22.160133,31.978069 C 22.160133,31.978069 26.997745,27.140456 26.997745,27.140456 C 18.528582,18.264221 13.291696,25.230495 11.500037,31.436501 z"
             style="fill:#404040;"/>
          </a>
         </g>
        </svg>
</svg>
