<?xml version="1.0" encoding="UTF-8" standalone="no"?>
<!DOCTYPE svg PUBLIC "-//W3C//DTD SVG 1.1//EN"
 "http://www.w3.org/Graphics/SVG/1.1/DTD/svg11.dtd">
<!-- Generated by graphviz version 2.38.0 (20140413.2041)
 -->
<!-- Title: toXML Pages: 1 -->
<svg width="1001pt" height="481pt"
 viewBox="0.00 0.00 1001.00 481.23" xmlns="http://www.w3.org/2000/svg" xmlns:xlink="http://www.w3.org/1999/xlink">
<g id="graph0" class="graph" transform="scale(1 1) rotate(0) translate(4 477.23)">
<title>toXML</title>
<!-- Node1 -->
<g id="node1" class="node"><title>Node1</title>
<g id="a_node1"><a xlink:title=" ">
<polygon fill="#999999" stroke="#666666" points="44,-395.042 0,-395.042 0,-376.042 44,-376.042 44,-395.042"/>
<text text-anchor="middle" x="22" y="-383.042" font-family="Helvetica,sans-Serif" font-size="10.00">toXML</text>
</a>
</g>
</g>
<!-- Node1&#45;&gt;Node1 -->
<g id="edge6" class="edge"><title>Node1&#45;&gt;Node1</title>
<path fill="none" stroke="#63b8ff" d="M4.12103,-395.125C-4.57684,-403.776 1.38281,-413.042 22,-413.042 34.8857,-413.042 42.0459,-409.423 43.4804,-404.596"/>
<polygon fill="#63b8ff" stroke="#63b8ff" points="46.7049,-403.228 39.879,-395.125 40.162,-405.716 46.7049,-403.228"/>
</g>
<!-- Node2 -->
<g id="node2" class="node"><title>Node2</title>
<g id="a_node2"><a xlink:href="classore_1_1data_1_1_x_m_l_utils.html#aced1fd4bd35df3642d8022301744b138" target="_top" xlink:title=" ">
<polygon fill="white" stroke="#666666" points="673,-96.5422 574,-96.5422 574,-66.5422 673,-66.5422 673,-96.5422"/>
<text text-anchor="start" x="582" y="-84.5422" font-family="Helvetica,sans-Serif" font-size="10.00">ore::data::XMLUtils</text>
<text text-anchor="middle" x="623.5" y="-73.5422" font-family="Helvetica,sans-Serif" font-size="10.00">::addChild</text>
</a>
</g>
</g>
<!-- Node1&#45;&gt;Node2 -->
<g id="edge1" class="edge"><title>Node1&#45;&gt;Node2</title>
<path fill="none" stroke="#63b8ff" d="M24.5613,-375.803C33.3581,-324.679 81.8902,-86.6938 234,-8.5422 253.925,1.6952 501.269,4.09897 538,-9.5422 564.396,-19.3451 588.184,-41.4079 603.744,-58.5452"/>
<polygon fill="#63b8ff" stroke="#63b8ff" points="601.477,-61.2687 610.698,-66.487 606.744,-56.6576 601.477,-61.2687"/>
</g>
<!-- Node3 -->
<g id="node3" class="node"><title>Node3</title>
<g id="a_node3"><a xlink:href="classore_1_1data_1_1_x_m_l_document.html#a8717c517803f0df2e693e3cadefeafd7" target="_top" xlink:title="util functions that wrap rapidxml">
<polygon fill="white" stroke="#666666" points="833,-297.542 709,-297.542 709,-267.542 833,-267.542 833,-297.542"/>
<text text-anchor="start" x="717" y="-285.542" font-family="Helvetica,sans-Serif" font-size="10.00">ore::data::XMLDocument</text>
<text text-anchor="middle" x="771" y="-274.542" font-family="Helvetica,sans-Serif" font-size="10.00">::allocNode</text>
</a>
</g>
</g>
<!-- Node1&#45;&gt;Node3 -->
<g id="edge4" class="edge"><title>Node1&#45;&gt;Node3</title>
<path fill="none" stroke="#63b8ff" d="M34.9673,-395.11C46.0401,-403.509 63.2685,-415.46 80,-422.542 169.854,-460.577 196.427,-471.542 294,-471.542 294,-471.542 294,-471.542 466,-471.542 559.619,-471.542 595.286,-484.744 673,-432.542 718.727,-401.826 747.697,-341.521 761.15,-307.475"/>
<polygon fill="#63b8ff" stroke="#63b8ff" points="764.541,-308.405 764.828,-297.814 757.999,-305.914 764.541,-308.405"/>
</g>
<!-- Node5 -->
<g id="node5" class="node"><title>Node5</title>
<g id="a_node5"><a xlink:href="classore_1_1data_1_1_x_m_l_utils.html#ae646b9cdf949a88f35c36c18bf90b370" target="_top" xlink:title=" ">
<polygon fill="white" stroke="#666666" points="514.5,-359.542 415.5,-359.542 415.5,-329.542 514.5,-329.542 514.5,-359.542"/>
<text text-anchor="start" x="423.5" y="-347.542" font-family="Helvetica,sans-Serif" font-size="10.00">ore::data::XMLUtils</text>
<text text-anchor="middle" x="465" y="-336.542" font-family="Helvetica,sans-Serif" font-size="10.00">::appendNode</text>
</a>
</g>
</g>
<!-- Node1&#45;&gt;Node5 -->
<g id="edge5" class="edge"><title>Node1&#45;&gt;Node5</title>
<path fill="none" stroke="#63b8ff" d="M44.2703,-383.565C109.078,-377.54 305.7,-359.259 405.113,-350.017"/>
<polygon fill="#63b8ff" stroke="#63b8ff" points="405.659,-353.481 415.293,-349.071 405.011,-346.511 405.659,-353.481"/>
</g>
<!-- Node6 -->
<g id="node6" class="node"><title>Node6</title>
<g id="a_node6"><a xlink:href="classore_1_1data_1_1_schedule_data.html#a7efefb9270d6c4933e4c96de0771f17a" target="_top" xlink:title=" ">
<polygon fill="white" stroke="#666666" points="356,-443.542 234,-443.542 234,-413.542 356,-413.542 356,-443.542"/>
<text text-anchor="start" x="242" y="-431.542" font-family="Helvetica,sans-Serif" font-size="10.00">ore::data::ScheduleData</text>
<text text-anchor="middle" x="295" y="-420.542" font-family="Helvetica,sans-Serif" font-size="10.00">::toXML</text>
</a>
</g>
</g>
<!-- Node1&#45;&gt;Node6 -->
<g id="edge7" class="edge"><title>Node1&#45;&gt;Node6</title>
<path fill="none" stroke="#63b8ff" d="M44.2656,-391.334C54.9329,-394.094 68.0871,-397.279 80,-399.542 127.639,-408.594 181.764,-415.902 223.662,-420.917"/>
<polygon fill="#63b8ff" stroke="#63b8ff" points="223.425,-424.413 233.766,-422.111 224.246,-417.462 223.425,-424.413"/>
</g>
<!-- Node7 -->
<g id="node7" class="node"><title>Node7</title>
<g id="a_node7"><a xlink:href="classore_1_1data_1_1_trade.html#a7efefb9270d6c4933e4c96de0771f17a" target="_top" xlink:title=" ">
<polygon fill="white" stroke="#666666" points="198,-252.042 80,-252.042 80,-233.042 198,-233.042 198,-252.042"/>
<text text-anchor="middle" x="139" y="-240.042" font-family="Helvetica,sans-Serif" font-size="10.00">ore::data::Trade::toXML</text>
</a>
</g>
</g>
<!-- Node1&#45;&gt;Node7 -->
<g id="edge10" class="edge"><title>Node1&#45;&gt;Node7</title>
<path fill="none" stroke="#63b8ff" d="M30.9044,-375.713C50.118,-351.822 99.4812,-290.439 123.895,-260.081"/>
<polygon fill="#63b8ff" stroke="#63b8ff" points="126.804,-262.049 130.343,-252.063 121.349,-257.663 126.804,-262.049"/>
</g>
<!-- Node2&#45;&gt;Node3 -->
<g id="edge2" class="edge"><title>Node2&#45;&gt;Node3</title>
<path fill="none" stroke="#63b8ff" d="M635.436,-96.6499C660.672,-131.511 723.11,-217.766 753.225,-259.368"/>
<polygon fill="#63b8ff" stroke="#63b8ff" points="750.437,-261.485 759.135,-267.533 756.107,-257.381 750.437,-261.485"/>
</g>
<!-- Node4 -->
<g id="node4" class="node"><title>Node4</title>
<g id="a_node4"><a xlink:href="classore_1_1data_1_1_x_m_l_document.html#ae3474059e483990f3afea260096e5c90" target="_top" xlink:title=" ">
<polygon fill="white" stroke="#666666" points="993,-158.542 869,-158.542 869,-128.542 993,-128.542 993,-158.542"/>
<text text-anchor="start" x="877" y="-146.542" font-family="Helvetica,sans-Serif" font-size="10.00">ore::data::XMLDocument</text>
<text text-anchor="middle" x="931" y="-135.542" font-family="Helvetica,sans-Serif" font-size="10.00">::allocString</text>
</a>
</g>
</g>
<!-- Node3&#45;&gt;Node4 -->
<g id="edge3" class="edge"><title>Node3&#45;&gt;Node4</title>
<path fill="none" stroke="#63b8ff" d="M789.21,-267.402C817.228,-242.753 872.815,-193.851 905.129,-165.423"/>
<polygon fill="#63b8ff" stroke="#63b8ff" points="907.615,-167.897 912.812,-158.664 902.992,-162.641 907.615,-167.897"/>
</g>
<!-- Node6&#45;&gt;Node3 -->
<g id="edge8" class="edge"><title>Node6&#45;&gt;Node3</title>
<path fill="none" stroke="#63b8ff" d="M356.076,-438.21C433.929,-447.74 571.683,-454.186 673,-401.542 713.161,-380.675 742.721,-335.134 758.074,-306.833"/>
<polygon fill="#63b8ff" stroke="#63b8ff" points="761.185,-308.438 762.731,-297.956 754.986,-305.185 761.185,-308.438"/>
</g>
<!-- Node6&#45;&gt;Node5 -->
<g id="edge9" class="edge"><title>Node6&#45;&gt;Node5</title>
<path fill="none" stroke="#63b8ff" d="M327.511,-413.464C336.714,-409.019 346.776,-404.119 356,-399.542 379.21,-388.025 405.08,-374.862 425.681,-364.301"/>
<polygon fill="#63b8ff" stroke="#63b8ff" points="427.449,-367.328 434.747,-359.647 424.252,-361.1 427.449,-367.328"/>
</g>
<!-- Node7&#45;&gt;Node2 -->
<g id="edge14" class="edge"><title>Node7&#45;&gt;Node2</title>
<path fill="none" stroke="#63b8ff" d="M140.554,-232.608C143.18,-196.289 157.687,-70.1902 234,-19.5422 254.105,-6.19881 501.353,-12.7847 538,-24.5422 560.527,-31.7697 582.572,-46.9944 598.493,-59.892"/>
<polygon fill="#63b8ff" stroke="#63b8ff" points="596.317,-62.6345 606.232,-66.3699 600.81,-57.267 596.317,-62.6345"/>
</g>
<!-- Node7&#45;&gt;Node3 -->
<g id="edge15" class="edge"><title>Node7&#45;&gt;Node3</title>
<path fill="none" stroke="#63b8ff" d="M148.905,-252.281C164.56,-268.842 198.715,-302.539 234,-321.542 298.503,-356.281 319.501,-357.988 392,-368.542 456.212,-377.89 474.131,-379.999 538,-368.542 608.46,-355.903 685.497,-323.276 730.691,-302.04"/>
<polygon fill="#63b8ff" stroke="#63b8ff" points="732.308,-305.147 739.837,-297.693 729.303,-298.825 732.308,-305.147"/>
</g>
<!-- Node7&#45;&gt;Node5 -->
<g id="edge16" class="edge"><title>Node7&#45;&gt;Node5</title>
<path fill="none" stroke="#63b8ff" d="M155.766,-252.094C174.021,-262.792 205.269,-280.01 234,-290.542 290.687,-311.322 358.227,-326.059 405.398,-334.832"/>
<polygon fill="#63b8ff" stroke="#63b8ff" points="404.973,-338.312 415.44,-336.667 406.232,-331.426 404.973,-338.312"/>
</g>
<!-- Node8 -->
<g id="node8" class="node"><title>Node8</title>
<g id="a_node8"><a xlink:href="classore_1_1data_1_1_x_m_l_utils.html#a226c81c31def2ba2c853ca803d1fafc5" target="_top" xlink:title=" ">
<polygon fill="white" stroke="#666666" points="344.5,-58.5422 245.5,-58.5422 245.5,-28.5422 344.5,-28.5422 344.5,-58.5422"/>
<text text-anchor="start" x="253.5" y="-46.5422" font-family="Helvetica,sans-Serif" font-size="10.00">ore::data::XMLUtils</text>
<text text-anchor="middle" x="295" y="-35.5422" font-family="Helvetica,sans-Serif" font-size="10.00">::addAttribute</text>
</a>
</g>
</g>
<!-- Node7&#45;&gt;Node8 -->
<g id="edge11" class="edge"><title>Node7&#45;&gt;Node8</title>
<path fill="none" stroke="#63b8ff" d="M147.428,-232.944C170.634,-202.956 242.243,-110.423 276.018,-66.7786"/>
<polygon fill="#63b8ff" stroke="#63b8ff" points="278.891,-68.7851 282.243,-58.7346 273.355,-64.501 278.891,-68.7851"/>
</g>
<!-- Node10 -->
<g id="node10" class="node"><title>Node10</title>
<g id="a_node10"><a xlink:href="classore_1_1data_1_1_trade_actions.html#a644718bb2fb240de962dc3c9a1fdf0dc" target="_top" xlink:title="Returns true of this set of actions is empty.">
<polygon fill="white" stroke="#666666" points="354,-185.542 236,-185.542 236,-155.542 354,-155.542 354,-185.542"/>
<text text-anchor="start" x="244" y="-173.542" font-family="Helvetica,sans-Serif" font-size="10.00">ore::data::TradeActions</text>
<text text-anchor="middle" x="295" y="-162.542" font-family="Helvetica,sans-Serif" font-size="10.00">::empty</text>
</a>
</g>
</g>
<!-- Node7&#45;&gt;Node10 -->
<g id="edge17" class="edge"><title>Node7&#45;&gt;Node10</title>
<path fill="none" stroke="#63b8ff" d="M157.436,-233.031C176.133,-222.976 206.805,-206.893 234,-194.542 237.631,-192.893 241.411,-191.239 245.227,-189.614"/>
<polygon fill="#63b8ff" stroke="#63b8ff" points="246.847,-192.731 254.728,-185.65 244.151,-186.27 246.847,-192.731"/>
</g>
<!-- Node11 -->
<g id="node11" class="node"><title>Node11</title>
<g id="a_node11"><a xlink:href="classore_1_1data_1_1_envelope.html#a7efefb9270d6c4933e4c96de0771f17a" target="_top" xlink:title=" ">
<polygon fill="white" stroke="#666666" points="345,-233.542 245,-233.542 245,-203.542 345,-203.542 345,-233.542"/>
<text text-anchor="start" x="253" y="-221.542" font-family="Helvetica,sans-Serif" font-size="10.00">ore::data::Envelope</text>
<text text-anchor="middle" x="295" y="-210.542" font-family="Helvetica,sans-Serif" font-size="10.00">::toXML</text>
</a>
</g>
</g>
<!-- Node7&#45;&gt;Node11 -->
<g id="edge18" class="edge"><title>Node7&#45;&gt;Node11</title>
<path fill="none" stroke="#63b8ff" d="M198.221,-233.469C210.199,-231.602 222.822,-229.635 234.833,-227.763"/>
<polygon fill="#63b8ff" stroke="#63b8ff" points="235.409,-231.216 244.751,-226.217 234.331,-224.299 235.409,-231.216"/>
</g>
<!-- Node15 -->
<g id="node15" class="node"><title>Node15</title>
<g id="a_node15"><a xlink:href="classore_1_1data_1_1_trade_actions.html#a7efefb9270d6c4933e4c96de0771f17a" target="_top" xlink:title=" ">
<polygon fill="white" stroke="#666666" points="354,-281.542 236,-281.542 236,-251.542 354,-251.542 354,-281.542"/>
<text text-anchor="start" x="244" y="-269.542" font-family="Helvetica,sans-Serif" font-size="10.00">ore::data::TradeActions</text>
<text text-anchor="middle" x="295" y="-258.542" font-family="Helvetica,sans-Serif" font-size="10.00">::toXML</text>
</a>
</g>
</g>
<!-- Node7&#45;&gt;Node15 -->
<g id="edge27" class="edge"><title>Node7&#45;&gt;Node15</title>
<path fill="none" stroke="#63b8ff" d="M198.221,-251.616C207.291,-253.029 216.731,-254.5 225.995,-255.944"/>
<polygon fill="#63b8ff" stroke="#63b8ff" points="225.533,-259.414 235.952,-257.496 226.611,-252.498 225.533,-259.414"/>
</g>
<!-- Node8&#45;&gt;Node4 -->
<g id="edge12" class="edge"><title>Node8&#45;&gt;Node4</title>
<path fill="none" stroke="#63b8ff" d="M344.563,-32.0172C359.67,-28.9495 376.444,-26.0668 392,-24.5422 456.579,-18.2129 473.577,-16.7825 538,-24.5422 668.159,-40.2197 814.114,-95.0167 885.635,-124.47"/>
<polygon fill="#63b8ff" stroke="#63b8ff" points="884.646,-127.849 895.224,-128.451 887.331,-121.384 884.646,-127.849"/>
</g>
<!-- Node9 -->
<g id="node9" class="node"><title>Node9</title>
<g id="a_node9"><a xlink:href="classore_1_1data_1_1_x_m_l_document.html#a46d969cdb00bff64f3f4c0d2975a08d3" target="_top" xlink:title=" ">
<polygon fill="white" stroke="#666666" points="538,-53.0422 392,-53.0422 392,-34.0422 538,-34.0422 538,-53.0422"/>
<text text-anchor="middle" x="465" y="-41.0422" font-family="Helvetica,sans-Serif" font-size="10.00">ore::data::XMLDocument::doc</text>
</a>
</g>
</g>
<!-- Node8&#45;&gt;Node9 -->
<g id="edge13" class="edge"><title>Node8&#45;&gt;Node9</title>
<path fill="none" stroke="#63b8ff" d="M344.593,-43.5422C356.215,-43.5422 368.945,-43.5422 381.626,-43.5422"/>
<polygon fill="#63b8ff" stroke="#63b8ff" points="381.763,-47.0423 391.763,-43.5422 381.763,-40.0423 381.763,-47.0423"/>
</g>
<!-- Node11&#45;&gt;Node2 -->
<g id="edge19" class="edge"><title>Node11&#45;&gt;Node2</title>
<path fill="none" stroke="#63b8ff" d="M344.458,-203.483C348.673,-200.938 352.614,-197.979 356,-194.542 387.399,-162.676 356.214,-127.389 392,-100.542 440.829,-63.9091 512.952,-64.0848 563.483,-70.2703"/>
<polygon fill="#63b8ff" stroke="#63b8ff" points="563.228,-73.7674 573.604,-71.6243 564.156,-66.8292 563.228,-73.7674"/>
</g>
<!-- Node11&#45;&gt;Node3 -->
<g id="edge20" class="edge"><title>Node11&#45;&gt;Node3</title>
<path fill="none" stroke="#63b8ff" d="M345.469,-233.607C360.315,-237.674 376.717,-241.724 392,-244.542 497.838,-264.058 622.327,-274.133 698.691,-278.874"/>
<polygon fill="#63b8ff" stroke="#63b8ff" points="698.485,-282.368 708.679,-279.481 698.91,-275.381 698.485,-282.368"/>
</g>
<!-- Node11&#45;&gt;Node5 -->
<g id="edge21" class="edge"><title>Node11&#45;&gt;Node5</title>
<path fill="none" stroke="#63b8ff" d="M339.626,-233.626C345.312,-236.268 350.919,-239.243 356,-242.542 374.716,-254.695 375.831,-262.163 392,-277.542 407.972,-292.734 426.144,-309.642 440.236,-322.671"/>
<polygon fill="#63b8ff" stroke="#63b8ff" points="437.884,-325.263 447.606,-329.476 442.633,-320.12 437.884,-325.263"/>
</g>
<!-- Node12 -->
<g id="node12" class="node"><title>Node12</title>
<g id="a_node12"><a xlink:href="classore_1_1data_1_1_netting_set_details.html#ab87072d461177abcb48735d002150bfb" target="_top" xlink:title=" ">
<polygon fill="white" stroke="#666666" points="533.5,-139.542 396.5,-139.542 396.5,-109.542 533.5,-109.542 533.5,-139.542"/>
<text text-anchor="start" x="404.5" y="-127.542" font-family="Helvetica,sans-Serif" font-size="10.00">ore::data::NettingSetDetails</text>
<text text-anchor="middle" x="465" y="-116.542" font-family="Helvetica,sans-Serif" font-size="10.00">::emptyOptionalFields</text>
</a>
</g>
</g>
<!-- Node11&#45;&gt;Node12 -->
<g id="edge22" class="edge"><title>Node11&#45;&gt;Node12</title>
<path fill="none" stroke="#63b8ff" d="M341.311,-203.47C346.49,-200.875 351.513,-197.908 356,-194.542 376.767,-178.963 370.784,-163.505 392,-148.542 394.12,-147.047 396.34,-145.64 398.631,-144.316"/>
<polygon fill="#63b8ff" stroke="#63b8ff" points="400.478,-147.302 407.767,-139.614 397.274,-141.078 400.478,-147.302"/>
</g>
<!-- Node13 -->
<g id="node13" class="node"><title>Node13</title>
<g id="a_node13"><a xlink:href="classore_1_1data_1_1_netting_set_details.html#a9bf8e40febad0782c5855488041ecfd7" target="_top" xlink:title=" ">
<polygon fill="white" stroke="#666666" points="533.5,-235.542 396.5,-235.542 396.5,-205.542 533.5,-205.542 533.5,-235.542"/>
<text text-anchor="start" x="404.5" y="-223.542" font-family="Helvetica,sans-Serif" font-size="10.00">ore::data::NettingSetDetails</text>
<text text-anchor="middle" x="465" y="-212.542" font-family="Helvetica,sans-Serif" font-size="10.00">::nettingSetId</text>
</a>
</g>
</g>
<!-- Node11&#45;&gt;Node13 -->
<g id="edge23" class="edge"><title>Node11&#45;&gt;Node13</title>
<path fill="none" stroke="#63b8ff" d="M345.044,-219.126C357.981,-219.28 372.265,-219.45 386.312,-219.617"/>
<polygon fill="#63b8ff" stroke="#63b8ff" points="386.434,-223.119 396.475,-219.738 386.518,-216.119 386.434,-223.119"/>
</g>
<!-- Node14 -->
<g id="node14" class="node"><title>Node14</title>
<g id="a_node14"><a xlink:href="classore_1_1data_1_1_netting_set_details.html#a7efefb9270d6c4933e4c96de0771f17a" target="_top" xlink:title=" ">
<polygon fill="white" stroke="#666666" points="533.5,-187.542 396.5,-187.542 396.5,-157.542 533.5,-157.542 533.5,-187.542"/>
<text text-anchor="start" x="404.5" y="-175.542" font-family="Helvetica,sans-Serif" font-size="10.00">ore::data::NettingSetDetails</text>
<text text-anchor="middle" x="465" y="-164.542" font-family="Helvetica,sans-Serif" font-size="10.00">::toXML</text>
</a>
</g>
</g>
<!-- Node11&#45;&gt;Node14 -->
<g id="edge24" class="edge"><title>Node11&#45;&gt;Node14</title>
<path fill="none" stroke="#63b8ff" d="M345.044,-205.113C361.96,-200.482 381.177,-195.22 399.158,-190.297"/>
<polygon fill="#63b8ff" stroke="#63b8ff" points="400.276,-193.619 408.997,-187.603 398.428,-186.868 400.276,-193.619"/>
</g>
<!-- Node14&#45;&gt;Node2 -->
<g id="edge25" class="edge"><title>Node14&#45;&gt;Node2</title>
<path fill="none" stroke="#63b8ff" d="M518.434,-157.473C525.174,-154.842 531.858,-151.866 538,-148.542 560.434,-136.401 582.924,-118.204 599.055,-103.838"/>
<polygon fill="#63b8ff" stroke="#63b8ff" points="601.833,-106.043 606.878,-96.7263 597.124,-100.863 601.833,-106.043"/>
</g>
<!-- Node14&#45;&gt;Node3 -->
<g id="edge26" class="edge"><title>Node14&#45;&gt;Node3</title>
<path fill="none" stroke="#63b8ff" d="M511.784,-187.55C520.506,-190.481 529.548,-193.568 538,-196.542 601.554,-218.907 674.317,-246.149 721.149,-263.896"/>
<polygon fill="#63b8ff" stroke="#63b8ff" points="720.145,-267.259 730.737,-267.534 722.629,-260.714 720.145,-267.259"/>
</g>
<!-- Node15&#45;&gt;Node3 -->
<g id="edge28" class="edge"><title>Node15&#45;&gt;Node3</title>
<path fill="none" stroke="#63b8ff" d="M354.043,-274.147C366.542,-275.517 379.695,-276.758 392,-277.542 498.501,-284.331 622.209,-284.513 698.299,-283.742"/>
<polygon fill="#63b8ff" stroke="#63b8ff" points="698.752,-287.237 708.713,-283.628 698.675,-280.238 698.752,-287.237"/>
</g>
<!-- Node15&#45;&gt;Node5 -->
<g id="edge29" class="edge"><title>Node15&#45;&gt;Node5</title>
<path fill="none" stroke="#63b8ff" d="M327.929,-281.559C337.049,-285.961 346.963,-290.853 356,-295.542 372.246,-303.973 375.479,-307.663 392,-315.542 399.264,-319.006 407.057,-322.432 414.737,-325.65"/>
<polygon fill="#63b8ff" stroke="#63b8ff" points="413.426,-328.895 424.005,-329.459 416.087,-322.42 413.426,-328.895"/>
</g>
</g>
</svg>
