<?xml version="1.0" encoding="UTF-8" standalone="no"?>
<!DOCTYPE svg PUBLIC "-//W3C//DTD SVG 1.1//EN"
 "http://www.w3.org/Graphics/SVG/1.1/DTD/svg11.dtd">
<!-- Generated by graphviz version 2.38.0 (20140413.2041)
 -->
<!-- Title: open Pages: 1 -->
<svg width="402pt" height="70pt"
 viewBox="0.00 0.00 402.00 69.50" xmlns="http://www.w3.org/2000/svg" xmlns:xlink="http://www.w3.org/1999/xlink">
<g id="graph0" class="graph" transform="scale(1 1) rotate(0) translate(4 65.5)">
<title>open</title>
<!-- Node1 -->
<g id="node1" class="node"><title>Node1</title>
<g id="a_node1"><a xlink:title=" ">
<polygon fill="#999999" stroke="#666666" points="394,-42.5 356,-42.5 356,-23.5 394,-23.5 394,-42.5"/>
<text text-anchor="middle" x="375" y="-30.5" font-family="Helvetica,sans-Serif" font-size="10.00">open</text>
</a>
</g>
</g>
<!-- Node2 -->
<g id="node2" class="node"><title>Node2</title>
<g id="a_node2"><a xlink:href="classore_1_1data_1_1_c_s_v_file_report.html#a4b9238746c9da99be470027b6ea0e0b5" target="_top" xlink:title=" ">
<polygon fill="white" stroke="#666666" points="320,-61.5 239,-61.5 239,-42.5 320,-42.5 320,-61.5"/>
<text text-anchor="middle" x="279.5" y="-49.5" font-family="Helvetica,sans-Serif" font-size="10.00">CSVFileReport</text>
</a>
</g>
</g>
<!-- Node1&#45;&gt;Node2 -->
<g id="edge1" class="edge"><title>Node1&#45;&gt;Node2</title>
<path fill="none" stroke="#63b8ff" d="M345.935,-38.703C337.828,-40.3505 328.823,-42.1803 320.152,-43.9423"/>
<polygon fill="#63b8ff" stroke="#63b8ff" points="346.87,-42.0848 355.972,-36.6634 345.476,-35.225 346.87,-42.0848"/>
</g>
<!-- Node3 -->
<g id="node3" class="node"><title>Node3</title>
<g id="a_node3"><a xlink:href="classore_1_1data_1_1_c_s_v_file_report.html#a1445193a5ee913dfadf174b47a49f1d2" target="_top" xlink:title=" ">
<polygon fill="white" stroke="#666666" points="303,-24.5 256,-24.5 256,-5.5 303,-5.5 303,-24.5"/>
<text text-anchor="middle" x="279.5" y="-12.5" font-family="Helvetica,sans-Serif" font-size="10.00">rollover</text>
</a>
</g>
</g>
<!-- Node1&#45;&gt;Node3 -->
<g id="edge2" class="edge"><title>Node1&#45;&gt;Node3</title>
<path fill="none" stroke="#63b8ff" d="M346.083,-27.6256C332.358,-24.9834 316.033,-21.8406 303.104,-19.3516"/>
<polygon fill="#63b8ff" stroke="#63b8ff" points="345.491,-31.0758 355.972,-29.5294 346.814,-24.202 345.491,-31.0758"/>
</g>
<!-- Node4 -->
<g id="node4" class="node"><title>Node4</title>
<g id="a_node4"><a xlink:href="classore_1_1data_1_1_c_s_v_file_report.html#a7ba407af8cfb7f4701894176d4a3ea74" target="_top" xlink:title=" ">
<polygon fill="white" stroke="#666666" points="203,-24.5 168,-24.5 168,-5.5 203,-5.5 203,-24.5"/>
<text text-anchor="middle" x="185.5" y="-12.5" font-family="Helvetica,sans-Serif" font-size="10.00">next</text>
</a>
</g>
</g>
<!-- Node3&#45;&gt;Node4 -->
<g id="edge3" class="edge"><title>Node3&#45;&gt;Node4</title>
<path fill="none" stroke="#63b8ff" d="M245.704,-15C231.316,-15 215.044,-15 203.206,-15"/>
<polygon fill="#63b8ff" stroke="#63b8ff" points="245.758,-18.5001 255.758,-15 245.758,-11.5001 245.758,-18.5001"/>
</g>
<!-- Node5 -->
<g id="node5" class="node"><title>Node5</title>
<g id="a_node5"><a xlink:href="classore_1_1data_1_1_in_memory_report.html#abe91a6caf015cdc4c4e53c3f03dcc103" target="_top" xlink:title=" ">
<polygon fill="white" stroke="#666666" points="132,-30 0,-30 0,-0 132,-0 132,-30"/>
<text text-anchor="start" x="8" y="-18" font-family="Helvetica,sans-Serif" font-size="10.00">ore::data::InMemoryReport</text>
<text text-anchor="middle" x="66" y="-7" font-family="Helvetica,sans-Serif" font-size="10.00">::toFile</text>
</a>
</g>
</g>
<!-- Node4&#45;&gt;Node5 -->
<g id="edge4" class="edge"><title>Node4&#45;&gt;Node5</title>
<path fill="none" stroke="#63b8ff" d="M157.784,-15C150.053,-15 141.255,-15 132.252,-15"/>
<polygon fill="#63b8ff" stroke="#63b8ff" points="157.914,-18.5001 167.914,-15 157.914,-11.5001 157.914,-18.5001"/>
</g>
</g>
</svg>
