<?xml version="1.0" encoding="UTF-8" standalone="no"?>
<!DOCTYPE svg PUBLIC "-//W3C//DTD SVG 1.1//EN"
 "http://www.w3.org/Graphics/SVG/1.1/DTD/svg11.dtd">
<!-- Generated by graphviz version 2.38.0 (20140413.2041)
 -->
<!-- Title: fromXML Pages: 1 -->
<!--zoomable 476 -->
<svg id="main" version="1.1" xmlns="http://www.w3.org/2000/svg" xmlns:xlink="http://www.w3.org/1999/xlink" xml:space="preserve" onload="init(evt)">
<style type="text/css"><![CDATA[
.edge:hover path { stroke: red; }
.edge:hover polygon { stroke: red; fill: red; }
]]></style>
<script type="text/javascript"><![CDATA[
var edges = document.getElementsByTagName('g');
if (edges && edges.length) {
  for (var i=0;i<edges.length;i++) {
    if (edges[i].id.substr(0,4)=='edge') {
      edges[i].setAttribute('class','edge');
    }
  }
}
]]></script>
        <defs>
                <circle id="rim" cx="0" cy="0" r="7"/>
                <circle id="rim2" cx="0" cy="0" r="3.5"/>
                <g id="zoomPlus">
                        <use xlink:href="#rim" fill="#404040">
                                <set attributeName="fill" to="#808080" begin="zoomplus.mouseover" end="zoomplus.mouseout"/>
                        </use>
                        <path d="M-4,0h8M0,-4v8" fill="none" stroke="white" stroke-width="1.5" pointer-events="none"/>
                </g>
                <g id="zoomMin">
                        <use xlink:href="#rim" fill="#404040">
                                <set attributeName="fill" to="#808080" begin="zoomminus.mouseover" end="zoomminus.mouseout"/>
                        </use>
                        <path d="M-4,0h8" fill="none" stroke="white" stroke-width="1.5" pointer-events="none"/>
                </g>
                <g id="dirArrow">
                        <path fill="none" stroke="white" stroke-width="1.5" d="M0,-3.0v7 M-2.5,-0.5L0,-3.0L2.5,-0.5"/>
                </g>
               <g id="resetDef">
                       <use xlink:href="#rim2" fill="#404040">
                               <set attributeName="fill" to="#808080" begin="reset.mouseover" end="reset.mouseout"/>
                       </use>
               </g>
        </defs>

<script type="text/javascript">
var viewWidth = 737;
var viewHeight = 476;
var sectionId = 'dynsection-2';
</script>
<script xlink:href="svgpan.js"/>
<svg id="graph" class="graph">
<g id="viewport">
<title>fromXML</title>
<!-- Node1 -->
<g id="node1" class="node"><title>Node1</title>
<g id="a_node1"><a xlink:title=" ">
<polygon fill="#999999" stroke="#666666" points="54,-207.5 0,-207.5 0,-188.5 54,-188.5 54,-207.5"/>
<text text-anchor="middle" x="27" y="-195.5" font-family="Helvetica,sans-Serif" font-size="10.00">fromXML</text>
</a>
</g>
</g>
<!-- Node2 -->
<g id="node2" class="node"><title>Node2</title>
<g id="a_node2"><a xlink:href="classore_1_1data_1_1_credit_index_reference_datum.html#acc685a83d051af2e37262cc149ab5363" target="_top" xlink:title="Add a constituent. The constituent is not added if already present.">
<polygon fill="white" stroke="#666666" points="185.5,-405.5 153.5,-405.5 153.5,-386.5 185.5,-386.5 185.5,-405.5"/>
<text text-anchor="middle" x="169.5" y="-393.5" font-family="Helvetica,sans-Serif" font-size="10.00">add</text>
</a>
</g>
</g>
<!-- Node1&#45;&gt;Node2 -->
<g id="edge1" class="edge"><title>Node1&#45;&gt;Node2</title>
<path fill="none" stroke="#63b8ff" d="M31.6762,-207.794C40.0318,-229.341 61.9211,-281.961 90,-320 107.136,-343.214 131.622,-365.673 148.675,-380.079"/>
<polygon fill="#63b8ff" stroke="#63b8ff" points="146.452,-382.783 156.384,-386.472 150.92,-377.394 146.452,-382.783"/>
</g>
<!-- Node4 -->
<g id="node4" class="node"><title>Node4</title>
<g id="a_node4"><a xlink:href="classore_1_1data_1_1_reference_datum.html#a7741ae0fc924943de5bfe02928262eb7" target="_top" xlink:title=" ">
<polygon fill="white" stroke="#666666" points="236,-311 103,-311 103,-281 236,-281 236,-311"/>
<text text-anchor="start" x="111" y="-299" font-family="Helvetica,sans-Serif" font-size="10.00">ore::data::ReferenceDatum</text>
<text text-anchor="middle" x="169.5" y="-288" font-family="Helvetica,sans-Serif" font-size="10.00">::fromXML</text>
</a>
</g>
</g>
<!-- Node1&#45;&gt;Node4 -->
<g id="edge3" class="edge"><title>Node1&#45;&gt;Node4</title>
<path fill="none" stroke="#63b8ff" d="M41.7275,-207.575C63.975,-223.093 108.425,-254.097 138.323,-274.951"/>
<polygon fill="#63b8ff" stroke="#63b8ff" points="136.512,-277.956 146.717,-280.806 140.517,-272.214 136.512,-277.956"/>
</g>
<!-- Node7 -->
<g id="node7" class="node"><title>Node7</title>
<g id="a_node7"><a xlink:href="classore_1_1data_1_1_x_m_l_utils.html#a5a1307174ddefdb3aad6e3bd8cc63b27" target="_top" xlink:title=" ">
<polygon fill="white" stroke="#666666" points="586.5,-197 487.5,-197 487.5,-167 586.5,-167 586.5,-197"/>
<text text-anchor="start" x="495.5" y="-185" font-family="Helvetica,sans-Serif" font-size="10.00">ore::data::XMLUtils</text>
<text text-anchor="middle" x="537" y="-174" font-family="Helvetica,sans-Serif" font-size="10.00">::getChildValue</text>
</a>
</g>
</g>
<!-- Node1&#45;&gt;Node7 -->
<g id="edge24" class="edge"><title>Node1&#45;&gt;Node7</title>
<path fill="none" stroke="#63b8ff" d="M54.2829,-197.191C119.983,-195.166 296.67,-189.704 444,-185 454.762,-184.656 466.231,-184.286 477.29,-183.926"/>
<polygon fill="#63b8ff" stroke="#63b8ff" points="477.419,-187.424 487.299,-183.6 477.191,-180.428 477.419,-187.424"/>
</g>
<!-- Node12 -->
<g id="node12" class="node"><title>Node12</title>
<g id="a_node12"><a xlink:href="classore_1_1data_1_1_credit_index_constituent.html#a7741ae0fc924943de5bfe02928262eb7" target="_top" xlink:title=" ">
<polygon fill="white" stroke="#666666" points="249,-173 90,-173 90,-143 249,-143 249,-173"/>
<text text-anchor="start" x="98" y="-161" font-family="Helvetica,sans-Serif" font-size="10.00">ore::data::CreditIndexConstituent</text>
<text text-anchor="middle" x="169.5" y="-150" font-family="Helvetica,sans-Serif" font-size="10.00">::fromXML</text>
</a>
</g>
</g>
<!-- Node1&#45;&gt;Node12 -->
<g id="edge13" class="edge"><title>Node1&#45;&gt;Node12</title>
<path fill="none" stroke="#63b8ff" d="M54.0977,-190.57C68.7623,-186.395 87.7436,-180.991 106.015,-175.789"/>
<polygon fill="#63b8ff" stroke="#63b8ff" points="107.11,-179.117 115.769,-173.012 105.193,-172.384 107.11,-179.117"/>
</g>
<!-- Node13 -->
<g id="node13" class="node"><title>Node13</title>
<g id="a_node13"><a xlink:href="classore_1_1data_1_1_x_m_l_utils.html#a5f2b91a4af900e85c356cfe807e64501" target="_top" xlink:title=" ">
<polygon fill="white" stroke="#666666" points="414,-30 315,-30 315,-0 414,-0 414,-30"/>
<text text-anchor="start" x="323" y="-18" font-family="Helvetica,sans-Serif" font-size="10.00">ore::data::XMLUtils</text>
<text text-anchor="middle" x="364.5" y="-7" font-family="Helvetica,sans-Serif" font-size="10.00">::getChildNode</text>
</a>
</g>
</g>
<!-- Node1&#45;&gt;Node13 -->
<g id="edge23" class="edge"><title>Node1&#45;&gt;Node13</title>
<path fill="none" stroke="#63b8ff" d="M34.7517,-188.072C44.9831,-173.826 65.8063,-147.786 90,-134 153.128,-98.0288 189.031,-137.02 249,-96 272.201,-80.1302 262.786,-61.2245 285,-44 291.135,-39.2426 298.13,-35.2077 305.357,-31.801"/>
<polygon fill="#63b8ff" stroke="#63b8ff" points="306.796,-34.992 314.59,-27.8146 304.021,-28.5655 306.796,-34.992"/>
</g>
<!-- Node16 -->
<g id="node16" class="node"><title>Node16</title>
<g id="a_node16"><a xlink:href="classore_1_1data_1_1_x_m_l_utils.html#a7fedec5ac495a3e67a9abd7e4aae74aa" target="_top" xlink:title="Get a node&#39;s next sibling node.">
<polygon fill="white" stroke="#666666" points="219,-87 120,-87 120,-57 219,-57 219,-87"/>
<text text-anchor="start" x="128" y="-75" font-family="Helvetica,sans-Serif" font-size="10.00">ore::data::XMLUtils</text>
<text text-anchor="middle" x="169.5" y="-64" font-family="Helvetica,sans-Serif" font-size="10.00">::getNextSibling</text>
</a>
</g>
</g>
<!-- Node1&#45;&gt;Node16 -->
<g id="edge25" class="edge"><title>Node1&#45;&gt;Node16</title>
<path fill="none" stroke="#63b8ff" d="M31.7127,-188.266C39.5609,-168.93 59.6456,-125.445 90,-101 96.1264,-96.0664 103.172,-91.9225 110.475,-88.4549"/>
<polygon fill="#63b8ff" stroke="#63b8ff" points="112.024,-91.5983 119.813,-84.4159 109.245,-85.1736 112.024,-91.5983"/>
</g>
<!-- Node3 -->
<g id="node3" class="node"><title>Node3</title>
<g id="a_node3"><a xlink:href="classore_1_1data_1_1_credit_index_constituent.html#ae30bda01bc8b36197efbd785d2a9ddb7" target="_top" xlink:title=" ">
<polygon fill="white" stroke="#666666" points="444,-468 285,-468 285,-438 444,-438 444,-468"/>
<text text-anchor="start" x="293" y="-456" font-family="Helvetica,sans-Serif" font-size="10.00">ore::data::CreditIndexConstituent</text>
<text text-anchor="middle" x="364.5" y="-445" font-family="Helvetica,sans-Serif" font-size="10.00">::name</text>
</a>
</g>
</g>
<!-- Node2&#45;&gt;Node3 -->
<g id="edge2" class="edge"><title>Node2&#45;&gt;Node3</title>
<path fill="none" stroke="#63b8ff" d="M185.644,-400.473C210.654,-407.859 261.908,-422.996 302.998,-435.131"/>
<polygon fill="#63b8ff" stroke="#63b8ff" points="302.083,-438.511 312.665,-437.987 304.066,-431.797 302.083,-438.511"/>
</g>
<!-- Node5 -->
<g id="node5" class="node"><title>Node5</title>
<g id="a_node5"><a xlink:href="classore_1_1data_1_1_x_m_l_utils.html#a37c092916f4bdf10d4fbf6bb9e474db7" target="_top" xlink:title=" ">
<polygon fill="white" stroke="#666666" points="414,-372 315,-372 315,-342 414,-342 414,-372"/>
<text text-anchor="start" x="323" y="-360" font-family="Helvetica,sans-Serif" font-size="10.00">ore::data::XMLUtils</text>
<text text-anchor="middle" x="364.5" y="-349" font-family="Helvetica,sans-Serif" font-size="10.00">::checkNode</text>
</a>
</g>
</g>
<!-- Node4&#45;&gt;Node5 -->
<g id="edge4" class="edge"><title>Node4&#45;&gt;Node5</title>
<path fill="none" stroke="#63b8ff" d="M218.208,-311.079C244.869,-319.505 278.273,-330.063 306.327,-338.93"/>
<polygon fill="#63b8ff" stroke="#63b8ff" points="305.417,-342.313 316.007,-341.989 307.527,-335.638 305.417,-342.313"/>
</g>
<!-- Node6 -->
<g id="node6" class="node"><title>Node6</title>
<g id="a_node6"><a xlink:href="classore_1_1data_1_1_x_m_l_utils.html#a2d656de3f92d61e867ec7a3c88ad4015" target="_top" xlink:title=" ">
<polygon fill="white" stroke="#666666" points="414,-420 315,-420 315,-390 414,-390 414,-420"/>
<text text-anchor="start" x="323" y="-408" font-family="Helvetica,sans-Serif" font-size="10.00">ore::data::XMLUtils</text>
<text text-anchor="middle" x="364.5" y="-397" font-family="Helvetica,sans-Serif" font-size="10.00">::getAttribute</text>
</a>
</g>
</g>
<!-- Node4&#45;&gt;Node6 -->
<g id="edge5" class="edge"><title>Node4&#45;&gt;Node6</title>
<path fill="none" stroke="#63b8ff" d="M187.116,-311.249C208.369,-330.032 246.99,-361.804 285,-381 291.384,-384.224 298.283,-387.107 305.248,-389.657"/>
<polygon fill="#63b8ff" stroke="#63b8ff" points="304.15,-392.981 314.745,-392.931 306.432,-386.363 304.15,-392.981"/>
</g>
<!-- Node4&#45;&gt;Node7 -->
<g id="edge6" class="edge"><title>Node4&#45;&gt;Node7</title>
<path fill="none" stroke="#63b8ff" d="M236.027,-283.431C304.367,-269.917 406.646,-248.432 444,-234 465.278,-225.779 487.587,-213.279 504.908,-202.594"/>
<polygon fill="#63b8ff" stroke="#63b8ff" points="506.877,-205.491 513.479,-197.205 503.15,-199.565 506.877,-205.491"/>
</g>
<!-- Node9 -->
<g id="node9" class="node"><title>Node9</title>
<g id="a_node9"><a xlink:href="group__utilities.html#ga59b5fdda574d90facae95dec2d13040d" target="_top" xlink:title="Convert std::string to QuantLib::Date.">
<polygon fill="white" stroke="#666666" points="417,-305.5 312,-305.5 312,-286.5 417,-286.5 417,-305.5"/>
<text text-anchor="middle" x="364.5" y="-293.5" font-family="Helvetica,sans-Serif" font-size="10.00">ore::data::parseDate</text>
</a>
</g>
</g>
<!-- Node4&#45;&gt;Node9 -->
<g id="edge8" class="edge"><title>Node4&#45;&gt;Node9</title>
<path fill="none" stroke="#63b8ff" d="M236.11,-296C257.334,-296 280.787,-296 301.724,-296"/>
<polygon fill="#63b8ff" stroke="#63b8ff" points="301.779,-299.5 311.779,-296 301.779,-292.5 301.779,-299.5"/>
</g>
<!-- Node8 -->
<g id="node8" class="node"><title>Node8</title>
<g id="a_node8"><a xlink:href="classore_1_1data_1_1_x_m_l_utils.html#a6704501b110fa9d056096df3e05f0df2" target="_top" xlink:title="Get a node&#39;s value.">
<polygon fill="white" stroke="#666666" points="729,-135 630,-135 630,-105 729,-105 729,-135"/>
<text text-anchor="start" x="638" y="-123" font-family="Helvetica,sans-Serif" font-size="10.00">ore::data::XMLUtils</text>
<text text-anchor="middle" x="679.5" y="-112" font-family="Helvetica,sans-Serif" font-size="10.00">::getNodeValue</text>
</a>
</g>
</g>
<!-- Node7&#45;&gt;Node8 -->
<g id="edge7" class="edge"><title>Node7&#45;&gt;Node8</title>
<path fill="none" stroke="#63b8ff" d="M572.011,-166.992C590.941,-158.638 614.705,-148.152 634.979,-139.205"/>
<polygon fill="#63b8ff" stroke="#63b8ff" points="636.579,-142.325 644.315,-135.085 633.753,-135.92 636.579,-142.325"/>
</g>
<!-- Node9&#45;&gt;Node9 -->
<g id="edge9" class="edge"><title>Node9&#45;&gt;Node9</title>
<path fill="none" stroke="#63b8ff" d="M337.99,-305.583C325.093,-314.234 333.93,-323.5 364.5,-323.5 385.039,-323.5 395.768,-319.317 396.686,-313.948"/>
<polygon fill="#63b8ff" stroke="#63b8ff" points="399.521,-311.893 391.01,-305.583 393.728,-315.823 399.521,-311.893"/>
</g>
<!-- Node10 -->
<g id="node10" class="node"><title>Node10</title>
<g id="a_node10"><a xlink:href="group__utilities.html#gaecd67eda4fb5f4859bb8f6d383547721" target="_top" xlink:title="Convert text to QuantLib::Integer.">
<polygon fill="white" stroke="#666666" points="594,-277.5 480,-277.5 480,-258.5 594,-258.5 594,-277.5"/>
<text text-anchor="middle" x="537" y="-265.5" font-family="Helvetica,sans-Serif" font-size="10.00">ore::data::parseInteger</text>
</a>
</g>
</g>
<!-- Node9&#45;&gt;Node10 -->
<g id="edge10" class="edge"><title>Node9&#45;&gt;Node10</title>
<path fill="none" stroke="#63b8ff" d="M417.118,-287.523C433.669,-284.805 452.233,-281.756 469.683,-278.891"/>
<polygon fill="#63b8ff" stroke="#63b8ff" points="470.504,-282.303 479.805,-277.229 469.37,-275.395 470.504,-282.303"/>
</g>
<!-- Node11 -->
<g id="node11" class="node"><title>Node11</title>
<g id="a_node11"><a xlink:href="namespaceore_1_1data.html#a777e216dee6069b548bb87da7152699e" target="_top" xlink:title=" ">
<polygon fill="white" stroke="#666666" points="576.5,-332.5 497.5,-332.5 497.5,-313.5 576.5,-313.5 576.5,-332.5"/>
<text text-anchor="middle" x="537" y="-320.5" font-family="Helvetica,sans-Serif" font-size="10.00">ore::data::size</text>
</a>
</g>
</g>
<!-- Node9&#45;&gt;Node11 -->
<g id="edge12" class="edge"><title>Node9&#45;&gt;Node11</title>
<path fill="none" stroke="#63b8ff" d="M417.118,-304.174C439.371,-307.698 465.266,-311.799 487.196,-315.271"/>
<polygon fill="#63b8ff" stroke="#63b8ff" points="486.862,-318.762 497.287,-316.869 487.957,-311.848 486.862,-318.762"/>
</g>
<!-- Node10&#45;&gt;Node10 -->
<g id="edge11" class="edge"><title>Node10&#45;&gt;Node10</title>
<path fill="none" stroke="#63b8ff" d="M515.114,-277.583C504.466,-286.234 511.762,-295.5 537,-295.5 553.168,-295.5 561.973,-291.697 563.414,-286.689"/>
<polygon fill="#63b8ff" stroke="#63b8ff" points="566.472,-284.979 558.886,-277.583 560.204,-288.095 566.472,-284.979"/>
</g>
<!-- Node12&#45;&gt;Node7 -->
<g id="edge15" class="edge"><title>Node12&#45;&gt;Node7</title>
<path fill="none" stroke="#63b8ff" d="M249.358,-163.178C317.7,-167.666 415.069,-174.059 476.891,-178.119"/>
<polygon fill="#63b8ff" stroke="#63b8ff" points="477.043,-181.636 487.251,-178.799 477.502,-174.651 477.043,-181.636"/>
</g>
<!-- Node12&#45;&gt;Node8 -->
<g id="edge20" class="edge"><title>Node12&#45;&gt;Node8</title>
<path fill="none" stroke="#63b8ff" d="M219.416,-142.869C229.49,-138.949 239.819,-134.309 249,-129 267.03,-118.574 265.605,-106.589 285,-99 412.958,-48.9296 458.713,-64.9671 594,-89 608.114,-91.5072 622.963,-96.1981 636.208,-101.186"/>
<polygon fill="#63b8ff" stroke="#63b8ff" points="634.948,-104.451 645.535,-104.843 637.503,-97.9342 634.948,-104.451"/>
</g>
<!-- Node12&#45;&gt;Node9 -->
<g id="edge21" class="edge"><title>Node12&#45;&gt;Node9</title>
<path fill="none" stroke="#63b8ff" d="M191.522,-173.031C228.424,-199.417 304.477,-253.797 341.832,-280.507"/>
<polygon fill="#63b8ff" stroke="#63b8ff" points="339.859,-283.399 350.029,-286.368 343.93,-277.705 339.859,-283.399"/>
</g>
<!-- Node12&#45;&gt;Node13 -->
<g id="edge14" class="edge"><title>Node12&#45;&gt;Node13</title>
<path fill="none" stroke="#63b8ff" d="M228.597,-142.841C236.047,-139.164 243.114,-134.617 249,-129 278.68,-100.676 255.32,-72.324 285,-44 290.838,-38.4284 297.839,-33.9093 305.222,-30.2483"/>
<polygon fill="#63b8ff" stroke="#63b8ff" points="306.986,-33.2957 314.721,-26.0554 304.159,-26.8918 306.986,-33.2957"/>
</g>
<!-- Node14 -->
<g id="node14" class="node"><title>Node14</title>
<g id="a_node14"><a xlink:href="classore_1_1data_1_1_x_m_l_utils.html#a450d9b1fe5949d01160aeb42654d7f1d" target="_top" xlink:title=" ">
<polygon fill="white" stroke="#666666" points="427,-154 302,-154 302,-124 427,-124 427,-154"/>
<text text-anchor="start" x="310" y="-142" font-family="Helvetica,sans-Serif" font-size="10.00">ore::data::XMLUtils</text>
<text text-anchor="middle" x="364.5" y="-131" font-family="Helvetica,sans-Serif" font-size="10.00">::getChildValueAsDouble</text>
</a>
</g>
</g>
<!-- Node12&#45;&gt;Node14 -->
<g id="edge16" class="edge"><title>Node12&#45;&gt;Node14</title>
<path fill="none" stroke="#63b8ff" d="M249,-150.272C263.193,-148.875 277.924,-147.425 291.906,-146.048"/>
<polygon fill="#63b8ff" stroke="#63b8ff" points="292.327,-149.524 301.936,-145.061 291.641,-142.557 292.327,-149.524"/>
</g>
<!-- Node15 -->
<g id="node15" class="node"><title>Node15</title>
<g id="a_node15"><a xlink:href="group__utilities.html#gad1db2a68f9a73667c3b4084d63955bdd" target="_top" xlink:title="Convert text to Real.">
<polygon fill="white" stroke="#666666" points="589,-117.5 485,-117.5 485,-98.5 589,-98.5 589,-117.5"/>
<text text-anchor="middle" x="537" y="-105.5" font-family="Helvetica,sans-Serif" font-size="10.00">ore::data::parseReal</text>
</a>
</g>
</g>
<!-- Node12&#45;&gt;Node15 -->
<g id="edge22" class="edge"><title>Node12&#45;&gt;Node15</title>
<path fill="none" stroke="#63b8ff" d="M211.698,-142.93C223.737,-138.486 236.909,-133.584 249,-129 265.052,-122.914 268.173,-118.4 285,-115 348.761,-102.116 423.471,-101.873 474.702,-103.913"/>
<polygon fill="#63b8ff" stroke="#63b8ff" points="474.8,-107.42 484.945,-104.363 475.108,-100.427 474.8,-107.42"/>
</g>
<!-- Node14&#45;&gt;Node7 -->
<g id="edge17" class="edge"><title>Node14&#45;&gt;Node7</title>
<path fill="none" stroke="#63b8ff" d="M425.133,-154.039C442.151,-158.331 460.671,-163.002 477.614,-167.275"/>
<polygon fill="#63b8ff" stroke="#63b8ff" points="476.832,-170.687 487.384,-169.739 478.544,-163.9 476.832,-170.687"/>
</g>
<!-- Node14&#45;&gt;Node15 -->
<g id="edge18" class="edge"><title>Node14&#45;&gt;Node15</title>
<path fill="none" stroke="#63b8ff" d="M427.054,-127.808C442.625,-124.977 459.342,-121.938 474.891,-119.111"/>
<polygon fill="#63b8ff" stroke="#63b8ff" points="475.704,-122.52 484.917,-117.288 474.452,-115.633 475.704,-122.52"/>
</g>
<!-- Node15&#45;&gt;Node15 -->
<g id="edge19" class="edge"><title>Node15&#45;&gt;Node15</title>
<path fill="none" stroke="#63b8ff" d="M515.114,-117.583C504.466,-126.234 511.762,-135.5 537,-135.5 553.168,-135.5 561.973,-131.697 563.414,-126.689"/>
<polygon fill="#63b8ff" stroke="#63b8ff" points="566.472,-124.979 558.886,-117.583 560.204,-128.095 566.472,-124.979"/>
</g>
</g>
</svg>
        <g id="navigator" transform="translate(0 0)" fill="#404254">
                <rect fill="#f2f5e9" fill-opacity="0.5" stroke="#606060" stroke-width=".5" x="0" y="0" width="60" height="60"/>
                <use id="zoomplus" xlink:href="#zoomPlus" x="17" y="9" onmousedown="handleZoom(evt,'in')"/>
                <use id="zoomminus" xlink:href="#zoomMin" x="42" y="9" onmousedown="handleZoom(evt,'out')"/>
                <use id="reset" xlink:href="#resetDef" x="30" y="36" onmousedown="handleReset()"/>
                <g id="arrowUp" xlink:href="#dirArrow" transform="translate(30 24)" onmousedown="handlePan(0,-1)">
                  <use xlink:href="#rim" fill="#404040">
                        <set attributeName="fill" to="#808080" begin="arrowUp.mouseover" end="arrowUp.mouseout"/>
                  </use>
                  <path fill="none" stroke="white" stroke-width="1.5" d="M0,-3.0v7 M-2.5,-0.5L0,-3.0L2.5,-0.5"/>
                </g>
                <g id="arrowRight" xlink:href="#dirArrow" transform="rotate(90) translate(36 -43)" onmousedown="handlePan(1,0)">
                  <use xlink:href="#rim" fill="#404040">
                        <set attributeName="fill" to="#808080" begin="arrowRight.mouseover" end="arrowRight.mouseout"/>
                  </use>
                  <path fill="none" stroke="white" stroke-width="1.5" d="M0,-3.0v7 M-2.5,-0.5L0,-3.0L2.5,-0.5"/>
                </g>
                <g id="arrowDown" xlink:href="#dirArrow" transform="rotate(180) translate(-30 -48)" onmousedown="handlePan(0,1)">
                  <use xlink:href="#rim" fill="#404040">
                        <set attributeName="fill" to="#808080" begin="arrowDown.mouseover" end="arrowDown.mouseout"/>
                  </use>
                  <path fill="none" stroke="white" stroke-width="1.5" d="M0,-3.0v7 M-2.5,-0.5L0,-3.0L2.5,-0.5"/>
                </g>
                <g id="arrowLeft" xlink:href="#dirArrow" transform="rotate(270) translate(-36 17)" onmousedown="handlePan(-1,0)">
                  <use xlink:href="#rim" fill="#404040">
                        <set attributeName="fill" to="#808080" begin="arrowLeft.mouseover" end="arrowLeft.mouseout"/>
                  </use>
                  <path fill="none" stroke="white" stroke-width="1.5" d="M0,-3.0v7 M-2.5,-0.5L0,-3.0L2.5,-0.5"/>
                </g>
        </g>
        <svg viewBox="0 0 15 15" width="100%" height="30px" preserveAspectRatio="xMaxYMin meet">
         <g id="arrow_out" transform="scale(0.3 0.3)">
          <a xlink:href="classore_1_1data_1_1_credit_index_reference_datum_a7741ae0fc924943de5bfe02928262eb7_cgraph_org.svg" target="_base">
           <rect id="button" ry="5" rx="5" y="6" x="6" height="38" width="38"
                fill="#f2f5e9" fill-opacity="0.5" stroke="#606060" stroke-width="1.0"/>
           <path id="arrow"
             d="M 11.500037,31.436501 C 11.940474,20.09759 22.043105,11.32322 32.158766,21.979434 L 37.068811,17.246167 C 37.068811,17.246167 37.088388,32 37.088388,32 L 22.160133,31.978069 C 22.160133,31.978069 26.997745,27.140456 26.997745,27.140456 C 18.528582,18.264221 13.291696,25.230495 11.500037,31.436501 z"
             style="fill:#404040;"/>
          </a>
         </g>
        </svg>
</svg>
