<?xml version="1.0" encoding="UTF-8" standalone="no"?>
<!DOCTYPE svg PUBLIC "-//W3C//DTD SVG 1.1//EN"
 "http://www.w3.org/Graphics/SVG/1.1/DTD/svg11.dtd">
<!-- Generated by graphviz version 2.38.0 (20140413.2041)
 -->
<!-- Title: YieldPlusDefaultYieldCurveSegment Pages: 1 -->
<!--zoomable 962 -->
<svg id="main" version="1.1" xmlns="http://www.w3.org/2000/svg" xmlns:xlink="http://www.w3.org/1999/xlink" xml:space="preserve" onload="init(evt)">
<style type="text/css"><![CDATA[
.edge:hover path { stroke: red; }
.edge:hover polygon { stroke: red; fill: red; }
]]></style>
<script type="text/javascript"><![CDATA[
var edges = document.getElementsByTagName('g');
if (edges && edges.length) {
  for (var i=0;i<edges.length;i++) {
    if (edges[i].id.substr(0,4)=='edge') {
      edges[i].setAttribute('class','edge');
    }
  }
}
]]></script>
        <defs>
                <circle id="rim" cx="0" cy="0" r="7"/>
                <circle id="rim2" cx="0" cy="0" r="3.5"/>
                <g id="zoomPlus">
                        <use xlink:href="#rim" fill="#404040">
                                <set attributeName="fill" to="#808080" begin="zoomplus.mouseover" end="zoomplus.mouseout"/>
                        </use>
                        <path d="M-4,0h8M0,-4v8" fill="none" stroke="white" stroke-width="1.5" pointer-events="none"/>
                </g>
                <g id="zoomMin">
                        <use xlink:href="#rim" fill="#404040">
                                <set attributeName="fill" to="#808080" begin="zoomminus.mouseover" end="zoomminus.mouseout"/>
                        </use>
                        <path d="M-4,0h8" fill="none" stroke="white" stroke-width="1.5" pointer-events="none"/>
                </g>
                <g id="dirArrow">
                        <path fill="none" stroke="white" stroke-width="1.5" d="M0,-3.0v7 M-2.5,-0.5L0,-3.0L2.5,-0.5"/>
                </g>
               <g id="resetDef">
                       <use xlink:href="#rim2" fill="#404040">
                               <set attributeName="fill" to="#808080" begin="reset.mouseover" end="reset.mouseout"/>
                       </use>
               </g>
        </defs>

<script type="text/javascript">
var viewWidth = 800;
var viewHeight = 962;
var sectionId = 'dynsection-1';
</script>
<script xlink:href="svgpan.js"/>
<svg id="graph" class="graph">
<g id="viewport">
<title>YieldPlusDefaultYieldCurveSegment</title>
<!-- Node1 -->
<g id="node1" class="node"><title>Node1</title>
<g id="a_node1"><a xlink:title="Yield plus default curves segment.">
<polygon fill="#999999" stroke="#666666" points="582,-294 433,-294 433,-0 582,-0 582,-294"/>
<text text-anchor="start" x="441" y="-282" font-family="Helvetica,sans-Serif" font-size="10.00">{YieldPlusDefaultYieldCurve</text>
<text text-anchor="middle" x="507.5" y="-271" font-family="Helvetica,sans-Serif" font-size="10.00">Segment</text>
<text text-anchor="start" x="441" y="-260" font-family="Helvetica,sans-Serif" font-size="10.00">||+ YieldPlusDefaultYieldCurve</text>
<text text-anchor="start" x="441" y="-249" font-family="Helvetica,sans-Serif" font-size="10.00">Segment()</text>
<text text-anchor="start" x="441" y="-238" font-family="Helvetica,sans-Serif" font-size="10.00">+ YieldPlusDefaultYieldCurve</text>
<text text-anchor="start" x="441" y="-227" font-family="Helvetica,sans-Serif" font-size="10.00">Segment()</text>
<text text-anchor="start" x="441" y="-216" font-family="Helvetica,sans-Serif" font-size="10.00">+ ~YieldPlusDefaultYieldCurve</text>
<text text-anchor="start" x="441" y="-205" font-family="Helvetica,sans-Serif" font-size="10.00">Segment()</text>
<text text-anchor="start" x="441" y="-194" font-family="Helvetica,sans-Serif" font-size="10.00">+ fromXML()</text>
<text text-anchor="start" x="441" y="-183" font-family="Helvetica,sans-Serif" font-size="10.00">+ toXML()</text>
<text text-anchor="start" x="441" y="-172" font-family="Helvetica,sans-Serif" font-size="10.00">+ referenceCurveID()</text>
<text text-anchor="start" x="441" y="-161" font-family="Helvetica,sans-Serif" font-size="10.00">+ defaultCurveIDs()</text>
<text text-anchor="start" x="441" y="-150" font-family="Helvetica,sans-Serif" font-size="10.00">+ weights()</text>
<text text-anchor="start" x="441" y="-139" font-family="Helvetica,sans-Serif" font-size="10.00">* accept()</text>
<text text-anchor="start" x="441" y="-128" font-family="Helvetica,sans-Serif" font-size="10.00">* YieldPlusDefaultYieldCurve</text>
<text text-anchor="start" x="441" y="-117" font-family="Helvetica,sans-Serif" font-size="10.00">Segment()</text>
<text text-anchor="start" x="441" y="-106" font-family="Helvetica,sans-Serif" font-size="10.00">* YieldPlusDefaultYieldCurve</text>
<text text-anchor="start" x="441" y="-95" font-family="Helvetica,sans-Serif" font-size="10.00">Segment()</text>
<text text-anchor="start" x="441" y="-84" font-family="Helvetica,sans-Serif" font-size="10.00">* ~YieldPlusDefaultYieldCurve</text>
<text text-anchor="start" x="441" y="-73" font-family="Helvetica,sans-Serif" font-size="10.00">Segment()</text>
<text text-anchor="start" x="441" y="-62" font-family="Helvetica,sans-Serif" font-size="10.00">* fromXML()</text>
<text text-anchor="start" x="441" y="-51" font-family="Helvetica,sans-Serif" font-size="10.00">* toXML()</text>
<text text-anchor="start" x="441" y="-40" font-family="Helvetica,sans-Serif" font-size="10.00">* referenceCurveID()</text>
<text text-anchor="start" x="441" y="-29" font-family="Helvetica,sans-Serif" font-size="10.00">* defaultCurveIDs()</text>
<text text-anchor="start" x="441" y="-18" font-family="Helvetica,sans-Serif" font-size="10.00">* weights()</text>
<text text-anchor="middle" x="507.5" y="-7" font-family="Helvetica,sans-Serif" font-size="10.00">}</text>
</a>
</g>
</g>
<!-- Node2 -->
<g id="node2" class="node"><title>Node2</title>
<g id="a_node2"><a xlink:href="classore_1_1data_1_1_yield_curve_segment.html" target="_top" xlink:title="Base class for yield curve segments.">
<polygon fill="white" stroke="#666666" points="314,-635 187,-635 187,-341 314,-341 314,-635"/>
<text text-anchor="middle" x="250.5" y="-623" font-family="Helvetica,sans-Serif" font-size="10.00">{YieldCurveSegment</text>
<text text-anchor="start" x="195" y="-612" font-family="Helvetica,sans-Serif" font-size="10.00">||+ ~YieldCurveSegment()</text>
<text text-anchor="start" x="195" y="-601" font-family="Helvetica,sans-Serif" font-size="10.00">+ fromXML()</text>
<text text-anchor="start" x="195" y="-590" font-family="Helvetica,sans-Serif" font-size="10.00">+ toXML()</text>
<text text-anchor="start" x="195" y="-579" font-family="Helvetica,sans-Serif" font-size="10.00">+ type()</text>
<text text-anchor="start" x="195" y="-568" font-family="Helvetica,sans-Serif" font-size="10.00">+ typeID()</text>
<text text-anchor="start" x="195" y="-557" font-family="Helvetica,sans-Serif" font-size="10.00">+ conventionsID()</text>
<text text-anchor="start" x="195" y="-546" font-family="Helvetica,sans-Serif" font-size="10.00">+ pillarChoice()</text>
<text text-anchor="start" x="195" y="-535" font-family="Helvetica,sans-Serif" font-size="10.00">+ priority()</text>
<text text-anchor="start" x="195" y="-524" font-family="Helvetica,sans-Serif" font-size="10.00">+ minDistance()</text>
<text text-anchor="start" x="195" y="-513" font-family="Helvetica,sans-Serif" font-size="10.00">+ quotes()</text>
<text text-anchor="start" x="195" y="-502" font-family="Helvetica,sans-Serif" font-size="10.00">+ accept()</text>
<text text-anchor="start" x="195" y="-491" font-family="Helvetica,sans-Serif" font-size="10.00">* YieldCurveSegment()</text>
<text text-anchor="start" x="195" y="-480" font-family="Helvetica,sans-Serif" font-size="10.00">* YieldCurveSegment()</text>
<text text-anchor="start" x="195" y="-469" font-family="Helvetica,sans-Serif" font-size="10.00">* quote()</text>
<text text-anchor="start" x="195" y="-458" font-family="Helvetica,sans-Serif" font-size="10.00">* fromXML()</text>
<text text-anchor="start" x="195" y="-447" font-family="Helvetica,sans-Serif" font-size="10.00">* toXML()</text>
<text text-anchor="start" x="195" y="-436" font-family="Helvetica,sans-Serif" font-size="10.00">* type()</text>
<text text-anchor="start" x="195" y="-425" font-family="Helvetica,sans-Serif" font-size="10.00">* typeID()</text>
<text text-anchor="start" x="195" y="-414" font-family="Helvetica,sans-Serif" font-size="10.00">* conventionsID()</text>
<text text-anchor="start" x="195" y="-403" font-family="Helvetica,sans-Serif" font-size="10.00">* pillarChoice()</text>
<text text-anchor="start" x="195" y="-392" font-family="Helvetica,sans-Serif" font-size="10.00">* priority()</text>
<text text-anchor="start" x="195" y="-381" font-family="Helvetica,sans-Serif" font-size="10.00">* minDistance()</text>
<text text-anchor="start" x="195" y="-370" font-family="Helvetica,sans-Serif" font-size="10.00">* quotes()</text>
<text text-anchor="start" x="195" y="-359" font-family="Helvetica,sans-Serif" font-size="10.00">* accept()</text>
<text text-anchor="middle" x="250.5" y="-348" font-family="Helvetica,sans-Serif" font-size="10.00">}</text>
</a>
</g>
</g>
<!-- Node2&#45;&gt;Node1 -->
<g id="edge1" class="edge"><title>Node2&#45;&gt;Node1</title>
<path fill="none" stroke="#63b8ff" d="M320.226,-395.027C355.095,-349.033 397.322,-293.332 432.847,-246.473"/>
<polygon fill="none" stroke="#63b8ff" points="317.28,-393.119 314.028,-403.202 322.859,-397.348 317.28,-393.119"/>
</g>
<!-- Node3 -->
<g id="node3" class="node"><title>Node3</title>
<g id="a_node3"><a xlink:href="classore_1_1data_1_1_x_m_l_serializable.html" target="_top" xlink:title="Base class for all serializable classes.">
<polygon fill="white" stroke="#666666" points="306,-800 195,-800 195,-693 306,-693 306,-800"/>
<text text-anchor="middle" x="250.5" y="-788" font-family="Helvetica,sans-Serif" font-size="10.00">{XMLSerializable</text>
<text text-anchor="start" x="203" y="-777" font-family="Helvetica,sans-Serif" font-size="10.00">||+ ~XMLSerializable()</text>
<text text-anchor="start" x="203" y="-766" font-family="Helvetica,sans-Serif" font-size="10.00">+ fromXML()</text>
<text text-anchor="start" x="203" y="-755" font-family="Helvetica,sans-Serif" font-size="10.00">+ toXML()</text>
<text text-anchor="start" x="203" y="-744" font-family="Helvetica,sans-Serif" font-size="10.00">+ fromFile()</text>
<text text-anchor="start" x="203" y="-733" font-family="Helvetica,sans-Serif" font-size="10.00">+ toFile()</text>
<text text-anchor="start" x="203" y="-722" font-family="Helvetica,sans-Serif" font-size="10.00">+ fromXMLString()</text>
<text text-anchor="start" x="203" y="-711" font-family="Helvetica,sans-Serif" font-size="10.00">+ toXMLString()</text>
<text text-anchor="middle" x="250.5" y="-700" font-family="Helvetica,sans-Serif" font-size="10.00">}</text>
</a>
</g>
</g>
<!-- Node3&#45;&gt;Node2 -->
<g id="edge2" class="edge"><title>Node3&#45;&gt;Node2</title>
<path fill="none" stroke="#63b8ff" d="M250.5,-682.575C250.5,-667.893 250.5,-651.652 250.5,-635.005"/>
<polygon fill="none" stroke="#63b8ff" points="247,-682.974 250.5,-692.974 254,-682.974 247,-682.974"/>
</g>
<!-- Node4 -->
<g id="node4" class="node"><title>Node4</title>
<g id="a_node4"><a xlink:title=" ">
<polygon fill="white" stroke="#666666" points="430.5,-767 324.5,-767 324.5,-726 430.5,-726 430.5,-767"/>
<text text-anchor="start" x="332.5" y="-755" font-family="Helvetica,sans-Serif" font-size="10.00">{vector&lt; pair&lt; string,</text>
<text text-anchor="middle" x="377.5" y="-744" font-family="Helvetica,sans-Serif" font-size="10.00"> bool &gt; &gt;</text>
<text text-anchor="middle" x="377.5" y="-733" font-family="Helvetica,sans-Serif" font-size="10.00">||}</text>
</a>
</g>
</g>
<!-- Node4&#45;&gt;Node2 -->
<g id="edge3" class="edge"><title>Node4&#45;&gt;Node2</title>
<path fill="none" stroke="#404040" d="M351.568,-725.829C336.177,-712.912 317.407,-694.786 305.5,-675 300.076,-665.986 295.156,-656.402 290.699,-646.521"/>
<polygon fill="none" stroke="#404040" points="290.595,-646.28 284.553,-642.345 285.861,-635.253 291.904,-639.188 290.595,-646.28"/>
<text text-anchor="middle" x="327" y="-661.5" font-family="Helvetica,sans-Serif" font-size="10.00"> #quotes_</text>
</g>
<!-- Node5 -->
<g id="node5" class="node"><title>Node5</title>
<g id="a_node5"><a xlink:title=" ">
<polygon fill="white" stroke="#666666" points="393,-877 292,-877 292,-847 393,-847 393,-877"/>
<text text-anchor="middle" x="342.5" y="-865" font-family="Helvetica,sans-Serif" font-size="10.00">{pair&lt; string, bool &gt;</text>
<text text-anchor="middle" x="342.5" y="-854" font-family="Helvetica,sans-Serif" font-size="10.00">||}</text>
</a>
</g>
</g>
<!-- Node5&#45;&gt;Node4 -->
<g id="edge4" class="edge"><title>Node5&#45;&gt;Node4</title>
<path fill="none" stroke="#404040" d="M346.933,-846.625C352.179,-829.613 361.064,-800.799 367.907,-778.608"/>
<polygon fill="none" stroke="#404040" points="367.927,-778.545 365.872,-771.633 371.463,-767.078 373.517,-773.99 367.927,-778.545"/>
<text text-anchor="middle" x="380" y="-821" font-family="Helvetica,sans-Serif" font-size="10.00"> +elements</text>
</g>
<!-- Node6 -->
<g id="node6" class="node"><title>Node6</title>
<g id="a_node6"><a xlink:title=" ">
<polygon fill="white" stroke="#666666" points="360,-954 325,-954 325,-924 360,-924 360,-954"/>
<text text-anchor="middle" x="342.5" y="-942" font-family="Helvetica,sans-Serif" font-size="10.00">{pair</text>
<text text-anchor="middle" x="342.5" y="-931" font-family="Helvetica,sans-Serif" font-size="10.00">||}</text>
</a>
</g>
</g>
<!-- Node6&#45;&gt;Node5 -->
<g id="edge5" class="edge"><title>Node6&#45;&gt;Node5</title>
<path fill="none" stroke="orange" d="M342.5,-913.541C342.5,-901.451 342.5,-887.294 342.5,-877.044"/>
<polygon fill="orange" stroke="orange" points="339,-913.893 342.5,-923.893 346,-913.893 339,-913.893"/>
<text text-anchor="middle" x="377.5" y="-898" font-family="Helvetica,sans-Serif" font-size="10.00"> &lt; string, bool &gt;</text>
</g>
<!-- Node7 -->
<g id="node7" class="node"><title>Node7</title>
<g id="a_node7"><a xlink:title=" ">
<polygon fill="white" stroke="#666666" points="651.5,-877 583.5,-877 583.5,-847 651.5,-847 651.5,-877"/>
<text text-anchor="middle" x="617.5" y="-865" font-family="Helvetica,sans-Serif" font-size="10.00">{vector&lt; T &gt;</text>
<text text-anchor="middle" x="617.5" y="-854" font-family="Helvetica,sans-Serif" font-size="10.00">||}</text>
</a>
</g>
</g>
<!-- Node7&#45;&gt;Node4 -->
<g id="edge6" class="edge"><title>Node7&#45;&gt;Node4</title>
<path fill="none" stroke="orange" d="M573.011,-852.101C535.296,-843.128 480.894,-826.719 439.5,-800 424.687,-790.438 409.558,-777.697 397.953,-767.161"/>
<polygon fill="orange" stroke="orange" points="572.652,-855.61 583.182,-854.437 574.219,-848.787 572.652,-855.61"/>
<text text-anchor="middle" x="547" y="-821" font-family="Helvetica,sans-Serif" font-size="10.00"> &lt; pair&lt; string, bool &gt; &gt;</text>
</g>
<!-- Node14 -->
<g id="node14" class="node"><title>Node14</title>
<g id="a_node14"><a xlink:title=" ">
<polygon fill="white" stroke="#666666" points="671,-503 564,-503 564,-473 671,-473 671,-503"/>
<text text-anchor="middle" x="617.5" y="-491" font-family="Helvetica,sans-Serif" font-size="10.00">{vector&lt; std::string &gt;</text>
<text text-anchor="middle" x="617.5" y="-480" font-family="Helvetica,sans-Serif" font-size="10.00">||}</text>
</a>
</g>
</g>
<!-- Node7&#45;&gt;Node14 -->
<g id="edge16" class="edge"><title>Node7&#45;&gt;Node14</title>
<path fill="none" stroke="orange" d="M617.5,-836.647C617.5,-765.438 617.5,-559.101 617.5,-503.143"/>
<polygon fill="orange" stroke="orange" points="614,-836.871 617.5,-846.871 621,-836.871 614,-836.871"/>
<text text-anchor="middle" x="650" y="-744" font-family="Helvetica,sans-Serif" font-size="10.00"> &lt; std::string &gt;</text>
</g>
<!-- Node15 -->
<g id="node15" class="node"><title>Node15</title>
<g id="a_node15"><a xlink:title=" ">
<polygon fill="white" stroke="#666666" points="784,-761.5 701,-761.5 701,-731.5 784,-731.5 784,-761.5"/>
<text text-anchor="middle" x="742.5" y="-749.5" font-family="Helvetica,sans-Serif" font-size="10.00">{vector&lt; Real &gt;</text>
<text text-anchor="middle" x="742.5" y="-738.5" font-family="Helvetica,sans-Serif" font-size="10.00">||}</text>
</a>
</g>
</g>
<!-- Node7&#45;&gt;Node15 -->
<g id="edge19" class="edge"><title>Node7&#45;&gt;Node15</title>
<path fill="none" stroke="orange" d="M641.588,-840.011C654.911,-828.325 671.715,-813.46 686.5,-800 700.493,-787.26 716.193,-772.501 727.4,-761.882"/>
<polygon fill="orange" stroke="orange" points="639.011,-837.615 633.791,-846.835 643.621,-842.883 639.011,-837.615"/>
<text text-anchor="middle" x="687" y="-821" font-family="Helvetica,sans-Serif" font-size="10.00"> &lt; Real &gt;</text>
</g>
<!-- Node8 -->
<g id="node8" class="node"><title>Node8</title>
<g id="a_node8"><a xlink:title=" ">
<polygon fill="white" stroke="#666666" points="632,-954 603,-954 603,-924 632,-924 632,-954"/>
<text text-anchor="middle" x="617.5" y="-942" font-family="Helvetica,sans-Serif" font-size="10.00">{T</text>
<text text-anchor="middle" x="617.5" y="-931" font-family="Helvetica,sans-Serif" font-size="10.00">||}</text>
</a>
</g>
</g>
<!-- Node8&#45;&gt;Node7 -->
<g id="edge7" class="edge"><title>Node8&#45;&gt;Node7</title>
<path fill="none" stroke="#404040" d="M617.5,-923.893C617.5,-914.151 617.5,-900.901 617.5,-889.249"/>
<polygon fill="none" stroke="#404040" points="617.5,-889.044 613.5,-883.044 617.5,-877.044 621.5,-883.044 617.5,-889.044"/>
<text text-anchor="middle" x="642" y="-898" font-family="Helvetica,sans-Serif" font-size="10.00"> +elements</text>
</g>
<!-- Node9 -->
<g id="node9" class="node"><title>Node9</title>
<g id="a_node9"><a xlink:title=" ">
<polygon fill="white" stroke="#666666" points="41,-761.5 0,-761.5 0,-731.5 41,-731.5 41,-761.5"/>
<text text-anchor="middle" x="20.5" y="-749.5" font-family="Helvetica,sans-Serif" font-size="10.00">{Type</text>
<text text-anchor="middle" x="20.5" y="-738.5" font-family="Helvetica,sans-Serif" font-size="10.00">||}</text>
</a>
</g>
</g>
<!-- Node9&#45;&gt;Node2 -->
<g id="edge8" class="edge"><title>Node9&#45;&gt;Node2</title>
<path fill="none" stroke="#404040" d="M25.1844,-731.367C31.9257,-712.34 45.6562,-677.99 64.5,-653 96.1454,-611.033 139.912,-571.794 177.04,-542.226"/>
<polygon fill="none" stroke="#404040" points="177.387,-541.953 179.632,-535.1 186.821,-534.536 184.576,-541.389 177.387,-541.953"/>
<text text-anchor="middle" x="80" y="-661.5" font-family="Helvetica,sans-Serif" font-size="10.00"> &#45;type_</text>
</g>
<!-- Node10 -->
<g id="node10" class="node"><title>Node10</title>
<g id="a_node10"><a xlink:title=" ">
<polygon fill="white" stroke="#666666" points="492.5,-761.5 448.5,-761.5 448.5,-731.5 492.5,-731.5 492.5,-761.5"/>
<text text-anchor="middle" x="470.5" y="-749.5" font-family="Helvetica,sans-Serif" font-size="10.00">{string</text>
<text text-anchor="middle" x="470.5" y="-738.5" font-family="Helvetica,sans-Serif" font-size="10.00">||}</text>
</a>
</g>
</g>
<!-- Node10&#45;&gt;Node1 -->
<g id="edge13" class="edge"><title>Node10&#45;&gt;Node1</title>
<path fill="none" stroke="#404040" d="M470.329,-731.196C470.087,-710.133 469.656,-669.532 469.5,-635 468.909,-504.335 456.819,-471.05 469.5,-341 470.607,-329.648 472.072,-317.973 473.782,-306.253"/>
<polygon fill="none" stroke="#404040" points="473.837,-305.897 470.789,-299.362 475.649,-294.035 478.697,-300.57 473.837,-305.897"/>
<text text-anchor="middle" x="512" y="-485.5" font-family="Helvetica,sans-Serif" font-size="10.00"> &#45;referenceCurveID_</text>
</g>
<!-- Node10&#45;&gt;Node2 -->
<g id="edge9" class="edge"><title>Node10&#45;&gt;Node2</title>
<path fill="none" stroke="#404040" d="M465.632,-731.391C460.805,-719.459 452.271,-702.785 439.5,-693 415.705,-674.769 398.784,-692.575 374.5,-675 354.506,-660.53 336.794,-641.771 321.464,-621.747"/>
<polygon fill="none" stroke="#404040" points="321.264,-621.478 314.481,-619.032 314.129,-611.829 320.913,-614.275 321.264,-621.478"/>
<text text-anchor="middle" x="410.5" y="-667" font-family="Helvetica,sans-Serif" font-size="10.00"> &#45;conventionsID_</text>
<text text-anchor="middle" x="410.5" y="-656" font-family="Helvetica,sans-Serif" font-size="10.00">&#45;typeID_</text>
</g>
<!-- Node10&#45;&gt;Node14 -->
<g id="edge15" class="edge"><title>Node10&#45;&gt;Node14</title>
<path fill="none" stroke="#404040" d="M481.867,-731.418C498.077,-710.956 528.223,-671.458 549.5,-635 573.178,-594.428 595.064,-544.23 607.312,-514.513"/>
<polygon fill="none" stroke="#404040" points="607.426,-514.234 605.982,-507.168 611.949,-503.119 613.392,-510.184 607.426,-514.234"/>
<text text-anchor="middle" x="563" y="-661.5" font-family="Helvetica,sans-Serif" font-size="10.00"> +elements</text>
</g>
<!-- Node11 -->
<g id="node11" class="node"><title>Node11</title>
<g id="a_node11"><a xlink:title=" ">
<polygon fill="white" stroke="#666666" points="521.5,-877 411.5,-877 411.5,-847 521.5,-847 521.5,-877"/>
<text text-anchor="middle" x="466.5" y="-865" font-family="Helvetica,sans-Serif" font-size="10.00">{basic_string&lt; Char &gt;</text>
<text text-anchor="middle" x="466.5" y="-854" font-family="Helvetica,sans-Serif" font-size="10.00">||}</text>
</a>
</g>
</g>
<!-- Node11&#45;&gt;Node10 -->
<g id="edge10" class="edge"><title>Node11&#45;&gt;Node10</title>
<path fill="none" stroke="#63b8ff" d="M467.368,-836.37C468.172,-813.571 469.338,-780.46 469.998,-761.758"/>
<polygon fill="none" stroke="#63b8ff" points="463.861,-836.508 467.007,-846.625 470.857,-836.755 463.861,-836.508"/>
</g>
<!-- Node12 -->
<g id="node12" class="node"><title>Node12</title>
<g id="a_node12"><a xlink:title=" ">
<polygon fill="white" stroke="#666666" points="109.5,-761.5 59.5,-761.5 59.5,-731.5 109.5,-731.5 109.5,-761.5"/>
<text text-anchor="middle" x="84.5" y="-749.5" font-family="Helvetica,sans-Serif" font-size="10.00">{Choice</text>
<text text-anchor="middle" x="84.5" y="-738.5" font-family="Helvetica,sans-Serif" font-size="10.00">||}</text>
</a>
</g>
</g>
<!-- Node12&#45;&gt;Node2 -->
<g id="edge11" class="edge"><title>Node12&#45;&gt;Node2</title>
<path fill="none" stroke="#404040" d="M86.132,-731.298C88.7396,-712.49 94.9965,-678.702 108.5,-653 126.519,-618.702 152.986,-585.487 178.202,-558.022"/>
<polygon fill="none" stroke="#404040" points="178.5,-557.704 179.673,-550.589 186.692,-548.935 185.519,-556.05 178.5,-557.704"/>
<text text-anchor="middle" x="139.5" y="-661.5" font-family="Helvetica,sans-Serif" font-size="10.00"> &#45;pillarChoice_</text>
</g>
<!-- Node13 -->
<g id="node13" class="node"><title>Node13</title>
<g id="a_node13"><a xlink:title=" ">
<polygon fill="white" stroke="#666666" points="177,-761.5 138,-761.5 138,-731.5 177,-731.5 177,-761.5"/>
<text text-anchor="middle" x="157.5" y="-749.5" font-family="Helvetica,sans-Serif" font-size="10.00">{Size</text>
<text text-anchor="middle" x="157.5" y="-738.5" font-family="Helvetica,sans-Serif" font-size="10.00">||}</text>
</a>
</g>
</g>
<!-- Node13&#45;&gt;Node2 -->
<g id="edge12" class="edge"><title>Node13&#45;&gt;Node2</title>
<path fill="none" stroke="#404040" d="M160.315,-731.194C164.094,-712.843 171.398,-680.143 180.5,-653 181.257,-650.744 182.031,-648.475 182.821,-646.197"/>
<polygon fill="none" stroke="#404040" points="182.876,-646.044 181.118,-639.05 186.897,-634.738 188.655,-641.731 182.876,-646.044"/>
<text text-anchor="middle" x="213.5" y="-667" font-family="Helvetica,sans-Serif" font-size="10.00"> &#45;minDistance_</text>
<text text-anchor="middle" x="213.5" y="-656" font-family="Helvetica,sans-Serif" font-size="10.00">&#45;priority_</text>
</g>
<!-- Node14&#45;&gt;Node1 -->
<g id="edge14" class="edge"><title>Node14&#45;&gt;Node1</title>
<path fill="none" stroke="#404040" d="M612.913,-472.865C603.42,-443.606 580.662,-373.471 558.712,-305.827"/>
<polygon fill="none" stroke="#404040" points="558.617,-305.535 552.961,-301.062 554.914,-294.12 560.57,-298.593 558.617,-305.535"/>
<text text-anchor="middle" x="602" y="-315" font-family="Helvetica,sans-Serif" font-size="10.00"> &#45;defaultCurveIDs_</text>
</g>
<!-- Node15&#45;&gt;Node1 -->
<g id="edge17" class="edge"><title>Node15&#45;&gt;Node1</title>
<path fill="none" stroke="#404040" d="M743.155,-731.409C745.089,-677.688 746.976,-481.674 680.5,-341 659.234,-295.997 624.046,-253.852 590.938,-220.496"/>
<polygon fill="none" stroke="#404040" points="590.651,-220.212 583.573,-218.833 582.123,-211.769 589.201,-213.148 590.651,-220.212"/>
<text text-anchor="middle" x="764" y="-485.5" font-family="Helvetica,sans-Serif" font-size="10.00"> &#45;weights_</text>
</g>
<!-- Node16 -->
<g id="node16" class="node"><title>Node16</title>
<g id="a_node16"><a xlink:title=" ">
<polygon fill="white" stroke="#666666" points="762,-877 723,-877 723,-847 762,-847 762,-877"/>
<text text-anchor="middle" x="742.5" y="-865" font-family="Helvetica,sans-Serif" font-size="10.00">{Real</text>
<text text-anchor="middle" x="742.5" y="-854" font-family="Helvetica,sans-Serif" font-size="10.00">||}</text>
</a>
</g>
</g>
<!-- Node16&#45;&gt;Node15 -->
<g id="edge18" class="edge"><title>Node16&#45;&gt;Node15</title>
<path fill="none" stroke="#404040" d="M742.5,-846.625C742.5,-828.375 742.5,-796.54 742.5,-773.873"/>
<polygon fill="none" stroke="#404040" points="742.5,-773.758 738.5,-767.758 742.5,-761.758 746.5,-767.758 742.5,-773.758"/>
<text text-anchor="middle" x="767" y="-821" font-family="Helvetica,sans-Serif" font-size="10.00"> +elements</text>
</g>
</g>
</svg>
        <g id="navigator" transform="translate(0 0)" fill="#404254">
                <rect fill="#f2f5e9" fill-opacity="0.5" stroke="#606060" stroke-width=".5" x="0" y="0" width="60" height="60"/>
                <use id="zoomplus" xlink:href="#zoomPlus" x="17" y="9" onmousedown="handleZoom(evt,'in')"/>
                <use id="zoomminus" xlink:href="#zoomMin" x="42" y="9" onmousedown="handleZoom(evt,'out')"/>
                <use id="reset" xlink:href="#resetDef" x="30" y="36" onmousedown="handleReset()"/>
                <g id="arrowUp" xlink:href="#dirArrow" transform="translate(30 24)" onmousedown="handlePan(0,-1)">
                  <use xlink:href="#rim" fill="#404040">
                        <set attributeName="fill" to="#808080" begin="arrowUp.mouseover" end="arrowUp.mouseout"/>
                  </use>
                  <path fill="none" stroke="white" stroke-width="1.5" d="M0,-3.0v7 M-2.5,-0.5L0,-3.0L2.5,-0.5"/>
                </g>
                <g id="arrowRight" xlink:href="#dirArrow" transform="rotate(90) translate(36 -43)" onmousedown="handlePan(1,0)">
                  <use xlink:href="#rim" fill="#404040">
                        <set attributeName="fill" to="#808080" begin="arrowRight.mouseover" end="arrowRight.mouseout"/>
                  </use>
                  <path fill="none" stroke="white" stroke-width="1.5" d="M0,-3.0v7 M-2.5,-0.5L0,-3.0L2.5,-0.5"/>
                </g>
                <g id="arrowDown" xlink:href="#dirArrow" transform="rotate(180) translate(-30 -48)" onmousedown="handlePan(0,1)">
                  <use xlink:href="#rim" fill="#404040">
                        <set attributeName="fill" to="#808080" begin="arrowDown.mouseover" end="arrowDown.mouseout"/>
                  </use>
                  <path fill="none" stroke="white" stroke-width="1.5" d="M0,-3.0v7 M-2.5,-0.5L0,-3.0L2.5,-0.5"/>
                </g>
                <g id="arrowLeft" xlink:href="#dirArrow" transform="rotate(270) translate(-36 17)" onmousedown="handlePan(-1,0)">
                  <use xlink:href="#rim" fill="#404040">
                        <set attributeName="fill" to="#808080" begin="arrowLeft.mouseover" end="arrowLeft.mouseout"/>
                  </use>
                  <path fill="none" stroke="white" stroke-width="1.5" d="M0,-3.0v7 M-2.5,-0.5L0,-3.0L2.5,-0.5"/>
                </g>
        </g>
        <svg viewBox="0 0 15 15" width="100%" height="30px" preserveAspectRatio="xMaxYMin meet">
         <g id="arrow_out" transform="scale(0.3 0.3)">
          <a xlink:href="classore_1_1data_1_1_yield_plus_default_yield_curve_segment__coll__graph_org.svg" target="_base">
           <rect id="button" ry="5" rx="5" y="6" x="6" height="38" width="38"
                fill="#f2f5e9" fill-opacity="0.5" stroke="#606060" stroke-width="1.0"/>
           <path id="arrow"
             d="M 11.500037,31.436501 C 11.940474,20.09759 22.043105,11.32322 32.158766,21.979434 L 37.068811,17.246167 C 37.068811,17.246167 37.088388,32 37.088388,32 L 22.160133,31.978069 C 22.160133,31.978069 26.997745,27.140456 26.997745,27.140456 C 18.528582,18.264221 13.291696,25.230495 11.500037,31.436501 z"
             style="fill:#404040;"/>
          </a>
         </g>
        </svg>
</svg>
