<?xml version="1.0" encoding="UTF-8" standalone="no"?>
<!DOCTYPE svg PUBLIC "-//W3C//DTD SVG 1.1//EN"
 "http://www.w3.org/Graphics/SVG/1.1/DTD/svg11.dtd">
<!-- Generated by graphviz version 2.38.0 (20140413.2041)
 -->
<!-- Title: InflationCurveSpec Pages: 1 -->
<svg width="188pt" height="392pt"
 viewBox="0.00 0.00 188.00 392.00" xmlns="http://www.w3.org/2000/svg" xmlns:xlink="http://www.w3.org/1999/xlink">
<g id="graph0" class="graph" transform="scale(1 1) rotate(0) translate(4 388)">
<title>InflationCurveSpec</title>
<!-- Node1 -->
<g id="node1" class="node"><title>Node1</title>
<g id="a_node1"><a xlink:title="Inflation curve description.">
<polygon fill="#999999" stroke="#666666" points="127,-85 11,-85 11,-0 127,-0 127,-85"/>
<text text-anchor="middle" x="69" y="-73" font-family="Helvetica,sans-Serif" font-size="10.00">{InflationCurveSpec</text>
<text text-anchor="start" x="19" y="-62" font-family="Helvetica,sans-Serif" font-size="10.00">||+ InflationCurveSpec()</text>
<text text-anchor="start" x="19" y="-51" font-family="Helvetica,sans-Serif" font-size="10.00">+ InflationCurveSpec()</text>
<text text-anchor="start" x="19" y="-40" font-family="Helvetica,sans-Serif" font-size="10.00">+ baseType()</text>
<text text-anchor="start" x="19" y="-29" font-family="Helvetica,sans-Serif" font-size="10.00">+ index()</text>
<text text-anchor="start" x="19" y="-18" font-family="Helvetica,sans-Serif" font-size="10.00">+ subName()</text>
<text text-anchor="middle" x="69" y="-7" font-family="Helvetica,sans-Serif" font-size="10.00">}</text>
</a>
</g>
</g>
<!-- Node2 -->
<g id="node2" class="node"><title>Node2</title>
<g id="a_node2"><a xlink:href="classore_1_1data_1_1_curve_spec.html" target="_top" xlink:title="Curve Specification.">
<polygon fill="white" stroke="#666666" points="180,-240 92,-240 92,-122 180,-122 180,-240"/>
<text text-anchor="middle" x="136" y="-228" font-family="Helvetica,sans-Serif" font-size="10.00">{CurveSpec</text>
<text text-anchor="start" x="100" y="-217" font-family="Helvetica,sans-Serif" font-size="10.00">||+ CurveSpec()</text>
<text text-anchor="start" x="100" y="-206" font-family="Helvetica,sans-Serif" font-size="10.00">+ CurveSpec()</text>
<text text-anchor="start" x="100" y="-195" font-family="Helvetica,sans-Serif" font-size="10.00">+ ~CurveSpec()</text>
<text text-anchor="start" x="100" y="-184" font-family="Helvetica,sans-Serif" font-size="10.00">* baseType()</text>
<text text-anchor="start" x="100" y="-173" font-family="Helvetica,sans-Serif" font-size="10.00">* subName()</text>
<text text-anchor="start" x="100" y="-162" font-family="Helvetica,sans-Serif" font-size="10.00">* name()</text>
<text text-anchor="start" x="100" y="-151" font-family="Helvetica,sans-Serif" font-size="10.00">* curveConfigID()</text>
<text text-anchor="start" x="100" y="-140" font-family="Helvetica,sans-Serif" font-size="10.00">* baseName()</text>
<text text-anchor="middle" x="136" y="-129" font-family="Helvetica,sans-Serif" font-size="10.00">}</text>
</a>
</g>
</g>
<!-- Node2&#45;&gt;Node1 -->
<g id="edge1" class="edge"><title>Node2&#45;&gt;Node1</title>
<path fill="none" stroke="#63b8ff" d="M102.972,-112.711C98.346,-103.287 93.7083,-93.8385 89.4114,-85.0844"/>
<polygon fill="none" stroke="#63b8ff" points="99.8434,-114.281 107.392,-121.716 106.127,-111.197 99.8434,-114.281"/>
</g>
<!-- Node3 -->
<g id="node3" class="node"><title>Node3</title>
<g id="a_node3"><a xlink:title=" ">
<polygon fill="white" stroke="#666666" points="77,-317 33,-317 33,-287 77,-287 77,-317"/>
<text text-anchor="middle" x="55" y="-305" font-family="Helvetica,sans-Serif" font-size="10.00">{string</text>
<text text-anchor="middle" x="55" y="-294" font-family="Helvetica,sans-Serif" font-size="10.00">||}</text>
</a>
</g>
</g>
<!-- Node3&#45;&gt;Node1 -->
<g id="edge4" class="edge"><title>Node3&#45;&gt;Node1</title>
<path fill="none" stroke="#404040" d="M52.9309,-286.987C51.2194,-274.648 48.9251,-256.176 48,-240 45.0056,-187.641 41.1651,-173.997 48,-122 49.0872,-113.729 50.7926,-105.09 52.7726,-96.6956"/>
<polygon fill="none" stroke="#404040" points="52.7748,-96.6867 50.3691,-89.8887 55.7189,-85.0534 58.1246,-91.8514 52.7748,-96.6867"/>
<text text-anchor="middle" x="65.5" y="-178.5" font-family="Helvetica,sans-Serif" font-size="10.00"> &#45;index_</text>
</g>
<!-- Node3&#45;&gt;Node2 -->
<g id="edge2" class="edge"><title>Node3&#45;&gt;Node2</title>
<path fill="none" stroke="#404040" d="M64.6098,-286.882C71.0507,-277.419 80.0577,-264.187 89.5098,-250.3"/>
<polygon fill="none" stroke="#404040" points="89.6885,-250.038 89.758,-242.827 96.4408,-240.118 96.3713,-247.329 89.6885,-250.038"/>
<text text-anchor="middle" x="118" y="-261" font-family="Helvetica,sans-Serif" font-size="10.00"> &#45;curveConfigID_</text>
</g>
<!-- Node4 -->
<g id="node4" class="node"><title>Node4</title>
<g id="a_node4"><a xlink:title=" ">
<polygon fill="white" stroke="#666666" points="110,-384 0,-384 0,-354 110,-354 110,-384"/>
<text text-anchor="middle" x="55" y="-372" font-family="Helvetica,sans-Serif" font-size="10.00">{basic_string&lt; Char &gt;</text>
<text text-anchor="middle" x="55" y="-361" font-family="Helvetica,sans-Serif" font-size="10.00">||}</text>
</a>
</g>
</g>
<!-- Node4&#45;&gt;Node3 -->
<g id="edge3" class="edge"><title>Node4&#45;&gt;Node3</title>
<path fill="none" stroke="#63b8ff" d="M55,-343.608C55,-334.654 55,-324.823 55,-317.077"/>
<polygon fill="none" stroke="#63b8ff" points="51.5001,-343.896 55,-353.896 58.5001,-343.896 51.5001,-343.896"/>
</g>
</g>
</svg>
