<?xml version="1.0" encoding="UTF-8" standalone="no"?>
<!DOCTYPE svg PUBLIC "-//W3C//DTD SVG 1.1//EN"
 "http://www.w3.org/Graphics/SVG/1.1/DTD/svg11.dtd">
<!-- Generated by graphviz version 2.38.0 (20140413.2041)
 -->
<!-- Title: fromString Pages: 1 -->
<svg width="233pt" height="101pt"
 viewBox="0.00 0.00 233.00 101.00" xmlns="http://www.w3.org/2000/svg" xmlns:xlink="http://www.w3.org/1999/xlink">
<g id="graph0" class="graph" transform="scale(1 1) rotate(0) translate(4 97)">
<title>fromString</title>
<!-- Node1 -->
<g id="node1" class="node"><title>Node1</title>
<g id="a_node1"><a xlink:title=" ">
<polygon fill="#999999" stroke="#666666" points="61,-56 3.55271e-015,-56 3.55271e-015,-37 61,-37 61,-56"/>
<text text-anchor="middle" x="30.5" y="-44" font-family="Helvetica,sans-Serif" font-size="10.00">fromString</text>
</a>
</g>
</g>
<!-- Node2 -->
<g id="node2" class="node"><title>Node2</title>
<g id="a_node2"><a xlink:href="classore_1_1data_1_1_atm_strike.html#a42d586c61708cc2c925e8ae813ef523b" target="_top" xlink:title="Perform validation.">
<polygon fill="white" stroke="#666666" points="182.5,-93 139.5,-93 139.5,-74 182.5,-74 182.5,-93"/>
<text text-anchor="middle" x="161" y="-81" font-family="Helvetica,sans-Serif" font-size="10.00">check</text>
</a>
</g>
</g>
<!-- Node1&#45;&gt;Node2 -->
<g id="edge1" class="edge"><title>Node1&#45;&gt;Node2</title>
<path fill="none" stroke="#63b8ff" d="M61.1644,-55.1323C72.3884,-58.3913 85.2805,-62.126 97,-65.5 107.576,-68.5447 119.156,-71.859 129.471,-74.8043"/>
<polygon fill="#63b8ff" stroke="#63b8ff" points="128.704,-78.2249 139.28,-77.6028 130.624,-71.4935 128.704,-78.2249"/>
</g>
<!-- Node3 -->
<g id="node3" class="node"><title>Node3</title>
<g id="a_node3"><a xlink:href="group__utilities.html#gac646d7e5cbc09cb6e4f094729a07558b" target="_top" xlink:title="Convert text to QuantLib::DeltaVolQuote::AtmType.">
<polygon fill="white" stroke="#666666" points="223,-56 99,-56 99,-37 223,-37 223,-56"/>
<text text-anchor="middle" x="161" y="-44" font-family="Helvetica,sans-Serif" font-size="10.00">ore::data::parseAtmType</text>
</a>
</g>
</g>
<!-- Node1&#45;&gt;Node3 -->
<g id="edge2" class="edge"><title>Node1&#45;&gt;Node3</title>
<path fill="none" stroke="#63b8ff" d="M61.3035,-46.5C69.6675,-46.5 79.1373,-46.5 88.8195,-46.5"/>
<polygon fill="#63b8ff" stroke="#63b8ff" points="88.9488,-50.0001 98.9488,-46.5 88.9487,-43.0001 88.9488,-50.0001"/>
</g>
<!-- Node4 -->
<g id="node4" class="node"><title>Node4</title>
<g id="a_node4"><a xlink:href="group__utilities.html#gafea498a41f014bd2031e10d3df7891a1" target="_top" xlink:title="Convert text to QuantLib::DeltaVolQuote::DeltaType.">
<polygon fill="white" stroke="#666666" points="225,-19 97,-19 97,-0 225,-0 225,-19"/>
<text text-anchor="middle" x="161" y="-7" font-family="Helvetica,sans-Serif" font-size="10.00">ore::data::parseDeltaType</text>
</a>
</g>
</g>
<!-- Node1&#45;&gt;Node4 -->
<g id="edge3" class="edge"><title>Node1&#45;&gt;Node4</title>
<path fill="none" stroke="#63b8ff" d="M61.3035,-37.9185C77.8184,-33.1632 98.6443,-27.1666 116.904,-21.9089"/>
<polygon fill="#63b8ff" stroke="#63b8ff" points="118.1,-25.2069 126.741,-19.0765 116.163,-18.4802 118.1,-25.2069"/>
</g>
</g>
</svg>
