<?xml version="1.0" encoding="UTF-8" standalone="no"?>
<!DOCTYPE svg PUBLIC "-//W3C//DTD SVG 1.1//EN"
 "http://www.w3.org/Graphics/SVG/1.1/DTD/svg11.dtd">
<!-- Generated by graphviz version 2.38.0 (20140413.2041)
 -->
<!-- Title: fromXML Pages: 1 -->
<svg width="497pt" height="235pt"
 viewBox="0.00 0.00 497.00 234.50" xmlns="http://www.w3.org/2000/svg" xmlns:xlink="http://www.w3.org/1999/xlink">
<g id="graph0" class="graph" transform="scale(1 1) rotate(0) translate(4 230.5)">
<title>fromXML</title>
<!-- Node1 -->
<g id="node1" class="node"><title>Node1</title>
<g id="a_node1"><a xlink:title=" ">
<polygon fill="#999999" stroke="#666666" points="54,-135 0,-135 0,-116 54,-116 54,-135"/>
<text text-anchor="middle" x="27" y="-123" font-family="Helvetica,sans-Serif" font-size="10.00">fromXML</text>
</a>
</g>
</g>
<!-- Node2 -->
<g id="node2" class="node"><title>Node2</title>
<g id="a_node2"><a xlink:href="classore_1_1data_1_1_x_m_l_utils.html#a37c092916f4bdf10d4fbf6bb9e474db7" target="_top" xlink:title=" ">
<polygon fill="white" stroke="#666666" points="196.5,-226.5 97.5,-226.5 97.5,-196.5 196.5,-196.5 196.5,-226.5"/>
<text text-anchor="start" x="105.5" y="-214.5" font-family="Helvetica,sans-Serif" font-size="10.00">ore::data::XMLUtils</text>
<text text-anchor="middle" x="147" y="-203.5" font-family="Helvetica,sans-Serif" font-size="10.00">::checkNode</text>
</a>
</g>
</g>
<!-- Node1&#45;&gt;Node2 -->
<g id="edge1" class="edge"><title>Node1&#45;&gt;Node2</title>
<path fill="none" stroke="#63b8ff" d="M36.99,-135.226C48.4906,-147.306 69.3956,-168.08 90,-182.5 94.485,-185.639 99.3543,-188.658 104.287,-191.484"/>
<polygon fill="#63b8ff" stroke="#63b8ff" points="102.712,-194.612 113.164,-196.347 106.075,-188.473 102.712,-194.612"/>
</g>
<!-- Node3 -->
<g id="node3" class="node"><title>Node3</title>
<g id="a_node3"><a xlink:href="classore_1_1data_1_1_x_m_l_utils.html#a5a1307174ddefdb3aad6e3bd8cc63b27" target="_top" xlink:title=" ">
<polygon fill="white" stroke="#666666" points="346.5,-195.5 247.5,-195.5 247.5,-165.5 346.5,-165.5 346.5,-195.5"/>
<text text-anchor="start" x="255.5" y="-183.5" font-family="Helvetica,sans-Serif" font-size="10.00">ore::data::XMLUtils</text>
<text text-anchor="middle" x="297" y="-172.5" font-family="Helvetica,sans-Serif" font-size="10.00">::getChildValue</text>
</a>
</g>
</g>
<!-- Node1&#45;&gt;Node3 -->
<g id="edge2" class="edge"><title>Node1&#45;&gt;Node3</title>
<path fill="none" stroke="#63b8ff" d="M49.1347,-135.015C60.946,-139.991 76.0548,-145.8 90,-149.5 138.764,-162.438 195.552,-170.481 237.139,-175.122"/>
<polygon fill="#63b8ff" stroke="#63b8ff" points="236.784,-178.604 247.103,-176.201 237.538,-171.644 236.784,-178.604"/>
</g>
<!-- Node5 -->
<g id="node5" class="node"><title>Node5</title>
<g id="a_node5"><a xlink:href="classore_1_1data_1_1_x_m_l_utils.html#a5dc9d9e82028f69de452d27da6b43db0" target="_top" xlink:title=" ">
<polygon fill="white" stroke="#666666" points="204,-140.5 90,-140.5 90,-110.5 204,-110.5 204,-140.5"/>
<text text-anchor="start" x="98" y="-128.5" font-family="Helvetica,sans-Serif" font-size="10.00">ore::data::XMLUtils</text>
<text text-anchor="middle" x="147" y="-117.5" font-family="Helvetica,sans-Serif" font-size="10.00">::getChildValueAsBool</text>
</a>
</g>
</g>
<!-- Node1&#45;&gt;Node5 -->
<g id="edge4" class="edge"><title>Node1&#45;&gt;Node5</title>
<path fill="none" stroke="#63b8ff" d="M54.188,-125.5C61.8838,-125.5 70.6717,-125.5 79.691,-125.5"/>
<polygon fill="#63b8ff" stroke="#63b8ff" points="79.9266,-129 89.9266,-125.5 79.9266,-122 79.9266,-129"/>
</g>
<!-- Node7 -->
<g id="node7" class="node"><title>Node7</title>
<g id="a_node7"><a xlink:href="group__utilities.html#ga59b5fdda574d90facae95dec2d13040d" target="_top" xlink:title="Convert std::string to QuantLib::Date.">
<polygon fill="white" stroke="#666666" points="199.5,-74 94.5,-74 94.5,-55 199.5,-55 199.5,-74"/>
<text text-anchor="middle" x="147" y="-62" font-family="Helvetica,sans-Serif" font-size="10.00">ore::data::parseDate</text>
</a>
</g>
</g>
<!-- Node1&#45;&gt;Node7 -->
<g id="edge8" class="edge"><title>Node1&#45;&gt;Node7</title>
<path fill="none" stroke="#63b8ff" d="M46.4375,-115.969C65.7213,-106 96.2099,-90.2389 118.371,-78.7825"/>
<polygon fill="#63b8ff" stroke="#63b8ff" points="120.027,-81.867 127.303,-74.1656 116.812,-75.6487 120.027,-81.867"/>
</g>
<!-- Node10 -->
<g id="node10" class="node"><title>Node10</title>
<g id="a_node10"><a xlink:href="namespaceore_1_1data.html#a86651dfeb5c18ee891f7a4734d8cf455" target="_top" xlink:title=" ">
<polygon fill="white" stroke="#666666" points="196,-19 98,-19 98,-0 196,-0 196,-19"/>
<text text-anchor="middle" x="147" y="-7" font-family="Helvetica,sans-Serif" font-size="10.00">ore::data::to_string</text>
</a>
</g>
</g>
<!-- Node1&#45;&gt;Node10 -->
<g id="edge13" class="edge"><title>Node1&#45;&gt;Node10</title>
<path fill="none" stroke="#63b8ff" d="M33.965,-115.778C44.0885,-99.8021 65.8956,-67.572 90,-45.5 98.656,-37.5739 109.256,-30.2714 118.896,-24.345"/>
<polygon fill="#63b8ff" stroke="#63b8ff" points="120.924,-27.2121 127.75,-19.1091 117.361,-21.1869 120.924,-27.2121"/>
</g>
<!-- Node4 -->
<g id="node4" class="node"><title>Node4</title>
<g id="a_node4"><a xlink:href="classore_1_1data_1_1_x_m_l_utils.html#a6704501b110fa9d056096df3e05f0df2" target="_top" xlink:title="Get a node&#39;s value.">
<polygon fill="white" stroke="#666666" points="489,-195.5 390,-195.5 390,-165.5 489,-165.5 489,-195.5"/>
<text text-anchor="start" x="398" y="-183.5" font-family="Helvetica,sans-Serif" font-size="10.00">ore::data::XMLUtils</text>
<text text-anchor="middle" x="439.5" y="-172.5" font-family="Helvetica,sans-Serif" font-size="10.00">::getNodeValue</text>
</a>
</g>
</g>
<!-- Node3&#45;&gt;Node4 -->
<g id="edge3" class="edge"><title>Node3&#45;&gt;Node4</title>
<path fill="none" stroke="#63b8ff" d="M346.746,-180.5C357.317,-180.5 368.607,-180.5 379.524,-180.5"/>
<polygon fill="#63b8ff" stroke="#63b8ff" points="379.84,-184 389.84,-180.5 379.84,-177 379.84,-184"/>
</g>
<!-- Node5&#45;&gt;Node3 -->
<g id="edge5" class="edge"><title>Node5&#45;&gt;Node3</title>
<path fill="none" stroke="#63b8ff" d="M188.442,-140.529C206.225,-147.138 227.288,-154.965 246.041,-161.934"/>
<polygon fill="#63b8ff" stroke="#63b8ff" points="245.014,-165.286 255.607,-165.489 247.453,-158.725 245.014,-165.286"/>
</g>
<!-- Node6 -->
<g id="node6" class="node"><title>Node6</title>
<g id="a_node6"><a xlink:href="group__utilities.html#ga94621f11193864fa1338296232dc5be9" target="_top" xlink:title="Convert text to bool.">
<polygon fill="white" stroke="#666666" points="349,-129 245,-129 245,-110 349,-110 349,-129"/>
<text text-anchor="middle" x="297" y="-117" font-family="Helvetica,sans-Serif" font-size="10.00">ore::data::parseBool</text>
</a>
</g>
</g>
<!-- Node5&#45;&gt;Node6 -->
<g id="edge6" class="edge"><title>Node5&#45;&gt;Node6</title>
<path fill="none" stroke="#63b8ff" d="M204.375,-123.215C214.196,-122.816 224.458,-122.4 234.411,-121.997"/>
<polygon fill="#63b8ff" stroke="#63b8ff" points="234.791,-125.484 244.641,-121.582 234.507,-118.49 234.791,-125.484"/>
</g>
<!-- Node6&#45;&gt;Node6 -->
<g id="edge7" class="edge"><title>Node6&#45;&gt;Node6</title>
<path fill="none" stroke="#63b8ff" d="M275.114,-129.083C264.466,-137.734 271.762,-147 297,-147 313.168,-147 321.973,-143.197 323.414,-138.189"/>
<polygon fill="#63b8ff" stroke="#63b8ff" points="326.472,-136.479 318.886,-129.083 320.204,-139.595 326.472,-136.479"/>
</g>
<!-- Node7&#45;&gt;Node7 -->
<g id="edge9" class="edge"><title>Node7&#45;&gt;Node7</title>
<path fill="none" stroke="#63b8ff" d="M128.505,-74.0828C119.507,-82.7337 125.672,-92 147,-92 160.33,-92 167.737,-88.3804 169.221,-83.5536"/>
<polygon fill="#63b8ff" stroke="#63b8ff" points="172.413,-82.1074 165.495,-74.0828 165.899,-84.67 172.413,-82.1074"/>
</g>
<!-- Node8 -->
<g id="node8" class="node"><title>Node8</title>
<g id="a_node8"><a xlink:href="group__utilities.html#gaecd67eda4fb5f4859bb8f6d383547721" target="_top" xlink:title="Convert text to QuantLib::Integer.">
<polygon fill="white" stroke="#666666" points="354,-74 240,-74 240,-55 354,-55 354,-74"/>
<text text-anchor="middle" x="297" y="-62" font-family="Helvetica,sans-Serif" font-size="10.00">ore::data::parseInteger</text>
</a>
</g>
</g>
<!-- Node7&#45;&gt;Node8 -->
<g id="edge10" class="edge"><title>Node7&#45;&gt;Node8</title>
<path fill="none" stroke="#63b8ff" d="M199.763,-64.5C209.516,-64.5 219.837,-64.5 229.957,-64.5"/>
<polygon fill="#63b8ff" stroke="#63b8ff" points="229.982,-68.0001 239.982,-64.5 229.982,-61.0001 229.982,-68.0001"/>
</g>
<!-- Node9 -->
<g id="node9" class="node"><title>Node9</title>
<g id="a_node9"><a xlink:href="namespaceore_1_1data.html#a777e216dee6069b548bb87da7152699e" target="_top" xlink:title=" ">
<polygon fill="white" stroke="#666666" points="336.5,-37 257.5,-37 257.5,-18 336.5,-18 336.5,-37"/>
<text text-anchor="middle" x="297" y="-25" font-family="Helvetica,sans-Serif" font-size="10.00">ore::data::size</text>
</a>
</g>
</g>
<!-- Node7&#45;&gt;Node9 -->
<g id="edge12" class="edge"><title>Node7&#45;&gt;Node9</title>
<path fill="none" stroke="#63b8ff" d="M186.114,-54.9716C204.944,-50.2641 227.864,-44.534 247.89,-39.5275"/>
<polygon fill="#63b8ff" stroke="#63b8ff" points="248.906,-42.8813 257.759,-37.0604 247.208,-36.0903 248.906,-42.8813"/>
</g>
<!-- Node8&#45;&gt;Node8 -->
<g id="edge11" class="edge"><title>Node8&#45;&gt;Node8</title>
<path fill="none" stroke="#63b8ff" d="M275.114,-74.0828C264.466,-82.7337 271.762,-92 297,-92 313.168,-92 321.973,-88.1971 323.414,-83.1894"/>
<polygon fill="#63b8ff" stroke="#63b8ff" points="326.472,-81.4792 318.886,-74.0828 320.204,-84.5954 326.472,-81.4792"/>
</g>
<!-- Node10&#45;&gt;Node10 -->
<g id="edge14" class="edge"><title>Node10&#45;&gt;Node10</title>
<path fill="none" stroke="#63b8ff" d="M128.505,-19.0828C119.507,-27.7337 125.672,-37 147,-37 160.33,-37 167.737,-33.3804 169.221,-28.5536"/>
<polygon fill="#63b8ff" stroke="#63b8ff" points="172.413,-27.1074 165.495,-19.0828 165.899,-29.67 172.413,-27.1074"/>
</g>
</g>
</svg>
