<?xml version="1.0" encoding="UTF-8" standalone="no"?>
<!DOCTYPE svg PUBLIC "-//W3C//DTD SVG 1.1//EN"
 "http://www.w3.org/Graphics/SVG/1.1/DTD/svg11.dtd">
<!-- Generated by graphviz version 2.38.0 (20140413.2041)
 -->
<!-- Title: MarketDatum Pages: 1 -->
<svg width="421pt" height="324pt"
 viewBox="0.00 0.00 421.00 324.00" xmlns="http://www.w3.org/2000/svg" xmlns:xlink="http://www.w3.org/1999/xlink">
<g id="graph0" class="graph" transform="scale(1 1) rotate(0) translate(4 320)">
<title>MarketDatum</title>
<!-- Node1 -->
<g id="node1" class="node"><title>Node1</title>
<g id="a_node1"><a xlink:title="Base market data class.">
<polygon fill="#999999" stroke="#666666" points="259.5,-162 154.5,-162 154.5,-0 259.5,-0 259.5,-162"/>
<text text-anchor="middle" x="207" y="-150" font-family="Helvetica,sans-Serif" font-size="10.00">{MarketDatum</text>
<text text-anchor="start" x="162.5" y="-139" font-family="Helvetica,sans-Serif" font-size="10.00">||+ MarketDatum()</text>
<text text-anchor="start" x="162.5" y="-128" font-family="Helvetica,sans-Serif" font-size="10.00">+ MarketDatum()</text>
<text text-anchor="start" x="162.5" y="-117" font-family="Helvetica,sans-Serif" font-size="10.00">+ ~MarketDatum()</text>
<text text-anchor="start" x="162.5" y="-106" font-family="Helvetica,sans-Serif" font-size="10.00">+ clone()</text>
<text text-anchor="start" x="162.5" y="-95" font-family="Helvetica,sans-Serif" font-size="10.00">* boost::serialization</text>
<text text-anchor="start" x="162.5" y="-84" font-family="Helvetica,sans-Serif" font-size="10.00">::access</text>
<text text-anchor="start" x="162.5" y="-73" font-family="Helvetica,sans-Serif" font-size="10.00">* name()</text>
<text text-anchor="start" x="162.5" y="-62" font-family="Helvetica,sans-Serif" font-size="10.00">* quote()</text>
<text text-anchor="start" x="162.5" y="-51" font-family="Helvetica,sans-Serif" font-size="10.00">* asofDate()</text>
<text text-anchor="start" x="162.5" y="-40" font-family="Helvetica,sans-Serif" font-size="10.00">* instrumentType()</text>
<text text-anchor="start" x="162.5" y="-29" font-family="Helvetica,sans-Serif" font-size="10.00">* quoteType()</text>
<text text-anchor="start" x="162.5" y="-18" font-family="Helvetica,sans-Serif" font-size="10.00">* serialize()</text>
<text text-anchor="middle" x="207" y="-7" font-family="Helvetica,sans-Serif" font-size="10.00">}</text>
</a>
</g>
</g>
<!-- Node2 -->
<g id="node2" class="node"><title>Node2</title>
<g id="a_node2"><a xlink:title=" ">
<polygon fill="white" stroke="#666666" points="94,-239 -7.10543e-015,-239 -7.10543e-015,-209 94,-209 94,-239"/>
<text text-anchor="middle" x="47" y="-227" font-family="Helvetica,sans-Serif" font-size="10.00">{Handle&lt; Quote &gt;</text>
<text text-anchor="middle" x="47" y="-216" font-family="Helvetica,sans-Serif" font-size="10.00">||}</text>
</a>
</g>
</g>
<!-- Node2&#45;&gt;Node1 -->
<g id="edge1" class="edge"><title>Node2&#45;&gt;Node1</title>
<path fill="none" stroke="#404040" d="M62.9583,-208.62C72.2777,-200.243 84.2777,-189.493 95,-180 111.171,-165.683 128.723,-150.266 145.031,-135.995"/>
<polygon fill="none" stroke="#404040" points="145.435,-135.641 147.319,-128.681 154.468,-127.742 152.585,-134.703 145.435,-135.641"/>
<text text-anchor="middle" x="114" y="-183" font-family="Helvetica,sans-Serif" font-size="10.00"> #quote_</text>
</g>
<!-- Node3 -->
<g id="node3" class="node"><title>Node3</title>
<g id="a_node3"><a xlink:title=" ">
<polygon fill="white" stroke="#666666" points="72,-316 22,-316 22,-286 72,-286 72,-316"/>
<text text-anchor="middle" x="47" y="-304" font-family="Helvetica,sans-Serif" font-size="10.00">{Handle</text>
<text text-anchor="middle" x="47" y="-293" font-family="Helvetica,sans-Serif" font-size="10.00">||}</text>
</a>
</g>
</g>
<!-- Node3&#45;&gt;Node2 -->
<g id="edge2" class="edge"><title>Node3&#45;&gt;Node2</title>
<path fill="none" stroke="orange" d="M47,-275.541C47,-263.451 47,-249.294 47,-239.044"/>
<polygon fill="orange" stroke="orange" points="43.5001,-275.893 47,-285.893 50.5001,-275.893 43.5001,-275.893"/>
<text text-anchor="middle" x="71" y="-260" font-family="Helvetica,sans-Serif" font-size="10.00"> &lt; Quote &gt;</text>
</g>
<!-- Node4 -->
<g id="node4" class="node"><title>Node4</title>
<g id="a_node4"><a xlink:title=" ">
<polygon fill="white" stroke="#666666" points="152,-239 112,-239 112,-209 152,-209 152,-239"/>
<text text-anchor="middle" x="132" y="-227" font-family="Helvetica,sans-Serif" font-size="10.00">{Date</text>
<text text-anchor="middle" x="132" y="-216" font-family="Helvetica,sans-Serif" font-size="10.00">||}</text>
</a>
</g>
</g>
<!-- Node4&#45;&gt;Node1 -->
<g id="edge3" class="edge"><title>Node4&#45;&gt;Node1</title>
<path fill="none" stroke="#404040" d="M133.167,-208.634C134.226,-200.069 136.23,-189.123 140,-180 142.484,-173.988 145.374,-167.969 148.532,-162.035"/>
<polygon fill="none" stroke="#404040" points="148.593,-161.927 148.048,-154.737 154.476,-151.468 155.021,-158.659 148.593,-161.927"/>
<text text-anchor="middle" x="166" y="-183" font-family="Helvetica,sans-Serif" font-size="10.00"> #asofDate_</text>
</g>
<!-- Node5 -->
<g id="node5" class="node"><title>Node5</title>
<g id="a_node5"><a xlink:title=" ">
<polygon fill="white" stroke="#666666" points="214,-239 170,-239 170,-209 214,-209 214,-239"/>
<text text-anchor="middle" x="192" y="-227" font-family="Helvetica,sans-Serif" font-size="10.00">{string</text>
<text text-anchor="middle" x="192" y="-216" font-family="Helvetica,sans-Serif" font-size="10.00">||}</text>
</a>
</g>
</g>
<!-- Node5&#45;&gt;Node1 -->
<g id="edge4" class="edge"><title>Node5&#45;&gt;Node1</title>
<path fill="none" stroke="#404040" d="M193.493,-208.965C194.439,-200.075 195.752,-187.73 197.191,-174.203"/>
<polygon fill="none" stroke="#404040" points="197.213,-174.001 193.87,-167.611 198.482,-162.068 201.825,-168.458 197.213,-174.001"/>
<text text-anchor="middle" x="216" y="-183" font-family="Helvetica,sans-Serif" font-size="10.00"> #name_</text>
</g>
<!-- Node6 -->
<g id="node6" class="node"><title>Node6</title>
<g id="a_node6"><a xlink:title=" ">
<polygon fill="white" stroke="#666666" points="247,-316 137,-316 137,-286 247,-286 247,-316"/>
<text text-anchor="middle" x="192" y="-304" font-family="Helvetica,sans-Serif" font-size="10.00">{basic_string&lt; Char &gt;</text>
<text text-anchor="middle" x="192" y="-293" font-family="Helvetica,sans-Serif" font-size="10.00">||}</text>
</a>
</g>
</g>
<!-- Node6&#45;&gt;Node5 -->
<g id="edge5" class="edge"><title>Node6&#45;&gt;Node5</title>
<path fill="none" stroke="#63b8ff" d="M192,-275.541C192,-263.451 192,-249.294 192,-239.044"/>
<polygon fill="none" stroke="#63b8ff" points="188.5,-275.893 192,-285.893 195.5,-275.893 188.5,-275.893"/>
</g>
<!-- Node7 -->
<g id="node7" class="node"><title>Node7</title>
<g id="a_node7"><a xlink:title=" ">
<polygon fill="white" stroke="#666666" points="318,-239 232,-239 232,-209 318,-209 318,-239"/>
<text text-anchor="middle" x="275" y="-227" font-family="Helvetica,sans-Serif" font-size="10.00">{InstrumentType</text>
<text text-anchor="middle" x="275" y="-216" font-family="Helvetica,sans-Serif" font-size="10.00">||}</text>
</a>
</g>
</g>
<!-- Node7&#45;&gt;Node1 -->
<g id="edge6" class="edge"><title>Node7&#45;&gt;Node1</title>
<path fill="none" stroke="#404040" d="M268.231,-208.965C263.814,-199.806 257.628,-186.978 250.872,-172.97"/>
<polygon fill="none" stroke="#404040" points="250.827,-172.877 244.618,-169.21 245.614,-162.068 251.824,-165.735 250.827,-172.877"/>
<text text-anchor="middle" x="299.5" y="-183" font-family="Helvetica,sans-Serif" font-size="10.00"> #instrumentType_</text>
</g>
<!-- Node8 -->
<g id="node8" class="node"><title>Node8</title>
<g id="a_node8"><a xlink:title=" ">
<polygon fill="white" stroke="#666666" points="408.5,-239 341.5,-239 341.5,-209 408.5,-209 408.5,-239"/>
<text text-anchor="middle" x="375" y="-227" font-family="Helvetica,sans-Serif" font-size="10.00">{QuoteType</text>
<text text-anchor="middle" x="375" y="-216" font-family="Helvetica,sans-Serif" font-size="10.00">||}</text>
</a>
</g>
</g>
<!-- Node8&#45;&gt;Node1 -->
<g id="edge7" class="edge"><title>Node8&#45;&gt;Node1</title>
<path fill="none" stroke="#404040" d="M366.541,-208.941C360.82,-200.077 352.736,-188.704 344,-180 321.885,-157.967 294.392,-137.268 269.851,-120.623"/>
<polygon fill="none" stroke="#404040" points="269.522,-120.403 262.311,-120.402 259.539,-113.745 266.75,-113.746 269.522,-120.403"/>
<text text-anchor="middle" x="383.5" y="-183" font-family="Helvetica,sans-Serif" font-size="10.00"> #quoteType_</text>
</g>
</g>
</svg>
