<?xml version="1.0" encoding="UTF-8" standalone="no"?>
<!DOCTYPE svg PUBLIC "-//W3C//DTD SVG 1.1//EN"
 "http://www.w3.org/Graphics/SVG/1.1/DTD/svg11.dtd">
<!-- Generated by graphviz version 2.38.0 (20140413.2041)
 -->
<!-- Title: baseType Pages: 1 -->
<svg width="785pt" height="1376pt"
 viewBox="0.00 0.00 785.00 1376.00" xmlns="http://www.w3.org/2000/svg" xmlns:xlink="http://www.w3.org/1999/xlink">
<g id="graph0" class="graph" transform="scale(1 1) rotate(0) translate(4 1372)">
<title>baseType</title>
<!-- Node1 -->
<g id="node1" class="node"><title>Node1</title>
<g id="a_node1"><a xlink:title=" ">
<polygon fill="#999999" stroke="#666666" points="777,-276 718,-276 718,-257 777,-257 777,-276"/>
<text text-anchor="middle" x="747.5" y="-264" font-family="Helvetica,sans-Serif" font-size="10.00">baseType</text>
</a>
</g>
</g>
<!-- Node2 -->
<g id="node2" class="node"><title>Node2</title>
<g id="a_node2"><a xlink:href="classore_1_1data_1_1_curve_spec.html#a3d24768215bf6280c80eca3930ea3f55" target="_top" xlink:title=" ">
<polygon fill="white" stroke="#666666" points="682,-382 619,-382 619,-363 682,-363 682,-382"/>
<text text-anchor="middle" x="650.5" y="-370" font-family="Helvetica,sans-Serif" font-size="10.00">baseName</text>
</a>
</g>
</g>
<!-- Node1&#45;&gt;Node2 -->
<g id="edge1" class="edge"><title>Node1&#45;&gt;Node2</title>
<path fill="none" stroke="#63b8ff" d="M731.022,-283.77C710.876,-306.248 676.348,-344.775 660.246,-362.741"/>
<polygon fill="#63b8ff" stroke="#63b8ff" points="733.665,-286.065 737.733,-276.282 728.452,-281.393 733.665,-286.065"/>
</g>
<!-- Node36 -->
<g id="node36" class="node"><title>Node36</title>
<g id="a_node36"><a xlink:href="namespaceore_1_1data.html#ab97908bca1be17ecee5379059e12de47" target="_top" xlink:title="Relational operators for CurveSpecs.">
<polygon fill="white" stroke="#666666" points="479,-19 377,-19 377,-0 479,-0 479,-19"/>
<text text-anchor="middle" x="428" y="-7" font-family="Helvetica,sans-Serif" font-size="10.00">ore::data::operator&lt;</text>
</a>
</g>
</g>
<!-- Node1&#45;&gt;Node36 -->
<g id="edge55" class="edge"><title>Node1&#45;&gt;Node36</title>
<path fill="none" stroke="#63b8ff" d="M733.981,-248.429C701.796,-203.436 611.274,-85.8281 506,-27.5 497.834,-22.9757 488.574,-19.5849 479.376,-17.0446"/>
<polygon fill="#63b8ff" stroke="#63b8ff" points="731.32,-250.73 739.947,-256.881 737.039,-246.693 731.32,-250.73"/>
</g>
<!-- Node3 -->
<g id="node3" class="node"><title>Node3</title>
<g id="a_node3"><a xlink:href="classore_1_1data_1_1_curve_spec.html#afa7a10b4b56522f03c698ac514b0f844" target="_top" xlink:title="returns the unique curve name">
<polygon fill="white" stroke="#666666" points="583,-686 542,-686 542,-667 583,-667 583,-686"/>
<text text-anchor="middle" x="562.5" y="-674" font-family="Helvetica,sans-Serif" font-size="10.00">name</text>
</a>
</g>
</g>
<!-- Node2&#45;&gt;Node3 -->
<g id="edge2" class="edge"><title>Node2&#45;&gt;Node3</title>
<path fill="none" stroke="#63b8ff" d="M643.94,-392.153C627.298,-450.98 578.284,-624.239 566.211,-666.918"/>
<polygon fill="#63b8ff" stroke="#63b8ff" points="647.382,-392.845 646.736,-382.27 640.646,-390.94 647.382,-392.845"/>
</g>
<!-- Node4 -->
<g id="node4" class="node"><title>Node4</title>
<g id="a_node4"><a xlink:href="classore_1_1data_1_1_equity_curve.html#aa0b93fc44d9ba933557ebfd0796d8e5d" target="_top" xlink:title="Detailed constructor.">
<polygon fill="white" stroke="#666666" points="484.5,-1330.5 371.5,-1330.5 371.5,-1300.5 484.5,-1300.5 484.5,-1330.5"/>
<text text-anchor="start" x="379.5" y="-1318.5" font-family="Helvetica,sans-Serif" font-size="10.00">ore::data::EquityCurve</text>
<text text-anchor="middle" x="428" y="-1307.5" font-family="Helvetica,sans-Serif" font-size="10.00">::EquityCurve</text>
</a>
</g>
</g>
<!-- Node3&#45;&gt;Node4 -->
<g id="edge3" class="edge"><title>Node3&#45;&gt;Node4</title>
<path fill="none" stroke="#63b8ff" d="M560.932,-696.346C557.921,-795.951 542.556,-1238.48 506,-1286.5 500.462,-1293.77 492.881,-1299.22 484.624,-1303.31"/>
<polygon fill="#63b8ff" stroke="#63b8ff" points="564.436,-696.272 561.233,-686.174 557.439,-696.066 564.436,-696.272"/>
</g>
<!-- Node5 -->
<g id="node5" class="node"><title>Node5</title>
<g id="a_node5"><a xlink:href="classore_1_1data_1_1_inflation_cap_floor_vol_curve.html#a19c9a318aa454b3132d829dd00bced53" target="_top" xlink:title=" ">
<polygon fill="white" stroke="#666666" points="314,-890.5 143,-890.5 143,-860.5 314,-860.5 314,-890.5"/>
<text text-anchor="start" x="151" y="-878.5" font-family="Helvetica,sans-Serif" font-size="10.00">ore::data::InflationCapFloor</text>
<text text-anchor="middle" x="228.5" y="-867.5" font-family="Helvetica,sans-Serif" font-size="10.00">VolCurve::InflationCapFloorVolCurve</text>
</a>
</g>
</g>
<!-- Node3&#45;&gt;Node5 -->
<g id="edge4" class="edge"><title>Node3&#45;&gt;Node5</title>
<path fill="none" stroke="#63b8ff" d="M559.643,-696.167C554.505,-745.851 538.297,-874.256 506,-899.5 433.68,-956.027 315.882,-915.136 260.337,-890.511"/>
<polygon fill="#63b8ff" stroke="#63b8ff" points="563.14,-696.373 560.645,-686.076 556.174,-695.681 563.14,-696.373"/>
</g>
<!-- Node6 -->
<g id="node6" class="node"><title>Node6</title>
<g id="a_node6"><a xlink:href="classore_1_1data_1_1_inflation_curve.html#a25e20d8ef3302e62e97bb0029df83549" target="_top" xlink:title=" ">
<polygon fill="white" stroke="#666666" points="487,-1244.5 369,-1244.5 369,-1214.5 487,-1214.5 487,-1244.5"/>
<text text-anchor="start" x="377" y="-1232.5" font-family="Helvetica,sans-Serif" font-size="10.00">ore::data::InflationCurve</text>
<text text-anchor="middle" x="428" y="-1221.5" font-family="Helvetica,sans-Serif" font-size="10.00">::InflationCurve</text>
</a>
</g>
</g>
<!-- Node3&#45;&gt;Node6 -->
<g id="edge5" class="edge"><title>Node3&#45;&gt;Node6</title>
<path fill="none" stroke="#63b8ff" d="M560.698,-696.269C556.828,-787.528 538.91,-1165.35 506,-1205.5 500.941,-1211.67 494.317,-1216.29 487.076,-1219.73"/>
<polygon fill="#63b8ff" stroke="#63b8ff" points="564.199,-696.318 561.118,-686.181 557.205,-696.027 564.199,-696.318"/>
</g>
<!-- Node7 -->
<g id="node7" class="node"><title>Node7</title>
<g id="a_node7"><a xlink:href="classore_1_1data_1_1_yield_curve.html#a59d4997751f3007ffe3c18b56f2fa207" target="_top" xlink:title="Constructor.">
<polygon fill="white" stroke="#666666" points="107,-780.5 0,-780.5 0,-750.5 107,-750.5 107,-780.5"/>
<text text-anchor="start" x="8" y="-768.5" font-family="Helvetica,sans-Serif" font-size="10.00">ore::data::YieldCurve</text>
<text text-anchor="middle" x="53.5" y="-757.5" font-family="Helvetica,sans-Serif" font-size="10.00">::YieldCurve</text>
</a>
</g>
</g>
<!-- Node3&#45;&gt;Node7 -->
<g id="edge6" class="edge"><title>Node3&#45;&gt;Node7</title>
<path fill="none" stroke="#63b8ff" d="M531.796,-678.724C442.44,-685.508 179.975,-706.171 143,-717.5 118.767,-724.925 93.5936,-739.338 76.319,-750.441"/>
<polygon fill="#63b8ff" stroke="#63b8ff" points="532.101,-682.211 541.809,-677.966 531.573,-675.231 532.101,-682.211"/>
</g>
<!-- Node8 -->
<g id="node8" class="node"><title>Node8</title>
<g id="a_node8"><a xlink:href="classore_1_1data_1_1_commodity_curve.html#a9a8c584c6d71316f9f02486503660587" target="_top" xlink:title="Add node to price curve data with check for duplicate expiry dates.">
<polygon fill="white" stroke="#666666" points="506,-1196 350,-1196 350,-1177 506,-1177 506,-1196"/>
<text text-anchor="middle" x="428" y="-1184" font-family="Helvetica,sans-Serif" font-size="10.00">ore::data::CommodityCurve::add</text>
</a>
</g>
</g>
<!-- Node3&#45;&gt;Node8 -->
<g id="edge7" class="edge"><title>Node3&#45;&gt;Node8</title>
<path fill="none" stroke="#63b8ff" d="M560.504,-696.281C555.977,-782.884 536.243,-1125.94 506,-1162.5 500.823,-1168.76 494.039,-1173.41 486.643,-1176.87"/>
<polygon fill="#63b8ff" stroke="#63b8ff" points="564.003,-696.384 561.022,-686.218 557.013,-696.025 564.003,-696.384"/>
</g>
<!-- Node10 -->
<g id="node10" class="node"><title>Node10</title>
<g id="a_node10"><a xlink:href="classore_1_1data_1_1_yield_curve.html#afcd8187c09f3a5ccce06b51c8c2c2864" target="_top" xlink:title=" ">
<polygon fill="white" stroke="#666666" points="481.5,-478.5 374.5,-478.5 374.5,-448.5 481.5,-448.5 481.5,-478.5"/>
<text text-anchor="start" x="382.5" y="-466.5" font-family="Helvetica,sans-Serif" font-size="10.00">ore::data::YieldCurve</text>
<text text-anchor="middle" x="428" y="-455.5" font-family="Helvetica,sans-Serif" font-size="10.00">::addAverageOISs</text>
</a>
</g>
</g>
<!-- Node3&#45;&gt;Node10 -->
<g id="edge9" class="edge"><title>Node3&#45;&gt;Node10</title>
<path fill="none" stroke="#63b8ff" d="M561.48,-656.363C560.327,-618.109 552.291,-534.562 506,-487.5 499.323,-480.712 490.76,-475.836 481.785,-472.337"/>
<polygon fill="#63b8ff" stroke="#63b8ff" points="557.986,-656.749 561.652,-666.69 564.985,-656.633 557.986,-656.749"/>
</g>
<!-- Node11 -->
<g id="node11" class="node"><title>Node11</title>
<g id="a_node11"><a xlink:href="classore_1_1data_1_1_yield_curve.html#a9926d222ab68411efb749aa1e6cbd0b1" target="_top" xlink:title=" ">
<polygon fill="white" stroke="#666666" points="291,-457.5 166,-457.5 166,-427.5 291,-427.5 291,-457.5"/>
<text text-anchor="start" x="174" y="-445.5" font-family="Helvetica,sans-Serif" font-size="10.00">ore::data::YieldCurve</text>
<text text-anchor="middle" x="228.5" y="-434.5" font-family="Helvetica,sans-Serif" font-size="10.00">::buildBootstrappedCurve</text>
</a>
</g>
</g>
<!-- Node3&#45;&gt;Node11 -->
<g id="edge30" class="edge"><title>Node3&#45;&gt;Node11</title>
<path fill="none" stroke="#63b8ff" d="M559.936,-656.653C555.386,-604.666 540.249,-466.655 506,-439.5 438.666,-386.112 330.311,-408.851 271.221,-427.359"/>
<polygon fill="#63b8ff" stroke="#63b8ff" points="556.47,-657.213 560.79,-666.887 563.446,-656.631 556.47,-657.213"/>
</g>
<!-- Node12 -->
<g id="node12" class="node"><title>Node12</title>
<g id="a_node12"><a xlink:href="classore_1_1data_1_1_yield_curve.html#a3f9f48a2e598b82317a85b8c03e9d20e" target="_top" xlink:title=" ">
<polygon fill="white" stroke="#666666" points="485,-392.5 371,-392.5 371,-362.5 485,-362.5 485,-392.5"/>
<text text-anchor="start" x="379" y="-380.5" font-family="Helvetica,sans-Serif" font-size="10.00">ore::data::YieldCurve</text>
<text text-anchor="middle" x="428" y="-369.5" font-family="Helvetica,sans-Serif" font-size="10.00">::addBMABasisSwaps</text>
</a>
</g>
</g>
<!-- Node3&#45;&gt;Node12 -->
<g id="edge12" class="edge"><title>Node3&#45;&gt;Node12</title>
<path fill="none" stroke="#63b8ff" d="M559.898,-656.835C555.003,-601.265 538.558,-444.635 506,-406.5 500.342,-399.873 493.009,-394.758 485.12,-390.81"/>
<polygon fill="#63b8ff" stroke="#63b8ff" points="556.411,-657.142 560.747,-666.809 563.386,-656.548 556.411,-657.142"/>
</g>
<!-- Node13 -->
<g id="node13" class="node"><title>Node13</title>
<g id="a_node13"><a xlink:href="classore_1_1data_1_1_yield_curve.html#a144402dc9af3256e07e366dec4387093" target="_top" xlink:title=" ">
<polygon fill="white" stroke="#666666" points="495.5,-200.5 360.5,-200.5 360.5,-170.5 495.5,-170.5 495.5,-200.5"/>
<text text-anchor="start" x="368.5" y="-188.5" font-family="Helvetica,sans-Serif" font-size="10.00">ore::data::YieldCurve</text>
<text text-anchor="middle" x="428" y="-177.5" font-family="Helvetica,sans-Serif" font-size="10.00">::addCrossCcyBasisSwaps</text>
</a>
</g>
</g>
<!-- Node3&#45;&gt;Node13 -->
<g id="edge14" class="edge"><title>Node3&#45;&gt;Node13</title>
<path fill="none" stroke="#63b8ff" d="M561.903,-656.726C563.13,-576.842 563.702,-278.921 506,-209.5 503.046,-205.946 499.575,-202.91 495.768,-200.317"/>
<polygon fill="#63b8ff" stroke="#63b8ff" points="558.401,-656.816 561.724,-666.877 565.4,-656.94 558.401,-656.816"/>
</g>
<!-- Node14 -->
<g id="node14" class="node"><title>Node14</title>
<g id="a_node14"><a xlink:href="classore_1_1data_1_1_yield_curve.html#ad620a7e038d28c4c068292c5efa5331f" target="_top" xlink:title=" ">
<polygon fill="white" stroke="#666666" points="501,-152.5 355,-152.5 355,-122.5 501,-122.5 501,-152.5"/>
<text text-anchor="start" x="363" y="-140.5" font-family="Helvetica,sans-Serif" font-size="10.00">ore::data::YieldCurve</text>
<text text-anchor="middle" x="428" y="-129.5" font-family="Helvetica,sans-Serif" font-size="10.00">::addCrossCcyFixFloatSwaps</text>
</a>
</g>
</g>
<!-- Node3&#45;&gt;Node14 -->
<g id="edge16" class="edge"><title>Node3&#45;&gt;Node14</title>
<path fill="none" stroke="#63b8ff" d="M560.624,-656.405C556.515,-566.09 538.003,-200.434 506,-161.5 503.155,-158.039 499.818,-155.067 496.156,-152.518"/>
<polygon fill="#63b8ff" stroke="#63b8ff" points="557.138,-656.81 561.081,-666.644 564.131,-656.498 557.138,-656.81"/>
</g>
<!-- Node15 -->
<g id="node15" class="node"><title>Node15</title>
<g id="a_node15"><a xlink:href="classore_1_1data_1_1_yield_curve.html#aac721f65b4bb569372bd3b4c86169011" target="_top" xlink:title=" ">
<polygon fill="white" stroke="#666666" points="481.5,-104.5 374.5,-104.5 374.5,-74.5 481.5,-74.5 481.5,-104.5"/>
<text text-anchor="start" x="382.5" y="-92.5" font-family="Helvetica,sans-Serif" font-size="10.00">ore::data::YieldCurve</text>
<text text-anchor="middle" x="428" y="-81.5" font-family="Helvetica,sans-Serif" font-size="10.00">::addFXForwards</text>
</a>
</g>
</g>
<!-- Node3&#45;&gt;Node15 -->
<g id="edge18" class="edge"><title>Node3&#45;&gt;Node15</title>
<path fill="none" stroke="#63b8ff" d="M560.828,-656.664C557.441,-561.718 541.014,-156.494 506,-113.5 499.722,-105.791 491.004,-100.512 481.681,-96.9086"/>
<polygon fill="#63b8ff" stroke="#63b8ff" points="557.33,-656.787 561.176,-666.659 564.326,-656.543 557.33,-656.787"/>
</g>
<!-- Node16 -->
<g id="node16" class="node"><title>Node16</title>
<g id="a_node16"><a xlink:href="classore_1_1data_1_1_commodity_curve.html#afb12407f81eadbfd2463e61f4898c7ac" target="_top" xlink:title=" ">
<polygon fill="white" stroke="#666666" points="495,-1120.5 361,-1120.5 361,-1090.5 495,-1090.5 495,-1120.5"/>
<text text-anchor="start" x="369" y="-1108.5" font-family="Helvetica,sans-Serif" font-size="10.00">ore::data::CommodityCurve</text>
<text text-anchor="middle" x="428" y="-1097.5" font-family="Helvetica,sans-Serif" font-size="10.00">::addInstruments</text>
</a>
</g>
</g>
<!-- Node3&#45;&gt;Node16 -->
<g id="edge20" class="edge"><title>Node3&#45;&gt;Node16</title>
<path fill="none" stroke="#63b8ff" d="M561.5,-696.396C561.098,-769.54 556.051,-1022.37 506,-1081.5 502.924,-1085.13 499.307,-1088.23 495.347,-1090.86"/>
<polygon fill="#63b8ff" stroke="#63b8ff" points="565,-696.267 561.531,-686.256 558,-696.246 565,-696.267"/>
</g>
<!-- Node18 -->
<g id="node18" class="node"><title>Node18</title>
<g id="a_node18"><a xlink:href="classore_1_1data_1_1_yield_curve.html#a26234add7104d68231e384554b0267b4" target="_top" xlink:title=" ">
<polygon fill="white" stroke="#666666" points="481.5,-670.5 374.5,-670.5 374.5,-640.5 481.5,-640.5 481.5,-670.5"/>
<text text-anchor="start" x="382.5" y="-658.5" font-family="Helvetica,sans-Serif" font-size="10.00">ore::data::YieldCurve</text>
<text text-anchor="middle" x="428" y="-647.5" font-family="Helvetica,sans-Serif" font-size="10.00">::addOISs</text>
</a>
</g>
</g>
<!-- Node3&#45;&gt;Node18 -->
<g id="edge22" class="edge"><title>Node3&#45;&gt;Node18</title>
<path fill="none" stroke="#63b8ff" d="M531.86,-671.802C517.045,-669.454 498.67,-666.542 481.567,-663.831"/>
<polygon fill="#63b8ff" stroke="#63b8ff" points="531.525,-675.293 541.949,-673.401 532.62,-668.379 531.525,-675.293"/>
</g>
<!-- Node19 -->
<g id="node19" class="node"><title>Node19</title>
<g id="a_node19"><a xlink:href="classore_1_1data_1_1_yield_curve.html#a211ffd4d78d65e60ad49f443035fa85f" target="_top" xlink:title=" ">
<polygon fill="white" stroke="#666666" points="486,-622.5 370,-622.5 370,-592.5 486,-592.5 486,-622.5"/>
<text text-anchor="start" x="378" y="-610.5" font-family="Helvetica,sans-Serif" font-size="10.00">ore::data::YieldCurve</text>
<text text-anchor="middle" x="428" y="-599.5" font-family="Helvetica,sans-Serif" font-size="10.00">::addTenorBasisSwaps</text>
</a>
</g>
</g>
<!-- Node3&#45;&gt;Node19 -->
<g id="edge24" class="edge"><title>Node3&#45;&gt;Node19</title>
<path fill="none" stroke="#63b8ff" d="M544.588,-659.931C534.177,-650.494 520.151,-639.079 506,-631.5 499.705,-628.128 492.862,-625.148 485.939,-622.536"/>
<polygon fill="#63b8ff" stroke="#63b8ff" points="542.405,-662.682 552.097,-666.963 547.191,-657.573 542.405,-662.682"/>
</g>
<!-- Node20 -->
<g id="node20" class="node"><title>Node20</title>
<g id="a_node20"><a xlink:href="classore_1_1data_1_1_yield_curve.html#aa3564ed29198419b1638fed1ce7d3664" target="_top" xlink:title=" ">
<polygon fill="white" stroke="#666666" points="495,-526.5 361,-526.5 361,-496.5 495,-496.5 495,-526.5"/>
<text text-anchor="start" x="369" y="-514.5" font-family="Helvetica,sans-Serif" font-size="10.00">ore::data::YieldCurve</text>
<text text-anchor="middle" x="428" y="-503.5" font-family="Helvetica,sans-Serif" font-size="10.00">::addTenorBasisTwoSwaps</text>
</a>
</g>
</g>
<!-- Node3&#45;&gt;Node20 -->
<g id="edge26" class="edge"><title>Node3&#45;&gt;Node20</title>
<path fill="none" stroke="#63b8ff" d="M559.11,-656.472C554.421,-626.033 541.194,-568.219 506,-535.5 502.308,-532.068 498.132,-529.126 493.681,-526.605"/>
<polygon fill="#63b8ff" stroke="#63b8ff" points="555.686,-657.259 560.518,-666.688 562.62,-656.304 555.686,-657.259"/>
</g>
<!-- Node21 -->
<g id="node21" class="node"><title>Node21</title>
<g id="a_node21"><a xlink:href="classore_1_1data_1_1_default_curve.html#a6f5c39f7895a1200019a7816a740fff3" target="_top" xlink:title="Build a default curve implied from a spread over a benchmark curve.">
<polygon fill="white" stroke="#666666" points="486,-976.5 370,-976.5 370,-946.5 486,-946.5 486,-976.5"/>
<text text-anchor="start" x="378" y="-964.5" font-family="Helvetica,sans-Serif" font-size="10.00">ore::data::DefaultCurve</text>
<text text-anchor="middle" x="428" y="-953.5" font-family="Helvetica,sans-Serif" font-size="10.00">::buildBenchmarkCurve</text>
</a>
</g>
</g>
<!-- Node3&#45;&gt;Node21 -->
<g id="edge28" class="edge"><title>Node3&#45;&gt;Node21</title>
<path fill="none" stroke="#63b8ff" d="M559.618,-696.538C554.186,-750.417 536.866,-896.738 506,-932.5 500.587,-938.772 493.674,-943.691 486.219,-947.547"/>
<polygon fill="#63b8ff" stroke="#63b8ff" points="563.134,-696.544 560.623,-686.251 556.167,-695.864 563.134,-696.544"/>
</g>
<!-- Node23 -->
<g id="node23" class="node"><title>Node23</title>
<g id="a_node23"><a xlink:href="classore_1_1data_1_1_default_curve.html#a6c2b227db105241eb5c565b654f7dbe4" target="_top" xlink:title="Build a default curve from CDS spread quotes.">
<polygon fill="white" stroke="#666666" points="485.5,-1072.5 370.5,-1072.5 370.5,-1042.5 485.5,-1042.5 485.5,-1072.5"/>
<text text-anchor="start" x="378.5" y="-1060.5" font-family="Helvetica,sans-Serif" font-size="10.00">ore::data::DefaultCurve</text>
<text text-anchor="middle" x="428" y="-1049.5" font-family="Helvetica,sans-Serif" font-size="10.00">::buildCdsCurve</text>
</a>
</g>
</g>
<!-- Node3&#45;&gt;Node23 -->
<g id="edge31" class="edge"><title>Node3&#45;&gt;Node23</title>
<path fill="none" stroke="#63b8ff" d="M561.098,-696.162C559.333,-763.305 550.231,-982.19 506,-1033.5 500.515,-1039.86 493.371,-1044.56 485.647,-1048.03"/>
<polygon fill="#63b8ff" stroke="#63b8ff" points="564.599,-696.175 561.336,-686.095 557.601,-696.009 564.599,-696.175"/>
</g>
<!-- Node24 -->
<g id="node24" class="node"><title>Node24</title>
<g id="a_node24"><a xlink:href="classore_1_1data_1_1_commodity_curve.html#a810ba3522b68a144ab23af6c20a19de4" target="_top" xlink:title="Build cross currency commodity price curve.">
<polygon fill="white" stroke="#666666" points="505,-574.5 351,-574.5 351,-544.5 505,-544.5 505,-574.5"/>
<text text-anchor="start" x="359" y="-562.5" font-family="Helvetica,sans-Serif" font-size="10.00">ore::data::CommodityCurve</text>
<text text-anchor="middle" x="428" y="-551.5" font-family="Helvetica,sans-Serif" font-size="10.00">::buildCrossCurrencyPriceCurve</text>
</a>
</g>
</g>
<!-- Node3&#45;&gt;Node24 -->
<g id="edge33" class="edge"><title>Node3&#45;&gt;Node24</title>
<path fill="none" stroke="#63b8ff" d="M554.828,-657.247C546.565,-636.172 530.508,-602.815 506,-583.5 501.601,-580.033 496.697,-577.064 491.553,-574.521"/>
<polygon fill="#63b8ff" stroke="#63b8ff" points="551.593,-658.591 558.352,-666.751 558.157,-656.157 551.593,-658.591"/>
</g>
<!-- Node25 -->
<g id="node25" class="node"><title>Node25</title>
<g id="a_node25"><a xlink:href="classore_1_1data_1_1_yield_curve.html#ab95be441662bdbb7946d1d195c43bc51" target="_top" xlink:title=" ">
<polygon fill="white" stroke="#666666" points="282,-1273.5 175,-1273.5 175,-1243.5 282,-1243.5 282,-1273.5"/>
<text text-anchor="start" x="183" y="-1261.5" font-family="Helvetica,sans-Serif" font-size="10.00">ore::data::YieldCurve</text>
<text text-anchor="middle" x="228.5" y="-1250.5" font-family="Helvetica,sans-Serif" font-size="10.00">::buildDiscountCurve</text>
</a>
</g>
</g>
<!-- Node3&#45;&gt;Node25 -->
<g id="edge34" class="edge"><title>Node3&#45;&gt;Node25</title>
<path fill="none" stroke="#63b8ff" d="M561.12,-696.434C559.067,-793.642 547.795,-1214.84 506,-1253.5 474.633,-1282.52 353.209,-1273.6 282.128,-1265.47"/>
<polygon fill="#63b8ff" stroke="#63b8ff" points="564.623,-696.302 561.326,-686.233 557.625,-696.161 564.623,-696.302"/>
</g>
<!-- Node26 -->
<g id="node26" class="node"><title>Node26</title>
<g id="a_node26"><a xlink:href="classore_1_1data_1_1_inflation_cap_floor_vol_curve.html#acc947c79d75150ea99503fea7de9f868" target="_top" xlink:title=" ">
<polygon fill="white" stroke="#666666" points="494.5,-842.5 361.5,-842.5 361.5,-812.5 494.5,-812.5 494.5,-842.5"/>
<text text-anchor="start" x="369.5" y="-830.5" font-family="Helvetica,sans-Serif" font-size="10.00">ore::data::InflationCapFloor</text>
<text text-anchor="middle" x="428" y="-819.5" font-family="Helvetica,sans-Serif" font-size="10.00">VolCurve::buildFromPrices</text>
</a>
</g>
</g>
<!-- Node3&#45;&gt;Node26 -->
<g id="edge36" class="edge"><title>Node3&#45;&gt;Node26</title>
<path fill="none" stroke="#63b8ff" d="M557.472,-696.259C551.053,-722.948 536.036,-770.404 506,-798.5 499.949,-804.16 492.688,-808.744 485.075,-812.448"/>
<polygon fill="#63b8ff" stroke="#63b8ff" points="560.953,-696.731 559.716,-686.209 554.121,-695.206 560.953,-696.731"/>
</g>
<!-- Node27 -->
<g id="node27" class="node"><title>Node27</title>
<g id="a_node27"><a xlink:href="classore_1_1data_1_1_inflation_cap_floor_vol_curve.html#a82405c2b4ff01f1c8c3a89928dd84129" target="_top" xlink:title=" ">
<polygon fill="white" stroke="#666666" points="502.5,-890.5 353.5,-890.5 353.5,-860.5 502.5,-860.5 502.5,-890.5"/>
<text text-anchor="start" x="361.5" y="-878.5" font-family="Helvetica,sans-Serif" font-size="10.00">ore::data::InflationCapFloor</text>
<text text-anchor="middle" x="428" y="-867.5" font-family="Helvetica,sans-Serif" font-size="10.00">VolCurve::buildFromVolatilities</text>
</a>
</g>
</g>
<!-- Node3&#45;&gt;Node27 -->
<g id="edge38" class="edge"><title>Node3&#45;&gt;Node27</title>
<path fill="none" stroke="#63b8ff" d="M560.939,-696.144C558.838,-732.042 549.221,-808.493 506,-851.5 502.526,-854.957 498.563,-857.917 494.309,-860.452"/>
<polygon fill="#63b8ff" stroke="#63b8ff" points="564.442,-696.154 561.39,-686.008 557.449,-695.843 564.442,-696.154"/>
</g>
<!-- Node28 -->
<g id="node28" class="node"><title>Node28</title>
<g id="a_node28"><a xlink:href="classore_1_1data_1_1_default_curve.html#a609f363ad2bd5b91493581ffff83738f" target="_top" xlink:title="Build a multi section curve.">
<polygon fill="white" stroke="#666666" points="488.5,-1024.5 367.5,-1024.5 367.5,-994.5 488.5,-994.5 488.5,-1024.5"/>
<text text-anchor="start" x="375.5" y="-1012.5" font-family="Helvetica,sans-Serif" font-size="10.00">ore::data::DefaultCurve</text>
<text text-anchor="middle" x="428" y="-1001.5" font-family="Helvetica,sans-Serif" font-size="10.00">::buildMultiSectionCurve</text>
</a>
</g>
</g>
<!-- Node3&#45;&gt;Node28 -->
<g id="edge40" class="edge"><title>Node3&#45;&gt;Node28</title>
<path fill="none" stroke="#63b8ff" d="M560.57,-696.226C557.3,-757.339 544.376,-942.026 506,-985.5 501.181,-990.959 495.143,-995.19 488.58,-998.468"/>
<polygon fill="#63b8ff" stroke="#63b8ff" points="564.077,-696.184 561.086,-686.02 557.085,-695.831 564.077,-696.184"/>
</g>
<!-- Node29 -->
<g id="node29" class="node"><title>Node29</title>
<g id="a_node29"><a xlink:href="classore_1_1data_1_1_c_d_s_vol_curve.html#a0f21f55f29b515072c65189d0b361571" target="_top" xlink:title=" ">
<polygon fill="white" stroke="#666666" points="487.5,-344.5 368.5,-344.5 368.5,-314.5 487.5,-314.5 487.5,-344.5"/>
<text text-anchor="start" x="376.5" y="-332.5" font-family="Helvetica,sans-Serif" font-size="10.00">ore::data::CDSVolCurve</text>
<text text-anchor="middle" x="428" y="-321.5" font-family="Helvetica,sans-Serif" font-size="10.00">::buildVolatility</text>
</a>
</g>
</g>
<!-- Node3&#45;&gt;Node29 -->
<g id="edge42" class="edge"><title>Node3&#45;&gt;Node29</title>
<path fill="none" stroke="#63b8ff" d="M560.736,-656.703C557.913,-593.688 546.061,-399.23 506,-353.5 501.018,-347.812 494.711,-343.456 487.861,-340.123"/>
<polygon fill="#63b8ff" stroke="#63b8ff" points="557.247,-657.03 561.163,-666.874 564.241,-656.736 557.247,-657.03"/>
</g>
<!-- Node30 -->
<g id="node30" class="node"><title>Node30</title>
<g id="a_node30"><a xlink:href="classore_1_1data_1_1_commodity_vol_curve.html#a965effd768a291db2382b3b484ddba31" target="_top" xlink:title="Build a volatility surface as a proxy from another volatility surface.">
<polygon fill="white" stroke="#666666" points="502.5,-296.5 353.5,-296.5 353.5,-266.5 502.5,-266.5 502.5,-296.5"/>
<text text-anchor="start" x="361.5" y="-284.5" font-family="Helvetica,sans-Serif" font-size="10.00">ore::data::CommodityVolCurve</text>
<text text-anchor="middle" x="428" y="-273.5" font-family="Helvetica,sans-Serif" font-size="10.00">::buildVolatility</text>
</a>
</g>
</g>
<!-- Node3&#45;&gt;Node30 -->
<g id="edge43" class="edge"><title>Node3&#45;&gt;Node30</title>
<path fill="none" stroke="#63b8ff" d="M561.22,-656.529C559.85,-587.314 551.873,-359.024 506,-305.5 503.084,-302.098 499.694,-299.171 495.994,-296.654"/>
<polygon fill="#63b8ff" stroke="#63b8ff" points="557.727,-656.941 561.398,-666.879 564.725,-656.821 557.727,-656.941"/>
</g>
<!-- Node31 -->
<g id="node31" class="node"><title>Node31</title>
<g id="a_node31"><a xlink:href="classore_1_1data_1_1_equity_vol_curve.html#a9e2adae2ac097879c015400d00d3b282" target="_top" xlink:title="Build a volatility surface as a proxy from another volatility surface.">
<polygon fill="white" stroke="#666666" points="491.5,-248.5 364.5,-248.5 364.5,-218.5 491.5,-218.5 491.5,-248.5"/>
<text text-anchor="start" x="372.5" y="-236.5" font-family="Helvetica,sans-Serif" font-size="10.00">ore::data::EquityVolCurve</text>
<text text-anchor="middle" x="428" y="-225.5" font-family="Helvetica,sans-Serif" font-size="10.00">::buildVolatility</text>
</a>
</g>
</g>
<!-- Node3&#45;&gt;Node31 -->
<g id="edge44" class="edge"><title>Node3&#45;&gt;Node31</title>
<path fill="none" stroke="#63b8ff" d="M561.601,-656.412C561.575,-581.405 557.725,-318.888 506,-257.5 502.03,-252.788 497.15,-248.988 491.79,-245.923"/>
<polygon fill="#63b8ff" stroke="#63b8ff" points="558.101,-656.774 561.58,-666.781 565.101,-656.789 558.101,-656.774"/>
</g>
<!-- Node32 -->
<g id="node32" class="node"><title>Node32</title>
<g id="a_node32"><a xlink:href="classore_1_1data_1_1_yield_curve.html#a41d873e76431b42b4f647ce5c11f8247" target="_top" xlink:title=" ">
<polygon fill="white" stroke="#666666" points="282,-1158.5 175,-1158.5 175,-1128.5 282,-1128.5 282,-1158.5"/>
<text text-anchor="start" x="183" y="-1146.5" font-family="Helvetica,sans-Serif" font-size="10.00">ore::data::YieldCurve</text>
<text text-anchor="middle" x="228.5" y="-1135.5" font-family="Helvetica,sans-Serif" font-size="10.00">::buildZeroCurve</text>
</a>
</g>
</g>
<!-- Node3&#45;&gt;Node32 -->
<g id="edge45" class="edge"><title>Node3&#45;&gt;Node32</title>
<path fill="none" stroke="#63b8ff" d="M560.557,-696.161C556.372,-779.345 538.261,-1099.46 506,-1129.5 474.692,-1158.65 353.245,-1154.03 282.145,-1148.51"/>
<polygon fill="#63b8ff" stroke="#63b8ff" points="564.058,-696.211 561.054,-686.051 557.067,-695.867 564.058,-696.211"/>
</g>
<!-- Node33 -->
<g id="node33" class="node"><title>Node33</title>
<g id="a_node33"><a xlink:href="classore_1_1data_1_1_yield_curve.html#a6afa3078cdf7f8757f5fda370eb8e52d" target="_top" xlink:title=" ">
<polygon fill="white" stroke="#666666" points="292,-804.5 165,-804.5 165,-774.5 292,-774.5 292,-804.5"/>
<text text-anchor="start" x="173" y="-792.5" font-family="Helvetica,sans-Serif" font-size="10.00">ore::data::YieldCurve</text>
<text text-anchor="middle" x="228.5" y="-781.5" font-family="Helvetica,sans-Serif" font-size="10.00">::buildZeroSpreadedCurve</text>
</a>
</g>
</g>
<!-- Node3&#45;&gt;Node33 -->
<g id="edge47" class="edge"><title>Node3&#45;&gt;Node33</title>
<path fill="none" stroke="#63b8ff" d="M555.415,-695.599C547.611,-716.648 531.898,-749.625 506,-765.5 441.298,-805.16 351.551,-805.104 292.066,-799.189"/>
<polygon fill="#63b8ff" stroke="#63b8ff" points="558.743,-696.685 558.705,-686.091 552.128,-694.397 558.743,-696.685"/>
</g>
<!-- Node34 -->
<g id="node34" class="node"><title>Node34</title>
<g id="a_node34"><a xlink:href="classore_1_1data_1_1_yield_curve.html#af1d328133ed0cdad0829c7dd4d85be0e" target="_top" xlink:title="Return the yield curve with the given id from the requiredYieldCurves_ map.">
<polygon fill="white" stroke="#666666" points="481.5,-756.5 374.5,-756.5 374.5,-726.5 481.5,-726.5 481.5,-756.5"/>
<text text-anchor="start" x="382.5" y="-744.5" font-family="Helvetica,sans-Serif" font-size="10.00">ore::data::YieldCurve</text>
<text text-anchor="middle" x="428" y="-733.5" font-family="Helvetica,sans-Serif" font-size="10.00">::getYieldCurve</text>
</a>
</g>
</g>
<!-- Node3&#45;&gt;Node34 -->
<g id="edge49" class="edge"><title>Node3&#45;&gt;Node34</title>
<path fill="none" stroke="#63b8ff" d="M539.82,-692.115C529.822,-698.905 517.616,-706.632 506,-712.5 495.928,-717.589 484.739,-722.298 474.082,-726.378"/>
<polygon fill="#63b8ff" stroke="#63b8ff" points="542.086,-694.803 548.302,-686.223 538.092,-689.054 542.086,-694.803"/>
</g>
<!-- Node3&#45;&gt;Node36 -->
<g id="edge52" class="edge"><title>Node3&#45;&gt;Node36</title>
<path fill="none" stroke="#63b8ff" d="M561.166,-656.594C559.244,-552.769 548.165,-76.237 506,-27.5 499.084,-19.5057 489.362,-14.6921 479.148,-11.8689"/>
<polygon fill="#63b8ff" stroke="#63b8ff" points="557.667,-656.721 561.344,-666.657 564.666,-656.596 557.667,-656.721"/>
</g>
<!-- Node37 -->
<g id="node37" class="node"><title>Node37</title>
<g id="a_node37"><a xlink:href="namespaceore_1_1data.html#aa4c2cc6642d3bc3b22d0057b2b49857f" target="_top" xlink:title="Stream operator for CurveSpec.">
<polygon fill="white" stroke="#666666" points="482,-56 374,-56 374,-37 482,-37 482,-56"/>
<text text-anchor="middle" x="428" y="-44" font-family="Helvetica,sans-Serif" font-size="10.00">ore::data::operator&lt;&lt;</text>
</a>
</g>
</g>
<!-- Node3&#45;&gt;Node37 -->
<g id="edge53" class="edge"><title>Node3&#45;&gt;Node37</title>
<path fill="none" stroke="#63b8ff" d="M561.041,-656.535C558.563,-556.345 545.391,-111.353 506,-65.5 499.809,-58.2934 491.362,-53.5914 482.324,-50.5672"/>
<polygon fill="#63b8ff" stroke="#63b8ff" points="557.548,-656.854 561.287,-666.768 564.546,-656.687 557.548,-656.854"/>
</g>
<!-- Node38 -->
<g id="node38" class="node"><title>Node38</title>
<g id="a_node38"><a xlink:href="namespaceore_1_1data.html#a5b7fb7bb27541a7901721743444b923a" target="_top" xlink:title=" ">
<polygon fill="white" stroke="#666666" points="482,-1368 374,-1368 374,-1349 482,-1349 482,-1368"/>
<text text-anchor="middle" x="428" y="-1356" font-family="Helvetica,sans-Serif" font-size="10.00">ore::data::operator==</text>
</a>
</g>
</g>
<!-- Node3&#45;&gt;Node38 -->
<g id="edge54" class="edge"><title>Node3&#45;&gt;Node38</title>
<path fill="none" stroke="#63b8ff" d="M561.197,-696.157C559.41,-800.777 548.808,-1289.31 506,-1339.5 499.835,-1346.73 491.399,-1351.44 482.365,-1354.47"/>
<polygon fill="#63b8ff" stroke="#63b8ff" points="564.698,-696.11 561.362,-686.054 557.699,-695.995 564.698,-696.11"/>
</g>
<!-- Node9 -->
<g id="node9" class="node"><title>Node9</title>
<g id="a_node9"><a xlink:href="classore_1_1data_1_1_commodity_curve.html#aeeabdd32666fe17eb1e3c26a9d82a77c" target="_top" xlink:title="Populate data with dates and prices from the loader.">
<polygon fill="white" stroke="#666666" points="295.5,-1206.5 161.5,-1206.5 161.5,-1176.5 295.5,-1176.5 295.5,-1206.5"/>
<text text-anchor="start" x="169.5" y="-1194.5" font-family="Helvetica,sans-Serif" font-size="10.00">ore::data::CommodityCurve</text>
<text text-anchor="middle" x="228.5" y="-1183.5" font-family="Helvetica,sans-Serif" font-size="10.00">::populateData</text>
</a>
</g>
</g>
<!-- Node8&#45;&gt;Node9 -->
<g id="edge8" class="edge"><title>Node8&#45;&gt;Node9</title>
<path fill="none" stroke="#63b8ff" d="M339.664,-1188.71C324.93,-1189.08 309.853,-1189.47 295.767,-1189.82"/>
<polygon fill="#63b8ff" stroke="#63b8ff" points="339.885,-1192.21 349.793,-1188.45 339.707,-1185.21 339.885,-1192.21"/>
</g>
<!-- Node10&#45;&gt;Node11 -->
<g id="edge10" class="edge"><title>Node10&#45;&gt;Node11</title>
<path fill="none" stroke="#63b8ff" d="M364.189,-456.821C340.835,-454.338 314.375,-451.525 291.127,-449.053"/>
<polygon fill="#63b8ff" stroke="#63b8ff" points="364.019,-460.323 374.333,-457.9 364.759,-453.362 364.019,-460.323"/>
</g>
<!-- Node11&#45;&gt;Node7 -->
<g id="edge11" class="edge"><title>Node11&#45;&gt;Node7</title>
<path fill="none" stroke="#63b8ff" d="M214.649,-466.493C180.856,-529.587 90.2079,-698.831 62.5946,-750.387"/>
<polygon fill="#63b8ff" stroke="#63b8ff" points="217.752,-468.113 219.388,-457.646 211.581,-464.808 217.752,-468.113"/>
</g>
<!-- Node12&#45;&gt;Node11 -->
<g id="edge13" class="edge"><title>Node12&#45;&gt;Node11</title>
<path fill="none" stroke="#63b8ff" d="M371.601,-395.733C341.26,-405.718 304.106,-417.946 275.4,-427.394"/>
<polygon fill="#63b8ff" stroke="#63b8ff" points="372.789,-399.027 381.193,-392.576 370.6,-392.377 372.789,-399.027"/>
</g>
<!-- Node13&#45;&gt;Node11 -->
<g id="edge15" class="edge"><title>Node13&#45;&gt;Node11</title>
<path fill="none" stroke="#63b8ff" d="M354.779,-205.855C353.126,-207.004 351.529,-208.218 350,-209.5 277.418,-270.366 243.233,-386.141 232.965,-427.417"/>
<polygon fill="#63b8ff" stroke="#63b8ff" points="356.693,-208.789 363.456,-200.633 353.083,-202.791 356.693,-208.789"/>
</g>
<!-- Node14&#45;&gt;Node11 -->
<g id="edge17" class="edge"><title>Node14&#45;&gt;Node11</title>
<path fill="none" stroke="#63b8ff" d="M354.134,-158.096C352.704,-159.174 351.322,-160.307 350,-161.5 266.242,-237.05 238.507,-380.792 231.5,-427.461"/>
<polygon fill="#63b8ff" stroke="#63b8ff" points="356.287,-160.874 362.807,-152.522 352.502,-154.985 356.287,-160.874"/>
</g>
<!-- Node15&#45;&gt;Node11 -->
<g id="edge19" class="edge"><title>Node15&#45;&gt;Node11</title>
<path fill="none" stroke="#63b8ff" d="M364.814,-103.088C359.41,-105.926 354.352,-109.355 350,-113.5 255.068,-203.896 234.574,-375.238 230.466,-427.19"/>
<polygon fill="#63b8ff" stroke="#63b8ff" points="366.506,-106.164 374.172,-98.85 363.618,-99.7877 366.506,-106.164"/>
</g>
<!-- Node17 -->
<g id="node17" class="node"><title>Node17</title>
<g id="a_node17"><a xlink:href="classore_1_1data_1_1_commodity_curve.html#a771e0386d3a147f22a46b810d82f4fd3" target="_top" xlink:title="Build commodity piecewise price curve.">
<polygon fill="white" stroke="#666666" points="295.5,-1110.5 161.5,-1110.5 161.5,-1080.5 295.5,-1080.5 295.5,-1110.5"/>
<text text-anchor="start" x="169.5" y="-1098.5" font-family="Helvetica,sans-Serif" font-size="10.00">ore::data::CommodityCurve</text>
<text text-anchor="middle" x="228.5" y="-1087.5" font-family="Helvetica,sans-Serif" font-size="10.00">::buildPiecewiseCurve</text>
</a>
</g>
</g>
<!-- Node16&#45;&gt;Node17 -->
<g id="edge21" class="edge"><title>Node16&#45;&gt;Node17</title>
<path fill="none" stroke="#63b8ff" d="M350.733,-1101.64C332.62,-1100.72 313.441,-1099.75 295.814,-1098.86"/>
<polygon fill="#63b8ff" stroke="#63b8ff" points="350.797,-1105.15 360.961,-1102.16 351.151,-1098.15 350.797,-1105.15"/>
</g>
<!-- Node18&#45;&gt;Node11 -->
<g id="edge23" class="edge"><title>Node18&#45;&gt;Node11</title>
<path fill="none" stroke="#63b8ff" d="M365.193,-640.647C359.795,-638.065 354.632,-635.041 350,-631.5 287.396,-583.643 248.436,-493.239 234.886,-457.543"/>
<polygon fill="#63b8ff" stroke="#63b8ff" points="363.875,-643.89 374.447,-644.587 366.617,-637.449 363.875,-643.89"/>
</g>
<!-- Node19&#45;&gt;Node11 -->
<g id="edge25" class="edge"><title>Node19&#45;&gt;Node11</title>
<path fill="none" stroke="#63b8ff" d="M360.52,-589.518C356.86,-587.693 353.324,-585.692 350,-583.5 298.115,-549.292 255.974,-486.522 238.375,-457.7"/>
<polygon fill="#63b8ff" stroke="#63b8ff" points="359.265,-592.792 369.821,-593.704 362.138,-586.408 359.265,-592.792"/>
</g>
<!-- Node20&#45;&gt;Node11 -->
<g id="edge27" class="edge"><title>Node20&#45;&gt;Node11</title>
<path fill="none" stroke="#63b8ff" d="M367.319,-493.256C361.453,-491.356 355.601,-489.417 350,-487.5 322.428,-478.063 291.653,-466.553 268.106,-457.537"/>
<polygon fill="#63b8ff" stroke="#63b8ff" points="366.573,-496.692 377.164,-496.409 368.708,-490.026 366.573,-496.692"/>
</g>
<!-- Node22 -->
<g id="node22" class="node"><title>Node22</title>
<g id="a_node22"><a xlink:href="classore_1_1data_1_1_default_curve.html#aab7d6b459c59f1a3854a5cefc764f485" target="_top" xlink:title="Detailed constructor.">
<polygon fill="white" stroke="#666666" points="286,-1024.5 171,-1024.5 171,-994.5 286,-994.5 286,-1024.5"/>
<text text-anchor="start" x="179" y="-1012.5" font-family="Helvetica,sans-Serif" font-size="10.00">ore::data::DefaultCurve</text>
<text text-anchor="middle" x="228.5" y="-1001.5" font-family="Helvetica,sans-Serif" font-size="10.00">::DefaultCurve</text>
</a>
</g>
</g>
<!-- Node21&#45;&gt;Node22 -->
<g id="edge29" class="edge"><title>Node21&#45;&gt;Node22</title>
<path fill="none" stroke="#63b8ff" d="M360.119,-977.755C336.087,-983.595 309.234,-990.122 286.156,-995.731"/>
<polygon fill="#63b8ff" stroke="#63b8ff" points="360.984,-981.146 369.875,-975.384 359.331,-974.344 360.984,-981.146"/>
</g>
<!-- Node23&#45;&gt;Node22 -->
<g id="edge32" class="edge"><title>Node23&#45;&gt;Node22</title>
<path fill="none" stroke="#63b8ff" d="M360.597,-1041.36C336.425,-1035.49 309.347,-1028.91 286.104,-1023.26"/>
<polygon fill="#63b8ff" stroke="#63b8ff" points="359.861,-1044.78 370.404,-1043.75 361.514,-1037.98 359.861,-1044.78"/>
</g>
<!-- Node25&#45;&gt;Node7 -->
<g id="edge35" class="edge"><title>Node25&#45;&gt;Node7</title>
<path fill="none" stroke="#63b8ff" d="M170.99,-1238.8C160.348,-1232.79 150.288,-1225.14 143,-1215.5 88.9957,-1144.04 61.5567,-850.578 55.7032,-780.554"/>
<polygon fill="#63b8ff" stroke="#63b8ff" points="169.528,-1241.98 180.019,-1243.47 172.742,-1235.76 169.528,-1241.98"/>
</g>
<!-- Node26&#45;&gt;Node5 -->
<g id="edge37" class="edge"><title>Node26&#45;&gt;Node5</title>
<path fill="none" stroke="#63b8ff" d="M355.235,-844.942C334.259,-850.04 311.524,-855.565 291.229,-860.498"/>
<polygon fill="#63b8ff" stroke="#63b8ff" points="356.161,-848.319 365.052,-842.556 354.508,-841.517 356.161,-848.319"/>
</g>
<!-- Node27&#45;&gt;Node5 -->
<g id="edge39" class="edge"><title>Node27&#45;&gt;Node5</title>
<path fill="none" stroke="#63b8ff" d="M343.429,-875.5C333.719,-875.5 323.809,-875.5 314.086,-875.5"/>
<polygon fill="#63b8ff" stroke="#63b8ff" points="343.458,-879 353.458,-875.5 343.458,-872 343.458,-879"/>
</g>
<!-- Node28&#45;&gt;Node22 -->
<g id="edge41" class="edge"><title>Node28&#45;&gt;Node22</title>
<path fill="none" stroke="#63b8ff" d="M357.312,-1009.5C334.024,-1009.5 308.369,-1009.5 286.194,-1009.5"/>
<polygon fill="#63b8ff" stroke="#63b8ff" points="357.476,-1013 367.476,-1009.5 357.476,-1006 357.476,-1013"/>
</g>
<!-- Node32&#45;&gt;Node7 -->
<g id="edge46" class="edge"><title>Node32&#45;&gt;Node7</title>
<path fill="none" stroke="#63b8ff" d="M165.145,-1134.06C156.891,-1130.58 149.168,-1125.87 143,-1119.5 94.2936,-1069.22 63.7268,-841.932 56.2791,-780.722"/>
<polygon fill="#63b8ff" stroke="#63b8ff" points="164.041,-1137.38 174.635,-1137.49 166.421,-1130.8 164.041,-1137.38"/>
</g>
<!-- Node33&#45;&gt;Node7 -->
<g id="edge48" class="edge"><title>Node33&#45;&gt;Node7</title>
<path fill="none" stroke="#63b8ff" d="M154.265,-779.34C138.44,-777.145 122.009,-774.865 107.157,-772.805"/>
<polygon fill="#63b8ff" stroke="#63b8ff" points="154.168,-782.86 164.554,-780.768 155.129,-775.927 154.168,-782.86"/>
</g>
<!-- Node35 -->
<g id="node35" class="node"><title>Node35</title>
<g id="a_node35"><a xlink:href="classore_1_1data_1_1_yield_curve.html#a1d9d6631f4d2bf32a63b82ce30a2c883" target="_top" xlink:title="Build a yield curve that uses QuantExt::DiscountRatioModifiedCurve.">
<polygon fill="white" stroke="#666666" points="292.5,-756.5 164.5,-756.5 164.5,-726.5 292.5,-726.5 292.5,-756.5"/>
<text text-anchor="start" x="172.5" y="-744.5" font-family="Helvetica,sans-Serif" font-size="10.00">ore::data::YieldCurve</text>
<text text-anchor="middle" x="228.5" y="-733.5" font-family="Helvetica,sans-Serif" font-size="10.00">::buildDiscountRatioCurve</text>
</a>
</g>
</g>
<!-- Node34&#45;&gt;Node35 -->
<g id="edge50" class="edge"><title>Node34&#45;&gt;Node35</title>
<path fill="none" stroke="#63b8ff" d="M364.066,-741.5C341.221,-741.5 315.417,-741.5 292.561,-741.5"/>
<polygon fill="#63b8ff" stroke="#63b8ff" points="364.333,-745 374.333,-741.5 364.333,-738 364.333,-745"/>
</g>
<!-- Node35&#45;&gt;Node7 -->
<g id="edge51" class="edge"><title>Node35&#45;&gt;Node7</title>
<path fill="none" stroke="#63b8ff" d="M153.851,-751.717C138.149,-753.896 121.869,-756.154 107.143,-758.197"/>
<polygon fill="#63b8ff" stroke="#63b8ff" points="154.639,-755.141 164.064,-750.3 153.677,-748.208 154.639,-755.141"/>
</g>
</g>
</svg>
