<?xml version="1.0" encoding="UTF-8" standalone="no"?>
<!DOCTYPE svg PUBLIC "-//W3C//DTD SVG 1.1//EN"
 "http://www.w3.org/Graphics/SVG/1.1/DTD/svg11.dtd">
<!-- Generated by graphviz version 2.38.0 (20140413.2041)
 -->
<!-- Title: toXML Pages: 1 -->
<svg width="878pt" height="240pt"
 viewBox="0.00 0.00 878.00 240.28" xmlns="http://www.w3.org/2000/svg" xmlns:xlink="http://www.w3.org/1999/xlink">
<g id="graph0" class="graph" transform="scale(1 1) rotate(0) translate(4 236.277)">
<title>toXML</title>
<!-- Node1 -->
<g id="node1" class="node"><title>Node1</title>
<g id="a_node1"><a xlink:title=" ">
<polygon fill="#999999" stroke="#666666" points="44,-184.5 0,-184.5 0,-165.5 44,-165.5 44,-184.5"/>
<text text-anchor="middle" x="22" y="-172.5" font-family="Helvetica,sans-Serif" font-size="10.00">toXML</text>
</a>
</g>
</g>
<!-- Node2 -->
<g id="node2" class="node"><title>Node2</title>
<g id="a_node2"><a xlink:href="classore_1_1data_1_1_x_m_l_utils.html#a2ef0bac815571bbcdee4c53a33f8eefb" target="_top" xlink:title=" ">
<polygon fill="white" stroke="#666666" points="391.5,-172 269.5,-172 269.5,-142 391.5,-142 391.5,-172"/>
<text text-anchor="start" x="277.5" y="-160" font-family="Helvetica,sans-Serif" font-size="10.00">ore::data::XMLUtils</text>
<text text-anchor="middle" x="330.5" y="-149" font-family="Helvetica,sans-Serif" font-size="10.00">::addGenericChildAsList</text>
</a>
</g>
</g>
<!-- Node1&#45;&gt;Node2 -->
<g id="edge1" class="edge"><title>Node1&#45;&gt;Node2</title>
<path fill="none" stroke="#63b8ff" d="M44.067,-173.763C87.7669,-171.196 189.986,-165.193 259.46,-161.113"/>
<polygon fill="#63b8ff" stroke="#63b8ff" points="259.685,-164.606 269.462,-160.526 259.274,-157.618 259.685,-164.606"/>
</g>
<!-- Node4 -->
<g id="node4" class="node"><title>Node4</title>
<g id="a_node4"><a xlink:href="classore_1_1data_1_1_x_m_l_document.html#a8717c517803f0df2e693e3cadefeafd7" target="_top" xlink:title="util functions that wrap rapidxml">
<polygon fill="white" stroke="#666666" points="699,-150 575,-150 575,-120 699,-120 699,-150"/>
<text text-anchor="start" x="583" y="-138" font-family="Helvetica,sans-Serif" font-size="10.00">ore::data::XMLDocument</text>
<text text-anchor="middle" x="637" y="-127" font-family="Helvetica,sans-Serif" font-size="10.00">::allocNode</text>
</a>
</g>
</g>
<!-- Node1&#45;&gt;Node4 -->
<g id="edge7" class="edge"><title>Node1&#45;&gt;Node4</title>
<path fill="none" stroke="#63b8ff" d="M31.0749,-184.649C41.1688,-195.878 59.6161,-213.801 80,-221 143.7,-243.497 164.527,-224.344 232,-221 303.82,-217.44 322.383,-218.564 393,-205 459.554,-192.217 534.199,-169.398 582.979,-153.294"/>
<polygon fill="#63b8ff" stroke="#63b8ff" points="584.297,-156.545 592.682,-150.067 582.088,-149.902 584.297,-156.545"/>
</g>
<!-- Node6 -->
<g id="node6" class="node"><title>Node6</title>
<g id="a_node6"><a xlink:href="classore_1_1data_1_1_volatility_surface_config.html#a6433dcfcc954438f6604782ad26aed25" target="_top" xlink:title=" ">
<polygon fill="white" stroke="#666666" points="221.5,-212 90.5,-212 90.5,-182 221.5,-182 221.5,-212"/>
<text text-anchor="start" x="98.5" y="-200" font-family="Helvetica,sans-Serif" font-size="10.00">ore::data::VolatilitySurface</text>
<text text-anchor="middle" x="156" y="-189" font-family="Helvetica,sans-Serif" font-size="10.00">Config::addNodes</text>
</a>
</g>
</g>
<!-- Node1&#45;&gt;Node6 -->
<g id="edge5" class="edge"><title>Node1&#45;&gt;Node6</title>
<path fill="none" stroke="#63b8ff" d="M44.2081,-178.535C54.313,-180.219 67.0703,-182.345 80.3023,-184.55"/>
<polygon fill="#63b8ff" stroke="#63b8ff" points="80.0379,-188.055 90.4773,-186.246 81.1888,-181.15 80.0379,-188.055"/>
</g>
<!-- Node7 -->
<g id="node7" class="node"><title>Node7</title>
<g id="a_node7"><a xlink:href="classore_1_1data_1_1_quote_based_volatility_config.html#a887b346ad1d1be5da030606f708cd3f6" target="_top" xlink:title=" ">
<polygon fill="white" stroke="#666666" points="232,-101 80,-101 80,-71 232,-71 232,-101"/>
<text text-anchor="start" x="88" y="-89" font-family="Helvetica,sans-Serif" font-size="10.00">ore::data::QuoteBasedVolatility</text>
<text text-anchor="middle" x="156" y="-78" font-family="Helvetica,sans-Serif" font-size="10.00">Config::toBaseNode</text>
</a>
</g>
</g>
<!-- Node1&#45;&gt;Node7 -->
<g id="edge8" class="edge"><title>Node1&#45;&gt;Node7</title>
<path fill="none" stroke="#63b8ff" d="M37.1263,-165.475C57.771,-151.556 96.7084,-125.303 124.17,-106.787"/>
<polygon fill="#63b8ff" stroke="#63b8ff" points="126.311,-109.565 132.645,-101.072 122.397,-103.761 126.311,-109.565"/>
</g>
<!-- Node3 -->
<g id="node3" class="node"><title>Node3</title>
<g id="a_node3"><a xlink:href="classore_1_1data_1_1_x_m_l_utils.html#aced1fd4bd35df3642d8022301744b138" target="_top" xlink:title=" ">
<polygon fill="white" stroke="#666666" points="528,-150 429,-150 429,-120 528,-120 528,-150"/>
<text text-anchor="start" x="437" y="-138" font-family="Helvetica,sans-Serif" font-size="10.00">ore::data::XMLUtils</text>
<text text-anchor="middle" x="478.5" y="-127" font-family="Helvetica,sans-Serif" font-size="10.00">::addChild</text>
</a>
</g>
</g>
<!-- Node2&#45;&gt;Node3 -->
<g id="edge2" class="edge"><title>Node2&#45;&gt;Node3</title>
<path fill="none" stroke="#63b8ff" d="M391.727,-147.925C400.744,-146.566 410.03,-145.167 419.01,-143.814"/>
<polygon fill="#63b8ff" stroke="#63b8ff" points="419.622,-147.261 428.989,-142.31 418.579,-140.339 419.622,-147.261"/>
</g>
<!-- Node3&#45;&gt;Node4 -->
<g id="edge3" class="edge"><title>Node3&#45;&gt;Node4</title>
<path fill="none" stroke="#63b8ff" d="M528.16,-135C539.726,-135 552.304,-135 564.652,-135"/>
<polygon fill="#63b8ff" stroke="#63b8ff" points="564.942,-138.5 574.942,-135 564.941,-131.5 564.942,-138.5"/>
</g>
<!-- Node5 -->
<g id="node5" class="node"><title>Node5</title>
<g id="a_node5"><a xlink:href="classore_1_1data_1_1_x_m_l_document.html#ae3474059e483990f3afea260096e5c90" target="_top" xlink:title=" ">
<polygon fill="white" stroke="#666666" points="870,-123 746,-123 746,-93 870,-93 870,-123"/>
<text text-anchor="start" x="754" y="-111" font-family="Helvetica,sans-Serif" font-size="10.00">ore::data::XMLDocument</text>
<text text-anchor="middle" x="808" y="-100" font-family="Helvetica,sans-Serif" font-size="10.00">::allocString</text>
</a>
</g>
</g>
<!-- Node4&#45;&gt;Node5 -->
<g id="edge4" class="edge"><title>Node4&#45;&gt;Node5</title>
<path fill="none" stroke="#63b8ff" d="M699.013,-125.252C710.905,-123.352 723.472,-121.345 735.663,-119.397"/>
<polygon fill="#63b8ff" stroke="#63b8ff" points="736.47,-122.813 745.793,-117.779 735.366,-115.9 736.47,-122.813"/>
</g>
<!-- Node6&#45;&gt;Node3 -->
<g id="edge6" class="edge"><title>Node6&#45;&gt;Node3</title>
<path fill="none" stroke="#63b8ff" d="M221.646,-199.991C269.817,-200.463 336.711,-197.375 393,-181 412.172,-175.423 431.864,-165.024 447.41,-155.523"/>
<polygon fill="#63b8ff" stroke="#63b8ff" points="449.456,-158.37 456.048,-150.076 445.723,-152.449 449.456,-158.37"/>
</g>
<!-- Node7&#45;&gt;Node3 -->
<g id="edge9" class="edge"><title>Node7&#45;&gt;Node3</title>
<path fill="none" stroke="#63b8ff" d="M232.143,-97.4883C289.037,-106.187 366.092,-117.967 418.57,-125.99"/>
<polygon fill="#63b8ff" stroke="#63b8ff" points="418.311,-129.491 428.725,-127.543 419.369,-122.572 418.311,-129.491"/>
</g>
<!-- Node8 -->
<g id="node8" class="node"><title>Node8</title>
<g id="a_node8"><a xlink:href="namespaceore_1_1data.html#a86651dfeb5c18ee891f7a4734d8cf455" target="_top" xlink:title=" ">
<polygon fill="white" stroke="#666666" points="379.5,-67.5 281.5,-67.5 281.5,-48.5 379.5,-48.5 379.5,-67.5"/>
<text text-anchor="middle" x="330.5" y="-55.5" font-family="Helvetica,sans-Serif" font-size="10.00">ore::data::to_string</text>
</a>
</g>
</g>
<!-- Node7&#45;&gt;Node8 -->
<g id="edge10" class="edge"><title>Node7&#45;&gt;Node8</title>
<path fill="none" stroke="#63b8ff" d="M232.159,-73.8002C245.341,-71.6606 258.874,-69.4639 271.5,-67.4146"/>
<polygon fill="#63b8ff" stroke="#63b8ff" points="272.096,-70.8636 281.406,-65.8065 270.975,-63.9541 272.096,-70.8636"/>
</g>
<!-- Node9 -->
<g id="node9" class="node"><title>Node9</title>
<g id="a_node9"><a xlink:href="classore_1_1data_1_1_volatility_config.html#ac4517056339af1a2ae5b94c9df66b545" target="_top" xlink:title=" ">
<polygon fill="white" stroke="#666666" points="393,-30 268,-30 268,-0 393,-0 393,-30"/>
<text text-anchor="start" x="276" y="-18" font-family="Helvetica,sans-Serif" font-size="10.00">ore::data::VolatilityConfig</text>
<text text-anchor="middle" x="330.5" y="-7" font-family="Helvetica,sans-Serif" font-size="10.00">::toXMLNode</text>
</a>
</g>
</g>
<!-- Node7&#45;&gt;Node9 -->
<g id="edge12" class="edge"><title>Node7&#45;&gt;Node9</title>
<path fill="none" stroke="#63b8ff" d="M191.889,-70.9267C213.7,-61.5783 242.412,-49.4077 268,-39 272.174,-37.3024 276.516,-35.5602 280.876,-33.8272"/>
<polygon fill="#63b8ff" stroke="#63b8ff" points="282.378,-36.9974 290.393,-30.0687 279.806,-30.4867 282.378,-36.9974"/>
</g>
<!-- Node8&#45;&gt;Node8 -->
<g id="edge11" class="edge"><title>Node8&#45;&gt;Node8</title>
<path fill="none" stroke="#63b8ff" d="M307.689,-67.5828C296.592,-76.2337 304.195,-85.5 330.5,-85.5 347.351,-85.5 356.528,-81.6971 358.03,-76.6894"/>
<polygon fill="#63b8ff" stroke="#63b8ff" points="361.019,-74.8515 353.311,-67.5828 354.804,-78.0719 361.019,-74.8515"/>
</g>
<!-- Node9&#45;&gt;Node3 -->
<g id="edge16" class="edge"><title>Node9&#45;&gt;Node3</title>
<path fill="none" stroke="#63b8ff" d="M377.437,-30.0751C382.889,-32.6804 388.211,-35.6488 393,-39 421.301,-58.8029 446.41,-89.9886 461.755,-111.41"/>
<polygon fill="#63b8ff" stroke="#63b8ff" points="458.923,-113.468 467.525,-119.653 464.658,-109.454 458.923,-113.468"/>
</g>
<!-- Node10 -->
<g id="node10" class="node"><title>Node10</title>
<g id="a_node10"><a xlink:href="classore_1_1data_1_1_x_m_l_utils.html#a226c81c31def2ba2c853ca803d1fafc5" target="_top" xlink:title=" ">
<polygon fill="white" stroke="#666666" points="528,-40 429,-40 429,-10 528,-10 528,-40"/>
<text text-anchor="start" x="437" y="-28" font-family="Helvetica,sans-Serif" font-size="10.00">ore::data::XMLUtils</text>
<text text-anchor="middle" x="478.5" y="-17" font-family="Helvetica,sans-Serif" font-size="10.00">::addAttribute</text>
</a>
</g>
</g>
<!-- Node9&#45;&gt;Node10 -->
<g id="edge13" class="edge"><title>Node9&#45;&gt;Node10</title>
<path fill="none" stroke="#63b8ff" d="M393.417,-19.2409C401.816,-19.8161 410.415,-20.4051 418.755,-20.9764"/>
<polygon fill="#63b8ff" stroke="#63b8ff" points="418.554,-24.4707 428.77,-21.6623 419.033,-17.4871 418.554,-24.4707"/>
</g>
<!-- Node10&#45;&gt;Node5 -->
<g id="edge14" class="edge"><title>Node10&#45;&gt;Node5</title>
<path fill="none" stroke="#63b8ff" d="M528.176,-37.3363C583.738,-51.4176 675.041,-74.5569 737.942,-90.4983"/>
<polygon fill="#63b8ff" stroke="#63b8ff" points="737.23,-93.9285 747.784,-92.9925 738.95,-87.143 737.23,-93.9285"/>
</g>
<!-- Node11 -->
<g id="node11" class="node"><title>Node11</title>
<g id="a_node11"><a xlink:href="classore_1_1data_1_1_x_m_l_document.html#a46d969cdb00bff64f3f4c0d2975a08d3" target="_top" xlink:title=" ">
<polygon fill="white" stroke="#666666" points="710,-34.5 564,-34.5 564,-15.5 710,-15.5 710,-34.5"/>
<text text-anchor="middle" x="637" y="-22.5" font-family="Helvetica,sans-Serif" font-size="10.00">ore::data::XMLDocument::doc</text>
</a>
</g>
</g>
<!-- Node10&#45;&gt;Node11 -->
<g id="edge15" class="edge"><title>Node10&#45;&gt;Node11</title>
<path fill="none" stroke="#63b8ff" d="M528.16,-25C536.286,-25 544.911,-25 553.605,-25"/>
<polygon fill="#63b8ff" stroke="#63b8ff" points="553.816,-28.5001 563.816,-25 553.816,-21.5001 553.816,-28.5001"/>
</g>
</g>
</svg>
