<?xml version="1.0" encoding="UTF-8" standalone="no"?>
<!DOCTYPE svg PUBLIC "-//W3C//DTD SVG 1.1//EN"
 "http://www.w3.org/Graphics/SVG/1.1/DTD/svg11.dtd">
<!-- Generated by graphviz version 2.38.0 (20140413.2041)
 -->
<!-- Title: CurveConfig Pages: 1 -->
<!--zoomable 621 -->
<svg id="main" version="1.1" xmlns="http://www.w3.org/2000/svg" xmlns:xlink="http://www.w3.org/1999/xlink" xml:space="preserve" onload="init(evt)">
<style type="text/css"><![CDATA[
.edge:hover path { stroke: red; }
.edge:hover polygon { stroke: red; fill: red; }
]]></style>
<script type="text/javascript"><![CDATA[
var edges = document.getElementsByTagName('g');
if (edges && edges.length) {
  for (var i=0;i<edges.length;i++) {
    if (edges[i].id.substr(0,4)=='edge') {
      edges[i].setAttribute('class','edge');
    }
  }
}
]]></script>
        <defs>
                <circle id="rim" cx="0" cy="0" r="7"/>
                <circle id="rim2" cx="0" cy="0" r="3.5"/>
                <g id="zoomPlus">
                        <use xlink:href="#rim" fill="#404040">
                                <set attributeName="fill" to="#808080" begin="zoomplus.mouseover" end="zoomplus.mouseout"/>
                        </use>
                        <path d="M-4,0h8M0,-4v8" fill="none" stroke="white" stroke-width="1.5" pointer-events="none"/>
                </g>
                <g id="zoomMin">
                        <use xlink:href="#rim" fill="#404040">
                                <set attributeName="fill" to="#808080" begin="zoomminus.mouseover" end="zoomminus.mouseout"/>
                        </use>
                        <path d="M-4,0h8" fill="none" stroke="white" stroke-width="1.5" pointer-events="none"/>
                </g>
                <g id="dirArrow">
                        <path fill="none" stroke="white" stroke-width="1.5" d="M0,-3.0v7 M-2.5,-0.5L0,-3.0L2.5,-0.5"/>
                </g>
               <g id="resetDef">
                       <use xlink:href="#rim2" fill="#404040">
                               <set attributeName="fill" to="#808080" begin="reset.mouseover" end="reset.mouseout"/>
                       </use>
               </g>
        </defs>

<script type="text/javascript">
var viewWidth = 584;
var viewHeight = 621;
var sectionId = 'dynsection-1';
</script>
<script xlink:href="svgpan.js"/>
<svg id="graph" class="graph">
<g id="viewport">
<title>CurveConfig</title>
<!-- Node1 -->
<g id="node1" class="node"><title>Node1</title>
<g id="a_node1"><a xlink:title="Base curve configuration.">
<polygon fill="#999999" stroke="#666666" points="241,-217 138,-217 138,-0 241,-0 241,-217"/>
<text text-anchor="middle" x="189.5" y="-205" font-family="Helvetica,sans-Serif" font-size="10.00">{CurveConfig</text>
<text text-anchor="start" x="146" y="-194" font-family="Helvetica,sans-Serif" font-size="10.00">||+ CurveConfig()</text>
<text text-anchor="start" x="146" y="-183" font-family="Helvetica,sans-Serif" font-size="10.00">+ CurveConfig()</text>
<text text-anchor="start" x="146" y="-172" font-family="Helvetica,sans-Serif" font-size="10.00">+ curveID()</text>
<text text-anchor="start" x="146" y="-161" font-family="Helvetica,sans-Serif" font-size="10.00">+ curveDescription()</text>
<text text-anchor="start" x="146" y="-150" font-family="Helvetica,sans-Serif" font-size="10.00">+ requiredCurveIds()</text>
<text text-anchor="start" x="146" y="-139" font-family="Helvetica,sans-Serif" font-size="10.00">+ requiredCurveIds()</text>
<text text-anchor="start" x="146" y="-128" font-family="Helvetica,sans-Serif" font-size="10.00">* curveID()</text>
<text text-anchor="start" x="146" y="-117" font-family="Helvetica,sans-Serif" font-size="10.00">* curveDescription()</text>
<text text-anchor="start" x="146" y="-106" font-family="Helvetica,sans-Serif" font-size="10.00">* requiredCurveIds()</text>
<text text-anchor="start" x="146" y="-95" font-family="Helvetica,sans-Serif" font-size="10.00">* requiredCurveIds()</text>
<text text-anchor="start" x="146" y="-84" font-family="Helvetica,sans-Serif" font-size="10.00">* quotes()</text>
<text text-anchor="start" x="146" y="-73" font-family="Helvetica,sans-Serif" font-size="10.00">* CurveConfig()</text>
<text text-anchor="start" x="146" y="-62" font-family="Helvetica,sans-Serif" font-size="10.00">* CurveConfig()</text>
<text text-anchor="start" x="146" y="-51" font-family="Helvetica,sans-Serif" font-size="10.00">* curveID()</text>
<text text-anchor="start" x="146" y="-40" font-family="Helvetica,sans-Serif" font-size="10.00">* curveDescription()</text>
<text text-anchor="start" x="146" y="-29" font-family="Helvetica,sans-Serif" font-size="10.00">* requiredCurveIds()</text>
<text text-anchor="start" x="146" y="-18" font-family="Helvetica,sans-Serif" font-size="10.00">* requiredCurveIds()</text>
<text text-anchor="middle" x="189.5" y="-7" font-family="Helvetica,sans-Serif" font-size="10.00">}</text>
</a>
</g>
</g>
<!-- Node2 -->
<g id="node2" class="node"><title>Node2</title>
<g id="a_node2"><a xlink:href="classore_1_1data_1_1_x_m_l_serializable.html" target="_top" xlink:title="Base class for all serializable classes.">
<polygon fill="white" stroke="#666666" points="111,-371 0,-371 0,-264 111,-264 111,-371"/>
<text text-anchor="middle" x="55.5" y="-359" font-family="Helvetica,sans-Serif" font-size="10.00">{XMLSerializable</text>
<text text-anchor="start" x="8" y="-348" font-family="Helvetica,sans-Serif" font-size="10.00">||+ ~XMLSerializable()</text>
<text text-anchor="start" x="8" y="-337" font-family="Helvetica,sans-Serif" font-size="10.00">+ fromXML()</text>
<text text-anchor="start" x="8" y="-326" font-family="Helvetica,sans-Serif" font-size="10.00">+ toXML()</text>
<text text-anchor="start" x="8" y="-315" font-family="Helvetica,sans-Serif" font-size="10.00">+ fromFile()</text>
<text text-anchor="start" x="8" y="-304" font-family="Helvetica,sans-Serif" font-size="10.00">+ toFile()</text>
<text text-anchor="start" x="8" y="-293" font-family="Helvetica,sans-Serif" font-size="10.00">+ fromXMLString()</text>
<text text-anchor="start" x="8" y="-282" font-family="Helvetica,sans-Serif" font-size="10.00">+ toXMLString()</text>
<text text-anchor="middle" x="55.5" y="-271" font-family="Helvetica,sans-Serif" font-size="10.00">}</text>
</a>
</g>
</g>
<!-- Node2&#45;&gt;Node1 -->
<g id="edge1" class="edge"><title>Node2&#45;&gt;Node1</title>
<path fill="none" stroke="#63b8ff" d="M94.9271,-255.594C108.353,-234.855 123.567,-211.352 137.807,-189.354"/>
<polygon fill="none" stroke="#63b8ff" points="91.9832,-253.701 89.4871,-263.998 97.8594,-257.505 91.9832,-253.701"/>
</g>
<!-- Node3 -->
<g id="node3" class="node"><title>Node3</title>
<g id="a_node3"><a xlink:title=" ">
<polygon fill="white" stroke="#666666" points="218.5,-536 174.5,-536 174.5,-506 218.5,-506 218.5,-536"/>
<text text-anchor="middle" x="196.5" y="-524" font-family="Helvetica,sans-Serif" font-size="10.00">{string</text>
<text text-anchor="middle" x="196.5" y="-513" font-family="Helvetica,sans-Serif" font-size="10.00">||}</text>
</a>
</g>
</g>
<!-- Node3&#45;&gt;Node1 -->
<g id="edge2" class="edge"><title>Node3&#45;&gt;Node1</title>
<path fill="none" stroke="#404040" d="M185.214,-505.938C170.214,-486.162 144.653,-448.355 136.5,-411 123.46,-351.253 132.85,-284.305 147.141,-228.699"/>
<polygon fill="none" stroke="#404040" points="147.165,-228.606 144.847,-221.778 150.258,-217.012 152.577,-223.84 147.165,-228.606"/>
<text text-anchor="middle" x="179" y="-403" font-family="Helvetica,sans-Serif" font-size="10.00"> #curveDescription_</text>
<text text-anchor="middle" x="179" y="-392" font-family="Helvetica,sans-Serif" font-size="10.00">#curveID_</text>
</g>
<!-- Node5 -->
<g id="node5" class="node"><title>Node5</title>
<g id="a_node5"><a xlink:title=" ">
<polygon fill="white" stroke="#666666" points="255,-459 168,-459 168,-429 255,-429 255,-459"/>
<text text-anchor="middle" x="211.5" y="-447" font-family="Helvetica,sans-Serif" font-size="10.00">{vector&lt; string &gt;</text>
<text text-anchor="middle" x="211.5" y="-436" font-family="Helvetica,sans-Serif" font-size="10.00">||}</text>
</a>
</g>
</g>
<!-- Node3&#45;&gt;Node5 -->
<g id="edge5" class="edge"><title>Node3&#45;&gt;Node5</title>
<path fill="none" stroke="#404040" d="M195.962,-505.9C195.933,-497.43 196.416,-486.489 198.5,-477 198.981,-474.811 199.598,-472.579 200.302,-470.363"/>
<polygon fill="none" stroke="#404040" points="200.354,-470.226 198.741,-463.198 204.608,-459.005 206.221,-466.033 200.354,-470.226"/>
<text text-anchor="middle" x="223" y="-480" font-family="Helvetica,sans-Serif" font-size="10.00"> +elements</text>
</g>
<!-- Node10 -->
<g id="node10" class="node"><title>Node10</title>
<g id="a_node10"><a xlink:title=" ">
<polygon fill="white" stroke="#666666" points="431,-459 356,-459 356,-429 431,-429 431,-459"/>
<text text-anchor="middle" x="393.5" y="-447" font-family="Helvetica,sans-Serif" font-size="10.00">{set&lt; string &gt;</text>
<text text-anchor="middle" x="393.5" y="-436" font-family="Helvetica,sans-Serif" font-size="10.00">||}</text>
</a>
</g>
</g>
<!-- Node3&#45;&gt;Node10 -->
<g id="edge11" class="edge"><title>Node3&#45;&gt;Node10</title>
<path fill="none" stroke="#404040" d="M218.642,-509.377C221.586,-508.149 224.592,-506.986 227.5,-506 260.783,-494.714 271.365,-499.716 304.5,-488 322.336,-481.694 341.315,-472.845 357.145,-464.812"/>
<polygon fill="none" stroke="#404040" points="357.401,-464.68 360.886,-458.367 368.054,-459.156 364.569,-465.469 357.401,-464.68"/>
<text text-anchor="middle" x="345" y="-480" font-family="Helvetica,sans-Serif" font-size="10.00"> +keys</text>
</g>
<!-- Node4 -->
<g id="node4" class="node"><title>Node4</title>
<g id="a_node4"><a xlink:title=" ">
<polygon fill="white" stroke="#666666" points="251.5,-613 141.5,-613 141.5,-583 251.5,-583 251.5,-613"/>
<text text-anchor="middle" x="196.5" y="-601" font-family="Helvetica,sans-Serif" font-size="10.00">{basic_string&lt; Char &gt;</text>
<text text-anchor="middle" x="196.5" y="-590" font-family="Helvetica,sans-Serif" font-size="10.00">||}</text>
</a>
</g>
</g>
<!-- Node4&#45;&gt;Node3 -->
<g id="edge3" class="edge"><title>Node4&#45;&gt;Node3</title>
<path fill="none" stroke="#63b8ff" d="M196.5,-572.541C196.5,-560.451 196.5,-546.294 196.5,-536.044"/>
<polygon fill="none" stroke="#63b8ff" points="193,-572.893 196.5,-582.893 200,-572.893 193,-572.893"/>
</g>
<!-- Node5&#45;&gt;Node1 -->
<g id="edge4" class="edge"><title>Node5&#45;&gt;Node1</title>
<path fill="none" stroke="#404040" d="M219.229,-428.765C221.754,-423.364 224.234,-417.054 225.5,-411 227.502,-401.429 226.126,-398.758 225.5,-389 222.123,-336.339 215.201,-278.439 208.321,-229.061"/>
<polygon fill="none" stroke="#404040" points="208.3,-228.911 203.5,-223.529 206.622,-217.029 211.421,-222.411 208.3,-228.911"/>
<text text-anchor="middle" x="246" y="-315" font-family="Helvetica,sans-Serif" font-size="10.00"> #quotes_</text>
</g>
<!-- Node6 -->
<g id="node6" class="node"><title>Node6</title>
<g id="a_node6"><a xlink:title=" ">
<polygon fill="white" stroke="#666666" points="304.5,-536 236.5,-536 236.5,-506 304.5,-506 304.5,-536"/>
<text text-anchor="middle" x="270.5" y="-524" font-family="Helvetica,sans-Serif" font-size="10.00">{vector&lt; T &gt;</text>
<text text-anchor="middle" x="270.5" y="-513" font-family="Helvetica,sans-Serif" font-size="10.00">||}</text>
</a>
</g>
</g>
<!-- Node6&#45;&gt;Node5 -->
<g id="edge6" class="edge"><title>Node6&#45;&gt;Node5</title>
<path fill="none" stroke="orange" d="M259.826,-496.462C256.337,-489.868 252.149,-482.896 247.5,-477 242.426,-470.565 235.961,-464.367 229.914,-459.168"/>
<polygon fill="orange" stroke="orange" points="256.824,-498.287 264.409,-505.684 263.093,-495.172 256.824,-498.287"/>
<text text-anchor="middle" x="277.5" y="-480" font-family="Helvetica,sans-Serif" font-size="10.00"> &lt; string &gt;</text>
</g>
<!-- Node7 -->
<g id="node7" class="node"><title>Node7</title>
<g id="a_node7"><a xlink:title=" ">
<polygon fill="white" stroke="#666666" points="328,-613 299,-613 299,-583 328,-583 328,-613"/>
<text text-anchor="middle" x="313.5" y="-601" font-family="Helvetica,sans-Serif" font-size="10.00">{T</text>
<text text-anchor="middle" x="313.5" y="-590" font-family="Helvetica,sans-Serif" font-size="10.00">||}</text>
</a>
</g>
</g>
<!-- Node7&#45;&gt;Node6 -->
<g id="edge7" class="edge"><title>Node7&#45;&gt;Node6</title>
<path fill="none" stroke="#404040" d="M298.618,-590.055C289.002,-584.688 277.246,-576.27 271.5,-565 268.912,-559.923 267.778,-554.052 267.461,-548.312"/>
<polygon fill="none" stroke="#404040" points="267.461,-548.306 263.645,-542.187 267.825,-536.312 271.641,-542.43 267.461,-548.306"/>
<text text-anchor="middle" x="296" y="-557" font-family="Helvetica,sans-Serif" font-size="10.00"> +elements</text>
</g>
<!-- Node13 -->
<g id="node13" class="node"><title>Node13</title>
<g id="a_node13"><a xlink:title=" ">
<polygon fill="white" stroke="#666666" points="505.5,-536 431.5,-536 431.5,-506 505.5,-506 505.5,-536"/>
<text text-anchor="middle" x="468.5" y="-524" font-family="Helvetica,sans-Serif" font-size="10.00">{map&lt; K, T &gt;</text>
<text text-anchor="middle" x="468.5" y="-513" font-family="Helvetica,sans-Serif" font-size="10.00">||}</text>
</a>
</g>
</g>
<!-- Node7&#45;&gt;Node13 -->
<g id="edge16" class="edge"><title>Node7&#45;&gt;Node13</title>
<path fill="none" stroke="#404040" d="M324.454,-582.675C332.388,-573.237 343.899,-561.313 356.5,-554 379.818,-540.468 390.707,-543.407 419.427,-536.56"/>
<polygon fill="none" stroke="#404040" points="419.769,-536.47 424.547,-531.069 431.371,-533.402 426.593,-538.803 419.769,-536.47"/>
<text text-anchor="middle" x="381" y="-557" font-family="Helvetica,sans-Serif" font-size="10.00"> +elements</text>
</g>
<!-- Node8 -->
<g id="node8" class="node"><title>Node8</title>
<g id="a_node8"><a xlink:title=" ">
<polygon fill="white" stroke="#666666" points="457.5,-338 309.5,-338 309.5,-297 457.5,-297 457.5,-338"/>
<text text-anchor="start" x="317.5" y="-326" font-family="Helvetica,sans-Serif" font-size="10.00">{map&lt; CurveSpec::CurveType,</text>
<text text-anchor="middle" x="383.5" y="-315" font-family="Helvetica,sans-Serif" font-size="10.00"> set&lt; string &gt; &gt;</text>
<text text-anchor="middle" x="383.5" y="-304" font-family="Helvetica,sans-Serif" font-size="10.00">||}</text>
</a>
</g>
</g>
<!-- Node8&#45;&gt;Node1 -->
<g id="edge8" class="edge"><title>Node8&#45;&gt;Node1</title>
<path fill="none" stroke="#404040" d="M364.898,-296.652C338.602,-268.594 289.346,-216.037 249.711,-173.746"/>
<polygon fill="none" stroke="#404040" points="249.617,-173.645 242.595,-172.003 241.411,-164.889 248.432,-166.532 249.617,-173.645"/>
<text text-anchor="middle" x="357" y="-238" font-family="Helvetica,sans-Serif" font-size="10.00"> #requiredCurveIds_</text>
</g>
<!-- Node9 -->
<g id="node9" class="node"><title>Node9</title>
<g id="a_node9"><a xlink:title=" ">
<polygon fill="white" stroke="#666666" points="338,-459 273,-459 273,-429 338,-429 338,-459"/>
<text text-anchor="middle" x="305.5" y="-447" font-family="Helvetica,sans-Serif" font-size="10.00">{CurveType</text>
<text text-anchor="middle" x="305.5" y="-436" font-family="Helvetica,sans-Serif" font-size="10.00">||}</text>
</a>
</g>
</g>
<!-- Node9&#45;&gt;Node8 -->
<g id="edge9" class="edge"><title>Node9&#45;&gt;Node8</title>
<path fill="none" stroke="#404040" d="M314.448,-428.718C326.632,-409.269 348.748,-373.97 364.672,-348.552"/>
<polygon fill="none" stroke="#404040" points="364.7,-348.508 364.495,-341.3 371.071,-338.339 371.275,-345.547 364.7,-348.508"/>
<text text-anchor="middle" x="353" y="-397.5" font-family="Helvetica,sans-Serif" font-size="10.00"> +keys</text>
</g>
<!-- Node10&#45;&gt;Node8 -->
<g id="edge10" class="edge"><title>Node10&#45;&gt;Node8</title>
<path fill="none" stroke="#404040" d="M392.353,-428.718C390.833,-409.79 388.106,-375.85 386.08,-350.616"/>
<polygon fill="none" stroke="#404040" points="386.054,-350.301 381.587,-344.64 385.094,-338.339 389.561,-344 386.054,-350.301"/>
<text text-anchor="middle" x="415" y="-397.5" font-family="Helvetica,sans-Serif" font-size="10.00"> +elements</text>
</g>
<!-- Node11 -->
<g id="node11" class="node"><title>Node11</title>
<g id="a_node11"><a xlink:title=" ">
<polygon fill="white" stroke="#666666" points="413.5,-536 355.5,-536 355.5,-506 413.5,-506 413.5,-536"/>
<text text-anchor="middle" x="384.5" y="-524" font-family="Helvetica,sans-Serif" font-size="10.00">{set&lt; K &gt;</text>
<text text-anchor="middle" x="384.5" y="-513" font-family="Helvetica,sans-Serif" font-size="10.00">||}</text>
</a>
</g>
</g>
<!-- Node11&#45;&gt;Node10 -->
<g id="edge12" class="edge"><title>Node11&#45;&gt;Node10</title>
<path fill="none" stroke="orange" d="M387.391,-495.911C388.851,-483.74 390.572,-469.398 391.815,-459.044"/>
<polygon fill="orange" stroke="orange" points="383.909,-495.547 386.193,-505.893 390.859,-496.381 383.909,-495.547"/>
<text text-anchor="middle" x="412.5" y="-480" font-family="Helvetica,sans-Serif" font-size="10.00"> &lt; string &gt;</text>
</g>
<!-- Node12 -->
<g id="node12" class="node"><title>Node12</title>
<g id="a_node12"><a xlink:title=" ">
<polygon fill="white" stroke="#666666" points="456,-613 427,-613 427,-583 456,-583 456,-613"/>
<text text-anchor="middle" x="441.5" y="-601" font-family="Helvetica,sans-Serif" font-size="10.00">{K</text>
<text text-anchor="middle" x="441.5" y="-590" font-family="Helvetica,sans-Serif" font-size="10.00">||}</text>
</a>
</g>
</g>
<!-- Node12&#45;&gt;Node11 -->
<g id="edge13" class="edge"><title>Node12&#45;&gt;Node11</title>
<path fill="none" stroke="#404040" d="M430.779,-582.893C422.817,-572.417 411.774,-557.887 402.472,-545.647"/>
<polygon fill="none" stroke="#404040" points="402.434,-545.598 395.619,-543.241 395.173,-536.044 401.988,-538.4 402.434,-545.598"/>
<text text-anchor="middle" x="431" y="-557" font-family="Helvetica,sans-Serif" font-size="10.00"> +keys</text>
</g>
<!-- Node12&#45;&gt;Node13 -->
<g id="edge15" class="edge"><title>Node12&#45;&gt;Node13</title>
<path fill="none" stroke="#404040" d="M446.578,-582.893C450.161,-572.941 455.061,-559.33 459.32,-547.499"/>
<polygon fill="none" stroke="#404040" points="459.38,-547.334 457.648,-540.334 463.444,-536.044 465.175,-543.044 459.38,-547.334"/>
<text text-anchor="middle" x="472" y="-557" font-family="Helvetica,sans-Serif" font-size="10.00"> +keys</text>
</g>
<!-- Node13&#45;&gt;Node8 -->
<g id="edge14" class="edge"><title>Node13&#45;&gt;Node8</title>
<path fill="none" stroke="orange" d="M467.565,-495.719C465.697,-468.514 460.12,-423.685 443.5,-389 434.194,-369.578 418.191,-351.172 405.051,-338.04"/>
<polygon fill="orange" stroke="orange" points="464.081,-496.103 468.145,-505.887 471.07,-495.704 464.081,-496.103"/>
<text text-anchor="start" x="462.5" y="-447" font-family="Helvetica,sans-Serif" font-size="10.00"> &lt; CurveSpec::CurveType,</text>
<text text-anchor="middle" x="519" y="-436" font-family="Helvetica,sans-Serif" font-size="10.00"> set&lt; string &gt; &gt;</text>
</g>
</g>
</svg>
        <g id="navigator" transform="translate(0 0)" fill="#404254">
                <rect fill="#f2f5e9" fill-opacity="0.5" stroke="#606060" stroke-width=".5" x="0" y="0" width="60" height="60"/>
                <use id="zoomplus" xlink:href="#zoomPlus" x="17" y="9" onmousedown="handleZoom(evt,'in')"/>
                <use id="zoomminus" xlink:href="#zoomMin" x="42" y="9" onmousedown="handleZoom(evt,'out')"/>
                <use id="reset" xlink:href="#resetDef" x="30" y="36" onmousedown="handleReset()"/>
                <g id="arrowUp" xlink:href="#dirArrow" transform="translate(30 24)" onmousedown="handlePan(0,-1)">
                  <use xlink:href="#rim" fill="#404040">
                        <set attributeName="fill" to="#808080" begin="arrowUp.mouseover" end="arrowUp.mouseout"/>
                  </use>
                  <path fill="none" stroke="white" stroke-width="1.5" d="M0,-3.0v7 M-2.5,-0.5L0,-3.0L2.5,-0.5"/>
                </g>
                <g id="arrowRight" xlink:href="#dirArrow" transform="rotate(90) translate(36 -43)" onmousedown="handlePan(1,0)">
                  <use xlink:href="#rim" fill="#404040">
                        <set attributeName="fill" to="#808080" begin="arrowRight.mouseover" end="arrowRight.mouseout"/>
                  </use>
                  <path fill="none" stroke="white" stroke-width="1.5" d="M0,-3.0v7 M-2.5,-0.5L0,-3.0L2.5,-0.5"/>
                </g>
                <g id="arrowDown" xlink:href="#dirArrow" transform="rotate(180) translate(-30 -48)" onmousedown="handlePan(0,1)">
                  <use xlink:href="#rim" fill="#404040">
                        <set attributeName="fill" to="#808080" begin="arrowDown.mouseover" end="arrowDown.mouseout"/>
                  </use>
                  <path fill="none" stroke="white" stroke-width="1.5" d="M0,-3.0v7 M-2.5,-0.5L0,-3.0L2.5,-0.5"/>
                </g>
                <g id="arrowLeft" xlink:href="#dirArrow" transform="rotate(270) translate(-36 17)" onmousedown="handlePan(-1,0)">
                  <use xlink:href="#rim" fill="#404040">
                        <set attributeName="fill" to="#808080" begin="arrowLeft.mouseover" end="arrowLeft.mouseout"/>
                  </use>
                  <path fill="none" stroke="white" stroke-width="1.5" d="M0,-3.0v7 M-2.5,-0.5L0,-3.0L2.5,-0.5"/>
                </g>
        </g>
        <svg viewBox="0 0 15 15" width="100%" height="30px" preserveAspectRatio="xMaxYMin meet">
         <g id="arrow_out" transform="scale(0.3 0.3)">
          <a xlink:href="classore_1_1data_1_1_curve_config__coll__graph_org.svg" target="_base">
           <rect id="button" ry="5" rx="5" y="6" x="6" height="38" width="38"
                fill="#f2f5e9" fill-opacity="0.5" stroke="#606060" stroke-width="1.0"/>
           <path id="arrow"
             d="M 11.500037,31.436501 C 11.940474,20.09759 22.043105,11.32322 32.158766,21.979434 L 37.068811,17.246167 C 37.068811,17.246167 37.088388,32 37.088388,32 L 22.160133,31.978069 C 22.160133,31.978069 26.997745,27.140456 26.997745,27.140456 C 18.528582,18.264221 13.291696,25.230495 11.500037,31.436501 z"
             style="fill:#404040;"/>
          </a>
         </g>
        </svg>
</svg>
