<?xml version="1.0" encoding="UTF-8" standalone="no"?>
<!DOCTYPE svg PUBLIC "-//W3C//DTD SVG 1.1//EN"
 "http://www.w3.org/Graphics/SVG/1.1/DTD/svg11.dtd">
<!-- Generated by graphviz version 2.38.0 (20140413.2041)
 -->
<!-- Title: peakPriceCurveId Pages: 1 -->
<svg width="440pt" height="38pt"
 viewBox="0.00 0.00 440.00 38.00" xmlns="http://www.w3.org/2000/svg" xmlns:xlink="http://www.w3.org/1999/xlink">
<g id="graph0" class="graph" transform="scale(1 1) rotate(0) translate(4 34)">
<title>peakPriceCurveId</title>
<!-- Node1 -->
<g id="node1" class="node"><title>Node1</title>
<g id="a_node1"><a xlink:title=" ">
<polygon fill="#999999" stroke="#666666" points="432,-24.5 340,-24.5 340,-5.5 432,-5.5 432,-24.5"/>
<text text-anchor="middle" x="386" y="-12.5" font-family="Helvetica,sans-Serif" font-size="10.00">peakPriceCurveId</text>
</a>
</g>
</g>
<!-- Node2 -->
<g id="node2" class="node"><title>Node2</title>
<g id="a_node2"><a xlink:href="classore_1_1data_1_1_commodity_curve.html#afb12407f81eadbfd2463e61f4898c7ac" target="_top" xlink:title=" ">
<polygon fill="white" stroke="#666666" points="304,-30 170,-30 170,-0 304,-0 304,-30"/>
<text text-anchor="start" x="178" y="-18" font-family="Helvetica,sans-Serif" font-size="10.00">ore::data::CommodityCurve</text>
<text text-anchor="middle" x="237" y="-7" font-family="Helvetica,sans-Serif" font-size="10.00">::addInstruments</text>
</a>
</g>
</g>
<!-- Node1&#45;&gt;Node2 -->
<g id="edge1" class="edge"><title>Node1&#45;&gt;Node2</title>
<path fill="none" stroke="#63b8ff" d="M329.464,-15C321.224,-15 312.663,-15 304.231,-15"/>
<polygon fill="#63b8ff" stroke="#63b8ff" points="329.696,-18.5001 339.696,-15 329.696,-11.5001 329.696,-18.5001"/>
</g>
<!-- Node3 -->
<g id="node3" class="node"><title>Node3</title>
<g id="a_node3"><a xlink:href="classore_1_1data_1_1_commodity_curve.html#a771e0386d3a147f22a46b810d82f4fd3" target="_top" xlink:title="Build commodity piecewise price curve.">
<polygon fill="white" stroke="#666666" points="134,-30 0,-30 0,-0 134,-0 134,-30"/>
<text text-anchor="start" x="8" y="-18" font-family="Helvetica,sans-Serif" font-size="10.00">ore::data::CommodityCurve</text>
<text text-anchor="middle" x="67" y="-7" font-family="Helvetica,sans-Serif" font-size="10.00">::buildPiecewiseCurve</text>
</a>
</g>
</g>
<!-- Node2&#45;&gt;Node3 -->
<g id="edge2" class="edge"><title>Node2&#45;&gt;Node3</title>
<path fill="none" stroke="#63b8ff" d="M159.405,-15C150.987,-15 142.468,-15 134.191,-15"/>
<polygon fill="#63b8ff" stroke="#63b8ff" points="159.602,-18.5001 169.602,-15 159.602,-11.5001 159.602,-18.5001"/>
</g>
</g>
</svg>
