<?xml version="1.0" encoding="UTF-8" standalone="no"?>
<!DOCTYPE svg PUBLIC "-//W3C//DTD SVG 1.1//EN"
 "http://www.w3.org/Graphics/SVG/1.1/DTD/svg11.dtd">
<!-- Generated by graphviz version 2.38.0 (20140413.2041)
 -->
<!-- Title: toXML Pages: 1 -->
<!--zoomable 449 -->
<svg id="main" version="1.1" xmlns="http://www.w3.org/2000/svg" xmlns:xlink="http://www.w3.org/1999/xlink" xml:space="preserve" onload="init(evt)">
<style type="text/css"><![CDATA[
.edge:hover path { stroke: red; }
.edge:hover polygon { stroke: red; fill: red; }
]]></style>
<script type="text/javascript"><![CDATA[
var edges = document.getElementsByTagName('g');
if (edges && edges.length) {
  for (var i=0;i<edges.length;i++) {
    if (edges[i].id.substr(0,4)=='edge') {
      edges[i].setAttribute('class','edge');
    }
  }
}
]]></script>
        <defs>
                <circle id="rim" cx="0" cy="0" r="7"/>
                <circle id="rim2" cx="0" cy="0" r="3.5"/>
                <g id="zoomPlus">
                        <use xlink:href="#rim" fill="#404040">
                                <set attributeName="fill" to="#808080" begin="zoomplus.mouseover" end="zoomplus.mouseout"/>
                        </use>
                        <path d="M-4,0h8M0,-4v8" fill="none" stroke="white" stroke-width="1.5" pointer-events="none"/>
                </g>
                <g id="zoomMin">
                        <use xlink:href="#rim" fill="#404040">
                                <set attributeName="fill" to="#808080" begin="zoomminus.mouseover" end="zoomminus.mouseout"/>
                        </use>
                        <path d="M-4,0h8" fill="none" stroke="white" stroke-width="1.5" pointer-events="none"/>
                </g>
                <g id="dirArrow">
                        <path fill="none" stroke="white" stroke-width="1.5" d="M0,-3.0v7 M-2.5,-0.5L0,-3.0L2.5,-0.5"/>
                </g>
               <g id="resetDef">
                       <use xlink:href="#rim2" fill="#404040">
                               <set attributeName="fill" to="#808080" begin="reset.mouseover" end="reset.mouseout"/>
                       </use>
               </g>
        </defs>

<script type="text/javascript">
var viewWidth = 580;
var viewHeight = 449;
var sectionId = 'dynsection-3';
</script>
<script xlink:href="svgpan.js"/>
<svg id="graph" class="graph">
<g id="viewport">
<title>toXML</title>
<!-- Node1 -->
<g id="node1" class="node"><title>Node1</title>
<g id="a_node1"><a xlink:title=" ">
<polygon fill="#999999" stroke="#666666" points="44,-235.5 0,-235.5 0,-216.5 44,-216.5 44,-235.5"/>
<text text-anchor="middle" x="22" y="-223.5" font-family="Helvetica,sans-Serif" font-size="10.00">toXML</text>
</a>
</g>
</g>
<!-- Node2 -->
<g id="node2" class="node"><title>Node2</title>
<g id="a_node2"><a xlink:href="classore_1_1data_1_1_x_m_l_utils.html#aced1fd4bd35df3642d8022301744b138" target="_top" xlink:title=" ">
<polygon fill="white" stroke="#666666" points="215.5,-30 116.5,-30 116.5,-0 215.5,-0 215.5,-30"/>
<text text-anchor="start" x="124.5" y="-18" font-family="Helvetica,sans-Serif" font-size="10.00">ore::data::XMLUtils</text>
<text text-anchor="middle" x="166" y="-7" font-family="Helvetica,sans-Serif" font-size="10.00">::addChild</text>
</a>
</g>
</g>
<!-- Node1&#45;&gt;Node2 -->
<g id="edge1" class="edge"><title>Node1&#45;&gt;Node2</title>
<path fill="none" stroke="#63b8ff" d="M22.9131,-216.226C23.1911,-185.45 28.356,-89.5871 80,-39 87.3119,-31.8377 96.5897,-26.7788 106.311,-23.2132"/>
<polygon fill="#63b8ff" stroke="#63b8ff" points="107.637,-26.4652 116.124,-20.1229 105.534,-19.7885 107.637,-26.4652"/>
</g>
<!-- Node3 -->
<g id="node3" class="node"><title>Node3</title>
<g id="a_node3"><a xlink:href="classore_1_1data_1_1_x_m_l_document.html#a8717c517803f0df2e693e3cadefeafd7" target="_top" xlink:title="util functions that wrap rapidxml">
<polygon fill="white" stroke="#666666" points="412,-193 288,-193 288,-163 412,-163 412,-193"/>
<text text-anchor="start" x="296" y="-181" font-family="Helvetica,sans-Serif" font-size="10.00">ore::data::XMLDocument</text>
<text text-anchor="middle" x="350" y="-170" font-family="Helvetica,sans-Serif" font-size="10.00">::allocNode</text>
</a>
</g>
</g>
<!-- Node1&#45;&gt;Node3 -->
<g id="edge6" class="edge"><title>Node1&#45;&gt;Node3</title>
<path fill="none" stroke="#63b8ff" d="M25.5005,-216.362C31.2422,-196.474 47.4498,-151.227 80,-133 155.025,-90.9879 258.969,-131.223 313.053,-158.16"/>
<polygon fill="#63b8ff" stroke="#63b8ff" points="311.74,-161.419 322.238,-162.847 314.922,-155.184 311.74,-161.419"/>
</g>
<!-- Node5 -->
<g id="node5" class="node"><title>Node5</title>
<g id="a_node5"><a xlink:href="classore_1_1data_1_1_x_m_l_utils.html#a60e5b2e453d4610d7ce2ff455d564404" target="_top" xlink:title=" ">
<polygon fill="white" stroke="#666666" points="252,-354 80,-354 80,-324 252,-324 252,-354"/>
<text text-anchor="start" x="88" y="-342" font-family="Helvetica,sans-Serif" font-size="10.00">ore::data::XMLUtils</text>
<text text-anchor="middle" x="166" y="-331" font-family="Helvetica,sans-Serif" font-size="10.00">::addChildrenWithOptionalAttributes</text>
</a>
</g>
</g>
<!-- Node1&#45;&gt;Node5 -->
<g id="edge4" class="edge"><title>Node1&#45;&gt;Node5</title>
<path fill="none" stroke="#63b8ff" d="M26.4894,-235.684C33.6033,-254.031 51.557,-293.903 80,-315 82.0475,-316.519 84.1876,-317.941 86.3995,-319.274"/>
<polygon fill="#63b8ff" stroke="#63b8ff" points="84.7719,-322.373 95.2439,-323.981 88.0607,-316.193 84.7719,-322.373"/>
</g>
<!-- Node6 -->
<g id="node6" class="node"><title>Node6</title>
<g id="a_node6"><a xlink:href="classore_1_1data_1_1_x_m_l_utils.html#ae646b9cdf949a88f35c36c18bf90b370" target="_top" xlink:title=" ">
<polygon fill="white" stroke="#666666" points="399.5,-331 300.5,-331 300.5,-301 399.5,-301 399.5,-331"/>
<text text-anchor="start" x="308.5" y="-319" font-family="Helvetica,sans-Serif" font-size="10.00">ore::data::XMLUtils</text>
<text text-anchor="middle" x="350" y="-308" font-family="Helvetica,sans-Serif" font-size="10.00">::appendNode</text>
</a>
</g>
</g>
<!-- Node1&#45;&gt;Node6 -->
<g id="edge7" class="edge"><title>Node1&#45;&gt;Node6</title>
<path fill="none" stroke="#63b8ff" d="M23.0768,-235.878C23.8985,-264.317 30.6212,-346.547 80,-381 142.692,-424.743 178.862,-403.239 252,-381 279.876,-372.524 307.027,-353.076 325.48,-337.648"/>
<polygon fill="#63b8ff" stroke="#63b8ff" points="327.778,-340.288 333.075,-331.112 323.212,-334.982 327.778,-340.288"/>
</g>
<!-- Node7 -->
<g id="node7" class="node"><title>Node7</title>
<g id="a_node7"><a target="_parent" xlink:href="../qle/namespace_quant_ext_1_1_zero_inflation.html#a57de786c1c8988b6da9d354282b4b370" xlink:title=" ">
<polygon fill="white" stroke="#666666" points="195.5,-257.5 136.5,-257.5 136.5,-238.5 195.5,-238.5 195.5,-257.5"/>
<text text-anchor="middle" x="166" y="-245.5" font-family="Helvetica,sans-Serif" font-size="10.00">fixingDate</text>
</a>
</g>
</g>
<!-- Node1&#45;&gt;Node7 -->
<g id="edge8" class="edge"><title>Node1&#45;&gt;Node7</title>
<path fill="none" stroke="#63b8ff" d="M44.2588,-229.294C65.9108,-232.648 99.9656,-237.924 126.396,-242.019"/>
<polygon fill="#63b8ff" stroke="#63b8ff" points="126.054,-245.508 136.472,-243.58 127.125,-238.59 126.054,-245.508"/>
</g>
<!-- Node8 -->
<g id="node8" class="node"><title>Node8</title>
<g id="a_node8"><a xlink:href="classore_1_1data_1_1_schedule_data.html#a314b19ebe3b2ce78e9df49fee95c21dd" target="_top" xlink:title="Check if has any dates/rules/derived schedules.">
<polygon fill="white" stroke="#666666" points="227,-220 105,-220 105,-190 227,-190 227,-220"/>
<text text-anchor="start" x="113" y="-208" font-family="Helvetica,sans-Serif" font-size="10.00">ore::data::ScheduleData</text>
<text text-anchor="middle" x="166" y="-197" font-family="Helvetica,sans-Serif" font-size="10.00">::hasData</text>
</a>
</g>
</g>
<!-- Node1&#45;&gt;Node8 -->
<g id="edge9" class="edge"><title>Node1&#45;&gt;Node8</title>
<path fill="none" stroke="#63b8ff" d="M44.2588,-222.856C57.9001,-220.839 76.4643,-218.093 94.9433,-215.361"/>
<polygon fill="#63b8ff" stroke="#63b8ff" points="95.4889,-218.818 104.869,-213.893 94.4648,-211.893 95.4889,-218.818"/>
</g>
<!-- Node9 -->
<g id="node9" class="node"><title>Node9</title>
<g id="a_node9"><a xlink:href="classore_1_1data_1_1_leg_additional_data.html#a3d64443d0286cde7f8dc6bc41efb78d0" target="_top" xlink:title=" ">
<polygon fill="white" stroke="#666666" points="225.5,-172 106.5,-172 106.5,-142 225.5,-142 225.5,-172"/>
<text text-anchor="start" x="114.5" y="-160" font-family="Helvetica,sans-Serif" font-size="10.00">ore::data::LegAdditional</text>
<text text-anchor="middle" x="166" y="-149" font-family="Helvetica,sans-Serif" font-size="10.00">Data::legNodeName</text>
</a>
</g>
</g>
<!-- Node1&#45;&gt;Node9 -->
<g id="edge10" class="edge"><title>Node1&#45;&gt;Node9</title>
<path fill="none" stroke="#63b8ff" d="M32.6572,-216.383C43.3687,-206.222 61.5812,-190.396 80,-181 85.2502,-178.322 90.8401,-175.906 96.5492,-173.736"/>
<polygon fill="#63b8ff" stroke="#63b8ff" points="97.971,-176.945 106.231,-170.31 95.6362,-170.346 97.971,-176.945"/>
</g>
<!-- Node10 -->
<g id="node10" class="node"><title>Node10</title>
<g id="a_node10"><a xlink:href="classore_1_1data_1_1_x_m_l_utils.html#ac1ace6a9e07990c65081057f2ecdf164" target="_top" xlink:title=" ">
<polygon fill="white" stroke="#666666" points="399.5,-428 300.5,-428 300.5,-398 399.5,-398 399.5,-428"/>
<text text-anchor="start" x="308.5" y="-416" font-family="Helvetica,sans-Serif" font-size="10.00">ore::data::XMLUtils</text>
<text text-anchor="middle" x="350" y="-405" font-family="Helvetica,sans-Serif" font-size="10.00">::setNodeName</text>
</a>
</g>
</g>
<!-- Node1&#45;&gt;Node10 -->
<g id="edge11" class="edge"><title>Node1&#45;&gt;Node10</title>
<path fill="none" stroke="#63b8ff" d="M22.5466,-235.599C21.6691,-266.629 23.6196,-364.67 80,-407 140.209,-452.204 231.232,-442.866 290.402,-429.747"/>
<polygon fill="#63b8ff" stroke="#63b8ff" points="291.389,-433.111 300.339,-427.441 289.807,-426.292 291.389,-433.111"/>
</g>
<!-- Node11 -->
<g id="node11" class="node"><title>Node11</title>
<g id="a_node11"><a xlink:href="namespaceore_1_1data.html#a86651dfeb5c18ee891f7a4734d8cf455" target="_top" xlink:title=" ">
<polygon fill="white" stroke="#666666" points="215,-67.5 117,-67.5 117,-48.5 215,-48.5 215,-67.5"/>
<text text-anchor="middle" x="166" y="-55.5" font-family="Helvetica,sans-Serif" font-size="10.00">ore::data::to_string</text>
</a>
</g>
</g>
<!-- Node1&#45;&gt;Node11 -->
<g id="edge13" class="edge"><title>Node1&#45;&gt;Node11</title>
<path fill="none" stroke="#63b8ff" d="M25.0397,-216.201C30.2918,-193.162 46.2959,-134.873 80,-100 92.1253,-87.454 108.782,-78.0969 124.14,-71.4388"/>
<polygon fill="#63b8ff" stroke="#63b8ff" points="125.538,-74.6485 133.481,-67.6376 122.9,-68.1647 125.538,-74.6485"/>
</g>
<!-- Node12 -->
<g id="node12" class="node"><title>Node12</title>
<g id="a_node12"><a xlink:href="classore_1_1data_1_1_schedule_data.html#a7efefb9270d6c4933e4c96de0771f17a" target="_top" xlink:title=" ">
<polygon fill="white" stroke="#666666" points="227,-306 105,-306 105,-276 227,-276 227,-306"/>
<text text-anchor="start" x="113" y="-294" font-family="Helvetica,sans-Serif" font-size="10.00">ore::data::ScheduleData</text>
<text text-anchor="middle" x="166" y="-283" font-family="Helvetica,sans-Serif" font-size="10.00">::toXML</text>
</a>
</g>
</g>
<!-- Node1&#45;&gt;Node12 -->
<g id="edge15" class="edge"><title>Node1&#45;&gt;Node12</title>
<path fill="none" stroke="#63b8ff" d="M34.5201,-235.795C45.5601,-244.751 63.0097,-257.814 80,-266 84.8501,-268.337 89.9629,-270.502 95.1758,-272.499"/>
<polygon fill="#63b8ff" stroke="#63b8ff" points="94.0377,-275.809 104.632,-275.911 96.4141,-269.224 94.0377,-275.809"/>
</g>
<!-- Node2&#45;&gt;Node3 -->
<g id="edge2" class="edge"><title>Node2&#45;&gt;Node3</title>
<path fill="none" stroke="#63b8ff" d="M215.895,-22.7058C228.441,-26.2603 241.38,-31.4444 252,-39 293.758,-68.7081 323.592,-122.323 338.4,-153.57"/>
<polygon fill="#63b8ff" stroke="#63b8ff" points="335.319,-155.247 342.676,-162.871 341.679,-152.323 335.319,-155.247"/>
</g>
<!-- Node4 -->
<g id="node4" class="node"><title>Node4</title>
<g id="a_node4"><a xlink:href="classore_1_1data_1_1_x_m_l_document.html#ae3474059e483990f3afea260096e5c90" target="_top" xlink:title=" ">
<polygon fill="white" stroke="#666666" points="572,-330 448,-330 448,-300 572,-300 572,-330"/>
<text text-anchor="start" x="456" y="-318" font-family="Helvetica,sans-Serif" font-size="10.00">ore::data::XMLDocument</text>
<text text-anchor="middle" x="510" y="-307" font-family="Helvetica,sans-Serif" font-size="10.00">::allocString</text>
</a>
</g>
</g>
<!-- Node3&#45;&gt;Node4 -->
<g id="edge3" class="edge"><title>Node3&#45;&gt;Node4</title>
<path fill="none" stroke="#63b8ff" d="M368.512,-193.185C396.511,-217.462 451.474,-265.12 483.728,-293.087"/>
<polygon fill="#63b8ff" stroke="#63b8ff" points="481.561,-295.84 491.409,-299.747 486.147,-290.552 481.561,-295.84"/>
</g>
<!-- Node5&#45;&gt;Node5 -->
<g id="edge5" class="edge"><title>Node5&#45;&gt;Node5</title>
<path fill="none" stroke="#63b8ff" d="M140.688,-354.275C135.063,-363.406 143.5,-372 166,-372 179.359,-372 187.761,-368.97 191.205,-364.598"/>
<polygon fill="#63b8ff" stroke="#63b8ff" points="194.708,-364.311 191.313,-354.275 187.709,-364.238 194.708,-364.311"/>
</g>
<!-- Node10&#45;&gt;Node4 -->
<g id="edge12" class="edge"><title>Node10&#45;&gt;Node4</title>
<path fill="none" stroke="#63b8ff" d="M375.341,-397.902C402.249,-381.213 445.75,-354.231 475.778,-335.606"/>
<polygon fill="#63b8ff" stroke="#63b8ff" points="477.978,-338.36 484.631,-330.115 474.288,-332.412 477.978,-338.36"/>
</g>
<!-- Node11&#45;&gt;Node11 -->
<g id="edge14" class="edge"><title>Node11&#45;&gt;Node11</title>
<path fill="none" stroke="#63b8ff" d="M143.805,-67.5828C133.008,-76.2337 140.406,-85.5 166,-85.5 182.396,-85.5 191.325,-81.6971 192.786,-76.6894"/>
<polygon fill="#63b8ff" stroke="#63b8ff" points="195.822,-74.9366 188.195,-67.5828 189.571,-78.0879 195.822,-74.9366"/>
</g>
<!-- Node12&#45;&gt;Node3 -->
<g id="edge16" class="edge"><title>Node12&#45;&gt;Node3</title>
<path fill="none" stroke="#63b8ff" d="M227.374,-276.945C235.899,-273.911 244.354,-270.291 252,-266 282.498,-248.884 311.364,-220.569 329.549,-200.69"/>
<polygon fill="#63b8ff" stroke="#63b8ff" points="332.368,-202.789 336.434,-193.006 327.154,-198.118 332.368,-202.789"/>
</g>
<!-- Node12&#45;&gt;Node6 -->
<g id="edge17" class="edge"><title>Node12&#45;&gt;Node6</title>
<path fill="none" stroke="#63b8ff" d="M227.098,-299.255C247.47,-302.054 270.187,-305.174 290.438,-307.956"/>
<polygon fill="#63b8ff" stroke="#63b8ff" points="290.085,-311.44 300.468,-309.334 291.038,-304.505 290.085,-311.44"/>
</g>
</g>
</svg>
        <g id="navigator" transform="translate(0 0)" fill="#404254">
                <rect fill="#f2f5e9" fill-opacity="0.5" stroke="#606060" stroke-width=".5" x="0" y="0" width="60" height="60"/>
                <use id="zoomplus" xlink:href="#zoomPlus" x="17" y="9" onmousedown="handleZoom(evt,'in')"/>
                <use id="zoomminus" xlink:href="#zoomMin" x="42" y="9" onmousedown="handleZoom(evt,'out')"/>
                <use id="reset" xlink:href="#resetDef" x="30" y="36" onmousedown="handleReset()"/>
                <g id="arrowUp" xlink:href="#dirArrow" transform="translate(30 24)" onmousedown="handlePan(0,-1)">
                  <use xlink:href="#rim" fill="#404040">
                        <set attributeName="fill" to="#808080" begin="arrowUp.mouseover" end="arrowUp.mouseout"/>
                  </use>
                  <path fill="none" stroke="white" stroke-width="1.5" d="M0,-3.0v7 M-2.5,-0.5L0,-3.0L2.5,-0.5"/>
                </g>
                <g id="arrowRight" xlink:href="#dirArrow" transform="rotate(90) translate(36 -43)" onmousedown="handlePan(1,0)">
                  <use xlink:href="#rim" fill="#404040">
                        <set attributeName="fill" to="#808080" begin="arrowRight.mouseover" end="arrowRight.mouseout"/>
                  </use>
                  <path fill="none" stroke="white" stroke-width="1.5" d="M0,-3.0v7 M-2.5,-0.5L0,-3.0L2.5,-0.5"/>
                </g>
                <g id="arrowDown" xlink:href="#dirArrow" transform="rotate(180) translate(-30 -48)" onmousedown="handlePan(0,1)">
                  <use xlink:href="#rim" fill="#404040">
                        <set attributeName="fill" to="#808080" begin="arrowDown.mouseover" end="arrowDown.mouseout"/>
                  </use>
                  <path fill="none" stroke="white" stroke-width="1.5" d="M0,-3.0v7 M-2.5,-0.5L0,-3.0L2.5,-0.5"/>
                </g>
                <g id="arrowLeft" xlink:href="#dirArrow" transform="rotate(270) translate(-36 17)" onmousedown="handlePan(-1,0)">
                  <use xlink:href="#rim" fill="#404040">
                        <set attributeName="fill" to="#808080" begin="arrowLeft.mouseover" end="arrowLeft.mouseout"/>
                  </use>
                  <path fill="none" stroke="white" stroke-width="1.5" d="M0,-3.0v7 M-2.5,-0.5L0,-3.0L2.5,-0.5"/>
                </g>
        </g>
        <svg viewBox="0 0 15 15" width="100%" height="30px" preserveAspectRatio="xMaxYMin meet">
         <g id="arrow_out" transform="scale(0.3 0.3)">
          <a xlink:href="classore_1_1data_1_1_floating_leg_data_a7efefb9270d6c4933e4c96de0771f17a_cgraph_org.svg" target="_base">
           <rect id="button" ry="5" rx="5" y="6" x="6" height="38" width="38"
                fill="#f2f5e9" fill-opacity="0.5" stroke="#606060" stroke-width="1.0"/>
           <path id="arrow"
             d="M 11.500037,31.436501 C 11.940474,20.09759 22.043105,11.32322 32.158766,21.979434 L 37.068811,17.246167 C 37.068811,17.246167 37.088388,32 37.088388,32 L 22.160133,31.978069 C 22.160133,31.978069 26.997745,27.140456 26.997745,27.140456 C 18.528582,18.264221 13.291696,25.230495 11.500037,31.436501 z"
             style="fill:#404040;"/>
          </a>
         </g>
        </svg>
</svg>
