<?xml version="1.0" encoding="UTF-8" standalone="no"?>
<!DOCTYPE svg PUBLIC "-//W3C//DTD SVG 1.1//EN"
 "http://www.w3.org/Graphics/SVG/1.1/DTD/svg11.dtd">
<!-- Generated by graphviz version 2.38.0 (20140413.2041)
 -->
<!-- Title: EquityVolatilityCurveConfig Pages: 1 -->
<svg width="491pt" height="64pt"
 viewBox="0.00 0.00 491.00 64.00" xmlns="http://www.w3.org/2000/svg" xmlns:xlink="http://www.w3.org/1999/xlink">
<g id="graph0" class="graph" transform="scale(1 1) rotate(0) translate(4 60)">
<title>EquityVolatilityCurveConfig</title>
<!-- Node1 -->
<g id="node1" class="node"><title>Node1</title>
<g id="a_node1"><a xlink:title="Detailed constructor.">
<polygon fill="#999999" stroke="#666666" points="133,-37 0,-37 0,-18 133,-18 133,-37"/>
<text text-anchor="middle" x="66.5" y="-25" font-family="Helvetica,sans-Serif" font-size="10.00">EquityVolatilityCurveConfig</text>
</a>
</g>
</g>
<!-- Node2 -->
<g id="node2" class="node"><title>Node2</title>
<g id="a_node2"><a xlink:href="classore_1_1data_1_1_equity_volatility_curve_config.html#a19ed6e6444ea03ab24f69f1bf17d2151" target="_top" xlink:title=" ">
<polygon fill="white" stroke="#666666" points="275.5,-56 190.5,-56 190.5,-37 275.5,-37 275.5,-56"/>
<text text-anchor="middle" x="233" y="-44" font-family="Helvetica,sans-Serif" font-size="10.00">populateQuotes</text>
</a>
</g>
</g>
<!-- Node1&#45;&gt;Node2 -->
<g id="edge1" class="edge"><title>Node1&#45;&gt;Node2</title>
<path fill="none" stroke="#63b8ff" d="M133.461,-35.1185C149.002,-36.9137 165.353,-38.8021 180.17,-40.5135"/>
<polygon fill="#63b8ff" stroke="#63b8ff" points="179.818,-43.9961 190.154,-41.6667 180.622,-37.0424 179.818,-43.9961"/>
</g>
<!-- Node5 -->
<g id="node5" class="node"><title>Node5</title>
<g id="a_node5"><a xlink:href="classore_1_1data_1_1_equity_volatility_curve_config.html#a09cdbe524aa89af7bba59a844397ebb9" target="_top" xlink:title=" ">
<polygon fill="white" stroke="#666666" points="297,-19 169,-19 169,-0 297,-0 297,-19"/>
<text text-anchor="middle" x="233" y="-7" font-family="Helvetica,sans-Serif" font-size="10.00">populateRequiredCurveIds</text>
</a>
</g>
</g>
<!-- Node1&#45;&gt;Node5 -->
<g id="edge4" class="edge"><title>Node1&#45;&gt;Node5</title>
<path fill="none" stroke="#63b8ff" d="M133.461,-20.2824C141.785,-19.3715 150.342,-18.4352 158.771,-17.5129"/>
<polygon fill="#63b8ff" stroke="#63b8ff" points="159.404,-20.9646 168.964,-16.3975 158.643,-14.0061 159.404,-20.9646"/>
</g>
<!-- Node3 -->
<g id="node3" class="node"><title>Node3</title>
<g id="a_node3"><a xlink:href="classore_1_1data_1_1_equity_volatility_curve_config.html#a01f0d3ff3f8e4b48de976da8f279b622" target="_top" xlink:title=" ">
<polygon fill="white" stroke="#666666" points="397,-56 333,-56 333,-37 397,-37 397,-56"/>
<text text-anchor="middle" x="365" y="-44" font-family="Helvetica,sans-Serif" font-size="10.00">quoteStem</text>
</a>
</g>
</g>
<!-- Node2&#45;&gt;Node3 -->
<g id="edge2" class="edge"><title>Node2&#45;&gt;Node3</title>
<path fill="none" stroke="#63b8ff" d="M275.848,-46.5C290.925,-46.5 307.914,-46.5 322.924,-46.5"/>
<polygon fill="#63b8ff" stroke="#63b8ff" points="322.952,-50.0001 332.952,-46.5 322.952,-43.0001 322.952,-50.0001"/>
</g>
<!-- Node4 -->
<g id="node4" class="node"><title>Node4</title>
<g id="a_node4"><a xlink:href="classore_1_1data_1_1_equity_volatility_curve_config.html#a82cfb7dd4e47b2580a5c8696465b5fdb" target="_top" xlink:title=" ">
<polygon fill="white" stroke="#666666" points="483,-56 433,-56 433,-37 483,-37 483,-56"/>
<text text-anchor="middle" x="458" y="-44" font-family="Helvetica,sans-Serif" font-size="10.00">equityId</text>
</a>
</g>
</g>
<!-- Node3&#45;&gt;Node4 -->
<g id="edge3" class="edge"><title>Node3&#45;&gt;Node4</title>
<path fill="none" stroke="#63b8ff" d="M397.063,-46.5C405.317,-46.5 414.278,-46.5 422.695,-46.5"/>
<polygon fill="#63b8ff" stroke="#63b8ff" points="422.97,-50.0001 432.97,-46.5 422.97,-43.0001 422.97,-50.0001"/>
</g>
</g>
</svg>
