<?xml version="1.0" encoding="UTF-8" standalone="no"?>
<!DOCTYPE svg PUBLIC "-//W3C//DTD SVG 1.1//EN"
 "http://www.w3.org/Graphics/SVG/1.1/DTD/svg11.dtd">
<!-- Generated by graphviz version 2.38.0 (20140413.2041)
 -->
<!-- Title: optAtmOptCurve Pages: 1 -->
<svg width="523pt" height="1078pt"
 viewBox="0.00 0.00 523.00 1078.00" xmlns="http://www.w3.org/2000/svg" xmlns:xlink="http://www.w3.org/1999/xlink">
<g id="graph0" class="graph" transform="scale(1 1) rotate(0) translate(4 1074)">
<title>optAtmOptCurve</title>
<!-- Node1 -->
<g id="node1" class="node"><title>Node1</title>
<g id="a_node1"><a xlink:title="Build ATM optionlet curve from optionlet vol.">
<polygon fill="#999999" stroke="#666666" points="88,-667.5 0,-667.5 0,-648.5 88,-648.5 88,-667.5"/>
<text text-anchor="middle" x="44" y="-655.5" font-family="Helvetica,sans-Serif" font-size="10.00">optAtmOptCurve</text>
</a>
</g>
</g>
<!-- Node2 -->
<g id="node2" class="node"><title>Node2</title>
<g id="a_node2"><a xlink:href="classore_1_1data_1_1_cap_floor_volatility_curve_config.html#a8f9fe9d2757cd906c3082ed401fc6cf5" target="_top" xlink:title=" ">
<polygon fill="white" stroke="#666666" points="283.5,-1070 146.5,-1070 146.5,-1040 283.5,-1040 283.5,-1070"/>
<text text-anchor="start" x="154.5" y="-1058" font-family="Helvetica,sans-Serif" font-size="10.00">ore::data::CapFloorVolatility</text>
<text text-anchor="middle" x="215" y="-1047" font-family="Helvetica,sans-Serif" font-size="10.00">CurveConfig::atmTenors</text>
</a>
</g>
</g>
<!-- Node1&#45;&gt;Node2 -->
<g id="edge1" class="edge"><title>Node1&#45;&gt;Node2</title>
<path fill="none" stroke="#63b8ff" d="M45.7095,-667.738C49.7777,-720.936 71.8157,-976.035 124,-1031 127.897,-1035.1 132.411,-1038.54 137.3,-1041.4"/>
<polygon fill="#63b8ff" stroke="#63b8ff" points="135.942,-1044.63 146.453,-1045.97 139.068,-1038.37 135.942,-1044.63"/>
</g>
<!-- Node3 -->
<g id="node3" class="node"><title>Node3</title>
<g id="a_node3"><a xlink:href="classore_1_1data_1_1_cap_floor_volatility_curve_config.html#a74fdca9e32be5719b0c6aa26b402b9b4" target="_top" xlink:title=" ">
<polygon fill="white" stroke="#666666" points="303.5,-1022 126.5,-1022 126.5,-992 303.5,-992 303.5,-1022"/>
<text text-anchor="start" x="134.5" y="-1010" font-family="Helvetica,sans-Serif" font-size="10.00">ore::data::CapFloorVolatility</text>
<text text-anchor="middle" x="215" y="-999" font-family="Helvetica,sans-Serif" font-size="10.00">CurveConfig::businessDayConvention</text>
</a>
</g>
</g>
<!-- Node1&#45;&gt;Node3 -->
<g id="edge2" class="edge"><title>Node1&#45;&gt;Node3</title>
<path fill="none" stroke="#63b8ff" d="M46.0375,-667.753C51.4439,-716.788 77.9167,-935.884 124,-983 124.922,-983.943 125.877,-984.85 126.862,-985.723"/>
<polygon fill="#63b8ff" stroke="#63b8ff" points="124.833,-988.577 134.938,-991.762 129.025,-982.971 124.833,-988.577"/>
</g>
<!-- Node4 -->
<g id="node4" class="node"><title>Node4</title>
<g id="a_node4"><a xlink:href="classore_1_1data_1_1_cap_floor_volatility_curve_config.html#a78d19d9a8d0072dadaf399d3e6ee1258" target="_top" xlink:title=" ">
<polygon fill="white" stroke="#666666" points="283.5,-974 146.5,-974 146.5,-944 283.5,-944 283.5,-974"/>
<text text-anchor="start" x="154.5" y="-962" font-family="Helvetica,sans-Serif" font-size="10.00">ore::data::CapFloorVolatility</text>
<text text-anchor="middle" x="215" y="-951" font-family="Helvetica,sans-Serif" font-size="10.00">CurveConfig::calendar</text>
</a>
</g>
</g>
<!-- Node1&#45;&gt;Node4 -->
<g id="edge3" class="edge"><title>Node1&#45;&gt;Node4</title>
<path fill="none" stroke="#63b8ff" d="M44.7778,-667.754C44.4381,-706.636 48.4517,-852.224 124,-930 127.932,-934.048 132.431,-937.531 137.273,-940.529"/>
<polygon fill="#63b8ff" stroke="#63b8ff" points="135.851,-943.739 146.312,-945.418 139.181,-937.582 135.851,-943.739"/>
</g>
<!-- Node5 -->
<g id="node5" class="node"><title>Node5</title>
<g id="a_node5"><a xlink:href="classore_1_1data_1_1_cap_floor_volatility_curve_config.html#a14dac022d83c5fa9597e6344199a41b6" target="_top" xlink:title=" ">
<polygon fill="white" stroke="#666666" points="283.5,-840 146.5,-840 146.5,-810 283.5,-810 283.5,-840"/>
<text text-anchor="start" x="154.5" y="-828" font-family="Helvetica,sans-Serif" font-size="10.00">ore::data::CapFloorVolatility</text>
<text text-anchor="middle" x="215" y="-817" font-family="Helvetica,sans-Serif" font-size="10.00">CurveConfig::currency</text>
</a>
</g>
</g>
<!-- Node1&#45;&gt;Node5 -->
<g id="edge4" class="edge"><title>Node1&#45;&gt;Node5</title>
<path fill="none" stroke="#63b8ff" d="M47.4903,-667.738C54.6386,-693.664 77.7389,-764.848 124,-801 128.038,-804.155 132.455,-806.897 137.095,-809.28"/>
<polygon fill="#63b8ff" stroke="#63b8ff" points="135.701,-812.49 146.254,-813.432 138.592,-806.115 135.701,-812.49"/>
</g>
<!-- Node6 -->
<g id="node6" class="node"><title>Node6</title>
<g id="a_node6"><a xlink:href="classore_1_1data_1_1_cap_floor_volatility_curve_config.html#a144bd46c24138b26c36e809506da032c" target="_top" xlink:title=" ">
<polygon fill="white" stroke="#666666" points="497,-940 360,-940 360,-910 497,-910 497,-940"/>
<text text-anchor="start" x="368" y="-928" font-family="Helvetica,sans-Serif" font-size="10.00">ore::data::CapFloorVolatility</text>
<text text-anchor="middle" x="428.5" y="-917" font-family="Helvetica,sans-Serif" font-size="10.00">CurveConfig::index</text>
</a>
</g>
</g>
<!-- Node1&#45;&gt;Node6 -->
<g id="edge12" class="edge"><title>Node1&#45;&gt;Node6</title>
<path fill="none" stroke="#63b8ff" d="M44.781,-667.549C44.5115,-704.27 48.9188,-837.299 124,-897 157.692,-923.79 271.142,-927.838 349.365,-927.229"/>
<polygon fill="#63b8ff" stroke="#63b8ff" points="349.715,-930.726 359.678,-927.121 349.642,-923.726 349.715,-930.726"/>
</g>
<!-- Node8 -->
<g id="node8" class="node"><title>Node8</title>
<g id="a_node8"><a xlink:href="classore_1_1data_1_1_curve_config.html#a469f15054f3eb55783dfeb953fdf4373" target="_top" xlink:title=" ">
<polygon fill="white" stroke="#666666" points="271,-792 159,-792 159,-762 271,-762 271,-792"/>
<text text-anchor="start" x="167" y="-780" font-family="Helvetica,sans-Serif" font-size="10.00">ore::data::CurveConfig</text>
<text text-anchor="middle" x="215" y="-769" font-family="Helvetica,sans-Serif" font-size="10.00">::curveID</text>
</a>
</g>
</g>
<!-- Node1&#45;&gt;Node8 -->
<g id="edge8" class="edge"><title>Node1&#45;&gt;Node8</title>
<path fill="none" stroke="#63b8ff" d="M50.9045,-667.667C62.5902,-686.006 90.4594,-725.975 124,-748 131.659,-753.029 140.256,-757.244 149.018,-760.76"/>
<polygon fill="#63b8ff" stroke="#63b8ff" points="147.961,-764.101 158.554,-764.307 150.402,-757.541 147.961,-764.101"/>
</g>
<!-- Node9 -->
<g id="node9" class="node"><title>Node9</title>
<g id="a_node9"><a xlink:href="classore_1_1data_1_1_cap_floor_volatility_curve_config.html#a878c3d7ce8419bd77556a8bca13dfca1" target="_top" xlink:title=" ">
<polygon fill="white" stroke="#666666" points="497,-836 360,-836 360,-806 497,-806 497,-836"/>
<text text-anchor="start" x="368" y="-824" font-family="Helvetica,sans-Serif" font-size="10.00">ore::data::CapFloorVolatility</text>
<text text-anchor="middle" x="428.5" y="-813" font-family="Helvetica,sans-Serif" font-size="10.00">CurveConfig::dayCounter</text>
</a>
</g>
</g>
<!-- Node1&#45;&gt;Node9 -->
<g id="edge9" class="edge"><title>Node1&#45;&gt;Node9</title>
<path fill="none" stroke="#63b8ff" d="M55.3439,-667.701C69.6387,-680.55 96.7656,-702.987 124,-715 199.605,-748.349 235.357,-710.13 306,-753 327.601,-766.109 320.856,-783.167 342,-797 344.774,-798.815 347.685,-800.494 350.69,-802.048"/>
<polygon fill="#63b8ff" stroke="#63b8ff" points="349.404,-805.309 359.948,-806.342 352.349,-798.959 349.404,-805.309"/>
</g>
<!-- Node10 -->
<g id="node10" class="node"><title>Node10</title>
<g id="a_node10"><a xlink:href="classore_1_1data_1_1_loader.html#a19d9f6f808db2631247ec12ffe291225" target="_top" xlink:title="get quote by its unique name, throws if not existent, override in derived classes for performance">
<polygon fill="white" stroke="#666666" points="270,-629.5 160,-629.5 160,-610.5 270,-610.5 270,-629.5"/>
<text text-anchor="middle" x="215" y="-617.5" font-family="Helvetica,sans-Serif" font-size="10.00">ore::data::Loader::get</text>
</a>
</g>
</g>
<!-- Node1&#45;&gt;Node10 -->
<g id="edge10" class="edge"><title>Node1&#45;&gt;Node10</title>
<path fill="none" stroke="#63b8ff" d="M87.6458,-648.411C110.148,-643.351 137.948,-637.1 161.738,-631.751"/>
<polygon fill="#63b8ff" stroke="#63b8ff" points="162.672,-635.129 171.661,-629.52 161.137,-628.299 162.672,-635.129"/>
</g>
<!-- Node12 -->
<g id="node12" class="node"><title>Node12</title>
<g id="a_node12"><a xlink:href="classore_1_1data_1_1_cap_floor_volatility_curve_config.html#ab8232591b187e0531befdd629d974bc0" target="_top" xlink:title=" ">
<polygon fill="white" stroke="#666666" points="283.5,-888 146.5,-888 146.5,-858 283.5,-858 283.5,-888"/>
<text text-anchor="start" x="154.5" y="-876" font-family="Helvetica,sans-Serif" font-size="10.00">ore::data::CapFloorVolatility</text>
<text text-anchor="middle" x="215" y="-865" font-family="Helvetica,sans-Serif" font-size="10.00">CurveConfig::indexTenor</text>
</a>
</g>
</g>
<!-- Node1&#45;&gt;Node12 -->
<g id="edge13" class="edge"><title>Node1&#45;&gt;Node12</title>
<path fill="none" stroke="#63b8ff" d="M46.018,-667.649C49.8454,-698.923 66.2473,-798.387 124,-849 127.928,-852.442 132.297,-855.398 136.934,-857.935"/>
<polygon fill="#63b8ff" stroke="#63b8ff" points="135.601,-861.177 146.135,-862.316 138.611,-854.857 135.601,-861.177"/>
</g>
<!-- Node13 -->
<g id="node13" class="node"><title>Node13</title>
<g id="a_node13"><a xlink:href="classore_1_1data_1_1_cap_floor_volatility_curve_config.html#a52d8b020286750630992221d2049171f" target="_top" xlink:title=" ">
<polygon fill="white" stroke="#666666" points="284.5,-592 145.5,-592 145.5,-562 284.5,-562 284.5,-592"/>
<text text-anchor="start" x="153.5" y="-580" font-family="Helvetica,sans-Serif" font-size="10.00">ore::data::CapFloorVolatility</text>
<text text-anchor="middle" x="215" y="-569" font-family="Helvetica,sans-Serif" font-size="10.00">CurveConfig::optionalQuotes</text>
</a>
</g>
</g>
<!-- Node1&#45;&gt;Node13 -->
<g id="edge16" class="edge"><title>Node1&#45;&gt;Node13</title>
<path fill="none" stroke="#63b8ff" d="M55.9921,-648.31C70.5796,-635.917 97.5815,-614.56 124,-602 128.943,-599.65 134.147,-597.485 139.457,-595.497"/>
<polygon fill="#63b8ff" stroke="#63b8ff" points="140.823,-598.727 149.096,-592.109 138.502,-592.123 140.823,-598.727"/>
</g>
<!-- Node14 -->
<g id="node14" class="node"><title>Node14</title>
<g id="a_node14"><a xlink:href="group__utilities.html#ga8e0623e2cb01e250e9cfec4619256208" target="_top" xlink:title="Convert text to QuantLib::Period.">
<polygon fill="white" stroke="#666666" points="271.5,-543.5 158.5,-543.5 158.5,-524.5 271.5,-524.5 271.5,-543.5"/>
<text text-anchor="middle" x="215" y="-531.5" font-family="Helvetica,sans-Serif" font-size="10.00">ore::data::parsePeriod</text>
</a>
</g>
</g>
<!-- Node1&#45;&gt;Node14 -->
<g id="edge17" class="edge"><title>Node1&#45;&gt;Node14</title>
<path fill="none" stroke="#63b8ff" d="M49.3099,-648.328C59.2099,-627.304 85.7049,-577.38 124,-553 131.439,-548.264 139.856,-544.688 148.483,-541.99"/>
<polygon fill="#63b8ff" stroke="#63b8ff" points="149.554,-545.326 158.271,-539.304 147.702,-538.575 149.554,-545.326"/>
</g>
<!-- Node15 -->
<g id="node15" class="node"><title>Node15</title>
<g id="a_node15"><a xlink:href="classore_1_1data_1_1_cap_floor_vol_curve.html#aed70374bbcab010ac7976f63ef78804e" target="_top" xlink:title="Generate fixing days from end date for optionlet vol.">
<polygon fill="white" stroke="#666666" points="267.5,-705.5 162.5,-705.5 162.5,-686.5 267.5,-686.5 267.5,-705.5"/>
<text text-anchor="middle" x="215" y="-693.5" font-family="Helvetica,sans-Serif" font-size="10.00">populateFixingDates</text>
</a>
</g>
</g>
<!-- Node1&#45;&gt;Node15 -->
<g id="edge18" class="edge"><title>Node1&#45;&gt;Node15</title>
<path fill="none" stroke="#63b8ff" d="M87.6458,-667.589C110.148,-672.649 137.948,-678.9 161.738,-684.249"/>
<polygon fill="#63b8ff" stroke="#63b8ff" points="161.137,-687.701 171.661,-686.48 162.672,-680.871 161.137,-687.701"/>
</g>
<!-- Node17 -->
<g id="node17" class="node"><title>Node17</title>
<g id="a_node17"><a xlink:href="classore_1_1data_1_1_cap_floor_volatility_curve_config.html#a44e6598deec574c7c5893e273d752263" target="_top" xlink:title=" ">
<polygon fill="white" stroke="#666666" points="497,-644 360,-644 360,-614 497,-614 497,-644"/>
<text text-anchor="start" x="368" y="-632" font-family="Helvetica,sans-Serif" font-size="10.00">ore::data::CapFloorVolatility</text>
<text text-anchor="middle" x="428.5" y="-621" font-family="Helvetica,sans-Serif" font-size="10.00">CurveConfig::settleDays</text>
</a>
</g>
</g>
<!-- Node1&#45;&gt;Node17 -->
<g id="edge26" class="edge"><title>Node1&#45;&gt;Node17</title>
<path fill="none" stroke="#63b8ff" d="M88.4197,-654.965C140.224,-651.315 229.449,-644.936 306,-639 320.009,-637.914 334.923,-636.718 349.33,-635.543"/>
<polygon fill="#63b8ff" stroke="#63b8ff" points="350.03,-638.998 359.711,-634.693 349.459,-632.021 350.03,-638.998"/>
</g>
<!-- Node20 -->
<g id="node20" class="node"><title>Node20</title>
<g id="a_node20"><a xlink:href="classore_1_1data_1_1_cap_floor_volatility_curve_config.html#a4e32f19694db4479f654b95ba0cd67b2" target="_top" xlink:title=" ">
<polygon fill="white" stroke="#666666" points="306,-506 124,-506 124,-476 306,-476 306,-506"/>
<text text-anchor="start" x="132" y="-494" font-family="Helvetica,sans-Serif" font-size="10.00">ore::data::CapFloorVolatility</text>
<text text-anchor="middle" x="215" y="-483" font-family="Helvetica,sans-Serif" font-size="10.00">CurveConfig::quoteIncludesIndexName</text>
</a>
</g>
</g>
<!-- Node1&#45;&gt;Node20 -->
<g id="edge24" class="edge"><title>Node1&#45;&gt;Node20</title>
<path fill="none" stroke="#63b8ff" d="M47.5322,-648.355C54.7842,-622.673 78.1194,-552.127 124,-516 126.329,-514.166 128.785,-512.466 131.337,-510.891"/>
<polygon fill="#63b8ff" stroke="#63b8ff" points="133.223,-513.85 140.341,-506.002 129.883,-507.698 133.223,-513.85"/>
</g>
<!-- Node21 -->
<g id="node21" class="node"><title>Node21</title>
<g id="a_node21"><a xlink:href="classore_1_1data_1_1_cap_floor_volatility_curve_config.html#a0364de76264e886fcfb3896300700701" target="_top" xlink:title=" ">
<polygon fill="white" stroke="#666666" points="283.5,-458 146.5,-458 146.5,-428 283.5,-428 283.5,-458"/>
<text text-anchor="start" x="154.5" y="-446" font-family="Helvetica,sans-Serif" font-size="10.00">ore::data::CapFloorVolatility</text>
<text text-anchor="middle" x="215" y="-435" font-family="Helvetica,sans-Serif" font-size="10.00">CurveConfig::quoteType</text>
</a>
</g>
</g>
<!-- Node1&#45;&gt;Node21 -->
<g id="edge25" class="edge"><title>Node1&#45;&gt;Node21</title>
<path fill="none" stroke="#63b8ff" d="M46.018,-648.351C49.8454,-617.077 66.2473,-517.613 124,-467 127.928,-463.558 132.297,-460.602 136.934,-458.065"/>
<polygon fill="#63b8ff" stroke="#63b8ff" points="138.611,-461.143 146.135,-453.684 135.601,-454.823 138.611,-461.143"/>
</g>
<!-- Node22 -->
<g id="node22" class="node"><title>Node22</title>
<g id="a_node22"><a xlink:href="classore_1_1data_1_1_cap_floor_volatility_curve_config.html#a5c9e162230ec0597ae5b9ae89b5301e7" target="_top" xlink:title=" ">
<polygon fill="white" stroke="#666666" points="287.5,-410 142.5,-410 142.5,-380 287.5,-380 287.5,-410"/>
<text text-anchor="start" x="150.5" y="-398" font-family="Helvetica,sans-Serif" font-size="10.00">ore::data::CapFloorVolatility</text>
<text text-anchor="middle" x="215" y="-387" font-family="Helvetica,sans-Serif" font-size="10.00">CurveConfig::timeInterpolation</text>
</a>
</g>
</g>
<!-- Node1&#45;&gt;Node22 -->
<g id="edge27" class="edge"><title>Node1&#45;&gt;Node22</title>
<path fill="none" stroke="#63b8ff" d="M45.1237,-648.086C46.1359,-611.717 54.6894,-484.361 124,-419 126.813,-416.348 129.885,-413.981 133.143,-411.871"/>
<polygon fill="#63b8ff" stroke="#63b8ff" points="135.115,-414.779 142.155,-406.861 131.714,-408.661 135.115,-414.779"/>
</g>
<!-- Node23 -->
<g id="node23" class="node"><title>Node23</title>
<g id="a_node23"><a xlink:href="classore_1_1data_1_1_cap_floor_vol_curve.html#a4bef3c3950a948d01dc3f726cb94d763" target="_top" xlink:title="Transform QuantExt::OptionletStripper to QuantLib::StrippedOptionlet.">
<polygon fill="white" stroke="#666666" points="243.5,-350.5 186.5,-350.5 186.5,-331.5 243.5,-331.5 243.5,-350.5"/>
<text text-anchor="middle" x="215" y="-338.5" font-family="Helvetica,sans-Serif" font-size="10.00">transform</text>
</a>
</g>
</g>
<!-- Node1&#45;&gt;Node23 -->
<g id="edge28" class="edge"><title>Node1&#45;&gt;Node23</title>
<path fill="none" stroke="#63b8ff" d="M44.6262,-648.293C43.6289,-608.245 45.2363,-454.065 124,-371 137.61,-356.647 158.258,-349.158 176.345,-345.252"/>
<polygon fill="#63b8ff" stroke="#63b8ff" points="177.158,-348.661 186.346,-343.386 175.874,-341.78 177.158,-348.661"/>
</g>
<!-- Node36 -->
<g id="node36" class="node"><title>Node36</title>
<g id="a_node36"><a xlink:href="classore_1_1data_1_1_cap_floor_volatility_curve_config.html#abda03231746ea9064406698eef5bfb3e" target="_top" xlink:title=" ">
<polygon fill="white" stroke="#666666" points="283.5,-313 146.5,-313 146.5,-283 283.5,-283 283.5,-313"/>
<text text-anchor="start" x="154.5" y="-301" font-family="Helvetica,sans-Serif" font-size="10.00">ore::data::CapFloorVolatility</text>
<text text-anchor="middle" x="215" y="-290" font-family="Helvetica,sans-Serif" font-size="10.00">CurveConfig::volatilityType</text>
</a>
</g>
</g>
<!-- Node1&#45;&gt;Node36 -->
<g id="edge41" class="edge"><title>Node1&#45;&gt;Node36</title>
<path fill="none" stroke="#63b8ff" d="M45.954,-648.253C51.0394,-598.242 76.5216,-370.909 124,-322 127.872,-318.011 132.327,-314.661 137.138,-311.85"/>
<polygon fill="#63b8ff" stroke="#63b8ff" points="138.757,-314.954 146.135,-307.35 135.625,-308.693 138.757,-314.954"/>
</g>
<!-- Node37 -->
<g id="node37" class="node"><title>Node37</title>
<g id="a_node37"><a xlink:href="namespaceore_1_1data.html#a6a0250258f27a26b9e68baa6ff3752ba" target="_top" xlink:title="Imply QuantLib::VolatilityType from CapFloorVolatilityCurveConfig::VolatilityType.">
<polygon fill="white" stroke="#666666" points="273,-264.5 157,-264.5 157,-245.5 273,-245.5 273,-264.5"/>
<text text-anchor="middle" x="215" y="-252.5" font-family="Helvetica,sans-Serif" font-size="10.00">ore::data::volatilityType</text>
</a>
</g>
</g>
<!-- Node1&#45;&gt;Node37 -->
<g id="edge42" class="edge"><title>Node1&#45;&gt;Node37</title>
<path fill="none" stroke="#63b8ff" d="M45.5936,-648.288C49.1048,-594.078 68.9161,-329.369 124,-274 130.383,-267.584 138.35,-263.078 146.888,-259.95"/>
<polygon fill="#63b8ff" stroke="#63b8ff" points="148.158,-263.222 156.716,-256.976 146.13,-256.522 148.158,-263.222"/>
</g>
<!-- Node5&#45;&gt;Node6 -->
<g id="edge5" class="edge"><title>Node5&#45;&gt;Node6</title>
<path fill="none" stroke="#63b8ff" d="M283.73,-837.395C291.624,-840.449 299.254,-844.256 306,-849 328.992,-865.17 319.114,-884.68 342,-901 344.699,-902.925 347.547,-904.695 350.502,-906.324"/>
<polygon fill="#63b8ff" stroke="#63b8ff" points="349.116,-909.543 359.637,-910.798 352.195,-903.256 349.116,-909.543"/>
</g>
<!-- Node7 -->
<g id="node7" class="node"><title>Node7</title>
<g id="a_node7"><a xlink:href="group__utilities.html#ga2d18ab5807f92319c9db2c13f4904738" target="_top" xlink:title="Convert std::string to QuantLib::IborIndex.">
<polygon fill="white" stroke="#666666" points="490.5,-873.5 366.5,-873.5 366.5,-854.5 490.5,-854.5 490.5,-873.5"/>
<text text-anchor="middle" x="428.5" y="-861.5" font-family="Helvetica,sans-Serif" font-size="10.00">ore::data::parseIborIndex</text>
</a>
</g>
</g>
<!-- Node5&#45;&gt;Node7 -->
<g id="edge6" class="edge"><title>Node5&#45;&gt;Node7</title>
<path fill="none" stroke="#63b8ff" d="M283.501,-837.447C309.863,-842.308 339.889,-847.845 365.676,-852.6"/>
<polygon fill="#63b8ff" stroke="#63b8ff" points="365.234,-856.077 375.703,-854.449 366.504,-849.193 365.234,-856.077"/>
</g>
<!-- Node7&#45;&gt;Node7 -->
<g id="edge7" class="edge"><title>Node7&#45;&gt;Node7</title>
<path fill="none" stroke="#63b8ff" d="M395.825,-873.583C379.929,-882.234 390.82,-891.5 428.5,-891.5 455.582,-891.5 468.826,-886.713 468.231,-880.808"/>
<polygon fill="#63b8ff" stroke="#63b8ff" points="470.666,-878.292 461.175,-873.583 465.658,-883.183 470.666,-878.292"/>
</g>
<!-- Node11 -->
<g id="node11" class="node"><title>Node11</title>
<g id="a_node11"><a xlink:href="classore_1_1data_1_1_loader.html#a0086c4f946085ef0b9d5c56bd1539f91" target="_top" xlink:title="get all quotes, TODO change the return value to std::set">
<polygon fill="white" stroke="#666666" points="476.5,-596 380.5,-596 380.5,-566 476.5,-566 476.5,-596"/>
<text text-anchor="start" x="388.5" y="-584" font-family="Helvetica,sans-Serif" font-size="10.00">ore::data::Loader::</text>
<text text-anchor="middle" x="428.5" y="-573" font-family="Helvetica,sans-Serif" font-size="10.00">loadQuotes</text>
</a>
</g>
</g>
<!-- Node10&#45;&gt;Node11 -->
<g id="edge11" class="edge"><title>Node10&#45;&gt;Node11</title>
<path fill="none" stroke="#63b8ff" d="M267.739,-610.46C298.747,-604.742 338.225,-597.462 370.179,-591.57"/>
<polygon fill="#63b8ff" stroke="#63b8ff" points="371.069,-594.965 380.269,-589.709 369.8,-588.081 371.069,-594.965"/>
</g>
<!-- Node12&#45;&gt;Node6 -->
<g id="edge14" class="edge"><title>Node12&#45;&gt;Node6</title>
<path fill="none" stroke="#63b8ff" d="M277.175,-888.041C302.056,-894.158 330.967,-901.266 356.75,-907.605"/>
<polygon fill="#63b8ff" stroke="#63b8ff" points="355.916,-911.004 366.463,-909.993 357.588,-904.207 355.916,-911.004"/>
</g>
<!-- Node12&#45;&gt;Node7 -->
<g id="edge15" class="edge"><title>Node12&#45;&gt;Node7</title>
<path fill="none" stroke="#63b8ff" d="M283.501,-870.128C306.669,-869.142 332.668,-868.035 356.132,-867.037"/>
<polygon fill="#63b8ff" stroke="#63b8ff" points="356.523,-870.524 366.365,-866.601 356.226,-863.53 356.523,-870.524"/>
</g>
<!-- Node15&#45;&gt;Node9 -->
<g id="edge19" class="edge"><title>Node15&#45;&gt;Node9</title>
<path fill="none" stroke="#63b8ff" d="M267.778,-701.761C281.363,-705.304 295.213,-710.969 306,-720 334.966,-744.251 313.193,-772.56 342,-797 344.728,-799.314 347.664,-801.406 350.747,-803.297"/>
<polygon fill="#63b8ff" stroke="#63b8ff" points="349.308,-806.496 359.779,-808.111 352.601,-800.319 349.308,-806.496"/>
</g>
<!-- Node16 -->
<g id="node16" class="node"><title>Node16</title>
<g id="a_node16"><a xlink:href="classore_1_1data_1_1_cap_floor_volatility_curve_config.html#abe4ea79f91fb449aca0aef9579ab15f8" target="_top" xlink:title=" ">
<polygon fill="white" stroke="#666666" points="515,-788 342,-788 342,-758 515,-758 515,-788"/>
<text text-anchor="start" x="350" y="-776" font-family="Helvetica,sans-Serif" font-size="10.00">ore::data::CapFloorVolatility</text>
<text text-anchor="middle" x="428.5" y="-765" font-family="Helvetica,sans-Serif" font-size="10.00">CurveConfig::rateComputationPeriod</text>
</a>
</g>
</g>
<!-- Node15&#45;&gt;Node16 -->
<g id="edge20" class="edge"><title>Node15&#45;&gt;Node16</title>
<path fill="none" stroke="#63b8ff" d="M266.883,-705.623C280.031,-709.16 293.885,-713.856 306,-720 324.324,-729.293 323.737,-739.587 342,-749 345.7,-750.907 349.571,-752.679 353.535,-754.323"/>
<polygon fill="#63b8ff" stroke="#63b8ff" points="352.328,-757.608 362.918,-757.929 354.84,-751.074 352.328,-757.608"/>
</g>
<!-- Node15&#45;&gt;Node17 -->
<g id="edge21" class="edge"><title>Node15&#45;&gt;Node17</title>
<path fill="none" stroke="#63b8ff" d="M259.667,-686.46C274.595,-682.648 291.243,-677.777 306,-672 322.847,-665.405 325.196,-659.705 342,-653 347.101,-650.965 352.439,-649.031 357.848,-647.21"/>
<polygon fill="#63b8ff" stroke="#63b8ff" points="359.182,-650.457 367.625,-644.057 357.033,-643.795 359.182,-650.457"/>
</g>
<!-- Node18 -->
<g id="node18" class="node"><title>Node18</title>
<g id="a_node18"><a target="_parent" xlink:href="../qle/class_quant_ext_1_1_make_o_i_s_cap_floor.html#a5c92a8fb4d7a5de84d60cb01ca39a864" xlink:title=" ">
<polygon fill="white" stroke="#666666" points="500,-740 357,-740 357,-710 500,-710 500,-740"/>
<text text-anchor="start" x="365" y="-728" font-family="Helvetica,sans-Serif" font-size="10.00">QuantExt::MakeOISCapFloor</text>
<text text-anchor="middle" x="428.5" y="-717" font-family="Helvetica,sans-Serif" font-size="10.00">::withSettlementDays</text>
</a>
</g>
</g>
<!-- Node15&#45;&gt;Node18 -->
<g id="edge22" class="edge"><title>Node15&#45;&gt;Node18</title>
<path fill="none" stroke="#63b8ff" d="M267.739,-703.094C291.487,-706.35 320.203,-710.288 346.702,-713.921"/>
<polygon fill="#63b8ff" stroke="#63b8ff" points="346.352,-717.406 356.735,-715.297 347.303,-710.471 346.352,-717.406"/>
</g>
<!-- Node19 -->
<g id="node19" class="node"><title>Node19</title>
<g id="a_node19"><a target="_parent" xlink:href="../qle/class_quant_ext_1_1_make_o_i_s_cap_floor.html#a6842ee3fbbf88963ed4d02e7ddb70c22" xlink:title=" ">
<polygon fill="white" stroke="#666666" points="500,-692 357,-692 357,-662 500,-662 500,-692"/>
<text text-anchor="start" x="365" y="-680" font-family="Helvetica,sans-Serif" font-size="10.00">QuantExt::MakeOISCapFloor</text>
<text text-anchor="middle" x="428.5" y="-669" font-family="Helvetica,sans-Serif" font-size="10.00">::withTelescopicValueDates</text>
</a>
</g>
</g>
<!-- Node15&#45;&gt;Node19 -->
<g id="edge23" class="edge"><title>Node15&#45;&gt;Node19</title>
<path fill="none" stroke="#63b8ff" d="M267.739,-691.352C291.487,-689.219 320.203,-686.639 346.702,-684.258"/>
<polygon fill="#63b8ff" stroke="#63b8ff" points="347.088,-687.738 356.735,-683.357 346.462,-680.766 347.088,-687.738"/>
</g>
<!-- Node24 -->
<g id="node24" class="node"><title>Node24</title>
<g id="a_node24"><a target="_parent" xlink:href="../qle/class_quant_ext_1_1_optionlet_stripper.html#a6f262e9d6dfada9d772180bccab52f83" xlink:title=" ">
<polygon fill="white" stroke="#666666" points="497,-548 360,-548 360,-518 497,-518 497,-548"/>
<text text-anchor="start" x="368" y="-536" font-family="Helvetica,sans-Serif" font-size="10.00">QuantExt::OptionletStripper</text>
<text text-anchor="middle" x="428.5" y="-525" font-family="Helvetica,sans-Serif" font-size="10.00">::atmOptionletRates</text>
</a>
</g>
</g>
<!-- Node23&#45;&gt;Node24 -->
<g id="edge29" class="edge"><title>Node23&#45;&gt;Node24</title>
<path fill="none" stroke="#63b8ff" d="M243.721,-343.322C263.713,-346.456 289.909,-353.801 306,-371 349.304,-417.287 297.595,-463.767 342,-509 344.697,-511.747 347.681,-514.187 350.871,-516.352"/>
<polygon fill="#63b8ff" stroke="#63b8ff" points="349.327,-519.503 359.738,-521.469 352.826,-513.44 349.327,-519.503"/>
</g>
<!-- Node25 -->
<g id="node25" class="node"><title>Node25</title>
<g id="a_node25"><a target="_parent" xlink:href="../qle/class_quant_ext_1_1_optionlet_stripper.html#acff63e9870626a9dedaf3b515869833f" xlink:title=" ">
<polygon fill="white" stroke="#666666" points="497,-500 360,-500 360,-470 497,-470 497,-500"/>
<text text-anchor="start" x="368" y="-488" font-family="Helvetica,sans-Serif" font-size="10.00">QuantExt::OptionletStripper</text>
<text text-anchor="middle" x="428.5" y="-477" font-family="Helvetica,sans-Serif" font-size="10.00">::businessDayConvention</text>
</a>
</g>
</g>
<!-- Node23&#45;&gt;Node25 -->
<g id="edge30" class="edge"><title>Node23&#45;&gt;Node25</title>
<path fill="none" stroke="#63b8ff" d="M243.524,-344.004C263.154,-347.48 288.984,-354.955 306,-371 337.345,-400.555 309.954,-432.207 342,-461 344.803,-463.518 347.849,-465.774 351.068,-467.795"/>
<polygon fill="#63b8ff" stroke="#63b8ff" points="349.482,-470.917 359.939,-472.615 352.823,-464.766 349.482,-470.917"/>
</g>
<!-- Node26 -->
<g id="node26" class="node"><title>Node26</title>
<g id="a_node26"><a target="_parent" xlink:href="../qle/class_quant_ext_1_1_optionlet_stripper.html#a1ef243b060d282bec39ee65230cf037a" xlink:title=" ">
<polygon fill="white" stroke="#666666" points="497,-452 360,-452 360,-422 497,-422 497,-452"/>
<text text-anchor="start" x="368" y="-440" font-family="Helvetica,sans-Serif" font-size="10.00">QuantExt::OptionletStripper</text>
<text text-anchor="middle" x="428.5" y="-429" font-family="Helvetica,sans-Serif" font-size="10.00">::calendar</text>
</a>
</g>
</g>
<!-- Node23&#45;&gt;Node26 -->
<g id="edge31" class="edge"><title>Node23&#45;&gt;Node26</title>
<path fill="none" stroke="#63b8ff" d="M243.715,-346.162C262.459,-350.591 287.138,-358.318 306,-371 326.402,-384.718 321.274,-399.776 342,-413 344.644,-414.687 347.408,-416.258 350.256,-417.719"/>
<polygon fill="#63b8ff" stroke="#63b8ff" points="349.046,-421.016 359.593,-422.028 351.979,-414.66 349.046,-421.016"/>
</g>
<!-- Node27 -->
<g id="node27" class="node"><title>Node27</title>
<g id="a_node27"><a target="_parent" xlink:href="../qle/class_quant_ext_1_1_optionlet_stripper.html#a94fc547efda67580a0ae559769b5fc71" xlink:title=" ">
<polygon fill="white" stroke="#666666" points="497,-404 360,-404 360,-374 497,-374 497,-404"/>
<text text-anchor="start" x="368" y="-392" font-family="Helvetica,sans-Serif" font-size="10.00">QuantExt::OptionletStripper</text>
<text text-anchor="middle" x="428.5" y="-381" font-family="Helvetica,sans-Serif" font-size="10.00">::dayCounter</text>
</a>
</g>
</g>
<!-- Node23&#45;&gt;Node27 -->
<g id="edge32" class="edge"><title>Node23&#45;&gt;Node27</title>
<path fill="none" stroke="#63b8ff" d="M243.65,-347.275C270.888,-353.457 313.746,-363.183 351.232,-371.691"/>
<polygon fill="#63b8ff" stroke="#63b8ff" points="350.611,-375.139 361.138,-373.939 352.16,-368.313 350.611,-375.139"/>
</g>
<!-- Node28 -->
<g id="node28" class="node"><title>Node28</title>
<g id="a_node28"><a target="_parent" xlink:href="../qle/class_quant_ext_1_1_optionlet_stripper.html#add24fda7ff41564d7365154d96563718" xlink:title=" ">
<polygon fill="white" stroke="#666666" points="497,-356 360,-356 360,-326 497,-326 497,-356"/>
<text text-anchor="start" x="368" y="-344" font-family="Helvetica,sans-Serif" font-size="10.00">QuantExt::OptionletStripper</text>
<text text-anchor="middle" x="428.5" y="-333" font-family="Helvetica,sans-Serif" font-size="10.00">::displacement</text>
</a>
</g>
</g>
<!-- Node23&#45;&gt;Node28 -->
<g id="edge33" class="edge"><title>Node23&#45;&gt;Node28</title>
<path fill="none" stroke="#63b8ff" d="M243.65,-341C270.465,-341 312.419,-341 349.482,-341"/>
<polygon fill="#63b8ff" stroke="#63b8ff" points="349.789,-344.5 359.789,-341 349.789,-337.5 349.789,-344.5"/>
</g>
<!-- Node29 -->
<g id="node29" class="node"><title>Node29</title>
<g id="a_node29"><a target="_parent" xlink:href="../qle/class_quant_ext_1_1_optionlet_stripper.html#aeabea0dd7f598167a5ff170ca17cc668" xlink:title=" ">
<polygon fill="white" stroke="#666666" points="497,-308 360,-308 360,-278 497,-278 497,-308"/>
<text text-anchor="start" x="368" y="-296" font-family="Helvetica,sans-Serif" font-size="10.00">QuantExt::OptionletStripper</text>
<text text-anchor="middle" x="428.5" y="-285" font-family="Helvetica,sans-Serif" font-size="10.00">::index</text>
</a>
</g>
</g>
<!-- Node23&#45;&gt;Node29 -->
<g id="edge34" class="edge"><title>Node23&#45;&gt;Node29</title>
<path fill="none" stroke="#63b8ff" d="M243.614,-335.366C261.442,-331.68 285.122,-326.694 306,-322 322.12,-318.375 339.406,-314.34 355.737,-310.459"/>
<polygon fill="#63b8ff" stroke="#63b8ff" points="356.848,-313.792 365.763,-308.067 355.223,-306.983 356.848,-313.792"/>
</g>
<!-- Node30 -->
<g id="node30" class="node"><title>Node30</title>
<g id="a_node30"><a target="_parent" xlink:href="../qle/class_quant_ext_1_1_optionlet_stripper.html#a2a89e416be710d1ded6cb21b0907869d" xlink:title=" ">
<polygon fill="white" stroke="#666666" points="497,-260 360,-260 360,-230 497,-230 497,-260"/>
<text text-anchor="start" x="368" y="-248" font-family="Helvetica,sans-Serif" font-size="10.00">QuantExt::OptionletStripper</text>
<text text-anchor="middle" x="428.5" y="-237" font-family="Helvetica,sans-Serif" font-size="10.00">::optionletFixingDates</text>
</a>
</g>
</g>
<!-- Node23&#45;&gt;Node30 -->
<g id="edge35" class="edge"><title>Node23&#45;&gt;Node30</title>
<path fill="none" stroke="#63b8ff" d="M243.664,-340.473C262.619,-338.908 287.569,-334.37 306,-322 329.644,-306.131 318.889,-285.636 342,-269 344.69,-267.064 347.532,-265.283 350.48,-263.646"/>
<polygon fill="#63b8ff" stroke="#63b8ff" points="352.177,-266.712 359.601,-259.153 349.084,-260.432 352.177,-266.712"/>
</g>
<!-- Node31 -->
<g id="node31" class="node"><title>Node31</title>
<g id="a_node31"><a target="_parent" xlink:href="../qle/class_quant_ext_1_1_optionlet_stripper.html#a54dd02538d07f3ec3c35ce5744412cc9" xlink:title=" ">
<polygon fill="white" stroke="#666666" points="497,-212 360,-212 360,-182 497,-182 497,-212"/>
<text text-anchor="start" x="368" y="-200" font-family="Helvetica,sans-Serif" font-size="10.00">QuantExt::OptionletStripper</text>
<text text-anchor="middle" x="428.5" y="-189" font-family="Helvetica,sans-Serif" font-size="10.00">::optionletStrikes</text>
</a>
</g>
</g>
<!-- Node23&#45;&gt;Node31 -->
<g id="edge36" class="edge"><title>Node23&#45;&gt;Node31</title>
<path fill="none" stroke="#63b8ff" d="M243.904,-341.913C263.465,-341.076 289.045,-336.817 306,-322 341.883,-290.64 307.165,-253.519 342,-221 344.754,-218.429 347.761,-216.13 350.949,-214.075"/>
<polygon fill="#63b8ff" stroke="#63b8ff" points="352.712,-217.099 359.755,-209.184 349.314,-210.98 352.712,-217.099"/>
</g>
<!-- Node32 -->
<g id="node32" class="node"><title>Node32</title>
<g id="a_node32"><a target="_parent" xlink:href="../qle/class_quant_ext_1_1_optionlet_stripper.html#a6ac58ed74e3152458d1f399a1ecdc718" xlink:title=" ">
<polygon fill="white" stroke="#666666" points="497,-164 360,-164 360,-134 497,-134 497,-164"/>
<text text-anchor="start" x="368" y="-152" font-family="Helvetica,sans-Serif" font-size="10.00">QuantExt::OptionletStripper</text>
<text text-anchor="middle" x="428.5" y="-141" font-family="Helvetica,sans-Serif" font-size="10.00">::optionletVolatilities</text>
</a>
</g>
</g>
<!-- Node23&#45;&gt;Node32 -->
<g id="edge37" class="edge"><title>Node23&#45;&gt;Node32</title>
<path fill="none" stroke="#63b8ff" d="M243.552,-342.463C263.457,-341.976 289.62,-337.912 306,-322 354.867,-274.53 294.716,-222.047 342,-173 344.672,-170.229 347.636,-167.77 350.809,-165.588"/>
<polygon fill="#63b8ff" stroke="#63b8ff" points="352.767,-168.499 359.644,-160.439 349.242,-162.451 352.767,-168.499"/>
</g>
<!-- Node33 -->
<g id="node33" class="node"><title>Node33</title>
<g id="a_node33"><a target="_parent" xlink:href="../qle/class_quant_ext_1_1_optionlet_stripper.html#a91d05d71934f94dcd6e3a530d55000a6" xlink:title=" ">
<polygon fill="white" stroke="#666666" points="497,-116 360,-116 360,-86 497,-86 497,-116"/>
<text text-anchor="start" x="368" y="-104" font-family="Helvetica,sans-Serif" font-size="10.00">QuantExt::OptionletStripper</text>
<text text-anchor="middle" x="428.5" y="-93" font-family="Helvetica,sans-Serif" font-size="10.00">::settlementDays</text>
</a>
</g>
</g>
<!-- Node23&#45;&gt;Node33 -->
<g id="edge38" class="edge"><title>Node23&#45;&gt;Node33</title>
<path fill="none" stroke="#63b8ff" d="M243.817,-342.729C263.858,-342.377 290.074,-338.367 306,-322 368.071,-258.21 282.054,-190.791 342,-125 344.726,-122.008 347.791,-119.378 351.099,-117.066"/>
<polygon fill="#63b8ff" stroke="#63b8ff" points="352.93,-120.05 359.761,-111.952 349.371,-114.022 352.93,-120.05"/>
</g>
<!-- Node34 -->
<g id="node34" class="node"><title>Node34</title>
<g id="a_node34"><a xlink:href="namespaceore_1_1data.html#a777e216dee6069b548bb87da7152699e" target="_top" xlink:title=" ">
<polygon fill="white" stroke="#666666" points="468,-67.5 389,-67.5 389,-48.5 468,-48.5 468,-67.5"/>
<text text-anchor="middle" x="428.5" y="-55.5" font-family="Helvetica,sans-Serif" font-size="10.00">ore::data::size</text>
</a>
</g>
</g>
<!-- Node23&#45;&gt;Node34 -->
<g id="edge39" class="edge"><title>Node23&#45;&gt;Node34</title>
<path fill="none" stroke="#63b8ff" d="M243.564,-342.895C263.744,-342.675 290.253,-338.758 306,-322 381.367,-241.796 267.06,-157.602 342,-77 351.406,-66.8835 364.903,-61.5542 378.403,-58.8886"/>
<polygon fill="#63b8ff" stroke="#63b8ff" points="379.297,-62.2932 388.659,-57.3342 378.248,-55.3722 379.297,-62.2932"/>
</g>
<!-- Node35 -->
<g id="node35" class="node"><title>Node35</title>
<g id="a_node35"><a target="_parent" xlink:href="../qle/class_quant_ext_1_1_optionlet_stripper.html#a72983c4ae34d208cce6942ef26bec58c" xlink:title=" ">
<polygon fill="white" stroke="#666666" points="497,-30 360,-30 360,-0 497,-0 497,-30"/>
<text text-anchor="start" x="368" y="-18" font-family="Helvetica,sans-Serif" font-size="10.00">QuantExt::OptionletStripper</text>
<text text-anchor="middle" x="428.5" y="-7" font-family="Helvetica,sans-Serif" font-size="10.00">::volatilityType</text>
</a>
</g>
</g>
<!-- Node23&#45;&gt;Node35 -->
<g id="edge40" class="edge"><title>Node23&#45;&gt;Node35</title>
<path fill="none" stroke="#63b8ff" d="M243.658,-342.982C263.887,-342.808 290.416,-338.91 306,-322 391.927,-228.766 259.177,-135.002 342,-39 344.699,-35.8718 347.769,-33.1356 351.104,-30.7435"/>
<polygon fill="#63b8ff" stroke="#63b8ff" points="353.104,-33.6256 359.878,-25.4791 349.502,-27.6232 353.104,-33.6256"/>
</g>
</g>
</svg>
