<?xml version="1.0" encoding="UTF-8" standalone="no"?>
<!DOCTYPE svg PUBLIC "-//W3C//DTD SVG 1.1//EN"
 "http://www.w3.org/Graphics/SVG/1.1/DTD/svg11.dtd">
<!-- Generated by graphviz version 2.38.0 (20140413.2041)
 -->
<!-- Title: add Pages: 1 -->
<svg width="888pt" height="615pt"
 viewBox="0.00 0.00 888.00 615.05" xmlns="http://www.w3.org/2000/svg" xmlns:xlink="http://www.w3.org/1999/xlink">
<g id="graph0" class="graph" transform="scale(1 1) rotate(0) translate(4 611.051)">
<title>add</title>
<!-- Node1 -->
<g id="node1" class="node"><title>Node1</title>
<g id="a_node1"><a xlink:title=" ">
<polygon fill="#999999" stroke="#666666" points="32,-445.551 0,-445.551 0,-426.551 32,-426.551 32,-445.551"/>
<text text-anchor="middle" x="16" y="-433.551" font-family="Helvetica,sans-Serif" font-size="10.00">add</text>
</a>
</g>
</g>
<!-- Node2 -->
<g id="node2" class="node"><title>Node2</title>
<g id="a_node2"><a xlink:href="classore_1_1data_1_1_loader.html#a5fd63a6d54fdaac9a490ef18bf07c08d" target="_top" xlink:title=" ">
<polygon fill="white" stroke="#666666" points="190.5,-570.051 94.5,-570.051 94.5,-540.051 190.5,-540.051 190.5,-570.051"/>
<text text-anchor="start" x="102.5" y="-558.051" font-family="Helvetica,sans-Serif" font-size="10.00">ore::data::Loader::</text>
<text text-anchor="middle" x="142.5" y="-547.051" font-family="Helvetica,sans-Serif" font-size="10.00">checkFxDuplicate</text>
</a>
</g>
</g>
<!-- Node1&#45;&gt;Node2 -->
<g id="edge1" class="edge"><title>Node1&#45;&gt;Node2</title>
<path fill="none" stroke="#63b8ff" d="M27.1884,-445.789C46.9569,-464.685 90.9668,-506.75 118.247,-532.825"/>
<polygon fill="#63b8ff" stroke="#63b8ff" points="116.15,-535.662 125.797,-540.042 120.986,-530.602 116.15,-535.662"/>
</g>
<!-- Node7 -->
<g id="node7" class="node"><title>Node7</title>
<g id="a_node7"><a xlink:href="namespaceore_1_1data.html#ad54d6392da5740836cc7336a525c67c3" target="_top" xlink:title=" ">
<polygon fill="white" stroke="#666666" points="217,-451.051 68,-451.051 68,-421.051 217,-421.051 217,-451.051"/>
<text text-anchor="start" x="76" y="-439.051" font-family="Helvetica,sans-Serif" font-size="10.00">ore::data::makeDummyMarket</text>
<text text-anchor="middle" x="142.5" y="-428.051" font-family="Helvetica,sans-Serif" font-size="10.00">Datum</text>
</a>
</g>
</g>
<!-- Node1&#45;&gt;Node7 -->
<g id="edge6" class="edge"><title>Node1&#45;&gt;Node7</title>
<path fill="none" stroke="#63b8ff" d="M32.2661,-436.051C39.2057,-436.051 48.0078,-436.051 57.5923,-436.051"/>
<polygon fill="#63b8ff" stroke="#63b8ff" points="57.8185,-439.551 67.8185,-436.051 57.8184,-432.551 57.8185,-439.551"/>
</g>
<!-- Node8 -->
<g id="node8" class="node"><title>Node8</title>
<g id="a_node8"><a xlink:href="group__marketdata.html#ga49b8909d3761de5c44f8140f95ec0d94" target="_top" xlink:title="Function to parse a market datum.">
<polygon fill="white" stroke="#666666" points="214,-293.551 71,-293.551 71,-274.551 214,-274.551 214,-293.551"/>
<text text-anchor="middle" x="142.5" y="-281.551" font-family="Helvetica,sans-Serif" font-size="10.00">ore::data::parseMarketDatum</text>
</a>
</g>
</g>
<!-- Node1&#45;&gt;Node8 -->
<g id="edge7" class="edge"><title>Node1&#45;&gt;Node8</title>
<path fill="none" stroke="#63b8ff" d="M24.788,-426.543C45.2251,-401.591 100.632,-333.946 127.077,-301.66"/>
<polygon fill="#63b8ff" stroke="#63b8ff" points="130.086,-303.51 133.715,-293.556 124.671,-299.074 130.086,-303.51"/>
</g>
<!-- Node3 -->
<g id="node3" class="node"><title>Node3</title>
<g id="a_node3"><a xlink:href="group__utilities.html#ga90c3a1ae532e31a7f2fd6eda8cbcf209" target="_top" xlink:title="Convert FX pair to market standard dominance.">
<polygon fill="white" stroke="#666666" points="386,-564.551 269,-564.551 269,-545.551 386,-545.551 386,-564.551"/>
<text text-anchor="middle" x="327.5" y="-552.551" font-family="Helvetica,sans-Serif" font-size="10.00">ore::data::fxDominance</text>
</a>
</g>
</g>
<!-- Node2&#45;&gt;Node3 -->
<g id="edge2" class="edge"><title>Node2&#45;&gt;Node3</title>
<path fill="none" stroke="#63b8ff" d="M190.627,-555.051C211.29,-555.051 235.937,-555.051 258.53,-555.051"/>
<polygon fill="#63b8ff" stroke="#63b8ff" points="258.745,-558.551 268.745,-555.051 258.745,-551.551 258.745,-558.551"/>
</g>
<!-- Node4 -->
<g id="node4" class="node"><title>Node4</title>
<g id="a_node4"><a xlink:href="classore_1_1data_1_1_loader.html#acb476f7db0733b669e38e0a4359b5745" target="_top" xlink:title="Default implementation, returns false if get throws or returns a null pointer.">
<polygon fill="white" stroke="#666666" points="383.5,-601.551 271.5,-601.551 271.5,-582.551 383.5,-582.551 383.5,-601.551"/>
<text text-anchor="middle" x="327.5" y="-589.551" font-family="Helvetica,sans-Serif" font-size="10.00">ore::data::Loader::has</text>
</a>
</g>
</g>
<!-- Node2&#45;&gt;Node4 -->
<g id="edge3" class="edge"><title>Node2&#45;&gt;Node4</title>
<path fill="none" stroke="#63b8ff" d="M190.627,-564.579C214.654,-569.437 244.068,-575.384 269.376,-580.501"/>
<polygon fill="#63b8ff" stroke="#63b8ff" points="268.72,-583.939 279.215,-582.491 270.107,-577.078 268.72,-583.939"/>
</g>
<!-- Node5 -->
<g id="node5" class="node"><title>Node5</title>
<g id="a_node5"><a xlink:href="classore_1_1data_1_1_loader.html#a19d9f6f808db2631247ec12ffe291225" target="_top" xlink:title="get quote by its unique name, throws if not existent, override in derived classes for performance">
<polygon fill="white" stroke="#666666" points="564.5,-601.551 454.5,-601.551 454.5,-582.551 564.5,-582.551 564.5,-601.551"/>
<text text-anchor="middle" x="509.5" y="-589.551" font-family="Helvetica,sans-Serif" font-size="10.00">ore::data::Loader::get</text>
</a>
</g>
</g>
<!-- Node4&#45;&gt;Node5 -->
<g id="edge4" class="edge"><title>Node4&#45;&gt;Node5</title>
<path fill="none" stroke="#63b8ff" d="M383.975,-592.051C403.063,-592.051 424.593,-592.051 444.317,-592.051"/>
<polygon fill="#63b8ff" stroke="#63b8ff" points="444.444,-595.551 454.444,-592.051 444.444,-588.551 444.444,-595.551"/>
</g>
<!-- Node6 -->
<g id="node6" class="node"><title>Node6</title>
<g id="a_node6"><a xlink:href="classore_1_1data_1_1_loader.html#a0086c4f946085ef0b9d5c56bd1539f91" target="_top" xlink:title="get all quotes, TODO change the return value to std::set">
<polygon fill="white" stroke="#666666" points="721.5,-607.051 625.5,-607.051 625.5,-577.051 721.5,-577.051 721.5,-607.051"/>
<text text-anchor="start" x="633.5" y="-595.051" font-family="Helvetica,sans-Serif" font-size="10.00">ore::data::Loader::</text>
<text text-anchor="middle" x="673.5" y="-584.051" font-family="Helvetica,sans-Serif" font-size="10.00">loadQuotes</text>
</a>
</g>
</g>
<!-- Node5&#45;&gt;Node6 -->
<g id="edge5" class="edge"><title>Node5&#45;&gt;Node6</title>
<path fill="none" stroke="#63b8ff" d="M564.894,-592.051C580.955,-592.051 598.586,-592.051 614.844,-592.051"/>
<polygon fill="#63b8ff" stroke="#63b8ff" points="615.3,-595.551 625.3,-592.051 615.3,-588.551 615.3,-595.551"/>
</g>
<!-- Node8&#45;&gt;Node8 -->
<g id="edge28" class="edge"><title>Node8&#45;&gt;Node8</title>
<path fill="none" stroke="#63b8ff" d="M123.08,-293.634C113.632,-302.285 120.105,-311.551 142.5,-311.551 156.497,-311.551 164.274,-307.931 165.832,-303.105"/>
<polygon fill="#63b8ff" stroke="#63b8ff" points="168.973,-301.54 161.92,-293.634 162.503,-304.213 168.973,-301.54"/>
</g>
<!-- Node9 -->
<g id="node9" class="node"><title>Node9</title>
<g id="a_node9"><a xlink:href="group__marketdata.html#ga71fc1e19d4a9d3acd5e6cd6b6ae533b6" target="_top" xlink:title="Get a date from a date string or period.">
<polygon fill="white" stroke="#666666" points="396,-321.051 259,-321.051 259,-291.051 396,-291.051 396,-321.051"/>
<text text-anchor="start" x="267" y="-309.051" font-family="Helvetica,sans-Serif" font-size="10.00">ore::data::getDateFromDate</text>
<text text-anchor="middle" x="327.5" y="-298.051" font-family="Helvetica,sans-Serif" font-size="10.00">OrPeriod</text>
</a>
</g>
</g>
<!-- Node8&#45;&gt;Node9 -->
<g id="edge8" class="edge"><title>Node8&#45;&gt;Node9</title>
<path fill="none" stroke="#63b8ff" d="M214.253,-292.557C225.61,-293.922 237.418,-295.342 248.925,-296.725"/>
<polygon fill="#63b8ff" stroke="#63b8ff" points="248.594,-300.21 258.94,-297.929 249.43,-293.26 248.594,-300.21"/>
</g>
<!-- Node10 -->
<g id="node10" class="node"><title>Node10</title>
<g id="a_node10"><a xlink:href="group__utilities.html#ga6477391407eac174ea49df689ecf1ab2" target="_top" xlink:title="Convert text to QuantLib::Period or QuantLib::Date.">
<polygon fill="white" stroke="#666666" points="581,-358.551 438,-358.551 438,-339.551 581,-339.551 581,-358.551"/>
<text text-anchor="middle" x="509.5" y="-346.551" font-family="Helvetica,sans-Serif" font-size="10.00">ore::data::parseDateOrPeriod</text>
</a>
</g>
</g>
<!-- Node8&#45;&gt;Node10 -->
<g id="edge21" class="edge"><title>Node8&#45;&gt;Node10</title>
<path fill="none" stroke="#63b8ff" d="M151.938,-293.703C168.869,-312.243 209.135,-352.305 253,-367.051 325.906,-391.559 416.932,-374.732 468.31,-361.238"/>
<polygon fill="#63b8ff" stroke="#63b8ff" points="469.306,-364.594 478.04,-358.597 467.472,-357.839 469.306,-364.594"/>
</g>
<!-- Node12 -->
<g id="node12" class="node"><title>Node12</title>
<g id="a_node12"><a xlink:href="group__utilities.html#gaecd67eda4fb5f4859bb8f6d383547721" target="_top" xlink:title="Convert text to QuantLib::Integer.">
<polygon fill="white" stroke="#666666" points="880,-419.551 766,-419.551 766,-400.551 880,-400.551 880,-419.551"/>
<text text-anchor="middle" x="823" y="-407.551" font-family="Helvetica,sans-Serif" font-size="10.00">ore::data::parseInteger</text>
</a>
</g>
</g>
<!-- Node8&#45;&gt;Node12 -->
<g id="edge27" class="edge"><title>Node8&#45;&gt;Node12</title>
<path fill="none" stroke="#63b8ff" d="M149.767,-293.554C164.632,-315.138 204.444,-367.571 253,-388.051 425.291,-460.721 653.61,-438.015 761.106,-421.201"/>
<polygon fill="#63b8ff" stroke="#63b8ff" points="761.806,-424.633 771.126,-419.595 760.698,-417.721 761.806,-424.633"/>
</g>
<!-- Node14 -->
<g id="node14" class="node"><title>Node14</title>
<g id="a_node14"><a xlink:href="group__utilities.html#ga8e0623e2cb01e250e9cfec4619256208" target="_top" xlink:title="Convert text to QuantLib::Period.">
<polygon fill="white" stroke="#666666" points="730,-68.551 617,-68.551 617,-49.551 730,-49.551 730,-68.551"/>
<text text-anchor="middle" x="673.5" y="-56.551" font-family="Helvetica,sans-Serif" font-size="10.00">ore::data::parsePeriod</text>
</a>
</g>
</g>
<!-- Node8&#45;&gt;Node14 -->
<g id="edge29" class="edge"><title>Node8&#45;&gt;Node14</title>
<path fill="none" stroke="#63b8ff" d="M144.298,-274.537C148.038,-236.752 167.454,-96.6607 253,-41.051 375.833,38.798 564.351,-17.8202 639.715,-45.8474"/>
<polygon fill="#63b8ff" stroke="#63b8ff" points="638.575,-49.1581 649.166,-49.4347 641.059,-42.6137 638.575,-49.1581"/>
</g>
<!-- Node15 -->
<g id="node15" class="node"><title>Node15</title>
<g id="a_node15"><a xlink:href="namespaceore_1_1data.html#a2c4ad9608d140b7d127d9aabc3002782" target="_top" xlink:title="return true if s represents a period of the form [0&#45;9][D|W|M|Y] (i.e. 1Y6M would return false)">
<polygon fill="white" stroke="#666666" points="384.5,-272.551 270.5,-272.551 270.5,-253.551 384.5,-253.551 384.5,-272.551"/>
<text text-anchor="middle" x="327.5" y="-260.551" font-family="Helvetica,sans-Serif" font-size="10.00">ore::data::isOnePeriod</text>
</a>
</g>
</g>
<!-- Node8&#45;&gt;Node15 -->
<g id="edge16" class="edge"><title>Node8&#45;&gt;Node15</title>
<path fill="none" stroke="#63b8ff" d="M214.253,-275.932C229.371,-274.197 245.287,-272.371 260.229,-270.656"/>
<polygon fill="#63b8ff" stroke="#63b8ff" points="260.86,-274.107 270.396,-269.489 260.062,-267.152 260.86,-274.107"/>
</g>
<!-- Node16 -->
<g id="node16" class="node"><title>Node16</title>
<g id="a_node16"><a xlink:href="namespaceore_1_1data.html#af07ebcb16f5c4b8f23aa841778ec1ede" target="_top" xlink:title="Parse a Strike from its string representation, strStrike.">
<polygon fill="white" stroke="#666666" points="394,-235.551 261,-235.551 261,-216.551 394,-216.551 394,-235.551"/>
<text text-anchor="middle" x="327.5" y="-223.551" font-family="Helvetica,sans-Serif" font-size="10.00">ore::data::parseBaseStrike</text>
</a>
</g>
</g>
<!-- Node8&#45;&gt;Node16 -->
<g id="edge17" class="edge"><title>Node8&#45;&gt;Node16</title>
<path fill="none" stroke="#63b8ff" d="M167.168,-274.547C189.176,-265.916 222.986,-253.178 253,-244.051 259.671,-242.022 266.736,-240.061 273.744,-238.226"/>
<polygon fill="#63b8ff" stroke="#63b8ff" points="275.091,-241.495 283.919,-235.636 273.364,-234.712 275.091,-241.495"/>
</g>
<!-- Node17 -->
<g id="node17" class="node"><title>Node17</title>
<g id="a_node17"><a xlink:href="group__utilities.html#ga94621f11193864fa1338296232dc5be9" target="_top" xlink:title="Convert text to bool.">
<polygon fill="white" stroke="#666666" points="379.5,-180.551 275.5,-180.551 275.5,-161.551 379.5,-161.551 379.5,-180.551"/>
<text text-anchor="middle" x="327.5" y="-168.551" font-family="Helvetica,sans-Serif" font-size="10.00">ore::data::parseBool</text>
</a>
</g>
</g>
<!-- Node8&#45;&gt;Node17 -->
<g id="edge18" class="edge"><title>Node8&#45;&gt;Node17</title>
<path fill="none" stroke="#63b8ff" d="M155.879,-274.371C175.729,-259.075 216.195,-228.822 253,-207.051 266.58,-199.018 282.209,-191.18 295.554,-184.88"/>
<polygon fill="#63b8ff" stroke="#63b8ff" points="297.21,-187.97 304.805,-180.583 294.261,-181.621 297.21,-187.97"/>
</g>
<!-- Node18 -->
<g id="node18" class="node"><title>Node18</title>
<g id="a_node18"><a xlink:href="namespaceore_1_1data.html#a4d60e66c3714d2cf33fc135d20502ccb" target="_top" xlink:title=" ">
<polygon fill="white" stroke="#666666" points="402,-143.551 253,-143.551 253,-124.551 402,-124.551 402,-143.551"/>
<text text-anchor="middle" x="327.5" y="-131.551" font-family="Helvetica,sans-Serif" font-size="10.00">ore::data::parseCdsDocClause</text>
</a>
</g>
</g>
<!-- Node8&#45;&gt;Node18 -->
<g id="edge20" class="edge"><title>Node8&#45;&gt;Node18</title>
<path fill="none" stroke="#63b8ff" d="M148.646,-274.278C162.168,-249.599 201.259,-184.435 253,-152.051 255.643,-150.397 258.428,-148.895 261.305,-147.53"/>
<polygon fill="#63b8ff" stroke="#63b8ff" points="262.846,-150.681 270.751,-143.626 260.172,-144.212 262.846,-150.681"/>
</g>
<!-- Node19 -->
<g id="node19" class="node"><title>Node19</title>
<g id="a_node19"><a xlink:href="group__utilities.html#gaefb008d0de256c79140545d9c7549093" target="_top" xlink:title="Convert text to QuantLib::DayCounter.">
<polygon fill="white" stroke="#666666" points="395.5,-106.551 259.5,-106.551 259.5,-87.551 395.5,-87.551 395.5,-106.551"/>
<text text-anchor="middle" x="327.5" y="-94.551" font-family="Helvetica,sans-Serif" font-size="10.00">ore::data::parseDayCounter</text>
</a>
</g>
</g>
<!-- Node8&#45;&gt;Node19 -->
<g id="edge22" class="edge"><title>Node8&#45;&gt;Node19</title>
<path fill="none" stroke="#63b8ff" d="M146.888,-274.183C157.476,-244.886 192.878,-157.794 253,-115.051 255.108,-113.552 257.327,-112.178 259.626,-110.917"/>
<polygon fill="#63b8ff" stroke="#63b8ff" points="261.268,-114.013 268.835,-106.597 258.295,-107.676 261.268,-114.013"/>
</g>
<!-- Node20 -->
<g id="node20" class="node"><title>Node20</title>
<g id="a_node20"><a xlink:href="namespaceore_1_1data.html#aef9033372c401fe3ddef3c912a716d5a" target="_top" xlink:title="Parse an Expiry from its string representation, strExpiry.">
<polygon fill="white" stroke="#666666" points="384,-358.551 271,-358.551 271,-339.551 384,-339.551 384,-358.551"/>
<text text-anchor="middle" x="327.5" y="-346.551" font-family="Helvetica,sans-Serif" font-size="10.00">ore::data::parseExpiry</text>
</a>
</g>
</g>
<!-- Node8&#45;&gt;Node20 -->
<g id="edge23" class="edge"><title>Node8&#45;&gt;Node20</title>
<path fill="none" stroke="#63b8ff" d="M163.745,-293.599C185.469,-303.597 221.153,-319.308 253,-330.051 260.207,-332.482 267.9,-334.783 275.494,-336.888"/>
<polygon fill="#63b8ff" stroke="#63b8ff" points="274.804,-340.327 285.37,-339.538 276.618,-333.566 274.804,-340.327"/>
</g>
<!-- Node21 -->
<g id="node21" class="node"><title>Node21</title>
<g id="a_node21"><a xlink:href="group__marketdata.html#ga8c35268c175452bca6e2acb7ad58442d" target="_top" xlink:title="Convert text to QuantLib::Period of Fx forward string.">
<polygon fill="white" stroke="#666666" points="571.5,-68.551 447.5,-68.551 447.5,-49.551 571.5,-49.551 571.5,-68.551"/>
<text text-anchor="middle" x="509.5" y="-56.551" font-family="Helvetica,sans-Serif" font-size="10.00">ore::data::parseFxPeriod</text>
</a>
</g>
</g>
<!-- Node8&#45;&gt;Node21 -->
<g id="edge25" class="edge"><title>Node8&#45;&gt;Node21</title>
<path fill="none" stroke="#63b8ff" d="M145.225,-274.509C151.896,-240.702 179.398,-126.087 253,-78.051 311.21,-40.0607 393.562,-41.3721 448.89,-48.159"/>
<polygon fill="#63b8ff" stroke="#63b8ff" points="448.522,-51.6407 458.895,-49.4817 449.44,-44.7011 448.522,-51.6407"/>
</g>
<!-- Node22 -->
<g id="node22" class="node"><title>Node22</title>
<g id="a_node22"><a xlink:href="group__utilities.html#gad1db2a68f9a73667c3b4084d63955bdd" target="_top" xlink:title="Convert text to Real.">
<polygon fill="white" stroke="#666666" points="379.5,-509.551 275.5,-509.551 275.5,-490.551 379.5,-490.551 379.5,-509.551"/>
<text text-anchor="middle" x="327.5" y="-497.551" font-family="Helvetica,sans-Serif" font-size="10.00">ore::data::parseReal</text>
</a>
</g>
</g>
<!-- Node8&#45;&gt;Node22 -->
<g id="edge30" class="edge"><title>Node8&#45;&gt;Node22</title>
<path fill="none" stroke="#63b8ff" d="M149.185,-293.6C161.737,-314.756 192.636,-367.254 217,-412.051 233.715,-442.784 225.535,-460.382 253,-482.051 256.858,-485.095 261.158,-487.634 265.688,-489.75"/>
<polygon fill="#63b8ff" stroke="#63b8ff" points="264.656,-493.105 275.243,-493.526 267.229,-486.595 264.656,-493.105"/>
</g>
<!-- Node23 -->
<g id="node23" class="node"><title>Node23</title>
<g id="a_node23"><a xlink:href="group__utilities.html#ga3447951aa05e25440d0d5b7eecfce581" target="_top" xlink:title="Attempt to convert text to Real.">
<polygon fill="white" stroke="#666666" points="386,-472.551 269,-472.551 269,-453.551 386,-453.551 386,-472.551"/>
<text text-anchor="middle" x="327.5" y="-460.551" font-family="Helvetica,sans-Serif" font-size="10.00">ore::data::tryParseReal</text>
</a>
</g>
</g>
<!-- Node8&#45;&gt;Node23 -->
<g id="edge32" class="edge"><title>Node8&#45;&gt;Node23</title>
<path fill="none" stroke="#63b8ff" d="M147.614,-293.672C159.671,-320.728 197.591,-398.167 253,-439.051 258.867,-443.38 265.552,-446.952 272.445,-449.894"/>
<polygon fill="#63b8ff" stroke="#63b8ff" points="271.326,-453.213 281.916,-453.527 273.833,-446.677 271.326,-453.213"/>
</g>
<!-- Node9&#45;&gt;Node10 -->
<g id="edge9" class="edge"><title>Node9&#45;&gt;Node10</title>
<path fill="none" stroke="#63b8ff" d="M391.455,-321.09C413.498,-326.356 437.926,-332.192 458.739,-337.164"/>
<polygon fill="#63b8ff" stroke="#63b8ff" points="458.1,-340.609 468.639,-339.529 459.726,-333.801 458.1,-340.609"/>
</g>
<!-- Node11 -->
<g id="node11" class="node"><title>Node11</title>
<g id="a_node11"><a xlink:href="group__utilities.html#ga59b5fdda574d90facae95dec2d13040d" target="_top" xlink:title="Convert std::string to QuantLib::Date.">
<polygon fill="white" stroke="#666666" points="726,-368.551 621,-368.551 621,-349.551 726,-349.551 726,-368.551"/>
<text text-anchor="middle" x="673.5" y="-356.551" font-family="Helvetica,sans-Serif" font-size="10.00">ore::data::parseDate</text>
</a>
</g>
</g>
<!-- Node10&#45;&gt;Node11 -->
<g id="edge10" class="edge"><title>Node10&#45;&gt;Node11</title>
<path fill="none" stroke="#63b8ff" d="M581.084,-353.408C590.852,-354.011 600.826,-354.627 610.424,-355.219"/>
<polygon fill="#63b8ff" stroke="#63b8ff" points="610.468,-358.728 620.664,-355.851 610.899,-351.742 610.468,-358.728"/>
</g>
<!-- Node10&#45;&gt;Node14 -->
<g id="edge15" class="edge"><title>Node10&#45;&gt;Node14</title>
<path fill="none" stroke="#63b8ff" d="M515.89,-339.402C539.144,-297.774 631.106,-133.151 662.179,-77.5264"/>
<polygon fill="#63b8ff" stroke="#63b8ff" points="665.268,-79.1732 667.09,-68.7361 659.157,-75.7594 665.268,-79.1732"/>
</g>
<!-- Node11&#45;&gt;Node11 -->
<g id="edge11" class="edge"><title>Node11&#45;&gt;Node11</title>
<path fill="none" stroke="#63b8ff" d="M650.689,-368.634C639.592,-377.285 647.195,-386.551 673.5,-386.551 690.351,-386.551 699.528,-382.748 701.03,-377.74"/>
<polygon fill="#63b8ff" stroke="#63b8ff" points="704.019,-375.903 696.311,-368.634 697.804,-379.123 704.019,-375.903"/>
</g>
<!-- Node11&#45;&gt;Node12 -->
<g id="edge12" class="edge"><title>Node11&#45;&gt;Node12</title>
<path fill="none" stroke="#63b8ff" d="M702.244,-368.644C725.524,-376.693 758.988,-388.264 784.626,-397.129"/>
<polygon fill="#63b8ff" stroke="#63b8ff" points="783.786,-400.541 794.381,-400.501 786.074,-393.926 783.786,-400.541"/>
</g>
<!-- Node13 -->
<g id="node13" class="node"><title>Node13</title>
<g id="a_node13"><a xlink:href="namespaceore_1_1data.html#a777e216dee6069b548bb87da7152699e" target="_top" xlink:title=" ">
<polygon fill="white" stroke="#666666" points="862.5,-368.551 783.5,-368.551 783.5,-349.551 862.5,-349.551 862.5,-368.551"/>
<text text-anchor="middle" x="823" y="-356.551" font-family="Helvetica,sans-Serif" font-size="10.00">ore::data::size</text>
</a>
</g>
</g>
<!-- Node11&#45;&gt;Node13 -->
<g id="edge14" class="edge"><title>Node11&#45;&gt;Node13</title>
<path fill="none" stroke="#63b8ff" d="M726.088,-359.051C741.343,-359.051 757.992,-359.051 773.074,-359.051"/>
<polygon fill="#63b8ff" stroke="#63b8ff" points="773.228,-362.551 783.228,-359.051 773.228,-355.551 773.228,-362.551"/>
</g>
<!-- Node12&#45;&gt;Node12 -->
<g id="edge13" class="edge"><title>Node12&#45;&gt;Node12</title>
<path fill="none" stroke="#63b8ff" d="M800.189,-419.634C789.092,-428.285 796.695,-437.551 823,-437.551 839.851,-437.551 849.028,-433.748 850.53,-428.74"/>
<polygon fill="#63b8ff" stroke="#63b8ff" points="853.519,-426.903 845.811,-419.634 847.304,-430.123 853.519,-426.903"/>
</g>
<!-- Node17&#45;&gt;Node17 -->
<g id="edge19" class="edge"><title>Node17&#45;&gt;Node17</title>
<path fill="none" stroke="#63b8ff" d="M299.449,-180.634C285.802,-189.285 295.152,-198.551 327.5,-198.551 349.739,-198.551 361.108,-194.171 361.608,-188.623"/>
<polygon fill="#63b8ff" stroke="#63b8ff" points="364.382,-186.488 355.551,-180.634 358.804,-190.717 364.382,-186.488"/>
</g>
<!-- Node20&#45;&gt;Node10 -->
<g id="edge24" class="edge"><title>Node20&#45;&gt;Node10</title>
<path fill="none" stroke="#63b8ff" d="M384.466,-349.051C398.218,-349.051 413.213,-349.051 427.873,-349.051"/>
<polygon fill="#63b8ff" stroke="#63b8ff" points="427.948,-352.551 437.948,-349.051 427.948,-345.551 427.948,-352.551"/>
</g>
<!-- Node21&#45;&gt;Node14 -->
<g id="edge26" class="edge"><title>Node21&#45;&gt;Node14</title>
<path fill="none" stroke="#63b8ff" d="M571.745,-59.051C583.18,-59.051 595.174,-59.051 606.738,-59.051"/>
<polygon fill="#63b8ff" stroke="#63b8ff" points="606.765,-62.5511 616.765,-59.051 606.765,-55.5511 606.765,-62.5511"/>
</g>
<!-- Node22&#45;&gt;Node22 -->
<g id="edge31" class="edge"><title>Node22&#45;&gt;Node22</title>
<path fill="none" stroke="#63b8ff" d="M299.449,-509.634C285.802,-518.285 295.152,-527.551 327.5,-527.551 349.739,-527.551 361.108,-523.171 361.608,-517.623"/>
<polygon fill="#63b8ff" stroke="#63b8ff" points="364.382,-515.488 355.551,-509.634 358.804,-519.717 364.382,-515.488"/>
</g>
</g>
</svg>
