<?xml version="1.0" encoding="UTF-8" standalone="no"?>
<!DOCTYPE svg PUBLIC "-//W3C//DTD SVG 1.1//EN"
 "http://www.w3.org/Graphics/SVG/1.1/DTD/svg11.dtd">
<!-- Generated by graphviz version 2.38.0 (20140413.2041)
 -->
<!-- Title: isEq Pages: 1 -->
<svg width="627pt" height="363pt"
 viewBox="0.00 0.00 627.00 362.50" xmlns="http://www.w3.org/2000/svg" xmlns:xlink="http://www.w3.org/1999/xlink">
<g id="graph0" class="graph" transform="scale(1 1) rotate(0) translate(4 358.5)">
<title>isEq</title>
<!-- Node1 -->
<g id="node1" class="node"><title>Node1</title>
<g id="a_node1"><a xlink:title=" ">
<polygon fill="#999999" stroke="#666666" points="619,-182.5 583,-182.5 583,-163.5 619,-163.5 619,-182.5"/>
<text text-anchor="middle" x="601" y="-170.5" font-family="Helvetica,sans-Serif" font-size="10.00">isEq</text>
</a>
</g>
</g>
<!-- Node2 -->
<g id="node2" class="node"><title>Node2</title>
<g id="a_node2"><a xlink:href="namespaceore_1_1data.html#af3f188ba8bea2815f6ae6ad91ce54ff9" target="_top" xlink:title=" ">
<polygon fill="white" stroke="#666666" points="526,-212 401,-212 401,-182 526,-182 526,-212"/>
<text text-anchor="start" x="409" y="-200" font-family="Helvetica,sans-Serif" font-size="10.00">ore::data::convertIndexTo</text>
<text text-anchor="middle" x="463.5" y="-189" font-family="Helvetica,sans-Serif" font-size="10.00">CamCorrelationEntry</text>
</a>
</g>
</g>
<!-- Node1&#45;&gt;Node2 -->
<g id="edge1" class="edge"><title>Node1&#45;&gt;Node2</title>
<path fill="none" stroke="#63b8ff" d="M572.866,-177.806C559.436,-180.185 542.632,-183.161 526.293,-186.055"/>
<polygon fill="#63b8ff" stroke="#63b8ff" points="573.603,-181.23 582.839,-176.04 572.382,-174.337 573.603,-181.23"/>
</g>
<!-- Node5 -->
<g id="node5" class="node"><title>Node5</title>
<g id="a_node5"><a xlink:href="classore_1_1data_1_1_scripted_trade_engine_builder.html#af6b239a5a8b30b9069172ca0e196b57a" target="_top" xlink:title=" ">
<polygon fill="white" stroke="#666666" points="333.5,-307 167.5,-307 167.5,-277 333.5,-277 333.5,-307"/>
<text text-anchor="start" x="175.5" y="-295" font-family="Helvetica,sans-Serif" font-size="10.00">ore::data::ScriptedTrade</text>
<text text-anchor="middle" x="250.5" y="-284" font-family="Helvetica,sans-Serif" font-size="10.00">EngineBuilder::deriveProductClass</text>
</a>
</g>
</g>
<!-- Node1&#45;&gt;Node5 -->
<g id="edge4" class="edge"><title>Node1&#45;&gt;Node5</title>
<path fill="none" stroke="#63b8ff" d="M592.551,-191.996C584.31,-210.308 569.191,-237.213 547,-251 483.098,-290.701 396.582,-298.549 333.684,-297.91"/>
<polygon fill="#63b8ff" stroke="#63b8ff" points="595.85,-193.181 596.517,-182.607 589.401,-190.457 595.85,-193.181"/>
</g>
<!-- Node6 -->
<g id="node6" class="node"><title>Node6</title>
<g id="a_node6"><a xlink:href="classore_1_1data_1_1_scripted_trade_engine_builder.html#a49512e4f85a8ba872b2b05b90478cb4b" target="_top" xlink:title=" ">
<polygon fill="white" stroke="#666666" points="322,-259 179,-259 179,-229 322,-229 322,-259"/>
<text text-anchor="start" x="187" y="-247" font-family="Helvetica,sans-Serif" font-size="10.00">ore::data::ScriptedTrade</text>
<text text-anchor="middle" x="250.5" y="-236" font-family="Helvetica,sans-Serif" font-size="10.00">EngineBuilder::extractIndices</text>
</a>
</g>
</g>
<!-- Node1&#45;&gt;Node6 -->
<g id="edge6" class="edge"><title>Node1&#45;&gt;Node6</title>
<path fill="none" stroke="#63b8ff" d="M586.088,-190.477C576.385,-201.293 562.445,-214.346 547,-221 474.932,-252.05 383.864,-254.268 322.008,-250.987"/>
<polygon fill="#63b8ff" stroke="#63b8ff" points="588.819,-192.668 592.637,-182.784 583.489,-188.13 588.819,-192.668"/>
</g>
<!-- Node7 -->
<g id="node7" class="node"><title>Node7</title>
<g id="a_node7"><a xlink:href="classore_1_1data_1_1_scripted_trade_engine_builder.html#afce9c1a8fdc0a930a897834caea0e42b" target="_top" xlink:title=" ">
<polygon fill="white" stroke="#666666" points="526,-164 401,-164 401,-134 526,-134 526,-164"/>
<text text-anchor="start" x="409" y="-152" font-family="Helvetica,sans-Serif" font-size="10.00">ore::data::ScriptedTrade</text>
<text text-anchor="middle" x="463.5" y="-141" font-family="Helvetica,sans-Serif" font-size="10.00">EngineBuilder::getEqCcy</text>
</a>
</g>
</g>
<!-- Node1&#45;&gt;Node7 -->
<g id="edge8" class="edge"><title>Node1&#45;&gt;Node7</title>
<path fill="none" stroke="#63b8ff" d="M572.866,-168.194C559.436,-165.815 542.632,-162.839 526.293,-159.945"/>
<polygon fill="#63b8ff" stroke="#63b8ff" points="572.382,-171.663 582.839,-169.96 573.603,-164.77 572.382,-171.663"/>
</g>
<!-- Node10 -->
<g id="node10" class="node"><title>Node10</title>
<g id="a_node10"><a xlink:href="classore_1_1data_1_1_generic_barrier_option.html#ad26c000045b9b49ae45e512203d3fa8e" target="_top" xlink:title=" ">
<polygon fill="white" stroke="#666666" points="538,-78 389,-78 389,-48 538,-48 538,-78"/>
<text text-anchor="start" x="397" y="-66" font-family="Helvetica,sans-Serif" font-size="10.00">ore::data::GenericBarrier</text>
<text text-anchor="middle" x="463.5" y="-55" font-family="Helvetica,sans-Serif" font-size="10.00">Option::getUnderlyingCalendar</text>
</a>
</g>
</g>
<!-- Node1&#45;&gt;Node10 -->
<g id="edge14" class="edge"><title>Node1&#45;&gt;Node10</title>
<path fill="none" stroke="#63b8ff" d="M593.066,-153.964C584.965,-134.356 569.709,-104.292 547,-87 542.49,-83.566 537.502,-80.6227 532.275,-78.1"/>
<polygon fill="#63b8ff" stroke="#63b8ff" points="589.847,-155.343 596.742,-163.387 596.368,-152.799 589.847,-155.343"/>
</g>
<!-- Node12 -->
<g id="node12" class="node"><title>Node12</title>
<g id="a_node12"><a xlink:href="namespaceore_1_1data.html#afbb968fe0a8ccf155b0a7a150513b92f" target="_top" xlink:title=" ">
<polygon fill="white" stroke="#666666" points="517.5,-115.5 409.5,-115.5 409.5,-96.5 517.5,-96.5 517.5,-115.5"/>
<text text-anchor="middle" x="463.5" y="-103.5" font-family="Helvetica,sans-Serif" font-size="10.00">ore::data::operator&lt;&lt;</text>
</a>
</g>
</g>
<!-- Node1&#45;&gt;Node12 -->
<g id="edge16" class="edge"><title>Node1&#45;&gt;Node12</title>
<path fill="none" stroke="#63b8ff" d="M585.091,-155.595C575.28,-145.215 561.588,-132.616 547,-125 538.01,-120.307 527.873,-116.763 517.86,-114.09"/>
<polygon fill="#63b8ff" stroke="#63b8ff" points="582.765,-158.241 592.071,-163.305 587.955,-153.543 582.765,-158.241"/>
</g>
<!-- Node13 -->
<g id="node13" class="node"><title>Node13</title>
<g id="a_node13"><a xlink:href="classore_1_1data_1_1_scripted_trade_engine_builder.html#a31d7bba9c9f48e4364e7a7997002d280" target="_top" xlink:title=" ">
<polygon fill="white" stroke="#666666" points="547,-354.5 380,-354.5 380,-313.5 547,-313.5 547,-354.5"/>
<text text-anchor="start" x="388" y="-342.5" font-family="Helvetica,sans-Serif" font-size="10.00">ore::data::ScriptedTrade</text>
<text text-anchor="start" x="388" y="-331.5" font-family="Helvetica,sans-Serif" font-size="10.00">EngineBuilder::setupBlackScholes</text>
<text text-anchor="middle" x="463.5" y="-320.5" font-family="Helvetica,sans-Serif" font-size="10.00">Processes</text>
</a>
</g>
</g>
<!-- Node1&#45;&gt;Node13 -->
<g id="edge17" class="edge"><title>Node1&#45;&gt;Node13</title>
<path fill="none" stroke="#63b8ff" d="M596.245,-192.806C590.22,-219.614 576.001,-267.482 547,-297 540.619,-303.494 532.895,-308.945 524.764,-313.492"/>
<polygon fill="#63b8ff" stroke="#63b8ff" points="599.733,-193.225 598.344,-182.721 592.88,-191.798 599.733,-193.225"/>
</g>
<!-- Node14 -->
<g id="node14" class="node"><title>Node14</title>
<g id="a_node14"><a xlink:href="classore_1_1data_1_1_scripted_trade.html#a6da7779e38177d8b39cb72df2c538d0f" target="_top" xlink:title=" ">
<polygon fill="white" stroke="#666666" points="524,-30 403,-30 403,-0 524,-0 524,-30"/>
<text text-anchor="start" x="411" y="-18" font-family="Helvetica,sans-Serif" font-size="10.00">ore::data::ScriptedTrade</text>
<text text-anchor="middle" x="463.5" y="-7" font-family="Helvetica,sans-Serif" font-size="10.00">::underlyingIndices</text>
</a>
</g>
</g>
<!-- Node1&#45;&gt;Node14 -->
<g id="edge19" class="edge"><title>Node1&#45;&gt;Node14</title>
<path fill="none" stroke="#63b8ff" d="M597.638,-153.074C593.109,-123.835 580.477,-69.4829 547,-39 540.493,-33.0746 532.603,-28.6057 524.313,-25.2366"/>
<polygon fill="#63b8ff" stroke="#63b8ff" points="594.211,-153.847 599.043,-163.276 601.146,-152.892 594.211,-153.847"/>
</g>
<!-- Node3 -->
<g id="node3" class="node"><title>Node3</title>
<g id="a_node3"><a xlink:href="classore_1_1data_1_1_scripted_trade_engine_builder.html#a8f7fd6b51798363b9f87020fb40b792b" target="_top" xlink:title=" ">
<polygon fill="white" stroke="#666666" points="332.5,-211 168.5,-211 168.5,-181 332.5,-181 332.5,-211"/>
<text text-anchor="start" x="176.5" y="-199" font-family="Helvetica,sans-Serif" font-size="10.00">ore::data::ScriptedTrade</text>
<text text-anchor="middle" x="250.5" y="-188" font-family="Helvetica,sans-Serif" font-size="10.00">EngineBuilder::buildGaussianCam</text>
</a>
</g>
</g>
<!-- Node2&#45;&gt;Node3 -->
<g id="edge2" class="edge"><title>Node2&#45;&gt;Node3</title>
<path fill="none" stroke="#63b8ff" d="M390.729,-196.66C372.095,-196.572 351.892,-196.476 332.806,-196.385"/>
<polygon fill="#63b8ff" stroke="#63b8ff" points="390.886,-200.161 400.903,-196.708 390.92,-193.161 390.886,-200.161"/>
</g>
<!-- Node4 -->
<g id="node4" class="node"><title>Node4</title>
<g id="a_node4"><a xlink:href="classore_1_1data_1_1_scripted_trade_engine_builder.html#afa7bc32050325672e45000b32d62ec0b" target="_top" xlink:title=" ">
<polygon fill="white" stroke="#666666" points="121,-235 0,-235 0,-205 121,-205 121,-235"/>
<text text-anchor="start" x="8" y="-223" font-family="Helvetica,sans-Serif" font-size="10.00">ore::data::ScriptedTrade</text>
<text text-anchor="middle" x="60.5" y="-212" font-family="Helvetica,sans-Serif" font-size="10.00">EngineBuilder::engine</text>
</a>
</g>
</g>
<!-- Node3&#45;&gt;Node4 -->
<g id="edge3" class="edge"><title>Node3&#45;&gt;Node4</title>
<path fill="none" stroke="#63b8ff" d="M158.295,-207.643C145.647,-209.258 132.931,-210.881 121.065,-212.396"/>
<polygon fill="#63b8ff" stroke="#63b8ff" points="158.931,-211.091 168.407,-206.352 158.044,-204.147 158.931,-211.091"/>
</g>
<!-- Node5&#45;&gt;Node4 -->
<g id="edge5" class="edge"><title>Node5&#45;&gt;Node4</title>
<path fill="none" stroke="#63b8ff" d="M174.297,-273.93C168.397,-272.075 162.571,-270.096 157,-268 132.685,-258.853 106.403,-245.355 87.5774,-235.001"/>
<polygon fill="#63b8ff" stroke="#63b8ff" points="173.68,-277.4 184.265,-276.933 175.699,-270.697 173.68,-277.4"/>
</g>
<!-- Node6&#45;&gt;Node4 -->
<g id="edge7" class="edge"><title>Node6&#45;&gt;Node4</title>
<path fill="none" stroke="#63b8ff" d="M169.025,-233.727C152.927,-231.672 136.289,-229.548 121.052,-227.602"/>
<polygon fill="#63b8ff" stroke="#63b8ff" points="168.598,-237.2 178.961,-234.995 169.485,-230.257 168.598,-237.2"/>
</g>
<!-- Node7&#45;&gt;Node3 -->
<g id="edge9" class="edge"><title>Node7&#45;&gt;Node3</title>
<path fill="none" stroke="#63b8ff" d="M391.096,-164.905C367.822,-170.089 342.068,-175.826 319.084,-180.946"/>
<polygon fill="#63b8ff" stroke="#63b8ff" points="391.903,-168.311 400.903,-162.721 390.381,-161.479 391.903,-168.311"/>
</g>
<!-- Node8 -->
<g id="node8" class="node"><title>Node8</title>
<g id="a_node8"><a xlink:href="classore_1_1data_1_1_scripted_trade_engine_builder.html#a2ed97ef63fce9142884cd39bd0bf56df" target="_top" xlink:title=" ">
<polygon fill="white" stroke="#666666" points="338.5,-115 162.5,-115 162.5,-85 338.5,-85 338.5,-115"/>
<text text-anchor="start" x="170.5" y="-103" font-family="Helvetica,sans-Serif" font-size="10.00">ore::data::ScriptedTrade</text>
<text text-anchor="middle" x="250.5" y="-92" font-family="Helvetica,sans-Serif" font-size="10.00">EngineBuilder::compileModelCcyList</text>
</a>
</g>
</g>
<!-- Node7&#45;&gt;Node8 -->
<g id="edge10" class="edge"><title>Node7&#45;&gt;Node8</title>
<path fill="none" stroke="#63b8ff" d="M391.041,-132.405C366.773,-126.77 339.814,-120.509 316.112,-115.005"/>
<polygon fill="#63b8ff" stroke="#63b8ff" points="390.37,-135.843 400.903,-134.695 391.954,-129.024 390.37,-135.843"/>
</g>
<!-- Node9 -->
<g id="node9" class="node"><title>Node9</title>
<g id="a_node9"><a xlink:href="classore_1_1data_1_1_scripted_trade_engine_builder.html#ae13e914b702c5f8b9c7fa8c5540ce47c" target="_top" xlink:title=" ">
<polygon fill="white" stroke="#666666" points="344,-163 157,-163 157,-133 344,-133 344,-163"/>
<text text-anchor="start" x="165" y="-151" font-family="Helvetica,sans-Serif" font-size="10.00">ore::data::ScriptedTrade</text>
<text text-anchor="middle" x="250.5" y="-140" font-family="Helvetica,sans-Serif" font-size="10.00">EngineBuilder::compileModelIndexLists</text>
</a>
</g>
</g>
<!-- Node7&#45;&gt;Node9 -->
<g id="edge12" class="edge"><title>Node7&#45;&gt;Node9</title>
<path fill="none" stroke="#63b8ff" d="M390.717,-148.66C375.746,-148.589 359.763,-148.513 344.16,-148.439"/>
<polygon fill="#63b8ff" stroke="#63b8ff" points="390.886,-152.161 400.903,-148.708 390.92,-145.161 390.886,-152.161"/>
</g>
<!-- Node8&#45;&gt;Node4 -->
<g id="edge11" class="edge"><title>Node8&#45;&gt;Node4</title>
<path fill="none" stroke="#63b8ff" d="M167.012,-118.879C163.565,-120.454 160.211,-122.158 157,-124 120.501,-144.943 88.3529,-183.534 72.3159,-204.854"/>
<polygon fill="#63b8ff" stroke="#63b8ff" points="168.435,-122.078 176.322,-115.004 165.745,-115.615 168.435,-122.078"/>
</g>
<!-- Node9&#45;&gt;Node4 -->
<g id="edge13" class="edge"><title>Node9&#45;&gt;Node4</title>
<path fill="none" stroke="#63b8ff" d="M174.297,-166.07C168.397,-167.925 162.571,-169.904 157,-172 132.685,-181.147 106.403,-194.645 87.5774,-204.999"/>
<polygon fill="#63b8ff" stroke="#63b8ff" points="175.699,-169.303 184.265,-163.067 173.68,-162.6 175.699,-169.303"/>
</g>
<!-- Node11 -->
<g id="node11" class="node"><title>Node11</title>
<g id="a_node11"><a xlink:href="classore_1_1data_1_1_generic_barrier_option.html#af7b69d5b18d278257927e32b10a23ee6" target="_top" xlink:title=" ">
<polygon fill="white" stroke="#666666" points="312,-67 189,-67 189,-37 312,-37 312,-67"/>
<text text-anchor="start" x="197" y="-55" font-family="Helvetica,sans-Serif" font-size="10.00">ore::data::GenericBarrier</text>
<text text-anchor="middle" x="250.5" y="-44" font-family="Helvetica,sans-Serif" font-size="10.00">Option::build</text>
</a>
</g>
</g>
<!-- Node10&#45;&gt;Node11 -->
<g id="edge15" class="edge"><title>Node10&#45;&gt;Node11</title>
<path fill="none" stroke="#63b8ff" d="M378.874,-58.6403C356.596,-57.4789 332.957,-56.2466 312.17,-55.1629"/>
<polygon fill="#63b8ff" stroke="#63b8ff" points="378.83,-62.1427 388.999,-59.1682 379.194,-55.1522 378.83,-62.1427"/>
</g>
<!-- Node13&#45;&gt;Node4 -->
<g id="edge18" class="edge"><title>Node13&#45;&gt;Node4</title>
<path fill="none" stroke="#63b8ff" d="M369.66,-345.288C306.901,-348.986 223.646,-346.037 157,-316 117.992,-298.42 86.18,-257.315 71.0478,-235.02"/>
<polygon fill="#63b8ff" stroke="#63b8ff" points="370.195,-348.76 379.944,-344.612 369.736,-341.775 370.195,-348.76"/>
</g>
</g>
</svg>
