<?xml version="1.0" encoding="UTF-8" standalone="no"?>
<!DOCTYPE svg PUBLIC "-//W3C//DTD SVG 1.1//EN"
 "http://www.w3.org/Graphics/SVG/1.1/DTD/svg11.dtd">
<!-- Generated by graphviz version 2.38.0 (20140413.2041)
 -->
<!-- Title: engineImpl Pages: 1 -->
<svg width="404pt" height="161pt"
 viewBox="0.00 0.00 404.00 160.50" xmlns="http://www.w3.org/2000/svg" xmlns:xlink="http://www.w3.org/1999/xlink">
<g id="graph0" class="graph" transform="scale(1 1) rotate(0) translate(4 156.5)">
<title>engineImpl</title>
<!-- Node1 -->
<g id="node1" class="node"><title>Node1</title>
<g id="a_node1"><a xlink:title=" ">
<polygon fill="#999999" stroke="#666666" points="63,-77 0,-77 0,-58 63,-58 63,-77"/>
<text text-anchor="middle" x="31.5" y="-65" font-family="Helvetica,sans-Serif" font-size="10.00">engineImpl</text>
</a>
</g>
</g>
<!-- Node2 -->
<g id="node2" class="node"><title>Node2</title>
<g id="a_node2"><a xlink:href="classore_1_1data_1_1_engine_builder.html#aaacbfbb4007edcf8c34df2f37f8ebae5" target="_top" xlink:title="Return a configuration (or the default one if key not found)">
<polygon fill="white" stroke="#666666" points="228,-152.5 107,-152.5 107,-122.5 228,-122.5 228,-152.5"/>
<text text-anchor="start" x="115" y="-140.5" font-family="Helvetica,sans-Serif" font-size="10.00">ore::data::EngineBuilder</text>
<text text-anchor="middle" x="167.5" y="-129.5" font-family="Helvetica,sans-Serif" font-size="10.00">::configuration</text>
</a>
</g>
</g>
<!-- Node1&#45;&gt;Node2 -->
<g id="edge1" class="edge"><title>Node1&#45;&gt;Node2</title>
<path fill="none" stroke="#63b8ff" d="M44.6265,-77.3578C57.5056,-87.4652 78.7592,-103.132 99,-113.5 102.451,-115.268 106.062,-116.96 109.743,-118.571"/>
<polygon fill="#63b8ff" stroke="#63b8ff" points="108.409,-121.806 118.987,-122.399 111.087,-115.339 108.409,-121.806"/>
</g>
<!-- Node3 -->
<g id="node3" class="node"><title>Node3</title>
<g id="a_node3"><a xlink:href="classore_1_1data_1_1_engine_builder.html#a9d7654707f3b935dcf6a7b19df70c085" target="_top" xlink:title=" ">
<polygon fill="white" stroke="#666666" points="228,-104.5 107,-104.5 107,-74.5 228,-74.5 228,-104.5"/>
<text text-anchor="start" x="115" y="-92.5" font-family="Helvetica,sans-Serif" font-size="10.00">ore::data::EngineBuilder</text>
<text text-anchor="middle" x="167.5" y="-81.5" font-family="Helvetica,sans-Serif" font-size="10.00">::engineParameter</text>
</a>
</g>
</g>
<!-- Node1&#45;&gt;Node3 -->
<g id="edge2" class="edge"><title>Node1&#45;&gt;Node3</title>
<path fill="none" stroke="#63b8ff" d="M63.2423,-72.5472C73.3838,-74.2123 85.1112,-76.1377 96.9452,-78.0805"/>
<polygon fill="#63b8ff" stroke="#63b8ff" points="96.4432,-81.5449 106.878,-79.7113 97.5774,-74.6374 96.4432,-81.5449"/>
</g>
<!-- Node4 -->
<g id="node4" class="node"><title>Node4</title>
<g id="a_node4"><a xlink:href="group__utilities.html#ga6e9e781a58e78200301c76161589fc7b" target="_top" xlink:title="Convert text to QuantLib::Currency.">
<polygon fill="white" stroke="#666666" points="229.5,-56 105.5,-56 105.5,-37 229.5,-37 229.5,-56"/>
<text text-anchor="middle" x="167.5" y="-44" font-family="Helvetica,sans-Serif" font-size="10.00">ore::data::parseCurrency</text>
</a>
</g>
</g>
<!-- Node1&#45;&gt;Node4 -->
<g id="edge3" class="edge"><title>Node1&#45;&gt;Node4</title>
<path fill="none" stroke="#63b8ff" d="M63.2423,-62.6822C73.0433,-61.1462 84.3256,-59.3781 95.7537,-57.5871"/>
<polygon fill="#63b8ff" stroke="#63b8ff" points="96.4631,-61.0187 105.801,-56.0126 95.3792,-54.1032 96.4631,-61.0187"/>
</g>
<!-- Node5 -->
<g id="node5" class="node"><title>Node5</title>
<g id="a_node5"><a xlink:href="group__utilities.html#gaf17e7976e4fe2449bb4e226ee19c0fd9" target="_top" xlink:title="Try to convert std::string to QuantLib::IborIndex.">
<polygon fill="white" stroke="#666666" points="236,-19 99,-19 99,-0 236,-0 236,-19"/>
<text text-anchor="middle" x="167.5" y="-7" font-family="Helvetica,sans-Serif" font-size="10.00">ore::data::tryParseIborIndex</text>
</a>
</g>
</g>
<!-- Node1&#45;&gt;Node5 -->
<g id="edge4" class="edge"><title>Node1&#45;&gt;Node5</title>
<path fill="none" stroke="#63b8ff" d="M46.4719,-57.8722C59.5597,-49.2077 79.9117,-36.6244 99,-28.5 104.454,-26.1787 110.275,-24.0532 116.126,-22.1328"/>
<polygon fill="#63b8ff" stroke="#63b8ff" points="117.423,-25.3954 125.942,-19.0965 115.354,-18.708 117.423,-25.3954"/>
</g>
<!-- Node6 -->
<g id="node6" class="node"><title>Node6</title>
<g id="a_node6"><a xlink:href="group__utilities.html#gac1ecdc5f20e7d73327bccd5f930f8782" target="_top" xlink:title="Convert std::string to QuantLib::IborIndex.">
<polygon fill="white" stroke="#666666" points="396,-19 272,-19 272,-0 396,-0 396,-19"/>
<text text-anchor="middle" x="334" y="-7" font-family="Helvetica,sans-Serif" font-size="10.00">ore::data::parseIborIndex</text>
</a>
</g>
</g>
<!-- Node5&#45;&gt;Node6 -->
<g id="edge5" class="edge"><title>Node5&#45;&gt;Node6</title>
<path fill="none" stroke="#63b8ff" d="M236.358,-9.5C244.727,-9.5 253.3,-9.5 261.717,-9.5"/>
<polygon fill="#63b8ff" stroke="#63b8ff" points="261.883,-13.0001 271.883,-9.5 261.883,-6.0001 261.883,-13.0001"/>
</g>
<!-- Node6&#45;&gt;Node6 -->
<g id="edge6" class="edge"><title>Node6&#45;&gt;Node6</title>
<path fill="none" stroke="#63b8ff" d="M308.415,-19.0828C295.968,-27.7337 304.496,-37 334,-37 353.362,-37 363.691,-33.0094 364.986,-27.8208"/>
<polygon fill="#63b8ff" stroke="#63b8ff" points="367.82,-25.7493 359.585,-19.0828 361.865,-29.4294 367.82,-25.7493"/>
</g>
</g>
</svg>
