<?xml version="1.0" encoding="UTF-8" standalone="no"?>
<!DOCTYPE svg PUBLIC "-//W3C//DTD SVG 1.1//EN"
 "http://www.w3.org/Graphics/SVG/1.1/DTD/svg11.dtd">
<!-- Generated by graphviz version 2.38.0 (20140413.2041)
 -->
<!-- Title: quoteType Pages: 1 -->
<svg width="255pt" height="134pt"
 viewBox="0.00 0.00 255.00 134.00" xmlns="http://www.w3.org/2000/svg" xmlns:xlink="http://www.w3.org/1999/xlink">
<g id="graph0" class="graph" transform="scale(1 1) rotate(0) translate(4 130)">
<title>quoteType</title>
<!-- Node1 -->
<g id="node1" class="node"><title>Node1</title>
<g id="a_node1"><a xlink:title=" ">
<polygon fill="#999999" stroke="#666666" points="247,-72.5 185,-72.5 185,-53.5 247,-53.5 247,-72.5"/>
<text text-anchor="middle" x="216" y="-60.5" font-family="Helvetica,sans-Serif" font-size="10.00">quoteType</text>
</a>
</g>
</g>
<!-- Node2 -->
<g id="node2" class="node"><title>Node2</title>
<g id="a_node2"><a xlink:href="classore_1_1data_1_1_commodity_vol_curve.html#a782cc59a036687f2402136c9003e07c2" target="_top" xlink:title="Build a volatility curve from a 1&#45;D curve of volatility quotes.">
<polygon fill="white" stroke="#666666" points="149,-126 0,-126 0,-96 149,-96 149,-126"/>
<text text-anchor="start" x="8" y="-114" font-family="Helvetica,sans-Serif" font-size="10.00">ore::data::CommodityVolCurve</text>
<text text-anchor="middle" x="74.5" y="-103" font-family="Helvetica,sans-Serif" font-size="10.00">::buildVolatility</text>
</a>
</g>
</g>
<!-- Node1&#45;&gt;Node2 -->
<g id="edge1" class="edge"><title>Node1&#45;&gt;Node2</title>
<path fill="none" stroke="#63b8ff" d="M179.797,-76.0458C169.862,-79.6609 159.027,-83.5407 149,-87 140.371,-89.9768 131.14,-93.0655 122.236,-95.9967"/>
<polygon fill="#63b8ff" stroke="#63b8ff" points="181.18,-79.2668 189.369,-72.5443 178.775,-72.6928 181.18,-79.2668"/>
</g>
<!-- Node3 -->
<g id="node3" class="node"><title>Node3</title>
<g id="a_node3"><a xlink:href="classore_1_1data_1_1_equity_vol_curve.html#afff043fce577f592f6a660001d412371" target="_top" xlink:title="Build a volatility surface from a collection of expiry and strike delta pairs.">
<polygon fill="white" stroke="#666666" points="138,-78 11,-78 11,-48 138,-48 138,-78"/>
<text text-anchor="start" x="19" y="-66" font-family="Helvetica,sans-Serif" font-size="10.00">ore::data::EquityVolCurve</text>
<text text-anchor="middle" x="74.5" y="-55" font-family="Helvetica,sans-Serif" font-size="10.00">::buildVolatility</text>
</a>
</g>
</g>
<!-- Node1&#45;&gt;Node3 -->
<g id="edge2" class="edge"><title>Node1&#45;&gt;Node3</title>
<path fill="none" stroke="#63b8ff" d="M174.642,-63C163.212,-63 150.494,-63 138.082,-63"/>
<polygon fill="#63b8ff" stroke="#63b8ff" points="174.731,-66.5001 184.731,-63 174.731,-59.5001 174.731,-66.5001"/>
</g>
<!-- Node4 -->
<g id="node4" class="node"><title>Node4</title>
<g id="a_node4"><a xlink:href="classore_1_1data_1_1_commodity_vol_curve.html#accbfc0352ecd2e4be852a0cc6238fbb5" target="_top" xlink:title=" ">
<polygon fill="white" stroke="#666666" points="149,-30 0,-30 0,-0 149,-0 149,-30"/>
<text text-anchor="start" x="8" y="-18" font-family="Helvetica,sans-Serif" font-size="10.00">ore::data::CommodityVolCurve</text>
<text text-anchor="middle" x="74.5" y="-7" font-family="Helvetica,sans-Serif" font-size="10.00">::buildVolatilityExplicit</text>
</a>
</g>
</g>
<!-- Node1&#45;&gt;Node4 -->
<g id="edge3" class="edge"><title>Node1&#45;&gt;Node4</title>
<path fill="none" stroke="#63b8ff" d="M179.797,-49.9542C169.862,-46.3391 159.027,-42.4593 149,-39 140.371,-36.0232 131.14,-32.9345 122.236,-30.0033"/>
<polygon fill="#63b8ff" stroke="#63b8ff" points="178.775,-53.3072 189.369,-53.4557 181.18,-46.7332 178.775,-53.3072"/>
</g>
</g>
</svg>
