<?xml version="1.0" encoding="UTF-8" standalone="no"?>
<!DOCTYPE svg PUBLIC "-//W3C//DTD SVG 1.1//EN"
 "http://www.w3.org/Graphics/SVG/1.1/DTD/svg11.dtd">
<!-- Generated by graphviz version 2.38.0 (20140413.2041)
 -->
<!-- Title: build Pages: 1 -->
<svg width="554pt" height="101pt"
 viewBox="0.00 0.00 554.00 101.00" xmlns="http://www.w3.org/2000/svg" xmlns:xlink="http://www.w3.org/1999/xlink">
<g id="graph0" class="graph" transform="scale(1 1) rotate(0) translate(4 97)">
<title>build</title>
<!-- Node1 -->
<g id="node1" class="node"><title>Node1</title>
<g id="a_node1"><a xlink:title="Call build on all trades in the portfolio, the context is included in error messages.">
<polygon fill="#999999" stroke="#666666" points="37,-56 0,-56 0,-37 37,-37 37,-56"/>
<text text-anchor="middle" x="18.5" y="-44" font-family="Helvetica,sans-Serif" font-size="10.00">build</text>
</a>
</g>
</g>
<!-- Node2 -->
<g id="node2" class="node"><title>Node2</title>
<g id="a_node2"><a xlink:href="classore_1_1data_1_1_portfolio.html#aa132f7e3db9728b12a14c975c9714c58" target="_top" xlink:title="Does this portfolio build failed trades?">
<polygon fill="white" stroke="#666666" points="171.5,-93 79.5,-93 79.5,-74 171.5,-74 171.5,-93"/>
<text text-anchor="middle" x="125.5" y="-81" font-family="Helvetica,sans-Serif" font-size="10.00">buildFailedTrades</text>
</a>
</g>
</g>
<!-- Node1&#45;&gt;Node2 -->
<g id="edge1" class="edge"><title>Node1&#45;&gt;Node2</title>
<path fill="none" stroke="#63b8ff" d="M37.3254,-52.8557C47.7256,-56.5575 61.1006,-61.3075 73,-65.5 77.6676,-67.1445 82.5752,-68.8675 87.4304,-70.5686"/>
<polygon fill="#63b8ff" stroke="#63b8ff" points="86.6343,-73.998 97.2291,-73.997 88.9461,-67.3908 86.6343,-73.998"/>
</g>
<!-- Node3 -->
<g id="node3" class="node"><title>Node3</title>
<g id="a_node3"><a xlink:href="namespaceore_1_1data.html#a4189e2c4ca70a4330840992fb570b3b1" target="_top" xlink:title=" ">
<polygon fill="white" stroke="#666666" points="178,-56 73,-56 73,-37 178,-37 178,-56"/>
<text text-anchor="middle" x="125.5" y="-44" font-family="Helvetica,sans-Serif" font-size="10.00">ore::data::buildTrade</text>
</a>
</g>
</g>
<!-- Node1&#45;&gt;Node3 -->
<g id="edge2" class="edge"><title>Node1&#45;&gt;Node3</title>
<path fill="none" stroke="#63b8ff" d="M37.3118,-46.5C44.5305,-46.5 53.3328,-46.5 62.5364,-46.5"/>
<polygon fill="#63b8ff" stroke="#63b8ff" points="62.6249,-50.0001 72.6248,-46.5 62.6248,-43.0001 62.6249,-50.0001"/>
</g>
<!-- Node7 -->
<g id="node7" class="node"><title>Node7</title>
<g id="a_node7"><a xlink:href="classore_1_1data_1_1_portfolio.html#a7687577d15ee357689a1b7c947cebb67" target="_top" xlink:title="Keep trade in the portfolio even after build fail.">
<polygon fill="white" stroke="#666666" points="177.5,-19 73.5,-19 73.5,-0 177.5,-0 177.5,-19"/>
<text text-anchor="middle" x="125.5" y="-7" font-family="Helvetica,sans-Serif" font-size="10.00">ignoreTradeBuildFail</text>
</a>
</g>
</g>
<!-- Node1&#45;&gt;Node7 -->
<g id="edge6" class="edge"><title>Node1&#45;&gt;Node7</title>
<path fill="none" stroke="#63b8ff" d="M37.3118,-40.2235C51.1046,-35.3632 70.6791,-28.4655 87.7874,-22.4368"/>
<polygon fill="#63b8ff" stroke="#63b8ff" points="89.2449,-25.6343 97.5132,-19.0096 86.9184,-19.0322 89.2449,-25.6343"/>
</g>
<!-- Node4 -->
<g id="node4" class="node"><title>Node4</title>
<g id="a_node4"><a xlink:href="classore_1_1data_1_1_j_s_o_n_message.html#a5e21eca2668ed948bdc409b19a78e5bb" target="_top" xlink:title="generate Boost log record to pass to corresponding sinks">
<polygon fill="white" stroke="#666666" points="359,-56 214,-56 214,-37 359,-37 359,-56"/>
<text text-anchor="middle" x="286.5" y="-44" font-family="Helvetica,sans-Serif" font-size="10.00">ore::data::JSONMessage::log</text>
</a>
</g>
</g>
<!-- Node3&#45;&gt;Node4 -->
<g id="edge3" class="edge"><title>Node3&#45;&gt;Node4</title>
<path fill="none" stroke="#63b8ff" d="M178.123,-46.5C186.335,-46.5 195.001,-46.5 203.704,-46.5"/>
<polygon fill="#63b8ff" stroke="#63b8ff" points="203.913,-50.0001 213.913,-46.5 203.913,-43.0001 203.913,-50.0001"/>
</g>
<!-- Node5 -->
<g id="node5" class="node"><title>Node5</title>
<g id="a_node5"><a xlink:href="classore_1_1data_1_1_j_s_o_n_message.html#a6a9077605df871e6e961dd0099645b35" target="_top" xlink:title="generate Boost log record &#45; this method is called by log()">
<polygon fill="white" stroke="#666666" points="533.5,-83.5 407.5,-83.5 407.5,-53.5 533.5,-53.5 533.5,-83.5"/>
<text text-anchor="start" x="415.5" y="-71.5" font-family="Helvetica,sans-Serif" font-size="10.00">ore::data::JSONMessage</text>
<text text-anchor="middle" x="470.5" y="-60.5" font-family="Helvetica,sans-Serif" font-size="10.00">::emitLog</text>
</a>
</g>
</g>
<!-- Node4&#45;&gt;Node5 -->
<g id="edge4" class="edge"><title>Node4&#45;&gt;Node5</title>
<path fill="none" stroke="#63b8ff" d="M359.17,-55.1634C371.729,-56.6815 384.802,-58.2618 397.373,-59.7813"/>
<polygon fill="#63b8ff" stroke="#63b8ff" points="396.979,-63.2592 407.327,-60.9846 397.82,-56.3098 396.979,-63.2592"/>
</g>
<!-- Node6 -->
<g id="node6" class="node"><title>Node6</title>
<g id="a_node6"><a xlink:href="classore_1_1data_1_1_j_s_o_n_message.html#a39f83a0ab38c425a8844c8892b93d69e" target="_top" xlink:title="return a std::string for the log file">
<polygon fill="white" stroke="#666666" points="546,-35 395,-35 395,-16 546,-16 546,-35"/>
<text text-anchor="middle" x="470.5" y="-23" font-family="Helvetica,sans-Serif" font-size="10.00">ore::data::JSONMessage::msg</text>
</a>
</g>
</g>
<!-- Node4&#45;&gt;Node6 -->
<g id="edge5" class="edge"><title>Node4&#45;&gt;Node6</title>
<path fill="none" stroke="#63b8ff" d="M359.17,-38.2304C367.607,-37.2569 376.276,-36.2567 384.868,-35.2652"/>
<polygon fill="#63b8ff" stroke="#63b8ff" points="385.369,-38.7307 394.902,-34.1074 384.567,-31.7768 385.369,-38.7307"/>
</g>
</g>
</svg>
