<?xml version="1.0" encoding="UTF-8" standalone="no"?>
<!DOCTYPE svg PUBLIC "-//W3C//DTD SVG 1.1//EN"
 "http://www.w3.org/Graphics/SVG/1.1/DTD/svg11.dtd">
<!-- Generated by graphviz version 2.38.0 (20140413.2041)
 -->
<!-- Title: CrCirBuilder Pages: 1 -->
<!--zoomable 313 -->
<svg id="main" version="1.1" xmlns="http://www.w3.org/2000/svg" xmlns:xlink="http://www.w3.org/1999/xlink" xml:space="preserve" onload="init(evt)">
<style type="text/css"><![CDATA[
.edge:hover path { stroke: red; }
.edge:hover polygon { stroke: red; fill: red; }
]]></style>
<script type="text/javascript"><![CDATA[
var edges = document.getElementsByTagName('g');
if (edges && edges.length) {
  for (var i=0;i<edges.length;i++) {
    if (edges[i].id.substr(0,4)=='edge') {
      edges[i].setAttribute('class','edge');
    }
  }
}
]]></script>
        <defs>
                <circle id="rim" cx="0" cy="0" r="7"/>
                <circle id="rim2" cx="0" cy="0" r="3.5"/>
                <g id="zoomPlus">
                        <use xlink:href="#rim" fill="#404040">
                                <set attributeName="fill" to="#808080" begin="zoomplus.mouseover" end="zoomplus.mouseout"/>
                        </use>
                        <path d="M-4,0h8M0,-4v8" fill="none" stroke="white" stroke-width="1.5" pointer-events="none"/>
                </g>
                <g id="zoomMin">
                        <use xlink:href="#rim" fill="#404040">
                                <set attributeName="fill" to="#808080" begin="zoomminus.mouseover" end="zoomminus.mouseout"/>
                        </use>
                        <path d="M-4,0h8" fill="none" stroke="white" stroke-width="1.5" pointer-events="none"/>
                </g>
                <g id="dirArrow">
                        <path fill="none" stroke="white" stroke-width="1.5" d="M0,-3.0v7 M-2.5,-0.5L0,-3.0L2.5,-0.5"/>
                </g>
               <g id="resetDef">
                       <use xlink:href="#rim2" fill="#404040">
                               <set attributeName="fill" to="#808080" begin="reset.mouseover" end="reset.mouseout"/>
                       </use>
               </g>
        </defs>

<script type="text/javascript">
var viewWidth = 1581;
var viewHeight = 313;
var sectionId = 'dynsection-1';
</script>
<script xlink:href="svgpan.js"/>
<svg id="graph" class="graph">
<g id="viewport">
<title>CrCirBuilder</title>
<!-- Node1 -->
<g id="node1" class="node"><title>Node1</title>
<g id="a_node1"><a xlink:title="Builder for a cir model component.">
<polygon fill="#999999" stroke="#666666" points="889,-107 767,-107 767,7.10543e-015 889,7.10543e-015 889,-107"/>
<text text-anchor="middle" x="828" y="-95" font-family="Helvetica,sans-Serif" font-size="10.00">{CrCirBuilder</text>
<text text-anchor="start" x="775" y="-84" font-family="Helvetica,sans-Serif" font-size="10.00">||+ CrCirBuilder()</text>
<text text-anchor="start" x="775" y="-73" font-family="Helvetica,sans-Serif" font-size="10.00">+ error()</text>
<text text-anchor="start" x="775" y="-62" font-family="Helvetica,sans-Serif" font-size="10.00">+ model()</text>
<text text-anchor="start" x="775" y="-51" font-family="Helvetica,sans-Serif" font-size="10.00">+ parametrization()</text>
<text text-anchor="start" x="775" y="-40" font-family="Helvetica,sans-Serif" font-size="10.00">+ requiresRecalibration()</text>
<text text-anchor="start" x="775" y="-29" font-family="Helvetica,sans-Serif" font-size="10.00">&#45; performCalculations()</text>
<text text-anchor="start" x="775" y="-18" font-family="Helvetica,sans-Serif" font-size="10.00">&#45; buildBasket()</text>
<text text-anchor="middle" x="828" y="-7" font-family="Helvetica,sans-Serif" font-size="10.00">}</text>
</a>
</g>
</g>
<!-- Node2 -->
<g id="node2" class="node"><title>Node2</title>
<g id="a_node2"><a target="_parent" xlink:href="../qle/class_quant_ext_1_1_model_builder.html" xlink:title=" ">
<polygon fill="white" stroke="#666666" points="122,-217 7.10543e-015,-217 7.10543e-015,-154 122,-154 122,-217"/>
<text text-anchor="middle" x="61" y="-205" font-family="Helvetica,sans-Serif" font-size="10.00">{ModelBuilder</text>
<text text-anchor="start" x="8" y="-194" font-family="Helvetica,sans-Serif" font-size="10.00">||+ recalibrate()</text>
<text text-anchor="start" x="8" y="-183" font-family="Helvetica,sans-Serif" font-size="10.00">+ forceRecalculate()</text>
<text text-anchor="start" x="8" y="-172" font-family="Helvetica,sans-Serif" font-size="10.00">+ requiresRecalibration()</text>
<text text-anchor="middle" x="61" y="-161" font-family="Helvetica,sans-Serif" font-size="10.00">}</text>
</a>
</g>
</g>
<!-- Node2&#45;&gt;Node1 -->
<g id="edge1" class="edge"><title>Node2&#45;&gt;Node1</title>
<path fill="none" stroke="#63b8ff" d="M132.053,-153.92C203.239,-132.991 224.409,-135.779 294,-125 464.729,-98.556 667.153,-73.5623 766.606,-61.6982"/>
<polygon fill="none" stroke="#63b8ff" points="130.728,-150.664 122.153,-156.886 132.737,-157.369 130.728,-150.664"/>
</g>
<!-- Node3 -->
<g id="node3" class="node"><title>Node3</title>
<g id="a_node3"><a xlink:title=" ">
<polygon fill="white" stroke="#666666" points="253.5,-206 140.5,-206 140.5,-165 253.5,-165 253.5,-206"/>
<text text-anchor="start" x="148.5" y="-194" font-family="Helvetica,sans-Serif" font-size="10.00">{shared_ptr&lt; ore::data</text>
<text text-anchor="middle" x="197" y="-183" font-family="Helvetica,sans-Serif" font-size="10.00">::Market &gt;</text>
<text text-anchor="middle" x="197" y="-172" font-family="Helvetica,sans-Serif" font-size="10.00">||}</text>
</a>
</g>
</g>
<!-- Node3&#45;&gt;Node1 -->
<g id="edge2" class="edge"><title>Node3&#45;&gt;Node1</title>
<path fill="none" stroke="#404040" d="M232.331,-164.891C257.878,-151.577 293.629,-134.691 327,-125 475.032,-82.0118 655.546,-64.8315 754.442,-58.2772"/>
<polygon fill="none" stroke="#404040" points="754.699,-58.2609 760.431,-53.8853 766.674,-57.4934 760.942,-61.8689 754.699,-58.2609"/>
<text text-anchor="middle" x="348" y="-128" font-family="Helvetica,sans-Serif" font-size="10.00"> &#45;market_</text>
</g>
<!-- Node4 -->
<g id="node4" class="node"><title>Node4</title>
<g id="a_node4"><a xlink:title=" ">
<polygon fill="white" stroke="#666666" points="316,-200.5 272,-200.5 272,-170.5 316,-170.5 316,-200.5"/>
<text text-anchor="middle" x="294" y="-188.5" font-family="Helvetica,sans-Serif" font-size="10.00">{string</text>
<text text-anchor="middle" x="294" y="-177.5" font-family="Helvetica,sans-Serif" font-size="10.00">||}</text>
</a>
</g>
</g>
<!-- Node4&#45;&gt;Node1 -->
<g id="edge3" class="edge"><title>Node4&#45;&gt;Node1</title>
<path fill="none" stroke="#404040" d="M305.375,-170.304C310.751,-164.459 317.608,-158.107 325,-154 372.961,-127.349 391.332,-136.415 445,-125 552.341,-102.168 677.536,-79.9473 754.791,-66.7412"/>
<polygon fill="none" stroke="#404040" points="754.939,-66.7161 760.182,-61.765 766.769,-64.7003 761.526,-69.6514 754.939,-66.7161"/>
<text text-anchor="middle" x="478.5" y="-128" font-family="Helvetica,sans-Serif" font-size="10.00"> &#45;configuration_</text>
</g>
<!-- Node5 -->
<g id="node5" class="node"><title>Node5</title>
<g id="a_node5"><a xlink:title=" ">
<polygon fill="white" stroke="#666666" points="349,-305 239,-305 239,-275 349,-275 349,-305"/>
<text text-anchor="middle" x="294" y="-293" font-family="Helvetica,sans-Serif" font-size="10.00">{basic_string&lt; Char &gt;</text>
<text text-anchor="middle" x="294" y="-282" font-family="Helvetica,sans-Serif" font-size="10.00">||}</text>
</a>
</g>
</g>
<!-- Node5&#45;&gt;Node4 -->
<g id="edge4" class="edge"><title>Node5&#45;&gt;Node4</title>
<path fill="none" stroke="#63b8ff" d="M294,-264.556C294,-244.601 294,-217.1 294,-200.631"/>
<polygon fill="none" stroke="#63b8ff" points="290.5,-264.748 294,-274.748 297.5,-264.748 290.5,-264.748"/>
</g>
<!-- Node6 -->
<g id="node6" class="node"><title>Node6</title>
<g id="a_node6"><a xlink:title=" ">
<polygon fill="white" stroke="#666666" points="447.5,-206 334.5,-206 334.5,-165 447.5,-165 447.5,-206"/>
<text text-anchor="start" x="342.5" y="-194" font-family="Helvetica,sans-Serif" font-size="10.00">{shared_ptr&lt; ore::data</text>
<text text-anchor="middle" x="391" y="-183" font-family="Helvetica,sans-Serif" font-size="10.00">::CrCirData &gt;</text>
<text text-anchor="middle" x="391" y="-172" font-family="Helvetica,sans-Serif" font-size="10.00">||}</text>
</a>
</g>
</g>
<!-- Node6&#45;&gt;Node1 -->
<g id="edge5" class="edge"><title>Node6&#45;&gt;Node1</title>
<path fill="none" stroke="#404040" d="M429.708,-164.969C438.248,-161.046 447.335,-157.163 456,-154 557.487,-116.949 679.084,-87.0259 754.96,-69.9959"/>
<polygon fill="none" stroke="#404040" points="755.022,-69.9822 760.009,-64.7738 766.735,-67.3742 761.748,-72.5826 755.022,-69.9822"/>
<text text-anchor="middle" x="551.5" y="-128" font-family="Helvetica,sans-Serif" font-size="10.00"> &#45;data_</text>
</g>
<!-- Node7 -->
<g id="node7" class="node"><title>Node7</title>
<g id="a_node7"><a xlink:title=" ">
<polygon fill="white" stroke="#666666" points="616.5,-200.5 465.5,-200.5 465.5,-170.5 616.5,-170.5 616.5,-200.5"/>
<text text-anchor="middle" x="541" y="-188.5" font-family="Helvetica,sans-Serif" font-size="10.00">{Handle&lt; YieldTermStructure &gt;</text>
<text text-anchor="middle" x="541" y="-177.5" font-family="Helvetica,sans-Serif" font-size="10.00">||}</text>
</a>
</g>
</g>
<!-- Node7&#45;&gt;Node1 -->
<g id="edge6" class="edge"><title>Node7&#45;&gt;Node1</title>
<path fill="none" stroke="#404040" d="M571.987,-170.464C615.629,-150.696 696.479,-114.074 755.682,-87.2572"/>
<polygon fill="none" stroke="#404040" points="755.912,-87.1529 759.728,-81.0336 766.843,-82.2016 763.028,-88.3209 755.912,-87.1529"/>
<text text-anchor="middle" x="694" y="-128" font-family="Helvetica,sans-Serif" font-size="10.00"> &#45;rateCurve_</text>
</g>
<!-- Node8 -->
<g id="node8" class="node"><title>Node8</title>
<g id="a_node8"><a xlink:title=" ">
<polygon fill="white" stroke="#666666" points="726,-305 676,-305 676,-275 726,-275 726,-305"/>
<text text-anchor="middle" x="701" y="-293" font-family="Helvetica,sans-Serif" font-size="10.00">{Handle</text>
<text text-anchor="middle" x="701" y="-282" font-family="Helvetica,sans-Serif" font-size="10.00">||}</text>
</a>
</g>
</g>
<!-- Node8&#45;&gt;Node7 -->
<g id="edge7" class="edge"><title>Node8&#45;&gt;Node7</title>
<path fill="none" stroke="orange" d="M665.747,-284.441C643.325,-280.191 614.561,-272.123 593,-257 572.082,-242.328 556.224,-216.551 547.794,-200.563"/>
<polygon fill="orange" stroke="orange" points="665.42,-287.936 675.869,-286.185 666.609,-281.037 665.42,-287.936"/>
<text text-anchor="middle" x="645.5" y="-243.5" font-family="Helvetica,sans-Serif" font-size="10.00"> &lt; YieldTermStructure &gt;</text>
</g>
<!-- Node9 -->
<g id="node9" class="node"><title>Node9</title>
<g id="a_node9"><a xlink:title=" ">
<polygon fill="white" stroke="#666666" points="769,-206 635,-206 635,-165 769,-165 769,-206"/>
<text text-anchor="start" x="643" y="-194" font-family="Helvetica,sans-Serif" font-size="10.00">{Handle&lt; DefaultProbability</text>
<text text-anchor="middle" x="702" y="-183" font-family="Helvetica,sans-Serif" font-size="10.00">TermStructure &gt;</text>
<text text-anchor="middle" x="702" y="-172" font-family="Helvetica,sans-Serif" font-size="10.00">||}</text>
</a>
</g>
</g>
<!-- Node8&#45;&gt;Node9 -->
<g id="edge9" class="edge"><title>Node8&#45;&gt;Node9</title>
<path fill="none" stroke="orange" d="M701.239,-264.544C701.413,-246.716 701.645,-222.87 701.807,-206.248"/>
<polygon fill="orange" stroke="orange" points="697.737,-264.714 701.139,-274.748 704.737,-264.782 697.737,-264.714"/>
<text text-anchor="start" x="702" y="-249" font-family="Helvetica,sans-Serif" font-size="10.00"> &lt; DefaultProbabilityTerm</text>
<text text-anchor="middle" x="757" y="-238" font-family="Helvetica,sans-Serif" font-size="10.00">Structure &gt;</text>
</g>
<!-- Node10 -->
<g id="node10" class="node"><title>Node10</title>
<g id="a_node10"><a xlink:title=" ">
<polygon fill="white" stroke="#666666" points="881,-200.5 787,-200.5 787,-170.5 881,-170.5 881,-200.5"/>
<text text-anchor="middle" x="834" y="-188.5" font-family="Helvetica,sans-Serif" font-size="10.00">{Handle&lt; Quote &gt;</text>
<text text-anchor="middle" x="834" y="-177.5" font-family="Helvetica,sans-Serif" font-size="10.00">||}</text>
</a>
</g>
</g>
<!-- Node8&#45;&gt;Node10 -->
<g id="edge11" class="edge"><title>Node8&#45;&gt;Node10</title>
<path fill="none" stroke="orange" d="M736.681,-287.299C760.895,-284.297 792.02,-276.549 812,-257 827.305,-242.025 832.004,-216.586 833.421,-200.708"/>
<polygon fill="orange" stroke="orange" points="736.038,-283.846 726.445,-288.343 736.748,-290.81 736.038,-283.846"/>
<text text-anchor="middle" x="850" y="-243.5" font-family="Helvetica,sans-Serif" font-size="10.00"> &lt; Quote &gt;</text>
</g>
<!-- Node9&#45;&gt;Node1 -->
<g id="edge8" class="edge"><title>Node9&#45;&gt;Node1</title>
<path fill="none" stroke="#404040" d="M721.137,-164.756C733.916,-151.571 751.475,-133.454 768.669,-115.715"/>
<polygon fill="none" stroke="#404040" points="768.706,-115.677 770.009,-108.584 777.057,-107.06 775.754,-114.152 768.706,-115.677"/>
<text text-anchor="middle" x="788" y="-128" font-family="Helvetica,sans-Serif" font-size="10.00"> &#45;creditCurve_</text>
</g>
<!-- Node10&#45;&gt;Node1 -->
<g id="edge10" class="edge"><title>Node10&#45;&gt;Node1</title>
<path fill="none" stroke="#404040" d="M832.17,-170.096C831.031,-160.463 829.662,-147.493 829,-136 828.69,-130.61 828.45,-125.016 828.266,-119.398"/>
<polygon fill="none" stroke="#404040" points="828.259,-119.13 824.105,-113.236 827.948,-107.134 832.102,-113.028 828.259,-119.13"/>
<text text-anchor="middle" x="863" y="-128" font-family="Helvetica,sans-Serif" font-size="10.00"> &#45;recoveryRate_</text>
</g>
<!-- Node11 -->
<g id="node11" class="node"><title>Node11</title>
<g id="a_node11"><a xlink:title=" ">
<polygon fill="white" stroke="#666666" points="938.5,-200.5 899.5,-200.5 899.5,-170.5 938.5,-170.5 938.5,-200.5"/>
<text text-anchor="middle" x="919" y="-188.5" font-family="Helvetica,sans-Serif" font-size="10.00">{Real</text>
<text text-anchor="middle" x="919" y="-177.5" font-family="Helvetica,sans-Serif" font-size="10.00">||}</text>
</a>
</g>
</g>
<!-- Node11&#45;&gt;Node1 -->
<g id="edge12" class="edge"><title>Node11&#45;&gt;Node1</title>
<path fill="none" stroke="#404040" d="M915.491,-170.022C912.031,-157.468 905.955,-139.144 897,-125 895.257,-122.246 893.391,-119.512 891.431,-116.81"/>
<polygon fill="none" stroke="#404040" points="891.324,-116.673 884.487,-114.382 883.972,-107.189 890.809,-109.48 891.324,-116.673"/>
<text text-anchor="middle" x="918.5" y="-128" font-family="Helvetica,sans-Serif" font-size="10.00"> &#45;error_</text>
</g>
<!-- Node12 -->
<g id="node12" class="node"><title>Node12</title>
<g id="a_node12"><a xlink:title=" ">
<polygon fill="white" stroke="#666666" points="1073,-206 957,-206 957,-165 1073,-165 1073,-206"/>
<text text-anchor="start" x="965" y="-194" font-family="Helvetica,sans-Serif" font-size="10.00">{shared_ptr&lt; QuantExt</text>
<text text-anchor="middle" x="1015" y="-183" font-family="Helvetica,sans-Serif" font-size="10.00">::CrCirpp &gt;</text>
<text text-anchor="middle" x="1015" y="-172" font-family="Helvetica,sans-Serif" font-size="10.00">||}</text>
</a>
</g>
</g>
<!-- Node12&#45;&gt;Node1 -->
<g id="edge13" class="edge"><title>Node12&#45;&gt;Node1</title>
<path fill="none" stroke="#404040" d="M990.792,-164.915C975.829,-153.031 956.09,-137.749 938,-125 925.711,-116.339 912.412,-107.437 899.449,-98.9991"/>
<polygon fill="none" stroke="#404040" points="899.23,-98.8577 892.02,-98.9611 889.151,-92.3452 896.361,-92.2417 899.23,-98.8577"/>
<text text-anchor="middle" x="973" y="-128" font-family="Helvetica,sans-Serif" font-size="10.00"> &#45;model_</text>
</g>
<!-- Node13 -->
<g id="node13" class="node"><title>Node13</title>
<g id="a_node13"><a xlink:title=" ">
<polygon fill="white" stroke="#666666" points="1213,-206 1091,-206 1091,-165 1213,-165 1213,-206"/>
<text text-anchor="start" x="1099" y="-194" font-family="Helvetica,sans-Serif" font-size="10.00">{shared_ptr&lt; QuantExt</text>
<text text-anchor="middle" x="1152" y="-183" font-family="Helvetica,sans-Serif" font-size="10.00">::CirppParametrization &gt;</text>
<text text-anchor="middle" x="1152" y="-172" font-family="Helvetica,sans-Serif" font-size="10.00">||}</text>
</a>
</g>
</g>
<!-- Node13&#45;&gt;Node1 -->
<g id="edge14" class="edge"><title>Node13&#45;&gt;Node1</title>
<path fill="none" stroke="#404040" d="M1107.67,-164.886C1099.17,-161.212 1090.33,-157.445 1082,-154 1021.07,-128.802 951.29,-101.584 900.306,-81.9947"/>
<polygon fill="none" stroke="#404040" points="900.277,-81.9835 893.242,-83.569 889.073,-77.6853 896.108,-76.0998 900.277,-81.9835"/>
<text text-anchor="middle" x="1073.5" y="-128" font-family="Helvetica,sans-Serif" font-size="10.00"> &#45;parametrization_</text>
</g>
<!-- Node14 -->
<g id="node14" class="node"><title>Node14</title>
<g id="a_node14"><a xlink:title=" ">
<polygon fill="white" stroke="#666666" points="1360.5,-206 1231.5,-206 1231.5,-165 1360.5,-165 1360.5,-206"/>
<text text-anchor="start" x="1239.5" y="-194" font-family="Helvetica,sans-Serif" font-size="10.00">{shared_ptr&lt; Optimization</text>
<text text-anchor="middle" x="1296" y="-183" font-family="Helvetica,sans-Serif" font-size="10.00">Method &gt;</text>
<text text-anchor="middle" x="1296" y="-172" font-family="Helvetica,sans-Serif" font-size="10.00">||}</text>
</a>
</g>
</g>
<!-- Node14&#45;&gt;Node1 -->
<g id="edge15" class="edge"><title>Node14&#45;&gt;Node1</title>
<path fill="none" stroke="#404040" d="M1250.94,-164.908C1241.46,-161.076 1231.46,-157.244 1222,-154 1112.34,-116.412 981.131,-86.0846 901.215,-69.1823"/>
<polygon fill="none" stroke="#404040" points="901.067,-69.1514 894.373,-71.8335 889.323,-66.6863 896.016,-64.0041 901.067,-69.1514"/>
<text text-anchor="middle" x="1207.5" y="-128" font-family="Helvetica,sans-Serif" font-size="10.00"> &#45;optimizationMethod_</text>
</g>
<!-- Node15 -->
<g id="node15" class="node"><title>Node15</title>
<g id="a_node15"><a xlink:title=" ">
<polygon fill="white" stroke="#666666" points="1447,-200.5 1379,-200.5 1379,-170.5 1447,-170.5 1447,-200.5"/>
<text text-anchor="middle" x="1413" y="-188.5" font-family="Helvetica,sans-Serif" font-size="10.00">{EndCriteria</text>
<text text-anchor="middle" x="1413" y="-177.5" font-family="Helvetica,sans-Serif" font-size="10.00">||}</text>
</a>
</g>
</g>
<!-- Node15&#45;&gt;Node1 -->
<g id="edge16" class="edge"><title>Node15&#45;&gt;Node1</title>
<path fill="none" stroke="#404040" d="M1395.45,-170.241C1387.71,-164.525 1378.28,-158.291 1369,-154 1323.5,-132.962 1309.02,-135.494 1260,-125 1134.87,-98.2108 987.429,-76.1597 901.178,-64.2052"/>
<polygon fill="none" stroke="#404040" points="901.052,-64.188 894.562,-67.3319 889.164,-62.5507 895.654,-59.4067 901.052,-64.188"/>
<text text-anchor="middle" x="1347" y="-128" font-family="Helvetica,sans-Serif" font-size="10.00"> &#45;endCriteria_</text>
</g>
<!-- Node16 -->
<g id="node16" class="node"><title>Node16</title>
<g id="a_node16"><a xlink:title=" ">
<polygon fill="white" stroke="#666666" points="1572.5,-200.5 1465.5,-200.5 1465.5,-170.5 1572.5,-170.5 1572.5,-200.5"/>
<text text-anchor="middle" x="1519" y="-188.5" font-family="Helvetica,sans-Serif" font-size="10.00">{CalibrationErrorType</text>
<text text-anchor="middle" x="1519" y="-177.5" font-family="Helvetica,sans-Serif" font-size="10.00">||}</text>
</a>
</g>
</g>
<!-- Node16&#45;&gt;Node1 -->
<g id="edge17" class="edge"><title>Node16&#45;&gt;Node1</title>
<path fill="none" stroke="#404040" d="M1492.97,-170.379C1465.68,-156.295 1421.12,-135.315 1380,-125 1211.89,-82.8297 1008.32,-65.1417 901.54,-58.3321"/>
<polygon fill="none" stroke="#404040" points="901.297,-58.3171 895.061,-61.9376 889.32,-57.5735 895.557,-53.953 901.297,-58.3171"/>
<text text-anchor="middle" x="1461" y="-128" font-family="Helvetica,sans-Serif" font-size="10.00"> &#45;calibrationErrorType_</text>
</g>
</g>
</svg>
        <g id="navigator" transform="translate(0 0)" fill="#404254">
                <rect fill="#f2f5e9" fill-opacity="0.5" stroke="#606060" stroke-width=".5" x="0" y="0" width="60" height="60"/>
                <use id="zoomplus" xlink:href="#zoomPlus" x="17" y="9" onmousedown="handleZoom(evt,'in')"/>
                <use id="zoomminus" xlink:href="#zoomMin" x="42" y="9" onmousedown="handleZoom(evt,'out')"/>
                <use id="reset" xlink:href="#resetDef" x="30" y="36" onmousedown="handleReset()"/>
                <g id="arrowUp" xlink:href="#dirArrow" transform="translate(30 24)" onmousedown="handlePan(0,-1)">
                  <use xlink:href="#rim" fill="#404040">
                        <set attributeName="fill" to="#808080" begin="arrowUp.mouseover" end="arrowUp.mouseout"/>
                  </use>
                  <path fill="none" stroke="white" stroke-width="1.5" d="M0,-3.0v7 M-2.5,-0.5L0,-3.0L2.5,-0.5"/>
                </g>
                <g id="arrowRight" xlink:href="#dirArrow" transform="rotate(90) translate(36 -43)" onmousedown="handlePan(1,0)">
                  <use xlink:href="#rim" fill="#404040">
                        <set attributeName="fill" to="#808080" begin="arrowRight.mouseover" end="arrowRight.mouseout"/>
                  </use>
                  <path fill="none" stroke="white" stroke-width="1.5" d="M0,-3.0v7 M-2.5,-0.5L0,-3.0L2.5,-0.5"/>
                </g>
                <g id="arrowDown" xlink:href="#dirArrow" transform="rotate(180) translate(-30 -48)" onmousedown="handlePan(0,1)">
                  <use xlink:href="#rim" fill="#404040">
                        <set attributeName="fill" to="#808080" begin="arrowDown.mouseover" end="arrowDown.mouseout"/>
                  </use>
                  <path fill="none" stroke="white" stroke-width="1.5" d="M0,-3.0v7 M-2.5,-0.5L0,-3.0L2.5,-0.5"/>
                </g>
                <g id="arrowLeft" xlink:href="#dirArrow" transform="rotate(270) translate(-36 17)" onmousedown="handlePan(-1,0)">
                  <use xlink:href="#rim" fill="#404040">
                        <set attributeName="fill" to="#808080" begin="arrowLeft.mouseover" end="arrowLeft.mouseout"/>
                  </use>
                  <path fill="none" stroke="white" stroke-width="1.5" d="M0,-3.0v7 M-2.5,-0.5L0,-3.0L2.5,-0.5"/>
                </g>
        </g>
        <svg viewBox="0 0 15 15" width="100%" height="30px" preserveAspectRatio="xMaxYMin meet">
         <g id="arrow_out" transform="scale(0.3 0.3)">
          <a xlink:href="classore_1_1data_1_1_cr_cir_builder__coll__graph_org.svg" target="_base">
           <rect id="button" ry="5" rx="5" y="6" x="6" height="38" width="38"
                fill="#f2f5e9" fill-opacity="0.5" stroke="#606060" stroke-width="1.0"/>
           <path id="arrow"
             d="M 11.500037,31.436501 C 11.940474,20.09759 22.043105,11.32322 32.158766,21.979434 L 37.068811,17.246167 C 37.068811,17.246167 37.088388,32 37.088388,32 L 22.160133,31.978069 C 22.160133,31.978069 26.997745,27.140456 26.997745,27.140456 C 18.528582,18.264221 13.291696,25.230495 11.500037,31.436501 z"
             style="fill:#404040;"/>
          </a>
         </g>
        </svg>
</svg>
