<?xml version="1.0" encoding="UTF-8" standalone="no"?>
<!DOCTYPE svg PUBLIC "-//W3C//DTD SVG 1.1//EN"
 "http://www.w3.org/Graphics/SVG/1.1/DTD/svg11.dtd">
<!-- Generated by graphviz version 2.38.0 (20140413.2041)
 -->
<!-- Title: add Pages: 1 -->
<svg width="406pt" height="76pt"
 viewBox="0.00 0.00 406.00 75.50" xmlns="http://www.w3.org/2000/svg" xmlns:xlink="http://www.w3.org/1999/xlink">
<g id="graph0" class="graph" transform="scale(1 1) rotate(0) translate(4 71.5)">
<title>add</title>
<!-- Node1 -->
<g id="node1" class="node"><title>Node1</title>
<g id="a_node1"><a xlink:title=" ">
<polygon fill="#999999" stroke="#666666" points="398,-40 366,-40 366,-21 398,-21 398,-40"/>
<text text-anchor="middle" x="382" y="-28" font-family="Helvetica,sans-Serif" font-size="10.00">add</text>
</a>
</g>
</g>
<!-- Node2 -->
<g id="node2" class="node"><title>Node2</title>
<g id="a_node2"><a xlink:href="classore_1_1data_1_1_adjusted_in_memory_loader.html#a394ea65c115638a789b7e4793aed8f8a" target="_top" xlink:title=" ">
<polygon fill="white" stroke="#666666" points="330,-67.5 188,-67.5 188,-37.5 330,-37.5 330,-67.5"/>
<text text-anchor="start" x="196" y="-55.5" font-family="Helvetica,sans-Serif" font-size="10.00">ore::data::AdjustedInMemory</text>
<text text-anchor="middle" x="259" y="-44.5" font-family="Helvetica,sans-Serif" font-size="10.00">Loader::add</text>
</a>
</g>
</g>
<!-- Node1&#45;&gt;Node2 -->
<g id="edge1" class="edge"><title>Node1&#45;&gt;Node2</title>
<path fill="none" stroke="#63b8ff" d="M355.678,-35.1039C347.997,-36.5005 339.157,-38.1078 330.019,-39.7692"/>
<polygon fill="#63b8ff" stroke="#63b8ff" points="356.463,-38.5188 365.675,-33.2863 355.21,-31.6317 356.463,-38.5188"/>
</g>
<!-- Node3 -->
<g id="node3" class="node"><title>Node3</title>
<g id="a_node3"><a xlink:href="namespaceore_1_1data.html#a42f1390d171c5924c3fa721f51a32200" target="_top" xlink:title=" ">
<polygon fill="white" stroke="#666666" points="298.5,-19 219.5,-19 219.5,-0 298.5,-0 298.5,-19"/>
<text text-anchor="middle" x="259" y="-7" font-family="Helvetica,sans-Serif" font-size="10.00">ore::data::load</text>
</a>
</g>
</g>
<!-- Node1&#45;&gt;Node3 -->
<g id="edge2" class="edge"><title>Node1&#45;&gt;Node3</title>
<path fill="none" stroke="#63b8ff" d="M355.671,-26.1041C339.133,-23.2339 317.224,-19.4314 298.545,-16.1896"/>
<polygon fill="#63b8ff" stroke="#63b8ff" points="355.224,-29.5787 365.675,-27.8403 356.421,-22.6818 355.224,-29.5787"/>
</g>
<!-- Node4 -->
<g id="node4" class="node"><title>Node4</title>
<g id="a_node4"><a xlink:href="namespaceore_1_1data.html#a22d0bfabdad131343a5f49618b7db10d" target="_top" xlink:title="Utility function for loading market quotes and fixings from an in memory csv buffer.">
<polygon fill="white" stroke="#666666" points="152,-19 0,-19 0,-0 152,-0 152,-19"/>
<text text-anchor="middle" x="76" y="-7" font-family="Helvetica,sans-Serif" font-size="10.00">ore::data::loadDataFromBuffers</text>
</a>
</g>
</g>
<!-- Node3&#45;&gt;Node4 -->
<g id="edge3" class="edge"><title>Node3&#45;&gt;Node4</title>
<path fill="none" stroke="#63b8ff" d="M208.705,-9.5C191.31,-9.5 171.333,-9.5 152.282,-9.5"/>
<polygon fill="#63b8ff" stroke="#63b8ff" points="209.171,-13.0001 219.171,-9.5 209.171,-6.0001 209.171,-13.0001"/>
</g>
</g>
</svg>
