<?xml version="1.0" encoding="UTF-8" standalone="no"?>
<!DOCTYPE svg PUBLIC "-//W3C//DTD SVG 1.1//EN"
 "http://www.w3.org/Graphics/SVG/1.1/DTD/svg11.dtd">
<!-- Generated by graphviz version 2.38.0 (20140413.2041)
 -->
<!-- Title: SwapEngineBuilderBase Pages: 1 -->
<svg width="682pt" height="632pt"
 viewBox="0.00 0.00 682.00 632.00" xmlns="http://www.w3.org/2000/svg" xmlns:xlink="http://www.w3.org/1999/xlink">
<g id="graph0" class="graph" transform="scale(1 1) rotate(0) translate(4 628)">
<title>SwapEngineBuilderBase</title>
<!-- Node1 -->
<g id="node1" class="node"><title>Node1</title>
<g id="a_node1"><a xlink:title="Engine Builder base class for Single Currency Swaps.">
<polygon fill="#999999" stroke="#666666" points="390.5,-173 247.5,-173 247.5,-121 390.5,-121 390.5,-173"/>
<text text-anchor="middle" x="319" y="-161" font-family="Helvetica,sans-Serif" font-size="10.00">{SwapEngineBuilderBase</text>
<text text-anchor="start" x="255.5" y="-150" font-family="Helvetica,sans-Serif" font-size="10.00">||+ SwapEngineBuilderBase()</text>
<text text-anchor="start" x="255.5" y="-139" font-family="Helvetica,sans-Serif" font-size="10.00"># keyImpl()</text>
<text text-anchor="middle" x="319" y="-128" font-family="Helvetica,sans-Serif" font-size="10.00">}</text>
</a>
</g>
</g>
<!-- Node4 -->
<g id="node4" class="node"><title>Node4</title>
<g id="a_node4"><a xlink:href="classore_1_1data_1_1_cam_amc_swap_engine_builder.html" target="_top" xlink:title="Implementation of SwapEngineBuilderBase using MC pricer for external cam / AMC.">
<polygon fill="white" stroke="#666666" points="158,-85 0,-85 0,-0 158,-0 158,-85"/>
<text text-anchor="middle" x="79" y="-73" font-family="Helvetica,sans-Serif" font-size="10.00">{CamAmcSwapEngineBuilder</text>
<text text-anchor="start" x="8" y="-62" font-family="Helvetica,sans-Serif" font-size="10.00">|&#45; cam_</text>
<text text-anchor="start" x="8" y="-51" font-family="Helvetica,sans-Serif" font-size="10.00">&#45; simulationDates_</text>
<text text-anchor="start" x="8" y="-40" font-family="Helvetica,sans-Serif" font-size="10.00">|+ CamAmcSwapEngineBuilder()</text>
<text text-anchor="start" x="8" y="-29" font-family="Helvetica,sans-Serif" font-size="10.00"># engineImpl()</text>
<text text-anchor="start" x="8" y="-18" font-family="Helvetica,sans-Serif" font-size="10.00">&#45; buildMcEngine()</text>
<text text-anchor="middle" x="79" y="-7" font-family="Helvetica,sans-Serif" font-size="10.00">}</text>
</a>
</g>
</g>
<!-- Node1&#45;&gt;Node4 -->
<g id="edge3" class="edge"><title>Node1&#45;&gt;Node4</title>
<path fill="none" stroke="#63b8ff" d="M244.578,-117.15C219.773,-107.265 192.077,-95.9335 167,-85 164.058,-83.7173 161.068,-82.3964 158.053,-81.0501"/>
<polygon fill="none" stroke="#63b8ff" points="243.346,-120.427 253.932,-120.864 245.93,-113.921 243.346,-120.427"/>
</g>
<!-- Node5 -->
<g id="node5" class="node"><title>Node5</title>
<g id="a_node5"><a xlink:href="classore_1_1data_1_1_swap_engine_builder.html" target="_top" xlink:title="Engine Builder for Single Currency Swaps.">
<polygon fill="white" stroke="#666666" points="296,-68.5 176,-68.5 176,-16.5 296,-16.5 296,-68.5"/>
<text text-anchor="middle" x="236" y="-56.5" font-family="Helvetica,sans-Serif" font-size="10.00">{SwapEngineBuilder</text>
<text text-anchor="start" x="184" y="-45.5" font-family="Helvetica,sans-Serif" font-size="10.00">||+ SwapEngineBuilder()</text>
<text text-anchor="start" x="184" y="-34.5" font-family="Helvetica,sans-Serif" font-size="10.00"># engineImpl()</text>
<text text-anchor="middle" x="236" y="-23.5" font-family="Helvetica,sans-Serif" font-size="10.00">}</text>
</a>
</g>
</g>
<!-- Node1&#45;&gt;Node5 -->
<g id="edge4" class="edge"><title>Node1&#45;&gt;Node5</title>
<path fill="none" stroke="#63b8ff" d="M292.098,-112.778C280.495,-98.4485 267.146,-81.964 256.382,-68.6707"/>
<polygon fill="none" stroke="#63b8ff" points="289.683,-115.357 298.696,-120.926 295.123,-110.952 289.683,-115.357"/>
</g>
<!-- Node6 -->
<g id="node6" class="node"><title>Node6</title>
<g id="a_node6"><a xlink:href="classore_1_1data_1_1_swap_engine_builder_delta_gamma.html" target="_top" xlink:title="Engine Builder for Single Currency Swaps.">
<polygon fill="white" stroke="#666666" points="491.5,-68.5 314.5,-68.5 314.5,-16.5 491.5,-16.5 491.5,-68.5"/>
<text text-anchor="middle" x="403" y="-56.5" font-family="Helvetica,sans-Serif" font-size="10.00">{SwapEngineBuilderDeltaGamma</text>
<text text-anchor="start" x="322.5" y="-45.5" font-family="Helvetica,sans-Serif" font-size="10.00">||+ SwapEngineBuilderDeltaGamma()</text>
<text text-anchor="start" x="322.5" y="-34.5" font-family="Helvetica,sans-Serif" font-size="10.00"># engineImpl()</text>
<text text-anchor="middle" x="403" y="-23.5" font-family="Helvetica,sans-Serif" font-size="10.00">}</text>
</a>
</g>
</g>
<!-- Node1&#45;&gt;Node6 -->
<g id="edge5" class="edge"><title>Node1&#45;&gt;Node6</title>
<path fill="none" stroke="#63b8ff" d="M345.897,-113.179C357.716,-98.7569 371.377,-82.0882 382.372,-68.6707"/>
<polygon fill="none" stroke="#63b8ff" points="343.18,-110.973 339.549,-120.926 348.594,-115.41 343.18,-110.973"/>
</g>
<!-- Node7 -->
<g id="node7" class="node"><title>Node7</title>
<g id="a_node7"><a xlink:href="classore_1_1data_1_1_swap_engine_builder_optimised.html" target="_top" xlink:title="Engine Builder for Single Currency Swaps.">
<polygon fill="white" stroke="#666666" points="674,-68.5 510,-68.5 510,-16.5 674,-16.5 674,-68.5"/>
<text text-anchor="middle" x="592" y="-56.5" font-family="Helvetica,sans-Serif" font-size="10.00">{SwapEngineBuilderOptimised</text>
<text text-anchor="start" x="518" y="-45.5" font-family="Helvetica,sans-Serif" font-size="10.00">||+ SwapEngineBuilderOptimised()</text>
<text text-anchor="start" x="518" y="-34.5" font-family="Helvetica,sans-Serif" font-size="10.00"># engineImpl()</text>
<text text-anchor="middle" x="592" y="-23.5" font-family="Helvetica,sans-Serif" font-size="10.00">}</text>
</a>
</g>
</g>
<!-- Node1&#45;&gt;Node7 -->
<g id="edge6" class="edge"><title>Node1&#45;&gt;Node7</title>
<path fill="none" stroke="#63b8ff" d="M400.585,-120.669C432.21,-110.327 468.55,-97.7967 501,-85 513.6,-80.0313 526.969,-74.2377 539.47,-68.5833"/>
<polygon fill="none" stroke="#63b8ff" points="399.36,-117.387 390.932,-123.806 401.524,-124.044 399.36,-117.387"/>
</g>
<!-- Node2 -->
<g id="node2" class="node"><title>Node2</title>
<g id="a_node2"><a xlink:href="classore_1_1data_1_1_caching_engine_builder.html" target="_top" xlink:title="Abstract template EngineBuilder class that can cache engines and coupon pricers.">
<polygon fill="white" stroke="#666666" points="391.5,-338 246.5,-338 246.5,-209 391.5,-209 391.5,-338"/>
<text text-anchor="start" x="254.5" y="-326" font-family="Helvetica,sans-Serif" font-size="10.00">{CachingPricingEngineBuilder</text>
<text text-anchor="start" x="254.5" y="-315" font-family="Helvetica,sans-Serif" font-size="10.00">&lt; string, const Currency</text>
<text text-anchor="start" x="254.5" y="-304" font-family="Helvetica,sans-Serif" font-size="10.00"> &amp;, const std::string &amp;,</text>
<text text-anchor="middle" x="319" y="-293" font-family="Helvetica,sans-Serif" font-size="10.00"> const std::string &amp; &gt;</text>
<text text-anchor="start" x="254.5" y="-282" font-family="Helvetica,sans-Serif" font-size="10.00">|# engines_</text>
<text text-anchor="start" x="254.5" y="-271" font-family="Helvetica,sans-Serif" font-size="10.00">|+ CachingEngineBuilder()</text>
<text text-anchor="start" x="254.5" y="-260" font-family="Helvetica,sans-Serif" font-size="10.00">+ engine()</text>
<text text-anchor="start" x="254.5" y="-249" font-family="Helvetica,sans-Serif" font-size="10.00">+ reset()</text>
<text text-anchor="start" x="254.5" y="-238" font-family="Helvetica,sans-Serif" font-size="10.00"># keyImpl()</text>
<text text-anchor="start" x="254.5" y="-227" font-family="Helvetica,sans-Serif" font-size="10.00"># engineImpl()</text>
<text text-anchor="middle" x="319" y="-216" font-family="Helvetica,sans-Serif" font-size="10.00">}</text>
</a>
</g>
</g>
<!-- Node2&#45;&gt;Node1 -->
<g id="edge1" class="edge"><title>Node2&#45;&gt;Node1</title>
<path fill="none" stroke="#63b8ff" d="M319,-198.741C319,-189.567 319,-180.739 319,-173.091"/>
<polygon fill="none" stroke="#63b8ff" points="315.5,-198.791 319,-208.791 322.5,-198.791 315.5,-198.791"/>
</g>
<!-- Node3 -->
<g id="node3" class="node"><title>Node3</title>
<g id="a_node3"><a xlink:href="classore_1_1data_1_1_engine_builder.html" target="_top" xlink:title="Base PricingEngine Builder class for a specific model and engine.">
<polygon fill="white" stroke="#666666" points="373.5,-624 264.5,-624 264.5,-374 373.5,-374 373.5,-624"/>
<text text-anchor="middle" x="319" y="-612" font-family="Helvetica,sans-Serif" font-size="10.00">{EngineBuilder</text>
<text text-anchor="start" x="272.5" y="-601" font-family="Helvetica,sans-Serif" font-size="10.00">|# model_</text>
<text text-anchor="start" x="272.5" y="-590" font-family="Helvetica,sans-Serif" font-size="10.00"># engine_</text>
<text text-anchor="start" x="272.5" y="-579" font-family="Helvetica,sans-Serif" font-size="10.00"># tradeTypes_</text>
<text text-anchor="start" x="272.5" y="-568" font-family="Helvetica,sans-Serif" font-size="10.00"># market_</text>
<text text-anchor="start" x="272.5" y="-557" font-family="Helvetica,sans-Serif" font-size="10.00"># configurations_</text>
<text text-anchor="start" x="272.5" y="-546" font-family="Helvetica,sans-Serif" font-size="10.00"># modelParameters_</text>
<text text-anchor="start" x="272.5" y="-535" font-family="Helvetica,sans-Serif" font-size="10.00"># engineParameters_</text>
<text text-anchor="start" x="272.5" y="-524" font-family="Helvetica,sans-Serif" font-size="10.00"># globalParameters_</text>
<text text-anchor="start" x="272.5" y="-513" font-family="Helvetica,sans-Serif" font-size="10.00"># modelBuilders_</text>
<text text-anchor="start" x="272.5" y="-502" font-family="Helvetica,sans-Serif" font-size="10.00">|+ EngineBuilder()</text>
<text text-anchor="start" x="272.5" y="-491" font-family="Helvetica,sans-Serif" font-size="10.00">+ ~EngineBuilder()</text>
<text text-anchor="start" x="272.5" y="-480" font-family="Helvetica,sans-Serif" font-size="10.00">+ model()</text>
<text text-anchor="start" x="272.5" y="-469" font-family="Helvetica,sans-Serif" font-size="10.00">+ engine()</text>
<text text-anchor="start" x="272.5" y="-458" font-family="Helvetica,sans-Serif" font-size="10.00">+ tradeTypes()</text>
<text text-anchor="start" x="272.5" y="-447" font-family="Helvetica,sans-Serif" font-size="10.00">+ configuration()</text>
<text text-anchor="start" x="272.5" y="-436" font-family="Helvetica,sans-Serif" font-size="10.00">+ reset()</text>
<text text-anchor="start" x="272.5" y="-425" font-family="Helvetica,sans-Serif" font-size="10.00">+ init()</text>
<text text-anchor="start" x="272.5" y="-414" font-family="Helvetica,sans-Serif" font-size="10.00">+ modelBuilders()</text>
<text text-anchor="start" x="272.5" y="-403" font-family="Helvetica,sans-Serif" font-size="10.00">+ engineParameter()</text>
<text text-anchor="start" x="272.5" y="-392" font-family="Helvetica,sans-Serif" font-size="10.00">+ modelParameter()</text>
<text text-anchor="middle" x="319" y="-381" font-family="Helvetica,sans-Serif" font-size="10.00">}</text>
</a>
</g>
</g>
<!-- Node3&#45;&gt;Node2 -->
<g id="edge2" class="edge"><title>Node3&#45;&gt;Node2</title>
<path fill="none" stroke="#63b8ff" d="M319,-363.551C319,-354.856 319,-346.353 319,-338.263"/>
<polygon fill="none" stroke="#63b8ff" points="315.5,-363.832 319,-373.832 322.5,-363.832 315.5,-363.832"/>
</g>
</g>
</svg>
