<?xml version="1.0" encoding="UTF-8" standalone="no"?>
<!DOCTYPE svg PUBLIC "-//W3C//DTD SVG 1.1//EN"
 "http://www.w3.org/Graphics/SVG/1.1/DTD/svg11.dtd">
<!-- Generated by graphviz version 2.38.0 (20140413.2041)
 -->
<!-- Title: hasDerived Pages: 1 -->
<svg width="771pt" height="238pt"
 viewBox="0.00 0.00 771.00 238.00" xmlns="http://www.w3.org/2000/svg" xmlns:xlink="http://www.w3.org/1999/xlink">
<g id="graph0" class="graph" transform="scale(1 1) rotate(0) translate(4 234)">
<title>hasDerived</title>
<!-- Node1 -->
<g id="node1" class="node"><title>Node1</title>
<g id="a_node1"><a xlink:title=" ">
<polygon fill="#999999" stroke="#666666" points="763,-186.5 699,-186.5 699,-167.5 763,-167.5 763,-186.5"/>
<text text-anchor="middle" x="731" y="-174.5" font-family="Helvetica,sans-Serif" font-size="10.00">hasDerived</text>
</a>
</g>
</g>
<!-- Node2 -->
<g id="node2" class="node"><title>Node2</title>
<g id="a_node2"><a xlink:href="classore_1_1data_1_1_pairwise_var_swap.html#a7741ae0fc924943de5bfe02928262eb7" target="_top" xlink:title=" ">
<polygon fill="white" stroke="#666666" points="663,-216 526,-216 526,-186 663,-186 663,-216"/>
<text text-anchor="start" x="534" y="-204" font-family="Helvetica,sans-Serif" font-size="10.00">ore::data::PairwiseVarSwap</text>
<text text-anchor="middle" x="594.5" y="-193" font-family="Helvetica,sans-Serif" font-size="10.00">::fromXML</text>
</a>
</g>
</g>
<!-- Node1&#45;&gt;Node2 -->
<g id="edge1" class="edge"><title>Node1&#45;&gt;Node2</title>
<path fill="none" stroke="#63b8ff" d="M688.854,-184.342C680.707,-185.796 671.955,-187.357 663.193,-188.921"/>
<polygon fill="#63b8ff" stroke="#63b8ff" points="689.575,-187.769 698.805,-182.566 688.346,-180.878 689.575,-187.769"/>
</g>
<!-- Node3 -->
<g id="node3" class="node"><title>Node3</title>
<g id="a_node3"><a xlink:href="classore_1_1data_1_1_schedule_builder.html#a93272a61a9ab90fc8dcc6c6fc18bde6a" target="_top" xlink:title=" ">
<polygon fill="white" stroke="#666666" points="660,-168 529,-168 529,-138 660,-138 660,-168"/>
<text text-anchor="start" x="537" y="-156" font-family="Helvetica,sans-Serif" font-size="10.00">ore::data::ScheduleBuilder</text>
<text text-anchor="middle" x="594.5" y="-145" font-family="Helvetica,sans-Serif" font-size="10.00">::makeSchedules</text>
</a>
</g>
</g>
<!-- Node1&#45;&gt;Node3 -->
<g id="edge2" class="edge"><title>Node1&#45;&gt;Node3</title>
<path fill="none" stroke="#63b8ff" d="M688.911,-169.668C679.825,-168.047 669.984,-166.291 660.214,-164.547"/>
<polygon fill="#63b8ff" stroke="#63b8ff" points="688.346,-173.122 698.805,-171.434 689.575,-166.231 688.346,-173.122"/>
</g>
<!-- Node4 -->
<g id="node4" class="node"><title>Node4</title>
<g id="a_node4"><a xlink:href="classore_1_1data_1_1_pairwise_var_swap.html#af7b69d5b18d278257927e32b10a23ee6" target="_top" xlink:title=" ">
<polygon fill="white" stroke="#666666" points="490,-230 353,-230 353,-200 490,-200 490,-230"/>
<text text-anchor="start" x="361" y="-218" font-family="Helvetica,sans-Serif" font-size="10.00">ore::data::PairwiseVarSwap</text>
<text text-anchor="middle" x="421.5" y="-207" font-family="Helvetica,sans-Serif" font-size="10.00">::build</text>
</a>
</g>
</g>
<!-- Node3&#45;&gt;Node4 -->
<g id="edge3" class="edge"><title>Node3&#45;&gt;Node4</title>
<path fill="none" stroke="#63b8ff" d="M540.912,-171.529C535.865,-173.358 530.83,-175.203 526,-177 509.911,-182.987 506.089,-185.013 490,-191 482.074,-193.95 473.595,-197.026 465.418,-199.953"/>
<polygon fill="#63b8ff" stroke="#63b8ff" points="542.359,-174.728 550.582,-168.047 539.988,-168.142 542.359,-174.728"/>
</g>
<!-- Node5 -->
<g id="node5" class="node"><title>Node5</title>
<g id="a_node5"><a xlink:href="namespaceore_1_1data.html#acb4bb83867f6069f403faef9fd935f9d" target="_top" xlink:title=" ">
<polygon fill="white" stroke="#666666" points="485.5,-181.5 357.5,-181.5 357.5,-162.5 485.5,-162.5 485.5,-181.5"/>
<text text-anchor="middle" x="421.5" y="-169.5" font-family="Helvetica,sans-Serif" font-size="10.00">ore::data::makeEquityLeg</text>
</a>
</g>
</g>
<!-- Node3&#45;&gt;Node5 -->
<g id="edge4" class="edge"><title>Node3&#45;&gt;Node5</title>
<path fill="none" stroke="#63b8ff" d="M518.765,-161.304C507.681,-162.535 496.353,-163.794 485.54,-164.996"/>
<polygon fill="#63b8ff" stroke="#63b8ff" points="519.3,-164.766 528.852,-160.183 518.527,-157.809 519.3,-164.766"/>
</g>
<!-- Node7 -->
<g id="node7" class="node"><title>Node7</title>
<g id="a_node7"><a xlink:href="namespaceore_1_1data.html#adffc190d22c61f2181d0822f48fbace4" target="_top" xlink:title=" ">
<polygon fill="white" stroke="#666666" points="484,-144.5 359,-144.5 359,-125.5 484,-125.5 484,-144.5"/>
<text text-anchor="middle" x="421.5" y="-132.5" font-family="Helvetica,sans-Serif" font-size="10.00">ore::data::makeFixedLeg</text>
</a>
</g>
</g>
<!-- Node3&#45;&gt;Node7 -->
<g id="edge6" class="edge"><title>Node3&#45;&gt;Node7</title>
<path fill="none" stroke="#63b8ff" d="M518.776,-145.134C507.207,-143.916 495.37,-142.67 484.131,-141.487"/>
<polygon fill="#63b8ff" stroke="#63b8ff" points="518.541,-148.629 528.852,-146.195 519.274,-141.667 518.541,-148.629"/>
</g>
<!-- Node11 -->
<g id="node11" class="node"><title>Node11</title>
<g id="a_node11"><a xlink:href="namespaceore_1_1data.html#adbd7eae430426f8577221f6dcc7797bc" target="_top" xlink:title=" ">
<polygon fill="white" stroke="#666666" points="479.5,-72.5 363.5,-72.5 363.5,-53.5 479.5,-53.5 479.5,-72.5"/>
<text text-anchor="middle" x="421.5" y="-60.5" font-family="Helvetica,sans-Serif" font-size="10.00">ore::data::makeIborLeg</text>
</a>
</g>
</g>
<!-- Node3&#45;&gt;Node11 -->
<g id="edge10" class="edge"><title>Node3&#45;&gt;Node11</title>
<path fill="none" stroke="#63b8ff" d="M555.724,-133.118C520.006,-114.319 467.94,-86.9156 440.681,-72.569"/>
<polygon fill="#63b8ff" stroke="#63b8ff" points="554.399,-136.376 564.878,-137.936 557.659,-130.181 554.399,-136.376"/>
</g>
<!-- Node6 -->
<g id="node6" class="node"><title>Node6</title>
<g id="a_node6"><a xlink:href="classore_1_1data_1_1_equity_leg_builder.html#aea285351d9f3458189a9e2d965349d23" target="_top" xlink:title=" ">
<polygon fill="white" stroke="#666666" points="313.5,-222 179.5,-222 179.5,-192 313.5,-192 313.5,-222"/>
<text text-anchor="start" x="187.5" y="-210" font-family="Helvetica,sans-Serif" font-size="10.00">ore::data::EquityLegBuilder</text>
<text text-anchor="middle" x="246.5" y="-199" font-family="Helvetica,sans-Serif" font-size="10.00">::buildLeg</text>
</a>
</g>
</g>
<!-- Node5&#45;&gt;Node6 -->
<g id="edge5" class="edge"><title>Node5&#45;&gt;Node6</title>
<path fill="none" stroke="#63b8ff" d="M363.039,-183.625C347.173,-186.835 329.831,-190.343 313.521,-193.643"/>
<polygon fill="#63b8ff" stroke="#63b8ff" points="364.12,-186.977 373.227,-181.564 362.732,-180.116 364.12,-186.977"/>
</g>
<!-- Node8 -->
<g id="node8" class="node"><title>Node8</title>
<g id="a_node8"><a xlink:href="classore_1_1data_1_1_synthetic_c_d_o.html#af7b69d5b18d278257927e32b10a23ee6" target="_top" xlink:title=" ">
<polygon fill="white" stroke="#666666" points="308,-174 185,-174 185,-144 308,-144 308,-174"/>
<text text-anchor="start" x="193" y="-162" font-family="Helvetica,sans-Serif" font-size="10.00">ore::data::SyntheticCDO</text>
<text text-anchor="middle" x="246.5" y="-151" font-family="Helvetica,sans-Serif" font-size="10.00">::build</text>
</a>
</g>
</g>
<!-- Node7&#45;&gt;Node8 -->
<g id="edge7" class="edge"><title>Node7&#45;&gt;Node8</title>
<path fill="none" stroke="#63b8ff" d="M348.41,-145.001C335.026,-146.858 321.167,-148.78 308.166,-150.584"/>
<polygon fill="#63b8ff" stroke="#63b8ff" points="349.108,-148.438 358.532,-143.597 348.146,-141.504 349.108,-148.438"/>
</g>
<!-- Node9 -->
<g id="node9" class="node"><title>Node9</title>
<g id="a_node9"><a xlink:href="classore_1_1data_1_1_fixed_leg_builder.html#aea285351d9f3458189a9e2d965349d23" target="_top" xlink:title=" ">
<polygon fill="white" stroke="#666666" points="312,-126 181,-126 181,-96 312,-96 312,-126"/>
<text text-anchor="start" x="189" y="-114" font-family="Helvetica,sans-Serif" font-size="10.00">ore::data::FixedLegBuilder</text>
<text text-anchor="middle" x="246.5" y="-103" font-family="Helvetica,sans-Serif" font-size="10.00">::buildLeg</text>
</a>
</g>
</g>
<!-- Node7&#45;&gt;Node9 -->
<g id="edge8" class="edge"><title>Node7&#45;&gt;Node9</title>
<path fill="none" stroke="#63b8ff" d="M348.536,-125.017C336.504,-123.347 324.084,-121.624 312.247,-119.982"/>
<polygon fill="#63b8ff" stroke="#63b8ff" points="348.146,-128.496 358.532,-126.403 349.108,-121.562 348.146,-128.496"/>
</g>
<!-- Node10 -->
<g id="node10" class="node"><title>Node10</title>
<g id="a_node10"><a xlink:href="classore_1_1data_1_1_index_credit_default_swap.html#af7b69d5b18d278257927e32b10a23ee6" target="_top" xlink:title=" ">
<polygon fill="white" stroke="#666666" points="140,-126 0,-126 0,-96 140,-96 140,-126"/>
<text text-anchor="start" x="8" y="-114" font-family="Helvetica,sans-Serif" font-size="10.00">ore::data::IndexCreditDefault</text>
<text text-anchor="middle" x="70" y="-103" font-family="Helvetica,sans-Serif" font-size="10.00">Swap::build</text>
</a>
</g>
</g>
<!-- Node9&#45;&gt;Node10 -->
<g id="edge9" class="edge"><title>Node9&#45;&gt;Node10</title>
<path fill="none" stroke="#63b8ff" d="M170.208,-111C160.214,-111 150.006,-111 140.124,-111"/>
<polygon fill="#63b8ff" stroke="#63b8ff" points="170.523,-114.5 180.523,-111 170.523,-107.5 170.523,-114.5"/>
</g>
<!-- Node12 -->
<g id="node12" class="node"><title>Node12</title>
<g id="a_node12"><a xlink:href="classore_1_1data_1_1_cap_floor.html#af7b69d5b18d278257927e32b10a23ee6" target="_top" xlink:title=" ">
<polygon fill="white" stroke="#666666" points="296.5,-78 196.5,-78 196.5,-48 296.5,-48 296.5,-78"/>
<text text-anchor="start" x="204.5" y="-66" font-family="Helvetica,sans-Serif" font-size="10.00">ore::data::CapFloor</text>
<text text-anchor="middle" x="246.5" y="-55" font-family="Helvetica,sans-Serif" font-size="10.00">::build</text>
</a>
</g>
</g>
<!-- Node11&#45;&gt;Node12 -->
<g id="edge11" class="edge"><title>Node11&#45;&gt;Node12</title>
<path fill="none" stroke="#63b8ff" d="M353.353,-63C334.494,-63 314.34,-63 296.734,-63"/>
<polygon fill="#63b8ff" stroke="#63b8ff" points="353.374,-66.5001 363.374,-63 353.374,-59.5001 353.374,-66.5001"/>
</g>
<!-- Node13 -->
<g id="node13" class="node"><title>Node13</title>
<g id="a_node13"><a xlink:href="classore_1_1data_1_1_floating_leg_builder.html#aea285351d9f3458189a9e2d965349d23" target="_top" xlink:title=" ">
<polygon fill="white" stroke="#666666" points="317,-30 176,-30 176,-0 317,-0 317,-30"/>
<text text-anchor="start" x="184" y="-18" font-family="Helvetica,sans-Serif" font-size="10.00">ore::data::FloatingLegBuilder</text>
<text text-anchor="middle" x="246.5" y="-7" font-family="Helvetica,sans-Serif" font-size="10.00">::buildLeg</text>
</a>
</g>
</g>
<!-- Node11&#45;&gt;Node13 -->
<g id="edge12" class="edge"><title>Node11&#45;&gt;Node13</title>
<path fill="none" stroke="#63b8ff" d="M376.208,-50.7108C353.536,-44.4205 325.741,-36.7085 301.79,-30.063"/>
<polygon fill="#63b8ff" stroke="#63b8ff" points="375.335,-54.1008 385.907,-53.4018 377.206,-47.3556 375.335,-54.1008"/>
</g>
</g>
</svg>
