<?xml version="1.0" encoding="UTF-8" standalone="no"?>
<!DOCTYPE svg PUBLIC "-//W3C//DTD SVG 1.1//EN"
 "http://www.w3.org/Graphics/SVG/1.1/DTD/svg11.dtd">
<!-- Generated by graphviz version 2.38.0 (20140413.2041)
 -->
<!-- Title: populateRequiredCurveIds Pages: 1 -->
<svg width="303pt" height="64pt"
 viewBox="0.00 0.00 303.00 64.00" xmlns="http://www.w3.org/2000/svg" xmlns:xlink="http://www.w3.org/1999/xlink">
<g id="graph0" class="graph" transform="scale(1 1) rotate(0) translate(4 60)">
<title>populateRequiredCurveIds</title>
<!-- Node1 -->
<g id="node1" class="node"><title>Node1</title>
<g id="a_node1"><a xlink:title="Populate required curve ids.">
<polygon fill="#999999" stroke="#666666" points="128,-37 0,-37 0,-18 128,-18 128,-37"/>
<text text-anchor="middle" x="64" y="-25" font-family="Helvetica,sans-Serif" font-size="10.00">populateRequiredCurveIds</text>
</a>
</g>
</g>
<!-- Node2 -->
<g id="node2" class="node"><title>Node2</title>
<g id="a_node2"><a xlink:href="classore_1_1data_1_1_cap_floor_volatility_curve_config.html#a80db903e309cdeacd8484ccc4f0900eb" target="_top" xlink:title=" ">
<polygon fill="white" stroke="#666666" points="268,-56 191,-56 191,-37 268,-37 268,-56"/>
<text text-anchor="middle" x="229.5" y="-44" font-family="Helvetica,sans-Serif" font-size="10.00">discountCurve</text>
</a>
</g>
</g>
<!-- Node1&#45;&gt;Node2 -->
<g id="edge1" class="edge"><title>Node1&#45;&gt;Node2</title>
<path fill="none" stroke="#63b8ff" d="M128.213,-34.8459C145.776,-36.8868 164.543,-39.0676 181.036,-40.9843"/>
<polygon fill="#63b8ff" stroke="#63b8ff" points="180.643,-44.4621 190.98,-42.1399 181.451,-37.5089 180.643,-44.4621"/>
</g>
<!-- Node3 -->
<g id="node3" class="node"><title>Node3</title>
<g id="a_node3"><a xlink:href="group__curves.html#ga7c53f293f4ad98e691c6a93b6be26e9a" target="_top" xlink:title="function to convert a string into a curve spec">
<polygon fill="white" stroke="#666666" points="295,-19 164,-19 164,-0 295,-0 295,-19"/>
<text text-anchor="middle" x="229.5" y="-7" font-family="Helvetica,sans-Serif" font-size="10.00">ore::data::parseCurveSpec</text>
</a>
</g>
</g>
<!-- Node1&#45;&gt;Node3 -->
<g id="edge2" class="edge"><title>Node1&#45;&gt;Node3</title>
<path fill="none" stroke="#63b8ff" d="M128.213,-20.5407C136.61,-19.6164 145.282,-18.6617 153.849,-17.7185"/>
<polygon fill="#63b8ff" stroke="#63b8ff" points="154.278,-21.1925 163.835,-16.6191 153.512,-14.2345 154.278,-21.1925"/>
</g>
</g>
</svg>
