<?xml version="1.0" encoding="UTF-8" standalone="no"?>
<!DOCTYPE svg PUBLIC "-//W3C//DTD SVG 1.1//EN"
 "http://www.w3.org/Graphics/SVG/1.1/DTD/svg11.dtd">
<!-- Generated by graphviz version 2.38.0 (20140413.2041)
 -->
<!-- Title: StructuredMessage Pages: 1 -->
<svg width="270pt" height="511pt"
 viewBox="0.00 0.00 270.00 511.00" xmlns="http://www.w3.org/2000/svg" xmlns:xlink="http://www.w3.org/1999/xlink">
<g id="graph0" class="graph" transform="scale(1 1) rotate(0) translate(4 507)">
<title>StructuredMessage</title>
<!-- Node1 -->
<g id="node1" class="node"><title>Node1</title>
<g id="a_node1"><a xlink:title=" ">
<polygon fill="#999999" stroke="#666666" points="242,-96 120,-96 120,-0 242,-0 242,-96"/>
<text text-anchor="middle" x="181" y="-84" font-family="Helvetica,sans-Serif" font-size="10.00">{StructuredMessage</text>
<text text-anchor="start" x="128" y="-73" font-family="Helvetica,sans-Serif" font-size="10.00">||+ StructuredMessage()</text>
<text text-anchor="start" x="128" y="-62" font-family="Helvetica,sans-Serif" font-size="10.00">+ StructuredMessage()</text>
<text text-anchor="start" x="128" y="-51" font-family="Helvetica,sans-Serif" font-size="10.00">+ ~StructuredMessage()</text>
<text text-anchor="start" x="128" y="-40" font-family="Helvetica,sans-Serif" font-size="10.00">+ msg()</text>
<text text-anchor="start" x="128" y="-29" font-family="Helvetica,sans-Serif" font-size="10.00">+ emitLog()</text>
<text text-anchor="start" x="128" y="-18" font-family="Helvetica,sans-Serif" font-size="10.00"># addSubFields()</text>
<text text-anchor="middle" x="181" y="-7" font-family="Helvetica,sans-Serif" font-size="10.00">}</text>
</a>
</g>
</g>
<!-- Node2 -->
<g id="node2" class="node"><title>Node2</title>
<g id="a_node2"><a xlink:href="classore_1_1data_1_1_j_s_o_n_message.html" target="_top" xlink:title=" ">
<polygon fill="white" stroke="#666666" points="166.5,-250 59.5,-250 59.5,-143 166.5,-143 166.5,-250"/>
<text text-anchor="middle" x="113" y="-238" font-family="Helvetica,sans-Serif" font-size="10.00">{JSONMessage</text>
<text text-anchor="start" x="67.5" y="-227" font-family="Helvetica,sans-Serif" font-size="10.00">||+ ~JSONMessage()</text>
<text text-anchor="start" x="67.5" y="-216" font-family="Helvetica,sans-Serif" font-size="10.00">+ msg()</text>
<text text-anchor="start" x="67.5" y="-205" font-family="Helvetica,sans-Serif" font-size="10.00">+ log()</text>
<text text-anchor="start" x="67.5" y="-194" font-family="Helvetica,sans-Serif" font-size="10.00">+ json()</text>
<text text-anchor="start" x="67.5" y="-183" font-family="Helvetica,sans-Serif" font-size="10.00">+ set()</text>
<text text-anchor="start" x="67.5" y="-172" font-family="Helvetica,sans-Serif" font-size="10.00"># emitLog()</text>
<text text-anchor="start" x="67.5" y="-161" font-family="Helvetica,sans-Serif" font-size="10.00"># jsonify()</text>
<text text-anchor="middle" x="113" y="-150" font-family="Helvetica,sans-Serif" font-size="10.00">}</text>
</a>
</g>
</g>
<!-- Node2&#45;&gt;Node1 -->
<g id="edge1" class="edge"><title>Node2&#45;&gt;Node1</title>
<path fill="none" stroke="#63b8ff" d="M141.876,-133.29C147.598,-120.961 153.519,-108.205 158.969,-96.4632"/>
<polygon fill="none" stroke="#63b8ff" points="138.585,-132.066 137.55,-142.61 144.935,-135.013 138.585,-132.066"/>
</g>
<!-- Node3 -->
<g id="node3" class="node"><title>Node3</title>
<g id="a_node3"><a xlink:title=" ">
<polygon fill="white" stroke="#666666" points="173.5,-338 52.5,-338 52.5,-297 173.5,-297 173.5,-338"/>
<text text-anchor="start" x="60.5" y="-326" font-family="Helvetica,sans-Serif" font-size="10.00">{map&lt; std::string, boost</text>
<text text-anchor="middle" x="113" y="-315" font-family="Helvetica,sans-Serif" font-size="10.00">::any &gt;</text>
<text text-anchor="middle" x="113" y="-304" font-family="Helvetica,sans-Serif" font-size="10.00">||}</text>
</a>
</g>
</g>
<!-- Node3&#45;&gt;Node2 -->
<g id="edge2" class="edge"><title>Node3&#45;&gt;Node2</title>
<path fill="none" stroke="#404040" d="M113,-296.85C113,-287.144 113,-274.821 113,-262.184"/>
<polygon fill="none" stroke="#404040" points="113,-262.047 109,-256.047 113,-250.047 117,-256.047 113,-262.047"/>
<text text-anchor="middle" x="129.5" y="-271" font-family="Helvetica,sans-Serif" font-size="10.00"> #data_</text>
</g>
<!-- Node4 -->
<g id="node4" class="node"><title>Node4</title>
<g id="a_node4"><a xlink:title=" ">
<polygon fill="white" stroke="#666666" points="77,-426 33,-426 33,-396 77,-396 77,-426"/>
<text text-anchor="middle" x="55" y="-414" font-family="Helvetica,sans-Serif" font-size="10.00">{string</text>
<text text-anchor="middle" x="55" y="-403" font-family="Helvetica,sans-Serif" font-size="10.00">||}</text>
</a>
</g>
</g>
<!-- Node4&#45;&gt;Node3 -->
<g id="edge3" class="edge"><title>Node4&#45;&gt;Node3</title>
<path fill="none" stroke="#404040" d="M59.5964,-395.565C63.5469,-384.281 69.8868,-368.47 78,-356 79.9122,-353.061 82.0643,-350.139 84.337,-347.298"/>
<polygon fill="none" stroke="#404040" points="84.4968,-347.113 85.4041,-339.959 92.3566,-338.046 91.4493,-345.199 84.4968,-347.113"/>
<text text-anchor="middle" x="93.5" y="-364.5" font-family="Helvetica,sans-Serif" font-size="10.00"> +keys</text>
</g>
<!-- Node5 -->
<g id="node5" class="node"><title>Node5</title>
<g id="a_node5"><a xlink:title=" ">
<polygon fill="white" stroke="#666666" points="110,-503 0,-503 0,-473 110,-473 110,-503"/>
<text text-anchor="middle" x="55" y="-491" font-family="Helvetica,sans-Serif" font-size="10.00">{basic_string&lt; Char &gt;</text>
<text text-anchor="middle" x="55" y="-480" font-family="Helvetica,sans-Serif" font-size="10.00">||}</text>
</a>
</g>
</g>
<!-- Node5&#45;&gt;Node4 -->
<g id="edge4" class="edge"><title>Node5&#45;&gt;Node4</title>
<path fill="none" stroke="#63b8ff" d="M55,-462.541C55,-450.451 55,-436.294 55,-426.044"/>
<polygon fill="none" stroke="#63b8ff" points="51.5001,-462.893 55,-472.893 58.5001,-462.893 51.5001,-462.893"/>
</g>
<!-- Node6 -->
<g id="node6" class="node"><title>Node6</title>
<g id="a_node6"><a xlink:title=" ">
<polygon fill="white" stroke="#666666" points="130.5,-426 95.5,-426 95.5,-396 130.5,-396 130.5,-426"/>
<text text-anchor="middle" x="113" y="-414" font-family="Helvetica,sans-Serif" font-size="10.00">{any</text>
<text text-anchor="middle" x="113" y="-403" font-family="Helvetica,sans-Serif" font-size="10.00">||}</text>
</a>
</g>
</g>
<!-- Node6&#45;&gt;Node3 -->
<g id="edge5" class="edge"><title>Node6&#45;&gt;Node3</title>
<path fill="none" stroke="#404040" d="M113,-395.703C113,-383.609 113,-365.83 113,-350.382"/>
<polygon fill="none" stroke="#404040" points="113,-350.129 109,-344.129 113,-338.129 117,-344.129 113,-350.129"/>
<text text-anchor="middle" x="137.5" y="-364.5" font-family="Helvetica,sans-Serif" font-size="10.00"> +elements</text>
</g>
<!-- Node7 -->
<g id="node7" class="node"><title>Node7</title>
<g id="a_node7"><a xlink:title=" ">
<polygon fill="white" stroke="#666666" points="223,-426 149,-426 149,-396 223,-396 223,-426"/>
<text text-anchor="middle" x="186" y="-414" font-family="Helvetica,sans-Serif" font-size="10.00">{map&lt; K, T &gt;</text>
<text text-anchor="middle" x="186" y="-403" font-family="Helvetica,sans-Serif" font-size="10.00">||}</text>
</a>
</g>
</g>
<!-- Node7&#45;&gt;Node3 -->
<g id="edge6" class="edge"><title>Node7&#45;&gt;Node3</title>
<path fill="none" stroke="orange" d="M178.823,-385.907C175.121,-375.999 169.907,-364.808 163,-356 157.778,-349.34 151.096,-343.257 144.329,-338.018"/>
<polygon fill="orange" stroke="orange" points="175.595,-387.283 182.142,-395.613 182.218,-385.019 175.595,-387.283"/>
<text text-anchor="start" x="176" y="-370" font-family="Helvetica,sans-Serif" font-size="10.00"> &lt; std::string, boost</text>
<text text-anchor="middle" x="219" y="-359" font-family="Helvetica,sans-Serif" font-size="10.00">::any &gt;</text>
</g>
<!-- Node8 -->
<g id="node8" class="node"><title>Node8</title>
<g id="a_node8"><a xlink:title=" ">
<polygon fill="white" stroke="#666666" points="178.5,-503 149.5,-503 149.5,-473 178.5,-473 178.5,-503"/>
<text text-anchor="middle" x="164" y="-491" font-family="Helvetica,sans-Serif" font-size="10.00">{K</text>
<text text-anchor="middle" x="164" y="-480" font-family="Helvetica,sans-Serif" font-size="10.00">||}</text>
</a>
</g>
</g>
<!-- Node8&#45;&gt;Node7 -->
<g id="edge7" class="edge"><title>Node8&#45;&gt;Node7</title>
<path fill="none" stroke="#404040" d="M162.39,-472.739C161.9,-464.212 162.113,-453.268 165,-444 165.772,-441.522 166.797,-439.055 167.981,-436.653"/>
<polygon fill="none" stroke="#404040" points="168.139,-436.39 167.795,-429.187 174.311,-426.099 174.656,-433.302 168.139,-436.39"/>
<text text-anchor="middle" x="180.5" y="-447" font-family="Helvetica,sans-Serif" font-size="10.00"> +keys</text>
</g>
<!-- Node9 -->
<g id="node9" class="node"><title>Node9</title>
<g id="a_node9"><a xlink:title=" ">
<polygon fill="white" stroke="#666666" points="232.5,-503 203.5,-503 203.5,-473 232.5,-473 232.5,-503"/>
<text text-anchor="middle" x="218" y="-491" font-family="Helvetica,sans-Serif" font-size="10.00">{T</text>
<text text-anchor="middle" x="218" y="-480" font-family="Helvetica,sans-Serif" font-size="10.00">||}</text>
</a>
</g>
</g>
<!-- Node9&#45;&gt;Node7 -->
<g id="edge8" class="edge"><title>Node9&#45;&gt;Node7</title>
<path fill="none" stroke="#404040" d="M211.981,-472.893C207.69,-462.836 201.805,-449.043 196.721,-437.126"/>
<polygon fill="none" stroke="#404040" points="196.701,-437.081 190.668,-433.132 191.992,-426.044 198.026,-429.993 196.701,-437.081"/>
<text text-anchor="middle" x="228.5" y="-447" font-family="Helvetica,sans-Serif" font-size="10.00"> +elements</text>
</g>
<!-- Node10 -->
<g id="node10" class="node"><title>Node10</title>
<g id="a_node10"><a xlink:title=" ">
<polygon fill="white" stroke="#666666" points="223,-211.5 185,-211.5 185,-181.5 223,-181.5 223,-211.5"/>
<text text-anchor="middle" x="204" y="-199.5" font-family="Helvetica,sans-Serif" font-size="10.00">{char</text>
<text text-anchor="middle" x="204" y="-188.5" font-family="Helvetica,sans-Serif" font-size="10.00">||}</text>
</a>
</g>
</g>
<!-- Node10&#45;&gt;Node1 -->
<g id="edge9" class="edge"><title>Node10&#45;&gt;Node1</title>
<path fill="none" stroke="#404040" d="M201.795,-181.453C199.143,-164.56 194.521,-135.121 190.307,-108.28"/>
<polygon fill="none" stroke="#404040" points="190.269,-108.04 185.387,-102.733 188.408,-96.1852 193.29,-101.492 190.269,-108.04"/>
<text text-anchor="middle" x="210" y="-117" font-family="Helvetica,sans-Serif" font-size="10.00"> +name</text>
</g>
</g>
</svg>
