<?xml version="1.0" encoding="UTF-8" standalone="no"?>
<!DOCTYPE svg PUBLIC "-//W3C//DTD SVG 1.1//EN"
 "http://www.w3.org/Graphics/SVG/1.1/DTD/svg11.dtd">
<!-- Generated by graphviz version 2.38.0 (20140413.2041)
 -->
<!-- Title: TenorBasisTwoSwapConvention Pages: 1 -->
<svg width="407pt" height="260pt"
 viewBox="0.00 0.00 407.00 260.00" xmlns="http://www.w3.org/2000/svg" xmlns:xlink="http://www.w3.org/1999/xlink">
<g id="graph0" class="graph" transform="scale(1 1) rotate(0) translate(4 256)">
<title>TenorBasisTwoSwapConvention</title>
<!-- Node1 -->
<g id="node1" class="node"><title>Node1</title>
<g id="a_node1"><a xlink:title="Detailed constructor.">
<polygon fill="#999999" stroke="#666666" points="154,-129 0,-129 0,-110 154,-110 154,-129"/>
<text text-anchor="middle" x="77" y="-117" font-family="Helvetica,sans-Serif" font-size="10.00">TenorBasisTwoSwapConvention</text>
</a>
</g>
</g>
<!-- Node2 -->
<g id="node2" class="node"><title>Node2</title>
<g id="a_node2"><a xlink:href="classore_1_1data_1_1_tenor_basis_two_swap_convention.html#a9169b2d8ee8001dbb250c4ce2c26818c" target="_top" xlink:title=" ">
<polygon fill="white" stroke="#666666" points="227,-129 190,-129 190,-110 227,-110 227,-129"/>
<text text-anchor="middle" x="208.5" y="-117" font-family="Helvetica,sans-Serif" font-size="10.00">build</text>
</a>
</g>
</g>
<!-- Node1&#45;&gt;Node2 -->
<g id="edge1" class="edge"><title>Node1&#45;&gt;Node2</title>
<path fill="none" stroke="#63b8ff" d="M154.08,-119.5C163.21,-119.5 172.031,-119.5 179.784,-119.5"/>
<polygon fill="#63b8ff" stroke="#63b8ff" points="179.955,-123 189.955,-119.5 179.955,-116 179.955,-123"/>
</g>
<!-- Node3 -->
<g id="node3" class="node"><title>Node3</title>
<g id="a_node3"><a xlink:href="group__utilities.html#ga94621f11193864fa1338296232dc5be9" target="_top" xlink:title="Convert text to bool.">
<polygon fill="white" stroke="#666666" points="383,-234 279,-234 279,-215 383,-215 383,-234"/>
<text text-anchor="middle" x="331" y="-222" font-family="Helvetica,sans-Serif" font-size="10.00">ore::data::parseBool</text>
</a>
</g>
</g>
<!-- Node2&#45;&gt;Node3 -->
<g id="edge2" class="edge"><title>Node2&#45;&gt;Node3</title>
<path fill="none" stroke="#63b8ff" d="M212.802,-129.13C219.42,-146.972 236.028,-185.195 263,-205.5 265.48,-207.367 268.136,-209.05 270.908,-210.568"/>
<polygon fill="#63b8ff" stroke="#63b8ff" points="269.544,-213.794 280.084,-214.876 272.519,-207.458 269.544,-213.794"/>
</g>
<!-- Node4 -->
<g id="node4" class="node"><title>Node4</title>
<g id="a_node4"><a xlink:href="group__utilities.html#ga86adcf55f91e340ff40783964666e732" target="_top" xlink:title="Convert text to QuantLib::BusinessDayConvention.">
<polygon fill="white" stroke="#666666" points="393.5,-196.5 268.5,-196.5 268.5,-166.5 393.5,-166.5 393.5,-196.5"/>
<text text-anchor="start" x="276.5" y="-184.5" font-family="Helvetica,sans-Serif" font-size="10.00">ore::data::parseBusiness</text>
<text text-anchor="middle" x="331" y="-173.5" font-family="Helvetica,sans-Serif" font-size="10.00">DayConvention</text>
</a>
</g>
</g>
<!-- Node2&#45;&gt;Node4 -->
<g id="edge4" class="edge"><title>Node2&#45;&gt;Node4</title>
<path fill="none" stroke="#63b8ff" d="M221.213,-129.254C231.664,-137.597 247.646,-149.491 263,-157.5 266.317,-159.23 269.787,-160.887 273.327,-162.464"/>
<polygon fill="#63b8ff" stroke="#63b8ff" points="272.23,-165.799 282.805,-166.444 274.941,-159.345 272.23,-165.799"/>
</g>
<!-- Node5 -->
<g id="node5" class="node"><title>Node5</title>
<g id="a_node5"><a xlink:href="group__utilities.html#ga0f72d6fcccae10a674bdcd5095200f14" target="_top" xlink:title="Convert text to QuantLib::Calendar.">
<polygon fill="white" stroke="#666666" points="392.5,-148 269.5,-148 269.5,-129 392.5,-129 392.5,-148"/>
<text text-anchor="middle" x="331" y="-136" font-family="Helvetica,sans-Serif" font-size="10.00">ore::data::parseCalendar</text>
</a>
</g>
</g>
<!-- Node2&#45;&gt;Node5 -->
<g id="edge5" class="edge"><title>Node2&#45;&gt;Node5</title>
<path fill="none" stroke="#63b8ff" d="M227.022,-122.263C235.946,-123.67 247.447,-125.483 259.512,-127.386"/>
<polygon fill="#63b8ff" stroke="#63b8ff" points="259.312,-130.897 269.736,-128.998 260.403,-123.983 259.312,-130.897"/>
</g>
<!-- Node6 -->
<g id="node6" class="node"><title>Node6</title>
<g id="a_node6"><a xlink:href="group__utilities.html#gaefb008d0de256c79140545d9c7549093" target="_top" xlink:title="Convert text to QuantLib::DayCounter.">
<polygon fill="white" stroke="#666666" points="399,-111 263,-111 263,-92 399,-92 399,-111"/>
<text text-anchor="middle" x="331" y="-99" font-family="Helvetica,sans-Serif" font-size="10.00">ore::data::parseDayCounter</text>
</a>
</g>
</g>
<!-- Node2&#45;&gt;Node6 -->
<g id="edge6" class="edge"><title>Node2&#45;&gt;Node6</title>
<path fill="none" stroke="#63b8ff" d="M227.022,-116.883C235.118,-115.673 245.335,-114.147 256.169,-112.529"/>
<polygon fill="#63b8ff" stroke="#63b8ff" points="256.877,-115.962 266.25,-111.023 255.843,-109.039 256.877,-115.962"/>
</g>
<!-- Node7 -->
<g id="node7" class="node"><title>Node7</title>
<g id="a_node7"><a xlink:href="group__utilities.html#ga8ecdc1d4eace894d29940dc88c5e2043" target="_top" xlink:title="Convert text to QuantLib::Frequency.">
<polygon fill="white" stroke="#666666" points="396.5,-74 265.5,-74 265.5,-55 396.5,-55 396.5,-74"/>
<text text-anchor="middle" x="331" y="-62" font-family="Helvetica,sans-Serif" font-size="10.00">ore::data::parseFrequency</text>
</a>
</g>
</g>
<!-- Node2&#45;&gt;Node7 -->
<g id="edge7" class="edge"><title>Node2&#45;&gt;Node7</title>
<path fill="none" stroke="#63b8ff" d="M221.586,-109.729C232.017,-101.711 247.766,-90.5662 263,-83.5 268.004,-81.1788 273.353,-79.0814 278.764,-77.2019"/>
<polygon fill="#63b8ff" stroke="#63b8ff" points="280.072,-80.4577 288.511,-74.0527 277.92,-73.7967 280.072,-80.4577"/>
</g>
<!-- Node8 -->
<g id="node8" class="node"><title>Node8</title>
<g id="a_node8"><a xlink:href="group__utilities.html#ga2d18ab5807f92319c9db2c13f4904738" target="_top" xlink:title="Convert std::string to QuantLib::IborIndex.">
<polygon fill="white" stroke="#666666" points="393,-19 269,-19 269,-0 393,-0 393,-19"/>
<text text-anchor="middle" x="331" y="-7" font-family="Helvetica,sans-Serif" font-size="10.00">ore::data::parseIborIndex</text>
</a>
</g>
</g>
<!-- Node2&#45;&gt;Node8 -->
<g id="edge8" class="edge"><title>Node2&#45;&gt;Node8</title>
<path fill="none" stroke="#63b8ff" d="M214.664,-109.956C223.151,-94.953 241.292,-65.5953 263,-46.5 273.313,-37.4282 286.221,-29.6501 297.947,-23.5999"/>
<polygon fill="#63b8ff" stroke="#63b8ff" points="299.603,-26.6861 307.026,-19.1265 296.509,-20.407 299.603,-26.6861"/>
</g>
<!-- Node3&#45;&gt;Node3 -->
<g id="edge3" class="edge"><title>Node3&#45;&gt;Node3</title>
<path fill="none" stroke="#63b8ff" d="M312.196,-234.083C303.048,-242.734 309.316,-252 331,-252 344.552,-252 352.083,-248.38 353.591,-243.554"/>
<polygon fill="#63b8ff" stroke="#63b8ff" points="356.767,-242.068 349.804,-234.083 350.267,-244.668 356.767,-242.068"/>
</g>
<!-- Node8&#45;&gt;Node8 -->
<g id="edge9" class="edge"><title>Node8&#45;&gt;Node8</title>
<path fill="none" stroke="#63b8ff" d="M312.196,-19.0828C303.048,-27.7337 309.316,-37 331,-37 344.552,-37 352.083,-33.3804 353.591,-28.5536"/>
<polygon fill="#63b8ff" stroke="#63b8ff" points="356.767,-27.0681 349.804,-19.0828 350.267,-29.6675 356.767,-27.0681"/>
</g>
</g>
</svg>
