<?xml version="1.0" encoding="UTF-8" standalone="no"?>
<!DOCTYPE svg PUBLIC "-//W3C//DTD SVG 1.1//EN"
 "http://www.w3.org/Graphics/SVG/1.1/DTD/svg11.dtd">
<!-- Generated by graphviz version 2.38.0 (20140413.2041)
 -->
<!-- Title: underlyings Pages: 1 -->
<svg width="229pt" height="104pt"
 viewBox="0.00 0.00 229.00 104.00" xmlns="http://www.w3.org/2000/svg" xmlns:xlink="http://www.w3.org/1999/xlink">
<g id="graph0" class="graph" transform="scale(1 1) rotate(0) translate(4 100)">
<title>underlyings</title>
<!-- Node1 -->
<g id="node1" class="node"><title>Node1</title>
<g id="a_node1"><a xlink:title=" ">
<polygon fill="#999999" stroke="#666666" points="221,-48.5 155,-48.5 155,-29.5 221,-29.5 221,-48.5"/>
<text text-anchor="middle" x="188" y="-36.5" font-family="Helvetica,sans-Serif" font-size="10.00">underlyings</text>
</a>
</g>
</g>
<!-- Node2 -->
<g id="node2" class="node"><title>Node2</title>
<g id="a_node2"><a xlink:href="classore_1_1data_1_1_bond_position.html#ab1db499ff5e65c59fd2009d62276fdaf" target="_top" xlink:title=" ">
<polygon fill="white" stroke="#666666" points="119,-78 -7.10543e-015,-78 -7.10543e-015,-48 119,-48 119,-78"/>
<text text-anchor="start" x="8" y="-66" font-family="Helvetica,sans-Serif" font-size="10.00">ore::data::BondPosition</text>
<text text-anchor="middle" x="59.5" y="-55" font-family="Helvetica,sans-Serif" font-size="10.00">::build</text>
</a>
</g>
</g>
<!-- Node1&#45;&gt;Node2 -->
<g id="edge1" class="edge"><title>Node1&#45;&gt;Node2</title>
<path fill="none" stroke="#63b8ff" d="M144.724,-47.0207C136.548,-48.572 127.844,-50.2233 119.251,-51.8535"/>
<polygon fill="#63b8ff" stroke="#63b8ff" points="145.579,-50.421 154.751,-45.1183 144.274,-43.5437 145.579,-50.421"/>
</g>
<!-- Node3 -->
<g id="node3" class="node"><title>Node3</title>
<g id="a_node3"><a xlink:href="classore_1_1data_1_1_bond_position.html#a5172c779c3cbbd760ae110e62e08bb35" target="_top" xlink:title=" ">
<polygon fill="white" stroke="#666666" points="119,-30 -7.10543e-015,-30 -7.10543e-015,-0 119,-0 119,-30"/>
<text text-anchor="start" x="8" y="-18" font-family="Helvetica,sans-Serif" font-size="10.00">ore::data::BondPosition</text>
<text text-anchor="middle" x="59.5" y="-7" font-family="Helvetica,sans-Serif" font-size="10.00">::underlyingIndices</text>
</a>
</g>
</g>
<!-- Node1&#45;&gt;Node3 -->
<g id="edge3" class="edge"><title>Node1&#45;&gt;Node3</title>
<path fill="none" stroke="#63b8ff" d="M144.724,-30.9793C136.548,-29.428 127.844,-27.7767 119.251,-26.1465"/>
<polygon fill="#63b8ff" stroke="#63b8ff" points="144.274,-34.4563 154.751,-32.8817 145.579,-27.579 144.274,-34.4563"/>
</g>
<!-- Node2&#45;&gt;Node2 -->
<g id="edge2" class="edge"><title>Node2&#45;&gt;Node2</title>
<path fill="none" stroke="#63b8ff" d="M81.9048,-88.5975C78.8433,-92.9704 71.375,-96 59.5,-96 39.5,-96 32,-87.4063 37,-78.2754"/>
<polygon fill="#63b8ff" stroke="#63b8ff" points="85.4075,-88.3073 82,-78.2754 78.4078,-88.2426 85.4075,-88.3073"/>
</g>
</g>
</svg>
