<?xml version="1.0" encoding="UTF-8" standalone="no"?>
<!DOCTYPE svg PUBLIC "-//W3C//DTD SVG 1.1//EN"
 "http://www.w3.org/Graphics/SVG/1.1/DTD/svg11.dtd">
<!-- Generated by graphviz version 2.38.0 (20140413.2041)
 -->
<!-- Title: rules Pages: 1 -->
<svg width="371pt" height="92pt"
 viewBox="0.00 0.00 371.00 91.50" xmlns="http://www.w3.org/2000/svg" xmlns:xlink="http://www.w3.org/1999/xlink">
<g id="graph0" class="graph" transform="scale(1 1) rotate(0) translate(4 87.5)">
<title>rules</title>
<!-- Node1 -->
<g id="node1" class="node"><title>Node1</title>
<g id="a_node1"><a xlink:title=" ">
<polygon fill="#999999" stroke="#666666" points="363,-61.5 325,-61.5 325,-42.5 363,-42.5 363,-61.5"/>
<text text-anchor="middle" x="344" y="-49.5" font-family="Helvetica,sans-Serif" font-size="10.00">rules</text>
</a>
</g>
</g>
<!-- Node2 -->
<g id="node2" class="node"><title>Node2</title>
<g id="a_node2"><a xlink:href="classore_1_1data_1_1_schedule_data.html#a646a02d6b3e2240f6f9084b5794b6a13" target="_top" xlink:title="Constructor with ScheduleRules.">
<polygon fill="white" stroke="#666666" points="102.5,-83.5 25.5,-83.5 25.5,-64.5 102.5,-64.5 102.5,-83.5"/>
<text text-anchor="middle" x="64" y="-71.5" font-family="Helvetica,sans-Serif" font-size="10.00">ScheduleData</text>
</a>
</g>
</g>
<!-- Node1&#45;&gt;Node2 -->
<g id="edge1" class="edge"><title>Node1&#45;&gt;Node2</title>
<path fill="none" stroke="#63b8ff" d="M315.321,-63.6743C307.008,-66.6486 297.765,-69.4425 289,-71 224.286,-82.4993 147.394,-80.1234 102.606,-77.1804"/>
<polygon fill="#63b8ff" stroke="#63b8ff" points="316.804,-66.8551 324.905,-60.0278 314.314,-60.3126 316.804,-66.8551"/>
</g>
<!-- Node3 -->
<g id="node3" class="node"><title>Node3</title>
<g id="a_node3"><a xlink:href="classore_1_1data_1_1_schedule_data.html#a6842a7ee0ec8508c32db7ae28a08d4e0" target="_top" xlink:title="Add rules.">
<polygon fill="white" stroke="#666666" points="255,-61.5 198,-61.5 198,-42.5 255,-42.5 255,-61.5"/>
<text text-anchor="middle" x="226.5" y="-49.5" font-family="Helvetica,sans-Serif" font-size="10.00">addRules</text>
</a>
</g>
</g>
<!-- Node1&#45;&gt;Node3 -->
<g id="edge2" class="edge"><title>Node1&#45;&gt;Node3</title>
<path fill="none" stroke="#63b8ff" d="M314.735,-52C296.654,-52 273.304,-52 255.312,-52"/>
<polygon fill="#63b8ff" stroke="#63b8ff" points="314.953,-55.5001 324.953,-52 314.953,-48.5001 314.953,-55.5001"/>
</g>
<!-- Node4 -->
<g id="node4" class="node"><title>Node4</title>
<g id="a_node4"><a xlink:href="namespaceore_1_1data.html#ad610c7014d2a04b447848f3f4646a27d" target="_top" xlink:title=" ">
<polygon fill="white" stroke="#666666" points="289,-24.5 164,-24.5 164,-5.5 289,-5.5 289,-24.5"/>
<text text-anchor="middle" x="226.5" y="-12.5" font-family="Helvetica,sans-Serif" font-size="10.00">ore::data::writeEventData</text>
</a>
</g>
</g>
<!-- Node1&#45;&gt;Node4 -->
<g id="edge4" class="edge"><title>Node1&#45;&gt;Node4</title>
<path fill="none" stroke="#63b8ff" d="M314.952,-41.8107C306.63,-38.8742 297.474,-35.7288 289,-33 280.105,-30.1356 270.426,-27.213 261.435,-24.5788"/>
<polygon fill="#63b8ff" stroke="#63b8ff" points="313.994,-45.1848 324.589,-45.2467 316.345,-38.5914 313.994,-45.1848"/>
</g>
<!-- Node3&#45;&gt;Node2 -->
<g id="edge3" class="edge"><title>Node3&#45;&gt;Node2</title>
<path fill="none" stroke="#63b8ff" d="M187.819,-57.165C162.181,-60.6793 128.384,-65.3119 102.734,-68.8278"/>
<polygon fill="#63b8ff" stroke="#63b8ff" points="188.477,-60.6076 197.909,-55.7819 187.526,-53.6725 188.477,-60.6076"/>
</g>
<!-- Node5 -->
<g id="node5" class="node"><title>Node5</title>
<g id="a_node5"><a xlink:href="classore_1_1data_1_1_worst_of_basket_swap.html#a7efefb9270d6c4933e4c96de0771f17a" target="_top" xlink:title=" ">
<polygon fill="white" stroke="#666666" points="128,-30 0,-30 0,-0 128,-0 128,-30"/>
<text text-anchor="start" x="8" y="-18" font-family="Helvetica,sans-Serif" font-size="10.00">ore::data::WorstOfBasket</text>
<text text-anchor="middle" x="64" y="-7" font-family="Helvetica,sans-Serif" font-size="10.00">Swap::toXML</text>
</a>
</g>
</g>
<!-- Node4&#45;&gt;Node5 -->
<g id="edge5" class="edge"><title>Node4&#45;&gt;Node5</title>
<path fill="none" stroke="#63b8ff" d="M153.875,-15C145.258,-15 136.506,-15 128.024,-15"/>
<polygon fill="#63b8ff" stroke="#63b8ff" points="153.906,-18.5001 163.906,-15 153.905,-11.5001 153.906,-18.5001"/>
</g>
</g>
</svg>
