<?xml version="1.0" encoding="UTF-8" standalone="no"?>
<!DOCTYPE svg PUBLIC "-//W3C//DTD SVG 1.1//EN"
 "http://www.w3.org/Graphics/SVG/1.1/DTD/svg11.dtd">
<!-- Generated by graphviz version 2.38.0 (20140413.2041)
 -->
<!-- Title: toBaseNode Pages: 1 -->
<svg width="716pt" height="142pt"
 viewBox="0.00 0.00 716.00 141.50" xmlns="http://www.w3.org/2000/svg" xmlns:xlink="http://www.w3.org/1999/xlink">
<g id="graph0" class="graph" transform="scale(1 1) rotate(0) translate(4 137.5)">
<title>toBaseNode</title>
<!-- Node1 -->
<g id="node1" class="node"><title>Node1</title>
<g id="a_node1"><a xlink:title=" ">
<polygon fill="#999999" stroke="#666666" points="70,-72.5 0,-72.5 0,-53.5 70,-53.5 70,-72.5"/>
<text text-anchor="middle" x="35" y="-60.5" font-family="Helvetica,sans-Serif" font-size="10.00">toBaseNode</text>
</a>
</g>
</g>
<!-- Node2 -->
<g id="node2" class="node"><title>Node2</title>
<g id="a_node2"><a xlink:href="classore_1_1data_1_1_x_m_l_utils.html#aced1fd4bd35df3642d8022301744b138" target="_top" xlink:title=" ">
<polygon fill="white" stroke="#666666" points="366,-30 267,-30 267,-0 366,-0 366,-30"/>
<text text-anchor="start" x="275" y="-18" font-family="Helvetica,sans-Serif" font-size="10.00">ore::data::XMLUtils</text>
<text text-anchor="middle" x="316.5" y="-7" font-family="Helvetica,sans-Serif" font-size="10.00">::addChild</text>
</a>
</g>
</g>
<!-- Node1&#45;&gt;Node2 -->
<g id="edge1" class="edge"><title>Node1&#45;&gt;Node2</title>
<path fill="none" stroke="#63b8ff" d="M59.6051,-53.4783C73.0063,-48.4367 90.2104,-42.567 106,-39 156.144,-27.672 214.312,-21.5503 256.613,-18.3317"/>
<polygon fill="#63b8ff" stroke="#63b8ff" points="257.021,-21.8113 266.74,-17.5934 256.512,-14.8299 257.021,-21.8113"/>
</g>
<!-- Node5 -->
<g id="node5" class="node"><title>Node5</title>
<g id="a_node5"><a xlink:href="namespaceore_1_1data.html#a86651dfeb5c18ee891f7a4734d8cf455" target="_top" xlink:title=" ">
<polygon fill="white" stroke="#666666" points="365.5,-115.5 267.5,-115.5 267.5,-96.5 365.5,-96.5 365.5,-115.5"/>
<text text-anchor="middle" x="316.5" y="-103.5" font-family="Helvetica,sans-Serif" font-size="10.00">ore::data::to_string</text>
</a>
</g>
</g>
<!-- Node1&#45;&gt;Node5 -->
<g id="edge4" class="edge"><title>Node1&#45;&gt;Node5</title>
<path fill="none" stroke="#63b8ff" d="M59.2552,-72.5452C72.6914,-77.6596 90.0437,-83.5929 106,-87 156.318,-97.7443 214.702,-102.417 257.035,-104.447"/>
<polygon fill="#63b8ff" stroke="#63b8ff" points="257.02,-107.95 267.166,-104.897 257.331,-100.957 257.02,-107.95"/>
</g>
<!-- Node6 -->
<g id="node6" class="node"><title>Node6</title>
<g id="a_node6"><a xlink:href="classore_1_1data_1_1_volatility_config.html#affd40009e63f171e02eeb7ffcb3cfad2" target="_top" xlink:title=" ">
<polygon fill="white" stroke="#666666" points="231,-78 106,-78 106,-48 231,-48 231,-78"/>
<text text-anchor="start" x="114" y="-66" font-family="Helvetica,sans-Serif" font-size="10.00">ore::data::VolatilityConfig</text>
<text text-anchor="middle" x="168.5" y="-55" font-family="Helvetica,sans-Serif" font-size="10.00">::toXMLNode</text>
</a>
</g>
</g>
<!-- Node1&#45;&gt;Node6 -->
<g id="edge6" class="edge"><title>Node1&#45;&gt;Node6</title>
<path fill="none" stroke="#63b8ff" d="M70.2068,-63C78.1687,-63 86.9393,-63 95.8557,-63"/>
<polygon fill="#63b8ff" stroke="#63b8ff" points="95.9492,-66.5001 105.949,-63 95.9491,-59.5001 95.9492,-66.5001"/>
</g>
<!-- Node3 -->
<g id="node3" class="node"><title>Node3</title>
<g id="a_node3"><a xlink:href="classore_1_1data_1_1_x_m_l_document.html#a8717c517803f0df2e693e3cadefeafd7" target="_top" xlink:title="util functions that wrap rapidxml">
<polygon fill="white" stroke="#666666" points="537,-30 413,-30 413,-0 537,-0 537,-30"/>
<text text-anchor="start" x="421" y="-18" font-family="Helvetica,sans-Serif" font-size="10.00">ore::data::XMLDocument</text>
<text text-anchor="middle" x="475" y="-7" font-family="Helvetica,sans-Serif" font-size="10.00">::allocNode</text>
</a>
</g>
</g>
<!-- Node2&#45;&gt;Node3 -->
<g id="edge2" class="edge"><title>Node2&#45;&gt;Node3</title>
<path fill="none" stroke="#63b8ff" d="M366.16,-15C377.726,-15 390.304,-15 402.652,-15"/>
<polygon fill="#63b8ff" stroke="#63b8ff" points="402.942,-18.5001 412.942,-15 402.941,-11.5001 402.942,-18.5001"/>
</g>
<!-- Node4 -->
<g id="node4" class="node"><title>Node4</title>
<g id="a_node4"><a xlink:href="classore_1_1data_1_1_x_m_l_document.html#ae3474059e483990f3afea260096e5c90" target="_top" xlink:title=" ">
<polygon fill="white" stroke="#666666" points="708,-70 584,-70 584,-40 708,-40 708,-70"/>
<text text-anchor="start" x="592" y="-58" font-family="Helvetica,sans-Serif" font-size="10.00">ore::data::XMLDocument</text>
<text text-anchor="middle" x="646" y="-47" font-family="Helvetica,sans-Serif" font-size="10.00">::allocString</text>
</a>
</g>
</g>
<!-- Node3&#45;&gt;Node4 -->
<g id="edge3" class="edge"><title>Node3&#45;&gt;Node4</title>
<path fill="none" stroke="#63b8ff" d="M537.013,-29.4409C549.024,-32.2838 561.723,-35.2895 574.029,-38.2021"/>
<polygon fill="#63b8ff" stroke="#63b8ff" points="573.256,-41.6157 583.793,-40.5131 574.868,-34.8039 573.256,-41.6157"/>
</g>
<!-- Node5&#45;&gt;Node5 -->
<g id="edge5" class="edge"><title>Node5&#45;&gt;Node5</title>
<path fill="none" stroke="#63b8ff" d="M293.689,-115.583C282.592,-124.234 290.195,-133.5 316.5,-133.5 333.351,-133.5 342.528,-129.697 344.03,-124.689"/>
<polygon fill="#63b8ff" stroke="#63b8ff" points="347.019,-122.852 339.311,-115.583 340.804,-126.072 347.019,-122.852"/>
</g>
<!-- Node6&#45;&gt;Node2 -->
<g id="edge10" class="edge"><title>Node6&#45;&gt;Node2</title>
<path fill="none" stroke="#63b8ff" d="M215.295,-47.9442C229.564,-43.2531 245.451,-38.0299 260.293,-33.1503"/>
<polygon fill="#63b8ff" stroke="#63b8ff" points="261.461,-36.4506 269.868,-30.0024 259.275,-29.8007 261.461,-36.4506"/>
</g>
<!-- Node6&#45;&gt;Node5 -->
<g id="edge11" class="edge"><title>Node6&#45;&gt;Node5</title>
<path fill="none" stroke="#63b8ff" d="M220.564,-78.0393C237.724,-83.0934 256.668,-88.6727 273.09,-93.5093"/>
<polygon fill="#63b8ff" stroke="#63b8ff" points="272.369,-96.9456 282.951,-96.4135 274.347,-90.2308 272.369,-96.9456"/>
</g>
<!-- Node7 -->
<g id="node7" class="node"><title>Node7</title>
<g id="a_node7"><a xlink:href="classore_1_1data_1_1_x_m_l_utils.html#a226c81c31def2ba2c853ca803d1fafc5" target="_top" xlink:title=" ">
<polygon fill="white" stroke="#666666" points="366,-78 267,-78 267,-48 366,-48 366,-78"/>
<text text-anchor="start" x="275" y="-66" font-family="Helvetica,sans-Serif" font-size="10.00">ore::data::XMLUtils</text>
<text text-anchor="middle" x="316.5" y="-55" font-family="Helvetica,sans-Serif" font-size="10.00">::addAttribute</text>
</a>
</g>
</g>
<!-- Node6&#45;&gt;Node7 -->
<g id="edge7" class="edge"><title>Node6&#45;&gt;Node7</title>
<path fill="none" stroke="#63b8ff" d="M231.417,-63C239.816,-63 248.415,-63 256.755,-63"/>
<polygon fill="#63b8ff" stroke="#63b8ff" points="256.77,-66.5001 266.77,-63 256.77,-59.5001 256.77,-66.5001"/>
</g>
<!-- Node7&#45;&gt;Node4 -->
<g id="edge8" class="edge"><title>Node7&#45;&gt;Node4</title>
<path fill="none" stroke="#63b8ff" d="M366.058,-71.7679C377.786,-73.5256 390.308,-75.1059 402,-76 466.7,-80.9478 483.479,-82.9042 548,-76 556.933,-75.0441 566.251,-73.6064 575.427,-71.9229"/>
<polygon fill="#63b8ff" stroke="#63b8ff" points="576.15,-75.3479 585.302,-70.0108 574.819,-68.4756 576.15,-75.3479"/>
</g>
<!-- Node8 -->
<g id="node8" class="node"><title>Node8</title>
<g id="a_node8"><a xlink:href="classore_1_1data_1_1_x_m_l_document.html#a46d969cdb00bff64f3f4c0d2975a08d3" target="_top" xlink:title=" ">
<polygon fill="white" stroke="#666666" points="548,-67.5 402,-67.5 402,-48.5 548,-48.5 548,-67.5"/>
<text text-anchor="middle" x="475" y="-55.5" font-family="Helvetica,sans-Serif" font-size="10.00">ore::data::XMLDocument::doc</text>
</a>
</g>
</g>
<!-- Node7&#45;&gt;Node8 -->
<g id="edge9" class="edge"><title>Node7&#45;&gt;Node8</title>
<path fill="none" stroke="#63b8ff" d="M366.16,-61.4454C374.286,-61.1858 382.911,-60.9102 391.605,-60.6324"/>
<polygon fill="#63b8ff" stroke="#63b8ff" points="391.933,-64.1238 401.816,-60.3062 391.709,-57.1274 391.933,-64.1238"/>
</g>
</g>
</svg>
