<?xml version="1.0" encoding="UTF-8" standalone="no"?>
<!DOCTYPE svg PUBLIC "-//W3C//DTD SVG 1.1//EN"
 "http://www.w3.org/Graphics/SVG/1.1/DTD/svg11.dtd">
<!-- Generated by graphviz version 2.38.0 (20140413.2041)
 -->
<!-- Title: parseAndValidateFrequency Pages: 1 -->
<svg width="521pt" height="183pt"
 viewBox="0.00 0.00 521.00 183.23" xmlns="http://www.w3.org/2000/svg" xmlns:xlink="http://www.w3.org/1999/xlink">
<g id="graph0" class="graph" transform="scale(1 1) rotate(0) translate(4 179.228)">
<title>parseAndValidateFrequency</title>
<!-- Node1 -->
<g id="node1" class="node"><title>Node1</title>
<g id="a_node1"><a xlink:title="Populate and check frequency.">
<polygon fill="#999999" stroke="#666666" points="513,-53.2279 374,-53.2279 374,-34.2279 513,-34.2279 513,-53.2279"/>
<text text-anchor="middle" x="443.5" y="-41.2279" font-family="Helvetica,sans-Serif" font-size="10.00">parseAndValidateFrequency</text>
</a>
</g>
</g>
<!-- Node2 -->
<g id="node2" class="node"><title>Node2</title>
<g id="a_node2"><a xlink:href="classore_1_1data_1_1_commodity_future_convention.html#a9169b2d8ee8001dbb250c4ce2c26818c" target="_top" xlink:title="Implementation.">
<polygon fill="white" stroke="#666666" points="338,-90.2279 301,-90.2279 301,-71.2279 338,-71.2279 338,-90.2279"/>
<text text-anchor="middle" x="319.5" y="-78.2279" font-family="Helvetica,sans-Serif" font-size="10.00">build</text>
</a>
</g>
</g>
<!-- Node1&#45;&gt;Node2 -->
<g id="edge1" class="edge"><title>Node1&#45;&gt;Node2</title>
<path fill="none" stroke="#63b8ff" d="M401.503,-56.1614C379.985,-62.6873 354.733,-70.3457 338.215,-75.3552"/>
<polygon fill="#63b8ff" stroke="#63b8ff" points="402.528,-59.508 411.082,-53.2563 400.497,-52.8093 402.528,-59.508"/>
</g>
<!-- Node4 -->
<g id="node4" class="node"><title>Node4</title>
<g id="a_node4"><a xlink:href="classore_1_1data_1_1_commodity_future_convention.html#a7741ae0fc924943de5bfe02928262eb7" target="_top" xlink:title="Serialisation.">
<polygon fill="white" stroke="#666666" points="54,-115.228 0,-115.228 0,-96.2279 54,-96.2279 54,-115.228"/>
<text text-anchor="middle" x="27" y="-103.228" font-family="Helvetica,sans-Serif" font-size="10.00">fromXML</text>
</a>
</g>
</g>
<!-- Node1&#45;&gt;Node4 -->
<g id="edge6" class="edge"><title>Node1&#45;&gt;Node4</title>
<path fill="none" stroke="#63b8ff" d="M405.914,-31.0018C339.223,-10.0936 195.077,24.3794 90,-26.7279 59.8971,-41.3693 40.0736,-78.4861 32.0432,-96.1294"/>
<polygon fill="#63b8ff" stroke="#63b8ff" points="404.966,-34.3732 415.557,-34.1011 407.108,-27.7089 404.966,-34.3732"/>
</g>
<!-- Node3 -->
<g id="node3" class="node"><title>Node3</title>
<g id="a_node3"><a xlink:href="classore_1_1data_1_1_commodity_future_convention_1_1_averaging_data.html#a7741ae0fc924943de5bfe02928262eb7" target="_top" xlink:title="Serialisation.">
<polygon fill="white" stroke="#666666" points="246.5,-175.228 108.5,-175.228 108.5,-134.228 246.5,-134.228 246.5,-175.228"/>
<text text-anchor="start" x="116.5" y="-163.228" font-family="Helvetica,sans-Serif" font-size="10.00">ore::data::CommodityFuture</text>
<text text-anchor="start" x="116.5" y="-152.228" font-family="Helvetica,sans-Serif" font-size="10.00">Convention::AveragingData</text>
<text text-anchor="middle" x="177.5" y="-141.228" font-family="Helvetica,sans-Serif" font-size="10.00">::fromXML</text>
</a>
</g>
</g>
<!-- Node2&#45;&gt;Node3 -->
<g id="edge2" class="edge"><title>Node2&#45;&gt;Node3</title>
<path fill="none" stroke="#63b8ff" d="M299.233,-96.5519C289.38,-104.173 276.967,-113.078 265,-119.728 255.654,-124.921 245.378,-129.763 235.272,-134.09"/>
<polygon fill="#63b8ff" stroke="#63b8ff" points="301.493,-99.2269 307.157,-90.2734 297.146,-93.7403 301.493,-99.2269"/>
</g>
<!-- Node2&#45;&gt;Node4 -->
<g id="edge5" class="edge"><title>Node2&#45;&gt;Node4</title>
<path fill="none" stroke="#63b8ff" d="M290.461,-83.3963C282.256,-84.1641 273.27,-84.9925 265,-85.7279 188.499,-92.5305 98.0526,-100.006 54.3099,-103.585"/>
<polygon fill="#63b8ff" stroke="#63b8ff" points="291.043,-86.857 300.67,-82.4347 290.386,-79.8879 291.043,-86.857"/>
</g>
<!-- Node5 -->
<g id="node5" class="node"><title>Node5</title>
<g id="a_node5"><a xlink:href="classore_1_1data_1_1_commodity_future_convention_1_1_off_peak_power_index_data.html#a7741ae0fc924943de5bfe02928262eb7" target="_top" xlink:title=" ">
<polygon fill="white" stroke="#666666" points="265,-77.2279 90,-77.2279 90,-36.2279 265,-36.2279 265,-77.2279"/>
<text text-anchor="start" x="98" y="-65.2279" font-family="Helvetica,sans-Serif" font-size="10.00">ore::data::CommodityFuture</text>
<text text-anchor="start" x="98" y="-54.2279" font-family="Helvetica,sans-Serif" font-size="10.00">Convention::OffPeakPowerIndexData</text>
<text text-anchor="middle" x="177.5" y="-43.2279" font-family="Helvetica,sans-Serif" font-size="10.00">::fromXML</text>
</a>
</g>
</g>
<!-- Node2&#45;&gt;Node5 -->
<g id="edge4" class="edge"><title>Node2&#45;&gt;Node5</title>
<path fill="none" stroke="#63b8ff" d="M290.717,-75.9651C283.049,-74.6505 274.301,-73.1509 265.151,-71.5823"/>
<polygon fill="#63b8ff" stroke="#63b8ff" points="290.321,-79.4482 300.769,-77.6883 291.504,-72.5489 290.321,-79.4482"/>
</g>
<!-- Node3&#45;&gt;Node4 -->
<g id="edge3" class="edge"><title>Node3&#45;&gt;Node4</title>
<path fill="none" stroke="#63b8ff" d="M104.077,-130.831C86.2267,-124.941 68.2356,-119.004 54.2336,-114.384"/>
<polygon fill="#63b8ff" stroke="#63b8ff" points="103.36,-134.28 113.953,-134.089 105.553,-127.632 103.36,-134.28"/>
</g>
</g>
</svg>
