<?xml version="1.0" encoding="UTF-8" standalone="no"?>
<!DOCTYPE svg PUBLIC "-//W3C//DTD SVG 1.1//EN"
 "http://www.w3.org/Graphics/SVG/1.1/DTD/svg11.dtd">
<!-- Generated by graphviz version 2.38.0 (20140413.2041)
 -->
<!-- Title: VolatilityStrikeSurfaceConfig Pages: 1 -->
<svg width="621pt" height="919pt"
 viewBox="0.00 0.00 620.50 919.00" xmlns="http://www.w3.org/2000/svg" xmlns:xlink="http://www.w3.org/1999/xlink">
<g id="graph0" class="graph" transform="scale(1 1) rotate(0) translate(4 915)">
<title>VolatilityStrikeSurfaceConfig</title>
<!-- Node1 -->
<g id="node1" class="node"><title>Node1</title>
<g id="a_node1"><a xlink:title=" ">
<polygon fill="#999999" stroke="#666666" points="595,-140 436,-140 436,-0 595,-0 595,-140"/>
<text text-anchor="middle" x="515.5" y="-128" font-family="Helvetica,sans-Serif" font-size="10.00">{VolatilityStrikeSurfaceConfig</text>
<text text-anchor="start" x="444" y="-117" font-family="Helvetica,sans-Serif" font-size="10.00">||+ VolatilityStrikeSurfaceConfig()</text>
<text text-anchor="start" x="444" y="-106" font-family="Helvetica,sans-Serif" font-size="10.00">+ VolatilityStrikeSurfaceConfig()</text>
<text text-anchor="start" x="444" y="-95" font-family="Helvetica,sans-Serif" font-size="10.00">+ strikes()</text>
<text text-anchor="start" x="444" y="-84" font-family="Helvetica,sans-Serif" font-size="10.00">+ expiries()</text>
<text text-anchor="start" x="444" y="-73" font-family="Helvetica,sans-Serif" font-size="10.00">+ quotes()</text>
<text text-anchor="start" x="444" y="-62" font-family="Helvetica,sans-Serif" font-size="10.00">* fromXML()</text>
<text text-anchor="start" x="444" y="-51" font-family="Helvetica,sans-Serif" font-size="10.00">* toXML()</text>
<text text-anchor="start" x="444" y="-40" font-family="Helvetica,sans-Serif" font-size="10.00">* strikes()</text>
<text text-anchor="start" x="444" y="-29" font-family="Helvetica,sans-Serif" font-size="10.00">* expiries()</text>
<text text-anchor="start" x="444" y="-18" font-family="Helvetica,sans-Serif" font-size="10.00">* quotes()</text>
<text text-anchor="middle" x="515.5" y="-7" font-family="Helvetica,sans-Serif" font-size="10.00">}</text>
</a>
</g>
</g>
<!-- Node2 -->
<g id="node2" class="node"><title>Node2</title>
<g id="a_node2"><a xlink:href="classore_1_1data_1_1_volatility_surface_config.html" target="_top" xlink:title=" ">
<polygon fill="white" stroke="#666666" points="510.5,-317 376.5,-317 376.5,-177 510.5,-177 510.5,-317"/>
<text text-anchor="middle" x="443.5" y="-305" font-family="Helvetica,sans-Serif" font-size="10.00">{VolatilitySurfaceConfig</text>
<text text-anchor="start" x="384.5" y="-294" font-family="Helvetica,sans-Serif" font-size="10.00">||+ VolatilitySurfaceConfig()</text>
<text text-anchor="start" x="384.5" y="-283" font-family="Helvetica,sans-Serif" font-size="10.00">+ VolatilitySurfaceConfig()</text>
<text text-anchor="start" x="384.5" y="-272" font-family="Helvetica,sans-Serif" font-size="10.00">* timeInterpolation()</text>
<text text-anchor="start" x="384.5" y="-261" font-family="Helvetica,sans-Serif" font-size="10.00">* strikeInterpolation()</text>
<text text-anchor="start" x="384.5" y="-250" font-family="Helvetica,sans-Serif" font-size="10.00">* extrapolation()</text>
<text text-anchor="start" x="384.5" y="-239" font-family="Helvetica,sans-Serif" font-size="10.00">* timeExtrapolation()</text>
<text text-anchor="start" x="384.5" y="-228" font-family="Helvetica,sans-Serif" font-size="10.00">* strikeExtrapolation()</text>
<text text-anchor="start" x="384.5" y="-217" font-family="Helvetica,sans-Serif" font-size="10.00">* quotes()</text>
<text text-anchor="start" x="384.5" y="-206" font-family="Helvetica,sans-Serif" font-size="10.00">* fromNode()</text>
<text text-anchor="start" x="384.5" y="-195" font-family="Helvetica,sans-Serif" font-size="10.00">* addNodes()</text>
<text text-anchor="middle" x="443.5" y="-184" font-family="Helvetica,sans-Serif" font-size="10.00">}</text>
</a>
</g>
</g>
<!-- Node2&#45;&gt;Node1 -->
<g id="edge1" class="edge"><title>Node2&#45;&gt;Node1</title>
<path fill="none" stroke="#63b8ff" d="M475.82,-167.445C479.552,-158.373 483.338,-149.171 487.015,-140.235"/>
<polygon fill="none" stroke="#63b8ff" points="472.524,-166.256 471.956,-176.835 478.998,-168.919 472.524,-166.256"/>
</g>
<!-- Node3 -->
<g id="node3" class="node"><title>Node3</title>
<g id="a_node3"><a xlink:href="classore_1_1data_1_1_quote_based_volatility_config.html" target="_top" xlink:title=" ">
<polygon fill="white" stroke="#666666" points="367,-482 212,-482 212,-375 367,-375 367,-482"/>
<text text-anchor="middle" x="289.5" y="-470" font-family="Helvetica,sans-Serif" font-size="10.00">{QuoteBasedVolatilityConfig</text>
<text text-anchor="start" x="220" y="-459" font-family="Helvetica,sans-Serif" font-size="10.00">||+ QuoteBasedVolatilityConfig()</text>
<text text-anchor="start" x="220" y="-448" font-family="Helvetica,sans-Serif" font-size="10.00">+ quoteType()</text>
<text text-anchor="start" x="220" y="-437" font-family="Helvetica,sans-Serif" font-size="10.00">+ exerciseType()</text>
<text text-anchor="start" x="220" y="-426" font-family="Helvetica,sans-Serif" font-size="10.00">* fromBaseNode()</text>
<text text-anchor="start" x="220" y="-415" font-family="Helvetica,sans-Serif" font-size="10.00">* toBaseNode()</text>
<text text-anchor="start" x="220" y="-404" font-family="Helvetica,sans-Serif" font-size="10.00">* quoteType()</text>
<text text-anchor="start" x="220" y="-393" font-family="Helvetica,sans-Serif" font-size="10.00">* exerciseType()</text>
<text text-anchor="middle" x="289.5" y="-382" font-family="Helvetica,sans-Serif" font-size="10.00">}</text>
</a>
</g>
</g>
<!-- Node3&#45;&gt;Node2 -->
<g id="edge2" class="edge"><title>Node3&#45;&gt;Node2</title>
<path fill="none" stroke="#63b8ff" d="M341.498,-366.892C355.207,-350.913 370.102,-333.551 384.166,-317.159"/>
<polygon fill="none" stroke="#63b8ff" points="338.727,-364.746 334.872,-374.615 344.04,-369.304 338.727,-364.746"/>
</g>
<!-- Node4 -->
<g id="node4" class="node"><title>Node4</title>
<g id="a_node4"><a xlink:href="classore_1_1data_1_1_volatility_config.html" target="_top" xlink:title=" ">
<polygon fill="white" stroke="#666666" points="209,-680 108,-680 108,-595 209,-595 209,-680"/>
<text text-anchor="middle" x="158.5" y="-668" font-family="Helvetica,sans-Serif" font-size="10.00">{VolatilityConfig</text>
<text text-anchor="start" x="116" y="-657" font-family="Helvetica,sans-Serif" font-size="10.00">||+ VolatilityConfig()</text>
<text text-anchor="start" x="116" y="-646" font-family="Helvetica,sans-Serif" font-size="10.00">+ fromXMLNode()</text>
<text text-anchor="start" x="116" y="-635" font-family="Helvetica,sans-Serif" font-size="10.00">+ toXMLNode()</text>
<text text-anchor="start" x="116" y="-624" font-family="Helvetica,sans-Serif" font-size="10.00">+ priority()</text>
<text text-anchor="start" x="116" y="-613" font-family="Helvetica,sans-Serif" font-size="10.00">+ calendar()</text>
<text text-anchor="middle" x="158.5" y="-602" font-family="Helvetica,sans-Serif" font-size="10.00">}</text>
</a>
</g>
</g>
<!-- Node4&#45;&gt;Node3 -->
<g id="edge3" class="edge"><title>Node4&#45;&gt;Node3</title>
<path fill="none" stroke="#63b8ff" d="M190.459,-586C210.343,-554.58 235.875,-514.236 256.035,-482.379"/>
<polygon fill="none" stroke="#63b8ff" points="187.4,-584.289 185.01,-594.61 193.315,-588.032 187.4,-584.289"/>
</g>
<!-- Node5 -->
<g id="node5" class="node"><title>Node5</title>
<g id="a_node5"><a xlink:href="classore_1_1data_1_1_x_m_l_serializable.html" target="_top" xlink:title="Base class for all serializable classes.">
<polygon fill="white" stroke="#666666" points="111,-834 0,-834 0,-727 111,-727 111,-834"/>
<text text-anchor="middle" x="55.5" y="-822" font-family="Helvetica,sans-Serif" font-size="10.00">{XMLSerializable</text>
<text text-anchor="start" x="8" y="-811" font-family="Helvetica,sans-Serif" font-size="10.00">||+ ~XMLSerializable()</text>
<text text-anchor="start" x="8" y="-800" font-family="Helvetica,sans-Serif" font-size="10.00">+ fromXML()</text>
<text text-anchor="start" x="8" y="-789" font-family="Helvetica,sans-Serif" font-size="10.00">+ toXML()</text>
<text text-anchor="start" x="8" y="-778" font-family="Helvetica,sans-Serif" font-size="10.00">+ fromFile()</text>
<text text-anchor="start" x="8" y="-767" font-family="Helvetica,sans-Serif" font-size="10.00">+ toFile()</text>
<text text-anchor="start" x="8" y="-756" font-family="Helvetica,sans-Serif" font-size="10.00">+ fromXMLString()</text>
<text text-anchor="start" x="8" y="-745" font-family="Helvetica,sans-Serif" font-size="10.00">+ toXMLString()</text>
<text text-anchor="middle" x="55.5" y="-734" font-family="Helvetica,sans-Serif" font-size="10.00">}</text>
</a>
</g>
</g>
<!-- Node5&#45;&gt;Node4 -->
<g id="edge4" class="edge"><title>Node5&#45;&gt;Node4</title>
<path fill="none" stroke="#63b8ff" d="M99.7611,-718.91C109.34,-705.797 119.259,-692.218 128.158,-680.036"/>
<polygon fill="none" stroke="#63b8ff" points="96.9259,-716.857 93.8534,-726.997 102.578,-720.986 96.9259,-716.857"/>
</g>
<!-- Node6 -->
<g id="node6" class="node"><title>Node6</title>
<g id="a_node6"><a xlink:title=" ">
<polygon fill="white" stroke="#666666" points="187.5,-795.5 129.5,-795.5 129.5,-765.5 187.5,-765.5 187.5,-795.5"/>
<text text-anchor="middle" x="158.5" y="-783.5" font-family="Helvetica,sans-Serif" font-size="10.00">{Calendar</text>
<text text-anchor="middle" x="158.5" y="-772.5" font-family="Helvetica,sans-Serif" font-size="10.00">||}</text>
</a>
</g>
</g>
<!-- Node6&#45;&gt;Node4 -->
<g id="edge5" class="edge"><title>Node6&#45;&gt;Node4</title>
<path fill="none" stroke="#404040" d="M158.5,-765.465C158.5,-748.447 158.5,-718.762 158.5,-692.373"/>
<polygon fill="none" stroke="#404040" points="158.5,-692.146 154.5,-686.146 158.5,-680.146 162.5,-686.146 158.5,-692.146"/>
<text text-anchor="middle" x="183" y="-701" font-family="Helvetica,sans-Serif" font-size="10.00"> &#45;calendar_</text>
</g>
<!-- Node7 -->
<g id="node7" class="node"><title>Node7</title>
<g id="a_node7"><a xlink:title=" ">
<polygon fill="white" stroke="#666666" points="451.5,-795.5 407.5,-795.5 407.5,-765.5 451.5,-765.5 451.5,-795.5"/>
<text text-anchor="middle" x="429.5" y="-783.5" font-family="Helvetica,sans-Serif" font-size="10.00">{string</text>
<text text-anchor="middle" x="429.5" y="-772.5" font-family="Helvetica,sans-Serif" font-size="10.00">||}</text>
</a>
</g>
</g>
<!-- Node7&#45;&gt;Node2 -->
<g id="edge11" class="edge"><title>Node7&#45;&gt;Node2</title>
<path fill="none" stroke="#404040" d="M429.874,-765.284C431.49,-703.952 437.935,-459.267 441.35,-329.609"/>
<polygon fill="none" stroke="#404040" points="441.355,-329.427 437.514,-323.324 441.671,-317.431 445.512,-323.534 441.355,-329.427"/>
<text text-anchor="start" x="437.5" y="-569" font-family="Helvetica,sans-Serif" font-size="10.00"> &#45;strikeExtrapolation</text>
<text text-anchor="middle" x="481.5" y="-558" font-family="Helvetica,sans-Serif" font-size="10.00">_</text>
<text text-anchor="start" x="437.5" y="-547" font-family="Helvetica,sans-Serif" font-size="10.00">&#45;strikeInterpolation</text>
<text text-anchor="middle" x="481.5" y="-536" font-family="Helvetica,sans-Serif" font-size="10.00">_</text>
<text text-anchor="start" x="437.5" y="-525" font-family="Helvetica,sans-Serif" font-size="10.00">&#45;timeExtrapolation</text>
<text text-anchor="middle" x="481.5" y="-514" font-family="Helvetica,sans-Serif" font-size="10.00">_</text>
<text text-anchor="middle" x="481.5" y="-503" font-family="Helvetica,sans-Serif" font-size="10.00">&#45;timeInterpolation_</text>
</g>
<!-- Node7&#45;&gt;Node4 -->
<g id="edge6" class="edge"><title>Node7&#45;&gt;Node4</title>
<path fill="none" stroke="#404040" d="M407.467,-768.73C374.999,-752.92 312.327,-722.636 258.5,-698 243.232,-691.012 236.882,-689.959 219.907,-681.008"/>
<polygon fill="none" stroke="#404040" points="219.767,-680.931 212.582,-681.535 209.26,-675.134 216.446,-674.53 219.767,-680.931"/>
<text text-anchor="middle" x="313" y="-701" font-family="Helvetica,sans-Serif" font-size="10.00"> &#45;calendarStr_</text>
</g>
<!-- Node13 -->
<g id="node13" class="node"><title>Node13</title>
<g id="a_node13"><a xlink:title=" ">
<polygon fill="white" stroke="#666666" points="601,-652.5 494,-652.5 494,-622.5 601,-622.5 601,-652.5"/>
<text text-anchor="middle" x="547.5" y="-640.5" font-family="Helvetica,sans-Serif" font-size="10.00">{vector&lt; std::string &gt;</text>
<text text-anchor="middle" x="547.5" y="-629.5" font-family="Helvetica,sans-Serif" font-size="10.00">||}</text>
</a>
</g>
</g>
<!-- Node7&#45;&gt;Node13 -->
<g id="edge14" class="edge"><title>Node7&#45;&gt;Node13</title>
<path fill="none" stroke="#404040" d="M440.314,-765.47C453.033,-749.081 474.902,-721.246 494.5,-698 504.604,-686.016 516.147,-672.983 525.876,-662.179"/>
<polygon fill="none" stroke="#404040" points="526.153,-661.872 527.214,-654.74 534.207,-652.976 533.145,-660.109 526.153,-661.872"/>
<text text-anchor="middle" x="519" y="-701" font-family="Helvetica,sans-Serif" font-size="10.00"> +elements</text>
</g>
<!-- Node8 -->
<g id="node8" class="node"><title>Node8</title>
<g id="a_node8"><a xlink:title=" ">
<polygon fill="white" stroke="#666666" points="484.5,-911 374.5,-911 374.5,-881 484.5,-881 484.5,-911"/>
<text text-anchor="middle" x="429.5" y="-899" font-family="Helvetica,sans-Serif" font-size="10.00">{basic_string&lt; Char &gt;</text>
<text text-anchor="middle" x="429.5" y="-888" font-family="Helvetica,sans-Serif" font-size="10.00">||}</text>
</a>
</g>
</g>
<!-- Node8&#45;&gt;Node7 -->
<g id="edge7" class="edge"><title>Node8&#45;&gt;Node7</title>
<path fill="none" stroke="#63b8ff" d="M429.5,-870.37C429.5,-847.571 429.5,-814.46 429.5,-795.758"/>
<polygon fill="none" stroke="#63b8ff" points="426,-870.625 429.5,-880.625 433,-870.625 426,-870.625"/>
</g>
<!-- Node9 -->
<g id="node9" class="node"><title>Node9</title>
<g id="a_node9"><a xlink:title=" ">
<polygon fill="white" stroke="#666666" points="255.5,-795.5 205.5,-795.5 205.5,-765.5 255.5,-765.5 255.5,-795.5"/>
<text text-anchor="middle" x="230.5" y="-783.5" font-family="Helvetica,sans-Serif" font-size="10.00">{Natural</text>
<text text-anchor="middle" x="230.5" y="-772.5" font-family="Helvetica,sans-Serif" font-size="10.00">||}</text>
</a>
</g>
</g>
<!-- Node9&#45;&gt;Node4 -->
<g id="edge8" class="edge"><title>Node9&#45;&gt;Node4</title>
<path fill="none" stroke="#404040" d="M228.577,-765.266C225.88,-748.441 219.965,-719.955 208.5,-698 207.156,-695.427 205.685,-692.866 204.118,-690.333"/>
<polygon fill="none" stroke="#404040" points="203.934,-690.061 197.259,-687.333 197.21,-680.122 203.885,-682.85 203.934,-690.061"/>
<text text-anchor="middle" x="234" y="-701" font-family="Helvetica,sans-Serif" font-size="10.00"> &#45;priority_</text>
</g>
<!-- Node10 -->
<g id="node10" class="node"><title>Node10</title>
<g id="a_node10"><a xlink:title=" ">
<polygon fill="white" stroke="#666666" points="294,-652.5 227,-652.5 227,-622.5 294,-622.5 294,-652.5"/>
<text text-anchor="middle" x="260.5" y="-640.5" font-family="Helvetica,sans-Serif" font-size="10.00">{QuoteType</text>
<text text-anchor="middle" x="260.5" y="-629.5" font-family="Helvetica,sans-Serif" font-size="10.00">||}</text>
</a>
</g>
</g>
<!-- Node10&#45;&gt;Node3 -->
<g id="edge9" class="edge"><title>Node10&#45;&gt;Node3</title>
<path fill="none" stroke="#404040" d="M258.045,-622.342C254.177,-597.32 248.028,-543.787 257.5,-500 257.94,-497.968 258.443,-495.924 259.001,-493.877"/>
<polygon fill="none" stroke="#404040" points="259.084,-493.616 257.093,-486.685 262.725,-482.182 264.716,-489.113 259.084,-493.616"/>
<text text-anchor="middle" x="286" y="-536" font-family="Helvetica,sans-Serif" font-size="10.00"> &#45;quoteType_</text>
</g>
<!-- Node11 -->
<g id="node11" class="node"><title>Node11</title>
<g id="a_node11"><a xlink:title=" ">
<polygon fill="white" stroke="#666666" points="357,-652.5 316,-652.5 316,-622.5 357,-622.5 357,-652.5"/>
<text text-anchor="middle" x="336.5" y="-640.5" font-family="Helvetica,sans-Serif" font-size="10.00">{Type</text>
<text text-anchor="middle" x="336.5" y="-629.5" font-family="Helvetica,sans-Serif" font-size="10.00">||}</text>
</a>
</g>
</g>
<!-- Node11&#45;&gt;Node3 -->
<g id="edge10" class="edge"><title>Node11&#45;&gt;Node3</title>
<path fill="none" stroke="#404040" d="M335.077,-622.377C332.373,-597.407 325.737,-543.953 314.5,-500 313.991,-498.011 313.45,-495.998 312.882,-493.972"/>
<polygon fill="none" stroke="#404040" points="312.831,-493.799 307.275,-489.202 309.382,-482.306 314.937,-486.903 312.831,-493.799"/>
<text text-anchor="middle" x="364.5" y="-536" font-family="Helvetica,sans-Serif" font-size="10.00"> &#45;exerciseType_</text>
</g>
<!-- Node12 -->
<g id="node12" class="node"><title>Node12</title>
<g id="a_node12"><a xlink:href="classbool.html" target="_top" xlink:title=" ">
<polygon fill="white" stroke="#666666" points="495.5,-443.5 457.5,-443.5 457.5,-413.5 495.5,-413.5 495.5,-443.5"/>
<text text-anchor="middle" x="476.5" y="-431.5" font-family="Helvetica,sans-Serif" font-size="10.00">{bool</text>
<text text-anchor="middle" x="476.5" y="-420.5" font-family="Helvetica,sans-Serif" font-size="10.00">||}</text>
</a>
</g>
</g>
<!-- Node12&#45;&gt;Node2 -->
<g id="edge12" class="edge"><title>Node12&#45;&gt;Node2</title>
<path fill="none" stroke="#404040" d="M473.907,-413.456C471.28,-399.228 467.102,-376.585 463.5,-357 461.836,-347.953 460.096,-338.483 458.366,-329.064"/>
<polygon fill="none" stroke="#404040" points="458.354,-328.999 453.336,-323.82 456.187,-317.196 461.205,-322.375 458.354,-328.999"/>
<text text-anchor="middle" x="497" y="-343.5" font-family="Helvetica,sans-Serif" font-size="10.00"> &#45;extrapolation_</text>
</g>
<!-- Node13&#45;&gt;Node1 -->
<g id="edge13" class="edge"><title>Node13&#45;&gt;Node1</title>
<path fill="none" stroke="#404040" d="M546.706,-622.372C544.282,-579.279 536.766,-445.706 530.5,-335 527.036,-273.792 523.104,-204.602 520.135,-152.414"/>
<polygon fill="none" stroke="#404040" points="520.122,-152.184 515.787,-146.42 519.44,-140.203 523.775,-145.966 520.122,-152.184"/>
<text text-anchor="middle" x="555.5" y="-349" font-family="Helvetica,sans-Serif" font-size="10.00"> &#45;expiries_</text>
<text text-anchor="middle" x="555.5" y="-338" font-family="Helvetica,sans-Serif" font-size="10.00">&#45;strikes_</text>
</g>
<!-- Node14 -->
<g id="node14" class="node"><title>Node14</title>
<g id="a_node14"><a xlink:title=" ">
<polygon fill="white" stroke="#666666" points="581.5,-795.5 513.5,-795.5 513.5,-765.5 581.5,-765.5 581.5,-795.5"/>
<text text-anchor="middle" x="547.5" y="-783.5" font-family="Helvetica,sans-Serif" font-size="10.00">{vector&lt; T &gt;</text>
<text text-anchor="middle" x="547.5" y="-772.5" font-family="Helvetica,sans-Serif" font-size="10.00">||}</text>
</a>
</g>
</g>
<!-- Node14&#45;&gt;Node13 -->
<g id="edge15" class="edge"><title>Node14&#45;&gt;Node13</title>
<path fill="none" stroke="orange" d="M547.5,-755.201C547.5,-725.723 547.5,-676.99 547.5,-652.898"/>
<polygon fill="orange" stroke="orange" points="544,-755.465 547.5,-765.465 551,-755.465 544,-755.465"/>
<text text-anchor="middle" x="580" y="-701" font-family="Helvetica,sans-Serif" font-size="10.00"> &lt; std::string &gt;</text>
</g>
<!-- Node15 -->
<g id="node15" class="node"><title>Node15</title>
<g id="a_node15"><a xlink:title=" ">
<polygon fill="white" stroke="#666666" points="562,-911 533,-911 533,-881 562,-881 562,-911"/>
<text text-anchor="middle" x="547.5" y="-899" font-family="Helvetica,sans-Serif" font-size="10.00">{T</text>
<text text-anchor="middle" x="547.5" y="-888" font-family="Helvetica,sans-Serif" font-size="10.00">||}</text>
</a>
</g>
</g>
<!-- Node15&#45;&gt;Node14 -->
<g id="edge16" class="edge"><title>Node15&#45;&gt;Node14</title>
<path fill="none" stroke="#404040" d="M547.5,-880.625C547.5,-862.375 547.5,-830.54 547.5,-807.873"/>
<polygon fill="none" stroke="#404040" points="547.5,-807.758 543.5,-801.758 547.5,-795.758 551.5,-801.758 547.5,-807.758"/>
<text text-anchor="middle" x="572" y="-855" font-family="Helvetica,sans-Serif" font-size="10.00"> +elements</text>
</g>
</g>
</svg>
