<?xml version="1.0" encoding="UTF-8" standalone="no"?>
<!DOCTYPE svg PUBLIC "-//W3C//DTD SVG 1.1//EN"
 "http://www.w3.org/Graphics/SVG/1.1/DTD/svg11.dtd">
<!-- Generated by graphviz version 2.38.0 (20140413.2041)
 -->
<!-- Title: fromXML Pages: 1 -->
<svg width="892pt" height="1082pt"
 viewBox="0.00 0.00 892.00 1082.00" xmlns="http://www.w3.org/2000/svg" xmlns:xlink="http://www.w3.org/1999/xlink">
<g id="graph0" class="graph" transform="scale(1 1) rotate(0) translate(4 1078)">
<title>fromXML</title>
<!-- Node1 -->
<g id="node1" class="node"><title>Node1</title>
<g id="a_node1"><a xlink:title=" ">
<polygon fill="#999999" stroke="#666666" points="54,-356 0,-356 0,-337 54,-337 54,-356"/>
<text text-anchor="middle" x="27" y="-344" font-family="Helvetica,sans-Serif" font-size="10.00">fromXML</text>
</a>
</g>
</g>
<!-- Node2 -->
<g id="node2" class="node"><title>Node2</title>
<g id="a_node2"><a xlink:href="classore_1_1data_1_1_scripted_trade.html#ac8bb3912a3ce86b15842e79d0b421204" target="_top" xlink:title=" ">
<polygon fill="white" stroke="#666666" points="173,-1074 135,-1074 135,-1055 173,-1055 173,-1074"/>
<text text-anchor="middle" x="154" y="-1062" font-family="Helvetica,sans-Serif" font-size="10.00">clear</text>
</a>
</g>
</g>
<!-- Node1&#45;&gt;Node2 -->
<g id="edge1" class="edge"><title>Node1&#45;&gt;Node2</title>
<path fill="none" stroke="#63b8ff" d="M28.2522,-356.203C30.406,-436.057 46.6958,-983.294 90,-1040.5 98.3612,-1051.55 112.458,-1057.51 125.199,-1060.73"/>
<polygon fill="#63b8ff" stroke="#63b8ff" points="124.488,-1064.15 134.991,-1062.76 125.914,-1057.3 124.488,-1064.15"/>
</g>
<!-- Node3 -->
<g id="node3" class="node"><title>Node3</title>
<g id="a_node3"><a xlink:href="classore_1_1data_1_1_schedule_data.html#a7741ae0fc924943de5bfe02928262eb7" target="_top" xlink:title=" ">
<polygon fill="white" stroke="#666666" points="376,-242.5 254,-242.5 254,-212.5 376,-212.5 376,-242.5"/>
<text text-anchor="start" x="262" y="-230.5" font-family="Helvetica,sans-Serif" font-size="10.00">ore::data::ScheduleData</text>
<text text-anchor="middle" x="315" y="-219.5" font-family="Helvetica,sans-Serif" font-size="10.00">::fromXML</text>
</a>
</g>
</g>
<!-- Node1&#45;&gt;Node3 -->
<g id="edge2" class="edge"><title>Node1&#45;&gt;Node3</title>
<path fill="none" stroke="#63b8ff" d="M50.9211,-336.963C97.9782,-317.383 206.259,-272.329 268.238,-246.541"/>
<polygon fill="#63b8ff" stroke="#63b8ff" points="269.883,-249.647 277.771,-242.574 267.194,-243.184 269.883,-249.647"/>
</g>
<!-- Node4 -->
<g id="node4" class="node"><title>Node4</title>
<g id="a_node4"><a xlink:href="classore_1_1data_1_1_x_m_l_utils.html#a42678b2a0d7c4052dc19123914359ec1" target="_top" xlink:title="Returns all the children with a given name.">
<polygon fill="white" stroke="#666666" points="543.5,-497.5 444.5,-497.5 444.5,-467.5 543.5,-467.5 543.5,-497.5"/>
<text text-anchor="start" x="452.5" y="-485.5" font-family="Helvetica,sans-Serif" font-size="10.00">ore::data::XMLUtils</text>
<text text-anchor="middle" x="494" y="-474.5" font-family="Helvetica,sans-Serif" font-size="10.00">::getChildrenNodes</text>
</a>
</g>
</g>
<!-- Node1&#45;&gt;Node4 -->
<g id="edge46" class="edge"><title>Node1&#45;&gt;Node4</title>
<path fill="none" stroke="#63b8ff" d="M54.3327,-354.202C127.219,-375.519 332.927,-435.683 434.613,-465.423"/>
<polygon fill="#63b8ff" stroke="#63b8ff" points="433.836,-468.843 444.416,-468.291 435.801,-462.124 433.836,-468.843"/>
</g>
<!-- Node5 -->
<g id="node5" class="node"><title>Node5</title>
<g id="a_node5"><a xlink:href="classore_1_1data_1_1_x_m_l_utils.html#a4e041c36cab0a16681fb41dfbd991882" target="_top" xlink:title="Get and set a node&#39;s name.">
<polygon fill="white" stroke="#666666" points="543.5,-153.5 444.5,-153.5 444.5,-123.5 543.5,-123.5 543.5,-153.5"/>
<text text-anchor="start" x="452.5" y="-141.5" font-family="Helvetica,sans-Serif" font-size="10.00">ore::data::XMLUtils</text>
<text text-anchor="middle" x="494" y="-130.5" font-family="Helvetica,sans-Serif" font-size="10.00">::getNodeName</text>
</a>
</g>
</g>
<!-- Node1&#45;&gt;Node5 -->
<g id="edge49" class="edge"><title>Node1&#45;&gt;Node5</title>
<path fill="none" stroke="#63b8ff" d="M29.1127,-336.64C32.6327,-310.425 46.0354,-238.672 90,-204.5 190.856,-126.107 349.371,-125.369 434.424,-131.809"/>
<polygon fill="#63b8ff" stroke="#63b8ff" points="434.172,-135.299 444.423,-132.625 434.741,-128.323 434.172,-135.299"/>
</g>
<!-- Node6 -->
<g id="node6" class="node"><title>Node6</title>
<g id="a_node6"><a xlink:href="classore_1_1data_1_1_scripted_trade_script_data.html#a7741ae0fc924943de5bfe02928262eb7" target="_top" xlink:title=" ">
<polygon fill="white" stroke="#666666" points="375.5,-772.5 254.5,-772.5 254.5,-742.5 375.5,-742.5 375.5,-772.5"/>
<text text-anchor="start" x="262.5" y="-760.5" font-family="Helvetica,sans-Serif" font-size="10.00">ore::data::ScriptedTrade</text>
<text text-anchor="middle" x="315" y="-749.5" font-family="Helvetica,sans-Serif" font-size="10.00">ScriptData::fromXML</text>
</a>
</g>
</g>
<!-- Node1&#45;&gt;Node6 -->
<g id="edge5" class="edge"><title>Node1&#45;&gt;Node6</title>
<path fill="none" stroke="#63b8ff" d="M28.6828,-356.196C32.2248,-403.999 49.9036,-614.251 90,-663.5 128.256,-710.489 194.124,-734.342 244.563,-746.229"/>
<polygon fill="#63b8ff" stroke="#63b8ff" points="243.907,-749.669 254.432,-748.45 245.444,-742.84 243.907,-749.669"/>
</g>
<!-- Node11 -->
<g id="node11" class="node"><title>Node11</title>
<g id="a_node11"><a xlink:href="classore_1_1data_1_1_x_m_l_utils.html#a6704501b110fa9d056096df3e05f0df2" target="_top" xlink:title="Get a node&#39;s value.">
<polygon fill="white" stroke="#666666" points="884,-579.5 785,-579.5 785,-549.5 884,-549.5 884,-579.5"/>
<text text-anchor="start" x="793" y="-567.5" font-family="Helvetica,sans-Serif" font-size="10.00">ore::data::XMLUtils</text>
<text text-anchor="middle" x="834.5" y="-556.5" font-family="Helvetica,sans-Serif" font-size="10.00">::getNodeValue</text>
</a>
</g>
</g>
<!-- Node1&#45;&gt;Node11 -->
<g id="edge50" class="edge"><title>Node1&#45;&gt;Node11</title>
<path fill="none" stroke="#63b8ff" d="M28.0476,-356.033C28.5766,-399.259 34.1816,-580.536 90,-714.5 155.655,-872.073 143.296,-1026.5 314,-1026.5 314,-1026.5 314,-1026.5 495,-1026.5 713.534,-1026.5 806.329,-685.984 828.213,-589.628"/>
<polygon fill="#63b8ff" stroke="#63b8ff" points="831.687,-590.129 830.43,-579.609 824.852,-588.616 831.687,-590.129"/>
</g>
<!-- Node12 -->
<g id="node12" class="node"><title>Node12</title>
<g id="a_node12"><a xlink:href="classore_1_1data_1_1_x_m_l_utils.html#a5a1307174ddefdb3aad6e3bd8cc63b27" target="_top" xlink:title=" ">
<polygon fill="white" stroke="#666666" points="730,-325.5 631,-325.5 631,-295.5 730,-295.5 730,-325.5"/>
<text text-anchor="start" x="639" y="-313.5" font-family="Helvetica,sans-Serif" font-size="10.00">ore::data::XMLUtils</text>
<text text-anchor="middle" x="680.5" y="-302.5" font-family="Helvetica,sans-Serif" font-size="10.00">::getChildValue</text>
</a>
</g>
</g>
<!-- Node1&#45;&gt;Node12 -->
<g id="edge47" class="edge"><title>Node1&#45;&gt;Node12</title>
<path fill="none" stroke="#63b8ff" d="M27.5497,-336.84C26.5833,-303.626 28.3104,-193.365 90,-142.5 200.834,-51.1141 268.436,-119.491 412,-114.5 484.845,-111.967 513.576,-76.8705 576,-114.5 638.566,-152.215 665.256,-241.783 674.872,-285.555"/>
<polygon fill="#63b8ff" stroke="#63b8ff" points="671.454,-286.313 676.913,-295.394 678.308,-284.891 671.454,-286.313"/>
</g>
<!-- Node14 -->
<g id="node14" class="node"><title>Node14</title>
<g id="a_node14"><a xlink:href="classore_1_1data_1_1_x_m_l_utils.html#a5f2b91a4af900e85c356cfe807e64501" target="_top" xlink:title=" ">
<polygon fill="white" stroke="#666666" points="543.5,-583.5 444.5,-583.5 444.5,-553.5 543.5,-553.5 543.5,-583.5"/>
<text text-anchor="start" x="452.5" y="-571.5" font-family="Helvetica,sans-Serif" font-size="10.00">ore::data::XMLUtils</text>
<text text-anchor="middle" x="494" y="-560.5" font-family="Helvetica,sans-Serif" font-size="10.00">::getChildNode</text>
</a>
</g>
</g>
<!-- Node1&#45;&gt;Node14 -->
<g id="edge45" class="edge"><title>Node1&#45;&gt;Node14</title>
<path fill="none" stroke="#63b8ff" d="M29.518,-356.034C34.1239,-382.215 50.1428,-456.272 90,-501.5 145.113,-564.039 173.302,-571.611 254,-592.5 306.492,-606.088 322.055,-597.976 376,-592.5 395.235,-590.547 415.98,-586.833 434.583,-582.9"/>
<polygon fill="#63b8ff" stroke="#63b8ff" points="435.357,-586.313 444.384,-580.767 433.868,-579.474 435.357,-586.313"/>
</g>
<!-- Node17 -->
<g id="node17" class="node"><title>Node17</title>
<g id="a_node17"><a xlink:href="classore_1_1data_1_1_trade.html#a7741ae0fc924943de5bfe02928262eb7" target="_top" xlink:title=" ">
<polygon fill="white" stroke="#666666" points="218,-492 90,-492 90,-473 218,-473 218,-492"/>
<text text-anchor="middle" x="154" y="-480" font-family="Helvetica,sans-Serif" font-size="10.00">ore::data::Trade::fromXML</text>
</a>
</g>
</g>
<!-- Node1&#45;&gt;Node17 -->
<g id="edge24" class="edge"><title>Node1&#45;&gt;Node17</title>
<path fill="none" stroke="#63b8ff" d="M32.2892,-356.023C41.0191,-374.611 62.3859,-416.281 90,-443.5 99.8312,-453.19 112.491,-461.61 123.879,-468.121"/>
<polygon fill="#63b8ff" stroke="#63b8ff" points="122.209,-471.196 132.662,-472.921 125.566,-465.054 122.209,-471.196"/>
</g>
<!-- Node21 -->
<g id="node21" class="node"><title>Node21</title>
<g id="a_node21"><a xlink:href="classore_1_1data_1_1_x_m_l_utils.html#a7fedec5ac495a3e67a9abd7e4aae74aa" target="_top" xlink:title="Get a node&#39;s next sibling node.">
<polygon fill="white" stroke="#666666" points="543.5,-201.5 444.5,-201.5 444.5,-171.5 543.5,-171.5 543.5,-201.5"/>
<text text-anchor="start" x="452.5" y="-189.5" font-family="Helvetica,sans-Serif" font-size="10.00">ore::data::XMLUtils</text>
<text text-anchor="middle" x="494" y="-178.5" font-family="Helvetica,sans-Serif" font-size="10.00">::getNextSibling</text>
</a>
</g>
</g>
<!-- Node1&#45;&gt;Node21 -->
<g id="edge48" class="edge"><title>Node1&#45;&gt;Node21</title>
<path fill="none" stroke="#63b8ff" d="M32.9986,-336.864C42.1483,-320.105 63.1429,-285.474 90,-265.5 192.699,-189.122 349.528,-181.014 434.075,-182.988"/>
<polygon fill="#63b8ff" stroke="#63b8ff" points="434.17,-186.492 444.267,-183.283 434.373,-179.495 434.17,-186.492"/>
</g>
<!-- Node25 -->
<g id="node25" class="node"><title>Node25</title>
<g id="a_node25"><a xlink:href="classore_1_1data_1_1_x_m_l_utils.html#a2d656de3f92d61e867ec7a3c88ad4015" target="_top" xlink:title=" ">
<polygon fill="white" stroke="#666666" points="203.5,-67.5 104.5,-67.5 104.5,-37.5 203.5,-37.5 203.5,-67.5"/>
<text text-anchor="start" x="112.5" y="-55.5" font-family="Helvetica,sans-Serif" font-size="10.00">ore::data::XMLUtils</text>
<text text-anchor="middle" x="154" y="-44.5" font-family="Helvetica,sans-Serif" font-size="10.00">::getAttribute</text>
</a>
</g>
</g>
<!-- Node1&#45;&gt;Node25 -->
<g id="edge44" class="edge"><title>Node1&#45;&gt;Node25</title>
<path fill="none" stroke="#63b8ff" d="M29.1296,-336.749C34.265,-293.871 56.61,-122.403 90,-81.5 92.427,-78.5269 95.2264,-75.8445 98.2677,-73.4267"/>
<polygon fill="#63b8ff" stroke="#63b8ff" points="100.495,-76.1448 106.794,-67.626 96.557,-70.3573 100.495,-76.1448"/>
</g>
<!-- Node26 -->
<g id="node26" class="node"><title>Node26</title>
<g id="a_node26"><a xlink:href="classore_1_1data_1_1_scripted_trade.html#a5d1065359641255dee68444b4f04be14" target="_top" xlink:title=" ">
<polygon fill="white" stroke="#666666" points="187,-19 121,-19 121,-0 187,-0 187,-19"/>
<text text-anchor="middle" x="154" y="-7" font-family="Helvetica,sans-Serif" font-size="10.00">scriptName</text>
</a>
</g>
</g>
<!-- Node1&#45;&gt;Node26 -->
<g id="edge51" class="edge"><title>Node1&#45;&gt;Node26</title>
<path fill="none" stroke="#63b8ff" d="M28.578,-336.687C31.6185,-288.322 47.2728,-75.7458 90,-28.5 95.6111,-22.2955 103.167,-18.0859 111.096,-15.2376"/>
<polygon fill="#63b8ff" stroke="#63b8ff" points="112.225,-18.5541 120.846,-12.3959 110.266,-11.8337 112.225,-18.5541"/>
</g>
<!-- Node3&#45;&gt;Node4 -->
<g id="edge3" class="edge"><title>Node3&#45;&gt;Node4</title>
<path fill="none" stroke="#63b8ff" d="M324.652,-242.871C340.781,-271.19 376.987,-333.213 412,-382.5 431.56,-410.034 456.265,-439.92 473.217,-459.78"/>
<polygon fill="#63b8ff" stroke="#63b8ff" points="470.578,-462.079 479.749,-467.385 475.888,-457.518 470.578,-462.079"/>
</g>
<!-- Node3&#45;&gt;Node5 -->
<g id="edge4" class="edge"><title>Node3&#45;&gt;Node5</title>
<path fill="none" stroke="#63b8ff" d="M334.442,-212.467C353.042,-197.94 383.067,-176.178 412,-162.5 419.086,-159.15 426.743,-156.153 434.423,-153.508"/>
<polygon fill="#63b8ff" stroke="#63b8ff" points="435.702,-156.772 444.124,-150.344 433.532,-150.117 435.702,-156.772"/>
</g>
<!-- Node6&#45;&gt;Node4 -->
<g id="edge19" class="edge"><title>Node6&#45;&gt;Node4</title>
<path fill="none" stroke="#63b8ff" d="M319.985,-742.46C330.301,-705.622 360.712,-609.175 412,-544.5 424.812,-528.343 442.726,-514.058 458.451,-503.284"/>
<polygon fill="#63b8ff" stroke="#63b8ff" points="460.516,-506.114 466.915,-497.67 456.647,-500.28 460.516,-506.114"/>
</g>
<!-- Node7 -->
<g id="node7" class="node"><title>Node7</title>
<g id="a_node7"><a xlink:href="classore_1_1data_1_1_x_m_l_utils.html#a37c092916f4bdf10d4fbf6bb9e474db7" target="_top" xlink:title=" ">
<polygon fill="white" stroke="#666666" points="730,-660.5 631,-660.5 631,-630.5 730,-630.5 730,-660.5"/>
<text text-anchor="start" x="639" y="-648.5" font-family="Helvetica,sans-Serif" font-size="10.00">ore::data::XMLUtils</text>
<text text-anchor="middle" x="680.5" y="-637.5" font-family="Helvetica,sans-Serif" font-size="10.00">::checkNode</text>
</a>
</g>
</g>
<!-- Node6&#45;&gt;Node7 -->
<g id="edge6" class="edge"><title>Node6&#45;&gt;Node7</title>
<path fill="none" stroke="#63b8ff" d="M346.193,-772.679C397.894,-796.303 504.684,-834.525 576,-787.5 609.909,-765.14 587.975,-736.25 612,-703.5 622.196,-689.602 636.324,-676.802 649.022,-666.783"/>
<polygon fill="#63b8ff" stroke="#63b8ff" points="651.276,-669.465 657.103,-660.616 647.03,-663.9 651.276,-669.465"/>
</g>
<!-- Node8 -->
<g id="node8" class="node"><title>Node8</title>
<g id="a_node8"><a xlink:href="classore_1_1data_1_1_scripted_trade_script_data.html#a2a015d5d258de006bf74a04b75d45eed" target="_top" xlink:title=" ">
<polygon fill="white" stroke="#666666" points="554.5,-864.5 433.5,-864.5 433.5,-834.5 554.5,-834.5 554.5,-864.5"/>
<text text-anchor="start" x="441.5" y="-852.5" font-family="Helvetica,sans-Serif" font-size="10.00">ore::data::ScriptedTrade</text>
<text text-anchor="middle" x="494" y="-841.5" font-family="Helvetica,sans-Serif" font-size="10.00">ScriptData::formatCode</text>
</a>
</g>
</g>
<!-- Node6&#45;&gt;Node8 -->
<g id="edge7" class="edge"><title>Node6&#45;&gt;Node8</title>
<path fill="none" stroke="#63b8ff" d="M336.123,-772.746C354.985,-786.531 384.344,-806.719 412,-820.5 419.495,-824.235 427.592,-827.724 435.667,-830.897"/>
<polygon fill="#63b8ff" stroke="#63b8ff" points="434.509,-834.201 445.101,-834.472 436.99,-827.656 434.509,-834.201"/>
</g>
<!-- Node9 -->
<g id="node9" class="node"><title>Node9</title>
<g id="a_node9"><a xlink:href="classore_1_1data_1_1_scripted_trade_script_data_1_1_new_schedule_data.html#a7741ae0fc924943de5bfe02928262eb7" target="_top" xlink:title=" ">
<polygon fill="white" stroke="#666666" points="568,-778 420,-778 420,-737 568,-737 568,-778"/>
<text text-anchor="start" x="428" y="-766" font-family="Helvetica,sans-Serif" font-size="10.00">ore::data::ScriptedTrade</text>
<text text-anchor="start" x="428" y="-755" font-family="Helvetica,sans-Serif" font-size="10.00">ScriptData::NewScheduleData</text>
<text text-anchor="middle" x="494" y="-744" font-family="Helvetica,sans-Serif" font-size="10.00">::fromXML</text>
</a>
</g>
</g>
<!-- Node6&#45;&gt;Node9 -->
<g id="edge8" class="edge"><title>Node6&#45;&gt;Node9</title>
<path fill="none" stroke="#63b8ff" d="M375.924,-757.5C386.861,-757.5 398.451,-757.5 409.919,-757.5"/>
<polygon fill="#63b8ff" stroke="#63b8ff" points="409.946,-761 419.945,-757.5 409.945,-754 409.946,-761"/>
</g>
<!-- Node10 -->
<g id="node10" class="node"><title>Node10</title>
<g id="a_node10"><a xlink:href="classore_1_1data_1_1_x_m_l_utils.html#aaf4e8600c620cb901bd271e3ec76d702" target="_top" xlink:title=" ">
<polygon fill="white" stroke="#666666" points="731,-742.5 630,-742.5 630,-712.5 731,-712.5 731,-742.5"/>
<text text-anchor="start" x="638" y="-730.5" font-family="Helvetica,sans-Serif" font-size="10.00">ore::data::XMLUtils</text>
<text text-anchor="middle" x="680.5" y="-719.5" font-family="Helvetica,sans-Serif" font-size="10.00">::getChildrenValues</text>
</a>
</g>
</g>
<!-- Node6&#45;&gt;Node10 -->
<g id="edge20" class="edge"><title>Node6&#45;&gt;Node10</title>
<path fill="none" stroke="#63b8ff" d="M323.098,-772.856C336.273,-799.264 367.294,-852.468 412,-873.5 477.955,-904.528 511.249,-906.968 576,-873.5 625.489,-847.92 656.427,-786.552 670.522,-752.075"/>
<polygon fill="#63b8ff" stroke="#63b8ff" points="673.802,-753.299 674.206,-742.712 667.288,-750.736 673.802,-753.299"/>
</g>
<!-- Node6&#45;&gt;Node12 -->
<g id="edge22" class="edge"><title>Node6&#45;&gt;Node12</title>
<path fill="none" stroke="#63b8ff" d="M329.791,-742.287C347.465,-723.433 379.696,-691.151 412,-669.5 478.889,-624.67 528.22,-657.315 576,-592.5 644.699,-499.307 538.848,-424.24 612,-334.5 614.785,-331.084 618.092,-328.153 621.724,-325.64"/>
<polygon fill="#63b8ff" stroke="#63b8ff" points="623.758,-328.508 630.693,-320.499 620.277,-322.435 623.758,-328.508"/>
</g>
<!-- Node13 -->
<g id="node13" class="node"><title>Node13</title>
<g id="a_node13"><a xlink:href="classore_1_1data_1_1_scripted_trade_script_data_1_1_calibration_data.html#a7741ae0fc924943de5bfe02928262eb7" target="_top" xlink:title=" ">
<polygon fill="white" stroke="#666666" points="561,-719 427,-719 427,-678 561,-678 561,-719"/>
<text text-anchor="start" x="435" y="-707" font-family="Helvetica,sans-Serif" font-size="10.00">ore::data::ScriptedTrade</text>
<text text-anchor="start" x="435" y="-696" font-family="Helvetica,sans-Serif" font-size="10.00">ScriptData::CalibrationData</text>
<text text-anchor="middle" x="494" y="-685" font-family="Helvetica,sans-Serif" font-size="10.00">::fromXML</text>
</a>
</g>
</g>
<!-- Node6&#45;&gt;Node13 -->
<g id="edge14" class="edge"><title>Node6&#45;&gt;Node13</title>
<path fill="none" stroke="#63b8ff" d="M361.123,-742.459C379.514,-736.329 401.226,-729.091 421.667,-722.278"/>
<polygon fill="#63b8ff" stroke="#63b8ff" points="422.885,-725.561 431.265,-719.078 420.671,-718.92 422.885,-725.561"/>
</g>
<!-- Node6&#45;&gt;Node14 -->
<g id="edge18" class="edge"><title>Node6&#45;&gt;Node14</title>
<path fill="none" stroke="#63b8ff" d="M326.29,-742.399C342.924,-718.489 377.364,-670.991 412,-635.5 428.173,-618.928 448.212,-602.324 464.312,-589.792"/>
<polygon fill="#63b8ff" stroke="#63b8ff" points="466.534,-592.499 472.331,-583.631 462.269,-586.948 466.534,-592.499"/>
</g>
<!-- Node15 -->
<g id="node15" class="node"><title>Node15</title>
<g id="a_node15"><a xlink:href="classore_1_1data_1_1_x_m_l_utils.html#a98d14837c214932dbc1c2da0d9fa3d38" target="_top" xlink:title=" ">
<polygon fill="white" stroke="#666666" points="576,-998.5 412,-998.5 412,-968.5 576,-968.5 576,-998.5"/>
<text text-anchor="start" x="420" y="-986.5" font-family="Helvetica,sans-Serif" font-size="10.00">ore::data::XMLUtils</text>
<text text-anchor="middle" x="494" y="-975.5" font-family="Helvetica,sans-Serif" font-size="10.00">::getChildrenValuesWithAttributes</text>
</a>
</g>
</g>
<!-- Node6&#45;&gt;Node15 -->
<g id="edge21" class="edge"><title>Node6&#45;&gt;Node15</title>
<path fill="none" stroke="#63b8ff" d="M318.823,-772.744C326.585,-810.311 351.807,-908.013 412,-959.5 413.505,-960.787 415.076,-962.005 416.702,-963.158"/>
<polygon fill="#63b8ff" stroke="#63b8ff" points="414.89,-966.152 425.245,-968.394 418.548,-960.184 414.89,-966.152"/>
</g>
<!-- Node16 -->
<g id="node16" class="node"><title>Node16</title>
<g id="a_node16"><a xlink:href="classore_1_1data_1_1_scripted_trade_script_data.html#aa7c4898763471403af2cf9c836bbca8c" target="_top" xlink:title=" ">
<polygon fill="white" stroke="#666666" points="559.5,-950.5 428.5,-950.5 428.5,-920.5 559.5,-920.5 559.5,-950.5"/>
<text text-anchor="start" x="436.5" y="-938.5" font-family="Helvetica,sans-Serif" font-size="10.00">ore::data::ScriptedTrade</text>
<text text-anchor="middle" x="494" y="-927.5" font-family="Helvetica,sans-Serif" font-size="10.00">ScriptData::newSchedules</text>
</a>
</g>
</g>
<!-- Node6&#45;&gt;Node16 -->
<g id="edge23" class="edge"><title>Node6&#45;&gt;Node16</title>
<path fill="none" stroke="#63b8ff" d="M321.939,-772.953C334.224,-802.95 365.249,-869.376 412,-906.5 416.386,-909.983 421.226,-913.068 426.291,-915.797"/>
<polygon fill="#63b8ff" stroke="#63b8ff" points="425.082,-919.101 435.605,-920.333 428.147,-912.808 425.082,-919.101"/>
</g>
<!-- Node9&#45;&gt;Node7 -->
<g id="edge9" class="edge"><title>Node9&#45;&gt;Node7</title>
<path fill="none" stroke="#63b8ff" d="M559.122,-736.818C564.944,-734.264 570.655,-731.489 576,-728.5 592.235,-719.421 629.185,-688.758 654.247,-667.361"/>
<polygon fill="#63b8ff" stroke="#63b8ff" points="656.611,-669.945 661.925,-660.779 652.055,-664.63 656.611,-669.945"/>
</g>
<!-- Node9&#45;&gt;Node10 -->
<g id="edge10" class="edge"><title>Node9&#45;&gt;Node10</title>
<path fill="none" stroke="#63b8ff" d="M568.184,-745.6C585.347,-742.809 603.431,-739.869 619.917,-737.188"/>
<polygon fill="#63b8ff" stroke="#63b8ff" points="620.644,-740.616 629.952,-735.557 619.52,-733.707 620.644,-740.616"/>
</g>
<!-- Node9&#45;&gt;Node12 -->
<g id="edge12" class="edge"><title>Node9&#45;&gt;Node12</title>
<path fill="none" stroke="#63b8ff" d="M567.904,-736.771C570.891,-734.316 573.622,-731.57 576,-728.5 683.679,-589.485 504.168,-473.397 612,-334.5 614.822,-330.865 618.238,-327.779 622.018,-325.16"/>
<polygon fill="#63b8ff" stroke="#63b8ff" points="623.846,-328.147 630.784,-320.14 620.367,-322.073 623.846,-328.147"/>
</g>
<!-- Node10&#45;&gt;Node11 -->
<g id="edge11" class="edge"><title>Node10&#45;&gt;Node11</title>
<path fill="none" stroke="#63b8ff" d="M700.952,-712.378C714.908,-701.156 733.845,-685.151 749,-669.5 774.434,-643.233 800.301,-609.913 816.597,-587.935"/>
<polygon fill="#63b8ff" stroke="#63b8ff" points="819.455,-589.956 822.556,-579.826 813.814,-585.811 819.455,-589.956"/>
</g>
<!-- Node12&#45;&gt;Node11 -->
<g id="edge13" class="edge"><title>Node12&#45;&gt;Node11</title>
<path fill="none" stroke="#63b8ff" d="M730.287,-321.932C737.17,-325.144 743.696,-329.251 749,-334.5 806.946,-391.843 825.489,-492.22 831.15,-539.069"/>
<polygon fill="#63b8ff" stroke="#63b8ff" points="827.699,-539.7 832.277,-549.254 834.656,-538.93 827.699,-539.7"/>
</g>
<!-- Node13&#45;&gt;Node7 -->
<g id="edge15" class="edge"><title>Node13&#45;&gt;Node7</title>
<path fill="none" stroke="#63b8ff" d="M561.088,-679.515C580.723,-673.875 602.082,-667.739 621.185,-662.252"/>
<polygon fill="#63b8ff" stroke="#63b8ff" points="622.304,-665.572 630.948,-659.447 620.371,-658.844 622.304,-665.572"/>
</g>
<!-- Node13&#45;&gt;Node10 -->
<g id="edge16" class="edge"><title>Node13&#45;&gt;Node10</title>
<path fill="none" stroke="#63b8ff" d="M561.088,-708.888C580.282,-711.905 601.124,-715.181 619.896,-718.131"/>
<polygon fill="#63b8ff" stroke="#63b8ff" points="619.373,-721.592 629.795,-719.687 620.46,-714.677 619.373,-721.592"/>
</g>
<!-- Node13&#45;&gt;Node12 -->
<g id="edge17" class="edge"><title>Node13&#45;&gt;Node12</title>
<path fill="none" stroke="#63b8ff" d="M560.645,-677.929C566.518,-673.931 571.815,-669.169 576,-663.5 663.367,-545.162 520.762,-449.88 612,-334.5 614.854,-330.89 618.294,-327.823 622.089,-325.216"/>
<polygon fill="#63b8ff" stroke="#63b8ff" points="623.919,-328.202 630.879,-320.214 620.456,-322.118 623.919,-328.202"/>
</g>
<!-- Node17&#45;&gt;Node7 -->
<g id="edge25" class="edge"><title>Node17&#45;&gt;Node7</title>
<path fill="none" stroke="#63b8ff" d="M160.406,-492.242C173.297,-514.423 208.216,-568.609 254,-592.5 372.911,-654.55 535.212,-655.511 620.923,-650.636"/>
<polygon fill="#63b8ff" stroke="#63b8ff" points="621.222,-654.124 630.988,-650.016 620.792,-647.138 621.222,-654.124"/>
</g>
<!-- Node17&#45;&gt;Node12 -->
<g id="edge43" class="edge"><title>Node17&#45;&gt;Node12</title>
<path fill="none" stroke="#63b8ff" d="M159.668,-472.779C171.929,-448.13 207.35,-382.392 254,-343.5 313.559,-293.845 336.31,-286.347 412,-269.5 483.148,-253.664 504.403,-255.836 576,-269.5 598.25,-273.746 621.82,-282.698 640.838,-291.156"/>
<polygon fill="#63b8ff" stroke="#63b8ff" points="639.509,-294.398 650.059,-295.376 642.422,-288.032 639.509,-294.398"/>
</g>
<!-- Node17&#45;&gt;Node14 -->
<g id="edge42" class="edge"><title>Node17&#45;&gt;Node14</title>
<path fill="none" stroke="#63b8ff" d="M192.463,-492.032C251.112,-506.955 365.071,-535.95 434.569,-553.633"/>
<polygon fill="#63b8ff" stroke="#63b8ff" points="433.934,-557.083 444.489,-556.157 435.66,-550.299 433.934,-557.083"/>
</g>
<!-- Node18 -->
<g id="node18" class="node"><title>Node18</title>
<g id="a_node18"><a xlink:href="classore_1_1data_1_1_trade_actions.html#ac8bb3912a3ce86b15842e79d0b421204" target="_top" xlink:title="Clear the trade actions.">
<polygon fill="white" stroke="#666666" points="374,-583.5 256,-583.5 256,-553.5 374,-553.5 374,-583.5"/>
<text text-anchor="start" x="264" y="-571.5" font-family="Helvetica,sans-Serif" font-size="10.00">ore::data::TradeActions</text>
<text text-anchor="middle" x="315" y="-560.5" font-family="Helvetica,sans-Serif" font-size="10.00">::clear</text>
</a>
</g>
</g>
<!-- Node17&#45;&gt;Node18 -->
<g id="edge26" class="edge"><title>Node17&#45;&gt;Node18</title>
<path fill="none" stroke="#63b8ff" d="M170.92,-492.141C190.317,-503.777 224.193,-523.742 254,-539.5 259.979,-542.661 266.355,-545.89 272.636,-548.992"/>
<polygon fill="#63b8ff" stroke="#63b8ff" points="271.191,-552.181 281.713,-553.422 274.262,-545.89 271.191,-552.181"/>
</g>
<!-- Node19 -->
<g id="node19" class="node"><title>Node19</title>
<g id="a_node19"><a xlink:href="classore_1_1data_1_1_envelope.html#a7741ae0fc924943de5bfe02928262eb7" target="_top" xlink:title=" ">
<polygon fill="white" stroke="#666666" points="365,-382.5 265,-382.5 265,-352.5 365,-352.5 365,-382.5"/>
<text text-anchor="start" x="273" y="-370.5" font-family="Helvetica,sans-Serif" font-size="10.00">ore::data::Envelope</text>
<text text-anchor="middle" x="315" y="-359.5" font-family="Helvetica,sans-Serif" font-size="10.00">::fromXML</text>
</a>
</g>
</g>
<!-- Node17&#45;&gt;Node19 -->
<g id="edge27" class="edge"><title>Node17&#45;&gt;Node19</title>
<path fill="none" stroke="#63b8ff" d="M168.283,-472.893C193.81,-454.43 250.255,-413.605 284.921,-388.532"/>
<polygon fill="#63b8ff" stroke="#63b8ff" points="287.182,-391.216 293.233,-382.52 283.079,-385.545 287.182,-391.216"/>
</g>
<!-- Node24 -->
<g id="node24" class="node"><title>Node24</title>
<g id="a_node24"><a xlink:href="classore_1_1data_1_1_trade_actions.html#a7741ae0fc924943de5bfe02928262eb7" target="_top" xlink:title=" ">
<polygon fill="white" stroke="#666666" points="374,-497.5 256,-497.5 256,-467.5 374,-467.5 374,-497.5"/>
<text text-anchor="start" x="264" y="-485.5" font-family="Helvetica,sans-Serif" font-size="10.00">ore::data::TradeActions</text>
<text text-anchor="middle" x="315" y="-474.5" font-family="Helvetica,sans-Serif" font-size="10.00">::fromXML</text>
</a>
</g>
</g>
<!-- Node17&#45;&gt;Node24 -->
<g id="edge39" class="edge"><title>Node17&#45;&gt;Node24</title>
<path fill="none" stroke="#63b8ff" d="M218.298,-482.5C227.296,-482.5 236.583,-482.5 245.671,-482.5"/>
<polygon fill="#63b8ff" stroke="#63b8ff" points="245.821,-486 255.821,-482.5 245.821,-479 245.821,-486"/>
</g>
<!-- Node19&#45;&gt;Node4 -->
<g id="edge32" class="edge"><title>Node19&#45;&gt;Node4</title>
<path fill="none" stroke="#63b8ff" d="M336.297,-382.618C348.197,-391.754 363.334,-403.851 376,-415.5 393.124,-431.248 392.516,-440.787 412,-453.5 419.013,-458.076 426.839,-462.038 434.786,-465.437"/>
<polygon fill="#63b8ff" stroke="#63b8ff" points="433.543,-468.709 444.128,-469.17 436.141,-462.209 433.543,-468.709"/>
</g>
<!-- Node19&#45;&gt;Node5 -->
<g id="edge35" class="edge"><title>Node19&#45;&gt;Node5</title>
<path fill="none" stroke="#63b8ff" d="M324.419,-352.338C336.469,-330.396 359.049,-288.376 376,-251.5 393.821,-212.731 380.411,-191.184 412,-162.5 418.548,-156.554 426.506,-152.078 434.846,-148.709"/>
<polygon fill="#63b8ff" stroke="#63b8ff" points="436.1,-151.978 444.37,-145.356 433.775,-145.375 436.1,-151.978"/>
</g>
<!-- Node19&#45;&gt;Node7 -->
<g id="edge28" class="edge"><title>Node19&#45;&gt;Node7</title>
<path fill="none" stroke="#63b8ff" d="M342.638,-382.696C361.54,-393.008 387.76,-406.375 412,-415.5 482.521,-442.047 516.512,-412.249 576,-458.5 630.454,-500.837 660.399,-580.288 672.716,-620.631"/>
<polygon fill="#63b8ff" stroke="#63b8ff" points="669.425,-621.846 675.601,-630.455 676.142,-619.874 669.425,-621.846"/>
</g>
<!-- Node19&#45;&gt;Node11 -->
<g id="edge36" class="edge"><title>Node19&#45;&gt;Node11</title>
<path fill="none" stroke="#63b8ff" d="M365.144,-375.642C434.947,-387.349 556.541,-408.318 576,-415.5 664.994,-448.345 758.831,-510.754 804.756,-543.401"/>
<polygon fill="#63b8ff" stroke="#63b8ff" points="802.858,-546.346 813.025,-549.326 806.935,-540.656 802.858,-546.346"/>
</g>
<!-- Node19&#45;&gt;Node12 -->
<g id="edge33" class="edge"><title>Node19&#45;&gt;Node12</title>
<path fill="none" stroke="#63b8ff" d="M327.986,-352.239C344.458,-332.642 376.158,-299.601 412,-286.5 482.706,-260.656 570.624,-276.956 625.921,-292.521"/>
<polygon fill="#63b8ff" stroke="#63b8ff" points="625.276,-295.978 635.855,-295.409 627.23,-289.257 625.276,-295.978"/>
</g>
<!-- Node19&#45;&gt;Node14 -->
<g id="edge31" class="edge"><title>Node19&#45;&gt;Node14</title>
<path fill="none" stroke="#63b8ff" d="M325.982,-382.513C348.452,-416.225 401.837,-495.828 412,-506.5 426.632,-521.865 445.31,-536.429 461.042,-547.575"/>
<polygon fill="#63b8ff" stroke="#63b8ff" points="459.224,-550.573 469.435,-553.399 463.215,-544.823 459.224,-550.573"/>
</g>
<!-- Node20 -->
<g id="node20" class="node"><title>Node20</title>
<g id="a_node20"><a xlink:href="classore_1_1data_1_1_netting_set_details.html#a7741ae0fc924943de5bfe02928262eb7" target="_top" xlink:title=" ">
<polygon fill="white" stroke="#666666" points="562.5,-325.5 425.5,-325.5 425.5,-295.5 562.5,-295.5 562.5,-325.5"/>
<text text-anchor="start" x="433.5" y="-313.5" font-family="Helvetica,sans-Serif" font-size="10.00">ore::data::NettingSetDetails</text>
<text text-anchor="middle" x="494" y="-302.5" font-family="Helvetica,sans-Serif" font-size="10.00">::fromXML</text>
</a>
</g>
</g>
<!-- Node19&#45;&gt;Node20 -->
<g id="edge29" class="edge"><title>Node19&#45;&gt;Node20</title>
<path fill="none" stroke="#63b8ff" d="M358.402,-352.485C375.058,-346.702 394.375,-340.138 412,-334.5 418.288,-332.489 424.87,-330.442 431.447,-328.436"/>
<polygon fill="#63b8ff" stroke="#63b8ff" points="432.486,-331.778 441.045,-325.533 430.46,-325.078 432.486,-331.778"/>
</g>
<!-- Node19&#45;&gt;Node21 -->
<g id="edge34" class="edge"><title>Node19&#45;&gt;Node21</title>
<path fill="none" stroke="#63b8ff" d="M327.327,-352.369C344.521,-329.806 378.739,-286.47 412,-253.5 428.556,-237.089 448.756,-220.375 464.843,-207.745"/>
<polygon fill="#63b8ff" stroke="#63b8ff" points="467.087,-210.434 472.838,-201.536 462.793,-204.905 467.087,-210.434"/>
</g>
<!-- Node22 -->
<g id="node22" class="node"><title>Node22</title>
<g id="a_node22"><a xlink:href="classore_1_1data_1_1_envelope.html#a9bf8e40febad0782c5855488041ecfd7" target="_top" xlink:title=" ">
<polygon fill="white" stroke="#666666" points="544,-373.5 444,-373.5 444,-343.5 544,-343.5 544,-373.5"/>
<text text-anchor="start" x="452" y="-361.5" font-family="Helvetica,sans-Serif" font-size="10.00">ore::data::Envelope</text>
<text text-anchor="middle" x="494" y="-350.5" font-family="Helvetica,sans-Serif" font-size="10.00">::nettingSetId</text>
</a>
</g>
</g>
<!-- Node19&#45;&gt;Node22 -->
<g id="edge37" class="edge"><title>Node19&#45;&gt;Node22</title>
<path fill="none" stroke="#63b8ff" d="M365.304,-364.993C386.594,-363.91 411.675,-362.635 433.948,-361.503"/>
<polygon fill="#63b8ff" stroke="#63b8ff" points="434.151,-364.997 443.96,-360.994 433.795,-358.006 434.151,-364.997"/>
</g>
<!-- Node20&#45;&gt;Node12 -->
<g id="edge30" class="edge"><title>Node20&#45;&gt;Node12</title>
<path fill="none" stroke="#63b8ff" d="M562.653,-310.5C581.744,-310.5 602.35,-310.5 620.864,-310.5"/>
<polygon fill="#63b8ff" stroke="#63b8ff" points="620.912,-314 630.912,-310.5 620.912,-307 620.912,-314"/>
</g>
<!-- Node23 -->
<g id="node23" class="node"><title>Node23</title>
<g id="a_node23"><a xlink:href="classore_1_1data_1_1_netting_set_details.html#a9bf8e40febad0782c5855488041ecfd7" target="_top" xlink:title=" ">
<polygon fill="white" stroke="#666666" points="749,-373.5 612,-373.5 612,-343.5 749,-343.5 749,-373.5"/>
<text text-anchor="start" x="620" y="-361.5" font-family="Helvetica,sans-Serif" font-size="10.00">ore::data::NettingSetDetails</text>
<text text-anchor="middle" x="680.5" y="-350.5" font-family="Helvetica,sans-Serif" font-size="10.00">::nettingSetId</text>
</a>
</g>
</g>
<!-- Node22&#45;&gt;Node23 -->
<g id="edge38" class="edge"><title>Node22&#45;&gt;Node23</title>
<path fill="none" stroke="#63b8ff" d="M544.443,-358.5C562.076,-358.5 582.392,-358.5 601.822,-358.5"/>
<polygon fill="#63b8ff" stroke="#63b8ff" points="601.883,-362 611.883,-358.5 601.883,-355 601.883,-362"/>
</g>
<!-- Node24&#45;&gt;Node4 -->
<g id="edge41" class="edge"><title>Node24&#45;&gt;Node4</title>
<path fill="none" stroke="#63b8ff" d="M374.447,-482.5C393.652,-482.5 414.999,-482.5 434.228,-482.5"/>
<polygon fill="#63b8ff" stroke="#63b8ff" points="434.366,-486 444.366,-482.5 434.366,-479 434.366,-486"/>
</g>
<!-- Node24&#45;&gt;Node7 -->
<g id="edge40" class="edge"><title>Node24&#45;&gt;Node7</title>
<path fill="none" stroke="#63b8ff" d="M374.087,-497.193C386.584,-500.306 399.724,-503.544 412,-506.5 484.74,-524.018 510.355,-508.601 576,-544.5 611.51,-563.919 643.339,-598.93 662.042,-622.197"/>
<polygon fill="#63b8ff" stroke="#63b8ff" points="659.39,-624.487 668.321,-630.187 664.894,-620.162 659.39,-624.487"/>
</g>
</g>
</svg>
