<?xml version="1.0" encoding="UTF-8" standalone="no"?>
<!DOCTYPE svg PUBLIC "-//W3C//DTD SVG 1.1//EN"
 "http://www.w3.org/Graphics/SVG/1.1/DTD/svg11.dtd">
<!-- Generated by graphviz version 2.38.0 (20140413.2041)
 -->
<!-- Title: hasChanged Pages: 1 -->
<svg width="699pt" height="59pt"
 viewBox="0.00 0.00 699.00 59.00" xmlns="http://www.w3.org/2000/svg" xmlns:xlink="http://www.w3.org/1999/xlink">
<g id="graph0" class="graph" transform="scale(1 1) rotate(0) translate(4 55)">
<title>hasChanged</title>
<!-- Node1 -->
<g id="node1" class="node"><title>Node1</title>
<g id="a_node1"><a xlink:title=" ">
<polygon fill="#999999" stroke="#666666" points="691,-45.5 620,-45.5 620,-26.5 691,-26.5 691,-45.5"/>
<text text-anchor="middle" x="655.5" y="-33.5" font-family="Helvetica,sans-Serif" font-size="10.00">hasChanged</text>
</a>
</g>
</g>
<!-- Node2 -->
<g id="node2" class="node"><title>Node2</title>
<g id="a_node2"><a xlink:href="classore_1_1data_1_1_black_scholes_model_builder_base.html#aa5eb411def964300cb9bcf1b78f3a3d7" target="_top" xlink:title=" ">
<polygon fill="white" stroke="#666666" points="584,-51 399,-51 399,-21 584,-21 584,-51"/>
<text text-anchor="start" x="407" y="-39" font-family="Helvetica,sans-Serif" font-size="10.00">ore::data::BlackScholesModel</text>
<text text-anchor="middle" x="491.5" y="-28" font-family="Helvetica,sans-Serif" font-size="10.00">BuilderBase::calibrationPointsChanged</text>
</a>
</g>
</g>
<!-- Node1&#45;&gt;Node2 -->
<g id="edge1" class="edge"><title>Node1&#45;&gt;Node2</title>
<path fill="none" stroke="#63b8ff" d="M609.56,-36C601.522,-36 592.89,-36 584.088,-36"/>
<polygon fill="#63b8ff" stroke="#63b8ff" points="609.747,-39.5001 619.747,-36 609.747,-32.5001 609.747,-39.5001"/>
</g>
<!-- Node3 -->
<g id="node3" class="node"><title>Node3</title>
<g id="a_node3"><a xlink:href="classore_1_1data_1_1_black_scholes_model_builder_base.html#a1127cccc9668a02247dc139d27121708" target="_top" xlink:title=" ">
<polygon fill="white" stroke="#666666" points="161,-51 0,-51 0,-21 161,-21 161,-51"/>
<text text-anchor="start" x="8" y="-39" font-family="Helvetica,sans-Serif" font-size="10.00">ore::data::BlackScholesModel</text>
<text text-anchor="middle" x="80.5" y="-28" font-family="Helvetica,sans-Serif" font-size="10.00">BuilderBase::performCalculations</text>
</a>
</g>
</g>
<!-- Node2&#45;&gt;Node3 -->
<g id="edge2" class="edge"><title>Node2&#45;&gt;Node3</title>
<path fill="none" stroke="#63b8ff" d="M388.713,-38.6094C380.016,-38.7672 371.354,-38.9017 363,-39 289.227,-39.8678 270.772,-39.9579 197,-39 185.367,-38.8489 173.076,-38.6123 161.023,-38.3367"/>
<polygon fill="#63b8ff" stroke="#63b8ff" points="388.991,-42.1048 398.922,-38.414 388.857,-35.1061 388.991,-42.1048"/>
</g>
<!-- Node4 -->
<g id="node4" class="node"><title>Node4</title>
<g id="a_node4"><a xlink:href="classore_1_1data_1_1_black_scholes_model_builder_base.html#a83cbd1c07f17f2f51faea02f40eeaac9" target="_top" xlink:title=" ">
<polygon fill="white" stroke="#666666" points="363,-30 197,-30 197,-0 363,-0 363,-30"/>
<text text-anchor="start" x="205" y="-18" font-family="Helvetica,sans-Serif" font-size="10.00">ore::data::BlackScholesModel</text>
<text text-anchor="middle" x="280" y="-7" font-family="Helvetica,sans-Serif" font-size="10.00">BuilderBase::requiresRecalibration</text>
</a>
</g>
</g>
<!-- Node2&#45;&gt;Node4 -->
<g id="edge3" class="edge"><title>Node2&#45;&gt;Node4</title>
<path fill="none" stroke="#63b8ff" d="M388.841,-25.8099C380.237,-24.9474 371.605,-24.0821 363.178,-23.2374"/>
<polygon fill="#63b8ff" stroke="#63b8ff" points="388.616,-29.3047 398.915,-26.8196 389.314,-22.3396 388.616,-29.3047"/>
</g>
<!-- Node4&#45;&gt;Node3 -->
<g id="edge4" class="edge"><title>Node4&#45;&gt;Node3</title>
<path fill="none" stroke="#63b8ff" d="M186.88,-24.7951C178.255,-25.7122 169.562,-26.6365 161.066,-27.5398"/>
<polygon fill="#63b8ff" stroke="#63b8ff" points="187.384,-28.2613 196.958,-23.7235 186.644,-21.3005 187.384,-28.2613"/>
</g>
</g>
</svg>
