<?xml version="1.0" encoding="UTF-8" standalone="no"?>
<!DOCTYPE svg PUBLIC "-//W3C//DTD SVG 1.1//EN"
 "http://www.w3.org/Graphics/SVG/1.1/DTD/svg11.dtd">
<!-- Generated by graphviz version 2.38.0 (20140413.2041)
 -->
<!-- Title: parseCalendar Pages: 1 -->
<svg width="194pt" height="45pt"
 viewBox="0.00 0.00 194.00 45.00" xmlns="http://www.w3.org/2000/svg" xmlns:xlink="http://www.w3.org/1999/xlink">
<g id="graph0" class="graph" transform="scale(1 1) rotate(0) translate(4 41)">
<title>parseCalendar</title>
<!-- Node1 -->
<g id="node1" class="node"><title>Node1</title>
<g id="a_node1"><a xlink:title=" ">
<polygon fill="#999999" stroke="#666666" points="186,-19 107,-19 107,-0 186,-0 186,-19"/>
<text text-anchor="middle" x="146.5" y="-7" font-family="Helvetica,sans-Serif" font-size="10.00">parseCalendar</text>
</a>
</g>
</g>
<!-- Node1&#45;&gt;Node1 -->
<g id="edge2" class="edge"><title>Node1&#45;&gt;Node1</title>
<path fill="none" stroke="#63b8ff" d="M166.869,-28.5536C165.509,-33.3804 158.719,-37 146.5,-37 126.949,-37 121.298,-27.7337 129.546,-19.0828"/>
<polygon fill="#63b8ff" stroke="#63b8ff" points="170.139,-27.3026 163.454,-19.0828 163.554,-29.6772 170.139,-27.3026"/>
</g>
<!-- Node2 -->
<g id="node2" class="node"><title>Node2</title>
<g id="a_node2"><a xlink:href="classore_1_1data_1_1_calendar_parser.html#a5938a49df0527305264c53957f50c02c" target="_top" xlink:title=" ">
<polygon fill="white" stroke="#666666" points="71,-19 0,-19 0,-0 71,-0 71,-19"/>
<text text-anchor="middle" x="35.5" y="-7" font-family="Helvetica,sans-Serif" font-size="10.00">addCalendar</text>
</a>
</g>
</g>
<!-- Node1&#45;&gt;Node2 -->
<g id="edge1" class="edge"><title>Node1&#45;&gt;Node2</title>
<path fill="none" stroke="#63b8ff" d="M96.7585,-9.5C88.114,-9.5 79.274,-9.5 71.1217,-9.5"/>
<polygon fill="#63b8ff" stroke="#63b8ff" points="96.7638,-13.0001 106.764,-9.5 96.7637,-6.0001 96.7638,-13.0001"/>
</g>
</g>
</svg>
