<?xml version="1.0" encoding="UTF-8" standalone="no"?>
<!DOCTYPE svg PUBLIC "-//W3C//DTD SVG 1.1//EN"
 "http://www.w3.org/Graphics/SVG/1.1/DTD/svg11.dtd">
<!-- Generated by graphviz version 2.38.0 (20140413.2041)
 -->
<!-- Title: EquityIndexReferenceDatum Pages: 1 -->
<svg width="442pt" height="676pt"
 viewBox="0.00 0.00 442.00 676.00" xmlns="http://www.w3.org/2000/svg" xmlns:xlink="http://www.w3.org/1999/xlink">
<g id="graph0" class="graph" transform="scale(1 1) rotate(0) translate(4 672)">
<title>EquityIndexReferenceDatum</title>
<!-- Node1 -->
<g id="node1" class="node"><title>Node1</title>
<g id="a_node1"><a xlink:title="EquityIndex Reference data, contains the names and weights of an equity index.">
<polygon fill="#999999" stroke="#666666" points="337.5,-63 178.5,-63 178.5,-0 337.5,-0 337.5,-63"/>
<text text-anchor="middle" x="258" y="-51" font-family="Helvetica,sans-Serif" font-size="10.00">{EquityIndexReferenceDatum</text>
<text text-anchor="start" x="186.5" y="-40" font-family="Helvetica,sans-Serif" font-size="10.00">||+ EquityIndexReferenceDatum()</text>
<text text-anchor="start" x="186.5" y="-29" font-family="Helvetica,sans-Serif" font-size="10.00">+ EquityIndexReferenceDatum()</text>
<text text-anchor="start" x="186.5" y="-18" font-family="Helvetica,sans-Serif" font-size="10.00">+ EquityIndexReferenceDatum()</text>
<text text-anchor="middle" x="258" y="-7" font-family="Helvetica,sans-Serif" font-size="10.00">}</text>
</a>
</g>
</g>
<!-- Node2 -->
<g id="node2" class="node"><title>Node2</title>
<g id="a_node2"><a xlink:href="classore_1_1data_1_1_index_reference_datum.html" target="_top" xlink:title="Base class for indices &#45; lets see if we can keep this, they might diverge too much....">
<polygon fill="white" stroke="#666666" points="246,-228 120,-228 120,-110 246,-110 246,-228"/>
<text text-anchor="middle" x="183" y="-216" font-family="Helvetica,sans-Serif" font-size="10.00">{IndexReferenceDatum</text>
<text text-anchor="start" x="128" y="-205" font-family="Helvetica,sans-Serif" font-size="10.00">||+ fromXML()</text>
<text text-anchor="start" x="128" y="-194" font-family="Helvetica,sans-Serif" font-size="10.00">+ toXML()</text>
<text text-anchor="start" x="128" y="-183" font-family="Helvetica,sans-Serif" font-size="10.00">+ underlyings()</text>
<text text-anchor="start" x="128" y="-172" font-family="Helvetica,sans-Serif" font-size="10.00">+ setUnderlyings()</text>
<text text-anchor="start" x="128" y="-161" font-family="Helvetica,sans-Serif" font-size="10.00">+ addUnderlying()</text>
<text text-anchor="start" x="128" y="-150" font-family="Helvetica,sans-Serif" font-size="10.00"># IndexReferenceDatum()</text>
<text text-anchor="start" x="128" y="-139" font-family="Helvetica,sans-Serif" font-size="10.00"># IndexReferenceDatum()</text>
<text text-anchor="start" x="128" y="-128" font-family="Helvetica,sans-Serif" font-size="10.00"># IndexReferenceDatum()</text>
<text text-anchor="middle" x="183" y="-117" font-family="Helvetica,sans-Serif" font-size="10.00">}</text>
</a>
</g>
</g>
<!-- Node2&#45;&gt;Node1 -->
<g id="edge1" class="edge"><title>Node2&#45;&gt;Node1</title>
<path fill="none" stroke="#63b8ff" d="M220.273,-100.659C227.563,-87.4892 234.864,-74.2984 241.075,-63.0778"/>
<polygon fill="none" stroke="#63b8ff" points="217.023,-99.3053 215.242,-109.749 223.147,-102.695 217.023,-99.3053"/>
</g>
<!-- Node3 -->
<g id="node3" class="node"><title>Node3</title>
<g id="a_node3"><a xlink:href="classore_1_1data_1_1_reference_datum.html" target="_top" xlink:title="Base class for reference data.">
<polygon fill="white" stroke="#666666" points="352,-426 244,-426 244,-275 352,-275 352,-426"/>
<text text-anchor="middle" x="298" y="-414" font-family="Helvetica,sans-Serif" font-size="10.00">{ReferenceDatum</text>
<text text-anchor="start" x="252" y="-403" font-family="Helvetica,sans-Serif" font-size="10.00">||+ ReferenceDatum()</text>
<text text-anchor="start" x="252" y="-392" font-family="Helvetica,sans-Serif" font-size="10.00">+ ReferenceDatum()</text>
<text text-anchor="start" x="252" y="-381" font-family="Helvetica,sans-Serif" font-size="10.00">+ ReferenceDatum()</text>
<text text-anchor="start" x="252" y="-370" font-family="Helvetica,sans-Serif" font-size="10.00">+ setType()</text>
<text text-anchor="start" x="252" y="-359" font-family="Helvetica,sans-Serif" font-size="10.00">+ setId()</text>
<text text-anchor="start" x="252" y="-348" font-family="Helvetica,sans-Serif" font-size="10.00">+ setValidFrom()</text>
<text text-anchor="start" x="252" y="-337" font-family="Helvetica,sans-Serif" font-size="10.00">+ type()</text>
<text text-anchor="start" x="252" y="-326" font-family="Helvetica,sans-Serif" font-size="10.00">+ id()</text>
<text text-anchor="start" x="252" y="-315" font-family="Helvetica,sans-Serif" font-size="10.00">+ validFrom()</text>
<text text-anchor="start" x="252" y="-304" font-family="Helvetica,sans-Serif" font-size="10.00">+ fromXML()</text>
<text text-anchor="start" x="252" y="-293" font-family="Helvetica,sans-Serif" font-size="10.00">+ toXML()</text>
<text text-anchor="middle" x="298" y="-282" font-family="Helvetica,sans-Serif" font-size="10.00">}</text>
</a>
</g>
</g>
<!-- Node3&#45;&gt;Node2 -->
<g id="edge2" class="edge"><title>Node3&#45;&gt;Node2</title>
<path fill="none" stroke="#63b8ff" d="M244.808,-266.474C236.521,-253.539 228.114,-240.418 220.281,-228.191"/>
<polygon fill="none" stroke="#63b8ff" points="241.887,-268.403 250.229,-274.935 247.781,-264.627 241.887,-268.403"/>
</g>
<!-- Node4 -->
<g id="node4" class="node"><title>Node4</title>
<g id="a_node4"><a xlink:href="classore_1_1data_1_1_x_m_l_serializable.html" target="_top" xlink:title="Base class for all serializable classes.">
<polygon fill="white" stroke="#666666" points="375.5,-591 264.5,-591 264.5,-484 375.5,-484 375.5,-591"/>
<text text-anchor="middle" x="320" y="-579" font-family="Helvetica,sans-Serif" font-size="10.00">{XMLSerializable</text>
<text text-anchor="start" x="272.5" y="-568" font-family="Helvetica,sans-Serif" font-size="10.00">||+ ~XMLSerializable()</text>
<text text-anchor="start" x="272.5" y="-557" font-family="Helvetica,sans-Serif" font-size="10.00">+ fromXML()</text>
<text text-anchor="start" x="272.5" y="-546" font-family="Helvetica,sans-Serif" font-size="10.00">+ toXML()</text>
<text text-anchor="start" x="272.5" y="-535" font-family="Helvetica,sans-Serif" font-size="10.00">+ fromFile()</text>
<text text-anchor="start" x="272.5" y="-524" font-family="Helvetica,sans-Serif" font-size="10.00">+ toFile()</text>
<text text-anchor="start" x="272.5" y="-513" font-family="Helvetica,sans-Serif" font-size="10.00">+ fromXMLString()</text>
<text text-anchor="start" x="272.5" y="-502" font-family="Helvetica,sans-Serif" font-size="10.00">+ toXMLString()</text>
<text text-anchor="middle" x="320" y="-491" font-family="Helvetica,sans-Serif" font-size="10.00">}</text>
</a>
</g>
</g>
<!-- Node4&#45;&gt;Node3 -->
<g id="edge3" class="edge"><title>Node4&#45;&gt;Node3</title>
<path fill="none" stroke="#63b8ff" d="M312.526,-473.648C310.714,-458.41 308.759,-441.973 306.889,-426.247"/>
<polygon fill="none" stroke="#63b8ff" points="309.098,-474.465 313.755,-483.981 316.049,-473.638 309.098,-474.465"/>
</g>
<!-- Node5 -->
<g id="node5" class="node"><title>Node5</title>
<g id="a_node5"><a xlink:title=" ">
<polygon fill="white" stroke="#666666" points="246,-552.5 202,-552.5 202,-522.5 246,-522.5 246,-552.5"/>
<text text-anchor="middle" x="224" y="-540.5" font-family="Helvetica,sans-Serif" font-size="10.00">{string</text>
<text text-anchor="middle" x="224" y="-529.5" font-family="Helvetica,sans-Serif" font-size="10.00">||}</text>
</a>
</g>
</g>
<!-- Node5&#45;&gt;Node3 -->
<g id="edge4" class="edge"><title>Node5&#45;&gt;Node3</title>
<path fill="none" stroke="#404040" d="M230.525,-522.286C236.965,-508.116 246.981,-485.689 255,-466 258.742,-456.812 262.55,-447.165 266.276,-437.531"/>
<polygon fill="none" stroke="#404040" points="266.303,-437.46 264.718,-430.425 270.603,-426.257 272.187,-433.292 266.303,-437.46"/>
<text text-anchor="middle" x="278" y="-458" font-family="Helvetica,sans-Serif" font-size="10.00"> &#45;id_</text>
<text text-anchor="middle" x="278" y="-447" font-family="Helvetica,sans-Serif" font-size="10.00">&#45;type_</text>
</g>
<!-- Node8 -->
<g id="node8" class="node"><title>Node8</title>
<g id="a_node8"><a xlink:title=" ">
<polygon fill="white" stroke="#666666" points="194,-365.5 60,-365.5 60,-335.5 194,-335.5 194,-365.5"/>
<text text-anchor="middle" x="127" y="-353.5" font-family="Helvetica,sans-Serif" font-size="10.00">{map&lt; std::string, double &gt;</text>
<text text-anchor="middle" x="127" y="-342.5" font-family="Helvetica,sans-Serif" font-size="10.00">||}</text>
</a>
</g>
</g>
<!-- Node5&#45;&gt;Node8 -->
<g id="edge8" class="edge"><title>Node5&#45;&gt;Node8</title>
<path fill="none" stroke="#404040" d="M222.405,-522.375C219.871,-503.652 213.836,-469.959 201,-444 188.078,-417.868 166.778,-392.315 150.34,-374.712"/>
<polygon fill="none" stroke="#404040" points="150.097,-374.459 143.057,-372.896 141.792,-365.797 148.832,-367.36 150.097,-374.459"/>
<text text-anchor="middle" x="225.5" y="-452.5" font-family="Helvetica,sans-Serif" font-size="10.00"> +keys</text>
</g>
<!-- Node6 -->
<g id="node6" class="node"><title>Node6</title>
<g id="a_node6"><a xlink:title=" ">
<polygon fill="white" stroke="#666666" points="279,-668 169,-668 169,-638 279,-638 279,-668"/>
<text text-anchor="middle" x="224" y="-656" font-family="Helvetica,sans-Serif" font-size="10.00">{basic_string&lt; Char &gt;</text>
<text text-anchor="middle" x="224" y="-645" font-family="Helvetica,sans-Serif" font-size="10.00">||}</text>
</a>
</g>
</g>
<!-- Node6&#45;&gt;Node5 -->
<g id="edge5" class="edge"><title>Node6&#45;&gt;Node5</title>
<path fill="none" stroke="#63b8ff" d="M224,-627.37C224,-604.571 224,-571.46 224,-552.758"/>
<polygon fill="none" stroke="#63b8ff" points="220.5,-627.625 224,-637.625 227.5,-627.625 220.5,-627.625"/>
</g>
<!-- Node7 -->
<g id="node7" class="node"><title>Node7</title>
<g id="a_node7"><a xlink:title=" ">
<polygon fill="white" stroke="#666666" points="434,-552.5 394,-552.5 394,-522.5 434,-522.5 434,-552.5"/>
<text text-anchor="middle" x="414" y="-540.5" font-family="Helvetica,sans-Serif" font-size="10.00">{Date</text>
<text text-anchor="middle" x="414" y="-529.5" font-family="Helvetica,sans-Serif" font-size="10.00">||}</text>
</a>
</g>
</g>
<!-- Node7&#45;&gt;Node3 -->
<g id="edge6" class="edge"><title>Node7&#45;&gt;Node3</title>
<path fill="none" stroke="#404040" d="M406.067,-522.112C400.141,-511.489 391.759,-496.728 384,-484 374.516,-468.441 364.161,-452.032 354.027,-436.264"/>
<polygon fill="none" stroke="#404040" points="353.916,-436.092 347.302,-433.219 347.41,-426.009 354.025,-428.882 353.916,-436.092"/>
<text text-anchor="middle" x="399.5" y="-452.5" font-family="Helvetica,sans-Serif" font-size="10.00"> &#45;validFrom_</text>
</g>
<!-- Node8&#45;&gt;Node2 -->
<g id="edge7" class="edge"><title>Node8&#45;&gt;Node2</title>
<path fill="none" stroke="#404040" d="M131.394,-335.415C137.811,-314.847 150.182,-275.192 161.204,-239.865"/>
<polygon fill="none" stroke="#404040" points="161.305,-239.54 159.273,-232.621 164.879,-228.085 166.91,-235.004 161.305,-239.54"/>
<text text-anchor="middle" x="174.5" y="-249" font-family="Helvetica,sans-Serif" font-size="10.00"> &#45;data_</text>
</g>
<!-- Node9 -->
<g id="node9" class="node"><title>Node9</title>
<g id="a_node9"><a xlink:title=" ">
<polygon fill="white" stroke="#666666" points="48,-552.5 0,-552.5 0,-522.5 48,-522.5 48,-552.5"/>
<text text-anchor="middle" x="24" y="-540.5" font-family="Helvetica,sans-Serif" font-size="10.00">{double</text>
<text text-anchor="middle" x="24" y="-529.5" font-family="Helvetica,sans-Serif" font-size="10.00">||}</text>
</a>
</g>
</g>
<!-- Node9&#45;&gt;Node8 -->
<g id="edge9" class="edge"><title>Node9&#45;&gt;Node8</title>
<path fill="none" stroke="#404040" d="M25.6582,-522.312C28.2948,-503.519 34.5837,-469.748 48,-444 61.9612,-417.206 84.99,-391.471 102.592,-373.98"/>
<polygon fill="none" stroke="#404040" points="102.603,-373.969 104.132,-366.922 111.225,-365.622 109.696,-372.669 102.603,-373.969"/>
<text text-anchor="middle" x="72.5" y="-452.5" font-family="Helvetica,sans-Serif" font-size="10.00"> +elements</text>
</g>
<!-- Node10 -->
<g id="node10" class="node"><title>Node10</title>
<g id="a_node10"><a xlink:title=" ">
<polygon fill="white" stroke="#666666" points="140,-552.5 66,-552.5 66,-522.5 140,-522.5 140,-552.5"/>
<text text-anchor="middle" x="103" y="-540.5" font-family="Helvetica,sans-Serif" font-size="10.00">{map&lt; K, T &gt;</text>
<text text-anchor="middle" x="103" y="-529.5" font-family="Helvetica,sans-Serif" font-size="10.00">||}</text>
</a>
</g>
</g>
<!-- Node10&#45;&gt;Node8 -->
<g id="edge10" class="edge"><title>Node10&#45;&gt;Node8</title>
<path fill="none" stroke="orange" d="M102.148,-512.439C101.709,-498.815 101.219,-481.457 101,-466 100.861,-456.223 99.6646,-453.686 101,-444 104.919,-415.577 115.308,-383.591 121.705,-365.661"/>
<polygon fill="orange" stroke="orange" points="98.6511,-512.581 102.484,-522.458 105.647,-512.346 98.6511,-512.581"/>
<text text-anchor="middle" x="151" y="-452.5" font-family="Helvetica,sans-Serif" font-size="10.00"> &lt; std::string, double &gt;</text>
</g>
<!-- Node11 -->
<g id="node11" class="node"><title>Node11</title>
<g id="a_node11"><a xlink:title=" ">
<polygon fill="white" stroke="#666666" points="134.5,-668 105.5,-668 105.5,-638 134.5,-638 134.5,-668"/>
<text text-anchor="middle" x="120" y="-656" font-family="Helvetica,sans-Serif" font-size="10.00">{K</text>
<text text-anchor="middle" x="120" y="-645" font-family="Helvetica,sans-Serif" font-size="10.00">||}</text>
</a>
</g>
</g>
<!-- Node11&#45;&gt;Node10 -->
<g id="edge11" class="edge"><title>Node11&#45;&gt;Node10</title>
<path fill="none" stroke="#404040" d="M117.847,-637.625C115.113,-619.375 110.345,-587.54 106.95,-564.873"/>
<polygon fill="none" stroke="#404040" points="106.913,-564.626 102.069,-559.284 105.136,-552.758 109.98,-558.099 106.913,-564.626"/>
<text text-anchor="middle" x="130.5" y="-612" font-family="Helvetica,sans-Serif" font-size="10.00"> +keys</text>
</g>
<!-- Node12 -->
<g id="node12" class="node"><title>Node12</title>
<g id="a_node12"><a xlink:title=" ">
<polygon fill="white" stroke="#666666" points="62.5,-668 33.5,-668 33.5,-638 62.5,-638 62.5,-668"/>
<text text-anchor="middle" x="48" y="-656" font-family="Helvetica,sans-Serif" font-size="10.00">{T</text>
<text text-anchor="middle" x="48" y="-645" font-family="Helvetica,sans-Serif" font-size="10.00">||}</text>
</a>
</g>
</g>
<!-- Node12&#45;&gt;Node10 -->
<g id="edge12" class="edge"><title>Node12&#45;&gt;Node10</title>
<path fill="none" stroke="#404040" d="M51.8063,-637.774C54.2862,-629.259 57.8313,-618.316 62,-609 69.1386,-593.047 78.9254,-576.087 87.1468,-562.801"/>
<polygon fill="none" stroke="#404040" points="87.1792,-562.75 87.0048,-555.541 93.5922,-552.607 93.7666,-559.816 87.1792,-562.75"/>
<text text-anchor="middle" x="86.5" y="-612" font-family="Helvetica,sans-Serif" font-size="10.00"> +elements</text>
</g>
<!-- Node13 -->
<g id="node13" class="node"><title>Node13</title>
<g id="a_node13"><a xlink:title=" ">
<polygon fill="white" stroke="#666666" points="302,-184 264,-184 264,-154 302,-154 302,-184"/>
<text text-anchor="middle" x="283" y="-172" font-family="Helvetica,sans-Serif" font-size="10.00">{char</text>
<text text-anchor="middle" x="283" y="-161" font-family="Helvetica,sans-Serif" font-size="10.00">||}</text>
</a>
</g>
</g>
<!-- Node13&#45;&gt;Node1 -->
<g id="edge13" class="edge"><title>Node13&#45;&gt;Node1</title>
<path fill="none" stroke="#404040" d="M280.372,-153.755C276.947,-135.194 270.809,-101.924 265.827,-74.9229"/>
<polygon fill="none" stroke="#404040" points="265.811,-74.8344 260.789,-69.6597 263.633,-63.0336 268.656,-68.2082 265.811,-74.8344"/>
<text text-anchor="middle" x="286.5" y="-84" font-family="Helvetica,sans-Serif" font-size="10.00"> +TYPE</text>
</g>
</g>
</svg>
