<?xml version="1.0" encoding="UTF-8" standalone="no"?>
<!DOCTYPE svg PUBLIC "-//W3C//DTD SVG 1.1//EN"
 "http://www.w3.org/Graphics/SVG/1.1/DTD/svg11.dtd">
<!-- Generated by graphviz version 2.38.0 (20140413.2041)
 -->
<!-- Title: zeroBond Pages: 1 -->
<svg width="955pt" height="435pt"
 viewBox="0.00 0.00 955.00 434.50" xmlns="http://www.w3.org/2000/svg" xmlns:xlink="http://www.w3.org/1999/xlink">
<g id="graph0" class="graph" transform="scale(1 1) rotate(0) translate(4 430.5)">
<title>zeroBond</title>
<!-- Node1 -->
<g id="node1" class="node"><title>Node1</title>
<g id="a_node1"><a xlink:title=" ">
<polygon fill="#999999" stroke="#666666" points="947,-273 889,-273 889,-254 947,-254 947,-273"/>
<text text-anchor="middle" x="918" y="-261" font-family="Helvetica,sans-Serif" font-size="10.00">zeroBond</text>
</a>
</g>
</g>
<!-- Node2 -->
<g id="node2" class="node"><title>Node2</title>
<g id="a_node2"><a xlink:href="classore_1_1data_1_1_bond.html#af7b69d5b18d278257927e32b10a23ee6" target="_top" xlink:title="Trade interface.">
<polygon fill="white" stroke="#666666" points="528,-325 418,-325 418,-306 528,-306 528,-325"/>
<text text-anchor="middle" x="473" y="-313" font-family="Helvetica,sans-Serif" font-size="10.00">ore::data::Bond::build</text>
</a>
</g>
</g>
<!-- Node1&#45;&gt;Node2 -->
<g id="edge1" class="edge"><title>Node1&#45;&gt;Node2</title>
<path fill="none" stroke="#63b8ff" d="M878.981,-267.963C800.225,-277.207 619.03,-298.476 528.109,-309.149"/>
<polygon fill="#63b8ff" stroke="#63b8ff" points="879.429,-271.434 888.952,-266.792 878.612,-264.482 879.429,-271.434"/>
</g>
<!-- Node8 -->
<g id="node8" class="node"><title>Node8</title>
<g id="a_node8"><a xlink:href="classore_1_1data_1_1_bond_data.html#a18abf8b19283101238a77c9e6865b673" target="_top" xlink:title=" ">
<polygon fill="white" stroke="#666666" points="853,-225 801,-225 801,-206 853,-206 853,-225"/>
<text text-anchor="middle" x="827" y="-213" font-family="Helvetica,sans-Serif" font-size="10.00">initialise</text>
</a>
</g>
</g>
<!-- Node1&#45;&gt;Node8 -->
<g id="edge7" class="edge"><title>Node1&#45;&gt;Node8</title>
<path fill="none" stroke="#63b8ff" d="M890.034,-248.956C875.647,-241.197 858.35,-231.869 845.68,-225.035"/>
<polygon fill="#63b8ff" stroke="#63b8ff" points="888.527,-252.12 898.99,-253.786 891.849,-245.959 888.527,-252.12"/>
</g>
<!-- Node3 -->
<g id="node3" class="node"><title>Node3</title>
<g id="a_node3"><a xlink:href="structore_1_1data_1_1_vanilla_bond_builder.html#ae1e21501ab505df04314d15d13f876e1" target="_top" xlink:title=" ">
<polygon fill="white" stroke="#666666" points="325,-426.5 182,-426.5 182,-396.5 325,-396.5 325,-426.5"/>
<text text-anchor="start" x="190" y="-414.5" font-family="Helvetica,sans-Serif" font-size="10.00">ore::data::VanillaBondBuilder</text>
<text text-anchor="middle" x="253.5" y="-403.5" font-family="Helvetica,sans-Serif" font-size="10.00">::build</text>
</a>
</g>
</g>
<!-- Node2&#45;&gt;Node3 -->
<g id="edge2" class="edge"><title>Node2&#45;&gt;Node3</title>
<path fill="none" stroke="#63b8ff" d="M449.028,-330.6C423.875,-346.581 381.923,-371.639 343,-387.5 334.892,-390.804 326.182,-393.796 317.505,-396.458"/>
<polygon fill="#63b8ff" stroke="#63b8ff" points="450.978,-333.507 457.499,-325.156 447.194,-327.618 450.978,-333.507"/>
</g>
<!-- Node4 -->
<g id="node4" class="node"><title>Node4</title>
<g id="a_node4"><a xlink:href="classore_1_1data_1_1_convertible_bond.html#ab1db499ff5e65c59fd2009d62276fdaf" target="_top" xlink:title=" ">
<polygon fill="white" stroke="#666666" points="319,-378.5 188,-378.5 188,-348.5 319,-348.5 319,-378.5"/>
<text text-anchor="start" x="196" y="-366.5" font-family="Helvetica,sans-Serif" font-size="10.00">ore::data::ConvertibleBond</text>
<text text-anchor="middle" x="253.5" y="-355.5" font-family="Helvetica,sans-Serif" font-size="10.00">::build</text>
</a>
</g>
</g>
<!-- Node2&#45;&gt;Node4 -->
<g id="edge3" class="edge"><title>Node2&#45;&gt;Node4</title>
<path fill="none" stroke="#63b8ff" d="M418.881,-327.223C388.785,-333.865 350.911,-342.223 319.105,-349.242"/>
<polygon fill="#63b8ff" stroke="#63b8ff" points="419.758,-330.614 428.769,-325.041 418.25,-323.778 419.758,-330.614"/>
</g>
<!-- Node5 -->
<g id="node5" class="node"><title>Node5</title>
<g id="a_node5"><a xlink:href="classore_1_1data_1_1_risk_participation_agreement.html#a225490c21ddfa2450a67f04007c16f4c" target="_top" xlink:title=" ">
<polygon fill="white" stroke="#666666" points="343,-330.5 164,-330.5 164,-300.5 343,-300.5 343,-330.5"/>
<text text-anchor="start" x="172" y="-318.5" font-family="Helvetica,sans-Serif" font-size="10.00">ore::data::RiskParticipation</text>
<text text-anchor="middle" x="253.5" y="-307.5" font-family="Helvetica,sans-Serif" font-size="10.00">Agreement::buildWithTlockUnderlying</text>
</a>
</g>
</g>
<!-- Node2&#45;&gt;Node5 -->
<g id="edge4" class="edge"><title>Node2&#45;&gt;Node5</title>
<path fill="none" stroke="#63b8ff" d="M407.944,-315.5C387.734,-315.5 365.031,-315.5 343.411,-315.5"/>
<polygon fill="#63b8ff" stroke="#63b8ff" points="407.957,-319 417.956,-315.5 407.956,-312 407.957,-319"/>
</g>
<!-- Node6 -->
<g id="node6" class="node"><title>Node6</title>
<g id="a_node6"><a xlink:href="namespaceore_1_1data.html#a7e30fb6a46cf70b26b33a0528e47cd6c" target="_top" xlink:title=" ">
<polygon fill="white" stroke="#666666" points="314.5,-282 192.5,-282 192.5,-263 314.5,-263 314.5,-282"/>
<text text-anchor="middle" x="253.5" y="-270" font-family="Helvetica,sans-Serif" font-size="10.00">ore::data::makeCMBLeg</text>
</a>
</g>
</g>
<!-- Node2&#45;&gt;Node6 -->
<g id="edge5" class="edge"><title>Node2&#45;&gt;Node6</title>
<path fill="none" stroke="#63b8ff" d="M413.719,-303.978C378.98,-297.11 335.411,-288.496 302.635,-282.016"/>
<polygon fill="#63b8ff" stroke="#63b8ff" points="413.241,-307.451 423.73,-305.957 414.598,-300.584 413.241,-307.451"/>
</g>
<!-- Node7 -->
<g id="node7" class="node"><title>Node7</title>
<g id="a_node7"><a xlink:href="classore_1_1data_1_1_c_m_b_leg_builder.html#aea285351d9f3458189a9e2d965349d23" target="_top" xlink:title=" ">
<polygon fill="white" stroke="#666666" points="128,-287.5 0,-287.5 0,-257.5 128,-257.5 128,-287.5"/>
<text text-anchor="start" x="8" y="-275.5" font-family="Helvetica,sans-Serif" font-size="10.00">ore::data::CMBLegBuilder</text>
<text text-anchor="middle" x="64" y="-264.5" font-family="Helvetica,sans-Serif" font-size="10.00">::buildLeg</text>
</a>
</g>
</g>
<!-- Node6&#45;&gt;Node7 -->
<g id="edge6" class="edge"><title>Node6&#45;&gt;Node7</title>
<path fill="none" stroke="#63b8ff" d="M182.152,-272.5C164.479,-272.5 145.62,-272.5 128.314,-272.5"/>
<polygon fill="#63b8ff" stroke="#63b8ff" points="182.4,-276 192.4,-272.5 182.4,-269 182.4,-276"/>
</g>
<!-- Node9 -->
<g id="node9" class="node"><title>Node9</title>
<g id="a_node9"><a xlink:href="classore_1_1data_1_1_bond_data.html#a9591043f1a92787188f5af3df6c13e42" target="_top" xlink:title="Constructor for coupon bonds with multiple phases (represented as legs)">
<polygon fill="white" stroke="#666666" points="713.5,-207 654.5,-207 654.5,-188 713.5,-188 713.5,-207"/>
<text text-anchor="middle" x="684" y="-195" font-family="Helvetica,sans-Serif" font-size="10.00">BondData</text>
</a>
</g>
</g>
<!-- Node8&#45;&gt;Node9 -->
<g id="edge8" class="edge"><title>Node8&#45;&gt;Node9</title>
<path fill="none" stroke="#63b8ff" d="M790.783,-211.004C767.058,-207.976 736.152,-204.03 713.879,-201.187"/>
<polygon fill="#63b8ff" stroke="#63b8ff" points="790.429,-214.487 800.792,-212.282 791.316,-207.544 790.429,-214.487"/>
</g>
<!-- Node10 -->
<g id="node10" class="node"><title>Node10</title>
<g id="a_node10"><a xlink:href="classore_1_1data_1_1_bond_data.html#a7741ae0fc924943de5bfe02928262eb7" target="_top" xlink:title="XMLSerializable interface.">
<polygon fill="white" stroke="#666666" points="711,-86 657,-86 657,-67 711,-67 711,-86"/>
<text text-anchor="middle" x="684" y="-74" font-family="Helvetica,sans-Serif" font-size="10.00">fromXML</text>
</a>
</g>
</g>
<!-- Node8&#45;&gt;Node10 -->
<g id="edge9" class="edge"><title>Node8&#45;&gt;Node10</title>
<path fill="none" stroke="#63b8ff" d="M809.126,-198.865C779.37,-169.531 718.476,-109.501 694.759,-86.1209"/>
<polygon fill="#63b8ff" stroke="#63b8ff" points="806.73,-201.418 816.308,-205.946 811.644,-196.433 806.73,-201.418"/>
</g>
<!-- Node15 -->
<g id="node15" class="node"><title>Node15</title>
<g id="a_node15"><a xlink:href="classore_1_1data_1_1_bond_data.html#a3fe7607641308a7e92896f33818e2327" target="_top" xlink:title="populate data from reference datum and check data for completeness">
<polygon fill="white" stroke="#666666" points="765,-244 603,-244 603,-225 765,-225 765,-244"/>
<text text-anchor="middle" x="684" y="-232" font-family="Helvetica,sans-Serif" font-size="10.00">populateFromBondReferenceData</text>
</a>
</g>
</g>
<!-- Node8&#45;&gt;Node15 -->
<g id="edge14" class="edge"><title>Node8&#45;&gt;Node15</title>
<path fill="none" stroke="#63b8ff" d="M790.638,-220.265C779.947,-221.706 767.808,-223.341 755.663,-224.978"/>
<polygon fill="#63b8ff" stroke="#63b8ff" points="791.349,-223.701 800.792,-218.897 790.414,-216.764 791.349,-223.701"/>
</g>
<!-- Node11 -->
<g id="node11" class="node"><title>Node11</title>
<g id="a_node11"><a xlink:href="classore_1_1data_1_1_convertible_bond_data.html#a510baf06568510646decfeaf1753e526" target="_top" xlink:title=" ">
<polygon fill="white" stroke="#666666" points="538.5,-67.5 407.5,-67.5 407.5,-37.5 538.5,-37.5 538.5,-67.5"/>
<text text-anchor="start" x="415.5" y="-55.5" font-family="Helvetica,sans-Serif" font-size="10.00">ore::data::ConvertibleBond</text>
<text text-anchor="middle" x="473" y="-44.5" font-family="Helvetica,sans-Serif" font-size="10.00">Data::fromXML</text>
</a>
</g>
</g>
<!-- Node10&#45;&gt;Node11 -->
<g id="edge10" class="edge"><title>Node10&#45;&gt;Node11</title>
<path fill="none" stroke="#63b8ff" d="M646.629,-72.3234C616.906,-68.9102 574.148,-64.0002 538.623,-59.9208"/>
<polygon fill="#63b8ff" stroke="#63b8ff" points="646.619,-75.8451 656.953,-73.5089 647.417,-68.8908 646.619,-75.8451"/>
</g>
<!-- Node13 -->
<g id="node13" class="node"><title>Node13</title>
<g id="a_node13"><a xlink:href="classore_1_1data_1_1_bond.html#a7741ae0fc924943de5bfe02928262eb7" target="_top" xlink:title="XMLSerializable interface.">
<polygon fill="white" stroke="#666666" points="536.5,-19 409.5,-19 409.5,-0 536.5,-0 536.5,-19"/>
<text text-anchor="middle" x="473" y="-7" font-family="Helvetica,sans-Serif" font-size="10.00">ore::data::Bond::fromXML</text>
</a>
</g>
</g>
<!-- Node10&#45;&gt;Node13 -->
<g id="edge12" class="edge"><title>Node10&#45;&gt;Node13</title>
<path fill="none" stroke="#63b8ff" d="M654.067,-62.7132C630.936,-52.1379 597.454,-37.8184 567,-28.5 555.024,-24.8355 541.962,-21.6723 529.515,-19.0356"/>
<polygon fill="#63b8ff" stroke="#63b8ff" points="652.762,-65.9661 663.308,-66.9908 655.703,-59.6137 652.762,-65.9661"/>
</g>
<!-- Node14 -->
<g id="node14" class="node"><title>Node14</title>
<g id="a_node14"><a xlink:href="classore_1_1data_1_1_treasury_lock_data.html#a7741ae0fc924943de5bfe02928262eb7" target="_top" xlink:title="XMLSerializable interface.">
<polygon fill="white" stroke="#666666" points="543,-115.5 403,-115.5 403,-85.5 543,-85.5 543,-115.5"/>
<text text-anchor="start" x="411" y="-103.5" font-family="Helvetica,sans-Serif" font-size="10.00">ore::data::TreasuryLockData</text>
<text text-anchor="middle" x="473" y="-92.5" font-family="Helvetica,sans-Serif" font-size="10.00">::fromXML</text>
</a>
</g>
</g>
<!-- Node10&#45;&gt;Node14 -->
<g id="edge13" class="edge"><title>Node10&#45;&gt;Node14</title>
<path fill="none" stroke="#63b8ff" d="M646.66,-80.673C618.175,-83.944 577.707,-88.5911 543.108,-92.5642"/>
<polygon fill="#63b8ff" stroke="#63b8ff" points="647.417,-84.1092 656.953,-79.4911 646.619,-77.1549 647.417,-84.1092"/>
</g>
<!-- Node12 -->
<g id="node12" class="node"><title>Node12</title>
<g id="a_node12"><a xlink:href="classore_1_1data_1_1_ascot.html#a7741ae0fc924943de5bfe02928262eb7" target="_top" xlink:title=" ">
<polygon fill="white" stroke="#666666" points="318.5,-62 188.5,-62 188.5,-43 318.5,-43 318.5,-62"/>
<text text-anchor="middle" x="253.5" y="-50" font-family="Helvetica,sans-Serif" font-size="10.00">ore::data::Ascot::fromXML</text>
</a>
</g>
</g>
<!-- Node11&#45;&gt;Node12 -->
<g id="edge11" class="edge"><title>Node11&#45;&gt;Node12</title>
<path fill="none" stroke="#63b8ff" d="M397.292,-52.5C371.67,-52.5 343.244,-52.5 318.544,-52.5"/>
<polygon fill="#63b8ff" stroke="#63b8ff" points="397.332,-56.0001 407.332,-52.5 397.332,-49.0001 397.332,-56.0001"/>
</g>
<!-- Node15&#45;&gt;Node2 -->
<g id="edge15" class="edge"><title>Node15&#45;&gt;Node2</title>
<path fill="none" stroke="#63b8ff" d="M657.38,-248.984C634.309,-261.563 599.18,-279.584 567,-291.5 551.519,-297.232 534.104,-302.12 518.565,-305.96"/>
<polygon fill="#63b8ff" stroke="#63b8ff" points="659.124,-252.019 666.189,-244.125 655.743,-245.89 659.124,-252.019"/>
</g>
<!-- Node15&#45;&gt;Node6 -->
<g id="edge18" class="edge"><title>Node15&#45;&gt;Node6</title>
<path fill="none" stroke="#63b8ff" d="M634.75,-246.276C614.021,-250.867 589.447,-255.693 567,-258.5 479.701,-269.416 377.749,-272.123 314.648,-272.639"/>
<polygon fill="#63b8ff" stroke="#63b8ff" points="635.609,-249.67 644.59,-244.05 634.065,-242.842 635.609,-249.67"/>
</g>
<!-- Node16 -->
<g id="node16" class="node"><title>Node16</title>
<g id="a_node16"><a xlink:href="namespaceore_1_1data.html#acee5964eaee5c1e0fc440dc023c64bc1" target="_top" xlink:title=" ">
<polygon fill="white" stroke="#666666" points="541,-249.5 405,-249.5 405,-219.5 541,-219.5 541,-249.5"/>
<text text-anchor="start" x="413" y="-237.5" font-family="Helvetica,sans-Serif" font-size="10.00">ore::data::getCmbLegCredit</text>
<text text-anchor="middle" x="473" y="-226.5" font-family="Helvetica,sans-Serif" font-size="10.00">RiskCurrency</text>
</a>
</g>
</g>
<!-- Node15&#45;&gt;Node16 -->
<g id="edge16" class="edge"><title>Node15&#45;&gt;Node16</title>
<path fill="none" stroke="#63b8ff" d="M592.674,-234.5C575.358,-234.5 557.514,-234.5 541.09,-234.5"/>
<polygon fill="#63b8ff" stroke="#63b8ff" points="592.793,-238 602.793,-234.5 592.793,-231 592.793,-238"/>
</g>
<!-- Node18 -->
<g id="node18" class="node"><title>Node18</title>
<g id="a_node18"><a xlink:href="classore_1_1data_1_1_convertible_bond_data.html#ae4961a109c8bfab891589da5a47a4ecd" target="_top" xlink:title=" ">
<polygon fill="white" stroke="#666666" points="567,-201.5 379,-201.5 379,-171.5 567,-171.5 567,-201.5"/>
<text text-anchor="start" x="387" y="-189.5" font-family="Helvetica,sans-Serif" font-size="10.00">ore::data::ConvertibleBond</text>
<text text-anchor="middle" x="473" y="-178.5" font-family="Helvetica,sans-Serif" font-size="10.00">Data::populateFromBondReferenceData</text>
</a>
</g>
</g>
<!-- Node15&#45;&gt;Node18 -->
<g id="edge19" class="edge"><title>Node15&#45;&gt;Node18</title>
<path fill="none" stroke="#63b8ff" d="M630.441,-222.731C621.29,-220.666 611.866,-218.528 603,-216.5 581.93,-211.68 558.941,-206.355 538.283,-201.545"/>
<polygon fill="#63b8ff" stroke="#63b8ff" points="629.699,-226.151 640.224,-224.935 631.238,-219.322 629.699,-226.151"/>
</g>
<!-- Node19 -->
<g id="node19" class="node"><title>Node19</title>
<g id="a_node19"><a xlink:href="classore_1_1data_1_1_bond_data.html#a9f6b854937a27aa5ae3c9b15894d476a" target="_top" xlink:title="look up reference datum in ref data manager and populate, check data for completeness">
<polygon fill="white" stroke="#666666" points="554,-153 392,-153 392,-134 554,-134 554,-153"/>
<text text-anchor="middle" x="473" y="-141" font-family="Helvetica,sans-Serif" font-size="10.00">populateFromBondReferenceData</text>
</a>
</g>
</g>
<!-- Node15&#45;&gt;Node19 -->
<g id="edge20" class="edge"><title>Node15&#45;&gt;Node19</title>
<path fill="none" stroke="#63b8ff" d="M609.75,-220.594C607.415,-219.343 605.156,-217.981 603,-216.5 579.227,-200.164 590.933,-178.6 567,-162.5 561.257,-158.637 554.895,-155.53 548.272,-153.035"/>
<polygon fill="#63b8ff" stroke="#63b8ff" points="608.537,-223.889 619.084,-224.893 611.465,-217.531 608.537,-223.889"/>
</g>
<!-- Node17 -->
<g id="node17" class="node"><title>Node17</title>
<g id="a_node17"><a xlink:href="classore_1_1data_1_1_t_r_s.html#af7b69d5b18d278257927e32b10a23ee6" target="_top" xlink:title=" ">
<polygon fill="white" stroke="#666666" points="306.5,-244 200.5,-244 200.5,-225 306.5,-225 306.5,-244"/>
<text text-anchor="middle" x="253.5" y="-232" font-family="Helvetica,sans-Serif" font-size="10.00">ore::data::TRS::build</text>
</a>
</g>
</g>
<!-- Node16&#45;&gt;Node17 -->
<g id="edge17" class="edge"><title>Node16&#45;&gt;Node17</title>
<path fill="none" stroke="#63b8ff" d="M394.807,-234.5C365.646,-234.5 333.171,-234.5 306.814,-234.5"/>
<polygon fill="#63b8ff" stroke="#63b8ff" points="394.968,-238 404.968,-234.5 394.968,-231 394.968,-238"/>
</g>
</g>
</svg>
