<?xml version="1.0" encoding="UTF-8" standalone="no"?>
<!DOCTYPE svg PUBLIC "-//W3C//DTD SVG 1.1//EN"
 "http://www.w3.org/Graphics/SVG/1.1/DTD/svg11.dtd">
<!-- Generated by graphviz version 2.38.0 (20140413.2041)
 -->
<!-- Title: instrument Pages: 1 -->
<svg width="449pt" height="311pt"
 viewBox="0.00 0.00 449.00 310.50" xmlns="http://www.w3.org/2000/svg" xmlns:xlink="http://www.w3.org/1999/xlink">
<g id="graph0" class="graph" transform="scale(1 1) rotate(0) translate(4 306.5)">
<title>instrument</title>
<!-- Node1 -->
<g id="node1" class="node"><title>Node1</title>
<g id="a_node1"><a xlink:title=" ">
<polygon fill="#999999" stroke="#666666" points="441,-163.5 379,-163.5 379,-144.5 441,-144.5 441,-163.5"/>
<text text-anchor="middle" x="410" y="-151.5" font-family="Helvetica,sans-Serif" font-size="10.00">instrument</text>
</a>
</g>
</g>
<!-- Node2 -->
<g id="node2" class="node"><title>Node2</title>
<g id="a_node2"><a xlink:href="test_2todaysmarket_8cpp.html#aeb43366ac05a65218ef11c74fa7a5650" target="_top" xlink:title=" ">
<polygon fill="white" stroke="#666666" points="325,-302.5 182,-302.5 182,-283.5 325,-283.5 325,-302.5"/>
<text text-anchor="middle" x="253.5" y="-290.5" font-family="Helvetica,sans-Serif" font-size="10.00">BOOST_AUTO_TEST_CASE</text>
</a>
</g>
</g>
<!-- Node1&#45;&gt;Node2 -->
<g id="edge1" class="edge"><title>Node1&#45;&gt;Node2</title>
<path fill="none" stroke="#63b8ff" d="M403.866,-173.406C395.686,-200.363 377.033,-248.676 343,-274 337.579,-278.034 331.482,-281.249 325.089,-283.806"/>
<polygon fill="#63b8ff" stroke="#63b8ff" points="407.287,-174.172 406.664,-163.596 400.556,-172.252 407.287,-174.172"/>
</g>
<!-- Node3 -->
<g id="node3" class="node"><title>Node3</title>
<g id="a_node3"><a xlink:href="classore_1_1data_1_1_commodity_digital_option.html#a32b57451f66777dd8794b747d0f77224" target="_top" xlink:title="Build underlying instrument and link pricing engine.">
<polygon fill="white" stroke="#666666" points="322,-265 185,-265 185,-235 322,-235 322,-265"/>
<text text-anchor="start" x="193" y="-253" font-family="Helvetica,sans-Serif" font-size="10.00">ore::data::CommodityDigital</text>
<text text-anchor="middle" x="253.5" y="-242" font-family="Helvetica,sans-Serif" font-size="10.00">Option::build</text>
</a>
</g>
</g>
<!-- Node1&#45;&gt;Node3 -->
<g id="edge2" class="edge"><title>Node1&#45;&gt;Node3</title>
<path fill="none" stroke="#63b8ff" d="M397.211,-171.784C385.396,-188.232 365.731,-212.162 343,-226 336.609,-229.891 329.581,-233.162 322.367,-235.909"/>
<polygon fill="#63b8ff" stroke="#63b8ff" points="400.115,-173.739 402.938,-163.527 394.363,-169.75 400.115,-173.739"/>
</g>
<!-- Node4 -->
<g id="node4" class="node"><title>Node4</title>
<g id="a_node4"><a xlink:href="structore_1_1data_1_1_vanilla_bond_builder.html#a52b6c7548b369069c4f81d608eaaeb50" target="_top" xlink:title=" ">
<polygon fill="white" stroke="#666666" points="325,-217 182,-217 182,-187 325,-187 325,-217"/>
<text text-anchor="start" x="190" y="-205" font-family="Helvetica,sans-Serif" font-size="10.00">ore::data::VanillaBondBuilder</text>
<text text-anchor="middle" x="253.5" y="-194" font-family="Helvetica,sans-Serif" font-size="10.00">::build</text>
</a>
</g>
</g>
<!-- Node1&#45;&gt;Node4 -->
<g id="edge3" class="edge"><title>Node1&#45;&gt;Node4</title>
<path fill="none" stroke="#63b8ff" d="M374.421,-167.193C364.348,-170.867 353.286,-174.741 343,-178 333.287,-181.077 322.9,-184.115 312.782,-186.942"/>
<polygon fill="#63b8ff" stroke="#63b8ff" points="375.931,-170.366 384.097,-163.616 373.504,-163.801 375.931,-170.366"/>
</g>
<!-- Node5 -->
<g id="node5" class="node"><title>Node5</title>
<g id="a_node5"><a xlink:href="classore_1_1data_1_1_convertible_bond.html#ac998e259f78b98d10df4f18f6d3c9a9a" target="_top" xlink:title=" ">
<polygon fill="white" stroke="#666666" points="319,-169 188,-169 188,-139 319,-139 319,-169"/>
<text text-anchor="start" x="196" y="-157" font-family="Helvetica,sans-Serif" font-size="10.00">ore::data::ConvertibleBond</text>
<text text-anchor="middle" x="253.5" y="-146" font-family="Helvetica,sans-Serif" font-size="10.00">::build</text>
</a>
</g>
</g>
<!-- Node1&#45;&gt;Node5 -->
<g id="edge4" class="edge"><title>Node1&#45;&gt;Node5</title>
<path fill="none" stroke="#63b8ff" d="M368.781,-154C353.61,-154 335.943,-154 319.101,-154"/>
<polygon fill="#63b8ff" stroke="#63b8ff" points="368.844,-157.5 378.844,-154 368.844,-150.5 368.844,-157.5"/>
</g>
<!-- Node6 -->
<g id="node6" class="node"><title>Node6</title>
<g id="a_node6"><a xlink:href="classore_1_1data_1_1_commodity_average_price_option.html#a56820373aef8756143bb07c7c7c7cf6e" target="_top" xlink:title="Build a standard option.">
<polygon fill="white" stroke="#666666" points="334,-121 173,-121 173,-91 334,-91 334,-121"/>
<text text-anchor="start" x="181" y="-109" font-family="Helvetica,sans-Serif" font-size="10.00">ore::data::CommodityAverage</text>
<text text-anchor="middle" x="253.5" y="-98" font-family="Helvetica,sans-Serif" font-size="10.00">PriceOption::buildStandardOption</text>
</a>
</g>
</g>
<!-- Node1&#45;&gt;Node6 -->
<g id="edge5" class="edge"><title>Node1&#45;&gt;Node6</title>
<path fill="none" stroke="#63b8ff" d="M374.421,-140.807C364.348,-137.133 353.286,-133.259 343,-130 333.287,-126.923 322.9,-123.885 312.782,-121.058"/>
<polygon fill="#63b8ff" stroke="#63b8ff" points="373.504,-144.199 384.097,-144.384 375.931,-137.634 373.504,-144.199"/>
</g>
<!-- Node7 -->
<g id="node7" class="node"><title>Node7</title>
<g id="a_node7"><a xlink:href="classore_1_1data_1_1_risk_participation_agreement.html#a63e1d71f3769cbb8a6b4d967e986da4c" target="_top" xlink:title=" ">
<polygon fill="white" stroke="#666666" points="343,-73 164,-73 164,-43 343,-43 343,-73"/>
<text text-anchor="start" x="172" y="-61" font-family="Helvetica,sans-Serif" font-size="10.00">ore::data::RiskParticipation</text>
<text text-anchor="middle" x="253.5" y="-50" font-family="Helvetica,sans-Serif" font-size="10.00">Agreement::buildWithTlockUnderlying</text>
</a>
</g>
</g>
<!-- Node1&#45;&gt;Node7 -->
<g id="edge6" class="edge"><title>Node1&#45;&gt;Node7</title>
<path fill="none" stroke="#63b8ff" d="M397.211,-136.216C385.396,-119.768 365.731,-95.8379 343,-82 337.425,-78.6061 331.365,-75.6836 325.12,-73.1688"/>
<polygon fill="#63b8ff" stroke="#63b8ff" points="394.363,-138.25 402.938,-144.473 400.115,-134.261 394.363,-138.25"/>
</g>
<!-- Node8 -->
<g id="node8" class="node"><title>Node8</title>
<g id="a_node8"><a xlink:href="namespaceore_1_1data.html#a4fd03abe994005fe9e8c7e2c6119cc5b" target="_top" xlink:title=" ">
<polygon fill="white" stroke="#666666" points="314.5,-24.5 192.5,-24.5 192.5,-5.5 314.5,-5.5 314.5,-24.5"/>
<text text-anchor="middle" x="253.5" y="-12.5" font-family="Helvetica,sans-Serif" font-size="10.00">ore::data::makeCMBLeg</text>
</a>
</g>
</g>
<!-- Node1&#45;&gt;Node8 -->
<g id="edge7" class="edge"><title>Node1&#45;&gt;Node8</title>
<path fill="none" stroke="#63b8ff" d="M403.866,-134.594C395.686,-107.637 377.033,-59.3243 343,-34 334.679,-27.8084 324.766,-23.5465 314.636,-20.6308"/>
<polygon fill="#63b8ff" stroke="#63b8ff" points="400.556,-135.748 406.664,-144.404 407.287,-133.828 400.556,-135.748"/>
</g>
<!-- Node9 -->
<g id="node9" class="node"><title>Node9</title>
<g id="a_node9"><a xlink:href="classore_1_1data_1_1_c_m_b_leg_builder.html#a2db8847a3f7eba0c3ab0378e263d10e7" target="_top" xlink:title=" ">
<polygon fill="white" stroke="#666666" points="128,-30 0,-30 0,-0 128,-0 128,-30"/>
<text text-anchor="start" x="8" y="-18" font-family="Helvetica,sans-Serif" font-size="10.00">ore::data::CMBLegBuilder</text>
<text text-anchor="middle" x="64" y="-7" font-family="Helvetica,sans-Serif" font-size="10.00">::buildLeg</text>
</a>
</g>
</g>
<!-- Node8&#45;&gt;Node9 -->
<g id="edge8" class="edge"><title>Node8&#45;&gt;Node9</title>
<path fill="none" stroke="#63b8ff" d="M182.152,-15C164.479,-15 145.62,-15 128.314,-15"/>
<polygon fill="#63b8ff" stroke="#63b8ff" points="182.4,-18.5001 192.4,-15 182.4,-11.5001 182.4,-18.5001"/>
</g>
</g>
</svg>
