<?xml version="1.0" encoding="UTF-8" standalone="no"?>
<!DOCTYPE svg PUBLIC "-//W3C//DTD SVG 1.1//EN"
 "http://www.w3.org/Graphics/SVG/1.1/DTD/svg11.dtd">
<!-- Generated by graphviz version 2.38.0 (20140413.2041)
 -->
<!-- Title: referenceInformation Pages: 1 -->
<svg width="291pt" height="124pt"
 viewBox="0.00 0.00 291.00 123.50" xmlns="http://www.w3.org/2000/svg" xmlns:xlink="http://www.w3.org/1999/xlink">
<g id="graph0" class="graph" transform="scale(1 1) rotate(0) translate(4 119.5)">
<title>referenceInformation</title>
<!-- Node1 -->
<g id="node1" class="node"><title>Node1</title>
<g id="a_node1"><a xlink:title=" ">
<polygon fill="#999999" stroke="#666666" points="283,-72.5 179,-72.5 179,-53.5 283,-53.5 283,-72.5"/>
<text text-anchor="middle" x="231" y="-60.5" font-family="Helvetica,sans-Serif" font-size="10.00">referenceInformation</text>
</a>
</g>
</g>
<!-- Node2 -->
<g id="node2" class="node"><title>Node2</title>
<g id="a_node2"><a xlink:href="test_2creditdefaultswapdata_8cpp.html#a19aa31e5490270ae1f13f5a1f9920b86" target="_top" xlink:title=" ">
<polygon fill="white" stroke="#666666" points="143,-115.5 0,-115.5 0,-96.5 143,-96.5 143,-115.5"/>
<text text-anchor="middle" x="71.5" y="-103.5" font-family="Helvetica,sans-Serif" font-size="10.00">BOOST_AUTO_TEST_CASE</text>
</a>
</g>
</g>
<!-- Node1&#45;&gt;Node2 -->
<g id="edge1" class="edge"><title>Node1&#45;&gt;Node2</title>
<path fill="none" stroke="#63b8ff" d="M185.995,-75.1936C172.232,-78.9928 156.989,-83.1856 143,-87 131.626,-90.1014 119.212,-93.4569 108.015,-96.4726"/>
<polygon fill="#63b8ff" stroke="#63b8ff" points="187.01,-78.5446 195.717,-72.5078 185.146,-71.7974 187.01,-78.5446"/>
</g>
<!-- Node3 -->
<g id="node3" class="node"><title>Node3</title>
<g id="a_node3"><a xlink:href="classore_1_1data_1_1_credit_default_swap.html#af7b69d5b18d278257927e32b10a23ee6" target="_top" xlink:title=" ">
<polygon fill="white" stroke="#666666" points="129.5,-78 13.5,-78 13.5,-48 129.5,-48 129.5,-78"/>
<text text-anchor="start" x="21.5" y="-66" font-family="Helvetica,sans-Serif" font-size="10.00">ore::data::CreditDefault</text>
<text text-anchor="middle" x="71.5" y="-55" font-family="Helvetica,sans-Serif" font-size="10.00">Swap::build</text>
</a>
</g>
</g>
<!-- Node1&#45;&gt;Node3 -->
<g id="edge2" class="edge"><title>Node1&#45;&gt;Node3</title>
<path fill="none" stroke="#63b8ff" d="M168.721,-63C155.863,-63 142.351,-63 129.651,-63"/>
<polygon fill="#63b8ff" stroke="#63b8ff" points="168.864,-66.5001 178.864,-63 168.864,-59.5001 168.864,-66.5001"/>
</g>
<!-- Node4 -->
<g id="node4" class="node"><title>Node4</title>
<g id="a_node4"><a xlink:href="classore_1_1data_1_1_credit_default_swap_option.html#a1ef499f219449a5d9cad686946864d0b" target="_top" xlink:title=" ">
<polygon fill="white" stroke="#666666" points="129.5,-30 13.5,-30 13.5,-0 129.5,-0 129.5,-30"/>
<text text-anchor="start" x="21.5" y="-18" font-family="Helvetica,sans-Serif" font-size="10.00">ore::data::CreditDefault</text>
<text text-anchor="middle" x="71.5" y="-7" font-family="Helvetica,sans-Serif" font-size="10.00">SwapOption::build</text>
</a>
</g>
</g>
<!-- Node1&#45;&gt;Node4 -->
<g id="edge3" class="edge"><title>Node1&#45;&gt;Node4</title>
<path fill="none" stroke="#63b8ff" d="M188.84,-50.4561C168.356,-44.2132 143.438,-36.6191 121.925,-30.063"/>
<polygon fill="#63b8ff" stroke="#63b8ff" points="187.92,-53.8345 198.506,-53.4018 189.961,-47.1386 187.92,-53.8345"/>
</g>
</g>
</svg>
