<?xml version="1.0" encoding="UTF-8" standalone="no"?>
<!DOCTYPE svg PUBLIC "-//W3C//DTD SVG 1.1//EN"
 "http://www.w3.org/Graphics/SVG/1.1/DTD/svg11.dtd">
<!-- Generated by graphviz version 2.38.0 (20140413.2041)
 -->
<!-- Title: close Pages: 1 -->
<svg width="298pt" height="64pt"
 viewBox="0.00 0.00 298.00 64.00" xmlns="http://www.w3.org/2000/svg" xmlns:xlink="http://www.w3.org/1999/xlink">
<g id="graph0" class="graph" transform="scale(1 1) rotate(0) translate(4 60)">
<title>close</title>
<!-- Node1 -->
<g id="node1" class="node"><title>Node1</title>
<g id="a_node1"><a xlink:title=" ">
<polygon fill="#999999" stroke="#666666" points="290,-37 250,-37 250,-18 290,-18 290,-37"/>
<text text-anchor="middle" x="270" y="-25" font-family="Helvetica,sans-Serif" font-size="10.00">close</text>
</a>
</g>
</g>
<!-- Node2 -->
<g id="node2" class="node"><title>Node2</title>
<g id="a_node2"><a xlink:href="classore_1_1data_1_1_c_s_v_reader.html#a80870c233d0237e3588a2d6f8d176916" target="_top" xlink:title=" ">
<polygon fill="white" stroke="#666666" points="214,-37 179,-37 179,-18 214,-18 214,-37"/>
<text text-anchor="middle" x="196.5" y="-25" font-family="Helvetica,sans-Serif" font-size="10.00">next</text>
</a>
</g>
</g>
<!-- Node1&#45;&gt;Node2 -->
<g id="edge1" class="edge"><title>Node1&#45;&gt;Node2</title>
<path fill="none" stroke="#63b8ff" d="M239.683,-27.5C231.028,-27.5 221.853,-27.5 214.278,-27.5"/>
<polygon fill="#63b8ff" stroke="#63b8ff" points="239.839,-31.0001 249.839,-27.5 239.839,-24.0001 239.839,-31.0001"/>
</g>
<!-- Node3 -->
<g id="node3" class="node"><title>Node3</title>
<g id="a_node3"><a xlink:href="test_2commodityvolcurve_8cpp.html#a020df78606b2b7a7f1ff9d89a1d1f9cd" target="_top" xlink:title=" ">
<polygon fill="white" stroke="#666666" points="143,-56 0,-56 0,-37 143,-37 143,-56"/>
<text text-anchor="middle" x="71.5" y="-44" font-family="Helvetica,sans-Serif" font-size="10.00">BOOST_AUTO_TEST_CASE</text>
</a>
</g>
</g>
<!-- Node2&#45;&gt;Node3 -->
<g id="edge2" class="edge"><title>Node2&#45;&gt;Node3</title>
<path fill="none" stroke="#63b8ff" d="M168.958,-31.5999C158.647,-33.1928 146.371,-35.089 134.091,-36.9859"/>
<polygon fill="#63b8ff" stroke="#63b8ff" points="169.563,-35.0481 178.912,-30.0624 168.495,-28.1301 169.563,-35.0481"/>
</g>
<!-- Node4 -->
<g id="node4" class="node"><title>Node4</title>
<g id="a_node4"><a xlink:href="test_2commoditycurve_8cpp.html#a64a3926b601ac871e7307d93a5e8cadc" target="_top" xlink:title=" ">
<polygon fill="white" stroke="#666666" points="143,-19 0,-19 0,-0 143,-0 143,-19"/>
<text text-anchor="middle" x="71.5" y="-7" font-family="Helvetica,sans-Serif" font-size="10.00">BOOST_DATA_TEST_CASE</text>
</a>
</g>
</g>
<!-- Node2&#45;&gt;Node4 -->
<g id="edge3" class="edge"><title>Node2&#45;&gt;Node4</title>
<path fill="none" stroke="#63b8ff" d="M168.767,-23.5879C159.429,-22.2213 148.497,-20.6216 137.418,-19.0001"/>
<polygon fill="#63b8ff" stroke="#63b8ff" points="168.51,-27.0875 178.912,-25.0724 169.524,-20.1613 168.51,-27.0875"/>
</g>
</g>
</svg>
