<?xml version="1.0" encoding="UTF-8" standalone="no"?>
<!DOCTYPE svg PUBLIC "-//W3C//DTD SVG 1.1//EN"
 "http://www.w3.org/Graphics/SVG/1.1/DTD/svg11.dtd">
<!-- Generated by graphviz version 2.38.0 (20140413.2041)
 -->
<!-- Title: isPrefix Pages: 1 -->
<svg width="245pt" height="101pt"
 viewBox="0.00 0.00 245.00 101.00" xmlns="http://www.w3.org/2000/svg" xmlns:xlink="http://www.w3.org/1999/xlink">
<g id="graph0" class="graph" transform="scale(1 1) rotate(0) translate(4 97)">
<title>isPrefix</title>
<!-- Node1 -->
<g id="node1" class="node"><title>Node1</title>
<g id="a_node1"><a xlink:title=" ">
<polygon fill="#999999" stroke="#666666" points="237,-56 188,-56 188,-37 237,-37 237,-56"/>
<text text-anchor="middle" x="212.5" y="-44" font-family="Helvetica,sans-Serif" font-size="10.00">isPrefix</text>
</a>
</g>
</g>
<!-- Node2 -->
<g id="node2" class="node"><title>Node2</title>
<g id="a_node2"><a xlink:href="classore_1_1data_1_1_c_s_v_loader.html#ad511d01ae42756876d9a116d19d8107a" target="_top" xlink:title="get quotes matching a wildcard">
<polygon fill="white" stroke="#666666" points="141,-93 11,-93 11,-74 141,-74 141,-93"/>
<text text-anchor="middle" x="76" y="-81" font-family="Helvetica,sans-Serif" font-size="10.00">ore::data::CSVLoader::get</text>
</a>
</g>
</g>
<!-- Node1&#45;&gt;Node2 -->
<g id="edge1" class="edge"><title>Node1&#45;&gt;Node2</title>
<path fill="none" stroke="#63b8ff" d="M178.253,-57.5922C169.733,-60.3038 160.558,-63.1102 152,-65.5 141.424,-68.4533 129.929,-71.3615 119.188,-73.9504"/>
<polygon fill="#63b8ff" stroke="#63b8ff" points="179.438,-60.8875 187.879,-54.4834 177.287,-54.2264 179.438,-60.8875"/>
</g>
<!-- Node3 -->
<g id="node3" class="node"><title>Node3</title>
<g id="a_node3"><a xlink:href="classore_1_1data_1_1_in_memory_loader.html#ad511d01ae42756876d9a116d19d8107a" target="_top" xlink:title="get quotes matching a wildcard, this should be overriden in derived classes for performance">
<polygon fill="white" stroke="#666666" points="152,-56 0,-56 0,-37 152,-37 152,-56"/>
<text text-anchor="middle" x="76" y="-44" font-family="Helvetica,sans-Serif" font-size="10.00">ore::data::InMemoryLoader::get</text>
</a>
</g>
</g>
<!-- Node1&#45;&gt;Node3 -->
<g id="edge2" class="edge"><title>Node1&#45;&gt;Node3</title>
<path fill="none" stroke="#63b8ff" d="M177.595,-46.5C169.724,-46.5 161.037,-46.5 152.163,-46.5"/>
<polygon fill="#63b8ff" stroke="#63b8ff" points="177.764,-50.0001 187.764,-46.5 177.764,-43.0001 177.764,-50.0001"/>
</g>
<!-- Node4 -->
<g id="node4" class="node"><title>Node4</title>
<g id="a_node4"><a xlink:href="namespaceore_1_1data.html#a97ff1e6c50b8e0cbb7e4ee25c505b0dd" target="_top" xlink:title=" ">
<polygon fill="white" stroke="#666666" points="139.5,-19 12.5,-19 12.5,-0 139.5,-0 139.5,-19"/>
<text text-anchor="middle" x="76" y="-7" font-family="Helvetica,sans-Serif" font-size="10.00">ore::data::partitionQuotes</text>
</a>
</g>
</g>
<!-- Node1&#45;&gt;Node4 -->
<g id="edge3" class="edge"><title>Node1&#45;&gt;Node4</title>
<path fill="none" stroke="#63b8ff" d="M178.201,-36.134C169.682,-33.5624 160.52,-30.8667 152,-28.5 140.352,-25.2645 127.624,-21.9557 116.016,-19.0249"/>
<polygon fill="#63b8ff" stroke="#63b8ff" points="177.245,-39.5013 187.831,-39.0687 179.285,-32.8053 177.245,-39.5013"/>
</g>
</g>
</svg>
