<?xml version="1.0" encoding="UTF-8" standalone="no"?>
<!DOCTYPE svg PUBLIC "-//W3C//DTD SVG 1.1//EN"
 "http://www.w3.org/Graphics/SVG/1.1/DTD/svg11.dtd">
<!-- Generated by graphviz version 2.38.0 (20140413.2041)
 -->
<!-- Title: FxBarrierOptionEngineBuilder Pages: 1 -->
<!--zoomable 722 -->
<svg id="main" version="1.1" xmlns="http://www.w3.org/2000/svg" xmlns:xlink="http://www.w3.org/1999/xlink" xml:space="preserve" onload="init(evt)">
<style type="text/css"><![CDATA[
.edge:hover path { stroke: red; }
.edge:hover polygon { stroke: red; fill: red; }
]]></style>
<script type="text/javascript"><![CDATA[
var edges = document.getElementsByTagName('g');
if (edges && edges.length) {
  for (var i=0;i<edges.length;i++) {
    if (edges[i].id.substr(0,4)=='edge') {
      edges[i].setAttribute('class','edge');
    }
  }
}
]]></script>
        <defs>
                <circle id="rim" cx="0" cy="0" r="7"/>
                <circle id="rim2" cx="0" cy="0" r="3.5"/>
                <g id="zoomPlus">
                        <use xlink:href="#rim" fill="#404040">
                                <set attributeName="fill" to="#808080" begin="zoomplus.mouseover" end="zoomplus.mouseout"/>
                        </use>
                        <path d="M-4,0h8M0,-4v8" fill="none" stroke="white" stroke-width="1.5" pointer-events="none"/>
                </g>
                <g id="zoomMin">
                        <use xlink:href="#rim" fill="#404040">
                                <set attributeName="fill" to="#808080" begin="zoomminus.mouseover" end="zoomminus.mouseout"/>
                        </use>
                        <path d="M-4,0h8" fill="none" stroke="white" stroke-width="1.5" pointer-events="none"/>
                </g>
                <g id="dirArrow">
                        <path fill="none" stroke="white" stroke-width="1.5" d="M0,-3.0v7 M-2.5,-0.5L0,-3.0L2.5,-0.5"/>
                </g>
               <g id="resetDef">
                       <use xlink:href="#rim2" fill="#404040">
                               <set attributeName="fill" to="#808080" begin="reset.mouseover" end="reset.mouseout"/>
                       </use>
               </g>
        </defs>

<script type="text/javascript">
var viewWidth = 1249;
var viewHeight = 722;
var sectionId = 'dynsection-1';
</script>
<script xlink:href="svgpan.js"/>
<svg id="graph" class="graph">
<g id="viewport">
<title>FxBarrierOptionEngineBuilder</title>
<!-- Node1 -->
<g id="node1" class="node"><title>Node1</title>
<g id="a_node1"><a xlink:title="Engine Builder for European FX Barrier Options.">
<polygon fill="#999999" stroke="#666666" points="829.334,-63 665.334,-63 665.334,-0 829.334,-0 829.334,-63"/>
<text text-anchor="middle" x="747.334" y="-51" font-family="Helvetica,sans-Serif" font-size="10.00">{FxBarrierOptionEngineBuilder</text>
<text text-anchor="start" x="673.334" y="-40" font-family="Helvetica,sans-Serif" font-size="10.00">||# FxBarrierOptionEngineBuilder()</text>
<text text-anchor="start" x="673.334" y="-29" font-family="Helvetica,sans-Serif" font-size="10.00"># keyImpl()</text>
<text text-anchor="start" x="673.334" y="-18" font-family="Helvetica,sans-Serif" font-size="10.00"># getBlackScholesProcess()</text>
<text text-anchor="middle" x="747.334" y="-7" font-family="Helvetica,sans-Serif" font-size="10.00">}</text>
</a>
</g>
</g>
<!-- Node2 -->
<g id="node2" class="node"><title>Node2</title>
<g id="a_node2"><a xlink:href="classore_1_1data_1_1_caching_engine_builder.html" target="_top" xlink:title="Abstract template EngineBuilder class that can cache engines and coupon pricers.">
<polygon fill="white" stroke="#666666" points="819.834,-218 674.834,-218 674.834,-100 819.834,-100 819.834,-218"/>
<text text-anchor="start" x="682.834" y="-206" font-family="Helvetica,sans-Serif" font-size="10.00">{CachingPricingEngineBuilder</text>
<text text-anchor="start" x="682.834" y="-195" font-family="Helvetica,sans-Serif" font-size="10.00">&lt; string, const Currency</text>
<text text-anchor="start" x="682.834" y="-184" font-family="Helvetica,sans-Serif" font-size="10.00"> &amp;, const Currency &amp;, const</text>
<text text-anchor="middle" x="747.334" y="-173" font-family="Helvetica,sans-Serif" font-size="10.00"> Date &amp;, const Date &amp; &gt;</text>
<text text-anchor="start" x="682.834" y="-162" font-family="Helvetica,sans-Serif" font-size="10.00">||+ CachingEngineBuilder()</text>
<text text-anchor="start" x="682.834" y="-151" font-family="Helvetica,sans-Serif" font-size="10.00">+ engine()</text>
<text text-anchor="start" x="682.834" y="-140" font-family="Helvetica,sans-Serif" font-size="10.00">+ reset()</text>
<text text-anchor="start" x="682.834" y="-129" font-family="Helvetica,sans-Serif" font-size="10.00"># keyImpl()</text>
<text text-anchor="start" x="682.834" y="-118" font-family="Helvetica,sans-Serif" font-size="10.00"># engineImpl()</text>
<text text-anchor="middle" x="747.334" y="-107" font-family="Helvetica,sans-Serif" font-size="10.00">}</text>
</a>
</g>
</g>
<!-- Node2&#45;&gt;Node1 -->
<g id="edge1" class="edge"><title>Node2&#45;&gt;Node1</title>
<path fill="none" stroke="#63b8ff" d="M747.334,-89.649C747.334,-80.448 747.334,-71.4088 747.334,-63.3313"/>
<polygon fill="none" stroke="#63b8ff" points="743.834,-89.6588 747.334,-99.6589 750.834,-89.6589 743.834,-89.6588"/>
</g>
<!-- Node3 -->
<g id="node3" class="node"><title>Node3</title>
<g id="a_node3"><a xlink:href="classore_1_1data_1_1_engine_builder.html" target="_top" xlink:title="Base PricingEngine Builder class for a specific model and engine.">
<polygon fill="white" stroke="#666666" points="462.834,-406 357.834,-406 357.834,-255 462.834,-255 462.834,-406"/>
<text text-anchor="middle" x="410.334" y="-394" font-family="Helvetica,sans-Serif" font-size="10.00">{EngineBuilder</text>
<text text-anchor="start" x="365.834" y="-383" font-family="Helvetica,sans-Serif" font-size="10.00">||+ EngineBuilder()</text>
<text text-anchor="start" x="365.834" y="-372" font-family="Helvetica,sans-Serif" font-size="10.00">+ ~EngineBuilder()</text>
<text text-anchor="start" x="365.834" y="-361" font-family="Helvetica,sans-Serif" font-size="10.00">+ model()</text>
<text text-anchor="start" x="365.834" y="-350" font-family="Helvetica,sans-Serif" font-size="10.00">+ engine()</text>
<text text-anchor="start" x="365.834" y="-339" font-family="Helvetica,sans-Serif" font-size="10.00">+ tradeTypes()</text>
<text text-anchor="start" x="365.834" y="-328" font-family="Helvetica,sans-Serif" font-size="10.00">+ configuration()</text>
<text text-anchor="start" x="365.834" y="-317" font-family="Helvetica,sans-Serif" font-size="10.00">+ reset()</text>
<text text-anchor="start" x="365.834" y="-306" font-family="Helvetica,sans-Serif" font-size="10.00">+ init()</text>
<text text-anchor="start" x="365.834" y="-295" font-family="Helvetica,sans-Serif" font-size="10.00">+ modelBuilders()</text>
<text text-anchor="start" x="365.834" y="-284" font-family="Helvetica,sans-Serif" font-size="10.00">+ engineParameter()</text>
<text text-anchor="start" x="365.834" y="-273" font-family="Helvetica,sans-Serif" font-size="10.00">+ modelParameter()</text>
<text text-anchor="middle" x="410.334" y="-262" font-family="Helvetica,sans-Serif" font-size="10.00">}</text>
</a>
</g>
</g>
<!-- Node3&#45;&gt;Node2 -->
<g id="edge2" class="edge"><title>Node3&#45;&gt;Node2</title>
<path fill="none" stroke="#63b8ff" d="M472.272,-298.347C529.448,-269.59 614.386,-226.868 674.728,-196.518"/>
<polygon fill="none" stroke="#63b8ff" points="470.351,-295.395 462.99,-303.016 473.497,-301.649 470.351,-295.395"/>
</g>
<!-- Node4 -->
<g id="node4" class="node"><title>Node4</title>
<g id="a_node4"><a xlink:title=" ">
<polygon fill="white" stroke="#666666" points="114.334,-626 70.3339,-626 70.3339,-596 114.334,-596 114.334,-626"/>
<text text-anchor="middle" x="92.3339" y="-614" font-family="Helvetica,sans-Serif" font-size="10.00">{string</text>
<text text-anchor="middle" x="92.3339" y="-603" font-family="Helvetica,sans-Serif" font-size="10.00">||}</text>
</a>
</g>
</g>
<!-- Node4&#45;&gt;Node3 -->
<g id="edge3" class="edge"><title>Node4&#45;&gt;Node3</title>
<path fill="none" stroke="#404040" d="M70.1599,-599.787C56.5452,-592.458 39.7733,-581.349 29.3339,-567 2.11828,-529.592 -12.6938,-501.544 14.3339,-464 90.2613,-358.53 254.025,-335.799 345.384,-331.649"/>
<polygon fill="none" stroke="#404040" points="345.516,-331.644 351.359,-327.419 357.507,-331.188 351.663,-335.413 345.516,-331.644"/>
<text text-anchor="middle" x="35.8339" y="-493" font-family="Helvetica,sans-Serif" font-size="10.00"> #engine_</text>
<text text-anchor="middle" x="35.8339" y="-482" font-family="Helvetica,sans-Serif" font-size="10.00">#model_</text>
</g>
<!-- Node6 -->
<g id="node6" class="node"><title>Node6</title>
<g id="a_node6"><a xlink:title=" ">
<polygon fill="white" stroke="#666666" points="272.834,-505 197.834,-505 197.834,-475 272.834,-475 272.834,-505"/>
<text text-anchor="middle" x="235.334" y="-493" font-family="Helvetica,sans-Serif" font-size="10.00">{set&lt; string &gt;</text>
<text text-anchor="middle" x="235.334" y="-482" font-family="Helvetica,sans-Serif" font-size="10.00">||}</text>
</a>
</g>
</g>
<!-- Node4&#45;&gt;Node6 -->
<g id="edge6" class="edge"><title>Node4&#45;&gt;Node6</title>
<path fill="none" stroke="#404040" d="M70.1804,-598.423C58.6945,-591.105 45.755,-580.478 39.3339,-567 33.0259,-553.759 29.6048,-544.975 39.3339,-534 61.4579,-509.043 156.517,-526.001 188.334,-516 192.737,-514.616 197.211,-512.821 201.56,-510.827"/>
<polygon fill="none" stroke="#404040" points="201.934,-510.639 205.489,-504.365 212.648,-505.234 209.092,-511.508 201.934,-510.639"/>
<text text-anchor="middle" x="54.8339" y="-548" font-family="Helvetica,sans-Serif" font-size="10.00"> +keys</text>
</g>
<!-- Node10 -->
<g id="node10" class="node"><title>Node10</title>
<g id="a_node10"><a xlink:title=" ">
<polygon fill="white" stroke="#666666" points="533.334,-510.5 419.334,-510.5 419.334,-469.5 533.334,-469.5 533.334,-510.5"/>
<text text-anchor="start" x="427.334" y="-498.5" font-family="Helvetica,sans-Serif" font-size="10.00">{map&lt; MarketContext,</text>
<text text-anchor="middle" x="476.334" y="-487.5" font-family="Helvetica,sans-Serif" font-size="10.00"> string &gt;</text>
<text text-anchor="middle" x="476.334" y="-476.5" font-family="Helvetica,sans-Serif" font-size="10.00">||}</text>
</a>
</g>
</g>
<!-- Node4&#45;&gt;Node10 -->
<g id="edge12" class="edge"><title>Node4&#45;&gt;Node10</title>
<path fill="none" stroke="#404040" d="M110.915,-595.896C120.789,-587.953 132.818,-577.535 142.334,-567 154.317,-553.733 149.799,-542.848 165.334,-534 212.771,-506.983 357.031,-527.792 410.334,-516 412.811,-515.452 415.319,-514.829 417.836,-514.147"/>
<polygon fill="none" stroke="#404040" points="418.125,-514.06 422.709,-508.493 429.61,-510.583 425.027,-516.15 418.125,-514.06"/>
<text text-anchor="middle" x="189.834" y="-548" font-family="Helvetica,sans-Serif" font-size="10.00"> +elements</text>
</g>
<!-- Node14 -->
<g id="node14" class="node"><title>Node14</title>
<g id="a_node14"><a xlink:title=" ">
<polygon fill="white" stroke="#666666" points="401.334,-505 291.334,-505 291.334,-475 401.334,-475 401.334,-505"/>
<text text-anchor="middle" x="346.334" y="-493" font-family="Helvetica,sans-Serif" font-size="10.00">{map&lt; string, string &gt;</text>
<text text-anchor="middle" x="346.334" y="-482" font-family="Helvetica,sans-Serif" font-size="10.00">||}</text>
</a>
</g>
</g>
<!-- Node4&#45;&gt;Node14 -->
<g id="edge17" class="edge"><title>Node4&#45;&gt;Node14</title>
<path fill="none" stroke="#404040" d="M87.536,-595.918C82.7371,-578.932 78.0483,-550.598 93.3339,-534 121.764,-503.128 240.483,-525.622 281.334,-516 288.584,-514.292 296.108,-511.959 303.355,-509.4"/>
<polygon fill="none" stroke="#404040" points="303.575,-509.318 307.787,-503.465 314.81,-505.102 310.598,-510.955 303.575,-509.318"/>
<text text-anchor="middle" x="117.834" y="-553.5" font-family="Helvetica,sans-Serif" font-size="10.00"> +elements</text>
<text text-anchor="middle" x="117.834" y="-542.5" font-family="Helvetica,sans-Serif" font-size="10.00">+keys</text>
</g>
<!-- Node15 -->
<g id="node15" class="node"><title>Node15</title>
<g id="a_node15"><a xlink:title=" ">
<polygon fill="white" stroke="#666666" points="661.334,-510.5 551.334,-510.5 551.334,-469.5 661.334,-469.5 661.334,-510.5"/>
<text text-anchor="start" x="559.334" y="-498.5" font-family="Helvetica,sans-Serif" font-size="10.00">{map&lt; std::string, std</text>
<text text-anchor="middle" x="606.334" y="-487.5" font-family="Helvetica,sans-Serif" font-size="10.00">::string &gt;</text>
<text text-anchor="middle" x="606.334" y="-476.5" font-family="Helvetica,sans-Serif" font-size="10.00">||}</text>
</a>
</g>
</g>
<!-- Node4&#45;&gt;Node15 -->
<g id="edge20" class="edge"><title>Node4&#45;&gt;Node15</title>
<path fill="none" stroke="#404040" d="M114.354,-605.379C139.846,-599.344 182.411,-587.109 214.334,-567 231.884,-555.945 228.422,-542.518 247.334,-534 307.218,-507.029 478.192,-530.119 542.334,-516 544.791,-515.459 547.278,-514.838 549.773,-514.152"/>
<polygon fill="none" stroke="#404040" points="549.963,-514.094 554.512,-508.499 561.426,-510.546 556.877,-516.141 549.963,-514.094"/>
<text text-anchor="middle" x="271.834" y="-553.5" font-family="Helvetica,sans-Serif" font-size="10.00"> +elements</text>
<text text-anchor="middle" x="271.834" y="-542.5" font-family="Helvetica,sans-Serif" font-size="10.00">+keys</text>
</g>
<!-- Node5 -->
<g id="node5" class="node"><title>Node5</title>
<g id="a_node5"><a xlink:title=" ">
<polygon fill="white" stroke="#666666" points="147.334,-714 37.3339,-714 37.3339,-684 147.334,-684 147.334,-714"/>
<text text-anchor="middle" x="92.3339" y="-702" font-family="Helvetica,sans-Serif" font-size="10.00">{basic_string&lt; Char &gt;</text>
<text text-anchor="middle" x="92.3339" y="-691" font-family="Helvetica,sans-Serif" font-size="10.00">||}</text>
</a>
</g>
</g>
<!-- Node5&#45;&gt;Node4 -->
<g id="edge4" class="edge"><title>Node5&#45;&gt;Node4</title>
<path fill="none" stroke="#63b8ff" d="M92.3339,-673.49C92.3339,-658.198 92.3339,-639.051 92.3339,-626.222"/>
<polygon fill="none" stroke="#63b8ff" points="88.834,-673.799 92.3339,-683.799 95.834,-673.799 88.834,-673.799"/>
</g>
<!-- Node6&#45;&gt;Node3 -->
<g id="edge5" class="edge"><title>Node6&#45;&gt;Node3</title>
<path fill="none" stroke="#404040" d="M244.721,-474.937C254.291,-461.145 270.012,-439.929 286.334,-424 305,-405.784 327.347,-388.077 347.897,-373.115"/>
<polygon fill="none" stroke="#404040" points="348.066,-372.994 350.61,-366.247 357.817,-366.001 355.273,-372.748 348.066,-372.994"/>
<text text-anchor="middle" x="317.334" y="-432.5" font-family="Helvetica,sans-Serif" font-size="10.00"> #tradeTypes_</text>
</g>
<!-- Node7 -->
<g id="node7" class="node"><title>Node7</title>
<g id="a_node7"><a xlink:title=" ">
<polygon fill="white" stroke="#666666" points="460.334,-626 402.334,-626 402.334,-596 460.334,-596 460.334,-626"/>
<text text-anchor="middle" x="431.334" y="-614" font-family="Helvetica,sans-Serif" font-size="10.00">{set&lt; K &gt;</text>
<text text-anchor="middle" x="431.334" y="-603" font-family="Helvetica,sans-Serif" font-size="10.00">||}</text>
</a>
</g>
</g>
<!-- Node7&#45;&gt;Node6 -->
<g id="edge7" class="edge"><title>Node7&#45;&gt;Node6</title>
<path fill="none" stroke="orange" d="M394.87,-590.644C384.063,-583.965 372.641,-575.899 363.334,-567 350.413,-554.645 354.763,-544.554 340.334,-534 318.549,-518.066 307.247,-526.383 282.334,-516 274.827,-512.871 266.927,-508.939 259.792,-505.126"/>
<polygon fill="orange" stroke="orange" points="393.358,-593.817 403.743,-595.915 396.933,-587.799 393.358,-593.817"/>
<text text-anchor="middle" x="386.334" y="-548" font-family="Helvetica,sans-Serif" font-size="10.00"> &lt; string &gt;</text>
</g>
<!-- Node16 -->
<g id="node16" class="node"><title>Node16</title>
<g id="a_node16"><a xlink:title=" ">
<polygon fill="white" stroke="#666666" points="852.834,-516 679.834,-516 679.834,-464 852.834,-464 852.834,-516"/>
<text text-anchor="start" x="687.834" y="-504" font-family="Helvetica,sans-Serif" font-size="10.00">{set&lt; std::pair&lt; string,</text>
<text text-anchor="start" x="687.834" y="-493" font-family="Helvetica,sans-Serif" font-size="10.00"> QuantLib::ext::shared</text>
<text text-anchor="middle" x="766.334" y="-482" font-family="Helvetica,sans-Serif" font-size="10.00">_ptr&lt; QuantExt::ModelBuilder &gt; &gt; &gt;</text>
<text text-anchor="middle" x="766.334" y="-471" font-family="Helvetica,sans-Serif" font-size="10.00">||}</text>
</a>
</g>
</g>
<!-- Node7&#45;&gt;Node16 -->
<g id="edge24" class="edge"><title>Node7&#45;&gt;Node16</title>
<path fill="none" stroke="orange" d="M423.992,-585.719C420.575,-569.015 419.66,-547.49 432.334,-534 450.493,-514.672 644.175,-520.359 670.334,-516 673.392,-515.49 676.494,-514.929 679.62,-514.325"/>
<polygon fill="orange" stroke="orange" points="420.7,-586.989 426.481,-595.867 427.498,-585.321 420.7,-586.989"/>
<text text-anchor="start" x="432.334" y="-559" font-family="Helvetica,sans-Serif" font-size="10.00"> &lt; std::pair&lt; string,</text>
<text text-anchor="start" x="432.334" y="-548" font-family="Helvetica,sans-Serif" font-size="10.00"> QuantLib::ext::shared</text>
<text text-anchor="middle" x="510.834" y="-537" font-family="Helvetica,sans-Serif" font-size="10.00">_ptr&lt; QuantExt::ModelBuilder &gt; &gt; &gt;</text>
</g>
<!-- Node8 -->
<g id="node8" class="node"><title>Node8</title>
<g id="a_node8"><a xlink:title=" ">
<polygon fill="white" stroke="#666666" points="576.834,-714 547.834,-714 547.834,-684 576.834,-684 576.834,-714"/>
<text text-anchor="middle" x="562.334" y="-702" font-family="Helvetica,sans-Serif" font-size="10.00">{K</text>
<text text-anchor="middle" x="562.334" y="-691" font-family="Helvetica,sans-Serif" font-size="10.00">||}</text>
</a>
</g>
</g>
<!-- Node8&#45;&gt;Node7 -->
<g id="edge8" class="edge"><title>Node8&#45;&gt;Node7</title>
<path fill="none" stroke="#404040" d="M547.814,-688.468C527.466,-675.11 489.939,-650.474 462.974,-632.771"/>
<polygon fill="none" stroke="#404040" points="462.89,-632.716 455.679,-632.767 452.858,-626.13 460.069,-626.079 462.89,-632.716"/>
<text text-anchor="middle" x="528.834" y="-658" font-family="Helvetica,sans-Serif" font-size="10.00"> +keys</text>
</g>
<!-- Node12 -->
<g id="node12" class="node"><title>Node12</title>
<g id="a_node12"><a xlink:title=" ">
<polygon fill="white" stroke="#666666" points="816.334,-626 742.334,-626 742.334,-596 816.334,-596 816.334,-626"/>
<text text-anchor="middle" x="779.334" y="-614" font-family="Helvetica,sans-Serif" font-size="10.00">{map&lt; K, T &gt;</text>
<text text-anchor="middle" x="779.334" y="-603" font-family="Helvetica,sans-Serif" font-size="10.00">||}</text>
</a>
</g>
</g>
<!-- Node8&#45;&gt;Node12 -->
<g id="edge14" class="edge"><title>Node8&#45;&gt;Node12</title>
<path fill="none" stroke="#404040" d="M576.909,-692.224C608.228,-679.812 683.103,-650.138 732.482,-630.568"/>
<polygon fill="none" stroke="#404040" points="732.675,-630.492 736.779,-624.562 743.831,-626.07 739.727,-632 732.675,-630.492"/>
<text text-anchor="middle" x="686.834" y="-658" font-family="Helvetica,sans-Serif" font-size="10.00"> +keys</text>
</g>
<!-- Node9 -->
<g id="node9" class="node"><title>Node9</title>
<g id="a_node9"><a xlink:title=" ">
<polygon fill="white" stroke="#666666" points="179.834,-510.5 66.8339,-510.5 66.8339,-469.5 179.834,-469.5 179.834,-510.5"/>
<text text-anchor="start" x="74.8339" y="-498.5" font-family="Helvetica,sans-Serif" font-size="10.00">{shared_ptr&lt; ore::data</text>
<text text-anchor="middle" x="123.334" y="-487.5" font-family="Helvetica,sans-Serif" font-size="10.00">::Market &gt;</text>
<text text-anchor="middle" x="123.334" y="-476.5" font-family="Helvetica,sans-Serif" font-size="10.00">||}</text>
</a>
</g>
</g>
<!-- Node9&#45;&gt;Node3 -->
<g id="edge9" class="edge"><title>Node9&#45;&gt;Node3</title>
<path fill="none" stroke="#404040" d="M149.974,-469.437C168.878,-455.938 195.098,-437.976 219.334,-424 260.552,-400.231 308.789,-376.904 346.475,-359.621"/>
<polygon fill="none" stroke="#404040" points="346.892,-359.432 350.694,-353.304 357.813,-354.458 354.01,-360.585 346.892,-359.432"/>
<text text-anchor="middle" x="241.334" y="-432.5" font-family="Helvetica,sans-Serif" font-size="10.00"> #market_</text>
</g>
<!-- Node10&#45;&gt;Node3 -->
<g id="edge10" class="edge"><title>Node10&#45;&gt;Node3</title>
<path fill="none" stroke="#404040" d="M468.624,-469.316C463.523,-456.396 456.638,-439.149 450.334,-424 449.426,-421.819 448.504,-419.611 447.569,-417.385"/>
<polygon fill="none" stroke="#404040" points="447.49,-417.198 441.471,-413.226 442.822,-406.143 448.841,-410.114 447.49,-417.198"/>
<text text-anchor="middle" x="496.334" y="-432.5" font-family="Helvetica,sans-Serif" font-size="10.00"> #configurations_</text>
</g>
<!-- Node11 -->
<g id="node11" class="node"><title>Node11</title>
<g id="a_node11"><a xlink:title=" ">
<polygon fill="white" stroke="#666666" points="349.834,-626 266.834,-626 266.834,-596 349.834,-596 349.834,-626"/>
<text text-anchor="middle" x="308.334" y="-614" font-family="Helvetica,sans-Serif" font-size="10.00">{MarketContext</text>
<text text-anchor="middle" x="308.334" y="-603" font-family="Helvetica,sans-Serif" font-size="10.00">||}</text>
</a>
</g>
</g>
<!-- Node11&#45;&gt;Node10 -->
<g id="edge11" class="edge"><title>Node11&#45;&gt;Node10</title>
<path fill="none" stroke="#404040" d="M303.682,-595.822C299.14,-579.005 294.818,-551.102 309.334,-534 338.84,-499.238 366.38,-528.128 410.334,-516 412.194,-515.487 414.075,-514.942 415.968,-514.371"/>
<polygon fill="none" stroke="#404040" points="416.235,-514.285 420.714,-508.634 427.653,-510.595 423.174,-516.246 416.235,-514.285"/>
<text text-anchor="middle" x="324.834" y="-548" font-family="Helvetica,sans-Serif" font-size="10.00"> +keys</text>
</g>
<!-- Node12&#45;&gt;Node10 -->
<g id="edge13" class="edge"><title>Node12&#45;&gt;Node10</title>
<path fill="none" stroke="orange" d="M739.35,-590.978C728.141,-584.418 716.52,-576.334 707.334,-567 695.463,-554.938 702.439,-543.353 688.334,-534 633.845,-497.868 605.803,-531.692 542.334,-516 536.268,-514.5 529.999,-512.606 523.849,-510.533"/>
<polygon fill="orange" stroke="orange" points="737.758,-594.097 748.198,-595.906 741.165,-587.982 737.758,-594.097"/>
<text text-anchor="middle" x="764.834" y="-548" font-family="Helvetica,sans-Serif" font-size="10.00"> &lt; MarketContext, string &gt;</text>
</g>
<!-- Node12&#45;&gt;Node14 -->
<g id="edge18" class="edge"><title>Node12&#45;&gt;Node14</title>
<path fill="none" stroke="orange" d="M732.032,-607.99C695.08,-604.248 644.157,-594.085 608.334,-567 594.834,-556.793 603.543,-543.194 589.334,-534 555.769,-512.282 449.201,-525.36 410.334,-516 399.317,-513.347 387.663,-509.22 377.362,-505.079"/>
<polygon fill="orange" stroke="orange" points="731.788,-611.482 742.06,-608.883 732.41,-604.509 731.788,-611.482"/>
<text text-anchor="middle" x="646.334" y="-548" font-family="Helvetica,sans-Serif" font-size="10.00"> &lt; string, string &gt;</text>
</g>
<!-- Node12&#45;&gt;Node15 -->
<g id="edge21" class="edge"><title>Node12&#45;&gt;Node15</title>
<path fill="none" stroke="orange" d="M809.905,-588.897C816.552,-582.682 822.681,-575.293 826.334,-567 832.246,-553.578 836.092,-544.949 826.334,-534 803.115,-507.948 704.2,-524.418 670.334,-516 664.43,-514.532 658.338,-512.657 652.368,-510.595"/>
<polygon fill="orange" stroke="orange" points="807.332,-586.491 801.983,-595.637 811.868,-591.823 807.332,-586.491"/>
<text text-anchor="start" x="832.334" y="-553.5" font-family="Helvetica,sans-Serif" font-size="10.00"> &lt; std::string, std</text>
<text text-anchor="middle" x="870.334" y="-542.5" font-family="Helvetica,sans-Serif" font-size="10.00">::string &gt;</text>
</g>
<!-- Node18 -->
<g id="node18" class="node"><title>Node18</title>
<g id="a_node18"><a xlink:title=" ">
<polygon fill="white" stroke="#666666" points="1082.83,-510.5 965.834,-510.5 965.834,-469.5 1082.83,-469.5 1082.83,-510.5"/>
<text text-anchor="start" x="973.834" y="-498.5" font-family="Helvetica,sans-Serif" font-size="10.00">{map&lt; T, QuantLib::ext</text>
<text text-anchor="middle" x="1024.33" y="-487.5" font-family="Helvetica,sans-Serif" font-size="10.00">::shared_ptr&lt; U &gt; &gt;</text>
<text text-anchor="middle" x="1024.33" y="-476.5" font-family="Helvetica,sans-Serif" font-size="10.00">||}</text>
</a>
</g>
</g>
<!-- Node12&#45;&gt;Node18 -->
<g id="edge28" class="edge"><title>Node12&#45;&gt;Node18</title>
<path fill="none" stroke="orange" d="M826.251,-600.762C852.875,-594.111 886.027,-583.374 912.334,-567 929.679,-556.204 928.033,-546.315 944.334,-534 955.909,-525.256 969.496,-517.243 982.155,-510.565"/>
<polygon fill="orange" stroke="orange" points="825.309,-597.388 816.395,-603.113 826.934,-604.197 825.309,-597.388"/>
<text text-anchor="start" x="944.334" y="-553.5" font-family="Helvetica,sans-Serif" font-size="10.00"> &lt; T, QuantLib::ext</text>
<text text-anchor="middle" x="987.334" y="-542.5" font-family="Helvetica,sans-Serif" font-size="10.00">::shared_ptr&lt; U &gt; &gt;</text>
</g>
<!-- Node13 -->
<g id="node13" class="node"><title>Node13</title>
<g id="a_node13"><a xlink:title=" ">
<polygon fill="white" stroke="#666666" points="998.834,-714 969.834,-714 969.834,-684 998.834,-684 998.834,-714"/>
<text text-anchor="middle" x="984.334" y="-702" font-family="Helvetica,sans-Serif" font-size="10.00">{T</text>
<text text-anchor="middle" x="984.334" y="-691" font-family="Helvetica,sans-Serif" font-size="10.00">||}</text>
</a>
</g>
</g>
<!-- Node13&#45;&gt;Node12 -->
<g id="edge15" class="edge"><title>Node13&#45;&gt;Node12</title>
<path fill="none" stroke="#404040" d="M969.591,-691.815C939.546,-679.211 870.178,-650.11 824.031,-630.751"/>
<polygon fill="none" stroke="#404040" points="823.904,-630.698 816.823,-632.065 812.838,-626.055 819.918,-624.688 823.904,-630.698"/>
<text text-anchor="middle" x="930.834" y="-658" font-family="Helvetica,sans-Serif" font-size="10.00"> +elements</text>
</g>
<!-- Node13&#45;&gt;Node18 -->
<g id="edge26" class="edge"><title>Node13&#45;&gt;Node18</title>
<path fill="none" stroke="#404040" d="M999.016,-693.182C1020.35,-685.29 1059.13,-667.373 1075.33,-637 1096.88,-596.61 1093.84,-575.418 1074.33,-534 1071.81,-528.649 1068.28,-523.707 1064.23,-519.227"/>
<polygon fill="none" stroke="#404040" points="1064.02,-519.026 1056.93,-517.739 1055.39,-510.695 1062.48,-511.981 1064.02,-519.026"/>
<text text-anchor="middle" x="1104.83" y="-608.5" font-family="Helvetica,sans-Serif" font-size="10.00"> +keys</text>
</g>
<!-- Node14&#45;&gt;Node3 -->
<g id="edge16" class="edge"><title>Node14&#45;&gt;Node3</title>
<path fill="none" stroke="#404040" d="M347.278,-474.946C348.51,-461.531 351.274,-440.916 357.334,-424 358.13,-421.778 358.978,-419.549 359.871,-417.317"/>
<polygon fill="none" stroke="#404040" points="359.925,-417.192 358.628,-410.098 364.678,-406.173 365.974,-413.267 359.925,-417.192"/>
<text text-anchor="middle" x="403.834" y="-438" font-family="Helvetica,sans-Serif" font-size="10.00"> #engineParameters_</text>
<text text-anchor="middle" x="403.834" y="-427" font-family="Helvetica,sans-Serif" font-size="10.00">#modelParameters_</text>
</g>
<!-- Node15&#45;&gt;Node3 -->
<g id="edge19" class="edge"><title>Node15&#45;&gt;Node3</title>
<path fill="none" stroke="#404040" d="M586.715,-469.254C573.228,-455.999 554.687,-438.396 537.334,-424 517.038,-407.162 493.958,-389.85 473.092,-374.822"/>
<polygon fill="none" stroke="#404040" points="472.81,-374.621 465.603,-374.384 463.049,-367.641 470.256,-367.877 472.81,-374.621"/>
<text text-anchor="middle" x="606.334" y="-432.5" font-family="Helvetica,sans-Serif" font-size="10.00"> #globalParameters_</text>
</g>
<!-- Node16&#45;&gt;Node3 -->
<g id="edge22" class="edge"><title>Node16&#45;&gt;Node3</title>
<path fill="none" stroke="#404040" d="M727.144,-463.864C706.283,-451.05 679.921,-435.737 655.334,-424 595.698,-395.532 524.803,-369.572 474.658,-352.449"/>
<polygon fill="none" stroke="#404040" points="474.38,-352.355 467.414,-354.218 463.014,-348.505 469.981,-346.641 474.38,-352.355"/>
<text text-anchor="middle" x="734.334" y="-432.5" font-family="Helvetica,sans-Serif" font-size="10.00"> #modelBuilders_</text>
</g>
<!-- Node17 -->
<g id="node17" class="node"><title>Node17</title>
<g id="a_node17"><a xlink:title=" ">
<polygon fill="white" stroke="#666666" points="1066.33,-637 928.334,-637 928.334,-585 1066.33,-585 1066.33,-637"/>
<text text-anchor="start" x="936.334" y="-625" font-family="Helvetica,sans-Serif" font-size="10.00">{pair&lt; string, QuantLib</text>
<text text-anchor="start" x="936.334" y="-614" font-family="Helvetica,sans-Serif" font-size="10.00">::ext::shared_ptr&lt; QuantExt</text>
<text text-anchor="middle" x="997.334" y="-603" font-family="Helvetica,sans-Serif" font-size="10.00">::ModelBuilder &gt; &gt;</text>
<text text-anchor="middle" x="997.334" y="-592" font-family="Helvetica,sans-Serif" font-size="10.00">||}</text>
</a>
</g>
</g>
<!-- Node17&#45;&gt;Node16 -->
<g id="edge23" class="edge"><title>Node17&#45;&gt;Node16</title>
<path fill="none" stroke="#404040" d="M1023.23,-584.867C1036.35,-569.087 1047.09,-548.966 1034.33,-534 1028.65,-527.333 939.124,-513.9 865.086,-503.813"/>
<polygon fill="none" stroke="#404040" points="864.774,-503.77 858.292,-506.929 852.883,-502.161 859.365,-499.002 864.774,-503.77"/>
<text text-anchor="middle" x="1054.83" y="-548" font-family="Helvetica,sans-Serif" font-size="10.00"> +keys</text>
</g>
<!-- Node18&#45;&gt;Node2 -->
<g id="edge25" class="edge"><title>Node18&#45;&gt;Node2</title>
<path fill="none" stroke="#404040" d="M1007.84,-469.405C968.631,-422.841 868.383,-303.773 804.299,-227.659"/>
<polygon fill="none" stroke="#404040" points="804.012,-227.318 797.087,-225.304 796.283,-218.138 803.207,-220.152 804.012,-227.318"/>
<text text-anchor="middle" x="978.334" y="-328" font-family="Helvetica,sans-Serif" font-size="10.00"> #engines_</text>
</g>
<!-- Node19 -->
<g id="node19" class="node"><title>Node19</title>
<g id="a_node19"><a xlink:title=" ">
<polygon fill="white" stroke="#666666" points="1241.33,-626 1151.33,-626 1151.33,-596 1241.33,-596 1241.33,-626"/>
<text text-anchor="middle" x="1196.33" y="-614" font-family="Helvetica,sans-Serif" font-size="10.00">{shared_ptr&lt; U &gt;</text>
<text text-anchor="middle" x="1196.33" y="-603" font-family="Helvetica,sans-Serif" font-size="10.00">||}</text>
</a>
</g>
</g>
<!-- Node19&#45;&gt;Node18 -->
<g id="edge27" class="edge"><title>Node19&#45;&gt;Node18</title>
<path fill="none" stroke="#404040" d="M1184.16,-595.953C1169.38,-579.519 1143.08,-552.24 1116.33,-534 1106.5,-527.295 1095.46,-521.137 1084.53,-515.702"/>
<polygon fill="none" stroke="#404040" points="1084.51,-515.693 1077.37,-516.713 1073.68,-510.516 1080.82,-509.496 1084.51,-515.693"/>
<text text-anchor="middle" x="1179.83" y="-548" font-family="Helvetica,sans-Serif" font-size="10.00"> +elements</text>
</g>
</g>
</svg>
        <g id="navigator" transform="translate(0 0)" fill="#404254">
                <rect fill="#f2f5e9" fill-opacity="0.5" stroke="#606060" stroke-width=".5" x="0" y="0" width="60" height="60"/>
                <use id="zoomplus" xlink:href="#zoomPlus" x="17" y="9" onmousedown="handleZoom(evt,'in')"/>
                <use id="zoomminus" xlink:href="#zoomMin" x="42" y="9" onmousedown="handleZoom(evt,'out')"/>
                <use id="reset" xlink:href="#resetDef" x="30" y="36" onmousedown="handleReset()"/>
                <g id="arrowUp" xlink:href="#dirArrow" transform="translate(30 24)" onmousedown="handlePan(0,-1)">
                  <use xlink:href="#rim" fill="#404040">
                        <set attributeName="fill" to="#808080" begin="arrowUp.mouseover" end="arrowUp.mouseout"/>
                  </use>
                  <path fill="none" stroke="white" stroke-width="1.5" d="M0,-3.0v7 M-2.5,-0.5L0,-3.0L2.5,-0.5"/>
                </g>
                <g id="arrowRight" xlink:href="#dirArrow" transform="rotate(90) translate(36 -43)" onmousedown="handlePan(1,0)">
                  <use xlink:href="#rim" fill="#404040">
                        <set attributeName="fill" to="#808080" begin="arrowRight.mouseover" end="arrowRight.mouseout"/>
                  </use>
                  <path fill="none" stroke="white" stroke-width="1.5" d="M0,-3.0v7 M-2.5,-0.5L0,-3.0L2.5,-0.5"/>
                </g>
                <g id="arrowDown" xlink:href="#dirArrow" transform="rotate(180) translate(-30 -48)" onmousedown="handlePan(0,1)">
                  <use xlink:href="#rim" fill="#404040">
                        <set attributeName="fill" to="#808080" begin="arrowDown.mouseover" end="arrowDown.mouseout"/>
                  </use>
                  <path fill="none" stroke="white" stroke-width="1.5" d="M0,-3.0v7 M-2.5,-0.5L0,-3.0L2.5,-0.5"/>
                </g>
                <g id="arrowLeft" xlink:href="#dirArrow" transform="rotate(270) translate(-36 17)" onmousedown="handlePan(-1,0)">
                  <use xlink:href="#rim" fill="#404040">
                        <set attributeName="fill" to="#808080" begin="arrowLeft.mouseover" end="arrowLeft.mouseout"/>
                  </use>
                  <path fill="none" stroke="white" stroke-width="1.5" d="M0,-3.0v7 M-2.5,-0.5L0,-3.0L2.5,-0.5"/>
                </g>
        </g>
        <svg viewBox="0 0 15 15" width="100%" height="30px" preserveAspectRatio="xMaxYMin meet">
         <g id="arrow_out" transform="scale(0.3 0.3)">
          <a xlink:href="classore_1_1data_1_1_fx_barrier_option_engine_builder__coll__graph_org.svg" target="_base">
           <rect id="button" ry="5" rx="5" y="6" x="6" height="38" width="38"
                fill="#f2f5e9" fill-opacity="0.5" stroke="#606060" stroke-width="1.0"/>
           <path id="arrow"
             d="M 11.500037,31.436501 C 11.940474,20.09759 22.043105,11.32322 32.158766,21.979434 L 37.068811,17.246167 C 37.068811,17.246167 37.088388,32 37.088388,32 L 22.160133,31.978069 C 22.160133,31.978069 26.997745,27.140456 26.997745,27.140456 C 18.528582,18.264221 13.291696,25.230495 11.500037,31.436501 z"
             style="fill:#404040;"/>
          </a>
         </g>
        </svg>
</svg>
