<?xml version="1.0" encoding="UTF-8" standalone="no"?>
<!DOCTYPE svg PUBLIC "-//W3C//DTD SVG 1.1//EN"
 "http://www.w3.org/Graphics/SVG/1.1/DTD/svg11.dtd">
<!-- Generated by graphviz version 2.38.0 (20140413.2041)
 -->
<!-- Title: populateQuotes Pages: 1 -->
<svg width="414pt" height="219pt"
 viewBox="0.00 0.00 414.00 218.96" xmlns="http://www.w3.org/2000/svg" xmlns:xlink="http://www.w3.org/1999/xlink">
<g id="graph0" class="graph" transform="scale(1 1) rotate(0) translate(4 214.963)">
<title>populateQuotes</title>
<!-- Node1 -->
<g id="node1" class="node"><title>Node1</title>
<g id="a_node1"><a xlink:title="Populate the quotes vector.">
<polygon fill="#999999" stroke="#666666" points="85,-129 0,-129 0,-110 85,-110 85,-129"/>
<text text-anchor="middle" x="42.5" y="-117" font-family="Helvetica,sans-Serif" font-size="10.00">populateQuotes</text>
</a>
</g>
</g>
<!-- Node2 -->
<g id="node2" class="node"><title>Node2</title>
<g id="a_node2"><a xlink:href="classore_1_1data_1_1_cap_floor_volatility_curve_config.html#a14dac022d83c5fa9597e6344199a41b6" target="_top" xlink:title=" ">
<polygon fill="white" stroke="#666666" points="210.5,-185 156.5,-185 156.5,-166 210.5,-166 210.5,-185"/>
<text text-anchor="middle" x="183.5" y="-173" font-family="Helvetica,sans-Serif" font-size="10.00">currency</text>
</a>
</g>
</g>
<!-- Node1&#45;&gt;Node2 -->
<g id="edge1" class="edge"><title>Node1&#45;&gt;Node2</title>
<path fill="none" stroke="#63b8ff" d="M60.9662,-129.138C76.4259,-137.406 99.7664,-149.257 121,-157.5 129.2,-160.683 138.2,-163.617 146.725,-166.152"/>
<polygon fill="#63b8ff" stroke="#63b8ff" points="145.861,-169.545 156.438,-168.935 147.789,-162.816 145.861,-169.545"/>
</g>
<!-- Node3 -->
<g id="node3" class="node"><title>Node3</title>
<g id="a_node3"><a xlink:href="classore_1_1data_1_1_cap_floor_volatility_curve_config.html#a144bd46c24138b26c36e809506da032c" target="_top" xlink:title=" ">
<polygon fill="white" stroke="#666666" points="364,-203 324,-203 324,-184 364,-184 364,-203"/>
<text text-anchor="middle" x="344" y="-191" font-family="Helvetica,sans-Serif" font-size="10.00">index</text>
</a>
</g>
</g>
<!-- Node1&#45;&gt;Node3 -->
<g id="edge5" class="edge"><title>Node1&#45;&gt;Node3</title>
<path fill="none" stroke="#63b8ff" d="M49.7218,-129.224C61.3057,-146.306 88.0226,-181.156 121,-194.5 185.858,-220.744 270.363,-209.266 314.038,-200.367"/>
<polygon fill="#63b8ff" stroke="#63b8ff" points="314.928,-203.756 323.975,-198.241 313.464,-196.91 314.928,-203.756"/>
</g>
<!-- Node5 -->
<g id="node5" class="node"><title>Node5</title>
<g id="a_node5"><a xlink:href="classore_1_1data_1_1_cap_floor_volatility_curve_config.html#ab8232591b187e0531befdd629d974bc0" target="_top" xlink:title=" ">
<polygon fill="white" stroke="#666666" points="215.5,-148 151.5,-148 151.5,-129 215.5,-129 215.5,-148"/>
<text text-anchor="middle" x="183.5" y="-136" font-family="Helvetica,sans-Serif" font-size="10.00">indexTenor</text>
</a>
</g>
</g>
<!-- Node1&#45;&gt;Node5 -->
<g id="edge6" class="edge"><title>Node1&#45;&gt;Node5</title>
<path fill="none" stroke="#63b8ff" d="M85.2046,-125.201C102.986,-127.631 123.674,-130.459 141.39,-132.881"/>
<polygon fill="#63b8ff" stroke="#63b8ff" points="141.051,-136.367 151.433,-134.253 141.999,-129.431 141.051,-136.367"/>
</g>
<!-- Node6 -->
<g id="node6" class="node"><title>Node6</title>
<g id="a_node6"><a xlink:href="classore_1_1data_1_1_cap_floor_volatility_curve_config.html#a4e32f19694db4479f654b95ba0cd67b2" target="_top" xlink:title=" ">
<polygon fill="white" stroke="#666666" points="246,-111 121,-111 121,-92 246,-92 246,-111"/>
<text text-anchor="middle" x="183.5" y="-99" font-family="Helvetica,sans-Serif" font-size="10.00">quoteIncludesIndexName</text>
</a>
</g>
</g>
<!-- Node1&#45;&gt;Node6 -->
<g id="edge9" class="edge"><title>Node1&#45;&gt;Node6</title>
<path fill="none" stroke="#63b8ff" d="M85.2046,-114.099C93.2513,-113.057 101.893,-111.938 110.586,-110.813"/>
<polygon fill="#63b8ff" stroke="#63b8ff" points="111.312,-114.248 120.78,-109.493 110.413,-107.306 111.312,-114.248"/>
</g>
<!-- Node7 -->
<g id="node7" class="node"><title>Node7</title>
<g id="a_node7"><a xlink:href="classore_1_1data_1_1_cap_floor_volatility_curve_config.html#a0364de76264e886fcfb3896300700701" target="_top" xlink:title=" ">
<polygon fill="white" stroke="#666666" points="214.5,-74 152.5,-74 152.5,-55 214.5,-55 214.5,-74"/>
<text text-anchor="middle" x="183.5" y="-62" font-family="Helvetica,sans-Serif" font-size="10.00">quoteType</text>
</a>
</g>
</g>
<!-- Node1&#45;&gt;Node7 -->
<g id="edge10" class="edge"><title>Node1&#45;&gt;Node7</title>
<path fill="none" stroke="#63b8ff" d="M62.3001,-109.894C77.8067,-102.184 100.507,-91.3836 121,-83.5 127.884,-80.8518 135.306,-78.3062 142.531,-75.9863"/>
<polygon fill="#63b8ff" stroke="#63b8ff" points="143.687,-79.292 152.193,-72.9743 141.604,-72.6092 143.687,-79.292"/>
</g>
<!-- Node8 -->
<g id="node8" class="node"><title>Node8</title>
<g id="a_node8"><a xlink:href="namespaceore_1_1data.html#a86651dfeb5c18ee891f7a4734d8cf455" target="_top" xlink:title=" ">
<polygon fill="white" stroke="#666666" points="232.5,-19 134.5,-19 134.5,-0 232.5,-0 232.5,-19"/>
<text text-anchor="middle" x="183.5" y="-7" font-family="Helvetica,sans-Serif" font-size="10.00">ore::data::to_string</text>
</a>
</g>
</g>
<!-- Node1&#45;&gt;Node8 -->
<g id="edge11" class="edge"><title>Node1&#45;&gt;Node8</title>
<path fill="none" stroke="#63b8ff" d="M52.4059,-109.634C66.1984,-94.6847 93.9633,-65.881 121,-45.5 131.392,-37.6664 143.627,-30.1924 154.436,-24.1051"/>
<polygon fill="#63b8ff" stroke="#63b8ff" points="156.403,-27.018 163.486,-19.1383 153.035,-20.8814 156.403,-27.018"/>
</g>
<!-- Node2&#45;&gt;Node3 -->
<g id="edge2" class="edge"><title>Node2&#45;&gt;Node3</title>
<path fill="none" stroke="#63b8ff" d="M210.673,-178.472C239.021,-181.692 284.138,-186.815 313.665,-190.169"/>
<polygon fill="#63b8ff" stroke="#63b8ff" points="313.446,-193.666 323.778,-191.317 314.236,-186.711 313.446,-193.666"/>
</g>
<!-- Node4 -->
<g id="node4" class="node"><title>Node4</title>
<g id="a_node4"><a xlink:href="group__utilities.html#ga2d18ab5807f92319c9db2c13f4904738" target="_top" xlink:title="Convert std::string to QuantLib::IborIndex.">
<polygon fill="white" stroke="#666666" points="406,-148 282,-148 282,-129 406,-129 406,-148"/>
<text text-anchor="middle" x="344" y="-136" font-family="Helvetica,sans-Serif" font-size="10.00">ore::data::parseIborIndex</text>
</a>
</g>
</g>
<!-- Node2&#45;&gt;Node4 -->
<g id="edge3" class="edge"><title>Node2&#45;&gt;Node4</title>
<path fill="none" stroke="#63b8ff" d="M210.673,-169.39C232.835,-164.217 265.245,-156.651 292.443,-150.302"/>
<polygon fill="#63b8ff" stroke="#63b8ff" points="293.256,-153.706 302.198,-148.025 291.665,-146.89 293.256,-153.706"/>
</g>
<!-- Node4&#45;&gt;Node4 -->
<g id="edge4" class="edge"><title>Node4&#45;&gt;Node4</title>
<path fill="none" stroke="#63b8ff" d="M319.339,-148.083C307.342,-156.734 315.563,-166 344,-166 362.662,-166 372.617,-162.009 373.866,-156.821"/>
<polygon fill="#63b8ff" stroke="#63b8ff" points="376.785,-154.883 368.661,-148.083 370.771,-158.465 376.785,-154.883"/>
</g>
<!-- Node5&#45;&gt;Node3 -->
<g id="edge7" class="edge"><title>Node5&#45;&gt;Node3</title>
<path fill="none" stroke="#63b8ff" d="M215.502,-146.996C225.37,-149.987 236.251,-153.588 246,-157.5 262.602,-164.163 265.356,-168.943 282,-175.5 292.248,-179.537 303.771,-183.161 314.019,-186.081"/>
<polygon fill="#63b8ff" stroke="#63b8ff" points="313.179,-189.479 323.749,-188.755 315.034,-182.73 313.179,-189.479"/>
</g>
<!-- Node5&#45;&gt;Node4 -->
<g id="edge8" class="edge"><title>Node5&#45;&gt;Node4</title>
<path fill="none" stroke="#63b8ff" d="M215.814,-138.5C231.871,-138.5 252.133,-138.5 271.737,-138.5"/>
<polygon fill="#63b8ff" stroke="#63b8ff" points="271.902,-142 281.902,-138.5 271.902,-135 271.902,-142"/>
</g>
<!-- Node8&#45;&gt;Node8 -->
<g id="edge12" class="edge"><title>Node8&#45;&gt;Node8</title>
<path fill="none" stroke="#63b8ff" d="M161.922,-19.0828C151.424,-27.7337 158.617,-37 183.5,-37 199.441,-37 208.121,-33.1971 209.542,-28.1894"/>
<polygon fill="#63b8ff" stroke="#63b8ff" points="212.622,-26.5218 205.078,-19.0828 206.336,-29.6027 212.622,-26.5218"/>
</g>
</g>
</svg>
