<?xml version="1.0" encoding="UTF-8" standalone="no"?>
<!DOCTYPE svg PUBLIC "-//W3C//DTD SVG 1.1//EN"
 "http://www.w3.org/Graphics/SVG/1.1/DTD/svg11.dtd">
<!-- Generated by graphviz version 2.38.0 (20140413.2041)
 -->
<!-- Title: CommodityPositionInstrumentWrapper::engine Pages: 1 -->
<svg width="213pt" height="236pt"
 viewBox="0.00 0.00 213.00 236.00" xmlns="http://www.w3.org/2000/svg" xmlns:xlink="http://www.w3.org/1999/xlink">
<g id="graph0" class="graph" transform="scale(1 1) rotate(0) translate(4 232)">
<title>CommodityPositionInstrumentWrapper::engine</title>
<!-- Node1 -->
<g id="node1" class="node"><title>Node1</title>
<g id="a_node1"><a xlink:title=" ">
<polygon fill="#999999" stroke="#666666" points="177.5,-129 27.5,-129 27.5,-88 177.5,-88 177.5,-129"/>
<text text-anchor="start" x="35.5" y="-117" font-family="Helvetica,sans-Serif" font-size="10.00">{CommodityPositionInstrument</text>
<text text-anchor="middle" x="102.5" y="-106" font-family="Helvetica,sans-Serif" font-size="10.00">Wrapper::engine</text>
<text text-anchor="middle" x="102.5" y="-95" font-family="Helvetica,sans-Serif" font-size="10.00">||}</text>
</a>
</g>
</g>
<!-- Node3 -->
<g id="node3" class="node"><title>Node3</title>
<g id="a_node3"><a xlink:href="classore_1_1data_1_1_commodity_position_instrument_wrapper_engine.html" target="_top" xlink:title=" ">
<polygon fill="white" stroke="#666666" points="177.5,-52 27.5,-52 27.5,-0 177.5,-0 177.5,-52"/>
<text text-anchor="start" x="35.5" y="-40" font-family="Helvetica,sans-Serif" font-size="10.00">{CommodityPositionInstrument</text>
<text text-anchor="middle" x="102.5" y="-29" font-family="Helvetica,sans-Serif" font-size="10.00">WrapperEngine</text>
<text text-anchor="start" x="35.5" y="-18" font-family="Helvetica,sans-Serif" font-size="10.00">||+ calculate()</text>
<text text-anchor="middle" x="102.5" y="-7" font-family="Helvetica,sans-Serif" font-size="10.00">}</text>
</a>
</g>
</g>
<!-- Node1&#45;&gt;Node3 -->
<g id="edge2" class="edge"><title>Node1&#45;&gt;Node3</title>
<path fill="none" stroke="#63b8ff" d="M102.5,-77.492C102.5,-69.1528 102.5,-60.1852 102.5,-52.1551"/>
<polygon fill="none" stroke="#63b8ff" points="99.0001,-77.6011 102.5,-87.6011 106,-77.6012 99.0001,-77.6011"/>
</g>
<!-- Node2 -->
<g id="node2" class="node"><title>Node2</title>
<g id="a_node2"><a xlink:title=" ">
<polygon fill="white" stroke="#666666" points="205,-228 0,-228 0,-165 205,-165 205,-228"/>
<text text-anchor="start" x="8" y="-216" font-family="Helvetica,sans-Serif" font-size="10.00">{GenericEngine&lt; Commodity</text>
<text text-anchor="start" x="8" y="-205" font-family="Helvetica,sans-Serif" font-size="10.00">PositionInstrumentWrapper</text>
<text text-anchor="start" x="8" y="-194" font-family="Helvetica,sans-Serif" font-size="10.00">::arguments, CommodityPositionInstrument</text>
<text text-anchor="middle" x="102.5" y="-183" font-family="Helvetica,sans-Serif" font-size="10.00">Wrapper::results &gt;</text>
<text text-anchor="middle" x="102.5" y="-172" font-family="Helvetica,sans-Serif" font-size="10.00">||}</text>
</a>
</g>
</g>
<!-- Node2&#45;&gt;Node1 -->
<g id="edge1" class="edge"><title>Node2&#45;&gt;Node1</title>
<path fill="none" stroke="#63b8ff" d="M102.5,-154.678C102.5,-145.814 102.5,-136.825 102.5,-129.225"/>
<polygon fill="none" stroke="#63b8ff" points="99.0001,-154.937 102.5,-164.937 106,-154.938 99.0001,-154.937"/>
</g>
</g>
</svg>
