<?xml version="1.0" encoding="UTF-8" standalone="no"?>
<!DOCTYPE svg PUBLIC "-//W3C//DTD SVG 1.1//EN"
 "http://www.w3.org/Graphics/SVG/1.1/DTD/svg11.dtd">
<!-- Generated by graphviz version 2.38.0 (20140413.2041)
 -->
<!-- Title: upfrontDate Pages: 1 -->
<svg width="253pt" height="76pt"
 viewBox="0.00 0.00 253.00 75.50" xmlns="http://www.w3.org/2000/svg" xmlns:xlink="http://www.w3.org/1999/xlink">
<g id="graph0" class="graph" transform="scale(1 1) rotate(0) translate(4 71.5)">
<title>upfrontDate</title>
<!-- Node1 -->
<g id="node1" class="node"><title>Node1</title>
<g id="a_node1"><a xlink:title=" ">
<polygon fill="#999999" stroke="#666666" points="245,-45.5 179,-45.5 179,-26.5 245,-26.5 245,-45.5"/>
<text text-anchor="middle" x="212" y="-33.5" font-family="Helvetica,sans-Serif" font-size="10.00">upfrontDate</text>
</a>
</g>
</g>
<!-- Node2 -->
<g id="node2" class="node"><title>Node2</title>
<g id="a_node2"><a xlink:href="test_2creditdefaultswapdata_8cpp.html#a19aa31e5490270ae1f13f5a1f9920b86" target="_top" xlink:title=" ">
<polygon fill="white" stroke="#666666" points="143,-67.5 0,-67.5 0,-48.5 143,-48.5 143,-67.5"/>
<text text-anchor="middle" x="71.5" y="-55.5" font-family="Helvetica,sans-Serif" font-size="10.00">BOOST_AUTO_TEST_CASE</text>
</a>
</g>
</g>
<!-- Node1&#45;&gt;Node2 -->
<g id="edge1" class="edge"><title>Node1&#45;&gt;Node2</title>
<path fill="none" stroke="#63b8ff" d="M168.74,-42.7128C157.295,-44.5307 144.685,-46.5337 132.468,-48.4744"/>
<polygon fill="#63b8ff" stroke="#63b8ff" points="169.55,-46.1281 178.877,-41.1025 168.452,-39.2147 169.55,-46.1281"/>
</g>
<!-- Node3 -->
<g id="node3" class="node"><title>Node3</title>
<g id="a_node3"><a xlink:href="classore_1_1data_1_1_credit_default_swap.html#af7b69d5b18d278257927e32b10a23ee6" target="_top" xlink:title=" ">
<polygon fill="white" stroke="#666666" points="129.5,-30 13.5,-30 13.5,-0 129.5,-0 129.5,-30"/>
<text text-anchor="start" x="21.5" y="-18" font-family="Helvetica,sans-Serif" font-size="10.00">ore::data::CreditDefault</text>
<text text-anchor="middle" x="71.5" y="-7" font-family="Helvetica,sans-Serif" font-size="10.00">Swap::build</text>
</a>
</g>
</g>
<!-- Node1&#45;&gt;Node3 -->
<g id="edge2" class="edge"><title>Node1&#45;&gt;Node3</title>
<path fill="none" stroke="#63b8ff" d="M168.873,-29.6125C156.53,-27.741 142.822,-25.6625 129.708,-23.6741"/>
<polygon fill="#63b8ff" stroke="#63b8ff" points="168.465,-33.0906 178.877,-31.1294 169.515,-26.1698 168.465,-33.0906"/>
</g>
</g>
</svg>
