<?xml version="1.0" encoding="UTF-8" standalone="no"?>
<!DOCTYPE svg PUBLIC "-//W3C//DTD SVG 1.1//EN"
 "http://www.w3.org/Graphics/SVG/1.1/DTD/svg11.dtd">
<!-- Generated by graphviz version 2.38.0 (20140413.2041)
 -->
<!-- Title: currency Pages: 1 -->
<svg width="241pt" height="76pt"
 viewBox="0.00 0.00 241.00 75.50" xmlns="http://www.w3.org/2000/svg" xmlns:xlink="http://www.w3.org/1999/xlink">
<g id="graph0" class="graph" transform="scale(1 1) rotate(0) translate(4 71.5)">
<title>currency</title>
<!-- Node1 -->
<g id="node1" class="node"><title>Node1</title>
<g id="a_node1"><a xlink:title=" ">
<polygon fill="#999999" stroke="#666666" points="233,-45.5 179,-45.5 179,-26.5 233,-26.5 233,-45.5"/>
<text text-anchor="middle" x="206" y="-33.5" font-family="Helvetica,sans-Serif" font-size="10.00">currency</text>
</a>
</g>
</g>
<!-- Node2 -->
<g id="node2" class="node"><title>Node2</title>
<g id="a_node2"><a xlink:href="test_2commoditycurveconfig_8cpp.html#a211329d4e6d8e3d23c39ccee40f56f99" target="_top" xlink:title=" ">
<polygon fill="white" stroke="#666666" points="143,-67.5 0,-67.5 0,-48.5 143,-48.5 143,-67.5"/>
<text text-anchor="middle" x="71.5" y="-55.5" font-family="Helvetica,sans-Serif" font-size="10.00">BOOST_AUTO_TEST_CASE</text>
</a>
</g>
</g>
<!-- Node1&#45;&gt;Node2 -->
<g id="edge1" class="edge"><title>Node1&#45;&gt;Node2</title>
<path fill="none" stroke="#63b8ff" d="M168.75,-42.0188C156.739,-44.0131 143.06,-46.2843 129.861,-48.4759"/>
<polygon fill="#63b8ff" stroke="#63b8ff" points="169.531,-45.4373 178.822,-40.3465 168.384,-38.5318 169.531,-45.4373"/>
</g>
<!-- Node3 -->
<g id="node3" class="node"><title>Node3</title>
<g id="a_node3"><a xlink:href="classore_1_1data_1_1_commodity_curve.html#a771e0386d3a147f22a46b810d82f4fd3" target="_top" xlink:title="Build commodity piecewise price curve.">
<polygon fill="white" stroke="#666666" points="138.5,-30 4.5,-30 4.5,-0 138.5,-0 138.5,-30"/>
<text text-anchor="start" x="12.5" y="-18" font-family="Helvetica,sans-Serif" font-size="10.00">ore::data::CommodityCurve</text>
<text text-anchor="middle" x="71.5" y="-7" font-family="Helvetica,sans-Serif" font-size="10.00">::buildPiecewiseCurve</text>
</a>
</g>
</g>
<!-- Node1&#45;&gt;Node3 -->
<g id="edge2" class="edge"><title>Node1&#45;&gt;Node3</title>
<path fill="none" stroke="#63b8ff" d="M168.758,-30.256C159.417,-28.7755 149.066,-27.135 138.717,-25.4947"/>
<polygon fill="#63b8ff" stroke="#63b8ff" points="168.398,-33.7425 178.822,-31.8511 169.493,-26.8288 168.398,-33.7425"/>
</g>
</g>
</svg>
