<?xml version="1.0" encoding="UTF-8" standalone="no"?>
<!DOCTYPE svg PUBLIC "-//W3C//DTD SVG 1.1//EN"
 "http://www.w3.org/Graphics/SVG/1.1/DTD/svg11.dtd">
<!-- Generated by graphviz version 2.38.0 (20140413.2041)
 -->
<!-- Title: addPremiums Pages: 1 -->
<svg width="648pt" height="1155pt"
 viewBox="0.00 0.00 648.00 1155.00" xmlns="http://www.w3.org/2000/svg" xmlns:xlink="http://www.w3.org/1999/xlink">
<g id="graph0" class="graph" transform="scale(1 1) rotate(0) translate(4 1151)">
<title>addPremiums</title>
<!-- Node1 -->
<g id="node1" class="node"><title>Node1</title>
<g id="a_node1"><a xlink:title=" ">
<polygon fill="#999999" stroke="#666666" points="640,-570.5 563,-570.5 563,-551.5 640,-551.5 640,-570.5"/>
<text text-anchor="middle" x="601.5" y="-558.5" font-family="Helvetica,sans-Serif" font-size="10.00">addPremiums</text>
</a>
</g>
</g>
<!-- Node2 -->
<g id="node2" class="node"><title>Node2</title>
<g id="a_node2"><a xlink:href="classore_1_1data_1_1_credit_default_swap_option.html#a03d83d5501bba8ba1503f4f7eb6f5d0d" target="_top" xlink:title="Add the premium payment.">
<polygon fill="white" stroke="#666666" points="519.5,-1142 389.5,-1142 389.5,-1112 519.5,-1112 519.5,-1142"/>
<text text-anchor="start" x="397.5" y="-1130" font-family="Helvetica,sans-Serif" font-size="10.00">ore::data::CreditDefault</text>
<text text-anchor="middle" x="454.5" y="-1119" font-family="Helvetica,sans-Serif" font-size="10.00">SwapOption::addPremium</text>
</a>
</g>
</g>
<!-- Node1&#45;&gt;Node2 -->
<g id="edge1" class="edge"><title>Node1&#45;&gt;Node2</title>
<path fill="none" stroke="#63b8ff" d="M600.367,-580.792C599.406,-667.716 591.525,-1014.99 527,-1098 522.561,-1103.71 516.813,-1108.3 510.506,-1111.99"/>
<polygon fill="#63b8ff" stroke="#63b8ff" points="603.867,-580.737 600.459,-570.705 596.868,-580.673 603.867,-580.737"/>
</g>
<!-- Node3 -->
<g id="node3" class="node"><title>Node3</title>
<g id="a_node3"><a xlink:href="classore_1_1data_1_1_credit_default_swap_option.html#aa9c90b7ee208adbdd179cee9d098d557" target="_top" xlink:title="Build instrument given that default has occurred.">
<polygon fill="white" stroke="#666666" points="339.5,-1099 203.5,-1099 203.5,-1069 339.5,-1069 339.5,-1099"/>
<text text-anchor="start" x="211.5" y="-1087" font-family="Helvetica,sans-Serif" font-size="10.00">ore::data::CreditDefault</text>
<text text-anchor="middle" x="271.5" y="-1076" font-family="Helvetica,sans-Serif" font-size="10.00">SwapOption::buildDefaulted</text>
</a>
</g>
</g>
<!-- Node1&#45;&gt;Node3 -->
<g id="edge48" class="edge"><title>Node1&#45;&gt;Node3</title>
<path fill="none" stroke="#63b8ff" d="M600.748,-580.888C601.362,-665.945 599.046,-997.848 527,-1065 500.747,-1089.47 405.805,-1090.58 339.622,-1088.09"/>
<polygon fill="#63b8ff" stroke="#63b8ff" points="604.247,-580.739 600.652,-570.773 597.247,-580.806 604.247,-580.739"/>
</g>
<!-- Node6 -->
<g id="node6" class="node"><title>Node6</title>
<g id="a_node6"><a xlink:href="classore_1_1data_1_1_asian_option.html#a9c636e31b77522b708a0b20e376209aa" target="_top" xlink:title="Build QuantLib/QuantExt instrument, link pricing engine.">
<polygon fill="white" stroke="#666666" points="511.5,-1056 397.5,-1056 397.5,-1026 511.5,-1026 511.5,-1056"/>
<text text-anchor="start" x="405.5" y="-1044" font-family="Helvetica,sans-Serif" font-size="10.00">ore::data::AsianOption</text>
<text text-anchor="middle" x="454.5" y="-1033" font-family="Helvetica,sans-Serif" font-size="10.00">::build</text>
</a>
</g>
</g>
<!-- Node1&#45;&gt;Node6 -->
<g id="edge6" class="edge"><title>Node1&#45;&gt;Node6</title>
<path fill="none" stroke="#63b8ff" d="M599.956,-580.825C597.405,-659.61 584.221,-949.529 527,-1017 522.765,-1021.99 517.458,-1025.95 511.657,-1029.09"/>
<polygon fill="#63b8ff" stroke="#63b8ff" points="603.455,-580.886 600.259,-570.785 596.459,-580.675 603.455,-580.886"/>
</g>
<!-- Node7 -->
<g id="node7" class="node"><title>Node7</title>
<g id="a_node7"><a xlink:href="classore_1_1data_1_1_cap_floor.html#a9c636e31b77522b708a0b20e376209aa" target="_top" xlink:title=" ">
<polygon fill="white" stroke="#666666" points="504.5,-1008 404.5,-1008 404.5,-978 504.5,-978 504.5,-1008"/>
<text text-anchor="start" x="412.5" y="-996" font-family="Helvetica,sans-Serif" font-size="10.00">ore::data::CapFloor</text>
<text text-anchor="middle" x="454.5" y="-985" font-family="Helvetica,sans-Serif" font-size="10.00">::build</text>
</a>
</g>
</g>
<!-- Node1&#45;&gt;Node7 -->
<g id="edge7" class="edge"><title>Node1&#45;&gt;Node7</title>
<path fill="none" stroke="#63b8ff" d="M599.53,-581.051C595.577,-654.765 578.367,-909.551 527,-969 521.093,-975.836 513.176,-980.731 504.762,-984.234"/>
<polygon fill="#63b8ff" stroke="#63b8ff" points="603.037,-580.999 600.054,-570.833 596.047,-580.64 603.037,-580.999"/>
</g>
<!-- Node8 -->
<g id="node8" class="node"><title>Node8</title>
<g id="a_node8"><a xlink:href="classore_1_1data_1_1_equity_digital_option.html#a9c636e31b77522b708a0b20e376209aa" target="_top" xlink:title="Build QuantLib/QuantExt instrument, link pricing engine.">
<polygon fill="white" stroke="#666666" points="512.5,-960 396.5,-960 396.5,-930 512.5,-930 512.5,-960"/>
<text text-anchor="start" x="404.5" y="-948" font-family="Helvetica,sans-Serif" font-size="10.00">ore::data::EquityDigital</text>
<text text-anchor="middle" x="454.5" y="-937" font-family="Helvetica,sans-Serif" font-size="10.00">Option::build</text>
</a>
</g>
</g>
<!-- Node1&#45;&gt;Node8 -->
<g id="edge8" class="edge"><title>Node1&#45;&gt;Node8</title>
<path fill="none" stroke="#63b8ff" d="M599.021,-580.837C593.59,-648.577 572.643,-869.395 527,-921 522.923,-925.61 517.933,-929.336 512.502,-932.347"/>
<polygon fill="#63b8ff" stroke="#63b8ff" points="602.525,-580.921 599.809,-570.68 595.546,-580.379 602.525,-580.921"/>
</g>
<!-- Node9 -->
<g id="node9" class="node"><title>Node9</title>
<g id="a_node9"><a xlink:href="classore_1_1data_1_1_equity_double_touch_option.html#a9c636e31b77522b708a0b20e376209aa" target="_top" xlink:title="Build QuantLib/QuantExt instrument, link pricing engine.">
<polygon fill="white" stroke="#666666" points="527,-912 382,-912 382,-882 527,-882 527,-912"/>
<text text-anchor="start" x="390" y="-900" font-family="Helvetica,sans-Serif" font-size="10.00">ore::data::EquityDoubleTouch</text>
<text text-anchor="middle" x="454.5" y="-889" font-family="Helvetica,sans-Serif" font-size="10.00">Option::build</text>
</a>
</g>
</g>
<!-- Node1&#45;&gt;Node9 -->
<g id="edge9" class="edge"><title>Node1&#45;&gt;Node9</title>
<path fill="none" stroke="#63b8ff" d="M598.334,-580.929C591.246,-642.671 566.886,-829.244 527,-873 523.913,-876.387 520.333,-879.296 516.454,-881.795"/>
<polygon fill="#63b8ff" stroke="#63b8ff" points="601.853,-580.946 599.488,-570.619 594.897,-580.167 601.853,-580.946"/>
</g>
<!-- Node10 -->
<g id="node10" class="node"><title>Node10</title>
<g id="a_node10"><a xlink:href="classore_1_1data_1_1_equity_european_barrier_option.html#a9c636e31b77522b708a0b20e376209aa" target="_top" xlink:title="Build QuantLib/QuantExt instrument, link pricing engine.">
<polygon fill="white" stroke="#666666" points="519.5,-864 389.5,-864 389.5,-834 519.5,-834 519.5,-864"/>
<text text-anchor="start" x="397.5" y="-852" font-family="Helvetica,sans-Serif" font-size="10.00">ore::data::EquityEuropean</text>
<text text-anchor="middle" x="454.5" y="-841" font-family="Helvetica,sans-Serif" font-size="10.00">BarrierOption::build</text>
</a>
</g>
</g>
<!-- Node1&#45;&gt;Node10 -->
<g id="edge10" class="edge"><title>Node1&#45;&gt;Node10</title>
<path fill="none" stroke="#63b8ff" d="M600.903,-580.772C600.792,-629.162 593.703,-754.713 527,-825 523.755,-828.419 520.009,-831.351 515.967,-833.866"/>
<polygon fill="#63b8ff" stroke="#63b8ff" points="604.403,-580.661 600.823,-570.69 597.403,-580.717 604.403,-580.661"/>
</g>
<!-- Node11 -->
<g id="node11" class="node"><title>Node11</title>
<g id="a_node11"><a xlink:href="classore_1_1data_1_1_equity_option.html#a9c636e31b77522b708a0b20e376209aa" target="_top" xlink:title="Build QuantLib/QuantExt instrument, link pricing engine.">
<polygon fill="white" stroke="#666666" points="330,-493 213,-493 213,-463 330,-463 330,-493"/>
<text text-anchor="start" x="221" y="-481" font-family="Helvetica,sans-Serif" font-size="10.00">ore::data::EquityOption</text>
<text text-anchor="middle" x="271.5" y="-470" font-family="Helvetica,sans-Serif" font-size="10.00">::build</text>
</a>
</g>
</g>
<!-- Node1&#45;&gt;Node11 -->
<g id="edge11" class="edge"><title>Node1&#45;&gt;Node11</title>
<path fill="none" stroke="#63b8ff" d="M588.329,-543.046C575.403,-525.682 553.237,-500.377 527,-489 463.906,-461.642 383.561,-463.461 330.201,-469.106"/>
<polygon fill="#63b8ff" stroke="#63b8ff" points="585.557,-545.186 594.219,-551.286 591.251,-541.116 585.557,-545.186"/>
</g>
<!-- Node13 -->
<g id="node13" class="node"><title>Node13</title>
<g id="a_node13"><a xlink:href="classore_1_1data_1_1_equity_touch_option.html#a9c636e31b77522b708a0b20e376209aa" target="_top" xlink:title="Build QuantLib/QuantExt instrument, link pricing engine.">
<polygon fill="white" stroke="#666666" points="526,-768 383,-768 383,-738 526,-738 526,-768"/>
<text text-anchor="start" x="391" y="-756" font-family="Helvetica,sans-Serif" font-size="10.00">ore::data::EquityTouchOption</text>
<text text-anchor="middle" x="454.5" y="-745" font-family="Helvetica,sans-Serif" font-size="10.00">::build</text>
</a>
</g>
</g>
<!-- Node1&#45;&gt;Node13 -->
<g id="edge13" class="edge"><title>Node1&#45;&gt;Node13</title>
<path fill="none" stroke="#63b8ff" d="M597.215,-580.836C590.41,-615.731 571.522,-688.256 527,-729 523.233,-732.448 518.954,-735.402 514.407,-737.933"/>
<polygon fill="#63b8ff" stroke="#63b8ff" points="600.74,-581.008 599.079,-570.544 593.853,-579.76 600.74,-581.008"/>
</g>
<!-- Node14 -->
<g id="node14" class="node"><title>Node14</title>
<g id="a_node14"><a xlink:href="classore_1_1data_1_1_fx_digital_barrier_option.html#a9c636e31b77522b708a0b20e376209aa" target="_top" xlink:title="Build QuantLib/QuantExt instrument, link pricing engine.">
<polygon fill="white" stroke="#666666" points="518.5,-816 390.5,-816 390.5,-786 518.5,-786 518.5,-816"/>
<text text-anchor="start" x="398.5" y="-804" font-family="Helvetica,sans-Serif" font-size="10.00">ore::data::FxDigitalBarrier</text>
<text text-anchor="middle" x="454.5" y="-793" font-family="Helvetica,sans-Serif" font-size="10.00">Option::build</text>
</a>
</g>
</g>
<!-- Node1&#45;&gt;Node14 -->
<g id="edge14" class="edge"><title>Node1&#45;&gt;Node14</title>
<path fill="none" stroke="#63b8ff" d="M599.442,-580.805C596.131,-622.85 582.534,-721.695 527,-777 523.567,-780.419 519.633,-783.35 515.414,-785.865"/>
<polygon fill="#63b8ff" stroke="#63b8ff" points="602.939,-580.963 600.118,-570.75 595.955,-580.493 602.939,-580.963"/>
</g>
<!-- Node16 -->
<g id="node16" class="node"><title>Node16</title>
<g id="a_node16"><a xlink:href="classore_1_1data_1_1_fx_digital_option.html#a9c636e31b77522b708a0b20e376209aa" target="_top" xlink:title="Build QuantLib/QuantExt instrument, link pricing engine.">
<polygon fill="white" stroke="#666666" points="518.5,-720 390.5,-720 390.5,-690 518.5,-690 518.5,-720"/>
<text text-anchor="start" x="398.5" y="-708" font-family="Helvetica,sans-Serif" font-size="10.00">ore::data::FxDigitalOption</text>
<text text-anchor="middle" x="454.5" y="-697" font-family="Helvetica,sans-Serif" font-size="10.00">::build</text>
</a>
</g>
</g>
<!-- Node1&#45;&gt;Node16 -->
<g id="edge16" class="edge"><title>Node1&#45;&gt;Node16</title>
<path fill="none" stroke="#63b8ff" d="M593.581,-580.292C583.148,-606.722 560.929,-653.979 527,-681 522.698,-684.426 517.883,-687.374 512.84,-689.908"/>
<polygon fill="#63b8ff" stroke="#63b8ff" points="596.959,-581.253 597.222,-570.662 590.411,-578.778 596.959,-581.253"/>
</g>
<!-- Node18 -->
<g id="node18" class="node"><title>Node18</title>
<g id="a_node18"><a xlink:href="classore_1_1data_1_1_fx_double_touch_option.html#a9c636e31b77522b708a0b20e376209aa" target="_top" xlink:title="Build QuantLib/QuantExt instrument, link pricing engine.">
<polygon fill="white" stroke="#666666" points="518.5,-672 390.5,-672 390.5,-642 518.5,-642 518.5,-672"/>
<text text-anchor="start" x="398.5" y="-660" font-family="Helvetica,sans-Serif" font-size="10.00">ore::data::FxDoubleTouch</text>
<text text-anchor="middle" x="454.5" y="-649" font-family="Helvetica,sans-Serif" font-size="10.00">Option::build</text>
</a>
</g>
</g>
<!-- Node1&#45;&gt;Node18 -->
<g id="edge18" class="edge"><title>Node1&#45;&gt;Node18</title>
<path fill="none" stroke="#63b8ff" d="M586.297,-578.948C572.647,-595.121 550.65,-618.517 527,-633 521.528,-636.351 515.532,-639.298 509.412,-641.873"/>
<polygon fill="#63b8ff" stroke="#63b8ff" points="589.339,-580.759 592.98,-570.809 583.929,-576.317 589.339,-580.759"/>
</g>
<!-- Node20 -->
<g id="node20" class="node"><title>Node20</title>
<g id="a_node20"><a xlink:href="classore_1_1data_1_1_fx_european_barrier_option.html#a9c636e31b77522b708a0b20e376209aa" target="_top" xlink:title="Build QuantLib/QuantExt instrument, link pricing engine.">
<polygon fill="white" stroke="#666666" points="525.5,-624 383.5,-624 383.5,-594 525.5,-594 525.5,-624"/>
<text text-anchor="start" x="391.5" y="-612" font-family="Helvetica,sans-Serif" font-size="10.00">ore::data::FxEuropeanBarrier</text>
<text text-anchor="middle" x="454.5" y="-601" font-family="Helvetica,sans-Serif" font-size="10.00">Option::build</text>
</a>
</g>
</g>
<!-- Node1&#45;&gt;Node20 -->
<g id="edge20" class="edge"><title>Node1&#45;&gt;Node20</title>
<path fill="none" stroke="#63b8ff" d="M561.833,-573.8C543.123,-579.994 520.538,-587.47 501.003,-593.937"/>
<polygon fill="#63b8ff" stroke="#63b8ff" points="563.112,-577.064 571.506,-570.598 560.912,-570.418 563.112,-577.064"/>
</g>
<!-- Node22 -->
<g id="node22" class="node"><title>Node22</title>
<g id="a_node22"><a xlink:href="classore_1_1data_1_1_fx_k_i_k_o_barrier_option.html#a9c636e31b77522b708a0b20e376209aa" target="_top" xlink:title="Build QuantLib/QuantExt instrument, link pricing engine.">
<polygon fill="white" stroke="#666666" points="516.5,-576 392.5,-576 392.5,-546 516.5,-546 516.5,-576"/>
<text text-anchor="start" x="400.5" y="-564" font-family="Helvetica,sans-Serif" font-size="10.00">ore::data::FxKIKOBarrier</text>
<text text-anchor="middle" x="454.5" y="-553" font-family="Helvetica,sans-Serif" font-size="10.00">Option::build</text>
</a>
</g>
</g>
<!-- Node1&#45;&gt;Node22 -->
<g id="edge22" class="edge"><title>Node1&#45;&gt;Node22</title>
<path fill="none" stroke="#63b8ff" d="M552.529,-561C541.038,-561 528.615,-561 516.619,-561"/>
<polygon fill="#63b8ff" stroke="#63b8ff" points="552.782,-564.5 562.781,-561 552.781,-557.5 552.782,-564.5"/>
</g>
<!-- Node24 -->
<g id="node24" class="node"><title>Node24</title>
<g id="a_node24"><a xlink:href="classore_1_1data_1_1_fx_touch_option.html#a9c636e31b77522b708a0b20e376209aa" target="_top" xlink:title="Build QuantLib/QuantExt instrument, link pricing engine.">
<polygon fill="white" stroke="#666666" points="518,-528 391,-528 391,-498 518,-498 518,-528"/>
<text text-anchor="start" x="399" y="-516" font-family="Helvetica,sans-Serif" font-size="10.00">ore::data::FxTouchOption</text>
<text text-anchor="middle" x="454.5" y="-505" font-family="Helvetica,sans-Serif" font-size="10.00">::build</text>
</a>
</g>
</g>
<!-- Node1&#45;&gt;Node24 -->
<g id="edge24" class="edge"><title>Node1&#45;&gt;Node24</title>
<path fill="none" stroke="#63b8ff" d="M561.833,-548.2C543.123,-542.006 520.538,-534.53 501.003,-528.063"/>
<polygon fill="#63b8ff" stroke="#63b8ff" points="560.912,-551.582 571.506,-551.402 563.112,-544.936 560.912,-551.582"/>
</g>
<!-- Node26 -->
<g id="node26" class="node"><title>Node26</title>
<g id="a_node26"><a xlink:href="classore_1_1data_1_1_index_credit_default_swap_option.html#a9c636e31b77522b708a0b20e376209aa" target="_top" xlink:title=" ">
<polygon fill="white" stroke="#666666" points="524.5,-442 384.5,-442 384.5,-412 524.5,-412 524.5,-442"/>
<text text-anchor="start" x="392.5" y="-430" font-family="Helvetica,sans-Serif" font-size="10.00">ore::data::IndexCreditDefault</text>
<text text-anchor="middle" x="454.5" y="-419" font-family="Helvetica,sans-Serif" font-size="10.00">SwapOption::build</text>
</a>
</g>
</g>
<!-- Node1&#45;&gt;Node26 -->
<g id="edge26" class="edge"><title>Node1&#45;&gt;Node26</title>
<path fill="none" stroke="#63b8ff" d="M591.54,-542.047C579.719,-518.869 556.866,-479.793 527,-456 520.085,-450.491 511.983,-445.895 503.766,-442.108"/>
<polygon fill="#63b8ff" stroke="#63b8ff" points="588.488,-543.772 596.051,-551.192 594.766,-540.675 588.488,-543.772"/>
</g>
<!-- Node27 -->
<g id="node27" class="node"><title>Node27</title>
<g id="a_node27"><a xlink:href="classore_1_1data_1_1_swaption.html#a9c636e31b77522b708a0b20e376209aa" target="_top" xlink:title=" ">
<polygon fill="white" stroke="#666666" points="322,-217 221,-217 221,-187 322,-187 322,-217"/>
<text text-anchor="start" x="229" y="-205" font-family="Helvetica,sans-Serif" font-size="10.00">ore::data::Swaption</text>
<text text-anchor="middle" x="271.5" y="-194" font-family="Helvetica,sans-Serif" font-size="10.00">::build</text>
</a>
</g>
</g>
<!-- Node1&#45;&gt;Node27 -->
<g id="edge27" class="edge"><title>Node1&#45;&gt;Node27</title>
<path fill="none" stroke="#63b8ff" d="M599.222,-540.99C594.543,-474.636 575.989,-263.639 527,-221 497.464,-195.293 387.395,-196.026 322.077,-198.944"/>
<polygon fill="#63b8ff" stroke="#63b8ff" points="595.753,-541.568 599.918,-551.31 602.737,-541.097 595.753,-541.568"/>
</g>
<!-- Node29 -->
<g id="node29" class="node"><title>Node29</title>
<g id="a_node29"><a xlink:href="classore_1_1data_1_1_vanilla_option_trade.html#a9c636e31b77522b708a0b20e376209aa" target="_top" xlink:title="Build QuantLib/QuantExt instrument, link pricing engine.">
<polygon fill="white" stroke="#666666" points="514,-394 395,-394 395,-364 514,-364 514,-394"/>
<text text-anchor="start" x="403" y="-382" font-family="Helvetica,sans-Serif" font-size="10.00">ore::data::VanillaOption</text>
<text text-anchor="middle" x="454.5" y="-371" font-family="Helvetica,sans-Serif" font-size="10.00">Trade::build</text>
</a>
</g>
</g>
<!-- Node1&#45;&gt;Node29 -->
<g id="edge29" class="edge"><title>Node1&#45;&gt;Node29</title>
<path fill="none" stroke="#63b8ff" d="M596.644,-541.383C589.115,-508.189 569.346,-440.867 527,-403 523.193,-399.596 518.887,-396.672 514.322,-394.161"/>
<polygon fill="#63b8ff" stroke="#63b8ff" points="593.237,-542.189 598.743,-551.241 600.084,-540.731 593.237,-542.189"/>
</g>
<!-- Node35 -->
<g id="node35" class="node"><title>Node35</title>
<g id="a_node35"><a xlink:href="classore_1_1data_1_1_commodity_digital_option.html#a32b57451f66777dd8794b747d0f77224" target="_top" xlink:title="Build underlying instrument and link pricing engine.">
<polygon fill="white" stroke="#666666" points="149,-306 12,-306 12,-276 149,-276 149,-306"/>
<text text-anchor="start" x="20" y="-294" font-family="Helvetica,sans-Serif" font-size="10.00">ore::data::CommodityDigital</text>
<text text-anchor="middle" x="80.5" y="-283" font-family="Helvetica,sans-Serif" font-size="10.00">Option::build</text>
</a>
</g>
</g>
<!-- Node1&#45;&gt;Node35 -->
<g id="edge38" class="edge"><title>Node1&#45;&gt;Node35</title>
<path fill="none" stroke="#63b8ff" d="M599.399,-540.92C596.017,-499.674 582.314,-405.091 527,-355 519.32,-348.045 356.233,-311.627 346,-310 279.618,-299.444 202.923,-294.749 149.269,-292.663"/>
<polygon fill="#63b8ff" stroke="#63b8ff" points="595.918,-541.325 600.105,-551.058 602.901,-540.839 595.918,-541.325"/>
</g>
<!-- Node37 -->
<g id="node37" class="node"><title>Node37</title>
<g id="a_node37"><a xlink:href="classore_1_1data_1_1_scripted_trade.html#a1577b286d4b5031486562798f48ff8b9" target="_top" xlink:title=" ">
<polygon fill="white" stroke="#666666" points="515,-260 394,-260 394,-230 515,-230 515,-260"/>
<text text-anchor="start" x="402" y="-248" font-family="Helvetica,sans-Serif" font-size="10.00">ore::data::ScriptedTrade</text>
<text text-anchor="middle" x="454.5" y="-237" font-family="Helvetica,sans-Serif" font-size="10.00">::build</text>
</a>
</g>
</g>
<!-- Node1&#45;&gt;Node37 -->
<g id="edge39" class="edge"><title>Node1&#45;&gt;Node37</title>
<path fill="none" stroke="#63b8ff" d="M598.003,-541.197C590.2,-482.259 564.535,-309.552 527,-269 523.531,-265.252 519.46,-262.09 515.05,-259.42"/>
<polygon fill="#63b8ff" stroke="#63b8ff" points="594.568,-541.928 599.324,-551.395 601.51,-541.029 594.568,-541.928"/>
</g>
<!-- Node38 -->
<g id="node38" class="node"><title>Node38</title>
<g id="a_node38"><a xlink:href="classore_1_1data_1_1_barrier_option.html#ac998e259f78b98d10df4f18f6d3c9a9a" target="_top" xlink:title="Build QuantLib/QuantExt instrument, link pricing engine.">
<polygon fill="white" stroke="#666666" points="513.5,-126 395.5,-126 395.5,-96 513.5,-96 513.5,-126"/>
<text text-anchor="start" x="403.5" y="-114" font-family="Helvetica,sans-Serif" font-size="10.00">ore::data::BarrierOption</text>
<text text-anchor="middle" x="454.5" y="-103" font-family="Helvetica,sans-Serif" font-size="10.00">::build</text>
</a>
</g>
</g>
<!-- Node1&#45;&gt;Node38 -->
<g id="edge40" class="edge"><title>Node1&#45;&gt;Node38</title>
<path fill="none" stroke="#63b8ff" d="M599.703,-541.065C596.293,-465.449 580.566,-197.458 527,-135 523.249,-130.627 518.676,-127.048 513.673,-124.119"/>
<polygon fill="#63b8ff" stroke="#63b8ff" points="596.225,-541.647 600.149,-551.488 603.218,-541.348 596.225,-541.647"/>
</g>
<!-- Node42 -->
<g id="node42" class="node"><title>Node42</title>
<g id="a_node42"><a xlink:href="classore_1_1data_1_1_commodity_option_strip.html#a89d2212a4c2a5285712c7f33b7414913" target="_top" xlink:title="Build an average price option strip.">
<polygon fill="white" stroke="#666666" points="524,-30 385,-30 385,-0 524,-0 524,-30"/>
<text text-anchor="start" x="393" y="-18" font-family="Helvetica,sans-Serif" font-size="10.00">ore::data::CommodityOption</text>
<text text-anchor="middle" x="454.5" y="-7" font-family="Helvetica,sans-Serif" font-size="10.00">Strip::buildAPOs</text>
</a>
</g>
</g>
<!-- Node1&#45;&gt;Node42 -->
<g id="edge44" class="edge"><title>Node1&#45;&gt;Node42</title>
<path fill="none" stroke="#63b8ff" d="M600.4,-540.849C599.572,-454.604 592.153,-117.394 527,-39 524.154,-35.5762 520.804,-32.6385 517.132,-30.1182"/>
<polygon fill="#63b8ff" stroke="#63b8ff" points="596.902,-541.129 600.477,-551.102 603.901,-541.076 596.902,-541.129"/>
</g>
<!-- Node44 -->
<g id="node44" class="node"><title>Node44</title>
<g id="a_node44"><a xlink:href="classore_1_1data_1_1_swaption.html#a1630099401d431e9e330e298ebaf6c12" target="_top" xlink:title="build all other types of Swaptions">
<polygon fill="white" stroke="#666666" points="505,-174 404,-174 404,-144 505,-144 505,-174"/>
<text text-anchor="start" x="412" y="-162" font-family="Helvetica,sans-Serif" font-size="10.00">ore::data::Swaption</text>
<text text-anchor="middle" x="454.5" y="-151" font-family="Helvetica,sans-Serif" font-size="10.00">::buildBermudan</text>
</a>
</g>
</g>
<!-- Node1&#45;&gt;Node44 -->
<g id="edge46" class="edge"><title>Node1&#45;&gt;Node44</title>
<path fill="none" stroke="#63b8ff" d="M599.037,-541.013C593.598,-471.73 572.475,-243.097 527,-188 521.202,-180.975 513.439,-175.636 505.165,-171.583"/>
<polygon fill="#63b8ff" stroke="#63b8ff" points="595.577,-541.667 599.825,-551.373 602.556,-541.136 595.577,-541.667"/>
</g>
<!-- Node45 -->
<g id="node45" class="node"><title>Node45</title>
<g id="a_node45"><a xlink:href="classore_1_1data_1_1_swaption.html#a5c86b989ca674e6b0769d4e01381b9b3" target="_top" xlink:title="build European Vanilla Swaption">
<polygon fill="white" stroke="#666666" points="505,-308 404,-308 404,-278 505,-278 505,-308"/>
<text text-anchor="start" x="412" y="-296" font-family="Helvetica,sans-Serif" font-size="10.00">ore::data::Swaption</text>
<text text-anchor="middle" x="454.5" y="-285" font-family="Helvetica,sans-Serif" font-size="10.00">::buildEuropean</text>
</a>
</g>
</g>
<!-- Node1&#45;&gt;Node45 -->
<g id="edge49" class="edge"><title>Node1&#45;&gt;Node45</title>
<path fill="none" stroke="#63b8ff" d="M599.928,-541.247C597.591,-496.472 585.825,-386.177 527,-322 521.026,-315.483 513.38,-310.398 505.321,-306.441"/>
<polygon fill="#63b8ff" stroke="#63b8ff" points="596.437,-541.531 600.349,-551.377 603.431,-541.24 596.437,-541.531"/>
</g>
<!-- Node46 -->
<g id="node46" class="node"><title>Node46</title>
<g id="a_node46"><a xlink:href="classore_1_1data_1_1_commodity_option_strip.html#a73bce66f3026e1a699a953c28c8f01e3" target="_top" xlink:title="Build a standard option strip.">
<polygon fill="white" stroke="#666666" points="524,-78 385,-78 385,-48 524,-48 524,-78"/>
<text text-anchor="start" x="393" y="-66" font-family="Helvetica,sans-Serif" font-size="10.00">ore::data::CommodityOption</text>
<text text-anchor="middle" x="454.5" y="-55" font-family="Helvetica,sans-Serif" font-size="10.00">Strip::buildStandardOptions</text>
</a>
</g>
</g>
<!-- Node1&#45;&gt;Node46 -->
<g id="edge51" class="edge"><title>Node1&#45;&gt;Node46</title>
<path fill="none" stroke="#63b8ff" d="M600.083,-540.926C598.006,-459.831 586.342,-157.396 527,-87 524.131,-83.5961 520.762,-80.6731 517.078,-78.1631"/>
<polygon fill="#63b8ff" stroke="#63b8ff" points="596.591,-541.315 600.325,-551.231 603.59,-541.151 596.591,-541.315"/>
</g>
<!-- Node2&#45;&gt;Node3 -->
<g id="edge2" class="edge"><title>Node2&#45;&gt;Node3</title>
<path fill="none" stroke="#63b8ff" d="M380.134,-1109.57C365.429,-1106.08 350.097,-1102.43 335.769,-1099.03"/>
<polygon fill="#63b8ff" stroke="#63b8ff" points="379.657,-1113.05 390.195,-1111.96 381.275,-1106.24 379.657,-1113.05"/>
</g>
<!-- Node5 -->
<g id="node5" class="node"><title>Node5</title>
<g id="a_node5"><a xlink:href="classore_1_1data_1_1_credit_default_swap_option.html#a802a461c439c1c5161db1302f2b4cdff" target="_top" xlink:title="Build CDS option given that no default.">
<polygon fill="white" stroke="#666666" points="340,-1147 203,-1147 203,-1117 340,-1117 340,-1147"/>
<text text-anchor="start" x="211" y="-1135" font-family="Helvetica,sans-Serif" font-size="10.00">ore::data::CreditDefault</text>
<text text-anchor="middle" x="271.5" y="-1124" font-family="Helvetica,sans-Serif" font-size="10.00">SwapOption::buildNoDefault</text>
</a>
</g>
</g>
<!-- Node2&#45;&gt;Node5 -->
<g id="edge4" class="edge"><title>Node2&#45;&gt;Node5</title>
<path fill="none" stroke="#63b8ff" d="M379.188,-1129.05C366.268,-1129.41 352.893,-1129.78 340.163,-1130.13"/>
<polygon fill="#63b8ff" stroke="#63b8ff" points="379.532,-1132.54 389.431,-1128.77 379.339,-1125.55 379.532,-1132.54"/>
</g>
<!-- Node4 -->
<g id="node4" class="node"><title>Node4</title>
<g id="a_node4"><a xlink:href="classore_1_1data_1_1_credit_default_swap_option.html#a0acfa862caa19c62c1362c2eb84bcff7" target="_top" xlink:title=" ">
<polygon fill="white" stroke="#666666" points="138.5,-1123 22.5,-1123 22.5,-1093 138.5,-1093 138.5,-1123"/>
<text text-anchor="start" x="30.5" y="-1111" font-family="Helvetica,sans-Serif" font-size="10.00">ore::data::CreditDefault</text>
<text text-anchor="middle" x="80.5" y="-1100" font-family="Helvetica,sans-Serif" font-size="10.00">SwapOption::build</text>
</a>
</g>
</g>
<!-- Node3&#45;&gt;Node4 -->
<g id="edge3" class="edge"><title>Node3&#45;&gt;Node4</title>
<path fill="none" stroke="#63b8ff" d="M193.308,-1093.8C175.066,-1096.12 155.932,-1098.55 138.753,-1100.73"/>
<polygon fill="#63b8ff" stroke="#63b8ff" points="193.854,-1097.26 203.334,-1092.53 192.972,-1090.32 193.854,-1097.26"/>
</g>
<!-- Node5&#45;&gt;Node4 -->
<g id="edge5" class="edge"><title>Node5&#45;&gt;Node4</title>
<path fill="none" stroke="#63b8ff" d="M192.847,-1122.14C174.74,-1119.84 155.781,-1117.43 138.745,-1115.27"/>
<polygon fill="#63b8ff" stroke="#63b8ff" points="192.439,-1125.62 202.8,-1123.4 193.321,-1118.67 192.439,-1125.62"/>
</g>
<!-- Node12 -->
<g id="node12" class="node"><title>Node12</title>
<g id="a_node12"><a xlink:href="equitytrades_8cpp.html#a9157b4f937ae04fa01bdd86ef531a15d" target="_top" xlink:title=" ">
<polygon fill="white" stroke="#666666" points="152,-487.5 9,-487.5 9,-468.5 152,-468.5 152,-487.5"/>
<text text-anchor="middle" x="80.5" y="-475.5" font-family="Helvetica,sans-Serif" font-size="10.00">BOOST_AUTO_TEST_CASE</text>
</a>
</g>
</g>
<!-- Node11&#45;&gt;Node12 -->
<g id="edge12" class="edge"><title>Node11&#45;&gt;Node12</title>
<path fill="none" stroke="#63b8ff" d="M202.724,-478C186.321,-478 168.747,-478 152.213,-478"/>
<polygon fill="#63b8ff" stroke="#63b8ff" points="202.767,-481.5 212.767,-478 202.767,-474.5 202.767,-481.5"/>
</g>
<!-- Node15 -->
<g id="node15" class="node"><title>Node15</title>
<g id="a_node15"><a xlink:href="fxexotics_8cpp.html#a1bb3d76e35ea3c22bb6f167cc5a2a9fa" target="_top" xlink:title=" ">
<polygon fill="white" stroke="#666666" points="343,-810.5 200,-810.5 200,-791.5 343,-791.5 343,-810.5"/>
<text text-anchor="middle" x="271.5" y="-798.5" font-family="Helvetica,sans-Serif" font-size="10.00">BOOST_AUTO_TEST_CASE</text>
</a>
</g>
</g>
<!-- Node14&#45;&gt;Node15 -->
<g id="edge15" class="edge"><title>Node14&#45;&gt;Node15</title>
<path fill="none" stroke="#63b8ff" d="M380.261,-801C367.984,-801 355.267,-801 343.059,-801"/>
<polygon fill="#63b8ff" stroke="#63b8ff" points="380.449,-804.5 390.449,-801 380.449,-797.5 380.449,-804.5"/>
</g>
<!-- Node17 -->
<g id="node17" class="node"><title>Node17</title>
<g id="a_node17"><a xlink:href="fxexotics_8cpp.html#a993c04d1a18186e1d5aa009deb6b02d1" target="_top" xlink:title=" ">
<polygon fill="white" stroke="#666666" points="343,-714.5 200,-714.5 200,-695.5 343,-695.5 343,-714.5"/>
<text text-anchor="middle" x="271.5" y="-702.5" font-family="Helvetica,sans-Serif" font-size="10.00">BOOST_AUTO_TEST_CASE</text>
</a>
</g>
</g>
<!-- Node16&#45;&gt;Node17 -->
<g id="edge17" class="edge"><title>Node16&#45;&gt;Node17</title>
<path fill="none" stroke="#63b8ff" d="M380.261,-705C367.984,-705 355.267,-705 343.059,-705"/>
<polygon fill="#63b8ff" stroke="#63b8ff" points="380.449,-708.5 390.449,-705 380.449,-701.5 380.449,-708.5"/>
</g>
<!-- Node19 -->
<g id="node19" class="node"><title>Node19</title>
<g id="a_node19"><a xlink:href="fxexotics_8cpp.html#a356626221d09fa0287e4f5d1646ca231" target="_top" xlink:title=" ">
<polygon fill="white" stroke="#666666" points="343,-666.5 200,-666.5 200,-647.5 343,-647.5 343,-666.5"/>
<text text-anchor="middle" x="271.5" y="-654.5" font-family="Helvetica,sans-Serif" font-size="10.00">BOOST_AUTO_TEST_CASE</text>
</a>
</g>
</g>
<!-- Node18&#45;&gt;Node19 -->
<g id="edge19" class="edge"><title>Node18&#45;&gt;Node19</title>
<path fill="none" stroke="#63b8ff" d="M380.261,-657C367.984,-657 355.267,-657 343.059,-657"/>
<polygon fill="#63b8ff" stroke="#63b8ff" points="380.449,-660.5 390.449,-657 380.449,-653.5 380.449,-660.5"/>
</g>
<!-- Node21 -->
<g id="node21" class="node"><title>Node21</title>
<g id="a_node21"><a xlink:href="fxexotics_8cpp.html#acfd93f4169abaf3c0d3541c4a297d9de" target="_top" xlink:title=" ">
<polygon fill="white" stroke="#666666" points="343,-618.5 200,-618.5 200,-599.5 343,-599.5 343,-618.5"/>
<text text-anchor="middle" x="271.5" y="-606.5" font-family="Helvetica,sans-Serif" font-size="10.00">BOOST_AUTO_TEST_CASE</text>
</a>
</g>
</g>
<!-- Node20&#45;&gt;Node21 -->
<g id="edge21" class="edge"><title>Node20&#45;&gt;Node21</title>
<path fill="none" stroke="#63b8ff" d="M373.017,-609C363.111,-609 353.043,-609 343.295,-609"/>
<polygon fill="#63b8ff" stroke="#63b8ff" points="373.262,-612.5 383.262,-609 373.262,-605.5 373.262,-612.5"/>
</g>
<!-- Node23 -->
<g id="node23" class="node"><title>Node23</title>
<g id="a_node23"><a xlink:href="fxexotics_8cpp.html#ae4a8f5fc2a666b87316a20b9716625b7" target="_top" xlink:title=" ">
<polygon fill="white" stroke="#666666" points="343,-570.5 200,-570.5 200,-551.5 343,-551.5 343,-570.5"/>
<text text-anchor="middle" x="271.5" y="-558.5" font-family="Helvetica,sans-Serif" font-size="10.00">BOOST_AUTO_TEST_CASE</text>
</a>
</g>
</g>
<!-- Node22&#45;&gt;Node23 -->
<g id="edge23" class="edge"><title>Node22&#45;&gt;Node23</title>
<path fill="none" stroke="#63b8ff" d="M382.314,-561C369.473,-561 356.088,-561 343.26,-561"/>
<polygon fill="#63b8ff" stroke="#63b8ff" points="382.474,-564.5 392.474,-561 382.474,-557.5 382.474,-564.5"/>
</g>
<!-- Node25 -->
<g id="node25" class="node"><title>Node25</title>
<g id="a_node25"><a xlink:href="fxexotics_8cpp.html#a81ded61bff8d1f143845d1a8063ab363" target="_top" xlink:title=" ">
<polygon fill="white" stroke="#666666" points="343,-530.5 200,-530.5 200,-511.5 343,-511.5 343,-530.5"/>
<text text-anchor="middle" x="271.5" y="-518.5" font-family="Helvetica,sans-Serif" font-size="10.00">BOOST_AUTO_TEST_CASE</text>
</a>
</g>
</g>
<!-- Node24&#45;&gt;Node25 -->
<g id="edge25" class="edge"><title>Node24&#45;&gt;Node25</title>
<path fill="none" stroke="#63b8ff" d="M380.68,-516.219C368.291,-516.766 355.443,-517.334 343.113,-517.879"/>
<polygon fill="#63b8ff" stroke="#63b8ff" points="381.121,-519.703 390.957,-515.764 380.812,-512.709 381.121,-519.703"/>
</g>
<!-- Node28 -->
<g id="node28" class="node"><title>Node28</title>
<g id="a_node28"><a xlink:href="test_2swaption_8cpp.html#a3dba2613c5fc93775620d58ed073e9d9" target="_top" xlink:title=" ">
<polygon fill="white" stroke="#666666" points="152,-211.5 9,-211.5 9,-192.5 152,-192.5 152,-211.5"/>
<text text-anchor="middle" x="80.5" y="-199.5" font-family="Helvetica,sans-Serif" font-size="10.00">BOOST_AUTO_TEST_CASE</text>
</a>
</g>
</g>
<!-- Node27&#45;&gt;Node28 -->
<g id="edge28" class="edge"><title>Node27&#45;&gt;Node28</title>
<path fill="none" stroke="#63b8ff" d="M210.74,-202C192.128,-202 171.428,-202 152.145,-202"/>
<polygon fill="#63b8ff" stroke="#63b8ff" points="210.843,-205.5 220.842,-202 210.842,-198.5 210.843,-205.5"/>
</g>
<!-- Node29&#45;&gt;Node11 -->
<g id="edge32" class="edge"><title>Node29&#45;&gt;Node11</title>
<path fill="none" stroke="#63b8ff" d="M387.87,-399.037C385.841,-400.283 383.877,-401.602 382,-403 359.746,-419.569 368.322,-437.523 346,-454 341.14,-457.587 335.718,-460.655 330.081,-463.275"/>
<polygon fill="#63b8ff" stroke="#63b8ff" points="389.985,-401.873 397.118,-394.038 386.657,-395.715 389.985,-401.873"/>
</g>
<!-- Node30 -->
<g id="node30" class="node"><title>Node30</title>
<g id="a_node30"><a xlink:href="classore_1_1data_1_1_equity_future_option.html#a9c636e31b77522b708a0b20e376209aa" target="_top" xlink:title="Build QuantLib/QuantExt instrument, link pricing engine.">
<polygon fill="white" stroke="#666666" points="344,-397 199,-397 199,-367 344,-367 344,-397"/>
<text text-anchor="start" x="207" y="-385" font-family="Helvetica,sans-Serif" font-size="10.00">ore::data::EquityFutureOption</text>
<text text-anchor="middle" x="271.5" y="-374" font-family="Helvetica,sans-Serif" font-size="10.00">::build</text>
</a>
</g>
</g>
<!-- Node29&#45;&gt;Node30 -->
<g id="edge30" class="edge"><title>Node29&#45;&gt;Node30</title>
<path fill="none" stroke="#63b8ff" d="M384.362,-380.146C371.23,-380.364 357.462,-380.592 344.251,-380.811"/>
<polygon fill="#63b8ff" stroke="#63b8ff" points="384.794,-383.639 394.734,-379.974 384.678,-376.64 384.794,-383.639"/>
</g>
<!-- Node32 -->
<g id="node32" class="node"><title>Node32</title>
<g id="a_node32"><a xlink:href="classore_1_1data_1_1_fx_option.html#a9c636e31b77522b708a0b20e376209aa" target="_top" xlink:title="Build QuantLib/QuantExt instrument, link pricing engine.">
<polygon fill="white" stroke="#666666" points="322,-445 221,-445 221,-415 322,-415 322,-445"/>
<text text-anchor="start" x="229" y="-433" font-family="Helvetica,sans-Serif" font-size="10.00">ore::data::FxOption</text>
<text text-anchor="middle" x="271.5" y="-422" font-family="Helvetica,sans-Serif" font-size="10.00">::build</text>
</a>
</g>
</g>
<!-- Node29&#45;&gt;Node32 -->
<g id="edge33" class="edge"><title>Node29&#45;&gt;Node32</title>
<path fill="none" stroke="#63b8ff" d="M390.413,-396.776C368.016,-403.087 343.146,-410.094 322.041,-416.041"/>
<polygon fill="#63b8ff" stroke="#63b8ff" points="391.497,-400.107 400.173,-394.026 389.599,-393.369 391.497,-400.107"/>
</g>
<!-- Node34 -->
<g id="node34" class="node"><title>Node34</title>
<g id="a_node34"><a xlink:href="classore_1_1data_1_1_commodity_option.html#a32b57451f66777dd8794b747d0f77224" target="_top" xlink:title="Build underlying instrument and link pricing engine.">
<polygon fill="white" stroke="#666666" points="341,-349 202,-349 202,-319 341,-319 341,-349"/>
<text text-anchor="start" x="210" y="-337" font-family="Helvetica,sans-Serif" font-size="10.00">ore::data::CommodityOption</text>
<text text-anchor="middle" x="271.5" y="-326" font-family="Helvetica,sans-Serif" font-size="10.00">::build</text>
</a>
</g>
</g>
<!-- Node29&#45;&gt;Node34 -->
<g id="edge35" class="edge"><title>Node29&#45;&gt;Node34</title>
<path fill="none" stroke="#63b8ff" d="M384.865,-361.936C367.853,-357.706 349.744,-353.204 333.145,-349.077"/>
<polygon fill="#63b8ff" stroke="#63b8ff" points="384.185,-365.374 394.734,-364.39 385.874,-358.58 384.185,-365.374"/>
</g>
<!-- Node31 -->
<g id="node31" class="node"><title>Node31</title>
<g id="a_node31"><a xlink:href="equitytrades_8cpp.html#aa42062877db60fac479ac06add9deb01" target="_top" xlink:title=" ">
<polygon fill="white" stroke="#666666" points="152,-391.5 9,-391.5 9,-372.5 152,-372.5 152,-391.5"/>
<text text-anchor="middle" x="80.5" y="-379.5" font-family="Helvetica,sans-Serif" font-size="10.00">BOOST_AUTO_TEST_CASE</text>
</a>
</g>
</g>
<!-- Node30&#45;&gt;Node31 -->
<g id="edge31" class="edge"><title>Node30&#45;&gt;Node31</title>
<path fill="none" stroke="#63b8ff" d="M188.67,-382C176.535,-382 164.117,-382 152.235,-382"/>
<polygon fill="#63b8ff" stroke="#63b8ff" points="188.778,-385.5 198.778,-382 188.778,-378.5 188.778,-385.5"/>
</g>
<!-- Node33 -->
<g id="node33" class="node"><title>Node33</title>
<g id="a_node33"><a xlink:href="test_2fxoption_8cpp.html#a321417ba3c97d0524c8fa2d8acb97d72" target="_top" xlink:title=" ">
<polygon fill="white" stroke="#666666" points="152,-439.5 9,-439.5 9,-420.5 152,-420.5 152,-439.5"/>
<text text-anchor="middle" x="80.5" y="-427.5" font-family="Helvetica,sans-Serif" font-size="10.00">BOOST_AUTO_TEST_CASE</text>
</a>
</g>
</g>
<!-- Node32&#45;&gt;Node33 -->
<g id="edge34" class="edge"><title>Node32&#45;&gt;Node33</title>
<path fill="none" stroke="#63b8ff" d="M210.74,-430C192.128,-430 171.428,-430 152.145,-430"/>
<polygon fill="#63b8ff" stroke="#63b8ff" points="210.843,-433.5 220.842,-430 210.842,-426.5 210.843,-433.5"/>
</g>
<!-- Node34&#45;&gt;Node35 -->
<g id="edge36" class="edge"><title>Node34&#45;&gt;Node35</title>
<path fill="none" stroke="#63b8ff" d="M194.335,-316.671C178.844,-313.147 162.671,-309.467 147.566,-306.031"/>
<polygon fill="#63b8ff" stroke="#63b8ff" points="193.87,-320.155 204.397,-318.961 195.423,-313.329 193.87,-320.155"/>
</g>
<!-- Node36 -->
<g id="node36" class="node"><title>Node36</title>
<g id="a_node36"><a xlink:href="classore_1_1data_1_1_commodity_average_price_option.html#a56820373aef8756143bb07c7c7c7cf6e" target="_top" xlink:title="Build a standard option.">
<polygon fill="white" stroke="#666666" points="161,-354 0,-354 0,-324 161,-324 161,-354"/>
<text text-anchor="start" x="8" y="-342" font-family="Helvetica,sans-Serif" font-size="10.00">ore::data::CommodityAverage</text>
<text text-anchor="middle" x="80.5" y="-331" font-family="Helvetica,sans-Serif" font-size="10.00">PriceOption::buildStandardOption</text>
</a>
</g>
</g>
<!-- Node34&#45;&gt;Node36 -->
<g id="edge37" class="edge"><title>Node34&#45;&gt;Node36</title>
<path fill="none" stroke="#63b8ff" d="M191.895,-336.08C181.687,-336.35 171.224,-336.626 161.002,-336.897"/>
<polygon fill="#63b8ff" stroke="#63b8ff" points="192.096,-339.576 201.999,-335.812 191.91,-332.578 192.096,-339.576"/>
</g>
<!-- Node39 -->
<g id="node39" class="node"><title>Node39</title>
<g id="a_node39"><a xlink:href="classore_1_1data_1_1_fx_option_with_barrier.html#ad74930c874006b4f9a05c1e210444af8" target="_top" xlink:title=" ">
<polygon fill="white" stroke="#666666" points="346,-100 197,-100 197,-70 346,-70 346,-100"/>
<text text-anchor="start" x="205" y="-88" font-family="Helvetica,sans-Serif" font-size="10.00">ore::data::FxOptionWithBarrier</text>
<text text-anchor="middle" x="271.5" y="-77" font-family="Helvetica,sans-Serif" font-size="10.00">::build</text>
</a>
</g>
</g>
<!-- Node38&#45;&gt;Node39 -->
<g id="edge41" class="edge"><title>Node38&#45;&gt;Node39</title>
<path fill="none" stroke="#63b8ff" d="M385.184,-101.187C372.459,-99.3587 359.111,-97.4413 346.232,-95.5913"/>
<polygon fill="#63b8ff" stroke="#63b8ff" points="384.838,-104.673 395.234,-102.63 385.833,-97.7439 384.838,-104.673"/>
</g>
<!-- Node41 -->
<g id="node41" class="node"><title>Node41</title>
<g id="a_node41"><a xlink:href="classore_1_1data_1_1_equity_option_with_barrier.html#ad74930c874006b4f9a05c1e210444af8" target="_top" xlink:title=" ">
<polygon fill="white" stroke="#666666" points="340,-148 203,-148 203,-118 340,-118 340,-148"/>
<text text-anchor="start" x="211" y="-136" font-family="Helvetica,sans-Serif" font-size="10.00">ore::data::EquityOptionWith</text>
<text text-anchor="middle" x="271.5" y="-125" font-family="Helvetica,sans-Serif" font-size="10.00">Barrier::build</text>
</a>
</g>
</g>
<!-- Node38&#45;&gt;Node41 -->
<g id="edge43" class="edge"><title>Node38&#45;&gt;Node41</title>
<path fill="none" stroke="#63b8ff" d="M385.176,-119.305C370.425,-121.098 354.835,-122.992 340.111,-124.782"/>
<polygon fill="#63b8ff" stroke="#63b8ff" points="385.73,-122.763 395.234,-118.082 384.885,-115.814 385.73,-122.763"/>
</g>
<!-- Node40 -->
<g id="node40" class="node"><title>Node40</title>
<g id="a_node40"><a xlink:href="fxexotics_8cpp.html#a97f1cf85be4712888f153506afc004be" target="_top" xlink:title=" ">
<polygon fill="white" stroke="#666666" points="152,-94.5 9,-94.5 9,-75.5 152,-75.5 152,-94.5"/>
<text text-anchor="middle" x="80.5" y="-82.5" font-family="Helvetica,sans-Serif" font-size="10.00">BOOST_AUTO_TEST_CASE</text>
</a>
</g>
</g>
<!-- Node39&#45;&gt;Node40 -->
<g id="edge42" class="edge"><title>Node39&#45;&gt;Node40</title>
<path fill="none" stroke="#63b8ff" d="M186.791,-85C175.219,-85 163.428,-85 152.124,-85"/>
<polygon fill="#63b8ff" stroke="#63b8ff" points="186.887,-88.5001 196.886,-85 186.886,-81.5001 186.887,-88.5001"/>
</g>
<!-- Node43 -->
<g id="node43" class="node"><title>Node43</title>
<g id="a_node43"><a xlink:href="classore_1_1data_1_1_commodity_option_strip.html#a9af2b9e6d488683123c6e4790595eb2b" target="_top" xlink:title="Implement the build method.">
<polygon fill="white" stroke="#666666" points="341,-41 202,-41 202,-11 341,-11 341,-41"/>
<text text-anchor="start" x="210" y="-29" font-family="Helvetica,sans-Serif" font-size="10.00">ore::data::CommodityOption</text>
<text text-anchor="middle" x="271.5" y="-18" font-family="Helvetica,sans-Serif" font-size="10.00">Strip::build</text>
</a>
</g>
</g>
<!-- Node42&#45;&gt;Node43 -->
<g id="edge45" class="edge"><title>Node42&#45;&gt;Node43</title>
<path fill="none" stroke="#63b8ff" d="M374.651,-19.7919C363.489,-20.4703 352.087,-21.1632 341.14,-21.8285"/>
<polygon fill="#63b8ff" stroke="#63b8ff" points="375.044,-23.2746 384.814,-19.1743 374.62,-16.2875 375.044,-23.2746"/>
</g>
<!-- Node44&#45;&gt;Node27 -->
<g id="edge47" class="edge"><title>Node44&#45;&gt;Node27</title>
<path fill="none" stroke="#63b8ff" d="M393.526,-173.248C370.423,-178.737 344.313,-184.939 322.275,-190.175"/>
<polygon fill="#63b8ff" stroke="#63b8ff" points="394.642,-176.58 403.562,-170.864 393.024,-169.77 394.642,-176.58"/>
</g>
<!-- Node45&#45;&gt;Node27 -->
<g id="edge50" class="edge"><title>Node45&#45;&gt;Node27</title>
<path fill="none" stroke="#63b8ff" d="M394.03,-274.195C389.917,-272.541 385.871,-270.806 382,-269 349.886,-254.02 315.423,-231.802 293.918,-217.116"/>
<polygon fill="#63b8ff" stroke="#63b8ff" points="393.108,-277.59 403.699,-277.899 395.613,-271.053 393.108,-277.59"/>
</g>
<!-- Node46&#45;&gt;Node43 -->
<g id="edge52" class="edge"><title>Node46&#45;&gt;Node43</title>
<path fill="none" stroke="#63b8ff" d="M374.992,-46.9515C363.722,-44.6476 352.199,-42.2921 341.14,-40.0313"/>
<polygon fill="#63b8ff" stroke="#63b8ff" points="374.315,-50.3854 384.814,-48.9591 375.717,-43.5272 374.315,-50.3854"/>
</g>
</g>
</svg>
