<?xml version="1.0" encoding="UTF-8" standalone="no"?>
<!DOCTYPE svg PUBLIC "-//W3C//DTD SVG 1.1//EN"
 "http://www.w3.org/Graphics/SVG/1.1/DTD/svg11.dtd">
<!-- Generated by graphviz version 2.38.0 (20140413.2041)
 -->
<!-- Title: msg Pages: 1 -->
<!--zoomable 109 -->
<svg id="main" version="1.1" xmlns="http://www.w3.org/2000/svg" xmlns:xlink="http://www.w3.org/1999/xlink" xml:space="preserve" onload="init(evt)">
<style type="text/css"><![CDATA[
.edge:hover path { stroke: red; }
.edge:hover polygon { stroke: red; fill: red; }
]]></style>
<script type="text/javascript"><![CDATA[
var edges = document.getElementsByTagName('g');
if (edges && edges.length) {
  for (var i=0;i<edges.length;i++) {
    if (edges[i].id.substr(0,4)=='edge') {
      edges[i].setAttribute('class','edge');
    }
  }
}
]]></script>
        <defs>
                <circle id="rim" cx="0" cy="0" r="7"/>
                <circle id="rim2" cx="0" cy="0" r="3.5"/>
                <g id="zoomPlus">
                        <use xlink:href="#rim" fill="#404040">
                                <set attributeName="fill" to="#808080" begin="zoomplus.mouseover" end="zoomplus.mouseout"/>
                        </use>
                        <path d="M-4,0h8M0,-4v8" fill="none" stroke="white" stroke-width="1.5" pointer-events="none"/>
                </g>
                <g id="zoomMin">
                        <use xlink:href="#rim" fill="#404040">
                                <set attributeName="fill" to="#808080" begin="zoomminus.mouseover" end="zoomminus.mouseout"/>
                        </use>
                        <path d="M-4,0h8" fill="none" stroke="white" stroke-width="1.5" pointer-events="none"/>
                </g>
                <g id="dirArrow">
                        <path fill="none" stroke="white" stroke-width="1.5" d="M0,-3.0v7 M-2.5,-0.5L0,-3.0L2.5,-0.5"/>
                </g>
               <g id="resetDef">
                       <use xlink:href="#rim2" fill="#404040">
                               <set attributeName="fill" to="#808080" begin="reset.mouseover" end="reset.mouseout"/>
                       </use>
               </g>
        </defs>

<script type="text/javascript">
var viewWidth = 735;
var viewHeight = 109;
var sectionId = 'dynsection-2';
</script>
<script xlink:href="svgpan.js"/>
<svg id="graph" class="graph">
<g id="viewport">
<title>msg</title>
<!-- Node1 -->
<g id="node1" class="node"><title>Node1</title>
<g id="a_node1"><a xlink:title="return a std::string for the log file">
<polygon fill="#999999" stroke="#666666" points="35,-46 0,-46 0,-27 35,-27 35,-46"/>
<text text-anchor="middle" x="17.5" y="-34" font-family="Helvetica,sans-Serif" font-size="10.00">msg</text>
</a>
</g>
</g>
<!-- Node2 -->
<g id="node2" class="node"><title>Node2</title>
<g id="a_node2"><a xlink:href="classore_1_1data_1_1_j_s_o_n_message.html#a19cb55ffd43b5e8bf95a157227b3054a" target="_top" xlink:title="create JSON&#45;like output from the data">
<polygon fill="white" stroke="#666666" points="197,-51.5 71,-51.5 71,-21.5 197,-21.5 197,-51.5"/>
<text text-anchor="start" x="79" y="-39.5" font-family="Helvetica,sans-Serif" font-size="10.00">ore::data::JSONMessage</text>
<text text-anchor="middle" x="134" y="-28.5" font-family="Helvetica,sans-Serif" font-size="10.00">::json</text>
</a>
</g>
</g>
<!-- Node1&#45;&gt;Node2 -->
<g id="edge1" class="edge"><title>Node1&#45;&gt;Node2</title>
<path fill="none" stroke="#63b8ff" d="M35.3949,-36.5C42.5511,-36.5 51.419,-36.5 60.8681,-36.5"/>
<polygon fill="#63b8ff" stroke="#63b8ff" points="60.8782,-40.0001 70.8781,-36.5 60.8781,-33.0001 60.8782,-40.0001"/>
</g>
<!-- Node3 -->
<g id="node3" class="node"><title>Node3</title>
<g id="a_node3"><a xlink:href="classore_1_1data_1_1_j_s_o_n_message.html#a211ebfb47581c2cadc6b8a331532623b" target="_top" xlink:title=" ">
<polygon fill="white" stroke="#666666" points="359,-51.5 233,-51.5 233,-21.5 359,-21.5 359,-51.5"/>
<text text-anchor="start" x="241" y="-39.5" font-family="Helvetica,sans-Serif" font-size="10.00">ore::data::JSONMessage</text>
<text text-anchor="middle" x="296" y="-28.5" font-family="Helvetica,sans-Serif" font-size="10.00">::jsonify</text>
</a>
</g>
</g>
<!-- Node2&#45;&gt;Node3 -->
<g id="edge2" class="edge"><title>Node2&#45;&gt;Node3</title>
<path fill="none" stroke="#63b8ff" d="M197.318,-36.5C205.615,-36.5 214.179,-36.5 222.628,-36.5"/>
<polygon fill="#63b8ff" stroke="#63b8ff" points="222.852,-40.0001 232.852,-36.5 222.852,-33.0001 222.852,-40.0001"/>
</g>
<!-- Node3&#45;&gt;Node3 -->
<g id="edge3" class="edge"><title>Node3&#45;&gt;Node3</title>
<path fill="none" stroke="#63b8ff" d="M267.523,-51.7754C261.195,-60.9063 270.688,-69.5 296,-69.5 311.029,-69.5 320.481,-66.4704 324.356,-62.0975"/>
<polygon fill="#63b8ff" stroke="#63b8ff" points="327.859,-61.8156 324.477,-51.7754 320.86,-61.7338 327.859,-61.8156"/>
</g>
<!-- Node4 -->
<g id="node4" class="node"><title>Node4</title>
<g id="a_node4"><a xlink:href="classore_1_1data_1_1_j_s_o_n_message.html#a5e21eca2668ed948bdc409b19a78e5bb" target="_top" xlink:title="generate Boost log record to pass to corresponding sinks">
<polygon fill="white" stroke="#666666" points="540,-74 395,-74 395,-55 540,-55 540,-74"/>
<text text-anchor="middle" x="467.5" y="-62" font-family="Helvetica,sans-Serif" font-size="10.00">ore::data::JSONMessage::log</text>
</a>
</g>
</g>
<!-- Node3&#45;&gt;Node4 -->
<g id="edge4" class="edge"><title>Node3&#45;&gt;Node4</title>
<path fill="none" stroke="#63b8ff" d="M359.153,-46.7672C372.103,-48.9064 385.813,-51.1711 398.947,-53.3408"/>
<polygon fill="#63b8ff" stroke="#63b8ff" points="398.42,-56.801 408.856,-54.9777 399.561,-49.8946 398.42,-56.801"/>
</g>
<!-- Node7 -->
<g id="node7" class="node"><title>Node7</title>
<g id="a_node7"><a xlink:href="namespaceore_1_1data.html#a86651dfeb5c18ee891f7a4734d8cf455" target="_top" xlink:title=" ">
<polygon fill="white" stroke="#666666" points="516.5,-19 418.5,-19 418.5,-0 516.5,-0 516.5,-19"/>
<text text-anchor="middle" x="467.5" y="-7" font-family="Helvetica,sans-Serif" font-size="10.00">ore::data::to_string</text>
</a>
</g>
</g>
<!-- Node3&#45;&gt;Node7 -->
<g id="edge7" class="edge"><title>Node3&#45;&gt;Node7</title>
<path fill="none" stroke="#63b8ff" d="M359.153,-26.5995C375.197,-24.0439 392.406,-21.3026 408.243,-18.7799"/>
<polygon fill="#63b8ff" stroke="#63b8ff" points="409.101,-22.1874 418.426,-17.1579 408,-15.2746 409.101,-22.1874"/>
</g>
<!-- Node5 -->
<g id="node5" class="node"><title>Node5</title>
<g id="a_node5"><a xlink:href="classore_1_1data_1_1_j_s_o_n_message.html#a6a9077605df871e6e961dd0099645b35" target="_top" xlink:title="generate Boost log record &#45; this method is called by log()">
<polygon fill="white" stroke="#666666" points="714.5,-100.5 588.5,-100.5 588.5,-70.5 714.5,-70.5 714.5,-100.5"/>
<text text-anchor="start" x="596.5" y="-88.5" font-family="Helvetica,sans-Serif" font-size="10.00">ore::data::JSONMessage</text>
<text text-anchor="middle" x="651.5" y="-77.5" font-family="Helvetica,sans-Serif" font-size="10.00">::emitLog</text>
</a>
</g>
</g>
<!-- Node4&#45;&gt;Node5 -->
<g id="edge5" class="edge"><title>Node4&#45;&gt;Node5</title>
<path fill="none" stroke="#63b8ff" d="M540.17,-72.7696C552.729,-74.2187 565.802,-75.7272 578.373,-77.1776"/>
<polygon fill="#63b8ff" stroke="#63b8ff" points="577.992,-80.6568 588.327,-78.3262 578.794,-73.703 577.992,-80.6568"/>
</g>
<!-- Node6 -->
<g id="node6" class="node"><title>Node6</title>
<g id="a_node6"><a xlink:href="classore_1_1data_1_1_j_s_o_n_message.html#a39f83a0ab38c425a8844c8892b93d69e" target="_top" xlink:title="return a std::string for the log file">
<polygon fill="white" stroke="#666666" points="727,-52 576,-52 576,-33 727,-33 727,-52"/>
<text text-anchor="middle" x="651.5" y="-40" font-family="Helvetica,sans-Serif" font-size="10.00">ore::data::JSONMessage::msg</text>
</a>
</g>
</g>
<!-- Node4&#45;&gt;Node6 -->
<g id="edge6" class="edge"><title>Node4&#45;&gt;Node6</title>
<path fill="none" stroke="#63b8ff" d="M540.17,-55.8366C548.607,-54.8168 557.276,-53.7689 565.868,-52.7302"/>
<polygon fill="#63b8ff" stroke="#63b8ff" points="566.395,-56.1922 575.902,-51.5173 565.555,-49.2427 566.395,-56.1922"/>
</g>
<!-- Node7&#45;&gt;Node7 -->
<g id="edge8" class="edge"><title>Node7&#45;&gt;Node7</title>
<path fill="none" stroke="#63b8ff" d="M441.298,-19.0828C428.551,-27.7337 437.285,-37 467.5,-37 487.801,-37 498.404,-32.8171 499.311,-27.4482"/>
<polygon fill="#63b8ff" stroke="#63b8ff" points="502.178,-25.4391 493.702,-19.0828 496.364,-29.3377 502.178,-25.4391"/>
</g>
</g>
</svg>
        <g id="navigator" transform="translate(0 0)" fill="#404254">
                <rect fill="#f2f5e9" fill-opacity="0.5" stroke="#606060" stroke-width=".5" x="0" y="0" width="60" height="60"/>
                <use id="zoomplus" xlink:href="#zoomPlus" x="17" y="9" onmousedown="handleZoom(evt,'in')"/>
                <use id="zoomminus" xlink:href="#zoomMin" x="42" y="9" onmousedown="handleZoom(evt,'out')"/>
                <use id="reset" xlink:href="#resetDef" x="30" y="36" onmousedown="handleReset()"/>
                <g id="arrowUp" xlink:href="#dirArrow" transform="translate(30 24)" onmousedown="handlePan(0,-1)">
                  <use xlink:href="#rim" fill="#404040">
                        <set attributeName="fill" to="#808080" begin="arrowUp.mouseover" end="arrowUp.mouseout"/>
                  </use>
                  <path fill="none" stroke="white" stroke-width="1.5" d="M0,-3.0v7 M-2.5,-0.5L0,-3.0L2.5,-0.5"/>
                </g>
                <g id="arrowRight" xlink:href="#dirArrow" transform="rotate(90) translate(36 -43)" onmousedown="handlePan(1,0)">
                  <use xlink:href="#rim" fill="#404040">
                        <set attributeName="fill" to="#808080" begin="arrowRight.mouseover" end="arrowRight.mouseout"/>
                  </use>
                  <path fill="none" stroke="white" stroke-width="1.5" d="M0,-3.0v7 M-2.5,-0.5L0,-3.0L2.5,-0.5"/>
                </g>
                <g id="arrowDown" xlink:href="#dirArrow" transform="rotate(180) translate(-30 -48)" onmousedown="handlePan(0,1)">
                  <use xlink:href="#rim" fill="#404040">
                        <set attributeName="fill" to="#808080" begin="arrowDown.mouseover" end="arrowDown.mouseout"/>
                  </use>
                  <path fill="none" stroke="white" stroke-width="1.5" d="M0,-3.0v7 M-2.5,-0.5L0,-3.0L2.5,-0.5"/>
                </g>
                <g id="arrowLeft" xlink:href="#dirArrow" transform="rotate(270) translate(-36 17)" onmousedown="handlePan(-1,0)">
                  <use xlink:href="#rim" fill="#404040">
                        <set attributeName="fill" to="#808080" begin="arrowLeft.mouseover" end="arrowLeft.mouseout"/>
                  </use>
                  <path fill="none" stroke="white" stroke-width="1.5" d="M0,-3.0v7 M-2.5,-0.5L0,-3.0L2.5,-0.5"/>
                </g>
        </g>
        <svg viewBox="0 0 15 15" width="100%" height="30px" preserveAspectRatio="xMaxYMin meet">
         <g id="arrow_out" transform="scale(0.3 0.3)">
          <a xlink:href="classore_1_1data_1_1_progress_message_a7b602afd4bab7be2cd32dd32c2bdede4_cgraph_org.svg" target="_base">
           <rect id="button" ry="5" rx="5" y="6" x="6" height="38" width="38"
                fill="#f2f5e9" fill-opacity="0.5" stroke="#606060" stroke-width="1.0"/>
           <path id="arrow"
             d="M 11.500037,31.436501 C 11.940474,20.09759 22.043105,11.32322 32.158766,21.979434 L 37.068811,17.246167 C 37.068811,17.246167 37.088388,32 37.088388,32 L 22.160133,31.978069 C 22.160133,31.978069 26.997745,27.140456 26.997745,27.140456 C 18.528582,18.264221 13.291696,25.230495 11.500037,31.436501 z"
             style="fill:#404040;"/>
          </a>
         </g>
        </svg>
</svg>
