<?xml version="1.0" encoding="UTF-8" standalone="no"?>
<!DOCTYPE svg PUBLIC "-//W3C//DTD SVG 1.1//EN"
 "http://www.w3.org/Graphics/SVG/1.1/DTD/svg11.dtd">
<!-- Generated by graphviz version 2.38.0 (20140413.2041)
 -->
<!-- Title: currency Pages: 1 -->
<!--zoomable 389 -->
<svg id="main" version="1.1" xmlns="http://www.w3.org/2000/svg" xmlns:xlink="http://www.w3.org/1999/xlink" xml:space="preserve" onload="init(evt)">
<style type="text/css"><![CDATA[
.edge:hover path { stroke: red; }
.edge:hover polygon { stroke: red; fill: red; }
]]></style>
<script type="text/javascript"><![CDATA[
var edges = document.getElementsByTagName('g');
if (edges && edges.length) {
  for (var i=0;i<edges.length;i++) {
    if (edges[i].id.substr(0,4)=='edge') {
      edges[i].setAttribute('class','edge');
    }
  }
}
]]></script>
        <defs>
                <circle id="rim" cx="0" cy="0" r="7"/>
                <circle id="rim2" cx="0" cy="0" r="3.5"/>
                <g id="zoomPlus">
                        <use xlink:href="#rim" fill="#404040">
                                <set attributeName="fill" to="#808080" begin="zoomplus.mouseover" end="zoomplus.mouseout"/>
                        </use>
                        <path d="M-4,0h8M0,-4v8" fill="none" stroke="white" stroke-width="1.5" pointer-events="none"/>
                </g>
                <g id="zoomMin">
                        <use xlink:href="#rim" fill="#404040">
                                <set attributeName="fill" to="#808080" begin="zoomminus.mouseover" end="zoomminus.mouseout"/>
                        </use>
                        <path d="M-4,0h8" fill="none" stroke="white" stroke-width="1.5" pointer-events="none"/>
                </g>
                <g id="dirArrow">
                        <path fill="none" stroke="white" stroke-width="1.5" d="M0,-3.0v7 M-2.5,-0.5L0,-3.0L2.5,-0.5"/>
                </g>
               <g id="resetDef">
                       <use xlink:href="#rim2" fill="#404040">
                               <set attributeName="fill" to="#808080" begin="reset.mouseover" end="reset.mouseout"/>
                       </use>
               </g>
        </defs>

<script type="text/javascript">
var viewWidth = 905;
var viewHeight = 389;
var sectionId = 'dynsection-11';
</script>
<script xlink:href="svgpan.js"/>
<svg id="graph" class="graph">
<g id="viewport">
<title>currency</title>
<!-- Node1 -->
<g id="node1" class="node"><title>Node1</title>
<g id="a_node1"><a xlink:title=" ">
<polygon fill="#999999" stroke="#666666" points="897,-192.5 843,-192.5 843,-173.5 897,-173.5 897,-192.5"/>
<text text-anchor="middle" x="870" y="-180.5" font-family="Helvetica,sans-Serif" font-size="10.00">currency</text>
</a>
</g>
</g>
<!-- Node2 -->
<g id="node2" class="node"><title>Node2</title>
<g id="a_node2"><a xlink:href="classore_1_1data_1_1_trade_strike.html#a79ae4d803e6ff99821ed6f7e674898f7" target="_top" xlink:title=" ">
<polygon fill="white" stroke="#666666" points="807,-220 697,-220 697,-190 807,-190 807,-220"/>
<text text-anchor="start" x="705" y="-208" font-family="Helvetica,sans-Serif" font-size="10.00">ore::data::TradeStrike</text>
<text text-anchor="middle" x="752" y="-197" font-family="Helvetica,sans-Serif" font-size="10.00">::currency</text>
</a>
</g>
</g>
<!-- Node1&#45;&gt;Node2 -->
<g id="edge1" class="edge"><title>Node1&#45;&gt;Node2</title>
<path fill="none" stroke="#63b8ff" d="M833.084,-189.812C824.947,-191.355 816.127,-193.028 807.416,-194.68"/>
<polygon fill="#63b8ff" stroke="#63b8ff" points="833.795,-193.239 842.967,-187.937 832.49,-186.362 833.795,-193.239"/>
</g>
<!-- Node20 -->
<g id="node20" class="node"><title>Node20</title>
<g id="a_node20"><a xlink:href="classore_1_1data_1_1_trade_monetary.html#a56307f76ba467cb0eaa001badcc11b4c" target="_top" xlink:title=" ">
<polygon fill="white" stroke="#666666" points="786.5,-171.5 717.5,-171.5 717.5,-152.5 786.5,-152.5 786.5,-171.5"/>
<text text-anchor="middle" x="752" y="-159.5" font-family="Helvetica,sans-Serif" font-size="10.00">setCurrency</text>
</a>
</g>
</g>
<!-- Node1&#45;&gt;Node20 -->
<g id="edge27" class="edge"><title>Node1&#45;&gt;Node20</title>
<path fill="none" stroke="#63b8ff" d="M832.747,-176.437C818.096,-173.785 801.28,-170.74 786.878,-168.133"/>
<polygon fill="#63b8ff" stroke="#63b8ff" points="832.504,-179.95 842.967,-178.287 833.751,-173.062 832.504,-179.95"/>
</g>
<!-- Node3 -->
<g id="node3" class="node"><title>Node3</title>
<g id="a_node3"><a xlink:href="classore_1_1data_1_1_trade_strike.html#acb36c2162a297e246f41d7f9e759eec5" target="_top" xlink:title=" ">
<polygon fill="white" stroke="#666666" points="661,-263 551,-263 551,-233 661,-233 661,-263"/>
<text text-anchor="start" x="559" y="-251" font-family="Helvetica,sans-Serif" font-size="10.00">ore::data::TradeStrike</text>
<text text-anchor="middle" x="606" y="-240" font-family="Helvetica,sans-Serif" font-size="10.00">::TradeStrike</text>
</a>
</g>
</g>
<!-- Node2&#45;&gt;Node3 -->
<g id="edge2" class="edge"><title>Node2&#45;&gt;Node3</title>
<path fill="none" stroke="#63b8ff" d="M690.998,-222.917C679.884,-226.236 668.378,-229.672 657.579,-232.896"/>
<polygon fill="#63b8ff" stroke="#63b8ff" points="692.055,-226.254 700.636,-220.039 690.052,-219.547 692.055,-226.254"/>
</g>
<!-- Node4 -->
<g id="node4" class="node"><title>Node4</title>
<g id="a_node4"><a xlink:href="classore_1_1data_1_1_accumulator.html#af7b69d5b18d278257927e32b10a23ee6" target="_top" xlink:title=" ">
<polygon fill="white" stroke="#666666" points="504.5,-233 388.5,-233 388.5,-203 504.5,-203 504.5,-233"/>
<text text-anchor="start" x="396.5" y="-221" font-family="Helvetica,sans-Serif" font-size="10.00">ore::data::Accumulator</text>
<text text-anchor="middle" x="446.5" y="-210" font-family="Helvetica,sans-Serif" font-size="10.00">::build</text>
</a>
</g>
</g>
<!-- Node2&#45;&gt;Node4 -->
<g id="edge3" class="edge"><title>Node2&#45;&gt;Node4</title>
<path fill="none" stroke="#63b8ff" d="M686.604,-207.758C632.676,-210.068 556.429,-213.334 504.64,-215.552"/>
<polygon fill="#63b8ff" stroke="#63b8ff" points="686.899,-211.249 696.74,-207.324 686.6,-204.255 686.899,-211.249"/>
</g>
<!-- Node5 -->
<g id="node5" class="node"><title>Node5</title>
<g id="a_node5"><a xlink:href="classore_1_1data_1_1_basket_option.html#af7b69d5b18d278257927e32b10a23ee6" target="_top" xlink:title=" ">
<polygon fill="white" stroke="#666666" points="506.5,-99 386.5,-99 386.5,-69 506.5,-69 506.5,-99"/>
<text text-anchor="start" x="394.5" y="-87" font-family="Helvetica,sans-Serif" font-size="10.00">ore::data::BasketOption</text>
<text text-anchor="middle" x="446.5" y="-76" font-family="Helvetica,sans-Serif" font-size="10.00">::build</text>
</a>
</g>
</g>
<!-- Node2&#45;&gt;Node5 -->
<g id="edge4" class="edge"><title>Node2&#45;&gt;Node5</title>
<path fill="none" stroke="#63b8ff" d="M702.283,-184.391C700.431,-183.006 698.659,-181.544 697,-180 672.821,-157.507 688.17,-133.772 661,-115 616.01,-83.916 552.894,-78.2042 506.961,-79.0348"/>
<polygon fill="#63b8ff" stroke="#63b8ff" points="700.537,-187.43 710.824,-189.965 704.363,-181.568 700.537,-187.43"/>
</g>
<!-- Node6 -->
<g id="node6" class="node"><title>Node6</title>
<g id="a_node6"><a xlink:href="classore_1_1data_1_1_equity_european_barrier_option.html#af7b69d5b18d278257927e32b10a23ee6" target="_top" xlink:title="Build QuantLib/QuantExt instrument, link pricing engine.">
<polygon fill="white" stroke="#666666" points="511.5,-51 381.5,-51 381.5,-21 511.5,-21 511.5,-51"/>
<text text-anchor="start" x="389.5" y="-39" font-family="Helvetica,sans-Serif" font-size="10.00">ore::data::EquityEuropean</text>
<text text-anchor="middle" x="446.5" y="-28" font-family="Helvetica,sans-Serif" font-size="10.00">BarrierOption::build</text>
</a>
</g>
</g>
<!-- Node2&#45;&gt;Node6 -->
<g id="edge5" class="edge"><title>Node2&#45;&gt;Node6</title>
<path fill="none" stroke="#63b8ff" d="M700.812,-183.756C699.469,-182.566 698.193,-181.315 697,-180 664.419,-144.082 697.708,-108.688 661,-77 620.144,-41.7311 558.314,-33.0711 511.69,-32.2977"/>
<polygon fill="#63b8ff" stroke="#63b8ff" points="699.001,-186.771 709.117,-189.921 703.173,-181.15 699.001,-186.771"/>
</g>
<!-- Node7 -->
<g id="node7" class="node"><title>Node7</title>
<g id="a_node7"><a xlink:href="classore_1_1data_1_1_equity_option.html#af7b69d5b18d278257927e32b10a23ee6" target="_top" xlink:title="Build QuantLib/QuantExt instrument, link pricing engine.">
<polygon fill="white" stroke="#666666" points="328,-219 211,-219 211,-189 328,-189 328,-219"/>
<text text-anchor="start" x="219" y="-207" font-family="Helvetica,sans-Serif" font-size="10.00">ore::data::EquityOption</text>
<text text-anchor="middle" x="269.5" y="-196" font-family="Helvetica,sans-Serif" font-size="10.00">::build</text>
</a>
</g>
</g>
<!-- Node2&#45;&gt;Node7 -->
<g id="edge6" class="edge"><title>Node2&#45;&gt;Node7</title>
<path fill="none" stroke="#63b8ff" d="M739.048,-229.594C724.534,-256.643 697.406,-299.164 661,-321 552.717,-385.948 491.064,-402.215 378,-346 323.733,-319.019 289.548,-250.115 276.505,-219.298"/>
<polygon fill="#63b8ff" stroke="#63b8ff" points="742.322,-230.884 743.818,-220.395 736.108,-227.661 742.322,-230.884"/>
</g>
<!-- Node9 -->
<g id="node9" class="node"><title>Node9</title>
<g id="a_node9"><a xlink:href="classore_1_1data_1_1_vanilla_option_trade.html#af7b69d5b18d278257927e32b10a23ee6" target="_top" xlink:title="Build QuantLib/QuantExt instrument, link pricing engine.">
<polygon fill="white" stroke="#666666" points="506,-147 387,-147 387,-117 506,-117 506,-147"/>
<text text-anchor="start" x="395" y="-135" font-family="Helvetica,sans-Serif" font-size="10.00">ore::data::VanillaOption</text>
<text text-anchor="middle" x="446.5" y="-124" font-family="Helvetica,sans-Serif" font-size="10.00">Trade::build</text>
</a>
</g>
</g>
<!-- Node2&#45;&gt;Node9 -->
<g id="edge8" class="edge"><title>Node2&#45;&gt;Node9</title>
<path fill="none" stroke="#63b8ff" d="M704.192,-184.928C701.694,-183.368 699.278,-181.724 697,-180 677.396,-165.163 683.19,-148.586 661,-138 612.64,-114.929 550.851,-115.991 506.201,-121.293"/>
<polygon fill="#63b8ff" stroke="#63b8ff" points="702.497,-187.99 712.917,-189.907 705.966,-181.91 702.497,-187.99"/>
</g>
<!-- Node17 -->
<g id="node17" class="node"><title>Node17</title>
<g id="a_node17"><a xlink:href="classore_1_1data_1_1_window_barrier_option.html#af7b69d5b18d278257927e32b10a23ee6" target="_top" xlink:title=" ">
<polygon fill="white" stroke="#666666" points="508.5,-337 384.5,-337 384.5,-307 508.5,-307 508.5,-337"/>
<text text-anchor="start" x="392.5" y="-325" font-family="Helvetica,sans-Serif" font-size="10.00">ore::data::WindowBarrier</text>
<text text-anchor="middle" x="446.5" y="-314" font-family="Helvetica,sans-Serif" font-size="10.00">Option::build</text>
</a>
</g>
</g>
<!-- Node2&#45;&gt;Node17 -->
<g id="edge17" class="edge"><title>Node2&#45;&gt;Node17</title>
<path fill="none" stroke="#63b8ff" d="M734.415,-228.113C718.2,-248.791 691.543,-278.073 661,-293 613.445,-316.241 553.233,-322.65 508.885,-323.733"/>
<polygon fill="#63b8ff" stroke="#63b8ff" points="737.231,-230.193 740.506,-220.116 731.662,-225.951 737.231,-230.193"/>
</g>
<!-- Node18 -->
<g id="node18" class="node"><title>Node18</title>
<g id="a_node18"><a xlink:href="classore_1_1data_1_1_equity_option_with_barrier.html#a023906d726fdb4d1f906576fe597c579" target="_top" xlink:title=" ">
<polygon fill="white" stroke="#666666" points="515,-284 378,-284 378,-254 515,-254 515,-284"/>
<text text-anchor="start" x="386" y="-272" font-family="Helvetica,sans-Serif" font-size="10.00">ore::data::EquityOptionWith</text>
<text text-anchor="middle" x="446.5" y="-261" font-family="Helvetica,sans-Serif" font-size="10.00">Barrier::build</text>
</a>
</g>
</g>
<!-- Node2&#45;&gt;Node18 -->
<g id="edge18" class="edge"><title>Node2&#45;&gt;Node18</title>
<path fill="none" stroke="#63b8ff" d="M729.208,-227.631C712.305,-243.455 687.378,-263.26 661,-272 614.024,-287.566 557.982,-286.081 515.104,-281.096"/>
<polygon fill="#63b8ff" stroke="#63b8ff" points="732.082,-229.72 736.831,-220.249 727.213,-224.691 732.082,-229.72"/>
</g>
<!-- Node19 -->
<g id="node19" class="node"><title>Node19</title>
<g id="a_node19"><a xlink:href="classore_1_1data_1_1_trade_strike.html#a56307f76ba467cb0eaa001badcc11b4c" target="_top" xlink:title=" ">
<polygon fill="white" stroke="#666666" points="661,-177 551,-177 551,-147 661,-147 661,-177"/>
<text text-anchor="start" x="559" y="-165" font-family="Helvetica,sans-Serif" font-size="10.00">ore::data::TradeStrike</text>
<text text-anchor="middle" x="606" y="-154" font-family="Helvetica,sans-Serif" font-size="10.00">::setCurrency</text>
</a>
</g>
</g>
<!-- Node2&#45;&gt;Node19 -->
<g id="edge19" class="edge"><title>Node2&#45;&gt;Node19</title>
<path fill="none" stroke="#63b8ff" d="M690.998,-187.083C679.884,-183.764 668.378,-180.328 657.579,-177.104"/>
<polygon fill="#63b8ff" stroke="#63b8ff" points="690.052,-190.453 700.636,-189.961 692.055,-183.746 690.052,-190.453"/>
</g>
<!-- Node8 -->
<g id="node8" class="node"><title>Node8</title>
<g id="a_node8"><a xlink:href="equitytrades_8cpp.html#a9157b4f937ae04fa01bdd86ef531a15d" target="_top" xlink:title=" ">
<polygon fill="white" stroke="#666666" points="152,-213.5 9,-213.5 9,-194.5 152,-194.5 152,-213.5"/>
<text text-anchor="middle" x="80.5" y="-201.5" font-family="Helvetica,sans-Serif" font-size="10.00">BOOST_AUTO_TEST_CASE</text>
</a>
</g>
</g>
<!-- Node7&#45;&gt;Node8 -->
<g id="edge7" class="edge"><title>Node7&#45;&gt;Node8</title>
<path fill="none" stroke="#63b8ff" d="M200.666,-204C184.877,-204 168.029,-204 152.123,-204"/>
<polygon fill="#63b8ff" stroke="#63b8ff" points="200.868,-207.5 210.868,-204 200.868,-200.5 200.868,-207.5"/>
</g>
<!-- Node9&#45;&gt;Node7 -->
<g id="edge11" class="edge"><title>Node9&#45;&gt;Node7</title>
<path fill="none" stroke="#63b8ff" d="M399.211,-151.306C392.066,-154.453 384.804,-157.749 378,-161 361.676,-168.799 358.63,-172.876 342,-180 334.658,-183.145 326.755,-186.154 318.976,-188.913"/>
<polygon fill="#63b8ff" stroke="#63b8ff" points="401.053,-154.322 408.828,-147.125 398.262,-147.902 401.053,-154.322"/>
</g>
<!-- Node10 -->
<g id="node10" class="node"><title>Node10</title>
<g id="a_node10"><a xlink:href="classore_1_1data_1_1_equity_future_option.html#af7b69d5b18d278257927e32b10a23ee6" target="_top" xlink:title="Build QuantLib/QuantExt instrument, link pricing engine.">
<polygon fill="white" stroke="#666666" points="342,-171 197,-171 197,-141 342,-141 342,-171"/>
<text text-anchor="start" x="205" y="-159" font-family="Helvetica,sans-Serif" font-size="10.00">ore::data::EquityFutureOption</text>
<text text-anchor="middle" x="269.5" y="-148" font-family="Helvetica,sans-Serif" font-size="10.00">::build</text>
</a>
</g>
</g>
<!-- Node9&#45;&gt;Node10 -->
<g id="edge9" class="edge"><title>Node9&#45;&gt;Node10</title>
<path fill="none" stroke="#63b8ff" d="M376.52,-141.46C365.234,-143.008 353.517,-144.615 342.168,-146.171"/>
<polygon fill="#63b8ff" stroke="#63b8ff" points="377.309,-144.885 386.741,-140.058 376.358,-137.95 377.309,-144.885"/>
</g>
<!-- Node12 -->
<g id="node12" class="node"><title>Node12</title>
<g id="a_node12"><a xlink:href="classore_1_1data_1_1_fx_option.html#af7b69d5b18d278257927e32b10a23ee6" target="_top" xlink:title="Build QuantLib/QuantExt instrument, link pricing engine.">
<polygon fill="white" stroke="#666666" points="320,-123 219,-123 219,-93 320,-93 320,-123"/>
<text text-anchor="start" x="227" y="-111" font-family="Helvetica,sans-Serif" font-size="10.00">ore::data::FxOption</text>
<text text-anchor="middle" x="269.5" y="-100" font-family="Helvetica,sans-Serif" font-size="10.00">::build</text>
</a>
</g>
</g>
<!-- Node9&#45;&gt;Node12 -->
<g id="edge12" class="edge"><title>Node9&#45;&gt;Node12</title>
<path fill="none" stroke="#63b8ff" d="M376.686,-122.563C357.776,-119.969 337.646,-117.209 320.054,-114.796"/>
<polygon fill="#63b8ff" stroke="#63b8ff" points="376.358,-126.05 386.741,-123.942 377.309,-119.115 376.358,-126.05"/>
</g>
<!-- Node14 -->
<g id="node14" class="node"><title>Node14</title>
<g id="a_node14"><a xlink:href="classore_1_1data_1_1_commodity_option.html#a82238405f67248d44bb177a6951c8c2e" target="_top" xlink:title="Build underlying instrument and link pricing engine.">
<polygon fill="white" stroke="#666666" points="339,-75 200,-75 200,-45 339,-45 339,-75"/>
<text text-anchor="start" x="208" y="-63" font-family="Helvetica,sans-Serif" font-size="10.00">ore::data::CommodityOption</text>
<text text-anchor="middle" x="269.5" y="-52" font-family="Helvetica,sans-Serif" font-size="10.00">::build</text>
</a>
</g>
</g>
<!-- Node9&#45;&gt;Node14 -->
<g id="edge14" class="edge"><title>Node9&#45;&gt;Node14</title>
<path fill="none" stroke="#63b8ff" d="M388.972,-113.086C385.215,-111.467 381.526,-109.768 378,-108 360.811,-99.3803 359.265,-92.4667 342,-84 335.299,-80.7139 328.037,-77.7013 320.797,-75.0033"/>
<polygon fill="#63b8ff" stroke="#63b8ff" points="387.816,-116.394 398.397,-116.941 390.466,-109.915 387.816,-116.394"/>
</g>
<!-- Node11 -->
<g id="node11" class="node"><title>Node11</title>
<g id="a_node11"><a xlink:href="equitytrades_8cpp.html#aa42062877db60fac479ac06add9deb01" target="_top" xlink:title=" ">
<polygon fill="white" stroke="#666666" points="152,-165.5 9,-165.5 9,-146.5 152,-146.5 152,-165.5"/>
<text text-anchor="middle" x="80.5" y="-153.5" font-family="Helvetica,sans-Serif" font-size="10.00">BOOST_AUTO_TEST_CASE</text>
</a>
</g>
</g>
<!-- Node10&#45;&gt;Node11 -->
<g id="edge10" class="edge"><title>Node10&#45;&gt;Node11</title>
<path fill="none" stroke="#63b8ff" d="M186.697,-156C175.183,-156 163.428,-156 152.147,-156"/>
<polygon fill="#63b8ff" stroke="#63b8ff" points="186.736,-159.5 196.736,-156 186.736,-152.5 186.736,-159.5"/>
</g>
<!-- Node13 -->
<g id="node13" class="node"><title>Node13</title>
<g id="a_node13"><a xlink:href="test_2fxoption_8cpp.html#a321417ba3c97d0524c8fa2d8acb97d72" target="_top" xlink:title=" ">
<polygon fill="white" stroke="#666666" points="152,-117.5 9,-117.5 9,-98.5 152,-98.5 152,-117.5"/>
<text text-anchor="middle" x="80.5" y="-105.5" font-family="Helvetica,sans-Serif" font-size="10.00">BOOST_AUTO_TEST_CASE</text>
</a>
</g>
</g>
<!-- Node12&#45;&gt;Node13 -->
<g id="edge13" class="edge"><title>Node12&#45;&gt;Node13</title>
<path fill="none" stroke="#63b8ff" d="M208.796,-108C190.765,-108 170.795,-108 152.123,-108"/>
<polygon fill="#63b8ff" stroke="#63b8ff" points="208.878,-111.5 218.878,-108 208.878,-104.5 208.878,-111.5"/>
</g>
<!-- Node15 -->
<g id="node15" class="node"><title>Node15</title>
<g id="a_node15"><a xlink:href="classore_1_1data_1_1_commodity_digital_option.html#a82238405f67248d44bb177a6951c8c2e" target="_top" xlink:title="Build underlying instrument and link pricing engine.">
<polygon fill="white" stroke="#666666" points="149,-30 12,-30 12,-0 149,-0 149,-30"/>
<text text-anchor="start" x="20" y="-18" font-family="Helvetica,sans-Serif" font-size="10.00">ore::data::CommodityDigital</text>
<text text-anchor="middle" x="80.5" y="-7" font-family="Helvetica,sans-Serif" font-size="10.00">Option::build</text>
</a>
</g>
</g>
<!-- Node14&#45;&gt;Node15 -->
<g id="edge15" class="edge"><title>Node14&#45;&gt;Node15</title>
<path fill="none" stroke="#63b8ff" d="M195.994,-42.5521C178.821,-38.4196 160.652,-34.0473 143.969,-30.0327"/>
<polygon fill="#63b8ff" stroke="#63b8ff" points="195.43,-46.0162 205.972,-44.9531 197.068,-39.2105 195.43,-46.0162"/>
</g>
<!-- Node16 -->
<g id="node16" class="node"><title>Node16</title>
<g id="a_node16"><a xlink:href="classore_1_1data_1_1_commodity_average_price_option.html#ab927cfcbbf36bfbbaa854f21f964aced" target="_top" xlink:title="Build a standard option.">
<polygon fill="white" stroke="#666666" points="161,-78 0,-78 0,-48 161,-48 161,-78"/>
<text text-anchor="start" x="8" y="-66" font-family="Helvetica,sans-Serif" font-size="10.00">ore::data::CommodityAverage</text>
<text text-anchor="middle" x="80.5" y="-55" font-family="Helvetica,sans-Serif" font-size="10.00">PriceOption::buildStandardOption</text>
</a>
</g>
</g>
<!-- Node14&#45;&gt;Node16 -->
<g id="edge16" class="edge"><title>Node14&#45;&gt;Node16</title>
<path fill="none" stroke="#63b8ff" d="M189.76,-61.2632C180.295,-61.4151 170.623,-61.5702 161.146,-61.7223"/>
<polygon fill="#63b8ff" stroke="#63b8ff" points="189.987,-64.7601 199.93,-61.1001 189.875,-57.761 189.987,-64.7601"/>
</g>
<!-- Node19&#45;&gt;Node4 -->
<g id="edge20" class="edge"><title>Node19&#45;&gt;Node4</title>
<path fill="none" stroke="#63b8ff" d="M553.261,-180.396C532.702,-187.706 509.347,-196.01 489.824,-202.952"/>
<polygon fill="#63b8ff" stroke="#63b8ff" points="554.543,-183.655 562.793,-177.007 552.198,-177.059 554.543,-183.655"/>
</g>
<!-- Node19&#45;&gt;Node5 -->
<g id="edge21" class="edge"><title>Node19&#45;&gt;Node5</title>
<path fill="none" stroke="#63b8ff" d="M574.324,-141.513C557.302,-130.684 535.487,-117.67 515,-108 508.252,-104.815 500.959,-101.804 493.747,-99.0612"/>
<polygon fill="#63b8ff" stroke="#63b8ff" points="572.454,-144.472 582.755,-146.948 576.246,-138.588 572.454,-144.472"/>
</g>
<!-- Node19&#45;&gt;Node6 -->
<g id="edge22" class="edge"><title>Node19&#45;&gt;Node6</title>
<path fill="none" stroke="#63b8ff" d="M589.396,-138.186C573.256,-115.25 546.084,-81.0258 515,-60 509.952,-56.5855 504.363,-53.5988 498.626,-51.0013"/>
<polygon fill="#63b8ff" stroke="#63b8ff" points="586.675,-140.406 595.223,-146.666 592.444,-136.442 586.675,-140.406"/>
</g>
<!-- Node19&#45;&gt;Node7 -->
<g id="edge23" class="edge"><title>Node19&#45;&gt;Node7</title>
<path fill="none" stroke="#63b8ff" d="M540.912,-170.047C479.429,-177.767 387.429,-189.318 328.184,-196.757"/>
<polygon fill="#63b8ff" stroke="#63b8ff" points="541.399,-173.513 550.885,-168.795 540.527,-166.568 541.399,-173.513"/>
</g>
<!-- Node19&#45;&gt;Node9 -->
<g id="edge24" class="edge"><title>Node19&#45;&gt;Node9</title>
<path fill="none" stroke="#63b8ff" d="M540.838,-149.779C529.349,-147.59 517.431,-145.32 506.109,-143.164"/>
<polygon fill="#63b8ff" stroke="#63b8ff" points="540.319,-153.243 550.797,-151.676 541.629,-146.366 540.319,-153.243"/>
</g>
<!-- Node19&#45;&gt;Node17 -->
<g id="edge25" class="edge"><title>Node19&#45;&gt;Node17</title>
<path fill="none" stroke="#63b8ff" d="M582.853,-184.785C572.5,-196.068 560.412,-210.204 551,-224 531.506,-252.573 540.36,-269.477 515,-293 509.015,-298.551 501.804,-303.139 494.354,-306.899"/>
<polygon fill="#63b8ff" stroke="#63b8ff" points="585.419,-187.165 589.688,-177.468 580.304,-182.386 585.419,-187.165"/>
</g>
<!-- Node19&#45;&gt;Node18 -->
<g id="edge26" class="edge"><title>Node19&#45;&gt;Node18</title>
<path fill="none" stroke="#63b8ff" d="M584.007,-184.531C566.78,-202.009 541.062,-225.893 515,-242 507.807,-246.446 499.755,-250.414 491.787,-253.85"/>
<polygon fill="#63b8ff" stroke="#63b8ff" points="586.854,-186.622 591.295,-177.003 581.825,-181.753 586.854,-186.622"/>
</g>
<!-- Node20&#45;&gt;Node19 -->
<g id="edge28" class="edge"><title>Node20&#45;&gt;Node19</title>
<path fill="none" stroke="#63b8ff" d="M707.047,-162C692.557,-162 676.271,-162 661.114,-162"/>
<polygon fill="#63b8ff" stroke="#63b8ff" points="707.238,-165.5 717.238,-162 707.238,-158.5 707.238,-165.5"/>
</g>
</g>
</svg>
        <g id="navigator" transform="translate(0 0)" fill="#404254">
                <rect fill="#f2f5e9" fill-opacity="0.5" stroke="#606060" stroke-width=".5" x="0" y="0" width="60" height="60"/>
                <use id="zoomplus" xlink:href="#zoomPlus" x="17" y="9" onmousedown="handleZoom(evt,'in')"/>
                <use id="zoomminus" xlink:href="#zoomMin" x="42" y="9" onmousedown="handleZoom(evt,'out')"/>
                <use id="reset" xlink:href="#resetDef" x="30" y="36" onmousedown="handleReset()"/>
                <g id="arrowUp" xlink:href="#dirArrow" transform="translate(30 24)" onmousedown="handlePan(0,-1)">
                  <use xlink:href="#rim" fill="#404040">
                        <set attributeName="fill" to="#808080" begin="arrowUp.mouseover" end="arrowUp.mouseout"/>
                  </use>
                  <path fill="none" stroke="white" stroke-width="1.5" d="M0,-3.0v7 M-2.5,-0.5L0,-3.0L2.5,-0.5"/>
                </g>
                <g id="arrowRight" xlink:href="#dirArrow" transform="rotate(90) translate(36 -43)" onmousedown="handlePan(1,0)">
                  <use xlink:href="#rim" fill="#404040">
                        <set attributeName="fill" to="#808080" begin="arrowRight.mouseover" end="arrowRight.mouseout"/>
                  </use>
                  <path fill="none" stroke="white" stroke-width="1.5" d="M0,-3.0v7 M-2.5,-0.5L0,-3.0L2.5,-0.5"/>
                </g>
                <g id="arrowDown" xlink:href="#dirArrow" transform="rotate(180) translate(-30 -48)" onmousedown="handlePan(0,1)">
                  <use xlink:href="#rim" fill="#404040">
                        <set attributeName="fill" to="#808080" begin="arrowDown.mouseover" end="arrowDown.mouseout"/>
                  </use>
                  <path fill="none" stroke="white" stroke-width="1.5" d="M0,-3.0v7 M-2.5,-0.5L0,-3.0L2.5,-0.5"/>
                </g>
                <g id="arrowLeft" xlink:href="#dirArrow" transform="rotate(270) translate(-36 17)" onmousedown="handlePan(-1,0)">
                  <use xlink:href="#rim" fill="#404040">
                        <set attributeName="fill" to="#808080" begin="arrowLeft.mouseover" end="arrowLeft.mouseout"/>
                  </use>
                  <path fill="none" stroke="white" stroke-width="1.5" d="M0,-3.0v7 M-2.5,-0.5L0,-3.0L2.5,-0.5"/>
                </g>
        </g>
        <svg viewBox="0 0 15 15" width="100%" height="30px" preserveAspectRatio="xMaxYMin meet">
         <g id="arrow_out" transform="scale(0.3 0.3)">
          <a xlink:href="classore_1_1data_1_1_trade_monetary_a2fd1bb34ef1df644354f3c6872bb90ff_icgraph_org.svg" target="_base">
           <rect id="button" ry="5" rx="5" y="6" x="6" height="38" width="38"
                fill="#f2f5e9" fill-opacity="0.5" stroke="#606060" stroke-width="1.0"/>
           <path id="arrow"
             d="M 11.500037,31.436501 C 11.940474,20.09759 22.043105,11.32322 32.158766,21.979434 L 37.068811,17.246167 C 37.068811,17.246167 37.088388,32 37.088388,32 L 22.160133,31.978069 C 22.160133,31.978069 26.997745,27.140456 26.997745,27.140456 C 18.528582,18.264221 13.291696,25.230495 11.500037,31.436501 z"
             style="fill:#404040;"/>
          </a>
         </g>
        </svg>
</svg>
