<?xml version="1.0" encoding="UTF-8" standalone="no"?>
<!DOCTYPE svg PUBLIC "-//W3C//DTD SVG 1.1//EN"
 "http://www.w3.org/Graphics/SVG/1.1/DTD/svg11.dtd">
<!-- Generated by graphviz version 2.38.0 (20140413.2041)
 -->
<!-- Title: yieldCurve Pages: 1 -->
<svg width="402pt" height="103pt"
 viewBox="0.00 0.00 402.00 103.00" xmlns="http://www.w3.org/2000/svg" xmlns:xlink="http://www.w3.org/1999/xlink">
<g id="graph0" class="graph" transform="scale(1 1) rotate(0) translate(4 99)">
<title>yieldCurve</title>
<!-- Node1 -->
<g id="node1" class="node"><title>Node1</title>
<g id="a_node1"><a xlink:title="Yield Curves.">
<polygon fill="#999999" stroke="#666666" points="61,-57 3.55271e-015,-57 3.55271e-015,-38 61,-38 61,-57"/>
<text text-anchor="middle" x="30.5" y="-45" font-family="Helvetica,sans-Serif" font-size="10.00">yieldCurve</text>
</a>
</g>
</g>
<!-- Node2 -->
<g id="node2" class="node"><title>Node2</title>
<g id="a_node2"><a xlink:href="classore_1_1data_1_1_market_impl.html#aea15232be6eb71feca2c59137631f732" target="_top" xlink:title=" ">
<polygon fill="white" stroke="#666666" points="193.5,-95 137.5,-95 137.5,-76 193.5,-76 193.5,-95"/>
<text text-anchor="middle" x="165.5" y="-83" font-family="Helvetica,sans-Serif" font-size="10.00">iborIndex</text>
</a>
</g>
</g>
<!-- Node1&#45;&gt;Node2 -->
<g id="edge1" class="edge"><title>Node1&#45;&gt;Node2</title>
<path fill="none" stroke="#63b8ff" d="M61.017,-55.9334C80.6156,-61.533 106.498,-68.928 127.475,-74.9215"/>
<polygon fill="#63b8ff" stroke="#63b8ff" points="126.753,-78.3551 137.33,-77.7371 128.676,-71.6245 126.753,-78.3551"/>
</g>
<!-- Node3 -->
<g id="node3" class="node"><title>Node3</title>
<g id="a_node3"><a xlink:href="classore_1_1data_1_1_market_impl.html#af2e760ddfcac8f64fa739d3e8bf6362b" target="_top" xlink:title=" ">
<polygon fill="white" stroke="#666666" points="355,-84 309,-84 309,-65 355,-65 355,-84"/>
<text text-anchor="middle" x="332" y="-72" font-family="Helvetica,sans-Serif" font-size="10.00">require</text>
</a>
</g>
</g>
<!-- Node1&#45;&gt;Node3 -->
<g id="edge3" class="edge"><title>Node1&#45;&gt;Node3</title>
<path fill="none" stroke="#63b8ff" d="M61.0369,-50.1628C117.442,-55.2477 240.076,-66.3032 298.626,-71.5815"/>
<polygon fill="#63b8ff" stroke="#63b8ff" points="298.508,-75.085 308.782,-72.4971 299.137,-68.1132 298.508,-75.085"/>
</g>
<!-- Node4 -->
<g id="node4" class="node"><title>Node4</title>
<g id="a_node4"><a xlink:href="group__utilities.html#ga53500116b2cd1c6fd1598065f9ef64b2" target="_top" xlink:title="Try to convert std::string to QuantLib::IborIndex.">
<polygon fill="white" stroke="#666666" points="234,-19 97,-19 97,-0 234,-0 234,-19"/>
<text text-anchor="middle" x="165.5" y="-7" font-family="Helvetica,sans-Serif" font-size="10.00">ore::data::tryParseIborIndex</text>
</a>
</g>
</g>
<!-- Node1&#45;&gt;Node4 -->
<g id="edge4" class="edge"><title>Node1&#45;&gt;Node4</title>
<path fill="none" stroke="#63b8ff" d="M61.017,-39.0666C78.6934,-34.0162 101.482,-27.5053 121.172,-21.8794"/>
<polygon fill="#63b8ff" stroke="#63b8ff" points="122.193,-25.2277 130.847,-19.1151 120.27,-18.497 122.193,-25.2277"/>
</g>
<!-- Node2&#45;&gt;Node3 -->
<g id="edge2" class="edge"><title>Node2&#45;&gt;Node3</title>
<path fill="none" stroke="#63b8ff" d="M193.664,-83.6836C222.479,-81.7567 267.99,-78.7135 298.642,-76.6638"/>
<polygon fill="#63b8ff" stroke="#63b8ff" points="299.068,-80.1432 308.812,-75.9837 298.601,-73.1588 299.068,-80.1432"/>
</g>
<!-- Node5 -->
<g id="node5" class="node"><title>Node5</title>
<g id="a_node5"><a xlink:href="group__utilities.html#ga2d18ab5807f92319c9db2c13f4904738" target="_top" xlink:title="Convert std::string to QuantLib::IborIndex.">
<polygon fill="white" stroke="#666666" points="394,-19 270,-19 270,-0 394,-0 394,-19"/>
<text text-anchor="middle" x="332" y="-7" font-family="Helvetica,sans-Serif" font-size="10.00">ore::data::parseIborIndex</text>
</a>
</g>
</g>
<!-- Node4&#45;&gt;Node5 -->
<g id="edge5" class="edge"><title>Node4&#45;&gt;Node5</title>
<path fill="none" stroke="#63b8ff" d="M234.358,-9.5C242.727,-9.5 251.3,-9.5 259.717,-9.5"/>
<polygon fill="#63b8ff" stroke="#63b8ff" points="259.883,-13.0001 269.883,-9.5 259.883,-6.0001 259.883,-13.0001"/>
</g>
<!-- Node5&#45;&gt;Node5 -->
<g id="edge6" class="edge"><title>Node5&#45;&gt;Node5</title>
<path fill="none" stroke="#63b8ff" d="M306.415,-19.0828C293.968,-27.7337 302.496,-37 332,-37 351.362,-37 361.691,-33.0094 362.986,-27.8208"/>
<polygon fill="#63b8ff" stroke="#63b8ff" points="365.82,-25.7493 357.585,-19.0828 359.865,-29.4294 365.82,-25.7493"/>
</g>
</g>
</svg>
