<?xml version="1.0" encoding="UTF-8" standalone="no"?>
<!DOCTYPE svg PUBLIC "-//W3C//DTD SVG 1.1//EN"
 "http://www.w3.org/Graphics/SVG/1.1/DTD/svg11.dtd">
<!-- Generated by graphviz version 2.38.0 (20140413.2041)
 -->
<!-- Title: visit Pages: 1 -->
<svg width="342pt" height="182pt"
 viewBox="0.00 0.00 342.00 182.00" xmlns="http://www.w3.org/2000/svg" xmlns:xlink="http://www.w3.org/1999/xlink">
<g id="graph0" class="graph" transform="scale(1 1) rotate(0) translate(4 178)">
<title>visit</title>
<!-- Node1 -->
<g id="node1" class="node"><title>Node1</title>
<g id="a_node1"><a xlink:title=" ">
<polygon fill="#999999" stroke="#666666" points="33,-96.5 0,-96.5 0,-77.5 33,-77.5 33,-96.5"/>
<text text-anchor="middle" x="16.5" y="-84.5" font-family="Helvetica,sans-Serif" font-size="10.00">visit</text>
</a>
</g>
</g>
<!-- Node2 -->
<g id="node2" class="node"><title>Node2</title>
<g id="a_node2"><a xlink:href="classore_1_1data_1_1_required_fixings.html#a6239d4397d1d7eb1de886f13bdc8d9d4" target="_top" xlink:title=" ">
<polygon fill="white" stroke="#666666" points="219.5,-174 88.5,-174 88.5,-144 219.5,-144 219.5,-174"/>
<text text-anchor="start" x="96.5" y="-162" font-family="Helvetica,sans-Serif" font-size="10.00">ore::data::RequiredFixings</text>
<text text-anchor="middle" x="154" y="-151" font-family="Helvetica,sans-Serif" font-size="10.00">::addData</text>
</a>
</g>
</g>
<!-- Node1&#45;&gt;Node2 -->
<g id="edge1" class="edge"><title>Node1&#45;&gt;Node2</title>
<path fill="none" stroke="#63b8ff" d="M25.2351,-96.5357C34.53,-107.384 51.1224,-124.9 69,-135 72.227,-136.823 75.6033,-138.517 79.0711,-140.089"/>
<polygon fill="#63b8ff" stroke="#63b8ff" points="77.8467,-143.371 88.4243,-143.974 80.5317,-136.906 77.8467,-143.371"/>
</g>
<!-- Node3 -->
<g id="node3" class="node"><title>Node3</title>
<g id="a_node3"><a xlink:href="classore_1_1data_1_1_required_fixings.html#ab7dfe7e5dd7a3d8d8f67fc9096a3c57d" target="_top" xlink:title=" ">
<polygon fill="white" stroke="#666666" points="219.5,-126 88.5,-126 88.5,-96 219.5,-96 219.5,-126"/>
<text text-anchor="start" x="96.5" y="-114" font-family="Helvetica,sans-Serif" font-size="10.00">ore::data::RequiredFixings</text>
<text text-anchor="middle" x="154" y="-103" font-family="Helvetica,sans-Serif" font-size="10.00">::addFixingDate</text>
</a>
</g>
</g>
<!-- Node1&#45;&gt;Node3 -->
<g id="edge2" class="edge"><title>Node1&#45;&gt;Node3</title>
<path fill="none" stroke="#63b8ff" d="M33.0436,-89.7531C44.4912,-91.7807 60.9846,-94.7021 78.0936,-97.7324"/>
<polygon fill="#63b8ff" stroke="#63b8ff" points="77.7476,-101.226 88.2048,-99.5234 78.9685,-94.3328 77.7476,-101.226"/>
</g>
<!-- Node5 -->
<g id="node5" class="node"><title>Node5</title>
<g id="a_node5"><a target="_parent" xlink:href="../qle/class_quant_ext_1_1_commodity_cash_flow.html#a15f250af6db97f961432c3a1034458bf" xlink:title=" ">
<polygon fill="white" stroke="#666666" points="232,-78 76,-78 76,-48 232,-48 232,-78"/>
<text text-anchor="start" x="84" y="-66" font-family="Helvetica,sans-Serif" font-size="10.00">QuantExt::CommodityCashFlow</text>
<text text-anchor="middle" x="154" y="-55" font-family="Helvetica,sans-Serif" font-size="10.00">::indices</text>
</a>
</g>
</g>
<!-- Node1&#45;&gt;Node5 -->
<g id="edge4" class="edge"><title>Node1&#45;&gt;Node5</title>
<path fill="none" stroke="#63b8ff" d="M33.0436,-84.2469C41.6552,-82.7216 53.1223,-80.6905 65.5588,-78.4877"/>
<polygon fill="#63b8ff" stroke="#63b8ff" points="66.4682,-81.8812 75.7045,-76.6907 65.2473,-74.9885 66.4682,-81.8812"/>
</g>
<!-- Node6 -->
<g id="node6" class="node"><title>Node6</title>
<g id="a_node6"><a xlink:href="classore_1_1data_1_1_required_fixings.html#af97381cf60534fb77a2e0f7defd005f0" target="_top" xlink:title=" ">
<polygon fill="white" stroke="#666666" points="239,-30 69,-30 69,-0 239,-0 239,-30"/>
<text text-anchor="start" x="77" y="-18" font-family="Helvetica,sans-Serif" font-size="10.00">ore::data::RequiredFixings</text>
<text text-anchor="middle" x="154" y="-7" font-family="Helvetica,sans-Serif" font-size="10.00">::makeCopyWithMandatoryOverride</text>
</a>
</g>
</g>
<!-- Node1&#45;&gt;Node6 -->
<g id="edge5" class="edge"><title>Node1&#45;&gt;Node6</title>
<path fill="none" stroke="#63b8ff" d="M25.2351,-77.4643C34.53,-66.6159 51.1224,-49.1004 69,-39 72.227,-37.1768 75.6033,-35.483 79.0711,-33.9105"/>
<polygon fill="#63b8ff" stroke="#63b8ff" points="80.5317,-37.0938 88.4243,-30.0257 77.8467,-30.6293 80.5317,-37.0938"/>
</g>
<!-- Node4 -->
<g id="node4" class="node"><title>Node4</title>
<g id="a_node4"><a target="_parent" xlink:href="../qle/namespace_quant_ext_1_1_zero_inflation.html#a57de786c1c8988b6da9d354282b4b370" xlink:title=" ">
<polygon fill="white" stroke="#666666" points="334,-120.5 275,-120.5 275,-101.5 334,-101.5 334,-120.5"/>
<text text-anchor="middle" x="304.5" y="-108.5" font-family="Helvetica,sans-Serif" font-size="10.00">fixingDate</text>
</a>
</g>
</g>
<!-- Node3&#45;&gt;Node4 -->
<g id="edge3" class="edge"><title>Node3&#45;&gt;Node4</title>
<path fill="none" stroke="#63b8ff" d="M219.702,-111C235.024,-111 250.897,-111 264.654,-111"/>
<polygon fill="#63b8ff" stroke="#63b8ff" points="264.716,-114.5 274.716,-111 264.716,-107.5 264.716,-114.5"/>
</g>
</g>
</svg>
