<?xml version="1.0" encoding="UTF-8" standalone="no"?>
<!DOCTYPE svg PUBLIC "-//W3C//DTD SVG 1.1//EN"
 "http://www.w3.org/Graphics/SVG/1.1/DTD/svg11.dtd">
<!-- Generated by graphviz version 2.38.0 (20140413.2041)
 -->
<!-- Title: vanillaPricingEngine Pages: 1 -->
<svg width="453pt" height="76pt"
 viewBox="0.00 0.00 453.00 75.50" xmlns="http://www.w3.org/2000/svg" xmlns:xlink="http://www.w3.org/1999/xlink">
<g id="graph0" class="graph" transform="scale(1 1) rotate(0) translate(4 71.5)">
<title>vanillaPricingEngine</title>
<!-- Node1 -->
<g id="node1" class="node"><title>Node1</title>
<g id="a_node1"><a xlink:title="create the pricing engines">
<polygon fill="#999999" stroke="#666666" points="103,-45.5 0,-45.5 0,-26.5 103,-26.5 103,-45.5"/>
<text text-anchor="middle" x="51.5" y="-33.5" font-family="Helvetica,sans-Serif" font-size="10.00">vanillaPricingEngine</text>
</a>
</g>
</g>
<!-- Node2 -->
<g id="node2" class="node"><title>Node2</title>
<g id="a_node2"><a xlink:href="group__utilities.html#ga6e9e781a58e78200301c76161589fc7b" target="_top" xlink:title="Convert text to QuantLib::Currency.">
<polygon fill="white" stroke="#666666" points="275.5,-67.5 151.5,-67.5 151.5,-48.5 275.5,-48.5 275.5,-67.5"/>
<text text-anchor="middle" x="213.5" y="-55.5" font-family="Helvetica,sans-Serif" font-size="10.00">ore::data::parseCurrency</text>
</a>
</g>
</g>
<!-- Node1&#45;&gt;Node2 -->
<g id="edge1" class="edge"><title>Node1&#45;&gt;Node2</title>
<path fill="none" stroke="#63b8ff" d="M103.125,-42.9609C115.189,-44.6198 128.288,-46.4209 141.091,-48.1812"/>
<polygon fill="#63b8ff" stroke="#63b8ff" points="140.885,-51.6858 151.269,-49.5807 141.839,-44.7511 140.885,-51.6858"/>
</g>
<!-- Node3 -->
<g id="node3" class="node"><title>Node3</title>
<g id="a_node3"><a xlink:href="classore_1_1data_1_1_trade.html#a788e0abfac5089ac015b7d71dbda25e3" target="_top" xlink:title=" ">
<polygon fill="white" stroke="#666666" points="288,-30 139,-30 139,-0 288,-0 288,-30"/>
<text text-anchor="start" x="147" y="-18" font-family="Helvetica,sans-Serif" font-size="10.00">ore::data::Trade::setSensitivity</text>
<text text-anchor="middle" x="213.5" y="-7" font-family="Helvetica,sans-Serif" font-size="10.00">Template</text>
</a>
</g>
</g>
<!-- Node1&#45;&gt;Node3 -->
<g id="edge2" class="edge"><title>Node1&#45;&gt;Node3</title>
<path fill="none" stroke="#63b8ff" d="M103.125,-29.3555C111.373,-28.2729 120.105,-27.1268 128.896,-25.9731"/>
<polygon fill="#63b8ff" stroke="#63b8ff" points="129.363,-29.4419 138.822,-24.6702 128.452,-22.5014 129.363,-29.4419"/>
</g>
<!-- Node4 -->
<g id="node4" class="node"><title>Node4</title>
<g id="a_node4"><a xlink:href="classore_1_1data_1_1_engine_builder.html#a9d7654707f3b935dcf6a7b19df70c085" target="_top" xlink:title=" ">
<polygon fill="white" stroke="#666666" points="445,-30 324,-30 324,-0 445,-0 445,-30"/>
<text text-anchor="start" x="332" y="-18" font-family="Helvetica,sans-Serif" font-size="10.00">ore::data::EngineBuilder</text>
<text text-anchor="middle" x="384.5" y="-7" font-family="Helvetica,sans-Serif" font-size="10.00">::engineParameter</text>
</a>
</g>
</g>
<!-- Node3&#45;&gt;Node4 -->
<g id="edge3" class="edge"><title>Node3&#45;&gt;Node4</title>
<path fill="none" stroke="#63b8ff" d="M288.134,-15C296.608,-15 305.23,-15 313.652,-15"/>
<polygon fill="#63b8ff" stroke="#63b8ff" points="313.802,-18.5001 323.802,-15 313.802,-11.5001 313.802,-18.5001"/>
</g>
</g>
</svg>
