<?xml version="1.0" encoding="UTF-8" standalone="no"?>
<!DOCTYPE svg PUBLIC "-//W3C//DTD SVG 1.1//EN"
 "http://www.w3.org/Graphics/SVG/1.1/DTD/svg11.dtd">
<!-- Generated by graphviz version 2.38.0 (20140413.2041)
 -->
<!-- Title: fromXML Pages: 1 -->
<svg width="337pt" height="142pt"
 viewBox="0.00 0.00 337.00 141.50" xmlns="http://www.w3.org/2000/svg" xmlns:xlink="http://www.w3.org/1999/xlink">
<g id="graph0" class="graph" transform="scale(1 1) rotate(0) translate(4 137.5)">
<title>fromXML</title>
<!-- Node1 -->
<g id="node1" class="node"><title>Node1</title>
<g id="a_node1"><a xlink:title=" ">
<polygon fill="#999999" stroke="#666666" points="54,-80 0,-80 0,-61 54,-61 54,-80"/>
<text text-anchor="middle" x="27" y="-68" font-family="Helvetica,sans-Serif" font-size="10.00">fromXML</text>
</a>
</g>
</g>
<!-- Node2 -->
<g id="node2" class="node"><title>Node2</title>
<g id="a_node2"><a xlink:href="classore_1_1data_1_1_x_m_l_utils.html#a37c092916f4bdf10d4fbf6bb9e474db7" target="_top" xlink:title=" ">
<polygon fill="white" stroke="#666666" points="191.5,-133.5 92.5,-133.5 92.5,-103.5 191.5,-103.5 191.5,-133.5"/>
<text text-anchor="start" x="100.5" y="-121.5" font-family="Helvetica,sans-Serif" font-size="10.00">ore::data::XMLUtils</text>
<text text-anchor="middle" x="142" y="-110.5" font-family="Helvetica,sans-Serif" font-size="10.00">::checkNode</text>
</a>
</g>
</g>
<!-- Node1&#45;&gt;Node2 -->
<g id="edge1" class="edge"><title>Node1&#45;&gt;Node2</title>
<path fill="none" stroke="#63b8ff" d="M50.5956,-80.0982C63.6098,-85.6263 80.4324,-92.7722 96.0305,-99.3979"/>
<polygon fill="#63b8ff" stroke="#63b8ff" points="94.9667,-102.749 105.539,-103.437 97.7036,-96.3058 94.9667,-102.749"/>
</g>
<!-- Node3 -->
<g id="node3" class="node"><title>Node3</title>
<g id="a_node3"><a xlink:href="classore_1_1data_1_1_x_m_l_utils.html#a5a1307174ddefdb3aad6e3bd8cc63b27" target="_top" xlink:title=" ">
<polygon fill="white" stroke="#666666" points="191.5,-85.5 92.5,-85.5 92.5,-55.5 191.5,-55.5 191.5,-85.5"/>
<text text-anchor="start" x="100.5" y="-73.5" font-family="Helvetica,sans-Serif" font-size="10.00">ore::data::XMLUtils</text>
<text text-anchor="middle" x="142" y="-62.5" font-family="Helvetica,sans-Serif" font-size="10.00">::getChildValue</text>
</a>
</g>
</g>
<!-- Node1&#45;&gt;Node3 -->
<g id="edge2" class="edge"><title>Node1&#45;&gt;Node3</title>
<path fill="none" stroke="#63b8ff" d="M54.2085,-70.5C62.6282,-70.5 72.3221,-70.5 82.1118,-70.5"/>
<polygon fill="#63b8ff" stroke="#63b8ff" points="82.299,-74.0001 92.299,-70.5 82.2989,-67.0001 82.299,-74.0001"/>
</g>
<!-- Node5 -->
<g id="node5" class="node"><title>Node5</title>
<g id="a_node5"><a xlink:href="group__utilities.html#gad1db2a68f9a73667c3b4084d63955bdd" target="_top" xlink:title="Convert text to Real.">
<polygon fill="white" stroke="#666666" points="194,-19 90,-19 90,-0 194,-0 194,-19"/>
<text text-anchor="middle" x="142" y="-7" font-family="Helvetica,sans-Serif" font-size="10.00">ore::data::parseReal</text>
</a>
</g>
</g>
<!-- Node1&#45;&gt;Node5 -->
<g id="edge4" class="edge"><title>Node1&#45;&gt;Node5</title>
<path fill="none" stroke="#63b8ff" d="M45.6563,-60.9688C64.0405,-51.0445 93.0592,-35.3795 114.257,-23.9362"/>
<polygon fill="#63b8ff" stroke="#63b8ff" points="115.958,-26.9959 123.095,-19.1656 112.632,-20.8361 115.958,-26.9959"/>
</g>
<!-- Node4 -->
<g id="node4" class="node"><title>Node4</title>
<g id="a_node4"><a xlink:href="classore_1_1data_1_1_x_m_l_utils.html#a6704501b110fa9d056096df3e05f0df2" target="_top" xlink:title="Get a node&#39;s value.">
<polygon fill="white" stroke="#666666" points="329,-85.5 230,-85.5 230,-55.5 329,-55.5 329,-85.5"/>
<text text-anchor="start" x="238" y="-73.5" font-family="Helvetica,sans-Serif" font-size="10.00">ore::data::XMLUtils</text>
<text text-anchor="middle" x="279.5" y="-62.5" font-family="Helvetica,sans-Serif" font-size="10.00">::getNodeValue</text>
</a>
</g>
</g>
<!-- Node3&#45;&gt;Node4 -->
<g id="edge3" class="edge"><title>Node3&#45;&gt;Node4</title>
<path fill="none" stroke="#63b8ff" d="M191.536,-70.5C200.682,-70.5 210.337,-70.5 219.755,-70.5"/>
<polygon fill="#63b8ff" stroke="#63b8ff" points="219.848,-74.0001 229.848,-70.5 219.848,-67.0001 219.848,-74.0001"/>
</g>
<!-- Node5&#45;&gt;Node5 -->
<g id="edge5" class="edge"><title>Node5&#45;&gt;Node5</title>
<path fill="none" stroke="#63b8ff" d="M124.429,-19.0828C115.881,-27.7337 121.738,-37 142,-37 154.664,-37 161.7,-33.3804 163.11,-28.5536"/>
<polygon fill="#63b8ff" stroke="#63b8ff" points="166.35,-27.2248 159.571,-19.0828 159.793,-29.6753 166.35,-27.2248"/>
</g>
</g>
</svg>
