<?xml version="1.0" encoding="UTF-8" standalone="no"?>
<!DOCTYPE svg PUBLIC "-//W3C//DTD SVG 1.1//EN"
 "http://www.w3.org/Graphics/SVG/1.1/DTD/svg11.dtd">
<!-- Generated by graphviz version 2.38.0 (20140413.2041)
 -->
<!-- Title: processSegments Pages: 1 -->
<svg width="435pt" height="64pt"
 viewBox="0.00 0.00 435.00 64.00" xmlns="http://www.w3.org/2000/svg" xmlns:xlink="http://www.w3.org/1999/xlink">
<g id="graph0" class="graph" transform="scale(1 1) rotate(0) translate(4 60)">
<title>processSegments</title>
<!-- Node1 -->
<g id="node1" class="node"><title>Node1</title>
<g id="a_node1"><a xlink:title="Process price segments when configuring a Piecewise curve.">
<polygon fill="#999999" stroke="#666666" points="427,-37 332,-37 332,-18 427,-18 427,-37"/>
<text text-anchor="middle" x="379.5" y="-25" font-family="Helvetica,sans-Serif" font-size="10.00">processSegments</text>
</a>
</g>
</g>
<!-- Node2 -->
<g id="node2" class="node"><title>Node2</title>
<g id="a_node2"><a xlink:href="classore_1_1data_1_1_commodity_curve_config.html#a57dd7db942e45bd1bc35f0276438b360" target="_top" xlink:title="Detailed constructor for Piecewise commodity curve configuration.">
<polygon fill="white" stroke="#666666" points="296,-56 179,-56 179,-37 296,-37 296,-56"/>
<text text-anchor="middle" x="237.5" y="-44" font-family="Helvetica,sans-Serif" font-size="10.00">CommodityCurveConfig</text>
</a>
</g>
</g>
<!-- Node1&#45;&gt;Node2 -->
<g id="edge1" class="edge"><title>Node1&#45;&gt;Node2</title>
<path fill="none" stroke="#63b8ff" d="M321.747,-35.2022C313.302,-36.3484 304.589,-37.5308 296.125,-38.6794"/>
<polygon fill="#63b8ff" stroke="#63b8ff" points="322.444,-38.6398 331.882,-33.8267 321.502,-31.7034 322.444,-38.6398"/>
</g>
<!-- Node3 -->
<g id="node3" class="node"><title>Node3</title>
<g id="a_node3"><a xlink:href="classore_1_1data_1_1_commodity_curve_config.html#a7741ae0fc924943de5bfe02928262eb7" target="_top" xlink:title=" ">
<polygon fill="white" stroke="#666666" points="264.5,-19 210.5,-19 210.5,-0 264.5,-0 264.5,-19"/>
<text text-anchor="middle" x="237.5" y="-7" font-family="Helvetica,sans-Serif" font-size="10.00">fromXML</text>
</a>
</g>
</g>
<!-- Node1&#45;&gt;Node3 -->
<g id="edge2" class="edge"><title>Node1&#45;&gt;Node3</title>
<path fill="none" stroke="#63b8ff" d="M321.962,-20.2308C302.071,-17.6734 280.672,-14.9221 264.523,-12.8458"/>
<polygon fill="#63b8ff" stroke="#63b8ff" points="321.517,-23.7024 331.882,-21.5063 322.41,-16.7595 321.517,-23.7024"/>
</g>
<!-- Node4 -->
<g id="node4" class="node"><title>Node4</title>
<g id="a_node4"><a xlink:href="test_2commoditycurveconfig_8cpp.html#a211329d4e6d8e3d23c39ccee40f56f99" target="_top" xlink:title=" ">
<polygon fill="white" stroke="#666666" points="143,-19 0,-19 0,-0 143,-0 143,-19"/>
<text text-anchor="middle" x="71.5" y="-7" font-family="Helvetica,sans-Serif" font-size="10.00">BOOST_AUTO_TEST_CASE</text>
</a>
</g>
</g>
<!-- Node3&#45;&gt;Node4 -->
<g id="edge3" class="edge"><title>Node3&#45;&gt;Node4</title>
<path fill="none" stroke="#63b8ff" d="M199.717,-9.5C182.964,-9.5 162.549,-9.5 143.019,-9.5"/>
<polygon fill="#63b8ff" stroke="#63b8ff" points="200.151,-13.0001 210.151,-9.5 200.151,-6.0001 200.151,-13.0001"/>
</g>
</g>
</svg>
