<?xml version="1.0" encoding="UTF-8" standalone="no"?>
<!DOCTYPE svg PUBLIC "-//W3C//DTD SVG 1.1//EN"
 "http://www.w3.org/Graphics/SVG/1.1/DTD/svg11.dtd">
<!-- Generated by graphviz version 2.38.0 (20140413.2041)
 -->
<!-- Title: toXML Pages: 1 -->
<svg width="1013pt" height="554pt"
 viewBox="0.00 0.00 1013.00 553.50" xmlns="http://www.w3.org/2000/svg" xmlns:xlink="http://www.w3.org/1999/xlink">
<g id="graph0" class="graph" transform="scale(1 1) rotate(0) translate(4 549.5)">
<title>toXML</title>
<!-- Node1 -->
<g id="node1" class="node"><title>Node1</title>
<g id="a_node1"><a xlink:title=" ">
<polygon fill="#999999" stroke="#666666" points="44,-345 0,-345 0,-326 44,-326 44,-345"/>
<text text-anchor="middle" x="22" y="-333" font-family="Helvetica,sans-Serif" font-size="10.00">toXML</text>
</a>
</g>
</g>
<!-- Node2 -->
<g id="node2" class="node"><title>Node2</title>
<g id="a_node2"><a xlink:href="classore_1_1data_1_1_x_m_l_utils.html#aced1fd4bd35df3642d8022301744b138" target="_top" xlink:title=" ">
<polygon fill="white" stroke="#666666" points="685,-186.5 586,-186.5 586,-156.5 685,-156.5 685,-186.5"/>
<text text-anchor="start" x="594" y="-174.5" font-family="Helvetica,sans-Serif" font-size="10.00">ore::data::XMLUtils</text>
<text text-anchor="middle" x="635.5" y="-163.5" font-family="Helvetica,sans-Serif" font-size="10.00">::addChild</text>
</a>
</g>
</g>
<!-- Node1&#45;&gt;Node2 -->
<g id="edge1" class="edge"><title>Node1&#45;&gt;Node2</title>
<path fill="none" stroke="#63b8ff" d="M29.8729,-325.644C54.8323,-290.673 144.766,-171.695 250,-116.5 368.706,-54.2388 426.387,-33.6596 550,-85.5 580.064,-98.1083 604.824,-127.208 619.605,-148.065"/>
<polygon fill="#63b8ff" stroke="#63b8ff" points="616.786,-150.143 625.316,-156.427 622.567,-146.195 616.786,-150.143"/>
</g>
<!-- Node3 -->
<g id="node3" class="node"><title>Node3</title>
<g id="a_node3"><a xlink:href="classore_1_1data_1_1_x_m_l_document.html#a8717c517803f0df2e693e3cadefeafd7" target="_top" xlink:title="util functions that wrap rapidxml">
<polygon fill="white" stroke="#666666" points="845,-358.5 721,-358.5 721,-328.5 845,-328.5 845,-358.5"/>
<text text-anchor="start" x="729" y="-346.5" font-family="Helvetica,sans-Serif" font-size="10.00">ore::data::XMLDocument</text>
<text text-anchor="middle" x="783" y="-335.5" font-family="Helvetica,sans-Serif" font-size="10.00">::allocNode</text>
</a>
</g>
</g>
<!-- Node1&#45;&gt;Node3 -->
<g id="edge4" class="edge"><title>Node1&#45;&gt;Node3</title>
<path fill="none" stroke="#63b8ff" d="M28.3225,-345.245C37.3974,-361.254 57.1197,-393.531 80,-415.5 164.141,-496.29 191.352,-545.5 308,-545.5 308,-545.5 308,-545.5 478,-545.5 606.117,-545.5 721.486,-419.502 764.33,-366.527"/>
<polygon fill="#63b8ff" stroke="#63b8ff" points="767.085,-368.687 770.575,-358.683 761.608,-364.327 767.085,-368.687"/>
</g>
<!-- Node5 -->
<g id="node5" class="node"><title>Node5</title>
<g id="a_node5"><a xlink:href="classore_1_1data_1_1_x_m_l_utils.html#ae646b9cdf949a88f35c36c18bf90b370" target="_top" xlink:title=" ">
<polygon fill="white" stroke="#666666" points="526.5,-401.5 427.5,-401.5 427.5,-371.5 526.5,-371.5 526.5,-401.5"/>
<text text-anchor="start" x="435.5" y="-389.5" font-family="Helvetica,sans-Serif" font-size="10.00">ore::data::XMLUtils</text>
<text text-anchor="middle" x="477" y="-378.5" font-family="Helvetica,sans-Serif" font-size="10.00">::appendNode</text>
</a>
</g>
</g>
<!-- Node1&#45;&gt;Node5 -->
<g id="edge5" class="edge"><title>Node1&#45;&gt;Node5</title>
<path fill="none" stroke="#63b8ff" d="M37.6053,-345.028C72.5269,-367.172 164.338,-421.648 250,-440.5 301.219,-451.772 316.958,-452.549 368,-440.5 395.547,-433.997 424.079,-419.332 444.894,-406.924"/>
<polygon fill="#63b8ff" stroke="#63b8ff" points="446.896,-409.802 453.6,-401.598 443.243,-403.831 446.896,-409.802"/>
</g>
<!-- Node6 -->
<g id="node6" class="node"><title>Node6</title>
<g id="a_node6"><a xlink:href="classore_1_1data_1_1_trade.html#a0881d80390ae17ef0094dcd8c91c4936" target="_top" xlink:title=" ">
<polygon fill="white" stroke="#666666" points="206,-345 88,-345 88,-326 206,-326 206,-345"/>
<text text-anchor="middle" x="147" y="-333" font-family="Helvetica,sans-Serif" font-size="10.00">ore::data::Trade::toXML</text>
</a>
</g>
</g>
<!-- Node1&#45;&gt;Node6 -->
<g id="edge6" class="edge"><title>Node1&#45;&gt;Node6</title>
<path fill="none" stroke="#63b8ff" d="M44.1445,-335.5C53.6425,-335.5 65.4398,-335.5 77.6015,-335.5"/>
<polygon fill="#63b8ff" stroke="#63b8ff" points="77.8607,-339 87.8606,-335.5 77.8606,-332 77.8607,-339"/>
</g>
<!-- Node15 -->
<g id="node15" class="node"><title>Node15</title>
<g id="a_node15"><a xlink:href="classore_1_1data_1_1_trade.html#aec03b18fc42a659e6dca829a82659809" target="_top" xlink:title=" ">
<polygon fill="white" stroke="#666666" points="214,-19 80,-19 80,-0 214,-0 214,-19"/>
<text text-anchor="middle" x="147" y="-7" font-family="Helvetica,sans-Serif" font-size="10.00">ore::data::Trade::tradeType</text>
</a>
</g>
</g>
<!-- Node1&#45;&gt;Node15 -->
<g id="edge26" class="edge"><title>Node1&#45;&gt;Node15</title>
<path fill="none" stroke="#63b8ff" d="M23.5565,-325.923C26.4269,-279.635 40.9612,-79.4474 80,-33.5 83.1874,-29.7486 87.0111,-26.5835 91.191,-23.9131"/>
<polygon fill="#63b8ff" stroke="#63b8ff" points="93.0193,-26.9043 100.182,-19.0971 89.714,-20.7338 93.0193,-26.9043"/>
</g>
<!-- Node2&#45;&gt;Node3 -->
<g id="edge2" class="edge"><title>Node2&#45;&gt;Node3</title>
<path fill="none" stroke="#63b8ff" d="M649.746,-186.65C659.536,-197.883 673.163,-213.591 685,-227.5 712.276,-259.55 743.429,-296.949 762.907,-320.429"/>
<polygon fill="#63b8ff" stroke="#63b8ff" points="760.45,-322.949 769.526,-328.414 765.839,-318.482 760.45,-322.949"/>
</g>
<!-- Node4 -->
<g id="node4" class="node"><title>Node4</title>
<g id="a_node4"><a xlink:href="classore_1_1data_1_1_x_m_l_document.html#ae3474059e483990f3afea260096e5c90" target="_top" xlink:title=" ">
<polygon fill="white" stroke="#666666" points="1005,-439.5 881,-439.5 881,-409.5 1005,-409.5 1005,-439.5"/>
<text text-anchor="start" x="889" y="-427.5" font-family="Helvetica,sans-Serif" font-size="10.00">ore::data::XMLDocument</text>
<text text-anchor="middle" x="943" y="-416.5" font-family="Helvetica,sans-Serif" font-size="10.00">::allocString</text>
</a>
</g>
</g>
<!-- Node3&#45;&gt;Node4 -->
<g id="edge3" class="edge"><title>Node3&#45;&gt;Node4</title>
<path fill="none" stroke="#63b8ff" d="M813.348,-358.546C838.765,-371.576 875.713,-390.518 903.499,-404.762"/>
<polygon fill="#63b8ff" stroke="#63b8ff" points="902.046,-407.95 912.541,-409.398 905.239,-401.721 902.046,-407.95"/>
</g>
<!-- Node6&#45;&gt;Node2 -->
<g id="edge10" class="edge"><title>Node6&#45;&gt;Node2</title>
<path fill="none" stroke="#63b8ff" d="M154.182,-325.821C179.359,-287.489 278.818,-146.372 404,-104.5 465.538,-83.9165 488.722,-83.1544 550,-104.5 575.222,-113.286 598.573,-133.085 614.307,-148.895"/>
<polygon fill="#63b8ff" stroke="#63b8ff" points="611.942,-151.485 621.394,-156.27 616.989,-146.635 611.942,-151.485"/>
</g>
<!-- Node6&#45;&gt;Node3 -->
<g id="edge11" class="edge"><title>Node6&#45;&gt;Node3</title>
<path fill="none" stroke="#63b8ff" d="M206.226,-336.235C322.645,-337.704 583.79,-340.999 710.426,-342.597"/>
<polygon fill="#63b8ff" stroke="#63b8ff" points="710.738,-346.101 720.782,-342.728 710.827,-339.102 710.738,-346.101"/>
</g>
<!-- Node6&#45;&gt;Node5 -->
<g id="edge12" class="edge"><title>Node6&#45;&gt;Node5</title>
<path fill="none" stroke="#63b8ff" d="M206.262,-344.559C265.778,-353.813 357.681,-368.103 417.34,-377.379"/>
<polygon fill="#63b8ff" stroke="#63b8ff" points="416.939,-380.859 427.358,-378.937 418.015,-373.942 416.939,-380.859"/>
</g>
<!-- Node7 -->
<g id="node7" class="node"><title>Node7</title>
<g id="a_node7"><a xlink:href="classore_1_1data_1_1_x_m_l_utils.html#a226c81c31def2ba2c853ca803d1fafc5" target="_top" xlink:title=" ">
<polygon fill="white" stroke="#666666" points="358.5,-517.5 259.5,-517.5 259.5,-487.5 358.5,-487.5 358.5,-517.5"/>
<text text-anchor="start" x="267.5" y="-505.5" font-family="Helvetica,sans-Serif" font-size="10.00">ore::data::XMLUtils</text>
<text text-anchor="middle" x="309" y="-494.5" font-family="Helvetica,sans-Serif" font-size="10.00">::addAttribute</text>
</a>
</g>
</g>
<!-- Node6&#45;&gt;Node7 -->
<g id="edge7" class="edge"><title>Node6&#45;&gt;Node7</title>
<path fill="none" stroke="#63b8ff" d="M157.53,-345.446C182.653,-371.669 251.175,-443.189 286.423,-479.98"/>
<polygon fill="#63b8ff" stroke="#63b8ff" points="283.967,-482.475 293.412,-487.274 289.022,-477.632 283.967,-482.475"/>
</g>
<!-- Node9 -->
<g id="node9" class="node"><title>Node9</title>
<g id="a_node9"><a xlink:href="classore_1_1data_1_1_trade_actions.html#a644718bb2fb240de962dc3c9a1fdf0dc" target="_top" xlink:title="Returns true of this set of actions is empty.">
<polygon fill="white" stroke="#666666" points="368,-307.5 250,-307.5 250,-277.5 368,-277.5 368,-307.5"/>
<text text-anchor="start" x="258" y="-295.5" font-family="Helvetica,sans-Serif" font-size="10.00">ore::data::TradeActions</text>
<text text-anchor="middle" x="309" y="-284.5" font-family="Helvetica,sans-Serif" font-size="10.00">::empty</text>
</a>
</g>
</g>
<!-- Node6&#45;&gt;Node9 -->
<g id="edge13" class="edge"><title>Node6&#45;&gt;Node9</title>
<path fill="none" stroke="#63b8ff" d="M183.509,-325.957C200.836,-321.3 222.246,-315.546 242.396,-310.131"/>
<polygon fill="#63b8ff" stroke="#63b8ff" points="243.414,-313.482 252.163,-307.506 241.597,-306.722 243.414,-313.482"/>
</g>
<!-- Node10 -->
<g id="node10" class="node"><title>Node10</title>
<g id="a_node10"><a xlink:href="classore_1_1data_1_1_envelope.html#a0881d80390ae17ef0094dcd8c91c4936" target="_top" xlink:title=" ">
<polygon fill="white" stroke="#666666" points="359,-259.5 259,-259.5 259,-229.5 359,-229.5 359,-259.5"/>
<text text-anchor="start" x="267" y="-247.5" font-family="Helvetica,sans-Serif" font-size="10.00">ore::data::Envelope</text>
<text text-anchor="middle" x="309" y="-236.5" font-family="Helvetica,sans-Serif" font-size="10.00">::toXML</text>
</a>
</g>
</g>
<!-- Node6&#45;&gt;Node10 -->
<g id="edge14" class="edge"><title>Node6&#45;&gt;Node10</title>
<path fill="none" stroke="#63b8ff" d="M161.035,-325.777C179.967,-311.928 216.48,-286.24 250,-268.5 253.079,-266.87 256.294,-265.274 259.562,-263.727"/>
<polygon fill="#63b8ff" stroke="#63b8ff" points="261.186,-266.833 268.846,-259.514 258.294,-260.459 261.186,-266.833"/>
</g>
<!-- Node14 -->
<g id="node14" class="node"><title>Node14</title>
<g id="a_node14"><a xlink:href="classore_1_1data_1_1_trade_actions.html#a0881d80390ae17ef0094dcd8c91c4936" target="_top" xlink:title=" ">
<polygon fill="white" stroke="#666666" points="368,-431.5 250,-431.5 250,-401.5 368,-401.5 368,-431.5"/>
<text text-anchor="start" x="258" y="-419.5" font-family="Helvetica,sans-Serif" font-size="10.00">ore::data::TradeActions</text>
<text text-anchor="middle" x="309" y="-408.5" font-family="Helvetica,sans-Serif" font-size="10.00">::toXML</text>
</a>
</g>
</g>
<!-- Node6&#45;&gt;Node14 -->
<g id="edge23" class="edge"><title>Node6&#45;&gt;Node14</title>
<path fill="none" stroke="#63b8ff" d="M166.777,-345.128C187.224,-355.599 220.901,-372.808 250,-387.5 256.077,-390.568 262.519,-393.805 268.815,-396.959"/>
<polygon fill="#63b8ff" stroke="#63b8ff" points="267.365,-400.148 277.874,-401.493 270.498,-393.888 267.365,-400.148"/>
</g>
<!-- Node7&#45;&gt;Node4 -->
<g id="edge8" class="edge"><title>Node7&#45;&gt;Node4</title>
<path fill="none" stroke="#63b8ff" d="M358.839,-500.538C407.415,-498.282 484.017,-493.902 550,-486.5 662.548,-473.874 792.172,-451.902 870.546,-437.79"/>
<polygon fill="#63b8ff" stroke="#63b8ff" points="871.569,-441.162 880.786,-435.939 870.323,-434.274 871.569,-441.162"/>
</g>
<!-- Node8 -->
<g id="node8" class="node"><title>Node8</title>
<g id="a_node8"><a xlink:href="classore_1_1data_1_1_x_m_l_document.html#a46d969cdb00bff64f3f4c0d2975a08d3" target="_top" xlink:title=" ">
<polygon fill="white" stroke="#666666" points="550,-477 404,-477 404,-458 550,-458 550,-477"/>
<text text-anchor="middle" x="477" y="-465" font-family="Helvetica,sans-Serif" font-size="10.00">ore::data::XMLDocument::doc</text>
</a>
</g>
</g>
<!-- Node7&#45;&gt;Node8 -->
<g id="edge9" class="edge"><title>Node7&#45;&gt;Node8</title>
<path fill="none" stroke="#63b8ff" d="M358.908,-492.188C378.379,-488.083 400.881,-483.338 420.924,-479.112"/>
<polygon fill="#63b8ff" stroke="#63b8ff" points="421.783,-482.508 430.845,-477.021 420.338,-475.659 421.783,-482.508"/>
</g>
<!-- Node10&#45;&gt;Node2 -->
<g id="edge15" class="edge"><title>Node10&#45;&gt;Node2</title>
<path fill="none" stroke="#63b8ff" d="M330.053,-229.467C348.3,-216.677 376.506,-199.06 404,-190.5 460.433,-172.929 528.177,-169.283 575.566,-169.357"/>
<polygon fill="#63b8ff" stroke="#63b8ff" points="575.631,-172.858 585.656,-169.43 575.682,-165.858 575.631,-172.858"/>
</g>
<!-- Node10&#45;&gt;Node3 -->
<g id="edge16" class="edge"><title>Node10&#45;&gt;Node3</title>
<path fill="none" stroke="#63b8ff" d="M347.609,-259.604C354.432,-262.474 361.456,-265.515 368,-268.5 384.275,-275.925 386.946,-281.1 404,-286.5 411.269,-288.802 602.993,-317.187 710.529,-333.01"/>
<polygon fill="#63b8ff" stroke="#63b8ff" points="710.261,-336.508 720.664,-334.501 711.28,-329.583 710.261,-336.508"/>
</g>
<!-- Node10&#45;&gt;Node5 -->
<g id="edge17" class="edge"><title>Node10&#45;&gt;Node5</title>
<path fill="none" stroke="#63b8ff" d="M353.958,-259.503C358.937,-262.11 363.744,-265.098 368,-268.5 389.674,-285.821 385.747,-298.605 404,-319.5 418.217,-335.775 435.975,-352.334 450.297,-364.918"/>
<polygon fill="#63b8ff" stroke="#63b8ff" points="448.008,-367.566 457.857,-371.473 452.595,-362.277 448.008,-367.566"/>
</g>
<!-- Node11 -->
<g id="node11" class="node"><title>Node11</title>
<g id="a_node11"><a xlink:href="classore_1_1data_1_1_netting_set_details.html#ab87072d461177abcb48735d002150bfb" target="_top" xlink:title=" ">
<polygon fill="white" stroke="#666666" points="545.5,-143.5 408.5,-143.5 408.5,-113.5 545.5,-113.5 545.5,-143.5"/>
<text text-anchor="start" x="416.5" y="-131.5" font-family="Helvetica,sans-Serif" font-size="10.00">ore::data::NettingSetDetails</text>
<text text-anchor="middle" x="477" y="-120.5" font-family="Helvetica,sans-Serif" font-size="10.00">::emptyOptionalFields</text>
</a>
</g>
</g>
<!-- Node10&#45;&gt;Node11 -->
<g id="edge18" class="edge"><title>Node10&#45;&gt;Node11</title>
<path fill="none" stroke="#63b8ff" d="M322.989,-229.488C340.002,-210.583 371.506,-178.091 404,-157.5 409.659,-153.914 415.836,-150.627 422.116,-147.658"/>
<polygon fill="#63b8ff" stroke="#63b8ff" points="423.639,-150.811 431.342,-143.538 420.784,-144.419 423.639,-150.811"/>
</g>
<!-- Node12 -->
<g id="node12" class="node"><title>Node12</title>
<g id="a_node12"><a xlink:href="classore_1_1data_1_1_netting_set_details.html#a9bf8e40febad0782c5855488041ecfd7" target="_top" xlink:title=" ">
<polygon fill="white" stroke="#666666" points="545.5,-277.5 408.5,-277.5 408.5,-247.5 545.5,-247.5 545.5,-277.5"/>
<text text-anchor="start" x="416.5" y="-265.5" font-family="Helvetica,sans-Serif" font-size="10.00">ore::data::NettingSetDetails</text>
<text text-anchor="middle" x="477" y="-254.5" font-family="Helvetica,sans-Serif" font-size="10.00">::nettingSetId</text>
</a>
</g>
</g>
<!-- Node10&#45;&gt;Node12 -->
<g id="edge19" class="edge"><title>Node10&#45;&gt;Node12</title>
<path fill="none" stroke="#63b8ff" d="M359.356,-249.852C371.617,-251.181 385.058,-252.639 398.317,-254.077"/>
<polygon fill="#63b8ff" stroke="#63b8ff" points="398.079,-257.571 408.398,-255.17 398.834,-250.612 398.079,-257.571"/>
</g>
<!-- Node13 -->
<g id="node13" class="node"><title>Node13</title>
<g id="a_node13"><a xlink:href="classore_1_1data_1_1_netting_set_details.html#a0881d80390ae17ef0094dcd8c91c4936" target="_top" xlink:title=" ">
<polygon fill="white" stroke="#666666" points="545.5,-229.5 408.5,-229.5 408.5,-199.5 545.5,-199.5 545.5,-229.5"/>
<text text-anchor="start" x="416.5" y="-217.5" font-family="Helvetica,sans-Serif" font-size="10.00">ore::data::NettingSetDetails</text>
<text text-anchor="middle" x="477" y="-206.5" font-family="Helvetica,sans-Serif" font-size="10.00">::toXML</text>
</a>
</g>
</g>
<!-- Node10&#45;&gt;Node13 -->
<g id="edge20" class="edge"><title>Node10&#45;&gt;Node13</title>
<path fill="none" stroke="#63b8ff" d="M359.356,-235.58C371.617,-233.364 385.058,-230.935 398.317,-228.539"/>
<polygon fill="#63b8ff" stroke="#63b8ff" points="399.18,-231.94 408.398,-226.717 397.935,-225.051 399.18,-231.94"/>
</g>
<!-- Node13&#45;&gt;Node2 -->
<g id="edge21" class="edge"><title>Node13&#45;&gt;Node2</title>
<path fill="none" stroke="#63b8ff" d="M532.736,-199.461C546.773,-195.604 561.923,-191.441 576.136,-187.536"/>
<polygon fill="#63b8ff" stroke="#63b8ff" points="577.085,-190.905 585.8,-184.881 575.23,-184.155 577.085,-190.905"/>
</g>
<!-- Node13&#45;&gt;Node3 -->
<g id="edge22" class="edge"><title>Node13&#45;&gt;Node3</title>
<path fill="none" stroke="#63b8ff" d="M524.216,-229.507C532.814,-232.412 541.701,-235.49 550,-238.5 610.596,-260.477 626.493,-264.448 685,-291.5 705.824,-301.129 728.453,-313.164 746.612,-323.231"/>
<polygon fill="#63b8ff" stroke="#63b8ff" points="745.231,-326.469 755.668,-328.292 748.646,-320.358 745.231,-326.469"/>
</g>
<!-- Node14&#45;&gt;Node3 -->
<g id="edge24" class="edge"><title>Node14&#45;&gt;Node3</title>
<path fill="none" stroke="#63b8ff" d="M368.076,-419.182C416.912,-420.451 488.417,-420.001 550,-410.5 614.212,-400.594 685.703,-378.127 732.127,-361.938"/>
<polygon fill="#63b8ff" stroke="#63b8ff" points="733.373,-365.21 741.641,-358.586 731.047,-358.608 733.373,-365.21"/>
</g>
<!-- Node14&#45;&gt;Node5 -->
<g id="edge25" class="edge"><title>Node14&#45;&gt;Node5</title>
<path fill="none" stroke="#63b8ff" d="M368.059,-406.007C383.935,-403.138 401.153,-400.027 417.076,-397.149"/>
<polygon fill="#63b8ff" stroke="#63b8ff" points="418.109,-400.519 427.327,-395.296 416.864,-393.631 418.109,-400.519"/>
</g>
</g>
</svg>
