<?xml version="1.0" encoding="UTF-8" standalone="no"?>
<!DOCTYPE svg PUBLIC "-//W3C//DTD SVG 1.1//EN"
 "http://www.w3.org/Graphics/SVG/1.1/DTD/svg11.dtd">
<!-- Generated by graphviz version 2.38.0 (20140413.2041)
 -->
<!-- Title: toXML Pages: 1 -->
<!--zoomable 1018 -->
<svg id="main" version="1.1" xmlns="http://www.w3.org/2000/svg" xmlns:xlink="http://www.w3.org/1999/xlink" xml:space="preserve" onload="init(evt)">
<style type="text/css"><![CDATA[
.edge:hover path { stroke: red; }
.edge:hover polygon { stroke: red; fill: red; }
]]></style>
<script type="text/javascript"><![CDATA[
var edges = document.getElementsByTagName('g');
if (edges && edges.length) {
  for (var i=0;i<edges.length;i++) {
    if (edges[i].id.substr(0,4)=='edge') {
      edges[i].setAttribute('class','edge');
    }
  }
}
]]></script>
        <defs>
                <circle id="rim" cx="0" cy="0" r="7"/>
                <circle id="rim2" cx="0" cy="0" r="3.5"/>
                <g id="zoomPlus">
                        <use xlink:href="#rim" fill="#404040">
                                <set attributeName="fill" to="#808080" begin="zoomplus.mouseover" end="zoomplus.mouseout"/>
                        </use>
                        <path d="M-4,0h8M0,-4v8" fill="none" stroke="white" stroke-width="1.5" pointer-events="none"/>
                </g>
                <g id="zoomMin">
                        <use xlink:href="#rim" fill="#404040">
                                <set attributeName="fill" to="#808080" begin="zoomminus.mouseover" end="zoomminus.mouseout"/>
                        </use>
                        <path d="M-4,0h8" fill="none" stroke="white" stroke-width="1.5" pointer-events="none"/>
                </g>
                <g id="dirArrow">
                        <path fill="none" stroke="white" stroke-width="1.5" d="M0,-3.0v7 M-2.5,-0.5L0,-3.0L2.5,-0.5"/>
                </g>
               <g id="resetDef">
                       <use xlink:href="#rim2" fill="#404040">
                               <set attributeName="fill" to="#808080" begin="reset.mouseover" end="reset.mouseout"/>
                       </use>
               </g>
        </defs>

<script type="text/javascript">
var viewWidth = 1023;
var viewHeight = 1018;
var sectionId = 'dynsection-10';
</script>
<script xlink:href="svgpan.js"/>
<svg id="graph" class="graph">
<g id="viewport">
<title>toXML</title>
<!-- Node1 -->
<g id="node1" class="node"><title>Node1</title>
<g id="a_node1"><a xlink:title=" ">
<polygon fill="#999999" stroke="#666666" points="44,-229.5 0,-229.5 0,-210.5 44,-210.5 44,-229.5"/>
<text text-anchor="middle" x="22" y="-217.5" font-family="Helvetica,sans-Serif" font-size="10.00">toXML</text>
</a>
</g>
</g>
<!-- Node2 -->
<g id="node2" class="node"><title>Node2</title>
<g id="a_node2"><a xlink:href="classore_1_1data_1_1_x_m_l_utils.html#aced1fd4bd35df3642d8022301744b138" target="_top" xlink:title=" ">
<polygon fill="white" stroke="#666666" points="695,-783 596,-783 596,-753 695,-753 695,-783"/>
<text text-anchor="start" x="604" y="-771" font-family="Helvetica,sans-Serif" font-size="10.00">ore::data::XMLUtils</text>
<text text-anchor="middle" x="645.5" y="-760" font-family="Helvetica,sans-Serif" font-size="10.00">::addChild</text>
</a>
</g>
</g>
<!-- Node1&#45;&gt;Node2 -->
<g id="edge1" class="edge"><title>Node1&#45;&gt;Node2</title>
<path fill="none" stroke="#63b8ff" d="M23.5825,-229.834C27.0195,-286.013 45.6827,-566.567 80,-645 161.467,-831.195 199.98,-905.839 388,-983 458.721,-1012.02 496.828,-1026.05 560,-983 623.666,-939.615 639.364,-840.278 643.234,-793.39"/>
<polygon fill="#63b8ff" stroke="#63b8ff" points="646.742,-793.402 643.955,-783.181 639.759,-792.909 646.742,-793.402"/>
</g>
<!-- Node3 -->
<g id="node3" class="node"><title>Node3</title>
<g id="a_node3"><a xlink:href="classore_1_1data_1_1_x_m_l_document.html#a8717c517803f0df2e693e3cadefeafd7" target="_top" xlink:title="util functions that wrap rapidxml">
<polygon fill="white" stroke="#666666" points="855,-564 731,-564 731,-534 855,-534 855,-564"/>
<text text-anchor="start" x="739" y="-552" font-family="Helvetica,sans-Serif" font-size="10.00">ore::data::XMLDocument</text>
<text text-anchor="middle" x="793" y="-541" font-family="Helvetica,sans-Serif" font-size="10.00">::allocNode</text>
</a>
</g>
</g>
<!-- Node1&#45;&gt;Node3 -->
<g id="edge4" class="edge"><title>Node1&#45;&gt;Node3</title>
<path fill="none" stroke="#63b8ff" d="M26.3725,-229.516C44.6286,-279.141 136.585,-506 292,-506 292,-506 292,-506 475,-506 560.14,-506 656.985,-521.419 720.987,-533.791"/>
<polygon fill="#63b8ff" stroke="#63b8ff" points="720.483,-537.259 730.97,-535.748 721.83,-530.39 720.483,-537.259"/>
</g>
<!-- Node5 -->
<g id="node5" class="node"><title>Node5</title>
<g id="a_node5"><a xlink:href="classore_1_1data_1_1_x_m_l_utils.html#ae646b9cdf949a88f35c36c18bf90b370" target="_top" xlink:title=" ">
<polygon fill="white" stroke="#666666" points="695,-316 596,-316 596,-286 695,-286 695,-316"/>
<text text-anchor="start" x="604" y="-304" font-family="Helvetica,sans-Serif" font-size="10.00">ore::data::XMLUtils</text>
<text text-anchor="middle" x="645.5" y="-293" font-family="Helvetica,sans-Serif" font-size="10.00">::appendNode</text>
</a>
</g>
</g>
<!-- Node1&#45;&gt;Node5 -->
<g id="edge5" class="edge"><title>Node1&#45;&gt;Node5</title>
<path fill="none" stroke="#63b8ff" d="M44.1723,-219.011C117.199,-216.151 364.78,-211.063 560,-262 576.672,-266.35 594.117,-273.844 608.798,-281.107"/>
<polygon fill="#63b8ff" stroke="#63b8ff" points="607.513,-284.38 618.011,-285.811 610.696,-278.146 607.513,-284.38"/>
</g>
<!-- Node6 -->
<g id="node6" class="node"><title>Node6</title>
<g id="a_node6"><a xlink:href="classore_1_1data_1_1_fx_option.html#aebaa9c848c5ee2432f15107c02c59a26" target="_top" xlink:title=" ">
<polygon fill="white" stroke="#666666" points="179,-191.5 99,-191.5 99,-172.5 179,-172.5 179,-191.5"/>
<text text-anchor="middle" x="139" y="-179.5" font-family="Helvetica,sans-Serif" font-size="10.00">boughtAmount</text>
</a>
</g>
</g>
<!-- Node1&#45;&gt;Node6 -->
<g id="edge6" class="edge"><title>Node1&#45;&gt;Node6</title>
<path fill="none" stroke="#63b8ff" d="M44.0928,-213.03C59.5927,-207.908 81.0887,-200.805 99.6033,-194.688"/>
<polygon fill="#63b8ff" stroke="#63b8ff" points="100.848,-197.963 109.245,-191.502 98.6517,-191.316 100.848,-197.963"/>
</g>
<!-- Node7 -->
<g id="node7" class="node"><title>Node7</title>
<g id="a_node7"><a xlink:href="classore_1_1data_1_1_fx_option.html#abdece418a1fb4d674fc0171b186f93e1" target="_top" xlink:title=" ">
<polygon fill="white" stroke="#666666" points="181.5,-154.5 96.5,-154.5 96.5,-135.5 181.5,-135.5 181.5,-154.5"/>
<text text-anchor="middle" x="139" y="-142.5" font-family="Helvetica,sans-Serif" font-size="10.00">boughtCurrency</text>
</a>
</g>
</g>
<!-- Node1&#45;&gt;Node7 -->
<g id="edge7" class="edge"><title>Node1&#45;&gt;Node7</title>
<path fill="none" stroke="#63b8ff" d="M30.3816,-210.076C40.3127,-197.395 59.1536,-175.586 80,-163 82.798,-161.311 85.7689,-159.767 88.8297,-158.357"/>
<polygon fill="#63b8ff" stroke="#63b8ff" points="90.2695,-161.55 98.1991,-154.523 87.6185,-155.071 90.2695,-161.55"/>
</g>
<!-- Node8 -->
<g id="node8" class="node"><title>Node8</title>
<g id="a_node8"><a xlink:href="classore_1_1data_1_1_fx_option.html#a183d400a1f3c3aed4d1de7e1a964ddf9" target="_top" xlink:title=" ">
<polygon fill="white" stroke="#666666" points="173,-117.5 105,-117.5 105,-98.5 173,-98.5 173,-117.5"/>
<text text-anchor="middle" x="139" y="-105.5" font-family="Helvetica,sans-Serif" font-size="10.00">soldAmount</text>
</a>
</g>
</g>
<!-- Node1&#45;&gt;Node8 -->
<g id="edge8" class="edge"><title>Node1&#45;&gt;Node8</title>
<path fill="none" stroke="#63b8ff" d="M26.1717,-210.435C32.9525,-191.461 50.6749,-148.915 80,-126 84.6302,-122.382 89.9934,-119.486 95.551,-117.169"/>
<polygon fill="#63b8ff" stroke="#63b8ff" points="96.7555,-120.456 104.992,-113.792 94.3979,-113.865 96.7555,-120.456"/>
</g>
<!-- Node10 -->
<g id="node10" class="node"><title>Node10</title>
<g id="a_node10"><a xlink:href="classore_1_1data_1_1_fx_option.html#a46d36928489c180dafde9c98e55fcc50" target="_top" xlink:title=" ">
<polygon fill="white" stroke="#666666" points="176,-80.5 102,-80.5 102,-61.5 176,-61.5 176,-80.5"/>
<text text-anchor="middle" x="139" y="-68.5" font-family="Helvetica,sans-Serif" font-size="10.00">soldCurrency</text>
</a>
</g>
</g>
<!-- Node1&#45;&gt;Node10 -->
<g id="edge10" class="edge"><title>Node1&#45;&gt;Node10</title>
<path fill="none" stroke="#63b8ff" d="M24.4358,-210.16C28.4962,-185.904 42.3181,-122.767 80,-89 83.6364,-85.7414 87.8553,-83.0727 92.327,-80.8872"/>
<polygon fill="#63b8ff" stroke="#63b8ff" points="93.8151,-84.0603 101.755,-77.0453 91.1735,-77.5778 93.8151,-84.0603"/>
</g>
<!-- Node11 -->
<g id="node11" class="node"><title>Node11</title>
<g id="a_node11"><a xlink:href="classore_1_1data_1_1_option_data.html#a7efefb9270d6c4933e4c96de0771f17a" target="_top" xlink:title=" ">
<polygon fill="white" stroke="#666666" points="348,-822 238,-822 238,-792 348,-792 348,-822"/>
<text text-anchor="start" x="246" y="-810" font-family="Helvetica,sans-Serif" font-size="10.00">ore::data::OptionData</text>
<text text-anchor="middle" x="293" y="-799" font-family="Helvetica,sans-Serif" font-size="10.00">::toXML</text>
</a>
</g>
</g>
<!-- Node1&#45;&gt;Node11 -->
<g id="edge11" class="edge"><title>Node1&#45;&gt;Node11</title>
<path fill="none" stroke="#63b8ff" d="M23.608,-229.661C26.2579,-267.776 38.5914,-410.965 80,-520 127.411,-644.841 136.122,-687.154 234,-778 237.479,-781.229 241.384,-784.18 245.482,-786.859"/>
<polygon fill="#63b8ff" stroke="#63b8ff" points="243.703,-789.873 254.088,-791.974 247.28,-783.856 243.703,-789.873"/>
</g>
<!-- Node19 -->
<g id="node19" class="node"><title>Node19</title>
<g id="a_node19"><a xlink:href="classore_1_1data_1_1_trade.html#a7efefb9270d6c4933e4c96de0771f17a" target="_top" xlink:title=" ">
<polygon fill="white" stroke="#666666" points="198,-286.5 80,-286.5 80,-267.5 198,-267.5 198,-286.5"/>
<text text-anchor="middle" x="139" y="-274.5" font-family="Helvetica,sans-Serif" font-size="10.00">ore::data::Trade::toXML</text>
</a>
</g>
</g>
<!-- Node1&#45;&gt;Node19 -->
<g id="edge30" class="edge"><title>Node1&#45;&gt;Node19</title>
<path fill="none" stroke="#63b8ff" d="M42.2484,-229.541C60.6574,-238.665 88.6397,-252.534 109.608,-262.927"/>
<polygon fill="#63b8ff" stroke="#63b8ff" points="108.175,-266.123 118.689,-267.428 111.283,-259.851 108.175,-266.123"/>
</g>
<!-- Node2&#45;&gt;Node3 -->
<g id="edge2" class="edge"><title>Node2&#45;&gt;Node3</title>
<path fill="none" stroke="#63b8ff" d="M683.713,-752.835C687.799,-750.256 691.675,-747.318 695,-744 744.629,-694.474 773.254,-614.386 785.265,-573.994"/>
<polygon fill="#63b8ff" stroke="#63b8ff" points="788.691,-574.745 788.09,-564.167 781.963,-572.811 788.691,-574.745"/>
</g>
<!-- Node4 -->
<g id="node4" class="node"><title>Node4</title>
<g id="a_node4"><a xlink:href="classore_1_1data_1_1_x_m_l_document.html#ae3474059e483990f3afea260096e5c90" target="_top" xlink:title=" ">
<polygon fill="white" stroke="#666666" points="1015,-564 891,-564 891,-534 1015,-534 1015,-564"/>
<text text-anchor="start" x="899" y="-552" font-family="Helvetica,sans-Serif" font-size="10.00">ore::data::XMLDocument</text>
<text text-anchor="middle" x="953" y="-541" font-family="Helvetica,sans-Serif" font-size="10.00">::allocString</text>
</a>
</g>
</g>
<!-- Node3&#45;&gt;Node4 -->
<g id="edge3" class="edge"><title>Node3&#45;&gt;Node4</title>
<path fill="none" stroke="#63b8ff" d="M855.087,-549C863.513,-549 872.226,-549 880.815,-549"/>
<polygon fill="#63b8ff" stroke="#63b8ff" points="880.815,-552.5 890.815,-549 880.815,-545.5 880.815,-552.5"/>
</g>
<!-- Node9 -->
<g id="node9" class="node"><title>Node9</title>
<g id="a_node9"><a xlink:href="classore_1_1data_1_1_trade_strike.html#ab0070e2cd9d998541431e9aba2e5583b" target="_top" xlink:title=" ">
<polygon fill="white" stroke="#666666" points="348,-30 238,-30 238,-0 348,-0 348,-30"/>
<text text-anchor="start" x="246" y="-18" font-family="Helvetica,sans-Serif" font-size="10.00">ore::data::TradeStrike</text>
<text text-anchor="middle" x="293" y="-7" font-family="Helvetica,sans-Serif" font-size="10.00">::value</text>
</a>
</g>
</g>
<!-- Node8&#45;&gt;Node9 -->
<g id="edge9" class="edge"><title>Node8&#45;&gt;Node9</title>
<path fill="none" stroke="#63b8ff" d="M173.157,-100.763C181.718,-97.9511 190.599,-94.1323 198,-89 219.047,-74.4049 214.082,-60.102 234,-44 238.001,-40.7653 242.422,-37.7613 246.986,-35.0087"/>
<polygon fill="#63b8ff" stroke="#63b8ff" points="248.854,-37.974 255.865,-30.0305 245.431,-31.8682 248.854,-37.974"/>
</g>
<!-- Node11&#45;&gt;Node2 -->
<g id="edge12" class="edge"><title>Node11&#45;&gt;Node2</title>
<path fill="none" stroke="#63b8ff" d="M319.73,-822.053C338.077,-831.881 363.701,-843.818 388,-849 462.763,-864.943 489.069,-877.506 560,-849 588.744,-837.448 613.218,-810.932 628.315,-791.37"/>
<polygon fill="#63b8ff" stroke="#63b8ff" points="631.223,-793.325 634.385,-783.213 625.607,-789.146 631.223,-793.325"/>
</g>
<!-- Node11&#45;&gt;Node3 -->
<g id="edge17" class="edge"><title>Node11&#45;&gt;Node3</title>
<path fill="none" stroke="#63b8ff" d="M299.188,-791.597C310.294,-761.104 339.39,-693.061 388,-659 452.115,-614.075 483.938,-639.535 560,-621 620.331,-606.299 635.825,-603.824 695,-585 711.302,-579.814 728.899,-573.505 744.571,-567.625"/>
<polygon fill="#63b8ff" stroke="#63b8ff" points="745.94,-570.849 754.052,-564.034 743.46,-564.303 745.94,-570.849"/>
</g>
<!-- Node11&#45;&gt;Node5 -->
<g id="edge18" class="edge"><title>Node11&#45;&gt;Node5</title>
<path fill="none" stroke="#63b8ff" d="M295.555,-791.936C300.865,-746.964 321.788,-611.447 388,-525 443.766,-452.192 492.93,-473.55 560,-411 588.141,-384.756 614.073,-348.418 629.59,-324.812"/>
<polygon fill="#63b8ff" stroke="#63b8ff" points="632.708,-326.435 635.199,-316.137 626.83,-322.634 632.708,-326.435"/>
</g>
<!-- Node12 -->
<g id="node12" class="node"><title>Node12</title>
<g id="a_node12"><a xlink:href="classore_1_1data_1_1_x_m_l_utils.html#a29cd524fd4d9381e10c71939131fa4d4" target="_top" xlink:title=" ">
<polygon fill="white" stroke="#666666" points="523.5,-926 424.5,-926 424.5,-896 523.5,-896 523.5,-926"/>
<text text-anchor="start" x="432.5" y="-914" font-family="Helvetica,sans-Serif" font-size="10.00">ore::data::XMLUtils</text>
<text text-anchor="middle" x="474" y="-903" font-family="Helvetica,sans-Serif" font-size="10.00">::addChildren</text>
</a>
</g>
</g>
<!-- Node11&#45;&gt;Node12 -->
<g id="edge13" class="edge"><title>Node11&#45;&gt;Node12</title>
<path fill="none" stroke="#63b8ff" d="M309.415,-822.118C327.104,-838.758 357.605,-865.351 388,-882 396.323,-886.559 405.492,-890.589 414.635,-894.084"/>
<polygon fill="#63b8ff" stroke="#63b8ff" points="413.523,-897.404 424.117,-897.533 415.916,-890.826 413.523,-897.404"/>
</g>
<!-- Node13 -->
<g id="node13" class="node"><title>Node13</title>
<g id="a_node13"><a xlink:href="classore_1_1data_1_1_x_m_l_utils.html#a60e5b2e453d4610d7ce2ff455d564404" target="_top" xlink:title=" ">
<polygon fill="white" stroke="#666666" points="560,-822 388,-822 388,-792 560,-792 560,-822"/>
<text text-anchor="start" x="396" y="-810" font-family="Helvetica,sans-Serif" font-size="10.00">ore::data::XMLUtils</text>
<text text-anchor="middle" x="474" y="-799" font-family="Helvetica,sans-Serif" font-size="10.00">::addChildrenWithOptionalAttributes</text>
</a>
</g>
</g>
<!-- Node11&#45;&gt;Node13 -->
<g id="edge15" class="edge"><title>Node11&#45;&gt;Node13</title>
<path fill="none" stroke="#63b8ff" d="M348.192,-807C357.607,-807 367.643,-807 377.777,-807"/>
<polygon fill="#63b8ff" stroke="#63b8ff" points="377.925,-810.5 387.925,-807 377.925,-803.5 377.925,-810.5"/>
</g>
<!-- Node14 -->
<g id="node14" class="node"><title>Node14</title>
<g id="a_node14"><a xlink:href="classore_1_1data_1_1_schedule_data.html#a314b19ebe3b2ce78e9df49fee95c21dd" target="_top" xlink:title="Check if has any dates/rules/derived schedules.">
<polygon fill="white" stroke="#666666" points="535,-974 413,-974 413,-944 535,-944 535,-974"/>
<text text-anchor="start" x="421" y="-962" font-family="Helvetica,sans-Serif" font-size="10.00">ore::data::ScheduleData</text>
<text text-anchor="middle" x="474" y="-951" font-family="Helvetica,sans-Serif" font-size="10.00">::hasData</text>
</a>
</g>
</g>
<!-- Node11&#45;&gt;Node14 -->
<g id="edge19" class="edge"><title>Node11&#45;&gt;Node14</title>
<path fill="none" stroke="#63b8ff" d="M300.938,-822.185C314.024,-849.101 344.952,-905.151 388,-935 392.763,-938.302 397.972,-941.153 403.392,-943.613"/>
<polygon fill="#63b8ff" stroke="#63b8ff" points="402.09,-946.862 412.671,-947.395 404.732,-940.379 402.09,-946.862"/>
</g>
<!-- Node15 -->
<g id="node15" class="node"><title>Node15</title>
<g id="a_node15"><a xlink:href="classore_1_1data_1_1_x_m_l_utils.html#ac1ace6a9e07990c65081057f2ecdf164" target="_top" xlink:title=" ">
<polygon fill="white" stroke="#666666" points="842.5,-833 743.5,-833 743.5,-803 842.5,-803 842.5,-833"/>
<text text-anchor="start" x="751.5" y="-821" font-family="Helvetica,sans-Serif" font-size="10.00">ore::data::XMLUtils</text>
<text text-anchor="middle" x="793" y="-810" font-family="Helvetica,sans-Serif" font-size="10.00">::setNodeName</text>
</a>
</g>
</g>
<!-- Node11&#45;&gt;Node15 -->
<g id="edge20" class="edge"><title>Node11&#45;&gt;Node15</title>
<path fill="none" stroke="#63b8ff" d="M296.718,-822.121C304.038,-857.799 327.839,-946.927 388,-983 524.153,-1064.64 708.083,-902.09 770.362,-840.399"/>
<polygon fill="#63b8ff" stroke="#63b8ff" points="773.093,-842.618 777.672,-833.064 768.134,-837.677 773.093,-842.618"/>
</g>
<!-- Node16 -->
<g id="node16" class="node"><title>Node16</title>
<g id="a_node16"><a xlink:href="classore_1_1data_1_1_premium_data.html#a7efefb9270d6c4933e4c96de0771f17a" target="_top" xlink:title=" ">
<polygon fill="white" stroke="#666666" points="534,-698 414,-698 414,-668 534,-668 534,-698"/>
<text text-anchor="start" x="422" y="-686" font-family="Helvetica,sans-Serif" font-size="10.00">ore::data::PremiumData</text>
<text text-anchor="middle" x="474" y="-675" font-family="Helvetica,sans-Serif" font-size="10.00">::toXML</text>
</a>
</g>
</g>
<!-- Node11&#45;&gt;Node16 -->
<g id="edge22" class="edge"><title>Node11&#45;&gt;Node16</title>
<path fill="none" stroke="#63b8ff" d="M315.949,-791.795C347.706,-769.796 406.591,-729.004 442.537,-704.103"/>
<polygon fill="#63b8ff" stroke="#63b8ff" points="444.925,-706.707 451.152,-698.135 440.938,-700.952 444.925,-706.707"/>
</g>
<!-- Node18 -->
<g id="node18" class="node"><title>Node18</title>
<g id="a_node18"><a xlink:href="classore_1_1data_1_1_schedule_data.html#a7efefb9270d6c4933e4c96de0771f17a" target="_top" xlink:title=" ">
<polygon fill="white" stroke="#666666" points="535,-564 413,-564 413,-534 535,-534 535,-564"/>
<text text-anchor="start" x="421" y="-552" font-family="Helvetica,sans-Serif" font-size="10.00">ore::data::ScheduleData</text>
<text text-anchor="middle" x="474" y="-541" font-family="Helvetica,sans-Serif" font-size="10.00">::toXML</text>
</a>
</g>
</g>
<!-- Node11&#45;&gt;Node18 -->
<g id="edge27" class="edge"><title>Node11&#45;&gt;Node18</title>
<path fill="none" stroke="#63b8ff" d="M295.531,-791.824C300.544,-750.3 320.264,-633.863 388,-573 392.53,-568.929 397.701,-565.544 403.204,-562.73"/>
<polygon fill="#63b8ff" stroke="#63b8ff" points="405,-565.762 412.725,-558.512 402.165,-559.362 405,-565.762"/>
</g>
<!-- Node12&#45;&gt;Node2 -->
<g id="edge14" class="edge"><title>Node12&#45;&gt;Node2</title>
<path fill="none" stroke="#63b8ff" d="M523.785,-899.932C536.332,-895.641 549.298,-889.817 560,-882 592.635,-858.163 618.142,-818.065 632.256,-792.334"/>
<polygon fill="#63b8ff" stroke="#63b8ff" points="635.488,-793.711 637.099,-783.239 629.31,-790.421 635.488,-793.711"/>
</g>
<!-- Node13&#45;&gt;Node13 -->
<g id="edge16" class="edge"><title>Node13&#45;&gt;Node13</title>
<path fill="none" stroke="#63b8ff" d="M444.117,-822.275C437.477,-831.406 447.438,-840 474,-840 489.771,-840 499.69,-836.97 503.756,-832.598"/>
<polygon fill="#63b8ff" stroke="#63b8ff" points="507.26,-832.318 503.883,-822.275 500.26,-832.232 507.26,-832.318"/>
</g>
<!-- Node15&#45;&gt;Node4 -->
<g id="edge21" class="edge"><title>Node15&#45;&gt;Node4</title>
<path fill="none" stroke="#63b8ff" d="M802.947,-802.767C829.182,-758.101 906.061,-627.213 937.92,-572.972"/>
<polygon fill="#63b8ff" stroke="#63b8ff" points="941.104,-574.462 943.151,-564.066 935.068,-570.916 941.104,-574.462"/>
</g>
<!-- Node16&#45;&gt;Node2 -->
<g id="edge23" class="edge"><title>Node16&#45;&gt;Node2</title>
<path fill="none" stroke="#63b8ff" d="M529.925,-698.143C540.246,-701.978 550.705,-706.582 560,-712 578.495,-722.78 578.249,-732.035 596,-744 597.899,-745.28 599.876,-746.534 601.899,-747.755"/>
<polygon fill="#63b8ff" stroke="#63b8ff" points="600.535,-751.004 610.963,-752.877 603.98,-744.91 600.535,-751.004"/>
</g>
<!-- Node16&#45;&gt;Node3 -->
<g id="edge24" class="edge"><title>Node16&#45;&gt;Node3</title>
<path fill="none" stroke="#63b8ff" d="M534.084,-682.334C580.21,-679.628 644.692,-670.912 695,-645 728.619,-627.684 758.023,-594.643 775.399,-572.216"/>
<polygon fill="#63b8ff" stroke="#63b8ff" points="778.222,-574.286 781.453,-564.196 772.635,-570.068 778.222,-574.286"/>
</g>
<!-- Node17 -->
<g id="node17" class="node"><title>Node17</title>
<g id="a_node17"><a xlink:href="namespaceore_1_1data.html#a86651dfeb5c18ee891f7a4734d8cf455" target="_top" xlink:title=" ">
<polygon fill="white" stroke="#666666" points="694.5,-716.5 596.5,-716.5 596.5,-697.5 694.5,-697.5 694.5,-716.5"/>
<text text-anchor="middle" x="645.5" y="-704.5" font-family="Helvetica,sans-Serif" font-size="10.00">ore::data::to_string</text>
</a>
</g>
</g>
<!-- Node16&#45;&gt;Node17 -->
<g id="edge25" class="edge"><title>Node16&#45;&gt;Node17</title>
<path fill="none" stroke="#63b8ff" d="M534.283,-691.394C551.122,-693.778 569.44,-696.372 586.22,-698.748"/>
<polygon fill="#63b8ff" stroke="#63b8ff" points="586.05,-702.259 596.442,-700.195 587.031,-695.328 586.05,-702.259"/>
</g>
<!-- Node17&#45;&gt;Node17 -->
<g id="edge26" class="edge"><title>Node17&#45;&gt;Node17</title>
<path fill="none" stroke="#63b8ff" d="M622.997,-716.583C612.05,-725.234 619.551,-734.5 645.5,-734.5 662.124,-734.5 671.176,-730.697 672.658,-725.689"/>
<polygon fill="#63b8ff" stroke="#63b8ff" points="675.671,-723.894 668.003,-716.583 669.438,-727.08 675.671,-723.894"/>
</g>
<!-- Node18&#45;&gt;Node3 -->
<g id="edge28" class="edge"><title>Node18&#45;&gt;Node3</title>
<path fill="none" stroke="#63b8ff" d="M535.371,-549C588.134,-549 664.816,-549 720.609,-549"/>
<polygon fill="#63b8ff" stroke="#63b8ff" points="720.774,-552.5 730.774,-549 720.774,-545.5 720.774,-552.5"/>
</g>
<!-- Node18&#45;&gt;Node5 -->
<g id="edge29" class="edge"><title>Node18&#45;&gt;Node5</title>
<path fill="none" stroke="#63b8ff" d="M488.41,-533.899C505.817,-513.979 536.718,-477.517 560,-444 587.935,-403.784 615.989,-354.003 631.713,-325.04"/>
<polygon fill="#63b8ff" stroke="#63b8ff" points="634.89,-326.523 636.555,-316.06 628.728,-323.201 634.89,-326.523"/>
</g>
<!-- Node19&#45;&gt;Node2 -->
<g id="edge34" class="edge"><title>Node19&#45;&gt;Node2</title>
<path fill="none" stroke="#63b8ff" d="M141.762,-286.756C152.416,-342.637 213.717,-623.698 388,-741 446.401,-780.307 529.809,-781.518 585.484,-776.6"/>
<polygon fill="#63b8ff" stroke="#63b8ff" points="585.932,-780.073 595.544,-775.619 585.252,-773.106 585.932,-780.073"/>
</g>
<!-- Node19&#45;&gt;Node3 -->
<g id="edge35" class="edge"><title>Node19&#45;&gt;Node3</title>
<path fill="none" stroke="#63b8ff" d="M148.8,-267.14C161.049,-253.043 183.378,-225.955 198,-200 219.146,-162.465 198.326,-134.153 234,-110 258.824,-93.1932 493.073,-93.293 560,-115 629.305,-137.478 652.527,-148.801 695,-208 767.623,-309.221 786.044,-463.544 790.575,-523.728"/>
<polygon fill="#63b8ff" stroke="#63b8ff" points="787.092,-524.099 791.269,-533.835 794.075,-523.619 787.092,-524.099"/>
</g>
<!-- Node19&#45;&gt;Node5 -->
<g id="edge36" class="edge"><title>Node19&#45;&gt;Node5</title>
<path fill="none" stroke="#63b8ff" d="M198.096,-271.964C279.47,-266.052 431.81,-259.149 560,-277 569.969,-278.388 580.414,-280.656 590.428,-283.257"/>
<polygon fill="#63b8ff" stroke="#63b8ff" points="589.694,-286.685 600.263,-285.95 591.542,-279.934 589.694,-286.685"/>
</g>
<!-- Node20 -->
<g id="node20" class="node"><title>Node20</title>
<g id="a_node20"><a xlink:href="classore_1_1data_1_1_x_m_l_utils.html#a226c81c31def2ba2c853ca803d1fafc5" target="_top" xlink:title=" ">
<polygon fill="white" stroke="#666666" points="342.5,-149 243.5,-149 243.5,-119 342.5,-119 342.5,-149"/>
<text text-anchor="start" x="251.5" y="-137" font-family="Helvetica,sans-Serif" font-size="10.00">ore::data::XMLUtils</text>
<text text-anchor="middle" x="293" y="-126" font-family="Helvetica,sans-Serif" font-size="10.00">::addAttribute</text>
</a>
</g>
</g>
<!-- Node19&#45;&gt;Node20 -->
<g id="edge31" class="edge"><title>Node19&#45;&gt;Node20</title>
<path fill="none" stroke="#63b8ff" d="M150.448,-267.171C174.54,-244.505 234.499,-188.096 268.141,-156.446"/>
<polygon fill="#63b8ff" stroke="#63b8ff" points="270.808,-158.743 275.693,-149.342 266.011,-153.645 270.808,-158.743"/>
</g>
<!-- Node22 -->
<g id="node22" class="node"><title>Node22</title>
<g id="a_node22"><a xlink:href="classore_1_1data_1_1_trade_actions.html#a644718bb2fb240de962dc3c9a1fdf0dc" target="_top" xlink:title="Returns true of this set of actions is empty.">
<polygon fill="white" stroke="#666666" points="352,-354 234,-354 234,-324 352,-324 352,-354"/>
<text text-anchor="start" x="242" y="-342" font-family="Helvetica,sans-Serif" font-size="10.00">ore::data::TradeActions</text>
<text text-anchor="middle" x="293" y="-331" font-family="Helvetica,sans-Serif" font-size="10.00">::empty</text>
</a>
</g>
</g>
<!-- Node19&#45;&gt;Node22 -->
<g id="edge37" class="edge"><title>Node19&#45;&gt;Node22</title>
<path fill="none" stroke="#63b8ff" d="M163.417,-286.552C185.243,-295.454 218.419,-308.987 245.604,-320.075"/>
<polygon fill="#63b8ff" stroke="#63b8ff" points="244.361,-323.348 254.942,-323.884 247.004,-316.867 244.361,-323.348"/>
</g>
<!-- Node23 -->
<g id="node23" class="node"><title>Node23</title>
<g id="a_node23"><a xlink:href="classore_1_1data_1_1_envelope.html#a7efefb9270d6c4933e4c96de0771f17a" target="_top" xlink:title=" ">
<polygon fill="white" stroke="#666666" points="343,-402 243,-402 243,-372 343,-372 343,-402"/>
<text text-anchor="start" x="251" y="-390" font-family="Helvetica,sans-Serif" font-size="10.00">ore::data::Envelope</text>
<text text-anchor="middle" x="293" y="-379" font-family="Helvetica,sans-Serif" font-size="10.00">::toXML</text>
</a>
</g>
</g>
<!-- Node19&#45;&gt;Node23 -->
<g id="edge38" class="edge"><title>Node19&#45;&gt;Node23</title>
<path fill="none" stroke="#63b8ff" d="M148.452,-286.703C163.938,-303.995 198.543,-340.44 234,-363 236.413,-364.536 238.942,-366.009 241.536,-367.416"/>
<polygon fill="#63b8ff" stroke="#63b8ff" points="240.033,-370.577 250.54,-371.941 243.177,-364.323 240.033,-370.577"/>
</g>
<!-- Node27 -->
<g id="node27" class="node"><title>Node27</title>
<g id="a_node27"><a xlink:href="classore_1_1data_1_1_trade_actions.html#a7efefb9270d6c4933e4c96de0771f17a" target="_top" xlink:title=" ">
<polygon fill="white" stroke="#666666" points="533,-192 415,-192 415,-162 533,-162 533,-192"/>
<text text-anchor="start" x="423" y="-180" font-family="Helvetica,sans-Serif" font-size="10.00">ore::data::TradeActions</text>
<text text-anchor="middle" x="474" y="-169" font-family="Helvetica,sans-Serif" font-size="10.00">::toXML</text>
</a>
</g>
</g>
<!-- Node19&#45;&gt;Node27 -->
<g id="edge47" class="edge"><title>Node19&#45;&gt;Node27</title>
<path fill="none" stroke="#63b8ff" d="M171.929,-267.412C227.434,-250.744 342.532,-216.18 413.236,-194.947"/>
<polygon fill="#63b8ff" stroke="#63b8ff" points="414.336,-198.271 422.907,-192.043 412.323,-191.567 414.336,-198.271"/>
</g>
<!-- Node20&#45;&gt;Node4 -->
<g id="edge32" class="edge"><title>Node20&#45;&gt;Node4</title>
<path fill="none" stroke="#63b8ff" d="M342.794,-120.021C397.098,-106.847 486.835,-92.238 560,-115 768.935,-180.001 903.899,-443.135 941.364,-524.743"/>
<polygon fill="#63b8ff" stroke="#63b8ff" points="938.231,-526.311 945.541,-533.98 944.609,-523.426 938.231,-526.311"/>
</g>
<!-- Node21 -->
<g id="node21" class="node"><title>Node21</title>
<g id="a_node21"><a xlink:href="classore_1_1data_1_1_x_m_l_document.html#a46d969cdb00bff64f3f4c0d2975a08d3" target="_top" xlink:title=" ">
<polygon fill="white" stroke="#666666" points="547,-143.5 401,-143.5 401,-124.5 547,-124.5 547,-143.5"/>
<text text-anchor="middle" x="474" y="-131.5" font-family="Helvetica,sans-Serif" font-size="10.00">ore::data::XMLDocument::doc</text>
</a>
</g>
</g>
<!-- Node20&#45;&gt;Node21 -->
<g id="edge33" class="edge"><title>Node20&#45;&gt;Node21</title>
<path fill="none" stroke="#63b8ff" d="M342.913,-134C357.742,-134 374.458,-134 390.844,-134"/>
<polygon fill="#63b8ff" stroke="#63b8ff" points="390.984,-137.5 400.984,-134 390.984,-130.5 390.984,-137.5"/>
</g>
<!-- Node23&#45;&gt;Node2 -->
<g id="edge39" class="edge"><title>Node23&#45;&gt;Node2</title>
<path fill="none" stroke="#63b8ff" d="M293.518,-402.043C292.752,-453.062 297.493,-621.101 388,-707 391.647,-710.461 511.157,-737.915 585.741,-754.791"/>
<polygon fill="#63b8ff" stroke="#63b8ff" points="585.425,-758.308 595.95,-757.099 586.968,-751.48 585.425,-758.308"/>
</g>
<!-- Node23&#45;&gt;Node3 -->
<g id="edge40" class="edge"><title>Node23&#45;&gt;Node3</title>
<path fill="none" stroke="#63b8ff" d="M343.161,-399.685C448.412,-426.869 686.724,-488.562 695,-492 718.408,-501.723 743.008,-516.235 761.578,-528.182"/>
<polygon fill="#63b8ff" stroke="#63b8ff" points="759.894,-531.263 770.178,-533.809 763.726,-525.405 759.894,-531.263"/>
</g>
<!-- Node23&#45;&gt;Node5 -->
<g id="edge41" class="edge"><title>Node23&#45;&gt;Node5</title>
<path fill="none" stroke="#63b8ff" d="M343.199,-374.117C357.613,-370.43 373.417,-366.472 388,-363 464.16,-344.87 484.09,-344.148 560,-325 568.488,-322.859 577.417,-320.472 586.164,-318.056"/>
<polygon fill="#63b8ff" stroke="#63b8ff" points="587.238,-321.39 595.928,-315.328 585.355,-314.648 587.238,-321.39"/>
</g>
<!-- Node24 -->
<g id="node24" class="node"><title>Node24</title>
<g id="a_node24"><a xlink:href="classore_1_1data_1_1_netting_set_details.html#ab87072d461177abcb48735d002150bfb" target="_top" xlink:title=" ">
<polygon fill="white" stroke="#666666" points="542.5,-316 405.5,-316 405.5,-286 542.5,-286 542.5,-316"/>
<text text-anchor="start" x="413.5" y="-304" font-family="Helvetica,sans-Serif" font-size="10.00">ore::data::NettingSetDetails</text>
<text text-anchor="middle" x="474" y="-293" font-family="Helvetica,sans-Serif" font-size="10.00">::emptyOptionalFields</text>
</a>
</g>
</g>
<!-- Node23&#45;&gt;Node24 -->
<g id="edge42" class="edge"><title>Node23&#45;&gt;Node24</title>
<path fill="none" stroke="#63b8ff" d="M335.463,-371.946C341.182,-369.271 346.853,-366.278 352,-363 370.307,-351.339 369.332,-341.073 388,-330 394.362,-326.227 401.284,-322.856 408.342,-319.868"/>
<polygon fill="#63b8ff" stroke="#63b8ff" points="410.006,-322.973 418.008,-316.029 407.423,-316.467 410.006,-322.973"/>
</g>
<!-- Node25 -->
<g id="node25" class="node"><title>Node25</title>
<g id="a_node25"><a xlink:href="classore_1_1data_1_1_netting_set_details.html#a9bf8e40febad0782c5855488041ecfd7" target="_top" xlink:title=" ">
<polygon fill="white" stroke="#666666" points="542.5,-402 405.5,-402 405.5,-372 542.5,-372 542.5,-402"/>
<text text-anchor="start" x="413.5" y="-390" font-family="Helvetica,sans-Serif" font-size="10.00">ore::data::NettingSetDetails</text>
<text text-anchor="middle" x="474" y="-379" font-family="Helvetica,sans-Serif" font-size="10.00">::nettingSetId</text>
</a>
</g>
</g>
<!-- Node23&#45;&gt;Node25 -->
<g id="edge43" class="edge"><title>Node23&#45;&gt;Node25</title>
<path fill="none" stroke="#63b8ff" d="M343.386,-387C359.39,-387 377.551,-387 395.106,-387"/>
<polygon fill="#63b8ff" stroke="#63b8ff" points="395.351,-390.5 405.351,-387 395.351,-383.5 395.351,-390.5"/>
</g>
<!-- Node26 -->
<g id="node26" class="node"><title>Node26</title>
<g id="a_node26"><a xlink:href="classore_1_1data_1_1_netting_set_details.html#a7efefb9270d6c4933e4c96de0771f17a" target="_top" xlink:title=" ">
<polygon fill="white" stroke="#666666" points="542.5,-612 405.5,-612 405.5,-582 542.5,-582 542.5,-612"/>
<text text-anchor="start" x="413.5" y="-600" font-family="Helvetica,sans-Serif" font-size="10.00">ore::data::NettingSetDetails</text>
<text text-anchor="middle" x="474" y="-589" font-family="Helvetica,sans-Serif" font-size="10.00">::toXML</text>
</a>
</g>
</g>
<!-- Node23&#45;&gt;Node26 -->
<g id="edge44" class="edge"><title>Node23&#45;&gt;Node26</title>
<path fill="none" stroke="#63b8ff" d="M297.253,-402.134C305.675,-437.59 331.587,-526.533 388,-573 390.604,-575.145 393.388,-577.098 396.302,-578.877"/>
<polygon fill="#63b8ff" stroke="#63b8ff" points="394.912,-582.102 405.384,-583.709 398.199,-575.922 394.912,-582.102"/>
</g>
<!-- Node26&#45;&gt;Node2 -->
<g id="edge45" class="edge"><title>Node26&#45;&gt;Node2</title>
<path fill="none" stroke="#63b8ff" d="M502.944,-612.027C521.199,-623.018 544.449,-639.395 560,-659 585.497,-691.142 567.857,-714.148 596,-744 596.773,-744.82 597.581,-745.616 598.417,-746.389"/>
<polygon fill="#63b8ff" stroke="#63b8ff" points="596.549,-749.368 606.602,-752.713 600.829,-743.829 596.549,-749.368"/>
</g>
<!-- Node26&#45;&gt;Node3 -->
<g id="edge46" class="edge"><title>Node26&#45;&gt;Node3</title>
<path fill="none" stroke="#63b8ff" d="M542.616,-586.762C595.059,-578.821 667.552,-567.844 720.865,-559.771"/>
<polygon fill="#63b8ff" stroke="#63b8ff" points="721.561,-563.206 730.924,-558.248 720.513,-556.285 721.561,-563.206"/>
</g>
<!-- Node27&#45;&gt;Node3 -->
<g id="edge48" class="edge"><title>Node27&#45;&gt;Node3</title>
<path fill="none" stroke="#63b8ff" d="M533.244,-189.121C583.028,-202.435 653.072,-228.671 695,-277 759.565,-351.423 782.164,-471.874 789.181,-523.827"/>
<polygon fill="#63b8ff" stroke="#63b8ff" points="785.719,-524.352 790.451,-533.832 792.663,-523.471 785.719,-524.352"/>
</g>
<!-- Node27&#45;&gt;Node5 -->
<g id="edge49" class="edge"><title>Node27&#45;&gt;Node5</title>
<path fill="none" stroke="#63b8ff" d="M532.692,-192.152C542.219,-195.906 551.688,-200.479 560,-206 588.765,-225.107 613.93,-256.339 629.153,-277.742"/>
<polygon fill="#63b8ff" stroke="#63b8ff" points="626.286,-279.75 634.862,-285.971 632.037,-275.759 626.286,-279.75"/>
</g>
</g>
</svg>
        <g id="navigator" transform="translate(0 0)" fill="#404254">
                <rect fill="#f2f5e9" fill-opacity="0.5" stroke="#606060" stroke-width=".5" x="0" y="0" width="60" height="60"/>
                <use id="zoomplus" xlink:href="#zoomPlus" x="17" y="9" onmousedown="handleZoom(evt,'in')"/>
                <use id="zoomminus" xlink:href="#zoomMin" x="42" y="9" onmousedown="handleZoom(evt,'out')"/>
                <use id="reset" xlink:href="#resetDef" x="30" y="36" onmousedown="handleReset()"/>
                <g id="arrowUp" xlink:href="#dirArrow" transform="translate(30 24)" onmousedown="handlePan(0,-1)">
                  <use xlink:href="#rim" fill="#404040">
                        <set attributeName="fill" to="#808080" begin="arrowUp.mouseover" end="arrowUp.mouseout"/>
                  </use>
                  <path fill="none" stroke="white" stroke-width="1.5" d="M0,-3.0v7 M-2.5,-0.5L0,-3.0L2.5,-0.5"/>
                </g>
                <g id="arrowRight" xlink:href="#dirArrow" transform="rotate(90) translate(36 -43)" onmousedown="handlePan(1,0)">
                  <use xlink:href="#rim" fill="#404040">
                        <set attributeName="fill" to="#808080" begin="arrowRight.mouseover" end="arrowRight.mouseout"/>
                  </use>
                  <path fill="none" stroke="white" stroke-width="1.5" d="M0,-3.0v7 M-2.5,-0.5L0,-3.0L2.5,-0.5"/>
                </g>
                <g id="arrowDown" xlink:href="#dirArrow" transform="rotate(180) translate(-30 -48)" onmousedown="handlePan(0,1)">
                  <use xlink:href="#rim" fill="#404040">
                        <set attributeName="fill" to="#808080" begin="arrowDown.mouseover" end="arrowDown.mouseout"/>
                  </use>
                  <path fill="none" stroke="white" stroke-width="1.5" d="M0,-3.0v7 M-2.5,-0.5L0,-3.0L2.5,-0.5"/>
                </g>
                <g id="arrowLeft" xlink:href="#dirArrow" transform="rotate(270) translate(-36 17)" onmousedown="handlePan(-1,0)">
                  <use xlink:href="#rim" fill="#404040">
                        <set attributeName="fill" to="#808080" begin="arrowLeft.mouseover" end="arrowLeft.mouseout"/>
                  </use>
                  <path fill="none" stroke="white" stroke-width="1.5" d="M0,-3.0v7 M-2.5,-0.5L0,-3.0L2.5,-0.5"/>
                </g>
        </g>
        <svg viewBox="0 0 15 15" width="100%" height="30px" preserveAspectRatio="xMaxYMin meet">
         <g id="arrow_out" transform="scale(0.3 0.3)">
          <a xlink:href="classore_1_1data_1_1_fx_option_a7efefb9270d6c4933e4c96de0771f17a_cgraph_org.svg" target="_base">
           <rect id="button" ry="5" rx="5" y="6" x="6" height="38" width="38"
                fill="#f2f5e9" fill-opacity="0.5" stroke="#606060" stroke-width="1.0"/>
           <path id="arrow"
             d="M 11.500037,31.436501 C 11.940474,20.09759 22.043105,11.32322 32.158766,21.979434 L 37.068811,17.246167 C 37.068811,17.246167 37.088388,32 37.088388,32 L 22.160133,31.978069 C 22.160133,31.978069 26.997745,27.140456 26.997745,27.140456 C 18.528582,18.264221 13.291696,25.230495 11.500037,31.436501 z"
             style="fill:#404040;"/>
          </a>
         </g>
        </svg>
</svg>
