<?xml version="1.0" encoding="UTF-8" standalone="no"?>
<!DOCTYPE svg PUBLIC "-//W3C//DTD SVG 1.1//EN"
 "http://www.w3.org/Graphics/SVG/1.1/DTD/svg11.dtd">
<!-- Generated by graphviz version 2.38.0 (20140413.2041)
 -->
<!-- Title: infName Pages: 1 -->
<!--zoomable 167 -->
<svg id="main" version="1.1" xmlns="http://www.w3.org/2000/svg" xmlns:xlink="http://www.w3.org/1999/xlink" xml:space="preserve" onload="init(evt)">
<style type="text/css"><![CDATA[
.edge:hover path { stroke: red; }
.edge:hover polygon { stroke: red; fill: red; }
]]></style>
<script type="text/javascript"><![CDATA[
var edges = document.getElementsByTagName('g');
if (edges && edges.length) {
  for (var i=0;i<edges.length;i++) {
    if (edges[i].id.substr(0,4)=='edge') {
      edges[i].setAttribute('class','edge');
    }
  }
}
]]></script>
        <defs>
                <circle id="rim" cx="0" cy="0" r="7"/>
                <circle id="rim2" cx="0" cy="0" r="3.5"/>
                <g id="zoomPlus">
                        <use xlink:href="#rim" fill="#404040">
                                <set attributeName="fill" to="#808080" begin="zoomplus.mouseover" end="zoomplus.mouseout"/>
                        </use>
                        <path d="M-4,0h8M0,-4v8" fill="none" stroke="white" stroke-width="1.5" pointer-events="none"/>
                </g>
                <g id="zoomMin">
                        <use xlink:href="#rim" fill="#404040">
                                <set attributeName="fill" to="#808080" begin="zoomminus.mouseover" end="zoomminus.mouseout"/>
                        </use>
                        <path d="M-4,0h8" fill="none" stroke="white" stroke-width="1.5" pointer-events="none"/>
                </g>
                <g id="dirArrow">
                        <path fill="none" stroke="white" stroke-width="1.5" d="M0,-3.0v7 M-2.5,-0.5L0,-3.0L2.5,-0.5"/>
                </g>
               <g id="resetDef">
                       <use xlink:href="#rim2" fill="#404040">
                               <set attributeName="fill" to="#808080" begin="reset.mouseover" end="reset.mouseout"/>
                       </use>
               </g>
        </defs>

<script type="text/javascript">
var viewWidth = 578;
var viewHeight = 167;
var sectionId = 'dynsection-29';
</script>
<script xlink:href="svgpan.js"/>
<svg id="graph" class="graph">
<g id="viewport">
<title>infName</title>
<!-- Node1 -->
<g id="node1" class="node"><title>Node1</title>
<g id="a_node1"><a xlink:title=" ">
<polygon fill="#999999" stroke="#666666" points="570,-88.5 518,-88.5 518,-69.5 570,-69.5 570,-88.5"/>
<text text-anchor="middle" x="544" y="-76.5" font-family="Helvetica,sans-Serif" font-size="10.00">infName</text>
</a>
</g>
</g>
<!-- Node2 -->
<g id="node2" class="node"><title>Node2</title>
<g id="a_node2"><a xlink:href="classore_1_1data_1_1_scripted_trade.html#a828e71af6d5fd00b8e73414732885b83" target="_top" xlink:title=" ">
<polygon fill="white" stroke="#666666" points="480,-159 359,-159 359,-129 480,-129 480,-159"/>
<text text-anchor="start" x="367" y="-147" font-family="Helvetica,sans-Serif" font-size="10.00">ore::data::ScriptedTrade</text>
<text text-anchor="middle" x="419.5" y="-136" font-family="Helvetica,sans-Serif" font-size="10.00">::build</text>
</a>
</g>
</g>
<!-- Node1&#45;&gt;Node2 -->
<g id="edge1" class="edge"><title>Node1&#45;&gt;Node2</title>
<path fill="none" stroke="#63b8ff" d="M518.97,-93.8761C507.856,-100.576 494.396,-108.437 482,-115 473.028,-119.75 463.143,-124.581 453.972,-128.903"/>
<polygon fill="#63b8ff" stroke="#63b8ff" points="520.957,-96.7641 527.68,-88.5754 517.318,-90.7845 520.957,-96.7641"/>
</g>
<!-- Node3 -->
<g id="node3" class="node"><title>Node3</title>
<g id="a_node3"><a xlink:href="classore_1_1data_1_1_scripted_trade_engine_builder.html#a8f7fd6b51798363b9f87020fb40b792b" target="_top" xlink:title=" ">
<polygon fill="white" stroke="#666666" points="321,-78 157,-78 157,-48 321,-48 321,-78"/>
<text text-anchor="start" x="165" y="-66" font-family="Helvetica,sans-Serif" font-size="10.00">ore::data::ScriptedTrade</text>
<text text-anchor="middle" x="239" y="-55" font-family="Helvetica,sans-Serif" font-size="10.00">EngineBuilder::buildGaussianCam</text>
</a>
</g>
</g>
<!-- Node1&#45;&gt;Node3 -->
<g id="edge2" class="edge"><title>Node1&#45;&gt;Node3</title>
<path fill="none" stroke="#63b8ff" d="M507.545,-81.0388C499.171,-81.4385 490.273,-81.7967 482,-82 426.461,-83.3649 412.376,-86.4671 357,-82 345.411,-81.0651 333.238,-79.6174 321.304,-77.9288"/>
<polygon fill="#63b8ff" stroke="#63b8ff" points="507.974,-84.5216 517.784,-80.5188 507.619,-77.5306 507.974,-84.5216"/>
</g>
<!-- Node5 -->
<g id="node5" class="node"><title>Node5</title>
<g id="a_node5"><a xlink:href="namespaceore_1_1data.html#af3f188ba8bea2815f6ae6ad91ce54ff9" target="_top" xlink:title=" ">
<polygon fill="white" stroke="#666666" points="482,-73 357,-73 357,-43 482,-43 482,-73"/>
<text text-anchor="start" x="365" y="-61" font-family="Helvetica,sans-Serif" font-size="10.00">ore::data::convertIndexTo</text>
<text text-anchor="middle" x="419.5" y="-50" font-family="Helvetica,sans-Serif" font-size="10.00">CamCorrelationEntry</text>
</a>
</g>
</g>
<!-- Node1&#45;&gt;Node5 -->
<g id="edge4" class="edge"><title>Node1&#45;&gt;Node5</title>
<path fill="none" stroke="#63b8ff" d="M507.835,-72.9717C499.799,-71.594 491.025,-70.09 482.239,-68.5838"/>
<polygon fill="#63b8ff" stroke="#63b8ff" points="507.467,-76.4596 517.915,-74.6997 508.65,-69.5603 507.467,-76.4596"/>
</g>
<!-- Node6 -->
<g id="node6" class="node"><title>Node6</title>
<g id="a_node6"><a xlink:href="classore_1_1data_1_1_scripted_trade_engine_builder.html#a5b47848c60991ceb9a00ba760766f4f3" target="_top" xlink:title=" ">
<polygon fill="white" stroke="#666666" points="318,-30 160,-30 160,-0 318,-0 318,-30"/>
<text text-anchor="start" x="168" y="-18" font-family="Helvetica,sans-Serif" font-size="10.00">ore::data::ScriptedTrade</text>
<text text-anchor="middle" x="239" y="-7" font-family="Helvetica,sans-Serif" font-size="10.00">EngineBuilder::setupCorrelations</text>
</a>
</g>
</g>
<!-- Node1&#45;&gt;Node6 -->
<g id="edge6" class="edge"><title>Node1&#45;&gt;Node6</title>
<path fill="none" stroke="#63b8ff" d="M526.204,-62.5468C514.744,-52.4166 498.669,-40.2168 482,-34 429.68,-14.4876 366.691,-10.0837 318.093,-10.3758"/>
<polygon fill="#63b8ff" stroke="#63b8ff" points="523.953,-65.232 533.675,-69.4422 528.7,-60.088 523.953,-65.232"/>
</g>
<!-- Node4 -->
<g id="node4" class="node"><title>Node4</title>
<g id="a_node4"><a xlink:href="classore_1_1data_1_1_scripted_trade_engine_builder.html#afa7bc32050325672e45000b32d62ec0b" target="_top" xlink:title=" ">
<polygon fill="white" stroke="#666666" points="121,-54 0,-54 0,-24 121,-24 121,-54"/>
<text text-anchor="start" x="8" y="-42" font-family="Helvetica,sans-Serif" font-size="10.00">ore::data::ScriptedTrade</text>
<text text-anchor="middle" x="60.5" y="-31" font-family="Helvetica,sans-Serif" font-size="10.00">EngineBuilder::engine</text>
</a>
</g>
</g>
<!-- Node3&#45;&gt;Node4 -->
<g id="edge3" class="edge"><title>Node3&#45;&gt;Node4</title>
<path fill="none" stroke="#63b8ff" d="M147.073,-50.636C138.293,-49.4421 129.549,-48.2531 121.188,-47.1162"/>
<polygon fill="#63b8ff" stroke="#63b8ff" points="146.602,-54.104 156.982,-51.9834 147.545,-47.1678 146.602,-54.104"/>
</g>
<!-- Node5&#45;&gt;Node3 -->
<g id="edge5" class="edge"><title>Node5&#45;&gt;Node3</title>
<path fill="none" stroke="#63b8ff" d="M346.71,-60.0109C338.317,-60.246 329.709,-60.4871 321.2,-60.7255"/>
<polygon fill="#63b8ff" stroke="#63b8ff" points="346.922,-63.5064 356.82,-59.7277 346.726,-56.5092 346.922,-63.5064"/>
</g>
<!-- Node6&#45;&gt;Node4 -->
<g id="edge7" class="edge"><title>Node6&#45;&gt;Node4</title>
<path fill="none" stroke="#63b8ff" d="M149.719,-27.0042C140.013,-28.324 130.308,-29.6437 121.073,-30.8995"/>
<polygon fill="#63b8ff" stroke="#63b8ff" points="150.377,-30.4471 159.814,-25.6316 149.433,-23.5109 150.377,-30.4471"/>
</g>
</g>
</svg>
        <g id="navigator" transform="translate(0 0)" fill="#404254">
                <rect fill="#f2f5e9" fill-opacity="0.5" stroke="#606060" stroke-width=".5" x="0" y="0" width="60" height="60"/>
                <use id="zoomplus" xlink:href="#zoomPlus" x="17" y="9" onmousedown="handleZoom(evt,'in')"/>
                <use id="zoomminus" xlink:href="#zoomMin" x="42" y="9" onmousedown="handleZoom(evt,'out')"/>
                <use id="reset" xlink:href="#resetDef" x="30" y="36" onmousedown="handleReset()"/>
                <g id="arrowUp" xlink:href="#dirArrow" transform="translate(30 24)" onmousedown="handlePan(0,-1)">
                  <use xlink:href="#rim" fill="#404040">
                        <set attributeName="fill" to="#808080" begin="arrowUp.mouseover" end="arrowUp.mouseout"/>
                  </use>
                  <path fill="none" stroke="white" stroke-width="1.5" d="M0,-3.0v7 M-2.5,-0.5L0,-3.0L2.5,-0.5"/>
                </g>
                <g id="arrowRight" xlink:href="#dirArrow" transform="rotate(90) translate(36 -43)" onmousedown="handlePan(1,0)">
                  <use xlink:href="#rim" fill="#404040">
                        <set attributeName="fill" to="#808080" begin="arrowRight.mouseover" end="arrowRight.mouseout"/>
                  </use>
                  <path fill="none" stroke="white" stroke-width="1.5" d="M0,-3.0v7 M-2.5,-0.5L0,-3.0L2.5,-0.5"/>
                </g>
                <g id="arrowDown" xlink:href="#dirArrow" transform="rotate(180) translate(-30 -48)" onmousedown="handlePan(0,1)">
                  <use xlink:href="#rim" fill="#404040">
                        <set attributeName="fill" to="#808080" begin="arrowDown.mouseover" end="arrowDown.mouseout"/>
                  </use>
                  <path fill="none" stroke="white" stroke-width="1.5" d="M0,-3.0v7 M-2.5,-0.5L0,-3.0L2.5,-0.5"/>
                </g>
                <g id="arrowLeft" xlink:href="#dirArrow" transform="rotate(270) translate(-36 17)" onmousedown="handlePan(-1,0)">
                  <use xlink:href="#rim" fill="#404040">
                        <set attributeName="fill" to="#808080" begin="arrowLeft.mouseover" end="arrowLeft.mouseout"/>
                  </use>
                  <path fill="none" stroke="white" stroke-width="1.5" d="M0,-3.0v7 M-2.5,-0.5L0,-3.0L2.5,-0.5"/>
                </g>
        </g>
        <svg viewBox="0 0 15 15" width="100%" height="30px" preserveAspectRatio="xMaxYMin meet">
         <g id="arrow_out" transform="scale(0.3 0.3)">
          <a xlink:href="classore_1_1data_1_1_index_info_a07abe750604e972b8a6a1bf80bacb6f6_icgraph_org.svg" target="_base">
           <rect id="button" ry="5" rx="5" y="6" x="6" height="38" width="38"
                fill="#f2f5e9" fill-opacity="0.5" stroke="#606060" stroke-width="1.0"/>
           <path id="arrow"
             d="M 11.500037,31.436501 C 11.940474,20.09759 22.043105,11.32322 32.158766,21.979434 L 37.068811,17.246167 C 37.068811,17.246167 37.088388,32 37.088388,32 L 22.160133,31.978069 C 22.160133,31.978069 26.997745,27.140456 26.997745,27.140456 C 18.528582,18.264221 13.291696,25.230495 11.500037,31.436501 z"
             style="fill:#404040;"/>
          </a>
         </g>
        </svg>
</svg>
