<?xml version="1.0" encoding="UTF-8" standalone="no"?>
<!DOCTYPE svg PUBLIC "-//W3C//DTD SVG 1.1//EN"
 "http://www.w3.org/Graphics/SVG/1.1/DTD/svg11.dtd">
<!-- Generated by graphviz version 2.38.0 (20140413.2041)
 -->
<!-- Title: toXML Pages: 1 -->
<!--zoomable 200 -->
<svg id="main" version="1.1" xmlns="http://www.w3.org/2000/svg" xmlns:xlink="http://www.w3.org/1999/xlink" xml:space="preserve" onload="init(evt)">
<style type="text/css"><![CDATA[
.edge:hover path { stroke: red; }
.edge:hover polygon { stroke: red; fill: red; }
]]></style>
<script type="text/javascript"><![CDATA[
var edges = document.getElementsByTagName('g');
if (edges && edges.length) {
  for (var i=0;i<edges.length;i++) {
    if (edges[i].id.substr(0,4)=='edge') {
      edges[i].setAttribute('class','edge');
    }
  }
}
]]></script>
        <defs>
                <circle id="rim" cx="0" cy="0" r="7"/>
                <circle id="rim2" cx="0" cy="0" r="3.5"/>
                <g id="zoomPlus">
                        <use xlink:href="#rim" fill="#404040">
                                <set attributeName="fill" to="#808080" begin="zoomplus.mouseover" end="zoomplus.mouseout"/>
                        </use>
                        <path d="M-4,0h8M0,-4v8" fill="none" stroke="white" stroke-width="1.5" pointer-events="none"/>
                </g>
                <g id="zoomMin">
                        <use xlink:href="#rim" fill="#404040">
                                <set attributeName="fill" to="#808080" begin="zoomminus.mouseover" end="zoomminus.mouseout"/>
                        </use>
                        <path d="M-4,0h8" fill="none" stroke="white" stroke-width="1.5" pointer-events="none"/>
                </g>
                <g id="dirArrow">
                        <path fill="none" stroke="white" stroke-width="1.5" d="M0,-3.0v7 M-2.5,-0.5L0,-3.0L2.5,-0.5"/>
                </g>
               <g id="resetDef">
                       <use xlink:href="#rim2" fill="#404040">
                               <set attributeName="fill" to="#808080" begin="reset.mouseover" end="reset.mouseout"/>
                       </use>
               </g>
        </defs>

<script type="text/javascript">
var viewWidth = 642;
var viewHeight = 200;
var sectionId = 'dynsection-7';
</script>
<script xlink:href="svgpan.js"/>
<svg id="graph" class="graph">
<g id="viewport">
<title>toXML</title>
<!-- Node1 -->
<g id="node1" class="node"><title>Node1</title>
<g id="a_node1"><a xlink:title=" ">
<polygon fill="#999999" stroke="#666666" points="44,-123 0,-123 0,-104 44,-104 44,-123"/>
<text text-anchor="middle" x="22" y="-111" font-family="Helvetica,sans-Serif" font-size="10.00">toXML</text>
</a>
</g>
</g>
<!-- Node2 -->
<g id="node2" class="node"><title>Node2</title>
<g id="a_node2"><a xlink:href="classore_1_1data_1_1_x_m_l_utils.html#aced1fd4bd35df3642d8022301744b138" target="_top" xlink:title=" ">
<polygon fill="white" stroke="#666666" points="314,-171.5 215,-171.5 215,-141.5 314,-141.5 314,-171.5"/>
<text text-anchor="start" x="223" y="-159.5" font-family="Helvetica,sans-Serif" font-size="10.00">ore::data::XMLUtils</text>
<text text-anchor="middle" x="264.5" y="-148.5" font-family="Helvetica,sans-Serif" font-size="10.00">::addChild</text>
</a>
</g>
</g>
<!-- Node1&#45;&gt;Node2 -->
<g id="edge1" class="edge"><title>Node1&#45;&gt;Node2</title>
<path fill="none" stroke="#63b8ff" d="M27.671,-123.116C35.809,-138.614 54.2151,-168.583 80,-180.5 124.442,-201.04 180.993,-188.624 219.491,-175.208"/>
<polygon fill="#63b8ff" stroke="#63b8ff" points="221.162,-178.324 229.358,-171.61 218.764,-171.747 221.162,-178.324"/>
</g>
<!-- Node3 -->
<g id="node3" class="node"><title>Node3</title>
<g id="a_node3"><a xlink:href="classore_1_1data_1_1_x_m_l_document.html#a8717c517803f0df2e693e3cadefeafd7" target="_top" xlink:title="util functions that wrap rapidxml">
<polygon fill="white" stroke="#666666" points="474,-149.5 350,-149.5 350,-119.5 474,-119.5 474,-149.5"/>
<text text-anchor="start" x="358" y="-137.5" font-family="Helvetica,sans-Serif" font-size="10.00">ore::data::XMLDocument</text>
<text text-anchor="middle" x="412" y="-126.5" font-family="Helvetica,sans-Serif" font-size="10.00">::allocNode</text>
</a>
</g>
</g>
<!-- Node1&#45;&gt;Node3 -->
<g id="edge6" class="edge"><title>Node1&#45;&gt;Node3</title>
<path fill="none" stroke="#63b8ff" d="M44.1361,-114.644C99.2579,-117.627 249.361,-125.751 339.572,-130.634"/>
<polygon fill="#63b8ff" stroke="#63b8ff" points="339.551,-134.138 349.726,-131.184 339.93,-127.148 339.551,-134.138"/>
</g>
<!-- Node5 -->
<g id="node5" class="node"><title>Node5</title>
<g id="a_node5"><a xlink:href="classore_1_1data_1_1_x_m_l_utils.html#a29cd524fd4d9381e10c71939131fa4d4" target="_top" xlink:title=" ">
<polygon fill="white" stroke="#666666" points="179,-171.5 80,-171.5 80,-141.5 179,-141.5 179,-171.5"/>
<text text-anchor="start" x="88" y="-159.5" font-family="Helvetica,sans-Serif" font-size="10.00">ore::data::XMLUtils</text>
<text text-anchor="middle" x="129.5" y="-148.5" font-family="Helvetica,sans-Serif" font-size="10.00">::addChildren</text>
</a>
</g>
</g>
<!-- Node1&#45;&gt;Node5 -->
<g id="edge4" class="edge"><title>Node1&#45;&gt;Node5</title>
<path fill="none" stroke="#63b8ff" d="M44.0959,-122.098C55.0315,-126.555 68.8472,-132.187 82.1174,-137.595"/>
<polygon fill="#63b8ff" stroke="#63b8ff" points="81.0534,-140.941 91.6348,-141.474 83.6955,-134.459 81.0534,-140.941"/>
</g>
<!-- Node6 -->
<g id="node6" class="node"><title>Node6</title>
<g id="a_node6"><a xlink:href="classore_1_1data_1_1_x_m_l_utils.html#ae646b9cdf949a88f35c36c18bf90b370" target="_top" xlink:title=" ">
<polygon fill="white" stroke="#666666" points="179,-85.5 80,-85.5 80,-55.5 179,-55.5 179,-85.5"/>
<text text-anchor="start" x="88" y="-73.5" font-family="Helvetica,sans-Serif" font-size="10.00">ore::data::XMLUtils</text>
<text text-anchor="middle" x="129.5" y="-62.5" font-family="Helvetica,sans-Serif" font-size="10.00">::appendNode</text>
</a>
</g>
</g>
<!-- Node1&#45;&gt;Node6 -->
<g id="edge7" class="edge"><title>Node1&#45;&gt;Node6</title>
<path fill="none" stroke="#63b8ff" d="M44.0959,-104.902C55.0315,-100.445 68.8472,-94.8135 82.1174,-89.4047"/>
<polygon fill="#63b8ff" stroke="#63b8ff" points="83.6955,-92.5412 91.6348,-85.5256 81.0534,-86.0589 83.6955,-92.5412"/>
</g>
<!-- Node7 -->
<g id="node7" class="node"><title>Node7</title>
<g id="a_node7"><a xlink:href="namespaceore_1_1data.html#a86651dfeb5c18ee891f7a4734d8cf455" target="_top" xlink:title=" ">
<polygon fill="white" stroke="#666666" points="178.5,-19 80.5,-19 80.5,-0 178.5,-0 178.5,-19"/>
<text text-anchor="middle" x="129.5" y="-7" font-family="Helvetica,sans-Serif" font-size="10.00">ore::data::to_string</text>
</a>
</g>
</g>
<!-- Node1&#45;&gt;Node7 -->
<g id="edge8" class="edge"><title>Node1&#45;&gt;Node7</title>
<path fill="none" stroke="#63b8ff" d="M30.1562,-103.84C40.4219,-90.2893 60.2734,-65.2036 80,-46.5 87.9856,-38.9286 97.4787,-31.408 105.94,-25.1442"/>
<polygon fill="#63b8ff" stroke="#63b8ff" points="108.22,-27.8148 114.278,-19.1223 104.122,-22.1401 108.22,-27.8148"/>
</g>
<!-- Node2&#45;&gt;Node3 -->
<g id="edge2" class="edge"><title>Node2&#45;&gt;Node3</title>
<path fill="none" stroke="#63b8ff" d="M314.354,-149.113C322.543,-147.875 331.186,-146.568 339.8,-145.266"/>
<polygon fill="#63b8ff" stroke="#63b8ff" points="340.505,-148.699 349.87,-143.743 339.459,-141.778 340.505,-148.699"/>
</g>
<!-- Node4 -->
<g id="node4" class="node"><title>Node4</title>
<g id="a_node4"><a xlink:href="classore_1_1data_1_1_x_m_l_document.html#ae3474059e483990f3afea260096e5c90" target="_top" xlink:title=" ">
<polygon fill="white" stroke="#666666" points="634,-149.5 510,-149.5 510,-119.5 634,-119.5 634,-149.5"/>
<text text-anchor="start" x="518" y="-137.5" font-family="Helvetica,sans-Serif" font-size="10.00">ore::data::XMLDocument</text>
<text text-anchor="middle" x="572" y="-126.5" font-family="Helvetica,sans-Serif" font-size="10.00">::allocString</text>
</a>
</g>
</g>
<!-- Node3&#45;&gt;Node4 -->
<g id="edge3" class="edge"><title>Node3&#45;&gt;Node4</title>
<path fill="none" stroke="#63b8ff" d="M474.087,-134.5C482.513,-134.5 491.226,-134.5 499.815,-134.5"/>
<polygon fill="#63b8ff" stroke="#63b8ff" points="499.815,-138 509.815,-134.5 499.815,-131 499.815,-138"/>
</g>
<!-- Node5&#45;&gt;Node2 -->
<g id="edge5" class="edge"><title>Node5&#45;&gt;Node2</title>
<path fill="none" stroke="#63b8ff" d="M179.269,-156.5C187.491,-156.5 196.104,-156.5 204.551,-156.5"/>
<polygon fill="#63b8ff" stroke="#63b8ff" points="204.737,-160 214.737,-156.5 204.737,-153 204.737,-160"/>
</g>
<!-- Node7&#45;&gt;Node7 -->
<g id="edge9" class="edge"><title>Node7&#45;&gt;Node7</title>
<path fill="none" stroke="#63b8ff" d="M113.162,-19.0828C105.214,-27.7337 110.66,-37 129.5,-37 141.275,-37 147.818,-33.3804 149.129,-28.5536"/>
<polygon fill="#63b8ff" stroke="#63b8ff" points="152.426,-27.3799 145.838,-19.0828 145.814,-29.6776 152.426,-27.3799"/>
</g>
</g>
</svg>
        <g id="navigator" transform="translate(0 0)" fill="#404254">
                <rect fill="#f2f5e9" fill-opacity="0.5" stroke="#606060" stroke-width=".5" x="0" y="0" width="60" height="60"/>
                <use id="zoomplus" xlink:href="#zoomPlus" x="17" y="9" onmousedown="handleZoom(evt,'in')"/>
                <use id="zoomminus" xlink:href="#zoomMin" x="42" y="9" onmousedown="handleZoom(evt,'out')"/>
                <use id="reset" xlink:href="#resetDef" x="30" y="36" onmousedown="handleReset()"/>
                <g id="arrowUp" xlink:href="#dirArrow" transform="translate(30 24)" onmousedown="handlePan(0,-1)">
                  <use xlink:href="#rim" fill="#404040">
                        <set attributeName="fill" to="#808080" begin="arrowUp.mouseover" end="arrowUp.mouseout"/>
                  </use>
                  <path fill="none" stroke="white" stroke-width="1.5" d="M0,-3.0v7 M-2.5,-0.5L0,-3.0L2.5,-0.5"/>
                </g>
                <g id="arrowRight" xlink:href="#dirArrow" transform="rotate(90) translate(36 -43)" onmousedown="handlePan(1,0)">
                  <use xlink:href="#rim" fill="#404040">
                        <set attributeName="fill" to="#808080" begin="arrowRight.mouseover" end="arrowRight.mouseout"/>
                  </use>
                  <path fill="none" stroke="white" stroke-width="1.5" d="M0,-3.0v7 M-2.5,-0.5L0,-3.0L2.5,-0.5"/>
                </g>
                <g id="arrowDown" xlink:href="#dirArrow" transform="rotate(180) translate(-30 -48)" onmousedown="handlePan(0,1)">
                  <use xlink:href="#rim" fill="#404040">
                        <set attributeName="fill" to="#808080" begin="arrowDown.mouseover" end="arrowDown.mouseout"/>
                  </use>
                  <path fill="none" stroke="white" stroke-width="1.5" d="M0,-3.0v7 M-2.5,-0.5L0,-3.0L2.5,-0.5"/>
                </g>
                <g id="arrowLeft" xlink:href="#dirArrow" transform="rotate(270) translate(-36 17)" onmousedown="handlePan(-1,0)">
                  <use xlink:href="#rim" fill="#404040">
                        <set attributeName="fill" to="#808080" begin="arrowLeft.mouseover" end="arrowLeft.mouseout"/>
                  </use>
                  <path fill="none" stroke="white" stroke-width="1.5" d="M0,-3.0v7 M-2.5,-0.5L0,-3.0L2.5,-0.5"/>
                </g>
        </g>
        <svg viewBox="0 0 15 15" width="100%" height="30px" preserveAspectRatio="xMaxYMin meet">
         <g id="arrow_out" transform="scale(0.3 0.3)">
          <a xlink:href="classore_1_1data_1_1_netting_set_definition_a7efefb9270d6c4933e4c96de0771f17a_cgraph_org.svg" target="_base">
           <rect id="button" ry="5" rx="5" y="6" x="6" height="38" width="38"
                fill="#f2f5e9" fill-opacity="0.5" stroke="#606060" stroke-width="1.0"/>
           <path id="arrow"
             d="M 11.500037,31.436501 C 11.940474,20.09759 22.043105,11.32322 32.158766,21.979434 L 37.068811,17.246167 C 37.068811,17.246167 37.088388,32 37.088388,32 L 22.160133,31.978069 C 22.160133,31.978069 26.997745,27.140456 26.997745,27.140456 C 18.528582,18.264221 13.291696,25.230495 11.500037,31.436501 z"
             style="fill:#404040;"/>
          </a>
         </g>
        </svg>
</svg>
