<?xml version="1.0" encoding="UTF-8" standalone="no"?>
<!DOCTYPE svg PUBLIC "-//W3C//DTD SVG 1.1//EN"
 "http://www.w3.org/Graphics/SVG/1.1/DTD/svg11.dtd">
<!-- Generated by graphviz version 2.38.0 (20140413.2041)
 -->
<!-- Title: toXML Pages: 1 -->
<!--zoomable 408 -->
<svg id="main" version="1.1" xmlns="http://www.w3.org/2000/svg" xmlns:xlink="http://www.w3.org/1999/xlink" xml:space="preserve" onload="init(evt)">
<style type="text/css"><![CDATA[
.edge:hover path { stroke: red; }
.edge:hover polygon { stroke: red; fill: red; }
]]></style>
<script type="text/javascript"><![CDATA[
var edges = document.getElementsByTagName('g');
if (edges && edges.length) {
  for (var i=0;i<edges.length;i++) {
    if (edges[i].id.substr(0,4)=='edge') {
      edges[i].setAttribute('class','edge');
    }
  }
}
]]></script>
        <defs>
                <circle id="rim" cx="0" cy="0" r="7"/>
                <circle id="rim2" cx="0" cy="0" r="3.5"/>
                <g id="zoomPlus">
                        <use xlink:href="#rim" fill="#404040">
                                <set attributeName="fill" to="#808080" begin="zoomplus.mouseover" end="zoomplus.mouseout"/>
                        </use>
                        <path d="M-4,0h8M0,-4v8" fill="none" stroke="white" stroke-width="1.5" pointer-events="none"/>
                </g>
                <g id="zoomMin">
                        <use xlink:href="#rim" fill="#404040">
                                <set attributeName="fill" to="#808080" begin="zoomminus.mouseover" end="zoomminus.mouseout"/>
                        </use>
                        <path d="M-4,0h8" fill="none" stroke="white" stroke-width="1.5" pointer-events="none"/>
                </g>
                <g id="dirArrow">
                        <path fill="none" stroke="white" stroke-width="1.5" d="M0,-3.0v7 M-2.5,-0.5L0,-3.0L2.5,-0.5"/>
                </g>
               <g id="resetDef">
                       <use xlink:href="#rim2" fill="#404040">
                               <set attributeName="fill" to="#808080" begin="reset.mouseover" end="reset.mouseout"/>
                       </use>
               </g>
        </defs>

<script type="text/javascript">
var viewWidth = 960;
var viewHeight = 408;
var sectionId = 'dynsection-3';
</script>
<script xlink:href="svgpan.js"/>
<svg id="graph" class="graph">
<g id="viewport">
<title>toXML</title>
<!-- Node1 -->
<g id="node1" class="node"><title>Node1</title>
<g id="a_node1"><a xlink:title=" ">
<polygon fill="#999999" stroke="#666666" points="44,-219 0,-219 0,-200 44,-200 44,-219"/>
<text text-anchor="middle" x="22" y="-207" font-family="Helvetica,sans-Serif" font-size="10.00">toXML</text>
</a>
</g>
</g>
<!-- Node2 -->
<g id="node2" class="node"><title>Node2</title>
<g id="a_node2"><a xlink:href="classore_1_1data_1_1_x_m_l_utils.html#a226c81c31def2ba2c853ca803d1fafc5" target="_top" xlink:title=" ">
<polygon fill="white" stroke="#666666" points="179.5,-381.5 80.5,-381.5 80.5,-351.5 179.5,-351.5 179.5,-381.5"/>
<text text-anchor="start" x="88.5" y="-369.5" font-family="Helvetica,sans-Serif" font-size="10.00">ore::data::XMLUtils</text>
<text text-anchor="middle" x="130" y="-358.5" font-family="Helvetica,sans-Serif" font-size="10.00">::addAttribute</text>
</a>
</g>
</g>
<!-- Node1&#45;&gt;Node2 -->
<g id="edge1" class="edge"><title>Node1&#45;&gt;Node2</title>
<path fill="none" stroke="#63b8ff" d="M25.1759,-219.285C30.7222,-242.325 47.3162,-300.807 80,-337.5 82.6249,-340.447 85.6227,-343.18 88.8133,-345.694"/>
<polygon fill="#63b8ff" stroke="#63b8ff" points="86.8483,-348.591 97.0388,-351.49 90.8804,-342.869 86.8483,-348.591"/>
</g>
<!-- Node5 -->
<g id="node5" class="node"><title>Node5</title>
<g id="a_node5"><a xlink:href="classore_1_1data_1_1_x_m_l_utils.html#aced1fd4bd35df3642d8022301744b138" target="_top" xlink:title=" ">
<polygon fill="white" stroke="#666666" points="632,-252.5 533,-252.5 533,-222.5 632,-222.5 632,-252.5"/>
<text text-anchor="start" x="541" y="-240.5" font-family="Helvetica,sans-Serif" font-size="10.00">ore::data::XMLUtils</text>
<text text-anchor="middle" x="582.5" y="-229.5" font-family="Helvetica,sans-Serif" font-size="10.00">::addChild</text>
</a>
</g>
</g>
<!-- Node1&#45;&gt;Node5 -->
<g id="edge4" class="edge"><title>Node1&#45;&gt;Node5</title>
<path fill="none" stroke="#63b8ff" d="M31.7715,-219.269C42.2564,-230.415 60.8062,-248.515 80,-259.5 135.258,-291.124 153.144,-294.371 216,-304.5 340.095,-324.497 377.4,-311.17 497,-272.5 510.981,-267.979 525.896,-262.154 539.243,-256.557"/>
<polygon fill="#63b8ff" stroke="#63b8ff" points="540.824,-259.688 548.648,-252.544 538.077,-253.249 540.824,-259.688"/>
</g>
<!-- Node7 -->
<g id="node7" class="node"><title>Node7</title>
<g id="a_node7"><a xlink:href="classore_1_1data_1_1_x_m_l_utils.html#a2ef0bac815571bbcdee4c53a33f8eefb" target="_top" xlink:title=" ">
<polygon fill="white" stroke="#666666" points="350,-295.5 228,-295.5 228,-265.5 350,-265.5 350,-295.5"/>
<text text-anchor="start" x="236" y="-283.5" font-family="Helvetica,sans-Serif" font-size="10.00">ore::data::XMLUtils</text>
<text text-anchor="middle" x="289" y="-272.5" font-family="Helvetica,sans-Serif" font-size="10.00">::addGenericChildAsList</text>
</a>
</g>
</g>
<!-- Node1&#45;&gt;Node7 -->
<g id="edge7" class="edge"><title>Node1&#45;&gt;Node7</title>
<path fill="none" stroke="#63b8ff" d="M43.2497,-219.055C53.9964,-223.861 67.5265,-229.499 80,-233.5 125.106,-247.967 177.083,-259.714 217.795,-267.845"/>
<polygon fill="#63b8ff" stroke="#63b8ff" points="217.137,-271.283 227.625,-269.782 218.491,-264.415 217.137,-271.283"/>
</g>
<!-- Node8 -->
<g id="node8" class="node"><title>Node8</title>
<g id="a_node8"><a xlink:href="classore_1_1data_1_1_lgm_data.html#a1df7a4cf5048b931957b2c6b65e80d13" target="_top" xlink:title=" ">
<polygon fill="white" stroke="#666666" points="180,-176.5 80,-176.5 80,-146.5 180,-146.5 180,-176.5"/>
<text text-anchor="start" x="88" y="-164.5" font-family="Helvetica,sans-Serif" font-size="10.00">ore::data::LgmData</text>
<text text-anchor="middle" x="130" y="-153.5" font-family="Helvetica,sans-Serif" font-size="10.00">::optionExpiries</text>
</a>
</g>
</g>
<!-- Node1&#45;&gt;Node8 -->
<g id="edge9" class="edge"><title>Node1&#45;&gt;Node8</title>
<path fill="none" stroke="#63b8ff" d="M44.1959,-199.902C56.2888,-194.426 71.887,-187.362 86.4018,-180.79"/>
<polygon fill="#63b8ff" stroke="#63b8ff" points="88.0701,-183.876 95.7359,-176.563 85.1825,-177.5 88.0701,-183.876"/>
</g>
<!-- Node9 -->
<g id="node9" class="node"><title>Node9</title>
<g id="a_node9"><a xlink:href="classore_1_1data_1_1_lgm_data.html#ad40e6ea6f4e9ffcb8297fea3caeedab9" target="_top" xlink:title=" ">
<polygon fill="white" stroke="#666666" points="180,-128.5 80,-128.5 80,-98.5 180,-98.5 180,-128.5"/>
<text text-anchor="start" x="88" y="-116.5" font-family="Helvetica,sans-Serif" font-size="10.00">ore::data::LgmData</text>
<text text-anchor="middle" x="130" y="-105.5" font-family="Helvetica,sans-Serif" font-size="10.00">::optionStrikes</text>
</a>
</g>
</g>
<!-- Node1&#45;&gt;Node9 -->
<g id="edge10" class="edge"><title>Node1&#45;&gt;Node9</title>
<path fill="none" stroke="#63b8ff" d="M28.5698,-199.986C37.7054,-185.049 57.1586,-155.907 80,-137.5 81.5212,-136.274 83.1154,-135.09 84.7609,-133.949"/>
<polygon fill="#63b8ff" stroke="#63b8ff" points="86.6874,-136.872 93.3157,-128.607 82.9798,-130.935 86.6874,-136.872"/>
</g>
<!-- Node10 -->
<g id="node10" class="node"><title>Node10</title>
<g id="a_node10"><a xlink:href="classore_1_1data_1_1_lgm_data.html#a8d49638058bfc5016f44d1417cfb42e7" target="_top" xlink:title=" ">
<polygon fill="white" stroke="#666666" points="180,-80.5 80,-80.5 80,-50.5 180,-50.5 180,-80.5"/>
<text text-anchor="start" x="88" y="-68.5" font-family="Helvetica,sans-Serif" font-size="10.00">ore::data::LgmData</text>
<text text-anchor="middle" x="130" y="-57.5" font-family="Helvetica,sans-Serif" font-size="10.00">::optionTerms</text>
</a>
</g>
</g>
<!-- Node1&#45;&gt;Node10 -->
<g id="edge11" class="edge"><title>Node1&#45;&gt;Node10</title>
<path fill="none" stroke="#63b8ff" d="M25.2505,-199.83C30.8605,-177.646 47.4166,-122.477 80,-89.5 80.9363,-88.5524 81.9175,-87.6366 82.936,-86.7518"/>
<polygon fill="#63b8ff" stroke="#63b8ff" points="85.3629,-89.3115 91.344,-80.5664 81.2148,-83.6729 85.3629,-89.3115"/>
</g>
<!-- Node11 -->
<g id="node11" class="node"><title>Node11</title>
<g id="a_node11"><a xlink:href="classore_1_1data_1_1_lgm_data.html#a7efefb9270d6c4933e4c96de0771f17a" target="_top" xlink:title=" ">
<polygon fill="white" stroke="#666666" points="180,-224.5 80,-224.5 80,-194.5 180,-194.5 180,-224.5"/>
<text text-anchor="start" x="88" y="-212.5" font-family="Helvetica,sans-Serif" font-size="10.00">ore::data::LgmData</text>
<text text-anchor="middle" x="130" y="-201.5" font-family="Helvetica,sans-Serif" font-size="10.00">::toXML</text>
</a>
</g>
</g>
<!-- Node1&#45;&gt;Node11 -->
<g id="edge12" class="edge"><title>Node1&#45;&gt;Node11</title>
<path fill="none" stroke="#63b8ff" d="M44.1959,-209.5C51.6584,-209.5 60.4557,-209.5 69.5095,-209.5"/>
<polygon fill="#63b8ff" stroke="#63b8ff" points="69.7832,-213 79.7831,-209.5 69.7831,-206 69.7832,-213"/>
</g>
<!-- Node3 -->
<g id="node3" class="node"><title>Node3</title>
<g id="a_node3"><a xlink:href="classore_1_1data_1_1_x_m_l_document.html#ae3474059e483990f3afea260096e5c90" target="_top" xlink:title=" ">
<polygon fill="white" stroke="#666666" points="952,-333.5 828,-333.5 828,-303.5 952,-303.5 952,-333.5"/>
<text text-anchor="start" x="836" y="-321.5" font-family="Helvetica,sans-Serif" font-size="10.00">ore::data::XMLDocument</text>
<text text-anchor="middle" x="890" y="-310.5" font-family="Helvetica,sans-Serif" font-size="10.00">::allocString</text>
</a>
</g>
</g>
<!-- Node2&#45;&gt;Node3 -->
<g id="edge2" class="edge"><title>Node2&#45;&gt;Node3</title>
<path fill="none" stroke="#63b8ff" d="M179.895,-375.249C191.69,-377.166 204.274,-379.053 216,-380.5 318.019,-393.085 343.708,-399.5 446.5,-399.5 446.5,-399.5 446.5,-399.5 583.5,-399.5 679.918,-399.5 787.907,-361.338 846.157,-337.402"/>
<polygon fill="#63b8ff" stroke="#63b8ff" points="847.527,-340.623 855.412,-333.546 844.835,-334.161 847.527,-340.623"/>
</g>
<!-- Node4 -->
<g id="node4" class="node"><title>Node4</title>
<g id="a_node4"><a xlink:href="classore_1_1data_1_1_x_m_l_document.html#a46d969cdb00bff64f3f4c0d2975a08d3" target="_top" xlink:title=" ">
<polygon fill="white" stroke="#666666" points="362,-371 216,-371 216,-352 362,-352 362,-371"/>
<text text-anchor="middle" x="289" y="-359" font-family="Helvetica,sans-Serif" font-size="10.00">ore::data::XMLDocument::doc</text>
</a>
</g>
</g>
<!-- Node2&#45;&gt;Node4 -->
<g id="edge3" class="edge"><title>Node2&#45;&gt;Node4</title>
<path fill="none" stroke="#63b8ff" d="M179.815,-364.945C188.121,-364.681 196.947,-364.4 205.836,-364.117"/>
<polygon fill="#63b8ff" stroke="#63b8ff" points="205.99,-367.614 215.874,-363.797 205.768,-360.617 205.99,-367.614"/>
</g>
<!-- Node6 -->
<g id="node6" class="node"><title>Node6</title>
<g id="a_node6"><a xlink:href="classore_1_1data_1_1_x_m_l_document.html#a8717c517803f0df2e693e3cadefeafd7" target="_top" xlink:title="util functions that wrap rapidxml">
<polygon fill="white" stroke="#666666" points="792,-190.5 668,-190.5 668,-160.5 792,-160.5 792,-190.5"/>
<text text-anchor="start" x="676" y="-178.5" font-family="Helvetica,sans-Serif" font-size="10.00">ore::data::XMLDocument</text>
<text text-anchor="middle" x="730" y="-167.5" font-family="Helvetica,sans-Serif" font-size="10.00">::allocNode</text>
</a>
</g>
</g>
<!-- Node5&#45;&gt;Node6 -->
<g id="edge5" class="edge"><title>Node5&#45;&gt;Node6</title>
<path fill="none" stroke="#63b8ff" d="M618.721,-222.492C638.414,-214.1 663.157,-203.557 684.215,-194.584"/>
<polygon fill="#63b8ff" stroke="#63b8ff" points="685.771,-197.725 693.599,-190.585 683.027,-191.285 685.771,-197.725"/>
</g>
<!-- Node6&#45;&gt;Node3 -->
<g id="edge6" class="edge"><title>Node6&#45;&gt;Node3</title>
<path fill="none" stroke="#63b8ff" d="M747.61,-190.533C775.512,-215.786 831.92,-266.839 864.421,-296.254"/>
<polygon fill="#63b8ff" stroke="#63b8ff" points="862.374,-299.122 872.137,-303.238 867.071,-293.932 862.374,-299.122"/>
</g>
<!-- Node7&#45;&gt;Node5 -->
<g id="edge8" class="edge"><title>Node7&#45;&gt;Node5</title>
<path fill="none" stroke="#63b8ff" d="M350.293,-272.458C391.62,-266.846 447.676,-259.04 497,-251.5 505.346,-250.224 514.148,-248.825 522.791,-247.421"/>
<polygon fill="#63b8ff" stroke="#63b8ff" points="523.525,-250.848 532.828,-245.777 522.394,-243.94 523.525,-250.848"/>
</g>
<!-- Node11&#45;&gt;Node5 -->
<g id="edge13" class="edge"><title>Node11&#45;&gt;Node5</title>
<path fill="none" stroke="#63b8ff" d="M180.435,-213.076C192.097,-213.896 204.486,-214.747 216,-215.5 324.074,-222.567 450.181,-229.971 522.452,-234.134"/>
<polygon fill="#63b8ff" stroke="#63b8ff" points="522.531,-237.645 532.716,-234.725 522.933,-230.656 522.531,-237.645"/>
</g>
<!-- Node11&#45;&gt;Node6 -->
<g id="edge17" class="edge"><title>Node11&#45;&gt;Node6</title>
<path fill="none" stroke="#63b8ff" d="M167.416,-194.368C171.887,-191.748 176.208,-188.791 180,-185.5 201.506,-166.835 190.836,-145.828 216,-132.5 371.806,-49.9811 592.106,-120.17 684.988,-156.719"/>
<polygon fill="#63b8ff" stroke="#63b8ff" points="683.777,-160.004 694.362,-160.465 686.375,-153.504 683.777,-160.004"/>
</g>
<!-- Node11&#45;&gt;Node7 -->
<g id="edge16" class="edge"><title>Node11&#45;&gt;Node7</title>
<path fill="none" stroke="#63b8ff" d="M160.241,-224.634C176.515,-232.882 197.221,-243.093 216,-251.5 223.52,-254.867 231.555,-258.279 239.43,-261.524"/>
<polygon fill="#63b8ff" stroke="#63b8ff" points="238.329,-264.855 248.911,-265.384 240.969,-258.371 238.329,-264.855"/>
</g>
<!-- Node12 -->
<g id="node12" class="node"><title>Node12</title>
<g id="a_node12"><a xlink:href="classore_1_1data_1_1_x_m_l_utils.html#a3c0d580430954d12326b1ececc09acdd" target="_top" xlink:title="Adds &lt;Name&gt;p1,p2,p3&lt;/Name&gt;">
<polygon fill="white" stroke="#666666" points="497,-209.5 398,-209.5 398,-179.5 497,-179.5 497,-209.5"/>
<text text-anchor="start" x="406" y="-197.5" font-family="Helvetica,sans-Serif" font-size="10.00">ore::data::XMLUtils</text>
<text text-anchor="middle" x="447.5" y="-186.5" font-family="Helvetica,sans-Serif" font-size="10.00">::addGenericChild</text>
</a>
</g>
</g>
<!-- Node11&#45;&gt;Node12 -->
<g id="edge14" class="edge"><title>Node11&#45;&gt;Node12</title>
<path fill="none" stroke="#63b8ff" d="M180.297,-207.156C236.409,-204.488 328.005,-200.134 387.769,-197.292"/>
<polygon fill="#63b8ff" stroke="#63b8ff" points="387.986,-200.786 397.808,-196.815 387.653,-193.794 387.986,-200.786"/>
</g>
<!-- Node13 -->
<g id="node13" class="node"><title>Node13</title>
<g id="a_node13"><a xlink:href="classore_1_1data_1_1_x_m_l_utils.html#ae646b9cdf949a88f35c36c18bf90b370" target="_top" xlink:title=" ">
<polygon fill="white" stroke="#666666" points="338.5,-85.5 239.5,-85.5 239.5,-55.5 338.5,-55.5 338.5,-85.5"/>
<text text-anchor="start" x="247.5" y="-73.5" font-family="Helvetica,sans-Serif" font-size="10.00">ore::data::XMLUtils</text>
<text text-anchor="middle" x="289" y="-62.5" font-family="Helvetica,sans-Serif" font-size="10.00">::appendNode</text>
</a>
</g>
</g>
<!-- Node11&#45;&gt;Node13 -->
<g id="edge18" class="edge"><title>Node11&#45;&gt;Node13</title>
<path fill="none" stroke="#63b8ff" d="M169.301,-194.267C173.209,-191.72 176.881,-188.809 180,-185.5 208.423,-155.349 186.503,-128.601 216,-99.5 220.24,-95.3166 225.163,-91.7132 230.406,-88.6143"/>
<polygon fill="#63b8ff" stroke="#63b8ff" points="232.237,-91.6061 239.468,-83.8621 228.986,-85.4068 232.237,-91.6061"/>
</g>
<!-- Node14 -->
<g id="node14" class="node"><title>Node14</title>
<g id="a_node14"><a xlink:href="namespaceore_1_1data.html#a86651dfeb5c18ee891f7a4734d8cf455" target="_top" xlink:title=" ">
<polygon fill="white" stroke="#666666" points="338,-19 240,-19 240,-0 338,-0 338,-19"/>
<text text-anchor="middle" x="289" y="-7" font-family="Helvetica,sans-Serif" font-size="10.00">ore::data::to_string</text>
</a>
</g>
</g>
<!-- Node11&#45;&gt;Node14 -->
<g id="edge19" class="edge"><title>Node11&#45;&gt;Node14</title>
<path fill="none" stroke="#63b8ff" d="M170.261,-194.362C173.898,-191.814 177.245,-188.876 180,-185.5 220.344,-136.055 176.133,-96.3312 216,-46.5 224.105,-36.3687 235.728,-28.7327 247.278,-23.1099"/>
<polygon fill="#63b8ff" stroke="#63b8ff" points="248.745,-26.2882 256.456,-19.0229 245.897,-19.8935 248.745,-26.2882"/>
</g>
<!-- Node15 -->
<g id="node15" class="node"><title>Node15</title>
<g id="a_node15"><a xlink:href="classore_1_1data_1_1_ir_model_data.html#a7efefb9270d6c4933e4c96de0771f17a" target="_top" xlink:title=" ">
<polygon fill="white" stroke="#666666" points="345.5,-171.5 232.5,-171.5 232.5,-141.5 345.5,-141.5 345.5,-171.5"/>
<text text-anchor="start" x="240.5" y="-159.5" font-family="Helvetica,sans-Serif" font-size="10.00">ore::data::IrModelData</text>
<text text-anchor="middle" x="289" y="-148.5" font-family="Helvetica,sans-Serif" font-size="10.00">::toXML</text>
</a>
</g>
</g>
<!-- Node11&#45;&gt;Node15 -->
<g id="edge21" class="edge"><title>Node11&#45;&gt;Node15</title>
<path fill="none" stroke="#63b8ff" d="M175.57,-194.454C193.635,-188.356 214.668,-181.255 233.623,-174.857"/>
<polygon fill="#63b8ff" stroke="#63b8ff" points="234.963,-178.098 243.319,-171.584 232.724,-171.466 234.963,-178.098"/>
</g>
<!-- Node12&#45;&gt;Node5 -->
<g id="edge15" class="edge"><title>Node12&#45;&gt;Node5</title>
<path fill="none" stroke="#63b8ff" d="M495.017,-209.539C504.781,-212.696 515.178,-216.058 525.254,-219.315"/>
<polygon fill="#63b8ff" stroke="#63b8ff" points="524.193,-222.65 534.785,-222.396 526.346,-215.99 524.193,-222.65"/>
</g>
<!-- Node14&#45;&gt;Node14 -->
<g id="edge20" class="edge"><title>Node14&#45;&gt;Node14</title>
<path fill="none" stroke="#63b8ff" d="M264.648,-19.0828C252.801,-27.7337 260.918,-37 289,-37 307.429,-37 317.26,-33.0094 318.492,-27.8208"/>
<polygon fill="#63b8ff" stroke="#63b8ff" points="321.439,-25.9276 313.352,-19.0828 315.406,-29.4768 321.439,-25.9276"/>
</g>
<!-- Node15&#45;&gt;Node6 -->
<g id="edge23" class="edge"><title>Node15&#45;&gt;Node6</title>
<path fill="none" stroke="#63b8ff" d="M345.6,-158.906C424.941,-162.34 570.66,-168.647 657.8,-172.418"/>
<polygon fill="#63b8ff" stroke="#63b8ff" points="657.725,-175.918 667.867,-172.854 658.028,-168.925 657.725,-175.918"/>
</g>
<!-- Node15&#45;&gt;Node12 -->
<g id="edge22" class="edge"><title>Node15&#45;&gt;Node12</title>
<path fill="none" stroke="#63b8ff" d="M345.617,-170.004C359.332,-173.335 374.062,-176.911 387.913,-180.275"/>
<polygon fill="#63b8ff" stroke="#63b8ff" points="387.273,-183.721 397.817,-182.679 388.925,-176.918 387.273,-183.721"/>
</g>
</g>
</svg>
        <g id="navigator" transform="translate(0 0)" fill="#404254">
                <rect fill="#f2f5e9" fill-opacity="0.5" stroke="#606060" stroke-width=".5" x="0" y="0" width="60" height="60"/>
                <use id="zoomplus" xlink:href="#zoomPlus" x="17" y="9" onmousedown="handleZoom(evt,'in')"/>
                <use id="zoomminus" xlink:href="#zoomMin" x="42" y="9" onmousedown="handleZoom(evt,'out')"/>
                <use id="reset" xlink:href="#resetDef" x="30" y="36" onmousedown="handleReset()"/>
                <g id="arrowUp" xlink:href="#dirArrow" transform="translate(30 24)" onmousedown="handlePan(0,-1)">
                  <use xlink:href="#rim" fill="#404040">
                        <set attributeName="fill" to="#808080" begin="arrowUp.mouseover" end="arrowUp.mouseout"/>
                  </use>
                  <path fill="none" stroke="white" stroke-width="1.5" d="M0,-3.0v7 M-2.5,-0.5L0,-3.0L2.5,-0.5"/>
                </g>
                <g id="arrowRight" xlink:href="#dirArrow" transform="rotate(90) translate(36 -43)" onmousedown="handlePan(1,0)">
                  <use xlink:href="#rim" fill="#404040">
                        <set attributeName="fill" to="#808080" begin="arrowRight.mouseover" end="arrowRight.mouseout"/>
                  </use>
                  <path fill="none" stroke="white" stroke-width="1.5" d="M0,-3.0v7 M-2.5,-0.5L0,-3.0L2.5,-0.5"/>
                </g>
                <g id="arrowDown" xlink:href="#dirArrow" transform="rotate(180) translate(-30 -48)" onmousedown="handlePan(0,1)">
                  <use xlink:href="#rim" fill="#404040">
                        <set attributeName="fill" to="#808080" begin="arrowDown.mouseover" end="arrowDown.mouseout"/>
                  </use>
                  <path fill="none" stroke="white" stroke-width="1.5" d="M0,-3.0v7 M-2.5,-0.5L0,-3.0L2.5,-0.5"/>
                </g>
                <g id="arrowLeft" xlink:href="#dirArrow" transform="rotate(270) translate(-36 17)" onmousedown="handlePan(-1,0)">
                  <use xlink:href="#rim" fill="#404040">
                        <set attributeName="fill" to="#808080" begin="arrowLeft.mouseover" end="arrowLeft.mouseout"/>
                  </use>
                  <path fill="none" stroke="white" stroke-width="1.5" d="M0,-3.0v7 M-2.5,-0.5L0,-3.0L2.5,-0.5"/>
                </g>
        </g>
        <svg viewBox="0 0 15 15" width="100%" height="30px" preserveAspectRatio="xMaxYMin meet">
         <g id="arrow_out" transform="scale(0.3 0.3)">
          <a xlink:href="classore_1_1data_1_1_cr_lgm_data_a7efefb9270d6c4933e4c96de0771f17a_cgraph_org.svg" target="_base">
           <rect id="button" ry="5" rx="5" y="6" x="6" height="38" width="38"
                fill="#f2f5e9" fill-opacity="0.5" stroke="#606060" stroke-width="1.0"/>
           <path id="arrow"
             d="M 11.500037,31.436501 C 11.940474,20.09759 22.043105,11.32322 32.158766,21.979434 L 37.068811,17.246167 C 37.068811,17.246167 37.088388,32 37.088388,32 L 22.160133,31.978069 C 22.160133,31.978069 26.997745,27.140456 26.997745,27.140456 C 18.528582,18.264221 13.291696,25.230495 11.500037,31.436501 z"
             style="fill:#404040;"/>
          </a>
         </g>
        </svg>
</svg>
