<?xml version="1.0" encoding="UTF-8" standalone="no"?>
<!DOCTYPE svg PUBLIC "-//W3C//DTD SVG 1.1//EN"
 "http://www.w3.org/Graphics/SVG/1.1/DTD/svg11.dtd">
<!-- Generated by graphviz version 2.38.0 (20140413.2041)
 -->
<!-- Title: barrier Pages: 1 -->
<!--zoomable 249 -->
<svg id="main" version="1.1" xmlns="http://www.w3.org/2000/svg" xmlns:xlink="http://www.w3.org/1999/xlink" xml:space="preserve" onload="init(evt)">
<style type="text/css"><![CDATA[
.edge:hover path { stroke: red; }
.edge:hover polygon { stroke: red; fill: red; }
]]></style>
<script type="text/javascript"><![CDATA[
var edges = document.getElementsByTagName('g');
if (edges && edges.length) {
  for (var i=0;i<edges.length;i++) {
    if (edges[i].id.substr(0,4)=='edge') {
      edges[i].setAttribute('class','edge');
    }
  }
}
]]></script>
        <defs>
                <circle id="rim" cx="0" cy="0" r="7"/>
                <circle id="rim2" cx="0" cy="0" r="3.5"/>
                <g id="zoomPlus">
                        <use xlink:href="#rim" fill="#404040">
                                <set attributeName="fill" to="#808080" begin="zoomplus.mouseover" end="zoomplus.mouseout"/>
                        </use>
                        <path d="M-4,0h8M0,-4v8" fill="none" stroke="white" stroke-width="1.5" pointer-events="none"/>
                </g>
                <g id="zoomMin">
                        <use xlink:href="#rim" fill="#404040">
                                <set attributeName="fill" to="#808080" begin="zoomminus.mouseover" end="zoomminus.mouseout"/>
                        </use>
                        <path d="M-4,0h8" fill="none" stroke="white" stroke-width="1.5" pointer-events="none"/>
                </g>
                <g id="dirArrow">
                        <path fill="none" stroke="white" stroke-width="1.5" d="M0,-3.0v7 M-2.5,-0.5L0,-3.0L2.5,-0.5"/>
                </g>
               <g id="resetDef">
                       <use xlink:href="#rim2" fill="#404040">
                               <set attributeName="fill" to="#808080" begin="reset.mouseover" end="reset.mouseout"/>
                       </use>
               </g>
        </defs>

<script type="text/javascript">
var viewWidth = 599;
var viewHeight = 249;
var sectionId = 'dynsection-17';
</script>
<script xlink:href="svgpan.js"/>
<svg id="graph" class="graph">
<g id="viewport">
<title>barrier</title>
<!-- Node1 -->
<g id="node1" class="node"><title>Node1</title>
<g id="a_node1"><a xlink:title=" ">
<polygon fill="#999999" stroke="#666666" points="591,-120.5 547,-120.5 547,-101.5 591,-101.5 591,-120.5"/>
<text text-anchor="middle" x="569" y="-108.5" font-family="Helvetica,sans-Serif" font-size="10.00">barrier</text>
</a>
</g>
</g>
<!-- Node2 -->
<g id="node2" class="node"><title>Node2</title>
<g id="a_node2"><a xlink:href="classore_1_1data_1_1_barrier_option.html#ab1db499ff5e65c59fd2009d62276fdaf" target="_top" xlink:title="Build QuantLib/QuantExt instrument, link pricing engine.">
<polygon fill="white" stroke="#666666" points="456,-211.5 419,-211.5 419,-192.5 456,-192.5 456,-211.5"/>
<text text-anchor="middle" x="437.5" y="-199.5" font-family="Helvetica,sans-Serif" font-size="10.00">build</text>
</a>
</g>
</g>
<!-- Node1&#45;&gt;Node2 -->
<g id="edge1" class="edge"><title>Node1&#45;&gt;Node2</title>
<path fill="none" stroke="#63b8ff" d="M558.136,-129.312C548.323,-145.793 531.752,-169.441 511,-183 494.334,-193.889 471.692,-198.549 456.171,-200.536"/>
<polygon fill="#63b8ff" stroke="#63b8ff" points="561.208,-130.99 563.114,-120.568 555.125,-127.527 561.208,-130.99"/>
</g>
<!-- Node6 -->
<g id="node6" class="node"><title>Node6</title>
<g id="a_node6"><a xlink:href="classore_1_1data_1_1_equity_barrier_option.html#afc4e3c2b52cfa84d7fd244b1e14c57c4" target="_top" xlink:title="check validity of barriers">
<polygon fill="white" stroke="#666666" points="496,-174 379,-174 379,-144 496,-144 496,-174"/>
<text text-anchor="start" x="387" y="-162" font-family="Helvetica,sans-Serif" font-size="10.00">ore::data::EquityBarrier</text>
<text text-anchor="middle" x="437.5" y="-151" font-family="Helvetica,sans-Serif" font-size="10.00">Option::checkBarriers</text>
</a>
</g>
</g>
<!-- Node1&#45;&gt;Node6 -->
<g id="edge5" class="edge"><title>Node1&#45;&gt;Node6</title>
<path fill="none" stroke="#63b8ff" d="M537.549,-124.344C529.014,-127.941 519.691,-131.737 511,-135 502.932,-138.029 494.287,-141.067 485.878,-143.914"/>
<polygon fill="#63b8ff" stroke="#63b8ff" points="538.953,-127.55 546.777,-120.406 536.206,-121.112 538.953,-127.55"/>
</g>
<!-- Node7 -->
<g id="node7" class="node"><title>Node7</title>
<g id="a_node7"><a xlink:href="classore_1_1data_1_1_equity_double_barrier_option.html#afc4e3c2b52cfa84d7fd244b1e14c57c4" target="_top" xlink:title="check validity of barriers">
<polygon fill="white" stroke="#666666" points="511,-126 364,-126 364,-96 511,-96 511,-126"/>
<text text-anchor="start" x="372" y="-114" font-family="Helvetica,sans-Serif" font-size="10.00">ore::data::EquityDoubleBarrier</text>
<text text-anchor="middle" x="437.5" y="-103" font-family="Helvetica,sans-Serif" font-size="10.00">Option::checkBarriers</text>
</a>
</g>
</g>
<!-- Node1&#45;&gt;Node7 -->
<g id="edge6" class="edge"><title>Node1&#45;&gt;Node7</title>
<path fill="none" stroke="#63b8ff" d="M536.798,-111C528.921,-111 520.13,-111 511.132,-111"/>
<polygon fill="#63b8ff" stroke="#63b8ff" points="536.905,-114.5 546.905,-111 536.905,-107.5 536.905,-114.5"/>
</g>
<!-- Node8 -->
<g id="node8" class="node"><title>Node8</title>
<g id="a_node8"><a xlink:href="classore_1_1data_1_1_fx_barrier_option.html#afc4e3c2b52cfa84d7fd244b1e14c57c4" target="_top" xlink:title="check validity of barriers">
<polygon fill="white" stroke="#666666" points="502,-78 373,-78 373,-48 502,-48 502,-78"/>
<text text-anchor="start" x="381" y="-66" font-family="Helvetica,sans-Serif" font-size="10.00">ore::data::FxBarrierOption</text>
<text text-anchor="middle" x="437.5" y="-55" font-family="Helvetica,sans-Serif" font-size="10.00">::checkBarriers</text>
</a>
</g>
</g>
<!-- Node1&#45;&gt;Node8 -->
<g id="edge7" class="edge"><title>Node1&#45;&gt;Node8</title>
<path fill="none" stroke="#63b8ff" d="M537.549,-97.6564C529.014,-94.0589 519.691,-90.2625 511,-87 502.932,-83.9713 494.287,-80.9334 485.878,-78.0862"/>
<polygon fill="#63b8ff" stroke="#63b8ff" points="536.206,-100.888 546.777,-101.594 538.953,-94.45 536.206,-100.888"/>
</g>
<!-- Node9 -->
<g id="node9" class="node"><title>Node9</title>
<g id="a_node9"><a xlink:href="classore_1_1data_1_1_fx_double_barrier_option.html#afc4e3c2b52cfa84d7fd244b1e14c57c4" target="_top" xlink:title="check validity of barriers">
<polygon fill="white" stroke="#666666" points="503,-30 372,-30 372,-0 503,-0 503,-30"/>
<text text-anchor="start" x="380" y="-18" font-family="Helvetica,sans-Serif" font-size="10.00">ore::data::FxDoubleBarrier</text>
<text text-anchor="middle" x="437.5" y="-7" font-family="Helvetica,sans-Serif" font-size="10.00">Option::checkBarriers</text>
</a>
</g>
</g>
<!-- Node1&#45;&gt;Node9 -->
<g id="edge8" class="edge"><title>Node1&#45;&gt;Node9</title>
<path fill="none" stroke="#63b8ff" d="M557.609,-92.4611C547.618,-76.2136 531.094,-53.0564 511,-39 506.111,-35.58 500.701,-32.6208 495.103,-30.066"/>
<polygon fill="#63b8ff" stroke="#63b8ff" points="554.616,-94.2761 562.714,-101.108 560.644,-90.7173 554.616,-94.2761"/>
</g>
<!-- Node3 -->
<g id="node3" class="node"><title>Node3</title>
<g id="a_node3"><a xlink:href="classore_1_1data_1_1_fx_option_with_barrier.html#a023906d726fdb4d1f906576fe597c579" target="_top" xlink:title=" ">
<polygon fill="white" stroke="#666666" points="328,-241 179,-241 179,-211 328,-211 328,-241"/>
<text text-anchor="start" x="187" y="-229" font-family="Helvetica,sans-Serif" font-size="10.00">ore::data::FxOptionWithBarrier</text>
<text text-anchor="middle" x="253.5" y="-218" font-family="Helvetica,sans-Serif" font-size="10.00">::build</text>
</a>
</g>
</g>
<!-- Node2&#45;&gt;Node3 -->
<g id="edge2" class="edge"><title>Node2&#45;&gt;Node3</title>
<path fill="none" stroke="#63b8ff" d="M408.701,-205.666C387.266,-208.492 356.588,-212.538 328.232,-216.277"/>
<polygon fill="#63b8ff" stroke="#63b8ff" points="409.261,-209.122 418.718,-204.345 408.346,-202.182 409.261,-209.122"/>
</g>
<!-- Node5 -->
<g id="node5" class="node"><title>Node5</title>
<g id="a_node5"><a xlink:href="classore_1_1data_1_1_equity_option_with_barrier.html#a023906d726fdb4d1f906576fe597c579" target="_top" xlink:title=" ">
<polygon fill="white" stroke="#666666" points="322,-193 185,-193 185,-163 322,-163 322,-193"/>
<text text-anchor="start" x="193" y="-181" font-family="Helvetica,sans-Serif" font-size="10.00">ore::data::EquityOptionWith</text>
<text text-anchor="middle" x="253.5" y="-170" font-family="Helvetica,sans-Serif" font-size="10.00">Barrier::build</text>
</a>
</g>
</g>
<!-- Node2&#45;&gt;Node5 -->
<g id="edge4" class="edge"><title>Node2&#45;&gt;Node5</title>
<path fill="none" stroke="#63b8ff" d="M408.676,-198.331C385.749,-195.308 352.259,-190.891 322.346,-186.947"/>
<polygon fill="#63b8ff" stroke="#63b8ff" points="408.346,-201.818 418.718,-199.655 409.261,-194.878 408.346,-201.818"/>
</g>
<!-- Node4 -->
<g id="node4" class="node"><title>Node4</title>
<g id="a_node4"><a xlink:href="fxexotics_8cpp.html#a97f1cf85be4712888f153506afc004be" target="_top" xlink:title=" ">
<polygon fill="white" stroke="#666666" points="143,-235.5 0,-235.5 0,-216.5 143,-216.5 143,-235.5"/>
<text text-anchor="middle" x="71.5" y="-223.5" font-family="Helvetica,sans-Serif" font-size="10.00">BOOST_AUTO_TEST_CASE</text>
</a>
</g>
</g>
<!-- Node3&#45;&gt;Node4 -->
<g id="edge3" class="edge"><title>Node3&#45;&gt;Node4</title>
<path fill="none" stroke="#63b8ff" d="M168.505,-226C160.045,-226 151.515,-226 143.214,-226"/>
<polygon fill="#63b8ff" stroke="#63b8ff" points="168.768,-229.5 178.768,-226 168.768,-222.5 168.768,-229.5"/>
</g>
</g>
</svg>
        <g id="navigator" transform="translate(0 0)" fill="#404254">
                <rect fill="#f2f5e9" fill-opacity="0.5" stroke="#606060" stroke-width=".5" x="0" y="0" width="60" height="60"/>
                <use id="zoomplus" xlink:href="#zoomPlus" x="17" y="9" onmousedown="handleZoom(evt,'in')"/>
                <use id="zoomminus" xlink:href="#zoomMin" x="42" y="9" onmousedown="handleZoom(evt,'out')"/>
                <use id="reset" xlink:href="#resetDef" x="30" y="36" onmousedown="handleReset()"/>
                <g id="arrowUp" xlink:href="#dirArrow" transform="translate(30 24)" onmousedown="handlePan(0,-1)">
                  <use xlink:href="#rim" fill="#404040">
                        <set attributeName="fill" to="#808080" begin="arrowUp.mouseover" end="arrowUp.mouseout"/>
                  </use>
                  <path fill="none" stroke="white" stroke-width="1.5" d="M0,-3.0v7 M-2.5,-0.5L0,-3.0L2.5,-0.5"/>
                </g>
                <g id="arrowRight" xlink:href="#dirArrow" transform="rotate(90) translate(36 -43)" onmousedown="handlePan(1,0)">
                  <use xlink:href="#rim" fill="#404040">
                        <set attributeName="fill" to="#808080" begin="arrowRight.mouseover" end="arrowRight.mouseout"/>
                  </use>
                  <path fill="none" stroke="white" stroke-width="1.5" d="M0,-3.0v7 M-2.5,-0.5L0,-3.0L2.5,-0.5"/>
                </g>
                <g id="arrowDown" xlink:href="#dirArrow" transform="rotate(180) translate(-30 -48)" onmousedown="handlePan(0,1)">
                  <use xlink:href="#rim" fill="#404040">
                        <set attributeName="fill" to="#808080" begin="arrowDown.mouseover" end="arrowDown.mouseout"/>
                  </use>
                  <path fill="none" stroke="white" stroke-width="1.5" d="M0,-3.0v7 M-2.5,-0.5L0,-3.0L2.5,-0.5"/>
                </g>
                <g id="arrowLeft" xlink:href="#dirArrow" transform="rotate(270) translate(-36 17)" onmousedown="handlePan(-1,0)">
                  <use xlink:href="#rim" fill="#404040">
                        <set attributeName="fill" to="#808080" begin="arrowLeft.mouseover" end="arrowLeft.mouseout"/>
                  </use>
                  <path fill="none" stroke="white" stroke-width="1.5" d="M0,-3.0v7 M-2.5,-0.5L0,-3.0L2.5,-0.5"/>
                </g>
        </g>
        <svg viewBox="0 0 15 15" width="100%" height="30px" preserveAspectRatio="xMaxYMin meet">
         <g id="arrow_out" transform="scale(0.3 0.3)">
          <a xlink:href="classore_1_1data_1_1_barrier_option_a1c358c97a8920ec5f7ad00767f7520b8_icgraph_org.svg" target="_base">
           <rect id="button" ry="5" rx="5" y="6" x="6" height="38" width="38"
                fill="#f2f5e9" fill-opacity="0.5" stroke="#606060" stroke-width="1.0"/>
           <path id="arrow"
             d="M 11.500037,31.436501 C 11.940474,20.09759 22.043105,11.32322 32.158766,21.979434 L 37.068811,17.246167 C 37.068811,17.246167 37.088388,32 37.088388,32 L 22.160133,31.978069 C 22.160133,31.978069 26.997745,27.140456 26.997745,27.140456 C 18.528582,18.264221 13.291696,25.230495 11.500037,31.436501 z"
             style="fill:#404040;"/>
          </a>
         </g>
        </svg>
</svg>
