<?xml version="1.0" encoding="UTF-8" standalone="no"?>
<!DOCTYPE svg PUBLIC "-//W3C//DTD SVG 1.1//EN"
 "http://www.w3.org/Graphics/SVG/1.1/DTD/svg11.dtd">
<!-- Generated by graphviz version 2.38.0 (20140413.2041)
 -->
<!-- Title: calculate Pages: 1 -->
<svg width="440pt" height="268pt"
 viewBox="0.00 0.00 440.00 268.00" xmlns="http://www.w3.org/2000/svg" xmlns:xlink="http://www.w3.org/1999/xlink">
<g id="graph0" class="graph" transform="scale(1 1) rotate(0) translate(4 264)">
<title>calculate</title>
<!-- Node1 -->
<g id="node1" class="node"><title>Node1</title>
<g id="a_node1"><a xlink:title=" ">
<polygon fill="#999999" stroke="#666666" points="56,-139.5 3.55271e-015,-139.5 3.55271e-015,-120.5 56,-120.5 56,-139.5"/>
<text text-anchor="middle" x="28" y="-127.5" font-family="Helvetica,sans-Serif" font-size="10.00">calculate</text>
</a>
</g>
</g>
<!-- Node2 -->
<g id="node2" class="node"><title>Node2</title>
<g id="a_node2"><a target="_parent" xlink:href="../qle/struct_quant_ext_1_1_random_variable.html#a52b7b894964a2a061ce79c386c3e3e8f" xlink:title=" ">
<polygon fill="white" stroke="#666666" points="241,-234.5 92,-234.5 92,-215.5 241,-215.5 241,-234.5"/>
<text text-anchor="middle" x="166.5" y="-222.5" font-family="Helvetica,sans-Serif" font-size="10.00">QuantExt::RandomVariable::at</text>
</a>
</g>
</g>
<!-- Node1&#45;&gt;Node2 -->
<g id="edge1" class="edge"><title>Node1&#45;&gt;Node2</title>
<path fill="none" stroke="#63b8ff" d="M35.1295,-139.744C45.1903,-154.97 66.6421,-184.375 92,-201 98.6303,-205.347 106.113,-208.966 113.703,-211.961"/>
<polygon fill="#63b8ff" stroke="#63b8ff" points="112.723,-215.328 123.317,-215.429 115.098,-208.743 112.723,-215.328"/>
</g>
<!-- Node3 -->
<g id="node3" class="node"><title>Node3</title>
<g id="a_node3"><a xlink:href="classore_1_1data_1_1_numeric_lgm_risk_participation_agreement_engine_t_lock.html#ada6eeb1ae6f2ac5e09c8d1fee92fe3e8" target="_top" xlink:title=" ">
<polygon fill="white" stroke="#666666" points="207,-158.5 126,-158.5 126,-139.5 207,-139.5 207,-158.5"/>
<text text-anchor="middle" x="166.5" y="-146.5" font-family="Helvetica,sans-Serif" font-size="10.00">computePayoff</text>
</a>
</g>
</g>
<!-- Node1&#45;&gt;Node3 -->
<g id="edge2" class="edge"><title>Node1&#45;&gt;Node3</title>
<path fill="none" stroke="#63b8ff" d="M56.2947,-133.799C73.3332,-136.171 95.7756,-139.295 115.882,-142.093"/>
<polygon fill="#63b8ff" stroke="#63b8ff" points="115.448,-145.567 125.835,-143.479 116.413,-138.634 115.448,-145.567"/>
</g>
<!-- Node4 -->
<g id="node4" class="node"><title>Node4</title>
<g id="a_node4"><a target="_parent" xlink:href="../qle/class_quant_ext_1_1_lgm_convolution_solver2.html#afaaf32c43925e8a0f85bbba660146b8d" xlink:title=" ">
<polygon fill="white" stroke="#666666" points="420.5,-260 288.5,-260 288.5,-230 420.5,-230 420.5,-260"/>
<text text-anchor="start" x="296.5" y="-248" font-family="Helvetica,sans-Serif" font-size="10.00">QuantExt::LgmConvolution</text>
<text text-anchor="middle" x="354.5" y="-237" font-family="Helvetica,sans-Serif" font-size="10.00">Solver2::gridSize</text>
</a>
</g>
</g>
<!-- Node1&#45;&gt;Node4 -->
<g id="edge10" class="edge"><title>Node1&#45;&gt;Node4</title>
<path fill="none" stroke="#63b8ff" d="M42.4033,-139.648C54.7603,-148.154 73.8774,-160.351 92,-168 155.066,-194.618 175.882,-185.893 241,-207 257.331,-212.293 260.801,-215.316 277,-221 282.553,-222.949 288.359,-224.908 294.183,-226.822"/>
<polygon fill="#63b8ff" stroke="#63b8ff" points="293.366,-230.236 303.958,-229.989 295.524,-223.577 293.366,-230.236"/>
</g>
<!-- Node10 -->
<g id="node10" class="node"><title>Node10</title>
<g id="a_node10"><a target="_parent" xlink:href="../qle/namespace_quant_ext.html#a8c7149e5256e71f377e1810576ac6b4c" xlink:title=" ">
<polygon fill="white" stroke="#666666" points="223.5,-121.5 109.5,-121.5 109.5,-102.5 223.5,-102.5 223.5,-121.5"/>
<text text-anchor="middle" x="166.5" y="-109.5" font-family="Helvetica,sans-Serif" font-size="10.00">QuantExt::expectation</text>
</a>
</g>
</g>
<!-- Node1&#45;&gt;Node10 -->
<g id="edge9" class="edge"><title>Node1&#45;&gt;Node10</title>
<path fill="none" stroke="#63b8ff" d="M56.2947,-126.401C68.8037,-124.751 84.2254,-122.718 99.4969,-120.704"/>
<polygon fill="#63b8ff" stroke="#63b8ff" points="100.022,-124.165 109.479,-119.387 99.1068,-117.225 100.022,-124.165"/>
</g>
<!-- Node11 -->
<g id="node11" class="node"><title>Node11</title>
<g id="a_node11"><a target="_parent" xlink:href="../qle/namespace_quant_ext.html#a0780e43df89be3d7f7671eca2418cdd1" xlink:title=" ">
<polygon fill="white" stroke="#666666" points="184,-84.5 149,-84.5 149,-65.5 184,-65.5 184,-84.5"/>
<text text-anchor="middle" x="166.5" y="-72.5" font-family="Helvetica,sans-Serif" font-size="10.00">max</text>
</a>
</g>
</g>
<!-- Node1&#45;&gt;Node11 -->
<g id="edge11" class="edge"><title>Node1&#45;&gt;Node11</title>
<path fill="none" stroke="#63b8ff" d="M43.2076,-120.414C55.6258,-112.4 74.3781,-101.162 92,-94 106.984,-87.9098 124.492,-83.2924 138.661,-80.1353"/>
<polygon fill="#63b8ff" stroke="#63b8ff" points="139.687,-83.4959 148.748,-78.0054 138.241,-76.6469 139.687,-83.4959"/>
</g>
<!-- Node12 -->
<g id="node12" class="node"><title>Node12</title>
<g id="a_node12"><a target="_parent" xlink:href="../qle/class_quant_ext_1_1_lgm_convolution_solver2.html#a3f3971be25680a745b28f6fce69d31b6" xlink:title=" ">
<polygon fill="white" stroke="#666666" points="232.5,-47 100.5,-47 100.5,-17 232.5,-17 232.5,-47"/>
<text text-anchor="start" x="108.5" y="-35" font-family="Helvetica,sans-Serif" font-size="10.00">QuantExt::LgmConvolution</text>
<text text-anchor="middle" x="166.5" y="-24" font-family="Helvetica,sans-Serif" font-size="10.00">Solver2::rollback</text>
</a>
</g>
</g>
<!-- Node1&#45;&gt;Node12 -->
<g id="edge12" class="edge"><title>Node1&#45;&gt;Node12</title>
<path fill="none" stroke="#63b8ff" d="M34.7082,-120.347C44.4872,-104.621 65.9327,-73.4749 92,-56 94.4042,-54.3883 96.9248,-52.8778 99.5252,-51.463"/>
<polygon fill="#63b8ff" stroke="#63b8ff" points="101.176,-54.5516 108.621,-47.0127 98.0998,-48.2639 101.176,-54.5516"/>
</g>
<!-- Node3&#45;&gt;Node4 -->
<g id="edge3" class="edge"><title>Node3&#45;&gt;Node4</title>
<path fill="none" stroke="#63b8ff" d="M207.364,-157.195C218.91,-160.8 231.069,-165.888 241,-173 262.681,-188.526 255.229,-205.6 277,-221 279.138,-222.512 281.375,-223.932 283.684,-225.264"/>
<polygon fill="#63b8ff" stroke="#63b8ff" points="282.402,-228.54 292.898,-229.982 285.593,-222.309 282.402,-228.54"/>
</g>
<!-- Node5 -->
<g id="node5" class="node"><title>Node5</title>
<g id="a_node5"><a target="_parent" xlink:href="../qle/class_quant_ext_1_1_lgm_convolution_solver2.html#a050ea6a9d5bc55b5d766f615d91e257a" xlink:title=" ">
<polygon fill="white" stroke="#666666" points="420.5,-212 288.5,-212 288.5,-182 420.5,-182 420.5,-212"/>
<text text-anchor="start" x="296.5" y="-200" font-family="Helvetica,sans-Serif" font-size="10.00">QuantExt::LgmConvolution</text>
<text text-anchor="middle" x="354.5" y="-189" font-family="Helvetica,sans-Serif" font-size="10.00">Solver2::model</text>
</a>
</g>
</g>
<!-- Node3&#45;&gt;Node5 -->
<g id="edge4" class="edge"><title>Node3&#45;&gt;Node5</title>
<path fill="none" stroke="#63b8ff" d="M204.693,-158.598C227.731,-164.544 258.02,-172.36 285.254,-179.388"/>
<polygon fill="#63b8ff" stroke="#63b8ff" points="284.574,-182.827 295.131,-181.937 286.323,-176.049 284.574,-182.827"/>
</g>
<!-- Node6 -->
<g id="node6" class="node"><title>Node6</title>
<g id="a_node6"><a target="_parent" xlink:href="../qle/class_quant_ext_1_1_lgm_implied_yield_term_structure.html#a3ae2f779ff33d0951ec8b6ddebadbfeb" xlink:title=" ">
<polygon fill="white" stroke="#666666" points="422,-164 287,-164 287,-134 422,-134 422,-164"/>
<text text-anchor="start" x="295" y="-152" font-family="Helvetica,sans-Serif" font-size="10.00">QuantExt::LgmImpliedYield</text>
<text text-anchor="middle" x="354.5" y="-141" font-family="Helvetica,sans-Serif" font-size="10.00">TermStructure::move</text>
</a>
</g>
</g>
<!-- Node3&#45;&gt;Node6 -->
<g id="edge5" class="edge"><title>Node3&#45;&gt;Node6</title>
<path fill="none" stroke="#63b8ff" d="M207.402,-149C227.67,-149 252.998,-149 276.845,-149"/>
<polygon fill="#63b8ff" stroke="#63b8ff" points="276.956,-152.5 286.956,-149 276.956,-145.5 276.956,-152.5"/>
</g>
<!-- Node7 -->
<g id="node7" class="node"><title>Node7</title>
<g id="a_node7"><a target="_parent" xlink:href="../qle/struct_quant_ext_1_1_random_variable.html#a75713b8a30134b04462eccc5d2cd1d2e" xlink:title=" ">
<polygon fill="white" stroke="#666666" points="432,-115.5 277,-115.5 277,-96.5 432,-96.5 432,-115.5"/>
<text text-anchor="middle" x="354.5" y="-103.5" font-family="Helvetica,sans-Serif" font-size="10.00">QuantExt::RandomVariable::set</text>
</a>
</g>
</g>
<!-- Node3&#45;&gt;Node7 -->
<g id="edge6" class="edge"><title>Node3&#45;&gt;Node7</title>
<path fill="none" stroke="#63b8ff" d="M207.402,-139.775C235.213,-133.346 272.553,-124.714 302.521,-117.785"/>
<polygon fill="#63b8ff" stroke="#63b8ff" points="303.423,-121.169 312.377,-115.507 301.846,-114.349 303.423,-121.169"/>
</g>
<!-- Node8 -->
<g id="node8" class="node"><title>Node8</title>
<g id="a_node8"><a target="_parent" xlink:href="../qle/class_quant_ext_1_1_lgm_implied_yield_term_structure.html#a1375e0ff369b9493a8e6e24d16b086de" xlink:title=" ">
<polygon fill="white" stroke="#666666" points="422,-78 287,-78 287,-48 422,-48 422,-78"/>
<text text-anchor="start" x="295" y="-66" font-family="Helvetica,sans-Serif" font-size="10.00">QuantExt::LgmImpliedYield</text>
<text text-anchor="middle" x="354.5" y="-55" font-family="Helvetica,sans-Serif" font-size="10.00">TermStructure::state</text>
</a>
</g>
</g>
<!-- Node3&#45;&gt;Node8 -->
<g id="edge7" class="edge"><title>Node3&#45;&gt;Node8</title>
<path fill="none" stroke="#63b8ff" d="M207.093,-144.082C218.631,-141.421 230.852,-137.32 241,-131 262.157,-117.824 256.356,-101.967 277,-88 279.924,-86.0218 283.016,-84.1906 286.214,-82.4966"/>
<polygon fill="#63b8ff" stroke="#63b8ff" points="287.945,-85.5484 295.458,-78.0777 284.926,-79.2329 287.945,-85.5484"/>
</g>
<!-- Node9 -->
<g id="node9" class="node"><title>Node9</title>
<g id="a_node9"><a target="_parent" xlink:href="../qle/class_quant_ext_1_1_lgm_convolution_solver2.html#ad83fd8f4a99f30bee5b71ec156941d4a" xlink:title=" ">
<polygon fill="white" stroke="#666666" points="420.5,-30 288.5,-30 288.5,-0 420.5,-0 420.5,-30"/>
<text text-anchor="start" x="296.5" y="-18" font-family="Helvetica,sans-Serif" font-size="10.00">QuantExt::LgmConvolution</text>
<text text-anchor="middle" x="354.5" y="-7" font-family="Helvetica,sans-Serif" font-size="10.00">Solver2::stateGrid</text>
</a>
</g>
</g>
<!-- Node3&#45;&gt;Node9 -->
<g id="edge8" class="edge"><title>Node3&#45;&gt;Node9</title>
<path fill="none" stroke="#63b8ff" d="M207.004,-146.35C219.066,-143.818 231.609,-139.22 241,-131 274.039,-102.081 244.9,-68.9584 277,-39 278.145,-37.9316 279.337,-36.9107 280.569,-35.9352"/>
<polygon fill="#63b8ff" stroke="#63b8ff" points="282.869,-38.6076 289.23,-30.1345 278.973,-32.7917 282.869,-38.6076"/>
</g>
</g>
</svg>
