<?xml version="1.0" encoding="UTF-8" standalone="no"?>
<!DOCTYPE svg PUBLIC "-//W3C//DTD SVG 1.1//EN"
 "http://www.w3.org/Graphics/SVG/1.1/DTD/svg11.dtd">
<!-- Generated by graphviz version 2.38.0 (20140413.2041)
 -->
<!-- Title: buildDiscountCurve Pages: 1 -->
<!--zoomable 201 -->
<svg id="main" version="1.1" xmlns="http://www.w3.org/2000/svg" xmlns:xlink="http://www.w3.org/1999/xlink" xml:space="preserve" onload="init(evt)">
<style type="text/css"><![CDATA[
.edge:hover path { stroke: red; }
.edge:hover polygon { stroke: red; fill: red; }
]]></style>
<script type="text/javascript"><![CDATA[
var edges = document.getElementsByTagName('g');
if (edges && edges.length) {
  for (var i=0;i<edges.length;i++) {
    if (edges[i].id.substr(0,4)=='edge') {
      edges[i].setAttribute('class','edge');
    }
  }
}
]]></script>
        <defs>
                <circle id="rim" cx="0" cy="0" r="7"/>
                <circle id="rim2" cx="0" cy="0" r="3.5"/>
                <g id="zoomPlus">
                        <use xlink:href="#rim" fill="#404040">
                                <set attributeName="fill" to="#808080" begin="zoomplus.mouseover" end="zoomplus.mouseout"/>
                        </use>
                        <path d="M-4,0h8M0,-4v8" fill="none" stroke="white" stroke-width="1.5" pointer-events="none"/>
                </g>
                <g id="zoomMin">
                        <use xlink:href="#rim" fill="#404040">
                                <set attributeName="fill" to="#808080" begin="zoomminus.mouseover" end="zoomminus.mouseout"/>
                        </use>
                        <path d="M-4,0h8" fill="none" stroke="white" stroke-width="1.5" pointer-events="none"/>
                </g>
                <g id="dirArrow">
                        <path fill="none" stroke="white" stroke-width="1.5" d="M0,-3.0v7 M-2.5,-0.5L0,-3.0L2.5,-0.5"/>
                </g>
               <g id="resetDef">
                       <use xlink:href="#rim2" fill="#404040">
                               <set attributeName="fill" to="#808080" begin="reset.mouseover" end="reset.mouseout"/>
                       </use>
               </g>
        </defs>

<script type="text/javascript">
var viewWidth = 572;
var viewHeight = 201;
var sectionId = 'dynsection-3';
</script>
<script xlink:href="svgpan.js"/>
<svg id="graph" class="graph">
<g id="viewport">
<title>buildDiscountCurve</title>
<!-- Node1 -->
<g id="node1" class="node"><title>Node1</title>
<g id="a_node1"><a xlink:title=" ">
<polygon fill="#999999" stroke="#666666" points="99,-118.5 0,-118.5 0,-99.5 99,-99.5 99,-118.5"/>
<text text-anchor="middle" x="49.5" y="-106.5" font-family="Helvetica,sans-Serif" font-size="10.00">buildDiscountCurve</text>
</a>
</g>
</g>
<!-- Node2 -->
<g id="node2" class="node"><title>Node2</title>
<g id="a_node2"><a xlink:href="namespaceore_1_1data.html#aa184f2d487261594f30eb71bae3ca981" target="_top" xlink:title="Create a Interpolated Discount Curve and apply interpolators.">
<polygon fill="white" stroke="#666666" points="266.5,-192.5 146.5,-192.5 146.5,-173.5 266.5,-173.5 266.5,-192.5"/>
<text text-anchor="middle" x="206.5" y="-180.5" font-family="Helvetica,sans-Serif" font-size="10.00">ore::data::discountcurve</text>
</a>
</g>
</g>
<!-- Node1&#45;&gt;Node2 -->
<g id="edge1" class="edge"><title>Node1&#45;&gt;Node2</title>
<path fill="none" stroke="#63b8ff" d="M62.0703,-118.52C77.6983,-130.926 106.848,-152.508 135,-165 139.456,-166.977 144.171,-168.768 148.966,-170.382"/>
<polygon fill="#63b8ff" stroke="#63b8ff" points="148.273,-173.832 158.861,-173.453 150.348,-167.146 148.273,-173.832"/>
</g>
<!-- Node3 -->
<g id="node3" class="node"><title>Node3</title>
<g id="a_node3"><a xlink:href="classore_1_1data_1_1_loader.html#a19d9f6f808db2631247ec12ffe291225" target="_top" xlink:title="get quote by its unique name, throws if not existent, override in derived classes for performance">
<polygon fill="white" stroke="#666666" points="261.5,-155.5 151.5,-155.5 151.5,-136.5 261.5,-136.5 261.5,-155.5"/>
<text text-anchor="middle" x="206.5" y="-143.5" font-family="Helvetica,sans-Serif" font-size="10.00">ore::data::Loader::get</text>
</a>
</g>
</g>
<!-- Node1&#45;&gt;Node3 -->
<g id="edge2" class="edge"><title>Node1&#45;&gt;Node3</title>
<path fill="none" stroke="#63b8ff" d="M90.4164,-118.528C110.317,-123.279 134.58,-129.071 155.688,-134.109"/>
<polygon fill="#63b8ff" stroke="#63b8ff" points="154.91,-137.522 165.45,-136.44 156.536,-130.713 154.91,-137.522"/>
</g>
<!-- Node5 -->
<g id="node5" class="node"><title>Node5</title>
<g id="a_node5"><a xlink:href="namespaceore_1_1data.html#afb4bd26f4cf89fd9281278c484e0f9c3" target="_top" xlink:title="checks if at most one element in C has a wild card and returns it in this case">
<polygon fill="white" stroke="#666666" points="278,-118.5 135,-118.5 135,-99.5 278,-99.5 278,-118.5"/>
<text text-anchor="middle" x="206.5" y="-106.5" font-family="Helvetica,sans-Serif" font-size="10.00">ore::data::getUniqueWildcard</text>
</a>
</g>
</g>
<!-- Node1&#45;&gt;Node5 -->
<g id="edge4" class="edge"><title>Node1&#45;&gt;Node5</title>
<path fill="none" stroke="#63b8ff" d="M99.1177,-109C107.286,-109 115.953,-109 124.677,-109"/>
<polygon fill="#63b8ff" stroke="#63b8ff" points="124.917,-112.5 134.917,-109 124.917,-105.5 124.917,-112.5"/>
</g>
<!-- Node7 -->
<g id="node7" class="node"><title>Node7</title>
<g id="a_node7"><a xlink:href="classore_1_1data_1_1_curve_spec.html#afa7a10b4b56522f03c698ac514b0f844" target="_top" xlink:title="returns the unique curve name">
<polygon fill="white" stroke="#666666" points="260,-79 153,-79 153,-49 260,-49 260,-79"/>
<text text-anchor="start" x="161" y="-67" font-family="Helvetica,sans-Serif" font-size="10.00">ore::data::CurveSpec</text>
<text text-anchor="middle" x="206.5" y="-56" font-family="Helvetica,sans-Serif" font-size="10.00">::name</text>
</a>
</g>
</g>
<!-- Node1&#45;&gt;Node7 -->
<g id="edge6" class="edge"><title>Node1&#45;&gt;Node7</title>
<path fill="none" stroke="#63b8ff" d="M83.3715,-99.4567C101.016,-94.334 123.342,-87.8522 144.066,-81.8358"/>
<polygon fill="#63b8ff" stroke="#63b8ff" points="145.138,-85.1689 153.766,-79.0195 143.187,-78.4465 145.138,-85.1689"/>
</g>
<!-- Node12 -->
<g id="node12" class="node"><title>Node12</title>
<g id="a_node12"><a xlink:href="namespaceore_1_1data.html#ae1d27033e39ac9a482852f335b186756" target="_top" xlink:title="Create a Interpolated Zero Curve and apply interpolators.">
<polygon fill="white" stroke="#666666" points="257.5,-30.5 155.5,-30.5 155.5,-11.5 257.5,-11.5 257.5,-30.5"/>
<text text-anchor="middle" x="206.5" y="-18.5" font-family="Helvetica,sans-Serif" font-size="10.00">ore::data::zerocurve</text>
</a>
</g>
</g>
<!-- Node1&#45;&gt;Node12 -->
<g id="edge12" class="edge"><title>Node1&#45;&gt;Node12</title>
<path fill="none" stroke="#63b8ff" d="M59.4344,-99.4709C73.9058,-84.5932 103.993,-55.907 135,-40 139.536,-37.6729 144.387,-35.608 149.342,-33.7804"/>
<polygon fill="#63b8ff" stroke="#63b8ff" points="150.58,-37.0567 158.943,-30.5518 148.349,-30.4218 150.58,-37.0567"/>
</g>
<!-- Node4 -->
<g id="node4" class="node"><title>Node4</title>
<g id="a_node4"><a xlink:href="classore_1_1data_1_1_loader.html#a0086c4f946085ef0b9d5c56bd1539f91" target="_top" xlink:title="get all quotes, TODO change the return value to std::set">
<polygon fill="white" stroke="#666666" points="415.5,-174 319.5,-174 319.5,-144 415.5,-144 415.5,-174"/>
<text text-anchor="start" x="327.5" y="-162" font-family="Helvetica,sans-Serif" font-size="10.00">ore::data::Loader::</text>
<text text-anchor="middle" x="367.5" y="-151" font-family="Helvetica,sans-Serif" font-size="10.00">loadQuotes</text>
</a>
</g>
</g>
<!-- Node3&#45;&gt;Node4 -->
<g id="edge3" class="edge"><title>Node3&#45;&gt;Node4</title>
<path fill="none" stroke="#63b8ff" d="M261.774,-150.438C277.124,-151.693 293.874,-153.062 309.385,-154.33"/>
<polygon fill="#63b8ff" stroke="#63b8ff" points="309.121,-157.82 319.373,-155.147 309.691,-150.844 309.121,-157.82"/>
</g>
<!-- Node6 -->
<g id="node6" class="node"><title>Node6</title>
<g id="a_node6"><a xlink:href="classore_1_1data_1_1_wildcard.html#a2c8716c3eecd1edf1c1675aa730d59e3" target="_top" xlink:title=" ">
<polygon fill="white" stroke="#666666" points="417,-126 318,-126 318,-96 417,-96 417,-126"/>
<text text-anchor="start" x="326" y="-114" font-family="Helvetica,sans-Serif" font-size="10.00">ore::data::Wildcard</text>
<text text-anchor="middle" x="367.5" y="-103" font-family="Helvetica,sans-Serif" font-size="10.00">::hasWildcard</text>
</a>
</g>
</g>
<!-- Node5&#45;&gt;Node6 -->
<g id="edge5" class="edge"><title>Node5&#45;&gt;Node6</title>
<path fill="none" stroke="#63b8ff" d="M278.166,-109.889C288.033,-110.013 298.084,-110.139 307.701,-110.26"/>
<polygon fill="#63b8ff" stroke="#63b8ff" points="307.893,-113.763 317.936,-110.389 307.981,-106.764 307.893,-113.763"/>
</g>
<!-- Node8 -->
<g id="node8" class="node"><title>Node8</title>
<g id="a_node8"><a xlink:href="classore_1_1data_1_1_curve_spec.html#a3d24768215bf6280c80eca3930ea3f55" target="_top" xlink:title=" ">
<polygon fill="white" stroke="#666666" points="421,-78 314,-78 314,-48 421,-48 421,-78"/>
<text text-anchor="start" x="322" y="-66" font-family="Helvetica,sans-Serif" font-size="10.00">ore::data::CurveSpec</text>
<text text-anchor="middle" x="367.5" y="-55" font-family="Helvetica,sans-Serif" font-size="10.00">::baseName</text>
</a>
</g>
</g>
<!-- Node7&#45;&gt;Node8 -->
<g id="edge7" class="edge"><title>Node7&#45;&gt;Node8</title>
<path fill="none" stroke="#63b8ff" d="M260.003,-63.6698C273.906,-63.5824 289.058,-63.4871 303.457,-63.3965"/>
<polygon fill="#63b8ff" stroke="#63b8ff" points="303.803,-66.8945 313.78,-63.3316 303.759,-59.8946 303.803,-66.8945"/>
</g>
<!-- Node11 -->
<g id="node11" class="node"><title>Node11</title>
<g id="a_node11"><a xlink:href="classore_1_1data_1_1_curve_spec.html#a471fbcf9df5ab7ac2153495b4c8ac723" target="_top" xlink:title=" ">
<polygon fill="white" stroke="#666666" points="421,-30 314,-30 314,-0 421,-0 421,-30"/>
<text text-anchor="start" x="322" y="-18" font-family="Helvetica,sans-Serif" font-size="10.00">ore::data::CurveSpec</text>
<text text-anchor="middle" x="367.5" y="-7" font-family="Helvetica,sans-Serif" font-size="10.00">::subName</text>
</a>
</g>
</g>
<!-- Node7&#45;&gt;Node11 -->
<g id="edge11" class="edge"><title>Node7&#45;&gt;Node11</title>
<path fill="none" stroke="#63b8ff" d="M256.503,-48.8986C272.749,-43.8917 290.999,-38.2676 307.894,-33.061"/>
<polygon fill="#63b8ff" stroke="#63b8ff" points="309.133,-36.3415 317.659,-30.0516 307.072,-29.652 309.133,-36.3415"/>
</g>
<!-- Node9 -->
<g id="node9" class="node"><title>Node9</title>
<g id="a_node9"><a xlink:href="classore_1_1data_1_1_curve_spec.html#a0106d2fb6472e64456c6ebd018aa6300" target="_top" xlink:title=" ">
<polygon fill="white" stroke="#666666" points="564,-109 457,-109 457,-79 564,-79 564,-109"/>
<text text-anchor="start" x="465" y="-97" font-family="Helvetica,sans-Serif" font-size="10.00">ore::data::CurveSpec</text>
<text text-anchor="middle" x="510.5" y="-86" font-family="Helvetica,sans-Serif" font-size="10.00">::baseType</text>
</a>
</g>
</g>
<!-- Node8&#45;&gt;Node9 -->
<g id="edge8" class="edge"><title>Node8&#45;&gt;Node9</title>
<path fill="none" stroke="#63b8ff" d="M421.003,-74.5433C429.445,-76.3992 438.255,-78.3362 446.905,-80.2379"/>
<polygon fill="#63b8ff" stroke="#63b8ff" points="446.435,-83.7181 456.953,-82.4471 447.938,-76.8814 446.435,-83.7181"/>
</g>
<!-- Node10 -->
<g id="node10" class="node"><title>Node10</title>
<g id="a_node10"><a xlink:href="namespaceore_1_1data.html#a86651dfeb5c18ee891f7a4734d8cf455" target="_top" xlink:title=" ">
<polygon fill="white" stroke="#666666" points="559.5,-42.5 461.5,-42.5 461.5,-23.5 559.5,-23.5 559.5,-42.5"/>
<text text-anchor="middle" x="510.5" y="-30.5" font-family="Helvetica,sans-Serif" font-size="10.00">ore::data::to_string</text>
</a>
</g>
</g>
<!-- Node8&#45;&gt;Node10 -->
<g id="edge9" class="edge"><title>Node8&#45;&gt;Node10</title>
<path fill="none" stroke="#63b8ff" d="M421.003,-51.8291C432.033,-49.4823 443.693,-47.0014 454.802,-44.6379"/>
<polygon fill="#63b8ff" stroke="#63b8ff" points="455.761,-48.0122 464.814,-42.5076 454.305,-41.1654 455.761,-48.0122"/>
</g>
<!-- Node10&#45;&gt;Node10 -->
<g id="edge10" class="edge"><title>Node10&#45;&gt;Node10</title>
<path fill="none" stroke="#63b8ff" d="M488.614,-42.5828C477.966,-51.2337 485.262,-60.5 510.5,-60.5 526.668,-60.5 535.473,-56.6971 536.914,-51.6894"/>
<polygon fill="#63b8ff" stroke="#63b8ff" points="539.972,-49.9792 532.386,-42.5828 533.704,-53.0954 539.972,-49.9792"/>
</g>
</g>
</svg>
        <g id="navigator" transform="translate(0 0)" fill="#404254">
                <rect fill="#f2f5e9" fill-opacity="0.5" stroke="#606060" stroke-width=".5" x="0" y="0" width="60" height="60"/>
                <use id="zoomplus" xlink:href="#zoomPlus" x="17" y="9" onmousedown="handleZoom(evt,'in')"/>
                <use id="zoomminus" xlink:href="#zoomMin" x="42" y="9" onmousedown="handleZoom(evt,'out')"/>
                <use id="reset" xlink:href="#resetDef" x="30" y="36" onmousedown="handleReset()"/>
                <g id="arrowUp" xlink:href="#dirArrow" transform="translate(30 24)" onmousedown="handlePan(0,-1)">
                  <use xlink:href="#rim" fill="#404040">
                        <set attributeName="fill" to="#808080" begin="arrowUp.mouseover" end="arrowUp.mouseout"/>
                  </use>
                  <path fill="none" stroke="white" stroke-width="1.5" d="M0,-3.0v7 M-2.5,-0.5L0,-3.0L2.5,-0.5"/>
                </g>
                <g id="arrowRight" xlink:href="#dirArrow" transform="rotate(90) translate(36 -43)" onmousedown="handlePan(1,0)">
                  <use xlink:href="#rim" fill="#404040">
                        <set attributeName="fill" to="#808080" begin="arrowRight.mouseover" end="arrowRight.mouseout"/>
                  </use>
                  <path fill="none" stroke="white" stroke-width="1.5" d="M0,-3.0v7 M-2.5,-0.5L0,-3.0L2.5,-0.5"/>
                </g>
                <g id="arrowDown" xlink:href="#dirArrow" transform="rotate(180) translate(-30 -48)" onmousedown="handlePan(0,1)">
                  <use xlink:href="#rim" fill="#404040">
                        <set attributeName="fill" to="#808080" begin="arrowDown.mouseover" end="arrowDown.mouseout"/>
                  </use>
                  <path fill="none" stroke="white" stroke-width="1.5" d="M0,-3.0v7 M-2.5,-0.5L0,-3.0L2.5,-0.5"/>
                </g>
                <g id="arrowLeft" xlink:href="#dirArrow" transform="rotate(270) translate(-36 17)" onmousedown="handlePan(-1,0)">
                  <use xlink:href="#rim" fill="#404040">
                        <set attributeName="fill" to="#808080" begin="arrowLeft.mouseover" end="arrowLeft.mouseout"/>
                  </use>
                  <path fill="none" stroke="white" stroke-width="1.5" d="M0,-3.0v7 M-2.5,-0.5L0,-3.0L2.5,-0.5"/>
                </g>
        </g>
        <svg viewBox="0 0 15 15" width="100%" height="30px" preserveAspectRatio="xMaxYMin meet">
         <g id="arrow_out" transform="scale(0.3 0.3)">
          <a xlink:href="classore_1_1data_1_1_yield_curve_ab95be441662bdbb7946d1d195c43bc51_cgraph_org.svg" target="_base">
           <rect id="button" ry="5" rx="5" y="6" x="6" height="38" width="38"
                fill="#f2f5e9" fill-opacity="0.5" stroke="#606060" stroke-width="1.0"/>
           <path id="arrow"
             d="M 11.500037,31.436501 C 11.940474,20.09759 22.043105,11.32322 32.158766,21.979434 L 37.068811,17.246167 C 37.068811,17.246167 37.088388,32 37.088388,32 L 22.160133,31.978069 C 22.160133,31.978069 26.997745,27.140456 26.997745,27.140456 C 18.528582,18.264221 13.291696,25.230495 11.500037,31.436501 z"
             style="fill:#404040;"/>
          </a>
         </g>
        </svg>
</svg>
