<?xml version="1.0" encoding="UTF-8" standalone="no"?>
<!DOCTYPE svg PUBLIC "-//W3C//DTD SVG 1.1//EN"
 "http://www.w3.org/Graphics/SVG/1.1/DTD/svg11.dtd">
<!-- Generated by graphviz version 2.38.0 (20140413.2041)
 -->
<!-- Title: fxVolImpl Pages: 1 -->
<svg width="387pt" height="52pt"
 viewBox="0.00 0.00 387.00 51.50" xmlns="http://www.w3.org/2000/svg" xmlns:xlink="http://www.w3.org/1999/xlink">
<g id="graph0" class="graph" transform="scale(1 1) rotate(0) translate(4 47.5)">
<title>fxVolImpl</title>
<!-- Node1 -->
<g id="node1" class="node"><title>Node1</title>
<g id="a_node1"><a xlink:title=" ">
<polygon fill="#999999" stroke="#666666" points="379,-38 323,-38 323,-19 379,-19 379,-38"/>
<text text-anchor="middle" x="351" y="-26" font-family="Helvetica,sans-Serif" font-size="10.00">fxVolImpl</text>
</a>
</g>
</g>
<!-- Node2 -->
<g id="node2" class="node"><title>Node2</title>
<g id="a_node2"><a xlink:href="classore_1_1data_1_1_market.html#a5b97563fda6d29885fa5b3e8931bc6d4" target="_top" xlink:title=" ">
<polygon fill="white" stroke="#666666" points="183,-38 145,-38 145,-19 183,-19 183,-38"/>
<text text-anchor="middle" x="164" y="-26" font-family="Helvetica,sans-Serif" font-size="10.00">fxVol</text>
</a>
</g>
</g>
<!-- Node1&#45;&gt;Node2 -->
<g id="edge1" class="edge"><title>Node1&#45;&gt;Node2</title>
<path fill="none" stroke="#63b8ff" d="M312.452,-28.5C273.135,-28.5 213.041,-28.5 183.168,-28.5"/>
<polygon fill="#63b8ff" stroke="#63b8ff" points="312.703,-32.0001 322.703,-28.5 312.703,-25.0001 312.703,-32.0001"/>
</g>
<!-- Node4 -->
<g id="node4" class="node"><title>Node4</title>
<g id="a_node4"><a xlink:href="classore_1_1data_1_1_market.html#a5ec8ff5f50241808d97b3a5e92ac988c" target="_top" xlink:title=" ">
<polygon fill="white" stroke="#666666" points="287,-19 219,-19 219,-0 287,-0 287,-19"/>
<text text-anchor="middle" x="253" y="-7" font-family="Helvetica,sans-Serif" font-size="10.00">getVolatility</text>
</a>
</g>
</g>
<!-- Node1&#45;&gt;Node4 -->
<g id="edge3" class="edge"><title>Node1&#45;&gt;Node4</title>
<path fill="none" stroke="#63b8ff" d="M312.75,-21.1276C304.302,-19.4556 295.385,-17.6908 287.122,-16.0553"/>
<polygon fill="#63b8ff" stroke="#63b8ff" points="312.258,-24.598 322.747,-23.1062 313.617,-17.7312 312.258,-24.598"/>
</g>
<!-- Node3 -->
<g id="node3" class="node"><title>Node3</title>
<g id="a_node3"><a xlink:href="classore_1_1data_1_1_market_impl.html#a5216216380b983d0c4f0d0d8bf8f8e95" target="_top" xlink:title=" ">
<polygon fill="white" stroke="#666666" points="109,-43.5 0,-43.5 0,-13.5 109,-13.5 109,-43.5"/>
<text text-anchor="start" x="8" y="-31.5" font-family="Helvetica,sans-Serif" font-size="10.00">ore::data::MarketImpl</text>
<text text-anchor="middle" x="54.5" y="-20.5" font-family="Helvetica,sans-Serif" font-size="10.00">::fxVolImpl</text>
</a>
</g>
</g>
<!-- Node2&#45;&gt;Node3 -->
<g id="edge2" class="edge"><title>Node2&#45;&gt;Node3</title>
<path fill="none" stroke="#63b8ff" d="M134.672,-28.5C126.772,-28.5 117.921,-28.5 109.075,-28.5"/>
<polygon fill="#63b8ff" stroke="#63b8ff" points="134.764,-32.0001 144.764,-28.5 134.764,-25.0001 134.764,-32.0001"/>
</g>
<!-- Node4&#45;&gt;Node2 -->
<g id="edge4" class="edge"><title>Node4&#45;&gt;Node2</title>
<path fill="none" stroke="#63b8ff" d="M208.832,-18.9275C199.742,-20.9126 190.633,-22.902 183.092,-24.5488"/>
<polygon fill="#63b8ff" stroke="#63b8ff" points="209.589,-22.3447 218.612,-16.7916 208.096,-15.5058 209.589,-22.3447"/>
</g>
</g>
</svg>
