<?xml version="1.0" encoding="UTF-8" standalone="no"?>
<!DOCTYPE svg PUBLIC "-//W3C//DTD SVG 1.1//EN"
 "http://www.w3.org/Graphics/SVG/1.1/DTD/svg11.dtd">
<!-- Generated by graphviz version 2.38.0 (20140413.2041)
 -->
<!-- Title: terms Pages: 1 -->
<svg width="204pt" height="86pt"
 viewBox="0.00 0.00 204.00 86.00" xmlns="http://www.w3.org/2000/svg" xmlns:xlink="http://www.w3.org/1999/xlink">
<g id="graph0" class="graph" transform="scale(1 1) rotate(0) translate(4 82)">
<title>terms</title>
<!-- Node1 -->
<g id="node1" class="node"><title>Node1</title>
<g id="a_node1"><a xlink:title=" ">
<polygon fill="#999999" stroke="#666666" points="196,-48.5 155,-48.5 155,-29.5 196,-29.5 196,-48.5"/>
<text text-anchor="middle" x="175.5" y="-36.5" font-family="Helvetica,sans-Serif" font-size="10.00">terms</text>
</a>
</g>
</g>
<!-- Node2 -->
<g id="node2" class="node"><title>Node2</title>
<g id="a_node2"><a xlink:href="classore_1_1data_1_1_c_d_s_vol_curve.html#a916d14abfcfc8d77084cc78867211778" target="_top" xlink:title="Build a volatility curve from a 1&#45;D curve of volatility quotes.">
<polygon fill="white" stroke="#666666" points="119,-78 -7.10543e-015,-78 -7.10543e-015,-48 119,-48 119,-78"/>
<text text-anchor="start" x="8" y="-66" font-family="Helvetica,sans-Serif" font-size="10.00">ore::data::CDSVolCurve</text>
<text text-anchor="middle" x="59.5" y="-55" font-family="Helvetica,sans-Serif" font-size="10.00">::buildVolatility</text>
</a>
</g>
</g>
<!-- Node1&#45;&gt;Node2 -->
<g id="edge1" class="edge"><title>Node1&#45;&gt;Node2</title>
<path fill="none" stroke="#63b8ff" d="M145.01,-45.2085C137.01,-46.8927 128.059,-48.7771 119.056,-50.6724"/>
<polygon fill="#63b8ff" stroke="#63b8ff" points="145.838,-48.6109 154.903,-43.1257 144.396,-41.761 145.838,-48.6109"/>
</g>
<!-- Node3 -->
<g id="node3" class="node"><title>Node3</title>
<g id="a_node3"><a xlink:href="classore_1_1data_1_1_c_d_s_vol_curve.html#abf9063cf911eff4726d27a47f0ed7271" target="_top" xlink:title=" ">
<polygon fill="white" stroke="#666666" points="119,-30 -7.10543e-015,-30 -7.10543e-015,-0 119,-0 119,-30"/>
<text text-anchor="start" x="8" y="-18" font-family="Helvetica,sans-Serif" font-size="10.00">ore::data::CDSVolCurve</text>
<text text-anchor="middle" x="59.5" y="-7" font-family="Helvetica,sans-Serif" font-size="10.00">::buildVolatilityExplicit</text>
</a>
</g>
</g>
<!-- Node1&#45;&gt;Node3 -->
<g id="edge2" class="edge"><title>Node1&#45;&gt;Node3</title>
<path fill="none" stroke="#63b8ff" d="M145.01,-32.7915C137.01,-31.1073 128.059,-29.2229 119.056,-27.3276"/>
<polygon fill="#63b8ff" stroke="#63b8ff" points="144.396,-36.239 154.903,-34.8743 145.838,-29.3891 144.396,-36.239"/>
</g>
</g>
</svg>
