<?xml version="1.0" encoding="UTF-8" standalone="no"?>
<!DOCTYPE svg PUBLIC "-//W3C//DTD SVG 1.1//EN"
 "http://www.w3.org/Graphics/SVG/1.1/DTD/svg11.dtd">
<!-- Generated by graphviz version 2.38.0 (20140413.2041)
 -->
<!-- Title: fromXML Pages: 1 -->
<!--zoomable 709 -->
<svg id="main" version="1.1" xmlns="http://www.w3.org/2000/svg" xmlns:xlink="http://www.w3.org/1999/xlink" xml:space="preserve" onload="init(evt)">
<style type="text/css"><![CDATA[
.edge:hover path { stroke: red; }
.edge:hover polygon { stroke: red; fill: red; }
]]></style>
<script type="text/javascript"><![CDATA[
var edges = document.getElementsByTagName('g');
if (edges && edges.length) {
  for (var i=0;i<edges.length;i++) {
    if (edges[i].id.substr(0,4)=='edge') {
      edges[i].setAttribute('class','edge');
    }
  }
}
]]></script>
        <defs>
                <circle id="rim" cx="0" cy="0" r="7"/>
                <circle id="rim2" cx="0" cy="0" r="3.5"/>
                <g id="zoomPlus">
                        <use xlink:href="#rim" fill="#404040">
                                <set attributeName="fill" to="#808080" begin="zoomplus.mouseover" end="zoomplus.mouseout"/>
                        </use>
                        <path d="M-4,0h8M0,-4v8" fill="none" stroke="white" stroke-width="1.5" pointer-events="none"/>
                </g>
                <g id="zoomMin">
                        <use xlink:href="#rim" fill="#404040">
                                <set attributeName="fill" to="#808080" begin="zoomminus.mouseover" end="zoomminus.mouseout"/>
                        </use>
                        <path d="M-4,0h8" fill="none" stroke="white" stroke-width="1.5" pointer-events="none"/>
                </g>
                <g id="dirArrow">
                        <path fill="none" stroke="white" stroke-width="1.5" d="M0,-3.0v7 M-2.5,-0.5L0,-3.0L2.5,-0.5"/>
                </g>
               <g id="resetDef">
                       <use xlink:href="#rim2" fill="#404040">
                               <set attributeName="fill" to="#808080" begin="reset.mouseover" end="reset.mouseout"/>
                       </use>
               </g>
        </defs>

<script type="text/javascript">
var viewWidth = 739;
var viewHeight = 709;
var sectionId = 'dynsection-3';
</script>
<script xlink:href="svgpan.js"/>
<svg id="graph" class="graph">
<g id="viewport">
<title>fromXML</title>
<!-- Node1 -->
<g id="node1" class="node"><title>Node1</title>
<g id="a_node1"><a xlink:title=" ">
<polygon fill="#999999" stroke="#666666" points="54,-238.5 0,-238.5 0,-219.5 54,-219.5 54,-238.5"/>
<text text-anchor="middle" x="27" y="-226.5" font-family="Helvetica,sans-Serif" font-size="10.00">fromXML</text>
</a>
</g>
</g>
<!-- Node2 -->
<g id="node2" class="node"><title>Node2</title>
<g id="a_node2"><a xlink:href="classore_1_1data_1_1_envelope.html#a7741ae0fc924943de5bfe02928262eb7" target="_top" xlink:title=" ">
<polygon fill="white" stroke="#666666" points="213,-338 113,-338 113,-308 213,-308 213,-338"/>
<text text-anchor="start" x="121" y="-326" font-family="Helvetica,sans-Serif" font-size="10.00">ore::data::Envelope</text>
<text text-anchor="middle" x="163" y="-315" font-family="Helvetica,sans-Serif" font-size="10.00">::fromXML</text>
</a>
</g>
</g>
<!-- Node1&#45;&gt;Node2 -->
<g id="edge1" class="edge"><title>Node1&#45;&gt;Node2</title>
<path fill="none" stroke="#63b8ff" d="M38.5282,-238.787C50.5189,-249.702 70.9253,-267.583 90,-281 100.928,-288.686 113.337,-296.291 124.739,-302.873"/>
<polygon fill="#63b8ff" stroke="#63b8ff" points="123.195,-306.021 133.619,-307.915 126.651,-299.934 123.195,-306.021"/>
</g>
<!-- Node5 -->
<g id="node5" class="node"><title>Node5</title>
<g id="a_node5"><a xlink:href="classore_1_1data_1_1_x_m_l_utils.html#a5a1307174ddefdb3aad6e3bd8cc63b27" target="_top" xlink:title=" ">
<polygon fill="white" stroke="#666666" points="577,-473 478,-473 478,-443 577,-443 577,-473"/>
<text text-anchor="start" x="486" y="-461" font-family="Helvetica,sans-Serif" font-size="10.00">ore::data::XMLUtils</text>
<text text-anchor="middle" x="527.5" y="-450" font-family="Helvetica,sans-Serif" font-size="10.00">::getChildValue</text>
</a>
</g>
</g>
<!-- Node1&#45;&gt;Node5 -->
<g id="edge27" class="edge"><title>Node1&#45;&gt;Node5</title>
<path fill="none" stroke="#63b8ff" d="M31.3972,-238.743C39.1964,-260.121 60.0451,-312.021 90,-347 155.509,-423.496 176.372,-450.405 272,-482 338.112,-503.843 418.777,-489.899 471.326,-475.829"/>
<polygon fill="#63b8ff" stroke="#63b8ff" points="472.421,-479.157 481.124,-473.116 470.553,-472.411 472.421,-479.157"/>
</g>
<!-- Node7 -->
<g id="node7" class="node"><title>Node7</title>
<g id="a_node7"><a xlink:href="classore_1_1data_1_1_x_m_l_utils.html#a5f2b91a4af900e85c356cfe807e64501" target="_top" xlink:title=" ">
<polygon fill="white" stroke="#666666" points="397,-205 298,-205 298,-175 397,-175 397,-205"/>
<text text-anchor="start" x="306" y="-193" font-family="Helvetica,sans-Serif" font-size="10.00">ore::data::XMLUtils</text>
<text text-anchor="middle" x="347.5" y="-182" font-family="Helvetica,sans-Serif" font-size="10.00">::getChildNode</text>
</a>
</g>
</g>
<!-- Node1&#45;&gt;Node7 -->
<g id="edge25" class="edge"><title>Node1&#45;&gt;Node7</title>
<path fill="none" stroke="#63b8ff" d="M54.1876,-237.232C94.5228,-248.5 173.709,-264.969 236,-243 255.376,-236.167 253.919,-223.758 272,-214 277.133,-211.23 282.639,-208.714 288.248,-206.445"/>
<polygon fill="#63b8ff" stroke="#63b8ff" points="289.622,-209.668 297.739,-202.858 287.147,-203.12 289.622,-209.668"/>
</g>
<!-- Node8 -->
<g id="node8" class="node"><title>Node8</title>
<g id="a_node8"><a xlink:href="classore_1_1data_1_1_x_m_l_utils.html#a42678b2a0d7c4052dc19123914359ec1" target="_top" xlink:title="Returns all the children with a given name.">
<polygon fill="white" stroke="#666666" points="397,-157 298,-157 298,-127 397,-127 397,-157"/>
<text text-anchor="start" x="306" y="-145" font-family="Helvetica,sans-Serif" font-size="10.00">ore::data::XMLUtils</text>
<text text-anchor="middle" x="347.5" y="-134" font-family="Helvetica,sans-Serif" font-size="10.00">::getChildrenNodes</text>
</a>
</g>
</g>
<!-- Node1&#45;&gt;Node8 -->
<g id="edge26" class="edge"><title>Node1&#45;&gt;Node8</title>
<path fill="none" stroke="#63b8ff" d="M54.12,-232.761C95.3985,-237.415 177.07,-241.288 236,-210 258.317,-198.152 251.123,-180.233 272,-166 276.963,-162.617 282.433,-159.686 288.088,-157.153"/>
<polygon fill="#63b8ff" stroke="#63b8ff" points="289.763,-160.25 297.72,-153.255 287.138,-153.762 289.763,-160.25"/>
</g>
<!-- Node13 -->
<g id="node13" class="node"><title>Node13</title>
<g id="a_node13"><a xlink:href="classore_1_1data_1_1_reference_datum.html#a7741ae0fc924943de5bfe02928262eb7" target="_top" xlink:title=" ">
<polygon fill="white" stroke="#666666" points="229.5,-602 96.5,-602 96.5,-572 229.5,-572 229.5,-602"/>
<text text-anchor="start" x="104.5" y="-590" font-family="Helvetica,sans-Serif" font-size="10.00">ore::data::ReferenceDatum</text>
<text text-anchor="middle" x="163" y="-579" font-family="Helvetica,sans-Serif" font-size="10.00">::fromXML</text>
</a>
</g>
</g>
<!-- Node1&#45;&gt;Node13 -->
<g id="edge14" class="edge"><title>Node1&#45;&gt;Node13</title>
<path fill="none" stroke="#63b8ff" d="M28.1575,-238.555C29.1556,-276.185 36.468,-416.88 90,-515 100.644,-534.509 118.198,-552.221 133.308,-565.196"/>
<polygon fill="#63b8ff" stroke="#63b8ff" points="131.459,-568.21 141.391,-571.898 135.927,-562.821 131.459,-568.21"/>
</g>
<!-- Node14 -->
<g id="node14" class="node"><title>Node14</title>
<g id="a_node14"><a xlink:href="classore_1_1data_1_1_x_m_l_utils.html#a2d656de3f92d61e867ec7a3c88ad4015" target="_top" xlink:title=" ">
<polygon fill="white" stroke="#666666" points="397,-701 298,-701 298,-671 397,-671 397,-701"/>
<text text-anchor="start" x="306" y="-689" font-family="Helvetica,sans-Serif" font-size="10.00">ore::data::XMLUtils</text>
<text text-anchor="middle" x="347.5" y="-678" font-family="Helvetica,sans-Serif" font-size="10.00">::getAttribute</text>
</a>
</g>
</g>
<!-- Node1&#45;&gt;Node14 -->
<g id="edge24" class="edge"><title>Node1&#45;&gt;Node14</title>
<path fill="none" stroke="#63b8ff" d="M28.2146,-238.575C29.6035,-292.031 38.954,-553.222 90,-611 139.554,-667.089 228.505,-682.271 287.526,-685.828"/>
<polygon fill="#63b8ff" stroke="#63b8ff" points="287.654,-689.339 297.818,-686.35 288.008,-682.348 287.654,-689.339"/>
</g>
<!-- Node18 -->
<g id="node18" class="node"><title>Node18</title>
<g id="a_node18"><a xlink:href="classore_1_1data_1_1_envelope.html#aafb451cb81a0dcb4dcb72ec546365a43" target="_top" xlink:title=" ">
<polygon fill="white" stroke="#666666" points="215,-201 111,-201 111,-171 215,-171 215,-201"/>
<text text-anchor="start" x="119" y="-189" font-family="Helvetica,sans-Serif" font-size="10.00">ore::data::Envelope</text>
<text text-anchor="middle" x="163" y="-178" font-family="Helvetica,sans-Serif" font-size="10.00">::fullAdditionalFields</text>
</a>
</g>
</g>
<!-- Node1&#45;&gt;Node18 -->
<g id="edge23" class="edge"><title>Node1&#45;&gt;Node18</title>
<path fill="none" stroke="#63b8ff" d="M54.1547,-220.607C68.7426,-215.926 87.5081,-209.904 105.284,-204.2"/>
<polygon fill="#63b8ff" stroke="#63b8ff" points="106.573,-207.462 115.025,-201.074 104.434,-200.797 106.573,-207.462"/>
</g>
<!-- Node19 -->
<g id="node19" class="node"><title>Node19</title>
<g id="a_node19"><a xlink:href="classore_1_1data_1_1_reference_datum.html#a2afbfe390842c04d4a063889cee1b543" target="_top" xlink:title=" ">
<polygon fill="white" stroke="#666666" points="236,-152.5 90,-152.5 90,-133.5 236,-133.5 236,-152.5"/>
<text text-anchor="middle" x="163" y="-140.5" font-family="Helvetica,sans-Serif" font-size="10.00">ore::data::ReferenceDatum::id</text>
</a>
</g>
</g>
<!-- Node1&#45;&gt;Node19 -->
<g id="edge28" class="edge"><title>Node1&#45;&gt;Node19</title>
<path fill="none" stroke="#63b8ff" d="M34.3492,-219.166C44.3699,-204.453 65.2765,-176.856 90,-162 93.6153,-159.828 97.4784,-157.9 101.468,-156.191"/>
<polygon fill="#63b8ff" stroke="#63b8ff" points="102.845,-159.412 110.947,-152.585 100.356,-152.869 102.845,-159.412"/>
</g>
<!-- Node20 -->
<g id="node20" class="node"><title>Node20</title>
<g id="a_node20"><a xlink:href="classore_1_1data_1_1_j_s_o_n_message.html#a5e21eca2668ed948bdc409b19a78e5bb" target="_top" xlink:title="generate Boost log record to pass to corresponding sinks">
<polygon fill="white" stroke="#666666" points="235.5,-115.5 90.5,-115.5 90.5,-96.5 235.5,-96.5 235.5,-115.5"/>
<text text-anchor="middle" x="163" y="-103.5" font-family="Helvetica,sans-Serif" font-size="10.00">ore::data::JSONMessage::log</text>
</a>
</g>
</g>
<!-- Node1&#45;&gt;Node20 -->
<g id="edge29" class="edge"><title>Node1&#45;&gt;Node20</title>
<path fill="none" stroke="#63b8ff" d="M30.8312,-219.449C37.5016,-198.669 56.2393,-149.199 90,-124 91.8457,-122.622 93.7847,-121.349 95.7949,-120.173"/>
<polygon fill="#63b8ff" stroke="#63b8ff" points="97.5923,-123.189 104.997,-115.611 94.4829,-116.917 97.5923,-123.189"/>
</g>
<!-- Node23 -->
<g id="node23" class="node"><title>Node23</title>
<g id="a_node23"><a xlink:href="classore_1_1data_1_1_envelope.html#a86e3b6aa118dbf1805868f799a4f4a33" target="_top" xlink:title=" ">
<polygon fill="white" stroke="#666666" points="213,-78 113,-78 113,-48 213,-48 213,-78"/>
<text text-anchor="start" x="121" y="-66" font-family="Helvetica,sans-Serif" font-size="10.00">ore::data::Envelope</text>
<text text-anchor="middle" x="163" y="-55" font-family="Helvetica,sans-Serif" font-size="10.00">::setAdditionalField</text>
</a>
</g>
</g>
<!-- Node1&#45;&gt;Node23 -->
<g id="edge32" class="edge"><title>Node1&#45;&gt;Node23</title>
<path fill="none" stroke="#63b8ff" d="M29.4902,-219.144C33.875,-193.551 49.0946,-124.383 90,-87 94.0729,-83.2778 98.7398,-80.1312 103.697,-77.4714"/>
<polygon fill="#63b8ff" stroke="#63b8ff" points="105.288,-80.5914 112.87,-73.1905 102.328,-74.2483 105.288,-80.5914"/>
</g>
<!-- Node24 -->
<g id="node24" class="node"><title>Node24</title>
<g id="a_node24"><a xlink:href="classore_1_1data_1_1_reference_datum.html#a4acb75b8abcd83a41915c116edbd003c" target="_top" xlink:title="getters">
<polygon fill="white" stroke="#666666" points="229.5,-30 96.5,-30 96.5,-0 229.5,-0 229.5,-30"/>
<text text-anchor="start" x="104.5" y="-18" font-family="Helvetica,sans-Serif" font-size="10.00">ore::data::ReferenceDatum</text>
<text text-anchor="middle" x="163" y="-7" font-family="Helvetica,sans-Serif" font-size="10.00">::type</text>
</a>
</g>
</g>
<!-- Node1&#45;&gt;Node24 -->
<g id="edge33" class="edge"><title>Node1&#45;&gt;Node24</title>
<path fill="none" stroke="#63b8ff" d="M28.2508,-219.156C29.5785,-188.144 37.9058,-91.4249 90,-39 91.0739,-37.9193 92.1976,-36.8873 93.3645,-35.9018"/>
<polygon fill="#63b8ff" stroke="#63b8ff" points="95.4876,-38.687 101.622,-30.0486 91.4394,-32.9762 95.4876,-38.687"/>
</g>
<!-- Node3 -->
<g id="node3" class="node"><title>Node3</title>
<g id="a_node3"><a xlink:href="classore_1_1data_1_1_x_m_l_utils.html#a37c092916f4bdf10d4fbf6bb9e474db7" target="_top" xlink:title=" ">
<polygon fill="white" stroke="#666666" points="397,-559 298,-559 298,-529 397,-529 397,-559"/>
<text text-anchor="start" x="306" y="-547" font-family="Helvetica,sans-Serif" font-size="10.00">ore::data::XMLUtils</text>
<text text-anchor="middle" x="347.5" y="-536" font-family="Helvetica,sans-Serif" font-size="10.00">::checkNode</text>
</a>
</g>
</g>
<!-- Node2&#45;&gt;Node3 -->
<g id="edge2" class="edge"><title>Node2&#45;&gt;Node3</title>
<path fill="none" stroke="#63b8ff" d="M172.282,-338.023C188.911,-367.463 228.507,-434.049 272,-482 285.514,-496.899 302.651,-511.402 317.082,-522.631"/>
<polygon fill="#63b8ff" stroke="#63b8ff" points="315.145,-525.556 325.217,-528.842 319.393,-519.992 315.145,-525.556"/>
</g>
<!-- Node4 -->
<g id="node4" class="node"><title>Node4</title>
<g id="a_node4"><a xlink:href="classore_1_1data_1_1_netting_set_details.html#a7741ae0fc924943de5bfe02928262eb7" target="_top" xlink:title=" ">
<polygon fill="white" stroke="#666666" points="416,-473 279,-473 279,-443 416,-443 416,-473"/>
<text text-anchor="start" x="287" y="-461" font-family="Helvetica,sans-Serif" font-size="10.00">ore::data::NettingSetDetails</text>
<text text-anchor="middle" x="347.5" y="-450" font-family="Helvetica,sans-Serif" font-size="10.00">::fromXML</text>
</a>
</g>
</g>
<!-- Node2&#45;&gt;Node4 -->
<g id="edge3" class="edge"><title>Node2&#45;&gt;Node4</title>
<path fill="none" stroke="#63b8ff" d="M174.848,-338.212C192.561,-361.984 229.963,-407.915 272,-434 274.629,-435.631 277.379,-437.162 280.208,-438.597"/>
<polygon fill="#63b8ff" stroke="#63b8ff" points="278.916,-441.855 289.462,-442.863 281.846,-435.498 278.916,-441.855"/>
</g>
<!-- Node2&#45;&gt;Node5 -->
<g id="edge8" class="edge"><title>Node2&#45;&gt;Node5</title>
<path fill="none" stroke="#63b8ff" d="M213.193,-332.712C277.375,-345.77 385.869,-369.276 423,-386 451.814,-398.979 481.047,-420.218 501.061,-436.273"/>
<polygon fill="#63b8ff" stroke="#63b8ff" points="499.088,-439.181 509.047,-442.797 503.517,-433.76 499.088,-439.181"/>
</g>
<!-- Node6 -->
<g id="node6" class="node"><title>Node6</title>
<g id="a_node6"><a xlink:href="classore_1_1data_1_1_x_m_l_utils.html#a6704501b110fa9d056096df3e05f0df2" target="_top" xlink:title="Get a node&#39;s value.">
<polygon fill="white" stroke="#666666" points="731,-408 632,-408 632,-378 731,-378 731,-408"/>
<text text-anchor="start" x="640" y="-396" font-family="Helvetica,sans-Serif" font-size="10.00">ore::data::XMLUtils</text>
<text text-anchor="middle" x="681.5" y="-385" font-family="Helvetica,sans-Serif" font-size="10.00">::getNodeValue</text>
</a>
</g>
</g>
<!-- Node2&#45;&gt;Node6 -->
<g id="edge11" class="edge"><title>Node2&#45;&gt;Node6</title>
<path fill="none" stroke="#63b8ff" d="M213.348,-325.124C265.592,-327.767 350.375,-333.178 423,-343 491.751,-352.298 569.866,-368.237 621.852,-379.619"/>
<polygon fill="#63b8ff" stroke="#63b8ff" points="621.371,-383.097 631.89,-381.832 622.878,-376.261 621.371,-383.097"/>
</g>
<!-- Node2&#45;&gt;Node7 -->
<g id="edge6" class="edge"><title>Node2&#45;&gt;Node7</title>
<path fill="none" stroke="#63b8ff" d="M198.582,-307.81C211.436,-300.961 225.445,-291.931 236,-281 259.481,-256.682 246.03,-235.64 272,-214 276.864,-209.947 282.426,-206.574 288.269,-203.768"/>
<polygon fill="#63b8ff" stroke="#63b8ff" points="289.78,-206.93 297.625,-199.81 287.052,-200.483 289.78,-206.93"/>
</g>
<!-- Node2&#45;&gt;Node8 -->
<g id="edge7" class="edge"><title>Node2&#45;&gt;Node8</title>
<path fill="none" stroke="#63b8ff" d="M180.111,-307.915C195.791,-292.63 219.592,-267.768 236,-243 256.863,-211.506 243.662,-190.983 272,-166 276.816,-161.754 282.393,-158.258 288.284,-155.379"/>
<polygon fill="#63b8ff" stroke="#63b8ff" points="289.914,-158.489 297.738,-151.345 287.167,-152.051 289.914,-158.489"/>
</g>
<!-- Node9 -->
<g id="node9" class="node"><title>Node9</title>
<g id="a_node9"><a xlink:href="classore_1_1data_1_1_x_m_l_utils.html#a7fedec5ac495a3e67a9abd7e4aae74aa" target="_top" xlink:title="Get a node&#39;s next sibling node.">
<polygon fill="white" stroke="#666666" points="397,-253 298,-253 298,-223 397,-223 397,-253"/>
<text text-anchor="start" x="306" y="-241" font-family="Helvetica,sans-Serif" font-size="10.00">ore::data::XMLUtils</text>
<text text-anchor="middle" x="347.5" y="-230" font-family="Helvetica,sans-Serif" font-size="10.00">::getNextSibling</text>
</a>
</g>
</g>
<!-- Node2&#45;&gt;Node9 -->
<g id="edge9" class="edge"><title>Node2&#45;&gt;Node9</title>
<path fill="none" stroke="#63b8ff" d="M190.055,-307.918C219.269,-291.066 263.666,-265.651 272,-262 277.263,-259.695 282.819,-257.496 288.429,-255.432"/>
<polygon fill="#63b8ff" stroke="#63b8ff" points="289.617,-258.724 297.877,-252.09 287.283,-252.125 289.617,-258.724"/>
</g>
<!-- Node10 -->
<g id="node10" class="node"><title>Node10</title>
<g id="a_node10"><a xlink:href="classore_1_1data_1_1_x_m_l_utils.html#a4e041c36cab0a16681fb41dfbd991882" target="_top" xlink:title="Get and set a node&#39;s name.">
<polygon fill="white" stroke="#666666" points="397,-425 298,-425 298,-395 397,-395 397,-425"/>
<text text-anchor="start" x="306" y="-413" font-family="Helvetica,sans-Serif" font-size="10.00">ore::data::XMLUtils</text>
<text text-anchor="middle" x="347.5" y="-402" font-family="Helvetica,sans-Serif" font-size="10.00">::getNodeName</text>
</a>
</g>
</g>
<!-- Node2&#45;&gt;Node10 -->
<g id="edge10" class="edge"><title>Node2&#45;&gt;Node10</title>
<path fill="none" stroke="#63b8ff" d="M190.174,-338.216C211.768,-350.487 243.396,-367.811 272,-381 279.61,-384.509 287.774,-387.975 295.808,-391.225"/>
<polygon fill="#63b8ff" stroke="#63b8ff" points="294.552,-394.492 305.138,-394.929 297.135,-387.986 294.552,-394.492"/>
</g>
<!-- Node11 -->
<g id="node11" class="node"><title>Node11</title>
<g id="a_node11"><a xlink:href="classore_1_1data_1_1_envelope.html#a9bf8e40febad0782c5855488041ecfd7" target="_top" xlink:title=" ">
<polygon fill="white" stroke="#666666" points="397.5,-301 297.5,-301 297.5,-271 397.5,-271 397.5,-301"/>
<text text-anchor="start" x="305.5" y="-289" font-family="Helvetica,sans-Serif" font-size="10.00">ore::data::Envelope</text>
<text text-anchor="middle" x="347.5" y="-278" font-family="Helvetica,sans-Serif" font-size="10.00">::nettingSetId</text>
</a>
</g>
</g>
<!-- Node2&#45;&gt;Node11 -->
<g id="edge12" class="edge"><title>Node2&#45;&gt;Node11</title>
<path fill="none" stroke="#63b8ff" d="M213.387,-312.987C236.202,-308.362 263.474,-302.833 287.376,-297.987"/>
<polygon fill="#63b8ff" stroke="#63b8ff" points="288.285,-301.374 297.39,-295.957 286.894,-294.513 288.285,-301.374"/>
</g>
<!-- Node4&#45;&gt;Node5 -->
<g id="edge4" class="edge"><title>Node4&#45;&gt;Node5</title>
<path fill="none" stroke="#63b8ff" d="M416.048,-458C433.07,-458 451.205,-458 467.756,-458"/>
<polygon fill="#63b8ff" stroke="#63b8ff" points="467.833,-461.5 477.833,-458 467.833,-454.5 467.833,-461.5"/>
</g>
<!-- Node5&#45;&gt;Node6 -->
<g id="edge5" class="edge"><title>Node5&#45;&gt;Node6</title>
<path fill="none" stroke="#63b8ff" d="M563.754,-442.924C585.259,-433.728 612.944,-421.889 635.957,-412.048"/>
<polygon fill="#63b8ff" stroke="#63b8ff" points="637.356,-415.256 645.174,-408.106 634.604,-408.82 637.356,-415.256"/>
</g>
<!-- Node12 -->
<g id="node12" class="node"><title>Node12</title>
<g id="a_node12"><a xlink:href="classore_1_1data_1_1_netting_set_details.html#a9bf8e40febad0782c5855488041ecfd7" target="_top" xlink:title=" ">
<polygon fill="white" stroke="#666666" points="596,-301 459,-301 459,-271 596,-271 596,-301"/>
<text text-anchor="start" x="467" y="-289" font-family="Helvetica,sans-Serif" font-size="10.00">ore::data::NettingSetDetails</text>
<text text-anchor="middle" x="527.5" y="-278" font-family="Helvetica,sans-Serif" font-size="10.00">::nettingSetId</text>
</a>
</g>
</g>
<!-- Node11&#45;&gt;Node12 -->
<g id="edge13" class="edge"><title>Node11&#45;&gt;Node12</title>
<path fill="none" stroke="#63b8ff" d="M397.61,-286C413.438,-286 431.389,-286 448.758,-286"/>
<polygon fill="#63b8ff" stroke="#63b8ff" points="448.897,-289.5 458.896,-286 448.896,-282.5 448.897,-289.5"/>
</g>
<!-- Node13&#45;&gt;Node3 -->
<g id="edge15" class="edge"><title>Node13&#45;&gt;Node3</title>
<path fill="none" stroke="#63b8ff" d="M227.83,-571.961C247.437,-567.341 268.905,-562.283 288.128,-557.754"/>
<polygon fill="#63b8ff" stroke="#63b8ff" points="289.022,-561.139 297.953,-555.439 287.417,-554.325 289.022,-561.139"/>
</g>
<!-- Node13&#45;&gt;Node5 -->
<g id="edge17" class="edge"><title>Node13&#45;&gt;Node5</title>
<path fill="none" stroke="#63b8ff" d="M229.584,-594.921C284.04,-598.597 362.147,-596.986 423,-568 462.6,-549.137 494.64,-507.959 512.091,-481.682"/>
<polygon fill="#63b8ff" stroke="#63b8ff" points="515.167,-483.371 517.644,-473.07 509.284,-479.578 515.167,-483.371"/>
</g>
<!-- Node13&#45;&gt;Node14 -->
<g id="edge16" class="edge"><title>Node13&#45;&gt;Node14</title>
<path fill="none" stroke="#63b8ff" d="M182.065,-602.062C202.706,-618.652 238.034,-645.2 272,-662 277.228,-664.586 282.797,-666.979 288.446,-669.172"/>
<polygon fill="#63b8ff" stroke="#63b8ff" points="287.389,-672.512 297.982,-672.671 289.8,-665.94 287.389,-672.512"/>
</g>
<!-- Node15 -->
<g id="node15" class="node"><title>Node15</title>
<g id="a_node15"><a xlink:href="group__utilities.html#ga59b5fdda574d90facae95dec2d13040d" target="_top" xlink:title="Convert std::string to QuantLib::Date.">
<polygon fill="white" stroke="#666666" points="400,-634.5 295,-634.5 295,-615.5 400,-615.5 400,-634.5"/>
<text text-anchor="middle" x="347.5" y="-622.5" font-family="Helvetica,sans-Serif" font-size="10.00">ore::data::parseDate</text>
</a>
</g>
</g>
<!-- Node13&#45;&gt;Node15 -->
<g id="edge18" class="edge"><title>Node13&#45;&gt;Node15</title>
<path fill="none" stroke="#63b8ff" d="M229.629,-600.665C249.731,-604.851 271.638,-609.412 290.995,-613.443"/>
<polygon fill="#63b8ff" stroke="#63b8ff" points="290.359,-616.885 300.863,-615.497 291.786,-610.032 290.359,-616.885"/>
</g>
<!-- Node15&#45;&gt;Node15 -->
<g id="edge19" class="edge"><title>Node15&#45;&gt;Node15</title>
<path fill="none" stroke="#63b8ff" d="M319.757,-634.583C306.26,-643.234 315.508,-652.5 347.5,-652.5 368.995,-652.5 380.222,-648.317 381.183,-642.948"/>
<polygon fill="#63b8ff" stroke="#63b8ff" points="383.886,-640.71 375.243,-634.583 378.179,-644.763 383.886,-640.71"/>
</g>
<!-- Node16 -->
<g id="node16" class="node"><title>Node16</title>
<g id="a_node16"><a xlink:href="group__utilities.html#gaecd67eda4fb5f4859bb8f6d383547721" target="_top" xlink:title="Convert text to QuantLib::Integer.">
<polygon fill="white" stroke="#666666" points="584.5,-606.5 470.5,-606.5 470.5,-587.5 584.5,-587.5 584.5,-606.5"/>
<text text-anchor="middle" x="527.5" y="-594.5" font-family="Helvetica,sans-Serif" font-size="10.00">ore::data::parseInteger</text>
</a>
</g>
</g>
<!-- Node15&#45;&gt;Node16 -->
<g id="edge20" class="edge"><title>Node15&#45;&gt;Node16</title>
<path fill="none" stroke="#63b8ff" d="M400.463,-616.826C419.249,-613.871 440.715,-610.494 460.542,-607.375"/>
<polygon fill="#63b8ff" stroke="#63b8ff" points="461.095,-610.832 470.43,-605.82 460.007,-603.917 461.095,-610.832"/>
</g>
<!-- Node17 -->
<g id="node17" class="node"><title>Node17</title>
<g id="a_node17"><a xlink:href="namespaceore_1_1data.html#a777e216dee6069b548bb87da7152699e" target="_top" xlink:title=" ">
<polygon fill="white" stroke="#666666" points="567,-661.5 488,-661.5 488,-642.5 567,-642.5 567,-661.5"/>
<text text-anchor="middle" x="527.5" y="-649.5" font-family="Helvetica,sans-Serif" font-size="10.00">ore::data::size</text>
</a>
</g>
</g>
<!-- Node15&#45;&gt;Node17 -->
<g id="edge22" class="edge"><title>Node15&#45;&gt;Node17</title>
<path fill="none" stroke="#63b8ff" d="M400.463,-632.882C424.886,-636.587 453.837,-640.978 477.829,-644.617"/>
<polygon fill="#63b8ff" stroke="#63b8ff" points="477.369,-648.087 487.781,-646.127 478.419,-641.167 477.369,-648.087"/>
</g>
<!-- Node16&#45;&gt;Node16 -->
<g id="edge21" class="edge"><title>Node16&#45;&gt;Node16</title>
<path fill="none" stroke="#63b8ff" d="M503.764,-606.583C492.217,-615.234 500.129,-624.5 527.5,-624.5 545.462,-624.5 555.044,-620.509 556.246,-615.321"/>
<polygon fill="#63b8ff" stroke="#63b8ff" points="559.246,-613.517 551.236,-606.583 553.174,-616.999 559.246,-613.517"/>
</g>
<!-- Node21 -->
<g id="node21" class="node"><title>Node21</title>
<g id="a_node21"><a xlink:href="classore_1_1data_1_1_j_s_o_n_message.html#a6a9077605df871e6e961dd0099645b35" target="_top" xlink:title="generate Boost log record &#45; this method is called by log()">
<polygon fill="white" stroke="#666666" points="410.5,-71 284.5,-71 284.5,-41 410.5,-41 410.5,-71"/>
<text text-anchor="start" x="292.5" y="-59" font-family="Helvetica,sans-Serif" font-size="10.00">ore::data::JSONMessage</text>
<text text-anchor="middle" x="347.5" y="-48" font-family="Helvetica,sans-Serif" font-size="10.00">::emitLog</text>
</a>
</g>
</g>
<!-- Node20&#45;&gt;Node21 -->
<g id="edge30" class="edge"><title>Node20&#45;&gt;Node21</title>
<path fill="none" stroke="#63b8ff" d="M200.658,-96.4439C211.997,-93.4562 224.524,-90.1238 236,-87 251.376,-82.8146 267.931,-78.2185 283.426,-73.877"/>
<polygon fill="#63b8ff" stroke="#63b8ff" points="284.751,-77.1404 293.433,-71.0676 282.859,-70.401 284.751,-77.1404"/>
</g>
<!-- Node22 -->
<g id="node22" class="node"><title>Node22</title>
<g id="a_node22"><a xlink:href="classore_1_1data_1_1_j_s_o_n_message.html#a39f83a0ab38c425a8844c8892b93d69e" target="_top" xlink:title="return a std::string for the log file">
<polygon fill="white" stroke="#666666" points="423,-108.5 272,-108.5 272,-89.5 423,-89.5 423,-108.5"/>
<text text-anchor="middle" x="347.5" y="-96.5" font-family="Helvetica,sans-Serif" font-size="10.00">ore::data::JSONMessage::msg</text>
</a>
</g>
</g>
<!-- Node20&#45;&gt;Node22 -->
<g id="edge31" class="edge"><title>Node20&#45;&gt;Node22</title>
<path fill="none" stroke="#63b8ff" d="M235.605,-103.254C244.146,-102.926 252.928,-102.589 261.633,-102.255"/>
<polygon fill="#63b8ff" stroke="#63b8ff" points="261.938,-105.746 271.796,-101.865 261.669,-98.7513 261.938,-105.746"/>
</g>
</g>
</svg>
        <g id="navigator" transform="translate(0 0)" fill="#404254">
                <rect fill="#f2f5e9" fill-opacity="0.5" stroke="#606060" stroke-width=".5" x="0" y="0" width="60" height="60"/>
                <use id="zoomplus" xlink:href="#zoomPlus" x="17" y="9" onmousedown="handleZoom(evt,'in')"/>
                <use id="zoomminus" xlink:href="#zoomMin" x="42" y="9" onmousedown="handleZoom(evt,'out')"/>
                <use id="reset" xlink:href="#resetDef" x="30" y="36" onmousedown="handleReset()"/>
                <g id="arrowUp" xlink:href="#dirArrow" transform="translate(30 24)" onmousedown="handlePan(0,-1)">
                  <use xlink:href="#rim" fill="#404040">
                        <set attributeName="fill" to="#808080" begin="arrowUp.mouseover" end="arrowUp.mouseout"/>
                  </use>
                  <path fill="none" stroke="white" stroke-width="1.5" d="M0,-3.0v7 M-2.5,-0.5L0,-3.0L2.5,-0.5"/>
                </g>
                <g id="arrowRight" xlink:href="#dirArrow" transform="rotate(90) translate(36 -43)" onmousedown="handlePan(1,0)">
                  <use xlink:href="#rim" fill="#404040">
                        <set attributeName="fill" to="#808080" begin="arrowRight.mouseover" end="arrowRight.mouseout"/>
                  </use>
                  <path fill="none" stroke="white" stroke-width="1.5" d="M0,-3.0v7 M-2.5,-0.5L0,-3.0L2.5,-0.5"/>
                </g>
                <g id="arrowDown" xlink:href="#dirArrow" transform="rotate(180) translate(-30 -48)" onmousedown="handlePan(0,1)">
                  <use xlink:href="#rim" fill="#404040">
                        <set attributeName="fill" to="#808080" begin="arrowDown.mouseover" end="arrowDown.mouseout"/>
                  </use>
                  <path fill="none" stroke="white" stroke-width="1.5" d="M0,-3.0v7 M-2.5,-0.5L0,-3.0L2.5,-0.5"/>
                </g>
                <g id="arrowLeft" xlink:href="#dirArrow" transform="rotate(270) translate(-36 17)" onmousedown="handlePan(-1,0)">
                  <use xlink:href="#rim" fill="#404040">
                        <set attributeName="fill" to="#808080" begin="arrowLeft.mouseover" end="arrowLeft.mouseout"/>
                  </use>
                  <path fill="none" stroke="white" stroke-width="1.5" d="M0,-3.0v7 M-2.5,-0.5L0,-3.0L2.5,-0.5"/>
                </g>
        </g>
        <svg viewBox="0 0 15 15" width="100%" height="30px" preserveAspectRatio="xMaxYMin meet">
         <g id="arrow_out" transform="scale(0.3 0.3)">
          <a xlink:href="classore_1_1data_1_1_portfolio_basket_reference_datum_a7741ae0fc924943de5bfe02928262eb7_cgraph_org.svg" target="_base">
           <rect id="button" ry="5" rx="5" y="6" x="6" height="38" width="38"
                fill="#f2f5e9" fill-opacity="0.5" stroke="#606060" stroke-width="1.0"/>
           <path id="arrow"
             d="M 11.500037,31.436501 C 11.940474,20.09759 22.043105,11.32322 32.158766,21.979434 L 37.068811,17.246167 C 37.068811,17.246167 37.088388,32 37.088388,32 L 22.160133,31.978069 C 22.160133,31.978069 26.997745,27.140456 26.997745,27.140456 C 18.528582,18.264221 13.291696,25.230495 11.500037,31.436501 z"
             style="fill:#404040;"/>
          </a>
         </g>
        </svg>
</svg>
