<?xml version="1.0" encoding="UTF-8" standalone="no"?>
<!DOCTYPE svg PUBLIC "-//W3C//DTD SVG 1.1//EN"
 "http://www.w3.org/Graphics/SVG/1.1/DTD/svg11.dtd">
<!-- Generated by graphviz version 2.38.0 (20140413.2041)
 -->
<!-- Title: toXML Pages: 1 -->
<svg width="642pt" height="149pt"
 viewBox="0.00 0.00 642.00 148.87" xmlns="http://www.w3.org/2000/svg" xmlns:xlink="http://www.w3.org/1999/xlink">
<g id="graph0" class="graph" transform="scale(1 1) rotate(0) translate(4 144.868)">
<title>toXML</title>
<!-- Node1 -->
<g id="node1" class="node"><title>Node1</title>
<g id="a_node1"><a xlink:title=" ">
<polygon fill="#999999" stroke="#666666" points="44,-96 0,-96 0,-77 44,-77 44,-96"/>
<text text-anchor="middle" x="22" y="-84" font-family="Helvetica,sans-Serif" font-size="10.00">toXML</text>
</a>
</g>
</g>
<!-- Node2 -->
<g id="node2" class="node"><title>Node2</title>
<g id="a_node2"><a xlink:href="classore_1_1data_1_1_x_m_l_utils.html#aced1fd4bd35df3642d8022301744b138" target="_top" xlink:title=" ">
<polygon fill="white" stroke="#666666" points="314,-123.5 215,-123.5 215,-93.5 314,-93.5 314,-123.5"/>
<text text-anchor="start" x="223" y="-111.5" font-family="Helvetica,sans-Serif" font-size="10.00">ore::data::XMLUtils</text>
<text text-anchor="middle" x="264.5" y="-100.5" font-family="Helvetica,sans-Serif" font-size="10.00">::addChild</text>
</a>
</g>
</g>
<!-- Node1&#45;&gt;Node2 -->
<g id="edge1" class="edge"><title>Node1&#45;&gt;Node2</title>
<path fill="none" stroke="#63b8ff" d="M31.0749,-96.1486C41.1688,-107.378 59.6161,-125.301 80,-132.5 124.218,-148.117 177.664,-138.124 215.442,-126.648"/>
<polygon fill="#63b8ff" stroke="#63b8ff" points="216.707,-129.919 225.176,-123.553 214.586,-123.248 216.707,-129.919"/>
</g>
<!-- Node3 -->
<g id="node3" class="node"><title>Node3</title>
<g id="a_node3"><a xlink:href="classore_1_1data_1_1_x_m_l_document.html#a8717c517803f0df2e693e3cadefeafd7" target="_top" xlink:title="util functions that wrap rapidxml">
<polygon fill="white" stroke="#666666" points="474,-101.5 350,-101.5 350,-71.5 474,-71.5 474,-101.5"/>
<text text-anchor="start" x="358" y="-89.5" font-family="Helvetica,sans-Serif" font-size="10.00">ore::data::XMLDocument</text>
<text text-anchor="middle" x="412" y="-78.5" font-family="Helvetica,sans-Serif" font-size="10.00">::allocNode</text>
</a>
</g>
</g>
<!-- Node1&#45;&gt;Node3 -->
<g id="edge6" class="edge"><title>Node1&#45;&gt;Node3</title>
<path fill="none" stroke="#63b8ff" d="M44.1094,-85.5828C54.8526,-85.1608 68.1195,-84.7084 80,-84.5 183.984,-82.6763 210.006,-83.428 314,-84.5 322.353,-84.5861 331.11,-84.7139 339.801,-84.864"/>
<polygon fill="#63b8ff" stroke="#63b8ff" points="339.883,-88.366 349.945,-85.0493 340.011,-81.3672 339.883,-88.366"/>
</g>
<!-- Node5 -->
<g id="node5" class="node"><title>Node5</title>
<g id="a_node5"><a xlink:href="classore_1_1data_1_1_x_m_l_utils.html#a29cd524fd4d9381e10c71939131fa4d4" target="_top" xlink:title=" ">
<polygon fill="white" stroke="#666666" points="179,-123.5 80,-123.5 80,-93.5 179,-93.5 179,-123.5"/>
<text text-anchor="start" x="88" y="-111.5" font-family="Helvetica,sans-Serif" font-size="10.00">ore::data::XMLUtils</text>
<text text-anchor="middle" x="129.5" y="-100.5" font-family="Helvetica,sans-Serif" font-size="10.00">::addChildren</text>
</a>
</g>
</g>
<!-- Node1&#45;&gt;Node5 -->
<g id="edge4" class="edge"><title>Node1&#45;&gt;Node5</title>
<path fill="none" stroke="#63b8ff" d="M44.0959,-90.8992C51.6914,-92.483 60.6762,-94.3567 69.9027,-96.2807"/>
<polygon fill="#63b8ff" stroke="#63b8ff" points="69.4509,-99.7617 79.9549,-98.3768 70.88,-92.9091 69.4509,-99.7617"/>
</g>
<!-- Node6 -->
<g id="node6" class="node"><title>Node6</title>
<g id="a_node6"><a xlink:href="namespaceore_1_1data.html#a86651dfeb5c18ee891f7a4734d8cf455" target="_top" xlink:title=" ">
<polygon fill="white" stroke="#666666" points="178.5,-19 80.5,-19 80.5,-0 178.5,-0 178.5,-19"/>
<text text-anchor="middle" x="129.5" y="-7" font-family="Helvetica,sans-Serif" font-size="10.00">ore::data::to_string</text>
</a>
</g>
</g>
<!-- Node1&#45;&gt;Node6 -->
<g id="edge7" class="edge"><title>Node1&#45;&gt;Node6</title>
<path fill="none" stroke="#63b8ff" d="M36.3616,-76.7479C54.1976,-63.7302 85.992,-40.5248 107.165,-25.0718"/>
<polygon fill="#63b8ff" stroke="#63b8ff" points="109.233,-27.8954 115.247,-19.1729 105.106,-22.2412 109.233,-27.8954"/>
</g>
<!-- Node2&#45;&gt;Node3 -->
<g id="edge2" class="edge"><title>Node2&#45;&gt;Node3</title>
<path fill="none" stroke="#63b8ff" d="M314.354,-101.113C322.543,-99.875 331.186,-98.5681 339.8,-97.2657"/>
<polygon fill="#63b8ff" stroke="#63b8ff" points="340.505,-100.699 349.87,-95.7431 339.459,-93.7775 340.505,-100.699"/>
</g>
<!-- Node4 -->
<g id="node4" class="node"><title>Node4</title>
<g id="a_node4"><a xlink:href="classore_1_1data_1_1_x_m_l_document.html#ae3474059e483990f3afea260096e5c90" target="_top" xlink:title=" ">
<polygon fill="white" stroke="#666666" points="634,-101.5 510,-101.5 510,-71.5 634,-71.5 634,-101.5"/>
<text text-anchor="start" x="518" y="-89.5" font-family="Helvetica,sans-Serif" font-size="10.00">ore::data::XMLDocument</text>
<text text-anchor="middle" x="572" y="-78.5" font-family="Helvetica,sans-Serif" font-size="10.00">::allocString</text>
</a>
</g>
</g>
<!-- Node3&#45;&gt;Node4 -->
<g id="edge3" class="edge"><title>Node3&#45;&gt;Node4</title>
<path fill="none" stroke="#63b8ff" d="M474.087,-86.5C482.513,-86.5 491.226,-86.5 499.815,-86.5"/>
<polygon fill="#63b8ff" stroke="#63b8ff" points="499.815,-90.0001 509.815,-86.5 499.815,-83.0001 499.815,-90.0001"/>
</g>
<!-- Node5&#45;&gt;Node2 -->
<g id="edge5" class="edge"><title>Node5&#45;&gt;Node2</title>
<path fill="none" stroke="#63b8ff" d="M179.269,-108.5C187.491,-108.5 196.104,-108.5 204.551,-108.5"/>
<polygon fill="#63b8ff" stroke="#63b8ff" points="204.737,-112 214.737,-108.5 204.737,-105 204.737,-112"/>
</g>
<!-- Node6&#45;&gt;Node6 -->
<g id="edge8" class="edge"><title>Node6&#45;&gt;Node6</title>
<path fill="none" stroke="#63b8ff" d="M113.162,-19.0828C105.214,-27.7337 110.66,-37 129.5,-37 141.275,-37 147.818,-33.3804 149.129,-28.5536"/>
<polygon fill="#63b8ff" stroke="#63b8ff" points="152.426,-27.3799 145.838,-19.0828 145.814,-29.6776 152.426,-27.3799"/>
</g>
</g>
</svg>
