<?xml version="1.0" encoding="UTF-8" standalone="no"?>
<!DOCTYPE svg PUBLIC "-//W3C//DTD SVG 1.1//EN"
 "http://www.w3.org/Graphics/SVG/1.1/DTD/svg11.dtd">
<!-- Generated by graphviz version 2.38.0 (20140413.2041)
 -->
<!-- Title: getFxSpotQuote Pages: 1 -->
<!--zoomable 101 -->
<svg id="main" version="1.1" xmlns="http://www.w3.org/2000/svg" xmlns:xlink="http://www.w3.org/1999/xlink" xml:space="preserve" onload="init(evt)">
<style type="text/css"><![CDATA[
.edge:hover path { stroke: red; }
.edge:hover polygon { stroke: red; fill: red; }
]]></style>
<script type="text/javascript"><![CDATA[
var edges = document.getElementsByTagName('g');
if (edges && edges.length) {
  for (var i=0;i<edges.length;i++) {
    if (edges[i].id.substr(0,4)=='edge') {
      edges[i].setAttribute('class','edge');
    }
  }
}
]]></script>
        <defs>
                <circle id="rim" cx="0" cy="0" r="7"/>
                <circle id="rim2" cx="0" cy="0" r="3.5"/>
                <g id="zoomPlus">
                        <use xlink:href="#rim" fill="#404040">
                                <set attributeName="fill" to="#808080" begin="zoomplus.mouseover" end="zoomplus.mouseout"/>
                        </use>
                        <path d="M-4,0h8M0,-4v8" fill="none" stroke="white" stroke-width="1.5" pointer-events="none"/>
                </g>
                <g id="zoomMin">
                        <use xlink:href="#rim" fill="#404040">
                                <set attributeName="fill" to="#808080" begin="zoomminus.mouseover" end="zoomminus.mouseout"/>
                        </use>
                        <path d="M-4,0h8" fill="none" stroke="white" stroke-width="1.5" pointer-events="none"/>
                </g>
                <g id="dirArrow">
                        <path fill="none" stroke="white" stroke-width="1.5" d="M0,-3.0v7 M-2.5,-0.5L0,-3.0L2.5,-0.5"/>
                </g>
               <g id="resetDef">
                       <use xlink:href="#rim2" fill="#404040">
                               <set attributeName="fill" to="#808080" begin="reset.mouseover" end="reset.mouseout"/>
                       </use>
               </g>
        </defs>

<script type="text/javascript">
var viewWidth = 525;
var viewHeight = 101;
var sectionId = 'dynsection-51';
</script>
<script xlink:href="svgpan.js"/>
<svg id="graph" class="graph">
<g id="viewport">
<title>getFxSpotQuote</title>
<!-- Node1 -->
<g id="node1" class="node"><title>Node1</title>
<g id="a_node1"><a xlink:title=" ">
<polygon fill="#999999" stroke="#666666" points="517,-56 429,-56 429,-37 517,-37 517,-56"/>
<text text-anchor="middle" x="473" y="-44" font-family="Helvetica,sans-Serif" font-size="10.00">getFxSpotQuote</text>
</a>
</g>
</g>
<!-- Node2 -->
<g id="node2" class="node"><title>Node2</title>
<g id="a_node2"><a xlink:href="classore_1_1data_1_1_yield_curve.html#ab4fc5f56e586e2b853df28a4f00c3bd6" target="_top" xlink:title=" ">
<polygon fill="white" stroke="#666666" points="387.5,-93 258.5,-93 258.5,-74 387.5,-74 387.5,-93"/>
<text text-anchor="middle" x="323" y="-81" font-family="Helvetica,sans-Serif" font-size="10.00">addCrossCcyBasisSwaps</text>
</a>
</g>
</g>
<!-- Node1&#45;&gt;Node2 -->
<g id="edge1" class="edge"><title>Node1&#45;&gt;Node2</title>
<path fill="none" stroke="#63b8ff" d="M424.026,-58.4936C404.013,-63.4968 381.09,-69.2275 362.241,-73.9396"/>
<polygon fill="#63b8ff" stroke="#63b8ff" points="425.034,-61.8493 433.886,-56.0284 423.336,-55.0584 425.034,-61.8493"/>
</g>
<!-- Node5 -->
<g id="node5" class="node"><title>Node5</title>
<g id="a_node5"><a xlink:href="classore_1_1data_1_1_yield_curve.html#a071b252c7ef6882d52cb6705d35ff45e" target="_top" xlink:title=" ">
<polygon fill="white" stroke="#666666" points="393,-56 253,-56 253,-37 393,-37 393,-56"/>
<text text-anchor="middle" x="323" y="-44" font-family="Helvetica,sans-Serif" font-size="10.00">addCrossCcyFixFloatSwaps</text>
</a>
</g>
</g>
<!-- Node1&#45;&gt;Node5 -->
<g id="edge4" class="edge"><title>Node1&#45;&gt;Node5</title>
<path fill="none" stroke="#63b8ff" d="M418.573,-46.5C410.319,-46.5 401.695,-46.5 393.156,-46.5"/>
<polygon fill="#63b8ff" stroke="#63b8ff" points="418.794,-50.0001 428.794,-46.5 418.794,-43.0001 418.794,-50.0001"/>
</g>
<!-- Node6 -->
<g id="node6" class="node"><title>Node6</title>
<g id="a_node6"><a xlink:href="classore_1_1data_1_1_yield_curve.html#a4b2bda6f0f23bed37493b47ef450f971" target="_top" xlink:title=" ">
<polygon fill="white" stroke="#666666" points="364.5,-19 281.5,-19 281.5,-0 364.5,-0 364.5,-19"/>
<text text-anchor="middle" x="323" y="-7" font-family="Helvetica,sans-Serif" font-size="10.00">addFXForwards</text>
</a>
</g>
</g>
<!-- Node1&#45;&gt;Node6 -->
<g id="edge6" class="edge"><title>Node1&#45;&gt;Node6</title>
<path fill="none" stroke="#63b8ff" d="M424.026,-34.5064C404.013,-29.5032 381.09,-23.7725 362.241,-19.0604"/>
<polygon fill="#63b8ff" stroke="#63b8ff" points="423.336,-37.9416 433.886,-36.9716 425.034,-31.1507 423.336,-37.9416"/>
</g>
<!-- Node3 -->
<g id="node3" class="node"><title>Node3</title>
<g id="a_node3"><a xlink:href="classore_1_1data_1_1_yield_curve.html#a9926d222ab68411efb749aa1e6cbd0b1" target="_top" xlink:title=" ">
<polygon fill="white" stroke="#666666" points="217,-56 98,-56 98,-37 217,-37 217,-56"/>
<text text-anchor="middle" x="157.5" y="-44" font-family="Helvetica,sans-Serif" font-size="10.00">buildBootstrappedCurve</text>
</a>
</g>
</g>
<!-- Node2&#45;&gt;Node3 -->
<g id="edge2" class="edge"><title>Node2&#45;&gt;Node3</title>
<path fill="none" stroke="#63b8ff" d="M269.908,-71.7116C247.587,-66.6604 221.854,-60.837 200.746,-56.0604"/>
<polygon fill="#63b8ff" stroke="#63b8ff" points="269.369,-75.178 279.895,-73.9716 270.914,-68.3506 269.369,-75.178"/>
</g>
<!-- Node4 -->
<g id="node4" class="node"><title>Node4</title>
<g id="a_node4"><a xlink:href="classore_1_1data_1_1_yield_curve.html#a4b705bf1c5123b7cd7eaab64eca1dd5b" target="_top" xlink:title="Constructor.">
<polygon fill="white" stroke="#666666" points="62,-56 0,-56 0,-37 62,-37 62,-56"/>
<text text-anchor="middle" x="31" y="-44" font-family="Helvetica,sans-Serif" font-size="10.00">YieldCurve</text>
</a>
</g>
</g>
<!-- Node3&#45;&gt;Node4 -->
<g id="edge3" class="edge"><title>Node3&#45;&gt;Node4</title>
<path fill="none" stroke="#63b8ff" d="M87.7521,-46.5C78.8007,-46.5 70.0304,-46.5 62.1926,-46.5"/>
<polygon fill="#63b8ff" stroke="#63b8ff" points="87.8956,-50.0001 97.8956,-46.5 87.8956,-43.0001 87.8956,-50.0001"/>
</g>
<!-- Node5&#45;&gt;Node3 -->
<g id="edge5" class="edge"><title>Node5&#45;&gt;Node3</title>
<path fill="none" stroke="#63b8ff" d="M242.612,-46.5C234.019,-46.5 225.391,-46.5 217.109,-46.5"/>
<polygon fill="#63b8ff" stroke="#63b8ff" points="242.661,-50.0001 252.661,-46.5 242.661,-43.0001 242.661,-50.0001"/>
</g>
<!-- Node6&#45;&gt;Node3 -->
<g id="edge7" class="edge"><title>Node6&#45;&gt;Node3</title>
<path fill="none" stroke="#63b8ff" d="M271.35,-20.9621C248.623,-26.1052 222.127,-32.1012 200.522,-36.9904"/>
<polygon fill="#63b8ff" stroke="#63b8ff" points="272.183,-24.3622 281.164,-18.7412 270.638,-17.5348 272.183,-24.3622"/>
</g>
</g>
</svg>
        <g id="navigator" transform="translate(0 0)" fill="#404254">
                <rect fill="#f2f5e9" fill-opacity="0.5" stroke="#606060" stroke-width=".5" x="0" y="0" width="60" height="60"/>
                <use id="zoomplus" xlink:href="#zoomPlus" x="17" y="9" onmousedown="handleZoom(evt,'in')"/>
                <use id="zoomminus" xlink:href="#zoomMin" x="42" y="9" onmousedown="handleZoom(evt,'out')"/>
                <use id="reset" xlink:href="#resetDef" x="30" y="36" onmousedown="handleReset()"/>
                <g id="arrowUp" xlink:href="#dirArrow" transform="translate(30 24)" onmousedown="handlePan(0,-1)">
                  <use xlink:href="#rim" fill="#404040">
                        <set attributeName="fill" to="#808080" begin="arrowUp.mouseover" end="arrowUp.mouseout"/>
                  </use>
                  <path fill="none" stroke="white" stroke-width="1.5" d="M0,-3.0v7 M-2.5,-0.5L0,-3.0L2.5,-0.5"/>
                </g>
                <g id="arrowRight" xlink:href="#dirArrow" transform="rotate(90) translate(36 -43)" onmousedown="handlePan(1,0)">
                  <use xlink:href="#rim" fill="#404040">
                        <set attributeName="fill" to="#808080" begin="arrowRight.mouseover" end="arrowRight.mouseout"/>
                  </use>
                  <path fill="none" stroke="white" stroke-width="1.5" d="M0,-3.0v7 M-2.5,-0.5L0,-3.0L2.5,-0.5"/>
                </g>
                <g id="arrowDown" xlink:href="#dirArrow" transform="rotate(180) translate(-30 -48)" onmousedown="handlePan(0,1)">
                  <use xlink:href="#rim" fill="#404040">
                        <set attributeName="fill" to="#808080" begin="arrowDown.mouseover" end="arrowDown.mouseout"/>
                  </use>
                  <path fill="none" stroke="white" stroke-width="1.5" d="M0,-3.0v7 M-2.5,-0.5L0,-3.0L2.5,-0.5"/>
                </g>
                <g id="arrowLeft" xlink:href="#dirArrow" transform="rotate(270) translate(-36 17)" onmousedown="handlePan(-1,0)">
                  <use xlink:href="#rim" fill="#404040">
                        <set attributeName="fill" to="#808080" begin="arrowLeft.mouseover" end="arrowLeft.mouseout"/>
                  </use>
                  <path fill="none" stroke="white" stroke-width="1.5" d="M0,-3.0v7 M-2.5,-0.5L0,-3.0L2.5,-0.5"/>
                </g>
        </g>
        <svg viewBox="0 0 15 15" width="100%" height="30px" preserveAspectRatio="xMaxYMin meet">
         <g id="arrow_out" transform="scale(0.3 0.3)">
          <a xlink:href="classore_1_1data_1_1_yield_curve_abe50b18a59c390f70e2182d9224bb07f_icgraph_org.svg" target="_base">
           <rect id="button" ry="5" rx="5" y="6" x="6" height="38" width="38"
                fill="#f2f5e9" fill-opacity="0.5" stroke="#606060" stroke-width="1.0"/>
           <path id="arrow"
             d="M 11.500037,31.436501 C 11.940474,20.09759 22.043105,11.32322 32.158766,21.979434 L 37.068811,17.246167 C 37.068811,17.246167 37.088388,32 37.088388,32 L 22.160133,31.978069 C 22.160133,31.978069 26.997745,27.140456 26.997745,27.140456 C 18.528582,18.264221 13.291696,25.230495 11.500037,31.436501 z"
             style="fill:#404040;"/>
          </a>
         </g>
        </svg>
</svg>
