<?xml version="1.0" encoding="UTF-8" standalone="no"?>
<!DOCTYPE svg PUBLIC "-//W3C//DTD SVG 1.1//EN"
 "http://www.w3.org/Graphics/SVG/1.1/DTD/svg11.dtd">
<!-- Generated by graphviz version 2.38.0 (20140413.2041)
 -->
<!-- Title: get Pages: 1 -->
<!--zoomable 705 -->
<svg id="main" version="1.1" xmlns="http://www.w3.org/2000/svg" xmlns:xlink="http://www.w3.org/1999/xlink" xml:space="preserve" onload="init(evt)">
<style type="text/css"><![CDATA[
.edge:hover path { stroke: red; }
.edge:hover polygon { stroke: red; fill: red; }
]]></style>
<script type="text/javascript"><![CDATA[
var edges = document.getElementsByTagName('g');
if (edges && edges.length) {
  for (var i=0;i<edges.length;i++) {
    if (edges[i].id.substr(0,4)=='edge') {
      edges[i].setAttribute('class','edge');
    }
  }
}
]]></script>
        <defs>
                <circle id="rim" cx="0" cy="0" r="7"/>
                <circle id="rim2" cx="0" cy="0" r="3.5"/>
                <g id="zoomPlus">
                        <use xlink:href="#rim" fill="#404040">
                                <set attributeName="fill" to="#808080" begin="zoomplus.mouseover" end="zoomplus.mouseout"/>
                        </use>
                        <path d="M-4,0h8M0,-4v8" fill="none" stroke="white" stroke-width="1.5" pointer-events="none"/>
                </g>
                <g id="zoomMin">
                        <use xlink:href="#rim" fill="#404040">
                                <set attributeName="fill" to="#808080" begin="zoomminus.mouseover" end="zoomminus.mouseout"/>
                        </use>
                        <path d="M-4,0h8" fill="none" stroke="white" stroke-width="1.5" pointer-events="none"/>
                </g>
                <g id="dirArrow">
                        <path fill="none" stroke="white" stroke-width="1.5" d="M0,-3.0v7 M-2.5,-0.5L0,-3.0L2.5,-0.5"/>
                </g>
               <g id="resetDef">
                       <use xlink:href="#rim2" fill="#404040">
                               <set attributeName="fill" to="#808080" begin="reset.mouseover" end="reset.mouseout"/>
                       </use>
               </g>
        </defs>

<script type="text/javascript">
var viewWidth = 388;
var viewHeight = 705;
var sectionId = 'dynsection-48';
</script>
<script xlink:href="svgpan.js"/>
<svg id="graph" class="graph">
<g id="viewport">
<title>get</title>
<!-- Node1 -->
<g id="node1" class="node"><title>Node1</title>
<g id="a_node1"><a xlink:title=" ">
<polygon fill="#999999" stroke="#666666" points="380,-364 350,-364 350,-345 380,-345 380,-364"/>
<text text-anchor="middle" x="365" y="-352" font-family="Helvetica,sans-Serif" font-size="10.00">get</text>
</a>
</g>
</g>
<!-- Node2 -->
<g id="node2" class="node"><title>Node2</title>
<g id="a_node2"><a xlink:href="classore_1_1data_1_1_curve_configurations.html#a347d9b0eff8b098e9f7a1679e4551c8a" target="_top" xlink:title=" ">
<polygon fill="white" stroke="#666666" points="314,-697 179,-697 179,-678 314,-678 314,-697"/>
<text text-anchor="middle" x="246.5" y="-685" font-family="Helvetica,sans-Serif" font-size="10.00">baseCorrelationCurveConfig</text>
</a>
</g>
</g>
<!-- Node1&#45;&gt;Node2 -->
<g id="edge1" class="edge"><title>Node1&#45;&gt;Node2</title>
<path fill="none" stroke="#63b8ff" d="M363.583,-374.263C361.872,-436.291 353.453,-625.585 314,-669.5 310.963,-672.881 307.362,-675.655 303.431,-677.927"/>
<polygon fill="#63b8ff" stroke="#63b8ff" points="367.083,-374.31 363.831,-364.226 360.085,-374.137 367.083,-374.31"/>
</g>
<!-- Node3 -->
<g id="node3" class="node"><title>Node3</title>
<g id="a_node3"><a xlink:href="classore_1_1data_1_1_curve_configurations.html#a5ba1053b6c69f3ecbc2fb45eb3ec6fc4" target="_top" xlink:title=" ">
<polygon fill="white" stroke="#666666" points="306,-660 187,-660 187,-641 306,-641 306,-660"/>
<text text-anchor="middle" x="246.5" y="-648" font-family="Helvetica,sans-Serif" font-size="10.00">capFloorVolCurveConfig</text>
</a>
</g>
</g>
<!-- Node1&#45;&gt;Node3 -->
<g id="edge2" class="edge"><title>Node1&#45;&gt;Node3</title>
<path fill="none" stroke="#63b8ff" d="M363.109,-374.502C360.156,-431.746 348.808,-594.547 314,-632.5 310.928,-635.85 307.303,-638.601 303.356,-640.859"/>
<polygon fill="#63b8ff" stroke="#63b8ff" points="366.618,-374.406 363.605,-364.249 359.626,-374.068 366.618,-374.406"/>
</g>
<!-- Node4 -->
<g id="node4" class="node"><title>Node4</title>
<g id="a_node4"><a xlink:href="classore_1_1data_1_1_curve_configurations.html#a24060407aea16fe670741eb6348797bb" target="_top" xlink:title=" ">
<polygon fill="white" stroke="#666666" points="295.5,-623 197.5,-623 197.5,-604 295.5,-604 295.5,-623"/>
<text text-anchor="middle" x="246.5" y="-611" font-family="Helvetica,sans-Serif" font-size="10.00">cdsVolCurveConfig</text>
</a>
</g>
</g>
<!-- Node1&#45;&gt;Node4 -->
<g id="edge3" class="edge"><title>Node1&#45;&gt;Node4</title>
<path fill="none" stroke="#63b8ff" d="M362.53,-374.178C358.28,-425.797 344.303,-563.329 314,-595.5 308.997,-600.811 302.603,-604.613 295.764,-607.323"/>
<polygon fill="#63b8ff" stroke="#63b8ff" points="366.034,-374.267 363.33,-364.023 359.055,-373.717 366.034,-374.267"/>
</g>
<!-- Node5 -->
<g id="node5" class="node"><title>Node5</title>
<g id="a_node5"><a xlink:href="classore_1_1data_1_1_curve_configurations.html#a4af8cc8bf3b2d065e78275084e811bc3" target="_top" xlink:title=" ">
<polygon fill="white" stroke="#666666" points="304.5,-586 188.5,-586 188.5,-567 304.5,-567 304.5,-586"/>
<text text-anchor="middle" x="246.5" y="-574" font-family="Helvetica,sans-Serif" font-size="10.00">commodityCurveConfig</text>
</a>
</g>
</g>
<!-- Node1&#45;&gt;Node5 -->
<g id="edge4" class="edge"><title>Node1&#45;&gt;Node5</title>
<path fill="none" stroke="#63b8ff" d="M361.728,-374.144C356.042,-419.979 339.773,-532.101 314,-558.5 310.658,-561.923 306.737,-564.716 302.499,-566.992"/>
<polygon fill="#63b8ff" stroke="#63b8ff" points="365.228,-374.358 362.946,-364.012 358.278,-373.523 365.228,-374.358"/>
</g>
<!-- Node6 -->
<g id="node6" class="node"><title>Node6</title>
<g id="a_node6"><a xlink:href="classore_1_1data_1_1_curve_configurations.html#acde238c8269391c1e689b3b6a82ef912" target="_top" xlink:title=" ">
<polygon fill="white" stroke="#666666" points="311,-549 182,-549 182,-530 311,-530 311,-549"/>
<text text-anchor="middle" x="246.5" y="-537" font-family="Helvetica,sans-Serif" font-size="10.00">commodityVolatilityConfig</text>
</a>
</g>
</g>
<!-- Node1&#45;&gt;Node6 -->
<g id="edge5" class="edge"><title>Node1&#45;&gt;Node6</title>
<path fill="none" stroke="#63b8ff" d="M363.95,-374.314C362.75,-409.152 355.104,-481.474 314,-521.5 310.487,-524.921 306.393,-527.708 301.995,-529.976"/>
<polygon fill="#63b8ff" stroke="#63b8ff" points="367.455,-374.102 364.149,-364.037 360.456,-373.967 367.455,-374.102"/>
</g>
<!-- Node7 -->
<g id="node7" class="node"><title>Node7</title>
<g id="a_node7"><a xlink:href="classore_1_1data_1_1_curve_configurations.html#a7c6ad73d463d082d93a6b78a290990c4" target="_top" xlink:title=" ">
<polygon fill="white" stroke="#666666" points="303,-512 190,-512 190,-493 303,-493 303,-512"/>
<text text-anchor="middle" x="246.5" y="-500" font-family="Helvetica,sans-Serif" font-size="10.00">correlationCurveConfig</text>
</a>
</g>
</g>
<!-- Node1&#45;&gt;Node7 -->
<g id="edge6" class="edge"><title>Node1&#45;&gt;Node7</title>
<path fill="none" stroke="#63b8ff" d="M361.948,-374.316C357.921,-402.864 346.336,-455.33 314,-484.5 310.27,-487.865 305.974,-490.61 301.398,-492.849"/>
<polygon fill="#63b8ff" stroke="#63b8ff" points="365.43,-374.676 363.183,-364.322 358.483,-373.817 365.43,-374.676"/>
</g>
<!-- Node8 -->
<g id="node8" class="node"><title>Node8</title>
<g id="a_node8"><a xlink:href="classore_1_1data_1_1_curve_configurations.html#ab473c50854c6ba94af517dbc50b0a218" target="_top" xlink:title=" ">
<polygon fill="white" stroke="#666666" points="294.5,-475 198.5,-475 198.5,-456 294.5,-456 294.5,-475"/>
<text text-anchor="middle" x="246.5" y="-463" font-family="Helvetica,sans-Serif" font-size="10.00">defaultCurveConfig</text>
</a>
</g>
</g>
<!-- Node1&#45;&gt;Node8 -->
<g id="edge7" class="edge"><title>Node1&#45;&gt;Node8</title>
<path fill="none" stroke="#63b8ff" d="M358.65,-373.866C351.791,-395.072 337.842,-428.575 314,-447.5 308.285,-452.036 301.518,-455.432 294.525,-457.974"/>
<polygon fill="#63b8ff" stroke="#63b8ff" points="362.077,-374.624 361.605,-364.039 355.373,-372.607 362.077,-374.624"/>
</g>
<!-- Node9 -->
<g id="node9" class="node"><title>Node9</title>
<g id="a_node9"><a xlink:href="classore_1_1data_1_1_curve_configurations.html#a19fcd28db3988544594ecf095ad01ddd" target="_top" xlink:title=" ">
<polygon fill="white" stroke="#666666" points="293.5,-438 199.5,-438 199.5,-419 293.5,-419 293.5,-438"/>
<text text-anchor="middle" x="246.5" y="-426" font-family="Helvetica,sans-Serif" font-size="10.00">equityCurveConfig</text>
</a>
</g>
</g>
<!-- Node1&#45;&gt;Node9 -->
<g id="edge8" class="edge"><title>Node1&#45;&gt;Node9</title>
<path fill="none" stroke="#63b8ff" d="M352.072,-372.665C343.027,-385.061 329.528,-400.913 314,-410.5 307.792,-414.333 300.767,-417.361 293.666,-419.751"/>
<polygon fill="#63b8ff" stroke="#63b8ff" points="354.993,-374.595 357.836,-364.389 349.249,-370.594 354.993,-374.595"/>
</g>
<!-- Node11 -->
<g id="node11" class="node"><title>Node11</title>
<g id="a_node11"><a xlink:href="classore_1_1data_1_1_curve_configurations.html#ac6492177e4319a5fff15579330c53567" target="_top" xlink:title=" ">
<polygon fill="white" stroke="#666666" points="300.5,-401 192.5,-401 192.5,-382 300.5,-382 300.5,-401"/>
<text text-anchor="middle" x="246.5" y="-389" font-family="Helvetica,sans-Serif" font-size="10.00">equityVolCurveConfig</text>
</a>
</g>
</g>
<!-- Node1&#45;&gt;Node11 -->
<g id="edge10" class="edge"><title>Node1&#45;&gt;Node11</title>
<path fill="none" stroke="#63b8ff" d="M340.291,-364.058C332.033,-367.241 322.666,-370.688 314,-373.5 304.785,-376.49 294.744,-379.39 285.322,-381.957"/>
<polygon fill="#63b8ff" stroke="#63b8ff" points="341.663,-367.28 349.693,-360.368 339.106,-360.764 341.663,-367.28"/>
</g>
<!-- Node12 -->
<g id="node12" class="node"><title>Node12</title>
<g id="a_node12"><a xlink:href="classore_1_1data_1_1_curve_configurations.html#a5c6b2fdc6ee5de208e9fd48208db1675" target="_top" xlink:title=" ">
<polygon fill="white" stroke="#666666" points="282,-364 211,-364 211,-345 282,-345 282,-364"/>
<text text-anchor="middle" x="246.5" y="-352" font-family="Helvetica,sans-Serif" font-size="10.00">fxSpotConfig</text>
</a>
</g>
</g>
<!-- Node1&#45;&gt;Node12 -->
<g id="edge11" class="edge"><title>Node1&#45;&gt;Node12</title>
<path fill="none" stroke="#63b8ff" d="M339.254,-354.5C322.724,-354.5 300.739,-354.5 282.434,-354.5"/>
<polygon fill="#63b8ff" stroke="#63b8ff" points="339.715,-358 349.715,-354.5 339.715,-351 339.715,-358"/>
</g>
<!-- Node13 -->
<g id="node13" class="node"><title>Node13</title>
<g id="a_node13"><a xlink:href="classore_1_1data_1_1_curve_configurations.html#af41e9106525cd030e3f96629a135b1d3" target="_top" xlink:title=" ">
<polygon fill="white" stroke="#666666" points="291,-327 202,-327 202,-308 291,-308 291,-327"/>
<text text-anchor="middle" x="246.5" y="-315" font-family="Helvetica,sans-Serif" font-size="10.00">fxVolCurveConfig</text>
</a>
</g>
</g>
<!-- Node1&#45;&gt;Node13 -->
<g id="edge12" class="edge"><title>Node1&#45;&gt;Node13</title>
<path fill="none" stroke="#63b8ff" d="M340.233,-345.575C331.97,-342.57 322.615,-339.278 314,-336.5 303.829,-333.22 292.693,-329.925 282.492,-327.021"/>
<polygon fill="#63b8ff" stroke="#63b8ff" points="339.054,-348.87 349.647,-349.043 341.474,-342.302 339.054,-348.87"/>
</g>
<!-- Node14 -->
<g id="node14" class="node"><title>Node14</title>
<g id="a_node14"><a xlink:href="classore_1_1data_1_1_curve_configurations.html#a5fe3559749b89c8dde04e4cec9e9a2ec" target="_top" xlink:title=" ">
<polygon fill="white" stroke="#666666" points="310,-289.5 183,-289.5 183,-259.5 310,-259.5 310,-289.5"/>
<text text-anchor="start" x="191" y="-277.5" font-family="Helvetica,sans-Serif" font-size="10.00">inflationCapFloorVolCurve</text>
<text text-anchor="middle" x="246.5" y="-266.5" font-family="Helvetica,sans-Serif" font-size="10.00">Config</text>
</a>
</g>
</g>
<!-- Node1&#45;&gt;Node14 -->
<g id="edge13" class="edge"><title>Node1&#45;&gt;Node14</title>
<path fill="none" stroke="#63b8ff" d="M351.128,-336.348C341.931,-324.495 328.635,-309.433 314,-299.5 308.489,-295.76 302.344,-292.485 296.078,-289.646"/>
<polygon fill="#63b8ff" stroke="#63b8ff" points="348.532,-338.722 357.315,-344.647 354.144,-334.538 348.532,-338.722"/>
</g>
<!-- Node15 -->
<g id="node15" class="node"><title>Node15</title>
<g id="a_node15"><a xlink:href="classore_1_1data_1_1_curve_configurations.html#a4b094acf9a479b37837021bc35689a1c" target="_top" xlink:title=" ">
<polygon fill="white" stroke="#666666" points="297,-241 196,-241 196,-222 297,-222 297,-241"/>
<text text-anchor="middle" x="246.5" y="-229" font-family="Helvetica,sans-Serif" font-size="10.00">inflationCurveConfig</text>
</a>
</g>
</g>
<!-- Node1&#45;&gt;Node15 -->
<g id="edge14" class="edge"><title>Node1&#45;&gt;Node15</title>
<path fill="none" stroke="#63b8ff" d="M359.779,-334.992C353.691,-311.535 340.181,-272.573 314,-250.5 309.043,-246.321 303.218,-243.059 297.112,-240.514"/>
<polygon fill="#63b8ff" stroke="#63b8ff" points="356.404,-335.929 362.133,-344.841 363.212,-334.301 356.404,-335.929"/>
</g>
<!-- Node16 -->
<g id="node16" class="node"><title>Node16</title>
<g id="a_node16"><a xlink:href="classore_1_1data_1_1_curve_configurations.html#a31d4adafa2437c53b70d4a892b1b6865" target="_top" xlink:title=" ">
<polygon fill="white" stroke="#666666" points="297,-204 196,-204 196,-185 297,-185 297,-204"/>
<text text-anchor="middle" x="246.5" y="-192" font-family="Helvetica,sans-Serif" font-size="10.00">minimalCurveConfig</text>
</a>
</g>
</g>
<!-- Node1&#45;&gt;Node16 -->
<g id="edge15" class="edge"><title>Node1&#45;&gt;Node16</title>
<path fill="none" stroke="#63b8ff" d="M362.554,-334.413C359.268,-303.898 348.579,-245.983 314,-213.5 309.187,-208.978 303.372,-205.523 297.209,-202.884"/>
<polygon fill="#63b8ff" stroke="#63b8ff" points="359.094,-335.015 363.486,-344.657 366.066,-334.381 359.094,-335.015"/>
</g>
<!-- Node19 -->
<g id="node19" class="node"><title>Node19</title>
<g id="a_node19"><a xlink:href="classore_1_1data_1_1_curve_configurations.html#ab15e89fe26a20bb3aeee84a78c921ab7" target="_top" xlink:title=" ">
<polygon fill="white" stroke="#666666" points="290.5,-167 202.5,-167 202.5,-148 290.5,-148 290.5,-167"/>
<text text-anchor="middle" x="246.5" y="-155" font-family="Helvetica,sans-Serif" font-size="10.00">requiredCurveIds</text>
</a>
</g>
</g>
<!-- Node1&#45;&gt;Node19 -->
<g id="edge18" class="edge"><title>Node1&#45;&gt;Node19</title>
<path fill="none" stroke="#63b8ff" d="M364.335,-334.475C363.819,-297.89 357.322,-220.016 314,-176.5 307.646,-170.118 299.308,-165.845 290.693,-162.992"/>
<polygon fill="#63b8ff" stroke="#63b8ff" points="360.835,-334.805 364.331,-344.807 367.835,-334.808 360.835,-334.805"/>
</g>
<!-- Node20 -->
<g id="node20" class="node"><title>Node20</title>
<g id="a_node20"><a xlink:href="classore_1_1data_1_1_curve_configurations.html#ae6683cfd8508ea1e42b3a90fa3f51f68" target="_top" xlink:title=" ">
<polygon fill="white" stroke="#666666" points="285.5,-130 207.5,-130 207.5,-111 285.5,-111 285.5,-130"/>
<text text-anchor="middle" x="246.5" y="-118" font-family="Helvetica,sans-Serif" font-size="10.00">securityConfig</text>
</a>
</g>
</g>
<!-- Node1&#45;&gt;Node20 -->
<g id="edge19" class="edge"><title>Node1&#45;&gt;Node20</title>
<path fill="none" stroke="#63b8ff" d="M361.959,-334.767C356.645,-287.147 340.9,-167.774 314,-139.5 306.551,-131.671 296.121,-126.998 285.726,-124.23"/>
<polygon fill="#63b8ff" stroke="#63b8ff" points="358.483,-335.186 363.036,-344.753 365.443,-334.435 358.483,-335.186"/>
</g>
<!-- Node21 -->
<g id="node21" class="node"><title>Node21</title>
<g id="a_node21"><a xlink:href="classore_1_1data_1_1_curve_configurations.html#a583dd4d8213c78745c34aca385836167" target="_top" xlink:title=" ">
<polygon fill="white" stroke="#666666" points="306.5,-93 186.5,-93 186.5,-74 306.5,-74 306.5,-93"/>
<text text-anchor="middle" x="246.5" y="-81" font-family="Helvetica,sans-Serif" font-size="10.00">swaptionVolCurveConfig</text>
</a>
</g>
</g>
<!-- Node1&#45;&gt;Node21 -->
<g id="edge20" class="edge"><title>Node1&#45;&gt;Node21</title>
<path fill="none" stroke="#63b8ff" d="M362.686,-334.656C358.759,-281.316 345.384,-136.584 314,-102.5 310.421,-98.6135 306.108,-95.5017 301.419,-93.0131"/>
<polygon fill="#63b8ff" stroke="#63b8ff" points="359.209,-335.111 363.401,-344.841 366.192,-334.62 359.209,-335.111"/>
</g>
<!-- Node22 -->
<g id="node22" class="node"><title>Node22</title>
<g id="a_node22"><a xlink:href="classore_1_1data_1_1_curve_configurations.html#a22f6d5a6c9534d8e896998a0cd9208c3" target="_top" xlink:title=" ">
<polygon fill="white" stroke="#666666" points="290.5,-56 202.5,-56 202.5,-37 290.5,-37 290.5,-56"/>
<text text-anchor="middle" x="246.5" y="-44" font-family="Helvetica,sans-Serif" font-size="10.00">yieldCurveConfig</text>
</a>
</g>
</g>
<!-- Node1&#45;&gt;Node22 -->
<g id="edge21" class="edge"><title>Node1&#45;&gt;Node22</title>
<path fill="none" stroke="#63b8ff" d="M363.251,-334.892C360.629,-276.534 349.969,-105.539 314,-65.5 307.821,-58.6223 299.343,-54.163 290.508,-51.2896"/>
<polygon fill="#63b8ff" stroke="#63b8ff" points="359.759,-335.145 363.674,-344.99 366.753,-334.852 359.759,-335.145"/>
</g>
<!-- Node23 -->
<g id="node23" class="node"><title>Node23</title>
<g id="a_node23"><a xlink:href="classore_1_1data_1_1_curve_configurations.html#aac99f8813a6c78d74681a1a7421feee3" target="_top" xlink:title=" ">
<polygon fill="white" stroke="#666666" points="297.5,-19 195.5,-19 195.5,-0 297.5,-0 297.5,-19"/>
<text text-anchor="middle" x="246.5" y="-7" font-family="Helvetica,sans-Serif" font-size="10.00">yieldVolCurveConfig</text>
</a>
</g>
</g>
<!-- Node1&#45;&gt;Node23 -->
<g id="edge22" class="edge"><title>Node1&#45;&gt;Node23</title>
<path fill="none" stroke="#63b8ff" d="M363.669,-334.499C362.209,-270.835 354.449,-74.4016 314,-28.5 309.554,-23.4553 303.872,-19.7084 297.706,-16.933"/>
<polygon fill="#63b8ff" stroke="#63b8ff" points="360.175,-334.847 363.875,-344.775 367.174,-334.706 360.175,-334.847"/>
</g>
<!-- Node10 -->
<g id="node10" class="node"><title>Node10</title>
<g id="a_node10"><a xlink:href="equitymarketdata_8cpp.html#a0a8db005e5898e1432e60360308e9a6f" target="_top" xlink:title=" ">
<polygon fill="white" stroke="#666666" points="143,-438 0,-438 0,-419 143,-419 143,-438"/>
<text text-anchor="middle" x="71.5" y="-426" font-family="Helvetica,sans-Serif" font-size="10.00">BOOST_AUTO_TEST_CASE</text>
</a>
</g>
</g>
<!-- Node9&#45;&gt;Node10 -->
<g id="edge9" class="edge"><title>Node9&#45;&gt;Node10</title>
<path fill="none" stroke="#63b8ff" d="M188.768,-428.5C174.175,-428.5 158.294,-428.5 143.092,-428.5"/>
<polygon fill="#63b8ff" stroke="#63b8ff" points="189.139,-432 199.139,-428.5 189.139,-425 189.139,-432"/>
</g>
<!-- Node17 -->
<g id="node17" class="node"><title>Node17</title>
<g id="a_node17"><a xlink:href="classore_1_1data_1_1_curve_configurations.html#a2cbdfa0039d32b2f2ef8a3d1f72fddc2" target="_top" xlink:title=" ">
<polygon fill="white" stroke="#666666" points="105.5,-222 37.5,-222 37.5,-203 105.5,-203 105.5,-222"/>
<text text-anchor="middle" x="71.5" y="-210" font-family="Helvetica,sans-Serif" font-size="10.00">conventions</text>
</a>
</g>
</g>
<!-- Node16&#45;&gt;Node17 -->
<g id="edge16" class="edge"><title>Node16&#45;&gt;Node17</title>
<path fill="none" stroke="#63b8ff" d="M185.848,-200.707C159.001,-203.5 128.323,-206.692 105.659,-209.05"/>
<polygon fill="#63b8ff" stroke="#63b8ff" points="186.341,-204.174 195.925,-199.658 185.617,-197.212 186.341,-204.174"/>
</g>
<!-- Node18 -->
<g id="node18" class="node"><title>Node18</title>
<g id="a_node18"><a xlink:href="classore_1_1data_1_1_curve_configurations.html#a0d408d4b14a8796bba537a5eb91a401f" target="_top" xlink:title=" ">
<polygon fill="white" stroke="#666666" points="94.5,-185 48.5,-185 48.5,-166 94.5,-166 94.5,-185"/>
<text text-anchor="middle" x="71.5" y="-173" font-family="Helvetica,sans-Serif" font-size="10.00">quotes</text>
</a>
</g>
</g>
<!-- Node16&#45;&gt;Node18 -->
<g id="edge17" class="edge"><title>Node16&#45;&gt;Node18</title>
<path fill="none" stroke="#63b8ff" d="M185.921,-187.957C154.464,-184.502 117.731,-180.468 94.7888,-177.948"/>
<polygon fill="#63b8ff" stroke="#63b8ff" points="185.603,-191.443 195.925,-189.055 186.367,-184.484 185.603,-191.443"/>
</g>
</g>
</svg>
        <g id="navigator" transform="translate(0 0)" fill="#404254">
                <rect fill="#f2f5e9" fill-opacity="0.5" stroke="#606060" stroke-width=".5" x="0" y="0" width="60" height="60"/>
                <use id="zoomplus" xlink:href="#zoomPlus" x="17" y="9" onmousedown="handleZoom(evt,'in')"/>
                <use id="zoomminus" xlink:href="#zoomMin" x="42" y="9" onmousedown="handleZoom(evt,'out')"/>
                <use id="reset" xlink:href="#resetDef" x="30" y="36" onmousedown="handleReset()"/>
                <g id="arrowUp" xlink:href="#dirArrow" transform="translate(30 24)" onmousedown="handlePan(0,-1)">
                  <use xlink:href="#rim" fill="#404040">
                        <set attributeName="fill" to="#808080" begin="arrowUp.mouseover" end="arrowUp.mouseout"/>
                  </use>
                  <path fill="none" stroke="white" stroke-width="1.5" d="M0,-3.0v7 M-2.5,-0.5L0,-3.0L2.5,-0.5"/>
                </g>
                <g id="arrowRight" xlink:href="#dirArrow" transform="rotate(90) translate(36 -43)" onmousedown="handlePan(1,0)">
                  <use xlink:href="#rim" fill="#404040">
                        <set attributeName="fill" to="#808080" begin="arrowRight.mouseover" end="arrowRight.mouseout"/>
                  </use>
                  <path fill="none" stroke="white" stroke-width="1.5" d="M0,-3.0v7 M-2.5,-0.5L0,-3.0L2.5,-0.5"/>
                </g>
                <g id="arrowDown" xlink:href="#dirArrow" transform="rotate(180) translate(-30 -48)" onmousedown="handlePan(0,1)">
                  <use xlink:href="#rim" fill="#404040">
                        <set attributeName="fill" to="#808080" begin="arrowDown.mouseover" end="arrowDown.mouseout"/>
                  </use>
                  <path fill="none" stroke="white" stroke-width="1.5" d="M0,-3.0v7 M-2.5,-0.5L0,-3.0L2.5,-0.5"/>
                </g>
                <g id="arrowLeft" xlink:href="#dirArrow" transform="rotate(270) translate(-36 17)" onmousedown="handlePan(-1,0)">
                  <use xlink:href="#rim" fill="#404040">
                        <set attributeName="fill" to="#808080" begin="arrowLeft.mouseover" end="arrowLeft.mouseout"/>
                  </use>
                  <path fill="none" stroke="white" stroke-width="1.5" d="M0,-3.0v7 M-2.5,-0.5L0,-3.0L2.5,-0.5"/>
                </g>
        </g>
        <svg viewBox="0 0 15 15" width="100%" height="30px" preserveAspectRatio="xMaxYMin meet">
         <g id="arrow_out" transform="scale(0.3 0.3)">
          <a xlink:href="classore_1_1data_1_1_curve_configurations_a04f00e9080c4647c43cb2d050a75fb0e_icgraph_org.svg" target="_base">
           <rect id="button" ry="5" rx="5" y="6" x="6" height="38" width="38"
                fill="#f2f5e9" fill-opacity="0.5" stroke="#606060" stroke-width="1.0"/>
           <path id="arrow"
             d="M 11.500037,31.436501 C 11.940474,20.09759 22.043105,11.32322 32.158766,21.979434 L 37.068811,17.246167 C 37.068811,17.246167 37.088388,32 37.088388,32 L 22.160133,31.978069 C 22.160133,31.978069 26.997745,27.140456 26.997745,27.140456 C 18.528582,18.264221 13.291696,25.230495 11.500037,31.436501 z"
             style="fill:#404040;"/>
          </a>
         </g>
        </svg>
</svg>
