<?xml version="1.0" encoding="UTF-8" standalone="no"?>
<!DOCTYPE svg PUBLIC "-//W3C//DTD SVG 1.1//EN"
 "http://www.w3.org/Graphics/SVG/1.1/DTD/svg11.dtd">
<!-- Generated by graphviz version 2.38.0 (20140413.2041)
 -->
<!-- Title: fromXML Pages: 1 -->
<!--zoomable 313 -->
<svg id="main" version="1.1" xmlns="http://www.w3.org/2000/svg" xmlns:xlink="http://www.w3.org/1999/xlink" xml:space="preserve" onload="init(evt)">
<style type="text/css"><![CDATA[
.edge:hover path { stroke: red; }
.edge:hover polygon { stroke: red; fill: red; }
]]></style>
<script type="text/javascript"><![CDATA[
var edges = document.getElementsByTagName('g');
if (edges && edges.length) {
  for (var i=0;i<edges.length;i++) {
    if (edges[i].id.substr(0,4)=='edge') {
      edges[i].setAttribute('class','edge');
    }
  }
}
]]></script>
        <defs>
                <circle id="rim" cx="0" cy="0" r="7"/>
                <circle id="rim2" cx="0" cy="0" r="3.5"/>
                <g id="zoomPlus">
                        <use xlink:href="#rim" fill="#404040">
                                <set attributeName="fill" to="#808080" begin="zoomplus.mouseover" end="zoomplus.mouseout"/>
                        </use>
                        <path d="M-4,0h8M0,-4v8" fill="none" stroke="white" stroke-width="1.5" pointer-events="none"/>
                </g>
                <g id="zoomMin">
                        <use xlink:href="#rim" fill="#404040">
                                <set attributeName="fill" to="#808080" begin="zoomminus.mouseover" end="zoomminus.mouseout"/>
                        </use>
                        <path d="M-4,0h8" fill="none" stroke="white" stroke-width="1.5" pointer-events="none"/>
                </g>
                <g id="dirArrow">
                        <path fill="none" stroke="white" stroke-width="1.5" d="M0,-3.0v7 M-2.5,-0.5L0,-3.0L2.5,-0.5"/>
                </g>
               <g id="resetDef">
                       <use xlink:href="#rim2" fill="#404040">
                               <set attributeName="fill" to="#808080" begin="reset.mouseover" end="reset.mouseout"/>
                       </use>
               </g>
        </defs>

<script type="text/javascript">
var viewWidth = 514;
var viewHeight = 313;
var sectionId = 'dynsection-2';
</script>
<script xlink:href="svgpan.js"/>
<svg id="graph" class="graph">
<g id="viewport">
<title>fromXML</title>
<!-- Node1 -->
<g id="node1" class="node"><title>Node1</title>
<g id="a_node1"><a xlink:title=" ">
<polygon fill="#999999" stroke="#666666" points="54,-165 0,-165 0,-146 54,-146 54,-165"/>
<text text-anchor="middle" x="27" y="-153" font-family="Helvetica,sans-Serif" font-size="10.00">fromXML</text>
</a>
</g>
</g>
<!-- Node2 -->
<g id="node2" class="node"><title>Node2</title>
<g id="a_node2"><a xlink:href="classore_1_1data_1_1_x_m_l_utils.html#a37c092916f4bdf10d4fbf6bb9e474db7" target="_top" xlink:title=" ">
<polygon fill="white" stroke="#666666" points="210,-304.5 111,-304.5 111,-274.5 210,-274.5 210,-304.5"/>
<text text-anchor="start" x="119" y="-292.5" font-family="Helvetica,sans-Serif" font-size="10.00">ore::data::XMLUtils</text>
<text text-anchor="middle" x="160.5" y="-281.5" font-family="Helvetica,sans-Serif" font-size="10.00">::checkNode</text>
</a>
</g>
</g>
<!-- Node1&#45;&gt;Node2 -->
<g id="edge1" class="edge"><title>Node1&#45;&gt;Node2</title>
<path fill="none" stroke="#63b8ff" d="M30.8692,-165.277C37.6154,-186.59 56.4948,-237.563 90,-265.5 93.5142,-268.43 97.4067,-271.01 101.503,-273.281"/>
<polygon fill="#63b8ff" stroke="#63b8ff" points="100.204,-276.542 110.727,-277.773 103.269,-270.248 100.204,-276.542"/>
</g>
<!-- Node3 -->
<g id="node3" class="node"><title>Node3</title>
<g id="a_node3"><a xlink:href="classore_1_1data_1_1_x_m_l_utils.html#a5f2b91a4af900e85c356cfe807e64501" target="_top" xlink:title=" ">
<polygon fill="white" stroke="#666666" points="210,-256.5 111,-256.5 111,-226.5 210,-226.5 210,-256.5"/>
<text text-anchor="start" x="119" y="-244.5" font-family="Helvetica,sans-Serif" font-size="10.00">ore::data::XMLUtils</text>
<text text-anchor="middle" x="160.5" y="-233.5" font-family="Helvetica,sans-Serif" font-size="10.00">::getChildNode</text>
</a>
</g>
</g>
<!-- Node1&#45;&gt;Node3 -->
<g id="edge2" class="edge"><title>Node1&#45;&gt;Node3</title>
<path fill="none" stroke="#63b8ff" d="M36.4129,-165.077C47.6302,-177.381 68.572,-198.785 90,-212.5 95.4199,-215.969 101.325,-219.176 107.328,-222.094"/>
<polygon fill="#63b8ff" stroke="#63b8ff" points="106.238,-225.445 116.786,-226.436 109.159,-219.083 106.238,-225.445"/>
</g>
<!-- Node4 -->
<g id="node4" class="node"><title>Node4</title>
<g id="a_node4"><a xlink:href="classore_1_1data_1_1_x_m_l_utils.html#a5a1307174ddefdb3aad6e3bd8cc63b27" target="_top" xlink:title=" ">
<polygon fill="white" stroke="#666666" points="368.5,-213.5 269.5,-213.5 269.5,-183.5 368.5,-183.5 368.5,-213.5"/>
<text text-anchor="start" x="277.5" y="-201.5" font-family="Helvetica,sans-Serif" font-size="10.00">ore::data::XMLUtils</text>
<text text-anchor="middle" x="319" y="-190.5" font-family="Helvetica,sans-Serif" font-size="10.00">::getChildValue</text>
</a>
</g>
</g>
<!-- Node1&#45;&gt;Node4 -->
<g id="edge3" class="edge"><title>Node1&#45;&gt;Node4</title>
<path fill="none" stroke="#63b8ff" d="M48.2018,-165.015C60.1025,-170.186 75.6025,-176.186 90,-179.5 146.499,-192.505 212.69,-196.857 259.154,-198.195"/>
<polygon fill="#63b8ff" stroke="#63b8ff" points="259.261,-201.699 269.345,-198.449 259.435,-194.701 259.261,-201.699"/>
</g>
<!-- Node6 -->
<g id="node6" class="node"><title>Node6</title>
<g id="a_node6"><a xlink:href="classore_1_1data_1_1_x_m_l_utils.html#a5dc9d9e82028f69de452d27da6b43db0" target="_top" xlink:title=" ">
<polygon fill="white" stroke="#666666" points="217.5,-170.5 103.5,-170.5 103.5,-140.5 217.5,-140.5 217.5,-170.5"/>
<text text-anchor="start" x="111.5" y="-158.5" font-family="Helvetica,sans-Serif" font-size="10.00">ore::data::XMLUtils</text>
<text text-anchor="middle" x="160.5" y="-147.5" font-family="Helvetica,sans-Serif" font-size="10.00">::getChildValueAsBool</text>
</a>
</g>
</g>
<!-- Node1&#45;&gt;Node6 -->
<g id="edge5" class="edge"><title>Node1&#45;&gt;Node6</title>
<path fill="none" stroke="#63b8ff" d="M54.2949,-155.5C65.6337,-155.5 79.4566,-155.5 93.3058,-155.5"/>
<polygon fill="#63b8ff" stroke="#63b8ff" points="93.3597,-159 103.36,-155.5 93.3596,-152 93.3597,-159"/>
</g>
<!-- Node8 -->
<g id="node8" class="node"><title>Node8</title>
<g id="a_node8"><a xlink:href="classore_1_1data_1_1_leg_additional_data.html#a3d64443d0286cde7f8dc6bc41efb78d0" target="_top" xlink:title=" ">
<polygon fill="white" stroke="#666666" points="220,-122.5 101,-122.5 101,-92.5 220,-92.5 220,-122.5"/>
<text text-anchor="start" x="109" y="-110.5" font-family="Helvetica,sans-Serif" font-size="10.00">ore::data::LegAdditional</text>
<text text-anchor="middle" x="160.5" y="-99.5" font-family="Helvetica,sans-Serif" font-size="10.00">Data::legNodeName</text>
</a>
</g>
</g>
<!-- Node1&#45;&gt;Node8 -->
<g id="edge9" class="edge"><title>Node1&#45;&gt;Node8</title>
<path fill="none" stroke="#63b8ff" d="M52.0659,-145.947C63.5183,-141.462 77.427,-136.103 90,-131.5 94.8941,-129.708 99.995,-127.878 105.112,-126.066"/>
<polygon fill="#63b8ff" stroke="#63b8ff" points="106.647,-129.237 114.923,-122.621 104.328,-122.632 106.647,-129.237"/>
</g>
<!-- Node9 -->
<g id="node9" class="node"><title>Node9</title>
<g id="a_node9"><a xlink:href="group__utilities.html#ga71937c757a73b33221be6ce6a8046839" target="_top" xlink:title="Convert text to QuantLib::Position::Type.">
<polygon fill="white" stroke="#666666" points="231,-74 90,-74 90,-55 231,-55 231,-74"/>
<text text-anchor="middle" x="160.5" y="-62" font-family="Helvetica,sans-Serif" font-size="10.00">ore::data::parsePositionType</text>
</a>
</g>
</g>
<!-- Node1&#45;&gt;Node9 -->
<g id="edge10" class="edge"><title>Node1&#45;&gt;Node9</title>
<path fill="none" stroke="#63b8ff" d="M33.5532,-145.969C43.0844,-130.469 64.0595,-99.8856 90,-83.5 93.3545,-81.3811 96.9446,-79.4956 100.661,-77.8182"/>
<polygon fill="#63b8ff" stroke="#63b8ff" points="102.098,-81.0134 110.094,-74.0628 99.5084,-74.5098 102.098,-81.0134"/>
</g>
<!-- Node10 -->
<g id="node10" class="node"><title>Node10</title>
<g id="a_node10"><a xlink:href="group__utilities.html#gad1db2a68f9a73667c3b4084d63955bdd" target="_top" xlink:title="Convert text to Real.">
<polygon fill="white" stroke="#666666" points="212.5,-19 108.5,-19 108.5,-0 212.5,-0 212.5,-19"/>
<text text-anchor="middle" x="160.5" y="-7" font-family="Helvetica,sans-Serif" font-size="10.00">ore::data::parseReal</text>
</a>
</g>
</g>
<!-- Node1&#45;&gt;Node10 -->
<g id="edge11" class="edge"><title>Node1&#45;&gt;Node10</title>
<path fill="none" stroke="#63b8ff" d="M31.2964,-145.762C38.7605,-124.962 58.7707,-75.6453 90,-45.5 99.566,-36.2661 111.972,-28.8318 123.65,-23.1703"/>
<polygon fill="#63b8ff" stroke="#63b8ff" points="125.14,-26.3379 132.791,-19.0096 122.24,-19.9668 125.14,-26.3379"/>
</g>
<!-- Node5 -->
<g id="node5" class="node"><title>Node5</title>
<g id="a_node5"><a xlink:href="classore_1_1data_1_1_x_m_l_utils.html#a6704501b110fa9d056096df3e05f0df2" target="_top" xlink:title="Get a node&#39;s value.">
<polygon fill="white" stroke="#666666" points="506,-213.5 407,-213.5 407,-183.5 506,-183.5 506,-213.5"/>
<text text-anchor="start" x="415" y="-201.5" font-family="Helvetica,sans-Serif" font-size="10.00">ore::data::XMLUtils</text>
<text text-anchor="middle" x="456.5" y="-190.5" font-family="Helvetica,sans-Serif" font-size="10.00">::getNodeValue</text>
</a>
</g>
</g>
<!-- Node4&#45;&gt;Node5 -->
<g id="edge4" class="edge"><title>Node4&#45;&gt;Node5</title>
<path fill="none" stroke="#63b8ff" d="M368.536,-198.5C377.682,-198.5 387.337,-198.5 396.755,-198.5"/>
<polygon fill="#63b8ff" stroke="#63b8ff" points="396.848,-202 406.848,-198.5 396.848,-195 396.848,-202"/>
</g>
<!-- Node6&#45;&gt;Node4 -->
<g id="edge6" class="edge"><title>Node6&#45;&gt;Node4</title>
<path fill="none" stroke="#63b8ff" d="M216.236,-170.539C230.273,-174.396 245.423,-178.559 259.636,-182.464"/>
<polygon fill="#63b8ff" stroke="#63b8ff" points="258.73,-185.845 269.3,-185.119 260.585,-179.095 258.73,-185.845"/>
</g>
<!-- Node7 -->
<g id="node7" class="node"><title>Node7</title>
<g id="a_node7"><a xlink:href="group__utilities.html#ga94621f11193864fa1338296232dc5be9" target="_top" xlink:title="Convert text to bool.">
<polygon fill="white" stroke="#666666" points="371,-147 267,-147 267,-128 371,-128 371,-147"/>
<text text-anchor="middle" x="319" y="-135" font-family="Helvetica,sans-Serif" font-size="10.00">ore::data::parseBool</text>
</a>
</g>
</g>
<!-- Node6&#45;&gt;Node7 -->
<g id="edge7" class="edge"><title>Node6&#45;&gt;Node7</title>
<path fill="none" stroke="#63b8ff" d="M217.558,-149.052C230.223,-147.596 243.733,-146.042 256.605,-144.561"/>
<polygon fill="#63b8ff" stroke="#63b8ff" points="257.227,-148.013 266.762,-143.393 256.428,-141.059 257.227,-148.013"/>
</g>
<!-- Node7&#45;&gt;Node7 -->
<g id="edge8" class="edge"><title>Node7&#45;&gt;Node7</title>
<path fill="none" stroke="#63b8ff" d="M298.038,-147.083C287.841,-155.734 294.828,-165 319,-165 334.485,-165 342.918,-161.197 344.298,-156.189"/>
<polygon fill="#63b8ff" stroke="#63b8ff" points="347.421,-154.607 339.962,-147.083 341.1,-157.616 347.421,-154.607"/>
</g>
<!-- Node10&#45;&gt;Node10 -->
<g id="edge12" class="edge"><title>Node10&#45;&gt;Node10</title>
<path fill="none" stroke="#63b8ff" d="M140.155,-19.0828C130.257,-27.7337 137.039,-37 160.5,-37 175.53,-37 183.714,-33.1971 185.053,-28.1894"/>
<polygon fill="#63b8ff" stroke="#63b8ff" points="188.217,-26.6921 180.845,-19.0828 181.863,-29.6287 188.217,-26.6921"/>
</g>
</g>
</svg>
        <g id="navigator" transform="translate(0 0)" fill="#404254">
                <rect fill="#f2f5e9" fill-opacity="0.5" stroke="#606060" stroke-width=".5" x="0" y="0" width="60" height="60"/>
                <use id="zoomplus" xlink:href="#zoomPlus" x="17" y="9" onmousedown="handleZoom(evt,'in')"/>
                <use id="zoomminus" xlink:href="#zoomMin" x="42" y="9" onmousedown="handleZoom(evt,'out')"/>
                <use id="reset" xlink:href="#resetDef" x="30" y="36" onmousedown="handleReset()"/>
                <g id="arrowUp" xlink:href="#dirArrow" transform="translate(30 24)" onmousedown="handlePan(0,-1)">
                  <use xlink:href="#rim" fill="#404040">
                        <set attributeName="fill" to="#808080" begin="arrowUp.mouseover" end="arrowUp.mouseout"/>
                  </use>
                  <path fill="none" stroke="white" stroke-width="1.5" d="M0,-3.0v7 M-2.5,-0.5L0,-3.0L2.5,-0.5"/>
                </g>
                <g id="arrowRight" xlink:href="#dirArrow" transform="rotate(90) translate(36 -43)" onmousedown="handlePan(1,0)">
                  <use xlink:href="#rim" fill="#404040">
                        <set attributeName="fill" to="#808080" begin="arrowRight.mouseover" end="arrowRight.mouseout"/>
                  </use>
                  <path fill="none" stroke="white" stroke-width="1.5" d="M0,-3.0v7 M-2.5,-0.5L0,-3.0L2.5,-0.5"/>
                </g>
                <g id="arrowDown" xlink:href="#dirArrow" transform="rotate(180) translate(-30 -48)" onmousedown="handlePan(0,1)">
                  <use xlink:href="#rim" fill="#404040">
                        <set attributeName="fill" to="#808080" begin="arrowDown.mouseover" end="arrowDown.mouseout"/>
                  </use>
                  <path fill="none" stroke="white" stroke-width="1.5" d="M0,-3.0v7 M-2.5,-0.5L0,-3.0L2.5,-0.5"/>
                </g>
                <g id="arrowLeft" xlink:href="#dirArrow" transform="rotate(270) translate(-36 17)" onmousedown="handlePan(-1,0)">
                  <use xlink:href="#rim" fill="#404040">
                        <set attributeName="fill" to="#808080" begin="arrowLeft.mouseover" end="arrowLeft.mouseout"/>
                  </use>
                  <path fill="none" stroke="white" stroke-width="1.5" d="M0,-3.0v7 M-2.5,-0.5L0,-3.0L2.5,-0.5"/>
                </g>
        </g>
        <svg viewBox="0 0 15 15" width="100%" height="30px" preserveAspectRatio="xMaxYMin meet">
         <g id="arrow_out" transform="scale(0.3 0.3)">
          <a xlink:href="classore_1_1data_1_1_digital_c_m_s_leg_data_a7741ae0fc924943de5bfe02928262eb7_cgraph_org.svg" target="_base">
           <rect id="button" ry="5" rx="5" y="6" x="6" height="38" width="38"
                fill="#f2f5e9" fill-opacity="0.5" stroke="#606060" stroke-width="1.0"/>
           <path id="arrow"
             d="M 11.500037,31.436501 C 11.940474,20.09759 22.043105,11.32322 32.158766,21.979434 L 37.068811,17.246167 C 37.068811,17.246167 37.088388,32 37.088388,32 L 22.160133,31.978069 C 22.160133,31.978069 26.997745,27.140456 26.997745,27.140456 C 18.528582,18.264221 13.291696,25.230495 11.500037,31.436501 z"
             style="fill:#404040;"/>
          </a>
         </g>
        </svg>
</svg>
