<?xml version="1.0" encoding="UTF-8" standalone="no"?>
<!DOCTYPE svg PUBLIC "-//W3C//DTD SVG 1.1//EN"
 "http://www.w3.org/Graphics/SVG/1.1/DTD/svg11.dtd">
<!-- Generated by graphviz version 2.38.0 (20140413.2041)
 -->
<!-- Title: InflationCapFloorVolCurve Pages: 1 -->
<!--zoomable 521 -->
<svg id="main" version="1.1" xmlns="http://www.w3.org/2000/svg" xmlns:xlink="http://www.w3.org/1999/xlink" xml:space="preserve" onload="init(evt)">
<style type="text/css"><![CDATA[
.edge:hover path { stroke: red; }
.edge:hover polygon { stroke: red; fill: red; }
]]></style>
<script type="text/javascript"><![CDATA[
var edges = document.getElementsByTagName('g');
if (edges && edges.length) {
  for (var i=0;i<edges.length;i++) {
    if (edges[i].id.substr(0,4)=='edge') {
      edges[i].setAttribute('class','edge');
    }
  }
}
]]></script>
        <defs>
                <circle id="rim" cx="0" cy="0" r="7"/>
                <circle id="rim2" cx="0" cy="0" r="3.5"/>
                <g id="zoomPlus">
                        <use xlink:href="#rim" fill="#404040">
                                <set attributeName="fill" to="#808080" begin="zoomplus.mouseover" end="zoomplus.mouseout"/>
                        </use>
                        <path d="M-4,0h8M0,-4v8" fill="none" stroke="white" stroke-width="1.5" pointer-events="none"/>
                </g>
                <g id="zoomMin">
                        <use xlink:href="#rim" fill="#404040">
                                <set attributeName="fill" to="#808080" begin="zoomminus.mouseover" end="zoomminus.mouseout"/>
                        </use>
                        <path d="M-4,0h8" fill="none" stroke="white" stroke-width="1.5" pointer-events="none"/>
                </g>
                <g id="dirArrow">
                        <path fill="none" stroke="white" stroke-width="1.5" d="M0,-3.0v7 M-2.5,-0.5L0,-3.0L2.5,-0.5"/>
                </g>
               <g id="resetDef">
                       <use xlink:href="#rim2" fill="#404040">
                               <set attributeName="fill" to="#808080" begin="reset.mouseover" end="reset.mouseout"/>
                       </use>
               </g>
        </defs>

<script type="text/javascript">
var viewWidth = 796;
var viewHeight = 521;
var sectionId = 'dynsection-1';
</script>
<script xlink:href="svgpan.js"/>
<svg id="graph" class="graph">
<g id="viewport">
<title>InflationCapFloorVolCurve</title>
<!-- Node1 -->
<g id="node1" class="node"><title>Node1</title>
<g id="a_node1"><a xlink:title=" ">
<polygon fill="#999999" stroke="#666666" points="127,-149 -7.10543e-015,-149 -7.10543e-015,-130 127,-130 127,-149"/>
<text text-anchor="middle" x="63.5" y="-137" font-family="Helvetica,sans-Serif" font-size="10.00">InflationCapFloorVolCurve</text>
</a>
</g>
</g>
<!-- Node2 -->
<g id="node2" class="node"><title>Node2</title>
<g id="a_node2"><a xlink:href="classore_1_1data_1_1_inflation_cap_floor_vol_curve.html#acc947c79d75150ea99503fea7de9f868" target="_top" xlink:title=" ">
<polygon fill="white" stroke="#666666" points="260,-284 173,-284 173,-265 260,-265 260,-284"/>
<text text-anchor="middle" x="216.5" y="-272" font-family="Helvetica,sans-Serif" font-size="10.00">buildFromPrices</text>
</a>
</g>
</g>
<!-- Node1&#45;&gt;Node2 -->
<g id="edge1" class="edge"><title>Node1&#45;&gt;Node2</title>
<path fill="none" stroke="#63b8ff" d="M75.3595,-149.209C100.935,-172.074 165.193,-229.524 197.031,-257.988"/>
<polygon fill="#63b8ff" stroke="#63b8ff" points="194.951,-260.823 204.739,-264.879 199.617,-255.605 194.951,-260.823"/>
</g>
<!-- Node11 -->
<g id="node11" class="node"><title>Node11</title>
<g id="a_node11"><a xlink:href="classore_1_1data_1_1_curve_spec.html#afa7a10b4b56522f03c698ac514b0f844" target="_top" xlink:title="returns the unique curve name">
<polygon fill="white" stroke="#666666" points="429.5,-153.5 322.5,-153.5 322.5,-123.5 429.5,-123.5 429.5,-153.5"/>
<text text-anchor="start" x="330.5" y="-141.5" font-family="Helvetica,sans-Serif" font-size="10.00">ore::data::CurveSpec</text>
<text text-anchor="middle" x="376" y="-130.5" font-family="Helvetica,sans-Serif" font-size="10.00">::name</text>
</a>
</g>
</g>
<!-- Node1&#45;&gt;Node11 -->
<g id="edge33" class="edge"><title>Node1&#45;&gt;Node11</title>
<path fill="none" stroke="#63b8ff" d="M127.334,-139.298C181.189,-139.124 258.372,-138.876 312.213,-138.702"/>
<polygon fill="#63b8ff" stroke="#63b8ff" points="312.331,-142.202 322.32,-138.67 312.308,-135.202 312.331,-142.202"/>
</g>
<!-- Node19 -->
<g id="node19" class="node"><title>Node19</title>
<g id="a_node19"><a xlink:href="classore_1_1data_1_1_inflation_cap_floor_vol_curve.html#a6db03d465cb772db36c7c24985edcfeb" target="_top" xlink:title=" ">
<polygon fill="white" stroke="#666666" points="395,-19 357,-19 357,-0 395,-0 395,-19"/>
<text text-anchor="middle" x="376" y="-7" font-family="Helvetica,sans-Serif" font-size="10.00">spec</text>
</a>
</g>
</g>
<!-- Node1&#45;&gt;Node19 -->
<g id="edge34" class="edge"><title>Node1&#45;&gt;Node19</title>
<path fill="none" stroke="#63b8ff" d="M127.449,-133.649C170.903,-126.994 228.166,-112.79 270,-82.5 293.363,-65.5839 282.621,-45.3943 306,-28.5 317.84,-19.944 333.358,-15.2393 346.679,-12.6532"/>
<polygon fill="#63b8ff" stroke="#63b8ff" points="347.475,-16.0695 356.778,-11.0002 346.344,-9.16144 347.475,-16.0695"/>
</g>
<!-- Node20 -->
<g id="node20" class="node"><title>Node20</title>
<g id="a_node20"><a xlink:href="classore_1_1data_1_1_inflation_cap_floor_vol_curve.html#a82405c2b4ff01f1c8c3a89928dd84129" target="_top" xlink:title=" ">
<polygon fill="white" stroke="#666666" points="268.5,-189 164.5,-189 164.5,-170 268.5,-170 268.5,-189"/>
<text text-anchor="middle" x="216.5" y="-177" font-family="Helvetica,sans-Serif" font-size="10.00">buildFromVolatilities</text>
</a>
</g>
</g>
<!-- Node1&#45;&gt;Node20 -->
<g id="edge22" class="edge"><title>Node1&#45;&gt;Node20</title>
<path fill="none" stroke="#63b8ff" d="M100.668,-149.081C121.4,-154.573 147.62,-161.519 169.771,-167.386"/>
<polygon fill="#63b8ff" stroke="#63b8ff" points="169.064,-170.82 179.627,-169.997 170.857,-164.053 169.064,-170.82"/>
</g>
<!-- Node23 -->
<g id="node23" class="node"><title>Node23</title>
<g id="a_node23"><a xlink:href="classore_1_1data_1_1_curve_spec.html#a15e57a287887def554123ab18355c33c" target="_top" xlink:title=" ">
<polygon fill="white" stroke="#666666" points="270,-73.5 163,-73.5 163,-43.5 270,-43.5 270,-73.5"/>
<text text-anchor="start" x="171" y="-61.5" font-family="Helvetica,sans-Serif" font-size="10.00">ore::data::CurveSpec</text>
<text text-anchor="middle" x="216.5" y="-50.5" font-family="Helvetica,sans-Serif" font-size="10.00">::curveConfigID</text>
</a>
</g>
</g>
<!-- Node1&#45;&gt;Node23 -->
<g id="edge32" class="edge"><title>Node1&#45;&gt;Node23</title>
<path fill="none" stroke="#63b8ff" d="M82.4146,-129.89C105.92,-117.282 147.757,-94.8387 178.265,-78.4739"/>
<polygon fill="#63b8ff" stroke="#63b8ff" points="180.178,-81.4192 187.336,-73.6078 176.869,-75.2507 180.178,-81.4192"/>
</g>
<!-- Node3 -->
<g id="node3" class="node"><title>Node3</title>
<g id="a_node3"><a target="_parent" xlink:href="../qle/namespace_quant_ext.html#a1cab4fb6a720eff245acb9f3a7a9e7c5" xlink:title=" ">
<polygon fill="white" stroke="#666666" points="438,-513 314,-513 314,-494 438,-494 438,-513"/>
<text text-anchor="middle" x="376" y="-501" font-family="Helvetica,sans-Serif" font-size="10.00">QuantExt::close_enough</text>
</a>
</g>
</g>
<!-- Node2&#45;&gt;Node3 -->
<g id="edge2" class="edge"><title>Node2&#45;&gt;Node3</title>
<path fill="none" stroke="#63b8ff" d="M218.559,-284.227C222.739,-317.719 241.178,-429.284 306,-485.5 307.35,-486.671 308.768,-487.767 310.241,-488.793"/>
<polygon fill="#63b8ff" stroke="#63b8ff" points="308.782,-491.992 319.197,-493.936 312.268,-485.921 308.782,-491.992"/>
</g>
<!-- Node4 -->
<g id="node4" class="node"><title>Node4</title>
<g id="a_node4"><a xlink:href="classore_1_1data_1_1_loader.html#a19d9f6f808db2631247ec12ffe291225" target="_top" xlink:title="get quote by its unique name, throws if not existent, override in derived classes for performance">
<polygon fill="white" stroke="#666666" points="431,-266 321,-266 321,-247 431,-247 431,-266"/>
<text text-anchor="middle" x="376" y="-254" font-family="Helvetica,sans-Serif" font-size="10.00">ore::data::Loader::get</text>
</a>
</g>
</g>
<!-- Node2&#45;&gt;Node4 -->
<g id="edge3" class="edge"><title>Node2&#45;&gt;Node4</title>
<path fill="none" stroke="#63b8ff" d="M260.122,-269.629C275.588,-267.861 293.427,-265.823 310.366,-263.887"/>
<polygon fill="#63b8ff" stroke="#63b8ff" points="311.229,-267.311 320.767,-262.698 310.435,-260.356 311.229,-267.311"/>
</g>
<!-- Node6 -->
<g id="node6" class="node"><title>Node6</title>
<g id="a_node6"><a xlink:href="namespaceore_1_1data.html#ae91b9dc1b2c7a502a7fd8b3351d2b759" target="_top" xlink:title=" ">
<polygon fill="white" stroke="#666666" points="440,-229 312,-229 312,-210 440,-210 440,-229"/>
<text text-anchor="middle" x="376" y="-217" font-family="Helvetica,sans-Serif" font-size="10.00">ore::data::getStartAndLag</text>
</a>
</g>
</g>
<!-- Node2&#45;&gt;Node6 -->
<g id="edge5" class="edge"><title>Node2&#45;&gt;Node6</title>
<path fill="none" stroke="#63b8ff" d="M237.927,-264.992C255.665,-256.971 282.175,-245.544 306,-237.5 312.004,-235.473 318.366,-233.537 324.702,-231.737"/>
<polygon fill="#63b8ff" stroke="#63b8ff" points="325.866,-235.047 334.583,-229.025 324.013,-228.296 325.866,-235.047"/>
</g>
<!-- Node9 -->
<g id="node9" class="node"><title>Node9</title>
<g id="a_node9"><a xlink:href="group__utilities.html#ga03699115fbdbcf46b6351c3735fdec87" target="_top" xlink:title="Convert std::string to QuantLib::ZeroInflationIndex.">
<polygon fill="white" stroke="#666666" points="788,-330.5 651,-330.5 651,-300.5 788,-300.5 788,-330.5"/>
<text text-anchor="start" x="659" y="-318.5" font-family="Helvetica,sans-Serif" font-size="10.00">ore::data::parseZeroInflation</text>
<text text-anchor="middle" x="719.5" y="-307.5" font-family="Helvetica,sans-Serif" font-size="10.00">Index</text>
</a>
</g>
</g>
<!-- Node2&#45;&gt;Node9 -->
<g id="edge19" class="edge"><title>Node2&#45;&gt;Node9</title>
<path fill="none" stroke="#63b8ff" d="M223.397,-284.103C235.894,-303.499 267.111,-347.147 306,-366.5 376.526,-401.598 403.362,-382.825 482,-387.5 541.007,-391.008 558.598,-405.189 615,-387.5 646.206,-377.713 676.243,-354.824 695.844,-337.461"/>
<polygon fill="#63b8ff" stroke="#63b8ff" points="698.29,-339.968 703.328,-330.647 693.577,-334.791 698.29,-339.968"/>
</g>
<!-- Node2&#45;&gt;Node11 -->
<g id="edge10" class="edge"><title>Node2&#45;&gt;Node11</title>
<path fill="none" stroke="#63b8ff" d="M228.575,-264.937C253.532,-243.387 314.702,-190.567 349.571,-160.458"/>
<polygon fill="#63b8ff" stroke="#63b8ff" points="352.137,-162.867 357.418,-153.682 347.562,-157.569 352.137,-162.867"/>
</g>
<!-- Node16 -->
<g id="node16" class="node"><title>Node16</title>
<g id="a_node16"><a xlink:href="group__utilities.html#ga8e0623e2cb01e250e9cfec4619256208" target="_top" xlink:title="Convert text to QuantLib::Period.">
<polygon fill="white" stroke="#666666" points="432.5,-358 319.5,-358 319.5,-339 432.5,-339 432.5,-358"/>
<text text-anchor="middle" x="376" y="-346" font-family="Helvetica,sans-Serif" font-size="10.00">ore::data::parsePeriod</text>
</a>
</g>
</g>
<!-- Node2&#45;&gt;Node16 -->
<g id="edge16" class="edge"><title>Node2&#45;&gt;Node16</title>
<path fill="none" stroke="#63b8ff" d="M230.335,-284.14C246.992,-296.249 277.328,-316.957 306,-329.5 311.396,-331.861 317.16,-333.999 322.971,-335.915"/>
<polygon fill="#63b8ff" stroke="#63b8ff" points="322.148,-339.325 332.736,-338.933 324.215,-332.637 322.148,-339.325"/>
</g>
<!-- Node17 -->
<g id="node17" class="node"><title>Node17</title>
<g id="a_node17"><a xlink:href="group__utilities.html#gad1db2a68f9a73667c3b4084d63955bdd" target="_top" xlink:title="Convert text to Real.">
<polygon fill="white" stroke="#666666" points="428,-303 324,-303 324,-284 428,-284 428,-303"/>
<text text-anchor="middle" x="376" y="-291" font-family="Helvetica,sans-Serif" font-size="10.00">ore::data::parseReal</text>
</a>
</g>
</g>
<!-- Node2&#45;&gt;Node17 -->
<g id="edge17" class="edge"><title>Node2&#45;&gt;Node17</title>
<path fill="none" stroke="#63b8ff" d="M260.122,-279.642C276.648,-281.635 295.885,-283.956 313.837,-286.122"/>
<polygon fill="#63b8ff" stroke="#63b8ff" points="313.592,-289.617 323.939,-287.34 314.43,-282.668 313.592,-289.617"/>
</g>
<!-- Node18 -->
<g id="node18" class="node"><title>Node18</title>
<g id="a_node18"><a target="_parent" xlink:href="../qle/class_quant_ext_1_1_interpolated_yo_y_cap_floor_term_price_surface.html#af67f3fb37ec467b3560fbc0542524a94" xlink:title=" ">
<polygon fill="white" stroke="#666666" points="446,-476 306,-476 306,-435 446,-435 446,-476"/>
<text text-anchor="start" x="314" y="-464" font-family="Helvetica,sans-Serif" font-size="10.00">QuantExt::InterpolatedYo</text>
<text text-anchor="start" x="314" y="-453" font-family="Helvetica,sans-Serif" font-size="10.00">YCapFloorTermPriceSurface</text>
<text text-anchor="middle" x="376" y="-442" font-family="Helvetica,sans-Serif" font-size="10.00">::setMaturities</text>
</a>
</g>
</g>
<!-- Node2&#45;&gt;Node18 -->
<g id="edge20" class="edge"><title>Node2&#45;&gt;Node18</title>
<path fill="none" stroke="#63b8ff" d="M221.185,-284.282C231.204,-309.745 261.226,-378.985 306,-420.5 309.36,-423.615 313.049,-426.521 316.921,-429.219"/>
<polygon fill="#63b8ff" stroke="#63b8ff" points="315.32,-432.351 325.63,-434.793 319.093,-426.454 315.32,-432.351"/>
</g>
<!-- Node2&#45;&gt;Node19 -->
<g id="edge21" class="edge"><title>Node2&#45;&gt;Node19</title>
<path fill="none" stroke="#63b8ff" d="M225.997,-264.786C237.717,-250.862 258.675,-223.98 270,-197.5 300.199,-126.891 253.317,-84.3766 306,-28.5 316.392,-17.4778 332.536,-12.6448 346.596,-10.6058"/>
<polygon fill="#63b8ff" stroke="#63b8ff" points="347.232,-14.0585 356.812,-9.5349 346.502,-7.0966 347.232,-14.0585"/>
</g>
<!-- Node5 -->
<g id="node5" class="node"><title>Node5</title>
<g id="a_node5"><a xlink:href="classore_1_1data_1_1_loader.html#a0086c4f946085ef0b9d5c56bd1539f91" target="_top" xlink:title="get all quotes, TODO change the return value to std::set">
<polygon fill="white" stroke="#666666" points="596.5,-378.5 500.5,-378.5 500.5,-348.5 596.5,-348.5 596.5,-378.5"/>
<text text-anchor="start" x="508.5" y="-366.5" font-family="Helvetica,sans-Serif" font-size="10.00">ore::data::Loader::</text>
<text text-anchor="middle" x="548.5" y="-355.5" font-family="Helvetica,sans-Serif" font-size="10.00">loadQuotes</text>
</a>
</g>
</g>
<!-- Node4&#45;&gt;Node5 -->
<g id="edge4" class="edge"><title>Node4&#45;&gt;Node5</title>
<path fill="none" stroke="#63b8ff" d="M431.036,-265.916C436.392,-268.19 441.501,-271.008 446,-274.5 472.087,-294.75 456.915,-318.021 482,-339.5 484.883,-341.969 488.043,-344.193 491.367,-346.195"/>
<polygon fill="#63b8ff" stroke="#63b8ff" points="489.997,-349.43 500.476,-350.993 493.259,-343.236 489.997,-349.43"/>
</g>
<!-- Node7 -->
<g id="node7" class="node"><title>Node7</title>
<g id="a_node7"><a xlink:href="namespaceore_1_1data.html#a4cabef9f8164c42065e1fabfc11a6d32" target="_top" xlink:title=" ">
<polygon fill="white" stroke="#666666" points="614,-234.5 483,-234.5 483,-204.5 614,-204.5 614,-234.5"/>
<text text-anchor="start" x="491" y="-222.5" font-family="Helvetica,sans-Serif" font-size="10.00">ore::data::getInflationSwap</text>
<text text-anchor="middle" x="548.5" y="-211.5" font-family="Helvetica,sans-Serif" font-size="10.00">Start</text>
</a>
</g>
</g>
<!-- Node6&#45;&gt;Node7 -->
<g id="edge6" class="edge"><title>Node6&#45;&gt;Node7</title>
<path fill="none" stroke="#63b8ff" d="M440.003,-219.5C450.571,-219.5 461.629,-219.5 472.463,-219.5"/>
<polygon fill="#63b8ff" stroke="#63b8ff" points="472.759,-223 482.759,-219.5 472.759,-216 472.759,-223"/>
</g>
<!-- Node8 -->
<g id="node8" class="node"><title>Node8</title>
<g id="a_node8"><a xlink:href="classore_1_1data_1_1_inflation_swap_convention.html#a2392b45349335b95cb7390d30a076e49" target="_top" xlink:title=" ">
<polygon fill="white" stroke="#666666" points="607.5,-330.5 489.5,-330.5 489.5,-300.5 607.5,-300.5 607.5,-330.5"/>
<text text-anchor="start" x="497.5" y="-318.5" font-family="Helvetica,sans-Serif" font-size="10.00">ore::data::InflationSwap</text>
<text text-anchor="middle" x="548.5" y="-307.5" font-family="Helvetica,sans-Serif" font-size="10.00">Convention::index</text>
</a>
</g>
</g>
<!-- Node6&#45;&gt;Node8 -->
<g id="edge7" class="edge"><title>Node6&#45;&gt;Node8</title>
<path fill="none" stroke="#63b8ff" d="M430.047,-229.01C435.709,-231.264 441.16,-234.052 446,-237.5 469.493,-254.236 459.338,-273.656 482,-291.5 483.606,-292.764 485.284,-293.966 487.019,-295.108"/>
<polygon fill="#63b8ff" stroke="#63b8ff" points="485.675,-298.373 496.087,-300.335 489.171,-292.309 485.675,-298.373"/>
</g>
<!-- Node10 -->
<g id="node10" class="node"><title>Node10</title>
<g id="a_node10"><a xlink:href="classore_1_1data_1_1_inflation_swap_convention.html#a21f04ffd173fd3a4f3fab4896d6bcf0c" target="_top" xlink:title=" ">
<polygon fill="white" stroke="#666666" points="615,-282.5 482,-282.5 482,-252.5 615,-252.5 615,-282.5"/>
<text text-anchor="start" x="490" y="-270.5" font-family="Helvetica,sans-Serif" font-size="10.00">ore::data::InflationSwap</text>
<text text-anchor="middle" x="548.5" y="-259.5" font-family="Helvetica,sans-Serif" font-size="10.00">Convention::publicationRoll</text>
</a>
</g>
</g>
<!-- Node6&#45;&gt;Node10 -->
<g id="edge9" class="edge"><title>Node6&#45;&gt;Node10</title>
<path fill="none" stroke="#63b8ff" d="M414.66,-229.09C424.849,-231.748 435.862,-234.68 446,-237.5 459.604,-241.284 474.187,-245.499 487.936,-249.546"/>
<polygon fill="#63b8ff" stroke="#63b8ff" points="487.191,-252.976 497.773,-252.455 489.176,-246.263 487.191,-252.976"/>
</g>
<!-- Node8&#45;&gt;Node9 -->
<g id="edge8" class="edge"><title>Node8&#45;&gt;Node9</title>
<path fill="none" stroke="#63b8ff" d="M607.66,-315.5C618.333,-315.5 629.629,-315.5 640.767,-315.5"/>
<polygon fill="#63b8ff" stroke="#63b8ff" points="640.929,-319 650.929,-315.5 640.929,-312 640.929,-319"/>
</g>
<!-- Node12 -->
<g id="node12" class="node"><title>Node12</title>
<g id="a_node12"><a xlink:href="classore_1_1data_1_1_curve_spec.html#a3d24768215bf6280c80eca3930ea3f55" target="_top" xlink:title=" ">
<polygon fill="white" stroke="#666666" points="602,-100.5 495,-100.5 495,-70.5 602,-70.5 602,-100.5"/>
<text text-anchor="start" x="503" y="-88.5" font-family="Helvetica,sans-Serif" font-size="10.00">ore::data::CurveSpec</text>
<text text-anchor="middle" x="548.5" y="-77.5" font-family="Helvetica,sans-Serif" font-size="10.00">::baseName</text>
</a>
</g>
</g>
<!-- Node11&#45;&gt;Node12 -->
<g id="edge11" class="edge"><title>Node11&#45;&gt;Node12</title>
<path fill="none" stroke="#63b8ff" d="M425.402,-123.454C445.29,-117.272 468.491,-110.06 489.295,-103.593"/>
<polygon fill="#63b8ff" stroke="#63b8ff" points="490.466,-106.894 498.977,-100.584 488.388,-100.21 490.466,-106.894"/>
</g>
<!-- Node15 -->
<g id="node15" class="node"><title>Node15</title>
<g id="a_node15"><a xlink:href="classore_1_1data_1_1_curve_spec.html#a471fbcf9df5ab7ac2153495b4c8ac723" target="_top" xlink:title=" ">
<polygon fill="white" stroke="#666666" points="602,-148.5 495,-148.5 495,-118.5 602,-118.5 602,-148.5"/>
<text text-anchor="start" x="503" y="-136.5" font-family="Helvetica,sans-Serif" font-size="10.00">ore::data::CurveSpec</text>
<text text-anchor="middle" x="548.5" y="-125.5" font-family="Helvetica,sans-Serif" font-size="10.00">::subName</text>
</a>
</g>
</g>
<!-- Node11&#45;&gt;Node15 -->
<g id="edge15" class="edge"><title>Node11&#45;&gt;Node15</title>
<path fill="none" stroke="#63b8ff" d="M429.547,-136.959C446.968,-136.448 466.537,-135.874 484.653,-135.343"/>
<polygon fill="#63b8ff" stroke="#63b8ff" points="484.94,-138.836 494.833,-135.044 484.735,-131.839 484.94,-138.836"/>
</g>
<!-- Node13 -->
<g id="node13" class="node"><title>Node13</title>
<g id="a_node13"><a xlink:href="classore_1_1data_1_1_curve_spec.html#a0106d2fb6472e64456c6ebd018aa6300" target="_top" xlink:title=" ">
<polygon fill="white" stroke="#666666" points="773,-79.5 666,-79.5 666,-49.5 773,-49.5 773,-79.5"/>
<text text-anchor="start" x="674" y="-67.5" font-family="Helvetica,sans-Serif" font-size="10.00">ore::data::CurveSpec</text>
<text text-anchor="middle" x="719.5" y="-56.5" font-family="Helvetica,sans-Serif" font-size="10.00">::baseType</text>
</a>
</g>
</g>
<!-- Node12&#45;&gt;Node13 -->
<g id="edge12" class="edge"><title>Node12&#45;&gt;Node13</title>
<path fill="none" stroke="#63b8ff" d="M602.046,-78.9706C619.056,-76.857 638.091,-74.4916 655.764,-72.2956"/>
<polygon fill="#63b8ff" stroke="#63b8ff" points="656.494,-75.7319 665.986,-71.0254 655.631,-68.7853 656.494,-75.7319"/>
</g>
<!-- Node14 -->
<g id="node14" class="node"><title>Node14</title>
<g id="a_node14"><a xlink:href="namespaceore_1_1data.html#a86651dfeb5c18ee891f7a4734d8cf455" target="_top" xlink:title=" ">
<polygon fill="white" stroke="#666666" points="768.5,-117 670.5,-117 670.5,-98 768.5,-98 768.5,-117"/>
<text text-anchor="middle" x="719.5" y="-105" font-family="Helvetica,sans-Serif" font-size="10.00">ore::data::to_string</text>
</a>
</g>
</g>
<!-- Node12&#45;&gt;Node14 -->
<g id="edge13" class="edge"><title>Node12&#45;&gt;Node14</title>
<path fill="none" stroke="#63b8ff" d="M602.046,-92.3403C620.526,-94.746 641.398,-97.463 660.315,-99.9256"/>
<polygon fill="#63b8ff" stroke="#63b8ff" points="659.931,-103.405 670.299,-101.225 660.835,-96.4637 659.931,-103.405"/>
</g>
<!-- Node14&#45;&gt;Node14 -->
<g id="edge14" class="edge"><title>Node14&#45;&gt;Node14</title>
<path fill="none" stroke="#63b8ff" d="M693.298,-117.083C680.551,-125.734 689.285,-135 719.5,-135 739.801,-135 750.404,-130.817 751.311,-125.448"/>
<polygon fill="#63b8ff" stroke="#63b8ff" points="754.178,-123.439 745.702,-117.083 748.364,-127.338 754.178,-123.439"/>
</g>
<!-- Node17&#45;&gt;Node17 -->
<g id="edge18" class="edge"><title>Node17&#45;&gt;Node17</title>
<path fill="none" stroke="#63b8ff" d="M351.648,-303.083C339.801,-311.734 347.918,-321 376,-321 394.429,-321 404.26,-317.009 405.492,-311.821"/>
<polygon fill="#63b8ff" stroke="#63b8ff" points="408.439,-309.928 400.352,-303.083 402.406,-313.477 408.439,-309.928"/>
</g>
<!-- Node20&#45;&gt;Node4 -->
<g id="edge23" class="edge"><title>Node20&#45;&gt;Node4</title>
<path fill="none" stroke="#63b8ff" d="M229.394,-189.052C245.756,-201.765 276.537,-224.186 306,-237.5 311.295,-239.893 316.958,-242.045 322.678,-243.966"/>
<polygon fill="#63b8ff" stroke="#63b8ff" points="321.714,-247.331 332.303,-246.98 323.806,-240.651 321.714,-247.331"/>
</g>
<!-- Node20&#45;&gt;Node6 -->
<g id="edge24" class="edge"><title>Node20&#45;&gt;Node6</title>
<path fill="none" stroke="#63b8ff" d="M255.225,-189.081C276.946,-194.598 304.445,-201.581 327.614,-207.465"/>
<polygon fill="#63b8ff" stroke="#63b8ff" points="327.029,-210.928 337.583,-209.997 328.752,-204.143 327.029,-210.928"/>
</g>
<!-- Node20&#45;&gt;Node9 -->
<g id="edge29" class="edge"><title>Node20&#45;&gt;Node9</title>
<path fill="none" stroke="#63b8ff" d="M268.778,-176.579C362.054,-172.076 555.365,-166.718 615,-195.5 657.295,-215.913 689.204,-262.459 705.773,-291.21"/>
<polygon fill="#63b8ff" stroke="#63b8ff" points="702.868,-293.187 710.796,-300.215 708.981,-289.777 702.868,-293.187"/>
</g>
<!-- Node20&#45;&gt;Node11 -->
<g id="edge26" class="edge"><title>Node20&#45;&gt;Node11</title>
<path fill="none" stroke="#63b8ff" d="M254.03,-169.991C271.365,-165.478 292.577,-159.956 312.369,-154.804"/>
<polygon fill="#63b8ff" stroke="#63b8ff" points="313.458,-158.137 322.254,-152.231 311.694,-151.363 313.458,-158.137"/>
</g>
<!-- Node20&#45;&gt;Node16 -->
<g id="edge27" class="edge"><title>Node20&#45;&gt;Node16</title>
<path fill="none" stroke="#63b8ff" d="M224.784,-189.027C235.4,-203.127 255.441,-230.575 270,-255.5 288.447,-287.082 277.871,-306.124 306,-329.5 308.049,-331.202 310.238,-332.753 312.53,-334.165"/>
<polygon fill="#63b8ff" stroke="#63b8ff" points="311.31,-337.474 321.801,-338.954 314.523,-331.255 311.31,-337.474"/>
</g>
<!-- Node20&#45;&gt;Node17 -->
<g id="edge28" class="edge"><title>Node20&#45;&gt;Node17</title>
<path fill="none" stroke="#63b8ff" d="M223.777,-189.231C236.736,-208.525 268.408,-251.722 306,-274.5 309.586,-276.673 313.427,-278.603 317.391,-280.317"/>
<polygon fill="#63b8ff" stroke="#63b8ff" points="316.217,-283.615 326.807,-283.936 318.728,-277.081 316.217,-283.615"/>
</g>
<!-- Node20&#45;&gt;Node19 -->
<g id="edge30" class="edge"><title>Node20&#45;&gt;Node19</title>
<path fill="none" stroke="#63b8ff" d="M227.043,-169.781C238.414,-157.804 257.446,-136.459 270,-115.5 291.503,-79.601 274.639,-56.2052 306,-28.5 317.205,-18.6015 333.12,-13.8106 346.843,-11.5126"/>
<polygon fill="#63b8ff" stroke="#63b8ff" points="347.34,-14.9775 356.795,-10.198 346.423,-8.03781 347.34,-14.9775"/>
</g>
<!-- Node21 -->
<g id="node21" class="node"><title>Node21</title>
<g id="a_node21"><a target="_parent" xlink:href="../qle/class_quant_ext_1_1_linear_flat.html#aeebdaea19fcf47f8c30382a178283141" xlink:title=" ">
<polygon fill="white" stroke="#666666" points="429.5,-67.5 322.5,-67.5 322.5,-37.5 429.5,-37.5 429.5,-67.5"/>
<text text-anchor="start" x="330.5" y="-55.5" font-family="Helvetica,sans-Serif" font-size="10.00">QuantExt::LinearFlat</text>
<text text-anchor="middle" x="376" y="-44.5" font-family="Helvetica,sans-Serif" font-size="10.00">::interpolate</text>
</a>
</g>
</g>
<!-- Node20&#45;&gt;Node21 -->
<g id="edge25" class="edge"><title>Node20&#45;&gt;Node21</title>
<path fill="none" stroke="#63b8ff" d="M225.449,-169.675C245.27,-145.259 296.013,-83.301 306,-76.5 308.28,-74.9473 310.671,-73.4852 313.137,-72.1094"/>
<polygon fill="#63b8ff" stroke="#63b8ff" points="314.963,-75.1095 322.333,-67.4987 311.825,-68.8519 314.963,-75.1095"/>
</g>
<!-- Node22 -->
<g id="node22" class="node"><title>Node22</title>
<g id="a_node22"><a xlink:href="namespaceore_1_1data.html#a6a0250258f27a26b9e68baa6ff3752ba" target="_top" xlink:title="Imply QuantLib::VolatilityType from CapFloorVolatilityCurveConfig::VolatilityType.">
<polygon fill="white" stroke="#666666" points="434,-105 318,-105 318,-86 434,-86 434,-105"/>
<text text-anchor="middle" x="376" y="-93" font-family="Helvetica,sans-Serif" font-size="10.00">ore::data::volatilityType</text>
</a>
</g>
</g>
<!-- Node20&#45;&gt;Node22 -->
<g id="edge31" class="edge"><title>Node20&#45;&gt;Node22</title>
<path fill="none" stroke="#63b8ff" d="M227.841,-169.905C243.564,-155.807 274.947,-129.542 306,-114.5 310.892,-112.13 316.127,-110.015 321.446,-108.138"/>
<polygon fill="#63b8ff" stroke="#63b8ff" points="322.627,-111.434 331.052,-105.01 320.46,-104.778 322.627,-111.434"/>
</g>
</g>
</svg>
        <g id="navigator" transform="translate(0 0)" fill="#404254">
                <rect fill="#f2f5e9" fill-opacity="0.5" stroke="#606060" stroke-width=".5" x="0" y="0" width="60" height="60"/>
                <use id="zoomplus" xlink:href="#zoomPlus" x="17" y="9" onmousedown="handleZoom(evt,'in')"/>
                <use id="zoomminus" xlink:href="#zoomMin" x="42" y="9" onmousedown="handleZoom(evt,'out')"/>
                <use id="reset" xlink:href="#resetDef" x="30" y="36" onmousedown="handleReset()"/>
                <g id="arrowUp" xlink:href="#dirArrow" transform="translate(30 24)" onmousedown="handlePan(0,-1)">
                  <use xlink:href="#rim" fill="#404040">
                        <set attributeName="fill" to="#808080" begin="arrowUp.mouseover" end="arrowUp.mouseout"/>
                  </use>
                  <path fill="none" stroke="white" stroke-width="1.5" d="M0,-3.0v7 M-2.5,-0.5L0,-3.0L2.5,-0.5"/>
                </g>
                <g id="arrowRight" xlink:href="#dirArrow" transform="rotate(90) translate(36 -43)" onmousedown="handlePan(1,0)">
                  <use xlink:href="#rim" fill="#404040">
                        <set attributeName="fill" to="#808080" begin="arrowRight.mouseover" end="arrowRight.mouseout"/>
                  </use>
                  <path fill="none" stroke="white" stroke-width="1.5" d="M0,-3.0v7 M-2.5,-0.5L0,-3.0L2.5,-0.5"/>
                </g>
                <g id="arrowDown" xlink:href="#dirArrow" transform="rotate(180) translate(-30 -48)" onmousedown="handlePan(0,1)">
                  <use xlink:href="#rim" fill="#404040">
                        <set attributeName="fill" to="#808080" begin="arrowDown.mouseover" end="arrowDown.mouseout"/>
                  </use>
                  <path fill="none" stroke="white" stroke-width="1.5" d="M0,-3.0v7 M-2.5,-0.5L0,-3.0L2.5,-0.5"/>
                </g>
                <g id="arrowLeft" xlink:href="#dirArrow" transform="rotate(270) translate(-36 17)" onmousedown="handlePan(-1,0)">
                  <use xlink:href="#rim" fill="#404040">
                        <set attributeName="fill" to="#808080" begin="arrowLeft.mouseover" end="arrowLeft.mouseout"/>
                  </use>
                  <path fill="none" stroke="white" stroke-width="1.5" d="M0,-3.0v7 M-2.5,-0.5L0,-3.0L2.5,-0.5"/>
                </g>
        </g>
        <svg viewBox="0 0 15 15" width="100%" height="30px" preserveAspectRatio="xMaxYMin meet">
         <g id="arrow_out" transform="scale(0.3 0.3)">
          <a xlink:href="classore_1_1data_1_1_inflation_cap_floor_vol_curve_a19c9a318aa454b3132d829dd00bced53_cgraph_org.svg" target="_base">
           <rect id="button" ry="5" rx="5" y="6" x="6" height="38" width="38"
                fill="#f2f5e9" fill-opacity="0.5" stroke="#606060" stroke-width="1.0"/>
           <path id="arrow"
             d="M 11.500037,31.436501 C 11.940474,20.09759 22.043105,11.32322 32.158766,21.979434 L 37.068811,17.246167 C 37.068811,17.246167 37.088388,32 37.088388,32 L 22.160133,31.978069 C 22.160133,31.978069 26.997745,27.140456 26.997745,27.140456 C 18.528582,18.264221 13.291696,25.230495 11.500037,31.436501 z"
             style="fill:#404040;"/>
          </a>
         </g>
        </svg>
</svg>
