<?xml version="1.0" encoding="UTF-8" standalone="no"?>
<!DOCTYPE svg PUBLIC "-//W3C//DTD SVG 1.1//EN"
 "http://www.w3.org/Graphics/SVG/1.1/DTD/svg11.dtd">
<!-- Generated by graphviz version 2.38.0 (20140413.2041)
 -->
<!-- Title: BondYieldConvention Pages: 1 -->
<!--zoomable 589 -->
<svg id="main" version="1.1" xmlns="http://www.w3.org/2000/svg" xmlns:xlink="http://www.w3.org/1999/xlink" xml:space="preserve" onload="init(evt)">
<style type="text/css"><![CDATA[
.edge:hover path { stroke: red; }
.edge:hover polygon { stroke: red; fill: red; }
]]></style>
<script type="text/javascript"><![CDATA[
var edges = document.getElementsByTagName('g');
if (edges && edges.length) {
  for (var i=0;i<edges.length;i++) {
    if (edges[i].id.substr(0,4)=='edge') {
      edges[i].setAttribute('class','edge');
    }
  }
}
]]></script>
        <defs>
                <circle id="rim" cx="0" cy="0" r="7"/>
                <circle id="rim2" cx="0" cy="0" r="3.5"/>
                <g id="zoomPlus">
                        <use xlink:href="#rim" fill="#404040">
                                <set attributeName="fill" to="#808080" begin="zoomplus.mouseover" end="zoomplus.mouseout"/>
                        </use>
                        <path d="M-4,0h8M0,-4v8" fill="none" stroke="white" stroke-width="1.5" pointer-events="none"/>
                </g>
                <g id="zoomMin">
                        <use xlink:href="#rim" fill="#404040">
                                <set attributeName="fill" to="#808080" begin="zoomminus.mouseover" end="zoomminus.mouseout"/>
                        </use>
                        <path d="M-4,0h8" fill="none" stroke="white" stroke-width="1.5" pointer-events="none"/>
                </g>
                <g id="dirArrow">
                        <path fill="none" stroke="white" stroke-width="1.5" d="M0,-3.0v7 M-2.5,-0.5L0,-3.0L2.5,-0.5"/>
                </g>
               <g id="resetDef">
                       <use xlink:href="#rim2" fill="#404040">
                               <set attributeName="fill" to="#808080" begin="reset.mouseover" end="reset.mouseout"/>
                       </use>
               </g>
        </defs>

<script type="text/javascript">
var viewWidth = 777;
var viewHeight = 589;
var sectionId = 'dynsection-1';
</script>
<script xlink:href="svgpan.js"/>
<svg id="graph" class="graph">
<g id="viewport">
<title>BondYieldConvention</title>
<!-- Node1 -->
<g id="node1" class="node"><title>Node1</title>
<g id="a_node1"><a xlink:title=" ">
<polygon fill="#999999" stroke="#666666" points="550.5,-184 422.5,-184 422.5,-0 550.5,-0 550.5,-184"/>
<text text-anchor="middle" x="486.5" y="-172" font-family="Helvetica,sans-Serif" font-size="10.00">{BondYieldConvention</text>
<text text-anchor="start" x="430.5" y="-161" font-family="Helvetica,sans-Serif" font-size="10.00">||+ BondYieldConvention()</text>
<text text-anchor="start" x="430.5" y="-150" font-family="Helvetica,sans-Serif" font-size="10.00">+ BondYieldConvention()</text>
<text text-anchor="start" x="430.5" y="-139" font-family="Helvetica,sans-Serif" font-size="10.00">+ compoundingName()</text>
<text text-anchor="start" x="430.5" y="-128" font-family="Helvetica,sans-Serif" font-size="10.00">+ compounding()</text>
<text text-anchor="start" x="430.5" y="-117" font-family="Helvetica,sans-Serif" font-size="10.00">+ frequencyName()</text>
<text text-anchor="start" x="430.5" y="-106" font-family="Helvetica,sans-Serif" font-size="10.00">+ frequency()</text>
<text text-anchor="start" x="430.5" y="-95" font-family="Helvetica,sans-Serif" font-size="10.00">+ priceType()</text>
<text text-anchor="start" x="430.5" y="-84" font-family="Helvetica,sans-Serif" font-size="10.00">+ priceTypeName()</text>
<text text-anchor="start" x="430.5" y="-73" font-family="Helvetica,sans-Serif" font-size="10.00">+ accuracy()</text>
<text text-anchor="start" x="430.5" y="-62" font-family="Helvetica,sans-Serif" font-size="10.00">+ maxEvaluations()</text>
<text text-anchor="start" x="430.5" y="-51" font-family="Helvetica,sans-Serif" font-size="10.00">+ guess()</text>
<text text-anchor="start" x="430.5" y="-40" font-family="Helvetica,sans-Serif" font-size="10.00">+ fromXML()</text>
<text text-anchor="start" x="430.5" y="-29" font-family="Helvetica,sans-Serif" font-size="10.00">+ toXML()</text>
<text text-anchor="start" x="430.5" y="-18" font-family="Helvetica,sans-Serif" font-size="10.00">+ build()</text>
<text text-anchor="middle" x="486.5" y="-7" font-family="Helvetica,sans-Serif" font-size="10.00">}</text>
</a>
</g>
</g>
<!-- Node2 -->
<g id="node2" class="node"><title>Node2</title>
<g id="a_node2"><a xlink:href="classore_1_1data_1_1_convention.html" target="_top" xlink:title="Abstract base class for convention objects.">
<polygon fill="white" stroke="#666666" points="200,-360 111,-360 111,-242 200,-242 200,-360"/>
<text text-anchor="middle" x="155.5" y="-348" font-family="Helvetica,sans-Serif" font-size="10.00">{Convention</text>
<text text-anchor="start" x="119" y="-337" font-family="Helvetica,sans-Serif" font-size="10.00">||+ ~Convention()</text>
<text text-anchor="start" x="119" y="-326" font-family="Helvetica,sans-Serif" font-size="10.00">+ id()</text>
<text text-anchor="start" x="119" y="-315" font-family="Helvetica,sans-Serif" font-size="10.00">+ type()</text>
<text text-anchor="start" x="119" y="-304" font-family="Helvetica,sans-Serif" font-size="10.00">* build()</text>
<text text-anchor="start" x="119" y="-293" font-family="Helvetica,sans-Serif" font-size="10.00">* Convention()</text>
<text text-anchor="start" x="119" y="-282" font-family="Helvetica,sans-Serif" font-size="10.00">* Convention()</text>
<text text-anchor="start" x="119" y="-271" font-family="Helvetica,sans-Serif" font-size="10.00">* id()</text>
<text text-anchor="start" x="119" y="-260" font-family="Helvetica,sans-Serif" font-size="10.00">* type()</text>
<text text-anchor="middle" x="155.5" y="-249" font-family="Helvetica,sans-Serif" font-size="10.00">}</text>
</a>
</g>
</g>
<!-- Node2&#45;&gt;Node1 -->
<g id="edge1" class="edge"><title>Node2&#45;&gt;Node1</title>
<path fill="none" stroke="#63b8ff" d="M197.152,-233.808C206.475,-222.206 217.039,-210.99 228.5,-202 286.75,-156.309 366.969,-126.412 422.423,-109.684"/>
<polygon fill="none" stroke="#63b8ff" points="194.256,-231.831 190.899,-241.88 199.79,-236.118 194.256,-231.831"/>
</g>
<!-- Node3 -->
<g id="node3" class="node"><title>Node3</title>
<g id="a_node3"><a xlink:href="classore_1_1data_1_1_x_m_l_serializable.html" target="_top" xlink:title="Base class for all serializable classes.">
<polygon fill="white" stroke="#666666" points="111,-514 0,-514 0,-407 111,-407 111,-514"/>
<text text-anchor="middle" x="55.5" y="-502" font-family="Helvetica,sans-Serif" font-size="10.00">{XMLSerializable</text>
<text text-anchor="start" x="8" y="-491" font-family="Helvetica,sans-Serif" font-size="10.00">||+ ~XMLSerializable()</text>
<text text-anchor="start" x="8" y="-480" font-family="Helvetica,sans-Serif" font-size="10.00">+ fromXML()</text>
<text text-anchor="start" x="8" y="-469" font-family="Helvetica,sans-Serif" font-size="10.00">+ toXML()</text>
<text text-anchor="start" x="8" y="-458" font-family="Helvetica,sans-Serif" font-size="10.00">+ fromFile()</text>
<text text-anchor="start" x="8" y="-447" font-family="Helvetica,sans-Serif" font-size="10.00">+ toFile()</text>
<text text-anchor="start" x="8" y="-436" font-family="Helvetica,sans-Serif" font-size="10.00">+ fromXMLString()</text>
<text text-anchor="start" x="8" y="-425" font-family="Helvetica,sans-Serif" font-size="10.00">+ toXMLString()</text>
<text text-anchor="middle" x="55.5" y="-414" font-family="Helvetica,sans-Serif" font-size="10.00">}</text>
</a>
</g>
</g>
<!-- Node3&#45;&gt;Node2 -->
<g id="edge2" class="edge"><title>Node3&#45;&gt;Node2</title>
<path fill="none" stroke="#63b8ff" d="M94.4897,-398.091C102.413,-385.612 110.725,-372.521 118.574,-360.159"/>
<polygon fill="none" stroke="#63b8ff" points="91.4821,-396.298 89.0767,-406.617 97.3916,-400.051 91.4821,-396.298"/>
</g>
<!-- Node4 -->
<g id="node4" class="node"><title>Node4</title>
<g id="a_node4"><a xlink:title=" ">
<polygon fill="white" stroke="#666666" points="170,-475.5 129,-475.5 129,-445.5 170,-445.5 170,-475.5"/>
<text text-anchor="middle" x="149.5" y="-463.5" font-family="Helvetica,sans-Serif" font-size="10.00">{Type</text>
<text text-anchor="middle" x="149.5" y="-452.5" font-family="Helvetica,sans-Serif" font-size="10.00">||}</text>
</a>
</g>
</g>
<!-- Node4&#45;&gt;Node2 -->
<g id="edge3" class="edge"><title>Node4&#45;&gt;Node2</title>
<path fill="none" stroke="#404040" d="M149.445,-445.36C149.434,-429.101 149.579,-401.613 150.5,-378 150.574,-376.092 150.656,-374.158 150.745,-372.207"/>
<polygon fill="none" stroke="#404040" points="150.752,-372.06 147.061,-365.866 151.359,-360.075 155.05,-366.27 150.752,-372.06"/>
<text text-anchor="middle" x="167" y="-381" font-family="Helvetica,sans-Serif" font-size="10.00"> #type_</text>
</g>
<!-- Node5 -->
<g id="node5" class="node"><title>Node5</title>
<g id="a_node5"><a xlink:title=" ">
<polygon fill="white" stroke="#666666" points="248.5,-475.5 204.5,-475.5 204.5,-445.5 248.5,-445.5 248.5,-475.5"/>
<text text-anchor="middle" x="226.5" y="-463.5" font-family="Helvetica,sans-Serif" font-size="10.00">{string</text>
<text text-anchor="middle" x="226.5" y="-452.5" font-family="Helvetica,sans-Serif" font-size="10.00">||}</text>
</a>
</g>
</g>
<!-- Node5&#45;&gt;Node1 -->
<g id="edge7" class="edge"><title>Node5&#45;&gt;Node1</title>
<path fill="none" stroke="#404040" d="M224.228,-445.442C219.063,-408.748 209.904,-308.336 251.5,-242 288.218,-183.444 357.296,-143.8 411.094,-120.218"/>
<polygon fill="none" stroke="#404040" points="411.286,-120.136 415.237,-114.103 422.325,-115.429 418.375,-121.462 411.286,-120.136"/>
<text text-anchor="middle" x="299" y="-309.5" font-family="Helvetica,sans-Serif" font-size="10.00"> &#45;compoundingName_</text>
<text text-anchor="middle" x="299" y="-298.5" font-family="Helvetica,sans-Serif" font-size="10.00">&#45;frequencyName_</text>
<text text-anchor="middle" x="299" y="-287.5" font-family="Helvetica,sans-Serif" font-size="10.00">&#45;priceTypeName_</text>
</g>
<!-- Node5&#45;&gt;Node2 -->
<g id="edge4" class="edge"><title>Node5&#45;&gt;Node2</title>
<path fill="none" stroke="#404040" d="M220.074,-445.245C212.45,-428.332 199.189,-398.916 186.66,-371.123"/>
<polygon fill="none" stroke="#404040" points="186.656,-371.114 180.544,-367.288 181.725,-360.174 187.837,-364 186.656,-371.114"/>
<text text-anchor="middle" x="204.5" y="-381" font-family="Helvetica,sans-Serif" font-size="10.00"> #id_</text>
</g>
<!-- Node6 -->
<g id="node6" class="node"><title>Node6</title>
<g id="a_node6"><a xlink:title=" ">
<polygon fill="white" stroke="#666666" points="281.5,-581 171.5,-581 171.5,-551 281.5,-551 281.5,-581"/>
<text text-anchor="middle" x="226.5" y="-569" font-family="Helvetica,sans-Serif" font-size="10.00">{basic_string&lt; Char &gt;</text>
<text text-anchor="middle" x="226.5" y="-558" font-family="Helvetica,sans-Serif" font-size="10.00">||}</text>
</a>
</g>
</g>
<!-- Node6&#45;&gt;Node5 -->
<g id="edge5" class="edge"><title>Node6&#45;&gt;Node5</title>
<path fill="none" stroke="#63b8ff" d="M226.5,-540.597C226.5,-520.425 226.5,-492.476 226.5,-475.769"/>
<polygon fill="none" stroke="#63b8ff" points="223,-540.609 226.5,-550.609 230,-540.609 223,-540.609"/>
</g>
<!-- Node7 -->
<g id="node7" class="node"><title>Node7</title>
<g id="a_node7"><a xlink:title=" ">
<polygon fill="white" stroke="#666666" points="435,-316 356,-316 356,-286 435,-286 435,-316"/>
<text text-anchor="middle" x="395.5" y="-304" font-family="Helvetica,sans-Serif" font-size="10.00">{Compounding</text>
<text text-anchor="middle" x="395.5" y="-293" font-family="Helvetica,sans-Serif" font-size="10.00">||}</text>
</a>
</g>
</g>
<!-- Node7&#45;&gt;Node1 -->
<g id="edge6" class="edge"><title>Node7&#45;&gt;Node1</title>
<path fill="none" stroke="#404040" d="M396.086,-285.858C397.305,-266.338 401.047,-230.337 412.5,-202 413.891,-198.559 415.402,-195.116 417.014,-191.686"/>
<polygon fill="none" stroke="#404040" points="417.099,-191.517 416.212,-184.361 422.477,-180.79 423.364,-187.946 417.099,-191.517"/>
<text text-anchor="middle" x="447.5" y="-210.5" font-family="Helvetica,sans-Serif" font-size="10.00"> &#45;compounding_</text>
</g>
<!-- Node8 -->
<g id="node8" class="node"><title>Node8</title>
<g id="a_node8"><a xlink:title=" ">
<polygon fill="white" stroke="#666666" points="519,-316 454,-316 454,-286 519,-286 519,-316"/>
<text text-anchor="middle" x="486.5" y="-304" font-family="Helvetica,sans-Serif" font-size="10.00">{Frequency</text>
<text text-anchor="middle" x="486.5" y="-293" font-family="Helvetica,sans-Serif" font-size="10.00">||}</text>
</a>
</g>
</g>
<!-- Node8&#45;&gt;Node1 -->
<g id="edge8" class="edge"><title>Node8&#45;&gt;Node1</title>
<path fill="none" stroke="#404040" d="M486.5,-285.772C486.5,-266.857 486.5,-231.707 486.5,-196.55"/>
<polygon fill="none" stroke="#404040" points="486.5,-196.14 482.5,-190.14 486.5,-184.14 490.5,-190.14 486.5,-196.14"/>
<text text-anchor="middle" x="513.5" y="-210.5" font-family="Helvetica,sans-Serif" font-size="10.00"> &#45;frequency_</text>
</g>
<!-- Node9 -->
<g id="node9" class="node"><title>Node9</title>
<g id="a_node9"><a xlink:title=" ">
<polygon fill="white" stroke="#666666" points="584,-316 543,-316 543,-286 584,-286 584,-316"/>
<text text-anchor="middle" x="563.5" y="-304" font-family="Helvetica,sans-Serif" font-size="10.00">{Type</text>
<text text-anchor="middle" x="563.5" y="-293" font-family="Helvetica,sans-Serif" font-size="10.00">||}</text>
</a>
</g>
</g>
<!-- Node9&#45;&gt;Node1 -->
<g id="edge9" class="edge"><title>Node9&#45;&gt;Node1</title>
<path fill="none" stroke="#404040" d="M561.43,-285.735C558.369,-266.377 551.852,-230.891 541.5,-202 540.709,-199.793 539.884,-197.572 539.029,-195.345"/>
<polygon fill="none" stroke="#404040" points="539.01,-195.298 533.057,-191.228 534.524,-184.168 540.477,-188.237 539.01,-195.298"/>
<text text-anchor="middle" x="575.5" y="-210.5" font-family="Helvetica,sans-Serif" font-size="10.00"> &#45;priceType_</text>
</g>
<!-- Node10 -->
<g id="node10" class="node"><title>Node10</title>
<g id="a_node10"><a xlink:title=" ">
<polygon fill="white" stroke="#666666" points="660,-316 621,-316 621,-286 660,-286 660,-316"/>
<text text-anchor="middle" x="640.5" y="-304" font-family="Helvetica,sans-Serif" font-size="10.00">{Real</text>
<text text-anchor="middle" x="640.5" y="-293" font-family="Helvetica,sans-Serif" font-size="10.00">||}</text>
</a>
</g>
</g>
<!-- Node10&#45;&gt;Node1 -->
<g id="edge10" class="edge"><title>Node10&#45;&gt;Node1</title>
<path fill="none" stroke="#404040" d="M637.874,-285.7C633.703,-265.679 624.166,-228.749 606.5,-202 593.754,-182.701 576.826,-164.56 559.715,-148.823"/>
<polygon fill="none" stroke="#404040" points="559.713,-148.822 552.574,-147.801 550.771,-140.819 557.909,-141.84 559.713,-148.822"/>
<text text-anchor="middle" x="643.5" y="-216" font-family="Helvetica,sans-Serif" font-size="10.00"> &#45;accuracy_</text>
<text text-anchor="middle" x="643.5" y="-205" font-family="Helvetica,sans-Serif" font-size="10.00">&#45;guess_</text>
</g>
<!-- Node11 -->
<g id="node11" class="node"><title>Node11</title>
<g id="a_node11"><a xlink:title=" ">
<polygon fill="white" stroke="#666666" points="735,-316 696,-316 696,-286 735,-286 735,-316"/>
<text text-anchor="middle" x="715.5" y="-304" font-family="Helvetica,sans-Serif" font-size="10.00">{Size</text>
<text text-anchor="middle" x="715.5" y="-293" font-family="Helvetica,sans-Serif" font-size="10.00">||}</text>
</a>
</g>
</g>
<!-- Node11&#45;&gt;Node1 -->
<g id="edge11" class="edge"><title>Node11&#45;&gt;Node1</title>
<path fill="none" stroke="#404040" d="M712.428,-285.817C707.368,-265.271 695.569,-226.962 673.5,-202 643.144,-167.665 599.269,-141.306 561.646,-123.116"/>
<polygon fill="none" stroke="#404040" points="561.564,-123.077 554.432,-124.142 550.706,-117.968 557.838,-116.903 561.564,-123.077"/>
<text text-anchor="middle" x="728.5" y="-210.5" font-family="Helvetica,sans-Serif" font-size="10.00"> &#45;maxEvaluations_</text>
</g>
</g>
</svg>
        <g id="navigator" transform="translate(0 0)" fill="#404254">
                <rect fill="#f2f5e9" fill-opacity="0.5" stroke="#606060" stroke-width=".5" x="0" y="0" width="60" height="60"/>
                <use id="zoomplus" xlink:href="#zoomPlus" x="17" y="9" onmousedown="handleZoom(evt,'in')"/>
                <use id="zoomminus" xlink:href="#zoomMin" x="42" y="9" onmousedown="handleZoom(evt,'out')"/>
                <use id="reset" xlink:href="#resetDef" x="30" y="36" onmousedown="handleReset()"/>
                <g id="arrowUp" xlink:href="#dirArrow" transform="translate(30 24)" onmousedown="handlePan(0,-1)">
                  <use xlink:href="#rim" fill="#404040">
                        <set attributeName="fill" to="#808080" begin="arrowUp.mouseover" end="arrowUp.mouseout"/>
                  </use>
                  <path fill="none" stroke="white" stroke-width="1.5" d="M0,-3.0v7 M-2.5,-0.5L0,-3.0L2.5,-0.5"/>
                </g>
                <g id="arrowRight" xlink:href="#dirArrow" transform="rotate(90) translate(36 -43)" onmousedown="handlePan(1,0)">
                  <use xlink:href="#rim" fill="#404040">
                        <set attributeName="fill" to="#808080" begin="arrowRight.mouseover" end="arrowRight.mouseout"/>
                  </use>
                  <path fill="none" stroke="white" stroke-width="1.5" d="M0,-3.0v7 M-2.5,-0.5L0,-3.0L2.5,-0.5"/>
                </g>
                <g id="arrowDown" xlink:href="#dirArrow" transform="rotate(180) translate(-30 -48)" onmousedown="handlePan(0,1)">
                  <use xlink:href="#rim" fill="#404040">
                        <set attributeName="fill" to="#808080" begin="arrowDown.mouseover" end="arrowDown.mouseout"/>
                  </use>
                  <path fill="none" stroke="white" stroke-width="1.5" d="M0,-3.0v7 M-2.5,-0.5L0,-3.0L2.5,-0.5"/>
                </g>
                <g id="arrowLeft" xlink:href="#dirArrow" transform="rotate(270) translate(-36 17)" onmousedown="handlePan(-1,0)">
                  <use xlink:href="#rim" fill="#404040">
                        <set attributeName="fill" to="#808080" begin="arrowLeft.mouseover" end="arrowLeft.mouseout"/>
                  </use>
                  <path fill="none" stroke="white" stroke-width="1.5" d="M0,-3.0v7 M-2.5,-0.5L0,-3.0L2.5,-0.5"/>
                </g>
        </g>
        <svg viewBox="0 0 15 15" width="100%" height="30px" preserveAspectRatio="xMaxYMin meet">
         <g id="arrow_out" transform="scale(0.3 0.3)">
          <a xlink:href="classore_1_1data_1_1_bond_yield_convention__coll__graph_org.svg" target="_base">
           <rect id="button" ry="5" rx="5" y="6" x="6" height="38" width="38"
                fill="#f2f5e9" fill-opacity="0.5" stroke="#606060" stroke-width="1.0"/>
           <path id="arrow"
             d="M 11.500037,31.436501 C 11.940474,20.09759 22.043105,11.32322 32.158766,21.979434 L 37.068811,17.246167 C 37.068811,17.246167 37.088388,32 37.088388,32 L 22.160133,31.978069 C 22.160133,31.978069 26.997745,27.140456 26.997745,27.140456 C 18.528582,18.264221 13.291696,25.230495 11.500037,31.436501 z"
             style="fill:#404040;"/>
          </a>
         </g>
        </svg>
</svg>
