<?xml version="1.0" encoding="UTF-8" standalone="no"?>
<!DOCTYPE svg PUBLIC "-//W3C//DTD SVG 1.1//EN"
 "http://www.w3.org/Graphics/SVG/1.1/DTD/svg11.dtd">
<!-- Generated by graphviz version 2.38.0 (20140413.2041)
 -->
<!-- Title: YoYLegData Pages: 1 -->
<!--zoomable 874 -->
<svg id="main" version="1.1" xmlns="http://www.w3.org/2000/svg" xmlns:xlink="http://www.w3.org/1999/xlink" xml:space="preserve" onload="init(evt)">
<style type="text/css"><![CDATA[
.edge:hover path { stroke: red; }
.edge:hover polygon { stroke: red; fill: red; }
]]></style>
<script type="text/javascript"><![CDATA[
var edges = document.getElementsByTagName('g');
if (edges && edges.length) {
  for (var i=0;i<edges.length;i++) {
    if (edges[i].id.substr(0,4)=='edge') {
      edges[i].setAttribute('class','edge');
    }
  }
}
]]></script>
        <defs>
                <circle id="rim" cx="0" cy="0" r="7"/>
                <circle id="rim2" cx="0" cy="0" r="3.5"/>
                <g id="zoomPlus">
                        <use xlink:href="#rim" fill="#404040">
                                <set attributeName="fill" to="#808080" begin="zoomplus.mouseover" end="zoomplus.mouseout"/>
                        </use>
                        <path d="M-4,0h8M0,-4v8" fill="none" stroke="white" stroke-width="1.5" pointer-events="none"/>
                </g>
                <g id="zoomMin">
                        <use xlink:href="#rim" fill="#404040">
                                <set attributeName="fill" to="#808080" begin="zoomminus.mouseover" end="zoomminus.mouseout"/>
                        </use>
                        <path d="M-4,0h8" fill="none" stroke="white" stroke-width="1.5" pointer-events="none"/>
                </g>
                <g id="dirArrow">
                        <path fill="none" stroke="white" stroke-width="1.5" d="M0,-3.0v7 M-2.5,-0.5L0,-3.0L2.5,-0.5"/>
                </g>
               <g id="resetDef">
                       <use xlink:href="#rim2" fill="#404040">
                               <set attributeName="fill" to="#808080" begin="reset.mouseover" end="reset.mouseout"/>
                       </use>
               </g>
        </defs>

<script type="text/javascript">
var viewWidth = 715;
var viewHeight = 874;
var sectionId = 'dynsection-1';
</script>
<script xlink:href="svgpan.js"/>
<svg id="graph" class="graph">
<g id="viewport">
<title>YoYLegData</title>
<!-- Node1 -->
<g id="node1" class="node"><title>Node1</title>
<g id="a_node1"><a xlink:title="Serializable YoY Leg Data.">
<polygon fill="#999999" stroke="#666666" points="392,-382 276,-382 276,-0 392,-0 392,-382"/>
<text text-anchor="middle" x="334" y="-370" font-family="Helvetica,sans-Serif" font-size="10.00">{YoYLegData</text>
<text text-anchor="start" x="284" y="-359" font-family="Helvetica,sans-Serif" font-size="10.00">||+ YoYLegData()</text>
<text text-anchor="start" x="284" y="-348" font-family="Helvetica,sans-Serif" font-size="10.00">+ YoYLegData()</text>
<text text-anchor="start" x="284" y="-337" font-family="Helvetica,sans-Serif" font-size="10.00">+ index()</text>
<text text-anchor="start" x="284" y="-326" font-family="Helvetica,sans-Serif" font-size="10.00">+ observationLag()</text>
<text text-anchor="start" x="284" y="-315" font-family="Helvetica,sans-Serif" font-size="10.00">+ fixingDays()</text>
<text text-anchor="start" x="284" y="-304" font-family="Helvetica,sans-Serif" font-size="10.00">+ gearings()</text>
<text text-anchor="start" x="284" y="-293" font-family="Helvetica,sans-Serif" font-size="10.00">+ gearingDates()</text>
<text text-anchor="start" x="284" y="-282" font-family="Helvetica,sans-Serif" font-size="10.00">+ spreads()</text>
<text text-anchor="start" x="284" y="-271" font-family="Helvetica,sans-Serif" font-size="10.00">+ spreadDates()</text>
<text text-anchor="start" x="284" y="-260" font-family="Helvetica,sans-Serif" font-size="10.00">+ caps()</text>
<text text-anchor="start" x="284" y="-249" font-family="Helvetica,sans-Serif" font-size="10.00">+ capDates()</text>
<text text-anchor="start" x="284" y="-238" font-family="Helvetica,sans-Serif" font-size="10.00">+ floors()</text>
<text text-anchor="start" x="284" y="-227" font-family="Helvetica,sans-Serif" font-size="10.00">+ floorDates()</text>
<text text-anchor="start" x="284" y="-216" font-family="Helvetica,sans-Serif" font-size="10.00">+ nakedOption()</text>
<text text-anchor="start" x="284" y="-205" font-family="Helvetica,sans-Serif" font-size="10.00">+ addInflationNotional()</text>
<text text-anchor="start" x="284" y="-194" font-family="Helvetica,sans-Serif" font-size="10.00">+ irregularYoY()</text>
<text text-anchor="start" x="284" y="-183" font-family="Helvetica,sans-Serif" font-size="10.00">* fromXML()</text>
<text text-anchor="start" x="284" y="-172" font-family="Helvetica,sans-Serif" font-size="10.00">* toXML()</text>
<text text-anchor="start" x="284" y="-161" font-family="Helvetica,sans-Serif" font-size="10.00">* index()</text>
<text text-anchor="start" x="284" y="-150" font-family="Helvetica,sans-Serif" font-size="10.00">* observationLag()</text>
<text text-anchor="start" x="284" y="-139" font-family="Helvetica,sans-Serif" font-size="10.00">* fixingDays()</text>
<text text-anchor="start" x="284" y="-128" font-family="Helvetica,sans-Serif" font-size="10.00">* gearings()</text>
<text text-anchor="start" x="284" y="-117" font-family="Helvetica,sans-Serif" font-size="10.00">* gearingDates()</text>
<text text-anchor="start" x="284" y="-106" font-family="Helvetica,sans-Serif" font-size="10.00">* spreads()</text>
<text text-anchor="start" x="284" y="-95" font-family="Helvetica,sans-Serif" font-size="10.00">* spreadDates()</text>
<text text-anchor="start" x="284" y="-84" font-family="Helvetica,sans-Serif" font-size="10.00">* caps()</text>
<text text-anchor="start" x="284" y="-73" font-family="Helvetica,sans-Serif" font-size="10.00">* capDates()</text>
<text text-anchor="start" x="284" y="-62" font-family="Helvetica,sans-Serif" font-size="10.00">* floors()</text>
<text text-anchor="start" x="284" y="-51" font-family="Helvetica,sans-Serif" font-size="10.00">* floorDates()</text>
<text text-anchor="start" x="284" y="-40" font-family="Helvetica,sans-Serif" font-size="10.00">* nakedOption()</text>
<text text-anchor="start" x="284" y="-29" font-family="Helvetica,sans-Serif" font-size="10.00">* addInflationNotional()</text>
<text text-anchor="start" x="284" y="-18" font-family="Helvetica,sans-Serif" font-size="10.00">* irregularYoY()</text>
<text text-anchor="middle" x="334" y="-7" font-family="Helvetica,sans-Serif" font-size="10.00">}</text>
</a>
</g>
</g>
<!-- Node2 -->
<g id="node2" class="node"><title>Node2</title>
<g id="a_node2"><a xlink:href="classore_1_1data_1_1_leg_additional_data.html" target="_top" xlink:title="Serializable Additional Leg Data.">
<polygon fill="white" stroke="#666666" points="451.5,-547 336.5,-547 336.5,-462 451.5,-462 451.5,-547"/>
<text text-anchor="middle" x="394" y="-535" font-family="Helvetica,sans-Serif" font-size="10.00">{LegAdditionalData</text>
<text text-anchor="start" x="344.5" y="-524" font-family="Helvetica,sans-Serif" font-size="10.00">||+ LegAdditionalData()</text>
<text text-anchor="start" x="344.5" y="-513" font-family="Helvetica,sans-Serif" font-size="10.00">+ LegAdditionalData()</text>
<text text-anchor="start" x="344.5" y="-502" font-family="Helvetica,sans-Serif" font-size="10.00">+ legType()</text>
<text text-anchor="start" x="344.5" y="-491" font-family="Helvetica,sans-Serif" font-size="10.00">+ legNodeName()</text>
<text text-anchor="start" x="344.5" y="-480" font-family="Helvetica,sans-Serif" font-size="10.00">+ indices()</text>
<text text-anchor="middle" x="394" y="-469" font-family="Helvetica,sans-Serif" font-size="10.00">}</text>
</a>
</g>
</g>
<!-- Node2&#45;&gt;Node1 -->
<g id="edge1" class="edge"><title>Node2&#45;&gt;Node1</title>
<path fill="none" stroke="#63b8ff" d="M384.035,-451.765C380.187,-431.787 375.529,-407.603 370.622,-382.128"/>
<polygon fill="none" stroke="#63b8ff" points="380.642,-452.655 385.97,-461.813 387.516,-451.331 380.642,-452.655"/>
</g>
<!-- Node3 -->
<g id="node3" class="node"><title>Node3</title>
<g id="a_node3"><a xlink:href="classore_1_1data_1_1_x_m_l_serializable.html" target="_top" xlink:title="Base class for all serializable classes.">
<polygon fill="white" stroke="#666666" points="576.5,-712 465.5,-712 465.5,-605 576.5,-605 576.5,-712"/>
<text text-anchor="middle" x="521" y="-700" font-family="Helvetica,sans-Serif" font-size="10.00">{XMLSerializable</text>
<text text-anchor="start" x="473.5" y="-689" font-family="Helvetica,sans-Serif" font-size="10.00">||+ ~XMLSerializable()</text>
<text text-anchor="start" x="473.5" y="-678" font-family="Helvetica,sans-Serif" font-size="10.00">+ fromXML()</text>
<text text-anchor="start" x="473.5" y="-667" font-family="Helvetica,sans-Serif" font-size="10.00">+ toXML()</text>
<text text-anchor="start" x="473.5" y="-656" font-family="Helvetica,sans-Serif" font-size="10.00">+ fromFile()</text>
<text text-anchor="start" x="473.5" y="-645" font-family="Helvetica,sans-Serif" font-size="10.00">+ toFile()</text>
<text text-anchor="start" x="473.5" y="-634" font-family="Helvetica,sans-Serif" font-size="10.00">+ fromXMLString()</text>
<text text-anchor="start" x="473.5" y="-623" font-family="Helvetica,sans-Serif" font-size="10.00">+ toXMLString()</text>
<text text-anchor="middle" x="521" y="-612" font-family="Helvetica,sans-Serif" font-size="10.00">}</text>
</a>
</g>
</g>
<!-- Node3&#45;&gt;Node2 -->
<g id="edge2" class="edge"><title>Node3&#45;&gt;Node2</title>
<path fill="none" stroke="#63b8ff" d="M470.196,-596.695C456.299,-580.063 441.557,-562.418 428.779,-547.126"/>
<polygon fill="none" stroke="#63b8ff" points="467.84,-599.335 476.938,-604.764 473.212,-594.846 467.84,-599.335"/>
</g>
<!-- Node4 -->
<g id="node4" class="node"><title>Node4</title>
<g id="a_node4"><a xlink:title=" ">
<polygon fill="white" stroke="#666666" points="689.5,-673.5 594.5,-673.5 594.5,-643.5 689.5,-643.5 689.5,-673.5"/>
<text text-anchor="middle" x="642" y="-661.5" font-family="Helvetica,sans-Serif" font-size="10.00">{set&lt; std::string &gt;</text>
<text text-anchor="middle" x="642" y="-650.5" font-family="Helvetica,sans-Serif" font-size="10.00">||}</text>
</a>
</g>
</g>
<!-- Node4&#45;&gt;Node2 -->
<g id="edge3" class="edge"><title>Node4&#45;&gt;Node2</title>
<path fill="none" stroke="#404040" d="M628.963,-643.262C618.017,-631.885 601.552,-616.068 585,-605 537.171,-573.019 516.377,-575.752 462.538,-548.102"/>
<polygon fill="none" stroke="#404040" points="462.304,-547.979 455.129,-548.704 451.7,-542.361 458.875,-541.635 462.304,-547.979"/>
<text text-anchor="middle" x="575.5" y="-573.5" font-family="Helvetica,sans-Serif" font-size="10.00"> #indices_</text>
</g>
<!-- Node5 -->
<g id="node5" class="node"><title>Node5</title>
<g id="a_node5"><a xlink:title=" ">
<polygon fill="white" stroke="#666666" points="363,-789 319,-789 319,-759 363,-759 363,-789"/>
<text text-anchor="middle" x="341" y="-777" font-family="Helvetica,sans-Serif" font-size="10.00">{string</text>
<text text-anchor="middle" x="341" y="-766" font-family="Helvetica,sans-Serif" font-size="10.00">||}</text>
</a>
</g>
</g>
<!-- Node5&#45;&gt;Node1 -->
<g id="edge9" class="edge"><title>Node5&#45;&gt;Node1</title>
<path fill="none" stroke="#404040" d="M337.147,-758.674C329.029,-727.663 310.39,-651.876 304,-587 297.838,-524.439 299.901,-456.196 305.101,-394.303"/>
<polygon fill="none" stroke="#404040" points="305.13,-393.967 301.671,-387.64 306.181,-382.013 309.64,-388.34 305.13,-393.967"/>
<text text-anchor="middle" x="340.5" y="-579" font-family="Helvetica,sans-Serif" font-size="10.00"> &#45;index_</text>
<text text-anchor="middle" x="340.5" y="-568" font-family="Helvetica,sans-Serif" font-size="10.00">&#45;observationLag_</text>
</g>
<!-- Node5&#45;&gt;Node2 -->
<g id="edge8" class="edge"><title>Node5&#45;&gt;Node2</title>
<path fill="none" stroke="#404040" d="M344.377,-758.583C351.621,-727.395 368.97,-651.283 381,-587 382.686,-577.991 384.341,-568.395 385.876,-559.069"/>
<polygon fill="none" stroke="#404040" points="385.905,-558.882 382.911,-552.322 387.816,-547.035 390.81,-553.596 385.905,-558.882"/>
<text text-anchor="middle" x="414.5" y="-661.5" font-family="Helvetica,sans-Serif" font-size="10.00"> &#45;legNodeName_</text>
<text text-anchor="middle" x="414.5" y="-650.5" font-family="Helvetica,sans-Serif" font-size="10.00">&#45;legType_</text>
</g>
<!-- Node5&#45;&gt;Node4 -->
<g id="edge4" class="edge"><title>Node5&#45;&gt;Node4</title>
<path fill="none" stroke="#404040" d="M363.194,-771.145C407.714,-766.656 510.06,-752.421 585,-712 598.78,-704.567 611.811,-693.043 621.926,-682.683"/>
<polygon fill="none" stroke="#404040" points="622.159,-682.433 623.317,-675.315 630.333,-673.647 629.174,-680.765 622.159,-682.433"/>
<text text-anchor="middle" x="557.5" y="-733" font-family="Helvetica,sans-Serif" font-size="10.00"> +keys</text>
</g>
<!-- Node14 -->
<g id="node14" class="node"><title>Node14</title>
<g id="a_node14"><a xlink:title=" ">
<polygon fill="white" stroke="#666666" points="269.5,-519.5 182.5,-519.5 182.5,-489.5 269.5,-489.5 269.5,-519.5"/>
<text text-anchor="middle" x="226" y="-507.5" font-family="Helvetica,sans-Serif" font-size="10.00">{vector&lt; string &gt;</text>
<text text-anchor="middle" x="226" y="-496.5" font-family="Helvetica,sans-Serif" font-size="10.00">||}</text>
</a>
</g>
</g>
<!-- Node5&#45;&gt;Node14 -->
<g id="edge16" class="edge"><title>Node5&#45;&gt;Node14</title>
<path fill="none" stroke="#404040" d="M318.587,-765.655C295.603,-756.838 260.899,-739.675 244,-712 209.393,-655.324 215.324,-573.062 221.334,-531.546"/>
<polygon fill="none" stroke="#404040" points="221.351,-531.434 218.343,-524.88 223.236,-519.583 226.244,-526.137 221.351,-531.434"/>
<text text-anchor="middle" x="268.5" y="-656" font-family="Helvetica,sans-Serif" font-size="10.00"> +elements</text>
</g>
<!-- Node6 -->
<g id="node6" class="node"><title>Node6</title>
<g id="a_node6"><a xlink:title=" ">
<polygon fill="white" stroke="#666666" points="396,-866 286,-866 286,-836 396,-836 396,-866"/>
<text text-anchor="middle" x="341" y="-854" font-family="Helvetica,sans-Serif" font-size="10.00">{basic_string&lt; Char &gt;</text>
<text text-anchor="middle" x="341" y="-843" font-family="Helvetica,sans-Serif" font-size="10.00">||}</text>
</a>
</g>
</g>
<!-- Node6&#45;&gt;Node5 -->
<g id="edge5" class="edge"><title>Node6&#45;&gt;Node5</title>
<path fill="none" stroke="#63b8ff" d="M341,-825.541C341,-813.451 341,-799.294 341,-789.044"/>
<polygon fill="none" stroke="#63b8ff" points="337.5,-825.893 341,-835.893 344.5,-825.893 337.5,-825.893"/>
</g>
<!-- Node7 -->
<g id="node7" class="node"><title>Node7</title>
<g id="a_node7"><a xlink:title=" ">
<polygon fill="white" stroke="#666666" points="671,-789 613,-789 613,-759 671,-759 671,-789"/>
<text text-anchor="middle" x="642" y="-777" font-family="Helvetica,sans-Serif" font-size="10.00">{set&lt; K &gt;</text>
<text text-anchor="middle" x="642" y="-766" font-family="Helvetica,sans-Serif" font-size="10.00">||}</text>
</a>
</g>
</g>
<!-- Node7&#45;&gt;Node4 -->
<g id="edge6" class="edge"><title>Node7&#45;&gt;Node4</title>
<path fill="none" stroke="orange" d="M642,-748.37C642,-725.571 642,-692.46 642,-673.758"/>
<polygon fill="orange" stroke="orange" points="638.5,-748.625 642,-758.625 645.5,-748.625 638.5,-748.625"/>
<text text-anchor="middle" x="674.5" y="-733" font-family="Helvetica,sans-Serif" font-size="10.00"> &lt; std::string &gt;</text>
</g>
<!-- Node8 -->
<g id="node8" class="node"><title>Node8</title>
<g id="a_node8"><a xlink:title=" ">
<polygon fill="white" stroke="#666666" points="656.5,-866 627.5,-866 627.5,-836 656.5,-836 656.5,-866"/>
<text text-anchor="middle" x="642" y="-854" font-family="Helvetica,sans-Serif" font-size="10.00">{K</text>
<text text-anchor="middle" x="642" y="-843" font-family="Helvetica,sans-Serif" font-size="10.00">||}</text>
</a>
</g>
</g>
<!-- Node8&#45;&gt;Node7 -->
<g id="edge7" class="edge"><title>Node8&#45;&gt;Node7</title>
<path fill="none" stroke="#404040" d="M642,-835.893C642,-826.151 642,-812.901 642,-801.249"/>
<polygon fill="none" stroke="#404040" points="642,-801.044 638,-795.044 642,-789.044 646,-795.044 642,-801.044"/>
<text text-anchor="middle" x="657.5" y="-810" font-family="Helvetica,sans-Serif" font-size="10.00"> +keys</text>
</g>
<!-- Node9 -->
<g id="node9" class="node"><title>Node9</title>
<g id="a_node9"><a xlink:title=" ">
<polygon fill="white" stroke="#666666" points="508.5,-519.5 469.5,-519.5 469.5,-489.5 508.5,-489.5 508.5,-519.5"/>
<text text-anchor="middle" x="489" y="-507.5" font-family="Helvetica,sans-Serif" font-size="10.00">{Size</text>
<text text-anchor="middle" x="489" y="-496.5" font-family="Helvetica,sans-Serif" font-size="10.00">||}</text>
</a>
</g>
</g>
<!-- Node9&#45;&gt;Node1 -->
<g id="edge10" class="edge"><title>Node9&#45;&gt;Node1</title>
<path fill="none" stroke="#404040" d="M481.937,-489.306C466.93,-459.147 430.542,-386.019 397.613,-319.841"/>
<polygon fill="none" stroke="#404040" points="397.495,-319.605 391.241,-316.015 392.15,-308.862 398.404,-312.452 397.495,-319.605"/>
<text text-anchor="middle" x="488.5" y="-419.5" font-family="Helvetica,sans-Serif" font-size="10.00"> &#45;fixingDays_</text>
</g>
<!-- Node10 -->
<g id="node10" class="node"><title>Node10</title>
<g id="a_node10"><a xlink:title=" ">
<polygon fill="white" stroke="#666666" points="142,-519.5 50,-519.5 50,-489.5 142,-489.5 142,-519.5"/>
<text text-anchor="middle" x="96" y="-507.5" font-family="Helvetica,sans-Serif" font-size="10.00">{vector&lt; double &gt;</text>
<text text-anchor="middle" x="96" y="-496.5" font-family="Helvetica,sans-Serif" font-size="10.00">||}</text>
</a>
</g>
</g>
<!-- Node10&#45;&gt;Node1 -->
<g id="edge11" class="edge"><title>Node10&#45;&gt;Node1</title>
<path fill="none" stroke="#404040" d="M106.2,-489.344C120.671,-469.324 148.063,-431.648 172,-400 203.308,-358.606 238.664,-313.074 268.34,-275.191"/>
<polygon fill="none" stroke="#404040" points="268.352,-275.175 268.906,-267.985 275.756,-265.732 275.202,-272.921 268.352,-275.175"/>
<text text-anchor="middle" x="195" y="-436" font-family="Helvetica,sans-Serif" font-size="10.00"> &#45;caps_</text>
<text text-anchor="middle" x="195" y="-425" font-family="Helvetica,sans-Serif" font-size="10.00">&#45;floors_</text>
<text text-anchor="middle" x="195" y="-414" font-family="Helvetica,sans-Serif" font-size="10.00">&#45;gearings_</text>
<text text-anchor="middle" x="195" y="-403" font-family="Helvetica,sans-Serif" font-size="10.00">&#45;spreads_</text>
</g>
<!-- Node11 -->
<g id="node11" class="node"><title>Node11</title>
<g id="a_node11"><a xlink:title=" ">
<polygon fill="white" stroke="#666666" points="48,-673.5 0,-673.5 0,-643.5 48,-643.5 48,-673.5"/>
<text text-anchor="middle" x="24" y="-661.5" font-family="Helvetica,sans-Serif" font-size="10.00">{double</text>
<text text-anchor="middle" x="24" y="-650.5" font-family="Helvetica,sans-Serif" font-size="10.00">||}</text>
</a>
</g>
</g>
<!-- Node11&#45;&gt;Node10 -->
<g id="edge12" class="edge"><title>Node11&#45;&gt;Node10</title>
<path fill="none" stroke="#404040" d="M24.1886,-643.254C24.9647,-624.396 28.214,-590.554 41,-565 47.9619,-551.086 59.1743,-538.089 69.665,-527.813"/>
<polygon fill="none" stroke="#404040" points="69.7857,-527.701 71.4555,-520.686 78.5733,-519.529 76.9034,-526.544 69.7857,-527.701"/>
<text text-anchor="middle" x="65.5" y="-573.5" font-family="Helvetica,sans-Serif" font-size="10.00"> +elements</text>
</g>
<!-- Node12 -->
<g id="node12" class="node"><title>Node12</title>
<g id="a_node12"><a xlink:title=" ">
<polygon fill="white" stroke="#666666" points="164,-673.5 96,-673.5 96,-643.5 164,-643.5 164,-673.5"/>
<text text-anchor="middle" x="130" y="-661.5" font-family="Helvetica,sans-Serif" font-size="10.00">{vector&lt; T &gt;</text>
<text text-anchor="middle" x="130" y="-650.5" font-family="Helvetica,sans-Serif" font-size="10.00">||}</text>
</a>
</g>
</g>
<!-- Node12&#45;&gt;Node10 -->
<g id="edge13" class="edge"><title>Node12&#45;&gt;Node10</title>
<path fill="none" stroke="orange" d="M116.11,-634.371C108.896,-621.029 100.81,-603.643 97,-587 91.6955,-563.827 92.9225,-535.969 94.3928,-519.555"/>
<polygon fill="orange" stroke="orange" points="113.182,-636.304 121.136,-643.304 119.283,-632.872 113.182,-636.304"/>
<text text-anchor="middle" x="122" y="-573.5" font-family="Helvetica,sans-Serif" font-size="10.00"> &lt; double &gt;</text>
</g>
<!-- Node12&#45;&gt;Node14 -->
<g id="edge17" class="edge"><title>Node12&#45;&gt;Node14</title>
<path fill="none" stroke="orange" d="M137.708,-633.688C144.577,-614.298 155.741,-586.686 170,-565 181.222,-547.932 197.538,-531.239 209.667,-519.9"/>
<polygon fill="orange" stroke="orange" points="134.357,-632.668 134.427,-643.263 140.979,-634.937 134.357,-632.668"/>
<text text-anchor="middle" x="193" y="-573.5" font-family="Helvetica,sans-Serif" font-size="10.00"> &lt; string &gt;</text>
</g>
<!-- Node13 -->
<g id="node13" class="node"><title>Node13</title>
<g id="a_node13"><a xlink:title=" ">
<polygon fill="white" stroke="#666666" points="144.5,-789 115.5,-789 115.5,-759 144.5,-759 144.5,-789"/>
<text text-anchor="middle" x="130" y="-777" font-family="Helvetica,sans-Serif" font-size="10.00">{T</text>
<text text-anchor="middle" x="130" y="-766" font-family="Helvetica,sans-Serif" font-size="10.00">||}</text>
</a>
</g>
</g>
<!-- Node13&#45;&gt;Node12 -->
<g id="edge14" class="edge"><title>Node13&#45;&gt;Node12</title>
<path fill="none" stroke="#404040" d="M130,-758.625C130,-740.375 130,-708.54 130,-685.873"/>
<polygon fill="none" stroke="#404040" points="130,-685.758 126,-679.758 130,-673.758 134,-679.758 130,-685.758"/>
<text text-anchor="middle" x="154.5" y="-733" font-family="Helvetica,sans-Serif" font-size="10.00"> +elements</text>
</g>
<!-- Node14&#45;&gt;Node1 -->
<g id="edge15" class="edge"><title>Node14&#45;&gt;Node1</title>
<path fill="none" stroke="#404040" d="M224.084,-489.178C221.838,-468.96 219.323,-431.051 227,-400 236.042,-363.431 252.58,-326.053 269.995,-293.254"/>
<polygon fill="none" stroke="#404040" points="270.207,-292.864 269.549,-285.683 275.925,-282.314 276.583,-289.495 270.207,-292.864"/>
<text text-anchor="middle" x="260" y="-436" font-family="Helvetica,sans-Serif" font-size="10.00"> &#45;capDates_</text>
<text text-anchor="middle" x="260" y="-425" font-family="Helvetica,sans-Serif" font-size="10.00">&#45;floorDates_</text>
<text text-anchor="middle" x="260" y="-414" font-family="Helvetica,sans-Serif" font-size="10.00">&#45;gearingDates_</text>
<text text-anchor="middle" x="260" y="-403" font-family="Helvetica,sans-Serif" font-size="10.00">&#45;spreadDates_</text>
</g>
<!-- Node15 -->
<g id="node15" class="node"><title>Node15</title>
<g id="a_node15"><a xlink:href="classbool.html" target="_top" xlink:title=" ">
<polygon fill="white" stroke="#666666" points="576,-519.5 538,-519.5 538,-489.5 576,-489.5 576,-519.5"/>
<text text-anchor="middle" x="557" y="-507.5" font-family="Helvetica,sans-Serif" font-size="10.00">{bool</text>
<text text-anchor="middle" x="557" y="-496.5" font-family="Helvetica,sans-Serif" font-size="10.00">||}</text>
</a>
</g>
</g>
<!-- Node15&#45;&gt;Node1 -->
<g id="edge18" class="edge"><title>Node15&#45;&gt;Node1</title>
<path fill="none" stroke="#404040" d="M553.97,-489.346C549.138,-468.676 538.415,-429.485 521,-400 488.628,-345.192 440.377,-291.976 400.997,-253.092"/>
<polygon fill="none" stroke="#404040" points="400.808,-252.907 393.721,-251.575 392.225,-244.521 399.312,-245.853 400.808,-252.907"/>
<text text-anchor="start" x="541" y="-436" font-family="Helvetica,sans-Serif" font-size="10.00"> &#45;addInflationNotional</text>
<text text-anchor="middle" x="586.5" y="-425" font-family="Helvetica,sans-Serif" font-size="10.00">_</text>
<text text-anchor="middle" x="586.5" y="-414" font-family="Helvetica,sans-Serif" font-size="10.00">&#45;irregularYoY_</text>
<text text-anchor="middle" x="586.5" y="-403" font-family="Helvetica,sans-Serif" font-size="10.00">&#45;nakedOption_</text>
</g>
</g>
</svg>
        <g id="navigator" transform="translate(0 0)" fill="#404254">
                <rect fill="#f2f5e9" fill-opacity="0.5" stroke="#606060" stroke-width=".5" x="0" y="0" width="60" height="60"/>
                <use id="zoomplus" xlink:href="#zoomPlus" x="17" y="9" onmousedown="handleZoom(evt,'in')"/>
                <use id="zoomminus" xlink:href="#zoomMin" x="42" y="9" onmousedown="handleZoom(evt,'out')"/>
                <use id="reset" xlink:href="#resetDef" x="30" y="36" onmousedown="handleReset()"/>
                <g id="arrowUp" xlink:href="#dirArrow" transform="translate(30 24)" onmousedown="handlePan(0,-1)">
                  <use xlink:href="#rim" fill="#404040">
                        <set attributeName="fill" to="#808080" begin="arrowUp.mouseover" end="arrowUp.mouseout"/>
                  </use>
                  <path fill="none" stroke="white" stroke-width="1.5" d="M0,-3.0v7 M-2.5,-0.5L0,-3.0L2.5,-0.5"/>
                </g>
                <g id="arrowRight" xlink:href="#dirArrow" transform="rotate(90) translate(36 -43)" onmousedown="handlePan(1,0)">
                  <use xlink:href="#rim" fill="#404040">
                        <set attributeName="fill" to="#808080" begin="arrowRight.mouseover" end="arrowRight.mouseout"/>
                  </use>
                  <path fill="none" stroke="white" stroke-width="1.5" d="M0,-3.0v7 M-2.5,-0.5L0,-3.0L2.5,-0.5"/>
                </g>
                <g id="arrowDown" xlink:href="#dirArrow" transform="rotate(180) translate(-30 -48)" onmousedown="handlePan(0,1)">
                  <use xlink:href="#rim" fill="#404040">
                        <set attributeName="fill" to="#808080" begin="arrowDown.mouseover" end="arrowDown.mouseout"/>
                  </use>
                  <path fill="none" stroke="white" stroke-width="1.5" d="M0,-3.0v7 M-2.5,-0.5L0,-3.0L2.5,-0.5"/>
                </g>
                <g id="arrowLeft" xlink:href="#dirArrow" transform="rotate(270) translate(-36 17)" onmousedown="handlePan(-1,0)">
                  <use xlink:href="#rim" fill="#404040">
                        <set attributeName="fill" to="#808080" begin="arrowLeft.mouseover" end="arrowLeft.mouseout"/>
                  </use>
                  <path fill="none" stroke="white" stroke-width="1.5" d="M0,-3.0v7 M-2.5,-0.5L0,-3.0L2.5,-0.5"/>
                </g>
        </g>
        <svg viewBox="0 0 15 15" width="100%" height="30px" preserveAspectRatio="xMaxYMin meet">
         <g id="arrow_out" transform="scale(0.3 0.3)">
          <a xlink:href="classore_1_1data_1_1_yo_y_leg_data__coll__graph_org.svg" target="_base">
           <rect id="button" ry="5" rx="5" y="6" x="6" height="38" width="38"
                fill="#f2f5e9" fill-opacity="0.5" stroke="#606060" stroke-width="1.0"/>
           <path id="arrow"
             d="M 11.500037,31.436501 C 11.940474,20.09759 22.043105,11.32322 32.158766,21.979434 L 37.068811,17.246167 C 37.068811,17.246167 37.088388,32 37.088388,32 L 22.160133,31.978069 C 22.160133,31.978069 26.997745,27.140456 26.997745,27.140456 C 18.528582,18.264221 13.291696,25.230495 11.500037,31.436501 z"
             style="fill:#404040;"/>
          </a>
         </g>
        </svg>
</svg>
