<?xml version="1.0" encoding="UTF-8" standalone="no"?>
<!DOCTYPE svg PUBLIC "-//W3C//DTD SVG 1.1//EN"
 "http://www.w3.org/Graphics/SVG/1.1/DTD/svg11.dtd">
<!-- Generated by graphviz version 2.38.0 (20140413.2041)
 -->
<!-- Title: PremiumData Pages: 1 -->
<svg width="367pt" height="534pt"
 viewBox="0.00 0.00 366.50 534.00" xmlns="http://www.w3.org/2000/svg" xmlns:xlink="http://www.w3.org/1999/xlink">
<g id="graph0" class="graph" transform="scale(1 1) rotate(0) translate(4 530)">
<title>PremiumData</title>
<!-- Node1 -->
<g id="node1" class="node"><title>Node1</title>
<g id="a_node1"><a xlink:title="Serializable object holding premium data.">
<polygon fill="#999999" stroke="#666666" points="159,-118 44,-118 44,-0 159,-0 159,-118"/>
<text text-anchor="middle" x="101.5" y="-106" font-family="Helvetica,sans-Serif" font-size="10.00">{PremiumData</text>
<text text-anchor="start" x="52" y="-95" font-family="Helvetica,sans-Serif" font-size="10.00">||+ PremiumData()</text>
<text text-anchor="start" x="52" y="-84" font-family="Helvetica,sans-Serif" font-size="10.00">+ PremiumData()</text>
<text text-anchor="start" x="52" y="-73" font-family="Helvetica,sans-Serif" font-size="10.00">+ PremiumData()</text>
<text text-anchor="start" x="52" y="-62" font-family="Helvetica,sans-Serif" font-size="10.00">+ latestPremiumDate()</text>
<text text-anchor="start" x="52" y="-51" font-family="Helvetica,sans-Serif" font-size="10.00">+ premiumData()</text>
<text text-anchor="start" x="52" y="-40" font-family="Helvetica,sans-Serif" font-size="10.00">* fromXML()</text>
<text text-anchor="start" x="52" y="-29" font-family="Helvetica,sans-Serif" font-size="10.00">* toXML()</text>
<text text-anchor="start" x="52" y="-18" font-family="Helvetica,sans-Serif" font-size="10.00">* premiumData()</text>
<text text-anchor="middle" x="101.5" y="-7" font-family="Helvetica,sans-Serif" font-size="10.00">}</text>
</a>
</g>
</g>
<!-- Node2 -->
<g id="node2" class="node"><title>Node2</title>
<g id="a_node2"><a xlink:href="classore_1_1data_1_1_x_m_l_serializable.html" target="_top" xlink:title="Base class for all serializable classes.">
<polygon fill="white" stroke="#666666" points="111,-272 0,-272 0,-165 111,-165 111,-272"/>
<text text-anchor="middle" x="55.5" y="-260" font-family="Helvetica,sans-Serif" font-size="10.00">{XMLSerializable</text>
<text text-anchor="start" x="8" y="-249" font-family="Helvetica,sans-Serif" font-size="10.00">||+ ~XMLSerializable()</text>
<text text-anchor="start" x="8" y="-238" font-family="Helvetica,sans-Serif" font-size="10.00">+ fromXML()</text>
<text text-anchor="start" x="8" y="-227" font-family="Helvetica,sans-Serif" font-size="10.00">+ toXML()</text>
<text text-anchor="start" x="8" y="-216" font-family="Helvetica,sans-Serif" font-size="10.00">+ fromFile()</text>
<text text-anchor="start" x="8" y="-205" font-family="Helvetica,sans-Serif" font-size="10.00">+ toFile()</text>
<text text-anchor="start" x="8" y="-194" font-family="Helvetica,sans-Serif" font-size="10.00">+ fromXMLString()</text>
<text text-anchor="start" x="8" y="-183" font-family="Helvetica,sans-Serif" font-size="10.00">+ toXMLString()</text>
<text text-anchor="middle" x="55.5" y="-172" font-family="Helvetica,sans-Serif" font-size="10.00">}</text>
</a>
</g>
</g>
<!-- Node2&#45;&gt;Node1 -->
<g id="edge1" class="edge"><title>Node2&#45;&gt;Node1</title>
<path fill="none" stroke="#63b8ff" d="M73.7511,-155.01C77.3004,-142.857 81.0075,-130.165 84.514,-118.159"/>
<polygon fill="none" stroke="#63b8ff" points="70.3892,-154.036 70.9453,-164.617 77.1085,-155.999 70.3892,-154.036"/>
</g>
<!-- Node3 -->
<g id="node3" class="node"><title>Node3</title>
<g id="a_node3"><a xlink:title=" ">
<polygon fill="white" stroke="#666666" points="287.5,-239 129.5,-239 129.5,-198 287.5,-198 287.5,-239"/>
<text text-anchor="start" x="137.5" y="-227" font-family="Helvetica,sans-Serif" font-size="10.00">{vector&lt; ore::data::</text>
<text text-anchor="middle" x="208.5" y="-216" font-family="Helvetica,sans-Serif" font-size="10.00">PremiumData::PremiumDatum &gt;</text>
<text text-anchor="middle" x="208.5" y="-205" font-family="Helvetica,sans-Serif" font-size="10.00">||}</text>
</a>
</g>
</g>
<!-- Node3&#45;&gt;Node1 -->
<g id="edge2" class="edge"><title>Node3&#45;&gt;Node1</title>
<path fill="none" stroke="#404040" d="M195.165,-197.871C183.246,-180.326 165.059,-153.556 147.871,-128.257"/>
<polygon fill="none" stroke="#404040" points="147.84,-128.21 141.159,-125.495 141.096,-118.284 147.777,-121 147.84,-128.21"/>
<text text-anchor="middle" x="192.5" y="-139" font-family="Helvetica,sans-Serif" font-size="10.00"> &#45;premiumData_</text>
</g>
<!-- Node4 -->
<g id="node4" class="node"><title>Node4</title>
<g id="a_node4"><a xlink:href="structore_1_1data_1_1_premium_data_1_1_premium_datum.html" target="_top" xlink:title=" ">
<polygon fill="white" stroke="#666666" points="199.5,-382 95.5,-382 95.5,-330 199.5,-330 199.5,-382"/>
<text text-anchor="middle" x="147.5" y="-370" font-family="Helvetica,sans-Serif" font-size="10.00">{PremiumDatum</text>
<text text-anchor="start" x="103.5" y="-359" font-family="Helvetica,sans-Serif" font-size="10.00">||+ PremiumDatum()</text>
<text text-anchor="start" x="103.5" y="-348" font-family="Helvetica,sans-Serif" font-size="10.00">+ PremiumDatum()</text>
<text text-anchor="middle" x="147.5" y="-337" font-family="Helvetica,sans-Serif" font-size="10.00">}</text>
</a>
</g>
</g>
<!-- Node4&#45;&gt;Node3 -->
<g id="edge3" class="edge"><title>Node4&#45;&gt;Node3</title>
<path fill="none" stroke="#404040" d="M158.831,-329.831C168.957,-307.337 183.825,-274.312 194.653,-250.258"/>
<polygon fill="none" stroke="#404040" points="194.68,-250.198 193.496,-243.085 199.606,-239.256 200.79,-246.369 194.68,-250.198"/>
<text text-anchor="middle" x="200" y="-298.5" font-family="Helvetica,sans-Serif" font-size="10.00"> +elements</text>
</g>
<!-- Node5 -->
<g id="node5" class="node"><title>Node5</title>
<g id="a_node5"><a xlink:title=" ">
<polygon fill="white" stroke="#666666" points="97.5,-459 49.5,-459 49.5,-429 97.5,-429 97.5,-459"/>
<text text-anchor="middle" x="73.5" y="-447" font-family="Helvetica,sans-Serif" font-size="10.00">{double</text>
<text text-anchor="middle" x="73.5" y="-436" font-family="Helvetica,sans-Serif" font-size="10.00">||}</text>
</a>
</g>
</g>
<!-- Node5&#45;&gt;Node4 -->
<g id="edge4" class="edge"><title>Node5&#45;&gt;Node4</title>
<path fill="none" stroke="#404040" d="M78.5416,-428.948C82.1426,-420.087 87.5715,-408.714 94.5,-400 97.1236,-396.7 100.042,-393.487 103.122,-390.4"/>
<polygon fill="none" stroke="#404040" points="103.315,-390.221 105,-383.21 112.12,-382.069 110.435,-389.08 103.315,-390.221"/>
<text text-anchor="middle" x="115.5" y="-403" font-family="Helvetica,sans-Serif" font-size="10.00"> +amount</text>
</g>
<!-- Node6 -->
<g id="node6" class="node"><title>Node6</title>
<g id="a_node6"><a xlink:title=" ">
<polygon fill="white" stroke="#666666" points="159.5,-459 115.5,-459 115.5,-429 159.5,-429 159.5,-459"/>
<text text-anchor="middle" x="137.5" y="-447" font-family="Helvetica,sans-Serif" font-size="10.00">{string</text>
<text text-anchor="middle" x="137.5" y="-436" font-family="Helvetica,sans-Serif" font-size="10.00">||}</text>
</a>
</g>
</g>
<!-- Node6&#45;&gt;Node4 -->
<g id="edge5" class="edge"><title>Node6&#45;&gt;Node4</title>
<path fill="none" stroke="#404040" d="M139.151,-428.799C140.258,-419.281 141.77,-406.28 143.203,-393.954"/>
<polygon fill="none" stroke="#404040" points="143.206,-393.928 139.926,-387.506 144.592,-382.008 147.872,-388.43 143.206,-393.928"/>
<text text-anchor="middle" x="155" y="-403" font-family="Helvetica,sans-Serif" font-size="10.00"> +ccy</text>
</g>
<!-- Node7 -->
<g id="node7" class="node"><title>Node7</title>
<g id="a_node7"><a xlink:title=" ">
<polygon fill="white" stroke="#666666" points="192.5,-526 82.5,-526 82.5,-496 192.5,-496 192.5,-526"/>
<text text-anchor="middle" x="137.5" y="-514" font-family="Helvetica,sans-Serif" font-size="10.00">{basic_string&lt; Char &gt;</text>
<text text-anchor="middle" x="137.5" y="-503" font-family="Helvetica,sans-Serif" font-size="10.00">||}</text>
</a>
</g>
</g>
<!-- Node7&#45;&gt;Node6 -->
<g id="edge6" class="edge"><title>Node7&#45;&gt;Node6</title>
<path fill="none" stroke="#63b8ff" d="M137.5,-485.608C137.5,-476.654 137.5,-466.823 137.5,-459.077"/>
<polygon fill="none" stroke="#63b8ff" points="134,-485.896 137.5,-495.896 141,-485.896 134,-485.896"/>
</g>
<!-- Node8 -->
<g id="node8" class="node"><title>Node8</title>
<g id="a_node8"><a xlink:title=" ">
<polygon fill="white" stroke="#666666" points="217.5,-459 177.5,-459 177.5,-429 217.5,-429 217.5,-459"/>
<text text-anchor="middle" x="197.5" y="-447" font-family="Helvetica,sans-Serif" font-size="10.00">{Date</text>
<text text-anchor="middle" x="197.5" y="-436" font-family="Helvetica,sans-Serif" font-size="10.00">||}</text>
</a>
</g>
</g>
<!-- Node8&#45;&gt;Node4 -->
<g id="edge7" class="edge"><title>Node8&#45;&gt;Node4</title>
<path fill="none" stroke="#404040" d="M189.244,-428.799C183.479,-418.885 175.518,-405.19 168.092,-392.417"/>
<polygon fill="none" stroke="#404040" points="168.071,-392.382 161.597,-389.206 162.04,-382.008 168.514,-385.185 168.071,-392.382"/>
<text text-anchor="middle" x="200.5" y="-403" font-family="Helvetica,sans-Serif" font-size="10.00"> +payDate</text>
</g>
<!-- Node9 -->
<g id="node9" class="node"><title>Node9</title>
<g id="a_node9"><a xlink:title=" ">
<polygon fill="white" stroke="#666666" points="293.5,-371 225.5,-371 225.5,-341 293.5,-341 293.5,-371"/>
<text text-anchor="middle" x="259.5" y="-359" font-family="Helvetica,sans-Serif" font-size="10.00">{vector&lt; T &gt;</text>
<text text-anchor="middle" x="259.5" y="-348" font-family="Helvetica,sans-Serif" font-size="10.00">||}</text>
</a>
</g>
</g>
<!-- Node9&#45;&gt;Node3 -->
<g id="edge8" class="edge"><title>Node9&#45;&gt;Node3</title>
<path fill="none" stroke="orange" d="M250.557,-331.239C240.722,-305.109 225.099,-263.602 215.918,-239.209"/>
<polygon fill="orange" stroke="orange" points="247.34,-332.629 254.138,-340.755 253.892,-330.163 247.34,-332.629"/>
<text text-anchor="start" x="242.5" y="-304" font-family="Helvetica,sans-Serif" font-size="10.00"> &lt; ore::data::PremiumData</text>
<text text-anchor="middle" x="300.5" y="-293" font-family="Helvetica,sans-Serif" font-size="10.00">::PremiumDatum &gt;</text>
</g>
<!-- Node10 -->
<g id="node10" class="node"><title>Node10</title>
<g id="a_node10"><a xlink:title=" ">
<polygon fill="white" stroke="#666666" points="278,-459 249,-459 249,-429 278,-429 278,-459"/>
<text text-anchor="middle" x="263.5" y="-447" font-family="Helvetica,sans-Serif" font-size="10.00">{T</text>
<text text-anchor="middle" x="263.5" y="-436" font-family="Helvetica,sans-Serif" font-size="10.00">||}</text>
</a>
</g>
</g>
<!-- Node10&#45;&gt;Node9 -->
<g id="edge9" class="edge"><title>Node10&#45;&gt;Node9</title>
<path fill="none" stroke="#404040" d="M262.839,-428.799C262.266,-416.475 261.421,-398.309 260.725,-383.334"/>
<polygon fill="none" stroke="#404040" points="260.719,-383.209 256.445,-377.402 260.161,-371.222 264.436,-377.03 260.719,-383.209"/>
<text text-anchor="middle" x="286" y="-403" font-family="Helvetica,sans-Serif" font-size="10.00"> +elements</text>
</g>
</g>
</svg>
