<?xml version="1.0" encoding="UTF-8" standalone="no"?>
<!DOCTYPE svg PUBLIC "-//W3C//DTD SVG 1.1//EN"
 "http://www.w3.org/Graphics/SVG/1.1/DTD/svg11.dtd">
<!-- Generated by graphviz version 2.38.0 (20140413.2041)
 -->
<!-- Title: CapFloorVolCurve Pages: 1 -->
<!--zoomable 678 -->
<svg id="main" version="1.1" xmlns="http://www.w3.org/2000/svg" xmlns:xlink="http://www.w3.org/1999/xlink" xml:space="preserve" onload="init(evt)">
<style type="text/css"><![CDATA[
.edge:hover path { stroke: red; }
.edge:hover polygon { stroke: red; fill: red; }
]]></style>
<script type="text/javascript"><![CDATA[
var edges = document.getElementsByTagName('g');
if (edges && edges.length) {
  for (var i=0;i<edges.length;i++) {
    if (edges[i].id.substr(0,4)=='edge') {
      edges[i].setAttribute('class','edge');
    }
  }
}
]]></script>
        <defs>
                <circle id="rim" cx="0" cy="0" r="7"/>
                <circle id="rim2" cx="0" cy="0" r="3.5"/>
                <g id="zoomPlus">
                        <use xlink:href="#rim" fill="#404040">
                                <set attributeName="fill" to="#808080" begin="zoomplus.mouseover" end="zoomplus.mouseout"/>
                        </use>
                        <path d="M-4,0h8M0,-4v8" fill="none" stroke="white" stroke-width="1.5" pointer-events="none"/>
                </g>
                <g id="zoomMin">
                        <use xlink:href="#rim" fill="#404040">
                                <set attributeName="fill" to="#808080" begin="zoomminus.mouseover" end="zoomminus.mouseout"/>
                        </use>
                        <path d="M-4,0h8" fill="none" stroke="white" stroke-width="1.5" pointer-events="none"/>
                </g>
                <g id="dirArrow">
                        <path fill="none" stroke="white" stroke-width="1.5" d="M0,-3.0v7 M-2.5,-0.5L0,-3.0L2.5,-0.5"/>
                </g>
               <g id="resetDef">
                       <use xlink:href="#rim2" fill="#404040">
                               <set attributeName="fill" to="#808080" begin="reset.mouseover" end="reset.mouseout"/>
                       </use>
               </g>
        </defs>

<script type="text/javascript">
var viewWidth = 465;
var viewHeight = 678;
var sectionId = 'dynsection-0';
</script>
<script xlink:href="svgpan.js"/>
<svg id="graph" class="graph">
<g id="viewport">
<title>CapFloorVolCurve</title>
<!-- Node1 -->
<g id="node1" class="node"><title>Node1</title>
<g id="a_node1"><a xlink:title=" ">
<polygon fill="#999999" stroke="#666666" points="310.5,-217 192.5,-217 192.5,-0 310.5,-0 310.5,-217"/>
<text text-anchor="middle" x="251.5" y="-205" font-family="Helvetica,sans-Serif" font-size="10.00">{CapFloorVolCurve</text>
<text text-anchor="start" x="200.5" y="-194" font-family="Helvetica,sans-Serif" font-size="10.00">||+ CapFloorVolCurve()</text>
<text text-anchor="start" x="200.5" y="-183" font-family="Helvetica,sans-Serif" font-size="10.00">+ CapFloorVolCurve()</text>
<text text-anchor="start" x="200.5" y="-172" font-family="Helvetica,sans-Serif" font-size="10.00">* spec()</text>
<text text-anchor="start" x="200.5" y="-161" font-family="Helvetica,sans-Serif" font-size="10.00">* capletVolStructure()</text>
<text text-anchor="start" x="200.5" y="-150" font-family="Helvetica,sans-Serif" font-size="10.00">* calibrationInfo()</text>
<text text-anchor="start" x="200.5" y="-139" font-family="Helvetica,sans-Serif" font-size="10.00">* termAtmOptCurve()</text>
<text text-anchor="start" x="200.5" y="-128" font-family="Helvetica,sans-Serif" font-size="10.00">* termOptSurface()</text>
<text text-anchor="start" x="200.5" y="-117" font-family="Helvetica,sans-Serif" font-size="10.00">* optAtmOptCurve()</text>
<text text-anchor="start" x="200.5" y="-106" font-family="Helvetica,sans-Serif" font-size="10.00">* optOptSurface()</text>
<text text-anchor="start" x="200.5" y="-95" font-family="Helvetica,sans-Serif" font-size="10.00">* capSurface()</text>
<text text-anchor="start" x="200.5" y="-84" font-family="Helvetica,sans-Serif" font-size="10.00">* atmCurve()</text>
<text text-anchor="start" x="200.5" y="-73" font-family="Helvetica,sans-Serif" font-size="10.00">* buildProxyCurve()</text>
<text text-anchor="start" x="200.5" y="-62" font-family="Helvetica,sans-Serif" font-size="10.00">* shiftQuote()</text>
<text text-anchor="start" x="200.5" y="-51" font-family="Helvetica,sans-Serif" font-size="10.00">* transform()</text>
<text text-anchor="start" x="200.5" y="-40" font-family="Helvetica,sans-Serif" font-size="10.00">* transform()</text>
<text text-anchor="start" x="200.5" y="-29" font-family="Helvetica,sans-Serif" font-size="10.00">* populateFixingDates()</text>
<text text-anchor="start" x="200.5" y="-18" font-family="Helvetica,sans-Serif" font-size="10.00">* buildCalibrationInfo()</text>
<text text-anchor="middle" x="251.5" y="-7" font-family="Helvetica,sans-Serif" font-size="10.00">}</text>
</a>
</g>
</g>
<!-- Node2 -->
<g id="node2" class="node"><title>Node2</title>
<g id="a_node2"><a xlink:href="classore_1_1data_1_1_cap_floor_volatility_curve_spec.html" target="_top" xlink:title="Cap/Floor Volatility curve description.">
<polygon fill="white" stroke="#666666" points="159,-371 0,-371 0,-264 159,-264 159,-371"/>
<text text-anchor="middle" x="79.5" y="-359" font-family="Helvetica,sans-Serif" font-size="10.00">{CapFloorVolatilityCurveSpec</text>
<text text-anchor="start" x="8" y="-348" font-family="Helvetica,sans-Serif" font-size="10.00">||+ CapFloorVolatilityCurveSpec()</text>
<text text-anchor="start" x="8" y="-337" font-family="Helvetica,sans-Serif" font-size="10.00">+ CapFloorVolatilityCurveSpec()</text>
<text text-anchor="start" x="8" y="-326" font-family="Helvetica,sans-Serif" font-size="10.00">+ baseType()</text>
<text text-anchor="start" x="8" y="-315" font-family="Helvetica,sans-Serif" font-size="10.00">+ subName()</text>
<text text-anchor="start" x="8" y="-304" font-family="Helvetica,sans-Serif" font-size="10.00">* key()</text>
<text text-anchor="start" x="8" y="-293" font-family="Helvetica,sans-Serif" font-size="10.00">* baseType()</text>
<text text-anchor="start" x="8" y="-282" font-family="Helvetica,sans-Serif" font-size="10.00">* subName()</text>
<text text-anchor="middle" x="79.5" y="-271" font-family="Helvetica,sans-Serif" font-size="10.00">}</text>
</a>
</g>
</g>
<!-- Node2&#45;&gt;Node1 -->
<g id="edge1" class="edge"><title>Node2&#45;&gt;Node1</title>
<path fill="none" stroke="#404040" d="M123.125,-263.998C141.746,-241.588 163.9,-214.925 184.519,-190.11"/>
<polygon fill="none" stroke="#404040" points="184.667,-189.933 185.425,-182.762 192.336,-180.703 191.578,-187.874 184.667,-189.933"/>
<text text-anchor="middle" x="162" y="-238" font-family="Helvetica,sans-Serif" font-size="10.00"> &#45;spec_</text>
</g>
<!-- Node3 -->
<g id="node3" class="node"><title>Node3</title>
<g id="a_node3"><a xlink:href="classore_1_1data_1_1_curve_spec.html" target="_top" xlink:title="Curve Specification.">
<polygon fill="white" stroke="#666666" points="201.5,-526 113.5,-526 113.5,-408 201.5,-408 201.5,-526"/>
<text text-anchor="middle" x="157.5" y="-514" font-family="Helvetica,sans-Serif" font-size="10.00">{CurveSpec</text>
<text text-anchor="start" x="121.5" y="-503" font-family="Helvetica,sans-Serif" font-size="10.00">||+ CurveSpec()</text>
<text text-anchor="start" x="121.5" y="-492" font-family="Helvetica,sans-Serif" font-size="10.00">+ CurveSpec()</text>
<text text-anchor="start" x="121.5" y="-481" font-family="Helvetica,sans-Serif" font-size="10.00">+ ~CurveSpec()</text>
<text text-anchor="start" x="121.5" y="-470" font-family="Helvetica,sans-Serif" font-size="10.00">* baseType()</text>
<text text-anchor="start" x="121.5" y="-459" font-family="Helvetica,sans-Serif" font-size="10.00">* subName()</text>
<text text-anchor="start" x="121.5" y="-448" font-family="Helvetica,sans-Serif" font-size="10.00">* name()</text>
<text text-anchor="start" x="121.5" y="-437" font-family="Helvetica,sans-Serif" font-size="10.00">* curveConfigID()</text>
<text text-anchor="start" x="121.5" y="-426" font-family="Helvetica,sans-Serif" font-size="10.00">* baseName()</text>
<text text-anchor="middle" x="157.5" y="-415" font-family="Helvetica,sans-Serif" font-size="10.00">}</text>
</a>
</g>
</g>
<!-- Node3&#45;&gt;Node2 -->
<g id="edge2" class="edge"><title>Node3&#45;&gt;Node2</title>
<path fill="none" stroke="#63b8ff" d="M121.988,-398.846C117.067,-389.541 112.072,-380.095 107.319,-371.107"/>
<polygon fill="none" stroke="#63b8ff" points="118.904,-400.5 126.672,-407.704 125.092,-397.228 118.904,-400.5"/>
</g>
<!-- Node4 -->
<g id="node4" class="node"><title>Node4</title>
<g id="a_node4"><a xlink:title=" ">
<polygon fill="white" stroke="#666666" points="119.5,-603 75.5,-603 75.5,-573 119.5,-573 119.5,-603"/>
<text text-anchor="middle" x="97.5" y="-591" font-family="Helvetica,sans-Serif" font-size="10.00">{string</text>
<text text-anchor="middle" x="97.5" y="-580" font-family="Helvetica,sans-Serif" font-size="10.00">||}</text>
</a>
</g>
</g>
<!-- Node4&#45;&gt;Node2 -->
<g id="edge5" class="edge"><title>Node4&#45;&gt;Node2</title>
<path fill="none" stroke="#404040" d="M91.1063,-572.809C86.0057,-560.665 79.2724,-542.57 76.5,-526 68.5897,-478.721 69.7122,-424.537 72.6151,-383.396"/>
<polygon fill="none" stroke="#404040" points="72.6219,-383.306 69.0939,-377.017 73.5423,-371.341 77.0703,-377.63 72.6219,-383.306"/>
<text text-anchor="middle" x="90.5" y="-464.5" font-family="Helvetica,sans-Serif" font-size="10.00"> &#45;key_</text>
</g>
<!-- Node4&#45;&gt;Node3 -->
<g id="edge3" class="edge"><title>Node4&#45;&gt;Node3</title>
<path fill="none" stroke="#404040" d="M104.618,-572.882C109.297,-563.603 115.803,-550.699 122.655,-537.109"/>
<polygon fill="none" stroke="#404040" points="122.794,-536.833 121.924,-529.675 128.197,-526.118 129.067,-533.276 122.794,-536.833"/>
<text text-anchor="middle" x="154.5" y="-547" font-family="Helvetica,sans-Serif" font-size="10.00"> &#45;curveConfigID_</text>
</g>
<!-- Node5 -->
<g id="node5" class="node"><title>Node5</title>
<g id="a_node5"><a xlink:title=" ">
<polygon fill="white" stroke="#666666" points="152.5,-670 42.5,-670 42.5,-640 152.5,-640 152.5,-670"/>
<text text-anchor="middle" x="97.5" y="-658" font-family="Helvetica,sans-Serif" font-size="10.00">{basic_string&lt; Char &gt;</text>
<text text-anchor="middle" x="97.5" y="-647" font-family="Helvetica,sans-Serif" font-size="10.00">||}</text>
</a>
</g>
</g>
<!-- Node5&#45;&gt;Node4 -->
<g id="edge4" class="edge"><title>Node5&#45;&gt;Node4</title>
<path fill="none" stroke="#63b8ff" d="M97.5,-629.608C97.5,-620.654 97.5,-610.823 97.5,-603.077"/>
<polygon fill="none" stroke="#63b8ff" points="94.0001,-629.896 97.5,-639.896 101,-629.896 94.0001,-629.896"/>
</g>
<!-- Node6 -->
<g id="node6" class="node"><title>Node6</title>
<g id="a_node6"><a xlink:title=" ">
<polygon fill="white" stroke="#666666" points="325.5,-338 177.5,-338 177.5,-297 325.5,-297 325.5,-338"/>
<text text-anchor="start" x="185.5" y="-326" font-family="Helvetica,sans-Serif" font-size="10.00">{shared_ptr&lt; QuantLib</text>
<text text-anchor="middle" x="251.5" y="-315" font-family="Helvetica,sans-Serif" font-size="10.00">::OptionletVolatilityStructure &gt;</text>
<text text-anchor="middle" x="251.5" y="-304" font-family="Helvetica,sans-Serif" font-size="10.00">||}</text>
</a>
</g>
</g>
<!-- Node6&#45;&gt;Node1 -->
<g id="edge6" class="edge"><title>Node6&#45;&gt;Node1</title>
<path fill="none" stroke="#404040" d="M251.5,-296.652C251.5,-280.242 251.5,-255.453 251.5,-229.238"/>
<polygon fill="none" stroke="#404040" points="251.5,-229.119 247.5,-223.119 251.5,-217.119 255.5,-223.119 251.5,-229.119"/>
<text text-anchor="middle" x="277.5" y="-238" font-family="Helvetica,sans-Serif" font-size="10.00"> &#45;capletVol_</text>
</g>
<!-- Node7 -->
<g id="node7" class="node"><title>Node7</title>
<g id="a_node7"><a xlink:title=" ">
<polygon fill="white" stroke="#666666" points="457,-338 344,-338 344,-297 457,-297 457,-338"/>
<text text-anchor="start" x="352" y="-326" font-family="Helvetica,sans-Serif" font-size="10.00">{shared_ptr&lt; ore::data</text>
<text text-anchor="middle" x="400.5" y="-315" font-family="Helvetica,sans-Serif" font-size="10.00">::IrVolCalibrationInfo &gt;</text>
<text text-anchor="middle" x="400.5" y="-304" font-family="Helvetica,sans-Serif" font-size="10.00">||}</text>
</a>
</g>
</g>
<!-- Node7&#45;&gt;Node1 -->
<g id="edge7" class="edge"><title>Node7&#45;&gt;Node1</title>
<path fill="none" stroke="#404040" d="M386.213,-296.652C370.301,-274.545 343.442,-237.231 317.875,-201.712"/>
<polygon fill="none" stroke="#404040" points="317.719,-201.495 310.967,-198.962 310.708,-191.756 317.46,-194.288 317.719,-201.495"/>
<text text-anchor="middle" x="384" y="-238" font-family="Helvetica,sans-Serif" font-size="10.00"> &#45;calibrationInfo_</text>
</g>
</g>
</svg>
        <g id="navigator" transform="translate(0 0)" fill="#404254">
                <rect fill="#f2f5e9" fill-opacity="0.5" stroke="#606060" stroke-width=".5" x="0" y="0" width="60" height="60"/>
                <use id="zoomplus" xlink:href="#zoomPlus" x="17" y="9" onmousedown="handleZoom(evt,'in')"/>
                <use id="zoomminus" xlink:href="#zoomMin" x="42" y="9" onmousedown="handleZoom(evt,'out')"/>
                <use id="reset" xlink:href="#resetDef" x="30" y="36" onmousedown="handleReset()"/>
                <g id="arrowUp" xlink:href="#dirArrow" transform="translate(30 24)" onmousedown="handlePan(0,-1)">
                  <use xlink:href="#rim" fill="#404040">
                        <set attributeName="fill" to="#808080" begin="arrowUp.mouseover" end="arrowUp.mouseout"/>
                  </use>
                  <path fill="none" stroke="white" stroke-width="1.5" d="M0,-3.0v7 M-2.5,-0.5L0,-3.0L2.5,-0.5"/>
                </g>
                <g id="arrowRight" xlink:href="#dirArrow" transform="rotate(90) translate(36 -43)" onmousedown="handlePan(1,0)">
                  <use xlink:href="#rim" fill="#404040">
                        <set attributeName="fill" to="#808080" begin="arrowRight.mouseover" end="arrowRight.mouseout"/>
                  </use>
                  <path fill="none" stroke="white" stroke-width="1.5" d="M0,-3.0v7 M-2.5,-0.5L0,-3.0L2.5,-0.5"/>
                </g>
                <g id="arrowDown" xlink:href="#dirArrow" transform="rotate(180) translate(-30 -48)" onmousedown="handlePan(0,1)">
                  <use xlink:href="#rim" fill="#404040">
                        <set attributeName="fill" to="#808080" begin="arrowDown.mouseover" end="arrowDown.mouseout"/>
                  </use>
                  <path fill="none" stroke="white" stroke-width="1.5" d="M0,-3.0v7 M-2.5,-0.5L0,-3.0L2.5,-0.5"/>
                </g>
                <g id="arrowLeft" xlink:href="#dirArrow" transform="rotate(270) translate(-36 17)" onmousedown="handlePan(-1,0)">
                  <use xlink:href="#rim" fill="#404040">
                        <set attributeName="fill" to="#808080" begin="arrowLeft.mouseover" end="arrowLeft.mouseout"/>
                  </use>
                  <path fill="none" stroke="white" stroke-width="1.5" d="M0,-3.0v7 M-2.5,-0.5L0,-3.0L2.5,-0.5"/>
                </g>
        </g>
        <svg viewBox="0 0 15 15" width="100%" height="30px" preserveAspectRatio="xMaxYMin meet">
         <g id="arrow_out" transform="scale(0.3 0.3)">
          <a xlink:href="classore_1_1data_1_1_cap_floor_vol_curve__coll__graph_org.svg" target="_base">
           <rect id="button" ry="5" rx="5" y="6" x="6" height="38" width="38"
                fill="#f2f5e9" fill-opacity="0.5" stroke="#606060" stroke-width="1.0"/>
           <path id="arrow"
             d="M 11.500037,31.436501 C 11.940474,20.09759 22.043105,11.32322 32.158766,21.979434 L 37.068811,17.246167 C 37.068811,17.246167 37.088388,32 37.088388,32 L 22.160133,31.978069 C 22.160133,31.978069 26.997745,27.140456 26.997745,27.140456 C 18.528582,18.264221 13.291696,25.230495 11.500037,31.436501 z"
             style="fill:#404040;"/>
          </a>
         </g>
        </svg>
</svg>
