<?xml version="1.0" encoding="UTF-8" standalone="no"?>
<!DOCTYPE svg PUBLIC "-//W3C//DTD SVG 1.1//EN"
 "http://www.w3.org/Graphics/SVG/1.1/DTD/svg11.dtd">
<!-- Generated by graphviz version 2.38.0 (20140413.2041)
 -->
<!-- Title: build Pages: 1 -->
<svg width="217pt" height="223pt"
 viewBox="0.00 0.00 217.00 223.00" xmlns="http://www.w3.org/2000/svg" xmlns:xlink="http://www.w3.org/1999/xlink">
<g id="graph0" class="graph" transform="scale(1 1) rotate(0) translate(4 219)">
<title>build</title>
<!-- Node1 -->
<g id="node1" class="node"><title>Node1</title>
<g id="a_node1"><a xlink:title=" ">
<polygon fill="#999999" stroke="#666666" points="37,-111 0,-111 0,-92 37,-92 37,-111"/>
<text text-anchor="middle" x="18.5" y="-99" font-family="Helvetica,sans-Serif" font-size="10.00">build</text>
</a>
</g>
</g>
<!-- Node2 -->
<g id="node2" class="node"><title>Node2</title>
<g id="a_node2"><a xlink:href="group__utilities.html#ga94621f11193864fa1338296232dc5be9" target="_top" xlink:title="Convert text to bool.">
<polygon fill="white" stroke="#666666" points="193,-197 89,-197 89,-178 193,-178 193,-197"/>
<text text-anchor="middle" x="141" y="-185" font-family="Helvetica,sans-Serif" font-size="10.00">ore::data::parseBool</text>
</a>
</g>
</g>
<!-- Node1&#45;&gt;Node2 -->
<g id="edge1" class="edge"><title>Node1&#45;&gt;Node2</title>
<path fill="none" stroke="#63b8ff" d="M24.671,-111.299C32.9159,-125.966 50.4383,-153.503 73,-168.5 76.1025,-170.562 79.4288,-172.403 82.8801,-174.047"/>
<polygon fill="#63b8ff" stroke="#63b8ff" points="81.663,-177.331 92.2398,-177.951 84.3577,-170.871 81.663,-177.331"/>
</g>
<!-- Node3 -->
<g id="node3" class="node"><title>Node3</title>
<g id="a_node3"><a xlink:href="group__utilities.html#ga86adcf55f91e340ff40783964666e732" target="_top" xlink:title="Convert text to QuantLib::BusinessDayConvention.">
<polygon fill="white" stroke="#666666" points="203.5,-159.5 78.5,-159.5 78.5,-129.5 203.5,-129.5 203.5,-159.5"/>
<text text-anchor="start" x="86.5" y="-147.5" font-family="Helvetica,sans-Serif" font-size="10.00">ore::data::parseBusiness</text>
<text text-anchor="middle" x="141" y="-136.5" font-family="Helvetica,sans-Serif" font-size="10.00">DayConvention</text>
</a>
</g>
</g>
<!-- Node1&#45;&gt;Node3 -->
<g id="edge3" class="edge"><title>Node1&#45;&gt;Node3</title>
<path fill="none" stroke="#63b8ff" d="M37.0217,-107.753C50.5289,-112.573 69.9389,-119.499 88.2741,-126.042"/>
<polygon fill="#63b8ff" stroke="#63b8ff" points="87.1327,-129.351 97.7273,-129.415 89.4853,-122.758 87.1327,-129.351"/>
</g>
<!-- Node4 -->
<g id="node4" class="node"><title>Node4</title>
<g id="a_node4"><a xlink:href="group__utilities.html#ga0f72d6fcccae10a674bdcd5095200f14" target="_top" xlink:title="Convert text to QuantLib::Calendar.">
<polygon fill="white" stroke="#666666" points="202.5,-111 79.5,-111 79.5,-92 202.5,-92 202.5,-111"/>
<text text-anchor="middle" x="141" y="-99" font-family="Helvetica,sans-Serif" font-size="10.00">ore::data::parseCalendar</text>
</a>
</g>
</g>
<!-- Node1&#45;&gt;Node4 -->
<g id="edge4" class="edge"><title>Node1&#45;&gt;Node4</title>
<path fill="none" stroke="#63b8ff" d="M37.0217,-101.5C45.8949,-101.5 57.3156,-101.5 69.3054,-101.5"/>
<polygon fill="#63b8ff" stroke="#63b8ff" points="69.4673,-105 79.4673,-101.5 69.4673,-98.0001 69.4673,-105"/>
</g>
<!-- Node5 -->
<g id="node5" class="node"><title>Node5</title>
<g id="a_node5"><a xlink:href="group__utilities.html#gaefb008d0de256c79140545d9c7549093" target="_top" xlink:title="Convert text to QuantLib::DayCounter.">
<polygon fill="white" stroke="#666666" points="209,-74 73,-74 73,-55 209,-55 209,-74"/>
<text text-anchor="middle" x="141" y="-62" font-family="Helvetica,sans-Serif" font-size="10.00">ore::data::parseDayCounter</text>
</a>
</g>
</g>
<!-- Node1&#45;&gt;Node5 -->
<g id="edge5" class="edge"><title>Node1&#45;&gt;Node5</title>
<path fill="none" stroke="#63b8ff" d="M37.2636,-95.2841C47.6431,-91.7122 61.0181,-87.2122 73,-83.5 80.2272,-81.2609 87.9245,-78.9811 95.4304,-76.8144"/>
<polygon fill="#63b8ff" stroke="#63b8ff" points="96.4771,-80.1555 105.132,-74.0441 94.5549,-73.4246 96.4771,-80.1555"/>
</g>
<!-- Node6 -->
<g id="node6" class="node"><title>Node6</title>
<g id="a_node6"><a xlink:href="group__utilities.html#gaecd67eda4fb5f4859bb8f6d383547721" target="_top" xlink:title="Convert text to QuantLib::Integer.">
<polygon fill="white" stroke="#666666" points="198,-19 84,-19 84,-0 198,-0 198,-19"/>
<text text-anchor="middle" x="141" y="-7" font-family="Helvetica,sans-Serif" font-size="10.00">ore::data::parseInteger</text>
</a>
</g>
</g>
<!-- Node1&#45;&gt;Node6 -->
<g id="edge6" class="edge"><title>Node1&#45;&gt;Node6</title>
<path fill="none" stroke="#63b8ff" d="M27.4618,-91.7008C37.3127,-79.9846 54.9982,-60.2388 73,-46.5 84.3354,-37.8489 97.9406,-29.9491 109.921,-23.6909"/>
<polygon fill="#63b8ff" stroke="#63b8ff" points="111.765,-26.6802 119.106,-19.0408 108.603,-20.435 111.765,-26.6802"/>
</g>
<!-- Node2&#45;&gt;Node2 -->
<g id="edge2" class="edge"><title>Node2&#45;&gt;Node2</title>
<path fill="none" stroke="#63b8ff" d="M122.196,-197.083C113.048,-205.734 119.316,-215 141,-215 154.552,-215 162.083,-211.38 163.591,-206.554"/>
<polygon fill="#63b8ff" stroke="#63b8ff" points="166.767,-205.068 159.804,-197.083 160.267,-207.668 166.767,-205.068"/>
</g>
<!-- Node6&#45;&gt;Node6 -->
<g id="edge7" class="edge"><title>Node6&#45;&gt;Node6</title>
<path fill="none" stroke="#63b8ff" d="M122.196,-19.0828C113.048,-27.7337 119.316,-37 141,-37 154.552,-37 162.083,-33.3804 163.591,-28.5536"/>
<polygon fill="#63b8ff" stroke="#63b8ff" points="166.767,-27.0681 159.804,-19.0828 160.267,-29.6675 166.767,-27.0681"/>
</g>
</g>
</svg>
