<?xml version="1.0" encoding="UTF-8" standalone="no"?>
<!DOCTYPE svg PUBLIC "-//W3C//DTD SVG 1.1//EN"
 "http://www.w3.org/Graphics/SVG/1.1/DTD/svg11.dtd">
<!-- Generated by graphviz version 2.38.0 (20140413.2041)
 -->
<!-- Title: commodityCurveConfig Pages: 1 -->
<svg width="657pt" height="109pt"
 viewBox="0.00 0.00 657.00 108.50" xmlns="http://www.w3.org/2000/svg" xmlns:xlink="http://www.w3.org/1999/xlink">
<g id="graph0" class="graph" transform="scale(1 1) rotate(0) translate(4 104.5)">
<title>commodityCurveConfig</title>
<!-- Node1 -->
<g id="node1" class="node"><title>Node1</title>
<g id="a_node1"><a xlink:title=" ">
<polygon fill="#999999" stroke="#666666" points="116,-46 0,-46 0,-27 116,-27 116,-46"/>
<text text-anchor="middle" x="58" y="-34" font-family="Helvetica,sans-Serif" font-size="10.00">commodityCurveConfig</text>
</a>
</g>
</g>
<!-- Node2 -->
<g id="node2" class="node"><title>Node2</title>
<g id="a_node2"><a xlink:href="classore_1_1data_1_1_curve_configurations.html#a04f00e9080c4647c43cb2d050a75fb0e" target="_top" xlink:title=" ">
<polygon fill="white" stroke="#666666" points="182,-46 152,-46 152,-27 182,-27 182,-46"/>
<text text-anchor="middle" x="167" y="-34" font-family="Helvetica,sans-Serif" font-size="10.00">get</text>
</a>
</g>
</g>
<!-- Node1&#45;&gt;Node2 -->
<g id="edge1" class="edge"><title>Node1&#45;&gt;Node2</title>
<path fill="none" stroke="#63b8ff" d="M116.259,-36.5C125.31,-36.5 134.217,-36.5 141.936,-36.5"/>
<polygon fill="#63b8ff" stroke="#63b8ff" points="141.95,-40.0001 151.95,-36.5 141.95,-33.0001 141.95,-40.0001"/>
</g>
<!-- Node3 -->
<g id="node3" class="node"><title>Node3</title>
<g id="a_node3"><a xlink:href="classore_1_1data_1_1_curve_configurations.html#ae21cee2080e2120466063e68c1a3e2a9" target="_top" xlink:title=" ">
<polygon fill="white" stroke="#666666" points="281,-46 218,-46 218,-27 281,-27 281,-46"/>
<text text-anchor="middle" x="249.5" y="-34" font-family="Helvetica,sans-Serif" font-size="10.00">parseNode</text>
</a>
</g>
</g>
<!-- Node2&#45;&gt;Node3 -->
<g id="edge2" class="edge"><title>Node2&#45;&gt;Node3</title>
<path fill="none" stroke="#63b8ff" d="M182.022,-36.5C189.3,-36.5 198.604,-36.5 207.931,-36.5"/>
<polygon fill="#63b8ff" stroke="#63b8ff" points="207.966,-40.0001 217.966,-36.5 207.966,-33.0001 207.966,-40.0001"/>
</g>
<!-- Node4 -->
<g id="node4" class="node"><title>Node4</title>
<g id="a_node4"><a xlink:href="classore_1_1data_1_1_j_s_o_n_message.html#a5e21eca2668ed948bdc409b19a78e5bb" target="_top" xlink:title="generate Boost log record to pass to corresponding sinks">
<polygon fill="white" stroke="#666666" points="462,-74 317,-74 317,-55 462,-55 462,-74"/>
<text text-anchor="middle" x="389.5" y="-62" font-family="Helvetica,sans-Serif" font-size="10.00">ore::data::JSONMessage::log</text>
</a>
</g>
</g>
<!-- Node3&#45;&gt;Node4 -->
<g id="edge3" class="edge"><title>Node3&#45;&gt;Node4</title>
<path fill="none" stroke="#63b8ff" d="M281.127,-42.7141C295.929,-45.7175 314.186,-49.4218 331.42,-52.9186"/>
<polygon fill="#63b8ff" stroke="#63b8ff" points="330.919,-56.3881 341.415,-54.9466 332.311,-49.5279 330.919,-56.3881"/>
</g>
<!-- Node7 -->
<g id="node7" class="node"><title>Node7</title>
<g id="a_node7"><a xlink:href="namespaceore_1_1data.html#a86651dfeb5c18ee891f7a4734d8cf455" target="_top" xlink:title=" ">
<polygon fill="white" stroke="#666666" points="438.5,-19 340.5,-19 340.5,-0 438.5,-0 438.5,-19"/>
<text text-anchor="middle" x="389.5" y="-7" font-family="Helvetica,sans-Serif" font-size="10.00">ore::data::to_string</text>
</a>
</g>
</g>
<!-- Node3&#45;&gt;Node7 -->
<g id="edge6" class="edge"><title>Node3&#45;&gt;Node7</title>
<path fill="none" stroke="#63b8ff" d="M281.127,-30.5078C295.664,-27.6636 313.532,-24.1676 330.492,-20.8494"/>
<polygon fill="#63b8ff" stroke="#63b8ff" points="331.198,-24.2776 340.34,-18.9226 329.854,-17.4079 331.198,-24.2776"/>
</g>
<!-- Node5 -->
<g id="node5" class="node"><title>Node5</title>
<g id="a_node5"><a xlink:href="classore_1_1data_1_1_j_s_o_n_message.html#a6a9077605df871e6e961dd0099645b35" target="_top" xlink:title="generate Boost log record &#45; this method is called by log()">
<polygon fill="white" stroke="#666666" points="636.5,-100.5 510.5,-100.5 510.5,-70.5 636.5,-70.5 636.5,-100.5"/>
<text text-anchor="start" x="518.5" y="-88.5" font-family="Helvetica,sans-Serif" font-size="10.00">ore::data::JSONMessage</text>
<text text-anchor="middle" x="573.5" y="-77.5" font-family="Helvetica,sans-Serif" font-size="10.00">::emitLog</text>
</a>
</g>
</g>
<!-- Node4&#45;&gt;Node5 -->
<g id="edge4" class="edge"><title>Node4&#45;&gt;Node5</title>
<path fill="none" stroke="#63b8ff" d="M462.17,-72.7696C474.729,-74.2187 487.802,-75.7272 500.373,-77.1776"/>
<polygon fill="#63b8ff" stroke="#63b8ff" points="499.992,-80.6568 510.327,-78.3262 500.794,-73.703 499.992,-80.6568"/>
</g>
<!-- Node6 -->
<g id="node6" class="node"><title>Node6</title>
<g id="a_node6"><a xlink:href="classore_1_1data_1_1_j_s_o_n_message.html#a39f83a0ab38c425a8844c8892b93d69e" target="_top" xlink:title="return a std::string for the log file">
<polygon fill="white" stroke="#666666" points="649,-52 498,-52 498,-33 649,-33 649,-52"/>
<text text-anchor="middle" x="573.5" y="-40" font-family="Helvetica,sans-Serif" font-size="10.00">ore::data::JSONMessage::msg</text>
</a>
</g>
</g>
<!-- Node4&#45;&gt;Node6 -->
<g id="edge5" class="edge"><title>Node4&#45;&gt;Node6</title>
<path fill="none" stroke="#63b8ff" d="M462.17,-55.8366C470.607,-54.8168 479.276,-53.7689 487.868,-52.7302"/>
<polygon fill="#63b8ff" stroke="#63b8ff" points="488.395,-56.1922 497.902,-51.5173 487.555,-49.2427 488.395,-56.1922"/>
</g>
<!-- Node7&#45;&gt;Node7 -->
<g id="edge7" class="edge"><title>Node7&#45;&gt;Node7</title>
<path fill="none" stroke="#63b8ff" d="M367.922,-19.0828C357.424,-27.7337 364.617,-37 389.5,-37 405.441,-37 414.121,-33.1971 415.542,-28.1894"/>
<polygon fill="#63b8ff" stroke="#63b8ff" points="418.622,-26.5218 411.078,-19.0828 412.336,-29.6027 418.622,-26.5218"/>
</g>
</g>
</svg>
