<?xml version="1.0" encoding="UTF-8" standalone="no"?>
<!DOCTYPE svg PUBLIC "-//W3C//DTD SVG 1.1//EN"
 "http://www.w3.org/Graphics/SVG/1.1/DTD/svg11.dtd">
<!-- Generated by graphviz version 2.38.0 (20140413.2041)
 -->
<!-- Title: fromXML Pages: 1 -->
<!--zoomable 629 -->
<svg id="main" version="1.1" xmlns="http://www.w3.org/2000/svg" xmlns:xlink="http://www.w3.org/1999/xlink" xml:space="preserve" onload="init(evt)">
<style type="text/css"><![CDATA[
.edge:hover path { stroke: red; }
.edge:hover polygon { stroke: red; fill: red; }
]]></style>
<script type="text/javascript"><![CDATA[
var edges = document.getElementsByTagName('g');
if (edges && edges.length) {
  for (var i=0;i<edges.length;i++) {
    if (edges[i].id.substr(0,4)=='edge') {
      edges[i].setAttribute('class','edge');
    }
  }
}
]]></script>
        <defs>
                <circle id="rim" cx="0" cy="0" r="7"/>
                <circle id="rim2" cx="0" cy="0" r="3.5"/>
                <g id="zoomPlus">
                        <use xlink:href="#rim" fill="#404040">
                                <set attributeName="fill" to="#808080" begin="zoomplus.mouseover" end="zoomplus.mouseout"/>
                        </use>
                        <path d="M-4,0h8M0,-4v8" fill="none" stroke="white" stroke-width="1.5" pointer-events="none"/>
                </g>
                <g id="zoomMin">
                        <use xlink:href="#rim" fill="#404040">
                                <set attributeName="fill" to="#808080" begin="zoomminus.mouseover" end="zoomminus.mouseout"/>
                        </use>
                        <path d="M-4,0h8" fill="none" stroke="white" stroke-width="1.5" pointer-events="none"/>
                </g>
                <g id="dirArrow">
                        <path fill="none" stroke="white" stroke-width="1.5" d="M0,-3.0v7 M-2.5,-0.5L0,-3.0L2.5,-0.5"/>
                </g>
               <g id="resetDef">
                       <use xlink:href="#rim2" fill="#404040">
                               <set attributeName="fill" to="#808080" begin="reset.mouseover" end="reset.mouseout"/>
                       </use>
               </g>
        </defs>

<script type="text/javascript">
var viewWidth = 659;
var viewHeight = 629;
var sectionId = 'dynsection-7';
</script>
<script xlink:href="svgpan.js"/>
<svg id="graph" class="graph">
<g id="viewport">
<title>fromXML</title>
<!-- Node1 -->
<g id="node1" class="node"><title>Node1</title>
<g id="a_node1"><a xlink:title=" ">
<polygon fill="#999999" stroke="#666666" points="54,-74 0,-74 0,-55 54,-55 54,-74"/>
<text text-anchor="middle" x="27" y="-62" font-family="Helvetica,sans-Serif" font-size="10.00">fromXML</text>
</a>
</g>
</g>
<!-- Node2 -->
<g id="node2" class="node"><title>Node2</title>
<g id="a_node2"><a xlink:href="classore_1_1data_1_1_leg_data.html#a7741ae0fc924943de5bfe02928262eb7" target="_top" xlink:title=" ">
<polygon fill="white" stroke="#666666" points="197,-358.5 100,-358.5 100,-328.5 197,-328.5 197,-358.5"/>
<text text-anchor="start" x="108" y="-346.5" font-family="Helvetica,sans-Serif" font-size="10.00">ore::data::LegData</text>
<text text-anchor="middle" x="148.5" y="-335.5" font-family="Helvetica,sans-Serif" font-size="10.00">::fromXML</text>
</a>
</g>
</g>
<!-- Node1&#45;&gt;Node2 -->
<g id="edge1" class="edge"><title>Node1&#45;&gt;Node2</title>
<path fill="none" stroke="#63b8ff" d="M32.1135,-74.1038C48.7959,-113.053 111.718,-259.958 136.944,-318.854"/>
<polygon fill="#63b8ff" stroke="#63b8ff" points="133.772,-320.34 140.927,-328.154 140.207,-317.583 133.772,-320.34"/>
</g>
<!-- Node17 -->
<g id="node17" class="node"><title>Node17</title>
<g id="a_node17"><a xlink:href="group__utilities.html#ga59b5fdda574d90facae95dec2d13040d" target="_top" xlink:title="Convert std::string to QuantLib::Date.">
<polygon fill="white" stroke="#666666" points="201,-74 96,-74 96,-55 201,-55 201,-74"/>
<text text-anchor="middle" x="148.5" y="-62" font-family="Helvetica,sans-Serif" font-size="10.00">ore::data::parseDate</text>
</a>
</g>
</g>
<!-- Node1&#45;&gt;Node17 -->
<g id="edge26" class="edge"><title>Node1&#45;&gt;Node17</title>
<path fill="none" stroke="#63b8ff" d="M54.2248,-64.5C63.5879,-64.5 74.5751,-64.5 85.6583,-64.5"/>
<polygon fill="#63b8ff" stroke="#63b8ff" points="85.82,-68.0001 95.8199,-64.5 85.8199,-61.0001 85.82,-68.0001"/>
</g>
<!-- Node20 -->
<g id="node20" class="node"><title>Node20</title>
<g id="a_node20"><a xlink:href="group__utilities.html#ga3447951aa05e25440d0d5b7eecfce581" target="_top" xlink:title="Attempt to convert text to Real.">
<polygon fill="white" stroke="#666666" points="207,-37 90,-37 90,-18 207,-18 207,-37"/>
<text text-anchor="middle" x="148.5" y="-25" font-family="Helvetica,sans-Serif" font-size="10.00">ore::data::tryParseReal</text>
</a>
</g>
</g>
<!-- Node1&#45;&gt;Node20 -->
<g id="edge31" class="edge"><title>Node1&#45;&gt;Node20</title>
<path fill="none" stroke="#63b8ff" d="M54.2248,-56.3802C69.6168,-51.6145 89.3973,-45.4899 106.779,-40.1082"/>
<polygon fill="#63b8ff" stroke="#63b8ff" points="108.167,-43.3424 116.685,-37.0412 106.097,-36.6556 108.167,-43.3424"/>
</g>
<!-- Node3 -->
<g id="node3" class="node"><title>Node3</title>
<g id="a_node3"><a xlink:href="classore_1_1data_1_1_x_m_l_utils.html#a37c092916f4bdf10d4fbf6bb9e474db7" target="_top" xlink:title=" ">
<polygon fill="white" stroke="#666666" points="359,-380.5 260,-380.5 260,-350.5 359,-350.5 359,-380.5"/>
<text text-anchor="start" x="268" y="-368.5" font-family="Helvetica,sans-Serif" font-size="10.00">ore::data::XMLUtils</text>
<text text-anchor="middle" x="309.5" y="-357.5" font-family="Helvetica,sans-Serif" font-size="10.00">::checkNode</text>
</a>
</g>
</g>
<!-- Node2&#45;&gt;Node3 -->
<g id="edge2" class="edge"><title>Node2&#45;&gt;Node3</title>
<path fill="none" stroke="#63b8ff" d="M197.205,-350.101C213.722,-352.386 232.431,-354.975 249.731,-357.368"/>
<polygon fill="#63b8ff" stroke="#63b8ff" points="249.342,-360.848 259.728,-358.752 250.302,-353.914 249.342,-360.848"/>
</g>
<!-- Node4 -->
<g id="node4" class="node"><title>Node4</title>
<g id="a_node4"><a xlink:href="classore_1_1data_1_1_schedule_data.html#a7741ae0fc924943de5bfe02928262eb7" target="_top" xlink:title=" ">
<polygon fill="white" stroke="#666666" points="370.5,-428.5 248.5,-428.5 248.5,-398.5 370.5,-398.5 370.5,-428.5"/>
<text text-anchor="start" x="256.5" y="-416.5" font-family="Helvetica,sans-Serif" font-size="10.00">ore::data::ScheduleData</text>
<text text-anchor="middle" x="309.5" y="-405.5" font-family="Helvetica,sans-Serif" font-size="10.00">::fromXML</text>
</a>
</g>
</g>
<!-- Node2&#45;&gt;Node4 -->
<g id="edge3" class="edge"><title>Node2&#45;&gt;Node4</title>
<path fill="none" stroke="#63b8ff" d="M178.192,-358.599C196.506,-367.991 220.878,-380.037 243,-389.5 247.12,-391.262 251.417,-393.017 255.754,-394.728"/>
<polygon fill="#63b8ff" stroke="#63b8ff" points="254.67,-398.062 265.26,-398.394 257.189,-391.53 254.67,-398.062"/>
</g>
<!-- Node5 -->
<g id="node5" class="node"><title>Node5</title>
<g id="a_node5"><a xlink:href="classore_1_1data_1_1_x_m_l_utils.html#a42678b2a0d7c4052dc19123914359ec1" target="_top" xlink:title="Returns all the children with a given name.">
<polygon fill="white" stroke="#666666" points="513.5,-471.5 414.5,-471.5 414.5,-441.5 513.5,-441.5 513.5,-471.5"/>
<text text-anchor="start" x="422.5" y="-459.5" font-family="Helvetica,sans-Serif" font-size="10.00">ore::data::XMLUtils</text>
<text text-anchor="middle" x="464" y="-448.5" font-family="Helvetica,sans-Serif" font-size="10.00">::getChildrenNodes</text>
</a>
</g>
</g>
<!-- Node2&#45;&gt;Node5 -->
<g id="edge7" class="edge"><title>Node2&#45;&gt;Node5</title>
<path fill="none" stroke="#63b8ff" d="M159.404,-358.798C174.488,-380.614 205.463,-419.961 243,-437.5 293.695,-461.188 358.1,-464.04 404.101,-462.116"/>
<polygon fill="#63b8ff" stroke="#63b8ff" points="404.398,-465.606 414.208,-461.605 404.044,-458.615 404.398,-465.606"/>
</g>
<!-- Node7 -->
<g id="node7" class="node"><title>Node7</title>
<g id="a_node7"><a xlink:href="classore_1_1data_1_1_x_m_l_utils.html#a5f2b91a4af900e85c356cfe807e64501" target="_top" xlink:title=" ">
<polygon fill="white" stroke="#666666" points="359,-246.5 260,-246.5 260,-216.5 359,-216.5 359,-246.5"/>
<text text-anchor="start" x="268" y="-234.5" font-family="Helvetica,sans-Serif" font-size="10.00">ore::data::XMLUtils</text>
<text text-anchor="middle" x="309.5" y="-223.5" font-family="Helvetica,sans-Serif" font-size="10.00">::getChildNode</text>
</a>
</g>
</g>
<!-- Node2&#45;&gt;Node7 -->
<g id="edge6" class="edge"><title>Node2&#45;&gt;Node7</title>
<path fill="none" stroke="#63b8ff" d="M161.975,-328.47C178.663,-309.208 209.997,-275.878 243,-255.5 245.596,-253.897 248.314,-252.378 251.107,-250.94"/>
<polygon fill="#63b8ff" stroke="#63b8ff" points="252.676,-254.07 260.218,-246.628 249.682,-247.743 252.676,-254.07"/>
</g>
<!-- Node8 -->
<g id="node8" class="node"><title>Node8</title>
<g id="a_node8"><a xlink:href="classore_1_1data_1_1_x_m_l_utils.html#aaf4e8600c620cb901bd271e3ec76d702" target="_top" xlink:title=" ">
<polygon fill="white" stroke="#666666" points="514.5,-590.5 413.5,-590.5 413.5,-560.5 514.5,-560.5 514.5,-590.5"/>
<text text-anchor="start" x="421.5" y="-578.5" font-family="Helvetica,sans-Serif" font-size="10.00">ore::data::XMLUtils</text>
<text text-anchor="middle" x="464" y="-567.5" font-family="Helvetica,sans-Serif" font-size="10.00">::getChildrenValues</text>
</a>
</g>
</g>
<!-- Node2&#45;&gt;Node8 -->
<g id="edge8" class="edge"><title>Node2&#45;&gt;Node8</title>
<path fill="none" stroke="#63b8ff" d="M151.449,-358.648C157.298,-397.34 178.488,-500.086 243,-547.5 288.957,-581.277 355.389,-585.34 403.214,-582.766"/>
<polygon fill="#63b8ff" stroke="#63b8ff" points="403.674,-586.244 413.426,-582.102 403.22,-579.259 403.674,-586.244"/>
</g>
<!-- Node9 -->
<g id="node9" class="node"><title>Node9</title>
<g id="a_node9"><a xlink:href="classore_1_1data_1_1_x_m_l_utils.html#a6704501b110fa9d056096df3e05f0df2" target="_top" xlink:title="Get a node&#39;s value.">
<polygon fill="white" stroke="#666666" points="651,-590.5 552,-590.5 552,-560.5 651,-560.5 651,-590.5"/>
<text text-anchor="start" x="560" y="-578.5" font-family="Helvetica,sans-Serif" font-size="10.00">ore::data::XMLUtils</text>
<text text-anchor="middle" x="601.5" y="-567.5" font-family="Helvetica,sans-Serif" font-size="10.00">::getNodeValue</text>
</a>
</g>
</g>
<!-- Node2&#45;&gt;Node9 -->
<g id="edge20" class="edge"><title>Node2&#45;&gt;Node9</title>
<path fill="none" stroke="#63b8ff" d="M150.454,-358.681C154.016,-401.264 170.383,-522.388 243,-578.5 332.072,-647.327 474.36,-617.13 549.762,-593.67"/>
<polygon fill="#63b8ff" stroke="#63b8ff" points="551.041,-596.936 559.503,-590.561 548.913,-590.268 551.041,-596.936"/>
</g>
<!-- Node10 -->
<g id="node10" class="node"><title>Node10</title>
<g id="a_node10"><a xlink:href="classore_1_1data_1_1_x_m_l_utils.html#a5a1307174ddefdb3aad6e3bd8cc63b27" target="_top" xlink:title=" ">
<polygon fill="white" stroke="#666666" points="513.5,-160.5 414.5,-160.5 414.5,-130.5 513.5,-130.5 513.5,-160.5"/>
<text text-anchor="start" x="422.5" y="-148.5" font-family="Helvetica,sans-Serif" font-size="10.00">ore::data::XMLUtils</text>
<text text-anchor="middle" x="464" y="-137.5" font-family="Helvetica,sans-Serif" font-size="10.00">::getChildValue</text>
</a>
</g>
</g>
<!-- Node2&#45;&gt;Node10 -->
<g id="edge10" class="edge"><title>Node2&#45;&gt;Node10</title>
<path fill="none" stroke="#63b8ff" d="M150.46,-328.389C154.021,-286.657 170.356,-169.728 243,-121.5 297.052,-85.6145 375.521,-107.514 422.675,-126.58"/>
<polygon fill="#63b8ff" stroke="#63b8ff" points="421.381,-129.832 431.957,-130.46 424.08,-123.374 421.381,-129.832"/>
</g>
<!-- Node11 -->
<g id="node11" class="node"><title>Node11</title>
<g id="a_node11"><a xlink:href="classore_1_1data_1_1_x_m_l_utils.html#a5dc9d9e82028f69de452d27da6b43db0" target="_top" xlink:title=" ">
<polygon fill="white" stroke="#666666" points="366.5,-294.5 252.5,-294.5 252.5,-264.5 366.5,-264.5 366.5,-294.5"/>
<text text-anchor="start" x="260.5" y="-282.5" font-family="Helvetica,sans-Serif" font-size="10.00">ore::data::XMLUtils</text>
<text text-anchor="middle" x="309.5" y="-271.5" font-family="Helvetica,sans-Serif" font-size="10.00">::getChildValueAsBool</text>
</a>
</g>
</g>
<!-- Node2&#45;&gt;Node11 -->
<g id="edge12" class="edge"><title>Node2&#45;&gt;Node11</title>
<path fill="none" stroke="#63b8ff" d="M186.778,-328.495C209.125,-319.5 237.741,-307.981 261.612,-298.373"/>
<polygon fill="#63b8ff" stroke="#63b8ff" points="263.21,-301.503 271.18,-294.522 260.596,-295.009 263.21,-301.503"/>
</g>
<!-- Node12 -->
<g id="node12" class="node"><title>Node12</title>
<g id="a_node12"><a xlink:href="group__utilities.html#ga94621f11193864fa1338296232dc5be9" target="_top" xlink:title="Convert text to bool.">
<polygon fill="white" stroke="#666666" points="516,-310 412,-310 412,-291 516,-291 516,-310"/>
<text text-anchor="middle" x="464" y="-298" font-family="Helvetica,sans-Serif" font-size="10.00">ore::data::parseBool</text>
</a>
</g>
</g>
<!-- Node2&#45;&gt;Node12 -->
<g id="edge24" class="edge"><title>Node2&#45;&gt;Node12</title>
<path fill="none" stroke="#63b8ff" d="M197.114,-336.969C251.844,-329.462 341.812,-317.122 401.724,-308.905"/>
<polygon fill="#63b8ff" stroke="#63b8ff" points="402.376,-312.348 411.807,-307.522 401.424,-305.413 402.376,-312.348"/>
</g>
<!-- Node13 -->
<g id="node13" class="node"><title>Node13</title>
<g id="a_node13"><a xlink:href="classore_1_1data_1_1_x_m_l_utils.html#a450d9b1fe5949d01160aeb42654d7f1d" target="_top" xlink:title=" ">
<polygon fill="white" stroke="#666666" points="372,-160.5 247,-160.5 247,-130.5 372,-130.5 372,-160.5"/>
<text text-anchor="start" x="255" y="-148.5" font-family="Helvetica,sans-Serif" font-size="10.00">ore::data::XMLUtils</text>
<text text-anchor="middle" x="309.5" y="-137.5" font-family="Helvetica,sans-Serif" font-size="10.00">::getChildValueAsDouble</text>
</a>
</g>
</g>
<!-- Node2&#45;&gt;Node13 -->
<g id="edge16" class="edge"><title>Node2&#45;&gt;Node13</title>
<path fill="none" stroke="#63b8ff" d="M154.181,-328.309C164.875,-295.907 194.022,-219.323 243,-174.5 246.595,-171.21 250.624,-168.247 254.871,-165.589"/>
<polygon fill="#63b8ff" stroke="#63b8ff" points="256.823,-168.507 263.822,-160.554 253.39,-162.406 256.823,-168.507"/>
</g>
<!-- Node14 -->
<g id="node14" class="node"><title>Node14</title>
<g id="a_node14"><a xlink:href="group__utilities.html#gad1db2a68f9a73667c3b4084d63955bdd" target="_top" xlink:title="Convert text to Real.">
<polygon fill="white" stroke="#666666" points="516,-198 412,-198 412,-179 516,-179 516,-198"/>
<text text-anchor="middle" x="464" y="-186" font-family="Helvetica,sans-Serif" font-size="10.00">ore::data::parseReal</text>
</a>
</g>
</g>
<!-- Node2&#45;&gt;Node14 -->
<g id="edge25" class="edge"><title>Node2&#45;&gt;Node14</title>
<path fill="none" stroke="#63b8ff" d="M154.844,-328.355C166.038,-299.151 194.965,-235.473 243,-207.5 290.893,-179.61 354.853,-177.161 401.46,-180.313"/>
<polygon fill="#63b8ff" stroke="#63b8ff" points="401.479,-183.825 411.722,-181.115 402.025,-176.846 401.479,-183.825"/>
</g>
<!-- Node15 -->
<g id="node15" class="node"><title>Node15</title>
<g id="a_node15"><a xlink:href="classore_1_1data_1_1_leg_data.html#a58e282e54a30c37dab5b0403eede425d" target="_top" xlink:title=" ">
<polygon fill="white" stroke="#666666" points="376,-514.5 243,-514.5 243,-484.5 376,-484.5 376,-514.5"/>
<text text-anchor="start" x="251" y="-502.5" font-family="Helvetica,sans-Serif" font-size="10.00">ore::data::LegData</text>
<text text-anchor="middle" x="309.5" y="-491.5" font-family="Helvetica,sans-Serif" font-size="10.00">::initialiseConcreteLegData</text>
</a>
</g>
</g>
<!-- Node2&#45;&gt;Node15 -->
<g id="edge21" class="edge"><title>Node2&#45;&gt;Node15</title>
<path fill="none" stroke="#63b8ff" d="M157.29,-358.801C171.252,-384.888 202.862,-438.274 243,-470.5 247.243,-473.906 251.948,-476.995 256.834,-479.776"/>
<polygon fill="#63b8ff" stroke="#63b8ff" points="255.281,-482.913 265.764,-484.45 258.528,-476.712 255.281,-482.913"/>
</g>
<!-- Node16 -->
<g id="node16" class="node"><title>Node16</title>
<g id="a_node16"><a xlink:href="classore_1_1data_1_1_leg_data.html#a81b9d9c795e1f72812f0da9b14382f4a" target="_top" xlink:title=" ">
<polygon fill="white" stroke="#666666" points="512.5,-531.5 415.5,-531.5 415.5,-501.5 512.5,-501.5 512.5,-531.5"/>
<text text-anchor="start" x="423.5" y="-519.5" font-family="Helvetica,sans-Serif" font-size="10.00">ore::data::LegData</text>
<text text-anchor="middle" x="464" y="-508.5" font-family="Helvetica,sans-Serif" font-size="10.00">::legType</text>
</a>
</g>
</g>
<!-- Node2&#45;&gt;Node16 -->
<g id="edge23" class="edge"><title>Node2&#45;&gt;Node16</title>
<path fill="none" stroke="#63b8ff" d="M152.007,-358.679C158.909,-394.95 181.903,-486.388 243,-523.5 292.549,-553.597 360.633,-545.564 407.883,-534.024"/>
<polygon fill="#63b8ff" stroke="#63b8ff" points="408.819,-537.397 417.635,-531.52 407.079,-530.617 408.819,-537.397"/>
</g>
<!-- Node4&#45;&gt;Node5 -->
<g id="edge4" class="edge"><title>Node4&#45;&gt;Node5</title>
<path fill="none" stroke="#63b8ff" d="M363.837,-428.539C376.91,-432.225 390.974,-436.191 404.284,-439.944"/>
<polygon fill="#63b8ff" stroke="#63b8ff" points="403.712,-443.419 414.286,-442.764 405.611,-436.682 403.712,-443.419"/>
</g>
<!-- Node6 -->
<g id="node6" class="node"><title>Node6</title>
<g id="a_node6"><a xlink:href="classore_1_1data_1_1_x_m_l_utils.html#a4e041c36cab0a16681fb41dfbd991882" target="_top" xlink:title="Get and set a node&#39;s name.">
<polygon fill="white" stroke="#666666" points="513.5,-423.5 414.5,-423.5 414.5,-393.5 513.5,-393.5 513.5,-423.5"/>
<text text-anchor="start" x="422.5" y="-411.5" font-family="Helvetica,sans-Serif" font-size="10.00">ore::data::XMLUtils</text>
<text text-anchor="middle" x="464" y="-400.5" font-family="Helvetica,sans-Serif" font-size="10.00">::getNodeName</text>
</a>
</g>
</g>
<!-- Node4&#45;&gt;Node6 -->
<g id="edge5" class="edge"><title>Node4&#45;&gt;Node6</title>
<path fill="none" stroke="#63b8ff" d="M370.772,-411.524C381.75,-411.164 393.19,-410.789 404.127,-410.43"/>
<polygon fill="#63b8ff" stroke="#63b8ff" points="404.547,-413.918 414.427,-410.093 404.318,-406.922 404.547,-413.918"/>
</g>
<!-- Node8&#45;&gt;Node9 -->
<g id="edge9" class="edge"><title>Node8&#45;&gt;Node9</title>
<path fill="none" stroke="#63b8ff" d="M514.686,-575.5C523.466,-575.5 532.683,-575.5 541.686,-575.5"/>
<polygon fill="#63b8ff" stroke="#63b8ff" points="541.725,-579 551.725,-575.5 541.725,-572 541.725,-579"/>
</g>
<!-- Node10&#45;&gt;Node9 -->
<g id="edge11" class="edge"><title>Node10&#45;&gt;Node9</title>
<path fill="none" stroke="#63b8ff" d="M506.511,-160.663C510.076,-163.193 513.333,-166.12 516,-169.5 563.495,-229.687 590.45,-470.745 598.167,-550.059"/>
<polygon fill="#63b8ff" stroke="#63b8ff" points="594.695,-550.519 599.129,-560.142 601.663,-549.854 594.695,-550.519"/>
</g>
<!-- Node11&#45;&gt;Node10 -->
<g id="edge13" class="edge"><title>Node11&#45;&gt;Node10</title>
<path fill="none" stroke="#63b8ff" d="M363.902,-264.409C368.291,-261.878 372.41,-258.931 376,-255.5 405.955,-226.87 383.343,-199.429 412,-169.5 412.914,-168.546 413.873,-167.626 414.87,-166.738"/>
<polygon fill="#63b8ff" stroke="#63b8ff" points="417.219,-169.352 423.14,-160.566 413.032,-163.742 417.219,-169.352"/>
</g>
<!-- Node11&#45;&gt;Node12 -->
<g id="edge14" class="edge"><title>Node11&#45;&gt;Node12</title>
<path fill="none" stroke="#63b8ff" d="M366.852,-287.26C378.271,-288.832 390.329,-290.493 401.903,-292.087"/>
<polygon fill="#63b8ff" stroke="#63b8ff" points="401.536,-295.569 411.92,-293.466 402.491,-288.634 401.536,-295.569"/>
</g>
<!-- Node12&#45;&gt;Node12 -->
<g id="edge15" class="edge"><title>Node12&#45;&gt;Node12</title>
<path fill="none" stroke="#63b8ff" d="M443.038,-310.083C432.841,-318.734 439.828,-328 464,-328 479.485,-328 487.918,-324.197 489.298,-319.189"/>
<polygon fill="#63b8ff" stroke="#63b8ff" points="492.421,-317.607 484.962,-310.083 486.1,-320.616 492.421,-317.607"/>
</g>
<!-- Node13&#45;&gt;Node10 -->
<g id="edge17" class="edge"><title>Node13&#45;&gt;Node10</title>
<path fill="none" stroke="#63b8ff" d="M372.088,-145.5C382.628,-145.5 393.556,-145.5 404.025,-145.5"/>
<polygon fill="#63b8ff" stroke="#63b8ff" points="404.311,-149 414.311,-145.5 404.311,-142 404.311,-149"/>
</g>
<!-- Node13&#45;&gt;Node14 -->
<g id="edge18" class="edge"><title>Node13&#45;&gt;Node14</title>
<path fill="none" stroke="#63b8ff" d="M363.837,-160.539C381.931,-165.641 401.922,-171.278 419.186,-176.146"/>
<polygon fill="#63b8ff" stroke="#63b8ff" points="418.427,-179.568 429.001,-178.914 420.327,-172.831 418.427,-179.568"/>
</g>
<!-- Node14&#45;&gt;Node14 -->
<g id="edge19" class="edge"><title>Node14&#45;&gt;Node14</title>
<path fill="none" stroke="#63b8ff" d="M443.038,-198.083C432.841,-206.734 439.828,-216 464,-216 479.485,-216 487.918,-212.197 489.298,-207.189"/>
<polygon fill="#63b8ff" stroke="#63b8ff" points="492.421,-205.607 484.962,-198.083 486.1,-208.616 492.421,-205.607"/>
</g>
<!-- Node15&#45;&gt;Node16 -->
<g id="edge22" class="edge"><title>Node15&#45;&gt;Node16</title>
<path fill="none" stroke="#63b8ff" d="M376.059,-506.808C385.781,-507.892 395.741,-509.002 405.287,-510.066"/>
<polygon fill="#63b8ff" stroke="#63b8ff" points="405.127,-513.57 415.454,-511.2 405.903,-506.613 405.127,-513.57"/>
</g>
<!-- Node17&#45;&gt;Node17 -->
<g id="edge27" class="edge"><title>Node17&#45;&gt;Node17</title>
<path fill="none" stroke="#63b8ff" d="M130.005,-74.0828C121.007,-82.7337 127.172,-92 148.5,-92 161.83,-92 169.237,-88.3804 170.721,-83.5536"/>
<polygon fill="#63b8ff" stroke="#63b8ff" points="173.913,-82.1074 166.995,-74.0828 167.399,-84.67 173.913,-82.1074"/>
</g>
<!-- Node18 -->
<g id="node18" class="node"><title>Node18</title>
<g id="a_node18"><a xlink:href="group__utilities.html#gaecd67eda4fb5f4859bb8f6d383547721" target="_top" xlink:title="Convert text to QuantLib::Integer.">
<polygon fill="white" stroke="#666666" points="366.5,-19 252.5,-19 252.5,-0 366.5,-0 366.5,-19"/>
<text text-anchor="middle" x="309.5" y="-7" font-family="Helvetica,sans-Serif" font-size="10.00">ore::data::parseInteger</text>
</a>
</g>
</g>
<!-- Node17&#45;&gt;Node18 -->
<g id="edge28" class="edge"><title>Node17&#45;&gt;Node18</title>
<path fill="none" stroke="#63b8ff" d="M178.793,-54.9567C187.85,-51.9695 197.849,-48.6342 207,-45.5 228.69,-38.0708 252.89,-29.4988 272.218,-22.5835"/>
<polygon fill="#63b8ff" stroke="#63b8ff" points="273.61,-25.8026 281.842,-19.133 271.248,-19.2132 273.61,-25.8026"/>
</g>
<!-- Node19 -->
<g id="node19" class="node"><title>Node19</title>
<g id="a_node19"><a xlink:href="namespaceore_1_1data.html#a777e216dee6069b548bb87da7152699e" target="_top" xlink:title=" ">
<polygon fill="white" stroke="#666666" points="349,-74 270,-74 270,-55 349,-55 349,-74"/>
<text text-anchor="middle" x="309.5" y="-62" font-family="Helvetica,sans-Serif" font-size="10.00">ore::data::size</text>
</a>
</g>
</g>
<!-- Node17&#45;&gt;Node19 -->
<g id="edge30" class="edge"><title>Node17&#45;&gt;Node19</title>
<path fill="none" stroke="#63b8ff" d="M201.123,-64.5C220.021,-64.5 241.325,-64.5 259.945,-64.5"/>
<polygon fill="#63b8ff" stroke="#63b8ff" points="259.981,-68.0001 269.981,-64.5 259.981,-61.0001 259.981,-68.0001"/>
</g>
<!-- Node18&#45;&gt;Node18 -->
<g id="edge29" class="edge"><title>Node18&#45;&gt;Node18</title>
<path fill="none" stroke="#63b8ff" d="M285.764,-19.0828C274.217,-27.7337 282.129,-37 309.5,-37 327.462,-37 337.044,-33.0094 338.246,-27.8208"/>
<polygon fill="#63b8ff" stroke="#63b8ff" points="341.246,-26.0172 333.236,-19.0828 335.174,-29.499 341.246,-26.0172"/>
</g>
</g>
</svg>
        <g id="navigator" transform="translate(0 0)" fill="#404254">
                <rect fill="#f2f5e9" fill-opacity="0.5" stroke="#606060" stroke-width=".5" x="0" y="0" width="60" height="60"/>
                <use id="zoomplus" xlink:href="#zoomPlus" x="17" y="9" onmousedown="handleZoom(evt,'in')"/>
                <use id="zoomminus" xlink:href="#zoomMin" x="42" y="9" onmousedown="handleZoom(evt,'out')"/>
                <use id="reset" xlink:href="#resetDef" x="30" y="36" onmousedown="handleReset()"/>
                <g id="arrowUp" xlink:href="#dirArrow" transform="translate(30 24)" onmousedown="handlePan(0,-1)">
                  <use xlink:href="#rim" fill="#404040">
                        <set attributeName="fill" to="#808080" begin="arrowUp.mouseover" end="arrowUp.mouseout"/>
                  </use>
                  <path fill="none" stroke="white" stroke-width="1.5" d="M0,-3.0v7 M-2.5,-0.5L0,-3.0L2.5,-0.5"/>
                </g>
                <g id="arrowRight" xlink:href="#dirArrow" transform="rotate(90) translate(36 -43)" onmousedown="handlePan(1,0)">
                  <use xlink:href="#rim" fill="#404040">
                        <set attributeName="fill" to="#808080" begin="arrowRight.mouseover" end="arrowRight.mouseout"/>
                  </use>
                  <path fill="none" stroke="white" stroke-width="1.5" d="M0,-3.0v7 M-2.5,-0.5L0,-3.0L2.5,-0.5"/>
                </g>
                <g id="arrowDown" xlink:href="#dirArrow" transform="rotate(180) translate(-30 -48)" onmousedown="handlePan(0,1)">
                  <use xlink:href="#rim" fill="#404040">
                        <set attributeName="fill" to="#808080" begin="arrowDown.mouseover" end="arrowDown.mouseout"/>
                  </use>
                  <path fill="none" stroke="white" stroke-width="1.5" d="M0,-3.0v7 M-2.5,-0.5L0,-3.0L2.5,-0.5"/>
                </g>
                <g id="arrowLeft" xlink:href="#dirArrow" transform="rotate(270) translate(-36 17)" onmousedown="handlePan(-1,0)">
                  <use xlink:href="#rim" fill="#404040">
                        <set attributeName="fill" to="#808080" begin="arrowLeft.mouseover" end="arrowLeft.mouseout"/>
                  </use>
                  <path fill="none" stroke="white" stroke-width="1.5" d="M0,-3.0v7 M-2.5,-0.5L0,-3.0L2.5,-0.5"/>
                </g>
        </g>
        <svg viewBox="0 0 15 15" width="100%" height="30px" preserveAspectRatio="xMaxYMin meet">
         <g id="arrow_out" transform="scale(0.3 0.3)">
          <a xlink:href="classore_1_1data_1_1_risk_participation_agreement_a510baf06568510646decfeaf1753e526_cgraph_org.svg" target="_base">
           <rect id="button" ry="5" rx="5" y="6" x="6" height="38" width="38"
                fill="#f2f5e9" fill-opacity="0.5" stroke="#606060" stroke-width="1.0"/>
           <path id="arrow"
             d="M 11.500037,31.436501 C 11.940474,20.09759 22.043105,11.32322 32.158766,21.979434 L 37.068811,17.246167 C 37.068811,17.246167 37.088388,32 37.088388,32 L 22.160133,31.978069 C 22.160133,31.978069 26.997745,27.140456 26.997745,27.140456 C 18.528582,18.264221 13.291696,25.230495 11.500037,31.436501 z"
             style="fill:#404040;"/>
          </a>
         </g>
        </svg>
</svg>
