<?xml version="1.0" encoding="UTF-8" standalone="no"?>
<!DOCTYPE svg PUBLIC "-//W3C//DTD SVG 1.1//EN"
 "http://www.w3.org/Graphics/SVG/1.1/DTD/svg11.dtd">
<!-- Generated by graphviz version 2.38.0 (20140413.2041)
 -->
<!-- Title: optionExpiry Pages: 1 -->
<svg width="557pt" height="100pt"
 viewBox="0.00 0.00 557.00 100.00" xmlns="http://www.w3.org/2000/svg" xmlns:xlink="http://www.w3.org/1999/xlink">
<g id="graph0" class="graph" transform="scale(1 1) rotate(0) translate(4 96)">
<title>optionExpiry</title>
<!-- Node1 -->
<g id="node1" class="node"><title>Node1</title>
<g id="a_node1"><a xlink:title=" ">
<polygon fill="#999999" stroke="#666666" points="71,-37 0,-37 0,-18 71,-18 71,-37"/>
<text text-anchor="middle" x="35.5" y="-25" font-family="Helvetica,sans-Serif" font-size="10.00">optionExpiry</text>
</a>
</g>
</g>
<!-- Node2 -->
<g id="node2" class="node"><title>Node2</title>
<g id="a_node2"><a xlink:href="group__utilities.html#ga6477391407eac174ea49df689ecf1ab2" target="_top" xlink:title="Convert text to QuantLib::Period or QuantLib::Date.">
<polygon fill="white" stroke="#666666" points="250,-37 107,-37 107,-18 250,-18 250,-37"/>
<text text-anchor="middle" x="178.5" y="-25" font-family="Helvetica,sans-Serif" font-size="10.00">ore::data::parseDateOrPeriod</text>
</a>
</g>
</g>
<!-- Node1&#45;&gt;Node2 -->
<g id="edge1" class="edge"><title>Node1&#45;&gt;Node2</title>
<path fill="none" stroke="#63b8ff" d="M71.3539,-27.5C79.2344,-27.5 87.9213,-27.5 96.8295,-27.5"/>
<polygon fill="#63b8ff" stroke="#63b8ff" points="96.95,-31.0001 106.95,-27.5 96.9499,-24.0001 96.95,-31.0001"/>
</g>
<!-- Node3 -->
<g id="node3" class="node"><title>Node3</title>
<g id="a_node3"><a xlink:href="group__utilities.html#ga59b5fdda574d90facae95dec2d13040d" target="_top" xlink:title="Convert std::string to QuantLib::Date.">
<polygon fill="white" stroke="#666666" points="395,-56 290,-56 290,-37 395,-37 395,-56"/>
<text text-anchor="middle" x="342.5" y="-44" font-family="Helvetica,sans-Serif" font-size="10.00">ore::data::parseDate</text>
</a>
</g>
</g>
<!-- Node2&#45;&gt;Node3 -->
<g id="edge2" class="edge"><title>Node2&#45;&gt;Node3</title>
<path fill="none" stroke="#63b8ff" d="M250.084,-35.7784C259.956,-36.9362 270.038,-38.1187 279.73,-39.2554"/>
<polygon fill="#63b8ff" stroke="#63b8ff" points="279.325,-42.7317 289.664,-40.4205 280.14,-35.7794 279.325,-42.7317"/>
</g>
<!-- Node6 -->
<g id="node6" class="node"><title>Node6</title>
<g id="a_node6"><a xlink:href="group__utilities.html#ga8e0623e2cb01e250e9cfec4619256208" target="_top" xlink:title="Convert text to QuantLib::Period.">
<polygon fill="white" stroke="#666666" points="399,-19 286,-19 286,-0 399,-0 399,-19"/>
<text text-anchor="middle" x="342.5" y="-7" font-family="Helvetica,sans-Serif" font-size="10.00">ore::data::parsePeriod</text>
</a>
</g>
</g>
<!-- Node2&#45;&gt;Node6 -->
<g id="edge7" class="edge"><title>Node2&#45;&gt;Node6</title>
<path fill="none" stroke="#63b8ff" d="M250.084,-19.6573C258.571,-18.7144 267.212,-17.7542 275.628,-16.8191"/>
<polygon fill="#63b8ff" stroke="#63b8ff" points="276.204,-20.2768 285.756,-15.6938 275.43,-13.3196 276.204,-20.2768"/>
</g>
<!-- Node3&#45;&gt;Node3 -->
<g id="edge3" class="edge"><title>Node3&#45;&gt;Node3</title>
<path fill="none" stroke="#63b8ff" d="M319.689,-56.0828C308.592,-64.7337 316.195,-74 342.5,-74 359.351,-74 368.528,-70.1971 370.03,-65.1894"/>
<polygon fill="#63b8ff" stroke="#63b8ff" points="373.019,-63.3515 365.311,-56.0828 366.804,-66.5719 373.019,-63.3515"/>
</g>
<!-- Node4 -->
<g id="node4" class="node"><title>Node4</title>
<g id="a_node4"><a xlink:href="group__utilities.html#gaecd67eda4fb5f4859bb8f6d383547721" target="_top" xlink:title="Convert text to QuantLib::Integer.">
<polygon fill="white" stroke="#666666" points="549,-74 435,-74 435,-55 549,-55 549,-74"/>
<text text-anchor="middle" x="492" y="-62" font-family="Helvetica,sans-Serif" font-size="10.00">ore::data::parseInteger</text>
</a>
</g>
</g>
<!-- Node3&#45;&gt;Node4 -->
<g id="edge4" class="edge"><title>Node3&#45;&gt;Node4</title>
<path fill="none" stroke="#63b8ff" d="M395.088,-52.7955C404.746,-53.9741 414.962,-55.2208 424.986,-56.4441"/>
<polygon fill="#63b8ff" stroke="#63b8ff" points="424.567,-59.9189 434.918,-57.6561 425.415,-52.9704 424.567,-59.9189"/>
</g>
<!-- Node5 -->
<g id="node5" class="node"><title>Node5</title>
<g id="a_node5"><a xlink:href="namespaceore_1_1data.html#a777e216dee6069b548bb87da7152699e" target="_top" xlink:title=" ">
<polygon fill="white" stroke="#666666" points="531.5,-37 452.5,-37 452.5,-18 531.5,-18 531.5,-37"/>
<text text-anchor="middle" x="492" y="-25" font-family="Helvetica,sans-Serif" font-size="10.00">ore::data::size</text>
</a>
</g>
</g>
<!-- Node3&#45;&gt;Node5 -->
<g id="edge6" class="edge"><title>Node3&#45;&gt;Node5</title>
<path fill="none" stroke="#63b8ff" d="M395.088,-39.8547C410.343,-37.8897 426.992,-35.745 442.074,-33.8023"/>
<polygon fill="#63b8ff" stroke="#63b8ff" points="442.757,-37.2433 452.228,-32.4944 441.863,-30.3007 442.757,-37.2433"/>
</g>
<!-- Node4&#45;&gt;Node4 -->
<g id="edge5" class="edge"><title>Node4&#45;&gt;Node4</title>
<path fill="none" stroke="#63b8ff" d="M469.189,-74.0828C458.092,-82.7337 465.695,-92 492,-92 508.851,-92 518.028,-88.1971 519.53,-83.1894"/>
<polygon fill="#63b8ff" stroke="#63b8ff" points="522.519,-81.3515 514.811,-74.0828 516.304,-84.5719 522.519,-81.3515"/>
</g>
</g>
</svg>
