<?xml version="1.0" encoding="UTF-8" standalone="no"?>
<!DOCTYPE svg PUBLIC "-//W3C//DTD SVG 1.1//EN"
 "http://www.w3.org/Graphics/SVG/1.1/DTD/svg11.dtd">
<!-- Generated by graphviz version 2.38.0 (20140413.2041)
 -->
<!-- Title: CurveSpec Pages: 1 -->
<svg width="133pt" height="270pt"
 viewBox="0.00 0.00 133.00 270.00" xmlns="http://www.w3.org/2000/svg" xmlns:xlink="http://www.w3.org/1999/xlink">
<g id="graph0" class="graph" transform="scale(1 1) rotate(0) translate(4 266)">
<title>CurveSpec</title>
<!-- Node1 -->
<g id="node1" class="node"><title>Node1</title>
<g id="a_node1"><a xlink:title="Curve Specification.">
<polygon fill="#999999" stroke="#666666" points="99,-118 11,-118 11,-0 99,-0 99,-118"/>
<text text-anchor="middle" x="55" y="-106" font-family="Helvetica,sans-Serif" font-size="10.00">{CurveSpec</text>
<text text-anchor="start" x="19" y="-95" font-family="Helvetica,sans-Serif" font-size="10.00">||+ CurveSpec()</text>
<text text-anchor="start" x="19" y="-84" font-family="Helvetica,sans-Serif" font-size="10.00">+ CurveSpec()</text>
<text text-anchor="start" x="19" y="-73" font-family="Helvetica,sans-Serif" font-size="10.00">+ ~CurveSpec()</text>
<text text-anchor="start" x="19" y="-62" font-family="Helvetica,sans-Serif" font-size="10.00">* baseType()</text>
<text text-anchor="start" x="19" y="-51" font-family="Helvetica,sans-Serif" font-size="10.00">* subName()</text>
<text text-anchor="start" x="19" y="-40" font-family="Helvetica,sans-Serif" font-size="10.00">* name()</text>
<text text-anchor="start" x="19" y="-29" font-family="Helvetica,sans-Serif" font-size="10.00">* curveConfigID()</text>
<text text-anchor="start" x="19" y="-18" font-family="Helvetica,sans-Serif" font-size="10.00">* baseName()</text>
<text text-anchor="middle" x="55" y="-7" font-family="Helvetica,sans-Serif" font-size="10.00">}</text>
</a>
</g>
</g>
<!-- Node2 -->
<g id="node2" class="node"><title>Node2</title>
<g id="a_node2"><a xlink:title=" ">
<polygon fill="white" stroke="#666666" points="77,-195 33,-195 33,-165 77,-165 77,-195"/>
<text text-anchor="middle" x="55" y="-183" font-family="Helvetica,sans-Serif" font-size="10.00">{string</text>
<text text-anchor="middle" x="55" y="-172" font-family="Helvetica,sans-Serif" font-size="10.00">||}</text>
</a>
</g>
</g>
<!-- Node2&#45;&gt;Node1 -->
<g id="edge1" class="edge"><title>Node2&#45;&gt;Node1</title>
<path fill="none" stroke="#404040" d="M55,-164.882C55,-155.879 55,-143.463 55,-130.318"/>
<polygon fill="none" stroke="#404040" points="55.0001,-130.118 51,-124.118 55,-118.118 59,-124.118 55.0001,-130.118"/>
<text text-anchor="middle" x="90" y="-139" font-family="Helvetica,sans-Serif" font-size="10.00"> &#45;curveConfigID_</text>
</g>
<!-- Node3 -->
<g id="node3" class="node"><title>Node3</title>
<g id="a_node3"><a xlink:title=" ">
<polygon fill="white" stroke="#666666" points="110,-262 0,-262 0,-232 110,-232 110,-262"/>
<text text-anchor="middle" x="55" y="-250" font-family="Helvetica,sans-Serif" font-size="10.00">{basic_string&lt; Char &gt;</text>
<text text-anchor="middle" x="55" y="-239" font-family="Helvetica,sans-Serif" font-size="10.00">||}</text>
</a>
</g>
</g>
<!-- Node3&#45;&gt;Node2 -->
<g id="edge2" class="edge"><title>Node3&#45;&gt;Node2</title>
<path fill="none" stroke="#63b8ff" d="M55,-221.608C55,-212.654 55,-202.823 55,-195.077"/>
<polygon fill="none" stroke="#63b8ff" points="51.5001,-221.896 55,-231.896 58.5001,-221.896 51.5001,-221.896"/>
</g>
</g>
</svg>
