<?xml version="1.0" encoding="UTF-8" standalone="no"?>
<!DOCTYPE svg PUBLIC "-//W3C//DTD SVG 1.1//EN"
 "http://www.w3.org/Graphics/SVG/1.1/DTD/svg11.dtd">
<!-- Generated by graphviz version 2.38.0 (20140413.2041)
 -->
<!-- Title: currency Pages: 1 -->
<svg width="383pt" height="76pt"
 viewBox="0.00 0.00 383.00 75.50" xmlns="http://www.w3.org/2000/svg" xmlns:xlink="http://www.w3.org/1999/xlink">
<g id="graph0" class="graph" transform="scale(1 1) rotate(0) translate(4 71.5)">
<title>currency</title>
<!-- Node1 -->
<g id="node1" class="node"><title>Node1</title>
<g id="a_node1"><a xlink:title=" ">
<polygon fill="#999999" stroke="#666666" points="54,-40 0,-40 0,-21 54,-21 54,-40"/>
<text text-anchor="middle" x="27" y="-28" font-family="Helvetica,sans-Serif" font-size="10.00">currency</text>
</a>
</g>
</g>
<!-- Node2 -->
<g id="node2" class="node"><title>Node2</title>
<g id="a_node2"><a xlink:href="classore_1_1data_1_1_trade_monetary.html#a2fd1bb34ef1df644354f3c6872bb90ff" target="_top" xlink:title=" ">
<polygon fill="white" stroke="#666666" points="215,-67.5 90,-67.5 90,-37.5 215,-37.5 215,-67.5"/>
<text text-anchor="start" x="98" y="-55.5" font-family="Helvetica,sans-Serif" font-size="10.00">ore::data::TradeMonetary</text>
<text text-anchor="middle" x="152.5" y="-44.5" font-family="Helvetica,sans-Serif" font-size="10.00">::currency</text>
</a>
</g>
</g>
<!-- Node1&#45;&gt;Node2 -->
<g id="edge1" class="edge"><title>Node1&#45;&gt;Node2</title>
<path fill="none" stroke="#63b8ff" d="M54.1912,-35.1656C61.8868,-36.5365 70.7002,-38.1065 79.81,-39.7293"/>
<polygon fill="#63b8ff" stroke="#63b8ff" points="79.3138,-43.1959 89.7726,-41.504 80.5414,-36.3044 79.3138,-43.1959"/>
</g>
<!-- Node4 -->
<g id="node4" class="node"><title>Node4</title>
<g id="a_node4"><a xlink:href="classore_1_1data_1_1_trade_strike.html#af95e1cce2d25b241417ca60f5be7ea65" target="_top" xlink:title=" ">
<polygon fill="white" stroke="#666666" points="184,-19 121,-19 121,-0 184,-0 184,-19"/>
<text text-anchor="middle" x="152.5" y="-7" font-family="Helvetica,sans-Serif" font-size="10.00">strikePrice</text>
</a>
</g>
</g>
<!-- Node1&#45;&gt;Node4 -->
<g id="edge3" class="edge"><title>Node1&#45;&gt;Node4</title>
<path fill="none" stroke="#63b8ff" d="M54.1912,-26.0464C70.68,-23.2427 92.3001,-19.5664 110.973,-16.3913"/>
<polygon fill="#63b8ff" stroke="#63b8ff" points="111.72,-19.8145 120.992,-14.6876 110.546,-12.9136 111.72,-19.8145"/>
</g>
<!-- Node3 -->
<g id="node3" class="node"><title>Node3</title>
<g id="a_node3"><a xlink:href="group__utilities.html#ga5816082aca07feca7ec905758bd09392" target="_top" xlink:title="Convert text to QuantLib::Currency.">
<polygon fill="white" stroke="#666666" points="375,-67.5 251,-67.5 251,-37.5 375,-37.5 375,-67.5"/>
<text text-anchor="start" x="259" y="-55.5" font-family="Helvetica,sans-Serif" font-size="10.00">ore::data::parseCurrency</text>
<text text-anchor="middle" x="313" y="-44.5" font-family="Helvetica,sans-Serif" font-size="10.00">WithMinors</text>
</a>
</g>
</g>
<!-- Node2&#45;&gt;Node3 -->
<g id="edge2" class="edge"><title>Node2&#45;&gt;Node3</title>
<path fill="none" stroke="#63b8ff" d="M215.234,-52.5C223.577,-52.5 232.192,-52.5 240.684,-52.5"/>
<polygon fill="#63b8ff" stroke="#63b8ff" points="240.955,-56.0001 250.955,-52.5 240.955,-49.0001 240.955,-56.0001"/>
</g>
</g>
</svg>
