<?xml version="1.0" encoding="UTF-8" standalone="no"?>
<!DOCTYPE svg PUBLIC "-//W3C//DTD SVG 1.1//EN"
 "http://www.w3.org/Graphics/SVG/1.1/DTD/svg11.dtd">
<!-- Generated by graphviz version 2.38.0 (20140413.2041)
 -->
<!-- Title: next Pages: 1 -->
<svg width="516pt" height="157pt"
 viewBox="0.00 0.00 516.00 157.00" xmlns="http://www.w3.org/2000/svg" xmlns:xlink="http://www.w3.org/1999/xlink">
<g id="graph0" class="graph" transform="scale(1 1) rotate(0) translate(4 153)">
<title>next</title>
<!-- Node1 -->
<g id="node1" class="node"><title>Node1</title>
<g id="a_node1"><a xlink:title=" ">
<polygon fill="#999999" stroke="#666666" points="35,-149 0,-149 0,-130 35,-130 35,-149"/>
<text text-anchor="middle" x="17.5" y="-137" font-family="Helvetica,sans-Serif" font-size="10.00">next</text>
</a>
</g>
</g>
<!-- Node2 -->
<g id="node2" class="node"><title>Node2</title>
<g id="a_node2"><a xlink:href="classore_1_1data_1_1_c_s_v_file_report.html#a8e86a3cfdda98b89c6b67a792afa7bda" target="_top" xlink:title=" ">
<polygon fill="white" stroke="#666666" points="371,-149 297,-149 297,-130 371,-130 371,-149"/>
<text text-anchor="middle" x="334" y="-137" font-family="Helvetica,sans-Serif" font-size="10.00">checkIsOpen</text>
</a>
</g>
</g>
<!-- Node1&#45;&gt;Node2 -->
<g id="edge1" class="edge"><title>Node1&#45;&gt;Node2</title>
<path fill="none" stroke="#63b8ff" d="M35.2051,-139.691C73.5277,-140.104 170.722,-141.002 252,-140.5 263.198,-140.431 275.266,-140.308 286.58,-140.172"/>
<polygon fill="#63b8ff" stroke="#63b8ff" points="286.756,-143.67 296.711,-140.043 286.668,-136.67 286.756,-143.67"/>
</g>
<!-- Node3 -->
<g id="node3" class="node"><title>Node3</title>
<g id="a_node3"><a xlink:href="classore_1_1data_1_1_c_s_v_file_report.html#a1445193a5ee913dfadf174b47a49f1d2" target="_top" xlink:title=" ">
<polygon fill="white" stroke="#666666" points="118,-111 71,-111 71,-92 118,-92 118,-111"/>
<text text-anchor="middle" x="94.5" y="-99" font-family="Helvetica,sans-Serif" font-size="10.00">rollover</text>
</a>
</g>
</g>
<!-- Node1&#45;&gt;Node3 -->
<g id="edge2" class="edge"><title>Node1&#45;&gt;Node3</title>
<path fill="none" stroke="#63b8ff" d="M35.1449,-131.067C44.066,-126.547 55.2959,-120.857 65.5161,-115.679"/>
<polygon fill="#63b8ff" stroke="#63b8ff" points="67.1844,-118.757 74.5228,-111.115 64.0206,-112.513 67.1844,-118.757"/>
</g>
<!-- Node3&#45;&gt;Node2 -->
<g id="edge3" class="edge"><title>Node3&#45;&gt;Node2</title>
<path fill="none" stroke="#63b8ff" d="M118.26,-110.114C128.964,-113.847 141.989,-117.941 154,-120.5 198.51,-129.982 250.304,-134.825 286.691,-137.238"/>
<polygon fill="#63b8ff" stroke="#63b8ff" points="286.795,-140.751 296.995,-137.883 287.233,-133.765 286.795,-140.751"/>
</g>
<!-- Node4 -->
<g id="node4" class="node"><title>Node4</title>
<g id="a_node4"><a xlink:href="classore_1_1data_1_1_c_s_v_file_report.html#a64e9fa75beda50a9e8400ee0d4e61984" target="_top" xlink:title=" ">
<polygon fill="white" stroke="#666666" points="219,-111 187,-111 187,-92 219,-92 219,-111"/>
<text text-anchor="middle" x="203" y="-99" font-family="Helvetica,sans-Serif" font-size="10.00">end</text>
</a>
</g>
</g>
<!-- Node3&#45;&gt;Node4 -->
<g id="edge4" class="edge"><title>Node3&#45;&gt;Node4</title>
<path fill="none" stroke="#63b8ff" d="M118.086,-101.5C135.278,-101.5 158.938,-101.5 176.754,-101.5"/>
<polygon fill="#63b8ff" stroke="#63b8ff" points="176.981,-105 186.981,-101.5 176.981,-98.0001 176.981,-105"/>
</g>
<!-- Node5 -->
<g id="node5" class="node"><title>Node5</title>
<g id="a_node5"><a xlink:href="classore_1_1data_1_1_c_s_v_file_report.html#a9e8555112049fc2b4945120b3c45f8ab" target="_top" xlink:title=" ">
<polygon fill="white" stroke="#666666" points="222,-74 184,-74 184,-55 222,-55 222,-74"/>
<text text-anchor="middle" x="203" y="-62" font-family="Helvetica,sans-Serif" font-size="10.00">open</text>
</a>
</g>
</g>
<!-- Node3&#45;&gt;Node5 -->
<g id="edge6" class="edge"><title>Node3&#45;&gt;Node5</title>
<path fill="none" stroke="#63b8ff" d="M118.086,-93.6533C134.419,-87.9788 156.591,-80.2759 174.042,-74.213"/>
<polygon fill="#63b8ff" stroke="#63b8ff" points="175.394,-77.4485 183.692,-70.8605 173.097,-70.8362 175.394,-77.4485"/>
</g>
<!-- Node10 -->
<g id="node10" class="node"><title>Node10</title>
<g id="a_node10"><a xlink:href="namespaceore_1_1data.html#a86651dfeb5c18ee891f7a4734d8cf455" target="_top" xlink:title=" ">
<polygon fill="white" stroke="#666666" points="252,-19 154,-19 154,-0 252,-0 252,-19"/>
<text text-anchor="middle" x="203" y="-7" font-family="Helvetica,sans-Serif" font-size="10.00">ore::data::to_string</text>
</a>
</g>
</g>
<!-- Node3&#45;&gt;Node10 -->
<g id="edge11" class="edge"><title>Node3&#45;&gt;Node10</title>
<path fill="none" stroke="#63b8ff" d="M105.166,-91.855C116.55,-80.6282 136.173,-61.6878 154,-46.5 162.441,-39.3086 172.067,-31.7675 180.472,-25.3835"/>
<polygon fill="#63b8ff" stroke="#63b8ff" points="182.794,-28.0168 188.688,-19.2126 178.59,-22.4197 182.794,-28.0168"/>
</g>
<!-- Node4&#45;&gt;Node2 -->
<g id="edge5" class="edge"><title>Node4&#45;&gt;Node2</title>
<path fill="none" stroke="#63b8ff" d="M219.05,-105.933C236.516,-111.078 266.072,-119.785 290.706,-127.041"/>
<polygon fill="#63b8ff" stroke="#63b8ff" points="289.982,-130.477 300.563,-129.945 291.96,-123.762 289.982,-130.477"/>
</g>
<!-- Node6 -->
<g id="node6" class="node"><title>Node6</title>
<g id="a_node6"><a xlink:href="classore_1_1data_1_1_file_i_o.html#add2edb3654b2130d8e6e23f70395543b" target="_top" xlink:title="Retry wrapper for std::fopen.">
<polygon fill="white" stroke="#666666" points="380,-79.5 288,-79.5 288,-49.5 380,-49.5 380,-79.5"/>
<text text-anchor="start" x="296" y="-67.5" font-family="Helvetica,sans-Serif" font-size="10.00">ore::data::FileIO::</text>
<text text-anchor="middle" x="334" y="-56.5" font-family="Helvetica,sans-Serif" font-size="10.00">fopen</text>
</a>
</g>
</g>
<!-- Node5&#45;&gt;Node6 -->
<g id="edge7" class="edge"><title>Node5&#45;&gt;Node6</title>
<path fill="none" stroke="#63b8ff" d="M222.209,-64.5C236.699,-64.5 257.776,-64.5 277.666,-64.5"/>
<polygon fill="#63b8ff" stroke="#63b8ff" points="277.918,-68.0001 287.918,-64.5 277.918,-61.0001 277.918,-68.0001"/>
</g>
<!-- Node7 -->
<g id="node7" class="node"><title>Node7</title>
<g id="a_node7"><a xlink:href="classore_1_1data_1_1_file_i_o.html#a1daa2e3edf57698976d9a2fca1f6819e" target="_top" xlink:title=" ">
<polygon fill="white" stroke="#666666" points="508,-127.5 416,-127.5 416,-97.5 508,-97.5 508,-127.5"/>
<text text-anchor="start" x="424" y="-115.5" font-family="Helvetica,sans-Serif" font-size="10.00">ore::data::FileIO::</text>
<text text-anchor="middle" x="462" y="-104.5" font-family="Helvetica,sans-Serif" font-size="10.00">backoff</text>
</a>
</g>
</g>
<!-- Node6&#45;&gt;Node7 -->
<g id="edge8" class="edge"><title>Node6&#45;&gt;Node7</title>
<path fill="none" stroke="#63b8ff" d="M374.521,-79.5558C386.484,-84.1129 399.764,-89.1721 412.255,-93.9306"/>
<polygon fill="#63b8ff" stroke="#63b8ff" points="411.028,-97.2083 421.619,-97.4976 413.52,-90.6669 411.028,-97.2083"/>
</g>
<!-- Node8 -->
<g id="node8" class="node"><title>Node8</title>
<g id="a_node8"><a xlink:href="classore_1_1data_1_1_file_i_o.html#a77fced44211da5e22aeaad73ab8055ca" target="_top" xlink:title=" ">
<polygon fill="white" stroke="#666666" points="508,-79.5 416,-79.5 416,-49.5 508,-49.5 508,-79.5"/>
<text text-anchor="start" x="424" y="-67.5" font-family="Helvetica,sans-Serif" font-size="10.00">ore::data::FileIO::</text>
<text text-anchor="middle" x="462" y="-56.5" font-family="Helvetica,sans-Serif" font-size="10.00">maxBackoff</text>
</a>
</g>
</g>
<!-- Node6&#45;&gt;Node8 -->
<g id="edge9" class="edge"><title>Node6&#45;&gt;Node8</title>
<path fill="none" stroke="#63b8ff" d="M380.133,-64.5C388.366,-64.5 397.043,-64.5 405.535,-64.5"/>
<polygon fill="#63b8ff" stroke="#63b8ff" points="405.759,-68.0001 415.759,-64.5 405.759,-61.0001 405.759,-68.0001"/>
</g>
<!-- Node9 -->
<g id="node9" class="node"><title>Node9</title>
<g id="a_node9"><a xlink:href="classore_1_1data_1_1_file_i_o.html#a7b4c3165ded4410d0be9f0369c5b2113" target="_top" xlink:title="The maximum number of retries, defaults to 7.">
<polygon fill="white" stroke="#666666" points="508,-31.5 416,-31.5 416,-1.5 508,-1.5 508,-31.5"/>
<text text-anchor="start" x="424" y="-19.5" font-family="Helvetica,sans-Serif" font-size="10.00">ore::data::FileIO::</text>
<text text-anchor="middle" x="462" y="-8.5" font-family="Helvetica,sans-Serif" font-size="10.00">maxRetries</text>
</a>
</g>
</g>
<!-- Node6&#45;&gt;Node9 -->
<g id="edge10" class="edge"><title>Node6&#45;&gt;Node9</title>
<path fill="none" stroke="#63b8ff" d="M374.521,-49.4442C386.484,-44.8871 399.764,-39.8279 412.255,-35.0694"/>
<polygon fill="#63b8ff" stroke="#63b8ff" points="413.52,-38.3331 421.619,-31.5024 411.028,-31.7917 413.52,-38.3331"/>
</g>
<!-- Node10&#45;&gt;Node10 -->
<g id="edge12" class="edge"><title>Node10&#45;&gt;Node10</title>
<path fill="none" stroke="#63b8ff" d="M186.354,-19.0828C178.256,-27.7337 183.805,-37 203,-37 214.997,-37 221.663,-33.3804 222.999,-28.5536"/>
<polygon fill="#63b8ff" stroke="#63b8ff" points="226.283,-27.3413 219.646,-19.0828 219.684,-29.6776 226.283,-27.3413"/>
</g>
</g>
</svg>
