<?xml version="1.0" encoding="UTF-8" standalone="no"?>
<!DOCTYPE svg PUBLIC "-//W3C//DTD SVG 1.1//EN"
 "http://www.w3.org/Graphics/SVG/1.1/DTD/svg11.dtd">
<!-- Generated by graphviz version 2.38.0 (20140413.2041)
 -->
<!-- Title: equityCurve Pages: 1 -->
<svg width="707pt" height="76pt"
 viewBox="0.00 0.00 707.00 75.50" xmlns="http://www.w3.org/2000/svg" xmlns:xlink="http://www.w3.org/1999/xlink">
<g id="graph0" class="graph" transform="scale(1 1) rotate(0) translate(4 71.5)">
<title>equityCurve</title>
<!-- Node1 -->
<g id="node1" class="node"><title>Node1</title>
<g id="a_node1"><a xlink:title=" ">
<polygon fill="#999999" stroke="#666666" points="699,-40 632,-40 632,-21 699,-21 699,-40"/>
<text text-anchor="middle" x="665.5" y="-28" font-family="Helvetica,sans-Serif" font-size="10.00">equityCurve</text>
</a>
</g>
</g>
<!-- Node2 -->
<g id="node2" class="node"><title>Node2</title>
<g id="a_node2"><a xlink:href="classore_1_1data_1_1_todays_market.html#ae947670c7306fd552e37a0f140984721" target="_top" xlink:title=" ">
<polygon fill="white" stroke="#666666" points="596,-67.5 474,-67.5 474,-37.5 596,-37.5 596,-67.5"/>
<text text-anchor="start" x="482" y="-55.5" font-family="Helvetica,sans-Serif" font-size="10.00">ore::data::TodaysMarket</text>
<text text-anchor="middle" x="535" y="-44.5" font-family="Helvetica,sans-Serif" font-size="10.00">::buildNode</text>
</a>
</g>
</g>
<!-- Node1&#45;&gt;Node2 -->
<g id="edge1" class="edge"><title>Node1&#45;&gt;Node2</title>
<path fill="none" stroke="#63b8ff" d="M621.698,-37.8279C613.511,-39.2297 604.798,-40.7214 596.183,-42.1962"/>
<polygon fill="#63b8ff" stroke="#63b8ff" points="622.476,-41.2458 631.742,-36.1085 621.294,-34.3462 622.476,-41.2458"/>
</g>
<!-- Node6 -->
<g id="node6" class="node"><title>Node6</title>
<g id="a_node6"><a xlink:href="classore_1_1data_1_1_market_impl.html#afbee2a26a4993a8a77ead14217e32a14" target="_top" xlink:title="Equity forecasting curves.">
<polygon fill="white" stroke="#666666" points="587.5,-19 482.5,-19 482.5,-0 587.5,-0 587.5,-19"/>
<text text-anchor="middle" x="535" y="-7" font-family="Helvetica,sans-Serif" font-size="10.00">equityForecastCurve</text>
</a>
</g>
</g>
<!-- Node1&#45;&gt;Node6 -->
<g id="edge7" class="edge"><title>Node1&#45;&gt;Node6</title>
<path fill="none" stroke="#63b8ff" d="M621.638,-23.4954C610.756,-21.7169 598.949,-19.7873 587.679,-17.9455"/>
<polygon fill="#63b8ff" stroke="#63b8ff" points="621.308,-26.9877 631.742,-25.1465 622.437,-20.0794 621.308,-26.9877"/>
</g>
<!-- Node3 -->
<g id="node3" class="node"><title>Node3</title>
<g id="a_node3"><a xlink:href="classore_1_1data_1_1_todays_market.html#a0816e5ec53019bee5353fea5fc006eb1" target="_top" xlink:title=" ">
<polygon fill="white" stroke="#666666" points="280,-67.5 158,-67.5 158,-37.5 280,-37.5 280,-67.5"/>
<text text-anchor="start" x="166" y="-55.5" font-family="Helvetica,sans-Serif" font-size="10.00">ore::data::TodaysMarket</text>
<text text-anchor="middle" x="219" y="-44.5" font-family="Helvetica,sans-Serif" font-size="10.00">::initialise</text>
</a>
</g>
</g>
<!-- Node2&#45;&gt;Node3 -->
<g id="edge2" class="edge"><title>Node2&#45;&gt;Node3</title>
<path fill="none" stroke="#63b8ff" d="M463.814,-62.2944C455.135,-63.2039 446.374,-63.9786 438,-64.5 383.883,-67.8692 370.117,-67.8692 316,-64.5 304.349,-63.7746 291.949,-62.5587 280.064,-61.172"/>
<polygon fill="#63b8ff" stroke="#63b8ff" points="464.382,-65.7529 473.936,-61.172 463.611,-58.7955 464.382,-65.7529"/>
</g>
<!-- Node5 -->
<g id="node5" class="node"><title>Node5</title>
<g id="a_node5"><a xlink:href="classore_1_1data_1_1_todays_market.html#a36416143258c4e4c30bb46935cef9408" target="_top" xlink:title=" ">
<polygon fill="white" stroke="#666666" points="438,-37.5 316,-37.5 316,-7.5 438,-7.5 438,-37.5"/>
<text text-anchor="start" x="324" y="-25.5" font-family="Helvetica,sans-Serif" font-size="10.00">ore::data::TodaysMarket</text>
<text text-anchor="middle" x="377" y="-14.5" font-family="Helvetica,sans-Serif" font-size="10.00">::require</text>
</a>
</g>
</g>
<!-- Node2&#45;&gt;Node5 -->
<g id="edge4" class="edge"><title>Node2&#45;&gt;Node5</title>
<path fill="none" stroke="#63b8ff" d="M463.741,-38.9886C455.198,-37.3458 446.531,-35.679 438.153,-34.0679"/>
<polygon fill="#63b8ff" stroke="#63b8ff" points="463.205,-42.4497 473.686,-40.9012 464.527,-35.5756 463.205,-42.4497"/>
</g>
<!-- Node4 -->
<g id="node4" class="node"><title>Node4</title>
<g id="a_node4"><a xlink:href="classore_1_1data_1_1_todays_market.html#ad79acb672b27bd7258f228494d94cb32" target="_top" xlink:title="Constructor taking pointers and allowing for a lazy build of the market objects.">
<polygon fill="white" stroke="#666666" points="122,-67.5 7.10543e-015,-67.5 7.10543e-015,-37.5 122,-37.5 122,-67.5"/>
<text text-anchor="start" x="8" y="-55.5" font-family="Helvetica,sans-Serif" font-size="10.00">ore::data::TodaysMarket</text>
<text text-anchor="middle" x="61" y="-44.5" font-family="Helvetica,sans-Serif" font-size="10.00">::TodaysMarket</text>
</a>
</g>
</g>
<!-- Node3&#45;&gt;Node4 -->
<g id="edge3" class="edge"><title>Node3&#45;&gt;Node4</title>
<path fill="none" stroke="#63b8ff" d="M147.462,-52.5C139.01,-52.5 130.44,-52.5 122.153,-52.5"/>
<polygon fill="#63b8ff" stroke="#63b8ff" points="147.686,-56.0001 157.686,-52.5 147.686,-49.0001 147.686,-56.0001"/>
</g>
<!-- Node5&#45;&gt;Node3 -->
<g id="edge5" class="edge"><title>Node5&#45;&gt;Node3</title>
<path fill="none" stroke="#63b8ff" d="M305.741,-36.0114C297.198,-37.6542 288.531,-39.321 280.153,-40.9321"/>
<polygon fill="#63b8ff" stroke="#63b8ff" points="306.527,-39.4244 315.686,-34.0988 305.205,-32.5503 306.527,-39.4244"/>
</g>
<!-- Node5&#45;&gt;Node5 -->
<g id="edge6" class="edge"><title>Node5&#45;&gt;Node5</title>
<path fill="none" stroke="#63b8ff" d="M404.656,-48.0975C400.877,-52.4704 391.658,-55.5 377,-55.5 352.313,-55.5 343.055,-46.9063 349.227,-37.7754"/>
<polygon fill="#63b8ff" stroke="#63b8ff" points="408.159,-47.8146 404.773,-37.7754 401.16,-47.7349 408.159,-47.8146"/>
</g>
</g>
</svg>
