<?xml version="1.0" encoding="UTF-8" standalone="no"?>
<!DOCTYPE svg PUBLIC "-//W3C//DTD SVG 1.1//EN"
 "http://www.w3.org/Graphics/SVG/1.1/DTD/svg11.dtd">
<!-- Generated by graphviz version 2.38.0 (20140413.2041)
 -->
<!-- Title: NettingSetManager Pages: 1 -->
<svg width="684pt" height="930pt"
 viewBox="0.00 0.00 683.50 930.00" xmlns="http://www.w3.org/2000/svg" xmlns:xlink="http://www.w3.org/1999/xlink">
<g id="graph0" class="graph" transform="scale(1 1) rotate(0) translate(4 926)">
<title>NettingSetManager</title>
<!-- Node1 -->
<g id="node1" class="node"><title>Node1</title>
<g id="a_node1"><a xlink:title="Netting Set Manager.">
<polygon fill="#999999" stroke="#666666" points="278.5,-184 146.5,-184 146.5,-0 278.5,-0 278.5,-184"/>
<text text-anchor="middle" x="212.5" y="-172" font-family="Helvetica,sans-Serif" font-size="10.00">{NettingSetManager</text>
<text text-anchor="start" x="154.5" y="-161" font-family="Helvetica,sans-Serif" font-size="10.00">||+ NettingSetManager()</text>
<text text-anchor="start" x="154.5" y="-150" font-family="Helvetica,sans-Serif" font-size="10.00">+ reset()</text>
<text text-anchor="start" x="154.5" y="-139" font-family="Helvetica,sans-Serif" font-size="10.00">+ empty()</text>
<text text-anchor="start" x="154.5" y="-128" font-family="Helvetica,sans-Serif" font-size="10.00">+ calculateIMAmount()</text>
<text text-anchor="start" x="154.5" y="-117" font-family="Helvetica,sans-Serif" font-size="10.00">+ calculateIMNettingSets()</text>
<text text-anchor="start" x="154.5" y="-106" font-family="Helvetica,sans-Serif" font-size="10.00">+ has()</text>
<text text-anchor="start" x="154.5" y="-95" font-family="Helvetica,sans-Serif" font-size="10.00">+ has()</text>
<text text-anchor="start" x="154.5" y="-84" font-family="Helvetica,sans-Serif" font-size="10.00">+ add()</text>
<text text-anchor="start" x="154.5" y="-73" font-family="Helvetica,sans-Serif" font-size="10.00">+ get()</text>
<text text-anchor="start" x="154.5" y="-62" font-family="Helvetica,sans-Serif" font-size="10.00">+ get()</text>
<text text-anchor="start" x="154.5" y="-51" font-family="Helvetica,sans-Serif" font-size="10.00">+ uniqueKeys()</text>
<text text-anchor="start" x="154.5" y="-40" font-family="Helvetica,sans-Serif" font-size="10.00">+ fromXML()</text>
<text text-anchor="start" x="154.5" y="-29" font-family="Helvetica,sans-Serif" font-size="10.00">+ toXML()</text>
<text text-anchor="start" x="154.5" y="-18" font-family="Helvetica,sans-Serif" font-size="10.00">+ nettingSetDefinitions()</text>
<text text-anchor="middle" x="212.5" y="-7" font-family="Helvetica,sans-Serif" font-size="10.00">}</text>
</a>
</g>
</g>
<!-- Node2 -->
<g id="node2" class="node"><title>Node2</title>
<g id="a_node2"><a xlink:href="classore_1_1data_1_1_x_m_l_serializable.html" target="_top" xlink:title="Base class for all serializable classes.">
<polygon fill="white" stroke="#666666" points="111,-855 0,-855 0,-748 111,-748 111,-855"/>
<text text-anchor="middle" x="55.5" y="-843" font-family="Helvetica,sans-Serif" font-size="10.00">{XMLSerializable</text>
<text text-anchor="start" x="8" y="-832" font-family="Helvetica,sans-Serif" font-size="10.00">||+ ~XMLSerializable()</text>
<text text-anchor="start" x="8" y="-821" font-family="Helvetica,sans-Serif" font-size="10.00">+ fromXML()</text>
<text text-anchor="start" x="8" y="-810" font-family="Helvetica,sans-Serif" font-size="10.00">+ toXML()</text>
<text text-anchor="start" x="8" y="-799" font-family="Helvetica,sans-Serif" font-size="10.00">+ fromFile()</text>
<text text-anchor="start" x="8" y="-788" font-family="Helvetica,sans-Serif" font-size="10.00">+ toFile()</text>
<text text-anchor="start" x="8" y="-777" font-family="Helvetica,sans-Serif" font-size="10.00">+ fromXMLString()</text>
<text text-anchor="start" x="8" y="-766" font-family="Helvetica,sans-Serif" font-size="10.00">+ toXMLString()</text>
<text text-anchor="middle" x="55.5" y="-755" font-family="Helvetica,sans-Serif" font-size="10.00">}</text>
</a>
</g>
</g>
<!-- Node2&#45;&gt;Node1 -->
<g id="edge1" class="edge"><title>Node2&#45;&gt;Node1</title>
<path fill="none" stroke="#63b8ff" d="M51.287,-737.751C47.0883,-651.954 44.9416,-493.76 74.5,-363 88.5512,-300.841 101.713,-287.856 130.5,-231 138.305,-215.585 147.139,-199.542 156.046,-184.079"/>
<polygon fill="none" stroke="#63b8ff" points="47.7973,-738.042 51.8073,-747.848 54.788,-737.681 47.7973,-738.042"/>
</g>
<!-- Node4 -->
<g id="node4" class="node"><title>Node4</title>
<g id="a_node4"><a xlink:href="classore_1_1data_1_1_netting_set_details.html" target="_top" xlink:title="Serializable object holding netting set identification data.">
<polygon fill="white" stroke="#666666" points="203,-635 84,-635 84,-363 203,-363 203,-635"/>
<text text-anchor="middle" x="143.5" y="-623" font-family="Helvetica,sans-Serif" font-size="10.00">{NettingSetDetails</text>
<text text-anchor="start" x="92" y="-612" font-family="Helvetica,sans-Serif" font-size="10.00">||+ NettingSetDetails()</text>
<text text-anchor="start" x="92" y="-601" font-family="Helvetica,sans-Serif" font-size="10.00">+ NettingSetDetails()</text>
<text text-anchor="start" x="92" y="-590" font-family="Helvetica,sans-Serif" font-size="10.00">+ NettingSetDetails()</text>
<text text-anchor="start" x="92" y="-579" font-family="Helvetica,sans-Serif" font-size="10.00">+ fromXML()</text>
<text text-anchor="start" x="92" y="-568" font-family="Helvetica,sans-Serif" font-size="10.00">+ toXML()</text>
<text text-anchor="start" x="92" y="-557" font-family="Helvetica,sans-Serif" font-size="10.00">+ nettingSetId()</text>
<text text-anchor="start" x="92" y="-546" font-family="Helvetica,sans-Serif" font-size="10.00">+ agreementType()</text>
<text text-anchor="start" x="92" y="-535" font-family="Helvetica,sans-Serif" font-size="10.00">+ callType()</text>
<text text-anchor="start" x="92" y="-524" font-family="Helvetica,sans-Serif" font-size="10.00">+ initialMarginType()</text>
<text text-anchor="start" x="92" y="-513" font-family="Helvetica,sans-Serif" font-size="10.00">+ legalEntityId()</text>
<text text-anchor="start" x="92" y="-502" font-family="Helvetica,sans-Serif" font-size="10.00">* empty()</text>
<text text-anchor="start" x="92" y="-491" font-family="Helvetica,sans-Serif" font-size="10.00">* emptyOptionalFields()</text>
<text text-anchor="start" x="92" y="-480" font-family="Helvetica,sans-Serif" font-size="10.00">* mapRepresentation()</text>
<text text-anchor="start" x="92" y="-469" font-family="Helvetica,sans-Serif" font-size="10.00">* fieldNames()</text>
<text text-anchor="start" x="92" y="-458" font-family="Helvetica,sans-Serif" font-size="10.00">* optionalFieldNames()</text>
<text text-anchor="start" x="92" y="-447" font-family="Helvetica,sans-Serif" font-size="10.00">* fromXML()</text>
<text text-anchor="start" x="92" y="-436" font-family="Helvetica,sans-Serif" font-size="10.00">* toXML()</text>
<text text-anchor="start" x="92" y="-425" font-family="Helvetica,sans-Serif" font-size="10.00">* nettingSetId()</text>
<text text-anchor="start" x="92" y="-414" font-family="Helvetica,sans-Serif" font-size="10.00">* agreementType()</text>
<text text-anchor="start" x="92" y="-403" font-family="Helvetica,sans-Serif" font-size="10.00">* callType()</text>
<text text-anchor="start" x="92" y="-392" font-family="Helvetica,sans-Serif" font-size="10.00">* initialMarginType()</text>
<text text-anchor="start" x="92" y="-381" font-family="Helvetica,sans-Serif" font-size="10.00">* legalEntityId()</text>
<text text-anchor="middle" x="143.5" y="-370" font-family="Helvetica,sans-Serif" font-size="10.00">}</text>
</a>
</g>
</g>
<!-- Node2&#45;&gt;Node4 -->
<g id="edge4" class="edge"><title>Node2&#45;&gt;Node4</title>
<path fill="none" stroke="#63b8ff" d="M73.8174,-737.95C82.5807,-708.025 93.4354,-670.959 103.948,-635.061"/>
<polygon fill="none" stroke="#63b8ff" points="70.3807,-737.232 70.9291,-747.813 77.0986,-739.2 70.3807,-737.232"/>
</g>
<!-- Node3 -->
<g id="node3" class="node"><title>Node3</title>
<g id="a_node3"><a xlink:title=" ">
<polygon fill="white" stroke="#666666" points="285,-294 140,-294 140,-231 285,-231 285,-294"/>
<text text-anchor="start" x="148" y="-282" font-family="Helvetica,sans-Serif" font-size="10.00">{map&lt; ore::data::NettingSet</text>
<text text-anchor="start" x="148" y="-271" font-family="Helvetica,sans-Serif" font-size="10.00">Details, const QuantLib</text>
<text text-anchor="start" x="148" y="-260" font-family="Helvetica,sans-Serif" font-size="10.00">::ext::shared_ptr&lt; ore::</text>
<text text-anchor="middle" x="212.5" y="-249" font-family="Helvetica,sans-Serif" font-size="10.00">data::NettingSetDefinition &gt; &gt;</text>
<text text-anchor="middle" x="212.5" y="-238" font-family="Helvetica,sans-Serif" font-size="10.00">||}</text>
</a>
</g>
</g>
<!-- Node3&#45;&gt;Node1 -->
<g id="edge2" class="edge"><title>Node3&#45;&gt;Node1</title>
<path fill="none" stroke="#404040" d="M212.5,-230.986C212.5,-220.852 212.5,-208.939 212.5,-196.429"/>
<polygon fill="none" stroke="#404040" points="212.5,-196.292 208.5,-190.292 212.5,-184.292 216.5,-190.292 212.5,-196.292"/>
<text text-anchor="middle" x="228" y="-205" font-family="Helvetica,sans-Serif" font-size="10.00"> &#45;data_</text>
</g>
<!-- Node4&#45;&gt;Node3 -->
<g id="edge3" class="edge"><title>Node4&#45;&gt;Node3</title>
<path fill="none" stroke="#404040" d="M129.327,-362.74C131.703,-345.026 136.399,-327.624 144.5,-312 146.127,-308.862 148.06,-305.882 150.227,-303.058"/>
<polygon fill="none" stroke="#404040" points="150.328,-302.947 151.395,-295.815 158.389,-294.057 157.322,-301.189 150.328,-302.947"/>
<text text-anchor="middle" x="160" y="-326" font-family="Helvetica,sans-Serif" font-size="10.00"> +keys</text>
</g>
<!-- Node11 -->
<g id="node11" class="node"><title>Node11</title>
<g id="a_node11"><a xlink:title=" ">
<polygon fill="white" stroke="#666666" points="404,-283 303,-283 303,-242 404,-242 404,-283"/>
<text text-anchor="start" x="311" y="-271" font-family="Helvetica,sans-Serif" font-size="10.00">{vector&lt; ore::data::</text>
<text text-anchor="middle" x="353.5" y="-260" font-family="Helvetica,sans-Serif" font-size="10.00">NettingSetDetails &gt;</text>
<text text-anchor="middle" x="353.5" y="-249" font-family="Helvetica,sans-Serif" font-size="10.00">||}</text>
</a>
</g>
</g>
<!-- Node4&#45;&gt;Node11 -->
<g id="edge12" class="edge"><title>Node4&#45;&gt;Node11</title>
<path fill="none" stroke="#404040" d="M170.186,-362.792C177.139,-339.697 185.302,-320.424 194.5,-312 227.48,-281.795 251.121,-308.283 293.5,-294 298.358,-292.363 303.314,-290.391 308.19,-288.247"/>
<polygon fill="none" stroke="#404040" points="308.481,-288.11 312.212,-281.939 319.343,-283.009 315.613,-289.18 308.481,-288.11"/>
<text text-anchor="middle" x="219" y="-326" font-family="Helvetica,sans-Serif" font-size="10.00"> +elements</text>
</g>
<!-- Node5 -->
<g id="node5" class="node"><title>Node5</title>
<g id="a_node5"><a xlink:title=" ">
<polygon fill="white" stroke="#666666" points="173.5,-816.5 129.5,-816.5 129.5,-786.5 173.5,-786.5 173.5,-816.5"/>
<text text-anchor="middle" x="151.5" y="-804.5" font-family="Helvetica,sans-Serif" font-size="10.00">{string</text>
<text text-anchor="middle" x="151.5" y="-793.5" font-family="Helvetica,sans-Serif" font-size="10.00">||}</text>
</a>
</g>
</g>
<!-- Node5&#45;&gt;Node4 -->
<g id="edge5" class="edge"><title>Node5&#45;&gt;Node4</title>
<path fill="none" stroke="#404040" d="M151.125,-786.409C150.441,-760.735 148.925,-703.763 147.422,-647.338"/>
<polygon fill="none" stroke="#404040" points="147.422,-647.313 143.264,-641.422 147.102,-635.318 151.261,-641.209 147.422,-647.313"/>
<text text-anchor="middle" x="190" y="-722" font-family="Helvetica,sans-Serif" font-size="10.00"> &#45;agreementType_</text>
<text text-anchor="middle" x="190" y="-711" font-family="Helvetica,sans-Serif" font-size="10.00">&#45;callType_</text>
<text text-anchor="start" x="150.5" y="-700" font-family="Helvetica,sans-Serif" font-size="10.00">&#45;initialMarginType</text>
<text text-anchor="middle" x="190" y="-689" font-family="Helvetica,sans-Serif" font-size="10.00">_</text>
<text text-anchor="start" x="150.5" y="-678" font-family="Helvetica,sans-Serif" font-size="10.00">&#45;legalEntityId</text>
<text text-anchor="middle" x="190" y="-667" font-family="Helvetica,sans-Serif" font-size="10.00">_</text>
<text text-anchor="middle" x="190" y="-656" font-family="Helvetica,sans-Serif" font-size="10.00">&#45;nettingSetId_</text>
</g>
<!-- Node6 -->
<g id="node6" class="node"><title>Node6</title>
<g id="a_node6"><a xlink:title=" ">
<polygon fill="white" stroke="#666666" points="206.5,-922 96.5,-922 96.5,-892 206.5,-892 206.5,-922"/>
<text text-anchor="middle" x="151.5" y="-910" font-family="Helvetica,sans-Serif" font-size="10.00">{basic_string&lt; Char &gt;</text>
<text text-anchor="middle" x="151.5" y="-899" font-family="Helvetica,sans-Serif" font-size="10.00">||}</text>
</a>
</g>
</g>
<!-- Node6&#45;&gt;Node5 -->
<g id="edge6" class="edge"><title>Node6&#45;&gt;Node5</title>
<path fill="none" stroke="#63b8ff" d="M151.5,-881.597C151.5,-861.425 151.5,-833.476 151.5,-816.769"/>
<polygon fill="none" stroke="#63b8ff" points="148,-881.609 151.5,-891.609 155,-881.609 148,-881.609"/>
</g>
<!-- Node7 -->
<g id="node7" class="node"><title>Node7</title>
<g id="a_node7"><a xlink:title=" ">
<polygon fill="white" stroke="#666666" points="338,-519.5 221,-519.5 221,-478.5 338,-478.5 338,-519.5"/>
<text text-anchor="start" x="229" y="-507.5" font-family="Helvetica,sans-Serif" font-size="10.00">{shared_ptr&lt; ore::data</text>
<text text-anchor="middle" x="279.5" y="-496.5" font-family="Helvetica,sans-Serif" font-size="10.00">::NettingSetDefinition &gt;</text>
<text text-anchor="middle" x="279.5" y="-485.5" font-family="Helvetica,sans-Serif" font-size="10.00">||}</text>
</a>
</g>
</g>
<!-- Node7&#45;&gt;Node3 -->
<g id="edge7" class="edge"><title>Node7&#45;&gt;Node3</title>
<path fill="none" stroke="#404040" d="M279.013,-478.456C277.529,-443.659 271.55,-369.245 247.5,-312 246.454,-309.511 245.26,-307.027 243.958,-304.573"/>
<polygon fill="none" stroke="#404040" points="243.844,-304.383 237.332,-301.285 237.687,-294.083 244.199,-297.181 243.844,-304.383"/>
<text text-anchor="middle" x="283" y="-326" font-family="Helvetica,sans-Serif" font-size="10.00"> +elements</text>
</g>
<!-- Node8 -->
<g id="node8" class="node"><title>Node8</title>
<g id="a_node8"><a xlink:title=" ">
<polygon fill="white" stroke="#666666" points="432.5,-514 358.5,-514 358.5,-484 432.5,-484 432.5,-514"/>
<text text-anchor="middle" x="395.5" y="-502" font-family="Helvetica,sans-Serif" font-size="10.00">{map&lt; K, T &gt;</text>
<text text-anchor="middle" x="395.5" y="-491" font-family="Helvetica,sans-Serif" font-size="10.00">||}</text>
</a>
</g>
</g>
<!-- Node8&#45;&gt;Node3 -->
<g id="edge8" class="edge"><title>Node8&#45;&gt;Node3</title>
<path fill="none" stroke="orange" d="M391.393,-474.102C383.32,-434.482 361.606,-355.281 311.5,-312 303.534,-305.119 294.421,-298.956 285.022,-293.52"/>
<polygon fill="orange" stroke="orange" points="387.96,-474.782 393.281,-483.943 394.834,-473.463 387.96,-474.782"/>
<text text-anchor="start" x="341.5" y="-337" font-family="Helvetica,sans-Serif" font-size="10.00"> &lt; ore::data::NettingSetDetails,</text>
<text text-anchor="start" x="341.5" y="-326" font-family="Helvetica,sans-Serif" font-size="10.00"> const QuantLib::ext::shared</text>
<text text-anchor="middle" x="428.5" y="-315" font-family="Helvetica,sans-Serif" font-size="10.00">_ptr&lt; ore::data::NettingSetDefinition &gt; &gt;</text>
</g>
<!-- Node9 -->
<g id="node9" class="node"><title>Node9</title>
<g id="a_node9"><a xlink:title=" ">
<polygon fill="white" stroke="#666666" points="410,-816.5 381,-816.5 381,-786.5 410,-786.5 410,-816.5"/>
<text text-anchor="middle" x="395.5" y="-804.5" font-family="Helvetica,sans-Serif" font-size="10.00">{K</text>
<text text-anchor="middle" x="395.5" y="-793.5" font-family="Helvetica,sans-Serif" font-size="10.00">||}</text>
</a>
</g>
</g>
<!-- Node9&#45;&gt;Node8 -->
<g id="edge9" class="edge"><title>Node9&#45;&gt;Node8</title>
<path fill="none" stroke="#404040" d="M395.5,-786.409C395.5,-739.483 395.5,-587.998 395.5,-526.408"/>
<polygon fill="none" stroke="#404040" points="395.5,-526.06 391.5,-520.06 395.5,-514.06 399.5,-520.06 395.5,-526.06"/>
<text text-anchor="middle" x="411" y="-689" font-family="Helvetica,sans-Serif" font-size="10.00"> +keys</text>
</g>
<!-- Node10 -->
<g id="node10" class="node"><title>Node10</title>
<g id="a_node10"><a xlink:title=" ">
<polygon fill="white" stroke="#666666" points="502,-816.5 473,-816.5 473,-786.5 502,-786.5 502,-816.5"/>
<text text-anchor="middle" x="487.5" y="-804.5" font-family="Helvetica,sans-Serif" font-size="10.00">{T</text>
<text text-anchor="middle" x="487.5" y="-793.5" font-family="Helvetica,sans-Serif" font-size="10.00">||}</text>
</a>
</g>
</g>
<!-- Node10&#45;&gt;Node8 -->
<g id="edge10" class="edge"><title>Node10&#45;&gt;Node8</title>
<path fill="none" stroke="#404040" d="M479.035,-786.365C470.999,-772.44 459.057,-750.356 451.5,-730 437.52,-692.342 412.237,-578.084 401.065,-526.169"/>
<polygon fill="none" stroke="#404040" points="400.998,-525.854 395.83,-520.825 398.485,-514.12 403.653,-519.149 400.998,-525.854"/>
<text text-anchor="middle" x="476" y="-689" font-family="Helvetica,sans-Serif" font-size="10.00"> +elements</text>
</g>
<!-- Node12 -->
<g id="node12" class="node"><title>Node12</title>
<g id="a_node12"><a xlink:title=" ">
<polygon fill="white" stroke="#666666" points="571.5,-514 503.5,-514 503.5,-484 571.5,-484 571.5,-514"/>
<text text-anchor="middle" x="537.5" y="-502" font-family="Helvetica,sans-Serif" font-size="10.00">{vector&lt; T &gt;</text>
<text text-anchor="middle" x="537.5" y="-491" font-family="Helvetica,sans-Serif" font-size="10.00">||}</text>
</a>
</g>
</g>
<!-- Node10&#45;&gt;Node12 -->
<g id="edge14" class="edge"><title>Node10&#45;&gt;Node12</title>
<path fill="none" stroke="#404040" d="M491.348,-786.273C495.084,-772.095 500.728,-749.66 504.5,-730 518.591,-656.558 529.579,-568.873 534.569,-526.084"/>
<polygon fill="none" stroke="#404040" points="534.578,-526 531.289,-519.582 535.948,-514.078 539.237,-520.495 534.578,-526"/>
<text text-anchor="middle" x="541" y="-689" font-family="Helvetica,sans-Serif" font-size="10.00"> +elements</text>
</g>
<!-- Node11&#45;&gt;Node1 -->
<g id="edge11" class="edge"><title>Node11&#45;&gt;Node1</title>
<path fill="none" stroke="#404040" d="M337.05,-241.841C324.28,-226.581 305.598,-204.255 286.568,-181.514"/>
<polygon fill="none" stroke="#404040" points="286.398,-181.311 279.48,-179.277 278.697,-172.108 285.615,-174.143 286.398,-181.311"/>
<text text-anchor="middle" x="344" y="-205" font-family="Helvetica,sans-Serif" font-size="10.00"> &#45;uniqueKeys_</text>
</g>
<!-- Node12&#45;&gt;Node11 -->
<g id="edge13" class="edge"><title>Node12&#45;&gt;Node11</title>
<path fill="none" stroke="orange" d="M542.398,-474.001C548.836,-435.164 555.208,-358.235 516.5,-312 489.208,-279.401 441.045,-268.13 404.127,-264.508"/>
<polygon fill="orange" stroke="orange" points="538.945,-473.426 540.618,-483.888 545.834,-474.667 538.945,-473.426"/>
<text text-anchor="middle" x="604.5" y="-326" font-family="Helvetica,sans-Serif" font-size="10.00"> &lt; ore::data::NettingSetDetails &gt;</text>
</g>
</g>
</svg>
