<?xml version="1.0" encoding="UTF-8" standalone="no"?>
<!DOCTYPE svg PUBLIC "-//W3C//DTD SVG 1.1//EN"
 "http://www.w3.org/Graphics/SVG/1.1/DTD/svg11.dtd">
<!-- Generated by graphviz version 2.38.0 (20140413.2041)
 -->
<!-- Title: build Pages: 1 -->
<!--zoomable 765 -->
<svg id="main" version="1.1" xmlns="http://www.w3.org/2000/svg" xmlns:xlink="http://www.w3.org/1999/xlink" xml:space="preserve" onload="init(evt)">
<style type="text/css"><![CDATA[
.edge:hover path { stroke: red; }
.edge:hover polygon { stroke: red; fill: red; }
]]></style>
<script type="text/javascript"><![CDATA[
var edges = document.getElementsByTagName('g');
if (edges && edges.length) {
  for (var i=0;i<edges.length;i++) {
    if (edges[i].id.substr(0,4)=='edge') {
      edges[i].setAttribute('class','edge');
    }
  }
}
]]></script>
        <defs>
                <circle id="rim" cx="0" cy="0" r="7"/>
                <circle id="rim2" cx="0" cy="0" r="3.5"/>
                <g id="zoomPlus">
                        <use xlink:href="#rim" fill="#404040">
                                <set attributeName="fill" to="#808080" begin="zoomplus.mouseover" end="zoomplus.mouseout"/>
                        </use>
                        <path d="M-4,0h8M0,-4v8" fill="none" stroke="white" stroke-width="1.5" pointer-events="none"/>
                </g>
                <g id="zoomMin">
                        <use xlink:href="#rim" fill="#404040">
                                <set attributeName="fill" to="#808080" begin="zoomminus.mouseover" end="zoomminus.mouseout"/>
                        </use>
                        <path d="M-4,0h8" fill="none" stroke="white" stroke-width="1.5" pointer-events="none"/>
                </g>
                <g id="dirArrow">
                        <path fill="none" stroke="white" stroke-width="1.5" d="M0,-3.0v7 M-2.5,-0.5L0,-3.0L2.5,-0.5"/>
                </g>
               <g id="resetDef">
                       <use xlink:href="#rim2" fill="#404040">
                               <set attributeName="fill" to="#808080" begin="reset.mouseover" end="reset.mouseout"/>
                       </use>
               </g>
        </defs>

<script type="text/javascript">
var viewWidth = 543;
var viewHeight = 765;
var sectionId = 'dynsection-2';
</script>
<script xlink:href="svgpan.js"/>
<svg id="graph" class="graph">
<g id="viewport">
<title>build</title>
<!-- Node1 -->
<g id="node1" class="node"><title>Node1</title>
<g id="a_node1"><a xlink:title="Implement the build method.">
<polygon fill="#999999" stroke="#666666" points="37,-339.5 0,-339.5 0,-320.5 37,-320.5 37,-339.5"/>
<text text-anchor="middle" x="18.5" y="-327.5" font-family="Helvetica,sans-Serif" font-size="10.00">build</text>
</a>
</g>
</g>
<!-- Node2 -->
<g id="node2" class="node"><title>Node2</title>
<g id="a_node2"><a xlink:href="classore_1_1data_1_1_commodity_option_strip.html#a6d6ecf5491da24c10030b998afd5fa8b" target="_top" xlink:title="Build an average price option strip.">
<polygon fill="white" stroke="#666666" points="161,-471.5 98,-471.5 98,-452.5 161,-452.5 161,-471.5"/>
<text text-anchor="middle" x="129.5" y="-459.5" font-family="Helvetica,sans-Serif" font-size="10.00">buildAPOs</text>
</a>
</g>
</g>
<!-- Node1&#45;&gt;Node2 -->
<g id="edge1" class="edge"><title>Node1&#45;&gt;Node2</title>
<path fill="none" stroke="#63b8ff" d="M27.6927,-339.921C46.0888,-362.199 90.8749,-416.436 114.06,-444.513"/>
<polygon fill="#63b8ff" stroke="#63b8ff" points="111.442,-446.84 120.508,-452.322 116.84,-442.383 111.442,-446.84"/>
</g>
<!-- Node7 -->
<g id="node7" class="node"><title>Node7</title>
<g id="a_node7"><a xlink:href="classore_1_1data_1_1_leg_data.html#a14dac022d83c5fa9597e6344199a41b6" target="_top" xlink:title=" ">
<polygon fill="white" stroke="#666666" points="346,-757 249,-757 249,-727 346,-727 346,-757"/>
<text text-anchor="start" x="257" y="-745" font-family="Helvetica,sans-Serif" font-size="10.00">ore::data::LegData</text>
<text text-anchor="middle" x="297.5" y="-734" font-family="Helvetica,sans-Serif" font-size="10.00">::currency</text>
</a>
</g>
</g>
<!-- Node1&#45;&gt;Node7 -->
<g id="edge36" class="edge"><title>Node1&#45;&gt;Node7</title>
<path fill="none" stroke="#63b8ff" d="M22.1652,-339.839C28.9831,-364.368 48.2767,-429.933 73,-481 127.217,-592.987 123.754,-641.657 222,-718 227.14,-721.994 232.966,-725.334 239.04,-728.125"/>
<polygon fill="#63b8ff" stroke="#63b8ff" points="238.145,-731.539 248.727,-732.072 240.787,-725.057 238.145,-731.539"/>
</g>
<!-- Node20 -->
<g id="node20" class="node"><title>Node20</title>
<g id="a_node20"><a xlink:href="classore_1_1data_1_1_commodity_option_strip.html#ae82ea069e328d04bb1f7c58b7abc9802" target="_top" xlink:title="Build a standard option strip.">
<polygon fill="white" stroke="#666666" points="184.5,-361.5 74.5,-361.5 74.5,-342.5 184.5,-342.5 184.5,-361.5"/>
<text text-anchor="middle" x="129.5" y="-349.5" font-family="Helvetica,sans-Serif" font-size="10.00">buildStandardOptions</text>
</a>
</g>
</g>
<!-- Node1&#45;&gt;Node20 -->
<g id="edge20" class="edge"><title>Node1&#45;&gt;Node20</title>
<path fill="none" stroke="#63b8ff" d="M37.0127,-333.535C46.5098,-335.452 58.844,-337.941 71.3641,-340.468"/>
<polygon fill="#63b8ff" stroke="#63b8ff" points="70.8994,-343.945 81.3943,-342.492 72.2844,-337.083 70.8994,-343.945"/>
</g>
<!-- Node25 -->
<g id="node25" class="node"><title>Node25</title>
<g id="a_node25"><a xlink:href="classore_1_1data_1_1_leg_data.html#addf7fbf413fc9870bf7c88a4b3904f3c" target="_top" xlink:title=" ">
<polygon fill="white" stroke="#666666" points="178,-324 81,-324 81,-294 178,-294 178,-324"/>
<text text-anchor="start" x="89" y="-312" font-family="Helvetica,sans-Serif" font-size="10.00">ore::data::LegData</text>
<text text-anchor="middle" x="129.5" y="-301" font-family="Helvetica,sans-Serif" font-size="10.00">::concreteLegData</text>
</a>
</g>
</g>
<!-- Node1&#45;&gt;Node25 -->
<g id="edge35" class="edge"><title>Node1&#45;&gt;Node25</title>
<path fill="none" stroke="#63b8ff" d="M37.0127,-326.626C46.4148,-324.815 58.5976,-322.467 70.9886,-320.08"/>
<polygon fill="#63b8ff" stroke="#63b8ff" points="71.7642,-323.495 80.9214,-318.167 70.4398,-316.622 71.7642,-323.495"/>
</g>
<!-- Node26 -->
<g id="node26" class="node"><title>Node26</title>
<g id="a_node26"><a xlink:href="classore_1_1data_1_1_leg_data.html#a81b9d9c795e1f72812f0da9b14382f4a" target="_top" xlink:title=" ">
<polygon fill="white" stroke="#666666" points="178,-276 81,-276 81,-246 178,-246 178,-276"/>
<text text-anchor="start" x="89" y="-264" font-family="Helvetica,sans-Serif" font-size="10.00">ore::data::LegData</text>
<text text-anchor="middle" x="129.5" y="-253" font-family="Helvetica,sans-Serif" font-size="10.00">::legType</text>
</a>
</g>
</g>
<!-- Node1&#45;&gt;Node26 -->
<g id="edge37" class="edge"><title>Node1&#45;&gt;Node26</title>
<path fill="none" stroke="#63b8ff" d="M29.078,-320.436C39.2943,-310.613 56.2763,-295.34 73,-285 75.4276,-283.499 77.9655,-282.046 80.563,-280.648"/>
<polygon fill="#63b8ff" stroke="#63b8ff" points="82.1969,-283.744 89.5497,-276.116 79.0448,-277.494 82.1969,-283.744"/>
</g>
<!-- Node27 -->
<g id="node27" class="node"><title>Node27</title>
<g id="a_node27"><a xlink:href="classore_1_1data_1_1_trade.html#ad20897c5c8bd47f5d4005989bead0e55" target="_top" xlink:title="Reset trade, clear all base class data. This does not reset accumulated timings for this trade.">
<polygon fill="white" stroke="#666666" points="186,-126.5 73,-126.5 73,-107.5 186,-107.5 186,-126.5"/>
<text text-anchor="middle" x="129.5" y="-114.5" font-family="Helvetica,sans-Serif" font-size="10.00">ore::data::Trade::reset</text>
</a>
</g>
</g>
<!-- Node1&#45;&gt;Node27 -->
<g id="edge38" class="edge"><title>Node1&#45;&gt;Node27</title>
<path fill="none" stroke="#63b8ff" d="M24.4667,-320.294C41.3129,-287.375 96.4724,-179.586 118.894,-135.771"/>
<polygon fill="#63b8ff" stroke="#63b8ff" points="122.064,-137.259 123.504,-126.763 115.833,-134.07 122.064,-137.259"/>
</g>
<!-- Node3 -->
<g id="node3" class="node"><title>Node3</title>
<g id="a_node3"><a xlink:href="classore_1_1data_1_1_trade.html#a775ea85ca706b8f39e0b3c24a1262b57" target="_top" xlink:title=" ">
<polygon fill="white" stroke="#666666" points="373,-416.5 222,-416.5 222,-397.5 373,-397.5 373,-416.5"/>
<text text-anchor="middle" x="297.5" y="-404.5" font-family="Helvetica,sans-Serif" font-size="10.00">ore::data::Trade::addPremiums</text>
</a>
</g>
</g>
<!-- Node2&#45;&gt;Node3 -->
<g id="edge2" class="edge"><title>Node2&#45;&gt;Node3</title>
<path fill="none" stroke="#63b8ff" d="M152.406,-452.485C170.769,-444.728 197.795,-433.814 222,-426 229.502,-423.578 237.509,-421.262 245.387,-419.132"/>
<polygon fill="#63b8ff" stroke="#63b8ff" points="246.467,-422.467 255.249,-416.541 244.688,-415.697 246.467,-422.467"/>
</g>
<!-- Node2&#45;&gt;Node7 -->
<g id="edge6" class="edge"><title>Node2&#45;&gt;Node7</title>
<path fill="none" stroke="#63b8ff" d="M134.029,-471.722C142.845,-496.025 166.524,-561.394 186,-616 202.15,-661.28 187.54,-684.48 222,-718 226.974,-722.838 232.927,-726.701 239.272,-729.785"/>
<polygon fill="#63b8ff" stroke="#63b8ff" points="238.203,-733.132 248.779,-733.77 240.909,-726.676 238.203,-733.132"/>
</g>
<!-- Node8 -->
<g id="node8" class="node"><title>Node8</title>
<g id="a_node8"><a xlink:href="classore_1_1data_1_1_trade.html#ab639fbec918087212795e8cbf44d2b82" target="_top" xlink:title=" ">
<polygon fill="white" stroke="#666666" points="361.5,-275.5 233.5,-275.5 233.5,-256.5 361.5,-256.5 361.5,-275.5"/>
<text text-anchor="middle" x="297.5" y="-263.5" font-family="Helvetica,sans-Serif" font-size="10.00">ore::data::Trade::envelope</text>
</a>
</g>
</g>
<!-- Node2&#45;&gt;Node8 -->
<g id="edge7" class="edge"><title>Node2&#45;&gt;Node8</title>
<path fill="none" stroke="#63b8ff" d="M136.968,-452.324C147.841,-435.84 170.149,-401.073 186,-370 204.643,-333.454 190.886,-311.741 222,-285 223.949,-283.325 226.026,-281.795 228.2,-280.397"/>
<polygon fill="#63b8ff" stroke="#63b8ff" points="229.878,-283.469 237.01,-275.633 226.549,-277.311 229.878,-283.469"/>
</g>
<!-- Node9 -->
<g id="node9" class="node"><title>Node9</title>
<g id="a_node9"><a xlink:href="classore_1_1data_1_1_trade.html#a87ddb3c71e81046ae19c4bf5949b178a" target="_top" xlink:title="Set the trade id.">
<polygon fill="white" stroke="#666666" points="346.5,-238.5 248.5,-238.5 248.5,-219.5 346.5,-219.5 346.5,-238.5"/>
<text text-anchor="middle" x="297.5" y="-226.5" font-family="Helvetica,sans-Serif" font-size="10.00">ore::data::Trade::id</text>
</a>
</g>
</g>
<!-- Node2&#45;&gt;Node9 -->
<g id="edge8" class="edge"><title>Node2&#45;&gt;Node9</title>
<path fill="none" stroke="#63b8ff" d="M137.551,-452.251C149.073,-435.939 172.05,-401.768 186,-370 208.902,-317.847 180.775,-286.306 222,-247 226.74,-242.481 232.411,-239.034 238.48,-236.414"/>
<polygon fill="#63b8ff" stroke="#63b8ff" points="240.013,-239.584 248.268,-232.943 237.674,-232.987 240.013,-239.584"/>
</g>
<!-- Node10 -->
<g id="node10" class="node"><title>Node10</title>
<g id="a_node10"><a xlink:href="classore_1_1data_1_1_commodity_option_strip.html#a8e5be5cda3bb914d7ca9e81ee456e0b8" target="_top" xlink:title=" ">
<polygon fill="white" stroke="#666666" points="323,-564.5 272,-564.5 272,-545.5 323,-545.5 323,-564.5"/>
<text text-anchor="middle" x="297.5" y="-552.5" font-family="Helvetica,sans-Serif" font-size="10.00">isDigital</text>
</a>
</g>
</g>
<!-- Node2&#45;&gt;Node10 -->
<g id="edge9" class="edge"><title>Node2&#45;&gt;Node10</title>
<path fill="none" stroke="#63b8ff" d="M139.364,-471.678C154.641,-487.755 187.614,-519.885 222,-537 234.313,-543.129 248.829,-547.243 261.761,-549.97"/>
<polygon fill="#63b8ff" stroke="#63b8ff" points="261.242,-553.434 271.721,-551.872 262.555,-546.558 261.242,-553.434"/>
</g>
<!-- Node11 -->
<g id="node11" class="node"><title>Node11</title>
<g id="a_node11"><a target="_parent" xlink:href="../qle/namespace_quant_ext.html#a0780e43df89be3d7f7671eca2418cdd1" xlink:title=" ">
<polygon fill="white" stroke="#666666" points="315,-527.5 280,-527.5 280,-508.5 315,-508.5 315,-527.5"/>
<text text-anchor="middle" x="297.5" y="-515.5" font-family="Helvetica,sans-Serif" font-size="10.00">max</text>
</a>
</g>
</g>
<!-- Node2&#45;&gt;Node11 -->
<g id="edge10" class="edge"><title>Node2&#45;&gt;Node11</title>
<path fill="none" stroke="#63b8ff" d="M150.867,-471.54C169.184,-479.859 196.98,-491.838 222,-500 237.524,-505.064 255.284,-509.41 269.569,-512.562"/>
<polygon fill="#63b8ff" stroke="#63b8ff" points="269.211,-516.064 279.722,-514.731 270.674,-509.218 269.211,-516.064"/>
</g>
<!-- Node12 -->
<g id="node12" class="node"><title>Node12</title>
<g id="a_node12"><a xlink:href="group__utilities.html#ga6e9e781a58e78200301c76161589fc7b" target="_top" xlink:title="Convert text to QuantLib::Currency.">
<polygon fill="white" stroke="#666666" points="359.5,-490.5 235.5,-490.5 235.5,-471.5 359.5,-471.5 359.5,-490.5"/>
<text text-anchor="middle" x="297.5" y="-478.5" font-family="Helvetica,sans-Serif" font-size="10.00">ore::data::parseCurrency</text>
</a>
</g>
</g>
<!-- Node2&#45;&gt;Node12 -->
<g id="edge11" class="edge"><title>Node2&#45;&gt;Node12</title>
<path fill="none" stroke="#63b8ff" d="M161.334,-465.529C179.304,-467.586 202.759,-470.271 225.075,-472.825"/>
<polygon fill="#63b8ff" stroke="#63b8ff" points="224.892,-476.327 235.225,-473.987 225.688,-469.372 224.892,-476.327"/>
</g>
<!-- Node13 -->
<g id="node13" class="node"><title>Node13</title>
<g id="a_node13"><a xlink:href="classore_1_1data_1_1_leg_data.html#a81cf302909f17b20d114e6cea0cb5732" target="_top" xlink:title=" ">
<polygon fill="white" stroke="#666666" points="346.5,-709 248.5,-709 248.5,-679 346.5,-679 346.5,-709"/>
<text text-anchor="start" x="256.5" y="-697" font-family="Helvetica,sans-Serif" font-size="10.00">ore::data::LegData</text>
<text text-anchor="middle" x="297.5" y="-686" font-family="Helvetica,sans-Serif" font-size="10.00">::paymentCalendar</text>
</a>
</g>
</g>
<!-- Node2&#45;&gt;Node13 -->
<g id="edge12" class="edge"><title>Node2&#45;&gt;Node13</title>
<path fill="none" stroke="#63b8ff" d="M133.589,-471.711C145.565,-508.814 189.852,-640.997 222,-670 227.016,-674.526 232.894,-678.199 239.11,-681.179"/>
<polygon fill="#63b8ff" stroke="#63b8ff" points="237.821,-684.434 248.397,-685.07 240.526,-677.978 237.821,-684.434"/>
</g>
<!-- Node14 -->
<g id="node14" class="node"><title>Node14</title>
<g id="a_node14"><a xlink:href="classore_1_1data_1_1_leg_data.html#a06c2e7a5f637c04367206ba6d5117f5e" target="_top" xlink:title=" ">
<polygon fill="white" stroke="#666666" points="351,-661 244,-661 244,-631 351,-631 351,-661"/>
<text text-anchor="start" x="252" y="-649" font-family="Helvetica,sans-Serif" font-size="10.00">ore::data::LegData</text>
<text text-anchor="middle" x="297.5" y="-638" font-family="Helvetica,sans-Serif" font-size="10.00">::paymentConvention</text>
</a>
</g>
</g>
<!-- Node2&#45;&gt;Node14 -->
<g id="edge13" class="edge"><title>Node2&#45;&gt;Node14</title>
<path fill="none" stroke="#63b8ff" d="M133.246,-471.541C141.673,-499.121 169.811,-579.669 222,-622 225.822,-625.1 230.054,-627.804 234.504,-630.161"/>
<polygon fill="#63b8ff" stroke="#63b8ff" points="233.337,-633.478 243.88,-634.528 236.292,-627.133 233.337,-633.478"/>
</g>
<!-- Node15 -->
<g id="node15" class="node"><title>Node15</title>
<g id="a_node15"><a xlink:href="classore_1_1data_1_1_leg_data.html#ac441cc78bd61760c79dace8fdab08bcf" target="_top" xlink:title=" ">
<polygon fill="white" stroke="#666666" points="346,-613 249,-613 249,-583 346,-583 346,-613"/>
<text text-anchor="start" x="257" y="-601" font-family="Helvetica,sans-Serif" font-size="10.00">ore::data::LegData</text>
<text text-anchor="middle" x="297.5" y="-590" font-family="Helvetica,sans-Serif" font-size="10.00">::paymentLag</text>
</a>
</g>
</g>
<!-- Node2&#45;&gt;Node15 -->
<g id="edge14" class="edge"><title>Node2&#45;&gt;Node15</title>
<path fill="none" stroke="#63b8ff" d="M135.765,-471.671C148.004,-493.259 180.518,-545.698 222,-574 227.304,-577.619 233.188,-580.719 239.257,-583.369"/>
<polygon fill="#63b8ff" stroke="#63b8ff" points="238.303,-586.756 248.89,-587.173 240.874,-580.245 238.303,-586.756"/>
</g>
<!-- Node16 -->
<g id="node16" class="node"><title>Node16</title>
<g id="a_node16"><a xlink:href="classore_1_1data_1_1_commodity_option_strip.html#ac56cb92ec7535b335b3a5d2a66c9368a" target="_top" xlink:title=" ">
<polygon fill="white" stroke="#666666" points="334.5,-453.5 260.5,-453.5 260.5,-434.5 334.5,-434.5 334.5,-453.5"/>
<text text-anchor="middle" x="297.5" y="-441.5" font-family="Helvetica,sans-Serif" font-size="10.00">payoffPerUnit</text>
</a>
</g>
</g>
<!-- Node2&#45;&gt;Node16 -->
<g id="edge15" class="edge"><title>Node2&#45;&gt;Node16</title>
<path fill="none" stroke="#63b8ff" d="M161.334,-458.657C186.303,-455.949 221.863,-452.093 250.243,-449.016"/>
<polygon fill="#63b8ff" stroke="#63b8ff" points="250.776,-452.479 260.341,-447.921 250.021,-445.519 250.776,-452.479"/>
</g>
<!-- Node17 -->
<g id="node17" class="node"><title>Node17</title>
<g id="a_node17"><a xlink:href="classore_1_1data_1_1_trade.html#a788e0abfac5089ac015b7d71dbda25e3" target="_top" xlink:title=" ">
<polygon fill="white" stroke="#666666" points="372,-324 223,-324 223,-294 372,-294 372,-324"/>
<text text-anchor="start" x="231" y="-312" font-family="Helvetica,sans-Serif" font-size="10.00">ore::data::Trade::setSensitivity</text>
<text text-anchor="middle" x="297.5" y="-301" font-family="Helvetica,sans-Serif" font-size="10.00">Template</text>
</a>
</g>
</g>
<!-- Node2&#45;&gt;Node17 -->
<g id="edge16" class="edge"><title>Node2&#45;&gt;Node17</title>
<path fill="none" stroke="#63b8ff" d="M136.28,-452.268C152.517,-425.211 198.862,-349.968 222,-333 224.061,-331.488 226.222,-330.069 228.457,-328.737"/>
<polygon fill="#63b8ff" stroke="#63b8ff" points="230.179,-331.786 237.385,-324.02 226.909,-325.597 230.179,-331.786"/>
</g>
<!-- Node19 -->
<g id="node19" class="node"><title>Node19</title>
<g id="a_node19"><a xlink:href="namespaceore_1_1data.html#a86651dfeb5c18ee891f7a4734d8cf455" target="_top" xlink:title=" ">
<polygon fill="white" stroke="#666666" points="346.5,-361.5 248.5,-361.5 248.5,-342.5 346.5,-342.5 346.5,-361.5"/>
<text text-anchor="middle" x="297.5" y="-349.5" font-family="Helvetica,sans-Serif" font-size="10.00">ore::data::to_string</text>
</a>
</g>
</g>
<!-- Node2&#45;&gt;Node19 -->
<g id="edge18" class="edge"><title>Node2&#45;&gt;Node19</title>
<path fill="none" stroke="#63b8ff" d="M140.875,-452.264C157.236,-437.232 190.425,-408.021 222,-388 235.179,-379.644 250.588,-371.897 263.962,-365.747"/>
<polygon fill="#63b8ff" stroke="#63b8ff" points="265.589,-368.853 273.279,-361.565 262.723,-362.467 265.589,-368.853"/>
</g>
<!-- Node4 -->
<g id="node4" class="node"><title>Node4</title>
<g id="a_node4"><a xlink:href="group__utilities.html#ga63a24b69574b9f0dc9f49cddbcaa242e" target="_top" xlink:title="Convert a value from a minor ccy to major.">
<polygon fill="white" stroke="#666666" points="535,-470 409,-470 409,-440 535,-440 535,-470"/>
<text text-anchor="start" x="417" y="-458" font-family="Helvetica,sans-Serif" font-size="10.00">ore::data::convertMinorTo</text>
<text text-anchor="middle" x="472" y="-447" font-family="Helvetica,sans-Serif" font-size="10.00">MajorCurrency</text>
</a>
</g>
</g>
<!-- Node3&#45;&gt;Node4 -->
<g id="edge3" class="edge"><title>Node3&#45;&gt;Node4</title>
<path fill="none" stroke="#63b8ff" d="M337.241,-416.583C348.772,-419.515 361.418,-422.811 373,-426 385.609,-429.472 399.082,-433.349 411.876,-437.11"/>
<polygon fill="#63b8ff" stroke="#63b8ff" points="410.919,-440.477 421.501,-439.954 412.903,-433.764 410.919,-440.477"/>
</g>
<!-- Node5 -->
<g id="node5" class="node"><title>Node5</title>
<g id="a_node5"><a xlink:href="group__utilities.html#ga5816082aca07feca7ec905758bd09392" target="_top" xlink:title="Convert text to QuantLib::Currency.">
<polygon fill="white" stroke="#666666" points="534,-422 410,-422 410,-392 534,-392 534,-422"/>
<text text-anchor="start" x="418" y="-410" font-family="Helvetica,sans-Serif" font-size="10.00">ore::data::parseCurrency</text>
<text text-anchor="middle" x="472" y="-399" font-family="Helvetica,sans-Serif" font-size="10.00">WithMinors</text>
</a>
</g>
</g>
<!-- Node3&#45;&gt;Node5 -->
<g id="edge4" class="edge"><title>Node3&#45;&gt;Node5</title>
<path fill="none" stroke="#63b8ff" d="M373.158,-407C381.993,-407 390.993,-407 399.779,-407"/>
<polygon fill="#63b8ff" stroke="#63b8ff" points="399.972,-410.5 409.972,-407 399.971,-403.5 399.972,-410.5"/>
</g>
<!-- Node6 -->
<g id="node6" class="node"><title>Node6</title>
<g id="a_node6"><a xlink:href="classore_1_1data_1_1_premium_data.html#a123c02cf2a8c6d52ae16203dbde172fa" target="_top" xlink:title=" ">
<polygon fill="white" stroke="#666666" points="532,-374 412,-374 412,-344 532,-344 532,-374"/>
<text text-anchor="start" x="420" y="-362" font-family="Helvetica,sans-Serif" font-size="10.00">ore::data::PremiumData</text>
<text text-anchor="middle" x="472" y="-351" font-family="Helvetica,sans-Serif" font-size="10.00">::premiumData</text>
</a>
</g>
</g>
<!-- Node3&#45;&gt;Node6 -->
<g id="edge5" class="edge"><title>Node3&#45;&gt;Node6</title>
<path fill="none" stroke="#63b8ff" d="M337.241,-397.417C348.772,-394.485 361.418,-391.189 373,-388 385.609,-384.528 399.082,-380.651 411.876,-376.89"/>
<polygon fill="#63b8ff" stroke="#63b8ff" points="412.903,-380.236 421.501,-374.046 410.919,-373.523 412.903,-380.236"/>
</g>
<!-- Node18 -->
<g id="node18" class="node"><title>Node18</title>
<g id="a_node18"><a xlink:href="classore_1_1data_1_1_engine_builder.html#a9d7654707f3b935dcf6a7b19df70c085" target="_top" xlink:title=" ">
<polygon fill="white" stroke="#666666" points="532.5,-324 411.5,-324 411.5,-294 532.5,-294 532.5,-324"/>
<text text-anchor="start" x="419.5" y="-312" font-family="Helvetica,sans-Serif" font-size="10.00">ore::data::EngineBuilder</text>
<text text-anchor="middle" x="472" y="-301" font-family="Helvetica,sans-Serif" font-size="10.00">::engineParameter</text>
</a>
</g>
</g>
<!-- Node17&#45;&gt;Node18 -->
<g id="edge17" class="edge"><title>Node17&#45;&gt;Node18</title>
<path fill="none" stroke="#63b8ff" d="M372.156,-309C381.772,-309 391.602,-309 401.154,-309"/>
<polygon fill="#63b8ff" stroke="#63b8ff" points="401.385,-312.5 411.385,-309 401.385,-305.5 401.385,-312.5"/>
</g>
<!-- Node19&#45;&gt;Node19 -->
<g id="edge19" class="edge"><title>Node19&#45;&gt;Node19</title>
<path fill="none" stroke="#63b8ff" d="M271.606,-361.583C259.009,-370.234 267.641,-379.5 297.5,-379.5 317.562,-379.5 328.041,-375.317 328.937,-369.948"/>
<polygon fill="#63b8ff" stroke="#63b8ff" points="331.835,-367.985 323.394,-361.583 326,-371.852 331.835,-367.985"/>
</g>
<!-- Node20&#45;&gt;Node3 -->
<g id="edge21" class="edge"><title>Node20&#45;&gt;Node3</title>
<path fill="none" stroke="#63b8ff" d="M152.406,-361.515C170.769,-369.272 197.795,-380.186 222,-388 229.502,-390.422 237.509,-392.738 245.387,-394.868"/>
<polygon fill="#63b8ff" stroke="#63b8ff" points="244.688,-398.303 255.249,-397.459 246.467,-391.533 244.688,-398.303"/>
</g>
<!-- Node20&#45;&gt;Node7 -->
<g id="edge22" class="edge"><title>Node20&#45;&gt;Node7</title>
<path fill="none" stroke="#63b8ff" d="M138.108,-361.529C150.433,-377.525 174.537,-411.253 186,-444 226.581,-559.927 143.355,-623.656 222,-718 226.726,-723.669 232.799,-728.013 239.437,-731.339"/>
<polygon fill="#63b8ff" stroke="#63b8ff" points="238.189,-734.611 248.763,-735.271 240.909,-728.161 238.189,-734.611"/>
</g>
<!-- Node20&#45;&gt;Node8 -->
<g id="edge23" class="edge"><title>Node20&#45;&gt;Node8</title>
<path fill="none" stroke="#63b8ff" d="M168.431,-342.436C174.623,-339.936 180.728,-336.832 186,-333 207.57,-317.32 199.819,-299.803 222,-285 225.067,-282.953 228.34,-281.127 231.738,-279.497"/>
<polygon fill="#63b8ff" stroke="#63b8ff" points="233.102,-282.72 240.971,-275.626 230.396,-276.265 233.102,-282.72"/>
</g>
<!-- Node20&#45;&gt;Node9 -->
<g id="edge24" class="edge"><title>Node20&#45;&gt;Node9</title>
<path fill="none" stroke="#63b8ff" d="M171.569,-342.464C176.837,-339.997 181.835,-336.896 186,-333 216.259,-304.692 190.461,-273.874 222,-247 226.918,-242.809 232.652,-239.56 238.714,-237.047"/>
<polygon fill="#63b8ff" stroke="#63b8ff" points="240.139,-240.257 248.44,-233.674 237.846,-233.644 240.139,-240.257"/>
</g>
<!-- Node20&#45;&gt;Node10 -->
<g id="edge26" class="edge"><title>Node20&#45;&gt;Node10</title>
<path fill="none" stroke="#63b8ff" d="M137.074,-361.623C148.104,-378.029 170.637,-412.683 186,-444 205.521,-483.792 188.657,-507.799 222,-537 232.848,-546.501 247.863,-551.183 261.573,-553.424"/>
<polygon fill="#63b8ff" stroke="#63b8ff" points="261.352,-556.924 271.712,-554.702 262.227,-549.979 261.352,-556.924"/>
</g>
<!-- Node20&#45;&gt;Node11 -->
<g id="edge27" class="edge"><title>Node20&#45;&gt;Node11</title>
<path fill="none" stroke="#63b8ff" d="M136.262,-361.535C155.828,-393.889 218.698,-497.607 222,-500 235.786,-509.99 254.401,-514.49 269.574,-516.493"/>
<polygon fill="#63b8ff" stroke="#63b8ff" points="269.591,-520.013 279.896,-517.553 270.306,-513.05 269.591,-520.013"/>
</g>
<!-- Node20&#45;&gt;Node12 -->
<g id="edge28" class="edge"><title>Node20&#45;&gt;Node12</title>
<path fill="none" stroke="#63b8ff" d="M135.642,-361.807C147.629,-383.657 179.661,-436.501 222,-463 224.622,-464.641 227.383,-466.133 230.235,-467.489"/>
<polygon fill="#63b8ff" stroke="#63b8ff" points="229.02,-470.774 239.597,-471.372 231.702,-464.308 229.02,-470.774"/>
</g>
<!-- Node20&#45;&gt;Node16 -->
<g id="edge29" class="edge"><title>Node20&#45;&gt;Node16</title>
<path fill="none" stroke="#63b8ff" d="M139.392,-361.544C154.71,-377.398 187.742,-409.088 222,-426 230.767,-430.328 240.639,-433.654 250.259,-436.197"/>
<polygon fill="#63b8ff" stroke="#63b8ff" points="249.594,-439.637 260.136,-438.573 251.232,-432.831 249.594,-439.637"/>
</g>
<!-- Node20&#45;&gt;Node17 -->
<g id="edge30" class="edge"><title>Node20&#45;&gt;Node17</title>
<path fill="none" stroke="#63b8ff" d="M167.341,-342.457C185.399,-337.779 207.732,-331.994 228.72,-326.557"/>
<polygon fill="#63b8ff" stroke="#63b8ff" points="229.766,-329.902 238.569,-324.006 228.011,-323.126 229.766,-329.902"/>
</g>
<!-- Node20&#45;&gt;Node19 -->
<g id="edge33" class="edge"><title>Node20&#45;&gt;Node19</title>
<path fill="none" stroke="#63b8ff" d="M184.855,-352C202.007,-352 221.019,-352 238.421,-352"/>
<polygon fill="#63b8ff" stroke="#63b8ff" points="238.455,-355.5 248.455,-352 238.455,-348.5 238.455,-355.5"/>
</g>
<!-- Node21 -->
<g id="node21" class="node"><title>Node21</title>
<g id="a_node21"><a xlink:href="classore_1_1data_1_1_barrier_data.html#afe87a180d00c685893090166d7a8dd46" target="_top" xlink:title=" ">
<polygon fill="white" stroke="#666666" points="352.5,-116 242.5,-116 242.5,-86 352.5,-86 352.5,-116"/>
<text text-anchor="start" x="250.5" y="-104" font-family="Helvetica,sans-Serif" font-size="10.00">ore::data::BarrierData</text>
<text text-anchor="middle" x="297.5" y="-93" font-family="Helvetica,sans-Serif" font-size="10.00">::initialized</text>
</a>
</g>
</g>
<!-- Node20&#45;&gt;Node21 -->
<g id="edge25" class="edge"><title>Node20&#45;&gt;Node21</title>
<path fill="none" stroke="#63b8ff" d="M174.056,-342.418C178.565,-339.96 182.696,-336.874 186,-333 246.881,-261.618 160.472,-195.826 222,-125 225.228,-121.285 229.033,-118.14 233.189,-115.479"/>
<polygon fill="#63b8ff" stroke="#63b8ff" points="234.986,-118.487 242.136,-110.669 231.671,-112.321 234.986,-118.487"/>
</g>
<!-- Node22 -->
<g id="node22" class="node"><title>Node22</title>
<g id="a_node22"><a xlink:href="classore_1_1data_1_1_commodity_option_strip.html#a1770bdce9d719e860c2352b05c279ec7" target="_top" xlink:title=" ">
<polygon fill="white" stroke="#666666" points="328.5,-67.5 266.5,-67.5 266.5,-48.5 328.5,-48.5 328.5,-67.5"/>
<text text-anchor="middle" x="297.5" y="-55.5" font-family="Helvetica,sans-Serif" font-size="10.00">settlement</text>
</a>
</g>
</g>
<!-- Node20&#45;&gt;Node22 -->
<g id="edge31" class="edge"><title>Node20&#45;&gt;Node22</title>
<path fill="none" stroke="#63b8ff" d="M174.445,-342.369C178.828,-339.919 182.822,-336.848 186,-333 259.166,-244.41 145.344,-162.588 222,-77 230.713,-67.2713 243.649,-62.2038 256.307,-59.6556"/>
<polygon fill="#63b8ff" stroke="#63b8ff" points="256.963,-63.0958 266.312,-58.1111 255.895,-56.1777 256.963,-63.0958"/>
</g>
<!-- Node23 -->
<g id="node23" class="node"><title>Node23</title>
<g id="a_node23"><a xlink:href="classore_1_1data_1_1_commodity_option_strip.html#ae143fa0dd11e454b02ab99b15a5f41e0" target="_top" xlink:title=" ">
<polygon fill="white" stroke="#666666" points="316.5,-201.5 278.5,-201.5 278.5,-182.5 316.5,-182.5 316.5,-201.5"/>
<text text-anchor="middle" x="297.5" y="-189.5" font-family="Helvetica,sans-Serif" font-size="10.00">style</text>
</a>
</g>
</g>
<!-- Node20&#45;&gt;Node23 -->
<g id="edge32" class="edge"><title>Node20&#45;&gt;Node23</title>
<path fill="none" stroke="#63b8ff" d="M172.813,-342.466C177.706,-340.003 182.27,-336.902 186,-333 225.358,-291.825 180.775,-249.306 222,-210 234.285,-198.287 252.825,-193.778 268.336,-192.201"/>
<polygon fill="#63b8ff" stroke="#63b8ff" points="268.731,-195.683 278.476,-191.526 268.266,-188.698 268.731,-195.683"/>
</g>
<!-- Node24 -->
<g id="node24" class="node"><title>Node24</title>
<g id="a_node24"><a xlink:href="classore_1_1data_1_1_trade_strike.html#ab0070e2cd9d998541431e9aba2e5583b" target="_top" xlink:title=" ">
<polygon fill="white" stroke="#666666" points="352.5,-164 242.5,-164 242.5,-134 352.5,-134 352.5,-164"/>
<text text-anchor="start" x="250.5" y="-152" font-family="Helvetica,sans-Serif" font-size="10.00">ore::data::TradeStrike</text>
<text text-anchor="middle" x="297.5" y="-141" font-family="Helvetica,sans-Serif" font-size="10.00">::value</text>
</a>
</g>
</g>
<!-- Node20&#45;&gt;Node24 -->
<g id="edge34" class="edge"><title>Node20&#45;&gt;Node24</title>
<path fill="none" stroke="#63b8ff" d="M173.598,-342.4C178.243,-339.947 182.532,-336.867 186,-333 234.669,-278.74 172.84,-226.815 222,-173 225.319,-169.366 229.191,-166.28 233.392,-163.66"/>
<polygon fill="#63b8ff" stroke="#63b8ff" points="235.191,-166.668 242.405,-158.909 231.927,-160.476 235.191,-166.668"/>
</g>
<!-- Node28 -->
<g id="node28" class="node"><title>Node28</title>
<g id="a_node28"><a xlink:href="classore_1_1data_1_1_required_fixings.html#ac8bb3912a3ce86b15842e79d0b421204" target="_top" xlink:title=" ">
<polygon fill="white" stroke="#666666" points="363,-30 232,-30 232,-0 363,-0 363,-30"/>
<text text-anchor="start" x="240" y="-18" font-family="Helvetica,sans-Serif" font-size="10.00">ore::data::RequiredFixings</text>
<text text-anchor="middle" x="297.5" y="-7" font-family="Helvetica,sans-Serif" font-size="10.00">::clear</text>
</a>
</g>
</g>
<!-- Node27&#45;&gt;Node28 -->
<g id="edge39" class="edge"><title>Node27&#45;&gt;Node28</title>
<path fill="none" stroke="#63b8ff" d="M139.184,-107.46C154.446,-91.2213 187.728,-58.116 222,-39 225.215,-37.2066 228.585,-35.524 232.039,-33.9488"/>
<polygon fill="#63b8ff" stroke="#63b8ff" points="233.482,-37.139 241.336,-30.0278 230.761,-30.6892 233.482,-37.139"/>
</g>
</g>
</svg>
        <g id="navigator" transform="translate(0 0)" fill="#404254">
                <rect fill="#f2f5e9" fill-opacity="0.5" stroke="#606060" stroke-width=".5" x="0" y="0" width="60" height="60"/>
                <use id="zoomplus" xlink:href="#zoomPlus" x="17" y="9" onmousedown="handleZoom(evt,'in')"/>
                <use id="zoomminus" xlink:href="#zoomMin" x="42" y="9" onmousedown="handleZoom(evt,'out')"/>
                <use id="reset" xlink:href="#resetDef" x="30" y="36" onmousedown="handleReset()"/>
                <g id="arrowUp" xlink:href="#dirArrow" transform="translate(30 24)" onmousedown="handlePan(0,-1)">
                  <use xlink:href="#rim" fill="#404040">
                        <set attributeName="fill" to="#808080" begin="arrowUp.mouseover" end="arrowUp.mouseout"/>
                  </use>
                  <path fill="none" stroke="white" stroke-width="1.5" d="M0,-3.0v7 M-2.5,-0.5L0,-3.0L2.5,-0.5"/>
                </g>
                <g id="arrowRight" xlink:href="#dirArrow" transform="rotate(90) translate(36 -43)" onmousedown="handlePan(1,0)">
                  <use xlink:href="#rim" fill="#404040">
                        <set attributeName="fill" to="#808080" begin="arrowRight.mouseover" end="arrowRight.mouseout"/>
                  </use>
                  <path fill="none" stroke="white" stroke-width="1.5" d="M0,-3.0v7 M-2.5,-0.5L0,-3.0L2.5,-0.5"/>
                </g>
                <g id="arrowDown" xlink:href="#dirArrow" transform="rotate(180) translate(-30 -48)" onmousedown="handlePan(0,1)">
                  <use xlink:href="#rim" fill="#404040">
                        <set attributeName="fill" to="#808080" begin="arrowDown.mouseover" end="arrowDown.mouseout"/>
                  </use>
                  <path fill="none" stroke="white" stroke-width="1.5" d="M0,-3.0v7 M-2.5,-0.5L0,-3.0L2.5,-0.5"/>
                </g>
                <g id="arrowLeft" xlink:href="#dirArrow" transform="rotate(270) translate(-36 17)" onmousedown="handlePan(-1,0)">
                  <use xlink:href="#rim" fill="#404040">
                        <set attributeName="fill" to="#808080" begin="arrowLeft.mouseover" end="arrowLeft.mouseout"/>
                  </use>
                  <path fill="none" stroke="white" stroke-width="1.5" d="M0,-3.0v7 M-2.5,-0.5L0,-3.0L2.5,-0.5"/>
                </g>
        </g>
        <svg viewBox="0 0 15 15" width="100%" height="30px" preserveAspectRatio="xMaxYMin meet">
         <g id="arrow_out" transform="scale(0.3 0.3)">
          <a xlink:href="classore_1_1data_1_1_commodity_option_strip_a7158c90da58d23d6c8d55040bb585107_cgraph_org.svg" target="_base">
           <rect id="button" ry="5" rx="5" y="6" x="6" height="38" width="38"
                fill="#f2f5e9" fill-opacity="0.5" stroke="#606060" stroke-width="1.0"/>
           <path id="arrow"
             d="M 11.500037,31.436501 C 11.940474,20.09759 22.043105,11.32322 32.158766,21.979434 L 37.068811,17.246167 C 37.068811,17.246167 37.088388,32 37.088388,32 L 22.160133,31.978069 C 22.160133,31.978069 26.997745,27.140456 26.997745,27.140456 C 18.528582,18.264221 13.291696,25.230495 11.500037,31.436501 z"
             style="fill:#404040;"/>
          </a>
         </g>
        </svg>
</svg>
