<?xml version="1.0" encoding="UTF-8" standalone="no"?>
<!DOCTYPE svg PUBLIC "-//W3C//DTD SVG 1.1//EN"
 "http://www.w3.org/Graphics/SVG/1.1/DTD/svg11.dtd">
<!-- Generated by graphviz version 2.38.0 (20140413.2041)
 -->
<!-- Title: toXML Pages: 1 -->
<svg width="1067pt" height="1107pt"
 viewBox="0.00 0.00 1067.00 1107.35" xmlns="http://www.w3.org/2000/svg" xmlns:xlink="http://www.w3.org/1999/xlink">
<g id="graph0" class="graph" transform="scale(1 1) rotate(0) translate(4 1103.35)">
<title>toXML</title>
<!-- Node1 -->
<g id="node1" class="node"><title>Node1</title>
<g id="a_node1"><a xlink:title=" ">
<polygon fill="#999999" stroke="#666666" points="44,-750.5 0,-750.5 0,-731.5 44,-731.5 44,-750.5"/>
<text text-anchor="middle" x="22" y="-738.5" font-family="Helvetica,sans-Serif" font-size="10.00">toXML</text>
</a>
</g>
</g>
<!-- Node2 -->
<g id="node2" class="node"><title>Node2</title>
<g id="a_node2"><a xlink:href="classore_1_1data_1_1_x_m_l_utils.html#aced1fd4bd35df3642d8022301744b138" target="_top" xlink:title=" ">
<polygon fill="white" stroke="#666666" points="739,-633 640,-633 640,-603 739,-603 739,-633"/>
<text text-anchor="start" x="648" y="-621" font-family="Helvetica,sans-Serif" font-size="10.00">ore::data::XMLUtils</text>
<text text-anchor="middle" x="689.5" y="-610" font-family="Helvetica,sans-Serif" font-size="10.00">::addChild</text>
</a>
</g>
</g>
<!-- Node1&#45;&gt;Node2 -->
<g id="edge1" class="edge"><title>Node1&#45;&gt;Node2</title>
<path fill="none" stroke="#63b8ff" d="M40.3716,-750.658C98.7226,-781.691 291.353,-872.599 422,-798 449.338,-782.39 433.78,-757.109 458,-737 511.112,-692.903 543.607,-717.438 604,-684 626.05,-671.792 648.413,-654.035 664.59,-640.014"/>
<polygon fill="#63b8ff" stroke="#63b8ff" points="667.272,-642.314 672.451,-633.071 662.639,-637.067 667.272,-642.314"/>
</g>
<!-- Node3 -->
<g id="node3" class="node"><title>Node3</title>
<g id="a_node3"><a xlink:href="classore_1_1data_1_1_x_m_l_document.html#a8717c517803f0df2e693e3cadefeafd7" target="_top" xlink:title="util functions that wrap rapidxml">
<polygon fill="white" stroke="#666666" points="899,-514 775,-514 775,-484 899,-484 899,-514"/>
<text text-anchor="start" x="783" y="-502" font-family="Helvetica,sans-Serif" font-size="10.00">ore::data::XMLDocument</text>
<text text-anchor="middle" x="837" y="-491" font-family="Helvetica,sans-Serif" font-size="10.00">::allocNode</text>
</a>
</g>
</g>
<!-- Node1&#45;&gt;Node3 -->
<g id="edge4" class="edge"><title>Node1&#45;&gt;Node3</title>
<path fill="none" stroke="#63b8ff" d="M23.4548,-750.643C25.3007,-778.522 34.5231,-859.964 80,-903 166.421,-984.782 499.381,-1069.67 604,-1013 790.764,-911.83 827.598,-612.983 834.489,-524.167"/>
<polygon fill="#63b8ff" stroke="#63b8ff" points="837.981,-524.404 835.204,-514.18 830.999,-523.904 837.981,-524.404"/>
</g>
<!-- Node5 -->
<g id="node5" class="node"><title>Node5</title>
<g id="a_node5"><a xlink:href="classore_1_1data_1_1_x_m_l_utils.html#ae646b9cdf949a88f35c36c18bf90b370" target="_top" xlink:title=" ">
<polygon fill="white" stroke="#666666" points="580.5,-452 481.5,-452 481.5,-422 580.5,-422 580.5,-452"/>
<text text-anchor="start" x="489.5" y="-440" font-family="Helvetica,sans-Serif" font-size="10.00">ore::data::XMLUtils</text>
<text text-anchor="middle" x="531" y="-429" font-family="Helvetica,sans-Serif" font-size="10.00">::appendNode</text>
</a>
</g>
</g>
<!-- Node1&#45;&gt;Node5 -->
<g id="edge5" class="edge"><title>Node1&#45;&gt;Node5</title>
<path fill="none" stroke="#63b8ff" d="M24.0083,-731.372C28.462,-690.549 47.5994,-532.202 80,-496 178.331,-386.132 373.35,-405.36 471.165,-423.657"/>
<polygon fill="#63b8ff" stroke="#63b8ff" points="470.694,-427.131 481.176,-425.59 472.021,-420.258 470.694,-427.131"/>
</g>
<!-- Node6 -->
<g id="node6" class="node"><title>Node6</title>
<g id="a_node6"><a xlink:href="classore_1_1data_1_1_x_m_l_utils.html#ac1ace6a9e07990c65081057f2ecdf164" target="_top" xlink:title=" ">
<polygon fill="white" stroke="#666666" points="385.5,-1088 286.5,-1088 286.5,-1058 385.5,-1058 385.5,-1088"/>
<text text-anchor="start" x="294.5" y="-1076" font-family="Helvetica,sans-Serif" font-size="10.00">ore::data::XMLUtils</text>
<text text-anchor="middle" x="336" y="-1065" font-family="Helvetica,sans-Serif" font-size="10.00">::setNodeName</text>
</a>
</g>
</g>
<!-- Node1&#45;&gt;Node6 -->
<g id="edge6" class="edge"><title>Node1&#45;&gt;Node6</title>
<path fill="none" stroke="#63b8ff" d="M23.3399,-750.811C25.1948,-798.201 35.7042,-1002.81 80,-1044 132.176,-1092.51 218.657,-1091.74 276.233,-1084.32"/>
<polygon fill="#63b8ff" stroke="#63b8ff" points="276.856,-1087.76 286.278,-1082.92 275.891,-1080.83 276.856,-1087.76"/>
</g>
<!-- Node7 -->
<g id="node7" class="node"><title>Node7</title>
<g id="a_node7"><a xlink:href="namespaceore_1_1data.html#a86651dfeb5c18ee891f7a4734d8cf455" target="_top" xlink:title=" ">
<polygon fill="white" stroke="#666666" points="580,-765.5 482,-765.5 482,-746.5 580,-746.5 580,-765.5"/>
<text text-anchor="middle" x="531" y="-753.5" font-family="Helvetica,sans-Serif" font-size="10.00">ore::data::to_string</text>
</a>
</g>
</g>
<!-- Node1&#45;&gt;Node7 -->
<g id="edge8" class="edge"><title>Node1&#45;&gt;Node7</title>
<path fill="none" stroke="#63b8ff" d="M25.692,-750.634C31.7009,-770.051 48.2416,-813.522 80,-831 146.583,-867.644 352.184,-861.03 422,-831 443.371,-821.808 439.389,-806.96 458,-793 470.005,-783.995 484.522,-776.065 497.367,-769.88"/>
<polygon fill="#63b8ff" stroke="#63b8ff" points="499.199,-772.888 506.794,-765.501 496.25,-766.539 499.199,-772.888"/>
</g>
<!-- Node8 -->
<g id="node8" class="node"><title>Node8</title>
<g id="a_node8"><a xlink:href="classore_1_1data_1_1_trade_strike.html#a45e1903bb07ce3054a2b4a2e22b4b092" target="_top" xlink:title=" ">
<polygon fill="white" stroke="#666666" points="391,-913 281,-913 281,-883 391,-883 391,-913"/>
<text text-anchor="start" x="289" y="-901" font-family="Helvetica,sans-Serif" font-size="10.00">ore::data::TradeStrike</text>
<text text-anchor="middle" x="336" y="-890" font-family="Helvetica,sans-Serif" font-size="10.00">::toXML</text>
</a>
</g>
</g>
<!-- Node1&#45;&gt;Node8 -->
<g id="edge10" class="edge"><title>Node1&#45;&gt;Node8</title>
<path fill="none" stroke="#63b8ff" d="M24.0965,-750.706C27.4235,-775.173 39.7799,-839.518 80,-869 134.889,-909.235 215.058,-911.781 270.799,-907.289"/>
<polygon fill="#63b8ff" stroke="#63b8ff" points="271.267,-910.761 280.911,-906.376 270.637,-903.79 271.267,-910.761"/>
</g>
<!-- Node12 -->
<g id="node12" class="node"><title>Node12</title>
<g id="a_node12"><a xlink:href="classore_1_1data_1_1_option_data.html#a7efefb9270d6c4933e4c96de0771f17a" target="_top" xlink:title=" ">
<polygon fill="white" stroke="#666666" points="202,-661 92,-661 92,-631 202,-631 202,-661"/>
<text text-anchor="start" x="100" y="-649" font-family="Helvetica,sans-Serif" font-size="10.00">ore::data::OptionData</text>
<text text-anchor="middle" x="147" y="-638" font-family="Helvetica,sans-Serif" font-size="10.00">::toXML</text>
</a>
</g>
</g>
<!-- Node1&#45;&gt;Node12 -->
<g id="edge19" class="edge"><title>Node1&#45;&gt;Node12</title>
<path fill="none" stroke="#63b8ff" d="M35.6999,-731.191C55.0848,-716.219 92.5228,-687.303 118.367,-667.343"/>
<polygon fill="#63b8ff" stroke="#63b8ff" points="120.538,-670.088 126.313,-661.206 116.259,-664.548 120.538,-670.088"/>
</g>
<!-- Node17 -->
<g id="node17" class="node"><title>Node17</title>
<g id="a_node17"><a xlink:href="classore_1_1data_1_1_schedule_data.html#a7efefb9270d6c4933e4c96de0771f17a" target="_top" xlink:title=" ">
<polygon fill="white" stroke="#666666" points="397,-475 275,-475 275,-445 397,-445 397,-475"/>
<text text-anchor="start" x="283" y="-463" font-family="Helvetica,sans-Serif" font-size="10.00">ore::data::ScheduleData</text>
<text text-anchor="middle" x="336" y="-452" font-family="Helvetica,sans-Serif" font-size="10.00">::toXML</text>
</a>
</g>
</g>
<!-- Node1&#45;&gt;Node17 -->
<g id="edge36" class="edge"><title>Node1&#45;&gt;Node17</title>
<path fill="none" stroke="#63b8ff" d="M26.058,-731.281C33.0979,-709.934 52.0217,-657.99 80,-622 140.421,-544.277 161.94,-524.013 250,-480 254.831,-477.585 259.963,-475.456 265.22,-473.578"/>
<polygon fill="#63b8ff" stroke="#63b8ff" points="266.354,-476.89 274.777,-470.464 264.185,-470.234 266.354,-476.89"/>
</g>
<!-- Node18 -->
<g id="node18" class="node"><title>Node18</title>
<g id="a_node18"><a xlink:href="classore_1_1data_1_1_trade.html#a7efefb9270d6c4933e4c96de0771f17a" target="_top" xlink:title=" ">
<polygon fill="white" stroke="#666666" points="206,-302.5 88,-302.5 88,-283.5 206,-283.5 206,-302.5"/>
<text text-anchor="middle" x="147" y="-290.5" font-family="Helvetica,sans-Serif" font-size="10.00">ore::data::Trade::toXML</text>
</a>
</g>
</g>
<!-- Node1&#45;&gt;Node18 -->
<g id="edge37" class="edge"><title>Node1&#45;&gt;Node18</title>
<path fill="none" stroke="#63b8ff" d="M23.3275,-731.256C24.979,-690.1 34.2355,-526.93 80,-403 92.9032,-368.058 117.117,-331.822 132.355,-310.896"/>
<polygon fill="#63b8ff" stroke="#63b8ff" points="135.315,-312.782 138.465,-302.666 129.694,-308.61 135.315,-312.782"/>
</g>
<!-- Node27 -->
<g id="node27" class="node"><title>Node27</title>
<g id="a_node27"><a xlink:href="classore_1_1data_1_1_trade.html#aec03b18fc42a659e6dca829a82659809" target="_top" xlink:title=" ">
<polygon fill="white" stroke="#666666" points="214,-265.5 80,-265.5 80,-246.5 214,-246.5 214,-265.5"/>
<text text-anchor="middle" x="147" y="-253.5" font-family="Helvetica,sans-Serif" font-size="10.00">ore::data::Trade::tradeType</text>
</a>
</g>
</g>
<!-- Node1&#45;&gt;Node27 -->
<g id="edge57" class="edge"><title>Node1&#45;&gt;Node27</title>
<path fill="none" stroke="#63b8ff" d="M22.7749,-731.346C21.5663,-670.979 18.0257,-345.667 80,-274 80.738,-273.147 81.5122,-272.332 82.3187,-271.554"/>
<polygon fill="#63b8ff" stroke="#63b8ff" points="84.4717,-274.314 90.3532,-265.501 80.2599,-268.723 84.4717,-274.314"/>
</g>
<!-- Node2&#45;&gt;Node3 -->
<g id="edge2" class="edge"><title>Node2&#45;&gt;Node3</title>
<path fill="none" stroke="#63b8ff" d="M708.928,-602.929C734.262,-582.209 780.014,-544.789 809.154,-520.956"/>
<polygon fill="#63b8ff" stroke="#63b8ff" points="811.737,-523.365 817.262,-514.325 807.306,-517.947 811.737,-523.365"/>
</g>
<!-- Node4 -->
<g id="node4" class="node"><title>Node4</title>
<g id="a_node4"><a xlink:href="classore_1_1data_1_1_x_m_l_document.html#ae3474059e483990f3afea260096e5c90" target="_top" xlink:title=" ">
<polygon fill="white" stroke="#666666" points="1059,-514 935,-514 935,-484 1059,-484 1059,-514"/>
<text text-anchor="start" x="943" y="-502" font-family="Helvetica,sans-Serif" font-size="10.00">ore::data::XMLDocument</text>
<text text-anchor="middle" x="997" y="-491" font-family="Helvetica,sans-Serif" font-size="10.00">::allocString</text>
</a>
</g>
</g>
<!-- Node3&#45;&gt;Node4 -->
<g id="edge3" class="edge"><title>Node3&#45;&gt;Node4</title>
<path fill="none" stroke="#63b8ff" d="M899.087,-499C907.513,-499 916.226,-499 924.815,-499"/>
<polygon fill="#63b8ff" stroke="#63b8ff" points="924.815,-502.5 934.815,-499 924.815,-495.5 924.815,-502.5"/>
</g>
<!-- Node6&#45;&gt;Node4 -->
<g id="edge7" class="edge"><title>Node6&#45;&gt;Node4</title>
<path fill="none" stroke="#63b8ff" d="M385.655,-1084.32C466.716,-1100.23 631.136,-1119.69 739,-1046 926.963,-917.596 980.919,-613.974 993.005,-524.336"/>
<polygon fill="#63b8ff" stroke="#63b8ff" points="996.496,-524.63 994.306,-514.264 989.554,-523.734 996.496,-524.63"/>
</g>
<!-- Node7&#45;&gt;Node7 -->
<g id="edge9" class="edge"><title>Node7&#45;&gt;Node7</title>
<path fill="none" stroke="#63b8ff" d="M506.648,-765.583C494.801,-774.234 502.918,-783.5 531,-783.5 549.429,-783.5 559.26,-779.509 560.492,-774.321"/>
<polygon fill="#63b8ff" stroke="#63b8ff" points="563.439,-772.428 555.352,-765.583 557.406,-775.977 563.439,-772.428"/>
</g>
<!-- Node8&#45;&gt;Node2 -->
<g id="edge11" class="edge"><title>Node8&#45;&gt;Node2</title>
<path fill="none" stroke="#63b8ff" d="M391.118,-892.572C459.641,-884.685 572.578,-867.978 604,-841 664.197,-789.316 681.621,-690.048 686.577,-643.399"/>
<polygon fill="#63b8ff" stroke="#63b8ff" points="690.08,-643.533 687.544,-633.246 683.112,-642.869 690.08,-643.533"/>
</g>
<!-- Node8&#45;&gt;Node3 -->
<g id="edge12" class="edge"><title>Node8&#45;&gt;Node3</title>
<path fill="none" stroke="#63b8ff" d="M391.254,-907.337C448.515,-914.261 539.264,-916.637 604,-877 741.415,-792.862 809.195,-593.709 829.365,-523.788"/>
<polygon fill="#63b8ff" stroke="#63b8ff" points="832.758,-524.649 832.097,-514.075 826.02,-522.753 832.758,-524.649"/>
</g>
<!-- Node8&#45;&gt;Node5 -->
<g id="edge13" class="edge"><title>Node8&#45;&gt;Node5</title>
<path fill="none" stroke="#63b8ff" d="M354.344,-882.903C373.986,-864.783 405.407,-832.496 422,-798 458.31,-722.514 434.027,-693.261 458,-613 474.611,-557.386 502.365,-495.149 518.122,-461.617"/>
<polygon fill="#63b8ff" stroke="#63b8ff" points="521.479,-462.706 522.602,-452.171 515.154,-459.707 521.479,-462.706"/>
</g>
<!-- Node8&#45;&gt;Node7 -->
<g id="edge16" class="edge"><title>Node8&#45;&gt;Node7</title>
<path fill="none" stroke="#63b8ff" d="M391.303,-886.686C402.367,-882.499 413.275,-876.786 422,-869 449.886,-844.114 432.002,-819.852 458,-793 467.488,-783.2 480.13,-775.513 492.172,-769.745"/>
<polygon fill="#63b8ff" stroke="#63b8ff" points="493.921,-772.797 501.628,-765.527 491.07,-766.404 493.921,-772.797"/>
</g>
<!-- Node9 -->
<g id="node9" class="node"><title>Node9</title>
<g id="a_node9"><a xlink:href="classore_1_1data_1_1_trade_strike.html#af95e1cce2d25b241417ca60f5be7ea65" target="_top" xlink:title=" ">
<polygon fill="white" stroke="#666666" points="586,-956 476,-956 476,-926 586,-926 586,-956"/>
<text text-anchor="start" x="484" y="-944" font-family="Helvetica,sans-Serif" font-size="10.00">ore::data::TradeStrike</text>
<text text-anchor="middle" x="531" y="-933" font-family="Helvetica,sans-Serif" font-size="10.00">::strikePrice</text>
</a>
</g>
</g>
<!-- Node8&#45;&gt;Node9 -->
<g id="edge14" class="edge"><title>Node8&#45;&gt;Node9</title>
<path fill="none" stroke="#63b8ff" d="M391.018,-910.035C414.345,-915.232 441.809,-921.351 466.137,-926.772"/>
<polygon fill="#63b8ff" stroke="#63b8ff" points="465.473,-930.209 475.995,-928.968 466.996,-923.377 465.473,-930.209"/>
</g>
<!-- Node10 -->
<g id="node10" class="node"><title>Node10</title>
<g id="a_node10"><a xlink:href="classore_1_1data_1_1_trade_strike.html#a9ec7a95258a5adb834ea92717dff7433" target="_top" xlink:title=" ">
<polygon fill="white" stroke="#666666" points="586,-1004 476,-1004 476,-974 586,-974 586,-1004"/>
<text text-anchor="start" x="484" y="-992" font-family="Helvetica,sans-Serif" font-size="10.00">ore::data::TradeStrike</text>
<text text-anchor="middle" x="531" y="-981" font-family="Helvetica,sans-Serif" font-size="10.00">::strikeYield</text>
</a>
</g>
</g>
<!-- Node8&#45;&gt;Node10 -->
<g id="edge15" class="edge"><title>Node8&#45;&gt;Node10</title>
<path fill="none" stroke="#63b8ff" d="M361.348,-913.233C385.312,-927.801 423.261,-949.748 458,-965 462.298,-966.887 466.794,-968.714 471.35,-970.46"/>
<polygon fill="#63b8ff" stroke="#63b8ff" points="470.148,-973.747 480.741,-973.926 472.571,-967.18 470.148,-973.747"/>
</g>
<!-- Node11 -->
<g id="node11" class="node"><title>Node11</title>
<g id="a_node11"><a xlink:href="classore_1_1data_1_1_trade_monetary.html#affd40009e63f171e02eeb7ffcb3cfad2" target="_top" xlink:title=" ">
<polygon fill="white" stroke="#666666" points="593.5,-832 468.5,-832 468.5,-802 593.5,-802 593.5,-832"/>
<text text-anchor="start" x="476.5" y="-820" font-family="Helvetica,sans-Serif" font-size="10.00">ore::data::TradeMonetary</text>
<text text-anchor="middle" x="531" y="-809" font-family="Helvetica,sans-Serif" font-size="10.00">::toXMLNode</text>
</a>
</g>
</g>
<!-- Node8&#45;&gt;Node11 -->
<g id="edge17" class="edge"><title>Node8&#45;&gt;Node11</title>
<path fill="none" stroke="#63b8ff" d="M387.69,-882.931C399.182,-878.906 411.182,-874.208 422,-869 439.108,-860.764 441.121,-854.695 458,-846 464.671,-842.563 471.847,-839.249 478.992,-836.168"/>
<polygon fill="#63b8ff" stroke="#63b8ff" points="480.793,-839.208 488.666,-832.119 478.09,-832.751 480.793,-839.208"/>
</g>
<!-- Node11&#45;&gt;Node2 -->
<g id="edge18" class="edge"><title>Node11&#45;&gt;Node2</title>
<path fill="none" stroke="#63b8ff" d="M589.396,-801.918C594.665,-799.144 599.648,-795.867 604,-792 649.582,-751.498 673.014,-680.914 682.785,-643.298"/>
<polygon fill="#63b8ff" stroke="#63b8ff" points="686.283,-643.73 685.287,-633.183 679.488,-642.049 686.283,-643.73"/>
</g>
<!-- Node12&#45;&gt;Node2 -->
<g id="edge20" class="edge"><title>Node12&#45;&gt;Node2</title>
<path fill="none" stroke="#63b8ff" d="M202.289,-656.957C288.708,-672.369 462.273,-694.987 604,-661 622.558,-656.55 641.637,-647.311 656.96,-638.534"/>
<polygon fill="#63b8ff" stroke="#63b8ff" points="659.169,-641.293 665.977,-633.175 655.593,-635.275 659.169,-641.293"/>
</g>
<!-- Node12&#45;&gt;Node3 -->
<g id="edge25" class="edge"><title>Node12&#45;&gt;Node3</title>
<path fill="none" stroke="#63b8ff" d="M160.667,-630.728C178.342,-610.62 212.485,-575.954 250,-560 341.049,-521.278 629.143,-506.245 764.47,-501.21"/>
<polygon fill="#63b8ff" stroke="#63b8ff" points="764.863,-504.698 774.73,-500.837 764.609,-497.703 764.863,-504.698"/>
</g>
<!-- Node12&#45;&gt;Node5 -->
<g id="edge26" class="edge"><title>Node12&#45;&gt;Node5</title>
<path fill="none" stroke="#63b8ff" d="M156.556,-630.964C171.873,-605.465 206.484,-553.894 250,-527 317.029,-485.574 347.397,-509.364 422,-484 444.897,-476.215 469.689,-465.592 489.737,-456.415"/>
<polygon fill="#63b8ff" stroke="#63b8ff" points="491.277,-459.559 498.88,-452.18 488.335,-453.207 491.277,-459.559"/>
</g>
<!-- Node12&#45;&gt;Node6 -->
<g id="edge28" class="edge"><title>Node12&#45;&gt;Node6</title>
<path fill="none" stroke="#63b8ff" d="M152.707,-661.3C165.932,-703.634 205.382,-825.567 250,-922 271.544,-968.563 302.106,-1020.1 320.11,-1049.32"/>
<polygon fill="#63b8ff" stroke="#63b8ff" points="317.242,-1051.34 325.487,-1057.99 323.19,-1047.65 317.242,-1051.34"/>
</g>
<!-- Node13 -->
<g id="node13" class="node"><title>Node13</title>
<g id="a_node13"><a xlink:href="classore_1_1data_1_1_x_m_l_utils.html#a29cd524fd4d9381e10c71939131fa4d4" target="_top" xlink:title=" ">
<polygon fill="white" stroke="#666666" points="580.5,-652 481.5,-652 481.5,-622 580.5,-622 580.5,-652"/>
<text text-anchor="start" x="489.5" y="-640" font-family="Helvetica,sans-Serif" font-size="10.00">ore::data::XMLUtils</text>
<text text-anchor="middle" x="531" y="-629" font-family="Helvetica,sans-Serif" font-size="10.00">::addChildren</text>
</a>
</g>
</g>
<!-- Node12&#45;&gt;Node13 -->
<g id="edge21" class="edge"><title>Node12&#45;&gt;Node13</title>
<path fill="none" stroke="#63b8ff" d="M202.326,-644.72C273.396,-643.046 397.485,-640.122 470.86,-638.393"/>
<polygon fill="#63b8ff" stroke="#63b8ff" points="471.391,-641.882 481.306,-638.147 471.226,-634.884 471.391,-641.882"/>
</g>
<!-- Node14 -->
<g id="node14" class="node"><title>Node14</title>
<g id="a_node14"><a xlink:href="classore_1_1data_1_1_x_m_l_utils.html#a60e5b2e453d4610d7ce2ff455d564404" target="_top" xlink:title=" ">
<polygon fill="white" stroke="#666666" points="422,-771 250,-771 250,-741 422,-741 422,-771"/>
<text text-anchor="start" x="258" y="-759" font-family="Helvetica,sans-Serif" font-size="10.00">ore::data::XMLUtils</text>
<text text-anchor="middle" x="336" y="-748" font-family="Helvetica,sans-Serif" font-size="10.00">::addChildrenWithOptionalAttributes</text>
</a>
</g>
</g>
<!-- Node12&#45;&gt;Node14 -->
<g id="edge23" class="edge"><title>Node12&#45;&gt;Node14</title>
<path fill="none" stroke="#63b8ff" d="M161.733,-661.004C180.071,-680.168 214.399,-713.109 250,-732 253.482,-733.847 257.121,-735.566 260.851,-737.162"/>
<polygon fill="#63b8ff" stroke="#63b8ff" points="259.686,-740.465 270.273,-740.884 262.258,-733.955 259.686,-740.465"/>
</g>
<!-- Node15 -->
<g id="node15" class="node"><title>Node15</title>
<g id="a_node15"><a xlink:href="classore_1_1data_1_1_schedule_data.html#a314b19ebe3b2ce78e9df49fee95c21dd" target="_top" xlink:title="Check if has any dates/rules/derived schedules.">
<polygon fill="white" stroke="#666666" points="397,-723 275,-723 275,-693 397,-693 397,-723"/>
<text text-anchor="start" x="283" y="-711" font-family="Helvetica,sans-Serif" font-size="10.00">ore::data::ScheduleData</text>
<text text-anchor="middle" x="336" y="-700" font-family="Helvetica,sans-Serif" font-size="10.00">::hasData</text>
</a>
</g>
</g>
<!-- Node12&#45;&gt;Node15 -->
<g id="edge27" class="edge"><title>Node12&#45;&gt;Node15</title>
<path fill="none" stroke="#63b8ff" d="M193.267,-661.008C219.374,-669.664 252.39,-680.61 279.986,-689.76"/>
<polygon fill="#63b8ff" stroke="#63b8ff" points="278.908,-693.09 289.501,-692.915 281.111,-686.446 278.908,-693.09"/>
</g>
<!-- Node16 -->
<g id="node16" class="node"><title>Node16</title>
<g id="a_node16"><a xlink:href="classore_1_1data_1_1_premium_data.html#a7efefb9270d6c4933e4c96de0771f17a" target="_top" xlink:title=" ">
<polygon fill="white" stroke="#666666" points="396,-599 276,-599 276,-569 396,-569 396,-599"/>
<text text-anchor="start" x="284" y="-587" font-family="Helvetica,sans-Serif" font-size="10.00">ore::data::PremiumData</text>
<text text-anchor="middle" x="336" y="-576" font-family="Helvetica,sans-Serif" font-size="10.00">::toXML</text>
</a>
</g>
</g>
<!-- Node12&#45;&gt;Node16 -->
<g id="edge29" class="edge"><title>Node12&#45;&gt;Node16</title>
<path fill="none" stroke="#63b8ff" d="M193.267,-630.992C219.374,-622.336 252.39,-611.39 279.986,-602.24"/>
<polygon fill="#63b8ff" stroke="#63b8ff" points="281.111,-605.554 289.501,-599.085 278.908,-598.91 281.111,-605.554"/>
</g>
<!-- Node12&#45;&gt;Node17 -->
<g id="edge33" class="edge"><title>Node12&#45;&gt;Node17</title>
<path fill="none" stroke="#63b8ff" d="M157.131,-630.735C179.636,-593.294 236.89,-499.211 250,-489 254.728,-485.317 259.953,-482.087 265.418,-479.256"/>
<polygon fill="#63b8ff" stroke="#63b8ff" points="267.229,-482.272 274.798,-474.859 264.258,-475.934 267.229,-482.272"/>
</g>
<!-- Node13&#45;&gt;Node2 -->
<g id="edge22" class="edge"><title>Node13&#45;&gt;Node2</title>
<path fill="none" stroke="#63b8ff" d="M580.66,-631.092C596.117,-629.216 613.38,-627.12 629.485,-625.165"/>
<polygon fill="#63b8ff" stroke="#63b8ff" points="630.365,-628.584 639.87,-623.904 629.521,-621.635 630.365,-628.584"/>
</g>
<!-- Node14&#45;&gt;Node14 -->
<g id="edge24" class="edge"><title>Node14&#45;&gt;Node14</title>
<path fill="none" stroke="#63b8ff" d="M302.953,-771.275C295.609,-780.406 306.625,-789 336,-789 353.441,-789 364.41,-785.97 368.907,-781.598"/>
<polygon fill="#63b8ff" stroke="#63b8ff" points="372.411,-781.322 369.047,-771.275 365.412,-781.227 372.411,-781.322"/>
</g>
<!-- Node16&#45;&gt;Node2 -->
<g id="edge30" class="edge"><title>Node16&#45;&gt;Node2</title>
<path fill="none" stroke="#63b8ff" d="M396.23,-589.729C461.231,-596.017 564.935,-606.048 629.747,-612.317"/>
<polygon fill="#63b8ff" stroke="#63b8ff" points="629.512,-615.81 639.803,-613.29 630.186,-608.843 629.512,-615.81"/>
</g>
<!-- Node16&#45;&gt;Node3 -->
<g id="edge31" class="edge"><title>Node16&#45;&gt;Node3</title>
<path fill="none" stroke="#63b8ff" d="M396.24,-580.047C475.234,-573.936 619.042,-559.87 739,-532 755.061,-528.269 772.209,-522.913 787.55,-517.598"/>
<polygon fill="#63b8ff" stroke="#63b8ff" points="789.084,-520.768 797.341,-514.129 786.747,-514.17 789.084,-520.768"/>
</g>
<!-- Node16&#45;&gt;Node7 -->
<g id="edge32" class="edge"><title>Node16&#45;&gt;Node7</title>
<path fill="none" stroke="#63b8ff" d="M354.127,-599.264C390.322,-631.52 474.313,-706.372 511.599,-739.601"/>
<polygon fill="#63b8ff" stroke="#63b8ff" points="509.422,-742.349 519.216,-746.39 514.08,-737.124 509.422,-742.349"/>
</g>
<!-- Node17&#45;&gt;Node3 -->
<g id="edge34" class="edge"><title>Node17&#45;&gt;Node3</title>
<path fill="none" stroke="#63b8ff" d="M397.191,-464.704C489.573,-471.925 665.955,-485.71 764.637,-493.423"/>
<polygon fill="#63b8ff" stroke="#63b8ff" points="764.572,-496.928 774.815,-494.218 765.118,-489.949 764.572,-496.928"/>
</g>
<!-- Node17&#45;&gt;Node5 -->
<g id="edge35" class="edge"><title>Node17&#45;&gt;Node5</title>
<path fill="none" stroke="#63b8ff" d="M397.008,-452.849C420.624,-450.034 447.66,-446.813 471.16,-444.012"/>
<polygon fill="#63b8ff" stroke="#63b8ff" points="471.823,-447.458 481.339,-442.799 470.995,-440.507 471.823,-447.458"/>
</g>
<!-- Node18&#45;&gt;Node2 -->
<g id="edge41" class="edge"><title>Node18&#45;&gt;Node2</title>
<path fill="none" stroke="#63b8ff" d="M206.208,-284.532C264.123,-278.88 353.937,-277.794 422,-312 443.967,-323.04 438.035,-339.653 458,-354 514.834,-394.842 554.341,-363.684 604,-413 655.259,-463.905 676.775,-550.34 684.609,-592.858"/>
<polygon fill="#63b8ff" stroke="#63b8ff" points="681.195,-593.657 686.354,-602.911 688.092,-592.46 681.195,-593.657"/>
</g>
<!-- Node18&#45;&gt;Node3 -->
<g id="edge42" class="edge"><title>Node18&#45;&gt;Node3</title>
<path fill="none" stroke="#63b8ff" d="M195.499,-283.402C202.03,-280.941 208.405,-277.859 214,-274 235.952,-258.859 229.096,-242.557 250,-226 329.1,-163.351 359.233,-155.66 458,-135 581.033,-109.264 647.86,-80.438 739,-167 827.72,-251.263 836.659,-411.725 836.614,-473.699"/>
<polygon fill="#63b8ff" stroke="#63b8ff" points="833.114,-473.728 836.524,-483.759 840.113,-473.791 833.114,-473.728"/>
</g>
<!-- Node18&#45;&gt;Node5 -->
<g id="edge43" class="edge"><title>Node18&#45;&gt;Node5</title>
<path fill="none" stroke="#63b8ff" d="M159.788,-302.678C178.028,-317.187 214.683,-344.521 250,-360 322.169,-391.632 346.163,-381.604 422,-403 439.238,-407.863 457.887,-413.572 474.759,-418.908"/>
<polygon fill="#63b8ff" stroke="#63b8ff" points="473.873,-422.299 484.463,-421.998 475.996,-415.629 473.873,-422.299"/>
</g>
<!-- Node19 -->
<g id="node19" class="node"><title>Node19</title>
<g id="a_node19"><a xlink:href="classore_1_1data_1_1_x_m_l_utils.html#a226c81c31def2ba2c853ca803d1fafc5" target="_top" xlink:title=" ">
<polygon fill="white" stroke="#666666" points="385.5,-30 286.5,-30 286.5,-0 385.5,-0 385.5,-30"/>
<text text-anchor="start" x="294.5" y="-18" font-family="Helvetica,sans-Serif" font-size="10.00">ore::data::XMLUtils</text>
<text text-anchor="middle" x="336" y="-7" font-family="Helvetica,sans-Serif" font-size="10.00">::addAttribute</text>
</a>
</g>
</g>
<!-- Node18&#45;&gt;Node19 -->
<g id="edge38" class="edge"><title>Node18&#45;&gt;Node19</title>
<path fill="none" stroke="#63b8ff" d="M202.008,-283.425C206.504,-280.943 210.614,-277.85 214,-274 283.772,-194.649 180.025,-118.172 250,-39 257.003,-31.0767 266.401,-25.6806 276.395,-22.0251"/>
<polygon fill="#63b8ff" stroke="#63b8ff" points="277.58,-25.3225 286.102,-19.028 275.515,-18.6341 277.58,-25.3225"/>
</g>
<!-- Node21 -->
<g id="node21" class="node"><title>Node21</title>
<g id="a_node21"><a xlink:href="classore_1_1data_1_1_trade_actions.html#a644718bb2fb240de962dc3c9a1fdf0dc" target="_top" xlink:title="Returns true of this set of actions is empty.">
<polygon fill="white" stroke="#666666" points="395,-78 277,-78 277,-48 395,-48 395,-78"/>
<text text-anchor="start" x="285" y="-66" font-family="Helvetica,sans-Serif" font-size="10.00">ore::data::TradeActions</text>
<text text-anchor="middle" x="336" y="-55" font-family="Helvetica,sans-Serif" font-size="10.00">::empty</text>
</a>
</g>
</g>
<!-- Node18&#45;&gt;Node21 -->
<g id="edge44" class="edge"><title>Node18&#45;&gt;Node21</title>
<path fill="none" stroke="#63b8ff" d="M201.52,-283.441C206.173,-280.961 210.451,-277.864 214,-274 269.775,-213.27 195.714,-154.065 250,-92 254.94,-86.3519 261.027,-81.8026 267.654,-78.1384"/>
<polygon fill="#63b8ff" stroke="#63b8ff" points="269.467,-81.1508 276.97,-73.6705 266.44,-74.8391 269.467,-81.1508"/>
</g>
<!-- Node22 -->
<g id="node22" class="node"><title>Node22</title>
<g id="a_node22"><a xlink:href="classore_1_1data_1_1_envelope.html#a7efefb9270d6c4933e4c96de0771f17a" target="_top" xlink:title=" ">
<polygon fill="white" stroke="#666666" points="386,-265 286,-265 286,-235 386,-235 386,-265"/>
<text text-anchor="start" x="294" y="-253" font-family="Helvetica,sans-Serif" font-size="10.00">ore::data::Envelope</text>
<text text-anchor="middle" x="336" y="-242" font-family="Helvetica,sans-Serif" font-size="10.00">::toXML</text>
</a>
</g>
</g>
<!-- Node18&#45;&gt;Node22 -->
<g id="edge45" class="edge"><title>Node18&#45;&gt;Node22</title>
<path fill="none" stroke="#63b8ff" d="M189.501,-283.457C214.897,-277.617 247.797,-270.052 275.886,-263.593"/>
<polygon fill="#63b8ff" stroke="#63b8ff" points="277.033,-266.921 285.994,-261.269 275.464,-260.099 277.033,-266.921"/>
</g>
<!-- Node26 -->
<g id="node26" class="node"><title>Node26</title>
<g id="a_node26"><a xlink:href="classore_1_1data_1_1_trade_actions.html#a7efefb9270d6c4933e4c96de0771f17a" target="_top" xlink:title=" ">
<polygon fill="white" stroke="#666666" points="395,-351 277,-351 277,-321 395,-321 395,-351"/>
<text text-anchor="start" x="285" y="-339" font-family="Helvetica,sans-Serif" font-size="10.00">ore::data::TradeActions</text>
<text text-anchor="middle" x="336" y="-328" font-family="Helvetica,sans-Serif" font-size="10.00">::toXML</text>
</a>
</g>
</g>
<!-- Node18&#45;&gt;Node26 -->
<g id="edge54" class="edge"><title>Node18&#45;&gt;Node26</title>
<path fill="none" stroke="#63b8ff" d="M189.501,-302.543C212.305,-307.787 241.159,-314.422 267.147,-320.398"/>
<polygon fill="#63b8ff" stroke="#63b8ff" points="266.419,-323.821 276.949,-322.651 267.988,-316.999 266.419,-323.821"/>
</g>
<!-- Node19&#45;&gt;Node4 -->
<g id="edge39" class="edge"><title>Node19&#45;&gt;Node4</title>
<path fill="none" stroke="#63b8ff" d="M385.85,-12.3034C440.244,-10.7061 530.219,-12.2853 604,-34 669.639,-53.3184 688.72,-61.5928 739,-108 862.776,-222.243 954.65,-407.94 985.096,-474.387"/>
<polygon fill="#63b8ff" stroke="#63b8ff" points="981.979,-475.988 989.295,-483.651 988.354,-473.098 981.979,-475.988"/>
</g>
<!-- Node20 -->
<g id="node20" class="node"><title>Node20</title>
<g id="a_node20"><a xlink:href="classore_1_1data_1_1_x_m_l_document.html#a46d969cdb00bff64f3f4c0d2975a08d3" target="_top" xlink:title=" ">
<polygon fill="white" stroke="#666666" points="604,-62.5 458,-62.5 458,-43.5 604,-43.5 604,-62.5"/>
<text text-anchor="middle" x="531" y="-50.5" font-family="Helvetica,sans-Serif" font-size="10.00">ore::data::XMLDocument::doc</text>
</a>
</g>
</g>
<!-- Node19&#45;&gt;Node20 -->
<g id="edge40" class="edge"><title>Node19&#45;&gt;Node20</title>
<path fill="none" stroke="#63b8ff" d="M385.702,-24.589C411.859,-29.739 444.284,-36.1232 471.767,-41.5344"/>
<polygon fill="#63b8ff" stroke="#63b8ff" points="471.16,-44.9821 481.648,-43.4799 472.513,-38.114 471.16,-44.9821"/>
</g>
<!-- Node22&#45;&gt;Node2 -->
<g id="edge46" class="edge"><title>Node22&#45;&gt;Node2</title>
<path fill="none" stroke="#63b8ff" d="M386.121,-265.095C398.024,-269.206 410.6,-273.937 422,-279 438.728,-286.429 441.997,-290.116 458,-299 522.878,-335.019 556.041,-323.374 604,-380 658.306,-444.119 678.658,-545.61 685.46,-592.591"/>
<polygon fill="#63b8ff" stroke="#63b8ff" points="682.031,-593.354 686.845,-602.792 688.968,-592.412 682.031,-593.354"/>
</g>
<!-- Node22&#45;&gt;Node3 -->
<g id="edge47" class="edge"><title>Node22&#45;&gt;Node3</title>
<path fill="none" stroke="#63b8ff" d="M349.97,-234.756C370.283,-212.197 412.059,-170.88 458,-155 519.328,-133.801 543.011,-132.844 604,-155 677.542,-181.717 692.542,-205.04 739,-268 788.134,-334.585 817.811,-429.781 829.814,-474.289"/>
<polygon fill="#63b8ff" stroke="#63b8ff" points="826.433,-475.195 832.361,-483.976 833.203,-473.414 826.433,-475.195"/>
</g>
<!-- Node22&#45;&gt;Node5 -->
<g id="edge48" class="edge"><title>Node22&#45;&gt;Node5</title>
<path fill="none" stroke="#63b8ff" d="M362.827,-265.107C380.815,-276.47 404.606,-293.255 422,-312 442.637,-334.24 438.725,-346.57 458,-370 471.638,-386.577 489.245,-403.031 503.634,-415.485"/>
<polygon fill="#63b8ff" stroke="#63b8ff" points="501.367,-418.151 511.251,-421.967 505.904,-412.821 501.367,-418.151"/>
</g>
<!-- Node23 -->
<g id="node23" class="node"><title>Node23</title>
<g id="a_node23"><a xlink:href="classore_1_1data_1_1_netting_set_details.html#ab87072d461177abcb48735d002150bfb" target="_top" xlink:title=" ">
<polygon fill="white" stroke="#666666" points="599.5,-242 462.5,-242 462.5,-212 599.5,-212 599.5,-242"/>
<text text-anchor="start" x="470.5" y="-230" font-family="Helvetica,sans-Serif" font-size="10.00">ore::data::NettingSetDetails</text>
<text text-anchor="middle" x="531" y="-219" font-family="Helvetica,sans-Serif" font-size="10.00">::emptyOptionalFields</text>
</a>
</g>
</g>
<!-- Node22&#45;&gt;Node23 -->
<g id="edge49" class="edge"><title>Node22&#45;&gt;Node23</title>
<path fill="none" stroke="#63b8ff" d="M386.201,-244.137C406.249,-241.748 429.915,-238.927 452.198,-236.272"/>
<polygon fill="#63b8ff" stroke="#63b8ff" points="452.806,-239.724 462.321,-235.065 451.977,-232.773 452.806,-239.724"/>
</g>
<!-- Node24 -->
<g id="node24" class="node"><title>Node24</title>
<g id="a_node24"><a xlink:href="classore_1_1data_1_1_netting_set_details.html#a9bf8e40febad0782c5855488041ecfd7" target="_top" xlink:title=" ">
<polygon fill="white" stroke="#666666" points="599.5,-194 462.5,-194 462.5,-164 599.5,-164 599.5,-194"/>
<text text-anchor="start" x="470.5" y="-182" font-family="Helvetica,sans-Serif" font-size="10.00">ore::data::NettingSetDetails</text>
<text text-anchor="middle" x="531" y="-171" font-family="Helvetica,sans-Serif" font-size="10.00">::nettingSetId</text>
</a>
</g>
</g>
<!-- Node22&#45;&gt;Node24 -->
<g id="edge50" class="edge"><title>Node22&#45;&gt;Node24</title>
<path fill="none" stroke="#63b8ff" d="M374.43,-234.918C398.247,-225.457 429.805,-213.168 458,-203 463.19,-201.128 468.609,-199.227 474.043,-197.355"/>
<polygon fill="#63b8ff" stroke="#63b8ff" points="475.457,-200.571 483.793,-194.031 473.199,-193.945 475.457,-200.571"/>
</g>
<!-- Node25 -->
<g id="node25" class="node"><title>Node25</title>
<g id="a_node25"><a xlink:href="classore_1_1data_1_1_netting_set_details.html#a7efefb9270d6c4933e4c96de0771f17a" target="_top" xlink:title=" ">
<polygon fill="white" stroke="#666666" points="599.5,-290 462.5,-290 462.5,-260 599.5,-260 599.5,-290"/>
<text text-anchor="start" x="470.5" y="-278" font-family="Helvetica,sans-Serif" font-size="10.00">ore::data::NettingSetDetails</text>
<text text-anchor="middle" x="531" y="-267" font-family="Helvetica,sans-Serif" font-size="10.00">::toXML</text>
</a>
</g>
</g>
<!-- Node22&#45;&gt;Node25 -->
<g id="edge51" class="edge"><title>Node22&#45;&gt;Node25</title>
<path fill="none" stroke="#63b8ff" d="M386.201,-256.373C406.249,-258.97 429.915,-262.036 452.198,-264.922"/>
<polygon fill="#63b8ff" stroke="#63b8ff" points="451.954,-268.42 462.321,-266.233 452.854,-261.478 451.954,-268.42"/>
</g>
<!-- Node25&#45;&gt;Node2 -->
<g id="edge52" class="edge"><title>Node25&#45;&gt;Node2</title>
<path fill="none" stroke="#63b8ff" d="M553.462,-290.029C569.511,-302.306 590.865,-321.013 604,-342 655.89,-424.909 677.775,-541.829 685.244,-592.705"/>
<polygon fill="#63b8ff" stroke="#63b8ff" points="681.805,-593.382 686.662,-602.798 688.737,-592.408 681.805,-593.382"/>
</g>
<!-- Node25&#45;&gt;Node3 -->
<g id="edge53" class="edge"><title>Node25&#45;&gt;Node3</title>
<path fill="none" stroke="#63b8ff" d="M599.894,-269.126C643.447,-268.822 699.101,-275.262 739,-304 796.842,-345.661 822.096,-431.713 831.391,-474.182"/>
<polygon fill="#63b8ff" stroke="#63b8ff" points="827.966,-474.904 833.42,-483.987 834.821,-473.485 827.966,-474.904"/>
</g>
<!-- Node26&#45;&gt;Node3 -->
<g id="edge55" class="edge"><title>Node26&#45;&gt;Node3</title>
<path fill="none" stroke="#63b8ff" d="M395.211,-349.106C404.208,-351.302 413.373,-353.638 422,-356 557.216,-393.029 712.395,-450.891 788.654,-480.373"/>
<polygon fill="#63b8ff" stroke="#63b8ff" points="787.409,-483.644 797.998,-483.997 789.94,-477.118 787.409,-483.644"/>
</g>
<!-- Node26&#45;&gt;Node5 -->
<g id="edge56" class="edge"><title>Node26&#45;&gt;Node5</title>
<path fill="none" stroke="#63b8ff" d="M395.278,-351.12C404.639,-354.865 413.9,-359.443 422,-365 442.553,-379.1 437.836,-393.349 458,-408 462.819,-411.501 468.121,-414.658 473.594,-417.485"/>
<polygon fill="#63b8ff" stroke="#63b8ff" points="472.381,-420.784 482.914,-421.934 475.397,-414.467 472.381,-420.784"/>
</g>
</g>
</svg>
