<?xml version="1.0" encoding="UTF-8" standalone="no"?>
<!DOCTYPE svg PUBLIC "-//W3C//DTD SVG 1.1//EN"
 "http://www.w3.org/Graphics/SVG/1.1/DTD/svg11.dtd">
<!-- Generated by graphviz version 2.38.0 (20140413.2041)
 -->
<!-- Title: fromXML Pages: 1 -->
<!--zoomable 543 -->
<svg id="main" version="1.1" xmlns="http://www.w3.org/2000/svg" xmlns:xlink="http://www.w3.org/1999/xlink" xml:space="preserve" onload="init(evt)">
<style type="text/css"><![CDATA[
.edge:hover path { stroke: red; }
.edge:hover polygon { stroke: red; fill: red; }
]]></style>
<script type="text/javascript"><![CDATA[
var edges = document.getElementsByTagName('g');
if (edges && edges.length) {
  for (var i=0;i<edges.length;i++) {
    if (edges[i].id.substr(0,4)=='edge') {
      edges[i].setAttribute('class','edge');
    }
  }
}
]]></script>
        <defs>
                <circle id="rim" cx="0" cy="0" r="7"/>
                <circle id="rim2" cx="0" cy="0" r="3.5"/>
                <g id="zoomPlus">
                        <use xlink:href="#rim" fill="#404040">
                                <set attributeName="fill" to="#808080" begin="zoomplus.mouseover" end="zoomplus.mouseout"/>
                        </use>
                        <path d="M-4,0h8M0,-4v8" fill="none" stroke="white" stroke-width="1.5" pointer-events="none"/>
                </g>
                <g id="zoomMin">
                        <use xlink:href="#rim" fill="#404040">
                                <set attributeName="fill" to="#808080" begin="zoomminus.mouseover" end="zoomminus.mouseout"/>
                        </use>
                        <path d="M-4,0h8" fill="none" stroke="white" stroke-width="1.5" pointer-events="none"/>
                </g>
                <g id="dirArrow">
                        <path fill="none" stroke="white" stroke-width="1.5" d="M0,-3.0v7 M-2.5,-0.5L0,-3.0L2.5,-0.5"/>
                </g>
               <g id="resetDef">
                       <use xlink:href="#rim2" fill="#404040">
                               <set attributeName="fill" to="#808080" begin="reset.mouseover" end="reset.mouseout"/>
                       </use>
               </g>
        </defs>

<script type="text/javascript">
var viewWidth = 896;
var viewHeight = 543;
var sectionId = 'dynsection-5';
</script>
<script xlink:href="svgpan.js"/>
<svg id="graph" class="graph">
<g id="viewport">
<title>fromXML</title>
<!-- Node1 -->
<g id="node1" class="node"><title>Node1</title>
<g id="a_node1"><a xlink:title=" ">
<polygon fill="#999999" stroke="#666666" points="54,-206.5 0,-206.5 0,-187.5 54,-187.5 54,-206.5"/>
<text text-anchor="middle" x="27" y="-194.5" font-family="Helvetica,sans-Serif" font-size="10.00">fromXML</text>
</a>
</g>
</g>
<!-- Node2 -->
<g id="node2" class="node"><title>Node2</title>
<g id="a_node2"><a xlink:href="classore_1_1data_1_1_schedule_data.html#a7741ae0fc924943de5bfe02928262eb7" target="_top" xlink:title=" ">
<polygon fill="white" stroke="#666666" points="396,-449 274,-449 274,-419 396,-419 396,-449"/>
<text text-anchor="start" x="282" y="-437" font-family="Helvetica,sans-Serif" font-size="10.00">ore::data::ScheduleData</text>
<text text-anchor="middle" x="335" y="-426" font-family="Helvetica,sans-Serif" font-size="10.00">::fromXML</text>
</a>
</g>
</g>
<!-- Node1&#45;&gt;Node2 -->
<g id="edge1" class="edge"><title>Node1&#45;&gt;Node2</title>
<path fill="none" stroke="#63b8ff" d="M33.6639,-206.567C43.6733,-222.987 65.7371,-257.073 90,-281 157.357,-347.424 180.201,-359.246 263,-405 269.33,-408.498 276.169,-411.817 283.018,-414.875"/>
<polygon fill="#63b8ff" stroke="#63b8ff" points="281.745,-418.138 292.315,-418.877 284.513,-411.708 281.745,-418.138"/>
</g>
<!-- Node5 -->
<g id="node5" class="node"><title>Node5</title>
<g id="a_node5"><a xlink:href="classore_1_1data_1_1_trade.html#a7741ae0fc924943de5bfe02928262eb7" target="_top" xlink:title=" ">
<polygon fill="white" stroke="#666666" points="222.5,-271.5 94.5,-271.5 94.5,-252.5 222.5,-252.5 222.5,-271.5"/>
<text text-anchor="middle" x="158.5" y="-259.5" font-family="Helvetica,sans-Serif" font-size="10.00">ore::data::Trade::fromXML</text>
</a>
</g>
</g>
<!-- Node1&#45;&gt;Node5 -->
<g id="edge4" class="edge"><title>Node1&#45;&gt;Node5</title>
<path fill="none" stroke="#63b8ff" d="M47.1082,-206.591C68.8187,-217.488 104.458,-235.377 129.351,-247.871"/>
<polygon fill="#63b8ff" stroke="#63b8ff" points="127.806,-251.012 138.313,-252.37 130.946,-244.756 127.806,-251.012"/>
</g>
<!-- Node10 -->
<g id="node10" class="node"><title>Node10</title>
<g id="a_node10"><a xlink:href="classore_1_1data_1_1_x_m_l_utils.html#a5a1307174ddefdb3aad6e3bd8cc63b27" target="_top" xlink:title=" ">
<polygon fill="white" stroke="#666666" points="734,-339 635,-339 635,-309 734,-309 734,-339"/>
<text text-anchor="start" x="643" y="-327" font-family="Helvetica,sans-Serif" font-size="10.00">ore::data::XMLUtils</text>
<text text-anchor="middle" x="684.5" y="-316" font-family="Helvetica,sans-Serif" font-size="10.00">::getChildValue</text>
</a>
</g>
</g>
<!-- Node1&#45;&gt;Node10 -->
<g id="edge29" class="edge"><title>Node1&#45;&gt;Node10</title>
<path fill="none" stroke="#63b8ff" d="M29.9401,-206.759C35.4107,-232.207 53.0261,-301.68 90,-346 148.676,-416.334 175.158,-432.048 263,-458 330.558,-477.96 516.771,-489.056 580,-458 626.387,-435.216 657.876,-380.526 673.051,-348.499"/>
<polygon fill="#63b8ff" stroke="#63b8ff" points="676.26,-349.898 677.235,-339.348 669.894,-346.987 676.26,-349.898"/>
</g>
<!-- Node12 -->
<g id="node12" class="node"><title>Node12</title>
<g id="a_node12"><a xlink:href="classore_1_1data_1_1_x_m_l_utils.html#a5f2b91a4af900e85c356cfe807e64501" target="_top" xlink:title=" ">
<polygon fill="white" stroke="#666666" points="561,-47 462,-47 462,-17 561,-17 561,-47"/>
<text text-anchor="start" x="470" y="-35" font-family="Helvetica,sans-Serif" font-size="10.00">ore::data::XMLUtils</text>
<text text-anchor="middle" x="511.5" y="-24" font-family="Helvetica,sans-Serif" font-size="10.00">::getChildNode</text>
</a>
</g>
</g>
<!-- Node1&#45;&gt;Node12 -->
<g id="edge28" class="edge"><title>Node1&#45;&gt;Node12</title>
<path fill="none" stroke="#63b8ff" d="M54.0678,-191.503C138.523,-173.658 399.609,-118.197 407,-113 431.511,-95.7666 419.599,-74.7132 443,-56 446.081,-53.5362 449.435,-51.3144 452.946,-49.3127"/>
<polygon fill="#63b8ff" stroke="#63b8ff" points="454.584,-52.4068 461.935,-44.7772 451.43,-46.1573 454.584,-52.4068"/>
</g>
<!-- Node17 -->
<g id="node17" class="node"><title>Node17</title>
<g id="a_node17"><a xlink:href="classore_1_1data_1_1_underlying_builder.html#a7741ae0fc924943de5bfe02928262eb7" target="_top" xlink:title=" ">
<polygon fill="white" stroke="#666666" points="403.5,-535 266.5,-535 266.5,-505 403.5,-505 403.5,-535"/>
<text text-anchor="start" x="274.5" y="-523" font-family="Helvetica,sans-Serif" font-size="10.00">ore::data::UnderlyingBuilder</text>
<text text-anchor="middle" x="335" y="-512" font-family="Helvetica,sans-Serif" font-size="10.00">::fromXML</text>
</a>
</g>
</g>
<!-- Node1&#45;&gt;Node17 -->
<g id="edge25" class="edge"><title>Node1&#45;&gt;Node17</title>
<path fill="none" stroke="#63b8ff" d="M28.5624,-206.528C31.4834,-252.547 46.4954,-451.226 90,-491 134.071,-531.292 202.898,-536.192 256.232,-532.357"/>
<polygon fill="#63b8ff" stroke="#63b8ff" points="256.666,-535.833 266.34,-531.514 256.084,-528.857 256.666,-535.833"/>
</g>
<!-- Node18 -->
<g id="node18" class="node"><title>Node18</title>
<g id="a_node18"><a xlink:href="classore_1_1data_1_1_best_entry_option.html#a207c6701b5856e4a18bf06f71ce54287" target="_top" xlink:title=" ">
<polygon fill="white" stroke="#666666" points="188.5,-104.5 128.5,-104.5 128.5,-85.5 188.5,-85.5 188.5,-104.5"/>
<text text-anchor="middle" x="158.5" y="-92.5" font-family="Helvetica,sans-Serif" font-size="10.00">initIndices</text>
</a>
</g>
</g>
<!-- Node1&#45;&gt;Node18 -->
<g id="edge30" class="edge"><title>Node1&#45;&gt;Node18</title>
<path fill="none" stroke="#63b8ff" d="M33.1986,-187.415C42.5058,-171.11 63.5393,-137.907 90,-119 98.5005,-112.926 108.69,-108.254 118.545,-104.718"/>
<polygon fill="#63b8ff" stroke="#63b8ff" points="119.8,-107.99 128.213,-101.551 117.621,-101.338 119.8,-107.99"/>
</g>
<!-- Node20 -->
<g id="node20" class="node"><title>Node20</title>
<g id="a_node20"><a xlink:href="classore_1_1data_1_1_trade.html#aec03b18fc42a659e6dca829a82659809" target="_top" xlink:title=" ">
<polygon fill="white" stroke="#666666" points="225.5,-67.5 91.5,-67.5 91.5,-48.5 225.5,-48.5 225.5,-67.5"/>
<text text-anchor="middle" x="158.5" y="-55.5" font-family="Helvetica,sans-Serif" font-size="10.00">ore::data::Trade::tradeType</text>
</a>
</g>
</g>
<!-- Node1&#45;&gt;Node20 -->
<g id="edge32" class="edge"><title>Node1&#45;&gt;Node20</title>
<path fill="none" stroke="#63b8ff" d="M30.077,-187.458C35.5739,-164.544 52.7097,-106.09 90,-76 91.5928,-74.7148 93.2689,-73.5208 95.0104,-72.4115"/>
<polygon fill="#63b8ff" stroke="#63b8ff" points="96.9896,-75.3234 104.18,-67.5422 93.7066,-69.1411 96.9896,-75.3234"/>
</g>
<!-- Node21 -->
<g id="node21" class="node"><title>Node21</title>
<g id="a_node21"><a xlink:href="classore_1_1data_1_1_underlying_builder.html#a20670fbaebd0848944779cc297dac929" target="_top" xlink:title=" ">
<polygon fill="white" stroke="#666666" points="227,-30 90,-30 90,-0 227,-0 227,-30"/>
<text text-anchor="start" x="98" y="-18" font-family="Helvetica,sans-Serif" font-size="10.00">ore::data::UnderlyingBuilder</text>
<text text-anchor="middle" x="158.5" y="-7" font-family="Helvetica,sans-Serif" font-size="10.00">::underlying</text>
</a>
</g>
</g>
<!-- Node1&#45;&gt;Node21 -->
<g id="edge33" class="edge"><title>Node1&#45;&gt;Node21</title>
<path fill="none" stroke="#63b8ff" d="M29.0279,-187.31C32.4293,-160.04 45.7541,-81.8382 90,-39 91.117,-37.9186 92.2858,-36.8856 93.4987,-35.8988"/>
<polygon fill="#63b8ff" stroke="#63b8ff" points="95.7891,-38.5724 102.063,-30.0345 91.8341,-32.7967 95.7891,-38.5724"/>
</g>
<!-- Node3 -->
<g id="node3" class="node"><title>Node3</title>
<g id="a_node3"><a xlink:href="classore_1_1data_1_1_x_m_l_utils.html#a42678b2a0d7c4052dc19123914359ec1" target="_top" xlink:title="Returns all the children with a given name.">
<polygon fill="white" stroke="#666666" points="561,-363 462,-363 462,-333 561,-333 561,-363"/>
<text text-anchor="start" x="470" y="-351" font-family="Helvetica,sans-Serif" font-size="10.00">ore::data::XMLUtils</text>
<text text-anchor="middle" x="511.5" y="-340" font-family="Helvetica,sans-Serif" font-size="10.00">::getChildrenNodes</text>
</a>
</g>
</g>
<!-- Node2&#45;&gt;Node3 -->
<g id="edge2" class="edge"><title>Node2&#45;&gt;Node3</title>
<path fill="none" stroke="#63b8ff" d="M366.795,-418.823C395.826,-404.515 439.471,-383.006 471.042,-367.446"/>
<polygon fill="#63b8ff" stroke="#63b8ff" points="472.59,-370.586 480.012,-363.025 469.495,-364.307 472.59,-370.586"/>
</g>
<!-- Node4 -->
<g id="node4" class="node"><title>Node4</title>
<g id="a_node4"><a xlink:href="classore_1_1data_1_1_x_m_l_utils.html#a4e041c36cab0a16681fb41dfbd991882" target="_top" xlink:title="Get and set a node&#39;s name.">
<polygon fill="white" stroke="#666666" points="561,-449 462,-449 462,-419 561,-419 561,-449"/>
<text text-anchor="start" x="470" y="-437" font-family="Helvetica,sans-Serif" font-size="10.00">ore::data::XMLUtils</text>
<text text-anchor="middle" x="511.5" y="-426" font-family="Helvetica,sans-Serif" font-size="10.00">::getNodeName</text>
</a>
</g>
</g>
<!-- Node2&#45;&gt;Node4 -->
<g id="edge3" class="edge"><title>Node2&#45;&gt;Node4</title>
<path fill="none" stroke="#63b8ff" d="M396.053,-434C414.103,-434 433.878,-434 451.837,-434"/>
<polygon fill="#63b8ff" stroke="#63b8ff" points="451.888,-437.5 461.888,-434 451.888,-430.5 451.888,-437.5"/>
</g>
<!-- Node6 -->
<g id="node6" class="node"><title>Node6</title>
<g id="a_node6"><a xlink:href="classore_1_1data_1_1_x_m_l_utils.html#a37c092916f4bdf10d4fbf6bb9e474db7" target="_top" xlink:title=" ">
<polygon fill="white" stroke="#666666" points="561,-315 462,-315 462,-285 561,-285 561,-315"/>
<text text-anchor="start" x="470" y="-303" font-family="Helvetica,sans-Serif" font-size="10.00">ore::data::XMLUtils</text>
<text text-anchor="middle" x="511.5" y="-292" font-family="Helvetica,sans-Serif" font-size="10.00">::checkNode</text>
</a>
</g>
</g>
<!-- Node5&#45;&gt;Node6 -->
<g id="edge5" class="edge"><title>Node5&#45;&gt;Node6</title>
<path fill="none" stroke="#63b8ff" d="M194.192,-271.612C214.157,-276.748 239.811,-282.681 263,-286 327.17,-295.186 401.508,-298.409 451.835,-299.506"/>
<polygon fill="#63b8ff" stroke="#63b8ff" points="451.816,-303.006 461.883,-299.703 451.954,-296.007 451.816,-303.006"/>
</g>
<!-- Node7 -->
<g id="node7" class="node"><title>Node7</title>
<g id="a_node7"><a xlink:href="classore_1_1data_1_1_trade_actions.html#ac8bb3912a3ce86b15842e79d0b421204" target="_top" xlink:title="Clear the trade actions.">
<polygon fill="white" stroke="#666666" points="394,-277 276,-277 276,-247 394,-247 394,-277"/>
<text text-anchor="start" x="284" y="-265" font-family="Helvetica,sans-Serif" font-size="10.00">ore::data::TradeActions</text>
<text text-anchor="middle" x="335" y="-254" font-family="Helvetica,sans-Serif" font-size="10.00">::clear</text>
</a>
</g>
</g>
<!-- Node5&#45;&gt;Node7 -->
<g id="edge6" class="edge"><title>Node5&#45;&gt;Node7</title>
<path fill="none" stroke="#63b8ff" d="M222.992,-262C236.872,-262 251.62,-262 265.679,-262"/>
<polygon fill="#63b8ff" stroke="#63b8ff" points="265.772,-265.5 275.772,-262 265.772,-258.5 265.772,-265.5"/>
</g>
<!-- Node8 -->
<g id="node8" class="node"><title>Node8</title>
<g id="a_node8"><a xlink:href="classore_1_1data_1_1_envelope.html#a7741ae0fc924943de5bfe02928262eb7" target="_top" xlink:title=" ">
<polygon fill="white" stroke="#666666" points="385,-229 285,-229 285,-199 385,-199 385,-229"/>
<text text-anchor="start" x="293" y="-217" font-family="Helvetica,sans-Serif" font-size="10.00">ore::data::Envelope</text>
<text text-anchor="middle" x="335" y="-206" font-family="Helvetica,sans-Serif" font-size="10.00">::fromXML</text>
</a>
</g>
</g>
<!-- Node5&#45;&gt;Node8 -->
<g id="edge7" class="edge"><title>Node5&#45;&gt;Node8</title>
<path fill="none" stroke="#63b8ff" d="M194.393,-252.402C217.513,-246.042 248.416,-237.542 275.269,-230.155"/>
<polygon fill="#63b8ff" stroke="#63b8ff" points="276.244,-233.517 284.958,-227.49 274.387,-226.768 276.244,-233.517"/>
</g>
<!-- Node5&#45;&gt;Node10 -->
<g id="edge24" class="edge"><title>Node5&#45;&gt;Node10</title>
<path fill="none" stroke="#63b8ff" d="M219.339,-271.62C222.064,-273.174 224.64,-274.957 227,-277 261.135,-306.555 225.844,-346.346 263,-372 320.969,-412.025 511.209,-387.175 580,-372 604.712,-366.548 630.538,-354.582 650.21,-343.962"/>
<polygon fill="#63b8ff" stroke="#63b8ff" points="652.019,-346.961 659.065,-339.049 648.622,-340.841 652.019,-346.961"/>
</g>
<!-- Node5&#45;&gt;Node12 -->
<g id="edge23" class="edge"><title>Node5&#45;&gt;Node12</title>
<path fill="none" stroke="#63b8ff" d="M170.846,-252.266C189.122,-237.029 226.716,-207.482 263,-190 323.172,-161.008 357.772,-192.142 407,-147 439.057,-117.604 411.71,-86.2107 443,-56 445.936,-53.1653 449.228,-50.6631 452.737,-48.4545"/>
<polygon fill="#63b8ff" stroke="#63b8ff" points="454.689,-51.3781 461.826,-43.5477 451.364,-45.2183 454.689,-51.3781"/>
</g>
<!-- Node16 -->
<g id="node16" class="node"><title>Node16</title>
<g id="a_node16"><a xlink:href="classore_1_1data_1_1_trade_actions.html#a7741ae0fc924943de5bfe02928262eb7" target="_top" xlink:title=" ">
<polygon fill="white" stroke="#666666" points="394,-363 276,-363 276,-333 394,-333 394,-363"/>
<text text-anchor="start" x="284" y="-351" font-family="Helvetica,sans-Serif" font-size="10.00">ore::data::TradeActions</text>
<text text-anchor="middle" x="335" y="-340" font-family="Helvetica,sans-Serif" font-size="10.00">::fromXML</text>
</a>
</g>
</g>
<!-- Node5&#45;&gt;Node16 -->
<g id="edge20" class="edge"><title>Node5&#45;&gt;Node16</title>
<path fill="none" stroke="#63b8ff" d="M175.685,-271.679C195.801,-283.528 231.347,-303.882 263,-319 270.261,-322.468 278.05,-325.914 285.713,-329.156"/>
<polygon fill="#63b8ff" stroke="#63b8ff" points="284.377,-332.391 294.954,-332.997 287.063,-325.927 284.377,-332.391"/>
</g>
<!-- Node8&#45;&gt;Node3 -->
<g id="edge13" class="edge"><title>Node8&#45;&gt;Node3</title>
<path fill="none" stroke="#63b8ff" d="M385.26,-224.515C393.19,-227.849 400.813,-232.234 407,-238 437.314,-266.249 412.908,-295.514 443,-324 445.964,-326.806 449.277,-329.286 452.801,-331.479"/>
<polygon fill="#63b8ff" stroke="#63b8ff" points="451.448,-334.725 461.916,-336.359 454.751,-328.553 451.448,-334.725"/>
</g>
<!-- Node8&#45;&gt;Node4 -->
<g id="edge16" class="edge"><title>Node8&#45;&gt;Node4</title>
<path fill="none" stroke="#63b8ff" d="M385.201,-223.534C393.328,-226.97 401.034,-231.643 407,-238 449.199,-282.968 411.023,-319.271 443,-372 452.498,-387.661 467.102,-401.774 480.299,-412.564"/>
<polygon fill="#63b8ff" stroke="#63b8ff" points="478.253,-415.407 488.277,-418.837 482.579,-409.904 478.253,-415.407"/>
</g>
<!-- Node8&#45;&gt;Node6 -->
<g id="edge8" class="edge"><title>Node8&#45;&gt;Node6</title>
<path fill="none" stroke="#63b8ff" d="M385.31,-227.676C392.81,-230.598 400.28,-234.027 407,-238 425.684,-249.047 424.772,-259.217 443,-271 448.342,-274.453 454.165,-277.662 460.078,-280.59"/>
<polygon fill="#63b8ff" stroke="#63b8ff" points="458.849,-283.879 469.389,-284.955 461.82,-277.541 458.849,-283.879"/>
</g>
<!-- Node9 -->
<g id="node9" class="node"><title>Node9</title>
<g id="a_node9"><a xlink:href="classore_1_1data_1_1_netting_set_details.html#a7741ae0fc924943de5bfe02928262eb7" target="_top" xlink:title=" ">
<polygon fill="white" stroke="#666666" points="580,-181 443,-181 443,-151 580,-151 580,-181"/>
<text text-anchor="start" x="451" y="-169" font-family="Helvetica,sans-Serif" font-size="10.00">ore::data::NettingSetDetails</text>
<text text-anchor="middle" x="511.5" y="-158" font-family="Helvetica,sans-Serif" font-size="10.00">::fromXML</text>
</a>
</g>
</g>
<!-- Node8&#45;&gt;Node9 -->
<g id="edge9" class="edge"><title>Node8&#45;&gt;Node9</title>
<path fill="none" stroke="#63b8ff" d="M385.072,-200.502C403.958,-195.307 425.816,-189.294 445.942,-183.758"/>
<polygon fill="#63b8ff" stroke="#63b8ff" points="446.95,-187.111 455.663,-181.084 445.093,-180.362 446.95,-187.111"/>
</g>
<!-- Node8&#45;&gt;Node10 -->
<g id="edge14" class="edge"><title>Node8&#45;&gt;Node10</title>
<path fill="none" stroke="#63b8ff" d="M385.081,-225.333C445.471,-239.475 544.377,-263.337 580,-276 602.294,-283.925 626.317,-294.905 645.602,-304.363"/>
<polygon fill="#63b8ff" stroke="#63b8ff" points="644.148,-307.549 654.66,-308.865 647.263,-301.28 644.148,-307.549"/>
</g>
<!-- Node11 -->
<g id="node11" class="node"><title>Node11</title>
<g id="a_node11"><a xlink:href="classore_1_1data_1_1_x_m_l_utils.html#a6704501b110fa9d056096df3e05f0df2" target="_top" xlink:title="Get a node&#39;s value.">
<polygon fill="white" stroke="#666666" points="888,-205 789,-205 789,-175 888,-175 888,-205"/>
<text text-anchor="start" x="797" y="-193" font-family="Helvetica,sans-Serif" font-size="10.00">ore::data::XMLUtils</text>
<text text-anchor="middle" x="838.5" y="-182" font-family="Helvetica,sans-Serif" font-size="10.00">::getNodeValue</text>
</a>
</g>
</g>
<!-- Node8&#45;&gt;Node11 -->
<g id="edge17" class="edge"><title>Node8&#45;&gt;Node11</title>
<path fill="none" stroke="#63b8ff" d="M378.956,-198.856C388.629,-194.484 398.529,-189.189 407,-183 426.581,-168.695 420.909,-152.001 443,-142 561.952,-88.147 720.631,-140.151 795.289,-170.93"/>
<polygon fill="#63b8ff" stroke="#63b8ff" points="794.251,-174.29 804.826,-174.935 796.962,-167.836 794.251,-174.29"/>
</g>
<!-- Node8&#45;&gt;Node12 -->
<g id="edge12" class="edge"><title>Node8&#45;&gt;Node12</title>
<path fill="none" stroke="#63b8ff" d="M385.254,-200.813C393.376,-196.823 401.067,-191.662 407,-185 446.588,-140.549 402.397,-99.5262 443,-56 445.911,-52.8794 449.254,-50.1641 452.862,-47.8016"/>
<polygon fill="#63b8ff" stroke="#63b8ff" points="454.636,-50.8197 461.679,-42.9047 451.238,-44.7001 454.636,-50.8197"/>
</g>
<!-- Node13 -->
<g id="node13" class="node"><title>Node13</title>
<g id="a_node13"><a xlink:href="classore_1_1data_1_1_x_m_l_utils.html#a7fedec5ac495a3e67a9abd7e4aae74aa" target="_top" xlink:title="Get a node&#39;s next sibling node.">
<polygon fill="white" stroke="#666666" points="561,-229 462,-229 462,-199 561,-199 561,-229"/>
<text text-anchor="start" x="470" y="-217" font-family="Helvetica,sans-Serif" font-size="10.00">ore::data::XMLUtils</text>
<text text-anchor="middle" x="511.5" y="-206" font-family="Helvetica,sans-Serif" font-size="10.00">::getNextSibling</text>
</a>
</g>
</g>
<!-- Node8&#45;&gt;Node13 -->
<g id="edge15" class="edge"><title>Node8&#45;&gt;Node13</title>
<path fill="none" stroke="#63b8ff" d="M385.072,-214C405.784,-214 430.071,-214 451.729,-214"/>
<polygon fill="#63b8ff" stroke="#63b8ff" points="451.796,-217.5 461.796,-214 451.796,-210.5 451.796,-217.5"/>
</g>
<!-- Node14 -->
<g id="node14" class="node"><title>Node14</title>
<g id="a_node14"><a xlink:href="classore_1_1data_1_1_envelope.html#a9bf8e40febad0782c5855488041ecfd7" target="_top" xlink:title=" ">
<polygon fill="white" stroke="#666666" points="561.5,-95 461.5,-95 461.5,-65 561.5,-65 561.5,-95"/>
<text text-anchor="start" x="469.5" y="-83" font-family="Helvetica,sans-Serif" font-size="10.00">ore::data::Envelope</text>
<text text-anchor="middle" x="511.5" y="-72" font-family="Helvetica,sans-Serif" font-size="10.00">::nettingSetId</text>
</a>
</g>
</g>
<!-- Node8&#45;&gt;Node14 -->
<g id="edge18" class="edge"><title>Node8&#45;&gt;Node14</title>
<path fill="none" stroke="#63b8ff" d="M385.098,-199.596C393.045,-195.749 400.715,-190.95 407,-185 434.14,-159.303 416.092,-134.941 443,-109 446.435,-105.689 450.307,-102.726 454.415,-100.08"/>
<polygon fill="#63b8ff" stroke="#63b8ff" points="456.185,-103.1 463.116,-95.0861 452.701,-97.0292 456.185,-103.1"/>
</g>
<!-- Node9&#45;&gt;Node10 -->
<g id="edge10" class="edge"><title>Node9&#45;&gt;Node10</title>
<path fill="none" stroke="#63b8ff" d="M564.547,-181.009C569.998,-183.588 575.268,-186.569 580,-190 621.015,-219.739 653.715,-270.17 670.707,-299.953"/>
<polygon fill="#63b8ff" stroke="#63b8ff" points="667.737,-301.814 675.662,-308.845 673.851,-298.406 667.737,-301.814"/>
</g>
<!-- Node10&#45;&gt;Node11 -->
<g id="edge11" class="edge"><title>Node10&#45;&gt;Node11</title>
<path fill="none" stroke="#63b8ff" d="M702.641,-308.889C729.439,-285.264 781.394,-239.462 812.408,-212.12"/>
<polygon fill="#63b8ff" stroke="#63b8ff" points="815.002,-214.5 820.189,-205.261 810.373,-209.249 815.002,-214.5"/>
</g>
<!-- Node15 -->
<g id="node15" class="node"><title>Node15</title>
<g id="a_node15"><a xlink:href="classore_1_1data_1_1_netting_set_details.html#a9bf8e40febad0782c5855488041ecfd7" target="_top" xlink:title=" ">
<polygon fill="white" stroke="#666666" points="753,-95 616,-95 616,-65 753,-65 753,-95"/>
<text text-anchor="start" x="624" y="-83" font-family="Helvetica,sans-Serif" font-size="10.00">ore::data::NettingSetDetails</text>
<text text-anchor="middle" x="684.5" y="-72" font-family="Helvetica,sans-Serif" font-size="10.00">::nettingSetId</text>
</a>
</g>
</g>
<!-- Node14&#45;&gt;Node15 -->
<g id="edge19" class="edge"><title>Node14&#45;&gt;Node15</title>
<path fill="none" stroke="#63b8ff" d="M561.502,-80C575.214,-80 590.468,-80 605.417,-80"/>
<polygon fill="#63b8ff" stroke="#63b8ff" points="605.695,-83.5001 615.695,-80 605.695,-76.5001 605.695,-83.5001"/>
</g>
<!-- Node16&#45;&gt;Node3 -->
<g id="edge22" class="edge"><title>Node16&#45;&gt;Node3</title>
<path fill="none" stroke="#63b8ff" d="M394.106,-348C412.677,-348 433.238,-348 451.848,-348"/>
<polygon fill="#63b8ff" stroke="#63b8ff" points="451.961,-351.5 461.961,-348 451.961,-344.5 451.961,-351.5"/>
</g>
<!-- Node16&#45;&gt;Node6 -->
<g id="edge21" class="edge"><title>Node16&#45;&gt;Node6</title>
<path fill="none" stroke="#63b8ff" d="M390.734,-332.944C410.229,-327.582 432.252,-321.524 452.047,-316.079"/>
<polygon fill="#63b8ff" stroke="#63b8ff" points="453.153,-319.405 461.867,-313.378 451.296,-312.655 453.153,-319.405"/>
</g>
<!-- Node17&#45;&gt;Node4 -->
<g id="edge27" class="edge"><title>Node17&#45;&gt;Node4</title>
<path fill="none" stroke="#63b8ff" d="M366.795,-504.823C395.826,-490.515 439.471,-469.006 471.042,-453.446"/>
<polygon fill="#63b8ff" stroke="#63b8ff" points="472.59,-456.586 480.012,-449.025 469.495,-450.307 472.59,-456.586"/>
</g>
<!-- Node17&#45;&gt;Node10 -->
<g id="edge26" class="edge"><title>Node17&#45;&gt;Node10</title>
<path fill="none" stroke="#63b8ff" d="M403.606,-527.082C455.739,-529.17 527.558,-524.402 580,-491 632.594,-457.501 662.853,-386.683 675.855,-348.93"/>
<polygon fill="#63b8ff" stroke="#63b8ff" points="679.25,-349.81 679.069,-339.216 672.605,-347.611 679.25,-349.81"/>
</g>
<!-- Node19 -->
<g id="node19" class="node"><title>Node19</title>
<g id="a_node19"><a xlink:href="namespaceore_1_1data.html#a425a020b34a447b90e7656c00c54d2db" target="_top" xlink:title=" ">
<polygon fill="white" stroke="#666666" points="407,-104.5 263,-104.5 263,-85.5 407,-85.5 407,-104.5"/>
<text text-anchor="middle" x="335" y="-92.5" font-family="Helvetica,sans-Serif" font-size="10.00">ore::data::scriptedIndexName</text>
</a>
</g>
</g>
<!-- Node18&#45;&gt;Node19 -->
<g id="edge31" class="edge"><title>Node18&#45;&gt;Node19</title>
<path fill="none" stroke="#63b8ff" d="M188.707,-95C206.371,-95 229.844,-95 252.761,-95"/>
<polygon fill="#63b8ff" stroke="#63b8ff" points="252.878,-98.5001 262.878,-95 252.878,-91.5001 252.878,-98.5001"/>
</g>
</g>
</svg>
        <g id="navigator" transform="translate(0 0)" fill="#404254">
                <rect fill="#f2f5e9" fill-opacity="0.5" stroke="#606060" stroke-width=".5" x="0" y="0" width="60" height="60"/>
                <use id="zoomplus" xlink:href="#zoomPlus" x="17" y="9" onmousedown="handleZoom(evt,'in')"/>
                <use id="zoomminus" xlink:href="#zoomMin" x="42" y="9" onmousedown="handleZoom(evt,'out')"/>
                <use id="reset" xlink:href="#resetDef" x="30" y="36" onmousedown="handleReset()"/>
                <g id="arrowUp" xlink:href="#dirArrow" transform="translate(30 24)" onmousedown="handlePan(0,-1)">
                  <use xlink:href="#rim" fill="#404040">
                        <set attributeName="fill" to="#808080" begin="arrowUp.mouseover" end="arrowUp.mouseout"/>
                  </use>
                  <path fill="none" stroke="white" stroke-width="1.5" d="M0,-3.0v7 M-2.5,-0.5L0,-3.0L2.5,-0.5"/>
                </g>
                <g id="arrowRight" xlink:href="#dirArrow" transform="rotate(90) translate(36 -43)" onmousedown="handlePan(1,0)">
                  <use xlink:href="#rim" fill="#404040">
                        <set attributeName="fill" to="#808080" begin="arrowRight.mouseover" end="arrowRight.mouseout"/>
                  </use>
                  <path fill="none" stroke="white" stroke-width="1.5" d="M0,-3.0v7 M-2.5,-0.5L0,-3.0L2.5,-0.5"/>
                </g>
                <g id="arrowDown" xlink:href="#dirArrow" transform="rotate(180) translate(-30 -48)" onmousedown="handlePan(0,1)">
                  <use xlink:href="#rim" fill="#404040">
                        <set attributeName="fill" to="#808080" begin="arrowDown.mouseover" end="arrowDown.mouseout"/>
                  </use>
                  <path fill="none" stroke="white" stroke-width="1.5" d="M0,-3.0v7 M-2.5,-0.5L0,-3.0L2.5,-0.5"/>
                </g>
                <g id="arrowLeft" xlink:href="#dirArrow" transform="rotate(270) translate(-36 17)" onmousedown="handlePan(-1,0)">
                  <use xlink:href="#rim" fill="#404040">
                        <set attributeName="fill" to="#808080" begin="arrowLeft.mouseover" end="arrowLeft.mouseout"/>
                  </use>
                  <path fill="none" stroke="white" stroke-width="1.5" d="M0,-3.0v7 M-2.5,-0.5L0,-3.0L2.5,-0.5"/>
                </g>
        </g>
        <svg viewBox="0 0 15 15" width="100%" height="30px" preserveAspectRatio="xMaxYMin meet">
         <g id="arrow_out" transform="scale(0.3 0.3)">
          <a xlink:href="classore_1_1data_1_1_best_entry_option_a7741ae0fc924943de5bfe02928262eb7_cgraph_org.svg" target="_base">
           <rect id="button" ry="5" rx="5" y="6" x="6" height="38" width="38"
                fill="#f2f5e9" fill-opacity="0.5" stroke="#606060" stroke-width="1.0"/>
           <path id="arrow"
             d="M 11.500037,31.436501 C 11.940474,20.09759 22.043105,11.32322 32.158766,21.979434 L 37.068811,17.246167 C 37.068811,17.246167 37.088388,32 37.088388,32 L 22.160133,31.978069 C 22.160133,31.978069 26.997745,27.140456 26.997745,27.140456 C 18.528582,18.264221 13.291696,25.230495 11.500037,31.436501 z"
             style="fill:#404040;"/>
          </a>
         </g>
        </svg>
</svg>
