<?xml version="1.0" encoding="UTF-8" standalone="no"?>
<!DOCTYPE svg PUBLIC "-//W3C//DTD SVG 1.1//EN"
 "http://www.w3.org/Graphics/SVG/1.1/DTD/svg11.dtd">
<!-- Generated by graphviz version 2.38.0 (20140413.2041)
 -->
<!-- Title: optionExpiry Pages: 1 -->
<svg width="551pt" height="141pt"
 viewBox="0.00 0.00 551.00 141.00" xmlns="http://www.w3.org/2000/svg" xmlns:xlink="http://www.w3.org/1999/xlink">
<g id="graph0" class="graph" transform="scale(1 1) rotate(0) translate(4 137)">
<title>optionExpiry</title>
<!-- Node1 -->
<g id="node1" class="node"><title>Node1</title>
<g id="a_node1"><a xlink:title=" ">
<polygon fill="#999999" stroke="#666666" points="543,-76 472,-76 472,-57 543,-57 543,-76"/>
<text text-anchor="middle" x="507.5" y="-64" font-family="Helvetica,sans-Serif" font-size="10.00">optionExpiry</text>
</a>
</g>
</g>
<!-- Node2 -->
<g id="node2" class="node"><title>Node2</title>
<g id="a_node2"><a xlink:href="classore_1_1data_1_1_commodity_schwartz_model_builder.html#ac5aabc5af5182ade6d296b17c67e8456" target="_top" xlink:title=" ">
<polygon fill="white" stroke="#666666" points="434.5,-95 338.5,-95 338.5,-76 434.5,-76 434.5,-95"/>
<text text-anchor="middle" x="386.5" y="-83" font-family="Helvetica,sans-Serif" font-size="10.00">buildOptionBasket</text>
</a>
</g>
</g>
<!-- Node1&#45;&gt;Node2 -->
<g id="edge1" class="edge"><title>Node1&#45;&gt;Node2</title>
<path fill="none" stroke="#63b8ff" d="M461.728,-73.6485C452.961,-75.0483 443.739,-76.5207 434.89,-77.9335"/>
<polygon fill="#63b8ff" stroke="#63b8ff" points="462.437,-77.0796 471.76,-72.0467 461.334,-70.1672 462.437,-77.0796"/>
</g>
<!-- Node5 -->
<g id="node5" class="node"><title>Node5</title>
<g id="a_node5"><a xlink:href="classore_1_1data_1_1_commodity_schwartz_model_builder.html#a11d6981c9430b09a2c7d82f2c0d7290d" target="_top" xlink:title=" ">
<polygon fill="white" stroke="#666666" points="436,-57 337,-57 337,-38 436,-38 436,-57"/>
<text text-anchor="middle" x="386.5" y="-45" font-family="Helvetica,sans-Serif" font-size="10.00">volSurfaceChanged</text>
</a>
</g>
</g>
<!-- Node1&#45;&gt;Node5 -->
<g id="edge4" class="edge"><title>Node1&#45;&gt;Node5</title>
<path fill="none" stroke="#63b8ff" d="M461.819,-59.3661C453.461,-58.0315 444.685,-56.6304 436.212,-55.2775"/>
<polygon fill="#63b8ff" stroke="#63b8ff" points="461.334,-62.8328 471.76,-60.9533 462.437,-55.9204 461.334,-62.8328"/>
</g>
<!-- Node3 -->
<g id="node3" class="node"><title>Node3</title>
<g id="a_node3"><a xlink:href="classore_1_1data_1_1_commodity_schwartz_model_builder.html#a6781941f90455cd9807e1db4c3b3c982" target="_top" xlink:title="Constructor.">
<polygon fill="white" stroke="#666666" points="301,-133 138,-133 138,-114 301,-114 301,-133"/>
<text text-anchor="middle" x="219.5" y="-121" font-family="Helvetica,sans-Serif" font-size="10.00">CommoditySchwartzModelBuilder</text>
</a>
</g>
</g>
<!-- Node2&#45;&gt;Node3 -->
<g id="edge2" class="edge"><title>Node2&#45;&gt;Node3</title>
<path fill="none" stroke="#63b8ff" d="M333.846,-97.3961C310.654,-102.737 283.662,-108.954 261.837,-113.98"/>
<polygon fill="#63b8ff" stroke="#63b8ff" points="334.904,-100.744 343.864,-95.089 333.333,-93.9226 334.904,-100.744"/>
</g>
<!-- Node4 -->
<g id="node4" class="node"><title>Node4</title>
<g id="a_node4"><a xlink:href="classore_1_1data_1_1_commodity_schwartz_model_builder.html#a1127cccc9668a02247dc139d27121708" target="_top" xlink:title=" ">
<polygon fill="white" stroke="#666666" points="102,-57 0,-57 0,-38 102,-38 102,-57"/>
<text text-anchor="middle" x="51" y="-45" font-family="Helvetica,sans-Serif" font-size="10.00">performCalculations</text>
</a>
</g>
</g>
<!-- Node2&#45;&gt;Node4 -->
<g id="edge3" class="edge"><title>Node2&#45;&gt;Node4</title>
<path fill="none" stroke="#63b8ff" d="M328.392,-81.0178C278.152,-76.8231 203.085,-69.9442 138,-61.5 126.449,-60.0013 114.066,-58.1377 102.397,-56.2641"/>
<polygon fill="#63b8ff" stroke="#63b8ff" points="328.156,-84.5102 338.411,-81.8462 328.733,-77.534 328.156,-84.5102"/>
</g>
<!-- Node5&#45;&gt;Node4 -->
<g id="edge5" class="edge"><title>Node5&#45;&gt;Node4</title>
<path fill="none" stroke="#63b8ff" d="M326.349,-47.5C262.558,-47.5 162.097,-47.5 102.073,-47.5"/>
<polygon fill="#63b8ff" stroke="#63b8ff" points="326.649,-51.0001 336.649,-47.5 326.649,-44.0001 326.649,-51.0001"/>
</g>
<!-- Node6 -->
<g id="node6" class="node"><title>Node6</title>
<g id="a_node6"><a xlink:href="classore_1_1data_1_1_commodity_schwartz_model_builder.html#a83cbd1c07f17f2f51faea02f40eeaac9" target="_top" xlink:title=" ">
<polygon fill="white" stroke="#666666" points="273,-19 166,-19 166,-0 273,-0 273,-19"/>
<text text-anchor="middle" x="219.5" y="-7" font-family="Helvetica,sans-Serif" font-size="10.00">requiresRecalibration</text>
</a>
</g>
</g>
<!-- Node5&#45;&gt;Node6 -->
<g id="edge6" class="edge"><title>Node5&#45;&gt;Node6</title>
<path fill="none" stroke="#63b8ff" d="M333.846,-35.6039C310.654,-30.2626 283.662,-24.0463 261.837,-19.0201"/>
<polygon fill="#63b8ff" stroke="#63b8ff" points="333.333,-39.0774 343.864,-37.911 334.904,-32.2559 333.333,-39.0774"/>
</g>
<!-- Node6&#45;&gt;Node4 -->
<g id="edge7" class="edge"><title>Node6&#45;&gt;Node4</title>
<path fill="none" stroke="#63b8ff" d="M166.691,-21.3243C143.217,-26.6816 115.835,-32.9311 93.7129,-37.9799"/>
<polygon fill="#63b8ff" stroke="#63b8ff" points="167.515,-24.7264 176.485,-19.089 165.957,-17.9019 167.515,-24.7264"/>
</g>
</g>
</svg>
