<?xml version="1.0" encoding="UTF-8" standalone="no"?>
<!DOCTYPE svg PUBLIC "-//W3C//DTD SVG 1.1//EN"
 "http://www.w3.org/Graphics/SVG/1.1/DTD/svg11.dtd">
<!-- Generated by graphviz version 2.38.0 (20140413.2041)
 -->
<!-- Title: engineImpl Pages: 1 -->
<svg width="404pt" height="216pt"
 viewBox="0.00 0.00 404.00 215.50" xmlns="http://www.w3.org/2000/svg" xmlns:xlink="http://www.w3.org/1999/xlink">
<g id="graph0" class="graph" transform="scale(1 1) rotate(0) translate(4 211.5)">
<title>engineImpl</title>
<!-- Node1 -->
<g id="node1" class="node"><title>Node1</title>
<g id="a_node1"><a xlink:title=" ">
<polygon fill="#999999" stroke="#666666" points="63,-93 0,-93 0,-74 63,-74 63,-93"/>
<text text-anchor="middle" x="31.5" y="-81" font-family="Helvetica,sans-Serif" font-size="10.00">engineImpl</text>
</a>
</g>
</g>
<!-- Node2 -->
<g id="node2" class="node"><title>Node2</title>
<g id="a_node2"><a xlink:href="classore_1_1data_1_1_engine_builder.html#aaacbfbb4007edcf8c34df2f37f8ebae5" target="_top" xlink:title="Return a configuration (or the default one if key not found)">
<polygon fill="white" stroke="#666666" points="228,-207.5 107,-207.5 107,-177.5 228,-177.5 228,-207.5"/>
<text text-anchor="start" x="115" y="-195.5" font-family="Helvetica,sans-Serif" font-size="10.00">ore::data::EngineBuilder</text>
<text text-anchor="middle" x="167.5" y="-184.5" font-family="Helvetica,sans-Serif" font-size="10.00">::configuration</text>
</a>
</g>
</g>
<!-- Node1&#45;&gt;Node2 -->
<g id="edge1" class="edge"><title>Node1&#45;&gt;Node2</title>
<path fill="none" stroke="#63b8ff" d="M37.5684,-93.1112C47.2369,-110.562 69.9628,-147.583 99,-168.5 101.075,-169.995 103.252,-171.404 105.502,-172.733"/>
<polygon fill="#63b8ff" stroke="#63b8ff" points="103.996,-175.895 114.474,-177.462 107.26,-169.703 103.996,-175.895"/>
</g>
<!-- Node3 -->
<g id="node3" class="node"><title>Node3</title>
<g id="a_node3"><a xlink:href="classore_1_1data_1_1_engine_builder.html#a9d7654707f3b935dcf6a7b19df70c085" target="_top" xlink:title=" ">
<polygon fill="white" stroke="#666666" points="228,-159.5 107,-159.5 107,-129.5 228,-129.5 228,-159.5"/>
<text text-anchor="start" x="115" y="-147.5" font-family="Helvetica,sans-Serif" font-size="10.00">ore::data::EngineBuilder</text>
<text text-anchor="middle" x="167.5" y="-136.5" font-family="Helvetica,sans-Serif" font-size="10.00">::engineParameter</text>
</a>
</g>
</g>
<!-- Node1&#45;&gt;Node3 -->
<g id="edge2" class="edge"><title>Node1&#45;&gt;Node3</title>
<path fill="none" stroke="#63b8ff" d="M47.9744,-93.0776C61.2152,-101.035 80.9426,-112.335 99,-120.5 102.889,-122.258 106.947,-123.977 111.061,-125.634"/>
<polygon fill="#63b8ff" stroke="#63b8ff" points="110.115,-129.021 120.704,-129.38 112.65,-122.496 110.115,-129.021"/>
</g>
<!-- Node4 -->
<g id="node4" class="node"><title>Node4</title>
<g id="a_node4"><a xlink:href="group__utilities.html#gad1db2a68f9a73667c3b4084d63955bdd" target="_top" xlink:title="Convert text to Real.">
<polygon fill="white" stroke="#666666" points="219.5,-93 115.5,-93 115.5,-74 219.5,-74 219.5,-93"/>
<text text-anchor="middle" x="167.5" y="-81" font-family="Helvetica,sans-Serif" font-size="10.00">ore::data::parseReal</text>
</a>
</g>
</g>
<!-- Node1&#45;&gt;Node4 -->
<g id="edge3" class="edge"><title>Node1&#45;&gt;Node4</title>
<path fill="none" stroke="#63b8ff" d="M63.2423,-83.5C75.7984,-83.5 90.7857,-83.5 105.396,-83.5"/>
<polygon fill="#63b8ff" stroke="#63b8ff" points="105.416,-87.0001 115.416,-83.5 105.416,-80.0001 105.416,-87.0001"/>
</g>
<!-- Node5 -->
<g id="node5" class="node"><title>Node5</title>
<g id="a_node5"><a xlink:href="group__utilities.html#ga53500116b2cd1c6fd1598065f9ef64b2" target="_top" xlink:title="Try to convert std::string to QuantLib::IborIndex.">
<polygon fill="white" stroke="#666666" points="236,-56 99,-56 99,-37 236,-37 236,-56"/>
<text text-anchor="middle" x="167.5" y="-44" font-family="Helvetica,sans-Serif" font-size="10.00">ore::data::tryParseIborIndex</text>
</a>
</g>
</g>
<!-- Node1&#45;&gt;Node5 -->
<g id="edge5" class="edge"><title>Node1&#45;&gt;Node5</title>
<path fill="none" stroke="#63b8ff" d="M63.2423,-75.0115C80.6132,-70.215 102.637,-64.1338 121.879,-58.8207"/>
<polygon fill="#63b8ff" stroke="#63b8ff" points="122.941,-62.1586 131.648,-56.1232 121.077,-55.4111 122.941,-62.1586"/>
</g>
<!-- Node7 -->
<g id="node7" class="node"><title>Node7</title>
<g id="a_node7"><a xlink:href="namespaceore_1_1data.html#ab14a2399c59fd660ae278ef0844f38c5" target="_top" xlink:title=" ">
<polygon fill="white" stroke="#666666" points="231.5,-19 103.5,-19 103.5,-0 231.5,-0 231.5,-19"/>
<text text-anchor="middle" x="167.5" y="-7" font-family="Helvetica,sans-Serif" font-size="10.00">ore::data::ycmFromString</text>
</a>
</g>
</g>
<!-- Node1&#45;&gt;Node7 -->
<g id="edge8" class="edge"><title>Node1&#45;&gt;Node7</title>
<path fill="none" stroke="#63b8ff" d="M41.4906,-73.9106C53.4863,-61.6606 75.9096,-40.6006 99,-28.5 103.29,-26.252 107.876,-24.2438 112.564,-22.4552"/>
<polygon fill="#63b8ff" stroke="#63b8ff" points="113.966,-25.6733 122.264,-19.0859 111.669,-19.0608 113.966,-25.6733"/>
</g>
<!-- Node4&#45;&gt;Node4 -->
<g id="edge4" class="edge"><title>Node4&#45;&gt;Node4</title>
<path fill="none" stroke="#63b8ff" d="M146.538,-93.0828C136.341,-101.734 143.328,-111 167.5,-111 182.985,-111 191.418,-107.197 192.798,-102.189"/>
<polygon fill="#63b8ff" stroke="#63b8ff" points="195.921,-100.607 188.462,-93.0828 189.6,-103.616 195.921,-100.607"/>
</g>
<!-- Node6 -->
<g id="node6" class="node"><title>Node6</title>
<g id="a_node6"><a xlink:href="group__utilities.html#ga2d18ab5807f92319c9db2c13f4904738" target="_top" xlink:title="Convert std::string to QuantLib::IborIndex.">
<polygon fill="white" stroke="#666666" points="396,-56 272,-56 272,-37 396,-37 396,-56"/>
<text text-anchor="middle" x="334" y="-44" font-family="Helvetica,sans-Serif" font-size="10.00">ore::data::parseIborIndex</text>
</a>
</g>
</g>
<!-- Node5&#45;&gt;Node6 -->
<g id="edge6" class="edge"><title>Node5&#45;&gt;Node6</title>
<path fill="none" stroke="#63b8ff" d="M236.358,-46.5C244.727,-46.5 253.3,-46.5 261.717,-46.5"/>
<polygon fill="#63b8ff" stroke="#63b8ff" points="261.883,-50.0001 271.883,-46.5 261.883,-43.0001 261.883,-50.0001"/>
</g>
<!-- Node6&#45;&gt;Node6 -->
<g id="edge7" class="edge"><title>Node6&#45;&gt;Node6</title>
<path fill="none" stroke="#63b8ff" d="M308.415,-56.0828C295.968,-64.7337 304.496,-74 334,-74 353.362,-74 363.691,-70.0094 364.986,-64.8208"/>
<polygon fill="#63b8ff" stroke="#63b8ff" points="367.82,-62.7493 359.585,-56.0828 361.865,-66.4294 367.82,-62.7493"/>
</g>
</g>
</svg>
