<?xml version="1.0" encoding="UTF-8" standalone="no"?>
<!DOCTYPE svg PUBLIC "-//W3C//DTD SVG 1.1//EN"
 "http://www.w3.org/Graphics/SVG/1.1/DTD/svg11.dtd">
<!-- Generated by graphviz version 2.38.0 (20140413.2041)
 -->
<!-- Title: fromXML Pages: 1 -->
<svg width="358pt" height="272pt"
 viewBox="0.00 0.00 358.00 271.50" xmlns="http://www.w3.org/2000/svg" xmlns:xlink="http://www.w3.org/1999/xlink">
<g id="graph0" class="graph" transform="scale(1 1) rotate(0) translate(4 267.5)">
<title>fromXML</title>
<!-- Node1 -->
<g id="node1" class="node"><title>Node1</title>
<g id="a_node1"><a xlink:title=" ">
<polygon fill="#999999" stroke="#666666" points="54,-95.5 0,-95.5 0,-76.5 54,-76.5 54,-95.5"/>
<text text-anchor="middle" x="27" y="-83.5" font-family="Helvetica,sans-Serif" font-size="10.00">fromXML</text>
</a>
</g>
</g>
<!-- Node2 -->
<g id="node2" class="node"><title>Node2</title>
<g id="a_node2"><a xlink:href="classore_1_1data_1_1_f_x_convention.html#a9169b2d8ee8001dbb250c4ce2c26818c" target="_top" xlink:title=" ">
<polygon fill="white" stroke="#666666" points="158,-140.5 121,-140.5 121,-121.5 158,-121.5 158,-140.5"/>
<text text-anchor="middle" x="139.5" y="-128.5" font-family="Helvetica,sans-Serif" font-size="10.00">build</text>
</a>
</g>
</g>
<!-- Node1&#45;&gt;Node2 -->
<g id="edge1" class="edge"><title>Node1&#45;&gt;Node2</title>
<path fill="none" stroke="#63b8ff" d="M51.4342,-95.5433C69.0481,-102.716 93.2063,-112.555 111.607,-120.048"/>
<polygon fill="#63b8ff" stroke="#63b8ff" points="110.318,-123.302 120.899,-123.832 112.958,-116.819 110.318,-123.302"/>
</g>
<!-- Node8 -->
<g id="node8" class="node"><title>Node8</title>
<g id="a_node8"><a xlink:href="classore_1_1data_1_1_x_m_l_utils.html#a37c092916f4bdf10d4fbf6bb9e474db7" target="_top" xlink:title=" ">
<polygon fill="white" stroke="#666666" points="189,-101 90,-101 90,-71 189,-71 189,-101"/>
<text text-anchor="start" x="98" y="-89" font-family="Helvetica,sans-Serif" font-size="10.00">ore::data::XMLUtils</text>
<text text-anchor="middle" x="139.5" y="-78" font-family="Helvetica,sans-Serif" font-size="10.00">::checkNode</text>
</a>
</g>
</g>
<!-- Node1&#45;&gt;Node8 -->
<g id="edge9" class="edge"><title>Node1&#45;&gt;Node8</title>
<path fill="none" stroke="#63b8ff" d="M54.187,-86C61.9771,-86 70.8449,-86 79.8337,-86"/>
<polygon fill="#63b8ff" stroke="#63b8ff" points="79.9829,-89.5001 89.9828,-86 79.9828,-82.5001 79.9829,-89.5001"/>
</g>
<!-- Node9 -->
<g id="node9" class="node"><title>Node9</title>
<g id="a_node9"><a xlink:href="classore_1_1data_1_1_x_m_l_utils.html#a5a1307174ddefdb3aad6e3bd8cc63b27" target="_top" xlink:title=" ">
<polygon fill="white" stroke="#666666" points="189,-50 90,-50 90,-20 189,-20 189,-50"/>
<text text-anchor="start" x="98" y="-38" font-family="Helvetica,sans-Serif" font-size="10.00">ore::data::XMLUtils</text>
<text text-anchor="middle" x="139.5" y="-27" font-family="Helvetica,sans-Serif" font-size="10.00">::getChildValue</text>
</a>
</g>
</g>
<!-- Node1&#45;&gt;Node9 -->
<g id="edge10" class="edge"><title>Node1&#45;&gt;Node9</title>
<path fill="none" stroke="#63b8ff" d="M48.7842,-76.4073C62.163,-70.2324 80.0312,-61.9856 96.2985,-54.4776"/>
<polygon fill="#63b8ff" stroke="#63b8ff" points="98.0327,-57.5321 105.646,-50.1636 95.0992,-51.1764 98.0327,-57.5321"/>
</g>
<!-- Node3 -->
<g id="node3" class="node"><title>Node3</title>
<g id="a_node3"><a xlink:href="group__utilities.html#ga94621f11193864fa1338296232dc5be9" target="_top" xlink:title="Convert text to bool.">
<polygon fill="white" stroke="#666666" points="339.5,-245.5 235.5,-245.5 235.5,-226.5 339.5,-226.5 339.5,-245.5"/>
<text text-anchor="middle" x="287.5" y="-233.5" font-family="Helvetica,sans-Serif" font-size="10.00">ore::data::parseBool</text>
</a>
</g>
</g>
<!-- Node2&#45;&gt;Node3 -->
<g id="edge2" class="edge"><title>Node2&#45;&gt;Node3</title>
<path fill="none" stroke="#63b8ff" d="M147.267,-140.519C160.305,-158.175 190.673,-196.1 225,-217 228.445,-219.098 232.141,-220.981 235.949,-222.67"/>
<polygon fill="#63b8ff" stroke="#63b8ff" points="234.98,-226.05 245.566,-226.476 237.556,-219.542 234.98,-226.05"/>
</g>
<!-- Node4 -->
<g id="node4" class="node"><title>Node4</title>
<g id="a_node4"><a xlink:href="group__utilities.html#ga86adcf55f91e340ff40783964666e732" target="_top" xlink:title="Convert text to QuantLib::BusinessDayConvention.">
<polygon fill="white" stroke="#666666" points="350,-208 225,-208 225,-178 350,-178 350,-208"/>
<text text-anchor="start" x="233" y="-196" font-family="Helvetica,sans-Serif" font-size="10.00">ore::data::parseBusiness</text>
<text text-anchor="middle" x="287.5" y="-185" font-family="Helvetica,sans-Serif" font-size="10.00">DayConvention</text>
</a>
</g>
</g>
<!-- Node2&#45;&gt;Node4 -->
<g id="edge4" class="edge"><title>Node2&#45;&gt;Node4</title>
<path fill="none" stroke="#63b8ff" d="M158.19,-139.269C175.208,-147.149 201.714,-159.228 225,-169 229.094,-170.718 233.356,-172.465 237.643,-174.194"/>
<polygon fill="#63b8ff" stroke="#63b8ff" points="236.426,-177.477 247.011,-177.93 239.019,-170.975 236.426,-177.477"/>
</g>
<!-- Node5 -->
<g id="node5" class="node"><title>Node5</title>
<g id="a_node5"><a xlink:href="group__utilities.html#ga0f72d6fcccae10a674bdcd5095200f14" target="_top" xlink:title="Convert text to QuantLib::Calendar.">
<polygon fill="white" stroke="#666666" points="349,-159.5 226,-159.5 226,-140.5 349,-140.5 349,-159.5"/>
<text text-anchor="middle" x="287.5" y="-147.5" font-family="Helvetica,sans-Serif" font-size="10.00">ore::data::parseCalendar</text>
</a>
</g>
</g>
<!-- Node2&#45;&gt;Node5 -->
<g id="edge5" class="edge"><title>Node2&#45;&gt;Node5</title>
<path fill="none" stroke="#63b8ff" d="M158.111,-133.292C172.646,-135.183 194.289,-138 215.681,-140.784"/>
<polygon fill="#63b8ff" stroke="#63b8ff" points="215.429,-144.28 225.797,-142.1 216.332,-137.339 215.429,-144.28"/>
</g>
<!-- Node6 -->
<g id="node6" class="node"><title>Node6</title>
<g id="a_node6"><a xlink:href="group__utilities.html#ga6e9e781a58e78200301c76161589fc7b" target="_top" xlink:title="Convert text to QuantLib::Currency.">
<polygon fill="white" stroke="#666666" points="349.5,-122.5 225.5,-122.5 225.5,-103.5 349.5,-103.5 349.5,-122.5"/>
<text text-anchor="middle" x="287.5" y="-110.5" font-family="Helvetica,sans-Serif" font-size="10.00">ore::data::parseCurrency</text>
</a>
</g>
</g>
<!-- Node2&#45;&gt;Node6 -->
<g id="edge6" class="edge"><title>Node2&#45;&gt;Node6</title>
<path fill="none" stroke="#63b8ff" d="M158.111,-128.829C172.581,-127.045 194.094,-124.393 215.392,-121.767"/>
<polygon fill="#63b8ff" stroke="#63b8ff" points="215.969,-125.222 225.466,-120.525 215.113,-118.275 215.969,-125.222"/>
</g>
<!-- Node7 -->
<g id="node7" class="node"><title>Node7</title>
<g id="a_node7"><a xlink:href="group__utilities.html#gad1db2a68f9a73667c3b4084d63955bdd" target="_top" xlink:title="Convert text to Real.">
<polygon fill="white" stroke="#666666" points="339.5,-67.5 235.5,-67.5 235.5,-48.5 339.5,-48.5 339.5,-67.5"/>
<text text-anchor="middle" x="287.5" y="-55.5" font-family="Helvetica,sans-Serif" font-size="10.00">ore::data::parseReal</text>
</a>
</g>
</g>
<!-- Node2&#45;&gt;Node7 -->
<g id="edge7" class="edge"><title>Node2&#45;&gt;Node7</title>
<path fill="none" stroke="#63b8ff" d="M158.166,-123.759C167.429,-119.859 178.917,-114.862 189,-110 213.651,-98.1138 241.105,-83.3273 260.583,-72.5639"/>
<polygon fill="#63b8ff" stroke="#63b8ff" points="262.416,-75.5498 269.457,-67.6335 259.016,-69.4307 262.416,-75.5498"/>
</g>
<!-- Node3&#45;&gt;Node3 -->
<g id="edge3" class="edge"><title>Node3&#45;&gt;Node3</title>
<path fill="none" stroke="#63b8ff" d="M264.689,-245.583C253.592,-254.234 261.195,-263.5 287.5,-263.5 304.351,-263.5 313.528,-259.697 315.03,-254.689"/>
<polygon fill="#63b8ff" stroke="#63b8ff" points="318.019,-252.852 310.311,-245.583 311.804,-256.072 318.019,-252.852"/>
</g>
<!-- Node7&#45;&gt;Node7 -->
<g id="edge8" class="edge"><title>Node7&#45;&gt;Node7</title>
<path fill="none" stroke="#63b8ff" d="M264.689,-67.5828C253.592,-76.2337 261.195,-85.5 287.5,-85.5 304.351,-85.5 313.528,-81.6971 315.03,-76.6894"/>
<polygon fill="#63b8ff" stroke="#63b8ff" points="318.019,-74.8515 310.311,-67.5828 311.804,-78.0719 318.019,-74.8515"/>
</g>
<!-- Node10 -->
<g id="node10" class="node"><title>Node10</title>
<g id="a_node10"><a xlink:href="classore_1_1data_1_1_x_m_l_utils.html#a6704501b110fa9d056096df3e05f0df2" target="_top" xlink:title="Get a node&#39;s value.">
<polygon fill="white" stroke="#666666" points="337,-30 238,-30 238,-0 337,-0 337,-30"/>
<text text-anchor="start" x="246" y="-18" font-family="Helvetica,sans-Serif" font-size="10.00">ore::data::XMLUtils</text>
<text text-anchor="middle" x="287.5" y="-7" font-family="Helvetica,sans-Serif" font-size="10.00">::getNodeValue</text>
</a>
</g>
</g>
<!-- Node9&#45;&gt;Node10 -->
<g id="edge11" class="edge"><title>Node9&#45;&gt;Node10</title>
<path fill="none" stroke="#63b8ff" d="M189.116,-28.3403C201.421,-26.6546 214.771,-24.8259 227.527,-23.0785"/>
<polygon fill="#63b8ff" stroke="#63b8ff" points="228.166,-26.5237 237.599,-21.6988 227.216,-19.5885 228.166,-26.5237"/>
</g>
</g>
</svg>
