<?xml version="1.0" encoding="UTF-8" standalone="no"?>
<!DOCTYPE svg PUBLIC "-//W3C//DTD SVG 1.1//EN"
 "http://www.w3.org/Graphics/SVG/1.1/DTD/svg11.dtd">
<!-- Generated by graphviz version 2.38.0 (20140413.2041)
 -->
<!-- Title: populateFromBondReferenceData Pages: 1 -->
<!--zoomable 312 -->
<svg id="main" version="1.1" xmlns="http://www.w3.org/2000/svg" xmlns:xlink="http://www.w3.org/1999/xlink" xml:space="preserve" onload="init(evt)">
<style type="text/css"><![CDATA[
.edge:hover path { stroke: red; }
.edge:hover polygon { stroke: red; fill: red; }
]]></style>
<script type="text/javascript"><![CDATA[
var edges = document.getElementsByTagName('g');
if (edges && edges.length) {
  for (var i=0;i<edges.length;i++) {
    if (edges[i].id.substr(0,4)=='edge') {
      edges[i].setAttribute('class','edge');
    }
  }
}
]]></script>
        <defs>
                <circle id="rim" cx="0" cy="0" r="7"/>
                <circle id="rim2" cx="0" cy="0" r="3.5"/>
                <g id="zoomPlus">
                        <use xlink:href="#rim" fill="#404040">
                                <set attributeName="fill" to="#808080" begin="zoomplus.mouseover" end="zoomplus.mouseout"/>
                        </use>
                        <path d="M-4,0h8M0,-4v8" fill="none" stroke="white" stroke-width="1.5" pointer-events="none"/>
                </g>
                <g id="zoomMin">
                        <use xlink:href="#rim" fill="#404040">
                                <set attributeName="fill" to="#808080" begin="zoomminus.mouseover" end="zoomminus.mouseout"/>
                        </use>
                        <path d="M-4,0h8" fill="none" stroke="white" stroke-width="1.5" pointer-events="none"/>
                </g>
                <g id="dirArrow">
                        <path fill="none" stroke="white" stroke-width="1.5" d="M0,-3.0v7 M-2.5,-0.5L0,-3.0L2.5,-0.5"/>
                </g>
               <g id="resetDef">
                       <use xlink:href="#rim2" fill="#404040">
                               <set attributeName="fill" to="#808080" begin="reset.mouseover" end="reset.mouseout"/>
                       </use>
               </g>
        </defs>

<script type="text/javascript">
var viewWidth = 921;
var viewHeight = 312;
var sectionId = 'dynsection-7';
</script>
<script xlink:href="svgpan.js"/>
<svg id="graph" class="graph">
<g id="viewport">
<title>populateFromBondReferenceData</title>
<!-- Node1 -->
<g id="node1" class="node"><title>Node1</title>
<g id="a_node1"><a xlink:title=" ">
<polygon fill="#999999" stroke="#666666" points="162,-185 0,-185 0,-166 162,-166 162,-185"/>
<text text-anchor="middle" x="81" y="-173" font-family="Helvetica,sans-Serif" font-size="10.00">populateFromBondReferenceData</text>
</a>
</g>
</g>
<!-- Node2 -->
<g id="node2" class="node"><title>Node2</title>
<g id="a_node2"><a xlink:href="classore_1_1data_1_1_convertible_bond_data_1_1_callability_data.html#adaeda39d7b8cc716a40c4da65b00ba77" target="_top" xlink:title=" ">
<polygon fill="white" stroke="#666666" points="347.5,-304 216.5,-304 216.5,-263 347.5,-263 347.5,-304"/>
<text text-anchor="start" x="224.5" y="-292" font-family="Helvetica,sans-Serif" font-size="10.00">ore::data::ConvertibleBond</text>
<text text-anchor="start" x="224.5" y="-281" font-family="Helvetica,sans-Serif" font-size="10.00">Data::CallabilityData::</text>
<text text-anchor="middle" x="282" y="-270" font-family="Helvetica,sans-Serif" font-size="10.00">initialised</text>
</a>
</g>
</g>
<!-- Node1&#45;&gt;Node2 -->
<g id="edge1" class="edge"><title>Node1&#45;&gt;Node2</title>
<path fill="none" stroke="#63b8ff" d="M94.2464,-185.226C114.749,-201.158 157.743,-233.081 198,-253.5 201.69,-255.371 205.524,-257.182 209.432,-258.923"/>
<polygon fill="#63b8ff" stroke="#63b8ff" points="208.079,-262.151 218.65,-262.857 210.826,-255.713 208.079,-262.151"/>
</g>
<!-- Node3 -->
<g id="node3" class="node"><title>Node3</title>
<g id="a_node3"><a xlink:href="classore_1_1data_1_1_convertible_bond_data_1_1_conversion_data.html#adaeda39d7b8cc716a40c4da65b00ba77" target="_top" xlink:title=" ">
<polygon fill="white" stroke="#666666" points="360.5,-244.5 203.5,-244.5 203.5,-214.5 360.5,-214.5 360.5,-244.5"/>
<text text-anchor="start" x="211.5" y="-232.5" font-family="Helvetica,sans-Serif" font-size="10.00">ore::data::ConvertibleBond</text>
<text text-anchor="middle" x="282" y="-221.5" font-family="Helvetica,sans-Serif" font-size="10.00">Data::ConversionData::initialised</text>
</a>
</g>
</g>
<!-- Node1&#45;&gt;Node3 -->
<g id="edge2" class="edge"><title>Node1&#45;&gt;Node3</title>
<path fill="none" stroke="#63b8ff" d="M117.119,-185.03C144.32,-192.411 182.771,-202.845 215.592,-211.751"/>
<polygon fill="#63b8ff" stroke="#63b8ff" points="215.011,-215.22 225.579,-214.461 216.844,-208.464 215.011,-215.22"/>
</g>
<!-- Node4 -->
<g id="node4" class="node"><title>Node4</title>
<g id="a_node4"><a xlink:href="classore_1_1data_1_1_convertible_bond_data_1_1_dividend_protection_data.html#adaeda39d7b8cc716a40c4da65b00ba77" target="_top" xlink:title=" ">
<polygon fill="white" stroke="#666666" points="353.5,-196 210.5,-196 210.5,-155 353.5,-155 353.5,-196"/>
<text text-anchor="start" x="218.5" y="-184" font-family="Helvetica,sans-Serif" font-size="10.00">ore::data::ConvertibleBond</text>
<text text-anchor="start" x="218.5" y="-173" font-family="Helvetica,sans-Serif" font-size="10.00">Data::DividendProtectionData</text>
<text text-anchor="middle" x="282" y="-162" font-family="Helvetica,sans-Serif" font-size="10.00">::initialised</text>
</a>
</g>
</g>
<!-- Node1&#45;&gt;Node4 -->
<g id="edge3" class="edge"><title>Node1&#45;&gt;Node4</title>
<path fill="none" stroke="#63b8ff" d="M162.081,-175.5C174.693,-175.5 187.739,-175.5 200.364,-175.5"/>
<polygon fill="#63b8ff" stroke="#63b8ff" points="200.383,-179 210.383,-175.5 200.383,-172 200.383,-179"/>
</g>
<!-- Node5 -->
<g id="node5" class="node"><title>Node5</title>
<g id="a_node5"><a xlink:href="classore_1_1data_1_1_bond_data.html#a3fe7607641308a7e92896f33818e2327" target="_top" xlink:title="populate data from reference datum and check data for completeness">
<polygon fill="white" stroke="#666666" points="366,-136.5 198,-136.5 198,-106.5 366,-106.5 366,-136.5"/>
<text text-anchor="start" x="206" y="-124.5" font-family="Helvetica,sans-Serif" font-size="10.00">ore::data::BondData</text>
<text text-anchor="middle" x="282" y="-113.5" font-family="Helvetica,sans-Serif" font-size="10.00">::populateFromBondReferenceData</text>
</a>
</g>
</g>
<!-- Node1&#45;&gt;Node5 -->
<g id="edge4" class="edge"><title>Node1&#45;&gt;Node5</title>
<path fill="none" stroke="#63b8ff" d="M117.119,-165.97C144.32,-158.589 182.771,-148.155 215.592,-139.249"/>
<polygon fill="#63b8ff" stroke="#63b8ff" points="216.844,-142.536 225.579,-136.539 215.011,-135.78 216.844,-142.536"/>
</g>
<!-- Node16 -->
<g id="node16" class="node"><title>Node16</title>
<g id="a_node16"><a xlink:href="classore_1_1data_1_1_bond_data.html#a031194740ae3f49e75f29eb540015db4" target="_top" xlink:title=" ">
<polygon fill="white" stroke="#666666" points="334,-88.5 230,-88.5 230,-58.5 334,-58.5 334,-88.5"/>
<text text-anchor="start" x="238" y="-76.5" font-family="Helvetica,sans-Serif" font-size="10.00">ore::data::BondData</text>
<text text-anchor="middle" x="282" y="-65.5" font-family="Helvetica,sans-Serif" font-size="10.00">::securityId</text>
</a>
</g>
</g>
<!-- Node1&#45;&gt;Node16 -->
<g id="edge15" class="edge"><title>Node1&#45;&gt;Node16</title>
<path fill="none" stroke="#63b8ff" d="M93.4548,-165.998C113.477,-149.818 156.658,-116.798 198,-97.5 204.977,-94.2434 212.492,-91.3279 220.05,-88.7476"/>
<polygon fill="#63b8ff" stroke="#63b8ff" points="221.17,-92.064 229.609,-85.6581 219.017,-85.4033 221.17,-92.064"/>
</g>
<!-- Node6 -->
<g id="node6" class="node"><title>Node6</title>
<g id="a_node6"><a xlink:href="classore_1_1data_1_1_bond_data.html#aedc5f6df51431b1e9646155e79afffc5" target="_top" xlink:title="check data for completeness">
<polygon fill="white" stroke="#666666" points="525.5,-184.5 421.5,-184.5 421.5,-154.5 525.5,-154.5 525.5,-184.5"/>
<text text-anchor="start" x="429.5" y="-172.5" font-family="Helvetica,sans-Serif" font-size="10.00">ore::data::BondData</text>
<text text-anchor="middle" x="473.5" y="-161.5" font-family="Helvetica,sans-Serif" font-size="10.00">::checkData</text>
</a>
</g>
</g>
<!-- Node5&#45;&gt;Node6 -->
<g id="edge5" class="edge"><title>Node5&#45;&gt;Node6</title>
<path fill="none" stroke="#63b8ff" d="M342.439,-136.556C364.371,-142.111 389.248,-148.412 411.33,-154.006"/>
<polygon fill="#63b8ff" stroke="#63b8ff" points="410.705,-157.458 421.259,-156.521 412.424,-150.672 410.705,-157.458"/>
</g>
<!-- Node7 -->
<g id="node7" class="node"><title>Node7</title>
<g id="a_node7"><a xlink:href="classore_1_1data_1_1_bond_data.html#a18abf8b19283101238a77c9e6865b673" target="_top" xlink:title=" ">
<polygon fill="white" stroke="#666666" points="525.5,-136.5 421.5,-136.5 421.5,-106.5 525.5,-106.5 525.5,-136.5"/>
<text text-anchor="start" x="429.5" y="-124.5" font-family="Helvetica,sans-Serif" font-size="10.00">ore::data::BondData</text>
<text text-anchor="middle" x="473.5" y="-113.5" font-family="Helvetica,sans-Serif" font-size="10.00">::initialise</text>
</a>
</g>
</g>
<!-- Node5&#45;&gt;Node7 -->
<g id="edge6" class="edge"><title>Node5&#45;&gt;Node7</title>
<path fill="none" stroke="#63b8ff" d="M366.117,-121.5C381.242,-121.5 396.768,-121.5 411.122,-121.5"/>
<polygon fill="#63b8ff" stroke="#63b8ff" points="411.344,-125 421.344,-121.5 411.344,-118 411.344,-125"/>
</g>
<!-- Node12 -->
<g id="node12" class="node"><title>Node12</title>
<g id="a_node12"><a xlink:href="namespaceore_1_1data.html#ac1445af709e015c19b2136c63d9b8d88" target="_top" xlink:title="Populate bond data from name and ReferenceDataManager.">
<polygon fill="white" stroke="#666666" points="545,-67.5 402,-67.5 402,-37.5 545,-37.5 545,-67.5"/>
<text text-anchor="start" x="410" y="-55.5" font-family="Helvetica,sans-Serif" font-size="10.00">ore::data::populateFromBond</text>
<text text-anchor="middle" x="473.5" y="-44.5" font-family="Helvetica,sans-Serif" font-size="10.00">ReferenceData</text>
</a>
</g>
</g>
<!-- Node5&#45;&gt;Node12 -->
<g id="edge11" class="edge"><title>Node5&#45;&gt;Node12</title>
<path fill="none" stroke="#63b8ff" d="M338.651,-106.394C347.846,-103.617 357.234,-100.607 366,-97.5 387.624,-89.8355 411.168,-80.0448 430.608,-71.5543"/>
<polygon fill="#63b8ff" stroke="#63b8ff" points="432.055,-74.7412 439.795,-67.5057 429.232,-68.3356 432.055,-74.7412"/>
</g>
<!-- Node8 -->
<g id="node8" class="node"><title>Node8</title>
<g id="a_node8"><a xlink:href="classore_1_1data_1_1_bond_data.html#a3d8db715d9a2d0185987be6586b6da90" target="_top" xlink:title=" ">
<polygon fill="white" stroke="#666666" points="705.5,-232.5 601.5,-232.5 601.5,-202.5 705.5,-202.5 705.5,-232.5"/>
<text text-anchor="start" x="609.5" y="-220.5" font-family="Helvetica,sans-Serif" font-size="10.00">ore::data::BondData</text>
<text text-anchor="middle" x="653.5" y="-209.5" font-family="Helvetica,sans-Serif" font-size="10.00">::coupons</text>
</a>
</g>
</g>
<!-- Node7&#45;&gt;Node8 -->
<g id="edge7" class="edge"><title>Node7&#45;&gt;Node8</title>
<path fill="none" stroke="#63b8ff" d="M525.625,-134.771C532.47,-137.707 539.14,-141.248 545,-145.5 566.583,-161.161 559.383,-177.885 581,-193.5 584.463,-196.001 588.204,-198.255 592.097,-200.283"/>
<polygon fill="#63b8ff" stroke="#63b8ff" points="590.853,-203.565 601.396,-204.618 593.811,-197.221 590.853,-203.565"/>
</g>
<!-- Node9 -->
<g id="node9" class="node"><title>Node9</title>
<g id="a_node9"><a xlink:href="classore_1_1data_1_1_bond_data.html#a14dac022d83c5fa9597e6344199a41b6" target="_top" xlink:title=" ">
<polygon fill="white" stroke="#666666" points="705.5,-184.5 601.5,-184.5 601.5,-154.5 705.5,-154.5 705.5,-184.5"/>
<text text-anchor="start" x="609.5" y="-172.5" font-family="Helvetica,sans-Serif" font-size="10.00">ore::data::BondData</text>
<text text-anchor="middle" x="653.5" y="-161.5" font-family="Helvetica,sans-Serif" font-size="10.00">::currency</text>
</a>
</g>
</g>
<!-- Node7&#45;&gt;Node9 -->
<g id="edge8" class="edge"><title>Node7&#45;&gt;Node9</title>
<path fill="none" stroke="#63b8ff" d="M525.508,-135.255C546.176,-140.828 570.21,-147.309 591.772,-153.124"/>
<polygon fill="#63b8ff" stroke="#63b8ff" points="590.918,-156.519 601.485,-155.743 592.741,-149.76 590.918,-156.519"/>
</g>
<!-- Node10 -->
<g id="node10" class="node"><title>Node10</title>
<g id="a_node10"><a xlink:href="classore_1_1data_1_1_bond_data.html#a49d5ef4ecab600807fc919eb14ba3513" target="_top" xlink:title=" ">
<polygon fill="white" stroke="#666666" points="705.5,-136.5 601.5,-136.5 601.5,-106.5 705.5,-106.5 705.5,-136.5"/>
<text text-anchor="start" x="609.5" y="-124.5" font-family="Helvetica,sans-Serif" font-size="10.00">ore::data::BondData</text>
<text text-anchor="middle" x="653.5" y="-113.5" font-family="Helvetica,sans-Serif" font-size="10.00">::isPayer</text>
</a>
</g>
</g>
<!-- Node7&#45;&gt;Node10 -->
<g id="edge9" class="edge"><title>Node7&#45;&gt;Node10</title>
<path fill="none" stroke="#63b8ff" d="M525.508,-121.5C546.083,-121.5 569.993,-121.5 591.481,-121.5"/>
<polygon fill="#63b8ff" stroke="#63b8ff" points="591.485,-125 601.485,-121.5 591.485,-118 591.485,-125"/>
</g>
<!-- Node11 -->
<g id="node11" class="node"><title>Node11</title>
<g id="a_node11"><a xlink:href="classore_1_1data_1_1_bond_data.html#a1133ea9e816167481beee5fec9bbc418" target="_top" xlink:title=" ">
<polygon fill="white" stroke="#666666" points="705.5,-88.5 601.5,-88.5 601.5,-58.5 705.5,-58.5 705.5,-88.5"/>
<text text-anchor="start" x="609.5" y="-76.5" font-family="Helvetica,sans-Serif" font-size="10.00">ore::data::BondData</text>
<text text-anchor="middle" x="653.5" y="-65.5" font-family="Helvetica,sans-Serif" font-size="10.00">::zeroBond</text>
</a>
</g>
</g>
<!-- Node7&#45;&gt;Node11 -->
<g id="edge10" class="edge"><title>Node7&#45;&gt;Node11</title>
<path fill="none" stroke="#63b8ff" d="M525.508,-107.745C546.176,-102.172 570.21,-95.6907 591.772,-89.876"/>
<polygon fill="#63b8ff" stroke="#63b8ff" points="592.741,-93.2399 601.485,-87.2569 590.918,-86.4813 592.741,-93.2399"/>
</g>
<!-- Node13 -->
<g id="node13" class="node"><title>Node13</title>
<g id="a_node13"><a xlink:href="classore_1_1data_1_1_j_s_o_n_message.html#a5e21eca2668ed948bdc409b19a78e5bb" target="_top" xlink:title="generate Boost log record to pass to corresponding sinks">
<polygon fill="white" stroke="#666666" points="726,-40 581,-40 581,-21 726,-21 726,-40"/>
<text text-anchor="middle" x="653.5" y="-28" font-family="Helvetica,sans-Serif" font-size="10.00">ore::data::JSONMessage::log</text>
</a>
</g>
</g>
<!-- Node12&#45;&gt;Node13 -->
<g id="edge12" class="edge"><title>Node12&#45;&gt;Node13</title>
<path fill="none" stroke="#63b8ff" d="M545.106,-43.7734C553.547,-42.7301 562.22,-41.6582 570.801,-40.5976"/>
<polygon fill="#63b8ff" stroke="#63b8ff" points="571.318,-44.0604 580.813,-39.3601 570.46,-37.1133 571.318,-44.0604"/>
</g>
<!-- Node14 -->
<g id="node14" class="node"><title>Node14</title>
<g id="a_node14"><a xlink:href="classore_1_1data_1_1_j_s_o_n_message.html#a6a9077605df871e6e961dd0099645b35" target="_top" xlink:title="generate Boost log record &#45; this method is called by log()">
<polygon fill="white" stroke="#666666" points="900.5,-67.5 774.5,-67.5 774.5,-37.5 900.5,-37.5 900.5,-67.5"/>
<text text-anchor="start" x="782.5" y="-55.5" font-family="Helvetica,sans-Serif" font-size="10.00">ore::data::JSONMessage</text>
<text text-anchor="middle" x="837.5" y="-44.5" font-family="Helvetica,sans-Serif" font-size="10.00">::emitLog</text>
</a>
</g>
</g>
<!-- Node13&#45;&gt;Node14 -->
<g id="edge13" class="edge"><title>Node13&#45;&gt;Node14</title>
<path fill="none" stroke="#63b8ff" d="M726.17,-39.1634C738.729,-40.6815 751.802,-42.2618 764.373,-43.7813"/>
<polygon fill="#63b8ff" stroke="#63b8ff" points="763.979,-47.2592 774.327,-44.9846 764.82,-40.3098 763.979,-47.2592"/>
</g>
<!-- Node15 -->
<g id="node15" class="node"><title>Node15</title>
<g id="a_node15"><a xlink:href="classore_1_1data_1_1_j_s_o_n_message.html#a39f83a0ab38c425a8844c8892b93d69e" target="_top" xlink:title="return a std::string for the log file">
<polygon fill="white" stroke="#666666" points="913,-19 762,-19 762,-0 913,-0 913,-19"/>
<text text-anchor="middle" x="837.5" y="-7" font-family="Helvetica,sans-Serif" font-size="10.00">ore::data::JSONMessage::msg</text>
</a>
</g>
</g>
<!-- Node13&#45;&gt;Node15 -->
<g id="edge14" class="edge"><title>Node13&#45;&gt;Node15</title>
<path fill="none" stroke="#63b8ff" d="M726.17,-22.2304C734.607,-21.2569 743.276,-20.2567 751.868,-19.2652"/>
<polygon fill="#63b8ff" stroke="#63b8ff" points="752.369,-22.7307 761.902,-18.1074 751.567,-15.7768 752.369,-22.7307"/>
</g>
</g>
</svg>
        <g id="navigator" transform="translate(0 0)" fill="#404254">
                <rect fill="#f2f5e9" fill-opacity="0.5" stroke="#606060" stroke-width=".5" x="0" y="0" width="60" height="60"/>
                <use id="zoomplus" xlink:href="#zoomPlus" x="17" y="9" onmousedown="handleZoom(evt,'in')"/>
                <use id="zoomminus" xlink:href="#zoomMin" x="42" y="9" onmousedown="handleZoom(evt,'out')"/>
                <use id="reset" xlink:href="#resetDef" x="30" y="36" onmousedown="handleReset()"/>
                <g id="arrowUp" xlink:href="#dirArrow" transform="translate(30 24)" onmousedown="handlePan(0,-1)">
                  <use xlink:href="#rim" fill="#404040">
                        <set attributeName="fill" to="#808080" begin="arrowUp.mouseover" end="arrowUp.mouseout"/>
                  </use>
                  <path fill="none" stroke="white" stroke-width="1.5" d="M0,-3.0v7 M-2.5,-0.5L0,-3.0L2.5,-0.5"/>
                </g>
                <g id="arrowRight" xlink:href="#dirArrow" transform="rotate(90) translate(36 -43)" onmousedown="handlePan(1,0)">
                  <use xlink:href="#rim" fill="#404040">
                        <set attributeName="fill" to="#808080" begin="arrowRight.mouseover" end="arrowRight.mouseout"/>
                  </use>
                  <path fill="none" stroke="white" stroke-width="1.5" d="M0,-3.0v7 M-2.5,-0.5L0,-3.0L2.5,-0.5"/>
                </g>
                <g id="arrowDown" xlink:href="#dirArrow" transform="rotate(180) translate(-30 -48)" onmousedown="handlePan(0,1)">
                  <use xlink:href="#rim" fill="#404040">
                        <set attributeName="fill" to="#808080" begin="arrowDown.mouseover" end="arrowDown.mouseout"/>
                  </use>
                  <path fill="none" stroke="white" stroke-width="1.5" d="M0,-3.0v7 M-2.5,-0.5L0,-3.0L2.5,-0.5"/>
                </g>
                <g id="arrowLeft" xlink:href="#dirArrow" transform="rotate(270) translate(-36 17)" onmousedown="handlePan(-1,0)">
                  <use xlink:href="#rim" fill="#404040">
                        <set attributeName="fill" to="#808080" begin="arrowLeft.mouseover" end="arrowLeft.mouseout"/>
                  </use>
                  <path fill="none" stroke="white" stroke-width="1.5" d="M0,-3.0v7 M-2.5,-0.5L0,-3.0L2.5,-0.5"/>
                </g>
        </g>
        <svg viewBox="0 0 15 15" width="100%" height="30px" preserveAspectRatio="xMaxYMin meet">
         <g id="arrow_out" transform="scale(0.3 0.3)">
          <a xlink:href="classore_1_1data_1_1_convertible_bond_data_ae4961a109c8bfab891589da5a47a4ecd_cgraph_org.svg" target="_base">
           <rect id="button" ry="5" rx="5" y="6" x="6" height="38" width="38"
                fill="#f2f5e9" fill-opacity="0.5" stroke="#606060" stroke-width="1.0"/>
           <path id="arrow"
             d="M 11.500037,31.436501 C 11.940474,20.09759 22.043105,11.32322 32.158766,21.979434 L 37.068811,17.246167 C 37.068811,17.246167 37.088388,32 37.088388,32 L 22.160133,31.978069 C 22.160133,31.978069 26.997745,27.140456 26.997745,27.140456 C 18.528582,18.264221 13.291696,25.230495 11.500037,31.436501 z"
             style="fill:#404040;"/>
          </a>
         </g>
        </svg>
</svg>
