<?xml version="1.0" encoding="UTF-8" standalone="no"?>
<!DOCTYPE svg PUBLIC "-//W3C//DTD SVG 1.1//EN"
 "http://www.w3.org/Graphics/SVG/1.1/DTD/svg11.dtd">
<!-- Generated by graphviz version 2.38.0 (20140413.2041)
 -->
<!-- Title: OisConvention Pages: 1 -->
<svg width="368pt" height="297pt"
 viewBox="0.00 0.00 368.00 297.00" xmlns="http://www.w3.org/2000/svg" xmlns:xlink="http://www.w3.org/1999/xlink">
<g id="graph0" class="graph" transform="scale(1 1) rotate(0) translate(4 293)">
<title>OisConvention</title>
<!-- Node1 -->
<g id="node1" class="node"><title>Node1</title>
<g id="a_node1"><a xlink:title="Detailed constructor.">
<polygon fill="#999999" stroke="#666666" points="79,-148 0,-148 0,-129 79,-129 79,-148"/>
<text text-anchor="middle" x="39.5" y="-136" font-family="Helvetica,sans-Serif" font-size="10.00">OisConvention</text>
</a>
</g>
</g>
<!-- Node2 -->
<g id="node2" class="node"><title>Node2</title>
<g id="a_node2"><a xlink:href="classore_1_1data_1_1_ois_convention.html#a9169b2d8ee8001dbb250c4ce2c26818c" target="_top" xlink:title=" ">
<polygon fill="white" stroke="#666666" points="152,-148 115,-148 115,-129 152,-129 152,-148"/>
<text text-anchor="middle" x="133.5" y="-136" font-family="Helvetica,sans-Serif" font-size="10.00">build</text>
</a>
</g>
</g>
<!-- Node1&#45;&gt;Node2 -->
<g id="edge1" class="edge"><title>Node1&#45;&gt;Node2</title>
<path fill="none" stroke="#63b8ff" d="M79.2496,-138.5C87.7575,-138.5 96.6048,-138.5 104.588,-138.5"/>
<polygon fill="#63b8ff" stroke="#63b8ff" points="104.824,-142 114.824,-138.5 104.824,-135 104.824,-142"/>
</g>
<!-- Node3 -->
<g id="node3" class="node"><title>Node3</title>
<g id="a_node3"><a xlink:href="group__utilities.html#ga94621f11193864fa1338296232dc5be9" target="_top" xlink:title="Convert text to bool.">
<polygon fill="white" stroke="#666666" points="326,-271 222,-271 222,-252 326,-252 326,-271"/>
<text text-anchor="middle" x="274" y="-259" font-family="Helvetica,sans-Serif" font-size="10.00">ore::data::parseBool</text>
</a>
</g>
</g>
<!-- Node2&#45;&gt;Node3 -->
<g id="edge2" class="edge"><title>Node2&#45;&gt;Node3</title>
<path fill="none" stroke="#63b8ff" d="M136.595,-148.311C141.58,-169.149 156.186,-217.921 188,-242.5 195.042,-247.941 203.339,-251.884 211.941,-254.731"/>
<polygon fill="#63b8ff" stroke="#63b8ff" points="211.157,-258.146 221.732,-257.5 213.062,-251.411 211.157,-258.146"/>
</g>
<!-- Node4 -->
<g id="node4" class="node"><title>Node4</title>
<g id="a_node4"><a xlink:href="group__utilities.html#ga86adcf55f91e340ff40783964666e732" target="_top" xlink:title="Convert text to QuantLib::BusinessDayConvention.">
<polygon fill="white" stroke="#666666" points="336.5,-233.5 211.5,-233.5 211.5,-203.5 336.5,-203.5 336.5,-233.5"/>
<text text-anchor="start" x="219.5" y="-221.5" font-family="Helvetica,sans-Serif" font-size="10.00">ore::data::parseBusiness</text>
<text text-anchor="middle" x="274" y="-210.5" font-family="Helvetica,sans-Serif" font-size="10.00">DayConvention</text>
</a>
</g>
</g>
<!-- Node2&#45;&gt;Node4 -->
<g id="edge4" class="edge"><title>Node2&#45;&gt;Node4</title>
<path fill="none" stroke="#63b8ff" d="M141.281,-148.343C150.442,-160.902 167.954,-182.437 188,-194.5 192.403,-197.15 197.111,-199.517 201.967,-201.631"/>
<polygon fill="#63b8ff" stroke="#63b8ff" points="200.863,-204.958 211.449,-205.389 203.442,-198.45 200.863,-204.958"/>
</g>
<!-- Node5 -->
<g id="node5" class="node"><title>Node5</title>
<g id="a_node5"><a xlink:href="group__utilities.html#ga0f72d6fcccae10a674bdcd5095200f14" target="_top" xlink:title="Convert text to QuantLib::Calendar.">
<polygon fill="white" stroke="#666666" points="335.5,-185 212.5,-185 212.5,-166 335.5,-166 335.5,-185"/>
<text text-anchor="middle" x="274" y="-173" font-family="Helvetica,sans-Serif" font-size="10.00">ore::data::parseCalendar</text>
</a>
</g>
</g>
<!-- Node2&#45;&gt;Node5 -->
<g id="edge5" class="edge"><title>Node2&#45;&gt;Node5</title>
<path fill="none" stroke="#63b8ff" d="M152.143,-145.431C162.483,-149.324 175.858,-154.074 188,-157.5 195.844,-159.713 204.163,-161.793 212.408,-163.699"/>
<polygon fill="#63b8ff" stroke="#63b8ff" points="211.867,-167.165 222.39,-165.934 213.397,-160.334 211.867,-167.165"/>
</g>
<!-- Node6 -->
<g id="node6" class="node"><title>Node6</title>
<g id="a_node6"><a xlink:href="group__utilities.html#ga0b999041e08d6369c8a8c49db2cefe1c" target="_top" xlink:title="Convert text to QuantLib::DateGeneration::Rule.">
<polygon fill="white" stroke="#666666" points="360,-148 188,-148 188,-129 360,-129 360,-148"/>
<text text-anchor="middle" x="274" y="-136" font-family="Helvetica,sans-Serif" font-size="10.00">ore::data::parseDateGenerationRule</text>
</a>
</g>
</g>
<!-- Node2&#45;&gt;Node6 -->
<g id="edge6" class="edge"><title>Node2&#45;&gt;Node6</title>
<path fill="none" stroke="#63b8ff" d="M152.041,-138.5C159.172,-138.5 168.003,-138.5 177.622,-138.5"/>
<polygon fill="#63b8ff" stroke="#63b8ff" points="177.893,-142 187.893,-138.5 177.893,-135 177.893,-142"/>
</g>
<!-- Node7 -->
<g id="node7" class="node"><title>Node7</title>
<g id="a_node7"><a xlink:href="group__utilities.html#gaefb008d0de256c79140545d9c7549093" target="_top" xlink:title="Convert text to QuantLib::DayCounter.">
<polygon fill="white" stroke="#666666" points="342,-111 206,-111 206,-92 342,-92 342,-111"/>
<text text-anchor="middle" x="274" y="-99" font-family="Helvetica,sans-Serif" font-size="10.00">ore::data::parseDayCounter</text>
</a>
</g>
</g>
<!-- Node2&#45;&gt;Node7 -->
<g id="edge7" class="edge"><title>Node2&#45;&gt;Node7</title>
<path fill="none" stroke="#63b8ff" d="M152.189,-132.03C162.543,-128.373 175.918,-123.873 188,-120.5 197.08,-117.965 206.778,-115.538 216.256,-113.317"/>
<polygon fill="#63b8ff" stroke="#63b8ff" points="217.051,-116.725 226.017,-111.08 215.488,-109.902 217.051,-116.725"/>
</g>
<!-- Node8 -->
<g id="node8" class="node"><title>Node8</title>
<g id="a_node8"><a xlink:href="group__utilities.html#ga8ecdc1d4eace894d29940dc88c5e2043" target="_top" xlink:title="Convert text to QuantLib::Frequency.">
<polygon fill="white" stroke="#666666" points="339.5,-74 208.5,-74 208.5,-55 339.5,-55 339.5,-74"/>
<text text-anchor="middle" x="274" y="-62" font-family="Helvetica,sans-Serif" font-size="10.00">ore::data::parseFrequency</text>
</a>
</g>
</g>
<!-- Node2&#45;&gt;Node8 -->
<g id="edge8" class="edge"><title>Node2&#45;&gt;Node8</title>
<path fill="none" stroke="#63b8ff" d="M141.223,-128.666C150.322,-116.152 167.766,-94.8064 188,-83.5 192.154,-81.1788 196.571,-79.1412 201.124,-77.3525"/>
<polygon fill="#63b8ff" stroke="#63b8ff" points="202.342,-80.6342 210.619,-74.0195 200.024,-74.0293 202.342,-80.6342"/>
</g>
<!-- Node9 -->
<g id="node9" class="node"><title>Node9</title>
<g id="a_node9"><a xlink:href="group__utilities.html#ga2d18ab5807f92319c9db2c13f4904738" target="_top" xlink:title="Convert std::string to QuantLib::IborIndex.">
<polygon fill="white" stroke="#666666" points="336,-19 212,-19 212,-0 336,-0 336,-19"/>
<text text-anchor="middle" x="274" y="-7" font-family="Helvetica,sans-Serif" font-size="10.00">ore::data::parseIborIndex</text>
</a>
</g>
</g>
<!-- Node2&#45;&gt;Node9 -->
<g id="edge9" class="edge"><title>Node2&#45;&gt;Node9</title>
<path fill="none" stroke="#63b8ff" d="M137.786,-128.835C144.482,-110.46 161.364,-70.209 188,-46.5 199.624,-36.1538 214.592,-28.3449 228.721,-22.6326"/>
<polygon fill="#63b8ff" stroke="#63b8ff" points="230.199,-25.8157 238.316,-19.0074 227.725,-19.2674 230.199,-25.8157"/>
</g>
<!-- Node3&#45;&gt;Node3 -->
<g id="edge3" class="edge"><title>Node3&#45;&gt;Node3</title>
<path fill="none" stroke="#63b8ff" d="M252.422,-271.083C241.924,-279.734 249.117,-289 274,-289 289.941,-289 298.621,-285.197 300.042,-280.189"/>
<polygon fill="#63b8ff" stroke="#63b8ff" points="303.122,-278.522 295.578,-271.083 296.836,-281.603 303.122,-278.522"/>
</g>
<!-- Node9&#45;&gt;Node9 -->
<g id="edge10" class="edge"><title>Node9&#45;&gt;Node9</title>
<path fill="none" stroke="#63b8ff" d="M252.422,-19.0828C241.924,-27.7337 249.117,-37 274,-37 289.941,-37 298.621,-33.1971 300.042,-28.1894"/>
<polygon fill="#63b8ff" stroke="#63b8ff" points="303.122,-26.5218 295.578,-19.0828 296.836,-29.6027 303.122,-26.5218"/>
</g>
</g>
</svg>
