<?xml version="1.0" encoding="UTF-8" standalone="no"?>
<!DOCTYPE svg PUBLIC "-//W3C//DTD SVG 1.1//EN"
 "http://www.w3.org/Graphics/SVG/1.1/DTD/svg11.dtd">
<!-- Generated by graphviz version 2.38.0 (20140413.2041)
 -->
<!-- Title: validate Pages: 1 -->
<svg width="245pt" height="76pt"
 viewBox="0.00 0.00 245.00 75.50" xmlns="http://www.w3.org/2000/svg" xmlns:xlink="http://www.w3.org/1999/xlink">
<g id="graph0" class="graph" transform="scale(1 1) rotate(0) translate(4 71.5)">
<title>validate</title>
<!-- Node1 -->
<g id="node1" class="node"><title>Node1</title>
<g id="a_node1"><a xlink:title="Validate the configuration.">
<polygon fill="#999999" stroke="#666666" points="49,-40 0,-40 0,-21 49,-21 49,-40"/>
<text text-anchor="middle" x="24.5" y="-28" font-family="Helvetica,sans-Serif" font-size="10.00">validate</text>
</a>
</g>
</g>
<!-- Node2 -->
<g id="node2" class="node"><title>Node2</title>
<g id="a_node2"><a xlink:href="group__utilities.html#ga6f1305f9488413a2a458413f16f4a90f" target="_top" xlink:title="Parse SabrParametricVolatility::ModelVariant.">
<polygon fill="white" stroke="#666666" points="237,-67.5 85,-67.5 85,-37.5 237,-37.5 237,-67.5"/>
<text text-anchor="start" x="93" y="-55.5" font-family="Helvetica,sans-Serif" font-size="10.00">ore::data::parseSabrParametric</text>
<text text-anchor="middle" x="161" y="-44.5" font-family="Helvetica,sans-Serif" font-size="10.00">VolatilityModelVariant</text>
</a>
</g>
</g>
<!-- Node1&#45;&gt;Node2 -->
<g id="edge1" class="edge"><title>Node1&#45;&gt;Node2</title>
<path fill="none" stroke="#63b8ff" d="M49.2363,-34.3825C56.7925,-35.6185 65.6331,-37.0645 74.966,-38.5911"/>
<polygon fill="#63b8ff" stroke="#63b8ff" points="74.4031,-42.0455 84.837,-40.2057 75.5331,-35.1373 74.4031,-42.0455"/>
</g>
<!-- Node3 -->
<g id="node3" class="node"><title>Node3</title>
<g id="a_node3"><a xlink:href="group__utilities.html#ga5337b41aa68358864cf719c026c4be8c" target="_top" xlink:title=" ">
<polygon fill="white" stroke="#666666" points="210,-19 112,-19 112,-0 210,-0 210,-19"/>
<text text-anchor="middle" x="161" y="-7" font-family="Helvetica,sans-Serif" font-size="10.00">ore::data::tryParse</text>
</a>
</g>
</g>
<!-- Node1&#45;&gt;Node3 -->
<g id="edge2" class="edge"><title>Node1&#45;&gt;Node3</title>
<path fill="none" stroke="#63b8ff" d="M49.2363,-26.794C63.9392,-24.4983 83.5051,-21.4434 102.099,-18.5403"/>
<polygon fill="#63b8ff" stroke="#63b8ff" points="102.655,-21.9959 111.996,-16.9951 101.575,-15.0797 102.655,-21.9959"/>
</g>
</g>
</svg>
