<?xml version="1.0" encoding="UTF-8" standalone="no"?>
<!DOCTYPE svg PUBLIC "-//W3C//DTD SVG 1.1//EN"
 "http://www.w3.org/Graphics/SVG/1.1/DTD/svg11.dtd">
<!-- Generated by graphviz version 2.38.0 (20140413.2041)
 -->
<!-- Title: quote Pages: 1 -->
<!--zoomable 566 -->
<svg id="main" version="1.1" xmlns="http://www.w3.org/2000/svg" xmlns:xlink="http://www.w3.org/1999/xlink" xml:space="preserve" onload="init(evt)">
<style type="text/css"><![CDATA[
.edge:hover path { stroke: red; }
.edge:hover polygon { stroke: red; fill: red; }
]]></style>
<script type="text/javascript"><![CDATA[
var edges = document.getElementsByTagName('g');
if (edges && edges.length) {
  for (var i=0;i<edges.length;i++) {
    if (edges[i].id.substr(0,4)=='edge') {
      edges[i].setAttribute('class','edge');
    }
  }
}
]]></script>
        <defs>
                <circle id="rim" cx="0" cy="0" r="7"/>
                <circle id="rim2" cx="0" cy="0" r="3.5"/>
                <g id="zoomPlus">
                        <use xlink:href="#rim" fill="#404040">
                                <set attributeName="fill" to="#808080" begin="zoomplus.mouseover" end="zoomplus.mouseout"/>
                        </use>
                        <path d="M-4,0h8M0,-4v8" fill="none" stroke="white" stroke-width="1.5" pointer-events="none"/>
                </g>
                <g id="zoomMin">
                        <use xlink:href="#rim" fill="#404040">
                                <set attributeName="fill" to="#808080" begin="zoomminus.mouseover" end="zoomminus.mouseout"/>
                        </use>
                        <path d="M-4,0h8" fill="none" stroke="white" stroke-width="1.5" pointer-events="none"/>
                </g>
                <g id="dirArrow">
                        <path fill="none" stroke="white" stroke-width="1.5" d="M0,-3.0v7 M-2.5,-0.5L0,-3.0L2.5,-0.5"/>
                </g>
               <g id="resetDef">
                       <use xlink:href="#rim2" fill="#404040">
                               <set attributeName="fill" to="#808080" begin="reset.mouseover" end="reset.mouseout"/>
                       </use>
               </g>
        </defs>

<script type="text/javascript">
var viewWidth = 546;
var viewHeight = 566;
var sectionId = 'dynsection-12';
</script>
<script xlink:href="svgpan.js"/>
<svg id="graph" class="graph">
<g id="viewport">
<title>quote</title>
<!-- Node1 -->
<g id="node1" class="node"><title>Node1</title>
<g id="a_node1"><a xlink:title="Utility to build a quote, optional flag defaults to false.">
<polygon fill="#999999" stroke="#666666" points="538,-306.5 497,-306.5 497,-287.5 538,-287.5 538,-306.5"/>
<text text-anchor="middle" x="517.5" y="-294.5" font-family="Helvetica,sans-Serif" font-size="10.00">quote</text>
</a>
</g>
</g>
<!-- Node2 -->
<g id="node2" class="node"><title>Node2</title>
<g id="a_node2"><a xlink:href="classore_1_1data_1_1_yield_curve_segment.html#a6ceb00e19f07f7cb59e6c59642565fce" target="_top" xlink:title="Detailed constructor &#45; assumes all quotes are mandatory.">
<polygon fill="white" stroke="#666666" points="461,-325.5 360,-325.5 360,-306.5 461,-306.5 461,-325.5"/>
<text text-anchor="middle" x="410.5" y="-313.5" font-family="Helvetica,sans-Serif" font-size="10.00">YieldCurveSegment</text>
</a>
</g>
</g>
<!-- Node1&#45;&gt;Node2 -->
<g id="edge1" class="edge"><title>Node1&#45;&gt;Node2</title>
<path fill="none" stroke="#63b8ff" d="M486.851,-302.365C478.876,-303.808 470.027,-305.409 461.278,-306.993"/>
<polygon fill="#63b8ff" stroke="#63b8ff" points="487.533,-305.799 496.75,-300.574 486.287,-298.91 487.533,-305.799"/>
</g>
<!-- Node3 -->
<g id="node3" class="node"><title>Node3</title>
<g id="a_node3"><a xlink:href="classore_1_1data_1_1_yield_curve_segment.html#a7741ae0fc924943de5bfe02928262eb7" target="_top" xlink:title=" ">
<polygon fill="white" stroke="#666666" points="437.5,-288.5 383.5,-288.5 383.5,-269.5 437.5,-269.5 437.5,-288.5"/>
<text text-anchor="middle" x="410.5" y="-276.5" font-family="Helvetica,sans-Serif" font-size="10.00">fromXML</text>
</a>
</g>
</g>
<!-- Node1&#45;&gt;Node3 -->
<g id="edge2" class="edge"><title>Node1&#45;&gt;Node3</title>
<path fill="none" stroke="#63b8ff" d="M486.633,-291.88C471.143,-289.224 452.402,-286.012 437.512,-283.459"/>
<polygon fill="#63b8ff" stroke="#63b8ff" points="486.303,-295.374 496.75,-293.614 487.485,-288.475 486.303,-295.374"/>
</g>
<!-- Node4 -->
<g id="node4" class="node"><title>Node4</title>
<g id="a_node4"><a xlink:href="classore_1_1data_1_1_direct_yield_curve_segment.html#a7741ae0fc924943de5bfe02928262eb7" target="_top" xlink:title=" ">
<polygon fill="white" stroke="#666666" points="317.5,-558 185.5,-558 185.5,-528 317.5,-528 317.5,-558"/>
<text text-anchor="start" x="193.5" y="-546" font-family="Helvetica,sans-Serif" font-size="10.00">ore::data::DirectYieldCurve</text>
<text text-anchor="middle" x="251.5" y="-535" font-family="Helvetica,sans-Serif" font-size="10.00">Segment::fromXML</text>
</a>
</g>
</g>
<!-- Node3&#45;&gt;Node4 -->
<g id="edge3" class="edge"><title>Node3&#45;&gt;Node4</title>
<path fill="none" stroke="#63b8ff" d="M374.184,-287.232C368.779,-289.881 363.758,-293.38 360,-298 297.201,-375.201 388.431,-443.156 324,-519 321.118,-522.393 317.74,-525.308 314.049,-527.812"/>
<polygon fill="#63b8ff" stroke="#63b8ff" points="375.491,-290.479 383.487,-283.529 372.902,-283.976 375.491,-290.479"/>
</g>
<!-- Node5 -->
<g id="node5" class="node"><title>Node5</title>
<g id="a_node5"><a xlink:href="classore_1_1data_1_1_simple_yield_curve_segment.html#a7741ae0fc924943de5bfe02928262eb7" target="_top" xlink:title=" ">
<polygon fill="white" stroke="#666666" points="320,-510 183,-510 183,-480 320,-480 320,-510"/>
<text text-anchor="start" x="191" y="-498" font-family="Helvetica,sans-Serif" font-size="10.00">ore::data::SimpleYieldCurve</text>
<text text-anchor="middle" x="251.5" y="-487" font-family="Helvetica,sans-Serif" font-size="10.00">Segment::fromXML</text>
</a>
</g>
</g>
<!-- Node3&#45;&gt;Node5 -->
<g id="edge4" class="edge"><title>Node3&#45;&gt;Node5</title>
<path fill="none" stroke="#63b8ff" d="M373.799,-287.644C368.585,-290.242 363.727,-293.617 360,-298 309.122,-357.828 376.142,-412.271 324,-471 320.957,-474.427 317.41,-477.366 313.553,-479.885"/>
<polygon fill="#63b8ff" stroke="#63b8ff" points="375.446,-290.753 383.402,-283.756 372.819,-284.264 375.446,-290.753"/>
</g>
<!-- Node6 -->
<g id="node6" class="node"><title>Node6</title>
<g id="a_node6"><a xlink:href="classore_1_1data_1_1_average_o_i_s_yield_curve_segment.html#a7741ae0fc924943de5bfe02928262eb7" target="_top" xlink:title=" ">
<polygon fill="white" stroke="#666666" points="318.5,-462 184.5,-462 184.5,-432 318.5,-432 318.5,-462"/>
<text text-anchor="start" x="192.5" y="-450" font-family="Helvetica,sans-Serif" font-size="10.00">ore::data::AverageOISYield</text>
<text text-anchor="middle" x="251.5" y="-439" font-family="Helvetica,sans-Serif" font-size="10.00">CurveSegment::fromXML</text>
</a>
</g>
</g>
<!-- Node3&#45;&gt;Node6 -->
<g id="edge5" class="edge"><title>Node3&#45;&gt;Node6</title>
<path fill="none" stroke="#63b8ff" d="M373.919,-287.967C368.731,-290.525 363.85,-293.803 360,-298 320.916,-340.602 363.983,-381.241 324,-423 320.74,-426.405 316.983,-429.327 312.933,-431.834"/>
<polygon fill="#63b8ff" stroke="#63b8ff" points="375.49,-291.106 383.434,-284.096 372.852,-284.622 375.49,-291.106"/>
</g>
<!-- Node7 -->
<g id="node7" class="node"><title>Node7</title>
<g id="a_node7"><a xlink:href="classore_1_1data_1_1_tenor_basis_yield_curve_segment.html#a7741ae0fc924943de5bfe02928262eb7" target="_top" xlink:title=" ">
<polygon fill="white" stroke="#666666" points="317,-414 186,-414 186,-384 317,-384 317,-414"/>
<text text-anchor="start" x="194" y="-402" font-family="Helvetica,sans-Serif" font-size="10.00">ore::data::TenorBasisYield</text>
<text text-anchor="middle" x="251.5" y="-391" font-family="Helvetica,sans-Serif" font-size="10.00">CurveSegment::fromXML</text>
</a>
</g>
</g>
<!-- Node3&#45;&gt;Node7 -->
<g id="edge6" class="edge"><title>Node3&#45;&gt;Node7</title>
<path fill="none" stroke="#63b8ff" d="M374.148,-288.661C369.009,-291.128 364.083,-294.196 360,-298 332.358,-323.75 352.185,-349.845 324,-375 320.19,-378.4 315.882,-381.322 311.315,-383.831"/>
<polygon fill="#63b8ff" stroke="#63b8ff" points="375.563,-291.864 383.495,-284.84 372.915,-285.385 375.563,-291.864"/>
</g>
<!-- Node8 -->
<g id="node8" class="node"><title>Node8</title>
<g id="a_node8"><a xlink:href="classore_1_1data_1_1_cross_ccy_yield_curve_segment.html#a7741ae0fc924943de5bfe02928262eb7" target="_top" xlink:title=" ">
<polygon fill="white" stroke="#666666" points="314,-366 189,-366 189,-336 314,-336 314,-366"/>
<text text-anchor="start" x="197" y="-354" font-family="Helvetica,sans-Serif" font-size="10.00">ore::data::CrossCcyYield</text>
<text text-anchor="middle" x="251.5" y="-343" font-family="Helvetica,sans-Serif" font-size="10.00">CurveSegment::fromXML</text>
</a>
</g>
</g>
<!-- Node3&#45;&gt;Node8 -->
<g id="edge7" class="edge"><title>Node3&#45;&gt;Node8</title>
<path fill="none" stroke="#63b8ff" d="M373.733,-291.185C369.006,-293.239 364.31,-295.519 360,-298 342.194,-308.25 342.021,-317.132 324,-327 317.913,-330.333 311.282,-333.315 304.593,-335.948"/>
<polygon fill="#63b8ff" stroke="#63b8ff" points="375.402,-294.286 383.365,-287.296 372.782,-287.795 375.402,-294.286"/>
</g>
<!-- Node9 -->
<g id="node9" class="node"><title>Node9</title>
<g id="a_node9"><a xlink:href="classore_1_1data_1_1_zero_spreaded_yield_curve_segment.html#a7741ae0fc924943de5bfe02928262eb7" target="_top" xlink:title=" ">
<polygon fill="white" stroke="#666666" points="323,-318 180,-318 180,-288 323,-288 323,-318"/>
<text text-anchor="start" x="188" y="-306" font-family="Helvetica,sans-Serif" font-size="10.00">ore::data::ZeroSpreadedYield</text>
<text text-anchor="middle" x="251.5" y="-295" font-family="Helvetica,sans-Serif" font-size="10.00">CurveSegment::fromXML</text>
</a>
</g>
</g>
<!-- Node3&#45;&gt;Node9 -->
<g id="edge8" class="edge"><title>Node3&#45;&gt;Node9</title>
<path fill="none" stroke="#63b8ff" d="M372.958,-284.586C358.108,-286.856 340.421,-289.56 323.236,-292.187"/>
<polygon fill="#63b8ff" stroke="#63b8ff" points="373.865,-287.988 383.222,-283.017 372.808,-281.068 373.865,-287.988"/>
</g>
<!-- Node10 -->
<g id="node10" class="node"><title>Node10</title>
<g id="a_node10"><a xlink:href="classore_1_1data_1_1_weighted_average_yield_curve_segment.html#a7741ae0fc924943de5bfe02928262eb7" target="_top" xlink:title=" ">
<polygon fill="white" stroke="#666666" points="324,-270 179,-270 179,-240 324,-240 324,-270"/>
<text text-anchor="start" x="187" y="-258" font-family="Helvetica,sans-Serif" font-size="10.00">ore::data::WeightedAverage</text>
<text text-anchor="middle" x="251.5" y="-247" font-family="Helvetica,sans-Serif" font-size="10.00">YieldCurveSegment::fromXML</text>
</a>
</g>
</g>
<!-- Node3&#45;&gt;Node10 -->
<g id="edge9" class="edge"><title>Node3&#45;&gt;Node10</title>
<path fill="none" stroke="#63b8ff" d="M373.129,-273.44C358.537,-271.209 341.184,-268.557 324.254,-265.969"/>
<polygon fill="#63b8ff" stroke="#63b8ff" points="372.808,-276.932 383.222,-274.983 373.865,-270.012 372.808,-276.932"/>
</g>
<!-- Node11 -->
<g id="node11" class="node"><title>Node11</title>
<g id="a_node11"><a xlink:href="classore_1_1data_1_1_yield_plus_default_yield_curve_segment.html#a7741ae0fc924943de5bfe02928262eb7" target="_top" xlink:title=" ">
<polygon fill="white" stroke="#666666" points="324,-222 179,-222 179,-192 324,-192 324,-222"/>
<text text-anchor="start" x="187" y="-210" font-family="Helvetica,sans-Serif" font-size="10.00">ore::data::YieldPlusDefault</text>
<text text-anchor="middle" x="251.5" y="-199" font-family="Helvetica,sans-Serif" font-size="10.00">YieldCurveSegment::fromXML</text>
</a>
</g>
</g>
<!-- Node3&#45;&gt;Node11 -->
<g id="edge10" class="edge"><title>Node3&#45;&gt;Node11</title>
<path fill="none" stroke="#63b8ff" d="M385.879,-264.149C369.049,-253.967 345.662,-240.614 324,-231 316.819,-227.813 309.077,-224.802 301.43,-222.058"/>
<polygon fill="#63b8ff" stroke="#63b8ff" points="384.147,-267.193 394.502,-269.436 387.806,-261.225 384.147,-267.193"/>
</g>
<!-- Node12 -->
<g id="node12" class="node"><title>Node12</title>
<g id="a_node12"><a xlink:href="classore_1_1data_1_1_discount_ratio_yield_curve_segment.html#a7741ae0fc924943de5bfe02928262eb7" target="_top" xlink:title=" ">
<polygon fill="white" stroke="#666666" points="324,-174 179,-174 179,-144 324,-144 324,-174"/>
<text text-anchor="start" x="187" y="-162" font-family="Helvetica,sans-Serif" font-size="10.00">ore::data::DiscountRatio</text>
<text text-anchor="middle" x="251.5" y="-151" font-family="Helvetica,sans-Serif" font-size="10.00">YieldCurveSegment::fromXML</text>
</a>
</g>
</g>
<!-- Node3&#45;&gt;Node12 -->
<g id="edge11" class="edge"><title>Node3&#45;&gt;Node12</title>
<path fill="none" stroke="#63b8ff" d="M397.72,-260.803C382.934,-239.322 355.638,-203.887 324,-183 318.864,-179.609 313.204,-176.655 307.386,-174.09"/>
<polygon fill="#63b8ff" stroke="#63b8ff" points="394.961,-262.972 403.436,-269.33 400.775,-259.075 394.961,-262.972"/>
</g>
<!-- Node14 -->
<g id="node14" class="node"><title>Node14</title>
<g id="a_node14"><a xlink:href="classore_1_1data_1_1_fitted_bond_yield_curve_segment.html#a7741ae0fc924943de5bfe02928262eb7" target="_top" xlink:title=" ">
<polygon fill="white" stroke="#666666" points="316.5,-126 186.5,-126 186.5,-96 316.5,-96 316.5,-126"/>
<text text-anchor="start" x="194.5" y="-114" font-family="Helvetica,sans-Serif" font-size="10.00">ore::data::FittedBondYield</text>
<text text-anchor="middle" x="251.5" y="-103" font-family="Helvetica,sans-Serif" font-size="10.00">CurveSegment::fromXML</text>
</a>
</g>
</g>
<!-- Node3&#45;&gt;Node14 -->
<g id="edge13" class="edge"><title>Node3&#45;&gt;Node14</title>
<path fill="none" stroke="#63b8ff" d="M403.104,-259.797C391.908,-229.058 365.882,-168.828 324,-135 319.722,-131.545 314.923,-128.577 309.889,-126.03"/>
<polygon fill="#63b8ff" stroke="#63b8ff" points="399.841,-261.067 406.448,-269.349 406.447,-258.754 399.841,-261.067"/>
</g>
<!-- Node15 -->
<g id="node15" class="node"><title>Node15</title>
<g id="a_node15"><a xlink:href="classore_1_1data_1_1_ibor_fallback_curve_segment.html#a7741ae0fc924943de5bfe02928262eb7" target="_top" xlink:title=" ">
<polygon fill="white" stroke="#666666" points="320,-78 183,-78 183,-48 320,-48 320,-78"/>
<text text-anchor="start" x="191" y="-66" font-family="Helvetica,sans-Serif" font-size="10.00">ore::data::IborFallbackCurve</text>
<text text-anchor="middle" x="251.5" y="-55" font-family="Helvetica,sans-Serif" font-size="10.00">Segment::fromXML</text>
</a>
</g>
</g>
<!-- Node3&#45;&gt;Node15 -->
<g id="edge14" class="edge"><title>Node3&#45;&gt;Node15</title>
<path fill="none" stroke="#63b8ff" d="M406.191,-259.51C398.647,-221.011 376.587,-134.809 324,-87 320.222,-83.5648 315.935,-80.6193 311.383,-78.0939"/>
<polygon fill="#63b8ff" stroke="#63b8ff" points="402.765,-260.232 408.017,-269.433 409.65,-258.965 402.765,-260.232"/>
</g>
<!-- Node16 -->
<g id="node16" class="node"><title>Node16</title>
<g id="a_node16"><a xlink:href="classore_1_1data_1_1_bond_yield_shifted_yield_curve_segment.html#a7741ae0fc924943de5bfe02928262eb7" target="_top" xlink:title=" ">
<polygon fill="white" stroke="#666666" points="324,-30 179,-30 179,-0 324,-0 324,-30"/>
<text text-anchor="start" x="187" y="-18" font-family="Helvetica,sans-Serif" font-size="10.00">ore::data::BondYieldShifted</text>
<text text-anchor="middle" x="251.5" y="-7" font-family="Helvetica,sans-Serif" font-size="10.00">YieldCurveSegment::fromXML</text>
</a>
</g>
</g>
<!-- Node3&#45;&gt;Node16 -->
<g id="edge15" class="edge"><title>Node3&#45;&gt;Node16</title>
<path fill="none" stroke="#63b8ff" d="M408.139,-259.13C403.963,-213.681 387.431,-101.276 324,-39 320.543,-35.6059 316.592,-32.6916 312.361,-30.1892"/>
<polygon fill="#63b8ff" stroke="#63b8ff" points="404.657,-259.488 408.956,-269.171 411.634,-258.92 404.657,-259.488"/>
</g>
<!-- Node13 -->
<g id="node13" class="node"><title>Node13</title>
<g id="a_node13"><a xlink:href="test_2curveconfig_8cpp.html#ac3d1d49df97d682bf9887e65c4156404" target="_top" xlink:title=" ">
<polygon fill="white" stroke="#666666" points="143,-168.5 0,-168.5 0,-149.5 143,-149.5 143,-168.5"/>
<text text-anchor="middle" x="71.5" y="-156.5" font-family="Helvetica,sans-Serif" font-size="10.00">BOOST_AUTO_TEST_CASE</text>
</a>
</g>
</g>
<!-- Node12&#45;&gt;Node13 -->
<g id="edge12" class="edge"><title>Node12&#45;&gt;Node13</title>
<path fill="none" stroke="#63b8ff" d="M168.845,-159C160.252,-159 151.568,-159 143.115,-159"/>
<polygon fill="#63b8ff" stroke="#63b8ff" points="168.87,-162.5 178.87,-159 168.87,-155.5 168.87,-162.5"/>
</g>
</g>
</svg>
        <g id="navigator" transform="translate(0 0)" fill="#404254">
                <rect fill="#f2f5e9" fill-opacity="0.5" stroke="#606060" stroke-width=".5" x="0" y="0" width="60" height="60"/>
                <use id="zoomplus" xlink:href="#zoomPlus" x="17" y="9" onmousedown="handleZoom(evt,'in')"/>
                <use id="zoomminus" xlink:href="#zoomMin" x="42" y="9" onmousedown="handleZoom(evt,'out')"/>
                <use id="reset" xlink:href="#resetDef" x="30" y="36" onmousedown="handleReset()"/>
                <g id="arrowUp" xlink:href="#dirArrow" transform="translate(30 24)" onmousedown="handlePan(0,-1)">
                  <use xlink:href="#rim" fill="#404040">
                        <set attributeName="fill" to="#808080" begin="arrowUp.mouseover" end="arrowUp.mouseout"/>
                  </use>
                  <path fill="none" stroke="white" stroke-width="1.5" d="M0,-3.0v7 M-2.5,-0.5L0,-3.0L2.5,-0.5"/>
                </g>
                <g id="arrowRight" xlink:href="#dirArrow" transform="rotate(90) translate(36 -43)" onmousedown="handlePan(1,0)">
                  <use xlink:href="#rim" fill="#404040">
                        <set attributeName="fill" to="#808080" begin="arrowRight.mouseover" end="arrowRight.mouseout"/>
                  </use>
                  <path fill="none" stroke="white" stroke-width="1.5" d="M0,-3.0v7 M-2.5,-0.5L0,-3.0L2.5,-0.5"/>
                </g>
                <g id="arrowDown" xlink:href="#dirArrow" transform="rotate(180) translate(-30 -48)" onmousedown="handlePan(0,1)">
                  <use xlink:href="#rim" fill="#404040">
                        <set attributeName="fill" to="#808080" begin="arrowDown.mouseover" end="arrowDown.mouseout"/>
                  </use>
                  <path fill="none" stroke="white" stroke-width="1.5" d="M0,-3.0v7 M-2.5,-0.5L0,-3.0L2.5,-0.5"/>
                </g>
                <g id="arrowLeft" xlink:href="#dirArrow" transform="rotate(270) translate(-36 17)" onmousedown="handlePan(-1,0)">
                  <use xlink:href="#rim" fill="#404040">
                        <set attributeName="fill" to="#808080" begin="arrowLeft.mouseover" end="arrowLeft.mouseout"/>
                  </use>
                  <path fill="none" stroke="white" stroke-width="1.5" d="M0,-3.0v7 M-2.5,-0.5L0,-3.0L2.5,-0.5"/>
                </g>
        </g>
        <svg viewBox="0 0 15 15" width="100%" height="30px" preserveAspectRatio="xMaxYMin meet">
         <g id="arrow_out" transform="scale(0.3 0.3)">
          <a xlink:href="classore_1_1data_1_1_yield_curve_segment_a8eb036f60edc0ee8f9a871d37aa4ff78_icgraph_org.svg" target="_base">
           <rect id="button" ry="5" rx="5" y="6" x="6" height="38" width="38"
                fill="#f2f5e9" fill-opacity="0.5" stroke="#606060" stroke-width="1.0"/>
           <path id="arrow"
             d="M 11.500037,31.436501 C 11.940474,20.09759 22.043105,11.32322 32.158766,21.979434 L 37.068811,17.246167 C 37.068811,17.246167 37.088388,32 37.088388,32 L 22.160133,31.978069 C 22.160133,31.978069 26.997745,27.140456 26.997745,27.140456 C 18.528582,18.264221 13.291696,25.230495 11.500037,31.436501 z"
             style="fill:#404040;"/>
          </a>
         </g>
        </svg>
</svg>
