<?xml version="1.0" encoding="UTF-8" standalone="no"?>
<!DOCTYPE svg PUBLIC "-//W3C//DTD SVG 1.1//EN"
 "http://www.w3.org/Graphics/SVG/1.1/DTD/svg11.dtd">
<!-- Generated by graphviz version 2.38.0 (20140413.2041)
 -->
<!-- Title: toXML Pages: 1 -->
<!--zoomable 542 -->
<svg id="main" version="1.1" xmlns="http://www.w3.org/2000/svg" xmlns:xlink="http://www.w3.org/1999/xlink" xml:space="preserve" onload="init(evt)">
<style type="text/css"><![CDATA[
.edge:hover path { stroke: red; }
.edge:hover polygon { stroke: red; fill: red; }
]]></style>
<script type="text/javascript"><![CDATA[
var edges = document.getElementsByTagName('g');
if (edges && edges.length) {
  for (var i=0;i<edges.length;i++) {
    if (edges[i].id.substr(0,4)=='edge') {
      edges[i].setAttribute('class','edge');
    }
  }
}
]]></script>
        <defs>
                <circle id="rim" cx="0" cy="0" r="7"/>
                <circle id="rim2" cx="0" cy="0" r="3.5"/>
                <g id="zoomPlus">
                        <use xlink:href="#rim" fill="#404040">
                                <set attributeName="fill" to="#808080" begin="zoomplus.mouseover" end="zoomplus.mouseout"/>
                        </use>
                        <path d="M-4,0h8M0,-4v8" fill="none" stroke="white" stroke-width="1.5" pointer-events="none"/>
                </g>
                <g id="zoomMin">
                        <use xlink:href="#rim" fill="#404040">
                                <set attributeName="fill" to="#808080" begin="zoomminus.mouseover" end="zoomminus.mouseout"/>
                        </use>
                        <path d="M-4,0h8" fill="none" stroke="white" stroke-width="1.5" pointer-events="none"/>
                </g>
                <g id="dirArrow">
                        <path fill="none" stroke="white" stroke-width="1.5" d="M0,-3.0v7 M-2.5,-0.5L0,-3.0L2.5,-0.5"/>
                </g>
               <g id="resetDef">
                       <use xlink:href="#rim2" fill="#404040">
                               <set attributeName="fill" to="#808080" begin="reset.mouseover" end="reset.mouseout"/>
                       </use>
               </g>
        </defs>

<script type="text/javascript">
var viewWidth = 418;
var viewHeight = 542;
var sectionId = 'dynsection-10';
</script>
<script xlink:href="svgpan.js"/>
<svg id="graph" class="graph">
<g id="viewport">
<title>toXML</title>
<!-- Node1 -->
<g id="node1" class="node"><title>Node1</title>
<g id="a_node1"><a xlink:title=" ">
<polygon fill="#999999" stroke="#666666" points="410,-264.5 366,-264.5 366,-245.5 410,-245.5 410,-264.5"/>
<text text-anchor="middle" x="388" y="-252.5" font-family="Helvetica,sans-Serif" font-size="10.00">toXML</text>
</a>
</g>
</g>
<!-- Node2 -->
<g id="node2" class="node"><title>Node2</title>
<g id="a_node2"><a xlink:href="classore_1_1data_1_1_barrier_option.html#a98c77e5a9e18de0cd031a56f97459774" target="_top" xlink:title=" ">
<polygon fill="white" stroke="#666666" points="316.5,-510 198.5,-510 198.5,-480 316.5,-480 316.5,-510"/>
<text text-anchor="start" x="206.5" y="-498" font-family="Helvetica,sans-Serif" font-size="10.00">ore::data::BarrierOption</text>
<text text-anchor="middle" x="257.5" y="-487" font-family="Helvetica,sans-Serif" font-size="10.00">::toXML</text>
</a>
</g>
</g>
<!-- Node1&#45;&gt;Node2 -->
<g id="edge1" class="edge"><title>Node1&#45;&gt;Node2</title>
<path fill="none" stroke="#63b8ff" d="M387.631,-274.695C387.872,-316.526 382.446,-414.982 330,-471 326.152,-475.11 321.579,-478.517 316.634,-481.34"/>
<polygon fill="#63b8ff" stroke="#63b8ff" points="391.13,-274.63 387.454,-264.693 384.131,-274.754 391.13,-274.63"/>
</g>
<!-- Node5 -->
<g id="node5" class="node"><title>Node5</title>
<g id="a_node5"><a xlink:href="classore_1_1data_1_1_commodity_option_strip.html#a98c77e5a9e18de0cd031a56f97459774" target="_top" xlink:title=" ">
<polygon fill="white" stroke="#666666" points="327,-462 188,-462 188,-432 327,-432 327,-462"/>
<text text-anchor="start" x="196" y="-450" font-family="Helvetica,sans-Serif" font-size="10.00">ore::data::CommodityOption</text>
<text text-anchor="middle" x="257.5" y="-439" font-family="Helvetica,sans-Serif" font-size="10.00">Strip::toXML</text>
</a>
</g>
</g>
<!-- Node1&#45;&gt;Node5 -->
<g id="edge4" class="edge"><title>Node1&#45;&gt;Node5</title>
<path fill="none" stroke="#63b8ff" d="M385.786,-275.236C382.609,-310.169 371.157,-381.977 330,-423 326.569,-426.42 322.636,-429.353 318.418,-431.868"/>
<polygon fill="#63b8ff" stroke="#63b8ff" points="389.304,-275.139 386.577,-264.901 382.324,-274.604 389.304,-275.139"/>
</g>
<!-- Node6 -->
<g id="node6" class="node"><title>Node6</title>
<g id="a_node6"><a xlink:href="classore_1_1data_1_1_equity_double_touch_option.html#a7efefb9270d6c4933e4c96de0771f17a" target="_top" xlink:title=" ">
<polygon fill="white" stroke="#666666" points="330,-414 185,-414 185,-384 330,-384 330,-414"/>
<text text-anchor="start" x="193" y="-402" font-family="Helvetica,sans-Serif" font-size="10.00">ore::data::EquityDoubleTouch</text>
<text text-anchor="middle" x="257.5" y="-391" font-family="Helvetica,sans-Serif" font-size="10.00">Option::toXML</text>
</a>
</g>
</g>
<!-- Node1&#45;&gt;Node6 -->
<g id="edge5" class="edge"><title>Node1&#45;&gt;Node6</title>
<path fill="none" stroke="#63b8ff" d="M382.762,-274.603C376.053,-301.048 360.497,-347.948 330,-375 326.082,-378.476 321.642,-381.451 316.94,-383.998"/>
<polygon fill="#63b8ff" stroke="#63b8ff" points="386.223,-275.175 385.114,-264.639 379.411,-273.568 386.223,-275.175"/>
</g>
<!-- Node7 -->
<g id="node7" class="node"><title>Node7</title>
<g id="a_node7"><a xlink:href="classore_1_1data_1_1_equity_european_barrier_option.html#a7efefb9270d6c4933e4c96de0771f17a" target="_top" xlink:title=" ">
<polygon fill="white" stroke="#666666" points="322.5,-366 192.5,-366 192.5,-336 322.5,-336 322.5,-366"/>
<text text-anchor="start" x="200.5" y="-354" font-family="Helvetica,sans-Serif" font-size="10.00">ore::data::EquityEuropean</text>
<text text-anchor="middle" x="257.5" y="-343" font-family="Helvetica,sans-Serif" font-size="10.00">BarrierOption::toXML</text>
</a>
</g>
</g>
<!-- Node1&#45;&gt;Node7 -->
<g id="edge6" class="edge"><title>Node1&#45;&gt;Node7</title>
<path fill="none" stroke="#63b8ff" d="M376.595,-273.519C366.595,-289.753 350.064,-312.902 330,-327 325.179,-330.388 319.843,-333.326 314.323,-335.868"/>
<polygon fill="#63b8ff" stroke="#63b8ff" points="379.626,-275.269 381.706,-264.88 373.602,-271.705 379.626,-275.269"/>
</g>
<!-- Node8 -->
<g id="node8" class="node"><title>Node8</title>
<g id="a_node8"><a xlink:href="classore_1_1data_1_1_equity_touch_option.html#a7efefb9270d6c4933e4c96de0771f17a" target="_top" xlink:title=" ">
<polygon fill="white" stroke="#666666" points="329,-318 186,-318 186,-288 329,-288 329,-318"/>
<text text-anchor="start" x="194" y="-306" font-family="Helvetica,sans-Serif" font-size="10.00">ore::data::EquityTouchOption</text>
<text text-anchor="middle" x="257.5" y="-295" font-family="Helvetica,sans-Serif" font-size="10.00">::toXML</text>
</a>
</g>
</g>
<!-- Node1&#45;&gt;Node8 -->
<g id="edge7" class="edge"><title>Node1&#45;&gt;Node8</title>
<path fill="none" stroke="#63b8ff" d="M356.541,-268.32C348.005,-271.917 338.685,-275.719 330,-279 322.038,-282.008 313.51,-285.035 305.216,-287.879"/>
<polygon fill="#63b8ff" stroke="#63b8ff" points="357.943,-271.527 365.769,-264.384 355.197,-265.088 357.943,-271.527"/>
</g>
<!-- Node9 -->
<g id="node9" class="node"><title>Node9</title>
<g id="a_node9"><a xlink:href="classore_1_1data_1_1_fx_digital_barrier_option.html#a7efefb9270d6c4933e4c96de0771f17a" target="_top" xlink:title=" ">
<polygon fill="white" stroke="#666666" points="321.5,-270 193.5,-270 193.5,-240 321.5,-240 321.5,-270"/>
<text text-anchor="start" x="201.5" y="-258" font-family="Helvetica,sans-Serif" font-size="10.00">ore::data::FxDigitalBarrier</text>
<text text-anchor="middle" x="257.5" y="-247" font-family="Helvetica,sans-Serif" font-size="10.00">Option::toXML</text>
</a>
</g>
</g>
<!-- Node1&#45;&gt;Node9 -->
<g id="edge8" class="edge"><title>Node1&#45;&gt;Node9</title>
<path fill="none" stroke="#63b8ff" d="M355.657,-255C345.34,-255 333.472,-255 321.653,-255"/>
<polygon fill="#63b8ff" stroke="#63b8ff" points="355.781,-258.5 365.781,-255 355.781,-251.5 355.781,-258.5"/>
</g>
<!-- Node10 -->
<g id="node10" class="node"><title>Node10</title>
<g id="a_node10"><a xlink:href="classore_1_1data_1_1_fx_double_touch_option.html#a7efefb9270d6c4933e4c96de0771f17a" target="_top" xlink:title=" ">
<polygon fill="white" stroke="#666666" points="321.5,-222 193.5,-222 193.5,-192 321.5,-192 321.5,-222"/>
<text text-anchor="start" x="201.5" y="-210" font-family="Helvetica,sans-Serif" font-size="10.00">ore::data::FxDoubleTouch</text>
<text text-anchor="middle" x="257.5" y="-199" font-family="Helvetica,sans-Serif" font-size="10.00">Option::toXML</text>
</a>
</g>
</g>
<!-- Node1&#45;&gt;Node10 -->
<g id="edge9" class="edge"><title>Node1&#45;&gt;Node10</title>
<path fill="none" stroke="#63b8ff" d="M356.541,-241.68C348.005,-238.083 338.685,-234.281 330,-231 322.038,-227.992 313.51,-224.965 305.216,-222.121"/>
<polygon fill="#63b8ff" stroke="#63b8ff" points="355.197,-244.912 365.769,-245.616 357.943,-238.473 355.197,-244.912"/>
</g>
<!-- Node11 -->
<g id="node11" class="node"><title>Node11</title>
<g id="a_node11"><a xlink:href="classore_1_1data_1_1_fx_european_barrier_option.html#a7efefb9270d6c4933e4c96de0771f17a" target="_top" xlink:title=" ">
<polygon fill="white" stroke="#666666" points="328.5,-174 186.5,-174 186.5,-144 328.5,-144 328.5,-174"/>
<text text-anchor="start" x="194.5" y="-162" font-family="Helvetica,sans-Serif" font-size="10.00">ore::data::FxEuropeanBarrier</text>
<text text-anchor="middle" x="257.5" y="-151" font-family="Helvetica,sans-Serif" font-size="10.00">Option::toXML</text>
</a>
</g>
</g>
<!-- Node1&#45;&gt;Node11 -->
<g id="edge10" class="edge"><title>Node1&#45;&gt;Node11</title>
<path fill="none" stroke="#63b8ff" d="M376.595,-236.481C366.595,-220.247 350.064,-197.098 330,-183 325.179,-179.612 319.843,-176.674 314.323,-174.132"/>
<polygon fill="#63b8ff" stroke="#63b8ff" points="373.602,-238.295 381.706,-245.12 379.626,-234.731 373.602,-238.295"/>
</g>
<!-- Node12 -->
<g id="node12" class="node"><title>Node12</title>
<g id="a_node12"><a xlink:href="classore_1_1data_1_1_fx_touch_option.html#a7efefb9270d6c4933e4c96de0771f17a" target="_top" xlink:title=" ">
<polygon fill="white" stroke="#666666" points="321,-126 194,-126 194,-96 321,-96 321,-126"/>
<text text-anchor="start" x="202" y="-114" font-family="Helvetica,sans-Serif" font-size="10.00">ore::data::FxTouchOption</text>
<text text-anchor="middle" x="257.5" y="-103" font-family="Helvetica,sans-Serif" font-size="10.00">::toXML</text>
</a>
</g>
</g>
<!-- Node1&#45;&gt;Node12 -->
<g id="edge11" class="edge"><title>Node1&#45;&gt;Node12</title>
<path fill="none" stroke="#63b8ff" d="M382.762,-235.397C376.053,-208.952 360.497,-162.052 330,-135 326.082,-131.524 321.642,-128.549 316.94,-126.002"/>
<polygon fill="#63b8ff" stroke="#63b8ff" points="379.411,-236.432 385.114,-245.361 386.223,-234.825 379.411,-236.432"/>
</g>
<!-- Node13 -->
<g id="node13" class="node"><title>Node13</title>
<g id="a_node13"><a xlink:href="classore_1_1data_1_1_knock_out_swap.html#a7efefb9270d6c4933e4c96de0771f17a" target="_top" xlink:title=" ">
<polygon fill="white" stroke="#666666" points="321.5,-78 193.5,-78 193.5,-48 321.5,-48 321.5,-78"/>
<text text-anchor="start" x="201.5" y="-66" font-family="Helvetica,sans-Serif" font-size="10.00">ore::data::KnockOutSwap</text>
<text text-anchor="middle" x="257.5" y="-55" font-family="Helvetica,sans-Serif" font-size="10.00">::toXML</text>
</a>
</g>
</g>
<!-- Node1&#45;&gt;Node13 -->
<g id="edge12" class="edge"><title>Node1&#45;&gt;Node13</title>
<path fill="none" stroke="#63b8ff" d="M385.786,-234.764C382.609,-199.831 371.157,-128.023 330,-87 326.569,-83.5798 322.636,-80.647 318.418,-78.132"/>
<polygon fill="#63b8ff" stroke="#63b8ff" points="382.324,-235.396 386.577,-245.099 389.304,-234.861 382.324,-235.396"/>
</g>
<!-- Node14 -->
<g id="node14" class="node"><title>Node14</title>
<g id="a_node14"><a xlink:href="classore_1_1data_1_1_window_barrier_option.html#a7efefb9270d6c4933e4c96de0771f17a" target="_top" xlink:title=" ">
<polygon fill="white" stroke="#666666" points="319.5,-30 195.5,-30 195.5,-0 319.5,-0 319.5,-30"/>
<text text-anchor="start" x="203.5" y="-18" font-family="Helvetica,sans-Serif" font-size="10.00">ore::data::WindowBarrier</text>
<text text-anchor="middle" x="257.5" y="-7" font-family="Helvetica,sans-Serif" font-size="10.00">Option::toXML</text>
</a>
</g>
</g>
<!-- Node1&#45;&gt;Node14 -->
<g id="edge13" class="edge"><title>Node1&#45;&gt;Node14</title>
<path fill="none" stroke="#63b8ff" d="M387.631,-235.305C387.872,-193.474 382.446,-95.018 330,-39 326.778,-35.559 323.049,-32.6111 319.018,-30.0858"/>
<polygon fill="#63b8ff" stroke="#63b8ff" points="384.131,-235.246 387.454,-245.307 391.13,-235.37 384.131,-235.246"/>
</g>
<!-- Node3 -->
<g id="node3" class="node"><title>Node3</title>
<g id="a_node3"><a xlink:href="classore_1_1data_1_1_fx_option_with_barrier.html#a5c10f5bd7e0435a01713935a199ad5ff" target="_top" xlink:title=" ">
<polygon fill="white" stroke="#666666" points="149,-534 0,-534 0,-504 149,-504 149,-534"/>
<text text-anchor="start" x="8" y="-522" font-family="Helvetica,sans-Serif" font-size="10.00">ore::data::FxOptionWithBarrier</text>
<text text-anchor="middle" x="74.5" y="-511" font-family="Helvetica,sans-Serif" font-size="10.00">::toXML</text>
</a>
</g>
</g>
<!-- Node2&#45;&gt;Node3 -->
<g id="edge2" class="edge"><title>Node2&#45;&gt;Node3</title>
<path fill="none" stroke="#63b8ff" d="M188.184,-504.059C175.459,-505.746 162.111,-507.516 149.232,-509.223"/>
<polygon fill="#63b8ff" stroke="#63b8ff" points="188.781,-507.51 198.234,-502.726 187.861,-500.571 188.781,-507.51"/>
</g>
<!-- Node4 -->
<g id="node4" class="node"><title>Node4</title>
<g id="a_node4"><a xlink:href="classore_1_1data_1_1_equity_option_with_barrier.html#a5c10f5bd7e0435a01713935a199ad5ff" target="_top" xlink:title=" ">
<polygon fill="white" stroke="#666666" points="143,-486 6,-486 6,-456 143,-456 143,-486"/>
<text text-anchor="start" x="14" y="-474" font-family="Helvetica,sans-Serif" font-size="10.00">ore::data::EquityOptionWith</text>
<text text-anchor="middle" x="74.5" y="-463" font-family="Helvetica,sans-Serif" font-size="10.00">Barrier::toXML</text>
</a>
</g>
</g>
<!-- Node2&#45;&gt;Node4 -->
<g id="edge3" class="edge"><title>Node2&#45;&gt;Node4</title>
<path fill="none" stroke="#63b8ff" d="M188.176,-485.94C173.425,-483.984 157.835,-481.917 143.111,-479.965"/>
<polygon fill="#63b8ff" stroke="#63b8ff" points="187.861,-489.429 198.234,-487.274 188.781,-482.49 187.861,-489.429"/>
</g>
</g>
</svg>
        <g id="navigator" transform="translate(0 0)" fill="#404254">
                <rect fill="#f2f5e9" fill-opacity="0.5" stroke="#606060" stroke-width=".5" x="0" y="0" width="60" height="60"/>
                <use id="zoomplus" xlink:href="#zoomPlus" x="17" y="9" onmousedown="handleZoom(evt,'in')"/>
                <use id="zoomminus" xlink:href="#zoomMin" x="42" y="9" onmousedown="handleZoom(evt,'out')"/>
                <use id="reset" xlink:href="#resetDef" x="30" y="36" onmousedown="handleReset()"/>
                <g id="arrowUp" xlink:href="#dirArrow" transform="translate(30 24)" onmousedown="handlePan(0,-1)">
                  <use xlink:href="#rim" fill="#404040">
                        <set attributeName="fill" to="#808080" begin="arrowUp.mouseover" end="arrowUp.mouseout"/>
                  </use>
                  <path fill="none" stroke="white" stroke-width="1.5" d="M0,-3.0v7 M-2.5,-0.5L0,-3.0L2.5,-0.5"/>
                </g>
                <g id="arrowRight" xlink:href="#dirArrow" transform="rotate(90) translate(36 -43)" onmousedown="handlePan(1,0)">
                  <use xlink:href="#rim" fill="#404040">
                        <set attributeName="fill" to="#808080" begin="arrowRight.mouseover" end="arrowRight.mouseout"/>
                  </use>
                  <path fill="none" stroke="white" stroke-width="1.5" d="M0,-3.0v7 M-2.5,-0.5L0,-3.0L2.5,-0.5"/>
                </g>
                <g id="arrowDown" xlink:href="#dirArrow" transform="rotate(180) translate(-30 -48)" onmousedown="handlePan(0,1)">
                  <use xlink:href="#rim" fill="#404040">
                        <set attributeName="fill" to="#808080" begin="arrowDown.mouseover" end="arrowDown.mouseout"/>
                  </use>
                  <path fill="none" stroke="white" stroke-width="1.5" d="M0,-3.0v7 M-2.5,-0.5L0,-3.0L2.5,-0.5"/>
                </g>
                <g id="arrowLeft" xlink:href="#dirArrow" transform="rotate(270) translate(-36 17)" onmousedown="handlePan(-1,0)">
                  <use xlink:href="#rim" fill="#404040">
                        <set attributeName="fill" to="#808080" begin="arrowLeft.mouseover" end="arrowLeft.mouseout"/>
                  </use>
                  <path fill="none" stroke="white" stroke-width="1.5" d="M0,-3.0v7 M-2.5,-0.5L0,-3.0L2.5,-0.5"/>
                </g>
        </g>
        <svg viewBox="0 0 15 15" width="100%" height="30px" preserveAspectRatio="xMaxYMin meet">
         <g id="arrow_out" transform="scale(0.3 0.3)">
          <a xlink:href="classore_1_1data_1_1_barrier_data_a98c77e5a9e18de0cd031a56f97459774_icgraph_org.svg" target="_base">
           <rect id="button" ry="5" rx="5" y="6" x="6" height="38" width="38"
                fill="#f2f5e9" fill-opacity="0.5" stroke="#606060" stroke-width="1.0"/>
           <path id="arrow"
             d="M 11.500037,31.436501 C 11.940474,20.09759 22.043105,11.32322 32.158766,21.979434 L 37.068811,17.246167 C 37.068811,17.246167 37.088388,32 37.088388,32 L 22.160133,31.978069 C 22.160133,31.978069 26.997745,27.140456 26.997745,27.140456 C 18.528582,18.264221 13.291696,25.230495 11.500037,31.436501 z"
             style="fill:#404040;"/>
          </a>
         </g>
        </svg>
</svg>
