<?xml version="1.0" encoding="UTF-8" standalone="no"?>
<!DOCTYPE svg PUBLIC "-//W3C//DTD SVG 1.1//EN"
 "http://www.w3.org/Graphics/SVG/1.1/DTD/svg11.dtd">
<!-- Generated by graphviz version 2.38.0 (20140413.2041)
 -->
<!-- Title: engineImpl Pages: 1 -->
<!--zoomable 865 -->
<svg id="main" version="1.1" xmlns="http://www.w3.org/2000/svg" xmlns:xlink="http://www.w3.org/1999/xlink" xml:space="preserve" onload="init(evt)">
<style type="text/css"><![CDATA[
.edge:hover path { stroke: red; }
.edge:hover polygon { stroke: red; fill: red; }
]]></style>
<script type="text/javascript"><![CDATA[
var edges = document.getElementsByTagName('g');
if (edges && edges.length) {
  for (var i=0;i<edges.length;i++) {
    if (edges[i].id.substr(0,4)=='edge') {
      edges[i].setAttribute('class','edge');
    }
  }
}
]]></script>
        <defs>
                <circle id="rim" cx="0" cy="0" r="7"/>
                <circle id="rim2" cx="0" cy="0" r="3.5"/>
                <g id="zoomPlus">
                        <use xlink:href="#rim" fill="#404040">
                                <set attributeName="fill" to="#808080" begin="zoomplus.mouseover" end="zoomplus.mouseout"/>
                        </use>
                        <path d="M-4,0h8M0,-4v8" fill="none" stroke="white" stroke-width="1.5" pointer-events="none"/>
                </g>
                <g id="zoomMin">
                        <use xlink:href="#rim" fill="#404040">
                                <set attributeName="fill" to="#808080" begin="zoomminus.mouseover" end="zoomminus.mouseout"/>
                        </use>
                        <path d="M-4,0h8" fill="none" stroke="white" stroke-width="1.5" pointer-events="none"/>
                </g>
                <g id="dirArrow">
                        <path fill="none" stroke="white" stroke-width="1.5" d="M0,-3.0v7 M-2.5,-0.5L0,-3.0L2.5,-0.5"/>
                </g>
               <g id="resetDef">
                       <use xlink:href="#rim2" fill="#404040">
                               <set attributeName="fill" to="#808080" begin="reset.mouseover" end="reset.mouseout"/>
                       </use>
               </g>
        </defs>

<script type="text/javascript">
var viewWidth = 447;
var viewHeight = 865;
var sectionId = 'dynsection-2';
</script>
<script xlink:href="svgpan.js"/>
<svg id="graph" class="graph">
<g id="viewport">
<title>engineImpl</title>
<!-- Node1 -->
<g id="node1" class="node"><title>Node1</title>
<g id="a_node1"><a xlink:title=" ">
<polygon fill="#999999" stroke="#666666" points="63,-411 0,-411 0,-392 63,-392 63,-411"/>
<text text-anchor="middle" x="31.5" y="-399" font-family="Helvetica,sans-Serif" font-size="10.00">engineImpl</text>
</a>
</g>
</g>
<!-- Node2 -->
<g id="node2" class="node"><title>Node2</title>
<g id="a_node2"><a xlink:href="classore_1_1data_1_1_engine_builder.html#aaacbfbb4007edcf8c34df2f37f8ebae5" target="_top" xlink:title="Return a configuration (or the default one if key not found)">
<polygon fill="white" stroke="#666666" points="235.5,-856.5 114.5,-856.5 114.5,-826.5 235.5,-826.5 235.5,-856.5"/>
<text text-anchor="start" x="122.5" y="-844.5" font-family="Helvetica,sans-Serif" font-size="10.00">ore::data::EngineBuilder</text>
<text text-anchor="middle" x="175" y="-833.5" font-family="Helvetica,sans-Serif" font-size="10.00">::configuration</text>
</a>
</g>
</g>
<!-- Node1&#45;&gt;Node2 -->
<g id="edge1" class="edge"><title>Node1&#45;&gt;Node2</title>
<path fill="none" stroke="#63b8ff" d="M32.7129,-411.157C34.1447,-467.51 44.0676,-753.565 99,-817.5 101.005,-819.833 103.236,-821.942 105.639,-823.847"/>
<polygon fill="#63b8ff" stroke="#63b8ff" points="104.106,-827.026 114.391,-829.572 107.939,-821.169 104.106,-827.026"/>
</g>
<!-- Node3 -->
<g id="node3" class="node"><title>Node3</title>
<g id="a_node3"><a xlink:href="classore_1_1data_1_1_engine_builder.html#a163cd3dc5a4afac8f3455002ed3310c5" target="_top" xlink:title="Return the engine name.">
<polygon fill="white" stroke="#666666" points="235.5,-808.5 114.5,-808.5 114.5,-778.5 235.5,-778.5 235.5,-808.5"/>
<text text-anchor="start" x="122.5" y="-796.5" font-family="Helvetica,sans-Serif" font-size="10.00">ore::data::EngineBuilder</text>
<text text-anchor="middle" x="175" y="-785.5" font-family="Helvetica,sans-Serif" font-size="10.00">::engine</text>
</a>
</g>
</g>
<!-- Node1&#45;&gt;Node3 -->
<g id="edge2" class="edge"><title>Node1&#45;&gt;Node3</title>
<path fill="none" stroke="#63b8ff" d="M32.9275,-411.052C35.4488,-463.242 49.9866,-713.609 99,-769.5 101.028,-771.813 103.279,-773.904 105.698,-775.796"/>
<polygon fill="#63b8ff" stroke="#63b8ff" points="104.193,-778.991 114.49,-781.486 107.997,-773.114 104.193,-778.991"/>
</g>
<!-- Node4 -->
<g id="node4" class="node"><title>Node4</title>
<g id="a_node4"><a xlink:href="classore_1_1data_1_1_engine_builder.html#a9d7654707f3b935dcf6a7b19df70c085" target="_top" xlink:title=" ">
<polygon fill="white" stroke="#666666" points="235.5,-760.5 114.5,-760.5 114.5,-730.5 235.5,-730.5 235.5,-760.5"/>
<text text-anchor="start" x="122.5" y="-748.5" font-family="Helvetica,sans-Serif" font-size="10.00">ore::data::EngineBuilder</text>
<text text-anchor="middle" x="175" y="-737.5" font-family="Helvetica,sans-Serif" font-size="10.00">::engineParameter</text>
</a>
</g>
</g>
<!-- Node1&#45;&gt;Node4 -->
<g id="edge3" class="edge"><title>Node1&#45;&gt;Node4</title>
<path fill="none" stroke="#63b8ff" d="M33.2078,-411.046C36.9501,-459.05 55.9082,-673.638 99,-721.5 101.015,-723.738 103.239,-725.769 105.621,-727.612"/>
<polygon fill="#63b8ff" stroke="#63b8ff" points="103.952,-730.7 114.252,-733.178 107.745,-724.817 103.952,-730.7"/>
</g>
<!-- Node5 -->
<g id="node5" class="node"><title>Node5</title>
<g id="a_node5"><a xlink:href="classore_1_1data_1_1_cam_mc_multi_leg_option_engine_builder.html#a6bf6c2f7d2d2d9a4658ff1007d8a0304" target="_top" xlink:title=" ">
<polygon fill="white" stroke="#666666" points="211,-712 139,-712 139,-693 211,-693 211,-712"/>
<text text-anchor="middle" x="175" y="-700" font-family="Helvetica,sans-Serif" font-size="10.00">getCcyValue</text>
</a>
</g>
</g>
<!-- Node1&#45;&gt;Node5 -->
<g id="edge4" class="edge"><title>Node1&#45;&gt;Node5</title>
<path fill="none" stroke="#63b8ff" d="M33.4273,-411.174C37.9299,-456.143 58.9467,-644.256 99,-684.5 106.955,-692.493 117.793,-697.175 128.757,-699.86"/>
<polygon fill="#63b8ff" stroke="#63b8ff" points="128.298,-703.336 138.781,-701.801 129.629,-696.464 128.298,-703.336"/>
</g>
<!-- Node6 -->
<g id="node6" class="node"><title>Node6</title>
<g id="a_node6"><a xlink:href="group__utilities.html#ga94621f11193864fa1338296232dc5be9" target="_top" xlink:title="Convert text to bool.">
<polygon fill="white" stroke="#666666" points="227,-657 123,-657 123,-638 227,-638 227,-657"/>
<text text-anchor="middle" x="175" y="-645" font-family="Helvetica,sans-Serif" font-size="10.00">ore::data::parseBool</text>
</a>
</g>
</g>
<!-- Node1&#45;&gt;Node6 -->
<g id="edge5" class="edge"><title>Node1&#45;&gt;Node6</title>
<path fill="none" stroke="#63b8ff" d="M32.1925,-411.394C31.6686,-446.554 34.8367,-566.66 99,-628.5 103.11,-632.462 107.923,-635.631 113.092,-638.163"/>
<polygon fill="#63b8ff" stroke="#63b8ff" points="112.122,-641.547 122.704,-642.065 114.755,-635.061 112.122,-641.547"/>
</g>
<!-- Node7 -->
<g id="node7" class="node"><title>Node7</title>
<g id="a_node7"><a xlink:href="namespaceore_1_1data.html#a55354bd89a9a819ebcc3706bd1072bff" target="_top" xlink:title="Convert calibration strategy string into enumerated class value.">
<polygon fill="white" stroke="#666666" points="240.5,-619.5 109.5,-619.5 109.5,-589.5 240.5,-589.5 240.5,-619.5"/>
<text text-anchor="start" x="117.5" y="-607.5" font-family="Helvetica,sans-Serif" font-size="10.00">ore::data::parseCalibration</text>
<text text-anchor="middle" x="175" y="-596.5" font-family="Helvetica,sans-Serif" font-size="10.00">Strategy</text>
</a>
</g>
</g>
<!-- Node1&#45;&gt;Node7 -->
<g id="edge7" class="edge"><title>Node1&#45;&gt;Node7</title>
<path fill="none" stroke="#63b8ff" d="M33.2138,-411.244C35.9233,-441.058 48.1736,-531.96 99,-580.5 100.112,-581.562 101.272,-582.577 102.472,-583.548"/>
<polygon fill="#63b8ff" stroke="#63b8ff" points="100.687,-586.568 110.918,-589.321 104.638,-580.789 100.687,-586.568"/>
</g>
<!-- Node8 -->
<g id="node8" class="node"><title>Node8</title>
<g id="a_node8"><a xlink:href="namespaceore_1_1data.html#a3fcd3e2237bc47c69b4b81c0fa50a4cc" target="_top" xlink:title="Convert calibration type string into enumerated class value.">
<polygon fill="white" stroke="#666666" points="251,-571 99,-571 99,-552 251,-552 251,-571"/>
<text text-anchor="middle" x="175" y="-559" font-family="Helvetica,sans-Serif" font-size="10.00">ore::data::parseCalibrationType</text>
</a>
</g>
</g>
<!-- Node1&#45;&gt;Node8 -->
<g id="edge8" class="edge"><title>Node1&#45;&gt;Node8</title>
<path fill="none" stroke="#63b8ff" d="M34.1238,-411.104C38.9676,-436.674 55.7593,-506.877 99,-542.5 101.041,-544.181 103.212,-545.717 105.48,-547.118"/>
<polygon fill="#63b8ff" stroke="#63b8ff" points="104.159,-550.376 114.645,-551.888 107.39,-544.167 104.159,-550.376"/>
</g>
<!-- Node9 -->
<g id="node9" class="node"><title>Node9</title>
<g id="a_node9"><a xlink:href="namespaceore_1_1data.html#a298161fbd6a31b636af6135e4542d4ac" target="_top" xlink:title=" ">
<polygon fill="white" stroke="#666666" points="240.5,-515.5 109.5,-515.5 109.5,-485.5 240.5,-485.5 240.5,-515.5"/>
<text text-anchor="start" x="117.5" y="-503.5" font-family="Helvetica,sans-Serif" font-size="10.00">ore::data::parseCorrelation</text>
<text text-anchor="middle" x="175" y="-492.5" font-family="Helvetica,sans-Serif" font-size="10.00">Factor</text>
</a>
</g>
</g>
<!-- Node1&#45;&gt;Node9 -->
<g id="edge9" class="edge"><title>Node1&#45;&gt;Node9</title>
<path fill="none" stroke="#63b8ff" d="M39.6027,-411.411C50.7332,-426.307 73.6499,-454.527 99,-471.5 104.329,-475.068 110.16,-478.289 116.142,-481.173"/>
<polygon fill="#63b8ff" stroke="#63b8ff" points="115.06,-484.524 125.616,-485.429 117.928,-478.139 115.06,-484.524"/>
</g>
<!-- Node11 -->
<g id="node11" class="node"><title>Node11</title>
<g id="a_node11"><a xlink:href="group__utilities.html#gaecd67eda4fb5f4859bb8f6d383547721" target="_top" xlink:title="Convert text to QuantLib::Integer.">
<polygon fill="white" stroke="#666666" points="420,-461 306,-461 306,-442 420,-442 420,-461"/>
<text text-anchor="middle" x="363" y="-449" font-family="Helvetica,sans-Serif" font-size="10.00">ore::data::parseInteger</text>
</a>
</g>
</g>
<!-- Node1&#45;&gt;Node11 -->
<g id="edge18" class="edge"><title>Node1&#45;&gt;Node11</title>
<path fill="none" stroke="#63b8ff" d="M45.4511,-411.092C58.3027,-420.011 78.93,-432.76 99,-438.5 164.035,-457.1 241.751,-458.542 295.763,-456.446"/>
<polygon fill="#63b8ff" stroke="#63b8ff" points="296.064,-459.936 305.901,-456.001 295.757,-452.943 296.064,-459.936"/>
</g>
<!-- Node12 -->
<g id="node12" class="node"><title>Node12</title>
<g id="a_node12"><a xlink:href="group__utilities.html#ga59b5fdda574d90facae95dec2d13040d" target="_top" xlink:title="Convert std::string to QuantLib::Date.">
<polygon fill="white" stroke="#666666" points="227.5,-411 122.5,-411 122.5,-392 227.5,-392 227.5,-411"/>
<text text-anchor="middle" x="175" y="-399" font-family="Helvetica,sans-Serif" font-size="10.00">ore::data::parseDate</text>
</a>
</g>
</g>
<!-- Node1&#45;&gt;Node12 -->
<g id="edge14" class="edge"><title>Node1&#45;&gt;Node12</title>
<path fill="none" stroke="#63b8ff" d="M63.2034,-401.5C77.5407,-401.5 95.1496,-401.5 112.074,-401.5"/>
<polygon fill="#63b8ff" stroke="#63b8ff" points="112.488,-405 122.488,-401.5 112.488,-398 112.488,-405"/>
</g>
<!-- Node14 -->
<g id="node14" class="node"><title>Node14</title>
<g id="a_node14"><a xlink:href="group__utilities.html#ga4b7f14aed1f66a2d3d0ec251dfbfbf61" target="_top" xlink:title="Convert text to QuantLib::LsmBasisSystem::PolynomialType.">
<polygon fill="white" stroke="#666666" points="247,-374 103,-374 103,-355 247,-355 247,-374"/>
<text text-anchor="middle" x="175" y="-362" font-family="Helvetica,sans-Serif" font-size="10.00">ore::data::parsePolynomType</text>
</a>
</g>
</g>
<!-- Node1&#45;&gt;Node14 -->
<g id="edge19" class="edge"><title>Node1&#45;&gt;Node14</title>
<path fill="none" stroke="#63b8ff" d="M63.2627,-393.062C74.4982,-390.009 87.3142,-386.562 99,-383.5 107.685,-381.225 116.949,-378.842 125.895,-376.563"/>
<polygon fill="#63b8ff" stroke="#63b8ff" points="126.983,-379.898 135.815,-374.046 125.261,-373.113 126.983,-379.898"/>
</g>
<!-- Node15 -->
<g id="node15" class="node"><title>Node15</title>
<g id="a_node15"><a xlink:href="group__utilities.html#gad1db2a68f9a73667c3b4084d63955bdd" target="_top" xlink:title="Convert text to Real.">
<polygon fill="white" stroke="#666666" points="227,-319 123,-319 123,-300 227,-300 227,-319"/>
<text text-anchor="middle" x="175" y="-307" font-family="Helvetica,sans-Serif" font-size="10.00">ore::data::parseReal</text>
</a>
</g>
</g>
<!-- Node1&#45;&gt;Node15 -->
<g id="edge20" class="edge"><title>Node1&#45;&gt;Node15</title>
<path fill="none" stroke="#63b8ff" d="M42.7341,-391.737C55.3111,-380.055 77.6214,-360.344 99,-346.5 112.435,-337.8 128.207,-329.731 141.813,-323.364"/>
<polygon fill="#63b8ff" stroke="#63b8ff" points="143.63,-326.382 151.272,-319.043 140.721,-320.014 143.63,-326.382"/>
</g>
<!-- Node16 -->
<g id="node16" class="node"><title>Node16</title>
<g id="a_node16"><a xlink:href="namespaceore_1_1data.html#a89cca6472a3558ad9f7b64415375cf64" target="_top" xlink:title="Enum parsers.">
<polygon fill="white" stroke="#666666" points="249,-282 101,-282 101,-263 249,-263 249,-282"/>
<text text-anchor="middle" x="175" y="-270" font-family="Helvetica,sans-Serif" font-size="10.00">ore::data::parseReversionType</text>
</a>
</g>
</g>
<!-- Node1&#45;&gt;Node16 -->
<g id="edge22" class="edge"><title>Node1&#45;&gt;Node16</title>
<path fill="none" stroke="#63b8ff" d="M35.5059,-391.826C42.7214,-370.262 63.1367,-318.067 99,-291.5 101.509,-289.641 104.182,-287.963 106.966,-286.448"/>
<polygon fill="#63b8ff" stroke="#63b8ff" points="108.601,-289.548 116.182,-282.146 105.64,-283.205 108.601,-289.548"/>
</g>
<!-- Node17 -->
<g id="node17" class="node"><title>Node17</title>
<g id="a_node17"><a xlink:href="group__utilities.html#ga2cca7fc277cc22068f4e38986c3c7bf0" target="_top" xlink:title="Convert string to sequence type.">
<polygon fill="white" stroke="#666666" points="249.5,-245 100.5,-245 100.5,-226 249.5,-226 249.5,-245"/>
<text text-anchor="middle" x="175" y="-233" font-family="Helvetica,sans-Serif" font-size="10.00">ore::data::parseSequenceType</text>
</a>
</g>
</g>
<!-- Node1&#45;&gt;Node17 -->
<g id="edge23" class="edge"><title>Node1&#45;&gt;Node17</title>
<path fill="none" stroke="#63b8ff" d="M33.9254,-391.879C38.3474,-365.569 54.3275,-291.902 99,-254.5 101.028,-252.802 103.187,-251.254 105.446,-249.841"/>
<polygon fill="#63b8ff" stroke="#63b8ff" points="107.36,-252.788 114.583,-245.037 104.103,-246.592 107.36,-252.788"/>
</g>
<!-- Node18 -->
<g id="node18" class="node"><title>Node18</title>
<g id="a_node18"><a xlink:href="group__utilities.html#gadf450785d4042119a41662043fd15b98" target="_top" xlink:title="Convert text to QuantLib::SobolBrownianGenerator::Ordering.">
<polygon fill="white" stroke="#666666" points="249.5,-207.5 100.5,-207.5 100.5,-177.5 249.5,-177.5 249.5,-207.5"/>
<text text-anchor="start" x="108.5" y="-195.5" font-family="Helvetica,sans-Serif" font-size="10.00">ore::data::parseSobolBrownian</text>
<text text-anchor="middle" x="175" y="-184.5" font-family="Helvetica,sans-Serif" font-size="10.00">GeneratorOrdering</text>
</a>
</g>
</g>
<!-- Node1&#45;&gt;Node18 -->
<g id="edge24" class="edge"><title>Node1&#45;&gt;Node18</title>
<path fill="none" stroke="#63b8ff" d="M33.1143,-391.946C35.5636,-361.848 47.2046,-268.014 99,-217.5 100.474,-216.063 102.033,-214.708 103.661,-213.431"/>
<polygon fill="#63b8ff" stroke="#63b8ff" points="105.928,-216.126 112.315,-207.673 102.051,-210.298 105.928,-216.126"/>
</g>
<!-- Node19 -->
<g id="node19" class="node"><title>Node19</title>
<g id="a_node19"><a xlink:href="group__utilities.html#ga9d153313f71044b424f5b67d16989710" target="_top" xlink:title="Convert text to QuantLib::SobolRsg::DirectionIntegers.">
<polygon fill="white" stroke="#666666" points="238.5,-159.5 111.5,-159.5 111.5,-129.5 238.5,-129.5 238.5,-159.5"/>
<text text-anchor="start" x="119.5" y="-147.5" font-family="Helvetica,sans-Serif" font-size="10.00">ore::data::parseSobolRsg</text>
<text text-anchor="middle" x="175" y="-136.5" font-family="Helvetica,sans-Serif" font-size="10.00">DirectionIntegers</text>
</a>
</g>
</g>
<!-- Node1&#45;&gt;Node19 -->
<g id="edge25" class="edge"><title>Node1&#45;&gt;Node19</title>
<path fill="none" stroke="#63b8ff" d="M32.2428,-391.976C31.8334,-357.016 35.19,-234.365 99,-168.5 100.243,-167.217 101.554,-166.003 102.923,-164.854"/>
<polygon fill="#63b8ff" stroke="#63b8ff" points="105.156,-167.563 111.331,-158.953 101.135,-161.833 105.156,-167.563"/>
</g>
<!-- Node20 -->
<g id="node20" class="node"><title>Node20</title>
<g id="a_node20"><a xlink:href="namespaceore_1_1data.html#aab2c021a56c88e579dcdefd09aaead20" target="_top" xlink:title=" ">
<polygon fill="white" stroke="#666666" points="246.5,-111 103.5,-111 103.5,-92 246.5,-92 246.5,-111"/>
<text text-anchor="middle" x="175" y="-99" font-family="Helvetica,sans-Serif" font-size="10.00">ore::data::parseVolatilityType</text>
</a>
</g>
</g>
<!-- Node1&#45;&gt;Node20 -->
<g id="edge26" class="edge"><title>Node1&#45;&gt;Node20</title>
<path fill="none" stroke="#63b8ff" d="M33.4487,-391.905C38.0482,-347.3 59.435,-160.692 99,-120.5 100.413,-119.064 101.919,-117.731 103.5,-116.494"/>
<polygon fill="#63b8ff" stroke="#63b8ff" points="105.433,-119.413 111.971,-111.076 101.661,-113.516 105.433,-119.413"/>
</g>
<!-- Node21 -->
<g id="node21" class="node"><title>Node21</title>
<g id="a_node21"><a xlink:href="namespaceore_1_1data.html#a86651dfeb5c18ee891f7a4734d8cf455" target="_top" xlink:title=" ">
<polygon fill="white" stroke="#666666" points="224,-56 126,-56 126,-37 224,-37 224,-56"/>
<text text-anchor="middle" x="175" y="-44" font-family="Helvetica,sans-Serif" font-size="10.00">ore::data::to_string</text>
</a>
</g>
</g>
<!-- Node1&#45;&gt;Node21 -->
<g id="edge27" class="edge"><title>Node1&#45;&gt;Node21</title>
<path fill="none" stroke="#63b8ff" d="M33.3869,-391.816C37.9251,-344.07 59.8708,-133.988 99,-83.5 106.93,-73.2675 118.435,-65.6744 130.062,-60.1234"/>
<polygon fill="#63b8ff" stroke="#63b8ff" points="131.564,-63.287 139.346,-56.0981 128.779,-56.8646 131.564,-63.287"/>
</g>
<!-- Node22 -->
<g id="node22" class="node"><title>Node22</title>
<g id="a_node22"><a xlink:href="namespaceore_1_1data.html#a6a0250258f27a26b9e68baa6ff3752ba" target="_top" xlink:title="Imply QuantLib::VolatilityType from CapFloorVolatilityCurveConfig::VolatilityType.">
<polygon fill="white" stroke="#666666" points="233,-19 117,-19 117,-0 233,-0 233,-19"/>
<text text-anchor="middle" x="175" y="-7" font-family="Helvetica,sans-Serif" font-size="10.00">ore::data::volatilityType</text>
</a>
</g>
</g>
<!-- Node1&#45;&gt;Node22 -->
<g id="edge29" class="edge"><title>Node1&#45;&gt;Node22</title>
<path fill="none" stroke="#63b8ff" d="M32.8352,-391.731C34.8651,-338.363 47.2192,-82.4614 99,-27.5 101.634,-24.704 104.62,-22.3086 107.845,-20.2592"/>
<polygon fill="#63b8ff" stroke="#63b8ff" points="109.584,-23.3006 116.865,-15.6045 106.374,-17.08 109.584,-23.3006"/>
</g>
<!-- Node6&#45;&gt;Node6 -->
<g id="edge6" class="edge"><title>Node6&#45;&gt;Node6</title>
<path fill="none" stroke="#63b8ff" d="M153.114,-657.083C142.466,-665.734 149.762,-675 175,-675 191.168,-675 199.973,-671.197 201.414,-666.189"/>
<polygon fill="#63b8ff" stroke="#63b8ff" points="204.472,-664.479 196.886,-657.083 198.204,-667.595 204.472,-664.479"/>
</g>
<!-- Node9&#45;&gt;Node9 -->
<g id="edge11" class="edge"><title>Node9&#45;&gt;Node9</title>
<path fill="none" stroke="#63b8ff" d="M150.039,-515.775C144.492,-524.906 152.813,-533.5 175,-533.5 188.174,-533.5 196.459,-530.47 199.855,-526.098"/>
<polygon fill="#63b8ff" stroke="#63b8ff" points="203.358,-525.811 199.961,-515.775 196.359,-525.739 203.358,-525.811"/>
</g>
<!-- Node10 -->
<g id="node10" class="node"><title>Node10</title>
<g id="a_node10"><a xlink:href="group__utilities.html#gaea1cc4bbcb7c88cc9a61a3cd96da8d59" target="_top" xlink:title=" ">
<polygon fill="white" stroke="#666666" points="439,-516 287,-516 287,-497 439,-497 439,-516"/>
<text text-anchor="middle" x="363" y="-504" font-family="Helvetica,sans-Serif" font-size="10.00">ore::data::parseCamAssetType</text>
</a>
</g>
</g>
<!-- Node9&#45;&gt;Node10 -->
<g id="edge10" class="edge"><title>Node9&#45;&gt;Node10</title>
<path fill="none" stroke="#63b8ff" d="M240.532,-502.582C252.172,-502.957 264.47,-503.354 276.596,-503.745"/>
<polygon fill="#63b8ff" stroke="#63b8ff" points="276.614,-507.247 286.722,-504.072 276.84,-500.251 276.614,-507.247"/>
</g>
<!-- Node9&#45;&gt;Node11 -->
<g id="edge12" class="edge"><title>Node9&#45;&gt;Node11</title>
<path fill="none" stroke="#63b8ff" d="M233.07,-485.465C259.632,-478.468 290.814,-470.253 315.858,-463.656"/>
<polygon fill="#63b8ff" stroke="#63b8ff" points="317.054,-466.96 325.833,-461.028 315.271,-460.191 317.054,-466.96"/>
</g>
<!-- Node11&#45;&gt;Node11 -->
<g id="edge13" class="edge"><title>Node11&#45;&gt;Node11</title>
<path fill="none" stroke="#63b8ff" d="M334.024,-461.083C319.927,-469.734 329.586,-479 363,-479 385.972,-479 397.716,-474.62 398.232,-469.072"/>
<polygon fill="#63b8ff" stroke="#63b8ff" points="400.897,-466.798 391.976,-461.083 395.386,-471.114 400.897,-466.798"/>
</g>
<!-- Node12&#45;&gt;Node11 -->
<g id="edge16" class="edge"><title>Node12&#45;&gt;Node11</title>
<path fill="none" stroke="#63b8ff" d="M211.423,-411.022C241.321,-419.059 284.308,-430.615 316.705,-439.324"/>
<polygon fill="#63b8ff" stroke="#63b8ff" points="315.827,-442.712 326.393,-441.928 317.644,-435.952 315.827,-442.712"/>
</g>
<!-- Node12&#45;&gt;Node12 -->
<g id="edge15" class="edge"><title>Node12&#45;&gt;Node12</title>
<path fill="none" stroke="#63b8ff" d="M153.114,-411.083C142.466,-419.734 149.762,-429 175,-429 191.168,-429 199.973,-425.197 201.414,-420.189"/>
<polygon fill="#63b8ff" stroke="#63b8ff" points="204.472,-418.479 196.886,-411.083 198.204,-421.595 204.472,-418.479"/>
</g>
<!-- Node13 -->
<g id="node13" class="node"><title>Node13</title>
<g id="a_node13"><a xlink:href="namespaceore_1_1data.html#a777e216dee6069b548bb87da7152699e" target="_top" xlink:title=" ">
<polygon fill="white" stroke="#666666" points="402.5,-411 323.5,-411 323.5,-392 402.5,-392 402.5,-411"/>
<text text-anchor="middle" x="363" y="-399" font-family="Helvetica,sans-Serif" font-size="10.00">ore::data::size</text>
</a>
</g>
</g>
<!-- Node12&#45;&gt;Node13 -->
<g id="edge17" class="edge"><title>Node12&#45;&gt;Node13</title>
<path fill="none" stroke="#63b8ff" d="M227.811,-401.5C254.572,-401.5 287.034,-401.5 313.327,-401.5"/>
<polygon fill="#63b8ff" stroke="#63b8ff" points="313.443,-405 323.443,-401.5 313.443,-398 313.443,-405"/>
</g>
<!-- Node15&#45;&gt;Node15 -->
<g id="edge21" class="edge"><title>Node15&#45;&gt;Node15</title>
<path fill="none" stroke="#63b8ff" d="M153.114,-319.083C142.466,-327.734 149.762,-337 175,-337 191.168,-337 199.973,-333.197 201.414,-328.189"/>
<polygon fill="#63b8ff" stroke="#63b8ff" points="204.472,-326.479 196.886,-319.083 198.204,-329.595 204.472,-326.479"/>
</g>
<!-- Node21&#45;&gt;Node21 -->
<g id="edge28" class="edge"><title>Node21&#45;&gt;Node21</title>
<path fill="none" stroke="#63b8ff" d="M153.114,-56.0828C142.466,-64.7337 149.762,-74 175,-74 191.168,-74 199.973,-70.1971 201.414,-65.1894"/>
<polygon fill="#63b8ff" stroke="#63b8ff" points="204.472,-63.4792 196.886,-56.0828 198.204,-66.5954 204.472,-63.4792"/>
</g>
</g>
</svg>
        <g id="navigator" transform="translate(0 0)" fill="#404254">
                <rect fill="#f2f5e9" fill-opacity="0.5" stroke="#606060" stroke-width=".5" x="0" y="0" width="60" height="60"/>
                <use id="zoomplus" xlink:href="#zoomPlus" x="17" y="9" onmousedown="handleZoom(evt,'in')"/>
                <use id="zoomminus" xlink:href="#zoomMin" x="42" y="9" onmousedown="handleZoom(evt,'out')"/>
                <use id="reset" xlink:href="#resetDef" x="30" y="36" onmousedown="handleReset()"/>
                <g id="arrowUp" xlink:href="#dirArrow" transform="translate(30 24)" onmousedown="handlePan(0,-1)">
                  <use xlink:href="#rim" fill="#404040">
                        <set attributeName="fill" to="#808080" begin="arrowUp.mouseover" end="arrowUp.mouseout"/>
                  </use>
                  <path fill="none" stroke="white" stroke-width="1.5" d="M0,-3.0v7 M-2.5,-0.5L0,-3.0L2.5,-0.5"/>
                </g>
                <g id="arrowRight" xlink:href="#dirArrow" transform="rotate(90) translate(36 -43)" onmousedown="handlePan(1,0)">
                  <use xlink:href="#rim" fill="#404040">
                        <set attributeName="fill" to="#808080" begin="arrowRight.mouseover" end="arrowRight.mouseout"/>
                  </use>
                  <path fill="none" stroke="white" stroke-width="1.5" d="M0,-3.0v7 M-2.5,-0.5L0,-3.0L2.5,-0.5"/>
                </g>
                <g id="arrowDown" xlink:href="#dirArrow" transform="rotate(180) translate(-30 -48)" onmousedown="handlePan(0,1)">
                  <use xlink:href="#rim" fill="#404040">
                        <set attributeName="fill" to="#808080" begin="arrowDown.mouseover" end="arrowDown.mouseout"/>
                  </use>
                  <path fill="none" stroke="white" stroke-width="1.5" d="M0,-3.0v7 M-2.5,-0.5L0,-3.0L2.5,-0.5"/>
                </g>
                <g id="arrowLeft" xlink:href="#dirArrow" transform="rotate(270) translate(-36 17)" onmousedown="handlePan(-1,0)">
                  <use xlink:href="#rim" fill="#404040">
                        <set attributeName="fill" to="#808080" begin="arrowLeft.mouseover" end="arrowLeft.mouseout"/>
                  </use>
                  <path fill="none" stroke="white" stroke-width="1.5" d="M0,-3.0v7 M-2.5,-0.5L0,-3.0L2.5,-0.5"/>
                </g>
        </g>
        <svg viewBox="0 0 15 15" width="100%" height="30px" preserveAspectRatio="xMaxYMin meet">
         <g id="arrow_out" transform="scale(0.3 0.3)">
          <a xlink:href="classore_1_1data_1_1_cam_mc_multi_leg_option_engine_builder_a9e0c22676d210fe5cbcca2b0c18c8353_cgraph_org.svg" target="_base">
           <rect id="button" ry="5" rx="5" y="6" x="6" height="38" width="38"
                fill="#f2f5e9" fill-opacity="0.5" stroke="#606060" stroke-width="1.0"/>
           <path id="arrow"
             d="M 11.500037,31.436501 C 11.940474,20.09759 22.043105,11.32322 32.158766,21.979434 L 37.068811,17.246167 C 37.068811,17.246167 37.088388,32 37.088388,32 L 22.160133,31.978069 C 22.160133,31.978069 26.997745,27.140456 26.997745,27.140456 C 18.528582,18.264221 13.291696,25.230495 11.500037,31.436501 z"
             style="fill:#404040;"/>
          </a>
         </g>
        </svg>
</svg>
