<?xml version="1.0" encoding="UTF-8" standalone="no"?>
<!DOCTYPE svg PUBLIC "-//W3C//DTD SVG 1.1//EN"
 "http://www.w3.org/Graphics/SVG/1.1/DTD/svg11.dtd">
<!-- Generated by graphviz version 2.38.0 (20140413.2041)
 -->
<!-- Title: DigitalCMSLegData Pages: 1 -->
<!--zoomable 841 -->
<svg id="main" version="1.1" xmlns="http://www.w3.org/2000/svg" xmlns:xlink="http://www.w3.org/1999/xlink" xml:space="preserve" onload="init(evt)">
<style type="text/css"><![CDATA[
.edge:hover path { stroke: red; }
.edge:hover polygon { stroke: red; fill: red; }
]]></style>
<script type="text/javascript"><![CDATA[
var edges = document.getElementsByTagName('g');
if (edges && edges.length) {
  for (var i=0;i<edges.length;i++) {
    if (edges[i].id.substr(0,4)=='edge') {
      edges[i].setAttribute('class','edge');
    }
  }
}
]]></script>
        <defs>
                <circle id="rim" cx="0" cy="0" r="7"/>
                <circle id="rim2" cx="0" cy="0" r="3.5"/>
                <g id="zoomPlus">
                        <use xlink:href="#rim" fill="#404040">
                                <set attributeName="fill" to="#808080" begin="zoomplus.mouseover" end="zoomplus.mouseout"/>
                        </use>
                        <path d="M-4,0h8M0,-4v8" fill="none" stroke="white" stroke-width="1.5" pointer-events="none"/>
                </g>
                <g id="zoomMin">
                        <use xlink:href="#rim" fill="#404040">
                                <set attributeName="fill" to="#808080" begin="zoomminus.mouseover" end="zoomminus.mouseout"/>
                        </use>
                        <path d="M-4,0h8" fill="none" stroke="white" stroke-width="1.5" pointer-events="none"/>
                </g>
                <g id="dirArrow">
                        <path fill="none" stroke="white" stroke-width="1.5" d="M0,-3.0v7 M-2.5,-0.5L0,-3.0L2.5,-0.5"/>
                </g>
               <g id="resetDef">
                       <use xlink:href="#rim2" fill="#404040">
                               <set attributeName="fill" to="#808080" begin="reset.mouseover" end="reset.mouseout"/>
                       </use>
               </g>
        </defs>

<script type="text/javascript">
var viewWidth = 721;
var viewHeight = 841;
var sectionId = 'dynsection-1';
</script>
<script xlink:href="svgpan.js"/>
<svg id="graph" class="graph">
<g id="viewport">
<title>DigitalCMSLegData</title>
<!-- Node1 -->
<g id="node1" class="node"><title>Node1</title>
<g id="a_node1"><a xlink:title="Serializable Digital CMS Leg Data.">
<polygon fill="#999999" stroke="#666666" points="495.5,-360 374.5,-360 374.5,-0 495.5,-0 495.5,-360"/>
<text text-anchor="middle" x="435" y="-348" font-family="Helvetica,sans-Serif" font-size="10.00">{DigitalCMSLegData</text>
<text text-anchor="start" x="382.5" y="-337" font-family="Helvetica,sans-Serif" font-size="10.00">||+ DigitalCMSLegData()</text>
<text text-anchor="start" x="382.5" y="-326" font-family="Helvetica,sans-Serif" font-size="10.00">+ DigitalCMSLegData()</text>
<text text-anchor="start" x="382.5" y="-315" font-family="Helvetica,sans-Serif" font-size="10.00">+ underlying()</text>
<text text-anchor="start" x="382.5" y="-304" font-family="Helvetica,sans-Serif" font-size="10.00">+ callPosition()</text>
<text text-anchor="start" x="382.5" y="-293" font-family="Helvetica,sans-Serif" font-size="10.00">+ isCallATMIncluded()</text>
<text text-anchor="start" x="382.5" y="-282" font-family="Helvetica,sans-Serif" font-size="10.00">+ callStrikes()</text>
<text text-anchor="start" x="382.5" y="-271" font-family="Helvetica,sans-Serif" font-size="10.00">+ callPayoffs()</text>
<text text-anchor="start" x="382.5" y="-260" font-family="Helvetica,sans-Serif" font-size="10.00">+ callStrikeDates()</text>
<text text-anchor="start" x="382.5" y="-249" font-family="Helvetica,sans-Serif" font-size="10.00">+ callPayoffDates()</text>
<text text-anchor="start" x="382.5" y="-238" font-family="Helvetica,sans-Serif" font-size="10.00">+ putPosition()</text>
<text text-anchor="start" x="382.5" y="-227" font-family="Helvetica,sans-Serif" font-size="10.00">+ isPutATMIncluded()</text>
<text text-anchor="start" x="382.5" y="-216" font-family="Helvetica,sans-Serif" font-size="10.00">+ putStrikes()</text>
<text text-anchor="start" x="382.5" y="-205" font-family="Helvetica,sans-Serif" font-size="10.00">+ putPayoffs()</text>
<text text-anchor="start" x="382.5" y="-194" font-family="Helvetica,sans-Serif" font-size="10.00">+ putStrikeDates()</text>
<text text-anchor="start" x="382.5" y="-183" font-family="Helvetica,sans-Serif" font-size="10.00">+ putPayoffDates()</text>
<text text-anchor="start" x="382.5" y="-172" font-family="Helvetica,sans-Serif" font-size="10.00">* fromXML()</text>
<text text-anchor="start" x="382.5" y="-161" font-family="Helvetica,sans-Serif" font-size="10.00">* toXML()</text>
<text text-anchor="start" x="382.5" y="-150" font-family="Helvetica,sans-Serif" font-size="10.00">* underlying()</text>
<text text-anchor="start" x="382.5" y="-139" font-family="Helvetica,sans-Serif" font-size="10.00">* callPosition()</text>
<text text-anchor="start" x="382.5" y="-128" font-family="Helvetica,sans-Serif" font-size="10.00">* isCallATMIncluded()</text>
<text text-anchor="start" x="382.5" y="-117" font-family="Helvetica,sans-Serif" font-size="10.00">* callStrikes()</text>
<text text-anchor="start" x="382.5" y="-106" font-family="Helvetica,sans-Serif" font-size="10.00">* callPayoffs()</text>
<text text-anchor="start" x="382.5" y="-95" font-family="Helvetica,sans-Serif" font-size="10.00">* callStrikeDates()</text>
<text text-anchor="start" x="382.5" y="-84" font-family="Helvetica,sans-Serif" font-size="10.00">* callPayoffDates()</text>
<text text-anchor="start" x="382.5" y="-73" font-family="Helvetica,sans-Serif" font-size="10.00">* putPosition()</text>
<text text-anchor="start" x="382.5" y="-62" font-family="Helvetica,sans-Serif" font-size="10.00">* isPutATMIncluded()</text>
<text text-anchor="start" x="382.5" y="-51" font-family="Helvetica,sans-Serif" font-size="10.00">* putStrikes()</text>
<text text-anchor="start" x="382.5" y="-40" font-family="Helvetica,sans-Serif" font-size="10.00">* putPayoffs()</text>
<text text-anchor="start" x="382.5" y="-29" font-family="Helvetica,sans-Serif" font-size="10.00">* putStrikeDates()</text>
<text text-anchor="start" x="382.5" y="-18" font-family="Helvetica,sans-Serif" font-size="10.00">* putPayoffDates()</text>
<text text-anchor="middle" x="435" y="-7" font-family="Helvetica,sans-Serif" font-size="10.00">}</text>
</a>
</g>
</g>
<!-- Node2 -->
<g id="node2" class="node"><title>Node2</title>
<g id="a_node2"><a xlink:href="classore_1_1data_1_1_leg_additional_data.html" target="_top" xlink:title="Serializable Additional Leg Data.">
<polygon fill="white" stroke="#666666" points="393.5,-525 278.5,-525 278.5,-440 393.5,-440 393.5,-525"/>
<text text-anchor="middle" x="336" y="-513" font-family="Helvetica,sans-Serif" font-size="10.00">{LegAdditionalData</text>
<text text-anchor="start" x="286.5" y="-502" font-family="Helvetica,sans-Serif" font-size="10.00">||+ LegAdditionalData()</text>
<text text-anchor="start" x="286.5" y="-491" font-family="Helvetica,sans-Serif" font-size="10.00">+ LegAdditionalData()</text>
<text text-anchor="start" x="286.5" y="-480" font-family="Helvetica,sans-Serif" font-size="10.00">+ legType()</text>
<text text-anchor="start" x="286.5" y="-469" font-family="Helvetica,sans-Serif" font-size="10.00">+ legNodeName()</text>
<text text-anchor="start" x="286.5" y="-458" font-family="Helvetica,sans-Serif" font-size="10.00">+ indices()</text>
<text text-anchor="middle" x="336" y="-447" font-family="Helvetica,sans-Serif" font-size="10.00">}</text>
</a>
</g>
</g>
<!-- Node2&#45;&gt;Node1 -->
<g id="edge1" class="edge"><title>Node2&#45;&gt;Node1</title>
<path fill="none" stroke="#63b8ff" d="M352.902,-430.197C359.53,-410.079 367.562,-385.699 375.975,-360.162"/>
<polygon fill="none" stroke="#63b8ff" points="349.57,-429.124 349.766,-439.717 356.219,-431.314 349.57,-429.124"/>
</g>
<!-- Node3 -->
<g id="node3" class="node"><title>Node3</title>
<g id="a_node3"><a xlink:href="classore_1_1data_1_1_x_m_l_serializable.html" target="_top" xlink:title="Base class for all serializable classes.">
<polygon fill="white" stroke="#666666" points="630.5,-679 519.5,-679 519.5,-572 630.5,-572 630.5,-679"/>
<text text-anchor="middle" x="575" y="-667" font-family="Helvetica,sans-Serif" font-size="10.00">{XMLSerializable</text>
<text text-anchor="start" x="527.5" y="-656" font-family="Helvetica,sans-Serif" font-size="10.00">||+ ~XMLSerializable()</text>
<text text-anchor="start" x="527.5" y="-645" font-family="Helvetica,sans-Serif" font-size="10.00">+ fromXML()</text>
<text text-anchor="start" x="527.5" y="-634" font-family="Helvetica,sans-Serif" font-size="10.00">+ toXML()</text>
<text text-anchor="start" x="527.5" y="-623" font-family="Helvetica,sans-Serif" font-size="10.00">+ fromFile()</text>
<text text-anchor="start" x="527.5" y="-612" font-family="Helvetica,sans-Serif" font-size="10.00">+ toFile()</text>
<text text-anchor="start" x="527.5" y="-601" font-family="Helvetica,sans-Serif" font-size="10.00">+ fromXMLString()</text>
<text text-anchor="start" x="527.5" y="-590" font-family="Helvetica,sans-Serif" font-size="10.00">+ toXMLString()</text>
<text text-anchor="middle" x="575" y="-579" font-family="Helvetica,sans-Serif" font-size="10.00">}</text>
</a>
</g>
</g>
<!-- Node3&#45;&gt;Node2 -->
<g id="edge2" class="edge"><title>Node3&#45;&gt;Node2</title>
<path fill="none" stroke="#63b8ff" d="M510.872,-572.534C510.581,-572.355 510.29,-572.177 510,-572 482.63,-555.343 473.392,-555.755 444,-543 425.37,-534.915 419.985,-534.434 402,-525 399.243,-523.554 396.449,-522.033 393.646,-520.461"/>
<polygon fill="none" stroke="#63b8ff" points="509.012,-575.5 519.306,-578.009 512.824,-569.628 509.012,-575.5"/>
</g>
<!-- Node4 -->
<g id="node4" class="node"><title>Node4</title>
<g id="a_node4"><a xlink:title=" ">
<polygon fill="white" stroke="#666666" points="501.5,-640.5 406.5,-640.5 406.5,-610.5 501.5,-610.5 501.5,-640.5"/>
<text text-anchor="middle" x="454" y="-628.5" font-family="Helvetica,sans-Serif" font-size="10.00">{set&lt; std::string &gt;</text>
<text text-anchor="middle" x="454" y="-617.5" font-family="Helvetica,sans-Serif" font-size="10.00">||}</text>
</a>
</g>
</g>
<!-- Node4&#45;&gt;Node2 -->
<g id="edge3" class="edge"><title>Node4&#45;&gt;Node2</title>
<path fill="none" stroke="#404040" d="M442.254,-610.465C427.497,-592.831 401.357,-561.596 378.698,-534.52"/>
<polygon fill="none" stroke="#404040" points="378.554,-534.349 371.636,-532.315 370.853,-525.146 377.771,-527.18 378.554,-534.349"/>
<text text-anchor="middle" x="417.5" y="-546" font-family="Helvetica,sans-Serif" font-size="10.00"> #indices_</text>
</g>
<!-- Node5 -->
<g id="node5" class="node"><title>Node5</title>
<g id="a_node5"><a xlink:title=" ">
<polygon fill="white" stroke="#666666" points="337,-756 293,-756 293,-726 337,-726 337,-756"/>
<text text-anchor="middle" x="315" y="-744" font-family="Helvetica,sans-Serif" font-size="10.00">{string</text>
<text text-anchor="middle" x="315" y="-733" font-family="Helvetica,sans-Serif" font-size="10.00">||}</text>
</a>
</g>
</g>
<!-- Node5&#45;&gt;Node2 -->
<g id="edge8" class="edge"><title>Node5&#45;&gt;Node2</title>
<path fill="none" stroke="#404040" d="M315.377,-725.588C316.226,-696.499 318.646,-628.704 324,-572 325.06,-560.777 326.485,-548.791 327.984,-537.38"/>
<polygon fill="none" stroke="#404040" points="328.011,-537.178 324.854,-530.695 329.624,-525.287 332.781,-531.771 328.011,-537.178"/>
<text text-anchor="middle" x="360.5" y="-628.5" font-family="Helvetica,sans-Serif" font-size="10.00"> &#45;legNodeName_</text>
<text text-anchor="middle" x="360.5" y="-617.5" font-family="Helvetica,sans-Serif" font-size="10.00">&#45;legType_</text>
</g>
<!-- Node5&#45;&gt;Node4 -->
<g id="edge4" class="edge"><title>Node5&#45;&gt;Node4</title>
<path fill="none" stroke="#404040" d="M333.18,-725.868C348.868,-713.609 372.078,-695.319 392,-679 404.068,-669.115 417.281,-657.972 428.397,-648.503"/>
<polygon fill="none" stroke="#404040" points="428.422,-648.482 430.385,-641.543 437.545,-640.686 435.582,-647.625 428.422,-648.482"/>
<text text-anchor="middle" x="384.5" y="-700" font-family="Helvetica,sans-Serif" font-size="10.00"> +keys</text>
</g>
<!-- Node16 -->
<g id="node16" class="node"><title>Node16</title>
<g id="a_node16"><a xlink:title=" ">
<polygon fill="white" stroke="#666666" points="260.5,-497.5 173.5,-497.5 173.5,-467.5 260.5,-467.5 260.5,-497.5"/>
<text text-anchor="middle" x="217" y="-485.5" font-family="Helvetica,sans-Serif" font-size="10.00">{vector&lt; string &gt;</text>
<text text-anchor="middle" x="217" y="-474.5" font-family="Helvetica,sans-Serif" font-size="10.00">||}</text>
</a>
</g>
</g>
<!-- Node5&#45;&gt;Node16 -->
<g id="edge17" class="edge"><title>Node5&#45;&gt;Node16</title>
<path fill="none" stroke="#404040" d="M300.191,-725.795C288.947,-714.207 273.942,-696.881 265,-679 236.834,-622.674 224.537,-548.782 219.725,-509.959"/>
<polygon fill="none" stroke="#404040" points="219.72,-509.915 215.058,-504.413 218.344,-497.994 223.006,-503.496 219.72,-509.915"/>
<text text-anchor="middle" x="289.5" y="-623" font-family="Helvetica,sans-Serif" font-size="10.00"> +elements</text>
</g>
<!-- Node6 -->
<g id="node6" class="node"><title>Node6</title>
<g id="a_node6"><a xlink:title=" ">
<polygon fill="white" stroke="#666666" points="370,-833 260,-833 260,-803 370,-803 370,-833"/>
<text text-anchor="middle" x="315" y="-821" font-family="Helvetica,sans-Serif" font-size="10.00">{basic_string&lt; Char &gt;</text>
<text text-anchor="middle" x="315" y="-810" font-family="Helvetica,sans-Serif" font-size="10.00">||}</text>
</a>
</g>
</g>
<!-- Node6&#45;&gt;Node5 -->
<g id="edge5" class="edge"><title>Node6&#45;&gt;Node5</title>
<path fill="none" stroke="#63b8ff" d="M315,-792.541C315,-780.451 315,-766.294 315,-756.044"/>
<polygon fill="none" stroke="#63b8ff" points="311.5,-792.893 315,-802.893 318.5,-792.893 311.5,-792.893"/>
</g>
<!-- Node7 -->
<g id="node7" class="node"><title>Node7</title>
<g id="a_node7"><a xlink:title=" ">
<polygon fill="white" stroke="#666666" points="483,-756 425,-756 425,-726 483,-726 483,-756"/>
<text text-anchor="middle" x="454" y="-744" font-family="Helvetica,sans-Serif" font-size="10.00">{set&lt; K &gt;</text>
<text text-anchor="middle" x="454" y="-733" font-family="Helvetica,sans-Serif" font-size="10.00">||}</text>
</a>
</g>
</g>
<!-- Node7&#45;&gt;Node4 -->
<g id="edge6" class="edge"><title>Node7&#45;&gt;Node4</title>
<path fill="none" stroke="orange" d="M454,-715.37C454,-692.571 454,-659.46 454,-640.758"/>
<polygon fill="orange" stroke="orange" points="450.5,-715.625 454,-725.625 457.5,-715.625 450.5,-715.625"/>
<text text-anchor="middle" x="486.5" y="-700" font-family="Helvetica,sans-Serif" font-size="10.00"> &lt; std::string &gt;</text>
</g>
<!-- Node8 -->
<g id="node8" class="node"><title>Node8</title>
<g id="a_node8"><a xlink:title=" ">
<polygon fill="white" stroke="#666666" points="468.5,-833 439.5,-833 439.5,-803 468.5,-803 468.5,-833"/>
<text text-anchor="middle" x="454" y="-821" font-family="Helvetica,sans-Serif" font-size="10.00">{K</text>
<text text-anchor="middle" x="454" y="-810" font-family="Helvetica,sans-Serif" font-size="10.00">||}</text>
</a>
</g>
</g>
<!-- Node8&#45;&gt;Node7 -->
<g id="edge7" class="edge"><title>Node8&#45;&gt;Node7</title>
<path fill="none" stroke="#404040" d="M454,-802.893C454,-793.151 454,-779.901 454,-768.249"/>
<polygon fill="none" stroke="#404040" points="454,-768.044 450,-762.044 454,-756.044 458,-762.044 454,-768.044"/>
<text text-anchor="middle" x="469.5" y="-777" font-family="Helvetica,sans-Serif" font-size="10.00"> +keys</text>
</g>
<!-- Node9 -->
<g id="node9" class="node"><title>Node9</title>
<g id="a_node9"><a xlink:title=" ">
<polygon fill="white" stroke="#666666" points="524.5,-503 411.5,-503 411.5,-462 524.5,-462 524.5,-503"/>
<text text-anchor="start" x="419.5" y="-491" font-family="Helvetica,sans-Serif" font-size="10.00">{shared_ptr&lt; ore::data</text>
<text text-anchor="middle" x="468" y="-480" font-family="Helvetica,sans-Serif" font-size="10.00">::CMSLegData &gt;</text>
<text text-anchor="middle" x="468" y="-469" font-family="Helvetica,sans-Serif" font-size="10.00">||}</text>
</a>
</g>
</g>
<!-- Node9&#45;&gt;Node1 -->
<g id="edge9" class="edge"><title>Node9&#45;&gt;Node1</title>
<path fill="none" stroke="#404040" d="M465.835,-461.783C463.642,-441.813 460.007,-408.717 455.988,-372.121"/>
<polygon fill="none" stroke="#404040" points="455.981,-372.056 451.35,-366.529 454.671,-360.128 459.302,-365.655 455.981,-372.056"/>
<text text-anchor="middle" x="489" y="-397.5" font-family="Helvetica,sans-Serif" font-size="10.00"> &#45;underlying_</text>
</g>
<!-- Node10 -->
<g id="node10" class="node"><title>Node10</title>
<g id="a_node10"><a xlink:title=" ">
<polygon fill="white" stroke="#666666" points="583.5,-497.5 542.5,-497.5 542.5,-467.5 583.5,-467.5 583.5,-497.5"/>
<text text-anchor="middle" x="563" y="-485.5" font-family="Helvetica,sans-Serif" font-size="10.00">{Type</text>
<text text-anchor="middle" x="563" y="-474.5" font-family="Helvetica,sans-Serif" font-size="10.00">||}</text>
</a>
</g>
</g>
<!-- Node10&#45;&gt;Node1 -->
<g id="edge10" class="edge"><title>Node10&#45;&gt;Node1</title>
<path fill="none" stroke="#404040" d="M557.41,-467.39C549.468,-447.424 534.396,-409.812 521,-378 514.41,-362.351 507.446,-346.042 500.449,-329.801"/>
<polygon fill="none" stroke="#404040" points="500.36,-329.594 494.31,-325.671 495.604,-318.577 501.655,-322.5 500.36,-329.594"/>
<text text-anchor="middle" x="570" y="-403" font-family="Helvetica,sans-Serif" font-size="10.00"> &#45;callPosition_</text>
<text text-anchor="middle" x="570" y="-392" font-family="Helvetica,sans-Serif" font-size="10.00">&#45;putPosition_</text>
</g>
<!-- Node11 -->
<g id="node11" class="node"><title>Node11</title>
<g id="a_node11"><a xlink:href="classbool.html" target="_top" xlink:title=" ">
<polygon fill="white" stroke="#666666" points="659,-497.5 621,-497.5 621,-467.5 659,-467.5 659,-497.5"/>
<text text-anchor="middle" x="640" y="-485.5" font-family="Helvetica,sans-Serif" font-size="10.00">{bool</text>
<text text-anchor="middle" x="640" y="-474.5" font-family="Helvetica,sans-Serif" font-size="10.00">||}</text>
</a>
</g>
</g>
<!-- Node11&#45;&gt;Node1 -->
<g id="edge11" class="edge"><title>Node11&#45;&gt;Node1</title>
<path fill="none" stroke="#404040" d="M637.055,-467.389C632.359,-446.771 621.936,-407.646 605,-378 577.835,-330.448 538.276,-283.756 504.154,-247.773"/>
<polygon fill="none" stroke="#404040" points="503.913,-247.522 496.873,-245.96 495.606,-238.861 502.646,-240.423 503.913,-247.522"/>
<text text-anchor="start" x="625" y="-408.5" font-family="Helvetica,sans-Serif" font-size="10.00"> &#45;isCallATMIncluded</text>
<text text-anchor="middle" x="669" y="-397.5" font-family="Helvetica,sans-Serif" font-size="10.00">_</text>
<text text-anchor="middle" x="669" y="-386.5" font-family="Helvetica,sans-Serif" font-size="10.00">&#45;isPutATMIncluded_</text>
</g>
<!-- Node12 -->
<g id="node12" class="node"><title>Node12</title>
<g id="a_node12"><a xlink:title=" ">
<polygon fill="white" stroke="#666666" points="142,-497.5 50,-497.5 50,-467.5 142,-467.5 142,-497.5"/>
<text text-anchor="middle" x="96" y="-485.5" font-family="Helvetica,sans-Serif" font-size="10.00">{vector&lt; double &gt;</text>
<text text-anchor="middle" x="96" y="-474.5" font-family="Helvetica,sans-Serif" font-size="10.00">||}</text>
</a>
</g>
</g>
<!-- Node12&#45;&gt;Node1 -->
<g id="edge12" class="edge"><title>Node12&#45;&gt;Node1</title>
<path fill="none" stroke="#404040" d="M107.048,-467.399C123.484,-446.793 155.796,-407.684 187,-378 243.516,-324.238 313.548,-269.567 364.764,-231.503"/>
<polygon fill="none" stroke="#404040" points="364.777,-231.494 367.221,-224.709 374.423,-224.355 371.979,-231.14 364.777,-231.494"/>
<text text-anchor="middle" x="216.5" y="-414" font-family="Helvetica,sans-Serif" font-size="10.00"> &#45;callPayoffs_</text>
<text text-anchor="middle" x="216.5" y="-403" font-family="Helvetica,sans-Serif" font-size="10.00">&#45;callStrikes_</text>
<text text-anchor="middle" x="216.5" y="-392" font-family="Helvetica,sans-Serif" font-size="10.00">&#45;putPayoffs_</text>
<text text-anchor="middle" x="216.5" y="-381" font-family="Helvetica,sans-Serif" font-size="10.00">&#45;putStrikes_</text>
</g>
<!-- Node13 -->
<g id="node13" class="node"><title>Node13</title>
<g id="a_node13"><a xlink:title=" ">
<polygon fill="white" stroke="#666666" points="48,-640.5 0,-640.5 0,-610.5 48,-610.5 48,-640.5"/>
<text text-anchor="middle" x="24" y="-628.5" font-family="Helvetica,sans-Serif" font-size="10.00">{double</text>
<text text-anchor="middle" x="24" y="-617.5" font-family="Helvetica,sans-Serif" font-size="10.00">||}</text>
</a>
</g>
</g>
<!-- Node13&#45;&gt;Node12 -->
<g id="edge13" class="edge"><title>Node13&#45;&gt;Node12</title>
<path fill="none" stroke="#404040" d="M25.1755,-610.212C27.0374,-593.334 31.6974,-564.797 43,-543 50.0207,-529.46 60.8243,-516.547 70.8503,-506.232"/>
<polygon fill="none" stroke="#404040" points="71.1403,-505.948 72.6238,-498.891 79.7084,-497.546 78.2249,-504.603 71.1403,-505.948"/>
<text text-anchor="middle" x="67.5" y="-546" font-family="Helvetica,sans-Serif" font-size="10.00"> +elements</text>
</g>
<!-- Node14 -->
<g id="node14" class="node"><title>Node14</title>
<g id="a_node14"><a xlink:title=" ">
<polygon fill="white" stroke="#666666" points="164,-640.5 96,-640.5 96,-610.5 164,-610.5 164,-640.5"/>
<text text-anchor="middle" x="130" y="-628.5" font-family="Helvetica,sans-Serif" font-size="10.00">{vector&lt; T &gt;</text>
<text text-anchor="middle" x="130" y="-617.5" font-family="Helvetica,sans-Serif" font-size="10.00">||}</text>
</a>
</g>
</g>
<!-- Node14&#45;&gt;Node12 -->
<g id="edge14" class="edge"><title>Node14&#45;&gt;Node12</title>
<path fill="none" stroke="orange" d="M116.123,-601.369C108.912,-588.025 100.826,-570.639 97,-554 92.6115,-534.913 93.318,-512.145 94.465,-497.754"/>
<polygon fill="orange" stroke="orange" points="113.193,-603.3 121.144,-610.302 119.295,-599.869 113.193,-603.3"/>
<text text-anchor="middle" x="122" y="-546" font-family="Helvetica,sans-Serif" font-size="10.00"> &lt; double &gt;</text>
</g>
<!-- Node14&#45;&gt;Node16 -->
<g id="edge18" class="edge"><title>Node14&#45;&gt;Node16</title>
<path fill="none" stroke="orange" d="M139.956,-600.945C147.381,-584.277 158.238,-561.661 170,-543 180.389,-526.518 194.474,-509.207 204.51,-497.534"/>
<polygon fill="orange" stroke="orange" points="136.592,-599.902 135.798,-610.467 143.007,-602.703 136.592,-599.902"/>
<text text-anchor="middle" x="193" y="-546" font-family="Helvetica,sans-Serif" font-size="10.00"> &lt; string &gt;</text>
</g>
<!-- Node15 -->
<g id="node15" class="node"><title>Node15</title>
<g id="a_node15"><a xlink:title=" ">
<polygon fill="white" stroke="#666666" points="144.5,-756 115.5,-756 115.5,-726 144.5,-726 144.5,-756"/>
<text text-anchor="middle" x="130" y="-744" font-family="Helvetica,sans-Serif" font-size="10.00">{T</text>
<text text-anchor="middle" x="130" y="-733" font-family="Helvetica,sans-Serif" font-size="10.00">||}</text>
</a>
</g>
</g>
<!-- Node15&#45;&gt;Node14 -->
<g id="edge15" class="edge"><title>Node15&#45;&gt;Node14</title>
<path fill="none" stroke="#404040" d="M130,-725.625C130,-707.375 130,-675.54 130,-652.873"/>
<polygon fill="none" stroke="#404040" points="130,-652.758 126,-646.758 130,-640.758 134,-646.758 130,-652.758"/>
<text text-anchor="middle" x="154.5" y="-700" font-family="Helvetica,sans-Serif" font-size="10.00"> +elements</text>
</g>
<!-- Node16&#45;&gt;Node1 -->
<g id="edge16" class="edge"><title>Node16&#45;&gt;Node1</title>
<path fill="none" stroke="#404040" d="M223.964,-467.321C234.185,-446.952 254.29,-408.504 275,-378 302.717,-337.176 336.804,-294.368 366.384,-259.126"/>
<polygon fill="none" stroke="#404040" points="366.459,-259.037 367.271,-251.872 374.198,-249.866 373.385,-257.031 366.459,-259.037"/>
<text text-anchor="middle" x="314.5" y="-414" font-family="Helvetica,sans-Serif" font-size="10.00"> &#45;callPayoffDates_</text>
<text text-anchor="middle" x="314.5" y="-403" font-family="Helvetica,sans-Serif" font-size="10.00">&#45;callStrikeDates_</text>
<text text-anchor="middle" x="314.5" y="-392" font-family="Helvetica,sans-Serif" font-size="10.00">&#45;putPayoffDates_</text>
<text text-anchor="middle" x="314.5" y="-381" font-family="Helvetica,sans-Serif" font-size="10.00">&#45;putStrikeDates_</text>
</g>
</g>
</svg>
        <g id="navigator" transform="translate(0 0)" fill="#404254">
                <rect fill="#f2f5e9" fill-opacity="0.5" stroke="#606060" stroke-width=".5" x="0" y="0" width="60" height="60"/>
                <use id="zoomplus" xlink:href="#zoomPlus" x="17" y="9" onmousedown="handleZoom(evt,'in')"/>
                <use id="zoomminus" xlink:href="#zoomMin" x="42" y="9" onmousedown="handleZoom(evt,'out')"/>
                <use id="reset" xlink:href="#resetDef" x="30" y="36" onmousedown="handleReset()"/>
                <g id="arrowUp" xlink:href="#dirArrow" transform="translate(30 24)" onmousedown="handlePan(0,-1)">
                  <use xlink:href="#rim" fill="#404040">
                        <set attributeName="fill" to="#808080" begin="arrowUp.mouseover" end="arrowUp.mouseout"/>
                  </use>
                  <path fill="none" stroke="white" stroke-width="1.5" d="M0,-3.0v7 M-2.5,-0.5L0,-3.0L2.5,-0.5"/>
                </g>
                <g id="arrowRight" xlink:href="#dirArrow" transform="rotate(90) translate(36 -43)" onmousedown="handlePan(1,0)">
                  <use xlink:href="#rim" fill="#404040">
                        <set attributeName="fill" to="#808080" begin="arrowRight.mouseover" end="arrowRight.mouseout"/>
                  </use>
                  <path fill="none" stroke="white" stroke-width="1.5" d="M0,-3.0v7 M-2.5,-0.5L0,-3.0L2.5,-0.5"/>
                </g>
                <g id="arrowDown" xlink:href="#dirArrow" transform="rotate(180) translate(-30 -48)" onmousedown="handlePan(0,1)">
                  <use xlink:href="#rim" fill="#404040">
                        <set attributeName="fill" to="#808080" begin="arrowDown.mouseover" end="arrowDown.mouseout"/>
                  </use>
                  <path fill="none" stroke="white" stroke-width="1.5" d="M0,-3.0v7 M-2.5,-0.5L0,-3.0L2.5,-0.5"/>
                </g>
                <g id="arrowLeft" xlink:href="#dirArrow" transform="rotate(270) translate(-36 17)" onmousedown="handlePan(-1,0)">
                  <use xlink:href="#rim" fill="#404040">
                        <set attributeName="fill" to="#808080" begin="arrowLeft.mouseover" end="arrowLeft.mouseout"/>
                  </use>
                  <path fill="none" stroke="white" stroke-width="1.5" d="M0,-3.0v7 M-2.5,-0.5L0,-3.0L2.5,-0.5"/>
                </g>
        </g>
        <svg viewBox="0 0 15 15" width="100%" height="30px" preserveAspectRatio="xMaxYMin meet">
         <g id="arrow_out" transform="scale(0.3 0.3)">
          <a xlink:href="classore_1_1data_1_1_digital_c_m_s_leg_data__coll__graph_org.svg" target="_base">
           <rect id="button" ry="5" rx="5" y="6" x="6" height="38" width="38"
                fill="#f2f5e9" fill-opacity="0.5" stroke="#606060" stroke-width="1.0"/>
           <path id="arrow"
             d="M 11.500037,31.436501 C 11.940474,20.09759 22.043105,11.32322 32.158766,21.979434 L 37.068811,17.246167 C 37.068811,17.246167 37.088388,32 37.088388,32 L 22.160133,31.978069 C 22.160133,31.978069 26.997745,27.140456 26.997745,27.140456 C 18.528582,18.264221 13.291696,25.230495 11.500037,31.436501 z"
             style="fill:#404040;"/>
          </a>
         </g>
        </svg>
</svg>
