<?xml version="1.0" encoding="UTF-8" standalone="no"?>
<!DOCTYPE svg PUBLIC "-//W3C//DTD SVG 1.1//EN"
 "http://www.w3.org/Graphics/SVG/1.1/DTD/svg11.dtd">
<!-- Generated by graphviz version 2.38.0 (20140413.2041)
 -->
<!-- Title: hasConfiguration Pages: 1 -->
<svg width="703pt" height="197pt"
 viewBox="0.00 0.00 703.00 197.00" xmlns="http://www.w3.org/2000/svg" xmlns:xlink="http://www.w3.org/1999/xlink">
<g id="graph0" class="graph" transform="scale(1 1) rotate(0) translate(4 193)">
<title>hasConfiguration</title>
<!-- Node1 -->
<g id="node1" class="node"><title>Node1</title>
<g id="a_node1"><a xlink:title=" ">
<polygon fill="#999999" stroke="#666666" points="695,-111 606,-111 606,-92 695,-92 695,-111"/>
<text text-anchor="middle" x="650.5" y="-99" font-family="Helvetica,sans-Serif" font-size="10.00">hasConfiguration</text>
</a>
</g>
</g>
<!-- Node2 -->
<g id="node2" class="node"><title>Node2</title>
<g id="a_node2"><a xlink:href="classore_1_1data_1_1_todays_market_parameters.html#ae1410f74e75b63ffa7b04f033c086e1b" target="_top" xlink:title=" ">
<polygon fill="white" stroke="#666666" points="570,-151 481,-151 481,-132 570,-132 570,-151"/>
<text text-anchor="middle" x="525.5" y="-139" font-family="Helvetica,sans-Serif" font-size="10.00">addConfiguration</text>
</a>
</g>
</g>
<!-- Node1&#45;&gt;Node2 -->
<g id="edge1" class="edge"><title>Node1&#45;&gt;Node2</title>
<path fill="none" stroke="#63b8ff" d="M610.52,-114.176C592.768,-119.95 572.11,-126.667 555.721,-131.997"/>
<polygon fill="#63b8ff" stroke="#63b8ff" points="611.611,-117.502 620.038,-111.081 609.446,-110.845 611.611,-117.502"/>
</g>
<!-- Node4 -->
<g id="node4" class="node"><title>Node4</title>
<g id="a_node4"><a xlink:href="classore_1_1data_1_1_todays_market_parameters.html#a7741ae0fc924943de5bfe02928262eb7" target="_top" xlink:title=" ">
<polygon fill="white" stroke="#666666" points="423.5,-189 369.5,-189 369.5,-170 423.5,-170 423.5,-189"/>
<text text-anchor="middle" x="396.5" y="-177" font-family="Helvetica,sans-Serif" font-size="10.00">fromXML</text>
</a>
</g>
</g>
<!-- Node1&#45;&gt;Node4 -->
<g id="edge4" class="edge"><title>Node1&#45;&gt;Node4</title>
<path fill="none" stroke="#63b8ff" d="M632.229,-118.245C617.116,-131.811 593.896,-150.153 570,-159.5 520.865,-178.719 458.298,-181.008 423.623,-180.533"/>
<polygon fill="#63b8ff" stroke="#63b8ff" points="634.784,-120.649 639.744,-111.287 630.028,-115.513 634.784,-120.649"/>
</g>
<!-- Node5 -->
<g id="node5" class="node"><title>Node5</title>
<g id="a_node5"><a xlink:href="classore_1_1data_1_1_todays_market_parameters.html#a451da96d7cc713be6c76c5b288cce4ca" target="_top" xlink:title="EUR =&gt; Yield/EUR/EUR6M, USD =&gt; Yield/USD/USD3M etc.">
<polygon fill="white" stroke="#666666" points="423,-111 370,-111 370,-92 423,-92 423,-111"/>
<text text-anchor="middle" x="396.5" y="-99" font-family="Helvetica,sans-Serif" font-size="10.00">mapping</text>
</a>
</g>
</g>
<!-- Node1&#45;&gt;Node5 -->
<g id="edge5" class="edge"><title>Node1&#45;&gt;Node5</title>
<path fill="none" stroke="#63b8ff" d="M595.632,-101.5C542.515,-101.5 463.608,-101.5 423.274,-101.5"/>
<polygon fill="#63b8ff" stroke="#63b8ff" points="595.893,-105 605.893,-101.5 595.893,-98.0001 595.893,-105"/>
</g>
<!-- Node8 -->
<g id="node8" class="node"><title>Node8</title>
<g id="a_node8"><a xlink:href="classore_1_1data_1_1_todays_market_parameters.html#ae4d162a5cc3a507637353fb831764d1d" target="_top" xlink:title="return a mapping reference for modification">
<polygon fill="white" stroke="#666666" points="445,-19 348,-19 348,-0 445,-0 445,-19"/>
<text text-anchor="middle" x="396.5" y="-7" font-family="Helvetica,sans-Serif" font-size="10.00">mappingReference</text>
</a>
</g>
</g>
<!-- Node1&#45;&gt;Node8 -->
<g id="edge9" class="edge"><title>Node1&#45;&gt;Node8</title>
<path fill="none" stroke="#63b8ff" d="M633.917,-84.3916C619.046,-69.2217 595.226,-47.7749 570,-36.5 530.288,-18.7501 480.895,-12.4158 445.153,-10.2763"/>
<polygon fill="#63b8ff" stroke="#63b8ff" points="631.409,-86.8332 640.838,-91.6652 636.48,-82.008 631.409,-86.8332"/>
</g>
<!-- Node9 -->
<g id="node9" class="node"><title>Node9</title>
<g id="a_node9"><a xlink:href="classore_1_1data_1_1_todays_market_parameters.html#af07dd518bba247175c3e8816becacec7" target="_top" xlink:title="Intermediate id for a given market object and configuration, see the description of configurations_ b...">
<polygon fill="white" stroke="#666666" points="567,-65 484,-65 484,-46 567,-46 567,-65"/>
<text text-anchor="middle" x="525.5" y="-53" font-family="Helvetica,sans-Serif" font-size="10.00">marketObjectId</text>
</a>
</g>
</g>
<!-- Node1&#45;&gt;Node9 -->
<g id="edge10" class="edge"><title>Node1&#45;&gt;Node9</title>
<path fill="none" stroke="#63b8ff" d="M614.639,-88.4624C594.682,-80.999 570.087,-71.8007 551.953,-65.019"/>
<polygon fill="#63b8ff" stroke="#63b8ff" points="613.422,-91.7441 624.014,-91.9688 615.874,-85.1876 613.422,-91.7441"/>
</g>
<!-- Node3 -->
<g id="node3" class="node"><title>Node3</title>
<g id="a_node3"><a xlink:href="test_2fixings_8cpp.html#a67ada7956eb90fe9fbecd12a611892ab" target="_top" xlink:title=" ">
<polygon fill="white" stroke="#666666" points="143,-129 0,-129 0,-110 143,-110 143,-129"/>
<text text-anchor="middle" x="71.5" y="-117" font-family="Helvetica,sans-Serif" font-size="10.00">BOOST_AUTO_TEST_CASE</text>
</a>
</g>
</g>
<!-- Node2&#45;&gt;Node3 -->
<g id="edge2" class="edge"><title>Node2&#45;&gt;Node3</title>
<path fill="none" stroke="#63b8ff" d="M470.687,-138.881C389.032,-134.906 233.773,-127.35 143.132,-122.938"/>
<polygon fill="#63b8ff" stroke="#63b8ff" points="470.591,-142.38 480.75,-139.371 470.932,-135.388 470.591,-142.38"/>
</g>
<!-- Node2&#45;&gt;Node4 -->
<g id="edge3" class="edge"><title>Node2&#45;&gt;Node4</title>
<path fill="none" stroke="#63b8ff" d="M482.859,-153.96C463.316,-159.807 440.626,-166.596 423.555,-171.704"/>
<polygon fill="#63b8ff" stroke="#63b8ff" points="483.876,-157.309 492.453,-151.089 481.869,-150.603 483.876,-157.309"/>
</g>
<!-- Node6 -->
<g id="node6" class="node"><title>Node6</title>
<g id="a_node6"><a xlink:href="namespaceore_1_1data.html#a679d89696aea99b50e404364e8cd8c60" target="_top" xlink:title=" ">
<polygon fill="white" stroke="#666666" points="312,-113.5 179,-113.5 179,-83.5 312,-83.5 312,-113.5"/>
<text text-anchor="start" x="187" y="-101.5" font-family="Helvetica,sans-Serif" font-size="10.00">ore::data::addMarketFixing</text>
<text text-anchor="middle" x="245.5" y="-90.5" font-family="Helvetica,sans-Serif" font-size="10.00">Dates</text>
</a>
</g>
</g>
<!-- Node5&#45;&gt;Node6 -->
<g id="edge6" class="edge"><title>Node5&#45;&gt;Node6</title>
<path fill="none" stroke="#63b8ff" d="M359.539,-100.776C345.276,-100.489 328.413,-100.149 312.125,-99.8213"/>
<polygon fill="#63b8ff" stroke="#63b8ff" points="359.818,-104.282 369.886,-100.984 359.959,-97.2836 359.818,-104.282"/>
</g>
<!-- Node7 -->
<g id="node7" class="node"><title>Node7</title>
<g id="a_node7"><a xlink:href="classore_1_1data_1_1_todays_market_parameters.html#a7efefb9270d6c4933e4c96de0771f17a" target="_top" xlink:title=" ">
<polygon fill="white" stroke="#666666" points="267.5,-65 223.5,-65 223.5,-46 267.5,-46 267.5,-65"/>
<text text-anchor="middle" x="245.5" y="-53" font-family="Helvetica,sans-Serif" font-size="10.00">toXML</text>
</a>
</g>
</g>
<!-- Node5&#45;&gt;Node7 -->
<g id="edge8" class="edge"><title>Node5&#45;&gt;Node7</title>
<path fill="none" stroke="#63b8ff" d="M360.177,-89.8154C345.331,-84.9731 327.859,-79.3629 312,-74.5 297.284,-69.9875 280.623,-65.1584 267.788,-61.4979"/>
<polygon fill="#63b8ff" stroke="#63b8ff" points="359.389,-93.2404 369.982,-93.0264 361.568,-86.5881 359.389,-93.2404"/>
</g>
<!-- Node6&#45;&gt;Node3 -->
<g id="edge7" class="edge"><title>Node6&#45;&gt;Node3</title>
<path fill="none" stroke="#63b8ff" d="M169.025,-107.715C160.468,-108.76 151.771,-109.822 143.278,-110.858"/>
<polygon fill="#63b8ff" stroke="#63b8ff" points="169.481,-111.185 178.984,-106.499 168.633,-104.237 169.481,-111.185"/>
</g>
<!-- Node9&#45;&gt;Node5 -->
<g id="edge13" class="edge"><title>Node9&#45;&gt;Node5</title>
<path fill="none" stroke="#63b8ff" d="M488.72,-68.4596C467.917,-75.9947 442.175,-85.3187 423.346,-92.1384"/>
<polygon fill="#63b8ff" stroke="#63b8ff" points="489.975,-71.7276 498.186,-65.0312 487.591,-65.146 489.975,-71.7276"/>
</g>
<!-- Node9&#45;&gt;Node8 -->
<g id="edge14" class="edge"><title>Node9&#45;&gt;Node8</title>
<path fill="none" stroke="#63b8ff" d="M488.505,-42.4624C467.899,-34.999 442.504,-25.8007 423.781,-19.019"/>
<polygon fill="#63b8ff" stroke="#63b8ff" points="487.591,-45.854 498.186,-45.9688 489.975,-39.2724 487.591,-45.854"/>
</g>
<!-- Node10 -->
<g id="node10" class="node"><title>Node10</title>
<g id="a_node10"><a xlink:href="classore_1_1data_1_1_todays_market_parameters.html#a0e1a3fd667441f154229d62132449f70" target="_top" xlink:title="Build a vector of all the curve specs (may contain duplicates)">
<polygon fill="white" stroke="#666666" points="430,-56 363,-56 363,-37 430,-37 430,-56"/>
<text text-anchor="middle" x="396.5" y="-44" font-family="Helvetica,sans-Serif" font-size="10.00">curveSpecs</text>
</a>
</g>
</g>
<!-- Node9&#45;&gt;Node10 -->
<g id="edge11" class="edge"><title>Node9&#45;&gt;Node10</title>
<path fill="none" stroke="#63b8ff" d="M473.928,-51.9161C459.141,-50.8682 443.377,-49.7511 430.03,-48.8053"/>
<polygon fill="#63b8ff" stroke="#63b8ff" points="473.745,-55.4119 483.967,-52.6276 474.24,-48.4294 473.745,-55.4119"/>
</g>
<!-- Node10&#45;&gt;Node10 -->
<g id="edge12" class="edge"><title>Node10&#45;&gt;Node10</title>
<path fill="none" stroke="#63b8ff" d="M420.203,-65.5536C418.62,-70.3804 410.719,-74 396.5,-74 373.75,-74 367.174,-64.7337 376.771,-56.0828"/>
<polygon fill="#63b8ff" stroke="#63b8ff" points="423.325,-63.9497 416.229,-56.0828 416.87,-66.6582 423.325,-63.9497"/>
</g>
</g>
</svg>
