<?xml version="1.0" encoding="UTF-8" standalone="no"?>
<!DOCTYPE svg PUBLIC "-//W3C//DTD SVG 1.1//EN"
 "http://www.w3.org/Graphics/SVG/1.1/DTD/svg11.dtd">
<!-- Generated by graphviz version 2.38.0 (20140413.2041)
 -->
<!-- Title: engineImpl Pages: 1 -->
<svg width="228pt" height="293pt"
 viewBox="0.00 0.00 228.00 292.50" xmlns="http://www.w3.org/2000/svg" xmlns:xlink="http://www.w3.org/1999/xlink">
<g id="graph0" class="graph" transform="scale(1 1) rotate(0) translate(4 288.5)">
<title>engineImpl</title>
<!-- Node1 -->
<g id="node1" class="node"><title>Node1</title>
<g id="a_node1"><a xlink:title=" ">
<polygon fill="#999999" stroke="#666666" points="63,-159 0,-159 0,-140 63,-140 63,-159"/>
<text text-anchor="middle" x="31.5" y="-147" font-family="Helvetica,sans-Serif" font-size="10.00">engineImpl</text>
</a>
</g>
</g>
<!-- Node2 -->
<g id="node2" class="node"><title>Node2</title>
<g id="a_node2"><a xlink:href="classore_1_1data_1_1_engine_builder.html#aaacbfbb4007edcf8c34df2f37f8ebae5" target="_top" xlink:title="Return a configuration (or the default one if key not found)">
<polygon fill="white" stroke="#666666" points="220,-284.5 99,-284.5 99,-254.5 220,-254.5 220,-284.5"/>
<text text-anchor="start" x="107" y="-272.5" font-family="Helvetica,sans-Serif" font-size="10.00">ore::data::EngineBuilder</text>
<text text-anchor="middle" x="159.5" y="-261.5" font-family="Helvetica,sans-Serif" font-size="10.00">::configuration</text>
</a>
</g>
</g>
<!-- Node1&#45;&gt;Node2 -->
<g id="edge1" class="edge"><title>Node1&#45;&gt;Node2</title>
<path fill="none" stroke="#63b8ff" d="M36.7669,-159.05C45.6966,-178.037 68.1141,-220.819 99,-245.5 100.599,-246.778 102.275,-247.996 104.008,-249.156"/>
<polygon fill="#63b8ff" stroke="#63b8ff" points="102.674,-252.432 113.068,-254.484 106.223,-246.398 102.674,-252.432"/>
</g>
<!-- Node3 -->
<g id="node3" class="node"><title>Node3</title>
<g id="a_node3"><a xlink:href="classore_1_1data_1_1_engine_builder.html#a9d7654707f3b935dcf6a7b19df70c085" target="_top" xlink:title=" ">
<polygon fill="white" stroke="#666666" points="220,-236.5 99,-236.5 99,-206.5 220,-206.5 220,-236.5"/>
<text text-anchor="start" x="107" y="-224.5" font-family="Helvetica,sans-Serif" font-size="10.00">ore::data::EngineBuilder</text>
<text text-anchor="middle" x="159.5" y="-213.5" font-family="Helvetica,sans-Serif" font-size="10.00">::engineParameter</text>
</a>
</g>
</g>
<!-- Node1&#45;&gt;Node3 -->
<g id="edge2" class="edge"><title>Node1&#45;&gt;Node3</title>
<path fill="none" stroke="#63b8ff" d="M44.1714,-159.27C57.0141,-169.691 78.5558,-186.217 99,-197.5 101.877,-199.088 104.881,-200.628 107.944,-202.111"/>
<polygon fill="#63b8ff" stroke="#63b8ff" points="106.697,-205.39 117.246,-206.378 109.616,-199.027 106.697,-205.39"/>
</g>
<!-- Node4 -->
<g id="node4" class="node"><title>Node4</title>
<g id="a_node4"><a xlink:href="classore_1_1data_1_1_engine_builder.html#a5b42b4fc92c1fab7879d756cce6bc6b9" target="_top" xlink:title="Return the model name.">
<polygon fill="white" stroke="#666666" points="220,-188.5 99,-188.5 99,-158.5 220,-158.5 220,-188.5"/>
<text text-anchor="start" x="107" y="-176.5" font-family="Helvetica,sans-Serif" font-size="10.00">ore::data::EngineBuilder</text>
<text text-anchor="middle" x="159.5" y="-165.5" font-family="Helvetica,sans-Serif" font-size="10.00">::model</text>
</a>
</g>
</g>
<!-- Node1&#45;&gt;Node4 -->
<g id="edge3" class="edge"><title>Node1&#45;&gt;Node4</title>
<path fill="none" stroke="#63b8ff" d="M63.0011,-155.31C70.9705,-156.828 79.8954,-158.528 89.0033,-160.263"/>
<polygon fill="#63b8ff" stroke="#63b8ff" points="88.4434,-163.719 98.9217,-162.152 89.7532,-156.842 88.4434,-163.719"/>
</g>
<!-- Node5 -->
<g id="node5" class="node"><title>Node5</title>
<g id="a_node5"><a xlink:href="classore_1_1data_1_1_engine_builder.html#a71eb734e0723ecb94e47fdb853e56359" target="_top" xlink:title=" ">
<polygon fill="white" stroke="#666666" points="220,-140.5 99,-140.5 99,-110.5 220,-110.5 220,-140.5"/>
<text text-anchor="start" x="107" y="-128.5" font-family="Helvetica,sans-Serif" font-size="10.00">ore::data::EngineBuilder</text>
<text text-anchor="middle" x="159.5" y="-117.5" font-family="Helvetica,sans-Serif" font-size="10.00">::modelParameter</text>
</a>
</g>
</g>
<!-- Node1&#45;&gt;Node5 -->
<g id="edge4" class="edge"><title>Node1&#45;&gt;Node5</title>
<path fill="none" stroke="#63b8ff" d="M63.0011,-143.69C70.9705,-142.172 79.8954,-140.472 89.0033,-138.737"/>
<polygon fill="#63b8ff" stroke="#63b8ff" points="89.7532,-142.158 98.9217,-136.848 88.4434,-135.281 89.7532,-142.158"/>
</g>
<!-- Node6 -->
<g id="node6" class="node"><title>Node6</title>
<g id="a_node6"><a xlink:href="group__utilities.html#gaecd67eda4fb5f4859bb8f6d383547721" target="_top" xlink:title="Convert text to QuantLib::Integer.">
<polygon fill="white" stroke="#666666" points="216.5,-74 102.5,-74 102.5,-55 216.5,-55 216.5,-74"/>
<text text-anchor="middle" x="159.5" y="-62" font-family="Helvetica,sans-Serif" font-size="10.00">ore::data::parseInteger</text>
</a>
</g>
</g>
<!-- Node1&#45;&gt;Node6 -->
<g id="edge5" class="edge"><title>Node1&#45;&gt;Node6</title>
<path fill="none" stroke="#63b8ff" d="M45.559,-139.666C58.8332,-129.767 80.0796,-114.189 99,-101.5 110.174,-94.0062 122.798,-86.0813 133.535,-79.4966"/>
<polygon fill="#63b8ff" stroke="#63b8ff" points="135.678,-82.2893 142.4,-74.0996 132.038,-76.3102 135.678,-82.2893"/>
</g>
<!-- Node7 -->
<g id="node7" class="node"><title>Node7</title>
<g id="a_node7"><a xlink:href="group__utilities.html#gad1db2a68f9a73667c3b4084d63955bdd" target="_top" xlink:title="Convert text to Real.">
<polygon fill="white" stroke="#666666" points="211.5,-19 107.5,-19 107.5,-0 211.5,-0 211.5,-19"/>
<text text-anchor="middle" x="159.5" y="-7" font-family="Helvetica,sans-Serif" font-size="10.00">ore::data::parseReal</text>
</a>
</g>
</g>
<!-- Node1&#45;&gt;Node7 -->
<g id="edge7" class="edge"><title>Node1&#45;&gt;Node7</title>
<path fill="none" stroke="#63b8ff" d="M36.8441,-139.998C46.0742,-120.587 69.2512,-75.7483 99,-46.5 107.923,-37.7273 119.282,-30.0307 129.679,-23.9618"/>
<polygon fill="#63b8ff" stroke="#63b8ff" points="131.447,-26.9833 138.482,-19.0614 128.042,-20.867 131.447,-26.9833"/>
</g>
<!-- Node6&#45;&gt;Node6 -->
<g id="edge6" class="edge"><title>Node6&#45;&gt;Node6</title>
<path fill="none" stroke="#63b8ff" d="M139.771,-74.0828C130.174,-82.7337 136.75,-92 159.5,-92 173.719,-92 181.62,-88.3804 183.203,-83.5536"/>
<polygon fill="#63b8ff" stroke="#63b8ff" points="186.325,-81.9497 179.229,-74.0828 179.87,-84.6582 186.325,-81.9497"/>
</g>
<!-- Node7&#45;&gt;Node7 -->
<g id="edge8" class="edge"><title>Node7&#45;&gt;Node7</title>
<path fill="none" stroke="#63b8ff" d="M139.771,-19.0828C130.174,-27.7337 136.75,-37 159.5,-37 173.719,-37 181.62,-33.3804 183.203,-28.5536"/>
<polygon fill="#63b8ff" stroke="#63b8ff" points="186.325,-26.9497 179.229,-19.0828 179.87,-29.6582 186.325,-26.9497"/>
</g>
</g>
</svg>
