<?xml version="1.0" encoding="UTF-8" standalone="no"?>
<!DOCTYPE svg PUBLIC "-//W3C//DTD SVG 1.1//EN"
 "http://www.w3.org/Graphics/SVG/1.1/DTD/svg11.dtd">
<!-- Generated by graphviz version 2.38.0 (20140413.2041)
 -->
<!-- Title: engineImpl Pages: 1 -->
<svg width="404pt" height="179pt"
 viewBox="0.00 0.00 404.00 178.50" xmlns="http://www.w3.org/2000/svg" xmlns:xlink="http://www.w3.org/1999/xlink">
<g id="graph0" class="graph" transform="scale(1 1) rotate(0) translate(4 174.5)">
<title>engineImpl</title>
<!-- Node1 -->
<g id="node1" class="node"><title>Node1</title>
<g id="a_node1"><a xlink:title=" ">
<polygon fill="#999999" stroke="#666666" points="63,-86 0,-86 0,-67 63,-67 63,-86"/>
<text text-anchor="middle" x="31.5" y="-74" font-family="Helvetica,sans-Serif" font-size="10.00">engineImpl</text>
</a>
</g>
</g>
<!-- Node2 -->
<g id="node2" class="node"><title>Node2</title>
<g id="a_node2"><a xlink:href="classore_1_1data_1_1_engine_builder.html#aaacbfbb4007edcf8c34df2f37f8ebae5" target="_top" xlink:title="Return a configuration (or the default one if key not found)">
<polygon fill="white" stroke="#666666" points="228,-170.5 107,-170.5 107,-140.5 228,-140.5 228,-170.5"/>
<text text-anchor="start" x="115" y="-158.5" font-family="Helvetica,sans-Serif" font-size="10.00">ore::data::EngineBuilder</text>
<text text-anchor="middle" x="167.5" y="-147.5" font-family="Helvetica,sans-Serif" font-size="10.00">::configuration</text>
</a>
</g>
</g>
<!-- Node1&#45;&gt;Node2 -->
<g id="edge1" class="edge"><title>Node1&#45;&gt;Node2</title>
<path fill="none" stroke="#63b8ff" d="M42.0423,-86.2697C54.2742,-98.3233 76.5899,-118.778 99,-131.5 102.012,-133.21 105.167,-134.831 108.398,-136.364"/>
<polygon fill="#63b8ff" stroke="#63b8ff" points="107.091,-139.613 117.653,-140.446 109.916,-133.208 107.091,-139.613"/>
</g>
<!-- Node3 -->
<g id="node3" class="node"><title>Node3</title>
<g id="a_node3"><a xlink:href="classore_1_1data_1_1_engine_builder.html#a9d7654707f3b935dcf6a7b19df70c085" target="_top" xlink:title=" ">
<polygon fill="white" stroke="#666666" points="228,-122.5 107,-122.5 107,-92.5 228,-92.5 228,-122.5"/>
<text text-anchor="start" x="115" y="-110.5" font-family="Helvetica,sans-Serif" font-size="10.00">ore::data::EngineBuilder</text>
<text text-anchor="middle" x="167.5" y="-99.5" font-family="Helvetica,sans-Serif" font-size="10.00">::engineParameter</text>
</a>
</g>
</g>
<!-- Node1&#45;&gt;Node3 -->
<g id="edge2" class="edge"><title>Node1&#45;&gt;Node3</title>
<path fill="none" stroke="#63b8ff" d="M63.2423,-83.612C73.3838,-85.9582 85.1112,-88.6713 96.9452,-91.409"/>
<polygon fill="#63b8ff" stroke="#63b8ff" points="96.3466,-94.8629 106.878,-93.7069 97.9244,-88.043 96.3466,-94.8629"/>
</g>
<!-- Node4 -->
<g id="node4" class="node"><title>Node4</title>
<g id="a_node4"><a xlink:href="group__utilities.html#gad1db2a68f9a73667c3b4084d63955bdd" target="_top" xlink:title="Convert text to Real.">
<polygon fill="white" stroke="#666666" points="219.5,-56 115.5,-56 115.5,-37 219.5,-37 219.5,-56"/>
<text text-anchor="middle" x="167.5" y="-44" font-family="Helvetica,sans-Serif" font-size="10.00">ore::data::parseReal</text>
</a>
</g>
</g>
<!-- Node1&#45;&gt;Node4 -->
<g id="edge3" class="edge"><title>Node1&#45;&gt;Node4</title>
<path fill="none" stroke="#63b8ff" d="M63.2423,-69.6174C78.2921,-66.248 96.8347,-62.0967 114.035,-58.246"/>
<polygon fill="#63b8ff" stroke="#63b8ff" points="114.976,-61.6219 123.97,-56.0216 113.447,-54.791 114.976,-61.6219"/>
</g>
<!-- Node5 -->
<g id="node5" class="node"><title>Node5</title>
<g id="a_node5"><a xlink:href="group__utilities.html#gaf17e7976e4fe2449bb4e226ee19c0fd9" target="_top" xlink:title="Try to convert std::string to QuantLib::IborIndex.">
<polygon fill="white" stroke="#666666" points="236,-19 99,-19 99,-0 236,-0 236,-19"/>
<text text-anchor="middle" x="167.5" y="-7" font-family="Helvetica,sans-Serif" font-size="10.00">ore::data::tryParseIborIndex</text>
</a>
</g>
</g>
<!-- Node1&#45;&gt;Node5 -->
<g id="edge5" class="edge"><title>Node1&#45;&gt;Node5</title>
<path fill="none" stroke="#63b8ff" d="M43.4861,-66.6839C56.0727,-55.9083 77.715,-38.7765 99,-28.5 103.865,-26.1512 109.071,-24.0458 114.355,-22.1699"/>
<polygon fill="#63b8ff" stroke="#63b8ff" points="115.482,-25.4837 123.891,-19.0384 113.298,-18.8331 115.482,-25.4837"/>
</g>
<!-- Node4&#45;&gt;Node4 -->
<g id="edge4" class="edge"><title>Node4&#45;&gt;Node4</title>
<path fill="none" stroke="#63b8ff" d="M146.538,-56.0828C136.341,-64.7337 143.328,-74 167.5,-74 182.985,-74 191.418,-70.1971 192.798,-65.1894"/>
<polygon fill="#63b8ff" stroke="#63b8ff" points="195.921,-63.607 188.462,-56.0828 189.6,-66.6163 195.921,-63.607"/>
</g>
<!-- Node6 -->
<g id="node6" class="node"><title>Node6</title>
<g id="a_node6"><a xlink:href="group__utilities.html#gac1ecdc5f20e7d73327bccd5f930f8782" target="_top" xlink:title="Convert std::string to QuantLib::IborIndex.">
<polygon fill="white" stroke="#666666" points="396,-19 272,-19 272,-0 396,-0 396,-19"/>
<text text-anchor="middle" x="334" y="-7" font-family="Helvetica,sans-Serif" font-size="10.00">ore::data::parseIborIndex</text>
</a>
</g>
</g>
<!-- Node5&#45;&gt;Node6 -->
<g id="edge6" class="edge"><title>Node5&#45;&gt;Node6</title>
<path fill="none" stroke="#63b8ff" d="M236.358,-9.5C244.727,-9.5 253.3,-9.5 261.717,-9.5"/>
<polygon fill="#63b8ff" stroke="#63b8ff" points="261.883,-13.0001 271.883,-9.5 261.883,-6.0001 261.883,-13.0001"/>
</g>
<!-- Node6&#45;&gt;Node6 -->
<g id="edge7" class="edge"><title>Node6&#45;&gt;Node6</title>
<path fill="none" stroke="#63b8ff" d="M308.415,-19.0828C295.968,-27.7337 304.496,-37 334,-37 353.362,-37 363.691,-33.0094 364.986,-27.8208"/>
<polygon fill="#63b8ff" stroke="#63b8ff" points="367.82,-25.7493 359.585,-19.0828 361.865,-29.4294 367.82,-25.7493"/>
</g>
</g>
</svg>
