<?xml version="1.0" encoding="UTF-8" standalone="no"?>
<!DOCTYPE svg PUBLIC "-//W3C//DTD SVG 1.1//EN"
 "http://www.w3.org/Graphics/SVG/1.1/DTD/svg11.dtd">
<!-- Generated by graphviz version 2.38.0 (20140413.2041)
 -->
<!-- Title: startDates Pages: 1 -->
<svg width="234pt" height="64pt"
 viewBox="0.00 0.00 234.00 64.00" xmlns="http://www.w3.org/2000/svg" xmlns:xlink="http://www.w3.org/1999/xlink">
<g id="graph0" class="graph" transform="scale(1 1) rotate(0) translate(4 60)">
<title>startDates</title>
<!-- Node1 -->
<g id="node1" class="node"><title>Node1</title>
<g id="a_node1"><a xlink:title=" ">
<polygon fill="#999999" stroke="#666666" points="226,-37 164,-37 164,-18 226,-18 226,-37"/>
<text text-anchor="middle" x="195" y="-25" font-family="Helvetica,sans-Serif" font-size="10.00">startDates</text>
</a>
</g>
</g>
<!-- Node2 -->
<g id="node2" class="node"><title>Node2</title>
<g id="a_node2"><a xlink:href="namespaceore_1_1data.html#a15626885a814db9a4bfd8d1ff420ba55" target="_top" xlink:title=" ">
<polygon fill="white" stroke="#666666" points="118,-56 10,-56 10,-37 118,-37 118,-56"/>
<text text-anchor="middle" x="64" y="-44" font-family="Helvetica,sans-Serif" font-size="10.00">ore::data::operator&lt;&lt;</text>
</a>
</g>
</g>
<!-- Node1&#45;&gt;Node2 -->
<g id="edge1" class="edge"><title>Node1&#45;&gt;Node2</title>
<path fill="none" stroke="#63b8ff" d="M153.748,-33.4285C142.443,-35.0937 129.973,-36.9303 118.044,-38.6873"/>
<polygon fill="#63b8ff" stroke="#63b8ff" points="154.372,-36.8745 163.755,-31.9547 153.352,-29.9492 154.372,-36.8745"/>
</g>
<!-- Node3 -->
<g id="node3" class="node"><title>Node3</title>
<g id="a_node3"><a xlink:href="namespaceore_1_1data.html#a006eb9048828e07e1dca8f8e41f5c979" target="_top" xlink:title=" ">
<polygon fill="white" stroke="#666666" points="128,-19 0,-19 0,-0 128,-0 128,-19"/>
<text text-anchor="middle" x="64" y="-7" font-family="Helvetica,sans-Serif" font-size="10.00">ore::data::totalTimePeriod</text>
</a>
</g>
</g>
<!-- Node1&#45;&gt;Node3 -->
<g id="edge2" class="edge"><title>Node1&#45;&gt;Node3</title>
<path fill="none" stroke="#63b8ff" d="M153.782,-21.8882C145.614,-20.7485 136.837,-19.5238 128.095,-18.3039"/>
<polygon fill="#63b8ff" stroke="#63b8ff" points="153.367,-25.3642 163.755,-23.2798 154.335,-18.4313 153.367,-25.3642"/>
</g>
</g>
</svg>
