<?xml version="1.0" encoding="UTF-8" standalone="no"?>
<!DOCTYPE svg PUBLIC "-//W3C//DTD SVG 1.1//EN"
 "http://www.w3.org/Graphics/SVG/1.1/DTD/svg11.dtd">
<!-- Generated by graphviz version 2.38.0 (20140413.2041)
 -->
<!-- Title: FXConvention Pages: 1 -->
<svg width="317pt" height="223pt"
 viewBox="0.00 0.00 317.00 223.00" xmlns="http://www.w3.org/2000/svg" xmlns:xlink="http://www.w3.org/1999/xlink">
<g id="graph0" class="graph" transform="scale(1 1) rotate(0) translate(4 219)">
<title>FXConvention</title>
<!-- Node1 -->
<g id="node1" class="node"><title>Node1</title>
<g id="a_node1"><a xlink:title="Detailed constructor.">
<polygon fill="#999999" stroke="#666666" points="75,-111 0,-111 0,-92 75,-92 75,-111"/>
<text text-anchor="middle" x="37.5" y="-99" font-family="Helvetica,sans-Serif" font-size="10.00">FXConvention</text>
</a>
</g>
</g>
<!-- Node2 -->
<g id="node2" class="node"><title>Node2</title>
<g id="a_node2"><a xlink:href="classore_1_1data_1_1_f_x_convention.html#a9169b2d8ee8001dbb250c4ce2c26818c" target="_top" xlink:title=" ">
<polygon fill="white" stroke="#666666" points="148,-111 111,-111 111,-92 148,-92 148,-111"/>
<text text-anchor="middle" x="129.5" y="-99" font-family="Helvetica,sans-Serif" font-size="10.00">build</text>
</a>
</g>
</g>
<!-- Node1&#45;&gt;Node2 -->
<g id="edge1" class="edge"><title>Node1&#45;&gt;Node2</title>
<path fill="none" stroke="#63b8ff" d="M75.1064,-101.5C83.6336,-101.5 92.5777,-101.5 100.655,-101.5"/>
<polygon fill="#63b8ff" stroke="#63b8ff" points="100.665,-105 110.665,-101.5 100.665,-98.0001 100.665,-105"/>
</g>
<!-- Node3 -->
<g id="node3" class="node"><title>Node3</title>
<g id="a_node3"><a xlink:href="group__utilities.html#ga94621f11193864fa1338296232dc5be9" target="_top" xlink:title="Convert text to bool.">
<polygon fill="white" stroke="#666666" points="298.5,-197 194.5,-197 194.5,-178 298.5,-178 298.5,-197"/>
<text text-anchor="middle" x="246.5" y="-185" font-family="Helvetica,sans-Serif" font-size="10.00">ore::data::parseBool</text>
</a>
</g>
</g>
<!-- Node2&#45;&gt;Node3 -->
<g id="edge2" class="edge"><title>Node2&#45;&gt;Node3</title>
<path fill="none" stroke="#63b8ff" d="M135.715,-111.233C144.018,-125.814 161.615,-153.241 184,-168.5 186.904,-170.48 190.023,-172.26 193.26,-173.859"/>
<polygon fill="#63b8ff" stroke="#63b8ff" points="192.048,-177.148 202.616,-177.905 194.827,-170.723 192.048,-177.148"/>
</g>
<!-- Node4 -->
<g id="node4" class="node"><title>Node4</title>
<g id="a_node4"><a xlink:href="group__utilities.html#ga86adcf55f91e340ff40783964666e732" target="_top" xlink:title="Convert text to QuantLib::BusinessDayConvention.">
<polygon fill="white" stroke="#666666" points="309,-159.5 184,-159.5 184,-129.5 309,-129.5 309,-159.5"/>
<text text-anchor="start" x="192" y="-147.5" font-family="Helvetica,sans-Serif" font-size="10.00">ore::data::parseBusiness</text>
<text text-anchor="middle" x="246.5" y="-136.5" font-family="Helvetica,sans-Serif" font-size="10.00">DayConvention</text>
</a>
</g>
</g>
<!-- Node2&#45;&gt;Node4 -->
<g id="edge4" class="edge"><title>Node2&#45;&gt;Node4</title>
<path fill="none" stroke="#63b8ff" d="M148.469,-108.219C161.143,-112.958 178.782,-119.553 195.551,-125.823"/>
<polygon fill="#63b8ff" stroke="#63b8ff" points="194.686,-129.237 205.279,-129.461 197.138,-122.68 194.686,-129.237"/>
</g>
<!-- Node5 -->
<g id="node5" class="node"><title>Node5</title>
<g id="a_node5"><a xlink:href="group__utilities.html#ga0f72d6fcccae10a674bdcd5095200f14" target="_top" xlink:title="Convert text to QuantLib::Calendar.">
<polygon fill="white" stroke="#666666" points="308,-111 185,-111 185,-92 308,-92 308,-111"/>
<text text-anchor="middle" x="246.5" y="-99" font-family="Helvetica,sans-Serif" font-size="10.00">ore::data::parseCalendar</text>
</a>
</g>
</g>
<!-- Node2&#45;&gt;Node5 -->
<g id="edge5" class="edge"><title>Node2&#45;&gt;Node5</title>
<path fill="none" stroke="#63b8ff" d="M148.469,-101.5C155.877,-101.5 164.981,-101.5 174.616,-101.5"/>
<polygon fill="#63b8ff" stroke="#63b8ff" points="174.801,-105 184.801,-101.5 174.801,-98.0001 174.801,-105"/>
</g>
<!-- Node6 -->
<g id="node6" class="node"><title>Node6</title>
<g id="a_node6"><a xlink:href="group__utilities.html#ga6e9e781a58e78200301c76161589fc7b" target="_top" xlink:title="Convert text to QuantLib::Currency.">
<polygon fill="white" stroke="#666666" points="308.5,-74 184.5,-74 184.5,-55 308.5,-55 308.5,-74"/>
<text text-anchor="middle" x="246.5" y="-62" font-family="Helvetica,sans-Serif" font-size="10.00">ore::data::parseCurrency</text>
</a>
</g>
</g>
<!-- Node2&#45;&gt;Node6 -->
<g id="edge6" class="edge"><title>Node2&#45;&gt;Node6</title>
<path fill="none" stroke="#63b8ff" d="M148.297,-95.3887C158.687,-91.8516 172.062,-87.3516 184,-83.5 190.574,-81.379 197.559,-79.1745 204.373,-77.0506"/>
<polygon fill="#63b8ff" stroke="#63b8ff" points="205.65,-80.3189 214.166,-74.0154 203.578,-73.6327 205.65,-80.3189"/>
</g>
<!-- Node7 -->
<g id="node7" class="node"><title>Node7</title>
<g id="a_node7"><a xlink:href="group__utilities.html#gad1db2a68f9a73667c3b4084d63955bdd" target="_top" xlink:title="Convert text to Real.">
<polygon fill="white" stroke="#666666" points="298.5,-19 194.5,-19 194.5,-0 298.5,-0 298.5,-19"/>
<text text-anchor="middle" x="246.5" y="-7" font-family="Helvetica,sans-Serif" font-size="10.00">ore::data::parseReal</text>
</a>
</g>
</g>
<!-- Node2&#45;&gt;Node7 -->
<g id="edge7" class="edge"><title>Node2&#45;&gt;Node7</title>
<path fill="none" stroke="#63b8ff" d="M138.549,-91.813C148.486,-80.2071 166.256,-60.57 184,-46.5 194.526,-38.1533 207.094,-30.2746 218.117,-23.95"/>
<polygon fill="#63b8ff" stroke="#63b8ff" points="219.909,-26.9579 226.934,-19.0267 216.497,-20.8461 219.909,-26.9579"/>
</g>
<!-- Node3&#45;&gt;Node3 -->
<g id="edge3" class="edge"><title>Node3&#45;&gt;Node3</title>
<path fill="none" stroke="#63b8ff" d="M228.621,-197.083C219.923,-205.734 225.883,-215 246.5,-215 259.386,-215 266.546,-211.38 267.98,-206.554"/>
<polygon fill="#63b8ff" stroke="#63b8ff" points="271.205,-205.186 264.379,-197.083 264.662,-207.674 271.205,-205.186"/>
</g>
<!-- Node7&#45;&gt;Node7 -->
<g id="edge8" class="edge"><title>Node7&#45;&gt;Node7</title>
<path fill="none" stroke="#63b8ff" d="M228.621,-19.0828C219.923,-27.7337 225.883,-37 246.5,-37 259.386,-37 266.546,-33.3804 267.98,-28.5536"/>
<polygon fill="#63b8ff" stroke="#63b8ff" points="271.205,-27.1858 264.379,-19.0828 264.662,-29.6739 271.205,-27.1858"/>
</g>
</g>
</svg>
