<?xml version="1.0" encoding="UTF-8" standalone="no"?>
<!DOCTYPE svg PUBLIC "-//W3C//DTD SVG 1.1//EN"
 "http://www.w3.org/Graphics/SVG/1.1/DTD/svg11.dtd">
<!-- Generated by graphviz version 2.38.0 (20140413.2041)
 -->
<!-- Title: setCalibrationDone Pages: 1 -->
<!--zoomable 618 -->
<svg id="main" version="1.1" xmlns="http://www.w3.org/2000/svg" xmlns:xlink="http://www.w3.org/1999/xlink" xml:space="preserve" onload="init(evt)">
<style type="text/css"><![CDATA[
.edge:hover path { stroke: red; }
.edge:hover polygon { stroke: red; fill: red; }
]]></style>
<script type="text/javascript"><![CDATA[
var edges = document.getElementsByTagName('g');
if (edges && edges.length) {
  for (var i=0;i<edges.length;i++) {
    if (edges[i].id.substr(0,4)=='edge') {
      edges[i].setAttribute('class','edge');
    }
  }
}
]]></script>
        <defs>
                <circle id="rim" cx="0" cy="0" r="7"/>
                <circle id="rim2" cx="0" cy="0" r="3.5"/>
                <g id="zoomPlus">
                        <use xlink:href="#rim" fill="#404040">
                                <set attributeName="fill" to="#808080" begin="zoomplus.mouseover" end="zoomplus.mouseout"/>
                        </use>
                        <path d="M-4,0h8M0,-4v8" fill="none" stroke="white" stroke-width="1.5" pointer-events="none"/>
                </g>
                <g id="zoomMin">
                        <use xlink:href="#rim" fill="#404040">
                                <set attributeName="fill" to="#808080" begin="zoomminus.mouseover" end="zoomminus.mouseout"/>
                        </use>
                        <path d="M-4,0h8" fill="none" stroke="white" stroke-width="1.5" pointer-events="none"/>
                </g>
                <g id="dirArrow">
                        <path fill="none" stroke="white" stroke-width="1.5" d="M0,-3.0v7 M-2.5,-0.5L0,-3.0L2.5,-0.5"/>
                </g>
               <g id="resetDef">
                       <use xlink:href="#rim2" fill="#404040">
                               <set attributeName="fill" to="#808080" begin="reset.mouseover" end="reset.mouseout"/>
                       </use>
               </g>
        </defs>

<script type="text/javascript">
var viewWidth = 1031;
var viewHeight = 618;
var sectionId = 'dynsection-7';
</script>
<script xlink:href="svgpan.js"/>
<svg id="graph" class="graph">
<g id="viewport">
<title>setCalibrationDone</title>
<!-- Node1 -->
<g id="node1" class="node"><title>Node1</title>
<g id="a_node1"><a xlink:title=" ">
<polygon fill="#999999" stroke="#666666" points="98,-104.5 0,-104.5 0,-85.5 98,-85.5 98,-104.5"/>
<text text-anchor="middle" x="49" y="-92.5" font-family="Helvetica,sans-Serif" font-size="10.00">setCalibrationDone</text>
</a>
</g>
</g>
<!-- Node2 -->
<g id="node2" class="node"><title>Node2</title>
<g id="a_node2"><a xlink:href="classore_1_1data_1_1_inf_jy_builder.html#a963ba81fda2b78c9565c4bbd02cd3504" target="_top" xlink:title=" ">
<polygon fill="white" stroke="#666666" points="215,-104.5 134,-104.5 134,-85.5 215,-85.5 215,-104.5"/>
<text text-anchor="middle" x="174.5" y="-92.5" font-family="Helvetica,sans-Serif" font-size="10.00">pricesChanged</text>
</a>
</g>
</g>
<!-- Node1&#45;&gt;Node2 -->
<g id="edge1" class="edge"><title>Node1&#45;&gt;Node2</title>
<path fill="none" stroke="#63b8ff" d="M98.102,-95C106.48,-95 115.211,-95 123.635,-95"/>
<polygon fill="#63b8ff" stroke="#63b8ff" points="123.715,-98.5001 133.715,-95 123.715,-91.5001 123.715,-98.5001"/>
</g>
<!-- Node3 -->
<g id="node3" class="node"><title>Node3</title>
<g id="a_node3"><a xlink:href="classore_1_1data_1_1_inf_jy_builder.html#a935e1c16b02ca6dbe5e1e5f32882b2c7" target="_top" xlink:title="Build any calibration baskets requested by the configuration i.e. via the data_ member.">
<polygon fill="white" stroke="#666666" points="370,-104.5 251,-104.5 251,-85.5 370,-85.5 370,-104.5"/>
<text text-anchor="middle" x="310.5" y="-92.5" font-family="Helvetica,sans-Serif" font-size="10.00">buildCalibrationBaskets</text>
</a>
</g>
</g>
<!-- Node2&#45;&gt;Node3 -->
<g id="edge2" class="edge"><title>Node2&#45;&gt;Node3</title>
<path fill="none" stroke="#63b8ff" d="M215.342,-95C223.326,-95 231.931,-95 240.578,-95"/>
<polygon fill="#63b8ff" stroke="#63b8ff" points="240.713,-98.5001 250.713,-95 240.713,-91.5001 240.713,-98.5001"/>
</g>
<!-- Node19 -->
<g id="node19" class="node"><title>Node19</title>
<g id="a_node19"><a target="_parent" xlink:href="../qle/namespace_quant_ext.html#a1cab4fb6a720eff245acb9f3a7a9e7c5" xlink:title=" ">
<polygon fill="white" stroke="#666666" points="879.5,-185.5 755.5,-185.5 755.5,-166.5 879.5,-166.5 879.5,-185.5"/>
<text text-anchor="middle" x="817.5" y="-173.5" font-family="Helvetica,sans-Serif" font-size="10.00">QuantExt::close_enough</text>
</a>
</g>
</g>
<!-- Node2&#45;&gt;Node19 -->
<g id="edge33" class="edge"><title>Node2&#45;&gt;Node19</title>
<path fill="none" stroke="#63b8ff" d="M210.618,-104.525C223.265,-107.648 237.696,-110.862 251,-113 453.58,-145.549 508.254,-120.501 711,-152 730.576,-155.041 751.929,-159.65 770.272,-164.019"/>
<polygon fill="#63b8ff" stroke="#63b8ff" points="769.579,-167.452 780.122,-166.41 771.23,-160.65 769.579,-167.452"/>
</g>
<!-- Node25 -->
<g id="node25" class="node"><title>Node25</title>
<g id="a_node25"><a xlink:href="classore_1_1data_1_1_inf_jy_builder.html#af593b34ee8b56b6ca82ec295634a15e5" target="_top" xlink:title="Return the market value of the given calibration helper.">
<polygon fill="white" stroke="#666666" points="345,-67.5 276,-67.5 276,-48.5 345,-48.5 345,-67.5"/>
<text text-anchor="middle" x="310.5" y="-55.5" font-family="Helvetica,sans-Serif" font-size="10.00">marketPrice</text>
</a>
</g>
</g>
<!-- Node2&#45;&gt;Node25 -->
<g id="edge34" class="edge"><title>Node2&#45;&gt;Node25</title>
<path fill="none" stroke="#63b8ff" d="M210.008,-85.4716C227.02,-80.7744 247.719,-75.059 265.822,-70.0603"/>
<polygon fill="#63b8ff" stroke="#63b8ff" points="266.865,-73.4035 275.572,-67.368 265.002,-66.656 266.865,-73.4035"/>
</g>
<!-- Node4 -->
<g id="node4" class="node"><title>Node4</title>
<g id="a_node4"><a xlink:href="classore_1_1data_1_1_inf_jy_builder.html#a04274cbe5a4625db825e42c300eef575" target="_top" xlink:title="Build the calibration basket.">
<polygon fill="white" stroke="#666666" points="528.5,-276.5 415.5,-276.5 415.5,-257.5 528.5,-257.5 528.5,-276.5"/>
<text text-anchor="middle" x="472" y="-264.5" font-family="Helvetica,sans-Serif" font-size="10.00">buildCalibrationBasket</text>
</a>
</g>
</g>
<!-- Node3&#45;&gt;Node4 -->
<g id="edge3" class="edge"><title>Node3&#45;&gt;Node4</title>
<path fill="none" stroke="#63b8ff" d="M320.532,-104.74C346.523,-132.767 421.75,-213.891 454.941,-249.683"/>
<polygon fill="#63b8ff" stroke="#63b8ff" points="452.701,-252.414 462.067,-257.367 457.833,-247.654 452.701,-252.414"/>
</g>
<!-- Node22 -->
<g id="node22" class="node"><title>Node22</title>
<g id="a_node22"><a xlink:href="classore_1_1data_1_1_model_parameter.html#aacf0933dd9d459ffbedbac265f3269b5" target="_top" xlink:title=" ">
<polygon fill="white" stroke="#666666" points="538,-30 406,-30 406,-0 538,-0 538,-30"/>
<text text-anchor="start" x="414" y="-18" font-family="Helvetica,sans-Serif" font-size="10.00">ore::data::ModelParameter</text>
<text text-anchor="middle" x="472" y="-7" font-family="Helvetica,sans-Serif" font-size="10.00">::calibrate</text>
</a>
</g>
</g>
<!-- Node3&#45;&gt;Node22 -->
<g id="edge30" class="edge"><title>Node3&#45;&gt;Node22</title>
<path fill="none" stroke="#63b8ff" d="M350.143,-85.4034C357.023,-82.8822 363.925,-79.7796 370,-76 389.481,-63.8794 386.763,-51.5046 406,-39 408.411,-37.4327 410.939,-35.9488 413.54,-34.5464"/>
<polygon fill="#63b8ff" stroke="#63b8ff" points="415.176,-37.6422 422.607,-30.0897 412.088,-31.3602 415.176,-37.6422"/>
</g>
<!-- Node23 -->
<g id="node23" class="node"><title>Node23</title>
<g id="a_node23"><a xlink:href="classore_1_1data_1_1_inf_jy_builder.html#a3bc0c8081ffc221edaa8f90c065a2747" target="_top" xlink:title="Find calibration basket with parameter value equal to parameter.">
<polygon fill="white" stroke="#666666" points="518,-104.5 426,-104.5 426,-85.5 518,-85.5 518,-104.5"/>
<text text-anchor="middle" x="472" y="-92.5" font-family="Helvetica,sans-Serif" font-size="10.00">calibrationBasket</text>
</a>
</g>
</g>
<!-- Node3&#45;&gt;Node23 -->
<g id="edge31" class="edge"><title>Node3&#45;&gt;Node23</title>
<path fill="none" stroke="#63b8ff" d="M370.439,-95C385.149,-95 400.875,-95 415.417,-95"/>
<polygon fill="#63b8ff" stroke="#63b8ff" points="415.765,-98.5001 425.765,-95 415.765,-91.5001 415.765,-98.5001"/>
</g>
<!-- Node24 -->
<g id="node24" class="node"><title>Node24</title>
<g id="a_node24"><a xlink:href="namespaceore_1_1data.html#a777e216dee6069b548bb87da7152699e" target="_top" xlink:title=" ">
<polygon fill="white" stroke="#666666" points="511.5,-67.5 432.5,-67.5 432.5,-48.5 511.5,-48.5 511.5,-67.5"/>
<text text-anchor="middle" x="472" y="-55.5" font-family="Helvetica,sans-Serif" font-size="10.00">ore::data::size</text>
</a>
</g>
</g>
<!-- Node3&#45;&gt;Node24 -->
<g id="edge32" class="edge"><title>Node3&#45;&gt;Node24</title>
<path fill="none" stroke="#63b8ff" d="M352.575,-85.4716C373.867,-80.5325 400.011,-74.4677 422.314,-69.294"/>
<polygon fill="#63b8ff" stroke="#63b8ff" points="423.309,-72.6562 432.259,-66.9869 421.727,-65.8373 423.309,-72.6562"/>
</g>
<!-- Node5 -->
<g id="node5" class="node"><title>Node5</title>
<g id="a_node5"><a xlink:href="classore_1_1data_1_1_inf_jy_builder.html#a69c1e8a74b5a706e29821a070c83907d" target="_top" xlink:title="Build a CPI cap floor calibration basket.">
<polygon fill="white" stroke="#666666" points="703,-437.5 582,-437.5 582,-418.5 703,-418.5 703,-437.5"/>
<text text-anchor="middle" x="642.5" y="-425.5" font-family="Helvetica,sans-Serif" font-size="10.00">buildCpiCapFloorBasket</text>
</a>
</g>
</g>
<!-- Node4&#45;&gt;Node5 -->
<g id="edge4" class="edge"><title>Node4&#45;&gt;Node5</title>
<path fill="none" stroke="#63b8ff" d="M483.036,-276.589C510.715,-303.037 588.417,-377.28 623.687,-410.98"/>
<polygon fill="#63b8ff" stroke="#63b8ff" points="621.656,-413.88 631.304,-418.258 626.491,-408.819 621.656,-413.88"/>
</g>
<!-- Node11 -->
<g id="node11" class="node"><title>Node11</title>
<g id="a_node11"><a xlink:href="classore_1_1data_1_1_calibration_basket.html#aadb5e6dbce35a5826e9760541a5447f8" target="_top" xlink:title=" ">
<polygon fill="white" stroke="#666666" points="886,-277 749,-277 749,-247 886,-247 886,-277"/>
<text text-anchor="start" x="757" y="-265" font-family="Helvetica,sans-Serif" font-size="10.00">ore::data::CalibrationBasket</text>
<text text-anchor="middle" x="817.5" y="-254" font-family="Helvetica,sans-Serif" font-size="10.00">::instruments</text>
</a>
</g>
</g>
<!-- Node4&#45;&gt;Node11 -->
<g id="edge28" class="edge"><title>Node4&#45;&gt;Node11</title>
<path fill="none" stroke="#63b8ff" d="M528.571,-266.191C585.616,-265.361 674.851,-264.062 738.858,-263.13"/>
<polygon fill="#63b8ff" stroke="#63b8ff" points="738.958,-266.629 748.906,-262.984 738.856,-259.63 738.958,-266.629"/>
</g>
<!-- Node16 -->
<g id="node16" class="node"><title>Node16</title>
<g id="a_node16"><a xlink:href="classore_1_1data_1_1_inf_jy_builder.html#a62a24690024d3d23ae7d3f880eef8ef2" target="_top" xlink:title="Build a YoY cap floor calibration basket.">
<polygon fill="white" stroke="#666666" points="705,-351.5 580,-351.5 580,-332.5 705,-332.5 705,-351.5"/>
<text text-anchor="middle" x="642.5" y="-339.5" font-family="Helvetica,sans-Serif" font-size="10.00">buildYoYCapFloorBasket</text>
</a>
</g>
</g>
<!-- Node4&#45;&gt;Node16 -->
<g id="edge15" class="edge"><title>Node4&#45;&gt;Node16</title>
<path fill="none" stroke="#63b8ff" d="M487.137,-276.512C506.156,-288.944 541.373,-310.695 574,-324 578.983,-326.032 584.267,-327.901 589.598,-329.601"/>
<polygon fill="#63b8ff" stroke="#63b8ff" points="588.604,-332.957 599.188,-332.48 590.617,-326.253 588.604,-332.957"/>
</g>
<!-- Node18 -->
<g id="node18" class="node"><title>Node18</title>
<g id="a_node18"><a xlink:href="classore_1_1data_1_1_inf_jy_builder.html#a133d1dc488d0f63362752706f448007e" target="_top" xlink:title="Build a YoY swap calibration basket.">
<polygon fill="white" stroke="#666666" points="697.5,-314.5 587.5,-314.5 587.5,-295.5 697.5,-295.5 697.5,-314.5"/>
<text text-anchor="middle" x="642.5" y="-302.5" font-family="Helvetica,sans-Serif" font-size="10.00">buildYoYSwapBasket</text>
</a>
</g>
</g>
<!-- Node4&#45;&gt;Node18 -->
<g id="edge22" class="edge"><title>Node4&#45;&gt;Node18</title>
<path fill="none" stroke="#63b8ff" d="M515.52,-276.589C537.955,-281.649 565.673,-287.9 589.393,-293.249"/>
<polygon fill="#63b8ff" stroke="#63b8ff" points="588.761,-296.694 599.286,-295.48 590.301,-289.866 588.761,-296.694"/>
</g>
<!-- Node20 -->
<g id="node20" class="node"><title>Node20</title>
<g id="a_node20"><a xlink:href="classore_1_1data_1_1_calibration_basket.html#a644718bb2fb240de962dc3c9a1fdf0dc" target="_top" xlink:title="Returns true if the calibration basket is empty.">
<polygon fill="white" stroke="#666666" points="711,-239 574,-239 574,-209 711,-209 711,-239"/>
<text text-anchor="start" x="582" y="-227" font-family="Helvetica,sans-Serif" font-size="10.00">ore::data::CalibrationBasket</text>
<text text-anchor="middle" x="642.5" y="-216" font-family="Helvetica,sans-Serif" font-size="10.00">::empty</text>
</a>
</g>
</g>
<!-- Node4&#45;&gt;Node20 -->
<g id="edge27" class="edge"><title>Node4&#45;&gt;Node20</title>
<path fill="none" stroke="#63b8ff" d="M510.396,-257.457C528.809,-252.758 551.6,-246.942 572.989,-241.484"/>
<polygon fill="#63b8ff" stroke="#63b8ff" points="573.872,-244.87 582.696,-239.006 572.141,-238.088 573.872,-244.87"/>
</g>
<!-- Node21 -->
<g id="node21" class="node"><title>Node21</title>
<g id="a_node21"><a xlink:href="classore_1_1data_1_1_calibration_basket.html#aa525cac0662eacaed44a94894b9a002a" target="_top" xlink:title=" ">
<polygon fill="white" stroke="#666666" points="711,-191 574,-191 574,-161 711,-161 711,-191"/>
<text text-anchor="start" x="582" y="-179" font-family="Helvetica,sans-Serif" font-size="10.00">ore::data::CalibrationBasket</text>
<text text-anchor="middle" x="642.5" y="-168" font-family="Helvetica,sans-Serif" font-size="10.00">::instrumentType</text>
</a>
</g>
</g>
<!-- Node4&#45;&gt;Node21 -->
<g id="edge29" class="edge"><title>Node4&#45;&gt;Node21</title>
<path fill="none" stroke="#63b8ff" d="M485.462,-257.27C503.953,-243.181 540.123,-216.939 574,-200 577.528,-198.236 581.219,-196.54 584.977,-194.923"/>
<polygon fill="#63b8ff" stroke="#63b8ff" points="586.47,-198.094 594.403,-191.073 583.822,-191.614 586.47,-198.094"/>
</g>
<!-- Node6 -->
<g id="node6" class="node"><title>Node6</title>
<g id="a_node6"><a xlink:href="namespaceore_1_1data.html#af404ba79b74e89755049cec81e49dd61" target="_top" xlink:title="Return a cpi cap/floor strike value, the input strike can be of type absolute or atm forward.">
<polygon fill="white" stroke="#666666" points="886.5,-572 748.5,-572 748.5,-542 886.5,-542 886.5,-572"/>
<text text-anchor="start" x="756.5" y="-560" font-family="Helvetica,sans-Serif" font-size="10.00">ore::data::cpiCapFloorStrike</text>
<text text-anchor="middle" x="817.5" y="-549" font-family="Helvetica,sans-Serif" font-size="10.00">Value</text>
</a>
</g>
</g>
<!-- Node5&#45;&gt;Node6 -->
<g id="edge5" class="edge"><title>Node5&#45;&gt;Node6</title>
<path fill="none" stroke="#63b8ff" d="M650.429,-437.564C665.66,-457.94 704.129,-505.97 747,-533 749.48,-534.564 752.075,-536.04 754.743,-537.432"/>
<polygon fill="#63b8ff" stroke="#63b8ff" points="753.507,-540.72 764.042,-541.845 756.508,-534.396 753.507,-540.72"/>
</g>
<!-- Node8 -->
<g id="node8" class="node"><title>Node8</title>
<g id="a_node8"><a target="_parent" xlink:href="../qle/namespace_quant_ext_1_1_zero_inflation.html#a57de786c1c8988b6da9d354282b4b370" xlink:title=" ">
<polygon fill="white" stroke="#666666" points="847,-437.5 788,-437.5 788,-418.5 847,-418.5 847,-437.5"/>
<text text-anchor="middle" x="817.5" y="-425.5" font-family="Helvetica,sans-Serif" font-size="10.00">fixingDate</text>
</a>
</g>
</g>
<!-- Node5&#45;&gt;Node8 -->
<g id="edge7" class="edge"><title>Node5&#45;&gt;Node8</title>
<path fill="none" stroke="#63b8ff" d="M703.037,-428C727.731,-428 755.684,-428 777.665,-428"/>
<polygon fill="#63b8ff" stroke="#63b8ff" points="777.936,-431.5 787.936,-428 777.936,-424.5 777.936,-431.5"/>
</g>
<!-- Node9 -->
<g id="node9" class="node"><title>Node9</title>
<g id="a_node9"><a xlink:href="classore_1_1data_1_1_inf_jy_builder.html#ad22960d15d32d9e5be44c045744d8a3a" target="_top" xlink:title=" ">
<polygon fill="white" stroke="#666666" points="854,-523.5 781,-523.5 781,-504.5 854,-504.5 854,-523.5"/>
<text text-anchor="middle" x="817.5" y="-511.5" font-family="Helvetica,sans-Serif" font-size="10.00">inflationIndex</text>
</a>
</g>
</g>
<!-- Node5&#45;&gt;Node9 -->
<g id="edge8" class="edge"><title>Node5&#45;&gt;Node9</title>
<path fill="none" stroke="#63b8ff" d="M655.531,-437.57C674.129,-451.938 711.439,-479.09 747,-495 754.549,-498.378 762.835,-501.278 770.973,-503.722"/>
<polygon fill="#63b8ff" stroke="#63b8ff" points="770.193,-507.138 780.767,-506.479 772.09,-500.4 770.193,-507.138"/>
</g>
<!-- Node10 -->
<g id="node10" class="node"><title>Node10</title>
<g id="a_node10"><a target="_parent" xlink:href="../qle/namespace_quant_ext.html#a78aebbc0de375f5058e2837300a8c038" xlink:title=" ">
<polygon fill="white" stroke="#666666" points="853,-314.5 782,-314.5 782,-295.5 853,-295.5 853,-314.5"/>
<text text-anchor="middle" x="817.5" y="-302.5" font-family="Helvetica,sans-Serif" font-size="10.00">inflationTime</text>
</a>
</g>
</g>
<!-- Node5&#45;&gt;Node10 -->
<g id="edge9" class="edge"><title>Node5&#45;&gt;Node10</title>
<path fill="none" stroke="#63b8ff" d="M653.618,-418.065C666.867,-405.032 690.786,-381.416 711,-361 727.143,-344.695 727.239,-335.658 747,-324 754.671,-319.475 763.452,-315.997 772.131,-313.334"/>
<polygon fill="#63b8ff" stroke="#63b8ff" points="773.113,-316.694 781.822,-310.661 771.252,-309.945 773.113,-316.694"/>
</g>
<!-- Node5&#45;&gt;Node11 -->
<g id="edge10" class="edge"><title>Node5&#45;&gt;Node11</title>
<path fill="none" stroke="#63b8ff" d="M655.45,-418.341C669.974,-406.144 694.573,-383.964 711,-361 732.279,-331.253 719.786,-311.435 747,-287 748.744,-285.434 750.594,-283.964 752.525,-282.584"/>
<polygon fill="#63b8ff" stroke="#63b8ff" points="754.757,-285.32 761.438,-277.097 751.087,-279.359 754.757,-285.32"/>
</g>
<!-- Node12 -->
<g id="node12" class="node"><title>Node12</title>
<g id="a_node12"><a target="_parent" xlink:href="../qle/namespace_quant_ext_1_1_zero_inflation.html#ad1e7470dcdc1728ec6bca3266b35c85a" xlink:title=" ">
<polygon fill="white" stroke="#666666" points="887.5,-486 747.5,-486 747.5,-456 887.5,-456 887.5,-486"/>
<text text-anchor="start" x="755.5" y="-474" font-family="Helvetica,sans-Serif" font-size="10.00">QuantExt::ZeroInflation</text>
<text text-anchor="middle" x="817.5" y="-463" font-family="Helvetica,sans-Serif" font-size="10.00">::isCPIVolSurfaceLogNormal</text>
</a>
</g>
</g>
<!-- Node5&#45;&gt;Node12 -->
<g id="edge11" class="edge"><title>Node5&#45;&gt;Node12</title>
<path fill="none" stroke="#63b8ff" d="M681.894,-437.543C700.799,-442.242 724.2,-448.058 746.159,-453.516"/>
<polygon fill="#63b8ff" stroke="#63b8ff" points="745.577,-456.978 756.126,-455.994 747.265,-450.185 745.577,-456.978"/>
</g>
<!-- Node13 -->
<g id="node13" class="node"><title>Node13</title>
<g id="a_node13"><a xlink:href="namespaceore_1_1data.html#aa9698dcef891a7e39357dba10d3b1276" target="_top" xlink:title=" ">
<polygon fill="white" stroke="#666666" points="878.5,-609.5 756.5,-609.5 756.5,-590.5 878.5,-590.5 878.5,-609.5"/>
<text text-anchor="middle" x="817.5" y="-597.5" font-family="Helvetica,sans-Serif" font-size="10.00">ore::data::optionMaturity</text>
</a>
</g>
</g>
<!-- Node5&#45;&gt;Node13 -->
<g id="edge12" class="edge"><title>Node5&#45;&gt;Node13</title>
<path fill="none" stroke="#63b8ff" d="M647.175,-437.632C658.006,-464.694 692.506,-541.977 747,-581 749.695,-582.93 752.577,-584.664 755.578,-586.222"/>
<polygon fill="#63b8ff" stroke="#63b8ff" points="754.314,-589.491 764.871,-590.387 757.177,-583.103 754.314,-589.491"/>
</g>
<!-- Node14 -->
<g id="node14" class="node"><title>Node14</title>
<g id="a_node14"><a xlink:href="classore_1_1data_1_1_inf_jy_builder.html#acc7b35fae386b8e18ed5b7a4bbe99cea" target="_top" xlink:title="Create the reference calibration dates.">
<polygon fill="white" stroke="#666666" points="881.5,-351.5 753.5,-351.5 753.5,-332.5 881.5,-332.5 881.5,-351.5"/>
<text text-anchor="middle" x="817.5" y="-339.5" font-family="Helvetica,sans-Serif" font-size="10.00">referenceCalibrationDates</text>
</a>
</g>
</g>
<!-- Node5&#45;&gt;Node14 -->
<g id="edge13" class="edge"><title>Node5&#45;&gt;Node14</title>
<path fill="none" stroke="#63b8ff" d="M655.531,-418.43C674.129,-404.062 711.439,-376.91 747,-361 752.34,-358.611 758.048,-356.461 763.812,-354.542"/>
<polygon fill="#63b8ff" stroke="#63b8ff" points="764.997,-357.839 773.509,-351.529 762.921,-351.154 764.997,-357.839"/>
</g>
<!-- Node7 -->
<g id="node7" class="node"><title>Node7</title>
<g id="a_node7"><a target="_parent" xlink:href="../qle/namespace_quant_ext.html#a9af2048ec25ea1962eda9a08b70acbc3" xlink:title=" ">
<polygon fill="white" stroke="#666666" points="989.5,-480.5 957.5,-480.5 957.5,-461.5 989.5,-461.5 989.5,-480.5"/>
<text text-anchor="middle" x="973.5" y="-468.5" font-family="Helvetica,sans-Serif" font-size="10.00">abs</text>
</a>
</g>
</g>
<!-- Node6&#45;&gt;Node7 -->
<g id="edge6" class="edge"><title>Node6&#45;&gt;Node7</title>
<path fill="none" stroke="#63b8ff" d="M868.254,-541.875C875.027,-539.226 881.782,-536.259 888,-533 912.428,-520.197 937.553,-500.819 953.985,-487.141"/>
<polygon fill="#63b8ff" stroke="#63b8ff" points="956.37,-489.708 961.736,-480.572 951.844,-484.367 956.37,-489.708"/>
</g>
<!-- Node15 -->
<g id="node15" class="node"><title>Node15</title>
<g id="a_node15"><a xlink:href="classore_1_1data_1_1_date_grid.html#aca8cf8d394b2ce6e3662fe8a9db4a466" target="_top" xlink:title=" ">
<polygon fill="white" stroke="#666666" points="1023,-357 924,-357 924,-327 1023,-327 1023,-357"/>
<text text-anchor="start" x="932" y="-345" font-family="Helvetica,sans-Serif" font-size="10.00">ore::data::DateGrid</text>
<text text-anchor="middle" x="973.5" y="-334" font-family="Helvetica,sans-Serif" font-size="10.00">::dates</text>
</a>
</g>
</g>
<!-- Node14&#45;&gt;Node15 -->
<g id="edge14" class="edge"><title>Node14&#45;&gt;Node15</title>
<path fill="none" stroke="#63b8ff" d="M881.582,-342C892.173,-342 903.127,-342 913.607,-342"/>
<polygon fill="#63b8ff" stroke="#63b8ff" points="913.897,-345.5 923.897,-342 913.897,-338.5 913.897,-345.5"/>
</g>
<!-- Node16&#45;&gt;Node8 -->
<g id="edge16" class="edge"><title>Node16&#45;&gt;Node8</title>
<path fill="none" stroke="#63b8ff" d="M655.531,-351.57C674.129,-365.938 711.439,-393.09 747,-409 756.677,-413.329 767.564,-416.875 777.799,-419.68"/>
<polygon fill="#63b8ff" stroke="#63b8ff" points="777.19,-423.138 787.747,-422.241 778.936,-416.359 777.19,-423.138"/>
</g>
<!-- Node16&#45;&gt;Node10 -->
<g id="edge17" class="edge"><title>Node16&#45;&gt;Node10</title>
<path fill="none" stroke="#63b8ff" d="M688.052,-332.472C713.859,-326.952 746.24,-320.027 772.034,-314.51"/>
<polygon fill="#63b8ff" stroke="#63b8ff" points="772.879,-317.909 781.926,-312.394 771.415,-311.063 772.879,-317.909"/>
</g>
<!-- Node16&#45;&gt;Node11 -->
<g id="edge18" class="edge"><title>Node16&#45;&gt;Node11</title>
<path fill="none" stroke="#63b8ff" d="M691.992,-332.492C698.613,-330.225 705.139,-327.433 711,-324 730.798,-312.404 727.711,-299.424 747,-287 750.093,-285.008 753.365,-283.149 756.738,-281.417"/>
<polygon fill="#63b8ff" stroke="#63b8ff" points="758.29,-284.555 765.846,-277.129 755.308,-278.222 758.29,-284.555"/>
</g>
<!-- Node16&#45;&gt;Node14 -->
<g id="edge19" class="edge"><title>Node16&#45;&gt;Node14</title>
<path fill="none" stroke="#63b8ff" d="M705.468,-342C717.588,-342 730.407,-342 742.863,-342"/>
<polygon fill="#63b8ff" stroke="#63b8ff" points="743.217,-345.5 753.217,-342 743.217,-338.5 743.217,-345.5"/>
</g>
<!-- Node17 -->
<g id="node17" class="node"><title>Node17</title>
<g id="a_node17"><a xlink:href="namespaceore_1_1data.html#a1e1fac0190b6d1bab00cb4a76fe22b1e" target="_top" xlink:title="Return a yoy cap/floor strike value, the input strike can be of type absolute or atm forward.">
<polygon fill="white" stroke="#666666" points="888,-400 747,-400 747,-370 888,-370 888,-400"/>
<text text-anchor="start" x="755" y="-388" font-family="Helvetica,sans-Serif" font-size="10.00">ore::data::yoyCapFloorStrike</text>
<text text-anchor="middle" x="817.5" y="-377" font-family="Helvetica,sans-Serif" font-size="10.00">Value</text>
</a>
</g>
</g>
<!-- Node16&#45;&gt;Node17 -->
<g id="edge20" class="edge"><title>Node16&#45;&gt;Node17</title>
<path fill="none" stroke="#63b8ff" d="M681.894,-351.543C700.799,-356.242 724.2,-362.058 746.159,-367.516"/>
<polygon fill="#63b8ff" stroke="#63b8ff" points="745.577,-370.978 756.126,-369.994 747.265,-364.185 745.577,-370.978"/>
</g>
<!-- Node17&#45;&gt;Node7 -->
<g id="edge21" class="edge"><title>Node17&#45;&gt;Node7</title>
<path fill="none" stroke="#63b8ff" d="M865.999,-400.067C873.514,-403.022 881.081,-406.351 888,-410 912.123,-422.721 937.132,-441.608 953.622,-454.991"/>
<polygon fill="#63b8ff" stroke="#63b8ff" points="951.478,-457.76 961.419,-461.426 955.934,-452.361 951.478,-457.76"/>
</g>
<!-- Node18&#45;&gt;Node10 -->
<g id="edge24" class="edge"><title>Node18&#45;&gt;Node10</title>
<path fill="none" stroke="#63b8ff" d="M697.764,-305C721.459,-305 748.922,-305 771.463,-305"/>
<polygon fill="#63b8ff" stroke="#63b8ff" points="771.768,-308.5 781.768,-305 771.768,-301.5 771.768,-308.5"/>
</g>
<!-- Node18&#45;&gt;Node11 -->
<g id="edge25" class="edge"><title>Node18&#45;&gt;Node11</title>
<path fill="none" stroke="#63b8ff" d="M681.894,-295.457C700.799,-290.758 724.2,-284.942 746.159,-279.484"/>
<polygon fill="#63b8ff" stroke="#63b8ff" points="747.265,-282.815 756.126,-277.006 745.577,-276.022 747.265,-282.815"/>
</g>
<!-- Node18&#45;&gt;Node14 -->
<g id="edge26" class="edge"><title>Node18&#45;&gt;Node14</title>
<path fill="none" stroke="#63b8ff" d="M688.052,-314.528C710.565,-319.343 738.081,-325.228 761.861,-330.314"/>
<polygon fill="#63b8ff" stroke="#63b8ff" points="761.288,-333.771 771.799,-332.44 762.752,-326.926 761.288,-333.771"/>
</g>
<!-- Node18&#45;&gt;Node19 -->
<g id="edge23" class="edge"><title>Node18&#45;&gt;Node19</title>
<path fill="none" stroke="#63b8ff" d="M656.503,-295.304C686.059,-273.265 758.535,-219.222 794.921,-192.091"/>
<polygon fill="#63b8ff" stroke="#63b8ff" points="797.422,-194.592 803.346,-185.808 793.237,-188.98 797.422,-194.592"/>
</g>
</g>
</svg>
        <g id="navigator" transform="translate(0 0)" fill="#404254">
                <rect fill="#f2f5e9" fill-opacity="0.5" stroke="#606060" stroke-width=".5" x="0" y="0" width="60" height="60"/>
                <use id="zoomplus" xlink:href="#zoomPlus" x="17" y="9" onmousedown="handleZoom(evt,'in')"/>
                <use id="zoomminus" xlink:href="#zoomMin" x="42" y="9" onmousedown="handleZoom(evt,'out')"/>
                <use id="reset" xlink:href="#resetDef" x="30" y="36" onmousedown="handleReset()"/>
                <g id="arrowUp" xlink:href="#dirArrow" transform="translate(30 24)" onmousedown="handlePan(0,-1)">
                  <use xlink:href="#rim" fill="#404040">
                        <set attributeName="fill" to="#808080" begin="arrowUp.mouseover" end="arrowUp.mouseout"/>
                  </use>
                  <path fill="none" stroke="white" stroke-width="1.5" d="M0,-3.0v7 M-2.5,-0.5L0,-3.0L2.5,-0.5"/>
                </g>
                <g id="arrowRight" xlink:href="#dirArrow" transform="rotate(90) translate(36 -43)" onmousedown="handlePan(1,0)">
                  <use xlink:href="#rim" fill="#404040">
                        <set attributeName="fill" to="#808080" begin="arrowRight.mouseover" end="arrowRight.mouseout"/>
                  </use>
                  <path fill="none" stroke="white" stroke-width="1.5" d="M0,-3.0v7 M-2.5,-0.5L0,-3.0L2.5,-0.5"/>
                </g>
                <g id="arrowDown" xlink:href="#dirArrow" transform="rotate(180) translate(-30 -48)" onmousedown="handlePan(0,1)">
                  <use xlink:href="#rim" fill="#404040">
                        <set attributeName="fill" to="#808080" begin="arrowDown.mouseover" end="arrowDown.mouseout"/>
                  </use>
                  <path fill="none" stroke="white" stroke-width="1.5" d="M0,-3.0v7 M-2.5,-0.5L0,-3.0L2.5,-0.5"/>
                </g>
                <g id="arrowLeft" xlink:href="#dirArrow" transform="rotate(270) translate(-36 17)" onmousedown="handlePan(-1,0)">
                  <use xlink:href="#rim" fill="#404040">
                        <set attributeName="fill" to="#808080" begin="arrowLeft.mouseover" end="arrowLeft.mouseout"/>
                  </use>
                  <path fill="none" stroke="white" stroke-width="1.5" d="M0,-3.0v7 M-2.5,-0.5L0,-3.0L2.5,-0.5"/>
                </g>
        </g>
        <svg viewBox="0 0 15 15" width="100%" height="30px" preserveAspectRatio="xMaxYMin meet">
         <g id="arrow_out" transform="scale(0.3 0.3)">
          <a xlink:href="classore_1_1data_1_1_inf_jy_builder_a5b1dbae4374aa0dd5c416e2fdb3b3c85_cgraph_org.svg" target="_base">
           <rect id="button" ry="5" rx="5" y="6" x="6" height="38" width="38"
                fill="#f2f5e9" fill-opacity="0.5" stroke="#606060" stroke-width="1.0"/>
           <path id="arrow"
             d="M 11.500037,31.436501 C 11.940474,20.09759 22.043105,11.32322 32.158766,21.979434 L 37.068811,17.246167 C 37.068811,17.246167 37.088388,32 37.088388,32 L 22.160133,31.978069 C 22.160133,31.978069 26.997745,27.140456 26.997745,27.140456 C 18.528582,18.264221 13.291696,25.230495 11.500037,31.436501 z"
             style="fill:#404040;"/>
          </a>
         </g>
        </svg>
</svg>
