<?xml version="1.0" encoding="UTF-8" standalone="no"?>
<!DOCTYPE svg PUBLIC "-//W3C//DTD SVG 1.1//EN"
 "http://www.w3.org/Graphics/SVG/1.1/DTD/svg11.dtd">
<!-- Generated by graphviz version 2.38.0 (20140413.2041)
 -->
<!-- Title: ScriptedTradeScriptData::CalibrationData Pages: 1 -->
<svg width="323pt" height="423pt"
 viewBox="0.00 0.00 322.50 423.00" xmlns="http://www.w3.org/2000/svg" xmlns:xlink="http://www.w3.org/1999/xlink">
<g id="graph0" class="graph" transform="scale(1 1) rotate(0) translate(4 419)">
<title>ScriptedTradeScriptData::CalibrationData</title>
<!-- Node1 -->
<g id="node1" class="node"><title>Node1</title>
<g id="a_node1"><a xlink:title=" ">
<polygon fill="#999999" stroke="#666666" points="245,-107 120,-107 120,7.10543e-015 245,7.10543e-015 245,-107"/>
<text text-anchor="start" x="128" y="-95" font-family="Helvetica,sans-Serif" font-size="10.00">{ScriptedTradeScriptData</text>
<text text-anchor="middle" x="182.5" y="-84" font-family="Helvetica,sans-Serif" font-size="10.00">::CalibrationData</text>
<text text-anchor="start" x="128" y="-73" font-family="Helvetica,sans-Serif" font-size="10.00">||+ CalibrationData()</text>
<text text-anchor="start" x="128" y="-62" font-family="Helvetica,sans-Serif" font-size="10.00">+ CalibrationData()</text>
<text text-anchor="start" x="128" y="-51" font-family="Helvetica,sans-Serif" font-size="10.00">+ fromXML()</text>
<text text-anchor="start" x="128" y="-40" font-family="Helvetica,sans-Serif" font-size="10.00">+ toXML()</text>
<text text-anchor="start" x="128" y="-29" font-family="Helvetica,sans-Serif" font-size="10.00">+ index()</text>
<text text-anchor="start" x="128" y="-18" font-family="Helvetica,sans-Serif" font-size="10.00">+ strikes()</text>
<text text-anchor="middle" x="182.5" y="-7" font-family="Helvetica,sans-Serif" font-size="10.00">}</text>
</a>
</g>
</g>
<!-- Node2 -->
<g id="node2" class="node"><title>Node2</title>
<g id="a_node2"><a xlink:href="classore_1_1data_1_1_x_m_l_serializable.html" target="_top" xlink:title="Base class for all serializable classes.">
<polygon fill="white" stroke="#666666" points="111,-261 0,-261 0,-154 111,-154 111,-261"/>
<text text-anchor="middle" x="55.5" y="-249" font-family="Helvetica,sans-Serif" font-size="10.00">{XMLSerializable</text>
<text text-anchor="start" x="8" y="-238" font-family="Helvetica,sans-Serif" font-size="10.00">||+ ~XMLSerializable()</text>
<text text-anchor="start" x="8" y="-227" font-family="Helvetica,sans-Serif" font-size="10.00">+ fromXML()</text>
<text text-anchor="start" x="8" y="-216" font-family="Helvetica,sans-Serif" font-size="10.00">+ toXML()</text>
<text text-anchor="start" x="8" y="-205" font-family="Helvetica,sans-Serif" font-size="10.00">+ fromFile()</text>
<text text-anchor="start" x="8" y="-194" font-family="Helvetica,sans-Serif" font-size="10.00">+ toFile()</text>
<text text-anchor="start" x="8" y="-183" font-family="Helvetica,sans-Serif" font-size="10.00">+ fromXMLString()</text>
<text text-anchor="start" x="8" y="-172" font-family="Helvetica,sans-Serif" font-size="10.00">+ toXMLString()</text>
<text text-anchor="middle" x="55.5" y="-161" font-family="Helvetica,sans-Serif" font-size="10.00">}</text>
</a>
</g>
</g>
<!-- Node2&#45;&gt;Node1 -->
<g id="edge1" class="edge"><title>Node2&#45;&gt;Node1</title>
<path fill="none" stroke="#63b8ff" d="M106.152,-145.877C116.861,-133.06 128.078,-119.635 138.516,-107.142"/>
<polygon fill="none" stroke="#63b8ff" points="103.288,-143.846 99.562,-153.764 108.66,-148.335 103.288,-143.846"/>
</g>
<!-- Node3 -->
<g id="node3" class="node"><title>Node3</title>
<g id="a_node3"><a xlink:title=" ">
<polygon fill="white" stroke="#666666" points="262.5,-338 218.5,-338 218.5,-308 262.5,-308 262.5,-338"/>
<text text-anchor="middle" x="240.5" y="-326" font-family="Helvetica,sans-Serif" font-size="10.00">{string</text>
<text text-anchor="middle" x="240.5" y="-315" font-family="Helvetica,sans-Serif" font-size="10.00">||}</text>
</a>
</g>
</g>
<!-- Node3&#45;&gt;Node1 -->
<g id="edge2" class="edge"><title>Node3&#45;&gt;Node1</title>
<path fill="none" stroke="#404040" d="M250.607,-307.703C253.785,-302.398 256.885,-296.166 258.5,-290 267.411,-255.981 329.473,-399.51 245.5,-154 241.27,-141.632 235.224,-129.237 228.532,-117.598"/>
<polygon fill="none" stroke="#404040" points="228.428,-117.426 221.907,-114.349 222.239,-107.145 228.761,-110.223 228.428,-117.426"/>
<text text-anchor="middle" x="297" y="-205" font-family="Helvetica,sans-Serif" font-size="10.00"> &#45;index_</text>
</g>
<!-- Node5 -->
<g id="node5" class="node"><title>Node5</title>
<g id="a_node5"><a xlink:title=" ">
<polygon fill="white" stroke="#666666" points="236,-222.5 129,-222.5 129,-192.5 236,-192.5 236,-222.5"/>
<text text-anchor="middle" x="182.5" y="-210.5" font-family="Helvetica,sans-Serif" font-size="10.00">{vector&lt; std::string &gt;</text>
<text text-anchor="middle" x="182.5" y="-199.5" font-family="Helvetica,sans-Serif" font-size="10.00">||}</text>
</a>
</g>
</g>
<!-- Node3&#45;&gt;Node5 -->
<g id="edge5" class="edge"><title>Node3&#45;&gt;Node5</title>
<path fill="none" stroke="#404040" d="M224.139,-307.887C218.891,-302.692 213.428,-296.483 209.5,-290 199.139,-272.899 192.223,-251.343 187.986,-234.695"/>
<polygon fill="none" stroke="#404040" points="187.885,-234.26 182.622,-229.33 185.149,-222.576 190.411,-227.506 187.885,-234.26"/>
<text text-anchor="middle" x="234" y="-282" font-family="Helvetica,sans-Serif" font-size="10.00"> +elements</text>
</g>
<!-- Node4 -->
<g id="node4" class="node"><title>Node4</title>
<g id="a_node4"><a xlink:title=" ">
<polygon fill="white" stroke="#666666" points="295.5,-415 185.5,-415 185.5,-385 295.5,-385 295.5,-415"/>
<text text-anchor="middle" x="240.5" y="-403" font-family="Helvetica,sans-Serif" font-size="10.00">{basic_string&lt; Char &gt;</text>
<text text-anchor="middle" x="240.5" y="-392" font-family="Helvetica,sans-Serif" font-size="10.00">||}</text>
</a>
</g>
</g>
<!-- Node4&#45;&gt;Node3 -->
<g id="edge3" class="edge"><title>Node4&#45;&gt;Node3</title>
<path fill="none" stroke="#63b8ff" d="M240.5,-374.541C240.5,-362.451 240.5,-348.294 240.5,-338.044"/>
<polygon fill="none" stroke="#63b8ff" points="237,-374.893 240.5,-384.893 244,-374.893 237,-374.893"/>
</g>
<!-- Node5&#45;&gt;Node1 -->
<g id="edge4" class="edge"><title>Node5&#45;&gt;Node1</title>
<path fill="none" stroke="#404040" d="M182.5,-192.473C182.5,-175.775 182.5,-146.727 182.5,-119.578"/>
<polygon fill="none" stroke="#404040" points="182.5,-119.289 178.5,-113.289 182.5,-107.289 186.5,-113.289 182.5,-119.289"/>
<text text-anchor="middle" x="203" y="-128" font-family="Helvetica,sans-Serif" font-size="10.00"> &#45;strikes_</text>
</g>
<!-- Node6 -->
<g id="node6" class="node"><title>Node6</title>
<g id="a_node6"><a xlink:title=" ">
<polygon fill="white" stroke="#666666" points="154.5,-338 86.5,-338 86.5,-308 154.5,-308 154.5,-338"/>
<text text-anchor="middle" x="120.5" y="-326" font-family="Helvetica,sans-Serif" font-size="10.00">{vector&lt; T &gt;</text>
<text text-anchor="middle" x="120.5" y="-315" font-family="Helvetica,sans-Serif" font-size="10.00">||}</text>
</a>
</g>
</g>
<!-- Node6&#45;&gt;Node5 -->
<g id="edge6" class="edge"><title>Node6&#45;&gt;Node5</title>
<path fill="none" stroke="orange" d="M127.764,-297.741C129.954,-291.505 132.566,-284.895 135.5,-279 145.791,-258.324 161.136,-236.493 171.467,-222.699"/>
<polygon fill="orange" stroke="orange" points="124.291,-297.098 124.496,-307.691 130.942,-299.283 124.291,-297.098"/>
<text text-anchor="middle" x="168" y="-282" font-family="Helvetica,sans-Serif" font-size="10.00"> &lt; std::string &gt;</text>
</g>
<!-- Node7 -->
<g id="node7" class="node"><title>Node7</title>
<g id="a_node7"><a xlink:title=" ">
<polygon fill="white" stroke="#666666" points="135,-415 106,-415 106,-385 135,-385 135,-415"/>
<text text-anchor="middle" x="120.5" y="-403" font-family="Helvetica,sans-Serif" font-size="10.00">{T</text>
<text text-anchor="middle" x="120.5" y="-392" font-family="Helvetica,sans-Serif" font-size="10.00">||}</text>
</a>
</g>
</g>
<!-- Node7&#45;&gt;Node6 -->
<g id="edge7" class="edge"><title>Node7&#45;&gt;Node6</title>
<path fill="none" stroke="#404040" d="M120.5,-384.893C120.5,-375.151 120.5,-361.901 120.5,-350.249"/>
<polygon fill="none" stroke="#404040" points="120.5,-350.044 116.5,-344.044 120.5,-338.044 124.5,-344.044 120.5,-350.044"/>
<text text-anchor="middle" x="145" y="-359" font-family="Helvetica,sans-Serif" font-size="10.00"> +elements</text>
</g>
</g>
</svg>
