<?xml version="1.0" encoding="UTF-8" standalone="no"?>
<!DOCTYPE svg PUBLIC "-//W3C//DTD SVG 1.1//EN"
 "http://www.w3.org/Graphics/SVG/1.1/DTD/svg11.dtd">
<!-- Generated by graphviz version 2.38.0 (20140413.2041)
 -->
<!-- Title: buildVolatility Pages: 1 -->
<svg width="548pt" height="264pt"
 viewBox="0.00 0.00 548.00 264.00" xmlns="http://www.w3.org/2000/svg" xmlns:xlink="http://www.w3.org/1999/xlink">
<g id="graph0" class="graph" transform="scale(1 1) rotate(0) translate(4 260)">
<title>buildVolatility</title>
<!-- Node1 -->
<g id="node1" class="node"><title>Node1</title>
<g id="a_node1"><a xlink:title=" ">
<polygon fill="#999999" stroke="#666666" points="74,-133.5 0,-133.5 0,-114.5 74,-114.5 74,-133.5"/>
<text text-anchor="middle" x="37" y="-121.5" font-family="Helvetica,sans-Serif" font-size="10.00">buildVolatility</text>
</a>
</g>
</g>
<!-- Node2 -->
<g id="node2" class="node"><title>Node2</title>
<g id="a_node2"><a xlink:href="classore_1_1data_1_1_c_d_s_proxy_volatility_config.html#ad5709f741598700bef2ae19382943067" target="_top" xlink:title=" ">
<polygon fill="white" stroke="#666666" points="254,-249 110,-249 110,-219 254,-219 254,-249"/>
<text text-anchor="start" x="118" y="-237" font-family="Helvetica,sans-Serif" font-size="10.00">ore::data::CDSProxyVolatility</text>
<text text-anchor="middle" x="182" y="-226" font-family="Helvetica,sans-Serif" font-size="10.00">Config::cdsVolatilityCurve</text>
</a>
</g>
</g>
<!-- Node1&#45;&gt;Node2 -->
<g id="edge1" class="edge"><title>Node1&#45;&gt;Node2</title>
<path fill="none" stroke="#63b8ff" d="M43.6308,-133.757C54.3316,-151.465 79.3013,-189.004 110,-210 112.239,-211.531 114.583,-212.972 117.002,-214.327"/>
<polygon fill="#63b8ff" stroke="#63b8ff" points="115.52,-217.5 126.027,-218.867 118.667,-211.246 115.52,-217.5"/>
</g>
<!-- Node3 -->
<g id="node3" class="node"><title>Node3</title>
<g id="a_node3"><a xlink:href="classore_1_1data_1_1_curve_spec.html#afa7a10b4b56522f03c698ac514b0f844" target="_top" xlink:title="returns the unique curve name">
<polygon fill="white" stroke="#666666" points="235.5,-201 128.5,-201 128.5,-171 235.5,-171 235.5,-201"/>
<text text-anchor="start" x="136.5" y="-189" font-family="Helvetica,sans-Serif" font-size="10.00">ore::data::CurveSpec</text>
<text text-anchor="middle" x="182" y="-178" font-family="Helvetica,sans-Serif" font-size="10.00">::name</text>
</a>
</g>
</g>
<!-- Node1&#45;&gt;Node3 -->
<g id="edge2" class="edge"><title>Node1&#45;&gt;Node3</title>
<path fill="none" stroke="#63b8ff" d="M54.2205,-133.52C68.5791,-141.713 90.2609,-153.519 110,-162 114.33,-163.86 118.856,-165.675 123.436,-167.419"/>
<polygon fill="#63b8ff" stroke="#63b8ff" points="122.273,-170.72 132.866,-170.892 124.692,-164.152 122.273,-170.72"/>
</g>
<!-- Node8 -->
<g id="node8" class="node"><title>Node8</title>
<g id="a_node8"><a xlink:href="namespaceore_1_1data.html#a777e216dee6069b548bb87da7152699e" target="_top" xlink:title=" ">
<polygon fill="white" stroke="#666666" points="221.5,-152.5 142.5,-152.5 142.5,-133.5 221.5,-133.5 221.5,-152.5"/>
<text text-anchor="middle" x="182" y="-140.5" font-family="Helvetica,sans-Serif" font-size="10.00">ore::data::size</text>
</a>
</g>
</g>
<!-- Node1&#45;&gt;Node8 -->
<g id="edge8" class="edge"><title>Node1&#45;&gt;Node8</title>
<path fill="none" stroke="#63b8ff" d="M74.0849,-128.795C91.7588,-131.143 113.295,-134.004 132.395,-136.542"/>
<polygon fill="#63b8ff" stroke="#63b8ff" points="132.046,-140.026 142.42,-137.874 132.968,-133.087 132.046,-140.026"/>
</g>
<!-- Node9 -->
<g id="node9" class="node"><title>Node9</title>
<g id="a_node9"><a xlink:href="classore_1_1data_1_1_c_d_s_vol_curve.html#ad0b7021abfbbc096229703abcc106717" target="_top" xlink:title=" ">
<polygon fill="white" stroke="#666666" points="201,-115.5 163,-115.5 163,-96.5 201,-96.5 201,-115.5"/>
<text text-anchor="middle" x="182" y="-103.5" font-family="Helvetica,sans-Serif" font-size="10.00">spec</text>
</a>
</g>
</g>
<!-- Node1&#45;&gt;Node9 -->
<g id="edge9" class="edge"><title>Node1&#45;&gt;Node9</title>
<path fill="none" stroke="#63b8ff" d="M74.0849,-119.458C98.5131,-116.383 130.32,-112.379 152.873,-109.541"/>
<polygon fill="#63b8ff" stroke="#63b8ff" points="153.341,-113.009 162.825,-108.288 152.467,-106.064 153.341,-113.009"/>
</g>
<!-- Node10 -->
<g id="node10" class="node"><title>Node10</title>
<g id="a_node10"><a xlink:href="classore_1_1data_1_1_c_d_s_volatility_curve_config.html#a6df329e2ca7dcb6a1318e25ce2754614" target="_top" xlink:title=" ">
<polygon fill="white" stroke="#666666" points="243,-78 121,-78 121,-48 243,-48 243,-78"/>
<text text-anchor="start" x="129" y="-66" font-family="Helvetica,sans-Serif" font-size="10.00">ore::data::CDSVolatility</text>
<text text-anchor="middle" x="182" y="-55" font-family="Helvetica,sans-Serif" font-size="10.00">CurveConfig::termCurves</text>
</a>
</g>
</g>
<!-- Node1&#45;&gt;Node10 -->
<g id="edge10" class="edge"><title>Node1&#45;&gt;Node10</title>
<path fill="none" stroke="#63b8ff" d="M55.464,-114.496C69.8689,-106.846 90.958,-96.0756 110,-88 115.113,-85.8315 120.485,-83.6941 125.89,-81.637"/>
<polygon fill="#63b8ff" stroke="#63b8ff" points="127.446,-84.7927 135.604,-78.0319 125.011,-78.2301 127.446,-84.7927"/>
</g>
<!-- Node11 -->
<g id="node11" class="node"><title>Node11</title>
<g id="a_node11"><a xlink:href="classore_1_1data_1_1_c_d_s_volatility_curve_config.html#a0eaaa05c716936d3fffd39da0cc67f11" target="_top" xlink:title=" ">
<polygon fill="white" stroke="#666666" points="241.5,-30 122.5,-30 122.5,-0 241.5,-0 241.5,-30"/>
<text text-anchor="start" x="130.5" y="-18" font-family="Helvetica,sans-Serif" font-size="10.00">ore::data::CDSVolatility</text>
<text text-anchor="middle" x="182" y="-7" font-family="Helvetica,sans-Serif" font-size="10.00">CurveConfig::terms</text>
</a>
</g>
</g>
<!-- Node1&#45;&gt;Node11 -->
<g id="edge11" class="edge"><title>Node1&#45;&gt;Node11</title>
<path fill="none" stroke="#63b8ff" d="M43.6597,-114.359C54.4075,-96.8606 79.4507,-59.7652 110,-39 112.243,-37.4754 114.591,-36.0399 117.013,-34.6892"/>
<polygon fill="#63b8ff" stroke="#63b8ff" points="118.675,-37.7714 126.046,-30.1613 115.538,-31.5136 118.675,-37.7714"/>
</g>
<!-- Node4 -->
<g id="node4" class="node"><title>Node4</title>
<g id="a_node4"><a xlink:href="classore_1_1data_1_1_curve_spec.html#a3d24768215bf6280c80eca3930ea3f55" target="_top" xlink:title=" ">
<polygon fill="white" stroke="#666666" points="397,-225 290,-225 290,-195 397,-195 397,-225"/>
<text text-anchor="start" x="298" y="-213" font-family="Helvetica,sans-Serif" font-size="10.00">ore::data::CurveSpec</text>
<text text-anchor="middle" x="343.5" y="-202" font-family="Helvetica,sans-Serif" font-size="10.00">::baseName</text>
</a>
</g>
</g>
<!-- Node3&#45;&gt;Node4 -->
<g id="edge3" class="edge"><title>Node3&#45;&gt;Node4</title>
<path fill="none" stroke="#63b8ff" d="M235.668,-193.925C249.824,-196.055 265.271,-198.379 279.908,-200.582"/>
<polygon fill="#63b8ff" stroke="#63b8ff" points="279.478,-204.056 289.887,-202.083 280.519,-197.134 279.478,-204.056"/>
</g>
<!-- Node7 -->
<g id="node7" class="node"><title>Node7</title>
<g id="a_node7"><a xlink:href="classore_1_1data_1_1_curve_spec.html#a471fbcf9df5ab7ac2153495b4c8ac723" target="_top" xlink:title=" ">
<polygon fill="white" stroke="#666666" points="397,-177 290,-177 290,-147 397,-147 397,-177"/>
<text text-anchor="start" x="298" y="-165" font-family="Helvetica,sans-Serif" font-size="10.00">ore::data::CurveSpec</text>
<text text-anchor="middle" x="343.5" y="-154" font-family="Helvetica,sans-Serif" font-size="10.00">::subName</text>
</a>
</g>
</g>
<!-- Node3&#45;&gt;Node7 -->
<g id="edge7" class="edge"><title>Node3&#45;&gt;Node7</title>
<path fill="none" stroke="#63b8ff" d="M235.668,-178.075C249.824,-175.945 265.271,-173.621 279.908,-171.418"/>
<polygon fill="#63b8ff" stroke="#63b8ff" points="280.519,-174.866 289.887,-169.917 279.478,-167.944 280.519,-174.866"/>
</g>
<!-- Node5 -->
<g id="node5" class="node"><title>Node5</title>
<g id="a_node5"><a xlink:href="classore_1_1data_1_1_curve_spec.html#a0106d2fb6472e64456c6ebd018aa6300" target="_top" xlink:title=" ">
<polygon fill="white" stroke="#666666" points="540,-256 433,-256 433,-226 540,-226 540,-256"/>
<text text-anchor="start" x="441" y="-244" font-family="Helvetica,sans-Serif" font-size="10.00">ore::data::CurveSpec</text>
<text text-anchor="middle" x="486.5" y="-233" font-family="Helvetica,sans-Serif" font-size="10.00">::baseType</text>
</a>
</g>
</g>
<!-- Node4&#45;&gt;Node5 -->
<g id="edge4" class="edge"><title>Node4&#45;&gt;Node5</title>
<path fill="none" stroke="#63b8ff" d="M397.003,-221.543C405.445,-223.399 414.255,-225.336 422.905,-227.238"/>
<polygon fill="#63b8ff" stroke="#63b8ff" points="422.435,-230.718 432.953,-229.447 423.938,-223.881 422.435,-230.718"/>
</g>
<!-- Node6 -->
<g id="node6" class="node"><title>Node6</title>
<g id="a_node6"><a xlink:href="namespaceore_1_1data.html#a86651dfeb5c18ee891f7a4734d8cf455" target="_top" xlink:title=" ">
<polygon fill="white" stroke="#666666" points="535.5,-189.5 437.5,-189.5 437.5,-170.5 535.5,-170.5 535.5,-189.5"/>
<text text-anchor="middle" x="486.5" y="-177.5" font-family="Helvetica,sans-Serif" font-size="10.00">ore::data::to_string</text>
</a>
</g>
</g>
<!-- Node4&#45;&gt;Node6 -->
<g id="edge5" class="edge"><title>Node4&#45;&gt;Node6</title>
<path fill="none" stroke="#63b8ff" d="M397.003,-198.829C408.033,-196.482 419.693,-194.001 430.802,-191.638"/>
<polygon fill="#63b8ff" stroke="#63b8ff" points="431.761,-195.012 440.814,-189.508 430.305,-188.165 431.761,-195.012"/>
</g>
<!-- Node6&#45;&gt;Node6 -->
<g id="edge6" class="edge"><title>Node6&#45;&gt;Node6</title>
<path fill="none" stroke="#63b8ff" d="M464.614,-189.583C453.966,-198.234 461.262,-207.5 486.5,-207.5 502.668,-207.5 511.473,-203.697 512.914,-198.689"/>
<polygon fill="#63b8ff" stroke="#63b8ff" points="515.972,-196.979 508.386,-189.583 509.704,-200.095 515.972,-196.979"/>
</g>
</g>
</svg>
