<?xml version="1.0" encoding="UTF-8" standalone="no"?>
<!DOCTYPE svg PUBLIC "-//W3C//DTD SVG 1.1//EN"
 "http://www.w3.org/Graphics/SVG/1.1/DTD/svg11.dtd">
<!-- Generated by graphviz version 2.38.0 (20140413.2041)
 -->
<!-- Title: buildCrossCurrencyPriceCurve Pages: 1 -->
<svg width="605pt" height="131pt"
 viewBox="0.00 0.00 605.00 130.50" xmlns="http://www.w3.org/2000/svg" xmlns:xlink="http://www.w3.org/1999/xlink">
<g id="graph0" class="graph" transform="scale(1 1) rotate(0) translate(4 126.5)">
<title>buildCrossCurrencyPriceCurve</title>
<!-- Node1 -->
<g id="node1" class="node"><title>Node1</title>
<g id="a_node1"><a xlink:title="Build cross currency commodity price curve.">
<polygon fill="#999999" stroke="#666666" points="148,-62 0,-62 0,-43 148,-43 148,-62"/>
<text text-anchor="middle" x="74" y="-50" font-family="Helvetica,sans-Serif" font-size="10.00">buildCrossCurrencyPriceCurve</text>
</a>
</g>
</g>
<!-- Node2 -->
<g id="node2" class="node"><title>Node2</title>
<g id="a_node2"><a xlink:href="classore_1_1data_1_1_f_x_triangulation.html#ae9daa055d4ae016b45ea582dfcd7e74b" target="_top" xlink:title=" ">
<polygon fill="white" stroke="#666666" points="311,-115.5 184,-115.5 184,-85.5 311,-85.5 311,-115.5"/>
<text text-anchor="start" x="192" y="-103.5" font-family="Helvetica,sans-Serif" font-size="10.00">ore::data::FXTriangulation</text>
<text text-anchor="middle" x="247.5" y="-92.5" font-family="Helvetica,sans-Serif" font-size="10.00">::getQuote</text>
</a>
</g>
</g>
<!-- Node1&#45;&gt;Node2 -->
<g id="edge1" class="edge"><title>Node1&#45;&gt;Node2</title>
<path fill="none" stroke="#63b8ff" d="M109.293,-62.0982C130.349,-67.9914 157.974,-75.723 182.913,-82.7031"/>
<polygon fill="#63b8ff" stroke="#63b8ff" points="182.108,-86.1122 192.681,-85.437 183.995,-79.3712 182.108,-86.1122"/>
</g>
<!-- Node3 -->
<g id="node3" class="node"><title>Node3</title>
<g id="a_node3"><a xlink:href="classore_1_1data_1_1_curve_spec.html#afa7a10b4b56522f03c698ac514b0f844" target="_top" xlink:title="returns the unique curve name">
<polygon fill="white" stroke="#666666" points="301,-67.5 194,-67.5 194,-37.5 301,-37.5 301,-67.5"/>
<text text-anchor="start" x="202" y="-55.5" font-family="Helvetica,sans-Serif" font-size="10.00">ore::data::CurveSpec</text>
<text text-anchor="middle" x="247.5" y="-44.5" font-family="Helvetica,sans-Serif" font-size="10.00">::name</text>
</a>
</g>
</g>
<!-- Node1&#45;&gt;Node3 -->
<g id="edge2" class="edge"><title>Node1&#45;&gt;Node3</title>
<path fill="none" stroke="#63b8ff" d="M148.229,-52.5C160.129,-52.5 172.358,-52.5 183.972,-52.5"/>
<polygon fill="#63b8ff" stroke="#63b8ff" points="183.997,-56.0001 193.997,-52.5 183.997,-49.0001 183.997,-56.0001"/>
</g>
<!-- Node8 -->
<g id="node8" class="node"><title>Node8</title>
<g id="a_node8"><a xlink:href="group__utilities.html#ga6e9e781a58e78200301c76161589fc7b" target="_top" xlink:title="Convert text to QuantLib::Currency.">
<polygon fill="white" stroke="#666666" points="309.5,-19 185.5,-19 185.5,-0 309.5,-0 309.5,-19"/>
<text text-anchor="middle" x="247.5" y="-7" font-family="Helvetica,sans-Serif" font-size="10.00">ore::data::parseCurrency</text>
</a>
</g>
</g>
<!-- Node1&#45;&gt;Node8 -->
<g id="edge8" class="edge"><title>Node1&#45;&gt;Node8</title>
<path fill="none" stroke="#63b8ff" d="M113.061,-42.9569C138.262,-36.6383 171.521,-28.2994 198.529,-21.5276"/>
<polygon fill="#63b8ff" stroke="#63b8ff" points="199.696,-24.8434 208.545,-19.0164 197.994,-18.0536 199.696,-24.8434"/>
</g>
<!-- Node4 -->
<g id="node4" class="node"><title>Node4</title>
<g id="a_node4"><a xlink:href="classore_1_1data_1_1_curve_spec.html#a3d24768215bf6280c80eca3930ea3f55" target="_top" xlink:title=" ">
<polygon fill="white" stroke="#666666" points="454,-91.5 347,-91.5 347,-61.5 454,-61.5 454,-91.5"/>
<text text-anchor="start" x="355" y="-79.5" font-family="Helvetica,sans-Serif" font-size="10.00">ore::data::CurveSpec</text>
<text text-anchor="middle" x="400.5" y="-68.5" font-family="Helvetica,sans-Serif" font-size="10.00">::baseName</text>
</a>
</g>
</g>
<!-- Node3&#45;&gt;Node4 -->
<g id="edge3" class="edge"><title>Node3&#45;&gt;Node4</title>
<path fill="none" stroke="#63b8ff" d="M301.312,-60.894C312.758,-62.7132 324.97,-64.6542 336.756,-66.5274"/>
<polygon fill="#63b8ff" stroke="#63b8ff" points="336.547,-70.0381 346.972,-68.1512 337.646,-63.1248 336.547,-70.0381"/>
</g>
<!-- Node7 -->
<g id="node7" class="node"><title>Node7</title>
<g id="a_node7"><a xlink:href="classore_1_1data_1_1_curve_spec.html#a471fbcf9df5ab7ac2153495b4c8ac723" target="_top" xlink:title=" ">
<polygon fill="white" stroke="#666666" points="454,-43.5 347,-43.5 347,-13.5 454,-13.5 454,-43.5"/>
<text text-anchor="start" x="355" y="-31.5" font-family="Helvetica,sans-Serif" font-size="10.00">ore::data::CurveSpec</text>
<text text-anchor="middle" x="400.5" y="-20.5" font-family="Helvetica,sans-Serif" font-size="10.00">::subName</text>
</a>
</g>
</g>
<!-- Node3&#45;&gt;Node7 -->
<g id="edge7" class="edge"><title>Node3&#45;&gt;Node7</title>
<path fill="none" stroke="#63b8ff" d="M301.312,-44.106C312.758,-42.2868 324.97,-40.3458 336.756,-38.4726"/>
<polygon fill="#63b8ff" stroke="#63b8ff" points="337.646,-41.8752 346.972,-36.8488 336.547,-34.9619 337.646,-41.8752"/>
</g>
<!-- Node5 -->
<g id="node5" class="node"><title>Node5</title>
<g id="a_node5"><a xlink:href="classore_1_1data_1_1_curve_spec.html#a0106d2fb6472e64456c6ebd018aa6300" target="_top" xlink:title=" ">
<polygon fill="white" stroke="#666666" points="597,-122.5 490,-122.5 490,-92.5 597,-92.5 597,-122.5"/>
<text text-anchor="start" x="498" y="-110.5" font-family="Helvetica,sans-Serif" font-size="10.00">ore::data::CurveSpec</text>
<text text-anchor="middle" x="543.5" y="-99.5" font-family="Helvetica,sans-Serif" font-size="10.00">::baseType</text>
</a>
</g>
</g>
<!-- Node4&#45;&gt;Node5 -->
<g id="edge4" class="edge"><title>Node4&#45;&gt;Node5</title>
<path fill="none" stroke="#63b8ff" d="M454.003,-88.0433C462.445,-89.8992 471.255,-91.8362 479.905,-93.7379"/>
<polygon fill="#63b8ff" stroke="#63b8ff" points="479.435,-97.2181 489.953,-95.9471 480.938,-90.3814 479.435,-97.2181"/>
</g>
<!-- Node6 -->
<g id="node6" class="node"><title>Node6</title>
<g id="a_node6"><a xlink:href="namespaceore_1_1data.html#a86651dfeb5c18ee891f7a4734d8cf455" target="_top" xlink:title=" ">
<polygon fill="white" stroke="#666666" points="592.5,-56 494.5,-56 494.5,-37 592.5,-37 592.5,-56"/>
<text text-anchor="middle" x="543.5" y="-44" font-family="Helvetica,sans-Serif" font-size="10.00">ore::data::to_string</text>
</a>
</g>
</g>
<!-- Node4&#45;&gt;Node6 -->
<g id="edge5" class="edge"><title>Node4&#45;&gt;Node6</title>
<path fill="none" stroke="#63b8ff" d="M454.003,-65.3291C465.033,-62.9823 476.693,-60.5014 487.802,-58.1379"/>
<polygon fill="#63b8ff" stroke="#63b8ff" points="488.761,-61.5122 497.814,-56.0076 487.305,-54.6654 488.761,-61.5122"/>
</g>
<!-- Node6&#45;&gt;Node6 -->
<g id="edge6" class="edge"><title>Node6&#45;&gt;Node6</title>
<path fill="none" stroke="#63b8ff" d="M521.614,-56.0828C510.966,-64.7337 518.262,-74 543.5,-74 559.668,-74 568.473,-70.1971 569.914,-65.1894"/>
<polygon fill="#63b8ff" stroke="#63b8ff" points="572.972,-63.4792 565.386,-56.0828 566.704,-66.5954 572.972,-63.4792"/>
</g>
</g>
</svg>
