<?xml version="1.0" encoding="UTF-8" standalone="no"?>
<!DOCTYPE svg PUBLIC "-//W3C//DTD SVG 1.1//EN"
 "http://www.w3.org/Graphics/SVG/1.1/DTD/svg11.dtd">
<!-- Generated by graphviz version 2.38.0 (20140413.2041)
 -->
<!-- Title: initialMarginType Pages: 1 -->
<svg width="241pt" height="138pt"
 viewBox="0.00 0.00 241.00 138.00" xmlns="http://www.w3.org/2000/svg" xmlns:xlink="http://www.w3.org/1999/xlink">
<g id="graph0" class="graph" transform="scale(1 1) rotate(0) translate(4 134)">
<title>initialMarginType</title>
<!-- Node1 -->
<g id="node1" class="node"><title>Node1</title>
<g id="a_node1"><a xlink:title=" ">
<polygon fill="#999999" stroke="#666666" points="233,-74 144,-74 144,-55 233,-55 233,-74"/>
<text text-anchor="middle" x="188.5" y="-62" font-family="Helvetica,sans-Serif" font-size="10.00">initialMarginType</text>
</a>
</g>
</g>
<!-- Node2 -->
<g id="node2" class="node"><title>Node2</title>
<g id="a_node2"><a xlink:href="classore_1_1data_1_1_netting_set_details.html#a7f4fa5eac9054ac33bd63d3171350916" target="_top" xlink:title="Returns a map representation of the object.">
<polygon fill="white" stroke="#666666" points="104.5,-130 3.5,-130 3.5,-111 104.5,-111 104.5,-130"/>
<text text-anchor="middle" x="54" y="-118" font-family="Helvetica,sans-Serif" font-size="10.00">mapRepresentation</text>
</a>
</g>
</g>
<!-- Node1&#45;&gt;Node2 -->
<g id="edge1" class="edge"><title>Node1&#45;&gt;Node2</title>
<path fill="none" stroke="#63b8ff" d="M159.852,-78.7093C144.729,-86.2276 125.55,-95.3548 108,-102.5 100.71,-105.468 92.727,-108.36 85.2196,-110.927"/>
<polygon fill="#63b8ff" stroke="#63b8ff" points="161.783,-81.656 169.146,-74.038 158.639,-75.4016 161.783,-81.656"/>
</g>
<!-- Node3 -->
<g id="node3" class="node"><title>Node3</title>
<g id="a_node3"><a xlink:href="namespaceore_1_1data.html#a6b331723583430a5fbfff123a64b1933" target="_top" xlink:title="Comparison operators.">
<polygon fill="white" stroke="#666666" points="105,-93 3,-93 3,-74 105,-74 105,-93"/>
<text text-anchor="middle" x="54" y="-81" font-family="Helvetica,sans-Serif" font-size="10.00">ore::data::operator&lt;</text>
</a>
</g>
</g>
<!-- Node1&#45;&gt;Node3 -->
<g id="edge2" class="edge"><title>Node1&#45;&gt;Node3</title>
<path fill="none" stroke="#63b8ff" d="M133.683,-72.2171C124.247,-73.5702 114.462,-74.9734 105.131,-76.3114"/>
<polygon fill="#63b8ff" stroke="#63b8ff" points="134.345,-75.6581 143.747,-70.774 133.352,-68.7289 134.345,-75.6581"/>
</g>
<!-- Node4 -->
<g id="node4" class="node"><title>Node4</title>
<g id="a_node4"><a xlink:href="namespaceore_1_1data.html#af89cd55cbed9bd68935a3c68dc4303fd" target="_top" xlink:title="Enable writing of netting set details.">
<polygon fill="white" stroke="#666666" points="108,-56 0,-56 0,-37 108,-37 108,-56"/>
<text text-anchor="middle" x="54" y="-44" font-family="Helvetica,sans-Serif" font-size="10.00">ore::data::operator&lt;&lt;</text>
</a>
</g>
</g>
<!-- Node1&#45;&gt;Node4 -->
<g id="edge3" class="edge"><title>Node1&#45;&gt;Node4</title>
<path fill="none" stroke="#63b8ff" d="M133.731,-57.1955C125.377,-56.0606 116.748,-54.8884 108.402,-53.7546"/>
<polygon fill="#63b8ff" stroke="#63b8ff" points="133.367,-60.6782 143.747,-58.5562 134.31,-53.7419 133.367,-60.6782"/>
</g>
<!-- Node5 -->
<g id="node5" class="node"><title>Node5</title>
<g id="a_node5"><a xlink:href="namespaceore_1_1data.html#ab6018b24c5d081f9fdcd081f25cff5b3" target="_top" xlink:title=" ">
<polygon fill="white" stroke="#666666" points="108,-19 0,-19 0,-0 108,-0 108,-19"/>
<text text-anchor="middle" x="54" y="-7" font-family="Helvetica,sans-Serif" font-size="10.00">ore::data::operator==</text>
</a>
</g>
</g>
<!-- Node1&#45;&gt;Node5 -->
<g id="edge4" class="edge"><title>Node1&#45;&gt;Node5</title>
<path fill="none" stroke="#63b8ff" d="M158.21,-50.5513C143.302,-43.6274 124.82,-35.31 108,-28.5 99.9363,-25.2351 91.0736,-21.9439 82.942,-19.0393"/>
<polygon fill="#63b8ff" stroke="#63b8ff" points="156.896,-53.8007 167.436,-54.8701 159.863,-47.4609 156.896,-53.8007"/>
</g>
</g>
</svg>
