<?xml version="1.0" encoding="UTF-8" standalone="no"?>
<!DOCTYPE svg PUBLIC "-//W3C//DTD SVG 1.1//EN"
 "http://www.w3.org/Graphics/SVG/1.1/DTD/svg11.dtd">
<!-- Generated by graphviz version 2.38.0 (20140413.2041)
 -->
<!-- Title: calibrationIndexTerms Pages: 1 -->
<svg width="276pt" height="76pt"
 viewBox="0.00 0.00 276.00 75.50" xmlns="http://www.w3.org/2000/svg" xmlns:xlink="http://www.w3.org/1999/xlink">
<g id="graph0" class="graph" transform="scale(1 1) rotate(0) translate(4 71.5)">
<title>calibrationIndexTerms</title>
<!-- Node1 -->
<g id="node1" class="node"><title>Node1</title>
<g id="a_node1"><a xlink:title=" ">
<polygon fill="#999999" stroke="#666666" points="111,-40 0,-40 0,-21 111,-21 111,-40"/>
<text text-anchor="middle" x="55.5" y="-28" font-family="Helvetica,sans-Serif" font-size="10.00">calibrationIndexTerms</text>
</a>
</g>
</g>
<!-- Node2 -->
<g id="node2" class="node"><title>Node2</title>
<g id="a_node2"><a xlink:href="classore_1_1data_1_1_engine_builder.html#a9d7654707f3b935dcf6a7b19df70c085" target="_top" xlink:title=" ">
<polygon fill="white" stroke="#666666" points="268,-67.5 147,-67.5 147,-37.5 268,-37.5 268,-67.5"/>
<text text-anchor="start" x="155" y="-55.5" font-family="Helvetica,sans-Serif" font-size="10.00">ore::data::EngineBuilder</text>
<text text-anchor="middle" x="207.5" y="-44.5" font-family="Helvetica,sans-Serif" font-size="10.00">::engineParameter</text>
</a>
</g>
</g>
<!-- Node1&#45;&gt;Node2 -->
<g id="edge1" class="edge"><title>Node1&#45;&gt;Node2</title>
<path fill="none" stroke="#63b8ff" d="M111.078,-38.5047C119.447,-39.7322 128.183,-41.0135 136.824,-42.2809"/>
<polygon fill="#63b8ff" stroke="#63b8ff" points="136.495,-45.77 146.897,-43.7582 137.511,-38.8441 136.495,-45.77"/>
</g>
<!-- Node3 -->
<g id="node3" class="node"><title>Node3</title>
<g id="a_node3"><a xlink:href="group__utilities.html#ga8e0623e2cb01e250e9cfec4619256208" target="_top" xlink:title="Convert text to QuantLib::Period.">
<polygon fill="white" stroke="#666666" points="264,-19 151,-19 151,-0 264,-0 264,-19"/>
<text text-anchor="middle" x="207.5" y="-7" font-family="Helvetica,sans-Serif" font-size="10.00">ore::data::parsePeriod</text>
</a>
</g>
</g>
<!-- Node1&#45;&gt;Node3 -->
<g id="edge2" class="edge"><title>Node1&#45;&gt;Node3</title>
<path fill="none" stroke="#63b8ff" d="M111.078,-22.8591C120.714,-21.51 130.838,-20.0927 140.743,-18.706"/>
<polygon fill="#63b8ff" stroke="#63b8ff" points="141.538,-22.1289 150.956,-17.2762 140.567,-15.1965 141.538,-22.1289"/>
</g>
</g>
</svg>
