<?xml version="1.0" encoding="UTF-8" standalone="no"?>
<!DOCTYPE svg PUBLIC "-//W3C//DTD SVG 1.1//EN"
 "http://www.w3.org/Graphics/SVG/1.1/DTD/svg11.dtd">
<!-- Generated by graphviz version 2.38.0 (20140413.2041)
 -->
<!-- Title: build Pages: 1 -->
<svg width="401pt" height="521pt"
 viewBox="0.00 0.00 401.00 520.50" xmlns="http://www.w3.org/2000/svg" xmlns:xlink="http://www.w3.org/1999/xlink">
<g id="graph0" class="graph" transform="scale(1 1) rotate(0) translate(4 516.5)">
<title>build</title>
<!-- Node1 -->
<g id="node1" class="node"><title>Node1</title>
<g id="a_node1"><a xlink:title=" ">
<polygon fill="#999999" stroke="#666666" points="37,-264.5 0,-264.5 0,-245.5 37,-245.5 37,-264.5"/>
<text text-anchor="middle" x="18.5" y="-252.5" font-family="Helvetica,sans-Serif" font-size="10.00">build</text>
</a>
</g>
</g>
<!-- Node2 -->
<g id="node2" class="node"><title>Node2</title>
<g id="a_node2"><a xlink:href="classore_1_1data_1_1_commodity_swaption.html#aff2654ea1d741913d6d09f7742733336" target="_top" xlink:title=" ">
<polygon fill="white" stroke="#666666" points="180,-512.5 119,-512.5 119,-493.5 180,-493.5 180,-512.5"/>
<text text-anchor="middle" x="149.5" y="-500.5" font-family="Helvetica,sans-Serif" font-size="10.00">buildSwap</text>
</a>
</g>
</g>
<!-- Node1&#45;&gt;Node2 -->
<g id="edge1" class="edge"><title>Node1&#45;&gt;Node2</title>
<path fill="none" stroke="#63b8ff" d="M20.4259,-264.599C24.4043,-303.873 41.3005,-451.756 73,-484 82.3462,-493.507 95.6981,-498.508 108.582,-501.065"/>
<polygon fill="#63b8ff" stroke="#63b8ff" points="108.311,-504.565 118.728,-502.631 109.379,-497.647 108.311,-504.565"/>
</g>
<!-- Node4 -->
<g id="node4" class="node"><title>Node4</title>
<g id="a_node4"><a xlink:href="classore_1_1data_1_1_option_data.html#af82897aa671c01e0988878f1476ef9b8" target="_top" xlink:title=" ">
<polygon fill="white" stroke="#666666" points="204.5,-475 94.5,-475 94.5,-445 204.5,-445 204.5,-475"/>
<text text-anchor="start" x="102.5" y="-463" font-family="Helvetica,sans-Serif" font-size="10.00">ore::data::OptionData</text>
<text text-anchor="middle" x="149.5" y="-452" font-family="Helvetica,sans-Serif" font-size="10.00">::exerciseDates</text>
</a>
</g>
</g>
<!-- Node1&#45;&gt;Node4 -->
<g id="edge3" class="edge"><title>Node1&#45;&gt;Node4</title>
<path fill="none" stroke="#63b8ff" d="M19.3894,-264.805C19.5979,-294.815 24.3824,-386.381 73,-436 76.6368,-439.712 80.8446,-442.851 85.3756,-445.505"/>
<polygon fill="#63b8ff" stroke="#63b8ff" points="83.9136,-448.687 94.4223,-450.035 87.0479,-442.428 83.9136,-448.687"/>
</g>
<!-- Node5 -->
<g id="node5" class="node"><title>Node5</title>
<g id="a_node5"><a xlink:href="classore_1_1data_1_1_option_data.html#a50b9f07b1c2bd1b4fea7f2e7da7fdb2b" target="_top" xlink:title=" ">
<polygon fill="white" stroke="#666666" points="204.5,-427 94.5,-427 94.5,-397 204.5,-397 204.5,-427"/>
<text text-anchor="start" x="102.5" y="-415" font-family="Helvetica,sans-Serif" font-size="10.00">ore::data::OptionData</text>
<text text-anchor="middle" x="149.5" y="-404" font-family="Helvetica,sans-Serif" font-size="10.00">::longShort</text>
</a>
</g>
</g>
<!-- Node1&#45;&gt;Node5 -->
<g id="edge4" class="edge"><title>Node1&#45;&gt;Node5</title>
<path fill="none" stroke="#63b8ff" d="M20.5711,-264.6C23.792,-288.886 35.6011,-353.294 73,-388 76.5916,-391.333 80.6457,-394.203 84.964,-396.675"/>
<polygon fill="#63b8ff" stroke="#63b8ff" points="83.62,-399.914 94.1355,-401.209 86.7221,-393.639 83.62,-399.914"/>
</g>
<!-- Node6 -->
<g id="node6" class="node"><title>Node6</title>
<g id="a_node6"><a xlink:href="group__utilities.html#ga6e9e781a58e78200301c76161589fc7b" target="_top" xlink:title="Convert text to QuantLib::Currency.">
<polygon fill="white" stroke="#666666" points="211.5,-378.5 87.5,-378.5 87.5,-359.5 211.5,-359.5 211.5,-378.5"/>
<text text-anchor="middle" x="149.5" y="-366.5" font-family="Helvetica,sans-Serif" font-size="10.00">ore::data::parseCurrency</text>
</a>
</g>
</g>
<!-- Node1&#45;&gt;Node6 -->
<g id="edge5" class="edge"><title>Node1&#45;&gt;Node6</title>
<path fill="none" stroke="#63b8ff" d="M22.0261,-264.628C27.6651,-284.143 43.1884,-328.421 73,-351 74.8328,-352.388 76.7567,-353.671 78.7514,-354.857"/>
<polygon fill="#63b8ff" stroke="#63b8ff" points="77.382,-358.086 87.8877,-359.458 80.5304,-351.834 77.382,-358.086"/>
</g>
<!-- Node7 -->
<g id="node7" class="node"><title>Node7</title>
<g id="a_node7"><a xlink:href="group__utilities.html#ga59b5fdda574d90facae95dec2d13040d" target="_top" xlink:title="Convert std::string to QuantLib::Date.">
<polygon fill="white" stroke="#666666" points="202,-323.5 97,-323.5 97,-304.5 202,-304.5 202,-323.5"/>
<text text-anchor="middle" x="149.5" y="-311.5" font-family="Helvetica,sans-Serif" font-size="10.00">ore::data::parseDate</text>
</a>
</g>
</g>
<!-- Node1&#45;&gt;Node7 -->
<g id="edge6" class="edge"><title>Node1&#45;&gt;Node7</title>
<path fill="none" stroke="#63b8ff" d="M29.2946,-264.58C39.4205,-273.953 56.0919,-287.958 73,-296 77.4073,-298.096 82.0788,-299.96 86.8515,-301.614"/>
<polygon fill="#63b8ff" stroke="#63b8ff" points="86.1485,-305.062 96.738,-304.724 88.2492,-298.385 86.1485,-305.062"/>
</g>
<!-- Node10 -->
<g id="node10" class="node"><title>Node10</title>
<g id="a_node10"><a xlink:href="group__utilities.html#ga71937c757a73b33221be6ce6a8046839" target="_top" xlink:title="Convert text to QuantLib::Position::Type.">
<polygon fill="white" stroke="#666666" points="220,-286.5 79,-286.5 79,-267.5 220,-267.5 220,-286.5"/>
<text text-anchor="middle" x="149.5" y="-274.5" font-family="Helvetica,sans-Serif" font-size="10.00">ore::data::parsePositionType</text>
</a>
</g>
</g>
<!-- Node1&#45;&gt;Node10 -->
<g id="edge11" class="edge"><title>Node1&#45;&gt;Node10</title>
<path fill="none" stroke="#63b8ff" d="M37.1664,-258.013C49.1644,-260.059 65.8533,-262.905 82.6632,-265.772"/>
<polygon fill="#63b8ff" stroke="#63b8ff" points="82.094,-269.225 92.5401,-267.456 83.2709,-262.325 82.094,-269.225"/>
</g>
<!-- Node11 -->
<g id="node11" class="node"><title>Node11</title>
<g id="a_node11"><a xlink:href="group__utilities.html#ga57ce45e5fb84e56768e9542c7ee5aacd" target="_top" xlink:title="Convert text to QuantLib::Settlement::Method.">
<polygon fill="white" stroke="#666666" points="215.5,-249 83.5,-249 83.5,-219 215.5,-219 215.5,-249"/>
<text text-anchor="start" x="91.5" y="-237" font-family="Helvetica,sans-Serif" font-size="10.00">ore::data::parseSettlement</text>
<text text-anchor="middle" x="149.5" y="-226" font-family="Helvetica,sans-Serif" font-size="10.00">Method</text>
</a>
</g>
</g>
<!-- Node1&#45;&gt;Node11 -->
<g id="edge12" class="edge"><title>Node1&#45;&gt;Node11</title>
<path fill="none" stroke="#63b8ff" d="M37.1664,-252.124C46.9391,-250.533 59.8238,-248.436 73.3512,-246.234"/>
<polygon fill="#63b8ff" stroke="#63b8ff" points="73.9719,-249.679 83.2796,-244.617 72.8471,-242.77 73.9719,-249.679"/>
</g>
<!-- Node12 -->
<g id="node12" class="node"><title>Node12</title>
<g id="a_node12"><a xlink:href="group__utilities.html#gaedc713e911316c8eb473fdaf83fcfaa6" target="_top" xlink:title="Convert text to QuantLib::Settlement::Type.">
<polygon fill="white" stroke="#666666" points="226,-200.5 73,-200.5 73,-181.5 226,-181.5 226,-200.5"/>
<text text-anchor="middle" x="149.5" y="-188.5" font-family="Helvetica,sans-Serif" font-size="10.00">ore::data::parseSettlementType</text>
</a>
</g>
</g>
<!-- Node1&#45;&gt;Node12 -->
<g id="edge13" class="edge"><title>Node1&#45;&gt;Node12</title>
<path fill="none" stroke="#63b8ff" d="M28.3968,-245.255C38.3074,-234.985 55.2801,-219.066 73,-210 77.6195,-207.636 82.5513,-205.554 87.598,-203.723"/>
<polygon fill="#63b8ff" stroke="#63b8ff" points="88.9873,-206.95 97.3928,-200.501 86.7998,-200.301 88.9873,-206.95"/>
</g>
<!-- Node13 -->
<g id="node13" class="node"><title>Node13</title>
<g id="a_node13"><a xlink:href="classore_1_1data_1_1_trade.html#ad20897c5c8bd47f5d4005989bead0e55" target="_top" xlink:title="Reset trade, clear all base class data. This does not reset accumulated timings for this trade.">
<polygon fill="white" stroke="#666666" points="206,-163.5 93,-163.5 93,-144.5 206,-144.5 206,-163.5"/>
<text text-anchor="middle" x="149.5" y="-151.5" font-family="Helvetica,sans-Serif" font-size="10.00">ore::data::Trade::reset</text>
</a>
</g>
</g>
<!-- Node1&#45;&gt;Node13 -->
<g id="edge14" class="edge"><title>Node1&#45;&gt;Node13</title>
<path fill="none" stroke="#63b8ff" d="M22.9838,-245.472C29.797,-228.22 46.5691,-191.854 73,-173 76.2495,-170.682 79.754,-168.646 83.4114,-166.858"/>
<polygon fill="#63b8ff" stroke="#63b8ff" points="84.9132,-170.023 92.7595,-162.903 82.1861,-163.576 84.9132,-170.023"/>
</g>
<!-- Node15 -->
<g id="node15" class="node"><title>Node15</title>
<g id="a_node15"><a xlink:href="classore_1_1data_1_1_trade.html#a788e0abfac5089ac015b7d71dbda25e3" target="_top" xlink:title=" ">
<polygon fill="white" stroke="#666666" points="224,-126 75,-126 75,-96 224,-96 224,-126"/>
<text text-anchor="start" x="83" y="-114" font-family="Helvetica,sans-Serif" font-size="10.00">ore::data::Trade::setSensitivity</text>
<text text-anchor="middle" x="149.5" y="-103" font-family="Helvetica,sans-Serif" font-size="10.00">Template</text>
</a>
</g>
</g>
<!-- Node1&#45;&gt;Node15 -->
<g id="edge16" class="edge"><title>Node1&#45;&gt;Node15</title>
<path fill="none" stroke="#63b8ff" d="M21.1023,-245.441C25.3574,-223.022 39.0268,-166.65 73,-136 74.7492,-134.422 76.6007,-132.943 78.5329,-131.557"/>
<polygon fill="#63b8ff" stroke="#63b8ff" points="80.7791,-134.284 87.4563,-126.058 77.1068,-128.325 80.7791,-134.284"/>
</g>
<!-- Node17 -->
<g id="node17" class="node"><title>Node17</title>
<g id="a_node17"><a xlink:href="classore_1_1data_1_1_option_data.html#a77098ad5025357188934116cfc632fd3" target="_top" xlink:title=" ">
<polygon fill="white" stroke="#666666" points="204.5,-78 94.5,-78 94.5,-48 204.5,-48 204.5,-78"/>
<text text-anchor="start" x="102.5" y="-66" font-family="Helvetica,sans-Serif" font-size="10.00">ore::data::OptionData</text>
<text text-anchor="middle" x="149.5" y="-55" font-family="Helvetica,sans-Serif" font-size="10.00">::settlement</text>
</a>
</g>
</g>
<!-- Node1&#45;&gt;Node17 -->
<g id="edge18" class="edge"><title>Node1&#45;&gt;Node17</title>
<path fill="none" stroke="#63b8ff" d="M19.6436,-245.484C20.5955,-217.18 27.3183,-132.658 73,-87 76.5234,-83.4785 80.561,-80.473 84.8969,-77.908"/>
<polygon fill="#63b8ff" stroke="#63b8ff" points="86.7975,-80.8693 94.1465,-73.2376 83.6423,-74.6207 86.7975,-80.8693"/>
</g>
<!-- Node18 -->
<g id="node18" class="node"><title>Node18</title>
<g id="a_node18"><a xlink:href="classore_1_1data_1_1_option_data.html#a214f43b4c6203e3f57aa684235313b08" target="_top" xlink:title=" ">
<polygon fill="white" stroke="#666666" points="204.5,-30 94.5,-30 94.5,-0 204.5,-0 204.5,-30"/>
<text text-anchor="start" x="102.5" y="-18" font-family="Helvetica,sans-Serif" font-size="10.00">ore::data::OptionData</text>
<text text-anchor="middle" x="149.5" y="-7" font-family="Helvetica,sans-Serif" font-size="10.00">::settlementMethod</text>
</a>
</g>
</g>
<!-- Node1&#45;&gt;Node18 -->
<g id="edge19" class="edge"><title>Node1&#45;&gt;Node18</title>
<path fill="none" stroke="#63b8ff" d="M20.6525,-245.227C25.3165,-207.243 43.9425,-70.0098 73,-39 76.5531,-35.2082 80.7019,-32.0128 85.1932,-29.3205"/>
<polygon fill="#63b8ff" stroke="#63b8ff" points="86.8648,-32.3969 94.1857,-24.7383 83.6867,-26.1599 86.8648,-32.3969"/>
</g>
<!-- Node3 -->
<g id="node3" class="node"><title>Node3</title>
<g id="a_node3"><a xlink:href="classore_1_1data_1_1_trade.html#ab639fbec918087212795e8cbf44d2b82" target="_top" xlink:title=" ">
<polygon fill="white" stroke="#666666" points="391.5,-512.5 263.5,-512.5 263.5,-493.5 391.5,-493.5 391.5,-512.5"/>
<text text-anchor="middle" x="327.5" y="-500.5" font-family="Helvetica,sans-Serif" font-size="10.00">ore::data::Trade::envelope</text>
</a>
</g>
</g>
<!-- Node2&#45;&gt;Node3 -->
<g id="edge2" class="edge"><title>Node2&#45;&gt;Node3</title>
<path fill="none" stroke="#63b8ff" d="M180.356,-503C200.356,-503 227.609,-503 253.164,-503"/>
<polygon fill="#63b8ff" stroke="#63b8ff" points="253.23,-506.5 263.23,-503 253.23,-499.5 253.23,-506.5"/>
</g>
<!-- Node7&#45;&gt;Node7 -->
<g id="edge7" class="edge"><title>Node7&#45;&gt;Node7</title>
<path fill="none" stroke="#63b8ff" d="M129.463,-323.583C119.716,-332.234 126.395,-341.5 149.5,-341.5 164.302,-341.5 172.362,-337.697 173.681,-332.689"/>
<polygon fill="#63b8ff" stroke="#63b8ff" points="176.865,-331.235 169.537,-323.583 170.494,-334.134 176.865,-331.235"/>
</g>
<!-- Node8 -->
<g id="node8" class="node"><title>Node8</title>
<g id="a_node8"><a xlink:href="group__utilities.html#gaecd67eda4fb5f4859bb8f6d383547721" target="_top" xlink:title="Convert text to QuantLib::Integer.">
<polygon fill="white" stroke="#666666" points="384.5,-341.5 270.5,-341.5 270.5,-322.5 384.5,-322.5 384.5,-341.5"/>
<text text-anchor="middle" x="327.5" y="-329.5" font-family="Helvetica,sans-Serif" font-size="10.00">ore::data::parseInteger</text>
</a>
</g>
</g>
<!-- Node7&#45;&gt;Node8 -->
<g id="edge8" class="edge"><title>Node7&#45;&gt;Node8</title>
<path fill="none" stroke="#63b8ff" d="M202.354,-319.303C220.489,-321.158 241.104,-323.266 260.252,-325.225"/>
<polygon fill="#63b8ff" stroke="#63b8ff" points="260.108,-328.728 270.412,-326.264 260.82,-321.764 260.108,-328.728"/>
</g>
<!-- Node9 -->
<g id="node9" class="node"><title>Node9</title>
<g id="a_node9"><a xlink:href="namespaceore_1_1data.html#a777e216dee6069b548bb87da7152699e" target="_top" xlink:title=" ">
<polygon fill="white" stroke="#666666" points="367,-304.5 288,-304.5 288,-285.5 367,-285.5 367,-304.5"/>
<text text-anchor="middle" x="327.5" y="-292.5" font-family="Helvetica,sans-Serif" font-size="10.00">ore::data::size</text>
</a>
</g>
</g>
<!-- Node7&#45;&gt;Node9 -->
<g id="edge10" class="edge"><title>Node7&#45;&gt;Node9</title>
<path fill="none" stroke="#63b8ff" d="M202.354,-308.402C226.202,-305.828 254.337,-302.79 277.788,-300.259"/>
<polygon fill="#63b8ff" stroke="#63b8ff" points="278.296,-303.724 287.862,-299.171 277.545,-296.765 278.296,-303.724"/>
</g>
<!-- Node8&#45;&gt;Node8 -->
<g id="edge9" class="edge"><title>Node8&#45;&gt;Node8</title>
<path fill="none" stroke="#63b8ff" d="M300.065,-341.583C286.718,-350.234 295.863,-359.5 327.5,-359.5 348.756,-359.5 359.859,-355.317 360.808,-349.948"/>
<polygon fill="#63b8ff" stroke="#63b8ff" points="363.546,-347.756 354.935,-341.583 357.817,-351.778 363.546,-347.756"/>
</g>
<!-- Node14 -->
<g id="node14" class="node"><title>Node14</title>
<g id="a_node14"><a xlink:href="classore_1_1data_1_1_required_fixings.html#ac8bb3912a3ce86b15842e79d0b421204" target="_top" xlink:title=" ">
<polygon fill="white" stroke="#666666" points="393,-171 262,-171 262,-141 393,-141 393,-171"/>
<text text-anchor="start" x="270" y="-159" font-family="Helvetica,sans-Serif" font-size="10.00">ore::data::RequiredFixings</text>
<text text-anchor="middle" x="327.5" y="-148" font-family="Helvetica,sans-Serif" font-size="10.00">::clear</text>
</a>
</g>
</g>
<!-- Node13&#45;&gt;Node14 -->
<g id="edge15" class="edge"><title>Node13&#45;&gt;Node14</title>
<path fill="none" stroke="#63b8ff" d="M206.188,-154.633C220.589,-154.796 236.331,-154.975 251.541,-155.148"/>
<polygon fill="#63b8ff" stroke="#63b8ff" points="251.924,-158.653 261.963,-155.267 252.004,-151.653 251.924,-158.653"/>
</g>
<!-- Node16 -->
<g id="node16" class="node"><title>Node16</title>
<g id="a_node16"><a xlink:href="classore_1_1data_1_1_engine_builder.html#a9d7654707f3b935dcf6a7b19df70c085" target="_top" xlink:title=" ">
<polygon fill="white" stroke="#666666" points="388,-123 267,-123 267,-93 388,-93 388,-123"/>
<text text-anchor="start" x="275" y="-111" font-family="Helvetica,sans-Serif" font-size="10.00">ore::data::EngineBuilder</text>
<text text-anchor="middle" x="327.5" y="-100" font-family="Helvetica,sans-Serif" font-size="10.00">::engineParameter</text>
</a>
</g>
</g>
<!-- Node15&#45;&gt;Node16 -->
<g id="edge17" class="edge"><title>Node15&#45;&gt;Node16</title>
<path fill="none" stroke="#63b8ff" d="M224.12,-109.745C234.899,-109.561 245.974,-109.373 256.674,-109.19"/>
<polygon fill="#63b8ff" stroke="#63b8ff" points="256.857,-112.688 266.796,-109.018 256.737,-105.689 256.857,-112.688"/>
</g>
</g>
</svg>
