<?xml version="1.0" encoding="UTF-8" standalone="no"?>
<!DOCTYPE svg PUBLIC "-//W3C//DTD SVG 1.1//EN"
 "http://www.w3.org/Graphics/SVG/1.1/DTD/svg11.dtd">
<!-- Generated by graphviz version 2.38.0 (20140413.2041)
 -->
<!-- Title: addCloseOutDates Pages: 1 -->
<svg width="242pt" height="46pt"
 viewBox="0.00 0.00 242.00 46.00" xmlns="http://www.w3.org/2000/svg" xmlns:xlink="http://www.w3.org/1999/xlink">
<g id="graph0" class="graph" transform="scale(1 1) rotate(0) translate(4 42)">
<title>addCloseOutDates</title>
<!-- Node1 -->
<g id="node1" class="node"><title>Node1</title>
<g id="a_node1"><a xlink:title=" ">
<polygon fill="#999999" stroke="#666666" points="98,-19 0,-19 0,-0 98,-0 98,-19"/>
<text text-anchor="middle" x="49" y="-7" font-family="Helvetica,sans-Serif" font-size="10.00">addCloseOutDates</text>
</a>
</g>
</g>
<!-- Node2 -->
<g id="node2" class="node"><title>Node2</title>
<g id="a_node2"><a xlink:href="classore_1_1data_1_1_date_grid.html#aa5af53510557e77a03906c5016ebe66f" target="_top" xlink:title=" ">
<polygon fill="white" stroke="#666666" points="163,-38 134,-38 134,-19 163,-19 163,-38"/>
<text text-anchor="middle" x="148.5" y="-26" font-family="Helvetica,sans-Serif" font-size="10.00">log</text>
</a>
</g>
</g>
<!-- Node1&#45;&gt;Node2 -->
<g id="edge1" class="edge"><title>Node1&#45;&gt;Node2</title>
<path fill="none" stroke="#63b8ff" d="M98.1787,-18.8887C107.048,-20.6171 115.943,-22.3505 123.689,-23.8598"/>
<polygon fill="#63b8ff" stroke="#63b8ff" points="123.265,-27.3431 133.75,-25.8206 124.604,-20.4724 123.265,-27.3431"/>
</g>
<!-- Node3 -->
<g id="node3" class="node"><title>Node3</title>
<g id="a_node3"><a xlink:href="classore_1_1data_1_1_date_grid.html#a48b90275c7bccf5822418ef47bb922ee" target="_top" xlink:title="The size of the date grid.">
<polygon fill="white" stroke="#666666" points="234,-19 199,-19 199,-0 234,-0 234,-19"/>
<text text-anchor="middle" x="216.5" y="-7" font-family="Helvetica,sans-Serif" font-size="10.00">size</text>
</a>
</g>
</g>
<!-- Node1&#45;&gt;Node3 -->
<g id="edge3" class="edge"><title>Node1&#45;&gt;Node3</title>
<path fill="none" stroke="#63b8ff" d="M98.3144,-9.5C127.769,-9.5 164.308,-9.5 188.68,-9.5"/>
<polygon fill="#63b8ff" stroke="#63b8ff" points="188.952,-13.0001 198.952,-9.5 188.952,-6.0001 188.952,-13.0001"/>
</g>
<!-- Node2&#45;&gt;Node3 -->
<g id="edge2" class="edge"><title>Node2&#45;&gt;Node3</title>
<path fill="none" stroke="#63b8ff" d="M163.175,-24.5632C170.557,-22.4382 179.93,-19.7398 188.698,-17.2157"/>
<polygon fill="#63b8ff" stroke="#63b8ff" points="189.915,-20.5075 198.557,-14.3775 187.979,-13.7806 189.915,-20.5075"/>
</g>
</g>
</svg>
