<?xml version="1.0" encoding="UTF-8" standalone="no"?>
<!DOCTYPE svg PUBLIC "-//W3C//DTD SVG 1.1//EN"
 "http://www.w3.org/Graphics/SVG/1.1/DTD/svg11.dtd">
<!-- Generated by graphviz version 2.38.0 (20140413.2041)
 -->
<!-- Title: CommodityPositionData Pages: 1 -->
<svg width="683pt" height="941pt"
 viewBox="0.00 0.00 682.50 941.00" xmlns="http://www.w3.org/2000/svg" xmlns:xlink="http://www.w3.org/1999/xlink">
<g id="graph0" class="graph" transform="scale(1 1) rotate(0) translate(4 937)">
<title>CommodityPositionData</title>
<!-- Node1 -->
<g id="node1" class="node"><title>Node1</title>
<g id="a_node1"><a xlink:title="Serializable Commodity Position Data.">
<polygon fill="#999999" stroke="#666666" points="169,-96 28,-96 28,-0 169,-0 169,-96"/>
<text text-anchor="middle" x="98.5" y="-84" font-family="Helvetica,sans-Serif" font-size="10.00">{CommodityPositionData</text>
<text text-anchor="start" x="36" y="-73" font-family="Helvetica,sans-Serif" font-size="10.00">||+ CommodityPositionData()</text>
<text text-anchor="start" x="36" y="-62" font-family="Helvetica,sans-Serif" font-size="10.00">+ CommodityPositionData()</text>
<text text-anchor="start" x="36" y="-51" font-family="Helvetica,sans-Serif" font-size="10.00">+ quantity()</text>
<text text-anchor="start" x="36" y="-40" font-family="Helvetica,sans-Serif" font-size="10.00">+ underlyings()</text>
<text text-anchor="start" x="36" y="-29" font-family="Helvetica,sans-Serif" font-size="10.00">+ fromXML()</text>
<text text-anchor="start" x="36" y="-18" font-family="Helvetica,sans-Serif" font-size="10.00">+ toXML()</text>
<text text-anchor="middle" x="98.5" y="-7" font-family="Helvetica,sans-Serif" font-size="10.00">}</text>
</a>
</g>
</g>
<!-- Node2 -->
<g id="node2" class="node"><title>Node2</title>
<g id="a_node2"><a xlink:href="classore_1_1data_1_1_x_m_l_serializable.html" target="_top" xlink:title="Base class for all serializable classes.">
<polygon fill="white" stroke="#666666" points="111,-866 0,-866 0,-759 111,-759 111,-866"/>
<text text-anchor="middle" x="55.5" y="-854" font-family="Helvetica,sans-Serif" font-size="10.00">{XMLSerializable</text>
<text text-anchor="start" x="8" y="-843" font-family="Helvetica,sans-Serif" font-size="10.00">||+ ~XMLSerializable()</text>
<text text-anchor="start" x="8" y="-832" font-family="Helvetica,sans-Serif" font-size="10.00">+ fromXML()</text>
<text text-anchor="start" x="8" y="-821" font-family="Helvetica,sans-Serif" font-size="10.00">+ toXML()</text>
<text text-anchor="start" x="8" y="-810" font-family="Helvetica,sans-Serif" font-size="10.00">+ fromFile()</text>
<text text-anchor="start" x="8" y="-799" font-family="Helvetica,sans-Serif" font-size="10.00">+ toFile()</text>
<text text-anchor="start" x="8" y="-788" font-family="Helvetica,sans-Serif" font-size="10.00">+ fromXMLString()</text>
<text text-anchor="start" x="8" y="-777" font-family="Helvetica,sans-Serif" font-size="10.00">+ toXMLString()</text>
<text text-anchor="middle" x="55.5" y="-766" font-family="Helvetica,sans-Serif" font-size="10.00">}</text>
</a>
</g>
</g>
<!-- Node2&#45;&gt;Node1 -->
<g id="edge1" class="edge"><title>Node2&#45;&gt;Node1</title>
<path fill="none" stroke="#63b8ff" d="M54.3749,-748.538C53.5235,-695.468 52.5,-617.52 52.5,-549.5 52.5,-549.5 52.5,-549.5 52.5,-162.5 52.5,-139.644 60.6114,-115.969 70.0219,-96.1939"/>
<polygon fill="none" stroke="#63b8ff" points="50.8797,-748.869 54.5425,-758.81 57.8788,-748.754 50.8797,-748.869"/>
</g>
<!-- Node6 -->
<g id="node6" class="node"><title>Node6</title>
<g id="a_node6"><a xlink:href="classore_1_1data_1_1_underlying.html" target="_top" xlink:title="Class to hold Underlyings.">
<polygon fill="white" stroke="#666666" points="303.5,-668 139.5,-668 139.5,-429 303.5,-429 303.5,-668"/>
<text text-anchor="middle" x="221.5" y="-656" font-family="Helvetica,sans-Serif" font-size="10.00">{Underlying</text>
<text text-anchor="start" x="147.5" y="-645" font-family="Helvetica,sans-Serif" font-size="10.00">||+ Underlying()</text>
<text text-anchor="start" x="147.5" y="-634" font-family="Helvetica,sans-Serif" font-size="10.00">+ Underlying()</text>
<text text-anchor="start" x="147.5" y="-623" font-family="Helvetica,sans-Serif" font-size="10.00">+ fromXML()</text>
<text text-anchor="start" x="147.5" y="-612" font-family="Helvetica,sans-Serif" font-size="10.00">+ toXML()</text>
<text text-anchor="start" x="147.5" y="-601" font-family="Helvetica,sans-Serif" font-size="10.00">+ setType()</text>
<text text-anchor="start" x="147.5" y="-590" font-family="Helvetica,sans-Serif" font-size="10.00">+ setName()</text>
<text text-anchor="start" x="147.5" y="-579" font-family="Helvetica,sans-Serif" font-size="10.00">+ setWeight()</text>
<text text-anchor="start" x="147.5" y="-568" font-family="Helvetica,sans-Serif" font-size="10.00">+ setNodeName()</text>
<text text-anchor="start" x="147.5" y="-557" font-family="Helvetica,sans-Serif" font-size="10.00">+ setBasicUnderlyingNodeName()</text>
<text text-anchor="start" x="147.5" y="-546" font-family="Helvetica,sans-Serif" font-size="10.00">* type()</text>
<text text-anchor="start" x="147.5" y="-535" font-family="Helvetica,sans-Serif" font-size="10.00">* name()</text>
<text text-anchor="start" x="147.5" y="-524" font-family="Helvetica,sans-Serif" font-size="10.00">* weight()</text>
<text text-anchor="start" x="147.5" y="-513" font-family="Helvetica,sans-Serif" font-size="10.00">* fromXML()</text>
<text text-anchor="start" x="147.5" y="-502" font-family="Helvetica,sans-Serif" font-size="10.00">* toXML()</text>
<text text-anchor="start" x="147.5" y="-491" font-family="Helvetica,sans-Serif" font-size="10.00">* setType()</text>
<text text-anchor="start" x="147.5" y="-480" font-family="Helvetica,sans-Serif" font-size="10.00">* setName()</text>
<text text-anchor="start" x="147.5" y="-469" font-family="Helvetica,sans-Serif" font-size="10.00">* setWeight()</text>
<text text-anchor="start" x="147.5" y="-458" font-family="Helvetica,sans-Serif" font-size="10.00">* setNodeName()</text>
<text text-anchor="start" x="147.5" y="-447" font-family="Helvetica,sans-Serif" font-size="10.00">* setBasicUnderlyingNodeName()</text>
<text text-anchor="middle" x="221.5" y="-436" font-family="Helvetica,sans-Serif" font-size="10.00">}</text>
</a>
</g>
</g>
<!-- Node2&#45;&gt;Node6 -->
<g id="edge6" class="edge"><title>Node2&#45;&gt;Node6</title>
<path fill="none" stroke="#63b8ff" d="M94.2687,-750.311C109.828,-725.753 128.317,-696.571 146.312,-668.17"/>
<polygon fill="none" stroke="#63b8ff" points="91.2885,-748.475 88.8929,-758.796 97.2015,-752.222 91.2885,-748.475"/>
</g>
<!-- Node3 -->
<g id="node3" class="node"><title>Node3</title>
<g id="a_node3"><a xlink:title=" ">
<polygon fill="white" stroke="#666666" points="173,-827.5 134,-827.5 134,-797.5 173,-797.5 173,-827.5"/>
<text text-anchor="middle" x="153.5" y="-815.5" font-family="Helvetica,sans-Serif" font-size="10.00">{Real</text>
<text text-anchor="middle" x="153.5" y="-804.5" font-family="Helvetica,sans-Serif" font-size="10.00">||}</text>
</a>
</g>
</g>
<!-- Node3&#45;&gt;Node1 -->
<g id="edge2" class="edge"><title>Node3&#45;&gt;Node1</title>
<path fill="none" stroke="#404040" d="M148.326,-797.236C134.634,-758.172 98.5,-645.941 98.5,-549.5 98.5,-549.5 98.5,-549.5 98.5,-162.5 98.5,-144.894 98.5,-125.751 98.5,-108.29"/>
<polygon fill="none" stroke="#404040" points="98.5001,-108.215 94.5,-102.215 98.5,-96.2147 102.5,-102.215 98.5001,-108.215"/>
<text text-anchor="middle" x="121.5" y="-298.5" font-family="Helvetica,sans-Serif" font-size="10.00"> &#45;quantity_</text>
</g>
<!-- Node3&#45;&gt;Node6 -->
<g id="edge9" class="edge"><title>Node3&#45;&gt;Node6</title>
<path fill="none" stroke="#404040" d="M155.258,-797.425C158.335,-774.056 165.349,-725.872 175.5,-686 176.009,-684.001 176.533,-681.988 177.07,-679.966"/>
<polygon fill="none" stroke="#404040" points="177.098,-679.864 174.836,-673.018 180.285,-668.295 182.548,-675.142 177.098,-679.864"/>
<text text-anchor="middle" x="196.5" y="-711" font-family="Helvetica,sans-Serif" font-size="10.00"> #weight_</text>
</g>
<!-- Node4 -->
<g id="node4" class="node"><title>Node4</title>
<g id="a_node4"><a xlink:title=" ">
<polygon fill="white" stroke="#666666" points="492,-184 371,-184 371,-143 492,-143 492,-184"/>
<text text-anchor="start" x="379" y="-172" font-family="Helvetica,sans-Serif" font-size="10.00">{vector&lt; ore::data::</text>
<text text-anchor="middle" x="431.5" y="-161" font-family="Helvetica,sans-Serif" font-size="10.00">CommodityUnderlying &gt;</text>
<text text-anchor="middle" x="431.5" y="-150" font-family="Helvetica,sans-Serif" font-size="10.00">||}</text>
</a>
</g>
</g>
<!-- Node4&#45;&gt;Node1 -->
<g id="edge3" class="edge"><title>Node4&#45;&gt;Node1</title>
<path fill="none" stroke="#404040" d="M374.255,-142.989C320.885,-124.798 240.701,-97.4679 180.534,-76.9606"/>
<polygon fill="none" stroke="#404040" points="180.521,-76.9563 173.552,-78.8067 169.163,-73.0848 176.133,-71.2344 180.521,-76.9563"/>
<text text-anchor="middle" x="345" y="-117" font-family="Helvetica,sans-Serif" font-size="10.00"> &#45;underlyings_</text>
</g>
<!-- Node5 -->
<g id="node5" class="node"><title>Node5</title>
<g id="a_node5"><a xlink:href="classore_1_1data_1_1_commodity_underlying.html" target="_top" xlink:title=" ">
<polygon fill="white" stroke="#666666" points="497,-371 366,-371 366,-231 497,-231 497,-371"/>
<text text-anchor="middle" x="431.5" y="-359" font-family="Helvetica,sans-Serif" font-size="10.00">{CommodityUnderlying</text>
<text text-anchor="start" x="374" y="-348" font-family="Helvetica,sans-Serif" font-size="10.00">||+ CommodityUnderlying()</text>
<text text-anchor="start" x="374" y="-337" font-family="Helvetica,sans-Serif" font-size="10.00">+ CommodityUnderlying()</text>
<text text-anchor="start" x="374" y="-326" font-family="Helvetica,sans-Serif" font-size="10.00">+ priceType()</text>
<text text-anchor="start" x="374" y="-315" font-family="Helvetica,sans-Serif" font-size="10.00">+ futureMonthOffset()</text>
<text text-anchor="start" x="374" y="-304" font-family="Helvetica,sans-Serif" font-size="10.00">+ deliveryRollDays()</text>
<text text-anchor="start" x="374" y="-293" font-family="Helvetica,sans-Serif" font-size="10.00">+ deliveryRollCalendar()</text>
<text text-anchor="start" x="374" y="-282" font-family="Helvetica,sans-Serif" font-size="10.00">+ futureContractMonth()</text>
<text text-anchor="start" x="374" y="-271" font-family="Helvetica,sans-Serif" font-size="10.00">+ futureExpiryDate()</text>
<text text-anchor="start" x="374" y="-260" font-family="Helvetica,sans-Serif" font-size="10.00">* fromXML()</text>
<text text-anchor="start" x="374" y="-249" font-family="Helvetica,sans-Serif" font-size="10.00">* toXML()</text>
<text text-anchor="middle" x="431.5" y="-238" font-family="Helvetica,sans-Serif" font-size="10.00">}</text>
</a>
</g>
</g>
<!-- Node5&#45;&gt;Node4 -->
<g id="edge4" class="edge"><title>Node5&#45;&gt;Node4</title>
<path fill="none" stroke="#404040" d="M431.5,-230.662C431.5,-218.667 431.5,-206.739 431.5,-196.382"/>
<polygon fill="none" stroke="#404040" points="431.5,-196.216 427.5,-190.216 431.5,-184.216 435.5,-190.216 431.5,-196.216"/>
<text text-anchor="middle" x="456" y="-205" font-family="Helvetica,sans-Serif" font-size="10.00"> +elements</text>
</g>
<!-- Node6&#45;&gt;Node5 -->
<g id="edge5" class="edge"><title>Node6&#45;&gt;Node5</title>
<path fill="none" stroke="#63b8ff" d="M310.34,-443.642C331.226,-419.225 352.986,-393.787 372.207,-371.317"/>
<polygon fill="none" stroke="#63b8ff" points="307.434,-441.654 303.594,-451.529 312.754,-446.204 307.434,-441.654"/>
</g>
<!-- Node7 -->
<g id="node7" class="node"><title>Node7</title>
<g id="a_node7"><a xlink:title=" ">
<polygon fill="white" stroke="#666666" points="382.5,-827.5 338.5,-827.5 338.5,-797.5 382.5,-797.5 382.5,-827.5"/>
<text text-anchor="middle" x="360.5" y="-815.5" font-family="Helvetica,sans-Serif" font-size="10.00">{string</text>
<text text-anchor="middle" x="360.5" y="-804.5" font-family="Helvetica,sans-Serif" font-size="10.00">||}</text>
</a>
</g>
</g>
<!-- Node7&#45;&gt;Node5 -->
<g id="edge11" class="edge"><title>Node7&#45;&gt;Node5</title>
<path fill="none" stroke="#404040" d="M376.682,-797.408C390.388,-784.346 409.109,-763.573 417.5,-741 441.036,-677.683 438.7,-491.738 435.03,-383.228"/>
<polygon fill="none" stroke="#404040" points="435.023,-383.032 430.815,-377.176 434.601,-371.039 438.81,-376.895 435.023,-383.032"/>
<text text-anchor="start" x="436.5" y="-579" font-family="Helvetica,sans-Serif" font-size="10.00"> &#45;deliveryRollCalendar</text>
<text text-anchor="middle" x="483.5" y="-568" font-family="Helvetica,sans-Serif" font-size="10.00">_</text>
<text text-anchor="start" x="436.5" y="-557" font-family="Helvetica,sans-Serif" font-size="10.00">&#45;futureContractMonth</text>
<text text-anchor="middle" x="483.5" y="-546" font-family="Helvetica,sans-Serif" font-size="10.00">_</text>
<text text-anchor="start" x="436.5" y="-535" font-family="Helvetica,sans-Serif" font-size="10.00">&#45;futureExpiryDate</text>
<text text-anchor="middle" x="483.5" y="-524" font-family="Helvetica,sans-Serif" font-size="10.00">_</text>
<text text-anchor="middle" x="483.5" y="-513" font-family="Helvetica,sans-Serif" font-size="10.00">&#45;priceType_</text>
</g>
<!-- Node7&#45;&gt;Node6 -->
<g id="edge7" class="edge"><title>Node7&#45;&gt;Node6</title>
<path fill="none" stroke="#404040" d="M343.066,-797.468C327.679,-784.291 305.567,-763.31 291.5,-741 287.325,-734.379 277.679,-709.472 266.841,-679.707"/>
<polygon fill="none" stroke="#404040" points="266.72,-679.373 260.917,-675.092 262.637,-668.089 268.44,-672.37 266.72,-679.373"/>
<text text-anchor="start" x="291.5" y="-733" font-family="Helvetica,sans-Serif" font-size="10.00"> #basicUnderlyingNodeName</text>
<text text-anchor="middle" x="354.5" y="-722" font-family="Helvetica,sans-Serif" font-size="10.00">_</text>
<text text-anchor="middle" x="354.5" y="-711" font-family="Helvetica,sans-Serif" font-size="10.00">#name_</text>
<text text-anchor="middle" x="354.5" y="-700" font-family="Helvetica,sans-Serif" font-size="10.00">#nodeName_</text>
<text text-anchor="middle" x="354.5" y="-689" font-family="Helvetica,sans-Serif" font-size="10.00">#type_</text>
</g>
<!-- Node8 -->
<g id="node8" class="node"><title>Node8</title>
<g id="a_node8"><a xlink:title=" ">
<polygon fill="white" stroke="#666666" points="415.5,-933 305.5,-933 305.5,-903 415.5,-903 415.5,-933"/>
<text text-anchor="middle" x="360.5" y="-921" font-family="Helvetica,sans-Serif" font-size="10.00">{basic_string&lt; Char &gt;</text>
<text text-anchor="middle" x="360.5" y="-910" font-family="Helvetica,sans-Serif" font-size="10.00">||}</text>
</a>
</g>
</g>
<!-- Node8&#45;&gt;Node7 -->
<g id="edge8" class="edge"><title>Node8&#45;&gt;Node7</title>
<path fill="none" stroke="#63b8ff" d="M360.5,-892.597C360.5,-872.425 360.5,-844.476 360.5,-827.769"/>
<polygon fill="none" stroke="#63b8ff" points="357,-892.609 360.5,-902.609 364,-892.609 357,-892.609"/>
</g>
<!-- Node9 -->
<g id="node9" class="node"><title>Node9</title>
<g id="a_node9"><a xlink:href="classbool.html" target="_top" xlink:title=" ">
<polygon fill="white" stroke="#666666" points="240.5,-827.5 202.5,-827.5 202.5,-797.5 240.5,-797.5 240.5,-827.5"/>
<text text-anchor="middle" x="221.5" y="-815.5" font-family="Helvetica,sans-Serif" font-size="10.00">{bool</text>
<text text-anchor="middle" x="221.5" y="-804.5" font-family="Helvetica,sans-Serif" font-size="10.00">||}</text>
</a>
</g>
</g>
<!-- Node9&#45;&gt;Node6 -->
<g id="edge10" class="edge"><title>Node9&#45;&gt;Node6</title>
<path fill="none" stroke="#404040" d="M221.5,-797.414C221.5,-774.632 221.5,-727.476 221.5,-680.346"/>
<polygon fill="none" stroke="#404040" points="221.5,-680.056 217.5,-674.056 221.5,-668.056 225.5,-674.056 221.5,-680.056"/>
<text text-anchor="middle" x="244.5" y="-711" font-family="Helvetica,sans-Serif" font-size="10.00"> #isBasic_</text>
</g>
<!-- Node10 -->
<g id="node10" class="node"><title>Node10</title>
<g id="a_node10"><a xlink:title=" ">
<polygon fill="white" stroke="#666666" points="583,-563.5 544,-563.5 544,-533.5 583,-533.5 583,-563.5"/>
<text text-anchor="middle" x="563.5" y="-551.5" font-family="Helvetica,sans-Serif" font-size="10.00">{Size</text>
<text text-anchor="middle" x="563.5" y="-540.5" font-family="Helvetica,sans-Serif" font-size="10.00">||}</text>
</a>
</g>
</g>
<!-- Node10&#45;&gt;Node5 -->
<g id="edge12" class="edge"><title>Node10&#45;&gt;Node5</title>
<path fill="none" stroke="#404040" d="M561.229,-533.364C557.17,-510.483 547.373,-464.332 529.5,-429 521.199,-412.589 510.659,-396.195 499.589,-380.9"/>
<polygon fill="none" stroke="#404040" points="499.407,-380.654 492.619,-378.22 492.255,-371.018 499.043,-373.453 499.407,-380.654"/>
<text text-anchor="middle" x="561" y="-403" font-family="Helvetica,sans-Serif" font-size="10.00"> &#45;deliveryRollDays_</text>
<text text-anchor="middle" x="561" y="-392" font-family="Helvetica,sans-Serif" font-size="10.00">&#45;futureMonthOffset_</text>
</g>
<!-- Node11 -->
<g id="node11" class="node"><title>Node11</title>
<g id="a_node11"><a xlink:title=" ">
<polygon fill="white" stroke="#666666" points="630.5,-316 562.5,-316 562.5,-286 630.5,-286 630.5,-316"/>
<text text-anchor="middle" x="596.5" y="-304" font-family="Helvetica,sans-Serif" font-size="10.00">{vector&lt; T &gt;</text>
<text text-anchor="middle" x="596.5" y="-293" font-family="Helvetica,sans-Serif" font-size="10.00">||}</text>
</a>
</g>
</g>
<!-- Node11&#45;&gt;Node4 -->
<g id="edge13" class="edge"><title>Node11&#45;&gt;Node4</title>
<path fill="none" stroke="orange" d="M573.773,-278.879C551.554,-258.53 516.493,-227.206 484.5,-202 476.797,-195.931 468.209,-189.656 460.226,-184.016"/>
<polygon fill="orange" stroke="orange" points="571.619,-281.653 581.348,-285.848 576.358,-276.502 571.619,-281.653"/>
<text text-anchor="middle" x="577" y="-205" font-family="Helvetica,sans-Serif" font-size="10.00"> &lt; ore::data::CommodityUnderlying &gt;</text>
</g>
<!-- Node12 -->
<g id="node12" class="node"><title>Node12</title>
<g id="a_node12"><a xlink:title=" ">
<polygon fill="white" stroke="#666666" points="658,-563.5 629,-563.5 629,-533.5 658,-533.5 658,-563.5"/>
<text text-anchor="middle" x="643.5" y="-551.5" font-family="Helvetica,sans-Serif" font-size="10.00">{T</text>
<text text-anchor="middle" x="643.5" y="-540.5" font-family="Helvetica,sans-Serif" font-size="10.00">||}</text>
</a>
</g>
</g>
<!-- Node12&#45;&gt;Node11 -->
<g id="edge14" class="edge"><title>Node12&#45;&gt;Node11</title>
<path fill="none" stroke="#404040" d="M642.22,-533.39C639.547,-505.562 632.675,-441.724 621.5,-389 617.064,-368.071 610.276,-344.799 604.893,-327.594"/>
<polygon fill="none" stroke="#404040" points="604.844,-327.441 599.208,-322.942 601.193,-316.01 606.829,-320.508 604.844,-327.441"/>
<text text-anchor="middle" x="650" y="-397.5" font-family="Helvetica,sans-Serif" font-size="10.00"> +elements</text>
</g>
</g>
</svg>
