<?xml version="1.0" encoding="UTF-8" standalone="no"?>
<!DOCTYPE svg PUBLIC "-//W3C//DTD SVG 1.1//EN"
 "http://www.w3.org/Graphics/SVG/1.1/DTD/svg11.dtd">
<!-- Generated by graphviz version 2.38.0 (20140413.2041)
 -->
<!-- Title: toXML Pages: 1 -->
<!--zoomable 566 -->
<svg id="main" version="1.1" xmlns="http://www.w3.org/2000/svg" xmlns:xlink="http://www.w3.org/1999/xlink" xml:space="preserve" onload="init(evt)">
<style type="text/css"><![CDATA[
.edge:hover path { stroke: red; }
.edge:hover polygon { stroke: red; fill: red; }
]]></style>
<script type="text/javascript"><![CDATA[
var edges = document.getElementsByTagName('g');
if (edges && edges.length) {
  for (var i=0;i<edges.length;i++) {
    if (edges[i].id.substr(0,4)=='edge') {
      edges[i].setAttribute('class','edge');
    }
  }
}
]]></script>
        <defs>
                <circle id="rim" cx="0" cy="0" r="7"/>
                <circle id="rim2" cx="0" cy="0" r="3.5"/>
                <g id="zoomPlus">
                        <use xlink:href="#rim" fill="#404040">
                                <set attributeName="fill" to="#808080" begin="zoomplus.mouseover" end="zoomplus.mouseout"/>
                        </use>
                        <path d="M-4,0h8M0,-4v8" fill="none" stroke="white" stroke-width="1.5" pointer-events="none"/>
                </g>
                <g id="zoomMin">
                        <use xlink:href="#rim" fill="#404040">
                                <set attributeName="fill" to="#808080" begin="zoomminus.mouseover" end="zoomminus.mouseout"/>
                        </use>
                        <path d="M-4,0h8" fill="none" stroke="white" stroke-width="1.5" pointer-events="none"/>
                </g>
                <g id="dirArrow">
                        <path fill="none" stroke="white" stroke-width="1.5" d="M0,-3.0v7 M-2.5,-0.5L0,-3.0L2.5,-0.5"/>
                </g>
               <g id="resetDef">
                       <use xlink:href="#rim2" fill="#404040">
                               <set attributeName="fill" to="#808080" begin="reset.mouseover" end="reset.mouseout"/>
                       </use>
               </g>
        </defs>

<script type="text/javascript">
var viewWidth = 410;
var viewHeight = 566;
var sectionId = 'dynsection-6';
</script>
<script xlink:href="svgpan.js"/>
<svg id="graph" class="graph">
<g id="viewport">
<title>toXML</title>
<!-- Node1 -->
<g id="node1" class="node"><title>Node1</title>
<g id="a_node1"><a xlink:title=" ">
<polygon fill="#999999" stroke="#666666" points="402,-288.5 358,-288.5 358,-269.5 402,-269.5 402,-288.5"/>
<text text-anchor="middle" x="380" y="-276.5" font-family="Helvetica,sans-Serif" font-size="10.00">toXML</text>
</a>
</g>
</g>
<!-- Node2 -->
<g id="node2" class="node"><title>Node2</title>
<g id="a_node2"><a xlink:href="classore_1_1data_1_1_direct_yield_curve_segment.html#a0881d80390ae17ef0094dcd8c91c4936" target="_top" xlink:title=" ">
<polygon fill="white" stroke="#666666" points="316.5,-558 184.5,-558 184.5,-528 316.5,-528 316.5,-558"/>
<text text-anchor="start" x="192.5" y="-546" font-family="Helvetica,sans-Serif" font-size="10.00">ore::data::DirectYieldCurve</text>
<text text-anchor="middle" x="250.5" y="-535" font-family="Helvetica,sans-Serif" font-size="10.00">Segment::toXML</text>
</a>
</g>
</g>
<!-- Node1&#45;&gt;Node2 -->
<g id="edge1" class="edge"><title>Node1&#45;&gt;Node2</title>
<path fill="none" stroke="#63b8ff" d="M376.758,-298.862C370.572,-350.332 351.732,-486.302 322,-519 318.869,-522.444 315.224,-525.394 311.272,-527.92"/>
<polygon fill="#63b8ff" stroke="#63b8ff" points="380.259,-299.053 377.943,-288.715 373.306,-298.241 380.259,-299.053"/>
</g>
<!-- Node3 -->
<g id="node3" class="node"><title>Node3</title>
<g id="a_node3"><a xlink:href="classore_1_1data_1_1_simple_yield_curve_segment.html#a0881d80390ae17ef0094dcd8c91c4936" target="_top" xlink:title=" ">
<polygon fill="white" stroke="#666666" points="319,-510 182,-510 182,-480 319,-480 319,-510"/>
<text text-anchor="start" x="190" y="-498" font-family="Helvetica,sans-Serif" font-size="10.00">ore::data::SimpleYieldCurve</text>
<text text-anchor="middle" x="250.5" y="-487" font-family="Helvetica,sans-Serif" font-size="10.00">Segment::toXML</text>
</a>
</g>
</g>
<!-- Node1&#45;&gt;Node3 -->
<g id="edge2" class="edge"><title>Node1&#45;&gt;Node3</title>
<path fill="none" stroke="#63b8ff" d="M378.793,-299.352C377.29,-338.032 368.513,-422.611 322,-471 318.685,-474.449 314.855,-477.402 310.729,-479.931"/>
<polygon fill="#63b8ff" stroke="#63b8ff" points="382.303,-298.998 379.06,-288.912 375.305,-298.819 382.303,-298.998"/>
</g>
<!-- Node4 -->
<g id="node4" class="node"><title>Node4</title>
<g id="a_node4"><a xlink:href="classore_1_1data_1_1_average_o_i_s_yield_curve_segment.html#a0881d80390ae17ef0094dcd8c91c4936" target="_top" xlink:title=" ">
<polygon fill="white" stroke="#666666" points="317.5,-462 183.5,-462 183.5,-432 317.5,-432 317.5,-462"/>
<text text-anchor="start" x="191.5" y="-450" font-family="Helvetica,sans-Serif" font-size="10.00">ore::data::AverageOISYield</text>
<text text-anchor="middle" x="250.5" y="-439" font-family="Helvetica,sans-Serif" font-size="10.00">CurveSegment::toXML</text>
</a>
</g>
</g>
<!-- Node1&#45;&gt;Node4 -->
<g id="edge3" class="edge"><title>Node1&#45;&gt;Node4</title>
<path fill="none" stroke="#63b8ff" d="M376.54,-298.488C371.652,-329.185 357.895,-388.815 322,-423 318.349,-426.478 314.173,-429.452 309.719,-431.997"/>
<polygon fill="#63b8ff" stroke="#63b8ff" points="380.005,-298.985 377.964,-288.589 373.076,-297.988 380.005,-298.985"/>
</g>
<!-- Node5 -->
<g id="node5" class="node"><title>Node5</title>
<g id="a_node5"><a xlink:href="classore_1_1data_1_1_tenor_basis_yield_curve_segment.html#a0881d80390ae17ef0094dcd8c91c4936" target="_top" xlink:title=" ">
<polygon fill="white" stroke="#666666" points="316,-414 185,-414 185,-384 316,-384 316,-414"/>
<text text-anchor="start" x="193" y="-402" font-family="Helvetica,sans-Serif" font-size="10.00">ore::data::TenorBasisYield</text>
<text text-anchor="middle" x="250.5" y="-391" font-family="Helvetica,sans-Serif" font-size="10.00">CurveSegment::toXML</text>
</a>
</g>
</g>
<!-- Node1&#45;&gt;Node5 -->
<g id="edge4" class="edge"><title>Node1&#45;&gt;Node5</title>
<path fill="none" stroke="#63b8ff" d="M372.325,-298.123C363.85,-319.727 347.225,-354.536 322,-375 317.783,-378.421 313.052,-381.366 308.089,-383.898"/>
<polygon fill="#63b8ff" stroke="#63b8ff" points="375.625,-299.291 375.833,-288.698 369.065,-296.849 375.625,-299.291"/>
</g>
<!-- Node6 -->
<g id="node6" class="node"><title>Node6</title>
<g id="a_node6"><a xlink:href="classore_1_1data_1_1_cross_ccy_yield_curve_segment.html#a0881d80390ae17ef0094dcd8c91c4936" target="_top" xlink:title=" ">
<polygon fill="white" stroke="#666666" points="313,-366 188,-366 188,-336 313,-336 313,-366"/>
<text text-anchor="start" x="196" y="-354" font-family="Helvetica,sans-Serif" font-size="10.00">ore::data::CrossCcyYield</text>
<text text-anchor="middle" x="250.5" y="-343" font-family="Helvetica,sans-Serif" font-size="10.00">CurveSegment::toXML</text>
</a>
</g>
</g>
<!-- Node1&#45;&gt;Node6 -->
<g id="edge5" class="edge"><title>Node1&#45;&gt;Node6</title>
<path fill="none" stroke="#63b8ff" d="M362.371,-295.901C351.623,-306.051 336.902,-318.586 322,-327 316.145,-330.306 309.761,-333.259 303.302,-335.866"/>
<polygon fill="#63b8ff" stroke="#63b8ff" points="365.031,-298.196 369.753,-288.711 360.147,-293.181 365.031,-298.196"/>
</g>
<!-- Node7 -->
<g id="node7" class="node"><title>Node7</title>
<g id="a_node7"><a xlink:href="classore_1_1data_1_1_zero_spreaded_yield_curve_segment.html#a0881d80390ae17ef0094dcd8c91c4936" target="_top" xlink:title=" ">
<polygon fill="white" stroke="#666666" points="322,-318 179,-318 179,-288 322,-288 322,-318"/>
<text text-anchor="start" x="187" y="-306" font-family="Helvetica,sans-Serif" font-size="10.00">ore::data::ZeroSpreadedYield</text>
<text text-anchor="middle" x="250.5" y="-295" font-family="Helvetica,sans-Serif" font-size="10.00">CurveSegment::toXML</text>
</a>
</g>
</g>
<!-- Node1&#45;&gt;Node7 -->
<g id="edge6" class="edge"><title>Node1&#45;&gt;Node7</title>
<path fill="none" stroke="#63b8ff" d="M348.1,-284.817C340.151,-286.313 331.265,-287.985 322.189,-289.694"/>
<polygon fill="#63b8ff" stroke="#63b8ff" points="348.766,-288.253 357.946,-282.963 347.471,-281.373 348.766,-288.253"/>
</g>
<!-- Node8 -->
<g id="node8" class="node"><title>Node8</title>
<g id="a_node8"><a xlink:href="classore_1_1data_1_1_weighted_average_yield_curve_segment.html#a0881d80390ae17ef0094dcd8c91c4936" target="_top" xlink:title=" ">
<polygon fill="white" stroke="#666666" points="319,-270 182,-270 182,-240 319,-240 319,-270"/>
<text text-anchor="start" x="190" y="-258" font-family="Helvetica,sans-Serif" font-size="10.00">ore::data::WeightedAverage</text>
<text text-anchor="middle" x="250.5" y="-247" font-family="Helvetica,sans-Serif" font-size="10.00">YieldCurveSegment::toXML</text>
</a>
</g>
</g>
<!-- Node1&#45;&gt;Node8 -->
<g id="edge7" class="edge"><title>Node1&#45;&gt;Node8</title>
<path fill="none" stroke="#63b8ff" d="M347.867,-273.14C339.09,-271.488 329.185,-269.623 319.15,-267.734"/>
<polygon fill="#63b8ff" stroke="#63b8ff" points="347.471,-276.627 357.946,-275.037 348.766,-269.747 347.471,-276.627"/>
</g>
<!-- Node9 -->
<g id="node9" class="node"><title>Node9</title>
<g id="a_node9"><a xlink:href="classore_1_1data_1_1_yield_plus_default_yield_curve_segment.html#a0881d80390ae17ef0094dcd8c91c4936" target="_top" xlink:title=" ">
<polygon fill="white" stroke="#666666" points="317.5,-222 183.5,-222 183.5,-192 317.5,-192 317.5,-222"/>
<text text-anchor="start" x="191.5" y="-210" font-family="Helvetica,sans-Serif" font-size="10.00">ore::data::YieldPlusDefault</text>
<text text-anchor="middle" x="250.5" y="-199" font-family="Helvetica,sans-Serif" font-size="10.00">YieldCurveSegment::toXML</text>
</a>
</g>
</g>
<!-- Node1&#45;&gt;Node9 -->
<g id="edge8" class="edge"><title>Node1&#45;&gt;Node9</title>
<path fill="none" stroke="#63b8ff" d="M362.371,-262.099C351.623,-251.949 336.902,-239.414 322,-231 316.145,-227.694 309.761,-224.741 303.302,-222.134"/>
<polygon fill="#63b8ff" stroke="#63b8ff" points="360.147,-264.819 369.753,-269.289 365.031,-259.804 360.147,-264.819"/>
</g>
<!-- Node10 -->
<g id="node10" class="node"><title>Node10</title>
<g id="a_node10"><a xlink:href="classore_1_1data_1_1_discount_ratio_yield_curve_segment.html#a0881d80390ae17ef0094dcd8c91c4936" target="_top" xlink:title=" ">
<polygon fill="white" stroke="#666666" points="317.5,-174 183.5,-174 183.5,-144 317.5,-144 317.5,-174"/>
<text text-anchor="start" x="191.5" y="-162" font-family="Helvetica,sans-Serif" font-size="10.00">ore::data::DiscountRatio</text>
<text text-anchor="middle" x="250.5" y="-151" font-family="Helvetica,sans-Serif" font-size="10.00">YieldCurveSegment::toXML</text>
</a>
</g>
</g>
<!-- Node1&#45;&gt;Node10 -->
<g id="edge9" class="edge"><title>Node1&#45;&gt;Node10</title>
<path fill="none" stroke="#63b8ff" d="M372.325,-259.877C363.85,-238.273 347.225,-203.464 322,-183 317.783,-179.579 313.052,-176.634 308.089,-174.102"/>
<polygon fill="#63b8ff" stroke="#63b8ff" points="369.065,-261.151 375.833,-269.302 375.625,-258.709 369.065,-261.151"/>
</g>
<!-- Node12 -->
<g id="node12" class="node"><title>Node12</title>
<g id="a_node12"><a xlink:href="classore_1_1data_1_1_fitted_bond_yield_curve_segment.html#a0881d80390ae17ef0094dcd8c91c4936" target="_top" xlink:title=" ">
<polygon fill="white" stroke="#666666" points="315.5,-126 185.5,-126 185.5,-96 315.5,-96 315.5,-126"/>
<text text-anchor="start" x="193.5" y="-114" font-family="Helvetica,sans-Serif" font-size="10.00">ore::data::FittedBondYield</text>
<text text-anchor="middle" x="250.5" y="-103" font-family="Helvetica,sans-Serif" font-size="10.00">CurveSegment::toXML</text>
</a>
</g>
</g>
<!-- Node1&#45;&gt;Node12 -->
<g id="edge11" class="edge"><title>Node1&#45;&gt;Node12</title>
<path fill="none" stroke="#63b8ff" d="M376.54,-259.512C371.652,-228.815 357.895,-169.185 322,-135 318.349,-131.522 314.173,-128.548 309.719,-126.003"/>
<polygon fill="#63b8ff" stroke="#63b8ff" points="373.076,-260.012 377.964,-269.411 380.005,-259.015 373.076,-260.012"/>
</g>
<!-- Node13 -->
<g id="node13" class="node"><title>Node13</title>
<g id="a_node13"><a xlink:href="classore_1_1data_1_1_ibor_fallback_curve_segment.html#a0881d80390ae17ef0094dcd8c91c4936" target="_top" xlink:title=" ">
<polygon fill="white" stroke="#666666" points="319,-78 182,-78 182,-48 319,-48 319,-78"/>
<text text-anchor="start" x="190" y="-66" font-family="Helvetica,sans-Serif" font-size="10.00">ore::data::IborFallbackCurve</text>
<text text-anchor="middle" x="250.5" y="-55" font-family="Helvetica,sans-Serif" font-size="10.00">Segment::toXML</text>
</a>
</g>
</g>
<!-- Node1&#45;&gt;Node13 -->
<g id="edge12" class="edge"><title>Node1&#45;&gt;Node13</title>
<path fill="none" stroke="#63b8ff" d="M378.793,-258.648C377.29,-219.968 368.513,-135.389 322,-87 318.685,-83.5511 314.855,-80.5978 310.729,-78.0689"/>
<polygon fill="#63b8ff" stroke="#63b8ff" points="375.305,-259.181 379.06,-269.088 382.303,-259.002 375.305,-259.181"/>
</g>
<!-- Node14 -->
<g id="node14" class="node"><title>Node14</title>
<g id="a_node14"><a xlink:href="classore_1_1data_1_1_bond_yield_shifted_yield_curve_segment.html#a0881d80390ae17ef0094dcd8c91c4936" target="_top" xlink:title=" ">
<polygon fill="white" stroke="#666666" points="318,-30 183,-30 183,-0 318,-0 318,-30"/>
<text text-anchor="start" x="191" y="-18" font-family="Helvetica,sans-Serif" font-size="10.00">ore::data::BondYieldShifted</text>
<text text-anchor="middle" x="250.5" y="-7" font-family="Helvetica,sans-Serif" font-size="10.00">YieldCurveSegment::toXML</text>
</a>
</g>
</g>
<!-- Node1&#45;&gt;Node14 -->
<g id="edge13" class="edge"><title>Node1&#45;&gt;Node14</title>
<path fill="none" stroke="#63b8ff" d="M376.758,-259.138C370.572,-207.668 351.732,-71.6976 322,-39 318.869,-35.5562 315.224,-32.6064 311.272,-30.0798"/>
<polygon fill="#63b8ff" stroke="#63b8ff" points="373.306,-259.759 377.943,-269.285 380.259,-258.947 373.306,-259.759"/>
</g>
<!-- Node11 -->
<g id="node11" class="node"><title>Node11</title>
<g id="a_node11"><a xlink:href="test_2curveconfig_8cpp.html#ade3158f2c130b472f310e1c6f359d790" target="_top" xlink:title=" ">
<polygon fill="white" stroke="#666666" points="143,-168.5 0,-168.5 0,-149.5 143,-149.5 143,-168.5"/>
<text text-anchor="middle" x="71.5" y="-156.5" font-family="Helvetica,sans-Serif" font-size="10.00">BOOST_AUTO_TEST_CASE</text>
</a>
</g>
</g>
<!-- Node10&#45;&gt;Node11 -->
<g id="edge10" class="edge"><title>Node10&#45;&gt;Node11</title>
<path fill="none" stroke="#63b8ff" d="M173.045,-159C163.072,-159 152.891,-159 143.022,-159"/>
<polygon fill="#63b8ff" stroke="#63b8ff" points="173.34,-162.5 183.34,-159 173.34,-155.5 173.34,-162.5"/>
</g>
</g>
</svg>
        <g id="navigator" transform="translate(0 0)" fill="#404254">
                <rect fill="#f2f5e9" fill-opacity="0.5" stroke="#606060" stroke-width=".5" x="0" y="0" width="60" height="60"/>
                <use id="zoomplus" xlink:href="#zoomPlus" x="17" y="9" onmousedown="handleZoom(evt,'in')"/>
                <use id="zoomminus" xlink:href="#zoomMin" x="42" y="9" onmousedown="handleZoom(evt,'out')"/>
                <use id="reset" xlink:href="#resetDef" x="30" y="36" onmousedown="handleReset()"/>
                <g id="arrowUp" xlink:href="#dirArrow" transform="translate(30 24)" onmousedown="handlePan(0,-1)">
                  <use xlink:href="#rim" fill="#404040">
                        <set attributeName="fill" to="#808080" begin="arrowUp.mouseover" end="arrowUp.mouseout"/>
                  </use>
                  <path fill="none" stroke="white" stroke-width="1.5" d="M0,-3.0v7 M-2.5,-0.5L0,-3.0L2.5,-0.5"/>
                </g>
                <g id="arrowRight" xlink:href="#dirArrow" transform="rotate(90) translate(36 -43)" onmousedown="handlePan(1,0)">
                  <use xlink:href="#rim" fill="#404040">
                        <set attributeName="fill" to="#808080" begin="arrowRight.mouseover" end="arrowRight.mouseout"/>
                  </use>
                  <path fill="none" stroke="white" stroke-width="1.5" d="M0,-3.0v7 M-2.5,-0.5L0,-3.0L2.5,-0.5"/>
                </g>
                <g id="arrowDown" xlink:href="#dirArrow" transform="rotate(180) translate(-30 -48)" onmousedown="handlePan(0,1)">
                  <use xlink:href="#rim" fill="#404040">
                        <set attributeName="fill" to="#808080" begin="arrowDown.mouseover" end="arrowDown.mouseout"/>
                  </use>
                  <path fill="none" stroke="white" stroke-width="1.5" d="M0,-3.0v7 M-2.5,-0.5L0,-3.0L2.5,-0.5"/>
                </g>
                <g id="arrowLeft" xlink:href="#dirArrow" transform="rotate(270) translate(-36 17)" onmousedown="handlePan(-1,0)">
                  <use xlink:href="#rim" fill="#404040">
                        <set attributeName="fill" to="#808080" begin="arrowLeft.mouseover" end="arrowLeft.mouseout"/>
                  </use>
                  <path fill="none" stroke="white" stroke-width="1.5" d="M0,-3.0v7 M-2.5,-0.5L0,-3.0L2.5,-0.5"/>
                </g>
        </g>
        <svg viewBox="0 0 15 15" width="100%" height="30px" preserveAspectRatio="xMaxYMin meet">
         <g id="arrow_out" transform="scale(0.3 0.3)">
          <a xlink:href="classore_1_1data_1_1_yield_curve_segment_a0881d80390ae17ef0094dcd8c91c4936_icgraph_org.svg" target="_base">
           <rect id="button" ry="5" rx="5" y="6" x="6" height="38" width="38"
                fill="#f2f5e9" fill-opacity="0.5" stroke="#606060" stroke-width="1.0"/>
           <path id="arrow"
             d="M 11.500037,31.436501 C 11.940474,20.09759 22.043105,11.32322 32.158766,21.979434 L 37.068811,17.246167 C 37.068811,17.246167 37.088388,32 37.088388,32 L 22.160133,31.978069 C 22.160133,31.978069 26.997745,27.140456 26.997745,27.140456 C 18.528582,18.264221 13.291696,25.230495 11.500037,31.436501 z"
             style="fill:#404040;"/>
          </a>
         </g>
        </svg>
</svg>
