<?xml version="1.0" encoding="UTF-8" standalone="no"?>
<!DOCTYPE svg PUBLIC "-//W3C//DTD SVG 1.1//EN"
 "http://www.w3.org/Graphics/SVG/1.1/DTD/svg11.dtd">
<!-- Generated by graphviz version 2.38.0 (20140413.2041)
 -->
<!-- Title: visit Pages: 1 -->
<svg width="229pt" height="86pt"
 viewBox="0.00 0.00 229.00 86.00" xmlns="http://www.w3.org/2000/svg" xmlns:xlink="http://www.w3.org/1999/xlink">
<g id="graph0" class="graph" transform="scale(1 1) rotate(0) translate(4 82)">
<title>visit</title>
<!-- Node1 -->
<g id="node1" class="node"><title>Node1</title>
<g id="a_node1"><a xlink:title=" ">
<polygon fill="#999999" stroke="#666666" points="33,-48.5 0,-48.5 0,-29.5 33,-29.5 33,-48.5"/>
<text text-anchor="middle" x="16.5" y="-36.5" font-family="Helvetica,sans-Serif" font-size="10.00">visit</text>
</a>
</g>
</g>
<!-- Node2 -->
<g id="node2" class="node"><title>Node2</title>
<g id="a_node2"><a xlink:href="classore_1_1data_1_1_required_fixings.html#a2f865463fe3ffeeaaa6b0b54c7577f0f" target="_top" xlink:title=" ">
<polygon fill="white" stroke="#666666" points="210.5,-78 79.5,-78 79.5,-48 210.5,-48 210.5,-78"/>
<text text-anchor="start" x="87.5" y="-66" font-family="Helvetica,sans-Serif" font-size="10.00">ore::data::RequiredFixings</text>
<text text-anchor="middle" x="145" y="-55" font-family="Helvetica,sans-Serif" font-size="10.00">::addFixingDates</text>
</a>
</g>
</g>
<!-- Node1&#45;&gt;Node2 -->
<g id="edge1" class="edge"><title>Node1&#45;&gt;Node2</title>
<path fill="none" stroke="#63b8ff" d="M33.0114,-41.9429C42.5674,-43.7559 55.5993,-46.2283 69.3755,-48.842"/>
<polygon fill="#63b8ff" stroke="#63b8ff" points="69.0221,-52.3373 79.4993,-50.7627 70.327,-45.46 69.0221,-52.3373"/>
</g>
<!-- Node3 -->
<g id="node3" class="node"><title>Node3</title>
<g id="a_node3"><a target="_parent" xlink:href="../qle/class_quant_ext_1_1_sub_periods_coupon1.html#ad51a69d6f5cf3a3d738f98c503f94e92" xlink:title=" ">
<polygon fill="white" stroke="#666666" points="221,-30 69,-30 69,-0 221,-0 221,-30"/>
<text text-anchor="start" x="77" y="-18" font-family="Helvetica,sans-Serif" font-size="10.00">QuantExt::SubPeriodsCoupon1</text>
<text text-anchor="middle" x="145" y="-7" font-family="Helvetica,sans-Serif" font-size="10.00">::fixingDates</text>
</a>
</g>
</g>
<!-- Node1&#45;&gt;Node3 -->
<g id="edge2" class="edge"><title>Node1&#45;&gt;Node3</title>
<path fill="none" stroke="#63b8ff" d="M33.0114,-36.0571C40.0872,-34.7147 49.0687,-33.0107 58.847,-31.1555"/>
<polygon fill="#63b8ff" stroke="#63b8ff" points="59.6775,-34.5605 68.8498,-29.2577 58.3726,-27.6831 59.6775,-34.5605"/>
</g>
</g>
</svg>
