<?xml version="1.0" encoding="UTF-8" standalone="no"?>
<!DOCTYPE svg PUBLIC "-//W3C//DTD SVG 1.1//EN"
 "http://www.w3.org/Graphics/SVG/1.1/DTD/svg11.dtd">
<!-- Generated by graphviz version 2.38.0 (20140413.2041)
 -->
<!-- Title: toXML Pages: 1 -->
<svg width="394pt" height="134pt"
 viewBox="0.00 0.00 394.00 134.00" xmlns="http://www.w3.org/2000/svg" xmlns:xlink="http://www.w3.org/1999/xlink">
<g id="graph0" class="graph" transform="scale(1 1) rotate(0) translate(4 130)">
<title>toXML</title>
<!-- Node1 -->
<g id="node1" class="node"><title>Node1</title>
<g id="a_node1"><a xlink:title=" ">
<polygon fill="#999999" stroke="#666666" points="44,-72.5 0,-72.5 0,-53.5 44,-53.5 44,-72.5"/>
<text text-anchor="middle" x="22" y="-60.5" font-family="Helvetica,sans-Serif" font-size="10.00">toXML</text>
</a>
</g>
</g>
<!-- Node2 -->
<g id="node2" class="node"><title>Node2</title>
<g id="a_node2"><a xlink:href="classore_1_1data_1_1_x_m_l_utils.html#a226c81c31def2ba2c853ca803d1fafc5" target="_top" xlink:title=" ">
<polygon fill="white" stroke="#666666" points="191.5,-78 92.5,-78 92.5,-48 191.5,-48 191.5,-78"/>
<text text-anchor="start" x="100.5" y="-66" font-family="Helvetica,sans-Serif" font-size="10.00">ore::data::XMLUtils</text>
<text text-anchor="middle" x="142" y="-55" font-family="Helvetica,sans-Serif" font-size="10.00">::addAttribute</text>
</a>
</g>
</g>
<!-- Node1&#45;&gt;Node2 -->
<g id="edge1" class="edge"><title>Node1&#45;&gt;Node2</title>
<path fill="none" stroke="#63b8ff" d="M44.096,-63C54.7668,-63 68.3062,-63 81.8557,-63"/>
<polygon fill="#63b8ff" stroke="#63b8ff" points="82.1718,-66.5001 92.1718,-63 82.1717,-59.5001 82.1718,-66.5001"/>
</g>
<!-- Node5 -->
<g id="node5" class="node"><title>Node5</title>
<g id="a_node5"><a xlink:href="classore_1_1data_1_1_x_m_l_document.html#a8717c517803f0df2e693e3cadefeafd7" target="_top" xlink:title="util functions that wrap rapidxml">
<polygon fill="white" stroke="#666666" points="204,-126 80,-126 80,-96 204,-96 204,-126"/>
<text text-anchor="start" x="88" y="-114" font-family="Helvetica,sans-Serif" font-size="10.00">ore::data::XMLDocument</text>
<text text-anchor="middle" x="142" y="-103" font-family="Helvetica,sans-Serif" font-size="10.00">::allocNode</text>
</a>
</g>
</g>
<!-- Node1&#45;&gt;Node5 -->
<g id="edge4" class="edge"><title>Node1&#45;&gt;Node5</title>
<path fill="none" stroke="#63b8ff" d="M44.0647,-72.0095C54.7964,-76.5638 68.0666,-82.141 80,-87 84.1436,-88.6872 88.4531,-90.4222 92.7798,-92.1505"/>
<polygon fill="#63b8ff" stroke="#63b8ff" points="91.6359,-95.4621 102.222,-95.9022 94.2208,-88.9568 91.6359,-95.4621"/>
</g>
<!-- Node6 -->
<g id="node6" class="node"><title>Node6</title>
<g id="a_node6"><a xlink:href="classore_1_1data_1_1_x_m_l_utils.html#ae646b9cdf949a88f35c36c18bf90b370" target="_top" xlink:title=" ">
<polygon fill="white" stroke="#666666" points="191.5,-30 92.5,-30 92.5,-0 191.5,-0 191.5,-30"/>
<text text-anchor="start" x="100.5" y="-18" font-family="Helvetica,sans-Serif" font-size="10.00">ore::data::XMLUtils</text>
<text text-anchor="middle" x="142" y="-7" font-family="Helvetica,sans-Serif" font-size="10.00">::appendNode</text>
</a>
</g>
</g>
<!-- Node1&#45;&gt;Node6 -->
<g id="edge6" class="edge"><title>Node1&#45;&gt;Node6</title>
<path fill="none" stroke="#63b8ff" d="M44.0647,-53.9905C54.7964,-49.4362 68.0666,-43.859 80,-39 84.1436,-37.3128 88.4531,-35.5778 92.7798,-33.8495"/>
<polygon fill="#63b8ff" stroke="#63b8ff" points="94.2208,-37.0432 102.222,-30.0978 91.6359,-30.5379 94.2208,-37.0432"/>
</g>
<!-- Node3 -->
<g id="node3" class="node"><title>Node3</title>
<g id="a_node3"><a xlink:href="classore_1_1data_1_1_x_m_l_document.html#ae3474059e483990f3afea260096e5c90" target="_top" xlink:title=" ">
<polygon fill="white" stroke="#666666" points="375,-123 251,-123 251,-93 375,-93 375,-123"/>
<text text-anchor="start" x="259" y="-111" font-family="Helvetica,sans-Serif" font-size="10.00">ore::data::XMLDocument</text>
<text text-anchor="middle" x="313" y="-100" font-family="Helvetica,sans-Serif" font-size="10.00">::allocString</text>
</a>
</g>
</g>
<!-- Node2&#45;&gt;Node3 -->
<g id="edge2" class="edge"><title>Node2&#45;&gt;Node3</title>
<path fill="none" stroke="#63b8ff" d="M191.882,-76.0159C208.661,-80.4838 227.734,-85.5624 245.663,-90.3362"/>
<polygon fill="#63b8ff" stroke="#63b8ff" points="244.919,-93.7601 255.483,-92.9511 246.72,-86.9958 244.919,-93.7601"/>
</g>
<!-- Node4 -->
<g id="node4" class="node"><title>Node4</title>
<g id="a_node4"><a xlink:href="classore_1_1data_1_1_x_m_l_document.html#a46d969cdb00bff64f3f4c0d2975a08d3" target="_top" xlink:title=" ">
<polygon fill="white" stroke="#666666" points="386,-72.5 240,-72.5 240,-53.5 386,-53.5 386,-72.5"/>
<text text-anchor="middle" x="313" y="-60.5" font-family="Helvetica,sans-Serif" font-size="10.00">ore::data::XMLDocument::doc</text>
</a>
</g>
</g>
<!-- Node2&#45;&gt;Node4 -->
<g id="edge3" class="edge"><title>Node2&#45;&gt;Node4</title>
<path fill="none" stroke="#63b8ff" d="M191.882,-63C203.728,-63 216.717,-63 229.639,-63"/>
<polygon fill="#63b8ff" stroke="#63b8ff" points="229.965,-66.5001 239.965,-63 229.965,-59.5001 229.965,-66.5001"/>
</g>
<!-- Node5&#45;&gt;Node3 -->
<g id="edge5" class="edge"><title>Node5&#45;&gt;Node3</title>
<path fill="none" stroke="#63b8ff" d="M204.013,-109.917C215.905,-109.706 228.472,-109.483 240.663,-109.266"/>
<polygon fill="#63b8ff" stroke="#63b8ff" points="240.857,-112.764 250.793,-109.087 240.732,-105.765 240.857,-112.764"/>
</g>
</g>
</svg>
