<?xml version="1.0" encoding="UTF-8" standalone="no"?>
<!DOCTYPE svg PUBLIC "-//W3C//DTD SVG 1.1//EN"
 "http://www.w3.org/Graphics/SVG/1.1/DTD/svg11.dtd">
<!-- Generated by graphviz version 2.38.0 (20140413.2041)
 -->
<!-- Title: InflationCurve Pages: 1 -->
<svg width="476pt" height="535pt"
 viewBox="0.00 0.00 475.50 535.00" xmlns="http://www.w3.org/2000/svg" xmlns:xlink="http://www.w3.org/1999/xlink">
<g id="graph0" class="graph" transform="scale(1 1) rotate(0) translate(4 531)">
<title>InflationCurve</title>
<!-- Node1 -->
<g id="node1" class="node"><title>Node1</title>
<g id="a_node1"><a xlink:title="Wrapper class for building inflation curves.">
<polygon fill="#999999" stroke="#666666" points="309,-96 183,-96 183,-0 309,-0 309,-96"/>
<text text-anchor="middle" x="246" y="-84" font-family="Helvetica,sans-Serif" font-size="10.00">{InflationCurve</text>
<text text-anchor="start" x="191" y="-73" font-family="Helvetica,sans-Serif" font-size="10.00">||+ InflationCurve()</text>
<text text-anchor="start" x="191" y="-62" font-family="Helvetica,sans-Serif" font-size="10.00">+ InflationCurve()</text>
<text text-anchor="start" x="191" y="-51" font-family="Helvetica,sans-Serif" font-size="10.00">+ spec()</text>
<text text-anchor="start" x="191" y="-40" font-family="Helvetica,sans-Serif" font-size="10.00">+ inflationTermStructure()</text>
<text text-anchor="start" x="191" y="-29" font-family="Helvetica,sans-Serif" font-size="10.00">+ interpolatedIndex()</text>
<text text-anchor="start" x="191" y="-18" font-family="Helvetica,sans-Serif" font-size="10.00">+ calibrationInfo()</text>
<text text-anchor="middle" x="246" y="-7" font-family="Helvetica,sans-Serif" font-size="10.00">}</text>
</a>
</g>
</g>
<!-- Node2 -->
<g id="node2" class="node"><title>Node2</title>
<g id="a_node2"><a xlink:href="classore_1_1data_1_1_inflation_curve_spec.html" target="_top" xlink:title="Inflation curve description.">
<polygon fill="white" stroke="#666666" points="116,-228 0,-228 0,-143 116,-143 116,-228"/>
<text text-anchor="middle" x="58" y="-216" font-family="Helvetica,sans-Serif" font-size="10.00">{InflationCurveSpec</text>
<text text-anchor="start" x="8" y="-205" font-family="Helvetica,sans-Serif" font-size="10.00">||+ InflationCurveSpec()</text>
<text text-anchor="start" x="8" y="-194" font-family="Helvetica,sans-Serif" font-size="10.00">+ InflationCurveSpec()</text>
<text text-anchor="start" x="8" y="-183" font-family="Helvetica,sans-Serif" font-size="10.00">+ baseType()</text>
<text text-anchor="start" x="8" y="-172" font-family="Helvetica,sans-Serif" font-size="10.00">+ index()</text>
<text text-anchor="start" x="8" y="-161" font-family="Helvetica,sans-Serif" font-size="10.00">+ subName()</text>
<text text-anchor="middle" x="58" y="-150" font-family="Helvetica,sans-Serif" font-size="10.00">}</text>
</a>
</g>
</g>
<!-- Node2&#45;&gt;Node1 -->
<g id="edge1" class="edge"><title>Node2&#45;&gt;Node1</title>
<path fill="none" stroke="#404040" d="M115.684,-142.925C133.791,-129.874 154.023,-115.292 173.043,-101.584"/>
<polygon fill="none" stroke="#404040" points="173.126,-101.524 175.655,-94.7704 182.861,-94.5072 180.332,-101.26 173.126,-101.524"/>
<text text-anchor="middle" x="168.5" y="-117" font-family="Helvetica,sans-Serif" font-size="10.00"> &#45;spec_</text>
</g>
<!-- Node3 -->
<g id="node3" class="node"><title>Node3</title>
<g id="a_node3"><a xlink:href="classore_1_1data_1_1_curve_spec.html" target="_top" xlink:title="Curve Specification.">
<polygon fill="white" stroke="#666666" points="187,-383 99,-383 99,-265 187,-265 187,-383"/>
<text text-anchor="middle" x="143" y="-371" font-family="Helvetica,sans-Serif" font-size="10.00">{CurveSpec</text>
<text text-anchor="start" x="107" y="-360" font-family="Helvetica,sans-Serif" font-size="10.00">||+ CurveSpec()</text>
<text text-anchor="start" x="107" y="-349" font-family="Helvetica,sans-Serif" font-size="10.00">+ CurveSpec()</text>
<text text-anchor="start" x="107" y="-338" font-family="Helvetica,sans-Serif" font-size="10.00">+ ~CurveSpec()</text>
<text text-anchor="start" x="107" y="-327" font-family="Helvetica,sans-Serif" font-size="10.00">* baseType()</text>
<text text-anchor="start" x="107" y="-316" font-family="Helvetica,sans-Serif" font-size="10.00">* subName()</text>
<text text-anchor="start" x="107" y="-305" font-family="Helvetica,sans-Serif" font-size="10.00">* name()</text>
<text text-anchor="start" x="107" y="-294" font-family="Helvetica,sans-Serif" font-size="10.00">* curveConfigID()</text>
<text text-anchor="start" x="107" y="-283" font-family="Helvetica,sans-Serif" font-size="10.00">* baseName()</text>
<text text-anchor="middle" x="143" y="-272" font-family="Helvetica,sans-Serif" font-size="10.00">}</text>
</a>
</g>
</g>
<!-- Node3&#45;&gt;Node2 -->
<g id="edge2" class="edge"><title>Node3&#45;&gt;Node2</title>
<path fill="none" stroke="#63b8ff" d="M101.28,-256.003C95.3514,-246.482 89.4025,-236.929 83.8951,-228.084"/>
<polygon fill="none" stroke="#63b8ff" points="98.4487,-258.077 106.706,-264.716 104.391,-254.377 98.4487,-258.077"/>
</g>
<!-- Node4 -->
<g id="node4" class="node"><title>Node4</title>
<g id="a_node4"><a xlink:title=" ">
<polygon fill="white" stroke="#666666" points="100,-460 56,-460 56,-430 100,-430 100,-460"/>
<text text-anchor="middle" x="78" y="-448" font-family="Helvetica,sans-Serif" font-size="10.00">{string</text>
<text text-anchor="middle" x="78" y="-437" font-family="Helvetica,sans-Serif" font-size="10.00">||}</text>
</a>
</g>
</g>
<!-- Node4&#45;&gt;Node2 -->
<g id="edge5" class="edge"><title>Node4&#45;&gt;Node2</title>
<path fill="none" stroke="#404040" d="M71.0014,-429.876C65.4173,-417.774 58.0441,-399.702 55,-383 46.3144,-335.345 48.1853,-280.111 51.5752,-240.361"/>
<polygon fill="none" stroke="#404040" points="51.5866,-240.237 48.1562,-233.895 52.6918,-228.288 56.1222,-234.631 51.5866,-240.237"/>
<text text-anchor="middle" x="72.5" y="-321.5" font-family="Helvetica,sans-Serif" font-size="10.00"> &#45;index_</text>
</g>
<!-- Node4&#45;&gt;Node3 -->
<g id="edge3" class="edge"><title>Node4&#45;&gt;Node3</title>
<path fill="none" stroke="#404040" d="M85.7116,-429.882C90.83,-420.511 97.9679,-407.443 105.472,-393.705"/>
<polygon fill="none" stroke="#404040" points="105.502,-393.649 104.868,-386.466 111.255,-383.118 111.889,-390.301 105.502,-393.649"/>
<text text-anchor="middle" x="136" y="-404" font-family="Helvetica,sans-Serif" font-size="10.00"> &#45;curveConfigID_</text>
</g>
<!-- Node5 -->
<g id="node5" class="node"><title>Node5</title>
<g id="a_node5"><a xlink:title=" ">
<polygon fill="white" stroke="#666666" points="133,-527 23,-527 23,-497 133,-497 133,-527"/>
<text text-anchor="middle" x="78" y="-515" font-family="Helvetica,sans-Serif" font-size="10.00">{basic_string&lt; Char &gt;</text>
<text text-anchor="middle" x="78" y="-504" font-family="Helvetica,sans-Serif" font-size="10.00">||}</text>
</a>
</g>
</g>
<!-- Node5&#45;&gt;Node4 -->
<g id="edge4" class="edge"><title>Node5&#45;&gt;Node4</title>
<path fill="none" stroke="#63b8ff" d="M78,-486.608C78,-477.654 78,-467.823 78,-460.077"/>
<polygon fill="none" stroke="#63b8ff" points="74.5001,-486.896 78,-496.896 81.5001,-486.896 74.5001,-486.896"/>
</g>
<!-- Node6 -->
<g id="node6" class="node"><title>Node6</title>
<g id="a_node6"><a xlink:title=" ">
<polygon fill="white" stroke="#666666" points="263.5,-206 134.5,-206 134.5,-165 263.5,-165 263.5,-206"/>
<text text-anchor="start" x="142.5" y="-194" font-family="Helvetica,sans-Serif" font-size="10.00">{shared_ptr&lt; InflationTerm</text>
<text text-anchor="middle" x="199" y="-183" font-family="Helvetica,sans-Serif" font-size="10.00">Structure &gt;</text>
<text text-anchor="middle" x="199" y="-172" font-family="Helvetica,sans-Serif" font-size="10.00">||}</text>
</a>
</g>
</g>
<!-- Node6&#45;&gt;Node1 -->
<g id="edge6" class="edge"><title>Node6&#45;&gt;Node1</title>
<path fill="none" stroke="#404040" d="M205.834,-164.797C211.051,-149.756 218.527,-128.205 225.616,-107.765"/>
<polygon fill="none" stroke="#404040" points="225.68,-107.583 223.867,-100.603 229.612,-96.2457 231.425,-103.225 225.68,-107.583"/>
<text text-anchor="middle" x="240" y="-117" font-family="Helvetica,sans-Serif" font-size="10.00"> &#45;curve_</text>
</g>
<!-- Node7 -->
<g id="node7" class="node"><title>Node7</title>
<g id="a_node7"><a xlink:href="classbool.html" target="_top" xlink:title=" ">
<polygon fill="white" stroke="#666666" points="320,-200.5 282,-200.5 282,-170.5 320,-170.5 320,-200.5"/>
<text text-anchor="middle" x="301" y="-188.5" font-family="Helvetica,sans-Serif" font-size="10.00">{bool</text>
<text text-anchor="middle" x="301" y="-177.5" font-family="Helvetica,sans-Serif" font-size="10.00">||}</text>
</a>
</g>
</g>
<!-- Node7&#45;&gt;Node1 -->
<g id="edge7" class="edge"><title>Node7&#45;&gt;Node1</title>
<path fill="none" stroke="#404040" d="M295.218,-170.255C289.127,-155.248 279.132,-130.626 269.735,-107.475"/>
<polygon fill="none" stroke="#404040" points="269.703,-107.397 263.741,-103.342 265.19,-96.2776 271.153,-100.333 269.703,-107.397"/>
<text text-anchor="middle" x="319.5" y="-117" font-family="Helvetica,sans-Serif" font-size="10.00"> &#45;interpolatedIndex_</text>
</g>
<!-- Node8 -->
<g id="node8" class="node"><title>Node8</title>
<g id="a_node8"><a xlink:title=" ">
<polygon fill="white" stroke="#666666" points="467.5,-211.5 342.5,-211.5 342.5,-159.5 467.5,-159.5 467.5,-211.5"/>
<text text-anchor="start" x="350.5" y="-199.5" font-family="Helvetica,sans-Serif" font-size="10.00">{shared_ptr&lt; ore::data</text>
<text text-anchor="start" x="350.5" y="-188.5" font-family="Helvetica,sans-Serif" font-size="10.00">::InflationCurveCalibration</text>
<text text-anchor="middle" x="405" y="-177.5" font-family="Helvetica,sans-Serif" font-size="10.00">Info &gt;</text>
<text text-anchor="middle" x="405" y="-166.5" font-family="Helvetica,sans-Serif" font-size="10.00">||}</text>
</a>
</g>
</g>
<!-- Node8&#45;&gt;Node1 -->
<g id="edge8" class="edge"><title>Node8&#45;&gt;Node1</title>
<path fill="none" stroke="#404040" d="M395.343,-159.379C388.77,-144.781 378.915,-126.801 366,-114 352.748,-100.865 336.294,-89.6604 319.861,-80.4413"/>
<polygon fill="none" stroke="#404040" points="319.675,-80.3413 312.497,-81.0304 309.1,-74.6694 316.278,-73.9804 319.675,-80.3413"/>
<text text-anchor="middle" x="410.5" y="-117" font-family="Helvetica,sans-Serif" font-size="10.00"> &#45;calibrationInfo_</text>
</g>
</g>
</svg>
