<?xml version="1.0" encoding="UTF-8" standalone="no"?>
<!DOCTYPE svg PUBLIC "-//W3C//DTD SVG 1.1//EN"
 "http://www.w3.org/Graphics/SVG/1.1/DTD/svg11.dtd">
<!-- Generated by graphviz version 2.38.0 (20140413.2041)
 -->
<!-- Title: toXML Pages: 1 -->
<svg width="650pt" height="94pt"
 viewBox="0.00 0.00 650.00 94.03" xmlns="http://www.w3.org/2000/svg" xmlns:xlink="http://www.w3.org/1999/xlink">
<g id="graph0" class="graph" transform="scale(1 1) rotate(0) translate(4 90.0264)">
<title>toXML</title>
<!-- Node1 -->
<g id="node1" class="node"><title>Node1</title>
<g id="a_node1"><a xlink:title=" ">
<polygon fill="#999999" stroke="#666666" points="44,-67.5 0,-67.5 0,-48.5 44,-48.5 44,-67.5"/>
<text text-anchor="middle" x="22" y="-55.5" font-family="Helvetica,sans-Serif" font-size="10.00">toXML</text>
</a>
</g>
</g>
<!-- Node2 -->
<g id="node2" class="node"><title>Node2</title>
<g id="a_node2"><a xlink:href="classore_1_1data_1_1_x_m_l_utils.html#aced1fd4bd35df3642d8022301744b138" target="_top" xlink:title=" ">
<polygon fill="white" stroke="#666666" points="322,-70 223,-70 223,-40 322,-40 322,-70"/>
<text text-anchor="start" x="231" y="-58" font-family="Helvetica,sans-Serif" font-size="10.00">ore::data::XMLUtils</text>
<text text-anchor="middle" x="272.5" y="-47" font-family="Helvetica,sans-Serif" font-size="10.00">::addChild</text>
</a>
</g>
</g>
<!-- Node1&#45;&gt;Node2 -->
<g id="edge1" class="edge"><title>Node1&#45;&gt;Node2</title>
<path fill="none" stroke="#63b8ff" d="M44.187,-57.7442C81.1258,-57.2983 158.54,-56.3637 212.714,-55.7097"/>
<polygon fill="#63b8ff" stroke="#63b8ff" points="212.924,-59.2075 222.881,-55.5869 212.84,-52.208 212.924,-59.2075"/>
</g>
<!-- Node3 -->
<g id="node3" class="node"><title>Node3</title>
<g id="a_node3"><a xlink:href="classore_1_1data_1_1_x_m_l_document.html#a8717c517803f0df2e693e3cadefeafd7" target="_top" xlink:title="util functions that wrap rapidxml">
<polygon fill="white" stroke="#666666" points="482,-70 358,-70 358,-40 482,-40 482,-70"/>
<text text-anchor="start" x="366" y="-58" font-family="Helvetica,sans-Serif" font-size="10.00">ore::data::XMLDocument</text>
<text text-anchor="middle" x="420" y="-47" font-family="Helvetica,sans-Serif" font-size="10.00">::allocNode</text>
</a>
</g>
</g>
<!-- Node1&#45;&gt;Node3 -->
<g id="edge4" class="edge"><title>Node1&#45;&gt;Node3</title>
<path fill="none" stroke="#63b8ff" d="M44.2557,-63.2384C54.9206,-65.6712 68.0756,-68.3782 80,-70 186.648,-84.5046 215.161,-92.0209 322,-79 333.839,-77.5571 346.315,-75.1583 358.232,-72.421"/>
<polygon fill="#63b8ff" stroke="#63b8ff" points="359.178,-75.7935 368.085,-70.0557 357.544,-68.9869 359.178,-75.7935"/>
</g>
<!-- Node5 -->
<g id="node5" class="node"><title>Node5</title>
<g id="a_node5"><a xlink:href="classore_1_1data_1_1_underlying.html#a98c77e5a9e18de0cd031a56f97459774" target="_top" xlink:title=" ">
<polygon fill="white" stroke="#666666" points="187,-30 80,-30 80,-0 187,-0 187,-30"/>
<text text-anchor="start" x="88" y="-18" font-family="Helvetica,sans-Serif" font-size="10.00">ore::data::Underlying</text>
<text text-anchor="middle" x="133.5" y="-7" font-family="Helvetica,sans-Serif" font-size="10.00">::toXML</text>
</a>
</g>
</g>
<!-- Node1&#45;&gt;Node5 -->
<g id="edge5" class="edge"><title>Node1&#45;&gt;Node5</title>
<path fill="none" stroke="#63b8ff" d="M44.1127,-49.7092C55.6255,-45.1882 70.3781,-39.3949 84.519,-33.8419"/>
<polygon fill="#63b8ff" stroke="#63b8ff" points="86.1351,-36.9675 94.1638,-30.0544 83.5764,-30.4519 86.1351,-36.9675"/>
</g>
<!-- Node2&#45;&gt;Node3 -->
<g id="edge2" class="edge"><title>Node2&#45;&gt;Node3</title>
<path fill="none" stroke="#63b8ff" d="M322.354,-55C330.543,-55 339.186,-55 347.8,-55"/>
<polygon fill="#63b8ff" stroke="#63b8ff" points="347.87,-58.5001 357.87,-55 347.87,-51.5001 347.87,-58.5001"/>
</g>
<!-- Node4 -->
<g id="node4" class="node"><title>Node4</title>
<g id="a_node4"><a xlink:href="classore_1_1data_1_1_x_m_l_document.html#ae3474059e483990f3afea260096e5c90" target="_top" xlink:title=" ">
<polygon fill="white" stroke="#666666" points="642,-70 518,-70 518,-40 642,-40 642,-70"/>
<text text-anchor="start" x="526" y="-58" font-family="Helvetica,sans-Serif" font-size="10.00">ore::data::XMLDocument</text>
<text text-anchor="middle" x="580" y="-47" font-family="Helvetica,sans-Serif" font-size="10.00">::allocString</text>
</a>
</g>
</g>
<!-- Node3&#45;&gt;Node4 -->
<g id="edge3" class="edge"><title>Node3&#45;&gt;Node4</title>
<path fill="none" stroke="#63b8ff" d="M482.087,-55C490.513,-55 499.226,-55 507.815,-55"/>
<polygon fill="#63b8ff" stroke="#63b8ff" points="507.815,-58.5001 517.815,-55 507.815,-51.5001 507.815,-58.5001"/>
</g>
<!-- Node5&#45;&gt;Node2 -->
<g id="edge6" class="edge"><title>Node5&#45;&gt;Node2</title>
<path fill="none" stroke="#63b8ff" d="M185.904,-30.0083C194.825,-32.6131 204.16,-35.3386 213.248,-37.9921"/>
<polygon fill="#63b8ff" stroke="#63b8ff" points="212.402,-41.3911 222.982,-40.8342 214.364,-34.6717 212.402,-41.3911"/>
</g>
<!-- Node5&#45;&gt;Node3 -->
<g id="edge7" class="edge"><title>Node5&#45;&gt;Node3</title>
<path fill="none" stroke="#63b8ff" d="M187.309,-17.283C225.028,-19.454 276.874,-23.5397 322,-31 332.68,-32.7656 343.916,-35.0964 354.804,-37.6119"/>
<polygon fill="#63b8ff" stroke="#63b8ff" points="354.139,-41.0515 364.678,-39.9631 355.761,-34.2419 354.139,-41.0515"/>
</g>
</g>
</svg>
