<?xml version="1.0" encoding="UTF-8" standalone="no"?>
<!DOCTYPE svg PUBLIC "-//W3C//DTD SVG 1.1//EN"
 "http://www.w3.org/Graphics/SVG/1.1/DTD/svg11.dtd">
<!-- Generated by graphviz version 2.38.0 (20140413.2041)
 -->
<!-- Title: securityId Pages: 1 -->
<svg width="670pt" height="201pt"
 viewBox="0.00 0.00 670.00 201.00" xmlns="http://www.w3.org/2000/svg" xmlns:xlink="http://www.w3.org/1999/xlink">
<g id="graph0" class="graph" transform="scale(1 1) rotate(0) translate(4 197)">
<title>securityId</title>
<!-- Node1 -->
<g id="node1" class="node"><title>Node1</title>
<g id="a_node1"><a xlink:title=" ">
<polygon fill="#999999" stroke="#666666" points="662,-72.5 603,-72.5 603,-53.5 662,-53.5 662,-72.5"/>
<text text-anchor="middle" x="632.5" y="-60.5" font-family="Helvetica,sans-Serif" font-size="10.00">securityId</text>
</a>
</g>
</g>
<!-- Node2 -->
<g id="node2" class="node"><title>Node2</title>
<g id="a_node2"><a xlink:href="classore_1_1data_1_1_bond.html#af7b69d5b18d278257927e32b10a23ee6" target="_top" xlink:title="Trade interface.">
<polygon fill="white" stroke="#666666" points="528,-115.5 418,-115.5 418,-96.5 528,-96.5 528,-115.5"/>
<text text-anchor="middle" x="473" y="-103.5" font-family="Helvetica,sans-Serif" font-size="10.00">ore::data::Bond::build</text>
</a>
</g>
</g>
<!-- Node1&#45;&gt;Node2 -->
<g id="edge1" class="edge"><title>Node1&#45;&gt;Node2</title>
<path fill="none" stroke="#63b8ff" d="M599.164,-76.1472C588.981,-79.9846 577.62,-83.9593 567,-87 554.484,-90.5837 540.837,-93.7649 527.948,-96.4509"/>
<polygon fill="#63b8ff" stroke="#63b8ff" points="600.432,-79.4093 608.503,-72.545 597.913,-72.8783 600.432,-79.4093"/>
</g>
<!-- Node8 -->
<g id="node8" class="node"><title>Node8</title>
<g id="a_node8"><a xlink:href="classore_1_1data_1_1_convertible_bond_data.html#ae4961a109c8bfab891589da5a47a4ecd" target="_top" xlink:title=" ">
<polygon fill="white" stroke="#666666" points="567,-78 379,-78 379,-48 567,-48 567,-78"/>
<text text-anchor="start" x="387" y="-66" font-family="Helvetica,sans-Serif" font-size="10.00">ore::data::ConvertibleBond</text>
<text text-anchor="middle" x="473" y="-55" font-family="Helvetica,sans-Serif" font-size="10.00">Data::populateFromBondReferenceData</text>
</a>
</g>
</g>
<!-- Node1&#45;&gt;Node8 -->
<g id="edge7" class="edge"><title>Node1&#45;&gt;Node8</title>
<path fill="none" stroke="#63b8ff" d="M592.894,-63C584.857,-63 576.059,-63 567,-63"/>
<polygon fill="#63b8ff" stroke="#63b8ff" points="592.978,-66.5001 602.978,-63 592.978,-59.5001 592.978,-66.5001"/>
</g>
<!-- Node9 -->
<g id="node9" class="node"><title>Node9</title>
<g id="a_node9"><a xlink:href="classore_1_1data_1_1_bond.html#a5172c779c3cbbd760ae110e62e08bb35" target="_top" xlink:title="Add underlying Bond names.">
<polygon fill="white" stroke="#666666" points="540,-30 406,-30 406,-0 540,-0 540,-30"/>
<text text-anchor="start" x="414" y="-18" font-family="Helvetica,sans-Serif" font-size="10.00">ore::data::Bond::underlying</text>
<text text-anchor="middle" x="473" y="-7" font-family="Helvetica,sans-Serif" font-size="10.00">Indices</text>
</a>
</g>
</g>
<!-- Node1&#45;&gt;Node9 -->
<g id="edge8" class="edge"><title>Node1&#45;&gt;Node9</title>
<path fill="none" stroke="#63b8ff" d="M598.002,-49.7852C588.093,-46.0806 577.173,-42.196 567,-39 557.137,-35.9015 546.596,-32.8961 536.285,-30.1205"/>
<polygon fill="#63b8ff" stroke="#63b8ff" points="596.917,-53.1173 607.509,-53.3977 599.404,-46.5738 596.917,-53.1173"/>
</g>
<!-- Node3 -->
<g id="node3" class="node"><title>Node3</title>
<g id="a_node3"><a xlink:href="structore_1_1data_1_1_vanilla_bond_builder.html#ae1e21501ab505df04314d15d13f876e1" target="_top" xlink:title=" ">
<polygon fill="white" stroke="#666666" points="325,-193 182,-193 182,-163 325,-163 325,-193"/>
<text text-anchor="start" x="190" y="-181" font-family="Helvetica,sans-Serif" font-size="10.00">ore::data::VanillaBondBuilder</text>
<text text-anchor="middle" x="253.5" y="-170" font-family="Helvetica,sans-Serif" font-size="10.00">::build</text>
</a>
</g>
</g>
<!-- Node2&#45;&gt;Node3 -->
<g id="edge2" class="edge"><title>Node2&#45;&gt;Node3</title>
<path fill="none" stroke="#63b8ff" d="M439.108,-119.187C413.211,-129.338 376.088,-143.382 343,-154 333.45,-157.064 323.241,-160.074 313.275,-162.87"/>
<polygon fill="#63b8ff" stroke="#63b8ff" points="440.433,-122.427 448.451,-115.502 437.864,-115.915 440.433,-122.427"/>
</g>
<!-- Node4 -->
<g id="node4" class="node"><title>Node4</title>
<g id="a_node4"><a xlink:href="classore_1_1data_1_1_convertible_bond.html#ab1db499ff5e65c59fd2009d62276fdaf" target="_top" xlink:title=" ">
<polygon fill="white" stroke="#666666" points="319,-145 188,-145 188,-115 319,-115 319,-145"/>
<text text-anchor="start" x="196" y="-133" font-family="Helvetica,sans-Serif" font-size="10.00">ore::data::ConvertibleBond</text>
<text text-anchor="middle" x="253.5" y="-122" font-family="Helvetica,sans-Serif" font-size="10.00">::build</text>
</a>
</g>
</g>
<!-- Node2&#45;&gt;Node4 -->
<g id="edge3" class="edge"><title>Node2&#45;&gt;Node4</title>
<path fill="none" stroke="#63b8ff" d="M407.88,-113.075C379.898,-116.163 347.145,-119.777 319.107,-122.871"/>
<polygon fill="#63b8ff" stroke="#63b8ff" points="408.401,-116.539 417.956,-111.963 407.633,-109.581 408.401,-116.539"/>
</g>
<!-- Node5 -->
<g id="node5" class="node"><title>Node5</title>
<g id="a_node5"><a xlink:href="classore_1_1data_1_1_risk_participation_agreement.html#a225490c21ddfa2450a67f04007c16f4c" target="_top" xlink:title=" ">
<polygon fill="white" stroke="#666666" points="343,-97 164,-97 164,-67 343,-67 343,-97"/>
<text text-anchor="start" x="172" y="-85" font-family="Helvetica,sans-Serif" font-size="10.00">ore::data::RiskParticipation</text>
<text text-anchor="middle" x="253.5" y="-74" font-family="Helvetica,sans-Serif" font-size="10.00">Agreement::buildWithTlockUnderlying</text>
</a>
</g>
</g>
<!-- Node2&#45;&gt;Node5 -->
<g id="edge4" class="edge"><title>Node2&#45;&gt;Node5</title>
<path fill="none" stroke="#63b8ff" d="M407.944,-98.9317C387.734,-96.7017 365.031,-94.1965 343.411,-91.8109"/>
<polygon fill="#63b8ff" stroke="#63b8ff" points="407.633,-102.419 417.956,-100.037 408.401,-95.4608 407.633,-102.419"/>
</g>
<!-- Node6 -->
<g id="node6" class="node"><title>Node6</title>
<g id="a_node6"><a xlink:href="namespaceore_1_1data.html#a7e30fb6a46cf70b26b33a0528e47cd6c" target="_top" xlink:title=" ">
<polygon fill="white" stroke="#666666" points="314.5,-48.5 192.5,-48.5 192.5,-29.5 314.5,-29.5 314.5,-48.5"/>
<text text-anchor="middle" x="253.5" y="-36.5" font-family="Helvetica,sans-Serif" font-size="10.00">ore::data::makeCMBLeg</text>
</a>
</g>
</g>
<!-- Node2&#45;&gt;Node6 -->
<g id="edge5" class="edge"><title>Node2&#45;&gt;Node6</title>
<path fill="none" stroke="#63b8ff" d="M408.034,-97.1407C398.055,-94.572 388.058,-91.2626 379,-87 360.41,-78.2521 361.546,-66.8403 343,-58 334.205,-53.8078 324.479,-50.5317 314.789,-47.9739"/>
<polygon fill="#63b8ff" stroke="#63b8ff" points="407.437,-100.596 417.972,-99.4703 409.034,-93.7803 407.437,-100.596"/>
</g>
<!-- Node7 -->
<g id="node7" class="node"><title>Node7</title>
<g id="a_node7"><a xlink:href="classore_1_1data_1_1_c_m_b_leg_builder.html#aea285351d9f3458189a9e2d965349d23" target="_top" xlink:title=" ">
<polygon fill="white" stroke="#666666" points="128,-54 0,-54 0,-24 128,-24 128,-54"/>
<text text-anchor="start" x="8" y="-42" font-family="Helvetica,sans-Serif" font-size="10.00">ore::data::CMBLegBuilder</text>
<text text-anchor="middle" x="64" y="-31" font-family="Helvetica,sans-Serif" font-size="10.00">::buildLeg</text>
</a>
</g>
</g>
<!-- Node6&#45;&gt;Node7 -->
<g id="edge6" class="edge"><title>Node6&#45;&gt;Node7</title>
<path fill="none" stroke="#63b8ff" d="M182.152,-39C164.479,-39 145.62,-39 128.314,-39"/>
<polygon fill="#63b8ff" stroke="#63b8ff" points="182.4,-42.5001 192.4,-39 182.4,-35.5001 182.4,-42.5001"/>
</g>
</g>
</svg>
