<?xml version="1.0" encoding="UTF-8" standalone="no"?>
<!DOCTYPE svg PUBLIC "-//W3C//DTD SVG 1.1//EN"
 "http://www.w3.org/Graphics/SVG/1.1/DTD/svg11.dtd">
<!-- Generated by graphviz version 2.38.0 (20140413.2041)
 -->
<!-- Title: exerciseFees Pages: 1 -->
<svg width="411pt" height="134pt"
 viewBox="0.00 0.00 411.00 134.00" xmlns="http://www.w3.org/2000/svg" xmlns:xlink="http://www.w3.org/1999/xlink">
<g id="graph0" class="graph" transform="scale(1 1) rotate(0) translate(4 130)">
<title>exerciseFees</title>
<!-- Node1 -->
<g id="node1" class="node"><title>Node1</title>
<g id="a_node1"><a xlink:title=" ">
<polygon fill="#999999" stroke="#666666" points="403,-72.5 328,-72.5 328,-53.5 403,-53.5 403,-72.5"/>
<text text-anchor="middle" x="365.5" y="-60.5" font-family="Helvetica,sans-Serif" font-size="10.00">exerciseFees</text>
</a>
</g>
</g>
<!-- Node2 -->
<g id="node2" class="node"><title>Node2</title>
<g id="a_node2"><a xlink:href="classore_1_1data_1_1_exercise_builder.html#a616a8a498a5610f9c35725ae63a8929f" target="_top" xlink:title=" ">
<polygon fill="white" stroke="#666666" points="286.5,-126 157.5,-126 157.5,-96 286.5,-96 286.5,-126"/>
<text text-anchor="start" x="165.5" y="-114" font-family="Helvetica,sans-Serif" font-size="10.00">ore::data::ExerciseBuilder</text>
<text text-anchor="middle" x="222" y="-103" font-family="Helvetica,sans-Serif" font-size="10.00">::ExerciseBuilder</text>
</a>
</g>
</g>
<!-- Node1&#45;&gt;Node2 -->
<g id="edge1" class="edge"><title>Node1&#45;&gt;Node2</title>
<path fill="none" stroke="#63b8ff" d="M326.514,-75.8857C308.305,-82.0626 286.38,-89.5001 267.404,-95.937"/>
<polygon fill="#63b8ff" stroke="#63b8ff" points="327.86,-79.1251 336.205,-72.5982 325.611,-72.4962 327.86,-79.1251"/>
</g>
<!-- Node3 -->
<g id="node3" class="node"><title>Node3</title>
<g id="a_node3"><a xlink:href="classore_1_1data_1_1_index_credit_default_swap_option.html#af7b69d5b18d278257927e32b10a23ee6" target="_top" xlink:title=" ">
<polygon fill="white" stroke="#666666" points="292,-78 152,-78 152,-48 292,-48 292,-78"/>
<text text-anchor="start" x="160" y="-66" font-family="Helvetica,sans-Serif" font-size="10.00">ore::data::IndexCreditDefault</text>
<text text-anchor="middle" x="222" y="-55" font-family="Helvetica,sans-Serif" font-size="10.00">SwapOption::build</text>
</a>
</g>
</g>
<!-- Node1&#45;&gt;Node3 -->
<g id="edge2" class="edge"><title>Node1&#45;&gt;Node3</title>
<path fill="none" stroke="#63b8ff" d="M317.659,-63C309.505,-63 300.871,-63 292.266,-63"/>
<polygon fill="#63b8ff" stroke="#63b8ff" points="317.692,-66.5001 327.692,-63 317.692,-59.5001 317.692,-66.5001"/>
</g>
<!-- Node4 -->
<g id="node4" class="node"><title>Node4</title>
<g id="a_node4"><a xlink:href="classore_1_1data_1_1_credit_default_swap_option.html#afc9fe7ddc6f66184a6447fa23f01687c" target="_top" xlink:title="Build CDS option given that no default.">
<polygon fill="white" stroke="#666666" points="290.5,-30 153.5,-30 153.5,-0 290.5,-0 290.5,-30"/>
<text text-anchor="start" x="161.5" y="-18" font-family="Helvetica,sans-Serif" font-size="10.00">ore::data::CreditDefault</text>
<text text-anchor="middle" x="222" y="-7" font-family="Helvetica,sans-Serif" font-size="10.00">SwapOption::buildNoDefault</text>
</a>
</g>
</g>
<!-- Node1&#45;&gt;Node4 -->
<g id="edge3" class="edge"><title>Node1&#45;&gt;Node4</title>
<path fill="none" stroke="#63b8ff" d="M326.514,-50.1143C308.305,-43.9374 286.38,-36.4999 267.404,-30.063"/>
<polygon fill="#63b8ff" stroke="#63b8ff" points="325.611,-53.5038 336.205,-53.4018 327.86,-46.8749 325.611,-53.5038"/>
</g>
<!-- Node5 -->
<g id="node5" class="node"><title>Node5</title>
<g id="a_node5"><a xlink:href="classore_1_1data_1_1_credit_default_swap_option.html#a1ef499f219449a5d9cad686946864d0b" target="_top" xlink:title=" ">
<polygon fill="white" stroke="#666666" points="116,-30 0,-30 0,-0 116,-0 116,-30"/>
<text text-anchor="start" x="8" y="-18" font-family="Helvetica,sans-Serif" font-size="10.00">ore::data::CreditDefault</text>
<text text-anchor="middle" x="58" y="-7" font-family="Helvetica,sans-Serif" font-size="10.00">SwapOption::build</text>
</a>
</g>
</g>
<!-- Node4&#45;&gt;Node5 -->
<g id="edge4" class="edge"><title>Node4&#45;&gt;Node5</title>
<path fill="none" stroke="#63b8ff" d="M143.067,-15C134.019,-15 124.92,-15 116.222,-15"/>
<polygon fill="#63b8ff" stroke="#63b8ff" points="143.236,-18.5001 153.236,-15 143.236,-11.5001 143.236,-18.5001"/>
</g>
</g>
</svg>
