<?xml version="1.0" encoding="UTF-8" standalone="no"?>
<!DOCTYPE svg PUBLIC "-//W3C//DTD SVG 1.1//EN"
 "http://www.w3.org/Graphics/SVG/1.1/DTD/svg11.dtd">
<!-- Generated by graphviz version 2.38.0 (20140413.2041)
 -->
<!-- Title: success Pages: 1 -->
<svg width="404pt" height="166pt"
 viewBox="0.00 0.00 404.00 165.50" xmlns="http://www.w3.org/2000/svg" xmlns:xlink="http://www.w3.org/1999/xlink">
<g id="graph0" class="graph" transform="scale(1 1) rotate(0) translate(4 161.5)">
<title>success</title>
<!-- Node1 -->
<g id="node1" class="node"><title>Node1</title>
<g id="a_node1"><a xlink:title=" ">
<polygon fill="#999999" stroke="#666666" points="396,-79.5 343,-79.5 343,-60.5 396,-60.5 396,-79.5"/>
<text text-anchor="middle" x="369.5" y="-67.5" font-family="Helvetica,sans-Serif" font-size="10.00">success</text>
</a>
</g>
</g>
<!-- Node2 -->
<g id="node2" class="node"><title>Node2</title>
<g id="a_node2"><a xlink:href="classore_1_1data_1_1_cliquet_option_mc_script_engine.html#a3b3bfcace535c68c3c9f0bb547ea04ef" target="_top" xlink:title=" ">
<polygon fill="white" stroke="#666666" points="307,-157.5 157,-157.5 157,-116.5 307,-116.5 307,-157.5"/>
<text text-anchor="start" x="165" y="-145.5" font-family="Helvetica,sans-Serif" font-size="10.00">ore::data::CliquetOption</text>
<text text-anchor="start" x="165" y="-134.5" font-family="Helvetica,sans-Serif" font-size="10.00">McScriptEngine::CliquetOption</text>
<text text-anchor="middle" x="232" y="-123.5" font-family="Helvetica,sans-Serif" font-size="10.00">McScriptEngine</text>
</a>
</g>
</g>
<!-- Node1&#45;&gt;Node2 -->
<g id="edge1" class="edge"><title>Node1&#45;&gt;Node2</title>
<path fill="none" stroke="#63b8ff" d="M345.806,-85.383C334.435,-92.7357 320.288,-101.359 307,-108 301.199,-110.899 295.034,-113.712 288.833,-116.371"/>
<polygon fill="#63b8ff" stroke="#63b8ff" points="347.831,-88.2408 354.261,-79.8208 343.983,-82.3928 347.831,-88.2408"/>
</g>
<!-- Node3 -->
<g id="node3" class="node"><title>Node3</title>
<g id="a_node3"><a xlink:href="test_2scriptengine_8cpp.html#aba0afc97094c107b504da4eb2a9d76ae" target="_top" xlink:title=" ">
<polygon fill="white" stroke="#666666" points="303.5,-98.5 160.5,-98.5 160.5,-79.5 303.5,-79.5 303.5,-98.5"/>
<text text-anchor="middle" x="232" y="-86.5" font-family="Helvetica,sans-Serif" font-size="10.00">BOOST_AUTO_TEST_CASE</text>
</a>
</g>
</g>
<!-- Node1&#45;&gt;Node3 -->
<g id="edge2" class="edge"><title>Node1&#45;&gt;Node3</title>
<path fill="none" stroke="#63b8ff" d="M332.592,-75.035C322.819,-76.4054 311.902,-77.9363 300.976,-79.4683"/>
<polygon fill="#63b8ff" stroke="#63b8ff" points="333.277,-78.4733 342.695,-73.6185 332.305,-71.5411 333.277,-78.4733"/>
</g>
<!-- Node4 -->
<g id="node4" class="node"><title>Node4</title>
<g id="a_node4"><a xlink:href="test_2scriptparser_8cpp.html#a53f0bac88cb47bbdd4bb6cf58c276946" target="_top" xlink:title=" ">
<polygon fill="white" stroke="#666666" points="303.5,-61.5 160.5,-61.5 160.5,-42.5 303.5,-42.5 303.5,-61.5"/>
<text text-anchor="middle" x="232" y="-49.5" font-family="Helvetica,sans-Serif" font-size="10.00">BOOST_DATA_TEST_CASE</text>
</a>
</g>
</g>
<!-- Node1&#45;&gt;Node4 -->
<g id="edge3" class="edge"><title>Node1&#45;&gt;Node4</title>
<path fill="none" stroke="#63b8ff" d="M332.616,-65.2332C323.605,-64.0361 313.619,-62.7095 303.551,-61.372"/>
<polygon fill="#63b8ff" stroke="#63b8ff" points="332.321,-68.7246 342.695,-66.572 333.243,-61.7855 332.321,-68.7246"/>
</g>
<!-- Node5 -->
<g id="node5" class="node"><title>Node5</title>
<g id="a_node5"><a xlink:href="namespaceore_1_1data.html#a58fac66491448eaf11dbcb7bced47a06" target="_top" xlink:title=" ">
<polygon fill="white" stroke="#666666" points="287,-24.5 177,-24.5 177,-5.5 287,-5.5 287,-24.5"/>
<text text-anchor="middle" x="232" y="-12.5" font-family="Helvetica,sans-Serif" font-size="10.00">ore::data::parseScript</text>
</a>
</g>
</g>
<!-- Node1&#45;&gt;Node5 -->
<g id="edge4" class="edge"><title>Node1&#45;&gt;Node5</title>
<path fill="none" stroke="#63b8ff" d="M345.689,-54.5921C334.427,-47.5281 320.407,-39.5182 307,-34 298.046,-30.3147 288.181,-27.1861 278.654,-24.5966"/>
<polygon fill="#63b8ff" stroke="#63b8ff" points="344.126,-57.7487 354.426,-60.2279 347.92,-51.8662 344.126,-57.7487"/>
</g>
<!-- Node6 -->
<g id="node6" class="node"><title>Node6</title>
<g id="a_node6"><a xlink:href="classore_1_1data_1_1_scripted_trade_engine_builder.html#afa7bc32050325672e45000b32d62ec0b" target="_top" xlink:title=" ">
<polygon fill="white" stroke="#666666" points="121,-30 0,-30 0,-0 121,-0 121,-30"/>
<text text-anchor="start" x="8" y="-18" font-family="Helvetica,sans-Serif" font-size="10.00">ore::data::ScriptedTrade</text>
<text text-anchor="middle" x="60.5" y="-7" font-family="Helvetica,sans-Serif" font-size="10.00">EngineBuilder::engine</text>
</a>
</g>
</g>
<!-- Node5&#45;&gt;Node6 -->
<g id="edge5" class="edge"><title>Node5&#45;&gt;Node6</title>
<path fill="none" stroke="#63b8ff" d="M166.736,-15C151.807,-15 135.976,-15 121.251,-15"/>
<polygon fill="#63b8ff" stroke="#63b8ff" points="166.903,-18.5001 176.903,-15 166.903,-11.5001 166.903,-18.5001"/>
</g>
</g>
</svg>
