<?xml version="1.0" encoding="UTF-8" standalone="no"?>
<!DOCTYPE svg PUBLIC "-//W3C//DTD SVG 1.1//EN"
 "http://www.w3.org/Graphics/SVG/1.1/DTD/svg11.dtd">
<!-- Generated by graphviz version 2.38.0 (20140413.2041)
 -->
<!-- Title: spec Pages: 1 -->
<svg width="393pt" height="208pt"
 viewBox="0.00 0.00 393.00 207.70" xmlns="http://www.w3.org/2000/svg" xmlns:xlink="http://www.w3.org/1999/xlink">
<g id="graph0" class="graph" transform="scale(1 1) rotate(0) translate(4 203.698)">
<title>spec</title>
<!-- Node1 -->
<g id="node1" class="node"><title>Node1</title>
<g id="a_node1"><a xlink:title=" ">
<polygon fill="#999999" stroke="#666666" points="385,-112 347,-112 347,-93 385,-93 385,-112"/>
<text text-anchor="middle" x="366" y="-100" font-family="Helvetica,sans-Serif" font-size="10.00">spec</text>
</a>
</g>
</g>
<!-- Node2 -->
<g id="node2" class="node"><title>Node2</title>
<g id="a_node2"><a xlink:href="classore_1_1data_1_1_f_x_vol_curve.html#af2e42c318046fe68ebaa0a7d0cc5067d" target="_top" xlink:title="Detailed constructor.">
<polygon fill="white" stroke="#666666" points="66,-169 0,-169 0,-150 66,-150 66,-169"/>
<text text-anchor="middle" x="33" y="-157" font-family="Helvetica,sans-Serif" font-size="10.00">FXVolCurve</text>
</a>
</g>
</g>
<!-- Node1&#45;&gt;Node2 -->
<g id="edge1" class="edge"><title>Node1&#45;&gt;Node2</title>
<path fill="none" stroke="#63b8ff" d="M357.556,-121.684C349.271,-140.047 333.951,-166.653 311,-178.5 226.618,-222.057 108.072,-187.326 57.9115,-169.003"/>
<polygon fill="#63b8ff" stroke="#63b8ff" points="360.878,-122.812 361.532,-112.237 354.426,-120.096 360.878,-122.812"/>
</g>
<!-- Node3 -->
<g id="node3" class="node"><title>Node3</title>
<g id="a_node3"><a xlink:href="classore_1_1data_1_1_f_x_vol_curve.html#a6c830b55fe6a1440df349b8207f20379" target="_top" xlink:title=" ">
<polygon fill="white" stroke="#666666" points="301,-169 177,-169 177,-150 301,-150 301,-169"/>
<text text-anchor="middle" x="239" y="-157" font-family="Helvetica,sans-Serif" font-size="10.00">buildSmileAbsoluteCurve</text>
</a>
</g>
</g>
<!-- Node1&#45;&gt;Node3 -->
<g id="edge2" class="edge"><title>Node1&#45;&gt;Node3</title>
<path fill="none" stroke="#63b8ff" d="M342.797,-117.61C333.275,-123.678 321.862,-130.423 311,-135.5 298.977,-141.12 285.263,-146.072 273.115,-149.995"/>
<polygon fill="#63b8ff" stroke="#63b8ff" points="344.81,-120.475 351.266,-112.075 340.98,-114.616 344.81,-120.475"/>
</g>
<!-- Node4 -->
<g id="node4" class="node"><title>Node4</title>
<g id="a_node4"><a xlink:href="classore_1_1data_1_1_f_x_vol_curve.html#aa5334770a51cbfa81ecf8b7d14a3acf1" target="_top" xlink:title=" ">
<polygon fill="white" stroke="#666666" points="131,-112 102,-112 102,-93 131,-93 131,-112"/>
<text text-anchor="middle" x="116.5" y="-100" font-family="Helvetica,sans-Serif" font-size="10.00">init</text>
</a>
</g>
</g>
<!-- Node1&#45;&gt;Node4 -->
<g id="edge11" class="edge"><title>Node1&#45;&gt;Node4</title>
<path fill="none" stroke="#63b8ff" d="M336.683,-102.5C283.38,-102.5 169.996,-102.5 131.002,-102.5"/>
<polygon fill="#63b8ff" stroke="#63b8ff" points="336.801,-106 346.801,-102.5 336.801,-99.0001 336.801,-106"/>
</g>
<!-- Node5 -->
<g id="node5" class="node"><title>Node5</title>
<g id="a_node5"><a xlink:href="classore_1_1data_1_1_f_x_vol_curve.html#abbb116b85d1536cc691f4ad311837d1e" target="_top" xlink:title=" ">
<polygon fill="white" stroke="#666666" points="291,-93 187,-93 187,-74 291,-74 291,-93"/>
<text text-anchor="middle" x="239" y="-81" font-family="Helvetica,sans-Serif" font-size="10.00">buildSmileBfRrCurve</text>
</a>
</g>
</g>
<!-- Node1&#45;&gt;Node5 -->
<g id="edge5" class="edge"><title>Node1&#45;&gt;Node5</title>
<path fill="none" stroke="#63b8ff" d="M336.755,-98.2068C323.283,-96.159 306.737,-93.6441 291.163,-91.2768"/>
<polygon fill="#63b8ff" stroke="#63b8ff" points="336.411,-101.695 346.824,-99.7372 337.463,-94.7742 336.411,-101.695"/>
</g>
<!-- Node6 -->
<g id="node6" class="node"><title>Node6</title>
<g id="a_node6"><a xlink:href="classore_1_1data_1_1_f_x_vol_curve.html#a1e5b4adc092749d207f33198cf470023" target="_top" xlink:title=" ">
<polygon fill="white" stroke="#666666" points="293,-56 185,-56 185,-37 293,-37 293,-56"/>
<text text-anchor="middle" x="239" y="-44" font-family="Helvetica,sans-Serif" font-size="10.00">buildSmileDeltaCurve</text>
</a>
</g>
</g>
<!-- Node1&#45;&gt;Node6 -->
<g id="edge7" class="edge"><title>Node1&#45;&gt;Node6</title>
<path fill="none" stroke="#63b8ff" d="M345.055,-86.4186C335.266,-79.1745 323.015,-71.0265 311,-65.5 302.885,-61.7676 293.9,-58.6557 285.126,-56.1041"/>
<polygon fill="#63b8ff" stroke="#63b8ff" points="343.208,-89.413 353.275,-92.7161 347.465,-83.8562 343.208,-89.413"/>
</g>
<!-- Node7 -->
<g id="node7" class="node"><title>Node7</title>
<g id="a_node7"><a xlink:href="classore_1_1data_1_1_f_x_vol_curve.html#a01669a2710dee60d8b4c9ea0f6ad26c6" target="_top" xlink:title=" ">
<polygon fill="white" stroke="#666666" points="311,-19 167,-19 167,-0 311,-0 311,-19"/>
<text text-anchor="middle" x="239" y="-7" font-family="Helvetica,sans-Serif" font-size="10.00">buildVannaVolgaOrATMCurve</text>
</a>
</g>
</g>
<!-- Node1&#45;&gt;Node7 -->
<g id="edge9" class="edge"><title>Node1&#45;&gt;Node7</title>
<path fill="none" stroke="#63b8ff" d="M356.246,-83.6604C347.282,-66.4535 331.735,-41.6107 311,-27.5 305.954,-24.066 300.304,-21.2869 294.454,-19.0378"/>
<polygon fill="#63b8ff" stroke="#63b8ff" points="353.181,-85.3588 360.752,-92.7704 359.455,-82.2552 353.181,-85.3588"/>
</g>
<!-- Node3&#45;&gt;Node4 -->
<g id="edge3" class="edge"><title>Node3&#45;&gt;Node4</title>
<path fill="none" stroke="#63b8ff" d="M193.983,-146.627C184.883,-143.413 175.489,-139.674 167,-135.5 153.653,-128.937 139.659,-119.316 129.97,-112.154"/>
<polygon fill="#63b8ff" stroke="#63b8ff" points="193.091,-150.02 203.685,-149.905 195.331,-143.389 193.091,-150.02"/>
</g>
<!-- Node4&#45;&gt;Node2 -->
<g id="edge4" class="edge"><title>Node4&#45;&gt;Node2</title>
<path fill="none" stroke="#63b8ff" d="M93.2021,-118.095C78.6195,-128.294 60.0404,-141.288 47.6212,-149.974"/>
<polygon fill="#63b8ff" stroke="#63b8ff" points="95.4859,-120.769 101.675,-112.169 91.474,-115.032 95.4859,-120.769"/>
</g>
<!-- Node5&#45;&gt;Node4 -->
<g id="edge6" class="edge"><title>Node5&#45;&gt;Node4</title>
<path fill="none" stroke="#63b8ff" d="M176.784,-93.1523C159.557,-95.8686 142.435,-98.5683 131.054,-100.363"/>
<polygon fill="#63b8ff" stroke="#63b8ff" points="177.564,-96.5726 186.897,-91.5577 176.474,-89.658 177.564,-96.5726"/>
</g>
<!-- Node6&#45;&gt;Node4 -->
<g id="edge8" class="edge"><title>Node6&#45;&gt;Node4</title>
<path fill="none" stroke="#63b8ff" d="M182.402,-59.1638C177.095,-61.0282 171.879,-63.133 167,-65.5 152.134,-72.7119 137.241,-84.6365 127.733,-92.9939"/>
<polygon fill="#63b8ff" stroke="#63b8ff" points="183.559,-62.4683 191.998,-56.0629 181.406,-55.8074 183.559,-62.4683"/>
</g>
<!-- Node7&#45;&gt;Node4 -->
<g id="edge10" class="edge"><title>Node7&#45;&gt;Node4</title>
<path fill="none" stroke="#63b8ff" d="M173.56,-23.4081C171.283,-24.6569 169.086,-26.0175 167,-27.5 143.22,-44.4002 127.768,-76.6291 121.167,-92.7748"/>
<polygon fill="#63b8ff" stroke="#63b8ff" points="175.116,-26.5443 182.679,-19.1247 172.14,-20.2085 175.116,-26.5443"/>
</g>
</g>
</svg>
