<?xml version="1.0" encoding="UTF-8" standalone="no"?>
<!DOCTYPE svg PUBLIC "-//W3C//DTD SVG 1.1//EN"
 "http://www.w3.org/Graphics/SVG/1.1/DTD/svg11.dtd">
<!-- Generated by graphviz version 2.38.0 (20140413.2041)
 -->
<!-- Title: BOOST_AUTO_TEST_CASE Pages: 1 -->
<!--zoomable 220 -->
<svg id="main" version="1.1" xmlns="http://www.w3.org/2000/svg" xmlns:xlink="http://www.w3.org/1999/xlink" xml:space="preserve" onload="init(evt)">
<style type="text/css"><![CDATA[
.edge:hover path { stroke: red; }
.edge:hover polygon { stroke: red; fill: red; }
]]></style>
<script type="text/javascript"><![CDATA[
var edges = document.getElementsByTagName('g');
if (edges && edges.length) {
  for (var i=0;i<edges.length;i++) {
    if (edges[i].id.substr(0,4)=='edge') {
      edges[i].setAttribute('class','edge');
    }
  }
}
]]></script>
        <defs>
                <circle id="rim" cx="0" cy="0" r="7"/>
                <circle id="rim2" cx="0" cy="0" r="3.5"/>
                <g id="zoomPlus">
                        <use xlink:href="#rim" fill="#404040">
                                <set attributeName="fill" to="#808080" begin="zoomplus.mouseover" end="zoomplus.mouseout"/>
                        </use>
                        <path d="M-4,0h8M0,-4v8" fill="none" stroke="white" stroke-width="1.5" pointer-events="none"/>
                </g>
                <g id="zoomMin">
                        <use xlink:href="#rim" fill="#404040">
                                <set attributeName="fill" to="#808080" begin="zoomminus.mouseover" end="zoomminus.mouseout"/>
                        </use>
                        <path d="M-4,0h8" fill="none" stroke="white" stroke-width="1.5" pointer-events="none"/>
                </g>
                <g id="dirArrow">
                        <path fill="none" stroke="white" stroke-width="1.5" d="M0,-3.0v7 M-2.5,-0.5L0,-3.0L2.5,-0.5"/>
                </g>
               <g id="resetDef">
                       <use xlink:href="#rim2" fill="#404040">
                               <set attributeName="fill" to="#808080" begin="reset.mouseover" end="reset.mouseout"/>
                       </use>
               </g>
        </defs>

<script type="text/javascript">
var viewWidth = 851;
var viewHeight = 220;
var sectionId = 'dynsection-0';
</script>
<script xlink:href="svgpan.js"/>
<svg id="graph" class="graph">
<g id="viewport">
<title>BOOST_AUTO_TEST_CASE</title>
<!-- Node1 -->
<g id="node1" class="node"><title>Node1</title>
<g id="a_node1"><a xlink:title=" ">
<polygon fill="#999999" stroke="#666666" points="143,-72.5 0,-72.5 0,-53.5 143,-53.5 143,-72.5"/>
<text text-anchor="middle" x="71.5" y="-60.5" font-family="Helvetica,sans-Serif" font-size="10.00">BOOST_AUTO_TEST_CASE</text>
</a>
</g>
</g>
<!-- Node2 -->
<g id="node2" class="node"><title>Node2</title>
<g id="a_node2"><a xlink:href="classore_1_1data_1_1_portfolio.html#a78b7a46465ae740388a7061e932a1f26" target="_top" xlink:title="Call build on all trades in the portfolio, the context is included in error messages.">
<polygon fill="white" stroke="#666666" points="292,-147 196,-147 196,-117 292,-117 292,-147"/>
<text text-anchor="start" x="204" y="-135" font-family="Helvetica,sans-Serif" font-size="10.00">ore::data::Portfolio</text>
<text text-anchor="middle" x="244" y="-124" font-family="Helvetica,sans-Serif" font-size="10.00">::build</text>
</a>
</g>
</g>
<!-- Node1&#45;&gt;Node2 -->
<g id="edge1" class="edge"><title>Node1&#45;&gt;Node2</title>
<path fill="none" stroke="#63b8ff" d="M96.2073,-72.5942C122.024,-83.0421 163.965,-100.015 196.419,-113.149"/>
<polygon fill="#63b8ff" stroke="#63b8ff" points="195.145,-116.409 205.728,-116.916 197.771,-109.92 195.145,-116.409"/>
</g>
<!-- Node9 -->
<g id="node9" class="node"><title>Node9</title>
<g id="a_node9"><a xlink:href="classore_1_1data_1_1_x_m_l_serializable.html#ac3ac11cf6a3155713cea6a1a67e2b64d" target="_top" xlink:title=" ">
<polygon fill="white" stroke="#666666" points="309,-78 179,-78 179,-48 309,-48 309,-78"/>
<text text-anchor="start" x="187" y="-66" font-family="Helvetica,sans-Serif" font-size="10.00">ore::data::XMLSerializable</text>
<text text-anchor="middle" x="244" y="-55" font-family="Helvetica,sans-Serif" font-size="10.00">::fromFile</text>
</a>
</g>
</g>
<!-- Node1&#45;&gt;Node9 -->
<g id="edge8" class="edge"><title>Node1&#45;&gt;Node9</title>
<path fill="none" stroke="#63b8ff" d="M143.326,-63C151.717,-63 160.3,-63 168.737,-63"/>
<polygon fill="#63b8ff" stroke="#63b8ff" points="168.933,-66.5001 178.933,-63 168.933,-59.5001 168.933,-66.5001"/>
</g>
<!-- Node12 -->
<g id="node12" class="node"><title>Node12</title>
<g id="a_node12"><a xlink:href="classore_1_1data_1_1_portfolio.html#aea0e5b558d6e98622d9c6bbdd509c3d6" target="_top" xlink:title=" ">
<polygon fill="white" stroke="#666666" points="302,-29.5 186,-29.5 186,-10.5 302,-10.5 302,-29.5"/>
<text text-anchor="middle" x="244" y="-17.5" font-family="Helvetica,sans-Serif" font-size="10.00">ore::data::Portfolio::get</text>
</a>
</g>
</g>
<!-- Node1&#45;&gt;Node12 -->
<g id="edge11" class="edge"><title>Node1&#45;&gt;Node12</title>
<path fill="none" stroke="#63b8ff" d="M110.339,-53.4569C135.394,-47.1383 168.458,-38.7994 195.309,-32.0276"/>
<polygon fill="#63b8ff" stroke="#63b8ff" points="196.426,-35.3556 205.266,-29.5164 194.714,-28.5682 196.426,-35.3556"/>
</g>
<!-- Node3 -->
<g id="node3" class="node"><title>Node3</title>
<g id="a_node3"><a xlink:href="classore_1_1data_1_1_portfolio.html#aa132f7e3db9728b12a14c975c9714c58" target="_top" xlink:title="Does this portfolio build failed trades?">
<polygon fill="white" stroke="#666666" points="459,-212 361,-212 361,-182 459,-182 459,-212"/>
<text text-anchor="start" x="369" y="-200" font-family="Helvetica,sans-Serif" font-size="10.00">ore::data::Portfolio</text>
<text text-anchor="middle" x="410" y="-189" font-family="Helvetica,sans-Serif" font-size="10.00">::buildFailedTrades</text>
</a>
</g>
</g>
<!-- Node2&#45;&gt;Node3 -->
<g id="edge2" class="edge"><title>Node2&#45;&gt;Node3</title>
<path fill="none" stroke="#63b8ff" d="M280.997,-147.067C299.98,-154.935 323.69,-164.638 345,-173 349.46,-174.75 354.105,-176.545 358.766,-178.327"/>
<polygon fill="#63b8ff" stroke="#63b8ff" points="357.71,-181.67 368.301,-181.949 360.196,-175.126 357.71,-181.67"/>
</g>
<!-- Node4 -->
<g id="node4" class="node"><title>Node4</title>
<g id="a_node4"><a xlink:href="namespaceore_1_1data.html#a4189e2c4ca70a4330840992fb570b3b1" target="_top" xlink:title=" ">
<polygon fill="white" stroke="#666666" points="462.5,-163.5 357.5,-163.5 357.5,-144.5 462.5,-144.5 462.5,-163.5"/>
<text text-anchor="middle" x="410" y="-151.5" font-family="Helvetica,sans-Serif" font-size="10.00">ore::data::buildTrade</text>
</a>
</g>
</g>
<!-- Node2&#45;&gt;Node4 -->
<g id="edge3" class="edge"><title>Node2&#45;&gt;Node4</title>
<path fill="none" stroke="#63b8ff" d="M292.436,-138.363C309.597,-140.665 329.23,-143.299 347.429,-145.741"/>
<polygon fill="#63b8ff" stroke="#63b8ff" points="346.991,-149.213 357.368,-147.074 347.922,-142.275 346.991,-149.213"/>
</g>
<!-- Node8 -->
<g id="node8" class="node"><title>Node8</title>
<g id="a_node8"><a xlink:href="classore_1_1data_1_1_portfolio.html#a7687577d15ee357689a1b7c947cebb67" target="_top" xlink:title="Keep trade in the portfolio even after build fail.">
<polygon fill="white" stroke="#666666" points="465,-126 355,-126 355,-96 465,-96 465,-126"/>
<text text-anchor="start" x="363" y="-114" font-family="Helvetica,sans-Serif" font-size="10.00">ore::data::Portfolio</text>
<text text-anchor="middle" x="410" y="-103" font-family="Helvetica,sans-Serif" font-size="10.00">::ignoreTradeBuildFail</text>
</a>
</g>
</g>
<!-- Node2&#45;&gt;Node8 -->
<g id="edge7" class="edge"><title>Node2&#45;&gt;Node8</title>
<path fill="none" stroke="#63b8ff" d="M292.436,-125.926C308.726,-123.84 327.244,-121.469 344.649,-119.24"/>
<polygon fill="#63b8ff" stroke="#63b8ff" points="345.268,-122.689 354.743,-117.948 344.379,-115.746 345.268,-122.689"/>
</g>
<!-- Node5 -->
<g id="node5" class="node"><title>Node5</title>
<g id="a_node5"><a xlink:href="classore_1_1data_1_1_j_s_o_n_message.html#a5e21eca2668ed948bdc409b19a78e5bb" target="_top" xlink:title="generate Boost log record to pass to corresponding sinks">
<polygon fill="white" stroke="#666666" points="656,-163.5 511,-163.5 511,-144.5 656,-144.5 656,-163.5"/>
<text text-anchor="middle" x="583.5" y="-151.5" font-family="Helvetica,sans-Serif" font-size="10.00">ore::data::JSONMessage::log</text>
</a>
</g>
</g>
<!-- Node4&#45;&gt;Node5 -->
<g id="edge4" class="edge"><title>Node4&#45;&gt;Node5</title>
<path fill="none" stroke="#63b8ff" d="M462.921,-154C474.823,-154 487.761,-154 500.584,-154"/>
<polygon fill="#63b8ff" stroke="#63b8ff" points="500.821,-157.5 510.821,-154 500.821,-150.5 500.821,-157.5"/>
</g>
<!-- Node6 -->
<g id="node6" class="node"><title>Node6</title>
<g id="a_node6"><a xlink:href="classore_1_1data_1_1_j_s_o_n_message.html#a6a9077605df871e6e961dd0099645b35" target="_top" xlink:title="generate Boost log record &#45; this method is called by log()">
<polygon fill="white" stroke="#666666" points="830.5,-191 704.5,-191 704.5,-161 830.5,-161 830.5,-191"/>
<text text-anchor="start" x="712.5" y="-179" font-family="Helvetica,sans-Serif" font-size="10.00">ore::data::JSONMessage</text>
<text text-anchor="middle" x="767.5" y="-168" font-family="Helvetica,sans-Serif" font-size="10.00">::emitLog</text>
</a>
</g>
</g>
<!-- Node5&#45;&gt;Node6 -->
<g id="edge5" class="edge"><title>Node5&#45;&gt;Node6</title>
<path fill="none" stroke="#63b8ff" d="M656.17,-162.663C668.729,-164.181 681.802,-165.762 694.373,-167.281"/>
<polygon fill="#63b8ff" stroke="#63b8ff" points="693.979,-170.759 704.327,-168.485 694.82,-163.81 693.979,-170.759"/>
</g>
<!-- Node7 -->
<g id="node7" class="node"><title>Node7</title>
<g id="a_node7"><a xlink:href="classore_1_1data_1_1_j_s_o_n_message.html#a39f83a0ab38c425a8844c8892b93d69e" target="_top" xlink:title="return a std::string for the log file">
<polygon fill="white" stroke="#666666" points="843,-142.5 692,-142.5 692,-123.5 843,-123.5 843,-142.5"/>
<text text-anchor="middle" x="767.5" y="-130.5" font-family="Helvetica,sans-Serif" font-size="10.00">ore::data::JSONMessage::msg</text>
</a>
</g>
</g>
<!-- Node5&#45;&gt;Node7 -->
<g id="edge6" class="edge"><title>Node5&#45;&gt;Node7</title>
<path fill="none" stroke="#63b8ff" d="M656.17,-145.73C664.607,-144.757 673.276,-143.757 681.868,-142.765"/>
<polygon fill="#63b8ff" stroke="#63b8ff" points="682.369,-146.231 691.902,-141.607 681.567,-139.277 682.369,-146.231"/>
</g>
<!-- Node10 -->
<g id="node10" class="node"><title>Node10</title>
<g id="a_node10"><a xlink:href="classore_1_1data_1_1_x_m_l_serializable.html#a52f896048a4e04b36fcfc8fa3de6a9b4" target="_top" xlink:title=" ">
<polygon fill="white" stroke="#666666" points="475,-78 345,-78 345,-48 475,-48 475,-78"/>
<text text-anchor="start" x="353" y="-66" font-family="Helvetica,sans-Serif" font-size="10.00">ore::data::XMLSerializable</text>
<text text-anchor="middle" x="410" y="-55" font-family="Helvetica,sans-Serif" font-size="10.00">::fromXML</text>
</a>
</g>
</g>
<!-- Node9&#45;&gt;Node10 -->
<g id="edge9" class="edge"><title>Node9&#45;&gt;Node10</title>
<path fill="none" stroke="#63b8ff" d="M309.346,-63C317.64,-63 326.187,-63 334.625,-63"/>
<polygon fill="#63b8ff" stroke="#63b8ff" points="334.839,-66.5001 344.839,-63 334.839,-59.5001 334.839,-66.5001"/>
</g>
<!-- Node11 -->
<g id="node11" class="node"><title>Node11</title>
<g id="a_node11"><a xlink:href="classore_1_1data_1_1_x_m_l_document.html#adc51f551b19a2cabd09440c56d4119d6" target="_top" xlink:title=" ">
<polygon fill="white" stroke="#666666" points="472,-30 348,-30 348,-0 472,-0 472,-30"/>
<text text-anchor="start" x="356" y="-18" font-family="Helvetica,sans-Serif" font-size="10.00">ore::data::XMLDocument</text>
<text text-anchor="middle" x="410" y="-7" font-family="Helvetica,sans-Serif" font-size="10.00">::getFirstNode</text>
</a>
</g>
</g>
<!-- Node9&#45;&gt;Node11 -->
<g id="edge10" class="edge"><title>Node9&#45;&gt;Node11</title>
<path fill="none" stroke="#63b8ff" d="M296.441,-47.9442C312.774,-43.1637 330.995,-37.8307 347.938,-32.8719"/>
<polygon fill="#63b8ff" stroke="#63b8ff" points="349.128,-36.1705 357.742,-30.0024 347.161,-29.4524 349.128,-36.1705"/>
</g>
</g>
</svg>
        <g id="navigator" transform="translate(0 0)" fill="#404254">
                <rect fill="#f2f5e9" fill-opacity="0.5" stroke="#606060" stroke-width=".5" x="0" y="0" width="60" height="60"/>
                <use id="zoomplus" xlink:href="#zoomPlus" x="17" y="9" onmousedown="handleZoom(evt,'in')"/>
                <use id="zoomminus" xlink:href="#zoomMin" x="42" y="9" onmousedown="handleZoom(evt,'out')"/>
                <use id="reset" xlink:href="#resetDef" x="30" y="36" onmousedown="handleReset()"/>
                <g id="arrowUp" xlink:href="#dirArrow" transform="translate(30 24)" onmousedown="handlePan(0,-1)">
                  <use xlink:href="#rim" fill="#404040">
                        <set attributeName="fill" to="#808080" begin="arrowUp.mouseover" end="arrowUp.mouseout"/>
                  </use>
                  <path fill="none" stroke="white" stroke-width="1.5" d="M0,-3.0v7 M-2.5,-0.5L0,-3.0L2.5,-0.5"/>
                </g>
                <g id="arrowRight" xlink:href="#dirArrow" transform="rotate(90) translate(36 -43)" onmousedown="handlePan(1,0)">
                  <use xlink:href="#rim" fill="#404040">
                        <set attributeName="fill" to="#808080" begin="arrowRight.mouseover" end="arrowRight.mouseout"/>
                  </use>
                  <path fill="none" stroke="white" stroke-width="1.5" d="M0,-3.0v7 M-2.5,-0.5L0,-3.0L2.5,-0.5"/>
                </g>
                <g id="arrowDown" xlink:href="#dirArrow" transform="rotate(180) translate(-30 -48)" onmousedown="handlePan(0,1)">
                  <use xlink:href="#rim" fill="#404040">
                        <set attributeName="fill" to="#808080" begin="arrowDown.mouseover" end="arrowDown.mouseout"/>
                  </use>
                  <path fill="none" stroke="white" stroke-width="1.5" d="M0,-3.0v7 M-2.5,-0.5L0,-3.0L2.5,-0.5"/>
                </g>
                <g id="arrowLeft" xlink:href="#dirArrow" transform="rotate(270) translate(-36 17)" onmousedown="handlePan(-1,0)">
                  <use xlink:href="#rim" fill="#404040">
                        <set attributeName="fill" to="#808080" begin="arrowLeft.mouseover" end="arrowLeft.mouseout"/>
                  </use>
                  <path fill="none" stroke="white" stroke-width="1.5" d="M0,-3.0v7 M-2.5,-0.5L0,-3.0L2.5,-0.5"/>
                </g>
        </g>
        <svg viewBox="0 0 15 15" width="100%" height="30px" preserveAspectRatio="xMaxYMin meet">
         <g id="arrow_out" transform="scale(0.3 0.3)">
          <a xlink:href="fxaccumulator_8cpp_ad4182442b70247e2f30091868d21c1d2_cgraph_org.svg" target="_base">
           <rect id="button" ry="5" rx="5" y="6" x="6" height="38" width="38"
                fill="#f2f5e9" fill-opacity="0.5" stroke="#606060" stroke-width="1.0"/>
           <path id="arrow"
             d="M 11.500037,31.436501 C 11.940474,20.09759 22.043105,11.32322 32.158766,21.979434 L 37.068811,17.246167 C 37.068811,17.246167 37.088388,32 37.088388,32 L 22.160133,31.978069 C 22.160133,31.978069 26.997745,27.140456 26.997745,27.140456 C 18.528582,18.264221 13.291696,25.230495 11.500037,31.436501 z"
             style="fill:#404040;"/>
          </a>
         </g>
        </svg>
</svg>
