<?xml version="1.0" encoding="UTF-8" standalone="no"?>
<!DOCTYPE svg PUBLIC "-//W3C//DTD SVG 1.1//EN"
 "http://www.w3.org/Graphics/SVG/1.1/DTD/svg11.dtd">
<!-- Generated by graphviz version 2.38.0 (20140413.2041)
 -->
<!-- Title: parseRealOrNull Pages: 1 -->
<svg width="191pt" height="45pt"
 viewBox="0.00 0.00 191.00 45.00" xmlns="http://www.w3.org/2000/svg" xmlns:xlink="http://www.w3.org/1999/xlink">
<g id="graph0" class="graph" transform="scale(1 1) rotate(0) translate(4 41)">
<title>parseRealOrNull</title>
<!-- Node1 -->
<g id="node1" class="node"><title>Node1</title>
<g id="a_node1"><a xlink:title="Convert text to Real, empty string to Null&lt;Real&gt;()">
<polygon fill="#999999" stroke="#666666" points="87,-19 0,-19 0,-0 87,-0 87,-19"/>
<text text-anchor="middle" x="43.5" y="-7" font-family="Helvetica,sans-Serif" font-size="10.00">parseRealOrNull</text>
</a>
</g>
</g>
<!-- Node2 -->
<g id="node2" class="node"><title>Node2</title>
<g id="a_node2"><a xlink:href="group__utilities.html#gad1db2a68f9a73667c3b4084d63955bdd" target="_top" xlink:title="Convert text to Real.">
<polygon fill="white" stroke="#666666" points="183,-19 123,-19 123,-0 183,-0 183,-19"/>
<text text-anchor="middle" x="153" y="-7" font-family="Helvetica,sans-Serif" font-size="10.00">parseReal</text>
</a>
</g>
</g>
<!-- Node1&#45;&gt;Node2 -->
<g id="edge1" class="edge"><title>Node1&#45;&gt;Node2</title>
<path fill="none" stroke="#63b8ff" d="M87.2957,-9.5C95.6942,-9.5 104.465,-9.5 112.741,-9.5"/>
<polygon fill="#63b8ff" stroke="#63b8ff" points="112.893,-13.0001 122.893,-9.5 112.893,-6.0001 112.893,-13.0001"/>
</g>
<!-- Node2&#45;&gt;Node2 -->
<g id="edge2" class="edge"><title>Node2&#45;&gt;Node2</title>
<path fill="none" stroke="#63b8ff" d="M136.354,-19.0828C128.256,-27.7337 133.805,-37 153,-37 164.997,-37 171.663,-33.3804 172.999,-28.5536"/>
<polygon fill="#63b8ff" stroke="#63b8ff" points="176.283,-27.3413 169.646,-19.0828 169.684,-29.6776 176.283,-27.3413"/>
</g>
</g>
</svg>
