<?xml version="1.0" encoding="UTF-8" standalone="no"?>
<!DOCTYPE svg PUBLIC "-//W3C//DTD SVG 1.1//EN"
 "http://www.w3.org/Graphics/SVG/1.1/DTD/svg11.dtd">
<!-- Generated by graphviz version 2.38.0 (20140413.2041)
 -->
<!-- Title: parseMonth Pages: 1 -->
<!--zoomable 234 -->
<svg id="main" version="1.1" xmlns="http://www.w3.org/2000/svg" xmlns:xlink="http://www.w3.org/1999/xlink" xml:space="preserve" onload="init(evt)">
<style type="text/css"><![CDATA[
.edge:hover path { stroke: red; }
.edge:hover polygon { stroke: red; fill: red; }
]]></style>
<script type="text/javascript"><![CDATA[
var edges = document.getElementsByTagName('g');
if (edges && edges.length) {
  for (var i=0;i<edges.length;i++) {
    if (edges[i].id.substr(0,4)=='edge') {
      edges[i].setAttribute('class','edge');
    }
  }
}
]]></script>
        <defs>
                <circle id="rim" cx="0" cy="0" r="7"/>
                <circle id="rim2" cx="0" cy="0" r="3.5"/>
                <g id="zoomPlus">
                        <use xlink:href="#rim" fill="#404040">
                                <set attributeName="fill" to="#808080" begin="zoomplus.mouseover" end="zoomplus.mouseout"/>
                        </use>
                        <path d="M-4,0h8M0,-4v8" fill="none" stroke="white" stroke-width="1.5" pointer-events="none"/>
                </g>
                <g id="zoomMin">
                        <use xlink:href="#rim" fill="#404040">
                                <set attributeName="fill" to="#808080" begin="zoomminus.mouseover" end="zoomminus.mouseout"/>
                        </use>
                        <path d="M-4,0h8" fill="none" stroke="white" stroke-width="1.5" pointer-events="none"/>
                </g>
                <g id="dirArrow">
                        <path fill="none" stroke="white" stroke-width="1.5" d="M0,-3.0v7 M-2.5,-0.5L0,-3.0L2.5,-0.5"/>
                </g>
               <g id="resetDef">
                       <use xlink:href="#rim2" fill="#404040">
                               <set attributeName="fill" to="#808080" begin="reset.mouseover" end="reset.mouseout"/>
                       </use>
               </g>
        </defs>

<script type="text/javascript">
var viewWidth = 643;
var viewHeight = 234;
var sectionId = 'dynsection-82';
</script>
<script xlink:href="svgpan.js"/>
<svg id="graph" class="graph">
<g id="viewport">
<title>parseMonth</title>
<!-- Node1 -->
<g id="node1" class="node"><title>Node1</title>
<g id="a_node1"><a xlink:title=" ">
<polygon fill="#999999" stroke="#666666" points="635,-67.5 567,-67.5 567,-48.5 635,-48.5 635,-67.5"/>
<text text-anchor="middle" x="601" y="-55.5" font-family="Helvetica,sans-Serif" font-size="10.00">parseMonth</text>
</a>
</g>
</g>
<!-- Node2 -->
<g id="node2" class="node"><title>Node2</title>
<g id="a_node2"><a xlink:href="classore_1_1data_1_1_commodity_future_convention.html#a9169b2d8ee8001dbb250c4ce2c26818c" target="_top" xlink:title="Implementation.">
<polygon fill="white" stroke="#666666" points="527,-146 389,-146 389,-116 527,-116 527,-146"/>
<text text-anchor="start" x="397" y="-134" font-family="Helvetica,sans-Serif" font-size="10.00">ore::data::CommodityFuture</text>
<text text-anchor="middle" x="458" y="-123" font-family="Helvetica,sans-Serif" font-size="10.00">Convention::build</text>
</a>
</g>
</g>
<!-- Node1&#45;&gt;Node2 -->
<g id="edge1" class="edge"><title>Node1&#45;&gt;Node2</title>
<path fill="none" stroke="#63b8ff" d="M572.539,-72.2176C548.28,-84.7772 513.008,-103.039 488.231,-115.866"/>
<polygon fill="#63b8ff" stroke="#63b8ff" points="574.295,-75.2493 581.567,-67.5435 571.077,-69.033 574.295,-75.2493"/>
</g>
<!-- Node4 -->
<g id="node4" class="node"><title>Node4</title>
<g id="a_node4"><a xlink:href="classore_1_1data_1_1_commodity_future_convention.html#a7741ae0fc924943de5bfe02928262eb7" target="_top" xlink:title="Serialisation.">
<polygon fill="white" stroke="#666666" points="138,-171 0,-171 0,-141 138,-141 138,-171"/>
<text text-anchor="start" x="8" y="-159" font-family="Helvetica,sans-Serif" font-size="10.00">ore::data::CommodityFuture</text>
<text text-anchor="middle" x="69" y="-148" font-family="Helvetica,sans-Serif" font-size="10.00">Convention::fromXML</text>
</a>
</g>
</g>
<!-- Node1&#45;&gt;Node4 -->
<g id="edge7" class="edge"><title>Node1&#45;&gt;Node4</title>
<path fill="none" stroke="#63b8ff" d="M556.887,-51.702C478.098,-41.9549 306.751,-28.9779 174,-77 137.113,-90.3436 102.586,-121.73 84.0755,-140.68"/>
<polygon fill="#63b8ff" stroke="#63b8ff" points="556.564,-55.1892 566.928,-52.9896 557.454,-48.246 556.564,-55.1892"/>
</g>
<!-- Node6 -->
<g id="node6" class="node"><title>Node6</title>
<g id="a_node6"><a xlink:href="classore_1_1data_1_1_commodity_position.html#ab1db499ff5e65c59fd2009d62276fdaf" target="_top" xlink:title=" ">
<polygon fill="white" stroke="#666666" points="531,-30 385,-30 385,-0 531,-0 531,-30"/>
<text text-anchor="start" x="393" y="-18" font-family="Helvetica,sans-Serif" font-size="10.00">ore::data::CommodityPosition</text>
<text text-anchor="middle" x="458" y="-7" font-family="Helvetica,sans-Serif" font-size="10.00">::build</text>
</a>
</g>
</g>
<!-- Node1&#45;&gt;Node6 -->
<g id="edge6" class="edge"><title>Node1&#45;&gt;Node6</title>
<path fill="none" stroke="#63b8ff" d="M558.701,-45.4052C542.886,-40.5821 524.689,-35.0329 508.207,-30.0063"/>
<polygon fill="#63b8ff" stroke="#63b8ff" points="558.121,-48.8876 568.708,-48.4569 560.163,-42.192 558.121,-48.8876"/>
</g>
<!-- Node3 -->
<g id="node3" class="node"><title>Node3</title>
<g id="a_node3"><a xlink:href="classore_1_1data_1_1_commodity_future_convention_1_1_averaging_data.html#a7741ae0fc924943de5bfe02928262eb7" target="_top" xlink:title="Serialisation.">
<polygon fill="white" stroke="#666666" points="330.5,-225.5 192.5,-225.5 192.5,-184.5 330.5,-184.5 330.5,-225.5"/>
<text text-anchor="start" x="200.5" y="-213.5" font-family="Helvetica,sans-Serif" font-size="10.00">ore::data::CommodityFuture</text>
<text text-anchor="start" x="200.5" y="-202.5" font-family="Helvetica,sans-Serif" font-size="10.00">Convention::AveragingData</text>
<text text-anchor="middle" x="261.5" y="-191.5" font-family="Helvetica,sans-Serif" font-size="10.00">::fromXML</text>
</a>
</g>
</g>
<!-- Node2&#45;&gt;Node3 -->
<g id="edge2" class="edge"><title>Node2&#45;&gt;Node3</title>
<path fill="none" stroke="#63b8ff" d="M407.66,-149.772C379.891,-160.337 345.174,-173.545 316.656,-184.396"/>
<polygon fill="#63b8ff" stroke="#63b8ff" points="409.069,-152.981 417.171,-146.154 406.58,-146.438 409.069,-152.981"/>
</g>
<!-- Node2&#45;&gt;Node4 -->
<g id="edge5" class="edge"><title>Node2&#45;&gt;Node4</title>
<path fill="none" stroke="#63b8ff" d="M378.537,-136.069C308.009,-140.625 205.469,-147.249 138.264,-151.59"/>
<polygon fill="#63b8ff" stroke="#63b8ff" points="378.949,-139.549 388.703,-135.412 378.498,-132.564 378.949,-139.549"/>
</g>
<!-- Node5 -->
<g id="node5" class="node"><title>Node5</title>
<g id="a_node5"><a xlink:href="classore_1_1data_1_1_commodity_future_convention_1_1_off_peak_power_index_data.html#a7741ae0fc924943de5bfe02928262eb7" target="_top" xlink:title=" ">
<polygon fill="white" stroke="#666666" points="349,-127.5 174,-127.5 174,-86.5 349,-86.5 349,-127.5"/>
<text text-anchor="start" x="182" y="-115.5" font-family="Helvetica,sans-Serif" font-size="10.00">ore::data::CommodityFuture</text>
<text text-anchor="start" x="182" y="-104.5" font-family="Helvetica,sans-Serif" font-size="10.00">Convention::OffPeakPowerIndexData</text>
<text text-anchor="middle" x="261.5" y="-93.5" font-family="Helvetica,sans-Serif" font-size="10.00">::fromXML</text>
</a>
</g>
</g>
<!-- Node2&#45;&gt;Node5 -->
<g id="edge4" class="edge"><title>Node2&#45;&gt;Node5</title>
<path fill="none" stroke="#63b8ff" d="M378.929,-121.367C369.18,-120.164 359.164,-118.928 349.293,-117.71"/>
<polygon fill="#63b8ff" stroke="#63b8ff" points="378.62,-124.855 388.973,-122.606 379.477,-117.908 378.62,-124.855"/>
</g>
<!-- Node3&#45;&gt;Node4 -->
<g id="edge3" class="edge"><title>Node3&#45;&gt;Node4</title>
<path fill="none" stroke="#63b8ff" d="M182.333,-184.894C164.27,-180.248 145.36,-175.384 128.317,-171"/>
<polygon fill="#63b8ff" stroke="#63b8ff" points="181.707,-188.347 192.263,-187.448 183.45,-181.567 181.707,-188.347"/>
</g>
</g>
</svg>
        <g id="navigator" transform="translate(0 0)" fill="#404254">
                <rect fill="#f2f5e9" fill-opacity="0.5" stroke="#606060" stroke-width=".5" x="0" y="0" width="60" height="60"/>
                <use id="zoomplus" xlink:href="#zoomPlus" x="17" y="9" onmousedown="handleZoom(evt,'in')"/>
                <use id="zoomminus" xlink:href="#zoomMin" x="42" y="9" onmousedown="handleZoom(evt,'out')"/>
                <use id="reset" xlink:href="#resetDef" x="30" y="36" onmousedown="handleReset()"/>
                <g id="arrowUp" xlink:href="#dirArrow" transform="translate(30 24)" onmousedown="handlePan(0,-1)">
                  <use xlink:href="#rim" fill="#404040">
                        <set attributeName="fill" to="#808080" begin="arrowUp.mouseover" end="arrowUp.mouseout"/>
                  </use>
                  <path fill="none" stroke="white" stroke-width="1.5" d="M0,-3.0v7 M-2.5,-0.5L0,-3.0L2.5,-0.5"/>
                </g>
                <g id="arrowRight" xlink:href="#dirArrow" transform="rotate(90) translate(36 -43)" onmousedown="handlePan(1,0)">
                  <use xlink:href="#rim" fill="#404040">
                        <set attributeName="fill" to="#808080" begin="arrowRight.mouseover" end="arrowRight.mouseout"/>
                  </use>
                  <path fill="none" stroke="white" stroke-width="1.5" d="M0,-3.0v7 M-2.5,-0.5L0,-3.0L2.5,-0.5"/>
                </g>
                <g id="arrowDown" xlink:href="#dirArrow" transform="rotate(180) translate(-30 -48)" onmousedown="handlePan(0,1)">
                  <use xlink:href="#rim" fill="#404040">
                        <set attributeName="fill" to="#808080" begin="arrowDown.mouseover" end="arrowDown.mouseout"/>
                  </use>
                  <path fill="none" stroke="white" stroke-width="1.5" d="M0,-3.0v7 M-2.5,-0.5L0,-3.0L2.5,-0.5"/>
                </g>
                <g id="arrowLeft" xlink:href="#dirArrow" transform="rotate(270) translate(-36 17)" onmousedown="handlePan(-1,0)">
                  <use xlink:href="#rim" fill="#404040">
                        <set attributeName="fill" to="#808080" begin="arrowLeft.mouseover" end="arrowLeft.mouseout"/>
                  </use>
                  <path fill="none" stroke="white" stroke-width="1.5" d="M0,-3.0v7 M-2.5,-0.5L0,-3.0L2.5,-0.5"/>
                </g>
        </g>
        <svg viewBox="0 0 15 15" width="100%" height="30px" preserveAspectRatio="xMaxYMin meet">
         <g id="arrow_out" transform="scale(0.3 0.3)">
          <a xlink:href="group__utilities_ga23ece47d1c91b88847b78bcb8516e721_icgraph_org.svg" target="_base">
           <rect id="button" ry="5" rx="5" y="6" x="6" height="38" width="38"
                fill="#f2f5e9" fill-opacity="0.5" stroke="#606060" stroke-width="1.0"/>
           <path id="arrow"
             d="M 11.500037,31.436501 C 11.940474,20.09759 22.043105,11.32322 32.158766,21.979434 L 37.068811,17.246167 C 37.068811,17.246167 37.088388,32 37.088388,32 L 22.160133,31.978069 C 22.160133,31.978069 26.997745,27.140456 26.997745,27.140456 C 18.528582,18.264221 13.291696,25.230495 11.500037,31.436501 z"
             style="fill:#404040;"/>
          </a>
         </g>
        </svg>
</svg>
