<?xml version="1.0" encoding="UTF-8" standalone="no"?>
<!DOCTYPE svg PUBLIC "-//W3C//DTD SVG 1.1//EN"
 "http://www.w3.org/Graphics/SVG/1.1/DTD/svg11.dtd">
<!-- Generated by graphviz version 2.38.0 (20140413.2041)
 -->
<!-- Title: parseDateOrPeriod Pages: 1 -->
<svg width="317pt" height="100pt"
 viewBox="0.00 0.00 317.00 100.00" xmlns="http://www.w3.org/2000/svg" xmlns:xlink="http://www.w3.org/1999/xlink">
<g id="graph0" class="graph" transform="scale(1 1) rotate(0) translate(4 96)">
<title>parseDateOrPeriod</title>
<!-- Node1 -->
<g id="node1" class="node"><title>Node1</title>
<g id="a_node1"><a xlink:title="Convert text to QuantLib::Period or QuantLib::Date.">
<polygon fill="#999999" stroke="#666666" points="99,-37 0,-37 0,-18 99,-18 99,-37"/>
<text text-anchor="middle" x="49.5" y="-25" font-family="Helvetica,sans-Serif" font-size="10.00">parseDateOrPeriod</text>
</a>
</g>
</g>
<!-- Node2 -->
<g id="node2" class="node"><title>Node2</title>
<g id="a_node2"><a xlink:href="group__utilities.html#ga59b5fdda574d90facae95dec2d13040d" target="_top" xlink:title="Convert std::string to QuantLib::Date.">
<polygon fill="white" stroke="#666666" points="199.5,-56 138.5,-56 138.5,-37 199.5,-37 199.5,-56"/>
<text text-anchor="middle" x="169" y="-44" font-family="Helvetica,sans-Serif" font-size="10.00">parseDate</text>
</a>
</g>
</g>
<!-- Node1&#45;&gt;Node2 -->
<g id="edge1" class="edge"><title>Node1&#45;&gt;Node2</title>
<path fill="none" stroke="#63b8ff" d="M99.3098,-35.3926C108.93,-36.9483 118.917,-38.5632 128.197,-40.0638"/>
<polygon fill="#63b8ff" stroke="#63b8ff" points="127.887,-43.5591 138.318,-41.7003 129.005,-36.6488 127.887,-43.5591"/>
</g>
<!-- Node5 -->
<g id="node5" class="node"><title>Node5</title>
<g id="a_node5"><a xlink:href="group__utilities.html#ga8e0623e2cb01e250e9cfec4619256208" target="_top" xlink:title="Convert text to QuantLib::Period.">
<polygon fill="white" stroke="#666666" points="203,-19 135,-19 135,-0 203,-0 203,-19"/>
<text text-anchor="middle" x="169" y="-7" font-family="Helvetica,sans-Serif" font-size="10.00">parsePeriod</text>
</a>
</g>
</g>
<!-- Node1&#45;&gt;Node5 -->
<g id="edge6" class="edge"><title>Node1&#45;&gt;Node5</title>
<path fill="none" stroke="#63b8ff" d="M99.3098,-20.0228C107.827,-18.718 116.631,-17.3693 124.978,-16.0906"/>
<polygon fill="#63b8ff" stroke="#63b8ff" points="125.528,-19.5473 134.882,-14.5733 124.468,-12.628 125.528,-19.5473"/>
</g>
<!-- Node2&#45;&gt;Node2 -->
<g id="edge2" class="edge"><title>Node2&#45;&gt;Node2</title>
<path fill="none" stroke="#63b8ff" d="M152.971,-56.0828C145.172,-64.7337 150.516,-74 169,-74 180.553,-74 186.972,-70.3804 188.258,-65.5536"/>
<polygon fill="#63b8ff" stroke="#63b8ff" points="191.569,-64.4184 185.029,-56.0828 184.944,-66.6773 191.569,-64.4184"/>
</g>
<!-- Node3 -->
<g id="node3" class="node"><title>Node3</title>
<g id="a_node3"><a xlink:href="group__utilities.html#gaecd67eda4fb5f4859bb8f6d383547721" target="_top" xlink:title="Convert text to QuantLib::Integer.">
<polygon fill="white" stroke="#666666" points="309,-74 239,-74 239,-55 309,-55 309,-74"/>
<text text-anchor="middle" x="274" y="-62" font-family="Helvetica,sans-Serif" font-size="10.00">parseInteger</text>
</a>
</g>
</g>
<!-- Node2&#45;&gt;Node3 -->
<g id="edge3" class="edge"><title>Node2&#45;&gt;Node3</title>
<path fill="none" stroke="#63b8ff" d="M199.516,-51.6581C208.604,-53.2464 218.818,-55.0312 228.674,-56.7536"/>
<polygon fill="#63b8ff" stroke="#63b8ff" points="228.3,-60.2412 238.753,-58.5151 229.505,-53.3457 228.3,-60.2412"/>
</g>
<!-- Node4 -->
<g id="node4" class="node"><title>Node4</title>
<g id="a_node4"><a xlink:href="namespaceore_1_1data.html#a777e216dee6069b548bb87da7152699e" target="_top" xlink:title=" ">
<polygon fill="white" stroke="#666666" points="291.5,-37 256.5,-37 256.5,-18 291.5,-18 291.5,-37"/>
<text text-anchor="middle" x="274" y="-25" font-family="Helvetica,sans-Serif" font-size="10.00">size</text>
</a>
</g>
</g>
<!-- Node2&#45;&gt;Node4 -->
<g id="edge5" class="edge"><title>Node2&#45;&gt;Node4</title>
<path fill="none" stroke="#63b8ff" d="M199.516,-41.0554C214.201,-38.3465 231.822,-35.096 246.127,-32.4572"/>
<polygon fill="#63b8ff" stroke="#63b8ff" points="247.117,-35.8337 256.316,-30.5776 245.847,-28.9498 247.117,-35.8337"/>
</g>
<!-- Node3&#45;&gt;Node3 -->
<g id="edge4" class="edge"><title>Node3&#45;&gt;Node3</title>
<path fill="none" stroke="#63b8ff" d="M257.971,-74.0828C250.172,-82.7337 255.516,-92 274,-92 285.553,-92 291.972,-88.3804 293.258,-83.5536"/>
<polygon fill="#63b8ff" stroke="#63b8ff" points="296.569,-82.4184 290.029,-74.0828 289.944,-84.6773 296.569,-82.4184"/>
</g>
</g>
</svg>
