<?xml version="1.0" encoding="UTF-8" standalone="no"?>
<!DOCTYPE svg PUBLIC "-//W3C//DTD SVG 1.1//EN"
 "http://www.w3.org/Graphics/SVG/1.1/DTD/svg11.dtd">
<!-- Generated by graphviz version 2.38.0 (20140413.2041)
 -->
<!-- Title: parseEquityIndex Pages: 1 -->
<!--zoomable 396 -->
<svg id="main" version="1.1" xmlns="http://www.w3.org/2000/svg" xmlns:xlink="http://www.w3.org/1999/xlink" xml:space="preserve" onload="init(evt)">
<style type="text/css"><![CDATA[
.edge:hover path { stroke: red; }
.edge:hover polygon { stroke: red; fill: red; }
]]></style>
<script type="text/javascript"><![CDATA[
var edges = document.getElementsByTagName('g');
if (edges && edges.length) {
  for (var i=0;i<edges.length;i++) {
    if (edges[i].id.substr(0,4)=='edge') {
      edges[i].setAttribute('class','edge');
    }
  }
}
]]></script>
        <defs>
                <circle id="rim" cx="0" cy="0" r="7"/>
                <circle id="rim2" cx="0" cy="0" r="3.5"/>
                <g id="zoomPlus">
                        <use xlink:href="#rim" fill="#404040">
                                <set attributeName="fill" to="#808080" begin="zoomplus.mouseover" end="zoomplus.mouseout"/>
                        </use>
                        <path d="M-4,0h8M0,-4v8" fill="none" stroke="white" stroke-width="1.5" pointer-events="none"/>
                </g>
                <g id="zoomMin">
                        <use xlink:href="#rim" fill="#404040">
                                <set attributeName="fill" to="#808080" begin="zoomminus.mouseover" end="zoomminus.mouseout"/>
                        </use>
                        <path d="M-4,0h8" fill="none" stroke="white" stroke-width="1.5" pointer-events="none"/>
                </g>
                <g id="dirArrow">
                        <path fill="none" stroke="white" stroke-width="1.5" d="M0,-3.0v7 M-2.5,-0.5L0,-3.0L2.5,-0.5"/>
                </g>
               <g id="resetDef">
                       <use xlink:href="#rim2" fill="#404040">
                               <set attributeName="fill" to="#808080" begin="reset.mouseover" end="reset.mouseout"/>
                       </use>
               </g>
        </defs>

<script type="text/javascript">
var viewWidth = 794;
var viewHeight = 396;
var sectionId = 'dynsection-17';
</script>
<script xlink:href="svgpan.js"/>
<svg id="graph" class="graph">
<g id="viewport">
<title>parseEquityIndex</title>
<!-- Node1 -->
<g id="node1" class="node"><title>Node1</title>
<g id="a_node1"><a xlink:title="Convert std::string (e.g SP5) to QuantExt::EquityIndex.">
<polygon fill="#999999" stroke="#666666" points="786,-296.5 694,-296.5 694,-277.5 786,-277.5 786,-296.5"/>
<text text-anchor="middle" x="740" y="-284.5" font-family="Helvetica,sans-Serif" font-size="10.00">parseEquityIndex</text>
</a>
</g>
</g>
<!-- Node2 -->
<g id="node2" class="node"><title>Node2</title>
<g id="a_node2"><a xlink:href="classore_1_1data_1_1_index_info.html#ad57da3c43a92855a25171e84fe96eed0" target="_top" xlink:title=" ">
<polygon fill="white" stroke="#666666" points="629.5,-388 530.5,-388 530.5,-358 629.5,-358 629.5,-388"/>
<text text-anchor="start" x="538.5" y="-376" font-family="Helvetica,sans-Serif" font-size="10.00">ore::data::IndexInfo</text>
<text text-anchor="middle" x="580" y="-365" font-family="Helvetica,sans-Serif" font-size="10.00">::IndexInfo</text>
</a>
</g>
</g>
<!-- Node1&#45;&gt;Node2 -->
<g id="edge1" class="edge"><title>Node1&#45;&gt;Node2</title>
<path fill="none" stroke="#63b8ff" d="M721.03,-303.753C705.404,-317.552 681.619,-336.772 658,-349 649.171,-353.571 639.317,-357.452 629.685,-360.675"/>
<polygon fill="#63b8ff" stroke="#63b8ff" points="723.741,-306.022 728.82,-296.724 719.051,-300.825 723.741,-306.022"/>
</g>
<!-- Node3 -->
<g id="node3" class="node"><title>Node3</title>
<g id="a_node3"><a xlink:href="test_2fixings_8cpp.html#a66b14c06cf8de35044129080cdb1a2f8" target="_top" xlink:title=" ">
<polygon fill="white" stroke="#666666" points="658,-339.5 502,-339.5 502,-320.5 658,-320.5 658,-339.5"/>
<text text-anchor="middle" x="580" y="-327.5" font-family="Helvetica,sans-Serif" font-size="10.00">BOOST_FIXTURE_TEST_CASE</text>
</a>
</g>
</g>
<!-- Node1&#45;&gt;Node3 -->
<g id="edge2" class="edge"><title>Node1&#45;&gt;Node3</title>
<path fill="none" stroke="#63b8ff" d="M698.031,-299.538C685.245,-303.344 671.068,-307.454 658,-311 646.04,-314.245 632.973,-317.557 621.055,-320.488"/>
<polygon fill="#63b8ff" stroke="#63b8ff" points="699.366,-302.792 707.94,-296.568 697.356,-296.087 699.366,-302.792"/>
</g>
<!-- Node4 -->
<g id="node4" class="node"><title>Node4</title>
<g id="a_node4"><a xlink:href="classore_1_1data_1_1_equity_touch_option.html#a9c636e31b77522b708a0b20e376209aa" target="_top" xlink:title="Build QuantLib/QuantExt instrument, link pricing engine.">
<polygon fill="white" stroke="#666666" points="651.5,-302 508.5,-302 508.5,-272 651.5,-272 651.5,-302"/>
<text text-anchor="start" x="516.5" y="-290" font-family="Helvetica,sans-Serif" font-size="10.00">ore::data::EquityTouchOption</text>
<text text-anchor="middle" x="580" y="-279" font-family="Helvetica,sans-Serif" font-size="10.00">::build</text>
</a>
</g>
</g>
<!-- Node1&#45;&gt;Node4 -->
<g id="edge3" class="edge"><title>Node1&#45;&gt;Node4</title>
<path fill="none" stroke="#63b8ff" d="M683.618,-287C673.285,-287 662.358,-287 651.639,-287"/>
<polygon fill="#63b8ff" stroke="#63b8ff" points="683.724,-290.5 693.724,-287 683.724,-283.5 683.724,-290.5"/>
</g>
<!-- Node5 -->
<g id="node5" class="node"><title>Node5</title>
<g id="a_node5"><a xlink:href="group__utilities.html#ga15794f6969a5e5d00a51e3c15ad07fc1" target="_top" xlink:title="Return true if the indexName is that of an EquityIndex, otherwise false.">
<polygon fill="white" stroke="#666666" points="617.5,-253.5 542.5,-253.5 542.5,-234.5 617.5,-234.5 617.5,-253.5"/>
<text text-anchor="middle" x="580" y="-241.5" font-family="Helvetica,sans-Serif" font-size="10.00">isEquityIndex</text>
</a>
</g>
</g>
<!-- Node1&#45;&gt;Node5 -->
<g id="edge4" class="edge"><title>Node1&#45;&gt;Node5</title>
<path fill="none" stroke="#63b8ff" d="M698.031,-274.462C685.245,-270.656 671.068,-266.546 658,-263 644.844,-259.43 630.348,-255.78 617.516,-252.645"/>
<polygon fill="#63b8ff" stroke="#63b8ff" points="697.356,-277.913 707.94,-277.432 699.366,-271.208 697.356,-277.913"/>
</g>
<!-- Node7 -->
<g id="node7" class="node"><title>Node7</title>
<g id="a_node7"><a xlink:href="group__utilities.html#gab2d26348315b387f1b203be151c09fbf" target="_top" xlink:title="Convert std::string to QuantLib::Index.">
<polygon fill="white" stroke="#666666" points="612,-168.5 548,-168.5 548,-149.5 612,-149.5 612,-168.5"/>
<text text-anchor="middle" x="580" y="-156.5" font-family="Helvetica,sans-Serif" font-size="10.00">parseIndex</text>
</a>
</g>
</g>
<!-- Node1&#45;&gt;Node7 -->
<g id="edge6" class="edge"><title>Node1&#45;&gt;Node7</title>
<path fill="none" stroke="#63b8ff" d="M719.038,-270.828C685.782,-243.886 620.025,-190.615 593.013,-168.732"/>
<polygon fill="#63b8ff" stroke="#63b8ff" points="717.151,-273.804 727.124,-277.379 721.557,-268.365 717.151,-273.804"/>
</g>
<!-- Node6 -->
<g id="node6" class="node"><title>Node6</title>
<g id="a_node6"><a xlink:href="classore_1_1data_1_1_asian_option.html#a8e1ee54795e991c3756e0c78e900bd8a" target="_top" xlink:title=" ">
<polygon fill="white" stroke="#666666" points="448,-308 334,-308 334,-278 448,-278 448,-308"/>
<text text-anchor="start" x="342" y="-296" font-family="Helvetica,sans-Serif" font-size="10.00">ore::data::AsianOption</text>
<text text-anchor="middle" x="391" y="-285" font-family="Helvetica,sans-Serif" font-size="10.00">::underlyingIndices</text>
</a>
</g>
</g>
<!-- Node5&#45;&gt;Node6 -->
<g id="edge5" class="edge"><title>Node5&#45;&gt;Node6</title>
<path fill="none" stroke="#63b8ff" d="M532.331,-255.322C522.313,-257.807 511.795,-260.456 502,-263 483.799,-267.727 463.958,-273.077 446.201,-277.936"/>
<polygon fill="#63b8ff" stroke="#63b8ff" points="533.267,-258.696 542.138,-252.903 531.59,-251.9 533.267,-258.696"/>
</g>
<!-- Node8 -->
<g id="node8" class="node"><title>Node8</title>
<g id="a_node8"><a xlink:href="namespaceore_1_1data.html#afbdabb3acc8c9fd3e013b2d5b9b71660" target="_top" xlink:title="Utility to write a vector of fixings in the QuantLib index manager&#39;s fixing history.">
<polygon fill="white" stroke="#666666" points="426.5,-259.5 355.5,-259.5 355.5,-240.5 426.5,-240.5 426.5,-259.5"/>
<text text-anchor="middle" x="391" y="-247.5" font-family="Helvetica,sans-Serif" font-size="10.00">applyFixings</text>
</a>
</g>
</g>
<!-- Node7&#45;&gt;Node8 -->
<g id="edge7" class="edge"><title>Node7&#45;&gt;Node8</title>
<path fill="none" stroke="#63b8ff" d="M558.707,-174.748C536.906,-190.97 500.699,-215.947 466,-231 453.588,-236.384 439.32,-240.494 426.644,-243.491"/>
<polygon fill="#63b8ff" stroke="#63b8ff" points="560.987,-177.412 566.856,-168.59 556.767,-171.827 560.987,-177.412"/>
</g>
<!-- Node11 -->
<g id="node11" class="node"><title>Node11</title>
<g id="a_node11"><a xlink:href="classore_1_1data_1_1_asian_option.html#a9c636e31b77522b708a0b20e376209aa" target="_top" xlink:title="Build QuantLib/QuantExt instrument, link pricing engine.">
<polygon fill="white" stroke="#666666" points="448,-222 334,-222 334,-192 448,-192 448,-222"/>
<text text-anchor="start" x="342" y="-210" font-family="Helvetica,sans-Serif" font-size="10.00">ore::data::AsianOption</text>
<text text-anchor="middle" x="391" y="-199" font-family="Helvetica,sans-Serif" font-size="10.00">::build</text>
</a>
</g>
</g>
<!-- Node7&#45;&gt;Node11 -->
<g id="edge10" class="edge"><title>Node7&#45;&gt;Node11</title>
<path fill="none" stroke="#63b8ff" d="M537.665,-169.61C511.305,-176.376 476.809,-185.231 448.004,-192.625"/>
<polygon fill="#63b8ff" stroke="#63b8ff" points="538.885,-172.911 547.7,-167.034 537.144,-166.13 538.885,-172.911"/>
</g>
<!-- Node12 -->
<g id="node12" class="node"><title>Node12</title>
<g id="a_node12"><a xlink:href="classore_1_1data_1_1_commodity_swap.html#aa6ef9bf809c54ebef188c02a9f5e9ae0" target="_top" xlink:title="Add underlying Commodity names.">
<polygon fill="white" stroke="#666666" points="458,-174 324,-174 324,-144 458,-144 458,-174"/>
<text text-anchor="start" x="332" y="-162" font-family="Helvetica,sans-Serif" font-size="10.00">ore::data::CommoditySwap</text>
<text text-anchor="middle" x="391" y="-151" font-family="Helvetica,sans-Serif" font-size="10.00">::underlyingIndices</text>
</a>
</g>
</g>
<!-- Node7&#45;&gt;Node12 -->
<g id="edge11" class="edge"><title>Node7&#45;&gt;Node12</title>
<path fill="none" stroke="#63b8ff" d="M537.496,-159C514.251,-159 484.718,-159 458.343,-159"/>
<polygon fill="#63b8ff" stroke="#63b8ff" points="537.7,-162.5 547.7,-159 537.7,-155.5 537.7,-162.5"/>
</g>
<!-- Node13 -->
<g id="node13" class="node"><title>Node13</title>
<g id="a_node13"><a xlink:href="classore_1_1data_1_1_commodity_option_strip.html#ace1ee35a5870d6d6824cba8e63dfd3b8" target="_top" xlink:title="Add underlying Commodity names.">
<polygon fill="white" stroke="#666666" points="460.5,-126 321.5,-126 321.5,-96 460.5,-96 460.5,-126"/>
<text text-anchor="start" x="329.5" y="-114" font-family="Helvetica,sans-Serif" font-size="10.00">ore::data::CommodityOption</text>
<text text-anchor="middle" x="391" y="-103" font-family="Helvetica,sans-Serif" font-size="10.00">Strip::underlyingIndices</text>
</a>
</g>
</g>
<!-- Node7&#45;&gt;Node13 -->
<g id="edge12" class="edge"><title>Node7&#45;&gt;Node13</title>
<path fill="none" stroke="#63b8ff" d="M537.947,-148.462C512.35,-141.892 479.001,-133.332 450.645,-126.053"/>
<polygon fill="#63b8ff" stroke="#63b8ff" points="537.144,-151.87 547.7,-150.966 538.885,-145.089 537.144,-151.87"/>
</g>
<!-- Node14 -->
<g id="node14" class="node"><title>Node14</title>
<g id="a_node14"><a xlink:href="classore_1_1data_1_1_commodity_swaption.html#a8e1ee54795e991c3756e0c78e900bd8a" target="_top" xlink:title="Add underlying Commodity names.">
<polygon fill="white" stroke="#666666" points="466,-78 316,-78 316,-48 466,-48 466,-78"/>
<text text-anchor="start" x="324" y="-66" font-family="Helvetica,sans-Serif" font-size="10.00">ore::data::CommoditySwaption</text>
<text text-anchor="middle" x="391" y="-55" font-family="Helvetica,sans-Serif" font-size="10.00">::underlyingIndices</text>
</a>
</g>
</g>
<!-- Node7&#45;&gt;Node14 -->
<g id="edge13" class="edge"><title>Node7&#45;&gt;Node14</title>
<path fill="none" stroke="#63b8ff" d="M558.155,-143.422C536.158,-127.546 500.028,-103.039 466,-87 459.036,-83.7177 451.505,-80.7073 444.004,-78.0103"/>
<polygon fill="#63b8ff" stroke="#63b8ff" points="556.261,-146.373 566.4,-149.448 560.392,-140.722 556.261,-146.373"/>
</g>
<!-- Node15 -->
<g id="node15" class="node"><title>Node15</title>
<g id="a_node15"><a xlink:href="classore_1_1data_1_1_swap.html#aa80b421a434b9b4e99b95cf32cfcb22f" target="_top" xlink:title="Add underlying index names.">
<polygon fill="white" stroke="#666666" points="458.5,-30 323.5,-30 323.5,-0 458.5,-0 458.5,-30"/>
<text text-anchor="start" x="331.5" y="-18" font-family="Helvetica,sans-Serif" font-size="10.00">ore::data::Swap::underlying</text>
<text text-anchor="middle" x="391" y="-7" font-family="Helvetica,sans-Serif" font-size="10.00">Indices</text>
</a>
</g>
</g>
<!-- Node7&#45;&gt;Node15 -->
<g id="edge14" class="edge"><title>Node7&#45;&gt;Node15</title>
<path fill="none" stroke="#63b8ff" d="M566.759,-141.14C547.999,-115.061 509.685,-66.6648 466,-39 460.637,-35.6038 454.749,-32.6457 448.71,-30.0793"/>
<polygon fill="#63b8ff" stroke="#63b8ff" points="563.934,-143.206 572.556,-149.363 569.655,-139.173 563.934,-143.206"/>
</g>
<!-- Node9 -->
<g id="node9" class="node"><title>Node9</title>
<g id="a_node9"><a xlink:href="classore_1_1data_1_1_todays_market.html#a0816e5ec53019bee5353fea5fc006eb1" target="_top" xlink:title=" ">
<polygon fill="white" stroke="#666666" points="280,-265 158,-265 158,-235 280,-235 280,-265"/>
<text text-anchor="start" x="166" y="-253" font-family="Helvetica,sans-Serif" font-size="10.00">ore::data::TodaysMarket</text>
<text text-anchor="middle" x="219" y="-242" font-family="Helvetica,sans-Serif" font-size="10.00">::initialise</text>
</a>
</g>
</g>
<!-- Node8&#45;&gt;Node9 -->
<g id="edge8" class="edge"><title>Node8&#45;&gt;Node9</title>
<path fill="none" stroke="#63b8ff" d="M345.173,-250C325.297,-250 301.614,-250 280.225,-250"/>
<polygon fill="#63b8ff" stroke="#63b8ff" points="345.188,-253.5 355.188,-250 345.188,-246.5 345.188,-253.5"/>
</g>
<!-- Node10 -->
<g id="node10" class="node"><title>Node10</title>
<g id="a_node10"><a xlink:href="classore_1_1data_1_1_todays_market.html#aa82cc4ddd3bd6cf77cbe95fa5d2281cd" target="_top" xlink:title="Constructor taking pointers and allowing for a lazy build of the market objects.">
<polygon fill="white" stroke="#666666" points="122,-265 7.10543e-015,-265 7.10543e-015,-235 122,-235 122,-265"/>
<text text-anchor="start" x="8" y="-253" font-family="Helvetica,sans-Serif" font-size="10.00">ore::data::TodaysMarket</text>
<text text-anchor="middle" x="61" y="-242" font-family="Helvetica,sans-Serif" font-size="10.00">::TodaysMarket</text>
</a>
</g>
</g>
<!-- Node9&#45;&gt;Node10 -->
<g id="edge9" class="edge"><title>Node9&#45;&gt;Node10</title>
<path fill="none" stroke="#63b8ff" d="M147.462,-250C139.01,-250 130.44,-250 122.153,-250"/>
<polygon fill="#63b8ff" stroke="#63b8ff" points="147.686,-253.5 157.686,-250 147.686,-246.5 147.686,-253.5"/>
</g>
</g>
</svg>
        <g id="navigator" transform="translate(0 0)" fill="#404254">
                <rect fill="#f2f5e9" fill-opacity="0.5" stroke="#606060" stroke-width=".5" x="0" y="0" width="60" height="60"/>
                <use id="zoomplus" xlink:href="#zoomPlus" x="17" y="9" onmousedown="handleZoom(evt,'in')"/>
                <use id="zoomminus" xlink:href="#zoomMin" x="42" y="9" onmousedown="handleZoom(evt,'out')"/>
                <use id="reset" xlink:href="#resetDef" x="30" y="36" onmousedown="handleReset()"/>
                <g id="arrowUp" xlink:href="#dirArrow" transform="translate(30 24)" onmousedown="handlePan(0,-1)">
                  <use xlink:href="#rim" fill="#404040">
                        <set attributeName="fill" to="#808080" begin="arrowUp.mouseover" end="arrowUp.mouseout"/>
                  </use>
                  <path fill="none" stroke="white" stroke-width="1.5" d="M0,-3.0v7 M-2.5,-0.5L0,-3.0L2.5,-0.5"/>
                </g>
                <g id="arrowRight" xlink:href="#dirArrow" transform="rotate(90) translate(36 -43)" onmousedown="handlePan(1,0)">
                  <use xlink:href="#rim" fill="#404040">
                        <set attributeName="fill" to="#808080" begin="arrowRight.mouseover" end="arrowRight.mouseout"/>
                  </use>
                  <path fill="none" stroke="white" stroke-width="1.5" d="M0,-3.0v7 M-2.5,-0.5L0,-3.0L2.5,-0.5"/>
                </g>
                <g id="arrowDown" xlink:href="#dirArrow" transform="rotate(180) translate(-30 -48)" onmousedown="handlePan(0,1)">
                  <use xlink:href="#rim" fill="#404040">
                        <set attributeName="fill" to="#808080" begin="arrowDown.mouseover" end="arrowDown.mouseout"/>
                  </use>
                  <path fill="none" stroke="white" stroke-width="1.5" d="M0,-3.0v7 M-2.5,-0.5L0,-3.0L2.5,-0.5"/>
                </g>
                <g id="arrowLeft" xlink:href="#dirArrow" transform="rotate(270) translate(-36 17)" onmousedown="handlePan(-1,0)">
                  <use xlink:href="#rim" fill="#404040">
                        <set attributeName="fill" to="#808080" begin="arrowLeft.mouseover" end="arrowLeft.mouseout"/>
                  </use>
                  <path fill="none" stroke="white" stroke-width="1.5" d="M0,-3.0v7 M-2.5,-0.5L0,-3.0L2.5,-0.5"/>
                </g>
        </g>
        <svg viewBox="0 0 15 15" width="100%" height="30px" preserveAspectRatio="xMaxYMin meet">
         <g id="arrow_out" transform="scale(0.3 0.3)">
          <a xlink:href="group__utilities_ga93446dbb3100534f566787afbf673dbf_icgraph_org.svg" target="_base">
           <rect id="button" ry="5" rx="5" y="6" x="6" height="38" width="38"
                fill="#f2f5e9" fill-opacity="0.5" stroke="#606060" stroke-width="1.0"/>
           <path id="arrow"
             d="M 11.500037,31.436501 C 11.940474,20.09759 22.043105,11.32322 32.158766,21.979434 L 37.068811,17.246167 C 37.068811,17.246167 37.088388,32 37.088388,32 L 22.160133,31.978069 C 22.160133,31.978069 26.997745,27.140456 26.997745,27.140456 C 18.528582,18.264221 13.291696,25.230495 11.500037,31.436501 z"
             style="fill:#404040;"/>
          </a>
         </g>
        </svg>
</svg>
