<?xml version="1.0" encoding="UTF-8" standalone="no"?>
<!DOCTYPE svg PUBLIC "-//W3C//DTD SVG 1.1//EN"
 "http://www.w3.org/Graphics/SVG/1.1/DTD/svg11.dtd">
<!-- Generated by graphviz version 2.38.0 (20140413.2041)
 -->
<!-- Title: isGenericIborIndex Pages: 1 -->
<!--zoomable 134 -->
<svg id="main" version="1.1" xmlns="http://www.w3.org/2000/svg" xmlns:xlink="http://www.w3.org/1999/xlink" xml:space="preserve" onload="init(evt)">
<style type="text/css"><![CDATA[
.edge:hover path { stroke: red; }
.edge:hover polygon { stroke: red; fill: red; }
]]></style>
<script type="text/javascript"><![CDATA[
var edges = document.getElementsByTagName('g');
if (edges && edges.length) {
  for (var i=0;i<edges.length;i++) {
    if (edges[i].id.substr(0,4)=='edge') {
      edges[i].setAttribute('class','edge');
    }
  }
}
]]></script>
        <defs>
                <circle id="rim" cx="0" cy="0" r="7"/>
                <circle id="rim2" cx="0" cy="0" r="3.5"/>
                <g id="zoomPlus">
                        <use xlink:href="#rim" fill="#404040">
                                <set attributeName="fill" to="#808080" begin="zoomplus.mouseover" end="zoomplus.mouseout"/>
                        </use>
                        <path d="M-4,0h8M0,-4v8" fill="none" stroke="white" stroke-width="1.5" pointer-events="none"/>
                </g>
                <g id="zoomMin">
                        <use xlink:href="#rim" fill="#404040">
                                <set attributeName="fill" to="#808080" begin="zoomminus.mouseover" end="zoomminus.mouseout"/>
                        </use>
                        <path d="M-4,0h8" fill="none" stroke="white" stroke-width="1.5" pointer-events="none"/>
                </g>
                <g id="dirArrow">
                        <path fill="none" stroke="white" stroke-width="1.5" d="M0,-3.0v7 M-2.5,-0.5L0,-3.0L2.5,-0.5"/>
                </g>
               <g id="resetDef">
                       <use xlink:href="#rim2" fill="#404040">
                               <set attributeName="fill" to="#808080" begin="reset.mouseover" end="reset.mouseout"/>
                       </use>
               </g>
        </defs>

<script type="text/javascript">
var viewWidth = 911;
var viewHeight = 134;
var sectionId = 'dynsection-9';
</script>
<script xlink:href="svgpan.js"/>
<svg id="graph" class="graph">
<g id="viewport">
<title>isGenericIborIndex</title>
<!-- Node1 -->
<g id="node1" class="node"><title>Node1</title>
<g id="a_node1"><a xlink:title="Return true if the indexName is that of a generic ibor index, otherwise false.">
<polygon fill="#999999" stroke="#666666" points="903,-49.5 806,-49.5 806,-30.5 903,-30.5 903,-49.5"/>
<text text-anchor="middle" x="854.5" y="-37.5" font-family="Helvetica,sans-Serif" font-size="10.00">isGenericIborIndex</text>
</a>
</g>
</g>
<!-- Node2 -->
<g id="node2" class="node"><title>Node2</title>
<g id="a_node2"><a xlink:href="classore_1_1data_1_1_market_impl.html#af731b404daf72d32a4986990c5190bcc" target="_top" xlink:title="add a swap index to the market">
<polygon fill="white" stroke="#666666" points="770,-78 661,-78 661,-48 770,-48 770,-78"/>
<text text-anchor="start" x="669" y="-66" font-family="Helvetica,sans-Serif" font-size="10.00">ore::data::MarketImpl</text>
<text text-anchor="middle" x="715.5" y="-55" font-family="Helvetica,sans-Serif" font-size="10.00">::addSwapIndex</text>
</a>
</g>
</g>
<!-- Node1&#45;&gt;Node2 -->
<g id="edge1" class="edge"><title>Node1&#45;&gt;Node2</title>
<path fill="none" stroke="#63b8ff" d="M796.011,-49.6515C787.406,-51.096 778.564,-52.5805 770.046,-54.0106"/>
<polygon fill="#63b8ff" stroke="#63b8ff" points="796.686,-53.0872 805.969,-47.9797 795.527,-46.1838 796.686,-53.0872"/>
</g>
<!-- Node8 -->
<g id="node8" class="node"><title>Node8</title>
<g id="a_node8"><a xlink:href="classore_1_1data_1_1_dependency_graph.html#a32f251ee6ad9521e1cb321a91d778da5" target="_top" xlink:title=" ">
<polygon fill="white" stroke="#666666" points="457,-30 316,-30 316,-0 457,-0 457,-30"/>
<text text-anchor="start" x="324" y="-18" font-family="Helvetica,sans-Serif" font-size="10.00">ore::data::DependencyGraph</text>
<text text-anchor="middle" x="386.5" y="-7" font-family="Helvetica,sans-Serif" font-size="10.00">::buildDependencyGraph</text>
</a>
</g>
</g>
<!-- Node1&#45;&gt;Node8 -->
<g id="edge9" class="edge"><title>Node1&#45;&gt;Node8</title>
<path fill="none" stroke="#63b8ff" d="M795.752,-36.9019C710.072,-32.3054 549.51,-23.6915 457.34,-18.7468"/>
<polygon fill="#63b8ff" stroke="#63b8ff" points="795.647,-40.4012 805.82,-37.442 796.022,-33.4113 795.647,-40.4012"/>
</g>
<!-- Node3 -->
<g id="node3" class="node"><title>Node3</title>
<g id="a_node3"><a xlink:href="class_ored_test_market.html#ab19dad4599472bbfab0270154f542504" target="_top" xlink:title=" ">
<polygon fill="white" stroke="#666666" points="625,-126 493,-126 493,-96 625,-96 625,-126"/>
<text text-anchor="start" x="501" y="-114" font-family="Helvetica,sans-Serif" font-size="10.00">OredTestMarket::OredTest</text>
<text text-anchor="middle" x="559" y="-103" font-family="Helvetica,sans-Serif" font-size="10.00">Market</text>
</a>
</g>
</g>
<!-- Node2&#45;&gt;Node3 -->
<g id="edge2" class="edge"><title>Node2&#45;&gt;Node3</title>
<path fill="none" stroke="#63b8ff" d="M656.348,-81.0665C640.505,-85.9886 623.519,-91.2659 608.289,-95.9976"/>
<polygon fill="#63b8ff" stroke="#63b8ff" points="657.528,-84.3652 666.039,-78.0558 655.451,-77.6804 657.528,-84.3652"/>
</g>
<!-- Node4 -->
<g id="node4" class="node"><title>Node4</title>
<g id="a_node4"><a xlink:href="classore_1_1data_1_1_todays_market.html#ae947670c7306fd552e37a0f140984721" target="_top" xlink:title=" ">
<polygon fill="white" stroke="#666666" points="620,-78 498,-78 498,-48 620,-48 620,-78"/>
<text text-anchor="start" x="506" y="-66" font-family="Helvetica,sans-Serif" font-size="10.00">ore::data::TodaysMarket</text>
<text text-anchor="middle" x="559" y="-55" font-family="Helvetica,sans-Serif" font-size="10.00">::buildNode</text>
</a>
</g>
</g>
<!-- Node2&#45;&gt;Node4 -->
<g id="edge3" class="edge"><title>Node2&#45;&gt;Node4</title>
<path fill="none" stroke="#63b8ff" d="M650.864,-63C640.695,-63 630.202,-63 620.118,-63"/>
<polygon fill="#63b8ff" stroke="#63b8ff" points="650.897,-66.5001 660.897,-63 650.897,-59.5001 650.897,-66.5001"/>
</g>
<!-- Node5 -->
<g id="node5" class="node"><title>Node5</title>
<g id="a_node5"><a xlink:href="classore_1_1data_1_1_todays_market.html#a0816e5ec53019bee5353fea5fc006eb1" target="_top" xlink:title=" ">
<polygon fill="white" stroke="#666666" points="280,-78 158,-78 158,-48 280,-48 280,-78"/>
<text text-anchor="start" x="166" y="-66" font-family="Helvetica,sans-Serif" font-size="10.00">ore::data::TodaysMarket</text>
<text text-anchor="middle" x="219" y="-55" font-family="Helvetica,sans-Serif" font-size="10.00">::initialise</text>
</a>
</g>
</g>
<!-- Node4&#45;&gt;Node5 -->
<g id="edge4" class="edge"><title>Node4&#45;&gt;Node5</title>
<path fill="none" stroke="#63b8ff" d="M505.648,-81.7576C501.346,-83.4724 497.084,-85.2312 493,-87 476.585,-94.1088 474.41,-100.89 457,-105 396.01,-119.398 377.339,-117.831 316,-105 291.249,-99.8226 265.074,-87.8853 246.318,-78.0553"/>
<polygon fill="#63b8ff" stroke="#63b8ff" points="507.029,-84.9761 515.078,-78.0872 504.49,-78.4528 507.029,-84.9761"/>
</g>
<!-- Node7 -->
<g id="node7" class="node"><title>Node7</title>
<g id="a_node7"><a xlink:href="classore_1_1data_1_1_todays_market.html#a36416143258c4e4c30bb46935cef9408" target="_top" xlink:title=" ">
<polygon fill="white" stroke="#666666" points="447.5,-78 325.5,-78 325.5,-48 447.5,-48 447.5,-78"/>
<text text-anchor="start" x="333.5" y="-66" font-family="Helvetica,sans-Serif" font-size="10.00">ore::data::TodaysMarket</text>
<text text-anchor="middle" x="386.5" y="-55" font-family="Helvetica,sans-Serif" font-size="10.00">::require</text>
</a>
</g>
</g>
<!-- Node4&#45;&gt;Node7 -->
<g id="edge6" class="edge"><title>Node4&#45;&gt;Node7</title>
<path fill="none" stroke="#63b8ff" d="M487.812,-63C474.477,-63 460.633,-63 447.644,-63"/>
<polygon fill="#63b8ff" stroke="#63b8ff" points="487.888,-66.5001 497.888,-63 487.888,-59.5001 487.888,-66.5001"/>
</g>
<!-- Node6 -->
<g id="node6" class="node"><title>Node6</title>
<g id="a_node6"><a xlink:href="classore_1_1data_1_1_todays_market.html#ad79acb672b27bd7258f228494d94cb32" target="_top" xlink:title="Constructor taking pointers and allowing for a lazy build of the market objects.">
<polygon fill="white" stroke="#666666" points="122,-78 7.10543e-015,-78 7.10543e-015,-48 122,-48 122,-78"/>
<text text-anchor="start" x="8" y="-66" font-family="Helvetica,sans-Serif" font-size="10.00">ore::data::TodaysMarket</text>
<text text-anchor="middle" x="61" y="-55" font-family="Helvetica,sans-Serif" font-size="10.00">::TodaysMarket</text>
</a>
</g>
</g>
<!-- Node5&#45;&gt;Node6 -->
<g id="edge5" class="edge"><title>Node5&#45;&gt;Node6</title>
<path fill="none" stroke="#63b8ff" d="M147.462,-63C139.01,-63 130.44,-63 122.153,-63"/>
<polygon fill="#63b8ff" stroke="#63b8ff" points="147.686,-66.5001 157.686,-63 147.686,-59.5001 147.686,-66.5001"/>
</g>
<!-- Node7&#45;&gt;Node5 -->
<g id="edge7" class="edge"><title>Node7&#45;&gt;Node5</title>
<path fill="none" stroke="#63b8ff" d="M315.16,-63C303.516,-63 291.537,-63 280.173,-63"/>
<polygon fill="#63b8ff" stroke="#63b8ff" points="315.283,-66.5001 325.283,-63 315.282,-59.5001 315.283,-66.5001"/>
</g>
<!-- Node7&#45;&gt;Node7 -->
<g id="edge8" class="edge"><title>Node7&#45;&gt;Node7</title>
<path fill="none" stroke="#63b8ff" d="M415.556,-88.5975C411.586,-92.9704 401.9,-96 386.5,-96 360.563,-96 350.836,-87.4063 357.32,-78.2754"/>
<polygon fill="#63b8ff" stroke="#63b8ff" points="419.06,-88.3166 415.68,-78.2754 412.06,-88.2328 419.06,-88.3166"/>
</g>
<!-- Node8&#45;&gt;Node5 -->
<g id="edge10" class="edge"><title>Node8&#45;&gt;Node5</title>
<path fill="none" stroke="#63b8ff" d="M323.688,-32.9273C306.581,-37.889 288.195,-43.2213 271.727,-47.9976"/>
<polygon fill="#63b8ff" stroke="#63b8ff" points="324.96,-36.2029 333.589,-30.0558 323.01,-29.4799 324.96,-36.2029"/>
</g>
</g>
</svg>
        <g id="navigator" transform="translate(0 0)" fill="#404254">
                <rect fill="#f2f5e9" fill-opacity="0.5" stroke="#606060" stroke-width=".5" x="0" y="0" width="60" height="60"/>
                <use id="zoomplus" xlink:href="#zoomPlus" x="17" y="9" onmousedown="handleZoom(evt,'in')"/>
                <use id="zoomminus" xlink:href="#zoomMin" x="42" y="9" onmousedown="handleZoom(evt,'out')"/>
                <use id="reset" xlink:href="#resetDef" x="30" y="36" onmousedown="handleReset()"/>
                <g id="arrowUp" xlink:href="#dirArrow" transform="translate(30 24)" onmousedown="handlePan(0,-1)">
                  <use xlink:href="#rim" fill="#404040">
                        <set attributeName="fill" to="#808080" begin="arrowUp.mouseover" end="arrowUp.mouseout"/>
                  </use>
                  <path fill="none" stroke="white" stroke-width="1.5" d="M0,-3.0v7 M-2.5,-0.5L0,-3.0L2.5,-0.5"/>
                </g>
                <g id="arrowRight" xlink:href="#dirArrow" transform="rotate(90) translate(36 -43)" onmousedown="handlePan(1,0)">
                  <use xlink:href="#rim" fill="#404040">
                        <set attributeName="fill" to="#808080" begin="arrowRight.mouseover" end="arrowRight.mouseout"/>
                  </use>
                  <path fill="none" stroke="white" stroke-width="1.5" d="M0,-3.0v7 M-2.5,-0.5L0,-3.0L2.5,-0.5"/>
                </g>
                <g id="arrowDown" xlink:href="#dirArrow" transform="rotate(180) translate(-30 -48)" onmousedown="handlePan(0,1)">
                  <use xlink:href="#rim" fill="#404040">
                        <set attributeName="fill" to="#808080" begin="arrowDown.mouseover" end="arrowDown.mouseout"/>
                  </use>
                  <path fill="none" stroke="white" stroke-width="1.5" d="M0,-3.0v7 M-2.5,-0.5L0,-3.0L2.5,-0.5"/>
                </g>
                <g id="arrowLeft" xlink:href="#dirArrow" transform="rotate(270) translate(-36 17)" onmousedown="handlePan(-1,0)">
                  <use xlink:href="#rim" fill="#404040">
                        <set attributeName="fill" to="#808080" begin="arrowLeft.mouseover" end="arrowLeft.mouseout"/>
                  </use>
                  <path fill="none" stroke="white" stroke-width="1.5" d="M0,-3.0v7 M-2.5,-0.5L0,-3.0L2.5,-0.5"/>
                </g>
        </g>
        <svg viewBox="0 0 15 15" width="100%" height="30px" preserveAspectRatio="xMaxYMin meet">
         <g id="arrow_out" transform="scale(0.3 0.3)">
          <a xlink:href="group__utilities_ga8d96085a49a07c7e9b6aa3b982385ae1_icgraph_org.svg" target="_base">
           <rect id="button" ry="5" rx="5" y="6" x="6" height="38" width="38"
                fill="#f2f5e9" fill-opacity="0.5" stroke="#606060" stroke-width="1.0"/>
           <path id="arrow"
             d="M 11.500037,31.436501 C 11.940474,20.09759 22.043105,11.32322 32.158766,21.979434 L 37.068811,17.246167 C 37.068811,17.246167 37.088388,32 37.088388,32 L 22.160133,31.978069 C 22.160133,31.978069 26.997745,27.140456 26.997745,27.140456 C 18.528582,18.264221 13.291696,25.230495 11.500037,31.436501 z"
             style="fill:#404040;"/>
          </a>
         </g>
        </svg>
</svg>
