<?xml version="1.0" encoding="UTF-8" standalone="no"?>
<!DOCTYPE svg PUBLIC "-//W3C//DTD SVG 1.1//EN"
 "http://www.w3.org/Graphics/SVG/1.1/DTD/svg11.dtd">
<!-- Generated by graphviz version 2.38.0 (20140413.2041)
 -->
<!-- Title: isOvernightIndex Pages: 1 -->
<svg width="634pt" height="215pt"
 viewBox="0.00 0.00 634.00 215.00" xmlns="http://www.w3.org/2000/svg" xmlns:xlink="http://www.w3.org/1999/xlink">
<g id="graph0" class="graph" transform="scale(1 1) rotate(0) translate(4 211)">
<title>isOvernightIndex</title>
<!-- Node1 -->
<g id="node1" class="node"><title>Node1</title>
<g id="a_node1"><a xlink:title="Return true if the indexName is that of an overnight index, otherwise false.">
<polygon fill="#999999" stroke="#666666" points="626,-136.5 538,-136.5 538,-117.5 626,-117.5 626,-136.5"/>
<text text-anchor="middle" x="582" y="-124.5" font-family="Helvetica,sans-Serif" font-size="10.00">isOvernightIndex</text>
</a>
</g>
</g>
<!-- Node2 -->
<g id="node2" class="node"><title>Node2</title>
<g id="a_node2"><a xlink:href="classore_1_1data_1_1_yield_curve.html#a0498c8b60af201a71b1e3ca552961e8e" target="_top" xlink:title=" ">
<polygon fill="white" stroke="#666666" points="465.5,-207 358.5,-207 358.5,-177 465.5,-177 465.5,-207"/>
<text text-anchor="start" x="366.5" y="-195" font-family="Helvetica,sans-Serif" font-size="10.00">ore::data::YieldCurve</text>
<text text-anchor="middle" x="412" y="-184" font-family="Helvetica,sans-Serif" font-size="10.00">::addDeposits</text>
</a>
</g>
</g>
<!-- Node1&#45;&gt;Node2 -->
<g id="edge1" class="edge"><title>Node1&#45;&gt;Node2</title>
<path fill="none" stroke="#63b8ff" d="M555.674,-141.418C540.454,-149.675 520.507,-159.795 502,-167 490.484,-171.483 477.844,-175.532 465.797,-179.001"/>
<polygon fill="#63b8ff" stroke="#63b8ff" points="557.417,-144.453 564.484,-136.559 554.037,-138.323 557.417,-144.453"/>
</g>
<!-- Node5 -->
<g id="node5" class="node"><title>Node5</title>
<g id="a_node5"><a xlink:href="namespaceore_1_1data.html#a679d89696aea99b50e404364e8cd8c60" target="_top" xlink:title=" ">
<polygon fill="white" stroke="#666666" points="469,-158.5 355,-158.5 355,-139.5 469,-139.5 469,-158.5"/>
<text text-anchor="middle" x="412" y="-146.5" font-family="Helvetica,sans-Serif" font-size="10.00">addMarketFixingDates</text>
</a>
</g>
</g>
<!-- Node1&#45;&gt;Node5 -->
<g id="edge4" class="edge"><title>Node1&#45;&gt;Node5</title>
<path fill="none" stroke="#63b8ff" d="M527.641,-133.988C508.986,-136.43 487.995,-139.179 469.122,-141.651"/>
<polygon fill="#63b8ff" stroke="#63b8ff" points="528.275,-137.434 537.736,-132.666 527.366,-130.494 528.275,-137.434"/>
</g>
<!-- Node7 -->
<g id="node7" class="node"><title>Node7</title>
<g id="a_node7"><a xlink:href="classore_1_1data_1_1_risk_participation_agreement.html#a202e0f0e8766fc315608ca73f8802d08" target="_top" xlink:title=" ">
<polygon fill="white" stroke="#666666" points="502,-121 322,-121 322,-91 502,-91 502,-121"/>
<text text-anchor="start" x="330" y="-109" font-family="Helvetica,sans-Serif" font-size="10.00">ore::data::RiskParticipation</text>
<text text-anchor="middle" x="412" y="-98" font-family="Helvetica,sans-Serif" font-size="10.00">Agreement::buildWithSwapUnderlying</text>
</a>
</g>
</g>
<!-- Node1&#45;&gt;Node7 -->
<g id="edge6" class="edge"><title>Node1&#45;&gt;Node7</title>
<path fill="none" stroke="#63b8ff" d="M527.655,-120.332C519.485,-119.311 510.867,-118.233 502.175,-117.147"/>
<polygon fill="#63b8ff" stroke="#63b8ff" points="527.379,-123.825 537.736,-121.592 528.247,-116.879 527.379,-123.825"/>
</g>
<!-- Node8 -->
<g id="node8" class="node"><title>Node8</title>
<g id="a_node8"><a xlink:href="group__utilities.html#ga5f79097fd51daf582d52f3096653af27" target="_top" xlink:title=" ">
<polygon fill="white" stroke="#666666" points="460.5,-72.5 363.5,-72.5 363.5,-53.5 460.5,-53.5 460.5,-72.5"/>
<text text-anchor="middle" x="412" y="-60.5" font-family="Helvetica,sans-Serif" font-size="10.00">internalIndexName</text>
</a>
</g>
</g>
<!-- Node1&#45;&gt;Node8 -->
<g id="edge7" class="edge"><title>Node1&#45;&gt;Node8</title>
<path fill="none" stroke="#63b8ff" d="M558.637,-111.783C543.3,-101.981 522.154,-89.6795 502,-82 489.008,-77.0494 474.431,-73.2572 460.894,-70.412"/>
<polygon fill="#63b8ff" stroke="#63b8ff" points="557.091,-114.954 567.376,-117.499 560.923,-109.096 557.091,-114.954"/>
</g>
<!-- Node3 -->
<g id="node3" class="node"><title>Node3</title>
<g id="a_node3"><a xlink:href="classore_1_1data_1_1_yield_curve.html#a9926d222ab68411efb749aa1e6cbd0b1" target="_top" xlink:title=" ">
<polygon fill="white" stroke="#666666" points="277,-207 152,-207 152,-177 277,-177 277,-207"/>
<text text-anchor="start" x="160" y="-195" font-family="Helvetica,sans-Serif" font-size="10.00">ore::data::YieldCurve</text>
<text text-anchor="middle" x="214.5" y="-184" font-family="Helvetica,sans-Serif" font-size="10.00">::buildBootstrappedCurve</text>
</a>
</g>
</g>
<!-- Node2&#45;&gt;Node3 -->
<g id="edge2" class="edge"><title>Node2&#45;&gt;Node3</title>
<path fill="none" stroke="#63b8ff" d="M348.148,-192C325.451,-192 299.864,-192 277.261,-192"/>
<polygon fill="#63b8ff" stroke="#63b8ff" points="348.352,-195.5 358.352,-192 348.352,-188.5 348.352,-195.5"/>
</g>
<!-- Node4 -->
<g id="node4" class="node"><title>Node4</title>
<g id="a_node4"><a xlink:href="classore_1_1data_1_1_yield_curve.html#a59d4997751f3007ffe3c18b56f2fa207" target="_top" xlink:title="Constructor.">
<polygon fill="white" stroke="#666666" points="107,-207 0,-207 0,-177 107,-177 107,-207"/>
<text text-anchor="start" x="8" y="-195" font-family="Helvetica,sans-Serif" font-size="10.00">ore::data::YieldCurve</text>
<text text-anchor="middle" x="53.5" y="-184" font-family="Helvetica,sans-Serif" font-size="10.00">::YieldCurve</text>
</a>
</g>
</g>
<!-- Node3&#45;&gt;Node4 -->
<g id="edge3" class="edge"><title>Node3&#45;&gt;Node4</title>
<path fill="none" stroke="#63b8ff" d="M141.51,-192C129.971,-192 118.219,-192 107.238,-192"/>
<polygon fill="#63b8ff" stroke="#63b8ff" points="141.571,-195.5 151.571,-192 141.571,-188.5 141.571,-195.5"/>
</g>
<!-- Node6 -->
<g id="node6" class="node"><title>Node6</title>
<g id="a_node6"><a xlink:href="test_2fixings_8cpp.html#a67ada7956eb90fe9fbecd12a611892ab" target="_top" xlink:title=" ">
<polygon fill="white" stroke="#666666" points="286,-158.5 143,-158.5 143,-139.5 286,-139.5 286,-158.5"/>
<text text-anchor="middle" x="214.5" y="-146.5" font-family="Helvetica,sans-Serif" font-size="10.00">BOOST_AUTO_TEST_CASE</text>
</a>
</g>
</g>
<!-- Node5&#45;&gt;Node6 -->
<g id="edge5" class="edge"><title>Node5&#45;&gt;Node6</title>
<path fill="none" stroke="#63b8ff" d="M344.969,-149C326.052,-149 305.357,-149 286.173,-149"/>
<polygon fill="#63b8ff" stroke="#63b8ff" points="344.978,-152.5 354.978,-149 344.978,-145.5 344.978,-152.5"/>
</g>
<!-- Node9 -->
<g id="node9" class="node"><title>Node9</title>
<g id="a_node9"><a xlink:href="indices_8cpp.html#a3e0a5144958c6bf65ff52f692c17d3d7" target="_top" xlink:title=" ">
<polygon fill="white" stroke="#666666" points="286,-115.5 143,-115.5 143,-96.5 286,-96.5 286,-115.5"/>
<text text-anchor="middle" x="214.5" y="-103.5" font-family="Helvetica,sans-Serif" font-size="10.00">BOOST_AUTO_TEST_CASE</text>
</a>
</g>
</g>
<!-- Node8&#45;&gt;Node9 -->
<g id="edge8" class="edge"><title>Node8&#45;&gt;Node9</title>
<path fill="none" stroke="#63b8ff" d="M355.64,-74.7169C344.496,-77.104 332.87,-79.615 322,-82 300.618,-86.6915 276.851,-92.035 257.204,-96.4872"/>
<polygon fill="#63b8ff" stroke="#63b8ff" points="356.654,-78.0793 365.702,-72.5668 355.191,-71.2338 356.654,-78.0793"/>
</g>
<!-- Node10 -->
<g id="node10" class="node"><title>Node10</title>
<g id="a_node10"><a xlink:href="classore_1_1data_1_1_floating_leg_data.html#a7741ae0fc924943de5bfe02928262eb7" target="_top" xlink:title=" ">
<polygon fill="white" stroke="#666666" points="280,-78 149,-78 149,-48 280,-48 280,-78"/>
<text text-anchor="start" x="157" y="-66" font-family="Helvetica,sans-Serif" font-size="10.00">ore::data::FloatingLegData</text>
<text text-anchor="middle" x="214.5" y="-55" font-family="Helvetica,sans-Serif" font-size="10.00">::fromXML</text>
</a>
</g>
</g>
<!-- Node8&#45;&gt;Node10 -->
<g id="edge9" class="edge"><title>Node8&#45;&gt;Node10</title>
<path fill="none" stroke="#63b8ff" d="M353.179,-63C330.287,-63 303.867,-63 280.33,-63"/>
<polygon fill="#63b8ff" stroke="#63b8ff" points="353.425,-66.5001 363.425,-63 353.425,-59.5001 353.425,-66.5001"/>
</g>
<!-- Node11 -->
<g id="node11" class="node"><title>Node11</title>
<g id="a_node11"><a xlink:href="classore_1_1data_1_1_worst_of_basket_swap.html#a7741ae0fc924943de5bfe02928262eb7" target="_top" xlink:title=" ">
<polygon fill="white" stroke="#666666" points="278.5,-30 150.5,-30 150.5,-0 278.5,-0 278.5,-30"/>
<text text-anchor="start" x="158.5" y="-18" font-family="Helvetica,sans-Serif" font-size="10.00">ore::data::WorstOfBasket</text>
<text text-anchor="middle" x="214.5" y="-7" font-family="Helvetica,sans-Serif" font-size="10.00">Swap::fromXML</text>
</a>
</g>
</g>
<!-- Node8&#45;&gt;Node11 -->
<g id="edge10" class="edge"><title>Node8&#45;&gt;Node11</title>
<path fill="none" stroke="#63b8ff" d="M361.978,-50.9639C336.173,-44.6282 304.281,-36.7979 276.85,-30.063"/>
<polygon fill="#63b8ff" stroke="#63b8ff" points="361.361,-54.4164 371.908,-53.4018 363.031,-47.6183 361.361,-54.4164"/>
</g>
</g>
</svg>
