<?xml version="1.0" encoding="UTF-8" standalone="no"?>
<!DOCTYPE svg PUBLIC "-//W3C//DTD SVG 1.1//EN"
 "http://www.w3.org/Graphics/SVG/1.1/DTD/svg11.dtd">
<!-- Generated by graphviz version 2.38.0 (20140413.2041)
 -->
<!-- Title: parsePaymentLag Pages: 1 -->
<svg width="209pt" height="82pt"
 viewBox="0.00 0.00 209.00 82.00" xmlns="http://www.w3.org/2000/svg" xmlns:xlink="http://www.w3.org/1999/xlink">
<g id="graph0" class="graph" transform="scale(1 1) rotate(0) translate(4 78)">
<title>parsePaymentLag</title>
<!-- Node1 -->
<g id="node1" class="node"><title>Node1</title>
<g id="a_node1"><a xlink:title="Convert text to PaymentLag.">
<polygon fill="#999999" stroke="#666666" points="95,-37 0,-37 0,-18 95,-18 95,-37"/>
<text text-anchor="middle" x="47.5" y="-25" font-family="Helvetica,sans-Serif" font-size="10.00">parsePaymentLag</text>
</a>
</g>
</g>
<!-- Node2 -->
<g id="node2" class="node"><title>Node2</title>
<g id="a_node2"><a xlink:href="group__utilities.html#gaecd67eda4fb5f4859bb8f6d383547721" target="_top" xlink:title="Convert text to QuantLib::Integer.">
<polygon fill="white" stroke="#666666" points="201,-56 131,-56 131,-37 201,-37 201,-56"/>
<text text-anchor="middle" x="166" y="-44" font-family="Helvetica,sans-Serif" font-size="10.00">parseInteger</text>
</a>
</g>
</g>
<!-- Node1&#45;&gt;Node2 -->
<g id="edge1" class="edge"><title>Node1&#45;&gt;Node2</title>
<path fill="none" stroke="#63b8ff" d="M95.2137,-35.1185C103.675,-36.4984 112.474,-37.9335 120.858,-39.3009"/>
<polygon fill="#63b8ff" stroke="#63b8ff" points="120.395,-42.7716 130.828,-40.927 121.522,-35.8629 120.395,-42.7716"/>
</g>
<!-- Node3 -->
<g id="node3" class="node"><title>Node3</title>
<g id="a_node3"><a xlink:href="group__utilities.html#ga8e0623e2cb01e250e9cfec4619256208" target="_top" xlink:title="Convert text to QuantLib::Period.">
<polygon fill="white" stroke="#666666" points="200,-19 132,-19 132,-0 200,-0 200,-19"/>
<text text-anchor="middle" x="166" y="-7" font-family="Helvetica,sans-Serif" font-size="10.00">parsePeriod</text>
</a>
</g>
</g>
<!-- Node1&#45;&gt;Node3 -->
<g id="edge3" class="edge"><title>Node1&#45;&gt;Node3</title>
<path fill="none" stroke="#63b8ff" d="M95.2137,-20.2824C104.041,-18.9186 113.236,-17.4979 121.944,-16.1525"/>
<polygon fill="#63b8ff" stroke="#63b8ff" points="122.543,-19.6016 131.891,-14.6156 121.474,-12.6836 122.543,-19.6016"/>
</g>
<!-- Node2&#45;&gt;Node2 -->
<g id="edge2" class="edge"><title>Node2&#45;&gt;Node2</title>
<path fill="none" stroke="#63b8ff" d="M147.813,-56.0828C138.965,-64.7337 145.027,-74 166,-74 179.108,-74 186.392,-70.3804 187.851,-65.5536"/>
<polygon fill="#63b8ff" stroke="#63b8ff" points="191.059,-64.1466 184.187,-56.0828 184.531,-66.6721 191.059,-64.1466"/>
</g>
</g>
</svg>
