<?xml version="1.0" encoding="UTF-8" standalone="no"?>
<!DOCTYPE svg PUBLIC "-//W3C//DTD SVG 1.1//EN"
 "http://www.w3.org/Graphics/SVG/1.1/DTD/svg11.dtd">
<!-- Generated by graphviz version 2.38.0 (20140413.2041)
 -->
<!-- Title: parseSettlementType Pages: 1 -->
<!--zoomable 534 -->
<svg id="main" version="1.1" xmlns="http://www.w3.org/2000/svg" xmlns:xlink="http://www.w3.org/1999/xlink" xml:space="preserve" onload="init(evt)">
<style type="text/css"><![CDATA[
.edge:hover path { stroke: red; }
.edge:hover polygon { stroke: red; fill: red; }
]]></style>
<script type="text/javascript"><![CDATA[
var edges = document.getElementsByTagName('g');
if (edges && edges.length) {
  for (var i=0;i<edges.length;i++) {
    if (edges[i].id.substr(0,4)=='edge') {
      edges[i].setAttribute('class','edge');
    }
  }
}
]]></script>
        <defs>
                <circle id="rim" cx="0" cy="0" r="7"/>
                <circle id="rim2" cx="0" cy="0" r="3.5"/>
                <g id="zoomPlus">
                        <use xlink:href="#rim" fill="#404040">
                                <set attributeName="fill" to="#808080" begin="zoomplus.mouseover" end="zoomplus.mouseout"/>
                        </use>
                        <path d="M-4,0h8M0,-4v8" fill="none" stroke="white" stroke-width="1.5" pointer-events="none"/>
                </g>
                <g id="zoomMin">
                        <use xlink:href="#rim" fill="#404040">
                                <set attributeName="fill" to="#808080" begin="zoomminus.mouseover" end="zoomminus.mouseout"/>
                        </use>
                        <path d="M-4,0h8" fill="none" stroke="white" stroke-width="1.5" pointer-events="none"/>
                </g>
                <g id="dirArrow">
                        <path fill="none" stroke="white" stroke-width="1.5" d="M0,-3.0v7 M-2.5,-0.5L0,-3.0L2.5,-0.5"/>
                </g>
               <g id="resetDef">
                       <use xlink:href="#rim2" fill="#404040">
                               <set attributeName="fill" to="#808080" begin="reset.mouseover" end="reset.mouseout"/>
                       </use>
               </g>
        </defs>

<script type="text/javascript">
var viewWidth = 685;
var viewHeight = 534;
var sectionId = 'dynsection-71';
</script>
<script xlink:href="svgpan.js"/>
<svg id="graph" class="graph">
<g id="viewport">
<title>parseSettlementType</title>
<!-- Node1 -->
<g id="node1" class="node"><title>Node1</title>
<g id="a_node1"><a xlink:title="Convert text to QuantLib::Settlement::Type.">
<polygon fill="#999999" stroke="#666666" points="677,-240.5 568,-240.5 568,-221.5 677,-221.5 677,-240.5"/>
<text text-anchor="middle" x="622.5" y="-228.5" font-family="Helvetica,sans-Serif" font-size="10.00">parseSettlementType</text>
</a>
</g>
</g>
<!-- Node2 -->
<g id="node2" class="node"><title>Node2</title>
<g id="a_node2"><a xlink:href="classore_1_1data_1_1_equity_option.html#af7b69d5b18d278257927e32b10a23ee6" target="_top" xlink:title="Build QuantLib/QuantExt instrument, link pricing engine.">
<polygon fill="white" stroke="#666666" points="330,-526 213,-526 213,-496 330,-496 330,-526"/>
<text text-anchor="start" x="221" y="-514" font-family="Helvetica,sans-Serif" font-size="10.00">ore::data::EquityOption</text>
<text text-anchor="middle" x="271.5" y="-503" font-family="Helvetica,sans-Serif" font-size="10.00">::build</text>
</a>
</g>
</g>
<!-- Node1&#45;&gt;Node2 -->
<g id="edge1" class="edge"><title>Node1&#45;&gt;Node2</title>
<path fill="none" stroke="#63b8ff" d="M618.773,-250.662C611.99,-291.929 590.478,-387.964 532,-439 475.375,-488.419 387.544,-504.164 330.023,-509.039"/>
<polygon fill="#63b8ff" stroke="#63b8ff" points="622.266,-250.971 620.313,-240.558 615.346,-249.916 622.266,-250.971"/>
</g>
<!-- Node4 -->
<g id="node4" class="node"><title>Node4</title>
<g id="a_node4"><a xlink:href="classore_1_1data_1_1_fx_digital_barrier_option.html#af7b69d5b18d278257927e32b10a23ee6" target="_top" xlink:title="Build QuantLib/QuantExt instrument, link pricing engine.">
<polygon fill="white" stroke="#666666" points="521,-366 393,-366 393,-336 521,-336 521,-366"/>
<text text-anchor="start" x="401" y="-354" font-family="Helvetica,sans-Serif" font-size="10.00">ore::data::FxDigitalBarrier</text>
<text text-anchor="middle" x="457" y="-343" font-family="Helvetica,sans-Serif" font-size="10.00">Option::build</text>
</a>
</g>
</g>
<!-- Node1&#45;&gt;Node4 -->
<g id="edge3" class="edge"><title>Node1&#45;&gt;Node4</title>
<path fill="none" stroke="#63b8ff" d="M609.219,-248.942C593.632,-270.425 564.795,-306.117 532,-327 526.646,-330.41 520.763,-333.376 514.727,-335.947"/>
<polygon fill="#63b8ff" stroke="#63b8ff" points="612.14,-250.874 615.061,-240.689 606.426,-246.829 612.14,-250.874"/>
</g>
<!-- Node6 -->
<g id="node6" class="node"><title>Node6</title>
<g id="a_node6"><a xlink:href="classore_1_1data_1_1_fx_k_i_k_o_barrier_option.html#af7b69d5b18d278257927e32b10a23ee6" target="_top" xlink:title="Build QuantLib/QuantExt instrument, link pricing engine.">
<polygon fill="white" stroke="#666666" points="519,-318 395,-318 395,-288 519,-288 519,-318"/>
<text text-anchor="start" x="403" y="-306" font-family="Helvetica,sans-Serif" font-size="10.00">ore::data::FxKIKOBarrier</text>
<text text-anchor="middle" x="457" y="-295" font-family="Helvetica,sans-Serif" font-size="10.00">Option::build</text>
</a>
</g>
</g>
<!-- Node1&#45;&gt;Node6 -->
<g id="edge5" class="edge"><title>Node1&#45;&gt;Node6</title>
<path fill="none" stroke="#63b8ff" d="M596.715,-245.844C579.071,-256.022 554.581,-269.374 532,-279 524.545,-282.178 516.52,-285.184 508.601,-287.925"/>
<polygon fill="#63b8ff" stroke="#63b8ff" points="598.89,-248.627 605.758,-240.559 595.358,-242.583 598.89,-248.627"/>
</g>
<!-- Node8 -->
<g id="node8" class="node"><title>Node8</title>
<g id="a_node8"><a xlink:href="classore_1_1data_1_1_index_credit_default_swap_option.html#af7b69d5b18d278257927e32b10a23ee6" target="_top" xlink:title=" ">
<polygon fill="white" stroke="#666666" points="527,-270 387,-270 387,-240 527,-240 527,-270"/>
<text text-anchor="start" x="395" y="-258" font-family="Helvetica,sans-Serif" font-size="10.00">ore::data::IndexCreditDefault</text>
<text text-anchor="middle" x="457" y="-247" font-family="Helvetica,sans-Serif" font-size="10.00">SwapOption::build</text>
</a>
</g>
</g>
<!-- Node1&#45;&gt;Node8 -->
<g id="edge7" class="edge"><title>Node1&#45;&gt;Node8</title>
<path fill="none" stroke="#63b8ff" d="M558.005,-240.32C547.891,-241.805 537.383,-243.347 527.146,-244.85"/>
<polygon fill="#63b8ff" stroke="#63b8ff" points="558.578,-243.774 567.964,-238.858 557.562,-236.848 558.578,-243.774"/>
</g>
<!-- Node9 -->
<g id="node9" class="node"><title>Node9</title>
<g id="a_node9"><a xlink:href="classore_1_1data_1_1_multi_leg_option.html#af7b69d5b18d278257927e32b10a23ee6" target="_top" xlink:title=" ">
<polygon fill="white" stroke="#666666" points="520,-222 394,-222 394,-192 520,-192 520,-222"/>
<text text-anchor="start" x="402" y="-210" font-family="Helvetica,sans-Serif" font-size="10.00">ore::data::MultiLegOption</text>
<text text-anchor="middle" x="457" y="-199" font-family="Helvetica,sans-Serif" font-size="10.00">::build</text>
</a>
</g>
</g>
<!-- Node1&#45;&gt;Node9 -->
<g id="edge8" class="edge"><title>Node1&#45;&gt;Node9</title>
<path fill="none" stroke="#63b8ff" d="M557.752,-221.643C545.402,-219.83 532.475,-217.932 520.177,-216.127"/>
<polygon fill="#63b8ff" stroke="#63b8ff" points="557.562,-225.152 567.964,-223.142 558.578,-218.226 557.562,-225.152"/>
</g>
<!-- Node10 -->
<g id="node10" class="node"><title>Node10</title>
<g id="a_node10"><a xlink:href="classore_1_1data_1_1_swaption.html#af7b69d5b18d278257927e32b10a23ee6" target="_top" xlink:title=" ">
<polygon fill="white" stroke="#666666" points="507.5,-174 406.5,-174 406.5,-144 507.5,-144 507.5,-174"/>
<text text-anchor="start" x="414.5" y="-162" font-family="Helvetica,sans-Serif" font-size="10.00">ore::data::Swaption</text>
<text text-anchor="middle" x="457" y="-151" font-family="Helvetica,sans-Serif" font-size="10.00">::build</text>
</a>
</g>
</g>
<!-- Node1&#45;&gt;Node10 -->
<g id="edge9" class="edge"><title>Node1&#45;&gt;Node10</title>
<path fill="none" stroke="#63b8ff" d="M596.715,-216.156C579.071,-205.978 554.581,-192.626 532,-183 524.297,-179.716 515.985,-176.616 507.81,-173.802"/>
<polygon fill="#63b8ff" stroke="#63b8ff" points="595.358,-219.417 605.758,-221.441 598.89,-213.373 595.358,-219.417"/>
</g>
<!-- Node13 -->
<g id="node13" class="node"><title>Node13</title>
<g id="a_node13"><a xlink:href="classore_1_1data_1_1_vanilla_option_trade.html#af7b69d5b18d278257927e32b10a23ee6" target="_top" xlink:title="Build QuantLib/QuantExt instrument, link pricing engine.">
<polygon fill="white" stroke="#666666" points="516.5,-430 397.5,-430 397.5,-400 516.5,-400 516.5,-430"/>
<text text-anchor="start" x="405.5" y="-418" font-family="Helvetica,sans-Serif" font-size="10.00">ore::data::VanillaOption</text>
<text text-anchor="middle" x="457" y="-407" font-family="Helvetica,sans-Serif" font-size="10.00">Trade::build</text>
</a>
</g>
</g>
<!-- Node1&#45;&gt;Node13 -->
<g id="edge12" class="edge"><title>Node1&#45;&gt;Node13</title>
<path fill="none" stroke="#63b8ff" d="M613.661,-249.823C600.507,-279.556 571.498,-337.824 532,-375 521.259,-385.109 507.475,-393.468 494.721,-399.884"/>
<polygon fill="#63b8ff" stroke="#63b8ff" points="616.902,-251.146 617.644,-240.578 610.473,-248.377 616.902,-251.146"/>
</g>
<!-- Node21 -->
<g id="node21" class="node"><title>Node21</title>
<g id="a_node21"><a xlink:href="classore_1_1data_1_1_barrier_option.html#ab1db499ff5e65c59fd2009d62276fdaf" target="_top" xlink:title="Build QuantLib/QuantExt instrument, link pricing engine.">
<polygon fill="white" stroke="#666666" points="516,-126 398,-126 398,-96 516,-96 516,-126"/>
<text text-anchor="start" x="406" y="-114" font-family="Helvetica,sans-Serif" font-size="10.00">ore::data::BarrierOption</text>
<text text-anchor="middle" x="457" y="-103" font-family="Helvetica,sans-Serif" font-size="10.00">::build</text>
</a>
</g>
</g>
<!-- Node1&#45;&gt;Node21 -->
<g id="edge21" class="edge"><title>Node1&#45;&gt;Node21</title>
<path fill="none" stroke="#63b8ff" d="M609.219,-213.058C593.632,-191.575 564.795,-155.883 532,-135 526.646,-131.59 520.763,-128.624 514.727,-126.053"/>
<polygon fill="#63b8ff" stroke="#63b8ff" points="606.426,-215.171 615.061,-221.311 612.14,-211.126 606.426,-215.171"/>
</g>
<!-- Node25 -->
<g id="node25" class="node"><title>Node25</title>
<g id="a_node25"><a xlink:href="classore_1_1data_1_1_commodity_swaption.html#a7158c90da58d23d6c8d55040bb585107" target="_top" xlink:title=" ">
<polygon fill="white" stroke="#666666" points="532,-78 382,-78 382,-48 532,-48 532,-78"/>
<text text-anchor="start" x="390" y="-66" font-family="Helvetica,sans-Serif" font-size="10.00">ore::data::CommoditySwaption</text>
<text text-anchor="middle" x="457" y="-55" font-family="Helvetica,sans-Serif" font-size="10.00">::build</text>
</a>
</g>
</g>
<!-- Node1&#45;&gt;Node25 -->
<g id="edge25" class="edge"><title>Node1&#45;&gt;Node25</title>
<path fill="none" stroke="#63b8ff" d="M614.593,-211.744C602.575,-180.93 574.919,-120.597 532,-87 527.64,-83.5867 522.778,-80.6512 517.687,-78.1278"/>
<polygon fill="#63b8ff" stroke="#63b8ff" points="611.398,-213.191 618.192,-221.321 617.951,-210.729 611.398,-213.191"/>
</g>
<!-- Node26 -->
<g id="node26" class="node"><title>Node26</title>
<g id="a_node26"><a xlink:href="classore_1_1data_1_1_credit_default_swap_option.html#afc9fe7ddc6f66184a6447fa23f01687c" target="_top" xlink:title="Build CDS option given that no default.">
<polygon fill="white" stroke="#666666" points="525.5,-30 388.5,-30 388.5,-0 525.5,-0 525.5,-30"/>
<text text-anchor="start" x="396.5" y="-18" font-family="Helvetica,sans-Serif" font-size="10.00">ore::data::CreditDefault</text>
<text text-anchor="middle" x="457" y="-7" font-family="Helvetica,sans-Serif" font-size="10.00">SwapOption::buildNoDefault</text>
</a>
</g>
</g>
<!-- Node1&#45;&gt;Node26 -->
<g id="edge26" class="edge"><title>Node1&#45;&gt;Node26</title>
<path fill="none" stroke="#63b8ff" d="M617.798,-211.449C609.475,-172.841 585.659,-86.4538 532,-39 528.155,-35.6 523.822,-32.6806 519.229,-30.174"/>
<polygon fill="#63b8ff" stroke="#63b8ff" points="614.4,-212.301 619.824,-221.402 621.259,-210.905 614.4,-212.301"/>
</g>
<!-- Node3 -->
<g id="node3" class="node"><title>Node3</title>
<g id="a_node3"><a xlink:href="equitytrades_8cpp.html#a9157b4f937ae04fa01bdd86ef531a15d" target="_top" xlink:title=" ">
<polygon fill="white" stroke="#666666" points="152,-520.5 9,-520.5 9,-501.5 152,-501.5 152,-520.5"/>
<text text-anchor="middle" x="80.5" y="-508.5" font-family="Helvetica,sans-Serif" font-size="10.00">BOOST_AUTO_TEST_CASE</text>
</a>
</g>
</g>
<!-- Node2&#45;&gt;Node3 -->
<g id="edge2" class="edge"><title>Node2&#45;&gt;Node3</title>
<path fill="none" stroke="#63b8ff" d="M202.724,-511C186.321,-511 168.747,-511 152.213,-511"/>
<polygon fill="#63b8ff" stroke="#63b8ff" points="202.767,-514.5 212.767,-511 202.767,-507.5 202.767,-514.5"/>
</g>
<!-- Node5 -->
<g id="node5" class="node"><title>Node5</title>
<g id="a_node5"><a xlink:href="fxexotics_8cpp.html#a1bb3d76e35ea3c22bb6f167cc5a2a9fa" target="_top" xlink:title=" ">
<polygon fill="white" stroke="#666666" points="343,-333.5 200,-333.5 200,-314.5 343,-314.5 343,-333.5"/>
<text text-anchor="middle" x="271.5" y="-321.5" font-family="Helvetica,sans-Serif" font-size="10.00">BOOST_AUTO_TEST_CASE</text>
</a>
</g>
</g>
<!-- Node4&#45;&gt;Node5 -->
<g id="edge4" class="edge"><title>Node4&#45;&gt;Node5</title>
<path fill="none" stroke="#63b8ff" d="M382.611,-340.202C367.635,-337.998 351.978,-335.694 337.326,-333.538"/>
<polygon fill="#63b8ff" stroke="#63b8ff" points="382.447,-343.715 392.85,-341.708 383.466,-336.79 382.447,-343.715"/>
</g>
<!-- Node7 -->
<g id="node7" class="node"><title>Node7</title>
<g id="a_node7"><a xlink:href="fxexotics_8cpp.html#ae4a8f5fc2a666b87316a20b9716625b7" target="_top" xlink:title=" ">
<polygon fill="white" stroke="#666666" points="343,-296.5 200,-296.5 200,-277.5 343,-277.5 343,-296.5"/>
<text text-anchor="middle" x="271.5" y="-284.5" font-family="Helvetica,sans-Serif" font-size="10.00">BOOST_AUTO_TEST_CASE</text>
</a>
</g>
</g>
<!-- Node6&#45;&gt;Node7 -->
<g id="edge6" class="edge"><title>Node6&#45;&gt;Node7</title>
<path fill="none" stroke="#63b8ff" d="M384.63,-296.777C371.015,-295.59 356.77,-294.348 343.177,-293.163"/>
<polygon fill="#63b8ff" stroke="#63b8ff" points="384.631,-300.29 394.897,-297.672 385.239,-293.317 384.631,-300.29"/>
</g>
<!-- Node11 -->
<g id="node11" class="node"><title>Node11</title>
<g id="a_node11"><a xlink:href="test_2swaption_8cpp.html#a3dba2613c5fc93775620d58ed073e9d9" target="_top" xlink:title=" ">
<polygon fill="white" stroke="#666666" points="343,-211.5 200,-211.5 200,-192.5 343,-192.5 343,-211.5"/>
<text text-anchor="middle" x="271.5" y="-199.5" font-family="Helvetica,sans-Serif" font-size="10.00">BOOST_AUTO_TEST_CASE</text>
</a>
</g>
</g>
<!-- Node10&#45;&gt;Node11 -->
<g id="edge10" class="edge"><title>Node10&#45;&gt;Node11</title>
<path fill="none" stroke="#63b8ff" d="M396.525,-172.937C369.288,-179.319 337.702,-186.721 313.222,-192.458"/>
<polygon fill="#63b8ff" stroke="#63b8ff" points="397.405,-176.326 406.342,-170.636 395.807,-169.51 397.405,-176.326"/>
</g>
<!-- Node12 -->
<g id="node12" class="node"><title>Node12</title>
<g id="a_node12"><a xlink:href="classore_1_1data_1_1_callable_swap.html#ab1db499ff5e65c59fd2009d62276fdaf" target="_top" xlink:title="Build QuantLib/QuantExt instrument, link pricing engine.">
<polygon fill="white" stroke="#666666" points="331,-174 212,-174 212,-144 331,-144 331,-174"/>
<text text-anchor="start" x="220" y="-162" font-family="Helvetica,sans-Serif" font-size="10.00">ore::data::CallableSwap</text>
<text text-anchor="middle" x="271.5" y="-151" font-family="Helvetica,sans-Serif" font-size="10.00">::build</text>
</a>
</g>
</g>
<!-- Node10&#45;&gt;Node12 -->
<g id="edge11" class="edge"><title>Node10&#45;&gt;Node12</title>
<path fill="none" stroke="#63b8ff" d="M396.333,-159C375.483,-159 352.104,-159 331.324,-159"/>
<polygon fill="#63b8ff" stroke="#63b8ff" points="396.342,-162.5 406.342,-159 396.342,-155.5 396.342,-162.5"/>
</g>
<!-- Node13&#45;&gt;Node2 -->
<g id="edge15" class="edge"><title>Node13&#45;&gt;Node2</title>
<path fill="none" stroke="#63b8ff" d="M427.941,-436.358C406.412,-451.987 375.478,-472.848 346,-487 339.223,-490.253 331.894,-493.232 324.579,-495.9"/>
<polygon fill="#63b8ff" stroke="#63b8ff" points="430.294,-438.972 436.275,-430.227 426.146,-433.334 430.294,-438.972"/>
</g>
<!-- Node14 -->
<g id="node14" class="node"><title>Node14</title>
<g id="a_node14"><a xlink:href="classore_1_1data_1_1_equity_future_option.html#af7b69d5b18d278257927e32b10a23ee6" target="_top" xlink:title="Build QuantLib/QuantExt instrument, link pricing engine.">
<polygon fill="white" stroke="#666666" points="344,-478 199,-478 199,-448 344,-448 344,-478"/>
<text text-anchor="start" x="207" y="-466" font-family="Helvetica,sans-Serif" font-size="10.00">ore::data::EquityFutureOption</text>
<text text-anchor="middle" x="271.5" y="-455" font-family="Helvetica,sans-Serif" font-size="10.00">::build</text>
</a>
</g>
</g>
<!-- Node13&#45;&gt;Node14 -->
<g id="edge13" class="edge"><title>Node13&#45;&gt;Node14</title>
<path fill="none" stroke="#63b8ff" d="M388.527,-432.649C369.26,-437.689 348.454,-443.132 329.853,-447.998"/>
<polygon fill="#63b8ff" stroke="#63b8ff" points="389.654,-435.973 398.443,-430.056 387.883,-429.2 389.654,-435.973"/>
</g>
<!-- Node16 -->
<g id="node16" class="node"><title>Node16</title>
<g id="a_node16"><a xlink:href="classore_1_1data_1_1_fx_option.html#af7b69d5b18d278257927e32b10a23ee6" target="_top" xlink:title="Build QuantLib/QuantExt instrument, link pricing engine.">
<polygon fill="white" stroke="#666666" points="322,-430 221,-430 221,-400 322,-400 322,-430"/>
<text text-anchor="start" x="229" y="-418" font-family="Helvetica,sans-Serif" font-size="10.00">ore::data::FxOption</text>
<text text-anchor="middle" x="271.5" y="-407" font-family="Helvetica,sans-Serif" font-size="10.00">::build</text>
</a>
</g>
</g>
<!-- Node13&#45;&gt;Node16 -->
<g id="edge16" class="edge"><title>Node13&#45;&gt;Node16</title>
<path fill="none" stroke="#63b8ff" d="M387.318,-415C365.691,-415 342.235,-415 322.195,-415"/>
<polygon fill="#63b8ff" stroke="#63b8ff" points="387.435,-418.5 397.435,-415 387.435,-411.5 387.435,-418.5"/>
</g>
<!-- Node18 -->
<g id="node18" class="node"><title>Node18</title>
<g id="a_node18"><a xlink:href="classore_1_1data_1_1_commodity_option.html#a82238405f67248d44bb177a6951c8c2e" target="_top" xlink:title="Build underlying instrument and link pricing engine.">
<polygon fill="white" stroke="#666666" points="341,-382 202,-382 202,-352 341,-352 341,-382"/>
<text text-anchor="start" x="210" y="-370" font-family="Helvetica,sans-Serif" font-size="10.00">ore::data::CommodityOption</text>
<text text-anchor="middle" x="271.5" y="-359" font-family="Helvetica,sans-Serif" font-size="10.00">::build</text>
</a>
</g>
</g>
<!-- Node13&#45;&gt;Node18 -->
<g id="edge18" class="edge"><title>Node13&#45;&gt;Node18</title>
<path fill="none" stroke="#63b8ff" d="M388.527,-397.351C369.26,-392.311 348.454,-386.868 329.853,-382.002"/>
<polygon fill="#63b8ff" stroke="#63b8ff" points="387.883,-400.8 398.443,-399.944 389.654,-394.027 387.883,-400.8"/>
</g>
<!-- Node15 -->
<g id="node15" class="node"><title>Node15</title>
<g id="a_node15"><a xlink:href="equitytrades_8cpp.html#aa42062877db60fac479ac06add9deb01" target="_top" xlink:title=" ">
<polygon fill="white" stroke="#666666" points="152,-472.5 9,-472.5 9,-453.5 152,-453.5 152,-472.5"/>
<text text-anchor="middle" x="80.5" y="-460.5" font-family="Helvetica,sans-Serif" font-size="10.00">BOOST_AUTO_TEST_CASE</text>
</a>
</g>
</g>
<!-- Node14&#45;&gt;Node15 -->
<g id="edge14" class="edge"><title>Node14&#45;&gt;Node15</title>
<path fill="none" stroke="#63b8ff" d="M188.67,-463C176.535,-463 164.117,-463 152.235,-463"/>
<polygon fill="#63b8ff" stroke="#63b8ff" points="188.778,-466.5 198.778,-463 188.778,-459.5 188.778,-466.5"/>
</g>
<!-- Node17 -->
<g id="node17" class="node"><title>Node17</title>
<g id="a_node17"><a xlink:href="test_2fxoption_8cpp.html#a321417ba3c97d0524c8fa2d8acb97d72" target="_top" xlink:title=" ">
<polygon fill="white" stroke="#666666" points="152,-424.5 9,-424.5 9,-405.5 152,-405.5 152,-424.5"/>
<text text-anchor="middle" x="80.5" y="-412.5" font-family="Helvetica,sans-Serif" font-size="10.00">BOOST_AUTO_TEST_CASE</text>
</a>
</g>
</g>
<!-- Node16&#45;&gt;Node17 -->
<g id="edge17" class="edge"><title>Node16&#45;&gt;Node17</title>
<path fill="none" stroke="#63b8ff" d="M210.74,-415C192.128,-415 171.428,-415 152.145,-415"/>
<polygon fill="#63b8ff" stroke="#63b8ff" points="210.843,-418.5 220.842,-415 210.842,-411.5 210.843,-418.5"/>
</g>
<!-- Node19 -->
<g id="node19" class="node"><title>Node19</title>
<g id="a_node19"><a xlink:href="classore_1_1data_1_1_commodity_digital_option.html#a82238405f67248d44bb177a6951c8c2e" target="_top" xlink:title="Build underlying instrument and link pricing engine.">
<polygon fill="white" stroke="#666666" points="149,-384 12,-384 12,-354 149,-354 149,-384"/>
<text text-anchor="start" x="20" y="-372" font-family="Helvetica,sans-Serif" font-size="10.00">ore::data::CommodityDigital</text>
<text text-anchor="middle" x="80.5" y="-361" font-family="Helvetica,sans-Serif" font-size="10.00">Option::build</text>
</a>
</g>
</g>
<!-- Node18&#45;&gt;Node19 -->
<g id="edge19" class="edge"><title>Node18&#45;&gt;Node19</title>
<path fill="none" stroke="#63b8ff" d="M191.786,-367.833C177.615,-367.983 162.956,-368.138 149.134,-368.284"/>
<polygon fill="#63b8ff" stroke="#63b8ff" points="192.037,-371.331 201.999,-367.725 191.963,-364.331 192.037,-371.331"/>
</g>
<!-- Node20 -->
<g id="node20" class="node"><title>Node20</title>
<g id="a_node20"><a xlink:href="classore_1_1data_1_1_commodity_average_price_option.html#ab927cfcbbf36bfbbaa854f21f964aced" target="_top" xlink:title="Build a standard option.">
<polygon fill="white" stroke="#666666" points="161,-336 0,-336 0,-306 161,-306 161,-336"/>
<text text-anchor="start" x="8" y="-324" font-family="Helvetica,sans-Serif" font-size="10.00">ore::data::CommodityAverage</text>
<text text-anchor="middle" x="80.5" y="-313" font-family="Helvetica,sans-Serif" font-size="10.00">PriceOption::buildStandardOption</text>
</a>
</g>
</g>
<!-- Node18&#45;&gt;Node20 -->
<g id="edge20" class="edge"><title>Node18&#45;&gt;Node20</title>
<path fill="none" stroke="#63b8ff" d="M198.867,-349.565C180.536,-345.104 160.985,-340.345 143.202,-336.017"/>
<polygon fill="#63b8ff" stroke="#63b8ff" points="198.07,-352.974 208.614,-351.938 199.726,-346.172 198.07,-352.974"/>
</g>
<!-- Node22 -->
<g id="node22" class="node"><title>Node22</title>
<g id="a_node22"><a xlink:href="classore_1_1data_1_1_fx_option_with_barrier.html#a023906d726fdb4d1f906576fe597c579" target="_top" xlink:title=" ">
<polygon fill="white" stroke="#666666" points="346,-126 197,-126 197,-96 346,-96 346,-126"/>
<text text-anchor="start" x="205" y="-114" font-family="Helvetica,sans-Serif" font-size="10.00">ore::data::FxOptionWithBarrier</text>
<text text-anchor="middle" x="271.5" y="-103" font-family="Helvetica,sans-Serif" font-size="10.00">::build</text>
</a>
</g>
</g>
<!-- Node21&#45;&gt;Node22 -->
<g id="edge22" class="edge"><title>Node21&#45;&gt;Node22</title>
<path fill="none" stroke="#63b8ff" d="M387.707,-111C374.11,-111 359.776,-111 346.013,-111"/>
<polygon fill="#63b8ff" stroke="#63b8ff" points="387.939,-114.5 397.939,-111 387.939,-107.5 387.939,-114.5"/>
</g>
<!-- Node24 -->
<g id="node24" class="node"><title>Node24</title>
<g id="a_node24"><a xlink:href="classore_1_1data_1_1_equity_option_with_barrier.html#a023906d726fdb4d1f906576fe597c579" target="_top" xlink:title=" ">
<polygon fill="white" stroke="#666666" points="340,-78 203,-78 203,-48 340,-48 340,-78"/>
<text text-anchor="start" x="211" y="-66" font-family="Helvetica,sans-Serif" font-size="10.00">ore::data::EquityOptionWith</text>
<text text-anchor="middle" x="271.5" y="-55" font-family="Helvetica,sans-Serif" font-size="10.00">Barrier::build</text>
</a>
</g>
</g>
<!-- Node21&#45;&gt;Node24 -->
<g id="edge24" class="edge"><title>Node21&#45;&gt;Node24</title>
<path fill="none" stroke="#63b8ff" d="M388.527,-93.3505C369.26,-88.3106 348.454,-82.868 329.853,-78.0024"/>
<polygon fill="#63b8ff" stroke="#63b8ff" points="387.883,-96.7995 398.443,-95.9442 389.654,-90.0274 387.883,-96.7995"/>
</g>
<!-- Node23 -->
<g id="node23" class="node"><title>Node23</title>
<g id="a_node23"><a xlink:href="fxexotics_8cpp.html#a97f1cf85be4712888f153506afc004be" target="_top" xlink:title=" ">
<polygon fill="white" stroke="#666666" points="152,-120.5 9,-120.5 9,-101.5 152,-101.5 152,-120.5"/>
<text text-anchor="middle" x="80.5" y="-108.5" font-family="Helvetica,sans-Serif" font-size="10.00">BOOST_AUTO_TEST_CASE</text>
</a>
</g>
</g>
<!-- Node22&#45;&gt;Node23 -->
<g id="edge23" class="edge"><title>Node22&#45;&gt;Node23</title>
<path fill="none" stroke="#63b8ff" d="M186.791,-111C175.219,-111 163.428,-111 152.124,-111"/>
<polygon fill="#63b8ff" stroke="#63b8ff" points="186.887,-114.5 196.886,-111 186.886,-107.5 186.887,-114.5"/>
</g>
<!-- Node27 -->
<g id="node27" class="node"><title>Node27</title>
<g id="a_node27"><a xlink:href="classore_1_1data_1_1_credit_default_swap_option.html#a1ef499f219449a5d9cad686946864d0b" target="_top" xlink:title=" ">
<polygon fill="white" stroke="#666666" points="329.5,-30 213.5,-30 213.5,-0 329.5,-0 329.5,-30"/>
<text text-anchor="start" x="221.5" y="-18" font-family="Helvetica,sans-Serif" font-size="10.00">ore::data::CreditDefault</text>
<text text-anchor="middle" x="271.5" y="-7" font-family="Helvetica,sans-Serif" font-size="10.00">SwapOption::build</text>
</a>
</g>
</g>
<!-- Node26&#45;&gt;Node27 -->
<g id="edge27" class="edge"><title>Node26&#45;&gt;Node27</title>
<path fill="none" stroke="#63b8ff" d="M378.377,-15C362.036,-15 345.082,-15 329.657,-15"/>
<polygon fill="#63b8ff" stroke="#63b8ff" points="378.453,-18.5001 388.453,-15 378.453,-11.5001 378.453,-18.5001"/>
</g>
</g>
</svg>
        <g id="navigator" transform="translate(0 0)" fill="#404254">
                <rect fill="#f2f5e9" fill-opacity="0.5" stroke="#606060" stroke-width=".5" x="0" y="0" width="60" height="60"/>
                <use id="zoomplus" xlink:href="#zoomPlus" x="17" y="9" onmousedown="handleZoom(evt,'in')"/>
                <use id="zoomminus" xlink:href="#zoomMin" x="42" y="9" onmousedown="handleZoom(evt,'out')"/>
                <use id="reset" xlink:href="#resetDef" x="30" y="36" onmousedown="handleReset()"/>
                <g id="arrowUp" xlink:href="#dirArrow" transform="translate(30 24)" onmousedown="handlePan(0,-1)">
                  <use xlink:href="#rim" fill="#404040">
                        <set attributeName="fill" to="#808080" begin="arrowUp.mouseover" end="arrowUp.mouseout"/>
                  </use>
                  <path fill="none" stroke="white" stroke-width="1.5" d="M0,-3.0v7 M-2.5,-0.5L0,-3.0L2.5,-0.5"/>
                </g>
                <g id="arrowRight" xlink:href="#dirArrow" transform="rotate(90) translate(36 -43)" onmousedown="handlePan(1,0)">
                  <use xlink:href="#rim" fill="#404040">
                        <set attributeName="fill" to="#808080" begin="arrowRight.mouseover" end="arrowRight.mouseout"/>
                  </use>
                  <path fill="none" stroke="white" stroke-width="1.5" d="M0,-3.0v7 M-2.5,-0.5L0,-3.0L2.5,-0.5"/>
                </g>
                <g id="arrowDown" xlink:href="#dirArrow" transform="rotate(180) translate(-30 -48)" onmousedown="handlePan(0,1)">
                  <use xlink:href="#rim" fill="#404040">
                        <set attributeName="fill" to="#808080" begin="arrowDown.mouseover" end="arrowDown.mouseout"/>
                  </use>
                  <path fill="none" stroke="white" stroke-width="1.5" d="M0,-3.0v7 M-2.5,-0.5L0,-3.0L2.5,-0.5"/>
                </g>
                <g id="arrowLeft" xlink:href="#dirArrow" transform="rotate(270) translate(-36 17)" onmousedown="handlePan(-1,0)">
                  <use xlink:href="#rim" fill="#404040">
                        <set attributeName="fill" to="#808080" begin="arrowLeft.mouseover" end="arrowLeft.mouseout"/>
                  </use>
                  <path fill="none" stroke="white" stroke-width="1.5" d="M0,-3.0v7 M-2.5,-0.5L0,-3.0L2.5,-0.5"/>
                </g>
        </g>
        <svg viewBox="0 0 15 15" width="100%" height="30px" preserveAspectRatio="xMaxYMin meet">
         <g id="arrow_out" transform="scale(0.3 0.3)">
          <a xlink:href="group__utilities_gaedc713e911316c8eb473fdaf83fcfaa6_icgraph_org.svg" target="_base">
           <rect id="button" ry="5" rx="5" y="6" x="6" height="38" width="38"
                fill="#f2f5e9" fill-opacity="0.5" stroke="#606060" stroke-width="1.0"/>
           <path id="arrow"
             d="M 11.500037,31.436501 C 11.940474,20.09759 22.043105,11.32322 32.158766,21.979434 L 37.068811,17.246167 C 37.068811,17.246167 37.088388,32 37.088388,32 L 22.160133,31.978069 C 22.160133,31.978069 26.997745,27.140456 26.997745,27.140456 C 18.528582,18.264221 13.291696,25.230495 11.500037,31.436501 z"
             style="fill:#404040;"/>
          </a>
         </g>
        </svg>
</svg>
