<?xml version="1.0" encoding="UTF-8" standalone="no"?>
<!DOCTYPE svg PUBLIC "-//W3C//DTD SVG 1.1//EN"
 "http://www.w3.org/Graphics/SVG/1.1/DTD/svg11.dtd">
<!-- Generated by graphviz version 2.38.0 (20140413.2041)
 -->
<!-- Title: fxDominance Pages: 1 -->
<svg width="772pt" height="140pt"
 viewBox="0.00 0.00 772.00 139.50" xmlns="http://www.w3.org/2000/svg" xmlns:xlink="http://www.w3.org/1999/xlink">
<g id="graph0" class="graph" transform="scale(1 1) rotate(0) translate(4 135.5)">
<title>fxDominance</title>
<!-- Node1 -->
<g id="node1" class="node"><title>Node1</title>
<g id="a_node1"><a xlink:title="Convert FX pair to market standard dominance.">
<polygon fill="#999999" stroke="#666666" points="764,-62 691,-62 691,-43 764,-43 764,-62"/>
<text text-anchor="middle" x="727.5" y="-50" font-family="Helvetica,sans-Serif" font-size="10.00">fxDominance</text>
</a>
</g>
</g>
<!-- Node2 -->
<g id="node2" class="node"><title>Node2</title>
<g id="a_node2"><a xlink:href="fxdom_8cpp.html#a2aca42177d20c12cb9efd929a21f7286" target="_top" xlink:title=" ">
<polygon fill="white" stroke="#666666" points="655,-105 512,-105 512,-86 655,-86 655,-105"/>
<text text-anchor="middle" x="583.5" y="-93" font-family="Helvetica,sans-Serif" font-size="10.00">BOOST_AUTO_TEST_CASE</text>
</a>
</g>
</g>
<!-- Node1&#45;&gt;Node2 -->
<g id="edge1" class="edge"><title>Node1&#45;&gt;Node2</title>
<path fill="none" stroke="#63b8ff" d="M689.993,-65.2285C678.809,-68.9996 666.439,-73.0422 655,-76.5 644.201,-79.7644 632.389,-83.0555 621.575,-85.9601"/>
<polygon fill="#63b8ff" stroke="#63b8ff" points="691.123,-68.5411 699.462,-62.006 688.868,-61.9143 691.123,-68.5411"/>
</g>
<!-- Node3 -->
<g id="node3" class="node"><title>Node3</title>
<g id="a_node3"><a xlink:href="classore_1_1data_1_1_loader.html#a5fd63a6d54fdaac9a490ef18bf07c08d" target="_top" xlink:title=" ">
<polygon fill="white" stroke="#666666" points="631.5,-67.5 535.5,-67.5 535.5,-37.5 631.5,-37.5 631.5,-67.5"/>
<text text-anchor="start" x="543.5" y="-55.5" font-family="Helvetica,sans-Serif" font-size="10.00">ore::data::Loader::</text>
<text text-anchor="middle" x="583.5" y="-44.5" font-family="Helvetica,sans-Serif" font-size="10.00">checkFxDuplicate</text>
</a>
</g>
</g>
<!-- Node1&#45;&gt;Node3 -->
<g id="edge2" class="edge"><title>Node1&#45;&gt;Node3</title>
<path fill="none" stroke="#63b8ff" d="M680.664,-52.5C664.97,-52.5 647.391,-52.5 631.599,-52.5"/>
<polygon fill="#63b8ff" stroke="#63b8ff" points="680.667,-56.0001 690.667,-52.5 680.667,-49.0001 680.667,-56.0001"/>
</g>
<!-- Node10 -->
<g id="node10" class="node"><title>Node10</title>
<g id="a_node10"><a xlink:href="namespaceore_1_1data.html#a0d8a56a2055eed832eecb066005885a2" target="_top" xlink:title="Convert FX index name to market standard dominance.">
<polygon fill="white" stroke="#666666" points="630,-19 537,-19 537,-0 630,-0 630,-19"/>
<text text-anchor="middle" x="583.5" y="-7" font-family="Helvetica,sans-Serif" font-size="10.00">normaliseFxIndex</text>
</a>
</g>
</g>
<!-- Node1&#45;&gt;Node10 -->
<g id="edge9" class="edge"><title>Node1&#45;&gt;Node10</title>
<path fill="none" stroke="#63b8ff" d="M689.993,-39.7715C678.809,-36.0004 666.439,-31.9578 655,-28.5 644.201,-25.2356 632.389,-21.9445 621.575,-19.0399"/>
<polygon fill="#63b8ff" stroke="#63b8ff" points="688.868,-43.0857 699.462,-42.994 691.123,-36.4589 688.868,-43.0857"/>
</g>
<!-- Node4 -->
<g id="node4" class="node"><title>Node4</title>
<g id="a_node4"><a xlink:href="classore_1_1data_1_1_in_memory_loader.html#ab033d7bbd4da0af2f75abb8952fcacce" target="_top" xlink:title=" ">
<polygon fill="white" stroke="#666666" points="476,-83 321,-83 321,-64 476,-64 476,-83"/>
<text text-anchor="middle" x="398.5" y="-71" font-family="Helvetica,sans-Serif" font-size="10.00">ore::data::InMemoryLoader::add</text>
</a>
</g>
</g>
<!-- Node3&#45;&gt;Node4 -->
<g id="edge3" class="edge"><title>Node3&#45;&gt;Node4</title>
<path fill="none" stroke="#63b8ff" d="M525.398,-59.0527C509.844,-60.8375 492.738,-62.8005 476.284,-64.6887"/>
<polygon fill="#63b8ff" stroke="#63b8ff" points="525.837,-62.5253 535.373,-57.908 525.039,-55.571 525.837,-62.5253"/>
</g>
<!-- Node8 -->
<g id="node8" class="node"><title>Node8</title>
<g id="a_node8"><a xlink:href="classore_1_1data_1_1_c_s_v_loader.html#af8a277c7dc57076a3daec6356ccc1be3" target="_top" xlink:title=" ">
<polygon fill="white" stroke="#666666" points="453.5,-45.5 343.5,-45.5 343.5,-15.5 453.5,-15.5 453.5,-45.5"/>
<text text-anchor="start" x="351.5" y="-33.5" font-family="Helvetica,sans-Serif" font-size="10.00">ore::data::CSVLoader</text>
<text text-anchor="middle" x="398.5" y="-22.5" font-family="Helvetica,sans-Serif" font-size="10.00">::loadFile</text>
</a>
</g>
</g>
<!-- Node3&#45;&gt;Node8 -->
<g id="edge7" class="edge"><title>Node3&#45;&gt;Node8</title>
<path fill="none" stroke="#63b8ff" d="M525.44,-45.6403C502.515,-42.8843 476.212,-39.7223 453.594,-37.0031"/>
<polygon fill="#63b8ff" stroke="#63b8ff" points="525.027,-49.1158 535.373,-46.8345 525.862,-42.1658 525.027,-49.1158"/>
</g>
<!-- Node5 -->
<g id="node5" class="node"><title>Node5</title>
<g id="a_node5"><a xlink:href="classore_1_1data_1_1_adjusted_in_memory_loader.html#a394ea65c115638a789b7e4793aed8f8a" target="_top" xlink:title=" ">
<polygon fill="white" stroke="#666666" points="285,-131.5 143,-131.5 143,-101.5 285,-101.5 285,-131.5"/>
<text text-anchor="start" x="151" y="-119.5" font-family="Helvetica,sans-Serif" font-size="10.00">ore::data::AdjustedInMemory</text>
<text text-anchor="middle" x="214" y="-108.5" font-family="Helvetica,sans-Serif" font-size="10.00">Loader::add</text>
</a>
</g>
</g>
<!-- Node4&#45;&gt;Node5 -->
<g id="edge4" class="edge"><title>Node4&#45;&gt;Node5</title>
<path fill="none" stroke="#63b8ff" d="M347.236,-85.3431C326.049,-90.3351 301.141,-96.2038 278.69,-101.494"/>
<polygon fill="#63b8ff" stroke="#63b8ff" points="348.067,-88.7433 356.997,-83.0431 346.461,-81.9298 348.067,-88.7433"/>
</g>
<!-- Node6 -->
<g id="node6" class="node"><title>Node6</title>
<g id="a_node6"><a xlink:href="namespaceore_1_1data.html#a42f1390d171c5924c3fa721f51a32200" target="_top" xlink:title=" ">
<polygon fill="white" stroke="#666666" points="231.5,-83 196.5,-83 196.5,-64 231.5,-64 231.5,-83"/>
<text text-anchor="middle" x="214" y="-71" font-family="Helvetica,sans-Serif" font-size="10.00">load</text>
</a>
</g>
</g>
<!-- Node4&#45;&gt;Node6 -->
<g id="edge5" class="edge"><title>Node4&#45;&gt;Node6</title>
<path fill="none" stroke="#63b8ff" d="M310.729,-73.5C280.616,-73.5 249.852,-73.5 231.595,-73.5"/>
<polygon fill="#63b8ff" stroke="#63b8ff" points="310.897,-77.0001 320.897,-73.5 310.897,-70.0001 310.897,-77.0001"/>
</g>
<!-- Node7 -->
<g id="node7" class="node"><title>Node7</title>
<g id="a_node7"><a xlink:href="namespaceore_1_1data.html#a22d0bfabdad131343a5f49618b7db10d" target="_top" xlink:title="Utility function for loading market quotes and fixings from an in memory csv buffer.">
<polygon fill="white" stroke="#666666" points="107,-83 0,-83 0,-64 107,-64 107,-83"/>
<text text-anchor="middle" x="53.5" y="-71" font-family="Helvetica,sans-Serif" font-size="10.00">loadDataFromBuffers</text>
</a>
</g>
</g>
<!-- Node6&#45;&gt;Node7 -->
<g id="edge6" class="edge"><title>Node6&#45;&gt;Node7</title>
<path fill="none" stroke="#63b8ff" d="M186.299,-73.5C164.77,-73.5 133.823,-73.5 107.326,-73.5"/>
<polygon fill="#63b8ff" stroke="#63b8ff" points="186.337,-77.0001 196.337,-73.5 186.337,-70.0001 186.337,-77.0001"/>
</g>
<!-- Node9 -->
<g id="node9" class="node"><title>Node9</title>
<g id="a_node9"><a xlink:href="classore_1_1data_1_1_c_s_v_loader.html#a9cd43c2280d0cee91b282fe13b36679d" target="_top" xlink:title=" ">
<polygon fill="white" stroke="#666666" points="269,-45.5 159,-45.5 159,-15.5 269,-15.5 269,-45.5"/>
<text text-anchor="start" x="167" y="-33.5" font-family="Helvetica,sans-Serif" font-size="10.00">ore::data::CSVLoader</text>
<text text-anchor="middle" x="214" y="-22.5" font-family="Helvetica,sans-Serif" font-size="10.00">::CSVLoader</text>
</a>
</g>
</g>
<!-- Node8&#45;&gt;Node9 -->
<g id="edge8" class="edge"><title>Node8&#45;&gt;Node9</title>
<path fill="none" stroke="#63b8ff" d="M333.143,-30.5C312.194,-30.5 289.168,-30.5 269.053,-30.5"/>
<polygon fill="#63b8ff" stroke="#63b8ff" points="333.238,-34.0001 343.238,-30.5 333.238,-27.0001 333.238,-34.0001"/>
</g>
</g>
</svg>
