<?xml version="1.0" encoding="UTF-8" standalone="no"?>
<!DOCTYPE svg PUBLIC "-//W3C//DTD SVG 1.1//EN"
 "http://www.w3.org/Graphics/SVG/1.1/DTD/svg11.dtd">
<!-- Generated by graphviz version 2.38.0 (20140413.2041)
 -->
<!-- Title: parseMomentType Pages: 1 -->
<svg width="241pt" height="86pt"
 viewBox="0.00 0.00 241.00 86.00" xmlns="http://www.w3.org/2000/svg" xmlns:xlink="http://www.w3.org/1999/xlink">
<g id="graph0" class="graph" transform="scale(1 1) rotate(0) translate(4 82)">
<title>parseMomentType</title>
<!-- Node1 -->
<g id="node1" class="node"><title>Node1</title>
<g id="a_node1"><a xlink:title="Convert text to ore::data::MomentType.">
<polygon fill="#999999" stroke="#666666" points="233,-48.5 136,-48.5 136,-29.5 233,-29.5 233,-48.5"/>
<text text-anchor="middle" x="184.5" y="-36.5" font-family="Helvetica,sans-Serif" font-size="10.00">parseMomentType</text>
</a>
</g>
</g>
<!-- Node2 -->
<g id="node2" class="node"><title>Node2</title>
<g id="a_node2"><a xlink:href="classore_1_1data_1_1_var_swap.html#ab1db499ff5e65c59fd2009d62276fdaf" target="_top" xlink:title=" ">
<polygon fill="white" stroke="#666666" points="100,-78 0,-78 0,-48 100,-48 100,-78"/>
<text text-anchor="start" x="8" y="-66" font-family="Helvetica,sans-Serif" font-size="10.00">ore::data::VarSwap</text>
<text text-anchor="middle" x="50" y="-55" font-family="Helvetica,sans-Serif" font-size="10.00">::build</text>
</a>
</g>
</g>
<!-- Node1&#45;&gt;Node2 -->
<g id="edge1" class="edge"><title>Node1&#45;&gt;Node2</title>
<path fill="none" stroke="#63b8ff" d="M125.749,-49.4605C117.198,-51.0093 108.455,-52.593 100.103,-54.1059"/>
<polygon fill="#63b8ff" stroke="#63b8ff" points="126.448,-52.8909 135.664,-47.6646 125.201,-46.003 126.448,-52.8909"/>
</g>
<!-- Node3 -->
<g id="node3" class="node"><title>Node3</title>
<g id="a_node3"><a xlink:href="classore_1_1data_1_1_var_swap.html#a70619a91ccb26e89d3e8b56e39fd19ab" target="_top" xlink:title="Return the current notional in npvCurrency. See individual sub&#45;classes for the precise definition.">
<polygon fill="white" stroke="#666666" points="100,-30 0,-30 0,-0 100,-0 100,-30"/>
<text text-anchor="start" x="8" y="-18" font-family="Helvetica,sans-Serif" font-size="10.00">ore::data::VarSwap</text>
<text text-anchor="middle" x="50" y="-7" font-family="Helvetica,sans-Serif" font-size="10.00">::notional</text>
</a>
</g>
</g>
<!-- Node1&#45;&gt;Node3 -->
<g id="edge2" class="edge"><title>Node1&#45;&gt;Node3</title>
<path fill="none" stroke="#63b8ff" d="M125.749,-28.5395C117.198,-26.9907 108.455,-25.407 100.103,-23.8941"/>
<polygon fill="#63b8ff" stroke="#63b8ff" points="125.201,-31.997 135.664,-30.3354 126.448,-25.1091 125.201,-31.997"/>
</g>
</g>
</svg>
