<?xml version="1.0" encoding="UTF-8" standalone="no"?>
<!DOCTYPE svg PUBLIC "-//W3C//DTD SVG 1.1//EN"
 "http://www.w3.org/Graphics/SVG/1.1/DTD/svg11.dtd">
<!-- Generated by graphviz version 2.38.0 (20140413.2041)
 -->
<!-- Title: inverseFxIndex Pages: 1 -->
<!--zoomable 179 -->
<svg id="main" version="1.1" xmlns="http://www.w3.org/2000/svg" xmlns:xlink="http://www.w3.org/1999/xlink" xml:space="preserve" onload="init(evt)">
<style type="text/css"><![CDATA[
.edge:hover path { stroke: red; }
.edge:hover polygon { stroke: red; fill: red; }
]]></style>
<script type="text/javascript"><![CDATA[
var edges = document.getElementsByTagName('g');
if (edges && edges.length) {
  for (var i=0;i<edges.length;i++) {
    if (edges[i].id.substr(0,4)=='edge') {
      edges[i].setAttribute('class','edge');
    }
  }
}
]]></script>
        <defs>
                <circle id="rim" cx="0" cy="0" r="7"/>
                <circle id="rim2" cx="0" cy="0" r="3.5"/>
                <g id="zoomPlus">
                        <use xlink:href="#rim" fill="#404040">
                                <set attributeName="fill" to="#808080" begin="zoomplus.mouseover" end="zoomplus.mouseout"/>
                        </use>
                        <path d="M-4,0h8M0,-4v8" fill="none" stroke="white" stroke-width="1.5" pointer-events="none"/>
                </g>
                <g id="zoomMin">
                        <use xlink:href="#rim" fill="#404040">
                                <set attributeName="fill" to="#808080" begin="zoomminus.mouseover" end="zoomminus.mouseout"/>
                        </use>
                        <path d="M-4,0h8" fill="none" stroke="white" stroke-width="1.5" pointer-events="none"/>
                </g>
                <g id="dirArrow">
                        <path fill="none" stroke="white" stroke-width="1.5" d="M0,-3.0v7 M-2.5,-0.5L0,-3.0L2.5,-0.5"/>
                </g>
               <g id="resetDef">
                       <use xlink:href="#rim2" fill="#404040">
                               <set attributeName="fill" to="#808080" begin="reset.mouseover" end="reset.mouseout"/>
                       </use>
               </g>
        </defs>

<script type="text/javascript">
var viewWidth = 690;
var viewHeight = 179;
var sectionId = 'dynsection-251';
</script>
<script xlink:href="svgpan.js"/>
<svg id="graph" class="graph">
<g id="viewport">
<title>inverseFxIndex</title>
<!-- Node1 -->
<g id="node1" class="node"><title>Node1</title>
<g id="a_node1"><a xlink:title=" ">
<polygon fill="#999999" stroke="#666666" points="682,-77 601,-77 601,-58 682,-58 682,-77"/>
<text text-anchor="middle" x="641.5" y="-65" font-family="Helvetica,sans-Serif" font-size="10.00">inverseFxIndex</text>
</a>
</g>
</g>
<!-- Node2 -->
<g id="node2" class="node"><title>Node2</title>
<g id="a_node2"><a xlink:href="classore_1_1data_1_1_scripted_trade.html#a828e71af6d5fd00b8e73414732885b83" target="_top" xlink:title=" ">
<polygon fill="white" stroke="#666666" points="565,-170.5 444,-170.5 444,-140.5 565,-140.5 565,-170.5"/>
<text text-anchor="start" x="452" y="-158.5" font-family="Helvetica,sans-Serif" font-size="10.00">ore::data::ScriptedTrade</text>
<text text-anchor="middle" x="504.5" y="-147.5" font-family="Helvetica,sans-Serif" font-size="10.00">::build</text>
</a>
</g>
</g>
<!-- Node1&#45;&gt;Node2 -->
<g id="edge1" class="edge"><title>Node1&#45;&gt;Node2</title>
<path fill="none" stroke="#63b8ff" d="M623.79,-84.4255C609.248,-98.4441 587.092,-118.159 565,-131.5 559.565,-134.782 553.601,-137.792 547.612,-140.489"/>
<polygon fill="#63b8ff" stroke="#63b8ff" points="626.36,-86.8071 631.036,-77.3002 621.452,-81.8157 626.36,-86.8071"/>
</g>
<!-- Node3 -->
<g id="node3" class="node"><title>Node3</title>
<g id="a_node3"><a xlink:href="classore_1_1data_1_1_market_impl.html#ad449ed0141640824d2167e88ac863e06" target="_top" xlink:title="Correlation curves.">
<polygon fill="white" stroke="#666666" points="559,-104.5 450,-104.5 450,-74.5 559,-74.5 559,-104.5"/>
<text text-anchor="start" x="458" y="-92.5" font-family="Helvetica,sans-Serif" font-size="10.00">ore::data::MarketImpl</text>
<text text-anchor="middle" x="504.5" y="-81.5" font-family="Helvetica,sans-Serif" font-size="10.00">::correlationCurve</text>
</a>
</g>
</g>
<!-- Node1&#45;&gt;Node3 -->
<g id="edge2" class="edge"><title>Node1&#45;&gt;Node3</title>
<path fill="none" stroke="#63b8ff" d="M590.65,-75.6236C580.339,-77.304 569.437,-79.0807 559.001,-80.7813"/>
<polygon fill="#63b8ff" stroke="#63b8ff" points="591.419,-79.0447 600.726,-73.9817 590.293,-72.1358 591.419,-79.0447"/>
</g>
<!-- Node4 -->
<g id="node4" class="node"><title>Node4</title>
<g id="a_node4"><a xlink:href="namespaceore_1_1data.html#abfd9a7172102845408b5688fdba7d214" target="_top" xlink:title=" ">
<polygon fill="white" stroke="#666666" points="555,-56 454,-56 454,-37 555,-37 555,-56"/>
<text text-anchor="middle" x="504.5" y="-44" font-family="Helvetica,sans-Serif" font-size="10.00">getCorrelationCurve</text>
</a>
</g>
</g>
<!-- Node1&#45;&gt;Node4 -->
<g id="edge4" class="edge"><title>Node1&#45;&gt;Node4</title>
<path fill="none" stroke="#63b8ff" d="M590.727,-59.7576C579.084,-57.9464 566.684,-56.0175 555.05,-54.2078"/>
<polygon fill="#63b8ff" stroke="#63b8ff" points="590.307,-63.2341 600.726,-61.3129 591.383,-56.3173 590.307,-63.2341"/>
</g>
<!-- Node8 -->
<g id="node8" class="node"><title>Node8</title>
<g id="a_node8"><a xlink:href="namespaceore_1_1data.html#a0d8a56a2055eed832eecb066005885a2" target="_top" xlink:title="Convert FX index name to market standard dominance.">
<polygon fill="white" stroke="#666666" points="551,-19 458,-19 458,-0 551,-0 551,-19"/>
<text text-anchor="middle" x="504.5" y="-7" font-family="Helvetica,sans-Serif" font-size="10.00">normaliseFxIndex</text>
</a>
</g>
</g>
<!-- Node1&#45;&gt;Node8 -->
<g id="edge8" class="edge"><title>Node1&#45;&gt;Node8</title>
<path fill="none" stroke="#63b8ff" d="M614.981,-52.9573C600.585,-45.1022 582.105,-35.5902 565,-28.5 556.686,-25.0537 547.508,-21.8448 538.901,-19.0817"/>
<polygon fill="#63b8ff" stroke="#63b8ff" points="613.352,-56.0558 623.795,-57.8378 616.742,-49.9318 613.352,-56.0558"/>
</g>
<!-- Node3&#45;&gt;Node3 -->
<g id="edge3" class="edge"><title>Node3&#45;&gt;Node3</title>
<path fill="none" stroke="#63b8ff" d="M528.305,-115.098C525.052,-119.47 517.117,-122.5 504.5,-122.5 483.25,-122.5 475.281,-113.906 480.594,-104.775"/>
<polygon fill="#63b8ff" stroke="#63b8ff" points="531.808,-114.809 528.406,-104.775 524.808,-114.741 531.808,-114.809"/>
</g>
<!-- Node5 -->
<g id="node5" class="node"><title>Node5</title>
<g id="a_node5"><a xlink:href="classore_1_1data_1_1_f_x_vol_curve.html#a72a9e6224215ac3a384d5b406c43ff26" target="_top" xlink:title=" ">
<polygon fill="white" stroke="#666666" points="408,-61.5 292,-61.5 292,-31.5 408,-31.5 408,-61.5"/>
<text text-anchor="start" x="300" y="-49.5" font-family="Helvetica,sans-Serif" font-size="10.00">ore::data::FXVolCurve</text>
<text text-anchor="middle" x="350" y="-38.5" font-family="Helvetica,sans-Serif" font-size="10.00">::buildATMTriangulated</text>
</a>
</g>
</g>
<!-- Node4&#45;&gt;Node5 -->
<g id="edge5" class="edge"><title>Node4&#45;&gt;Node5</title>
<path fill="none" stroke="#63b8ff" d="M443.855,-46.5C432.131,-46.5 419.855,-46.5 408.212,-46.5"/>
<polygon fill="#63b8ff" stroke="#63b8ff" points="443.988,-50.0001 453.988,-46.5 443.988,-43.0001 443.988,-50.0001"/>
</g>
<!-- Node6 -->
<g id="node6" class="node"><title>Node6</title>
<g id="a_node6"><a xlink:href="classore_1_1data_1_1_f_x_vol_curve.html#aa5334770a51cbfa81ecf8b7d14a3acf1" target="_top" xlink:title=" ">
<polygon fill="white" stroke="#666666" points="256,-61.5 146,-61.5 146,-31.5 256,-31.5 256,-61.5"/>
<text text-anchor="start" x="154" y="-49.5" font-family="Helvetica,sans-Serif" font-size="10.00">ore::data::FXVolCurve</text>
<text text-anchor="middle" x="201" y="-38.5" font-family="Helvetica,sans-Serif" font-size="10.00">::init</text>
</a>
</g>
</g>
<!-- Node5&#45;&gt;Node6 -->
<g id="edge6" class="edge"><title>Node5&#45;&gt;Node6</title>
<path fill="none" stroke="#63b8ff" d="M281.565,-46.5C273.152,-46.5 264.632,-46.5 256.45,-46.5"/>
<polygon fill="#63b8ff" stroke="#63b8ff" points="281.745,-50.0001 291.745,-46.5 281.745,-43.0001 281.745,-50.0001"/>
</g>
<!-- Node7 -->
<g id="node7" class="node"><title>Node7</title>
<g id="a_node7"><a xlink:href="classore_1_1data_1_1_f_x_vol_curve.html#af2e42c318046fe68ebaa0a7d0cc5067d" target="_top" xlink:title="Detailed constructor.">
<polygon fill="white" stroke="#666666" points="110,-61.5 0,-61.5 0,-31.5 110,-31.5 110,-61.5"/>
<text text-anchor="start" x="8" y="-49.5" font-family="Helvetica,sans-Serif" font-size="10.00">ore::data::FXVolCurve</text>
<text text-anchor="middle" x="55" y="-38.5" font-family="Helvetica,sans-Serif" font-size="10.00">::FXVolCurve</text>
</a>
</g>
</g>
<!-- Node6&#45;&gt;Node7 -->
<g id="edge7" class="edge"><title>Node6&#45;&gt;Node7</title>
<path fill="none" stroke="#63b8ff" d="M135.73,-46.5C127.25,-46.5 118.625,-46.5 110.333,-46.5"/>
<polygon fill="#63b8ff" stroke="#63b8ff" points="135.97,-50.0001 145.97,-46.5 135.97,-43.0001 135.97,-50.0001"/>
</g>
</g>
</svg>
        <g id="navigator" transform="translate(0 0)" fill="#404254">
                <rect fill="#f2f5e9" fill-opacity="0.5" stroke="#606060" stroke-width=".5" x="0" y="0" width="60" height="60"/>
                <use id="zoomplus" xlink:href="#zoomPlus" x="17" y="9" onmousedown="handleZoom(evt,'in')"/>
                <use id="zoomminus" xlink:href="#zoomMin" x="42" y="9" onmousedown="handleZoom(evt,'out')"/>
                <use id="reset" xlink:href="#resetDef" x="30" y="36" onmousedown="handleReset()"/>
                <g id="arrowUp" xlink:href="#dirArrow" transform="translate(30 24)" onmousedown="handlePan(0,-1)">
                  <use xlink:href="#rim" fill="#404040">
                        <set attributeName="fill" to="#808080" begin="arrowUp.mouseover" end="arrowUp.mouseout"/>
                  </use>
                  <path fill="none" stroke="white" stroke-width="1.5" d="M0,-3.0v7 M-2.5,-0.5L0,-3.0L2.5,-0.5"/>
                </g>
                <g id="arrowRight" xlink:href="#dirArrow" transform="rotate(90) translate(36 -43)" onmousedown="handlePan(1,0)">
                  <use xlink:href="#rim" fill="#404040">
                        <set attributeName="fill" to="#808080" begin="arrowRight.mouseover" end="arrowRight.mouseout"/>
                  </use>
                  <path fill="none" stroke="white" stroke-width="1.5" d="M0,-3.0v7 M-2.5,-0.5L0,-3.0L2.5,-0.5"/>
                </g>
                <g id="arrowDown" xlink:href="#dirArrow" transform="rotate(180) translate(-30 -48)" onmousedown="handlePan(0,1)">
                  <use xlink:href="#rim" fill="#404040">
                        <set attributeName="fill" to="#808080" begin="arrowDown.mouseover" end="arrowDown.mouseout"/>
                  </use>
                  <path fill="none" stroke="white" stroke-width="1.5" d="M0,-3.0v7 M-2.5,-0.5L0,-3.0L2.5,-0.5"/>
                </g>
                <g id="arrowLeft" xlink:href="#dirArrow" transform="rotate(270) translate(-36 17)" onmousedown="handlePan(-1,0)">
                  <use xlink:href="#rim" fill="#404040">
                        <set attributeName="fill" to="#808080" begin="arrowLeft.mouseover" end="arrowLeft.mouseout"/>
                  </use>
                  <path fill="none" stroke="white" stroke-width="1.5" d="M0,-3.0v7 M-2.5,-0.5L0,-3.0L2.5,-0.5"/>
                </g>
        </g>
        <svg viewBox="0 0 15 15" width="100%" height="30px" preserveAspectRatio="xMaxYMin meet">
         <g id="arrow_out" transform="scale(0.3 0.3)">
          <a xlink:href="namespaceore_1_1data_ac1ff7842665a0c9bc7ff5785babcd435_icgraph_org.svg" target="_base">
           <rect id="button" ry="5" rx="5" y="6" x="6" height="38" width="38"
                fill="#f2f5e9" fill-opacity="0.5" stroke="#606060" stroke-width="1.0"/>
           <path id="arrow"
             d="M 11.500037,31.436501 C 11.940474,20.09759 22.043105,11.32322 32.158766,21.979434 L 37.068811,17.246167 C 37.068811,17.246167 37.088388,32 37.088388,32 L 22.160133,31.978069 C 22.160133,31.978069 26.997745,27.140456 26.997745,27.140456 C 18.528582,18.264221 13.291696,25.230495 11.500037,31.436501 z"
             style="fill:#404040;"/>
          </a>
         </g>
        </svg>
</svg>
