<?xml version="1.0" encoding="UTF-8" standalone="no"?>
<!DOCTYPE svg PUBLIC "-//W3C//DTD SVG 1.1//EN"
 "http://www.w3.org/Graphics/SVG/1.1/DTD/svg11.dtd">
<!-- Generated by graphviz version 2.38.0 (20140413.2041)
 -->
<!-- Title: getInflationSwapStart Pages: 1 -->
<svg width="628pt" height="134pt"
 viewBox="0.00 0.00 628.00 134.00" xmlns="http://www.w3.org/2000/svg" xmlns:xlink="http://www.w3.org/1999/xlink">
<g id="graph0" class="graph" transform="scale(1 1) rotate(0) translate(4 130)">
<title>getInflationSwapStart</title>
<!-- Node1 -->
<g id="node1" class="node"><title>Node1</title>
<g id="a_node1"><a xlink:title=" ">
<polygon fill="#999999" stroke="#666666" points="620,-72.5 512,-72.5 512,-53.5 620,-53.5 620,-72.5"/>
<text text-anchor="middle" x="566" y="-60.5" font-family="Helvetica,sans-Serif" font-size="10.00">getInflationSwapStart</text>
</a>
</g>
</g>
<!-- Node2 -->
<g id="node2" class="node"><title>Node2</title>
<g id="a_node2"><a xlink:href="namespaceore_1_1data.html#ae91b9dc1b2c7a502a7fd8b3351d2b759" target="_top" xlink:title=" ">
<polygon fill="white" stroke="#666666" points="476,-72.5 392,-72.5 392,-53.5 476,-53.5 476,-72.5"/>
<text text-anchor="middle" x="434" y="-60.5" font-family="Helvetica,sans-Serif" font-size="10.00">getStartAndLag</text>
</a>
</g>
</g>
<!-- Node1&#45;&gt;Node2 -->
<g id="edge1" class="edge"><title>Node1&#45;&gt;Node2</title>
<path fill="none" stroke="#63b8ff" d="M501.599,-63C492.906,-63 484.175,-63 476.028,-63"/>
<polygon fill="#63b8ff" stroke="#63b8ff" points="501.749,-66.5001 511.749,-63 501.749,-59.5001 501.749,-66.5001"/>
</g>
<!-- Node3 -->
<g id="node3" class="node"><title>Node3</title>
<g id="a_node3"><a xlink:href="classore_1_1data_1_1_inflation_curve.html#a25e20d8ef3302e62e97bb0029df83549" target="_top" xlink:title=" ">
<polygon fill="white" stroke="#666666" points="340.5,-126 222.5,-126 222.5,-96 340.5,-96 340.5,-126"/>
<text text-anchor="start" x="230.5" y="-114" font-family="Helvetica,sans-Serif" font-size="10.00">ore::data::InflationCurve</text>
<text text-anchor="middle" x="281.5" y="-103" font-family="Helvetica,sans-Serif" font-size="10.00">::InflationCurve</text>
</a>
</g>
</g>
<!-- Node2&#45;&gt;Node3 -->
<g id="edge2" class="edge"><title>Node2&#45;&gt;Node3</title>
<path fill="none" stroke="#63b8ff" d="M393.135,-75.7145C373.663,-81.9248 350.098,-89.4405 329.729,-95.937"/>
<polygon fill="#63b8ff" stroke="#63b8ff" points="394.442,-78.9713 402.906,-72.5982 392.315,-72.3023 394.442,-78.9713"/>
</g>
<!-- Node4 -->
<g id="node4" class="node"><title>Node4</title>
<g id="a_node4"><a xlink:href="classore_1_1data_1_1_inflation_cap_floor_vol_curve.html#acc947c79d75150ea99503fea7de9f868" target="_top" xlink:title=" ">
<polygon fill="white" stroke="#666666" points="348,-78 215,-78 215,-48 348,-48 348,-78"/>
<text text-anchor="start" x="223" y="-66" font-family="Helvetica,sans-Serif" font-size="10.00">ore::data::InflationCapFloor</text>
<text text-anchor="middle" x="281.5" y="-55" font-family="Helvetica,sans-Serif" font-size="10.00">VolCurve::buildFromPrices</text>
</a>
</g>
</g>
<!-- Node2&#45;&gt;Node4 -->
<g id="edge3" class="edge"><title>Node2&#45;&gt;Node4</title>
<path fill="none" stroke="#63b8ff" d="M381.781,-63C370.982,-63 359.444,-63 348.197,-63"/>
<polygon fill="#63b8ff" stroke="#63b8ff" points="381.875,-66.5001 391.875,-63 381.875,-59.5001 381.875,-66.5001"/>
</g>
<!-- Node6 -->
<g id="node6" class="node"><title>Node6</title>
<g id="a_node6"><a xlink:href="classore_1_1data_1_1_inflation_cap_floor_vol_curve.html#a82405c2b4ff01f1c8c3a89928dd84129" target="_top" xlink:title=" ">
<polygon fill="white" stroke="#666666" points="356,-30 207,-30 207,-0 356,-0 356,-30"/>
<text text-anchor="start" x="215" y="-18" font-family="Helvetica,sans-Serif" font-size="10.00">ore::data::InflationCapFloor</text>
<text text-anchor="middle" x="281.5" y="-7" font-family="Helvetica,sans-Serif" font-size="10.00">VolCurve::buildFromVolatilities</text>
</a>
</g>
</g>
<!-- Node2&#45;&gt;Node6 -->
<g id="edge5" class="edge"><title>Node2&#45;&gt;Node6</title>
<path fill="none" stroke="#63b8ff" d="M393.135,-50.2855C373.663,-44.0752 350.098,-36.5595 329.729,-30.063"/>
<polygon fill="#63b8ff" stroke="#63b8ff" points="392.315,-53.6977 402.906,-53.4018 394.442,-47.0287 392.315,-53.6977"/>
</g>
<!-- Node5 -->
<g id="node5" class="node"><title>Node5</title>
<g id="a_node5"><a xlink:href="classore_1_1data_1_1_inflation_cap_floor_vol_curve.html#a19c9a318aa454b3132d829dd00bced53" target="_top" xlink:title=" ">
<polygon fill="white" stroke="#666666" points="171,-54 0,-54 0,-24 171,-24 171,-54"/>
<text text-anchor="start" x="8" y="-42" font-family="Helvetica,sans-Serif" font-size="10.00">ore::data::InflationCapFloor</text>
<text text-anchor="middle" x="85.5" y="-31" font-family="Helvetica,sans-Serif" font-size="10.00">VolCurve::InflationCapFloorVolCurve</text>
</a>
</g>
</g>
<!-- Node4&#45;&gt;Node5 -->
<g id="edge4" class="edge"><title>Node4&#45;&gt;Node5</title>
<path fill="none" stroke="#63b8ff" d="M204.783,-53.6329C193.714,-52.2636 182.257,-50.8463 171.027,-49.4569"/>
<polygon fill="#63b8ff" stroke="#63b8ff" points="204.466,-57.1204 214.82,-54.8747 205.326,-50.1733 204.466,-57.1204"/>
</g>
<!-- Node6&#45;&gt;Node5 -->
<g id="edge6" class="edge"><title>Node6&#45;&gt;Node5</title>
<path fill="none" stroke="#63b8ff" d="M196.924,-25.3393C188.374,-26.397 179.682,-27.4724 171.12,-28.5315"/>
<polygon fill="#63b8ff" stroke="#63b8ff" points="197.386,-28.809 206.88,-24.1076 196.526,-21.8619 197.386,-28.809"/>
</g>
</g>
</svg>
