<?xml version="1.0" encoding="UTF-8" standalone="no"?>
<!DOCTYPE svg PUBLIC "-//W3C//DTD SVG 1.1//EN"
 "http://www.w3.org/Graphics/SVG/1.1/DTD/svg11.dtd">
<!-- Generated by graphviz version 2.38.0 (20140413.2041)
 -->
<!-- Title: parseCommodityQuantityFrequency Pages: 1 -->
<svg width="363pt" height="134pt"
 viewBox="0.00 0.00 363.00 134.00" xmlns="http://www.w3.org/2000/svg" xmlns:xlink="http://www.w3.org/1999/xlink">
<g id="graph0" class="graph" transform="scale(1 1) rotate(0) translate(4 130)">
<title>parseCommodityQuantityFrequency</title>
<!-- Node1 -->
<g id="node1" class="node"><title>Node1</title>
<g id="a_node1"><a xlink:title="Convert text to QuantExt::CommodityQuantityFrequency.">
<polygon fill="#999999" stroke="#666666" points="355,-72.5 182,-72.5 182,-53.5 355,-53.5 355,-72.5"/>
<text text-anchor="middle" x="268.5" y="-60.5" font-family="Helvetica,sans-Serif" font-size="10.00">parseCommodityQuantityFrequency</text>
</a>
</g>
</g>
<!-- Node1&#45;&gt;Node1 -->
<g id="edge4" class="edge"><title>Node1&#45;&gt;Node1</title>
<path fill="none" stroke="#63b8ff" d="M304.857,-80.5718C304.324,-86.1202 292.205,-90.5 268.5,-90.5 234.02,-90.5 224.053,-81.2337 238.599,-72.5828"/>
<polygon fill="#63b8ff" stroke="#63b8ff" points="307.409,-78.161 298.401,-72.5828 301.964,-82.5606 307.409,-78.161"/>
</g>
<!-- Node2 -->
<g id="node2" class="node"><title>Node2</title>
<g id="a_node2"><a xlink:href="classore_1_1data_1_1_commodity_average_price_option.html#a510baf06568510646decfeaf1753e526" target="_top" xlink:title=" ">
<polygon fill="white" stroke="#666666" points="145.5,-126 0.5,-126 0.5,-96 145.5,-96 145.5,-126"/>
<text text-anchor="start" x="8.5" y="-114" font-family="Helvetica,sans-Serif" font-size="10.00">ore::data::CommodityAverage</text>
<text text-anchor="middle" x="73" y="-103" font-family="Helvetica,sans-Serif" font-size="10.00">PriceOption::fromXML</text>
</a>
</g>
</g>
<!-- Node1&#45;&gt;Node2 -->
<g id="edge1" class="edge"><title>Node1&#45;&gt;Node2</title>
<path fill="none" stroke="#63b8ff" d="M218.979,-75.0361C193.439,-81.3718 161.873,-89.2021 134.723,-95.937"/>
<polygon fill="#63b8ff" stroke="#63b8ff" points="219.944,-78.4029 228.807,-72.5982 218.259,-71.6088 219.944,-78.4029"/>
</g>
<!-- Node3 -->
<g id="node3" class="node"><title>Node3</title>
<g id="a_node3"><a xlink:href="classore_1_1data_1_1_commodity_digital_average_price_option.html#a510baf06568510646decfeaf1753e526" target="_top" xlink:title=" ">
<polygon fill="white" stroke="#666666" points="146,-78 0,-78 0,-48 146,-48 146,-78"/>
<text text-anchor="start" x="8" y="-66" font-family="Helvetica,sans-Serif" font-size="10.00">ore::data::CommodityDigital</text>
<text text-anchor="middle" x="73" y="-55" font-family="Helvetica,sans-Serif" font-size="10.00">AveragePriceOption::fromXML</text>
</a>
</g>
</g>
<!-- Node1&#45;&gt;Node3 -->
<g id="edge2" class="edge"><title>Node1&#45;&gt;Node3</title>
<path fill="none" stroke="#63b8ff" d="M171.681,-63C163.058,-63 154.424,-63 146.055,-63"/>
<polygon fill="#63b8ff" stroke="#63b8ff" points="171.783,-66.5001 181.783,-63 171.783,-59.5001 171.783,-66.5001"/>
</g>
<!-- Node4 -->
<g id="node4" class="node"><title>Node4</title>
<g id="a_node4"><a xlink:href="classore_1_1data_1_1_commodity_floating_leg_data.html#a510baf06568510646decfeaf1753e526" target="_top" xlink:title=" ">
<polygon fill="white" stroke="#666666" points="145.5,-30 0.5,-30 0.5,-0 145.5,-0 145.5,-30"/>
<text text-anchor="start" x="8.5" y="-18" font-family="Helvetica,sans-Serif" font-size="10.00">ore::data::CommodityFloating</text>
<text text-anchor="middle" x="73" y="-7" font-family="Helvetica,sans-Serif" font-size="10.00">LegData::fromXML</text>
</a>
</g>
</g>
<!-- Node1&#45;&gt;Node4 -->
<g id="edge3" class="edge"><title>Node1&#45;&gt;Node4</title>
<path fill="none" stroke="#63b8ff" d="M218.979,-50.9639C193.439,-44.6282 161.873,-36.7979 134.723,-30.063"/>
<polygon fill="#63b8ff" stroke="#63b8ff" points="218.259,-54.3912 228.807,-53.4018 219.944,-47.5971 218.259,-54.3912"/>
</g>
</g>
</svg>
