<?xml version="1.0" encoding="UTF-8" standalone="no"?>
<!DOCTYPE svg PUBLIC "-//W3C//DTD SVG 1.1//EN"
 "http://www.w3.org/Graphics/SVG/1.1/DTD/svg11.dtd">
<!-- Generated by graphviz version 2.38.0 (20140413.2041)
 -->
<!-- Title: coarsenDateGrid Pages: 1 -->
<svg width="364pt" height="38pt"
 viewBox="0.00 0.00 364.00 38.00" xmlns="http://www.w3.org/2000/svg" xmlns:xlink="http://www.w3.org/1999/xlink">
<g id="graph0" class="graph" transform="scale(1 1) rotate(0) translate(4 34)">
<title>coarsenDateGrid</title>
<!-- Node1 -->
<g id="node1" class="node"><title>Node1</title>
<g id="a_node1"><a xlink:title=" ">
<polygon fill="#999999" stroke="#666666" points="356,-24.5 267,-24.5 267,-5.5 356,-5.5 356,-24.5"/>
<text text-anchor="middle" x="311.5" y="-12.5" font-family="Helvetica,sans-Serif" font-size="10.00">coarsenDateGrid</text>
</a>
</g>
</g>
<!-- Node2 -->
<g id="node2" class="node"><title>Node2</title>
<g id="a_node2"><a xlink:href="namespaceore_1_1data.html#affc8bd61d8faaf669bd03263c50952c9" target="_top" xlink:title=" ">
<polygon fill="white" stroke="#666666" points="231,-24.5 157,-24.5 157,-5.5 231,-5.5 231,-24.5"/>
<text text-anchor="middle" x="194" y="-12.5" font-family="Helvetica,sans-Serif" font-size="10.00">makeContext</text>
</a>
</g>
</g>
<!-- Node1&#45;&gt;Node2 -->
<g id="edge1" class="edge"><title>Node1&#45;&gt;Node2</title>
<path fill="none" stroke="#63b8ff" d="M256.767,-15C248.104,-15 239.319,-15 231.198,-15"/>
<polygon fill="#63b8ff" stroke="#63b8ff" points="256.834,-18.5001 266.834,-15 256.834,-11.5001 256.834,-18.5001"/>
</g>
<!-- Node3 -->
<g id="node3" class="node"><title>Node3</title>
<g id="a_node3"><a xlink:href="classore_1_1data_1_1_scripted_trade_engine_builder.html#afa7bc32050325672e45000b32d62ec0b" target="_top" xlink:title=" ">
<polygon fill="white" stroke="#666666" points="121,-30 0,-30 0,-0 121,-0 121,-30"/>
<text text-anchor="start" x="8" y="-18" font-family="Helvetica,sans-Serif" font-size="10.00">ore::data::ScriptedTrade</text>
<text text-anchor="middle" x="60.5" y="-7" font-family="Helvetica,sans-Serif" font-size="10.00">EngineBuilder::engine</text>
</a>
</g>
</g>
<!-- Node2&#45;&gt;Node3 -->
<g id="edge2" class="edge"><title>Node2&#45;&gt;Node3</title>
<path fill="none" stroke="#63b8ff" d="M146.577,-15C138.348,-15 129.676,-15 121.143,-15"/>
<polygon fill="#63b8ff" stroke="#63b8ff" points="146.719,-18.5001 156.719,-15 146.719,-11.5001 146.719,-18.5001"/>
</g>
</g>
</svg>
