<?xml version="1.0" encoding="UTF-8" standalone="no"?>
<!DOCTYPE svg PUBLIC "-//W3C//DTD SVG 1.1//EN"
 "http://www.w3.org/Graphics/SVG/1.1/DTD/svg11.dtd">
<!-- Generated by graphviz version 2.38.0 (20140413.2041)
 -->
<!-- Title: currentNotional Pages: 1 -->
<svg width="700pt" height="730pt"
 viewBox="0.00 0.00 700.00 730.00" xmlns="http://www.w3.org/2000/svg" xmlns:xlink="http://www.w3.org/1999/xlink">
<g id="graph0" class="graph" transform="scale(1 1) rotate(0) translate(4 726)">
<title>currentNotional</title>
<!-- Node1 -->
<g id="node1" class="node"><title>Node1</title>
<g id="a_node1"><a xlink:title=" ">
<polygon fill="#999999" stroke="#666666" points="692,-361.5 610,-361.5 610,-342.5 692,-342.5 692,-361.5"/>
<text text-anchor="middle" x="651" y="-349.5" font-family="Helvetica,sans-Serif" font-size="10.00">currentNotional</text>
</a>
</g>
</g>
<!-- Node2 -->
<g id="node2" class="node"><title>Node2</title>
<g id="a_node2"><a xlink:href="classore_1_1data_1_1_cap_floor.html#af9ec5dcfee7297ab6cc404d9e4bd83ae" target="_top" xlink:title="returns all additional data returned by the trade once built">
<polygon fill="white" stroke="#666666" points="534,-693 434,-693 434,-663 534,-663 534,-693"/>
<text text-anchor="start" x="442" y="-681" font-family="Helvetica,sans-Serif" font-size="10.00">ore::data::CapFloor</text>
<text text-anchor="middle" x="484" y="-670" font-family="Helvetica,sans-Serif" font-size="10.00">::additionalData</text>
</a>
</g>
</g>
<!-- Node1&#45;&gt;Node2 -->
<g id="edge1" class="edge"><title>Node1&#45;&gt;Node2</title>
<path fill="none" stroke="#63b8ff" d="M647.632,-371.805C640.009,-432.306 614.241,-613.075 574,-654 563.453,-664.726 548.652,-670.811 534.143,-674.217"/>
<polygon fill="#63b8ff" stroke="#63b8ff" points="651.13,-372.028 648.878,-361.675 644.183,-371.173 651.13,-372.028"/>
</g>
<!-- Node3 -->
<g id="node3" class="node"><title>Node3</title>
<g id="a_node3"><a xlink:href="classore_1_1data_1_1_bond.html#af7b69d5b18d278257927e32b10a23ee6" target="_top" xlink:title="Trade interface.">
<polygon fill="white" stroke="#666666" points="539,-644.5 429,-644.5 429,-625.5 539,-625.5 539,-644.5"/>
<text text-anchor="middle" x="484" y="-632.5" font-family="Helvetica,sans-Serif" font-size="10.00">ore::data::Bond::build</text>
</a>
</g>
</g>
<!-- Node1&#45;&gt;Node3 -->
<g id="edge2" class="edge"><title>Node1&#45;&gt;Node3</title>
<path fill="none" stroke="#63b8ff" d="M650.674,-371.942C651.179,-421.233 645.211,-549.605 574,-616 564.524,-624.835 551.987,-629.959 539.323,-632.844"/>
<polygon fill="#63b8ff" stroke="#63b8ff" points="654.168,-371.609 650.458,-361.685 647.17,-371.756 654.168,-371.609"/>
</g>
<!-- Node9 -->
<g id="node9" class="node"><title>Node9</title>
<g id="a_node9"><a xlink:href="classore_1_1data_1_1_bond_repo.html#af7b69d5b18d278257927e32b10a23ee6" target="_top" xlink:title=" ">
<polygon fill="white" stroke="#666666" points="537,-607 431,-607 431,-577 537,-577 537,-607"/>
<text text-anchor="start" x="439" y="-595" font-family="Helvetica,sans-Serif" font-size="10.00">ore::data::BondRepo</text>
<text text-anchor="middle" x="484" y="-584" font-family="Helvetica,sans-Serif" font-size="10.00">::build</text>
</a>
</g>
</g>
<!-- Node1&#45;&gt;Node9 -->
<g id="edge8" class="edge"><title>Node1&#45;&gt;Node9</title>
<path fill="none" stroke="#63b8ff" d="M648.943,-372.085C645.591,-414.672 631.662,-514.504 574,-568 563.911,-577.36 550.556,-583.14 537.269,-586.689"/>
<polygon fill="#63b8ff" stroke="#63b8ff" points="652.449,-372.106 649.624,-361.895 645.465,-371.639 652.449,-372.106"/>
</g>
<!-- Node10 -->
<g id="node10" class="node"><title>Node10</title>
<g id="a_node10"><a xlink:href="classore_1_1data_1_1_cap_floor.html#af7b69d5b18d278257927e32b10a23ee6" target="_top" xlink:title=" ">
<polygon fill="white" stroke="#666666" points="534,-559 434,-559 434,-529 534,-529 534,-559"/>
<text text-anchor="start" x="442" y="-547" font-family="Helvetica,sans-Serif" font-size="10.00">ore::data::CapFloor</text>
<text text-anchor="middle" x="484" y="-536" font-family="Helvetica,sans-Serif" font-size="10.00">::build</text>
</a>
</g>
</g>
<!-- Node1&#45;&gt;Node10 -->
<g id="edge9" class="edge"><title>Node1&#45;&gt;Node10</title>
<path fill="none" stroke="#63b8ff" d="M646.733,-371.666C639.837,-406.837 620.433,-480.517 574,-520 562.906,-529.434 548.453,-535.193 534.431,-538.699"/>
<polygon fill="#63b8ff" stroke="#63b8ff" points="650.201,-372.158 648.551,-361.692 643.314,-370.902 650.201,-372.158"/>
</g>
<!-- Node11 -->
<g id="node11" class="node"><title>Node11</title>
<g id="a_node11"><a xlink:href="classore_1_1data_1_1_forward_bond.html#af7b69d5b18d278257927e32b10a23ee6" target="_top" xlink:title=" ">
<polygon fill="white" stroke="#666666" points="543,-511 425,-511 425,-481 543,-481 543,-511"/>
<text text-anchor="start" x="433" y="-499" font-family="Helvetica,sans-Serif" font-size="10.00">ore::data::ForwardBond</text>
<text text-anchor="middle" x="484" y="-488" font-family="Helvetica,sans-Serif" font-size="10.00">::build</text>
</a>
</g>
</g>
<!-- Node1&#45;&gt;Node11 -->
<g id="edge10" class="edge"><title>Node1&#45;&gt;Node11</title>
<path fill="none" stroke="#63b8ff" d="M643.035,-371.235C632.365,-397.946 609.409,-445.921 574,-472 564.98,-478.643 554.239,-483.448 543.391,-486.923"/>
<polygon fill="#63b8ff" stroke="#63b8ff" points="646.332,-372.413 646.636,-361.822 639.794,-369.912 646.332,-372.413"/>
</g>
<!-- Node12 -->
<g id="node12" class="node"><title>Node12</title>
<g id="a_node12"><a xlink:href="classore_1_1data_1_1_multi_leg_option.html#af7b69d5b18d278257927e32b10a23ee6" target="_top" xlink:title=" ">
<polygon fill="white" stroke="#666666" points="547,-463 421,-463 421,-433 547,-433 547,-463"/>
<text text-anchor="start" x="429" y="-451" font-family="Helvetica,sans-Serif" font-size="10.00">ore::data::MultiLegOption</text>
<text text-anchor="middle" x="484" y="-440" font-family="Helvetica,sans-Serif" font-size="10.00">::build</text>
</a>
</g>
</g>
<!-- Node1&#45;&gt;Node12 -->
<g id="edge11" class="edge"><title>Node1&#45;&gt;Node12</title>
<path fill="none" stroke="#63b8ff" d="M635.777,-369.813C621.745,-386.224 598.842,-410.075 574,-424 565.764,-428.617 556.596,-432.38 547.365,-435.438"/>
<polygon fill="#63b8ff" stroke="#63b8ff" points="638.569,-371.93 642.269,-362.002 633.186,-367.455 638.569,-371.93"/>
</g>
<!-- Node13 -->
<g id="node13" class="node"><title>Node13</title>
<g id="a_node13"><a xlink:href="classore_1_1data_1_1_balance_guaranteed_swap.html#ab1db499ff5e65c59fd2009d62276fdaf" target="_top" xlink:title=" ">
<polygon fill="white" stroke="#666666" points="557,-415 411,-415 411,-385 557,-385 557,-415"/>
<text text-anchor="start" x="419" y="-403" font-family="Helvetica,sans-Serif" font-size="10.00">ore::data::BalanceGuaranteed</text>
<text text-anchor="middle" x="484" y="-392" font-family="Helvetica,sans-Serif" font-size="10.00">Swap::build</text>
</a>
</g>
</g>
<!-- Node1&#45;&gt;Node13 -->
<g id="edge12" class="edge"><title>Node1&#45;&gt;Node13</title>
<path fill="none" stroke="#63b8ff" d="M611.202,-364.601C599.298,-368.373 586.139,-372.448 574,-376 563.709,-379.011 552.709,-382.09 542.075,-384.995"/>
<polygon fill="#63b8ff" stroke="#63b8ff" points="612.392,-367.896 620.856,-361.522 610.265,-361.227 612.392,-367.896"/>
</g>
<!-- Node14 -->
<g id="node14" class="node"><title>Node14</title>
<g id="a_node14"><a xlink:href="classore_1_1data_1_1_flexi_swap.html#ab1db499ff5e65c59fd2009d62276fdaf" target="_top" xlink:title=" ">
<polygon fill="white" stroke="#666666" points="537,-367 431,-367 431,-337 537,-337 537,-367"/>
<text text-anchor="start" x="439" y="-355" font-family="Helvetica,sans-Serif" font-size="10.00">ore::data::FlexiSwap</text>
<text text-anchor="middle" x="484" y="-344" font-family="Helvetica,sans-Serif" font-size="10.00">::build</text>
</a>
</g>
</g>
<!-- Node1&#45;&gt;Node14 -->
<g id="edge13" class="edge"><title>Node1&#45;&gt;Node14</title>
<path fill="none" stroke="#63b8ff" d="M599.581,-352C579.786,-352 557.072,-352 537.116,-352"/>
<polygon fill="#63b8ff" stroke="#63b8ff" points="599.636,-355.5 609.636,-352 599.636,-348.5 599.636,-355.5"/>
</g>
<!-- Node15 -->
<g id="node15" class="node"><title>Node15</title>
<g id="a_node15"><a xlink:href="classore_1_1data_1_1_risk_participation_agreement.html#a202e0f0e8766fc315608ca73f8802d08" target="_top" xlink:title=" ">
<polygon fill="white" stroke="#666666" points="574,-319 394,-319 394,-289 574,-289 574,-319"/>
<text text-anchor="start" x="402" y="-307" font-family="Helvetica,sans-Serif" font-size="10.00">ore::data::RiskParticipation</text>
<text text-anchor="middle" x="484" y="-296" font-family="Helvetica,sans-Serif" font-size="10.00">Agreement::buildWithSwapUnderlying</text>
</a>
</g>
</g>
<!-- Node1&#45;&gt;Node15 -->
<g id="edge14" class="edge"><title>Node1&#45;&gt;Node15</title>
<path fill="none" stroke="#63b8ff" d="M611.202,-339.399C599.298,-335.627 586.139,-331.552 574,-328 563.709,-324.989 552.709,-321.91 542.075,-319.005"/>
<polygon fill="#63b8ff" stroke="#63b8ff" points="610.265,-342.773 620.856,-342.478 612.392,-336.104 610.265,-342.773"/>
</g>
<!-- Node16 -->
<g id="node16" class="node"><title>Node16</title>
<g id="a_node16"><a xlink:href="classore_1_1data_1_1_t_r_s_wrapper_accrual_engine.html#a61eb1a24e5329ccc296715a40dc3a19a" target="_top" xlink:title=" ">
<polygon fill="white" stroke="#666666" points="558.5,-271 409.5,-271 409.5,-241 558.5,-241 558.5,-271"/>
<text text-anchor="start" x="417.5" y="-259" font-family="Helvetica,sans-Serif" font-size="10.00">ore::data::TRSWrapperAccrual</text>
<text text-anchor="middle" x="484" y="-248" font-family="Helvetica,sans-Serif" font-size="10.00">Engine::calculate</text>
</a>
</g>
</g>
<!-- Node1&#45;&gt;Node16 -->
<g id="edge15" class="edge"><title>Node1&#45;&gt;Node16</title>
<path fill="none" stroke="#63b8ff" d="M635.777,-334.187C621.745,-317.776 598.842,-293.925 574,-280 567.858,-276.557 561.198,-273.589 554.379,-271.033"/>
<polygon fill="#63b8ff" stroke="#63b8ff" points="633.186,-336.545 642.269,-341.998 638.569,-332.07 633.186,-336.545"/>
</g>
<!-- Node17 -->
<g id="node17" class="node"><title>Node17</title>
<g id="a_node17"><a xlink:href="namespaceore_1_1data.html#adbd4062f959d3457e5eebbc395093f9d" target="_top" xlink:title=" ">
<polygon fill="white" stroke="#666666" points="530,-222.5 438,-222.5 438,-203.5 530,-203.5 530,-222.5"/>
<text text-anchor="middle" x="484" y="-210.5" font-family="Helvetica,sans-Serif" font-size="10.00">makeZCFixedLeg</text>
</a>
</g>
</g>
<!-- Node1&#45;&gt;Node17 -->
<g id="edge16" class="edge"><title>Node1&#45;&gt;Node17</title>
<path fill="none" stroke="#63b8ff" d="M643.377,-332.903C633.002,-305.958 610.267,-257.255 574,-232 561.294,-223.152 545.273,-218.294 530.338,-215.667"/>
<polygon fill="#63b8ff" stroke="#63b8ff" points="640.124,-334.199 646.859,-342.378 646.695,-331.784 640.124,-334.199"/>
</g>
<!-- Node19 -->
<g id="node19" class="node"><title>Node19</title>
<g id="a_node19"><a xlink:href="classore_1_1data_1_1_credit_linked_swap.html#a70619a91ccb26e89d3e8b56e39fd19ab" target="_top" xlink:title="Return the current notional in npvCurrency. See individual sub&#45;classes for the precise definition.">
<polygon fill="white" stroke="#666666" points="553.5,-185 414.5,-185 414.5,-155 553.5,-155 553.5,-185"/>
<text text-anchor="start" x="422.5" y="-173" font-family="Helvetica,sans-Serif" font-size="10.00">ore::data::CreditLinkedSwap</text>
<text text-anchor="middle" x="484" y="-162" font-family="Helvetica,sans-Serif" font-size="10.00">::notional</text>
</a>
</g>
</g>
<!-- Node1&#45;&gt;Node19 -->
<g id="edge18" class="edge"><title>Node1&#45;&gt;Node19</title>
<path fill="none" stroke="#63b8ff" d="M646.163,-332.575C638.522,-299.117 618.185,-230.686 574,-194 567.967,-188.991 560.983,-185.02 553.632,-181.873"/>
<polygon fill="#63b8ff" stroke="#63b8ff" points="642.769,-333.438 648.284,-342.484 649.614,-331.973 642.769,-333.438"/>
</g>
<!-- Node20 -->
<g id="node20" class="node"><title>Node20</title>
<g id="a_node20"><a xlink:href="classore_1_1data_1_1_swap.html#a70619a91ccb26e89d3e8b56e39fd19ab" target="_top" xlink:title="Return the current notional in npvCurrency. See individual sub&#45;classes for the precise definition.">
<polygon fill="white" stroke="#666666" points="546.5,-136.5 421.5,-136.5 421.5,-117.5 546.5,-117.5 546.5,-136.5"/>
<text text-anchor="middle" x="484" y="-124.5" font-family="Helvetica,sans-Serif" font-size="10.00">ore::data::Swap::notional</text>
</a>
</g>
</g>
<!-- Node1&#45;&gt;Node20 -->
<g id="edge19" class="edge"><title>Node1&#45;&gt;Node20</title>
<path fill="none" stroke="#63b8ff" d="M648.819,-332.328C645.233,-291.077 630.888,-195.278 574,-146 566.238,-139.276 556.679,-134.742 546.738,-131.718"/>
<polygon fill="#63b8ff" stroke="#63b8ff" points="645.339,-332.72 649.572,-342.432 652.319,-332.2 645.339,-332.72"/>
</g>
<!-- Node26 -->
<g id="node26" class="node"><title>Node26</title>
<g id="a_node26"><a xlink:href="classore_1_1data_1_1_swaption.html#a70619a91ccb26e89d3e8b56e39fd19ab" target="_top" xlink:title="Return the current notional in npvCurrency. See individual sub&#45;classes for the precise definition.">
<polygon fill="white" stroke="#666666" points="534.5,-99 433.5,-99 433.5,-69 534.5,-69 534.5,-99"/>
<text text-anchor="start" x="441.5" y="-87" font-family="Helvetica,sans-Serif" font-size="10.00">ore::data::Swaption</text>
<text text-anchor="middle" x="484" y="-76" font-family="Helvetica,sans-Serif" font-size="10.00">::notional</text>
</a>
</g>
</g>
<!-- Node1&#45;&gt;Node26 -->
<g id="edge26" class="edge"><title>Node1&#45;&gt;Node26</title>
<path fill="none" stroke="#63b8ff" d="M649.901,-332.23C648.555,-286.009 638.549,-170.107 574,-108 563.39,-97.7918 548.912,-91.8212 534.716,-88.3607"/>
<polygon fill="#63b8ff" stroke="#63b8ff" points="646.404,-332.469 650.084,-342.404 653.403,-332.343 646.404,-332.469"/>
</g>
<!-- Node27 -->
<g id="node27" class="node"><title>Node27</title>
<g id="a_node27"><a xlink:href="classore_1_1data_1_1_trade.html#aedbdf37ffffad588c47ed19da03a23a0" target="_top" xlink:title=" ">
<polygon fill="white" stroke="#666666" points="544,-51 424,-51 424,-21 544,-21 544,-51"/>
<text text-anchor="start" x="432" y="-39" font-family="Helvetica,sans-Serif" font-size="10.00">ore::data::Trade::setLeg</text>
<text text-anchor="middle" x="484" y="-28" font-family="Helvetica,sans-Serif" font-size="10.00">BasedAdditionalData</text>
</a>
</g>
</g>
<!-- Node1&#45;&gt;Node27 -->
<g id="edge27" class="edge"><title>Node1&#45;&gt;Node27</title>
<path fill="none" stroke="#63b8ff" d="M647.434,-332.086C639.409,-272.831 612.981,-99.3245 574,-60 565.888,-51.8168 555.299,-46.3382 544.268,-42.6902"/>
<polygon fill="#63b8ff" stroke="#63b8ff" points="644.009,-332.885 648.791,-342.339 650.948,-331.967 644.009,-332.885"/>
</g>
<!-- Node4 -->
<g id="node4" class="node"><title>Node4</title>
<g id="a_node4"><a xlink:href="structore_1_1data_1_1_vanilla_bond_builder.html#ae1e21501ab505df04314d15d13f876e1" target="_top" xlink:title=" ">
<polygon fill="white" stroke="#666666" points="340,-722 197,-722 197,-692 340,-692 340,-722"/>
<text text-anchor="start" x="205" y="-710" font-family="Helvetica,sans-Serif" font-size="10.00">ore::data::VanillaBondBuilder</text>
<text text-anchor="middle" x="268.5" y="-699" font-family="Helvetica,sans-Serif" font-size="10.00">::build</text>
</a>
</g>
</g>
<!-- Node3&#45;&gt;Node4 -->
<g id="edge3" class="edge"><title>Node3&#45;&gt;Node4</title>
<path fill="none" stroke="#63b8ff" d="M419.173,-644.81C410.498,-647.235 401.878,-650.251 394,-654 375.448,-662.83 376.304,-673.668 358,-683 351.334,-686.398 344.133,-689.358 336.817,-691.925"/>
<polygon fill="#63b8ff" stroke="#63b8ff" points="420.13,-648.179 428.955,-642.317 418.401,-641.395 420.13,-648.179"/>
</g>
<!-- Node5 -->
<g id="node5" class="node"><title>Node5</title>
<g id="a_node5"><a xlink:href="classore_1_1data_1_1_convertible_bond.html#ab1db499ff5e65c59fd2009d62276fdaf" target="_top" xlink:title=" ">
<polygon fill="white" stroke="#666666" points="334,-674 203,-674 203,-644 334,-644 334,-674"/>
<text text-anchor="start" x="211" y="-662" font-family="Helvetica,sans-Serif" font-size="10.00">ore::data::ConvertibleBond</text>
<text text-anchor="middle" x="268.5" y="-651" font-family="Helvetica,sans-Serif" font-size="10.00">::build</text>
</a>
</g>
</g>
<!-- Node3&#45;&gt;Node5 -->
<g id="edge4" class="edge"><title>Node3&#45;&gt;Node5</title>
<path fill="none" stroke="#63b8ff" d="M418.823,-642.214C392.071,-645.222 361.053,-648.708 334.241,-651.722"/>
<polygon fill="#63b8ff" stroke="#63b8ff" points="419.303,-645.683 428.849,-641.087 418.521,-638.726 419.303,-645.683"/>
</g>
<!-- Node6 -->
<g id="node6" class="node"><title>Node6</title>
<g id="a_node6"><a xlink:href="classore_1_1data_1_1_risk_participation_agreement.html#a225490c21ddfa2450a67f04007c16f4c" target="_top" xlink:title=" ">
<polygon fill="white" stroke="#666666" points="358,-626 179,-626 179,-596 358,-596 358,-626"/>
<text text-anchor="start" x="187" y="-614" font-family="Helvetica,sans-Serif" font-size="10.00">ore::data::RiskParticipation</text>
<text text-anchor="middle" x="268.5" y="-603" font-family="Helvetica,sans-Serif" font-size="10.00">Agreement::buildWithTlockUnderlying</text>
</a>
</g>
</g>
<!-- Node3&#45;&gt;Node6 -->
<g id="edge5" class="edge"><title>Node3&#45;&gt;Node6</title>
<path fill="none" stroke="#63b8ff" d="M418.779,-627.781C399.677,-625.634 378.405,-623.242 358.043,-620.953"/>
<polygon fill="#63b8ff" stroke="#63b8ff" points="418.521,-631.274 428.849,-628.913 419.303,-624.317 418.521,-631.274"/>
</g>
<!-- Node7 -->
<g id="node7" class="node"><title>Node7</title>
<g id="a_node7"><a xlink:href="namespaceore_1_1data.html#a7e30fb6a46cf70b26b33a0528e47cd6c" target="_top" xlink:title=" ">
<polygon fill="white" stroke="#666666" points="307.5,-577.5 229.5,-577.5 229.5,-558.5 307.5,-558.5 307.5,-577.5"/>
<text text-anchor="middle" x="268.5" y="-565.5" font-family="Helvetica,sans-Serif" font-size="10.00">makeCMBLeg</text>
</a>
</g>
</g>
<!-- Node3&#45;&gt;Node7 -->
<g id="edge6" class="edge"><title>Node3&#45;&gt;Node7</title>
<path fill="none" stroke="#63b8ff" d="M419.173,-625.19C410.498,-622.765 401.878,-619.749 394,-616 375.448,-607.17 376.546,-595.84 358,-587 342.396,-579.562 323.862,-575.008 307.796,-572.233"/>
<polygon fill="#63b8ff" stroke="#63b8ff" points="418.401,-628.605 428.955,-627.683 420.13,-621.821 418.401,-628.605"/>
</g>
<!-- Node8 -->
<g id="node8" class="node"><title>Node8</title>
<g id="a_node8"><a xlink:href="classore_1_1data_1_1_c_m_b_leg_builder.html#aea285351d9f3458189a9e2d965349d23" target="_top" xlink:title=" ">
<polygon fill="white" stroke="#666666" points="135.5,-583 7.5,-583 7.5,-553 135.5,-553 135.5,-583"/>
<text text-anchor="start" x="15.5" y="-571" font-family="Helvetica,sans-Serif" font-size="10.00">ore::data::CMBLegBuilder</text>
<text text-anchor="middle" x="71.5" y="-560" font-family="Helvetica,sans-Serif" font-size="10.00">::buildLeg</text>
</a>
</g>
</g>
<!-- Node7&#45;&gt;Node8 -->
<g id="edge7" class="edge"><title>Node7&#45;&gt;Node8</title>
<path fill="none" stroke="#63b8ff" d="M219.382,-568C194.161,-568 162.95,-568 135.794,-568"/>
<polygon fill="#63b8ff" stroke="#63b8ff" points="219.439,-571.5 229.439,-568 219.439,-564.5 219.439,-571.5"/>
</g>
<!-- Node18 -->
<g id="node18" class="node"><title>Node18</title>
<g id="a_node18"><a xlink:href="classore_1_1data_1_1_zero_coupon_fixed_leg_builder.html#aea285351d9f3458189a9e2d965349d23" target="_top" xlink:title=" ">
<polygon fill="white" stroke="#666666" points="337,-228 200,-228 200,-198 337,-198 337,-228"/>
<text text-anchor="start" x="208" y="-216" font-family="Helvetica,sans-Serif" font-size="10.00">ore::data::ZeroCouponFixed</text>
<text text-anchor="middle" x="268.5" y="-205" font-family="Helvetica,sans-Serif" font-size="10.00">LegBuilder::buildLeg</text>
</a>
</g>
</g>
<!-- Node17&#45;&gt;Node18 -->
<g id="edge17" class="edge"><title>Node17&#45;&gt;Node18</title>
<path fill="none" stroke="#63b8ff" d="M427.706,-213C400.06,-213 366.362,-213 337.182,-213"/>
<polygon fill="#63b8ff" stroke="#63b8ff" points="427.983,-216.5 437.983,-213 427.983,-209.5 427.983,-216.5"/>
</g>
<!-- Node21 -->
<g id="node21" class="node"><title>Node21</title>
<g id="a_node21"><a xlink:href="classore_1_1data_1_1_swap.html#af7b69d5b18d278257927e32b10a23ee6" target="_top" xlink:title="Build QuantLib/QuantExt instrument, link pricing engine.">
<polygon fill="white" stroke="#666666" points="324,-176.5 213,-176.5 213,-157.5 324,-157.5 324,-176.5"/>
<text text-anchor="middle" x="268.5" y="-164.5" font-family="Helvetica,sans-Serif" font-size="10.00">ore::data::Swap::build</text>
</a>
</g>
</g>
<!-- Node20&#45;&gt;Node21 -->
<g id="edge20" class="edge"><title>Node20&#45;&gt;Node21</title>
<path fill="none" stroke="#63b8ff" d="M421.954,-138.437C389.805,-144.461 350.838,-151.761 320.347,-157.474"/>
<polygon fill="#63b8ff" stroke="#63b8ff" points="422.948,-141.812 432.133,-136.53 421.659,-134.932 422.948,-141.812"/>
</g>
<!-- Node25 -->
<g id="node25" class="node"><title>Node25</title>
<g id="a_node25"><a xlink:href="classore_1_1data_1_1_callable_swap.html#ab1db499ff5e65c59fd2009d62276fdaf" target="_top" xlink:title="Build QuantLib/QuantExt instrument, link pricing engine.">
<polygon fill="white" stroke="#666666" points="131,-134 12,-134 12,-104 131,-104 131,-134"/>
<text text-anchor="start" x="20" y="-122" font-family="Helvetica,sans-Serif" font-size="10.00">ore::data::CallableSwap</text>
<text text-anchor="middle" x="71.5" y="-111" font-family="Helvetica,sans-Serif" font-size="10.00">::build</text>
</a>
</g>
</g>
<!-- Node20&#45;&gt;Node25 -->
<g id="edge25" class="edge"><title>Node20&#45;&gt;Node25</title>
<path fill="none" stroke="#63b8ff" d="M410.679,-125.591C331.152,-124.041 204.901,-121.58 131.239,-120.145"/>
<polygon fill="#63b8ff" stroke="#63b8ff" points="411.033,-129.098 421.1,-125.794 411.17,-122.099 411.033,-129.098"/>
</g>
<!-- Node22 -->
<g id="node22" class="node"><title>Node22</title>
<g id="a_node22"><a xlink:href="test_2todaysmarket_8cpp.html#aeb43366ac05a65218ef11c74fa7a5650" target="_top" xlink:title=" ">
<polygon fill="white" stroke="#666666" points="143,-267.5 0,-267.5 0,-248.5 143,-248.5 143,-267.5"/>
<text text-anchor="middle" x="71.5" y="-255.5" font-family="Helvetica,sans-Serif" font-size="10.00">BOOST_AUTO_TEST_CASE</text>
</a>
</g>
</g>
<!-- Node21&#45;&gt;Node22 -->
<g id="edge21" class="edge"><title>Node21&#45;&gt;Node22</title>
<path fill="none" stroke="#63b8ff" d="M202.935,-177.325C194.473,-180.288 186.239,-184.098 179,-189 156.326,-204.353 165.522,-223.425 143,-239 137.37,-242.893 130.978,-245.99 124.396,-248.452"/>
<polygon fill="#63b8ff" stroke="#63b8ff" points="204.041,-180.647 212.546,-174.328 201.957,-173.964 204.041,-180.647"/>
</g>
<!-- Node23 -->
<g id="node23" class="node"><title>Node23</title>
<g id="a_node23"><a xlink:href="classore_1_1data_1_1_equity_swap.html#af7b69d5b18d278257927e32b10a23ee6" target="_top" xlink:title="Trade interface.">
<polygon fill="white" stroke="#666666" points="128,-230 15,-230 15,-200 128,-200 128,-230"/>
<text text-anchor="start" x="23" y="-218" font-family="Helvetica,sans-Serif" font-size="10.00">ore::data::EquitySwap</text>
<text text-anchor="middle" x="71.5" y="-207" font-family="Helvetica,sans-Serif" font-size="10.00">::build</text>
</a>
</g>
</g>
<!-- Node21&#45;&gt;Node23 -->
<g id="edge22" class="edge"><title>Node21&#45;&gt;Node23</title>
<path fill="none" stroke="#63b8ff" d="M218.698,-179.013C191.152,-185.793 156.627,-194.292 128.046,-201.327"/>
<polygon fill="#63b8ff" stroke="#63b8ff" points="219.634,-182.387 228.508,-176.598 217.961,-175.59 219.634,-182.387"/>
</g>
<!-- Node24 -->
<g id="node24" class="node"><title>Node24</title>
<g id="a_node24"><a xlink:href="classore_1_1data_1_1_inflation_swap.html#af7b69d5b18d278257927e32b10a23ee6" target="_top" xlink:title="Trade interface.">
<polygon fill="white" stroke="#666666" points="130.5,-182 12.5,-182 12.5,-152 130.5,-152 130.5,-182"/>
<text text-anchor="start" x="20.5" y="-170" font-family="Helvetica,sans-Serif" font-size="10.00">ore::data::InflationSwap</text>
<text text-anchor="middle" x="71.5" y="-159" font-family="Helvetica,sans-Serif" font-size="10.00">::build</text>
</a>
</g>
</g>
<!-- Node21&#45;&gt;Node24 -->
<g id="edge23" class="edge"><title>Node21&#45;&gt;Node24</title>
<path fill="none" stroke="#63b8ff" d="M202.806,-167C179.557,-167 153.491,-167 130.816,-167"/>
<polygon fill="#63b8ff" stroke="#63b8ff" points="202.922,-170.5 212.922,-167 202.922,-163.5 202.922,-170.5"/>
</g>
<!-- Node21&#45;&gt;Node25 -->
<g id="edge24" class="edge"><title>Node21&#45;&gt;Node25</title>
<path fill="none" stroke="#63b8ff" d="M218.661,-154.978C192.076,-148.434 159,-140.292 131.041,-133.41"/>
<polygon fill="#63b8ff" stroke="#63b8ff" points="217.961,-158.41 228.508,-157.402 219.634,-151.613 217.961,-158.41"/>
</g>
<!-- Node28 -->
<g id="node28" class="node"><title>Node28</title>
<g id="a_node28"><a xlink:href="classore_1_1data_1_1_credit_default_swap.html#af9ec5dcfee7297ab6cc404d9e4bd83ae" target="_top" xlink:title="returns all additional data returned by the trade once built">
<polygon fill="white" stroke="#666666" points="326.5,-73 210.5,-73 210.5,-43 326.5,-43 326.5,-73"/>
<text text-anchor="start" x="218.5" y="-61" font-family="Helvetica,sans-Serif" font-size="10.00">ore::data::CreditDefault</text>
<text text-anchor="middle" x="268.5" y="-50" font-family="Helvetica,sans-Serif" font-size="10.00">Swap::additionalData</text>
</a>
</g>
</g>
<!-- Node27&#45;&gt;Node28 -->
<g id="edge28" class="edge"><title>Node27&#45;&gt;Node28</title>
<path fill="none" stroke="#63b8ff" d="M413.636,-43.1475C385.483,-46.0486 353.358,-49.3589 326.592,-52.1169"/>
<polygon fill="#63b8ff" stroke="#63b8ff" points="414.223,-46.6057 423.812,-42.099 413.506,-39.6426 414.223,-46.6057"/>
</g>
<!-- Node29 -->
<g id="node29" class="node"><title>Node29</title>
<g id="a_node29"><a xlink:href="classore_1_1data_1_1_swap.html#af9ec5dcfee7297ab6cc404d9e4bd83ae" target="_top" xlink:title="returns all additional data returned by the trade once built">
<polygon fill="white" stroke="#666666" points="344.5,-24.5 192.5,-24.5 192.5,-5.5 344.5,-5.5 344.5,-24.5"/>
<text text-anchor="middle" x="268.5" y="-12.5" font-family="Helvetica,sans-Serif" font-size="10.00">ore::data::Swap::additionalData</text>
</a>
</g>
</g>
<!-- Node27&#45;&gt;Node29 -->
<g id="edge29" class="edge"><title>Node27&#45;&gt;Node29</title>
<path fill="none" stroke="#63b8ff" d="M413.573,-29.1711C391.604,-27.0102 367.222,-24.612 344.858,-22.4122"/>
<polygon fill="#63b8ff" stroke="#63b8ff" points="413.517,-32.6824 423.812,-30.1782 414.203,-25.7161 413.517,-32.6824"/>
</g>
<!-- Node30 -->
<g id="node30" class="node"><title>Node30</title>
<g id="a_node30"><a xlink:href="classore_1_1data_1_1_callable_swap.html#af9ec5dcfee7297ab6cc404d9e4bd83ae" target="_top" xlink:title="returns all additional data returned by the trade once built">
<polygon fill="white" stroke="#666666" points="131,-30 12,-30 12,-0 131,-0 131,-30"/>
<text text-anchor="start" x="20" y="-18" font-family="Helvetica,sans-Serif" font-size="10.00">ore::data::CallableSwap</text>
<text text-anchor="middle" x="71.5" y="-7" font-family="Helvetica,sans-Serif" font-size="10.00">::additionalData</text>
</a>
</g>
</g>
<!-- Node29&#45;&gt;Node30 -->
<g id="edge30" class="edge"><title>Node29&#45;&gt;Node30</title>
<path fill="none" stroke="#63b8ff" d="M182.313,-15C165.072,-15 147.309,-15 131.228,-15"/>
<polygon fill="#63b8ff" stroke="#63b8ff" points="182.387,-18.5001 192.387,-15 182.387,-11.5001 182.387,-18.5001"/>
</g>
</g>
</svg>
