<?xml version="1.0" encoding="UTF-8" standalone="no"?>
<!DOCTYPE svg PUBLIC "-//W3C//DTD SVG 1.1//EN"
 "http://www.w3.org/Graphics/SVG/1.1/DTD/svg11.dtd">
<!-- Generated by graphviz version 2.38.0 (20140413.2041)
 -->
<!-- Title: addModelParameter Pages: 1 -->
<!--zoomable 265 -->
<svg id="main" version="1.1" xmlns="http://www.w3.org/2000/svg" xmlns:xlink="http://www.w3.org/1999/xlink" xml:space="preserve" onload="init(evt)">
<style type="text/css"><![CDATA[
.edge:hover path { stroke: red; }
.edge:hover polygon { stroke: red; fill: red; }
]]></style>
<script type="text/javascript"><![CDATA[
var edges = document.getElementsByTagName('g');
if (edges && edges.length) {
  for (var i=0;i<edges.length;i++) {
    if (edges[i].id.substr(0,4)=='edge') {
      edges[i].setAttribute('class','edge');
    }
  }
}
]]></script>
        <defs>
                <circle id="rim" cx="0" cy="0" r="7"/>
                <circle id="rim2" cx="0" cy="0" r="3.5"/>
                <g id="zoomPlus">
                        <use xlink:href="#rim" fill="#404040">
                                <set attributeName="fill" to="#808080" begin="zoomplus.mouseover" end="zoomplus.mouseout"/>
                        </use>
                        <path d="M-4,0h8M0,-4v8" fill="none" stroke="white" stroke-width="1.5" pointer-events="none"/>
                </g>
                <g id="zoomMin">
                        <use xlink:href="#rim" fill="#404040">
                                <set attributeName="fill" to="#808080" begin="zoomminus.mouseover" end="zoomminus.mouseout"/>
                        </use>
                        <path d="M-4,0h8" fill="none" stroke="white" stroke-width="1.5" pointer-events="none"/>
                </g>
                <g id="dirArrow">
                        <path fill="none" stroke="white" stroke-width="1.5" d="M0,-3.0v7 M-2.5,-0.5L0,-3.0L2.5,-0.5"/>
                </g>
               <g id="resetDef">
                       <use xlink:href="#rim2" fill="#404040">
                               <set attributeName="fill" to="#808080" begin="reset.mouseover" end="reset.mouseout"/>
                       </use>
               </g>
        </defs>

<script type="text/javascript">
var viewWidth = 670;
var viewHeight = 265;
var sectionId = 'dynsection-190';
</script>
<script xlink:href="svgpan.js"/>
<svg id="graph" class="graph">
<g id="viewport">
<title>addModelParameter</title>
<!-- Node1 -->
<g id="node1" class="node"><title>Node1</title>
<g id="a_node1"><a xlink:title=" ">
<polygon fill="#999999" stroke="#666666" points="662,-147.493 558,-147.493 558,-128.493 662,-128.493 662,-147.493"/>
<text text-anchor="middle" x="610" y="-135.493" font-family="Helvetica,sans-Serif" font-size="10.00">addModelParameter</text>
</a>
</g>
</g>
<!-- Node2 -->
<g id="node2" class="node"><title>Node2</title>
<g id="a_node2"><a xlink:href="classore_1_1data_1_1_hw_c_g.html#ae5567abc4c200e9185ac0ab3d3bfabb1" target="_top" xlink:title=" ">
<polygon fill="white" stroke="#666666" points="522,-221.493 368,-221.493 368,-202.493 522,-202.493 522,-221.493"/>
<text text-anchor="middle" x="445" y="-209.493" font-family="Helvetica,sans-Serif" font-size="10.00">ore::data::HwCG::discountBond</text>
</a>
</g>
</g>
<!-- Node1&#45;&gt;Node2 -->
<g id="edge1" class="edge"><title>Node1&#45;&gt;Node2</title>
<path fill="none" stroke="#63b8ff" d="M588.654,-153.502C571.651,-165.793 546.342,-182.576 522,-192.993 513.247,-196.739 503.599,-199.857 494.199,-202.41"/>
<polygon fill="#63b8ff" stroke="#63b8ff" points="590.766,-156.293 596.738,-147.542 586.612,-150.659 590.766,-156.293"/>
</g>
<!-- Node3 -->
<g id="node3" class="node"><title>Node3</title>
<g id="a_node3"><a xlink:href="classore_1_1data_1_1_hw_c_g.html#ac943e54cb7c0fca092463a1543d8edd3" target="_top" xlink:title=" ">
<polygon fill="white" stroke="#666666" points="311,-253.493 194,-253.493 194,-234.493 311,-234.493 311,-253.493"/>
<text text-anchor="middle" x="252.5" y="-241.493" font-family="Helvetica,sans-Serif" font-size="10.00">ore::data::HwCG::fixing</text>
</a>
</g>
</g>
<!-- Node1&#45;&gt;Node3 -->
<g id="edge4" class="edge"><title>Node1&#45;&gt;Node3</title>
<path fill="none" stroke="#63b8ff" d="M598.286,-156.156C584.04,-178.369 556.585,-214.983 522,-230.993 454.767,-262.117 367.668,-259.639 311.196,-253.265"/>
<polygon fill="#63b8ff" stroke="#63b8ff" points="601.282,-157.966 603.565,-147.62 595.328,-154.284 601.282,-157.966"/>
</g>
<!-- Node5 -->
<g id="node5" class="node"><title>Node5</title>
<g id="a_node5"><a xlink:href="classore_1_1data_1_1_lgm_c_g.html#ac943e54cb7c0fca092463a1543d8edd3" target="_top" xlink:title=" ">
<polygon fill="white" stroke="#666666" points="313.5,-35.4933 191.5,-35.4933 191.5,-16.4933 313.5,-16.4933 313.5,-35.4933"/>
<text text-anchor="middle" x="252.5" y="-23.4933" font-family="Helvetica,sans-Serif" font-size="10.00">ore::data::LgmCG::fixing</text>
</a>
</g>
</g>
<!-- Node1&#45;&gt;Node5 -->
<g id="edge5" class="edge"><title>Node1&#45;&gt;Node5</title>
<path fill="none" stroke="#63b8ff" d="M601.218,-118.913C588.969,-91.7655 562.348,-43.0626 522,-22.9933 444.991,15.3111 339.521,-3.15493 286.613,-16.4579"/>
<polygon fill="#63b8ff" stroke="#63b8ff" points="598.032,-120.363 605.208,-128.157 604.459,-117.589 598.032,-120.363"/>
</g>
<!-- Node7 -->
<g id="node7" class="node"><title>Node7</title>
<g id="a_node7"><a xlink:href="classore_1_1data_1_1_hw_c_g.html#a1df82806bd3e7e8d7b40a29085e3627a" target="_top" xlink:title=" ">
<polygon fill="white" stroke="#666666" points="513.5,-184.493 376.5,-184.493 376.5,-165.493 513.5,-165.493 513.5,-184.493"/>
<text text-anchor="middle" x="445" y="-172.493" font-family="Helvetica,sans-Serif" font-size="10.00">ore::data::HwCG::numeraire</text>
</a>
</g>
</g>
<!-- Node1&#45;&gt;Node7 -->
<g id="edge7" class="edge"><title>Node1&#45;&gt;Node7</title>
<path fill="none" stroke="#63b8ff" d="M557.067,-149.782C534.815,-154.833 509.16,-160.656 488.117,-165.433"/>
<polygon fill="#63b8ff" stroke="#63b8ff" points="558.046,-153.149 567.023,-147.522 556.497,-146.322 558.046,-153.149"/>
</g>
<!-- Node8 -->
<g id="node8" class="node"><title>Node8</title>
<g id="a_node8"><a xlink:href="classore_1_1data_1_1_lgm_c_g.html#a1df82806bd3e7e8d7b40a29085e3627a" target="_top" xlink:title=" ">
<polygon fill="white" stroke="#666666" points="516.5,-147.493 373.5,-147.493 373.5,-128.493 516.5,-128.493 516.5,-147.493"/>
<text text-anchor="middle" x="445" y="-135.493" font-family="Helvetica,sans-Serif" font-size="10.00">ore::data::LgmCG::numeraire</text>
</a>
</g>
</g>
<!-- Node1&#45;&gt;Node8 -->
<g id="edge9" class="edge"><title>Node1&#45;&gt;Node8</title>
<path fill="none" stroke="#63b8ff" d="M547.867,-137.993C537.685,-137.993 527.049,-137.993 516.653,-137.993"/>
<polygon fill="#63b8ff" stroke="#63b8ff" points="547.873,-141.493 557.873,-137.993 547.873,-134.493 547.873,-141.493"/>
</g>
<!-- Node12 -->
<g id="node12" class="node"><title>Node12</title>
<g id="a_node12"><a xlink:href="classore_1_1data_1_1_black_scholes_c_g.html#a1127cccc9668a02247dc139d27121708" target="_top" xlink:title=" ">
<polygon fill="white" stroke="#666666" points="512.5,-61.9933 377.5,-61.9933 377.5,-31.9933 512.5,-31.9933 512.5,-61.9933"/>
<text text-anchor="start" x="385.5" y="-49.9933" font-family="Helvetica,sans-Serif" font-size="10.00">ore::data::BlackScholesCG</text>
<text text-anchor="middle" x="445" y="-38.9933" font-family="Helvetica,sans-Serif" font-size="10.00">::performCalculations</text>
</a>
</g>
</g>
<!-- Node1&#45;&gt;Node12 -->
<g id="edge13" class="edge"><title>Node1&#45;&gt;Node12</title>
<path fill="none" stroke="#63b8ff" d="M591.287,-121.316C574.558,-106.34 548.193,-84.665 522,-70.9933 515.622,-67.6639 508.699,-64.6969 501.716,-62.0824"/>
<polygon fill="#63b8ff" stroke="#63b8ff" points="589.361,-124.298 599.105,-128.459 594.083,-119.13 589.361,-124.298"/>
</g>
<!-- Node13 -->
<g id="node13" class="node"><title>Node13</title>
<g id="a_node13"><a xlink:href="classore_1_1data_1_1_lgm_c_g.html#a9bb2b4122ab31e639849076efac38c59" target="_top" xlink:title=" ">
<polygon fill="white" stroke="#666666" points="512,-109.993 378,-109.993 378,-79.9933 512,-79.9933 512,-109.993"/>
<text text-anchor="start" x="386" y="-97.9933" font-family="Helvetica,sans-Serif" font-size="10.00">ore::data::LgmCG::reduced</text>
<text text-anchor="middle" x="445" y="-86.9933" font-family="Helvetica,sans-Serif" font-size="10.00">DiscountBond</text>
</a>
</g>
</g>
<!-- Node1&#45;&gt;Node13 -->
<g id="edge14" class="edge"><title>Node1&#45;&gt;Node13</title>
<path fill="none" stroke="#63b8ff" d="M563.076,-125.878C544.379,-120.946 522.574,-115.194 502.884,-110"/>
<polygon fill="#63b8ff" stroke="#63b8ff" points="562.263,-129.284 572.825,-128.45 564.049,-122.515 562.263,-129.284"/>
</g>
<!-- Node2&#45;&gt;Node3 -->
<g id="edge2" class="edge"><title>Node2&#45;&gt;Node3</title>
<path fill="none" stroke="#63b8ff" d="M377.463,-223.17C355.539,-226.853 331.376,-230.912 310.251,-234.46"/>
<polygon fill="#63b8ff" stroke="#63b8ff" points="378.077,-226.616 387.359,-221.508 376.918,-219.713 378.077,-226.616"/>
</g>
<!-- Node4 -->
<g id="node4" class="node"><title>Node4</title>
<g id="a_node4"><a xlink:href="classore_1_1data_1_1_hw_c_g.html#aaf7e326a6f401939cc2c6abbe41c1c47" target="_top" xlink:title=" ">
<polygon fill="white" stroke="#666666" points="317,-210.993 188,-210.993 188,-180.993 317,-180.993 317,-210.993"/>
<text text-anchor="start" x="196" y="-198.993" font-family="Helvetica,sans-Serif" font-size="10.00">ore::data::HwCG::reduced</text>
<text text-anchor="middle" x="252.5" y="-187.993" font-family="Helvetica,sans-Serif" font-size="10.00">DiscountBond</text>
</a>
</g>
</g>
<!-- Node2&#45;&gt;Node4 -->
<g id="edge3" class="edge"><title>Node2&#45;&gt;Node4</title>
<path fill="none" stroke="#63b8ff" d="M357.573,-204.734C343.999,-203.594 330.184,-202.434 317.243,-201.347"/>
<polygon fill="#63b8ff" stroke="#63b8ff" points="357.63,-208.251 367.888,-205.601 358.216,-201.276 357.63,-208.251"/>
</g>
<!-- Node6 -->
<g id="node6" class="node"><title>Node6</title>
<g id="a_node6"><a xlink:href="classore_1_1data_1_1_gaussian_cam_c_g.html#a9ac494d33de086073701a0e5df956443" target="_top" xlink:title=" ">
<polygon fill="white" stroke="#666666" points="137,-40.9933 0,-40.9933 0,-10.9933 137,-10.9933 137,-40.9933"/>
<text text-anchor="start" x="8" y="-28.9933" font-family="Helvetica,sans-Serif" font-size="10.00">ore::data::GaussianCamCG</text>
<text text-anchor="middle" x="68.5" y="-17.9933" font-family="Helvetica,sans-Serif" font-size="10.00">::getIrIndexValue</text>
</a>
</g>
</g>
<!-- Node5&#45;&gt;Node6 -->
<g id="edge6" class="edge"><title>Node5&#45;&gt;Node6</title>
<path fill="none" stroke="#63b8ff" d="M181.036,-25.9933C166.594,-25.9933 151.423,-25.9933 137.084,-25.9933"/>
<polygon fill="#63b8ff" stroke="#63b8ff" points="181.402,-29.4934 191.402,-25.9933 181.402,-22.4934 181.402,-29.4934"/>
</g>
<!-- Node7&#45;&gt;Node4 -->
<g id="edge8" class="edge"><title>Node7&#45;&gt;Node4</title>
<path fill="none" stroke="#63b8ff" d="M366.247,-183.564C349.925,-185.364 332.892,-187.241 317.157,-188.976"/>
<polygon fill="#63b8ff" stroke="#63b8ff" points="366.744,-187.031 376.3,-182.456 365.977,-180.073 366.744,-187.031"/>
</g>
<!-- Node9 -->
<g id="node9" class="node"><title>Node9</title>
<g id="a_node9"><a xlink:href="classore_1_1data_1_1_lgm_c_g.html#ace77a6c182f86d623a008aab4f305098" target="_top" xlink:title=" ">
<polygon fill="white" stroke="#666666" points="332,-104.493 173,-104.493 173,-85.4933 332,-85.4933 332,-104.493"/>
<text text-anchor="middle" x="252.5" y="-92.4933" font-family="Helvetica,sans-Serif" font-size="10.00">ore::data::LgmCG::discountBond</text>
</a>
</g>
</g>
<!-- Node8&#45;&gt;Node9 -->
<g id="edge10" class="edge"><title>Node8&#45;&gt;Node9</title>
<path fill="none" stroke="#63b8ff" d="M391.775,-126.205C361.546,-119.382 323.997,-110.906 295.66,-104.51"/>
<polygon fill="#63b8ff" stroke="#63b8ff" points="391.197,-129.662 401.722,-128.45 392.738,-122.834 391.197,-129.662"/>
</g>
<!-- Node11 -->
<g id="node11" class="node"><title>Node11</title>
<g id="a_node11"><a xlink:href="classore_1_1data_1_1_gaussian_cam_c_g.html#a3bdcb351127a8ae4dbe49a7f11db4c28" target="_top" xlink:title=" ">
<polygon fill="white" stroke="#666666" points="321,-152.993 184,-152.993 184,-122.993 321,-122.993 321,-152.993"/>
<text text-anchor="start" x="192" y="-140.993" font-family="Helvetica,sans-Serif" font-size="10.00">ore::data::GaussianCamCG</text>
<text text-anchor="middle" x="252.5" y="-129.993" font-family="Helvetica,sans-Serif" font-size="10.00">::getNumeraire</text>
</a>
</g>
</g>
<!-- Node8&#45;&gt;Node11 -->
<g id="edge12" class="edge"><title>Node8&#45;&gt;Node11</title>
<path fill="none" stroke="#63b8ff" d="M363.235,-137.993C349.236,-137.993 334.809,-137.993 321.203,-137.993"/>
<polygon fill="#63b8ff" stroke="#63b8ff" points="363.336,-141.493 373.336,-137.993 363.336,-134.493 363.336,-141.493"/>
</g>
<!-- Node10 -->
<g id="node10" class="node"><title>Node10</title>
<g id="a_node10"><a xlink:href="classore_1_1data_1_1_gaussian_cam_c_g.html#abf6f98b24020510a254ae590e6020d27" target="_top" xlink:title=" ">
<polygon fill="white" stroke="#666666" points="137,-109.993 0,-109.993 0,-79.9933 137,-79.9933 137,-109.993"/>
<text text-anchor="start" x="8" y="-97.9933" font-family="Helvetica,sans-Serif" font-size="10.00">ore::data::GaussianCamCG</text>
<text text-anchor="middle" x="68.5" y="-86.9933" font-family="Helvetica,sans-Serif" font-size="10.00">::getDiscount</text>
</a>
</g>
</g>
<!-- Node9&#45;&gt;Node10 -->
<g id="edge11" class="edge"><title>Node9&#45;&gt;Node10</title>
<path fill="none" stroke="#63b8ff" d="M162.879,-94.9933C154.234,-94.9933 145.561,-94.9933 137.171,-94.9933"/>
<polygon fill="#63b8ff" stroke="#63b8ff" points="162.995,-98.4934 172.995,-94.9933 162.995,-91.4934 162.995,-98.4934"/>
</g>
<!-- Node13&#45;&gt;Node5 -->
<g id="edge16" class="edge"><title>Node13&#45;&gt;Node5</title>
<path fill="none" stroke="#63b8ff" d="M385.066,-76.8224C379.282,-74.9071 373.515,-72.9452 368,-70.9933 335.986,-59.6624 299.57,-45.0475 276.57,-35.599"/>
<polygon fill="#63b8ff" stroke="#63b8ff" points="384.184,-80.2161 394.776,-79.9916 386.356,-73.5616 384.184,-80.2161"/>
</g>
<!-- Node13&#45;&gt;Node9 -->
<g id="edge15" class="edge"><title>Node13&#45;&gt;Node9</title>
<path fill="none" stroke="#63b8ff" d="M367.761,-94.9933C356.077,-94.9933 343.996,-94.9933 332.259,-94.9933"/>
<polygon fill="#63b8ff" stroke="#63b8ff" points="367.907,-98.4934 377.907,-94.9933 367.907,-91.4934 367.907,-98.4934"/>
</g>
</g>
</svg>
        <g id="navigator" transform="translate(0 0)" fill="#404254">
                <rect fill="#f2f5e9" fill-opacity="0.5" stroke="#606060" stroke-width=".5" x="0" y="0" width="60" height="60"/>
                <use id="zoomplus" xlink:href="#zoomPlus" x="17" y="9" onmousedown="handleZoom(evt,'in')"/>
                <use id="zoomminus" xlink:href="#zoomMin" x="42" y="9" onmousedown="handleZoom(evt,'out')"/>
                <use id="reset" xlink:href="#resetDef" x="30" y="36" onmousedown="handleReset()"/>
                <g id="arrowUp" xlink:href="#dirArrow" transform="translate(30 24)" onmousedown="handlePan(0,-1)">
                  <use xlink:href="#rim" fill="#404040">
                        <set attributeName="fill" to="#808080" begin="arrowUp.mouseover" end="arrowUp.mouseout"/>
                  </use>
                  <path fill="none" stroke="white" stroke-width="1.5" d="M0,-3.0v7 M-2.5,-0.5L0,-3.0L2.5,-0.5"/>
                </g>
                <g id="arrowRight" xlink:href="#dirArrow" transform="rotate(90) translate(36 -43)" onmousedown="handlePan(1,0)">
                  <use xlink:href="#rim" fill="#404040">
                        <set attributeName="fill" to="#808080" begin="arrowRight.mouseover" end="arrowRight.mouseout"/>
                  </use>
                  <path fill="none" stroke="white" stroke-width="1.5" d="M0,-3.0v7 M-2.5,-0.5L0,-3.0L2.5,-0.5"/>
                </g>
                <g id="arrowDown" xlink:href="#dirArrow" transform="rotate(180) translate(-30 -48)" onmousedown="handlePan(0,1)">
                  <use xlink:href="#rim" fill="#404040">
                        <set attributeName="fill" to="#808080" begin="arrowDown.mouseover" end="arrowDown.mouseout"/>
                  </use>
                  <path fill="none" stroke="white" stroke-width="1.5" d="M0,-3.0v7 M-2.5,-0.5L0,-3.0L2.5,-0.5"/>
                </g>
                <g id="arrowLeft" xlink:href="#dirArrow" transform="rotate(270) translate(-36 17)" onmousedown="handlePan(-1,0)">
                  <use xlink:href="#rim" fill="#404040">
                        <set attributeName="fill" to="#808080" begin="arrowLeft.mouseover" end="arrowLeft.mouseout"/>
                  </use>
                  <path fill="none" stroke="white" stroke-width="1.5" d="M0,-3.0v7 M-2.5,-0.5L0,-3.0L2.5,-0.5"/>
                </g>
        </g>
        <svg viewBox="0 0 15 15" width="100%" height="30px" preserveAspectRatio="xMaxYMin meet">
         <g id="arrow_out" transform="scale(0.3 0.3)">
          <a xlink:href="namespaceore_1_1data_abe7fecf114446cbcd1e4b07bb5747e4f_icgraph_org.svg" target="_base">
           <rect id="button" ry="5" rx="5" y="6" x="6" height="38" width="38"
                fill="#f2f5e9" fill-opacity="0.5" stroke="#606060" stroke-width="1.0"/>
           <path id="arrow"
             d="M 11.500037,31.436501 C 11.940474,20.09759 22.043105,11.32322 32.158766,21.979434 L 37.068811,17.246167 C 37.068811,17.246167 37.088388,32 37.088388,32 L 22.160133,31.978069 C 22.160133,31.978069 26.997745,27.140456 26.997745,27.140456 C 18.528582,18.264221 13.291696,25.230495 11.500037,31.436501 z"
             style="fill:#404040;"/>
          </a>
         </g>
        </svg>
</svg>
