<?xml version="1.0" encoding="UTF-8" standalone="no"?>
<!DOCTYPE svg PUBLIC "-//W3C//DTD SVG 1.1//EN"
 "http://www.w3.org/Graphics/SVG/1.1/DTD/svg11.dtd">
<!-- Generated by graphviz version 2.38.0 (20140413.2041)
 -->
<!-- Title: getCalibrationStrikes Pages: 1 -->
<svg width="264pt" height="76pt"
 viewBox="0.00 0.00 264.00 75.50" xmlns="http://www.w3.org/2000/svg" xmlns:xlink="http://www.w3.org/1999/xlink">
<g id="graph0" class="graph" transform="scale(1 1) rotate(0) translate(4 71.5)">
<title>getCalibrationStrikes</title>
<!-- Node1 -->
<g id="node1" class="node"><title>Node1</title>
<g id="a_node1"><a xlink:title=" ">
<polygon fill="#999999" stroke="#666666" points="107,-45.5 0,-45.5 0,-26.5 107,-26.5 107,-45.5"/>
<text text-anchor="middle" x="53.5" y="-33.5" font-family="Helvetica,sans-Serif" font-size="10.00">getCalibrationStrikes</text>
</a>
</g>
</g>
<!-- Node2 -->
<g id="node2" class="node"><title>Node2</title>
<g id="a_node2"><a xlink:href="classore_1_1data_1_1_index_info.html#a896a38d72b9cdb12c08cec958c64aef8" target="_top" xlink:title=" ">
<polygon fill="white" stroke="#666666" points="256,-67.5 143,-67.5 143,-48.5 256,-48.5 256,-67.5"/>
<text text-anchor="middle" x="199.5" y="-55.5" font-family="Helvetica,sans-Serif" font-size="10.00">ore::data::IndexInfo::fx</text>
</a>
</g>
</g>
<!-- Node1&#45;&gt;Node2 -->
<g id="edge1" class="edge"><title>Node1&#45;&gt;Node2</title>
<path fill="none" stroke="#63b8ff" d="M107.303,-44.0671C115.61,-45.3363 124.286,-46.6618 132.841,-47.9688"/>
<polygon fill="#63b8ff" stroke="#63b8ff" points="132.386,-51.4398 142.8,-49.4903 133.443,-44.5201 132.386,-51.4398"/>
</g>
<!-- Node3 -->
<g id="node3" class="node"><title>Node3</title>
<g id="a_node3"><a xlink:href="classore_1_1data_1_1_index_info.html#ace83ebdcce15cedba31e179d29670a18" target="_top" xlink:title=" ">
<polygon fill="white" stroke="#666666" points="249,-30 150,-30 150,-0 249,-0 249,-30"/>
<text text-anchor="start" x="158" y="-18" font-family="Helvetica,sans-Serif" font-size="10.00">ore::data::IndexInfo</text>
<text text-anchor="middle" x="199.5" y="-7" font-family="Helvetica,sans-Serif" font-size="10.00">::isFx</text>
</a>
</g>
</g>
<!-- Node1&#45;&gt;Node3 -->
<g id="edge2" class="edge"><title>Node1&#45;&gt;Node3</title>
<path fill="none" stroke="#63b8ff" d="M107.303,-28.2996C117.765,-26.7738 128.811,-25.163 139.465,-23.6092"/>
<polygon fill="#63b8ff" stroke="#63b8ff" points="140.138,-27.0482 149.528,-22.1417 139.128,-20.1215 140.138,-27.0482"/>
</g>
</g>
</svg>
