<?xml version="1.0" encoding="UTF-8" standalone="no"?>
<!DOCTYPE svg PUBLIC "-//W3C//DTD SVG 1.1//EN"
 "http://www.w3.org/Graphics/SVG/1.1/DTD/svg11.dtd">
<!-- Generated by graphviz version 2.38.0 (20140413.2041)
 -->
<!-- Title: equal Pages: 1 -->
<svg width="208pt" height="64pt"
 viewBox="0.00 0.00 208.00 64.00" xmlns="http://www.w3.org/2000/svg" xmlns:xlink="http://www.w3.org/1999/xlink">
<g id="graph0" class="graph" transform="scale(1 1) rotate(0) translate(4 60)">
<title>equal</title>
<!-- Node1 -->
<g id="node1" class="node"><title>Node1</title>
<g id="a_node1"><a xlink:title=" ">
<polygon fill="#999999" stroke="#666666" points="40,-37 0,-37 0,-18 40,-18 40,-37"/>
<text text-anchor="middle" x="20" y="-25" font-family="Helvetica,sans-Serif" font-size="10.00">equal</text>
</a>
</g>
</g>
<!-- Node2 -->
<g id="node2" class="node"><title>Node2</title>
<g id="a_node2"><a target="_parent" xlink:href="../qle/namespace_quant_ext.html#a1cab4fb6a720eff245acb9f3a7a9e7c5" xlink:title=" ">
<polygon fill="white" stroke="#666666" points="200,-56 76,-56 76,-37 200,-37 200,-56"/>
<text text-anchor="middle" x="138" y="-44" font-family="Helvetica,sans-Serif" font-size="10.00">QuantExt::close_enough</text>
</a>
</g>
</g>
<!-- Node1&#45;&gt;Node2 -->
<g id="edge1" class="edge"><title>Node1&#45;&gt;Node2</title>
<path fill="none" stroke="#63b8ff" d="M40.155,-30.6375C48.2988,-31.9714 58.3336,-33.615 68.827,-35.3337"/>
<polygon fill="#63b8ff" stroke="#63b8ff" points="68.5471,-38.8345 78.9814,-36.997 69.6787,-31.9265 68.5471,-38.8345"/>
</g>
<!-- Node3 -->
<g id="node3" class="node"><title>Node3</title>
<g id="a_node3"><a target="_parent" xlink:href="../qle/namespace_quant_ext.html#ad3a3c6984d5f98350b8f45db0b13c5d4" xlink:title=" ">
<polygon fill="white" stroke="#666666" points="181.5,-19 94.5,-19 94.5,-0 181.5,-0 181.5,-19"/>
<text text-anchor="middle" x="138" y="-7" font-family="Helvetica,sans-Serif" font-size="10.00">QuantExt::equal</text>
</a>
</g>
</g>
<!-- Node1&#45;&gt;Node3 -->
<g id="edge2" class="edge"><title>Node1&#45;&gt;Node3</title>
<path fill="none" stroke="#63b8ff" d="M40.155,-24.5277C52.1905,-22.6601 68.3561,-20.1516 84.0282,-17.7198"/>
<polygon fill="#63b8ff" stroke="#63b8ff" points="84.8625,-21.1323 94.2075,-16.1402 83.789,-14.2151 84.8625,-21.1323"/>
</g>
</g>
</svg>
