<?xml version="1.0" encoding="UTF-8" standalone="no"?>
<!DOCTYPE svg PUBLIC "-//W3C//DTD SVG 1.1//EN"
 "http://www.w3.org/Graphics/SVG/1.1/DTD/svg11.dtd">
<!-- Generated by graphviz version 2.38.0 (20140413.2041)
 -->
<!-- Title: effectiveReportConfig Pages: 1 -->
<svg width="285pt" height="470pt"
 viewBox="0.00 0.00 285.00 470.00" xmlns="http://www.w3.org/2000/svg" xmlns:xlink="http://www.w3.org/1999/xlink">
<g id="graph0" class="graph" transform="scale(1 1) rotate(0) translate(4 466)">
<title>effectiveReportConfig</title>
<!-- Node1 -->
<g id="node1" class="node"><title>Node1</title>
<g id="a_node1"><a xlink:title=" ">
<polygon fill="#999999" stroke="#666666" points="107,-240.5 0,-240.5 0,-221.5 107,-221.5 107,-240.5"/>
<text text-anchor="middle" x="53.5" y="-228.5" font-family="Helvetica,sans-Serif" font-size="10.00">effectiveReportConfig</text>
</a>
</g>
</g>
<!-- Node2 -->
<g id="node2" class="node"><title>Node2</title>
<g id="a_node2"><a xlink:href="classore_1_1data_1_1_report_config.html#a4e7f096baca32e79358e09ada698bdce" target="_top" xlink:title=" ">
<polygon fill="white" stroke="#666666" points="268,-462 152,-462 152,-432 268,-432 268,-462"/>
<text text-anchor="start" x="160" y="-450" font-family="Helvetica,sans-Serif" font-size="10.00">ore::data::ReportConfig</text>
<text text-anchor="middle" x="210" y="-439" font-family="Helvetica,sans-Serif" font-size="10.00">::deltas</text>
</a>
</g>
</g>
<!-- Node1&#45;&gt;Node2 -->
<g id="edge1" class="edge"><title>Node1&#45;&gt;Node2</title>
<path fill="none" stroke="#63b8ff" d="M56.1973,-240.514C62.191,-271.381 85.199,-369.815 143,-423 144.295,-424.192 145.655,-425.326 147.066,-426.404"/>
<polygon fill="#63b8ff" stroke="#63b8ff" points="145.357,-429.468 155.646,-431.995 149.179,-423.603 145.357,-429.468"/>
</g>
<!-- Node3 -->
<g id="node3" class="node"><title>Node3</title>
<g id="a_node3"><a xlink:href="classore_1_1data_1_1_report_config.html#a82578f32908fbaf6c03607239312437d" target="_top" xlink:title=" ">
<polygon fill="white" stroke="#666666" points="268,-414 152,-414 152,-384 268,-384 268,-414"/>
<text text-anchor="start" x="160" y="-402" font-family="Helvetica,sans-Serif" font-size="10.00">ore::data::ReportConfig</text>
<text text-anchor="middle" x="210" y="-391" font-family="Helvetica,sans-Serif" font-size="10.00">::expiries</text>
</a>
</g>
</g>
<!-- Node1&#45;&gt;Node3 -->
<g id="edge2" class="edge"><title>Node1&#45;&gt;Node3</title>
<path fill="none" stroke="#63b8ff" d="M57.8125,-240.587C67.1181,-266.151 95.9312,-336.606 143,-375 144.559,-376.272 146.191,-377.479 147.88,-378.625"/>
<polygon fill="#63b8ff" stroke="#63b8ff" points="146.342,-381.782 156.732,-383.86 149.906,-375.757 146.342,-381.782"/>
</g>
<!-- Node4 -->
<g id="node4" class="node"><title>Node4</title>
<g id="a_node4"><a xlink:href="classore_1_1data_1_1_report_config.html#aee007654632574a63d04e7c6d0bc048f" target="_top" xlink:title=" ">
<polygon fill="white" stroke="#666666" points="268,-366 152,-366 152,-336 268,-336 268,-366"/>
<text text-anchor="start" x="160" y="-354" font-family="Helvetica,sans-Serif" font-size="10.00">ore::data::ReportConfig</text>
<text text-anchor="middle" x="210" y="-343" font-family="Helvetica,sans-Serif" font-size="10.00">::moneyness</text>
</a>
</g>
</g>
<!-- Node1&#45;&gt;Node4 -->
<g id="edge3" class="edge"><title>Node1&#45;&gt;Node4</title>
<path fill="none" stroke="#63b8ff" d="M60.9126,-240.582C74.1163,-259.625 106.206,-302.503 143,-327 145.379,-328.584 147.875,-330.079 150.447,-331.488"/>
<polygon fill="#63b8ff" stroke="#63b8ff" points="148.914,-334.634 159.427,-335.952 152.031,-328.366 148.914,-334.634"/>
</g>
<!-- Node5 -->
<g id="node5" class="node"><title>Node5</title>
<g id="a_node5"><a xlink:href="classore_1_1data_1_1_report_config.html#a13b426492274e696ee57b64ee0905f8b" target="_top" xlink:title=" ">
<polygon fill="white" stroke="#666666" points="268,-318 152,-318 152,-288 268,-288 268,-318"/>
<text text-anchor="start" x="160" y="-306" font-family="Helvetica,sans-Serif" font-size="10.00">ore::data::ReportConfig</text>
<text text-anchor="middle" x="210" y="-295" font-family="Helvetica,sans-Serif" font-size="10.00">::reportOnDeltaGrid</text>
</a>
</g>
</g>
<!-- Node1&#45;&gt;Node5 -->
<g id="edge4" class="edge"><title>Node1&#45;&gt;Node5</title>
<path fill="none" stroke="#63b8ff" d="M70.4461,-240.584C87.8911,-250.846 116.859,-267.236 143,-279 146.878,-280.745 150.923,-282.46 155.02,-284.121"/>
<polygon fill="#63b8ff" stroke="#63b8ff" points="154.027,-287.491 164.615,-287.886 156.584,-280.975 154.027,-287.491"/>
</g>
<!-- Node6 -->
<g id="node6" class="node"><title>Node6</title>
<g id="a_node6"><a xlink:href="classore_1_1data_1_1_report_config.html#a56ab5896ba11edc3f435cefc0c45085a" target="_top" xlink:title=" ">
<polygon fill="white" stroke="#666666" points="274,-270 146,-270 146,-240 274,-240 274,-270"/>
<text text-anchor="start" x="154" y="-258" font-family="Helvetica,sans-Serif" font-size="10.00">ore::data::ReportConfig</text>
<text text-anchor="middle" x="210" y="-247" font-family="Helvetica,sans-Serif" font-size="10.00">::reportOnMoneynessGrid</text>
</a>
</g>
</g>
<!-- Node1&#45;&gt;Node6 -->
<g id="edge5" class="edge"><title>Node1&#45;&gt;Node6</title>
<path fill="none" stroke="#63b8ff" d="M107.238,-239.192C116.451,-240.623 126.183,-242.135 135.83,-243.634"/>
<polygon fill="#63b8ff" stroke="#63b8ff" points="135.408,-247.11 145.826,-245.187 136.482,-240.193 135.408,-247.11"/>
</g>
<!-- Node7 -->
<g id="node7" class="node"><title>Node7</title>
<g id="a_node7"><a xlink:href="classore_1_1data_1_1_report_config.html#a74e55eb606801e93e03464e36edc3954" target="_top" xlink:title=" ">
<polygon fill="white" stroke="#666666" points="268,-222 152,-222 152,-192 268,-192 268,-222"/>
<text text-anchor="start" x="160" y="-210" font-family="Helvetica,sans-Serif" font-size="10.00">ore::data::ReportConfig</text>
<text text-anchor="middle" x="210" y="-199" font-family="Helvetica,sans-Serif" font-size="10.00">::reportOnStrikeGrid</text>
</a>
</g>
</g>
<!-- Node1&#45;&gt;Node7 -->
<g id="edge6" class="edge"><title>Node1&#45;&gt;Node7</title>
<path fill="none" stroke="#63b8ff" d="M107.238,-222.808C118.326,-221.085 130.166,-219.246 141.705,-217.454"/>
<polygon fill="#63b8ff" stroke="#63b8ff" points="142.397,-220.888 151.741,-215.895 141.322,-213.971 142.397,-220.888"/>
</g>
<!-- Node8 -->
<g id="node8" class="node"><title>Node8</title>
<g id="a_node8"><a xlink:href="classore_1_1data_1_1_report_config.html#a5552ccfe35e93f625d97ce7912182770" target="_top" xlink:title=" ">
<polygon fill="white" stroke="#666666" points="277,-174 143,-174 143,-144 277,-144 277,-174"/>
<text text-anchor="start" x="151" y="-162" font-family="Helvetica,sans-Serif" font-size="10.00">ore::data::ReportConfig</text>
<text text-anchor="middle" x="210" y="-151" font-family="Helvetica,sans-Serif" font-size="10.00">::reportOnStrikeSpreadGrid</text>
</a>
</g>
</g>
<!-- Node1&#45;&gt;Node8 -->
<g id="edge7" class="edge"><title>Node1&#45;&gt;Node8</title>
<path fill="none" stroke="#63b8ff" d="M70.4461,-221.416C87.8911,-211.154 116.859,-194.764 143,-183 146.878,-181.255 150.923,-179.54 155.02,-177.879"/>
<polygon fill="#63b8ff" stroke="#63b8ff" points="156.584,-181.025 164.615,-174.114 154.027,-174.509 156.584,-181.025"/>
</g>
<!-- Node9 -->
<g id="node9" class="node"><title>Node9</title>
<g id="a_node9"><a xlink:href="classore_1_1data_1_1_report_config.html#a3e27de23896c5cad96fe8b54be7efbfc" target="_top" xlink:title=" ">
<polygon fill="white" stroke="#666666" points="268,-126 152,-126 152,-96 268,-96 268,-126"/>
<text text-anchor="start" x="160" y="-114" font-family="Helvetica,sans-Serif" font-size="10.00">ore::data::ReportConfig</text>
<text text-anchor="middle" x="210" y="-103" font-family="Helvetica,sans-Serif" font-size="10.00">::strikes</text>
</a>
</g>
</g>
<!-- Node1&#45;&gt;Node9 -->
<g id="edge8" class="edge"><title>Node1&#45;&gt;Node9</title>
<path fill="none" stroke="#63b8ff" d="M60.9126,-221.418C74.1163,-202.375 106.206,-159.497 143,-135 145.379,-133.416 147.875,-131.921 150.447,-130.512"/>
<polygon fill="#63b8ff" stroke="#63b8ff" points="152.031,-133.634 159.427,-126.048 148.914,-127.366 152.031,-133.634"/>
</g>
<!-- Node10 -->
<g id="node10" class="node"><title>Node10</title>
<g id="a_node10"><a xlink:href="classore_1_1data_1_1_report_config.html#af8d226e2763da6112782a272b6bf454b" target="_top" xlink:title=" ">
<polygon fill="white" stroke="#666666" points="268,-78 152,-78 152,-48 268,-48 268,-78"/>
<text text-anchor="start" x="160" y="-66" font-family="Helvetica,sans-Serif" font-size="10.00">ore::data::ReportConfig</text>
<text text-anchor="middle" x="210" y="-55" font-family="Helvetica,sans-Serif" font-size="10.00">::strikeSpreads</text>
</a>
</g>
</g>
<!-- Node1&#45;&gt;Node10 -->
<g id="edge9" class="edge"><title>Node1&#45;&gt;Node10</title>
<path fill="none" stroke="#63b8ff" d="M57.8125,-221.413C67.1181,-195.849 95.9312,-125.394 143,-87 144.559,-85.7284 146.191,-84.521 147.88,-83.3748"/>
<polygon fill="#63b8ff" stroke="#63b8ff" points="149.906,-86.2434 156.732,-78.1403 146.342,-80.2182 149.906,-86.2434"/>
</g>
<!-- Node11 -->
<g id="node11" class="node"><title>Node11</title>
<g id="a_node11"><a xlink:href="classore_1_1data_1_1_report_config.html#a17329bf807a1070ecbc7e03e3cc94df3" target="_top" xlink:title=" ">
<polygon fill="white" stroke="#666666" points="268,-30 152,-30 152,-0 268,-0 268,-30"/>
<text text-anchor="start" x="160" y="-18" font-family="Helvetica,sans-Serif" font-size="10.00">ore::data::ReportConfig</text>
<text text-anchor="middle" x="210" y="-7" font-family="Helvetica,sans-Serif" font-size="10.00">::underlyingTenors</text>
</a>
</g>
</g>
<!-- Node1&#45;&gt;Node11 -->
<g id="edge10" class="edge"><title>Node1&#45;&gt;Node11</title>
<path fill="none" stroke="#63b8ff" d="M56.1973,-221.486C62.191,-190.619 85.199,-92.1846 143,-39 144.295,-37.8081 145.655,-36.6743 147.066,-35.5958"/>
<polygon fill="#63b8ff" stroke="#63b8ff" points="149.179,-38.3968 155.646,-30.0051 145.357,-32.532 149.179,-38.3968"/>
</g>
</g>
</svg>
