<?xml version="1.0" encoding="UTF-8" standalone="no"?>
<!DOCTYPE svg PUBLIC "-//W3C//DTD SVG 1.1//EN"
 "http://www.w3.org/Graphics/SVG/1.1/DTD/svg11.dtd">
<!-- Generated by graphviz version 2.38.0 (20140413.2041)
 -->
<!-- Title: parseReversionType Pages: 1 -->
<svg width="489pt" height="278pt"
 viewBox="0.00 0.00 489.00 278.00" xmlns="http://www.w3.org/2000/svg" xmlns:xlink="http://www.w3.org/1999/xlink">
<g id="graph0" class="graph" transform="scale(1 1) rotate(0) translate(4 274)">
<title>parseReversionType</title>
<!-- Node1 -->
<g id="node1" class="node"><title>Node1</title>
<g id="a_node1"><a xlink:title="Enum parsers.">
<polygon fill="#999999" stroke="#666666" points="481,-144.5 377,-144.5 377,-125.5 481,-125.5 481,-144.5"/>
<text text-anchor="middle" x="429" y="-132.5" font-family="Helvetica,sans-Serif" font-size="10.00">parseReversionType</text>
</a>
</g>
</g>
<!-- Node2 -->
<g id="node2" class="node"><title>Node2</title>
<g id="a_node2"><a xlink:href="classore_1_1data_1_1_cam_mc_multi_leg_option_engine_builder.html#a9e0c22676d210fe5cbcca2b0c18c8353" target="_top" xlink:title=" ">
<polygon fill="white" stroke="#666666" points="322.5,-270 164.5,-270 164.5,-240 322.5,-240 322.5,-270"/>
<text text-anchor="start" x="172.5" y="-258" font-family="Helvetica,sans-Serif" font-size="10.00">ore::data::CamMcMultiLeg</text>
<text text-anchor="middle" x="243.5" y="-247" font-family="Helvetica,sans-Serif" font-size="10.00">OptionEngineBuilder::engineImpl</text>
</a>
</g>
</g>
<!-- Node1&#45;&gt;Node2 -->
<g id="edge1" class="edge"><title>Node1&#45;&gt;Node2</title>
<path fill="none" stroke="#63b8ff" d="M416.641,-153C401.898,-174.842 374.103,-211.196 341,-231 335.222,-234.457 328.965,-237.417 322.509,-239.952"/>
<polygon fill="#63b8ff" stroke="#63b8ff" points="419.58,-154.9 422.137,-144.618 413.727,-151.061 419.58,-154.9"/>
</g>
<!-- Node3 -->
<g id="node3" class="node"><title>Node3</title>
<g id="a_node3"><a xlink:href="classore_1_1data_1_1_lgm_data.html#a7741ae0fc924943de5bfe02928262eb7" target="_top" xlink:title=" ">
<polygon fill="white" stroke="#666666" points="293.5,-222 193.5,-222 193.5,-192 293.5,-192 293.5,-222"/>
<text text-anchor="start" x="201.5" y="-210" font-family="Helvetica,sans-Serif" font-size="10.00">ore::data::LgmData</text>
<text text-anchor="middle" x="243.5" y="-199" font-family="Helvetica,sans-Serif" font-size="10.00">::fromXML</text>
</a>
</g>
</g>
<!-- Node1&#45;&gt;Node3 -->
<g id="edge2" class="edge"><title>Node1&#45;&gt;Node3</title>
<path fill="none" stroke="#63b8ff" d="M404.777,-149.998C387.703,-160.474 363.627,-174.12 341,-183 326.054,-188.865 309.232,-193.636 293.869,-197.334"/>
<polygon fill="#63b8ff" stroke="#63b8ff" points="406.863,-152.822 413.489,-144.555 403.154,-146.885 406.863,-152.822"/>
</g>
<!-- Node6 -->
<g id="node6" class="node"><title>Node6</title>
<g id="a_node6"><a xlink:href="classore_1_1data_1_1_reversion_parameter.html#a7741ae0fc924943de5bfe02928262eb7" target="_top" xlink:title=" ">
<polygon fill="white" stroke="#666666" points="317.5,-174 169.5,-174 169.5,-144 317.5,-144 317.5,-174"/>
<text text-anchor="start" x="177.5" y="-162" font-family="Helvetica,sans-Serif" font-size="10.00">ore::data::ReversionParameter</text>
<text text-anchor="middle" x="243.5" y="-151" font-family="Helvetica,sans-Serif" font-size="10.00">::fromXML</text>
</a>
</g>
</g>
<!-- Node1&#45;&gt;Node6 -->
<g id="edge5" class="edge"><title>Node1&#45;&gt;Node6</title>
<path fill="none" stroke="#63b8ff" d="M366.755,-143.01C351.009,-145.07 333.91,-147.306 317.628,-149.436"/>
<polygon fill="#63b8ff" stroke="#63b8ff" points="367.423,-146.453 376.885,-141.685 366.516,-139.512 367.423,-146.453"/>
</g>
<!-- Node9 -->
<g id="node9" class="node"><title>Node9</title>
<g id="a_node9"><a xlink:href="classore_1_1data_1_1_flexi_swap_b_g_s_l_g_m_grid_engine_builder_base.html#abc0651f3e138d26037b7f70753c8f1a6" target="_top" xlink:title=" ">
<polygon fill="white" stroke="#666666" points="326.5,-126 160.5,-126 160.5,-96 326.5,-96 326.5,-126"/>
<text text-anchor="start" x="168.5" y="-114" font-family="Helvetica,sans-Serif" font-size="10.00">ore::data::FlexiSwapBGSLGMGrid</text>
<text text-anchor="middle" x="243.5" y="-103" font-family="Helvetica,sans-Serif" font-size="10.00">EngineBuilderBase::model</text>
</a>
</g>
</g>
<!-- Node1&#45;&gt;Node9 -->
<g id="edge8" class="edge"><title>Node1&#45;&gt;Node9</title>
<path fill="none" stroke="#63b8ff" d="M366.781,-126.993C353.912,-125.31 340.139,-123.509 326.646,-121.744"/>
<polygon fill="#63b8ff" stroke="#63b8ff" points="366.516,-130.488 376.885,-128.315 367.423,-123.547 366.516,-130.488"/>
</g>
<!-- Node10 -->
<g id="node10" class="node"><title>Node10</title>
<g id="a_node10"><a xlink:href="classore_1_1data_1_1_l_g_m_swaption_engine_builder.html#a15d5bfbc8a8dc9f2485f9b941b26ff91" target="_top" xlink:title=" ">
<polygon fill="white" stroke="#666666" points="319.5,-78 167.5,-78 167.5,-48 319.5,-48 319.5,-78"/>
<text text-anchor="start" x="175.5" y="-66" font-family="Helvetica,sans-Serif" font-size="10.00">ore::data::LGMSwaptionEngine</text>
<text text-anchor="middle" x="243.5" y="-55" font-family="Helvetica,sans-Serif" font-size="10.00">Builder::model</text>
</a>
</g>
</g>
<!-- Node1&#45;&gt;Node10 -->
<g id="edge9" class="edge"><title>Node1&#45;&gt;Node10</title>
<path fill="none" stroke="#63b8ff" d="M404.777,-120.002C387.703,-109.526 363.627,-95.8795 341,-87 332.483,-83.6575 323.356,-80.6703 314.237,-78.0346"/>
<polygon fill="#63b8ff" stroke="#63b8ff" points="403.154,-123.115 413.489,-125.445 406.863,-117.178 403.154,-123.115"/>
</g>
<!-- Node11 -->
<g id="node11" class="node"><title>Node11</title>
<g id="a_node11"><a xlink:href="classore_1_1data_1_1_risk_participation_agreement_l_g_m_grid_engine_builder.html#a29e3df272decd45b35d8fe08ef7308e0" target="_top" xlink:title=" ">
<polygon fill="white" stroke="#666666" points="341,-30 146,-30 146,-0 341,-0 341,-30"/>
<text text-anchor="start" x="154" y="-18" font-family="Helvetica,sans-Serif" font-size="10.00">ore::data::RiskParticipation</text>
<text text-anchor="middle" x="243.5" y="-7" font-family="Helvetica,sans-Serif" font-size="10.00">AgreementLGMGridEngineBuilder::model</text>
</a>
</g>
</g>
<!-- Node1&#45;&gt;Node11 -->
<g id="edge10" class="edge"><title>Node1&#45;&gt;Node11</title>
<path fill="none" stroke="#63b8ff" d="M416.641,-117C401.898,-95.1584 374.103,-58.8045 341,-39 335.222,-35.5433 328.965,-32.5828 322.509,-30.0475"/>
<polygon fill="#63b8ff" stroke="#63b8ff" points="413.727,-118.939 422.137,-125.382 419.58,-115.1 413.727,-118.939"/>
</g>
<!-- Node4 -->
<g id="node4" class="node"><title>Node4</title>
<g id="a_node4"><a xlink:href="classore_1_1data_1_1_cr_lgm_data.html#a7741ae0fc924943de5bfe02928262eb7" target="_top" xlink:title=" ">
<polygon fill="white" stroke="#666666" points="110,-270 0,-270 0,-240 110,-240 110,-270"/>
<text text-anchor="start" x="8" y="-258" font-family="Helvetica,sans-Serif" font-size="10.00">ore::data::CrLgmData</text>
<text text-anchor="middle" x="55" y="-247" font-family="Helvetica,sans-Serif" font-size="10.00">::fromXML</text>
</a>
</g>
</g>
<!-- Node3&#45;&gt;Node4 -->
<g id="edge3" class="edge"><title>Node3&#45;&gt;Node4</title>
<path fill="none" stroke="#63b8ff" d="M183.566,-221.49C171.149,-224.589 158.136,-227.873 146,-231 134.412,-233.986 122.003,-237.251 110.216,-240.384"/>
<polygon fill="#63b8ff" stroke="#63b8ff" points="184.509,-224.862 193.368,-219.05 182.818,-218.069 184.509,-224.862"/>
</g>
<!-- Node5 -->
<g id="node5" class="node"><title>Node5</title>
<g id="a_node5"><a xlink:href="classore_1_1data_1_1_ir_lgm_data.html#a7741ae0fc924943de5bfe02928262eb7" target="_top" xlink:title=" ">
<polygon fill="white" stroke="#666666" points="107.5,-222 2.5,-222 2.5,-192 107.5,-192 107.5,-222"/>
<text text-anchor="start" x="10.5" y="-210" font-family="Helvetica,sans-Serif" font-size="10.00">ore::data::IrLgmData</text>
<text text-anchor="middle" x="55" y="-199" font-family="Helvetica,sans-Serif" font-size="10.00">::fromXML</text>
</a>
</g>
</g>
<!-- Node3&#45;&gt;Node5 -->
<g id="edge4" class="edge"><title>Node3&#45;&gt;Node5</title>
<path fill="none" stroke="#63b8ff" d="M183.318,-207C158.993,-207 131.084,-207 107.606,-207"/>
<polygon fill="#63b8ff" stroke="#63b8ff" points="183.499,-210.5 193.499,-207 183.499,-203.5 183.499,-210.5"/>
</g>
<!-- Node7 -->
<g id="node7" class="node"><title>Node7</title>
<g id="a_node7"><a xlink:href="classore_1_1data_1_1_inf_dk_data.html#a7741ae0fc924943de5bfe02928262eb7" target="_top" xlink:title=" ">
<polygon fill="white" stroke="#666666" points="106.5,-174 3.5,-174 3.5,-144 106.5,-144 106.5,-174"/>
<text text-anchor="start" x="11.5" y="-162" font-family="Helvetica,sans-Serif" font-size="10.00">ore::data::InfDkData</text>
<text text-anchor="middle" x="55" y="-151" font-family="Helvetica,sans-Serif" font-size="10.00">::fromXML</text>
</a>
</g>
</g>
<!-- Node6&#45;&gt;Node7 -->
<g id="edge6" class="edge"><title>Node6&#45;&gt;Node7</title>
<path fill="none" stroke="#63b8ff" d="M159.134,-159C141.192,-159 122.757,-159 106.525,-159"/>
<polygon fill="#63b8ff" stroke="#63b8ff" points="159.326,-162.5 169.326,-159 159.326,-155.5 159.326,-162.5"/>
</g>
<!-- Node8 -->
<g id="node8" class="node"><title>Node8</title>
<g id="a_node8"><a xlink:href="classore_1_1data_1_1_inf_jy_data.html#a7741ae0fc924943de5bfe02928262eb7" target="_top" xlink:title=" ">
<polygon fill="white" stroke="#666666" points="105.5,-126 4.5,-126 4.5,-96 105.5,-96 105.5,-126"/>
<text text-anchor="start" x="12.5" y="-114" font-family="Helvetica,sans-Serif" font-size="10.00">ore::data::InfJyData</text>
<text text-anchor="middle" x="55" y="-103" font-family="Helvetica,sans-Serif" font-size="10.00">::fromXML</text>
</a>
</g>
</g>
<!-- Node6&#45;&gt;Node8 -->
<g id="edge7" class="edge"><title>Node6&#45;&gt;Node8</title>
<path fill="none" stroke="#63b8ff" d="M171.723,-141.543C163.053,-139.361 154.32,-137.144 146,-135 133.003,-131.651 118.973,-127.951 105.946,-124.479"/>
<polygon fill="#63b8ff" stroke="#63b8ff" points="170.909,-144.947 181.46,-143.984 172.611,-138.157 170.909,-144.947"/>
</g>
</g>
</svg>
