<?xml version="1.0" encoding="UTF-8" standalone="no"?>
<!DOCTYPE svg PUBLIC "-//W3C//DTD SVG 1.1//EN"
 "http://www.w3.org/Graphics/SVG/1.1/DTD/svg11.dtd">
<!-- Generated by graphviz version 2.38.0 (20140413.2041)
 -->
<!-- Title: makeCMSSpreadLeg Pages: 1 -->
<!--zoomable 889 -->
<svg id="main" version="1.1" xmlns="http://www.w3.org/2000/svg" xmlns:xlink="http://www.w3.org/1999/xlink" xml:space="preserve" onload="init(evt)">
<style type="text/css"><![CDATA[
.edge:hover path { stroke: red; }
.edge:hover polygon { stroke: red; fill: red; }
]]></style>
<script type="text/javascript"><![CDATA[
var edges = document.getElementsByTagName('g');
if (edges && edges.length) {
  for (var i=0;i<edges.length;i++) {
    if (edges[i].id.substr(0,4)=='edge') {
      edges[i].setAttribute('class','edge');
    }
  }
}
]]></script>
        <defs>
                <circle id="rim" cx="0" cy="0" r="7"/>
                <circle id="rim2" cx="0" cy="0" r="3.5"/>
                <g id="zoomPlus">
                        <use xlink:href="#rim" fill="#404040">
                                <set attributeName="fill" to="#808080" begin="zoomplus.mouseover" end="zoomplus.mouseout"/>
                        </use>
                        <path d="M-4,0h8M0,-4v8" fill="none" stroke="white" stroke-width="1.5" pointer-events="none"/>
                </g>
                <g id="zoomMin">
                        <use xlink:href="#rim" fill="#404040">
                                <set attributeName="fill" to="#808080" begin="zoomminus.mouseover" end="zoomminus.mouseout"/>
                        </use>
                        <path d="M-4,0h8" fill="none" stroke="white" stroke-width="1.5" pointer-events="none"/>
                </g>
                <g id="dirArrow">
                        <path fill="none" stroke="white" stroke-width="1.5" d="M0,-3.0v7 M-2.5,-0.5L0,-3.0L2.5,-0.5"/>
                </g>
               <g id="resetDef">
                       <use xlink:href="#rim2" fill="#404040">
                               <set attributeName="fill" to="#808080" begin="reset.mouseover" end="reset.mouseout"/>
                       </use>
               </g>
        </defs>

<script type="text/javascript">
var viewWidth = 761;
var viewHeight = 889;
var sectionId = 'dynsection-122';
</script>
<script xlink:href="svgpan.js"/>
<svg id="graph" class="graph">
<g id="viewport">
<title>makeCMSSpreadLeg</title>
<!-- Node1 -->
<g id="node1" class="node"><title>Node1</title>
<g id="a_node1"><a xlink:title=" ">
<polygon fill="#999999" stroke="#666666" points="109,-217 0,-217 0,-198 109,-198 109,-217"/>
<text text-anchor="middle" x="54.5" y="-205" font-family="Helvetica,sans-Serif" font-size="10.00">makeCMSSpreadLeg</text>
</a>
</g>
</g>
<!-- Node2 -->
<g id="node2" class="node"><title>Node2</title>
<g id="a_node2"><a xlink:href="namespaceore_1_1data.html#a51a0ccd1027fb275bb214f1baaaa2986" target="_top" xlink:title=" ">
<polygon fill="white" stroke="#666666" points="272.5,-501 177.5,-501 177.5,-482 272.5,-482 272.5,-501"/>
<text text-anchor="middle" x="225" y="-489" font-family="Helvetica,sans-Serif" font-size="10.00">applyAmortization</text>
</a>
</g>
</g>
<!-- Node1&#45;&gt;Node2 -->
<g id="edge1" class="edge"><title>Node1&#45;&gt;Node2</title>
<path fill="none" stroke="#63b8ff" d="M61.3002,-217.276C85.7571,-258.497 180.694,-418.51 213.093,-473.117"/>
<polygon fill="#63b8ff" stroke="#63b8ff" points="210.112,-474.951 218.224,-481.765 216.132,-471.379 210.112,-474.951"/>
</g>
<!-- Node17 -->
<g id="node17" class="node"><title>Node17</title>
<g id="a_node17"><a xlink:href="group__utilities.html#gaefb008d0de256c79140545d9c7549093" target="_top" xlink:title="Convert text to QuantLib::DayCounter.">
<polygon fill="white" stroke="#666666" points="460,-262 368,-262 368,-243 460,-243 460,-262"/>
<text text-anchor="middle" x="414" y="-250" font-family="Helvetica,sans-Serif" font-size="10.00">parseDayCounter</text>
</a>
</g>
</g>
<!-- Node1&#45;&gt;Node17 -->
<g id="edge48" class="edge"><title>Node1&#45;&gt;Node17</title>
<path fill="none" stroke="#63b8ff" d="M109.021,-214.237C175.998,-222.668 290.115,-237.032 357.847,-245.558"/>
<polygon fill="#63b8ff" stroke="#63b8ff" points="357.54,-249.047 367.899,-246.823 358.414,-242.101 357.54,-249.047"/>
</g>
<!-- Node20 -->
<g id="node20" class="node"><title>Node20</title>
<g id="a_node20"><a xlink:href="namespaceore_1_1data.html#a9206da3667d412d6992de0f3909beef2" target="_top" xlink:title=" ">
<polygon fill="white" stroke="#666666" points="469.5,-846 358.5,-846 358.5,-827 469.5,-827 469.5,-846"/>
<text text-anchor="middle" x="414" y="-834" font-family="Helvetica,sans-Serif" font-size="10.00">buildScheduledVector</text>
</a>
</g>
</g>
<!-- Node1&#45;&gt;Node20 -->
<g id="edge34" class="edge"><title>Node1&#45;&gt;Node20</title>
<path fill="none" stroke="#63b8ff" d="M57.2681,-217.026C64.5738,-255.239 94.4222,-400.637 145,-510.5 211.915,-655.849 214.438,-714.592 341,-812.5 346.462,-816.725 352.704,-820.226 359.18,-823.122"/>
<polygon fill="#63b8ff" stroke="#63b8ff" points="358.184,-826.493 368.769,-826.947 360.777,-819.991 358.184,-826.493"/>
</g>
<!-- Node21 -->
<g id="node21" class="node"><title>Node21</title>
<g id="a_node21"><a xlink:href="namespaceore_1_1data.html#a0ac332ac8261c00686a95df64cf16560" target="_top" xlink:title=" ">
<polygon fill="white" stroke="#666666" points="305,-846 145,-846 145,-827 305,-827 305,-846"/>
<text text-anchor="middle" x="225" y="-834" font-family="Helvetica,sans-Serif" font-size="10.00">buildScheduledVectorNormalised</text>
</a>
</g>
</g>
<!-- Node1&#45;&gt;Node21 -->
<g id="edge36" class="edge"><title>Node1&#45;&gt;Node21</title>
<path fill="none" stroke="#63b8ff" d="M56.4953,-217.087C61.7404,-265.886 88.113,-491.202 145,-666.5 163.592,-723.792 196.593,-787.099 213.451,-817.778"/>
<polygon fill="#63b8ff" stroke="#63b8ff" points="210.589,-819.834 218.505,-826.876 216.708,-816.435 210.589,-819.834"/>
</g>
<!-- Node22 -->
<g id="node22" class="node"><title>Node22</title>
<g id="a_node22"><a xlink:href="namespaceore_1_1data.html#af158e922cf963a59228878344ca5858d" target="_top" xlink:title=" ">
<polygon fill="white" stroke="#666666" points="265.5,-176 184.5,-176 184.5,-157 265.5,-157 265.5,-176"/>
<text text-anchor="middle" x="225" y="-164" font-family="Helvetica,sans-Serif" font-size="10.00">makeSchedule</text>
</a>
</g>
</g>
<!-- Node1&#45;&gt;Node22 -->
<g id="edge39" class="edge"><title>Node1&#45;&gt;Node22</title>
<path fill="none" stroke="#63b8ff" d="M94.5808,-197.991C118.527,-192.164 149.384,-184.656 174.961,-178.432"/>
<polygon fill="#63b8ff" stroke="#63b8ff" points="175.951,-181.794 184.84,-176.029 174.296,-174.992 175.951,-181.794"/>
</g>
<!-- Node24 -->
<g id="node24" class="node"><title>Node24</title>
<g id="a_node24"><a xlink:href="group__utilities.html#ga86adcf55f91e340ff40783964666e732" target="_top" xlink:title="Convert text to QuantLib::BusinessDayConvention.">
<polygon fill="white" stroke="#666666" points="487,-93 341,-93 341,-74 487,-74 487,-93"/>
<text text-anchor="middle" x="414" y="-81" font-family="Helvetica,sans-Serif" font-size="10.00">parseBusinessDayConvention</text>
</a>
</g>
</g>
<!-- Node1&#45;&gt;Node24 -->
<g id="edge46" class="edge"><title>Node1&#45;&gt;Node24</title>
<path fill="none" stroke="#63b8ff" d="M66.8672,-197.902C83.1413,-184.642 114.495,-160.849 145,-147.5 205.853,-120.871 279.539,-104.3 334.234,-94.7108"/>
<polygon fill="#63b8ff" stroke="#63b8ff" points="334.953,-98.1388 344.218,-93.0007 333.771,-91.2392 334.953,-98.1388"/>
</g>
<!-- Node25 -->
<g id="node25" class="node"><title>Node25</title>
<g id="a_node25"><a xlink:href="group__utilities.html#ga0f72d6fcccae10a674bdcd5095200f14" target="_top" xlink:title="Convert text to QuantLib::Calendar.">
<polygon fill="white" stroke="#666666" points="453.5,-56 374.5,-56 374.5,-37 453.5,-37 453.5,-56"/>
<text text-anchor="middle" x="414" y="-44" font-family="Helvetica,sans-Serif" font-size="10.00">parseCalendar</text>
</a>
</g>
</g>
<!-- Node1&#45;&gt;Node25 -->
<g id="edge47" class="edge"><title>Node1&#45;&gt;Node25</title>
<path fill="none" stroke="#63b8ff" d="M60.2335,-197.96C71.5653,-176.206 102.503,-122.854 145,-97.5 213.349,-56.7224 307.442,-47.5039 364.033,-45.983"/>
<polygon fill="#63b8ff" stroke="#63b8ff" points="364.219,-49.4801 374.148,-45.7828 364.081,-42.4815 364.219,-49.4801"/>
</g>
<!-- Node26 -->
<g id="node26" class="node"><title>Node26</title>
<g id="a_node26"><a xlink:href="group__utilities.html#gaaccd32117e7bb7cbec793de579976cc8" target="_top" xlink:title="Convert text to PaymentLag.">
<polygon fill="white" stroke="#666666" points="461.5,-19 366.5,-19 366.5,-0 461.5,-0 461.5,-19"/>
<text text-anchor="middle" x="414" y="-7" font-family="Helvetica,sans-Serif" font-size="10.00">parsePaymentLag</text>
</a>
</g>
</g>
<!-- Node1&#45;&gt;Node26 -->
<g id="edge49" class="edge"><title>Node1&#45;&gt;Node26</title>
<path fill="none" stroke="#63b8ff" d="M57.6628,-197.858C64.6245,-169.274 89.3202,-84.6182 145,-46.5 207.703,-3.57345 298.19,-0.126478 356.3,-3.40335"/>
<polygon fill="#63b8ff" stroke="#63b8ff" points="356.199,-6.90402 366.404,-4.05923 356.652,0.0812828 356.199,-6.90402"/>
</g>
<!-- Node3 -->
<g id="node3" class="node"><title>Node3</title>
<g id="a_node3"><a xlink:href="namespaceore_1_1data.html#a3f75d0993cfbe5fbe70dc1fc44f62e25" target="_top" xlink:title=" ">
<polygon fill="white" stroke="#666666" points="480,-396.5 348,-396.5 348,-366.5 480,-366.5 480,-396.5"/>
<text text-anchor="start" x="356" y="-384.5" font-family="Helvetica,sans-Serif" font-size="10.00">buildAmortizationSchedule</text>
<text text-anchor="middle" x="414" y="-373.5" font-family="Helvetica,sans-Serif" font-size="10.00">FixedAmount</text>
</a>
</g>
</g>
<!-- Node2&#45;&gt;Node3 -->
<g id="edge2" class="edge"><title>Node2&#45;&gt;Node3</title>
<path fill="none" stroke="#63b8ff" d="M236.67,-481.852C256.139,-464.669 299.277,-428.506 341,-406.5 345.17,-404.301 349.573,-402.23 354.064,-400.293"/>
<polygon fill="#63b8ff" stroke="#63b8ff" points="355.417,-403.522 363.36,-396.511 352.779,-397.038 355.417,-403.522"/>
</g>
<!-- Node5 -->
<g id="node5" class="node"><title>Node5</title>
<g id="a_node5"><a xlink:href="group__utilities.html#ga59b5fdda574d90facae95dec2d13040d" target="_top" xlink:title="Convert std::string to QuantLib::Date.">
<polygon fill="white" stroke="#666666" points="615.5,-412 554.5,-412 554.5,-393 615.5,-393 615.5,-412"/>
<text text-anchor="middle" x="585" y="-400" font-family="Helvetica,sans-Serif" font-size="10.00">parseDate</text>
</a>
</g>
</g>
<!-- Node2&#45;&gt;Node5 -->
<g id="edge29" class="edge"><title>Node2&#45;&gt;Node5</title>
<path fill="none" stroke="#63b8ff" d="M230.502,-481.942C243.355,-455.946 283.06,-384.127 341,-357.5 399.961,-330.404 424.36,-340.565 487,-357.5 504.881,-362.334 506.333,-370.419 523,-378.5 530.875,-382.318 539.524,-386.009 547.771,-389.303"/>
<polygon fill="#63b8ff" stroke="#63b8ff" points="546.608,-392.606 557.197,-392.972 549.148,-386.083 546.608,-392.606"/>
</g>
<!-- Node7 -->
<g id="node7" class="node"><title>Node7</title>
<g id="a_node7"><a xlink:href="namespaceore_1_1data.html#a777e216dee6069b548bb87da7152699e" target="_top" xlink:title=" ">
<polygon fill="white" stroke="#666666" points="735.5,-493 700.5,-493 700.5,-474 735.5,-474 735.5,-493"/>
<text text-anchor="middle" x="718" y="-481" font-family="Helvetica,sans-Serif" font-size="10.00">size</text>
</a>
</g>
</g>
<!-- Node2&#45;&gt;Node7 -->
<g id="edge31" class="edge"><title>Node2&#45;&gt;Node7</title>
<path fill="none" stroke="#63b8ff" d="M272.511,-490.865C284.59,-493.008 296.562,-497.571 305,-506.5 389.058,-595.449 248.978,-698.817 341,-779.5 389.791,-822.279 427.546,-805.497 487,-779.5 612.759,-724.511 687.413,-559.221 709.811,-502.698"/>
<polygon fill="#63b8ff" stroke="#63b8ff" points="713.148,-503.773 713.49,-493.183 706.619,-501.248 713.148,-503.773"/>
</g>
<!-- Node9 -->
<g id="node9" class="node"><title>Node9</title>
<g id="a_node9"><a xlink:href="namespaceore_1_1data.html#a780fd2c0c5fc502dfb7c5d888ed4d691" target="_top" xlink:title=" ">
<polygon fill="white" stroke="#666666" points="480,-674.5 348,-674.5 348,-644.5 480,-644.5 480,-674.5"/>
<text text-anchor="start" x="356" y="-662.5" font-family="Helvetica,sans-Serif" font-size="10.00">buildAmortizationSchedule</text>
<text text-anchor="middle" x="414" y="-651.5" font-family="Helvetica,sans-Serif" font-size="10.00">FixedAnnuity</text>
</a>
</g>
</g>
<!-- Node2&#45;&gt;Node9 -->
<g id="edge10" class="edge"><title>Node2&#45;&gt;Node9</title>
<path fill="none" stroke="#63b8ff" d="M231.058,-501.141C245.02,-526.84 286.691,-597.597 341,-635.5 343.127,-636.985 345.353,-638.383 347.65,-639.699"/>
<polygon fill="#63b8ff" stroke="#63b8ff" points="346.304,-642.942 356.801,-644.38 349.492,-636.71 346.304,-642.942"/>
</g>
<!-- Node10 -->
<g id="node10" class="node"><title>Node10</title>
<g id="a_node10"><a xlink:href="namespaceore_1_1data.html#a28ae531d5d86c7011eabb39109863f8b" target="_top" xlink:title=" ">
<polygon fill="white" stroke="#666666" points="480,-626.5 348,-626.5 348,-596.5 480,-596.5 480,-626.5"/>
<text text-anchor="start" x="356" y="-614.5" font-family="Helvetica,sans-Serif" font-size="10.00">buildAmortizationSchedule</text>
<text text-anchor="middle" x="414" y="-603.5" font-family="Helvetica,sans-Serif" font-size="10.00">LinearToMaturity</text>
</a>
</g>
</g>
<!-- Node2&#45;&gt;Node10 -->
<g id="edge13" class="edge"><title>Node2&#45;&gt;Node10</title>
<path fill="none" stroke="#63b8ff" d="M234.932,-501.047C253.166,-520.029 296.706,-562.801 341,-587.5 344.086,-589.221 347.315,-590.844 350.623,-592.372"/>
<polygon fill="#63b8ff" stroke="#63b8ff" points="349.534,-595.713 360.105,-596.425 352.286,-589.276 349.534,-595.713"/>
</g>
<!-- Node11 -->
<g id="node11" class="node"><title>Node11</title>
<g id="a_node11"><a xlink:href="namespaceore_1_1data.html#a4263844bbd362ebdc0149606a5bfc5b2" target="_top" xlink:title=" ">
<polygon fill="white" stroke="#666666" points="480,-578.5 348,-578.5 348,-548.5 480,-548.5 480,-578.5"/>
<text text-anchor="start" x="356" y="-566.5" font-family="Helvetica,sans-Serif" font-size="10.00">buildAmortizationSchedule</text>
<text text-anchor="middle" x="414" y="-555.5" font-family="Helvetica,sans-Serif" font-size="10.00">RelativeToInitialNotional</text>
</a>
</g>
</g>
<!-- Node2&#45;&gt;Node11 -->
<g id="edge17" class="edge"><title>Node2&#45;&gt;Node11</title>
<path fill="none" stroke="#63b8ff" d="M247.43,-501.002C270.386,-511.048 307.979,-527.124 341,-539.5 346.012,-541.379 351.247,-543.265 356.507,-545.11"/>
<polygon fill="#63b8ff" stroke="#63b8ff" points="355.366,-548.419 365.961,-548.375 357.651,-541.802 355.366,-548.419"/>
</g>
<!-- Node12 -->
<g id="node12" class="node"><title>Node12</title>
<g id="a_node12"><a xlink:href="namespaceore_1_1data.html#a59edcdbd4edbdf0262bfa5d3f89829f9" target="_top" xlink:title=" ">
<polygon fill="white" stroke="#666666" points="480.5,-310.5 347.5,-310.5 347.5,-280.5 480.5,-280.5 480.5,-310.5"/>
<text text-anchor="start" x="355.5" y="-298.5" font-family="Helvetica,sans-Serif" font-size="10.00">buildAmortizationSchedule</text>
<text text-anchor="middle" x="414" y="-287.5" font-family="Helvetica,sans-Serif" font-size="10.00">RelativeToPreviousNotional</text>
</a>
</g>
</g>
<!-- Node2&#45;&gt;Node12 -->
<g id="edge21" class="edge"><title>Node2&#45;&gt;Node12</title>
<path fill="none" stroke="#63b8ff" d="M230.216,-481.738C242.88,-453.485 283.301,-370.714 341,-324.5 345.339,-321.025 350.149,-317.917 355.165,-315.148"/>
<polygon fill="#63b8ff" stroke="#63b8ff" points="357,-318.143 364.361,-310.523 353.855,-311.889 357,-318.143"/>
</g>
<!-- Node14 -->
<g id="node14" class="node"><title>Node14</title>
<g id="a_node14"><a xlink:href="classore_1_1data_1_1_amortization_data.html#a3504166537d77838012952fcee44e7f1" target="_top" xlink:title="Amortization end date.">
<polygon fill="white" stroke="#666666" points="482,-530.5 346,-530.5 346,-500.5 482,-500.5 482,-530.5"/>
<text text-anchor="start" x="354" y="-518.5" font-family="Helvetica,sans-Serif" font-size="10.00">ore::data::AmortizationData</text>
<text text-anchor="middle" x="414" y="-507.5" font-family="Helvetica,sans-Serif" font-size="10.00">::endDate</text>
</a>
</g>
</g>
<!-- Node2&#45;&gt;Node14 -->
<g id="edge26" class="edge"><title>Node2&#45;&gt;Node14</title>
<path fill="none" stroke="#63b8ff" d="M272.706,-497.494C291.757,-499.939 314.301,-502.833 335.681,-505.577"/>
<polygon fill="#63b8ff" stroke="#63b8ff" points="335.368,-509.065 345.732,-506.867 336.259,-502.122 335.368,-509.065"/>
</g>
<!-- Node15 -->
<g id="node15" class="node"><title>Node15</title>
<g id="a_node15"><a xlink:href="classore_1_1data_1_1_amortization_data.html#afe87a180d00c685893090166d7a8dd46" target="_top" xlink:title=" ">
<polygon fill="white" stroke="#666666" points="482,-482.5 346,-482.5 346,-452.5 482,-452.5 482,-482.5"/>
<text text-anchor="start" x="354" y="-470.5" font-family="Helvetica,sans-Serif" font-size="10.00">ore::data::AmortizationData</text>
<text text-anchor="middle" x="414" y="-459.5" font-family="Helvetica,sans-Serif" font-size="10.00">::initialized</text>
</a>
</g>
</g>
<!-- Node2&#45;&gt;Node15 -->
<g id="edge27" class="edge"><title>Node2&#45;&gt;Node15</title>
<path fill="none" stroke="#63b8ff" d="M272.706,-485.506C291.757,-483.061 314.301,-480.167 335.681,-477.423"/>
<polygon fill="#63b8ff" stroke="#63b8ff" points="336.259,-480.878 345.732,-476.133 335.368,-473.935 336.259,-480.878"/>
</g>
<!-- Node16 -->
<g id="node16" class="node"><title>Node16</title>
<g id="a_node16"><a xlink:href="namespaceore_1_1data.html#abcf3f5cbf5b994ef81834c6dbbe9996d" target="_top" xlink:title=" ">
<polygon fill="white" stroke="#666666" points="472,-434 356,-434 356,-415 472,-415 472,-434"/>
<text text-anchor="middle" x="414" y="-422" font-family="Helvetica,sans-Serif" font-size="10.00">parseAmortizationType</text>
</a>
</g>
</g>
<!-- Node2&#45;&gt;Node16 -->
<g id="edge28" class="edge"><title>Node2&#45;&gt;Node16</title>
<path fill="none" stroke="#63b8ff" d="M246.447,-481.959C269.191,-471.585 307.191,-454.956 341,-443.5 348.066,-441.106 355.605,-438.825 363.046,-436.729"/>
<polygon fill="#63b8ff" stroke="#63b8ff" points="363.997,-440.097 372.721,-434.086 362.152,-433.345 363.997,-440.097"/>
</g>
<!-- Node2&#45;&gt;Node17 -->
<g id="edge30" class="edge"><title>Node2&#45;&gt;Node17</title>
<path fill="none" stroke="#63b8ff" d="M228.104,-481.8C236.098,-447.349 267.903,-329.837 341,-271.5 346.04,-267.478 351.848,-264.302 357.935,-261.795"/>
<polygon fill="#63b8ff" stroke="#63b8ff" points="359.383,-264.996 367.659,-258.381 357.064,-258.391 359.383,-264.996"/>
</g>
<!-- Node18 -->
<g id="node18" class="node"><title>Node18</title>
<g id="a_node18"><a xlink:href="classore_1_1data_1_1_amortization_data.html#a3c1b5eca22a456480c69c81ac5c84c70" target="_top" xlink:title="Amortization start date.">
<polygon fill="white" stroke="#666666" points="482,-770.5 346,-770.5 346,-740.5 482,-740.5 482,-770.5"/>
<text text-anchor="start" x="354" y="-758.5" font-family="Helvetica,sans-Serif" font-size="10.00">ore::data::AmortizationData</text>
<text text-anchor="middle" x="414" y="-747.5" font-family="Helvetica,sans-Serif" font-size="10.00">::startDate</text>
</a>
</g>
</g>
<!-- Node2&#45;&gt;Node18 -->
<g id="edge32" class="edge"><title>Node2&#45;&gt;Node18</title>
<path fill="none" stroke="#63b8ff" d="M231.797,-501.266C245.493,-524.545 280.537,-585.333 305,-638.5 323.526,-678.764 308.923,-700.914 341,-731.5 342.132,-732.58 343.315,-733.611 344.54,-734.596"/>
<polygon fill="#63b8ff" stroke="#63b8ff" points="342.93,-737.733 353.172,-740.446 346.857,-731.938 342.93,-737.733"/>
</g>
<!-- Node19 -->
<g id="node19" class="node"><title>Node19</title>
<g id="a_node19"><a xlink:href="classore_1_1data_1_1_amortization_data.html#a8c38b99dde33571036565897e2534a53" target="_top" xlink:title="FixedAmount, RelativeToInitialNotional, RelativeToPreviousNotional, Annuity.">
<polygon fill="white" stroke="#666666" points="482,-722.5 346,-722.5 346,-692.5 482,-692.5 482,-722.5"/>
<text text-anchor="start" x="354" y="-710.5" font-family="Helvetica,sans-Serif" font-size="10.00">ore::data::AmortizationData</text>
<text text-anchor="middle" x="414" y="-699.5" font-family="Helvetica,sans-Serif" font-size="10.00">::type</text>
</a>
</g>
</g>
<!-- Node2&#45;&gt;Node19 -->
<g id="edge33" class="edge"><title>Node2&#45;&gt;Node19</title>
<path fill="none" stroke="#63b8ff" d="M230.666,-501.183C247.802,-536.398 307.974,-656.986 341,-683.5 342.753,-684.907 344.592,-686.234 346.499,-687.484"/>
<polygon fill="#63b8ff" stroke="#63b8ff" points="344.809,-690.55 355.225,-692.489 348.292,-684.477 344.809,-690.55"/>
</g>
<!-- Node4 -->
<g id="node4" class="node"><title>Node4</title>
<g id="a_node4"><a xlink:href="namespaceore_1_1data.html#a05260d9174de60219e7cd128e76819f0" target="_top" xlink:title=" ">
<polygon fill="white" stroke="#666666" points="640,-597 530,-597 530,-578 640,-578 640,-597"/>
<text text-anchor="middle" x="585" y="-585" font-family="Helvetica,sans-Serif" font-size="10.00">normaliseToSchedule</text>
</a>
</g>
</g>
<!-- Node3&#45;&gt;Node4 -->
<g id="edge3" class="edge"><title>Node3&#45;&gt;Node4</title>
<path fill="none" stroke="#63b8ff" d="M471.878,-396.576C477.309,-399.355 482.471,-402.634 487,-406.5 539.1,-450.967 567.633,-530.635 578.628,-567.623"/>
<polygon fill="#63b8ff" stroke="#63b8ff" points="575.377,-568.988 581.483,-577.646 582.109,-567.069 575.377,-568.988"/>
</g>
<!-- Node3&#45;&gt;Node5 -->
<g id="edge4" class="edge"><title>Node3&#45;&gt;Node5</title>
<path fill="none" stroke="#63b8ff" d="M480.34,-389.619C501.813,-392.287 525.03,-395.172 544.037,-397.534"/>
<polygon fill="#63b8ff" stroke="#63b8ff" points="543.77,-401.028 554.125,-398.788 544.633,-394.081 543.77,-401.028"/>
</g>
<!-- Node8 -->
<g id="node8" class="node"><title>Node8</title>
<g id="a_node8"><a xlink:href="group__utilities.html#ga8e0623e2cb01e250e9cfec4619256208" target="_top" xlink:title="Convert text to QuantLib::Period.">
<polygon fill="white" stroke="#666666" points="619,-369 551,-369 551,-350 619,-350 619,-369"/>
<text text-anchor="middle" x="585" y="-357" font-family="Helvetica,sans-Serif" font-size="10.00">parsePeriod</text>
</a>
</g>
</g>
<!-- Node3&#45;&gt;Node8 -->
<g id="edge9" class="edge"><title>Node3&#45;&gt;Node8</title>
<path fill="none" stroke="#63b8ff" d="M480.34,-372.994C500.622,-370.354 522.459,-367.511 540.835,-365.119"/>
<polygon fill="#63b8ff" stroke="#63b8ff" points="541.471,-368.566 550.935,-363.804 540.567,-361.625 541.471,-368.566"/>
</g>
<!-- Node5&#45;&gt;Node5 -->
<g id="edge5" class="edge"><title>Node5&#45;&gt;Node5</title>
<path fill="none" stroke="#63b8ff" d="M564.655,-412.083C554.757,-420.734 561.539,-430 585,-430 600.03,-430 608.214,-426.197 609.553,-421.189"/>
<polygon fill="#63b8ff" stroke="#63b8ff" points="612.717,-419.692 605.345,-412.083 606.363,-422.629 612.717,-419.692"/>
</g>
<!-- Node6 -->
<g id="node6" class="node"><title>Node6</title>
<g id="a_node6"><a xlink:href="group__utilities.html#gaecd67eda4fb5f4859bb8f6d383547721" target="_top" xlink:title="Convert text to QuantLib::Integer.">
<polygon fill="white" stroke="#666666" points="753,-331 683,-331 683,-312 753,-312 753,-331"/>
<text text-anchor="middle" x="718" y="-319" font-family="Helvetica,sans-Serif" font-size="10.00">parseInteger</text>
</a>
</g>
</g>
<!-- Node5&#45;&gt;Node6 -->
<g id="edge6" class="edge"><title>Node5&#45;&gt;Node6</title>
<path fill="none" stroke="#63b8ff" d="M615.714,-392.909C625.948,-389.065 637.274,-384.187 647,-378.5 666.495,-367.101 686.221,-350.476 699.742,-338.119"/>
<polygon fill="#63b8ff" stroke="#63b8ff" points="702.38,-340.444 707.301,-331.061 697.603,-335.327 702.38,-340.444"/>
</g>
<!-- Node5&#45;&gt;Node7 -->
<g id="edge8" class="edge"><title>Node5&#45;&gt;Node7</title>
<path fill="none" stroke="#63b8ff" d="M601.542,-412.11C624.095,-426.055 666.103,-452.029 692.75,-468.506"/>
<polygon fill="#63b8ff" stroke="#63b8ff" points="691.132,-471.62 701.478,-473.903 694.814,-465.667 691.132,-471.62"/>
</g>
<!-- Node6&#45;&gt;Node6 -->
<g id="edge7" class="edge"><title>Node6&#45;&gt;Node6</title>
<path fill="none" stroke="#63b8ff" d="M697.655,-331.083C687.757,-339.734 694.539,-349 718,-349 733.03,-349 741.214,-345.197 742.553,-340.189"/>
<polygon fill="#63b8ff" stroke="#63b8ff" points="745.717,-338.692 738.345,-331.083 739.363,-341.629 745.717,-338.692"/>
</g>
<!-- Node9&#45;&gt;Node4 -->
<g id="edge11" class="edge"><title>Node9&#45;&gt;Node4</title>
<path fill="none" stroke="#63b8ff" d="M463.362,-644.4C471.328,-641.622 479.446,-638.611 487,-635.5 511.375,-625.462 538.167,-612.01 557.405,-601.901"/>
<polygon fill="#63b8ff" stroke="#63b8ff" points="559.268,-604.875 566.461,-597.096 555.987,-598.691 559.268,-604.875"/>
</g>
<!-- Node9&#45;&gt;Node5 -->
<g id="edge12" class="edge"><title>Node9&#45;&gt;Node5</title>
<path fill="none" stroke="#63b8ff" d="M474.735,-644.346C479.169,-641.835 483.333,-638.909 487,-635.5 503.774,-619.904 557.858,-474.345 577.114,-421.529"/>
<polygon fill="#63b8ff" stroke="#63b8ff" points="580.448,-422.6 580.574,-412.006 573.869,-420.21 580.448,-422.6"/>
</g>
<!-- Node10&#45;&gt;Node4 -->
<g id="edge14" class="edge"><title>Node10&#45;&gt;Node4</title>
<path fill="none" stroke="#63b8ff" d="M480.34,-602.221C493.239,-600.389 506.767,-598.468 519.634,-596.641"/>
<polygon fill="#63b8ff" stroke="#63b8ff" points="520.378,-600.07 529.786,-595.199 519.394,-593.14 520.378,-600.07"/>
</g>
<!-- Node10&#45;&gt;Node5 -->
<g id="edge15" class="edge"><title>Node10&#45;&gt;Node5</title>
<path fill="none" stroke="#63b8ff" d="M473.702,-596.368C478.467,-593.848 482.985,-590.915 487,-587.5 540.553,-541.95 568.624,-459.296 579.095,-421.856"/>
<polygon fill="#63b8ff" stroke="#63b8ff" points="582.483,-422.734 581.689,-412.169 575.722,-420.923 582.483,-422.734"/>
</g>
<!-- Node10&#45;&gt;Node8 -->
<g id="edge16" class="edge"><title>Node10&#45;&gt;Node8</title>
<path fill="none" stroke="#63b8ff" d="M476.922,-596.307C480.652,-593.804 484.072,-590.891 487,-587.5 546.886,-518.148 465.478,-455.825 523,-384.5 527.791,-378.559 534.226,-374.017 541.122,-370.547"/>
<polygon fill="#63b8ff" stroke="#63b8ff" points="542.883,-373.601 550.702,-366.451 540.131,-367.165 542.883,-373.601"/>
</g>
<!-- Node11&#45;&gt;Node4 -->
<g id="edge18" class="edge"><title>Node11&#45;&gt;Node4</title>
<path fill="none" stroke="#63b8ff" d="M480.34,-572.779C493.239,-574.611 506.767,-576.532 519.634,-578.359"/>
<polygon fill="#63b8ff" stroke="#63b8ff" points="519.394,-581.86 529.786,-579.801 520.378,-574.93 519.394,-581.86"/>
</g>
<!-- Node11&#45;&gt;Node5 -->
<g id="edge19" class="edge"><title>Node11&#45;&gt;Node5</title>
<path fill="none" stroke="#63b8ff" d="M471.771,-548.489C477.161,-545.93 482.344,-542.954 487,-539.5 530.131,-507.506 561.429,-450.587 575.581,-421.203"/>
<polygon fill="#63b8ff" stroke="#63b8ff" points="578.798,-422.585 579.863,-412.044 572.457,-419.62 578.798,-422.585"/>
</g>
<!-- Node11&#45;&gt;Node8 -->
<g id="edge20" class="edge"><title>Node11&#45;&gt;Node8</title>
<path fill="none" stroke="#63b8ff" d="M476.389,-548.347C480.293,-545.836 483.895,-542.91 487,-539.5 534.616,-487.208 477.168,-438.362 523,-384.5 527.946,-378.687 534.455,-374.206 541.376,-370.758"/>
<polygon fill="#63b8ff" stroke="#63b8ff" points="543.139,-373.811 550.963,-366.667 540.391,-367.373 543.139,-373.811"/>
</g>
<!-- Node12&#45;&gt;Node4 -->
<g id="edge23" class="edge"><title>Node12&#45;&gt;Node4</title>
<path fill="none" stroke="#63b8ff" d="M437.577,-310.655C453.145,-322.04 473.404,-338.832 487,-357.5 490.349,-362.098 553.476,-513.922 576.054,-568.336"/>
<polygon fill="#63b8ff" stroke="#63b8ff" points="572.935,-569.951 579.999,-577.847 579.401,-567.269 572.935,-569.951"/>
</g>
<!-- Node12&#45;&gt;Node5 -->
<g id="edge24" class="edge"><title>Node12&#45;&gt;Node5</title>
<path fill="none" stroke="#63b8ff" d="M464.084,-310.61C472.218,-314.383 480.205,-318.973 487,-324.5 509.377,-342.701 500.55,-360.389 523,-378.5 529.486,-383.732 537.253,-387.935 545.036,-391.269"/>
<polygon fill="#63b8ff" stroke="#63b8ff" points="543.865,-394.569 554.454,-394.916 546.393,-388.041 543.865,-394.569"/>
</g>
<!-- Node12&#45;&gt;Node8 -->
<g id="edge25" class="edge"><title>Node12&#45;&gt;Node8</title>
<path fill="none" stroke="#63b8ff" d="M454.623,-310.505C483.297,-321.364 521.683,-335.901 549.182,-346.315"/>
<polygon fill="#63b8ff" stroke="#63b8ff" points="548.192,-349.682 558.783,-349.95 550.671,-343.136 548.192,-349.682"/>
</g>
<!-- Node13 -->
<g id="node13" class="node"><title>Node13</title>
<g id="a_node13"><a target="_parent" xlink:href="../qle/namespace_quant_ext.html#a1cab4fb6a720eff245acb9f3a7a9e7c5" xlink:title=" ">
<polygon fill="white" stroke="#666666" points="647,-305 523,-305 523,-286 647,-286 647,-305"/>
<text text-anchor="middle" x="585" y="-293" font-family="Helvetica,sans-Serif" font-size="10.00">QuantExt::close_enough</text>
</a>
</g>
</g>
<!-- Node12&#45;&gt;Node13 -->
<g id="edge22" class="edge"><title>Node12&#45;&gt;Node13</title>
<path fill="none" stroke="#63b8ff" d="M480.824,-295.5C491.289,-295.5 502.156,-295.5 512.739,-295.5"/>
<polygon fill="#63b8ff" stroke="#63b8ff" points="512.776,-299 522.776,-295.5 512.776,-292 512.776,-299"/>
</g>
<!-- Node20&#45;&gt;Node5 -->
<g id="edge35" class="edge"><title>Node20&#45;&gt;Node5</title>
<path fill="none" stroke="#63b8ff" d="M433.567,-826.994C450.349,-817.377 474.31,-800.89 487,-779.5 535.317,-698.06 498.656,-661.012 523,-569.5 537.622,-514.533 562.8,-452.169 575.761,-421.538"/>
<polygon fill="#63b8ff" stroke="#63b8ff" points="579.087,-422.662 579.799,-412.091 572.65,-419.911 579.087,-422.662"/>
</g>
<!-- Node21&#45;&gt;Node4 -->
<g id="edge38" class="edge"><title>Node21&#45;&gt;Node4</title>
<path fill="none" stroke="#63b8ff" d="M246.613,-846.016C293.979,-866.322 412.243,-907.946 487,-855.5 570.604,-796.848 582.451,-658.574 583.903,-607.184"/>
<polygon fill="#63b8ff" stroke="#63b8ff" points="587.404,-607.148 584.08,-597.088 580.405,-607.025 587.404,-607.148"/>
</g>
<!-- Node21&#45;&gt;Node20 -->
<g id="edge37" class="edge"><title>Node21&#45;&gt;Node20</title>
<path fill="none" stroke="#63b8ff" d="M305.034,-836.5C319.332,-836.5 334.092,-836.5 347.934,-836.5"/>
<polygon fill="#63b8ff" stroke="#63b8ff" points="348.317,-840 358.317,-836.5 348.317,-833 348.317,-840"/>
</g>
<!-- Node22&#45;&gt;Node5 -->
<g id="edge44" class="edge"><title>Node22&#45;&gt;Node5</title>
<path fill="none" stroke="#63b8ff" d="M257.61,-176.038C280.646,-182.874 312.653,-192.137 341,-199.5 405.485,-216.249 439.547,-186.733 487,-233.5 534.293,-280.11 479.233,-328.564 523,-378.5 528.769,-385.082 536.577,-389.875 544.678,-393.361"/>
<polygon fill="#63b8ff" stroke="#63b8ff" points="543.625,-396.703 554.218,-396.88 546.048,-390.135 543.625,-396.703"/>
</g>
<!-- Node22&#45;&gt;Node8 -->
<g id="edge45" class="edge"><title>Node22&#45;&gt;Node8</title>
<path fill="none" stroke="#63b8ff" d="M265.515,-166.609C330.059,-167.592 454.211,-173.108 487,-200.5 527.451,-234.293 492.522,-270.496 523,-313.5 531.862,-326.004 545.151,-336.592 557.066,-344.446"/>
<polygon fill="#63b8ff" stroke="#63b8ff" points="555.476,-347.58 565.813,-349.905 559.183,-341.641 555.476,-347.58"/>
</g>
<!-- Node23 -->
<g id="node23" class="node"><title>Node23</title>
<g id="a_node23"><a xlink:href="group__utilities.html#ga94621f11193864fa1338296232dc5be9" target="_top" xlink:title="Convert text to bool.">
<polygon fill="white" stroke="#666666" points="444,-130 384,-130 384,-111 444,-111 444,-130"/>
<text text-anchor="middle" x="414" y="-118" font-family="Helvetica,sans-Serif" font-size="10.00">parseBool</text>
</a>
</g>
</g>
<!-- Node22&#45;&gt;Node23 -->
<g id="edge40" class="edge"><title>Node22&#45;&gt;Node23</title>
<path fill="none" stroke="#63b8ff" d="M264.747,-156.969C296.699,-149.109 341.823,-138.009 373.878,-130.124"/>
<polygon fill="#63b8ff" stroke="#63b8ff" points="374.918,-133.472 383.792,-127.685 373.246,-126.675 374.918,-133.472"/>
</g>
<!-- Node22&#45;&gt;Node24 -->
<g id="edge42" class="edge"><title>Node22&#45;&gt;Node24</title>
<path fill="none" stroke="#63b8ff" d="M241.793,-156.869C268.343,-140.8 320.978,-109.49 341,-101.5 346.161,-99.4404 351.626,-97.564 357.147,-95.8674"/>
<polygon fill="#63b8ff" stroke="#63b8ff" points="358.447,-99.1352 367.09,-93.007 356.512,-92.408 358.447,-99.1352"/>
</g>
<!-- Node22&#45;&gt;Node25 -->
<g id="edge43" class="edge"><title>Node22&#45;&gt;Node25</title>
<path fill="none" stroke="#63b8ff" d="M233.837,-156.961C251.027,-136.685 294.26,-89.1472 341,-64.5 348.292,-60.6545 356.437,-57.6069 364.553,-55.1984"/>
<polygon fill="#63b8ff" stroke="#63b8ff" points="365.624,-58.5349 374.379,-52.567 363.814,-51.7732 365.624,-58.5349"/>
</g>
<!-- Node23&#45;&gt;Node23 -->
<g id="edge41" class="edge"><title>Node23&#45;&gt;Node23</title>
<path fill="none" stroke="#63b8ff" d="M387.798,-130.083C375.051,-138.734 383.785,-148 414,-148 434.301,-148 444.904,-143.817 445.811,-138.448"/>
<polygon fill="#63b8ff" stroke="#63b8ff" points="448.678,-136.439 440.202,-130.083 442.864,-140.338 448.678,-136.439"/>
</g>
<!-- Node26&#45;&gt;Node6 -->
<g id="edge50" class="edge"><title>Node26&#45;&gt;Node6</title>
<path fill="none" stroke="#63b8ff" d="M461.815,-16.4191C470.625,-19.0161 479.436,-22.5878 487,-27.5 600.371,-101.124 681.692,-249.963 707.923,-302.563"/>
<polygon fill="#63b8ff" stroke="#63b8ff" points="704.882,-304.311 712.428,-311.748 711.167,-301.229 704.882,-304.311"/>
</g>
<!-- Node26&#45;&gt;Node8 -->
<g id="edge51" class="edge"><title>Node26&#45;&gt;Node8</title>
<path fill="none" stroke="#63b8ff" d="M461.722,-12.7073C471.28,-15.4915 480.417,-20.0774 487,-27.5 572.007,-123.349 458.793,-202.636 523,-313.5 530.522,-326.488 543.312,-336.982 555.244,-344.648"/>
<polygon fill="#63b8ff" stroke="#63b8ff" points="553.723,-347.817 564.1,-349.955 557.321,-341.812 553.723,-347.817"/>
</g>
</g>
</svg>
        <g id="navigator" transform="translate(0 0)" fill="#404254">
                <rect fill="#f2f5e9" fill-opacity="0.5" stroke="#606060" stroke-width=".5" x="0" y="0" width="60" height="60"/>
                <use id="zoomplus" xlink:href="#zoomPlus" x="17" y="9" onmousedown="handleZoom(evt,'in')"/>
                <use id="zoomminus" xlink:href="#zoomMin" x="42" y="9" onmousedown="handleZoom(evt,'out')"/>
                <use id="reset" xlink:href="#resetDef" x="30" y="36" onmousedown="handleReset()"/>
                <g id="arrowUp" xlink:href="#dirArrow" transform="translate(30 24)" onmousedown="handlePan(0,-1)">
                  <use xlink:href="#rim" fill="#404040">
                        <set attributeName="fill" to="#808080" begin="arrowUp.mouseover" end="arrowUp.mouseout"/>
                  </use>
                  <path fill="none" stroke="white" stroke-width="1.5" d="M0,-3.0v7 M-2.5,-0.5L0,-3.0L2.5,-0.5"/>
                </g>
                <g id="arrowRight" xlink:href="#dirArrow" transform="rotate(90) translate(36 -43)" onmousedown="handlePan(1,0)">
                  <use xlink:href="#rim" fill="#404040">
                        <set attributeName="fill" to="#808080" begin="arrowRight.mouseover" end="arrowRight.mouseout"/>
                  </use>
                  <path fill="none" stroke="white" stroke-width="1.5" d="M0,-3.0v7 M-2.5,-0.5L0,-3.0L2.5,-0.5"/>
                </g>
                <g id="arrowDown" xlink:href="#dirArrow" transform="rotate(180) translate(-30 -48)" onmousedown="handlePan(0,1)">
                  <use xlink:href="#rim" fill="#404040">
                        <set attributeName="fill" to="#808080" begin="arrowDown.mouseover" end="arrowDown.mouseout"/>
                  </use>
                  <path fill="none" stroke="white" stroke-width="1.5" d="M0,-3.0v7 M-2.5,-0.5L0,-3.0L2.5,-0.5"/>
                </g>
                <g id="arrowLeft" xlink:href="#dirArrow" transform="rotate(270) translate(-36 17)" onmousedown="handlePan(-1,0)">
                  <use xlink:href="#rim" fill="#404040">
                        <set attributeName="fill" to="#808080" begin="arrowLeft.mouseover" end="arrowLeft.mouseout"/>
                  </use>
                  <path fill="none" stroke="white" stroke-width="1.5" d="M0,-3.0v7 M-2.5,-0.5L0,-3.0L2.5,-0.5"/>
                </g>
        </g>
        <svg viewBox="0 0 15 15" width="100%" height="30px" preserveAspectRatio="xMaxYMin meet">
         <g id="arrow_out" transform="scale(0.3 0.3)">
          <a xlink:href="namespaceore_1_1data_a96fb708eddac226d8c8a07b7fab26357_cgraph_org.svg" target="_base">
           <rect id="button" ry="5" rx="5" y="6" x="6" height="38" width="38"
                fill="#f2f5e9" fill-opacity="0.5" stroke="#606060" stroke-width="1.0"/>
           <path id="arrow"
             d="M 11.500037,31.436501 C 11.940474,20.09759 22.043105,11.32322 32.158766,21.979434 L 37.068811,17.246167 C 37.068811,17.246167 37.088388,32 37.088388,32 L 22.160133,31.978069 C 22.160133,31.978069 26.997745,27.140456 26.997745,27.140456 C 18.528582,18.264221 13.291696,25.230495 11.500037,31.436501 z"
             style="fill:#404040;"/>
          </a>
         </g>
        </svg>
</svg>
