<?xml version="1.0" encoding="UTF-8" standalone="no"?>
<!DOCTYPE svg PUBLIC "-//W3C//DTD SVG 1.1//EN"
 "http://www.w3.org/Graphics/SVG/1.1/DTD/svg11.dtd">
<!-- Generated by graphviz version 2.38.0 (20140413.2041)
 -->
<!-- Title: getCorrelationTokens Pages: 1 -->
<svg width="748pt" height="81pt"
 viewBox="0.00 0.00 748.00 81.00" xmlns="http://www.w3.org/2000/svg" xmlns:xlink="http://www.w3.org/1999/xlink">
<g id="graph0" class="graph" transform="scale(1 1) rotate(0) translate(4 77)">
<title>getCorrelationTokens</title>
<!-- Node1 -->
<g id="node1" class="node"><title>Node1</title>
<g id="a_node1"><a xlink:title="Helper function to get the two tokens in a correlation name Index2:Index1.">
<polygon fill="#999999" stroke="#666666" points="740,-45.5 632,-45.5 632,-26.5 740,-26.5 740,-45.5"/>
<text text-anchor="middle" x="686" y="-33.5" font-family="Helvetica,sans-Serif" font-size="10.00">getCorrelationTokens</text>
</a>
</g>
</g>
<!-- Node2 -->
<g id="node2" class="node"><title>Node2</title>
<g id="a_node2"><a xlink:href="classore_1_1data_1_1_todays_market.html#ae947670c7306fd552e37a0f140984721" target="_top" xlink:title=" ">
<polygon fill="white" stroke="#666666" points="596,-73 474,-73 474,-43 596,-43 596,-73"/>
<text text-anchor="start" x="482" y="-61" font-family="Helvetica,sans-Serif" font-size="10.00">ore::data::TodaysMarket</text>
<text text-anchor="middle" x="535" y="-50" font-family="Helvetica,sans-Serif" font-size="10.00">::buildNode</text>
</a>
</g>
</g>
<!-- Node1&#45;&gt;Node2 -->
<g id="edge1" class="edge"><title>Node1&#45;&gt;Node2</title>
<path fill="none" stroke="#63b8ff" d="M621.481,-45.3787C613.059,-46.6221 604.447,-47.8938 596.086,-49.1283"/>
<polygon fill="#63b8ff" stroke="#63b8ff" points="622.247,-48.8036 631.628,-43.8804 621.224,-41.8787 622.247,-48.8036"/>
</g>
<!-- Node5 -->
<g id="node5" class="node"><title>Node5</title>
<g id="a_node5"><a xlink:href="classore_1_1data_1_1_todays_market.html#a36416143258c4e4c30bb46935cef9408" target="_top" xlink:title=" ">
<polygon fill="white" stroke="#666666" points="438,-30 316,-30 316,-0 438,-0 438,-30"/>
<text text-anchor="start" x="324" y="-18" font-family="Helvetica,sans-Serif" font-size="10.00">ore::data::TodaysMarket</text>
<text text-anchor="middle" x="377" y="-7" font-family="Helvetica,sans-Serif" font-size="10.00">::require</text>
</a>
</g>
</g>
<!-- Node1&#45;&gt;Node5 -->
<g id="edge7" class="edge"><title>Node1&#45;&gt;Node5</title>
<path fill="none" stroke="#63b8ff" d="M621.76,-31.6741C567.895,-27.9896 491.033,-22.7319 438.091,-19.1105"/>
<polygon fill="#63b8ff" stroke="#63b8ff" points="621.66,-35.1754 631.875,-32.3661 622.137,-28.1917 621.66,-35.1754"/>
</g>
<!-- Node3 -->
<g id="node3" class="node"><title>Node3</title>
<g id="a_node3"><a xlink:href="classore_1_1data_1_1_todays_market.html#a0816e5ec53019bee5353fea5fc006eb1" target="_top" xlink:title=" ">
<polygon fill="white" stroke="#666666" points="280,-60 158,-60 158,-30 280,-30 280,-60"/>
<text text-anchor="start" x="166" y="-48" font-family="Helvetica,sans-Serif" font-size="10.00">ore::data::TodaysMarket</text>
<text text-anchor="middle" x="219" y="-37" font-family="Helvetica,sans-Serif" font-size="10.00">::initialise</text>
</a>
</g>
</g>
<!-- Node2&#45;&gt;Node3 -->
<g id="edge2" class="edge"><title>Node2&#45;&gt;Node3</title>
<path fill="none" stroke="#63b8ff" d="M463.764,-59.8084C421.006,-60.3799 365.302,-60.183 316,-57 304.351,-56.2479 291.951,-55.0198 280.067,-53.6294"/>
<polygon fill="#63b8ff" stroke="#63b8ff" points="463.842,-63.3078 473.788,-59.6573 463.736,-56.3086 463.842,-63.3078"/>
</g>
<!-- Node2&#45;&gt;Node5 -->
<g id="edge4" class="edge"><title>Node2&#45;&gt;Node5</title>
<path fill="none" stroke="#63b8ff" d="M469.67,-40.2679C457.332,-36.8671 444.523,-33.3365 432.53,-30.0308"/>
<polygon fill="#63b8ff" stroke="#63b8ff" points="468.868,-43.6775 479.439,-42.9607 470.728,-36.9291 468.868,-43.6775"/>
</g>
<!-- Node4 -->
<g id="node4" class="node"><title>Node4</title>
<g id="a_node4"><a xlink:href="classore_1_1data_1_1_todays_market.html#ad79acb672b27bd7258f228494d94cb32" target="_top" xlink:title="Constructor taking pointers and allowing for a lazy build of the market objects.">
<polygon fill="white" stroke="#666666" points="122,-60 7.10543e-015,-60 7.10543e-015,-30 122,-30 122,-60"/>
<text text-anchor="start" x="8" y="-48" font-family="Helvetica,sans-Serif" font-size="10.00">ore::data::TodaysMarket</text>
<text text-anchor="middle" x="61" y="-37" font-family="Helvetica,sans-Serif" font-size="10.00">::TodaysMarket</text>
</a>
</g>
</g>
<!-- Node3&#45;&gt;Node4 -->
<g id="edge3" class="edge"><title>Node3&#45;&gt;Node4</title>
<path fill="none" stroke="#63b8ff" d="M147.462,-45C139.01,-45 130.44,-45 122.153,-45"/>
<polygon fill="#63b8ff" stroke="#63b8ff" points="147.686,-48.5001 157.686,-45 147.686,-41.5001 147.686,-48.5001"/>
</g>
<!-- Node5&#45;&gt;Node3 -->
<g id="edge5" class="edge"><title>Node5&#45;&gt;Node3</title>
<path fill="none" stroke="#63b8ff" d="M305.741,-28.5114C297.198,-30.1542 288.531,-31.821 280.153,-33.4321"/>
<polygon fill="#63b8ff" stroke="#63b8ff" points="306.527,-31.9244 315.686,-26.5988 305.205,-25.0503 306.527,-31.9244"/>
</g>
<!-- Node5&#45;&gt;Node5 -->
<g id="edge6" class="edge"><title>Node5&#45;&gt;Node5</title>
<path fill="none" stroke="#63b8ff" d="M404.656,-40.5975C400.877,-44.9704 391.658,-48 377,-48 352.313,-48 343.055,-39.4063 349.227,-30.2754"/>
<polygon fill="#63b8ff" stroke="#63b8ff" points="408.159,-40.3146 404.773,-30.2754 401.16,-40.2349 408.159,-40.3146"/>
</g>
</g>
</svg>
