<?xml version="1.0" encoding="UTF-8" standalone="no"?>
<!DOCTYPE svg PUBLIC "-//W3C//DTD SVG 1.1//EN"
 "http://www.w3.org/Graphics/SVG/1.1/DTD/svg11.dtd">
<!-- Generated by graphviz version 2.38.0 (20140413.2041)
 -->
<!-- Title: makeNotionalLeg Pages: 1 -->
<!--zoomable 172 -->
<svg id="main" version="1.1" xmlns="http://www.w3.org/2000/svg" xmlns:xlink="http://www.w3.org/1999/xlink" xml:space="preserve" onload="init(evt)">
<style type="text/css"><![CDATA[
.edge:hover path { stroke: red; }
.edge:hover polygon { stroke: red; fill: red; }
]]></style>
<script type="text/javascript"><![CDATA[
var edges = document.getElementsByTagName('g');
if (edges && edges.length) {
  for (var i=0;i<edges.length;i++) {
    if (edges[i].id.substr(0,4)=='edge') {
      edges[i].setAttribute('class','edge');
    }
  }
}
]]></script>
        <defs>
                <circle id="rim" cx="0" cy="0" r="7"/>
                <circle id="rim2" cx="0" cy="0" r="3.5"/>
                <g id="zoomPlus">
                        <use xlink:href="#rim" fill="#404040">
                                <set attributeName="fill" to="#808080" begin="zoomplus.mouseover" end="zoomplus.mouseout"/>
                        </use>
                        <path d="M-4,0h8M0,-4v8" fill="none" stroke="white" stroke-width="1.5" pointer-events="none"/>
                </g>
                <g id="zoomMin">
                        <use xlink:href="#rim" fill="#404040">
                                <set attributeName="fill" to="#808080" begin="zoomminus.mouseover" end="zoomminus.mouseout"/>
                        </use>
                        <path d="M-4,0h8" fill="none" stroke="white" stroke-width="1.5" pointer-events="none"/>
                </g>
                <g id="dirArrow">
                        <path fill="none" stroke="white" stroke-width="1.5" d="M0,-3.0v7 M-2.5,-0.5L0,-3.0L2.5,-0.5"/>
                </g>
               <g id="resetDef">
                       <use xlink:href="#rim2" fill="#404040">
                               <set attributeName="fill" to="#808080" begin="reset.mouseover" end="reset.mouseout"/>
                       </use>
               </g>
        </defs>

<script type="text/javascript">
var viewWidth = 633;
var viewHeight = 172;
var sectionId = 'dynsection-111';
</script>
<script xlink:href="svgpan.js"/>
<svg id="graph" class="graph">
<g id="viewport">
<title>makeNotionalLeg</title>
<!-- Node1 -->
<g id="node1" class="node"><title>Node1</title>
<g id="a_node1"><a xlink:title=" ">
<polygon fill="#999999" stroke="#666666" points="625,-95.5 533,-95.5 533,-76.5 625,-76.5 625,-95.5"/>
<text text-anchor="middle" x="579" y="-83.5" font-family="Helvetica,sans-Serif" font-size="10.00">makeNotionalLeg</text>
</a>
</g>
</g>
<!-- Node2 -->
<g id="node2" class="node"><title>Node2</title>
<g id="a_node2"><a xlink:href="classore_1_1data_1_1_bond_t_r_s.html#af7b69d5b18d278257927e32b10a23ee6" target="_top" xlink:title=" ">
<polygon fill="white" stroke="#666666" points="497,-123 395,-123 395,-93 497,-93 497,-123"/>
<text text-anchor="start" x="403" y="-111" font-family="Helvetica,sans-Serif" font-size="10.00">ore::data::BondTRS</text>
<text text-anchor="middle" x="446" y="-100" font-family="Helvetica,sans-Serif" font-size="10.00">::build</text>
</a>
</g>
</g>
<!-- Node1&#45;&gt;Node2 -->
<g id="edge1" class="edge"><title>Node1&#45;&gt;Node2</title>
<path fill="none" stroke="#63b8ff" d="M522.989,-95.2385C514.404,-96.6803 505.572,-98.1635 497.104,-99.5856"/>
<polygon fill="#63b8ff" stroke="#63b8ff" points="523.635,-98.6791 532.917,-93.5712 522.476,-91.7758 523.635,-98.6791"/>
</g>
<!-- Node3 -->
<g id="node3" class="node"><title>Node3</title>
<g id="a_node3"><a xlink:href="namespaceore_1_1data.html#a792a0b239a9628b7317a886e02c7a005" target="_top" xlink:title=" ">
<polygon fill="white" stroke="#666666" points="490,-74.5 402,-74.5 402,-55.5 490,-55.5 490,-74.5"/>
<text text-anchor="middle" x="446" y="-62.5" font-family="Helvetica,sans-Serif" font-size="10.00">buildNotionalLeg</text>
</a>
</g>
</g>
<!-- Node1&#45;&gt;Node3 -->
<g id="edge2" class="edge"><title>Node1&#45;&gt;Node3</title>
<path fill="none" stroke="#63b8ff" d="M522.72,-77.1383C511.921,-75.4072 500.742,-73.6151 490.397,-71.9567"/>
<polygon fill="#63b8ff" stroke="#63b8ff" points="522.489,-80.6459 532.917,-78.773 523.597,-73.7342 522.489,-80.6459"/>
</g>
<!-- Node4 -->
<g id="node4" class="node"><title>Node4</title>
<g id="a_node4"><a xlink:href="classore_1_1data_1_1_swap.html#af7b69d5b18d278257927e32b10a23ee6" target="_top" xlink:title="Build QuantLib/QuantExt instrument, link pricing engine.">
<polygon fill="white" stroke="#666666" points="324.5,-96.5 213.5,-96.5 213.5,-77.5 324.5,-77.5 324.5,-96.5"/>
<text text-anchor="middle" x="269" y="-84.5" font-family="Helvetica,sans-Serif" font-size="10.00">ore::data::Swap::build</text>
</a>
</g>
</g>
<!-- Node3&#45;&gt;Node4 -->
<g id="edge3" class="edge"><title>Node3&#45;&gt;Node4</title>
<path fill="none" stroke="#63b8ff" d="M391.611,-71.7117C370.401,-74.3781 346.021,-77.4431 324.685,-80.1253"/>
<polygon fill="#63b8ff" stroke="#63b8ff" points="392.256,-75.1583 401.742,-70.4382 391.383,-68.2129 392.256,-75.1583"/>
</g>
<!-- Node9 -->
<g id="node9" class="node"><title>Node9</title>
<g id="a_node9"><a xlink:href="classore_1_1data_1_1_risk_participation_agreement.html#a202e0f0e8766fc315608ca73f8802d08" target="_top" xlink:title=" ">
<polygon fill="white" stroke="#666666" points="359,-59 179,-59 179,-29 359,-29 359,-59"/>
<text text-anchor="start" x="187" y="-47" font-family="Helvetica,sans-Serif" font-size="10.00">ore::data::RiskParticipation</text>
<text text-anchor="middle" x="269" y="-36" font-family="Helvetica,sans-Serif" font-size="10.00">Agreement::buildWithSwapUnderlying</text>
</a>
</g>
</g>
<!-- Node3&#45;&gt;Node9 -->
<g id="edge8" class="edge"><title>Node3&#45;&gt;Node9</title>
<path fill="none" stroke="#63b8ff" d="M391.722,-58.6066C381.426,-57.3711 370.379,-56.0455 359.294,-54.7153"/>
<polygon fill="#63b8ff" stroke="#63b8ff" points="391.396,-62.0925 401.742,-59.809 392.23,-55.1424 391.396,-62.0925"/>
</g>
<!-- Node5 -->
<g id="node5" class="node"><title>Node5</title>
<g id="a_node5"><a xlink:href="test_2todaysmarket_8cpp.html#aeb43366ac05a65218ef11c74fa7a5650" target="_top" xlink:title=" ">
<polygon fill="white" stroke="#666666" points="143,-163.5 0,-163.5 0,-144.5 143,-144.5 143,-163.5"/>
<text text-anchor="middle" x="71.5" y="-151.5" font-family="Helvetica,sans-Serif" font-size="10.00">BOOST_AUTO_TEST_CASE</text>
</a>
</g>
</g>
<!-- Node4&#45;&gt;Node5 -->
<g id="edge4" class="edge"><title>Node4&#45;&gt;Node5</title>
<path fill="none" stroke="#63b8ff" d="M235.841,-100.404C210.787,-110.589 175.001,-124.575 143,-135 132.635,-138.377 121.277,-141.629 110.764,-144.459"/>
<polygon fill="#63b8ff" stroke="#63b8ff" points="237.288,-103.594 245.217,-96.5664 234.636,-97.1153 237.288,-103.594"/>
</g>
<!-- Node6 -->
<g id="node6" class="node"><title>Node6</title>
<g id="a_node6"><a xlink:href="classore_1_1data_1_1_equity_swap.html#af7b69d5b18d278257927e32b10a23ee6" target="_top" xlink:title="Trade interface.">
<polygon fill="white" stroke="#666666" points="128,-126 15,-126 15,-96 128,-96 128,-126"/>
<text text-anchor="start" x="23" y="-114" font-family="Helvetica,sans-Serif" font-size="10.00">ore::data::EquitySwap</text>
<text text-anchor="middle" x="71.5" y="-103" font-family="Helvetica,sans-Serif" font-size="10.00">::build</text>
</a>
</g>
</g>
<!-- Node4&#45;&gt;Node6 -->
<g id="edge5" class="edge"><title>Node4&#45;&gt;Node6</title>
<path fill="none" stroke="#63b8ff" d="M203.1,-94.9672C178.858,-97.9432 151.566,-101.294 128.224,-104.159"/>
<polygon fill="#63b8ff" stroke="#63b8ff" points="203.783,-98.4097 213.282,-93.7173 202.93,-91.4619 203.783,-98.4097"/>
</g>
<!-- Node7 -->
<g id="node7" class="node"><title>Node7</title>
<g id="a_node7"><a xlink:href="classore_1_1data_1_1_inflation_swap.html#af7b69d5b18d278257927e32b10a23ee6" target="_top" xlink:title="Trade interface.">
<polygon fill="white" stroke="#666666" points="130.5,-78 12.5,-78 12.5,-48 130.5,-48 130.5,-78"/>
<text text-anchor="start" x="20.5" y="-66" font-family="Helvetica,sans-Serif" font-size="10.00">ore::data::InflationSwap</text>
<text text-anchor="middle" x="71.5" y="-55" font-family="Helvetica,sans-Serif" font-size="10.00">::build</text>
</a>
</g>
</g>
<!-- Node4&#45;&gt;Node7 -->
<g id="edge6" class="edge"><title>Node4&#45;&gt;Node7</title>
<path fill="none" stroke="#63b8ff" d="M203.095,-79.0321C179.679,-76.1576 153.419,-72.9338 130.621,-70.1351"/>
<polygon fill="#63b8ff" stroke="#63b8ff" points="202.93,-82.5381 213.282,-80.2827 203.783,-75.5903 202.93,-82.5381"/>
</g>
<!-- Node8 -->
<g id="node8" class="node"><title>Node8</title>
<g id="a_node8"><a xlink:href="classore_1_1data_1_1_callable_swap.html#ab1db499ff5e65c59fd2009d62276fdaf" target="_top" xlink:title="Build QuantLib/QuantExt instrument, link pricing engine.">
<polygon fill="white" stroke="#666666" points="131,-30 12,-30 12,-0 131,-0 131,-30"/>
<text text-anchor="start" x="20" y="-18" font-family="Helvetica,sans-Serif" font-size="10.00">ore::data::CallableSwap</text>
<text text-anchor="middle" x="71.5" y="-7" font-family="Helvetica,sans-Serif" font-size="10.00">::build</text>
</a>
</g>
</g>
<!-- Node4&#45;&gt;Node8 -->
<g id="edge7" class="edge"><title>Node4&#45;&gt;Node8</title>
<path fill="none" stroke="#63b8ff" d="M203.555,-77.0157C195.088,-74.6214 186.69,-71.6602 179,-68 160.448,-59.1704 161,-48.9063 143,-39 136.997,-35.696 130.457,-32.7313 123.861,-30.1071"/>
<polygon fill="#63b8ff" stroke="#63b8ff" points="202.93,-80.4689 213.487,-79.5739 204.676,-73.6902 202.93,-80.4689"/>
</g>
</g>
</svg>
        <g id="navigator" transform="translate(0 0)" fill="#404254">
                <rect fill="#f2f5e9" fill-opacity="0.5" stroke="#606060" stroke-width=".5" x="0" y="0" width="60" height="60"/>
                <use id="zoomplus" xlink:href="#zoomPlus" x="17" y="9" onmousedown="handleZoom(evt,'in')"/>
                <use id="zoomminus" xlink:href="#zoomMin" x="42" y="9" onmousedown="handleZoom(evt,'out')"/>
                <use id="reset" xlink:href="#resetDef" x="30" y="36" onmousedown="handleReset()"/>
                <g id="arrowUp" xlink:href="#dirArrow" transform="translate(30 24)" onmousedown="handlePan(0,-1)">
                  <use xlink:href="#rim" fill="#404040">
                        <set attributeName="fill" to="#808080" begin="arrowUp.mouseover" end="arrowUp.mouseout"/>
                  </use>
                  <path fill="none" stroke="white" stroke-width="1.5" d="M0,-3.0v7 M-2.5,-0.5L0,-3.0L2.5,-0.5"/>
                </g>
                <g id="arrowRight" xlink:href="#dirArrow" transform="rotate(90) translate(36 -43)" onmousedown="handlePan(1,0)">
                  <use xlink:href="#rim" fill="#404040">
                        <set attributeName="fill" to="#808080" begin="arrowRight.mouseover" end="arrowRight.mouseout"/>
                  </use>
                  <path fill="none" stroke="white" stroke-width="1.5" d="M0,-3.0v7 M-2.5,-0.5L0,-3.0L2.5,-0.5"/>
                </g>
                <g id="arrowDown" xlink:href="#dirArrow" transform="rotate(180) translate(-30 -48)" onmousedown="handlePan(0,1)">
                  <use xlink:href="#rim" fill="#404040">
                        <set attributeName="fill" to="#808080" begin="arrowDown.mouseover" end="arrowDown.mouseout"/>
                  </use>
                  <path fill="none" stroke="white" stroke-width="1.5" d="M0,-3.0v7 M-2.5,-0.5L0,-3.0L2.5,-0.5"/>
                </g>
                <g id="arrowLeft" xlink:href="#dirArrow" transform="rotate(270) translate(-36 17)" onmousedown="handlePan(-1,0)">
                  <use xlink:href="#rim" fill="#404040">
                        <set attributeName="fill" to="#808080" begin="arrowLeft.mouseover" end="arrowLeft.mouseout"/>
                  </use>
                  <path fill="none" stroke="white" stroke-width="1.5" d="M0,-3.0v7 M-2.5,-0.5L0,-3.0L2.5,-0.5"/>
                </g>
        </g>
        <svg viewBox="0 0 15 15" width="100%" height="30px" preserveAspectRatio="xMaxYMin meet">
         <g id="arrow_out" transform="scale(0.3 0.3)">
          <a xlink:href="namespaceore_1_1data_ae030500c96479ede4d5ad36ce76161b7_icgraph_org.svg" target="_base">
           <rect id="button" ry="5" rx="5" y="6" x="6" height="38" width="38"
                fill="#f2f5e9" fill-opacity="0.5" stroke="#606060" stroke-width="1.0"/>
           <path id="arrow"
             d="M 11.500037,31.436501 C 11.940474,20.09759 22.043105,11.32322 32.158766,21.979434 L 37.068811,17.246167 C 37.068811,17.246167 37.088388,32 37.088388,32 L 22.160133,31.978069 C 22.160133,31.978069 26.997745,27.140456 26.997745,27.140456 C 18.528582,18.264221 13.291696,25.230495 11.500037,31.436501 z"
             style="fill:#404040;"/>
          </a>
         </g>
        </svg>
</svg>
