<?xml version="1.0" encoding="UTF-8" standalone="no"?>
<!DOCTYPE svg PUBLIC "-//W3C//DTD SVG 1.1//EN"
 "http://www.w3.org/Graphics/SVG/1.1/DTD/svg11.dtd">
<!-- Generated by graphviz version 2.38.0 (20140413.2041)
 -->
<!-- Title: parseCommodityIndex Pages: 1 -->
<svg width="404pt" height="149pt"
 viewBox="0.00 0.00 404.00 148.50" xmlns="http://www.w3.org/2000/svg" xmlns:xlink="http://www.w3.org/1999/xlink">
<g id="graph0" class="graph" transform="scale(1 1) rotate(0) translate(4 144.5)">
<title>parseCommodityIndex</title>
<!-- Node1 -->
<g id="node1" class="node"><title>Node1</title>
<g id="a_node1"><a xlink:title=" ">
<polygon fill="#999999" stroke="#666666" points="113,-74 0,-74 0,-55 113,-55 113,-74"/>
<text text-anchor="middle" x="56.5" y="-62" font-family="Helvetica,sans-Serif" font-size="10.00">parseCommodityIndex</text>
</a>
</g>
</g>
<!-- Node1&#45;&gt;Node1 -->
<g id="edge2" class="edge"><title>Node1&#45;&gt;Node1</title>
<path fill="none" stroke="#63b8ff" d="M31.5311,-74.0828C19.3841,-82.7337 27.707,-92 56.5,-92 75.3954,-92 85.4751,-88.0094 86.7391,-82.8208"/>
<polygon fill="#63b8ff" stroke="#63b8ff" points="89.6307,-80.8383 81.4689,-74.0828 83.6365,-84.4536 89.6307,-80.8383"/>
</g>
<!-- Node2 -->
<g id="node2" class="node"><title>Node2</title>
<g id="a_node2"><a xlink:href="classore_1_1data_1_1_conventions_based_future_expiry.html#a2bd20c07171472e89c54943f2da6dffd" target="_top" xlink:title=" ">
<polygon fill="white" stroke="#666666" points="290,-140.5 149,-140.5 149,-110.5 290,-110.5 290,-140.5"/>
<text text-anchor="start" x="157" y="-128.5" font-family="Helvetica,sans-Serif" font-size="10.00">ore::data::ConventionsBased</text>
<text text-anchor="middle" x="219.5" y="-117.5" font-family="Helvetica,sans-Serif" font-size="10.00">FutureExpiry::nextExpiry</text>
</a>
</g>
</g>
<!-- Node1&#45;&gt;Node2 -->
<g id="edge1" class="edge"><title>Node1&#45;&gt;Node2</title>
<path fill="none" stroke="#63b8ff" d="M80.3094,-74.1059C98.7432,-81.7764 125.412,-92.6648 149,-101.5 153.881,-103.328 158.972,-105.184 164.083,-107.011"/>
<polygon fill="#63b8ff" stroke="#63b8ff" points="163.291,-110.443 173.886,-110.477 165.625,-103.844 163.291,-110.443"/>
</g>
<!-- Node3 -->
<g id="node3" class="node"><title>Node3</title>
<g id="a_node3"><a xlink:href="group__utilities.html#ga59b5fdda574d90facae95dec2d13040d" target="_top" xlink:title="Convert std::string to QuantLib::Date.">
<polygon fill="white" stroke="#666666" points="250,-74 189,-74 189,-55 250,-55 250,-74"/>
<text text-anchor="middle" x="219.5" y="-62" font-family="Helvetica,sans-Serif" font-size="10.00">parseDate</text>
</a>
</g>
</g>
<!-- Node1&#45;&gt;Node3 -->
<g id="edge3" class="edge"><title>Node1&#45;&gt;Node3</title>
<path fill="none" stroke="#63b8ff" d="M113.358,-64.5C134.914,-64.5 159.079,-64.5 178.802,-64.5"/>
<polygon fill="#63b8ff" stroke="#63b8ff" points="178.964,-68.0001 188.964,-64.5 178.964,-61.0001 178.964,-68.0001"/>
</g>
<!-- Node6 -->
<g id="node6" class="node"><title>Node6</title>
<g id="a_node6"><a xlink:href="namespaceore_1_1data.html#a86651dfeb5c18ee891f7a4734d8cf455" target="_top" xlink:title=" ">
<polygon fill="white" stroke="#666666" points="246.5,-19 192.5,-19 192.5,-0 246.5,-0 246.5,-19"/>
<text text-anchor="middle" x="219.5" y="-7" font-family="Helvetica,sans-Serif" font-size="10.00">to_string</text>
</a>
</g>
</g>
<!-- Node1&#45;&gt;Node6 -->
<g id="edge8" class="edge"><title>Node1&#45;&gt;Node6</title>
<path fill="none" stroke="#63b8ff" d="M85.5441,-54.9197C112.461,-45.7244 153.238,-31.7944 182.534,-21.7867"/>
<polygon fill="#63b8ff" stroke="#63b8ff" points="184.044,-24.9695 192.375,-18.4246 181.781,-18.3453 184.044,-24.9695"/>
</g>
<!-- Node3&#45;&gt;Node3 -->
<g id="edge4" class="edge"><title>Node3&#45;&gt;Node3</title>
<path fill="none" stroke="#63b8ff" d="M197.922,-74.0828C187.424,-82.7337 194.617,-92 219.5,-92 235.441,-92 244.121,-88.1971 245.542,-83.1894"/>
<polygon fill="#63b8ff" stroke="#63b8ff" points="248.622,-81.5218 241.078,-74.0828 242.336,-84.6027 248.622,-81.5218"/>
</g>
<!-- Node4 -->
<g id="node4" class="node"><title>Node4</title>
<g id="a_node4"><a xlink:href="group__utilities.html#gaecd67eda4fb5f4859bb8f6d383547721" target="_top" xlink:title="Convert text to QuantLib::Integer.">
<polygon fill="white" stroke="#666666" points="396,-92 326,-92 326,-73 396,-73 396,-92"/>
<text text-anchor="middle" x="361" y="-80" font-family="Helvetica,sans-Serif" font-size="10.00">parseInteger</text>
</a>
</g>
</g>
<!-- Node3&#45;&gt;Node4 -->
<g id="edge5" class="edge"><title>Node3&#45;&gt;Node4</title>
<path fill="none" stroke="#63b8ff" d="M250.084,-68.3173C269.123,-70.7739 294.218,-74.012 315.622,-76.7739"/>
<polygon fill="#63b8ff" stroke="#63b8ff" points="315.425,-80.2773 325.791,-78.0859 316.321,-73.3349 315.425,-80.2773"/>
</g>
<!-- Node5 -->
<g id="node5" class="node"><title>Node5</title>
<g id="a_node5"><a xlink:href="namespaceore_1_1data.html#a777e216dee6069b548bb87da7152699e" target="_top" xlink:title=" ">
<polygon fill="white" stroke="#666666" points="378.5,-55 343.5,-55 343.5,-36 378.5,-36 378.5,-55"/>
<text text-anchor="middle" x="361" y="-43" font-family="Helvetica,sans-Serif" font-size="10.00">size</text>
</a>
</g>
</g>
<!-- Node3&#45;&gt;Node5 -->
<g id="edge7" class="edge"><title>Node3&#45;&gt;Node5</title>
<path fill="none" stroke="#63b8ff" d="M250.084,-60.4706C274.636,-57.1266 309.261,-52.4107 333.053,-49.1702"/>
<polygon fill="#63b8ff" stroke="#63b8ff" points="333.711,-52.613 343.147,-47.7954 332.766,-45.677 333.711,-52.613"/>
</g>
<!-- Node4&#45;&gt;Node4 -->
<g id="edge6" class="edge"><title>Node4&#45;&gt;Node4</title>
<path fill="none" stroke="#63b8ff" d="M339.422,-92.0828C328.924,-100.734 336.117,-110 361,-110 376.941,-110 385.621,-106.197 387.042,-101.189"/>
<polygon fill="#63b8ff" stroke="#63b8ff" points="390.122,-99.5218 382.578,-92.0828 383.836,-102.603 390.122,-99.5218"/>
</g>
<!-- Node6&#45;&gt;Node6 -->
<g id="edge9" class="edge"><title>Node6&#45;&gt;Node6</title>
<path fill="none" stroke="#63b8ff" d="M197.922,-19.0828C187.424,-27.7337 194.617,-37 219.5,-37 235.441,-37 244.121,-33.1971 245.542,-28.1894"/>
<polygon fill="#63b8ff" stroke="#63b8ff" points="248.622,-26.5218 241.078,-19.0828 242.336,-29.6027 248.622,-26.5218"/>
</g>
</g>
</svg>
