<?xml version="1.0" encoding="UTF-8" standalone="no"?>
<!DOCTYPE svg PUBLIC "-//W3C//DTD SVG 1.1//EN"
 "http://www.w3.org/Graphics/SVG/1.1/DTD/svg11.dtd">
<!-- Generated by graphviz version 2.38.0 (20140413.2041)
 -->
<!-- Title: operator&lt;&lt; Pages: 1 -->
<!--zoomable 545 -->
<svg id="main" version="1.1" xmlns="http://www.w3.org/2000/svg" xmlns:xlink="http://www.w3.org/1999/xlink" xml:space="preserve" onload="init(evt)">
<style type="text/css"><![CDATA[
.edge:hover path { stroke: red; }
.edge:hover polygon { stroke: red; fill: red; }
]]></style>
<script type="text/javascript"><![CDATA[
var edges = document.getElementsByTagName('g');
if (edges && edges.length) {
  for (var i=0;i<edges.length;i++) {
    if (edges[i].id.substr(0,4)=='edge') {
      edges[i].setAttribute('class','edge');
    }
  }
}
]]></script>
        <defs>
                <circle id="rim" cx="0" cy="0" r="7"/>
                <circle id="rim2" cx="0" cy="0" r="3.5"/>
                <g id="zoomPlus">
                        <use xlink:href="#rim" fill="#404040">
                                <set attributeName="fill" to="#808080" begin="zoomplus.mouseover" end="zoomplus.mouseout"/>
                        </use>
                        <path d="M-4,0h8M0,-4v8" fill="none" stroke="white" stroke-width="1.5" pointer-events="none"/>
                </g>
                <g id="zoomMin">
                        <use xlink:href="#rim" fill="#404040">
                                <set attributeName="fill" to="#808080" begin="zoomminus.mouseover" end="zoomminus.mouseout"/>
                        </use>
                        <path d="M-4,0h8" fill="none" stroke="white" stroke-width="1.5" pointer-events="none"/>
                </g>
                <g id="dirArrow">
                        <path fill="none" stroke="white" stroke-width="1.5" d="M0,-3.0v7 M-2.5,-0.5L0,-3.0L2.5,-0.5"/>
                </g>
               <g id="resetDef">
                       <use xlink:href="#rim2" fill="#404040">
                               <set attributeName="fill" to="#808080" begin="reset.mouseover" end="reset.mouseout"/>
                       </use>
               </g>
        </defs>

<script type="text/javascript">
var viewWidth = 224;
var viewHeight = 545;
var sectionId = 'dynsection-210';
</script>
<script xlink:href="svgpan.js"/>
<svg id="graph" class="graph">
<g id="viewport">
<title>operator&lt;&lt;</title>
<!-- Node1 -->
<g id="node1" class="node"><title>Node1</title>
<g id="a_node1"><a xlink:title=" ">
<polygon fill="#999999" stroke="#666666" points="64,-288.5 0,-288.5 0,-269.5 64,-269.5 64,-288.5"/>
<text text-anchor="middle" x="32" y="-276.5" font-family="Helvetica,sans-Serif" font-size="10.00">operator&lt;&lt;</text>
</a>
</g>
</g>
<!-- Node2 -->
<g id="node2" class="node"><title>Node2</title>
<g id="a_node2"><a xlink:href="classore_1_1data_1_1_index_info.html#a9d668e8663376d83abe8f192ec6f7119" target="_top" xlink:title=" ">
<polygon fill="white" stroke="#666666" points="216,-536.5 100,-536.5 100,-517.5 216,-517.5 216,-536.5"/>
<text text-anchor="middle" x="158" y="-524.5" font-family="Helvetica,sans-Serif" font-size="10.00">ore::data::IndexInfo::eq</text>
</a>
</g>
</g>
<!-- Node1&#45;&gt;Node2 -->
<g id="edge1" class="edge"><title>Node1&#45;&gt;Node2</title>
<path fill="none" stroke="#63b8ff" d="M32.7979,-288.895C32.634,-324.079 36.9023,-444.472 100,-509 100.939,-509.96 101.928,-510.869 102.961,-511.729"/>
<polygon fill="#63b8ff" stroke="#63b8ff" points="101.322,-514.841 111.597,-517.425 105.176,-508.998 101.322,-514.841"/>
</g>
<!-- Node3 -->
<g id="node3" class="node"><title>Node3</title>
<g id="a_node3"><a xlink:href="classore_1_1data_1_1_index_info.html#acff8a77529228babbe386536e8ebfadd" target="_top" xlink:title=" ">
<polygon fill="white" stroke="#666666" points="214.5,-499.5 101.5,-499.5 101.5,-480.5 214.5,-480.5 214.5,-499.5"/>
<text text-anchor="middle" x="158" y="-487.5" font-family="Helvetica,sans-Serif" font-size="10.00">ore::data::IndexInfo::fx</text>
</a>
</g>
</g>
<!-- Node1&#45;&gt;Node3 -->
<g id="edge2" class="edge"><title>Node1&#45;&gt;Node3</title>
<path fill="none" stroke="#63b8ff" d="M33.4745,-288.525C35.5292,-319.426 46.2043,-417.952 100,-471 101.476,-472.456 103.067,-473.8 104.745,-475.041"/>
<polygon fill="#63b8ff" stroke="#63b8ff" points="103.366,-478.295 113.744,-480.429 106.962,-472.289 103.366,-478.295"/>
</g>
<!-- Node4 -->
<g id="node4" class="node"><title>Node4</title>
<g id="a_node4"><a xlink:href="classore_1_1data_1_1_index_info.html#a23ec03f542f20331234434c87953d938" target="_top" xlink:title=" ">
<polygon fill="white" stroke="#666666" points="207.5,-462 108.5,-462 108.5,-432 207.5,-432 207.5,-462"/>
<text text-anchor="start" x="116.5" y="-450" font-family="Helvetica,sans-Serif" font-size="10.00">ore::data::IndexInfo</text>
<text text-anchor="middle" x="158" y="-439" font-family="Helvetica,sans-Serif" font-size="10.00">::generic</text>
</a>
</g>
</g>
<!-- Node1&#45;&gt;Node4 -->
<g id="edge3" class="edge"><title>Node1&#45;&gt;Node4</title>
<path fill="none" stroke="#63b8ff" d="M34.9885,-288.823C40.6394,-314.36 59.0998,-383.584 100,-423 101.111,-424.071 102.278,-425.097 103.489,-426.081"/>
<polygon fill="#63b8ff" stroke="#63b8ff" points="101.817,-429.179 112.039,-431.965 105.786,-423.413 101.817,-429.179"/>
</g>
<!-- Node5 -->
<g id="node5" class="node"><title>Node5</title>
<g id="a_node5"><a xlink:href="classore_1_1data_1_1_index_info.html#abc8c599d5c46ac1e07223efa375553f2" target="_top" xlink:title=" ">
<polygon fill="white" stroke="#666666" points="207.5,-414 108.5,-414 108.5,-384 207.5,-384 207.5,-414"/>
<text text-anchor="start" x="116.5" y="-402" font-family="Helvetica,sans-Serif" font-size="10.00">ore::data::IndexInfo</text>
<text text-anchor="middle" x="158" y="-391" font-family="Helvetica,sans-Serif" font-size="10.00">::irIbor</text>
</a>
</g>
</g>
<!-- Node1&#45;&gt;Node5 -->
<g id="edge4" class="edge"><title>Node1&#45;&gt;Node5</title>
<path fill="none" stroke="#63b8ff" d="M37.3502,-288.51C46.4392,-307.423 69.1827,-350.079 100,-375 101.565,-376.266 103.207,-377.475 104.906,-378.629"/>
<polygon fill="#63b8ff" stroke="#63b8ff" points="103.406,-381.81 113.783,-383.947 107.003,-375.805 103.406,-381.81"/>
</g>
<!-- Node6 -->
<g id="node6" class="node"><title>Node6</title>
<g id="a_node6"><a xlink:href="classore_1_1data_1_1_index_info.html#a31177fe98abb97b1f095d0e1054e73d5" target="_top" xlink:title=" ">
<polygon fill="white" stroke="#666666" points="207.5,-366 108.5,-366 108.5,-336 207.5,-336 207.5,-366"/>
<text text-anchor="start" x="116.5" y="-354" font-family="Helvetica,sans-Serif" font-size="10.00">ore::data::IndexInfo</text>
<text text-anchor="middle" x="158" y="-343" font-family="Helvetica,sans-Serif" font-size="10.00">::irSwap</text>
</a>
</g>
</g>
<!-- Node1&#45;&gt;Node6 -->
<g id="edge5" class="edge"><title>Node1&#45;&gt;Node6</title>
<path fill="none" stroke="#63b8ff" d="M44.8051,-288.703C57.7836,-299.066 79.5206,-315.542 100,-327 102.811,-328.573 105.746,-330.106 108.737,-331.589"/>
<polygon fill="#63b8ff" stroke="#63b8ff" points="107.275,-334.769 117.813,-335.869 110.261,-328.437 107.275,-334.769"/>
</g>
<!-- Node7 -->
<g id="node7" class="node"><title>Node7</title>
<g id="a_node7"><a xlink:href="classore_1_1data_1_1_index_info.html#a2b3b1bfdce84ba8f1c72d274925debea" target="_top" xlink:title=" ">
<polygon fill="white" stroke="#666666" points="207.5,-318 108.5,-318 108.5,-288 207.5,-288 207.5,-318"/>
<text text-anchor="start" x="116.5" y="-306" font-family="Helvetica,sans-Serif" font-size="10.00">ore::data::IndexInfo</text>
<text text-anchor="middle" x="158" y="-295" font-family="Helvetica,sans-Serif" font-size="10.00">::isComm</text>
</a>
</g>
</g>
<!-- Node1&#45;&gt;Node7 -->
<g id="edge6" class="edge"><title>Node1&#45;&gt;Node7</title>
<path fill="none" stroke="#63b8ff" d="M64.2904,-285.056C74.716,-287.074 86.6915,-289.392 98.4974,-291.677"/>
<polygon fill="#63b8ff" stroke="#63b8ff" points="97.8538,-295.117 108.337,-293.581 99.184,-288.245 97.8538,-295.117"/>
</g>
<!-- Node8 -->
<g id="node8" class="node"><title>Node8</title>
<g id="a_node8"><a xlink:href="classore_1_1data_1_1_index_info.html#ae8b885cc665492e40321e6629288178d" target="_top" xlink:title=" ">
<polygon fill="white" stroke="#666666" points="207.5,-270 108.5,-270 108.5,-240 207.5,-240 207.5,-270"/>
<text text-anchor="start" x="116.5" y="-258" font-family="Helvetica,sans-Serif" font-size="10.00">ore::data::IndexInfo</text>
<text text-anchor="middle" x="158" y="-247" font-family="Helvetica,sans-Serif" font-size="10.00">::isEq</text>
</a>
</g>
</g>
<!-- Node1&#45;&gt;Node8 -->
<g id="edge7" class="edge"><title>Node1&#45;&gt;Node8</title>
<path fill="none" stroke="#63b8ff" d="M64.2904,-272.944C74.716,-270.926 86.6915,-268.608 98.4974,-266.323"/>
<polygon fill="#63b8ff" stroke="#63b8ff" points="99.184,-269.755 108.337,-264.419 97.8538,-262.883 99.184,-269.755"/>
</g>
<!-- Node9 -->
<g id="node9" class="node"><title>Node9</title>
<g id="a_node9"><a xlink:href="classore_1_1data_1_1_index_info.html#ace83ebdcce15cedba31e179d29670a18" target="_top" xlink:title=" ">
<polygon fill="white" stroke="#666666" points="207.5,-222 108.5,-222 108.5,-192 207.5,-192 207.5,-222"/>
<text text-anchor="start" x="116.5" y="-210" font-family="Helvetica,sans-Serif" font-size="10.00">ore::data::IndexInfo</text>
<text text-anchor="middle" x="158" y="-199" font-family="Helvetica,sans-Serif" font-size="10.00">::isFx</text>
</a>
</g>
</g>
<!-- Node1&#45;&gt;Node9 -->
<g id="edge8" class="edge"><title>Node1&#45;&gt;Node9</title>
<path fill="none" stroke="#63b8ff" d="M44.8051,-269.297C57.7836,-258.934 79.5206,-242.458 100,-231 102.811,-229.427 105.746,-227.894 108.737,-226.411"/>
<polygon fill="#63b8ff" stroke="#63b8ff" points="110.261,-229.563 117.813,-222.131 107.275,-223.231 110.261,-229.563"/>
</g>
<!-- Node10 -->
<g id="node10" class="node"><title>Node10</title>
<g id="a_node10"><a xlink:href="classore_1_1data_1_1_index_info.html#aa57c7706b1a5f336e2d0b520e2a57c99" target="_top" xlink:title=" ">
<polygon fill="white" stroke="#666666" points="207.5,-174 108.5,-174 108.5,-144 207.5,-144 207.5,-174"/>
<text text-anchor="start" x="116.5" y="-162" font-family="Helvetica,sans-Serif" font-size="10.00">ore::data::IndexInfo</text>
<text text-anchor="middle" x="158" y="-151" font-family="Helvetica,sans-Serif" font-size="10.00">::isGeneric</text>
</a>
</g>
</g>
<!-- Node1&#45;&gt;Node10 -->
<g id="edge9" class="edge"><title>Node1&#45;&gt;Node10</title>
<path fill="none" stroke="#63b8ff" d="M37.3502,-269.49C46.4392,-250.577 69.1827,-207.921 100,-183 101.565,-181.734 103.207,-180.525 104.906,-179.371"/>
<polygon fill="#63b8ff" stroke="#63b8ff" points="107.003,-182.195 113.783,-174.053 103.406,-176.19 107.003,-182.195"/>
</g>
<!-- Node11 -->
<g id="node11" class="node"><title>Node11</title>
<g id="a_node11"><a xlink:href="classore_1_1data_1_1_index_info.html#a504f24a2aec6cfa825a425d193067742" target="_top" xlink:title=" ">
<polygon fill="white" stroke="#666666" points="207.5,-126 108.5,-126 108.5,-96 207.5,-96 207.5,-126"/>
<text text-anchor="start" x="116.5" y="-114" font-family="Helvetica,sans-Serif" font-size="10.00">ore::data::IndexInfo</text>
<text text-anchor="middle" x="158" y="-103" font-family="Helvetica,sans-Serif" font-size="10.00">::isIrIbor</text>
</a>
</g>
</g>
<!-- Node1&#45;&gt;Node11 -->
<g id="edge10" class="edge"><title>Node1&#45;&gt;Node11</title>
<path fill="none" stroke="#63b8ff" d="M34.9885,-269.177C40.6394,-243.64 59.0998,-174.416 100,-135 101.111,-133.929 102.278,-132.903 103.489,-131.919"/>
<polygon fill="#63b8ff" stroke="#63b8ff" points="105.786,-134.587 112.039,-126.035 101.817,-128.821 105.786,-134.587"/>
</g>
<!-- Node12 -->
<g id="node12" class="node"><title>Node12</title>
<g id="a_node12"><a xlink:href="classore_1_1data_1_1_index_info.html#ad88837a5118ca2446e6daadb496ce902" target="_top" xlink:title=" ">
<polygon fill="white" stroke="#666666" points="207.5,-78 108.5,-78 108.5,-48 207.5,-48 207.5,-78"/>
<text text-anchor="start" x="116.5" y="-66" font-family="Helvetica,sans-Serif" font-size="10.00">ore::data::IndexInfo</text>
<text text-anchor="middle" x="158" y="-55" font-family="Helvetica,sans-Serif" font-size="10.00">::isIrSwap</text>
</a>
</g>
</g>
<!-- Node1&#45;&gt;Node12 -->
<g id="edge11" class="edge"><title>Node1&#45;&gt;Node12</title>
<path fill="none" stroke="#63b8ff" d="M33.6787,-269.208C36.3239,-238.332 48.5214,-141.816 100,-87 100.91,-86.0314 101.864,-85.1004 102.858,-84.2056"/>
<polygon fill="#63b8ff" stroke="#63b8ff" points="105.208,-86.819 111.127,-78.0315 101.02,-81.2101 105.208,-86.819"/>
</g>
<!-- Node13 -->
<g id="node13" class="node"><title>Node13</title>
<g id="a_node13"><a xlink:href="classore_1_1data_1_1_index_info.html#a1d89c28bd42ba9a52da008bb69367171" target="_top" xlink:title=" ">
<polygon fill="white" stroke="#666666" points="207.5,-30 108.5,-30 108.5,-0 207.5,-0 207.5,-30"/>
<text text-anchor="start" x="116.5" y="-18" font-family="Helvetica,sans-Serif" font-size="10.00">ore::data::IndexInfo</text>
<text text-anchor="middle" x="158" y="-7" font-family="Helvetica,sans-Serif" font-size="10.00">::name</text>
</a>
</g>
</g>
<!-- Node1&#45;&gt;Node13 -->
<g id="edge12" class="edge"><title>Node1&#45;&gt;Node13</title>
<path fill="none" stroke="#63b8ff" d="M32.8695,-269.383C32.906,-234.045 37.6561,-109.76 100,-39 100.858,-38.0257 101.763,-37.0899 102.707,-36.1911"/>
<polygon fill="#63b8ff" stroke="#63b8ff" points="104.901,-38.9185 110.623,-30.0015 100.59,-33.4041 104.901,-38.9185"/>
</g>
</g>
</svg>
        <g id="navigator" transform="translate(0 0)" fill="#404254">
                <rect fill="#f2f5e9" fill-opacity="0.5" stroke="#606060" stroke-width=".5" x="0" y="0" width="60" height="60"/>
                <use id="zoomplus" xlink:href="#zoomPlus" x="17" y="9" onmousedown="handleZoom(evt,'in')"/>
                <use id="zoomminus" xlink:href="#zoomMin" x="42" y="9" onmousedown="handleZoom(evt,'out')"/>
                <use id="reset" xlink:href="#resetDef" x="30" y="36" onmousedown="handleReset()"/>
                <g id="arrowUp" xlink:href="#dirArrow" transform="translate(30 24)" onmousedown="handlePan(0,-1)">
                  <use xlink:href="#rim" fill="#404040">
                        <set attributeName="fill" to="#808080" begin="arrowUp.mouseover" end="arrowUp.mouseout"/>
                  </use>
                  <path fill="none" stroke="white" stroke-width="1.5" d="M0,-3.0v7 M-2.5,-0.5L0,-3.0L2.5,-0.5"/>
                </g>
                <g id="arrowRight" xlink:href="#dirArrow" transform="rotate(90) translate(36 -43)" onmousedown="handlePan(1,0)">
                  <use xlink:href="#rim" fill="#404040">
                        <set attributeName="fill" to="#808080" begin="arrowRight.mouseover" end="arrowRight.mouseout"/>
                  </use>
                  <path fill="none" stroke="white" stroke-width="1.5" d="M0,-3.0v7 M-2.5,-0.5L0,-3.0L2.5,-0.5"/>
                </g>
                <g id="arrowDown" xlink:href="#dirArrow" transform="rotate(180) translate(-30 -48)" onmousedown="handlePan(0,1)">
                  <use xlink:href="#rim" fill="#404040">
                        <set attributeName="fill" to="#808080" begin="arrowDown.mouseover" end="arrowDown.mouseout"/>
                  </use>
                  <path fill="none" stroke="white" stroke-width="1.5" d="M0,-3.0v7 M-2.5,-0.5L0,-3.0L2.5,-0.5"/>
                </g>
                <g id="arrowLeft" xlink:href="#dirArrow" transform="rotate(270) translate(-36 17)" onmousedown="handlePan(-1,0)">
                  <use xlink:href="#rim" fill="#404040">
                        <set attributeName="fill" to="#808080" begin="arrowLeft.mouseover" end="arrowLeft.mouseout"/>
                  </use>
                  <path fill="none" stroke="white" stroke-width="1.5" d="M0,-3.0v7 M-2.5,-0.5L0,-3.0L2.5,-0.5"/>
                </g>
        </g>
        <svg viewBox="0 0 15 15" width="100%" height="30px" preserveAspectRatio="xMaxYMin meet">
         <g id="arrow_out" transform="scale(0.3 0.3)">
          <a xlink:href="namespaceore_1_1data_afbb968fe0a8ccf155b0a7a150513b92f_cgraph_org.svg" target="_base">
           <rect id="button" ry="5" rx="5" y="6" x="6" height="38" width="38"
                fill="#f2f5e9" fill-opacity="0.5" stroke="#606060" stroke-width="1.0"/>
           <path id="arrow"
             d="M 11.500037,31.436501 C 11.940474,20.09759 22.043105,11.32322 32.158766,21.979434 L 37.068811,17.246167 C 37.068811,17.246167 37.088388,32 37.088388,32 L 22.160133,31.978069 C 22.160133,31.978069 26.997745,27.140456 26.997745,27.140456 C 18.528582,18.264221 13.291696,25.230495 11.500037,31.436501 z"
             style="fill:#404040;"/>
          </a>
         </g>
        </svg>
</svg>
