<?xml version="1.0" encoding="UTF-8" standalone="no"?>
<!DOCTYPE svg PUBLIC "-//W3C//DTD SVG 1.1//EN"
 "http://www.w3.org/Graphics/SVG/1.1/DTD/svg11.dtd">
<!-- Generated by graphviz version 2.38.0 (20140413.2041)
 -->
<!-- Title: getScript Pages: 1 -->
<svg width="221pt" height="182pt"
 viewBox="0.00 0.00 221.00 182.00" xmlns="http://www.w3.org/2000/svg" xmlns:xlink="http://www.w3.org/1999/xlink">
<g id="graph0" class="graph" transform="scale(1 1) rotate(0) translate(4 178)">
<title>getScript</title>
<!-- Node1 -->
<g id="node1" class="node"><title>Node1</title>
<g id="a_node1"><a xlink:title=" ">
<polygon fill="#999999" stroke="#666666" points="56,-96.5 3.55271e-015,-96.5 3.55271e-015,-77.5 56,-77.5 56,-96.5"/>
<text text-anchor="middle" x="28" y="-84.5" font-family="Helvetica,sans-Serif" font-size="10.00">getScript</text>
</a>
</g>
</g>
<!-- Node2 -->
<g id="node2" class="node"><title>Node2</title>
<g id="a_node2"><a xlink:href="classore_1_1data_1_1_script_library_data.html#a42e77f1f5fbb61d0aedcd98d0cf7be43" target="_top" xlink:title=" ">
<polygon fill="white" stroke="#666666" points="210.5,-174 94.5,-174 94.5,-144 210.5,-144 210.5,-174"/>
<text text-anchor="start" x="102.5" y="-162" font-family="Helvetica,sans-Serif" font-size="10.00">ore::data::ScriptLibrary</text>
<text text-anchor="middle" x="152.5" y="-151" font-family="Helvetica,sans-Serif" font-size="10.00">Data::get</text>
</a>
</g>
</g>
<!-- Node1&#45;&gt;Node2 -->
<g id="edge1" class="edge"><title>Node1&#45;&gt;Node2</title>
<path fill="none" stroke="#63b8ff" d="M39.967,-96.8215C52.0567,-107.286 72.3993,-123.849 92,-135 94.8076,-136.597 97.7427,-138.141 100.74,-139.622"/>
<polygon fill="#63b8ff" stroke="#63b8ff" points="99.3134,-142.818 109.856,-143.871 102.271,-136.474 99.3134,-142.818"/>
</g>
<!-- Node3 -->
<g id="node3" class="node"><title>Node3</title>
<g id="a_node3"><a xlink:href="classore_1_1data_1_1_scripted_trade.html#a0ec6181bc633a0a99536e594e96b53b3" target="_top" xlink:title=" ">
<polygon fill="white" stroke="#666666" points="213,-126 92,-126 92,-96 213,-96 213,-126"/>
<text text-anchor="start" x="100" y="-114" font-family="Helvetica,sans-Serif" font-size="10.00">ore::data::ScriptedTrade</text>
<text text-anchor="middle" x="152.5" y="-103" font-family="Helvetica,sans-Serif" font-size="10.00">::productTag</text>
</a>
</g>
</g>
<!-- Node1&#45;&gt;Node3 -->
<g id="edge2" class="edge"><title>Node1&#45;&gt;Node3</title>
<path fill="none" stroke="#63b8ff" d="M56.1867,-92.3264C63.9513,-93.8476 72.7868,-95.5786 81.873,-97.3588"/>
<polygon fill="#63b8ff" stroke="#63b8ff" points="81.3056,-100.814 91.7919,-99.3021 82.6515,-93.9447 81.3056,-100.814"/>
</g>
<!-- Node4 -->
<g id="node4" class="node"><title>Node4</title>
<g id="a_node4"><a xlink:href="classore_1_1data_1_1_scripted_trade.html#a155e3d66e4cc42c763096da60a0ad288" target="_top" xlink:title=" ">
<polygon fill="white" stroke="#666666" points="213,-78 92,-78 92,-48 213,-48 213,-78"/>
<text text-anchor="start" x="100" y="-66" font-family="Helvetica,sans-Serif" font-size="10.00">ore::data::ScriptedTrade</text>
<text text-anchor="middle" x="152.5" y="-55" font-family="Helvetica,sans-Serif" font-size="10.00">::script</text>
</a>
</g>
</g>
<!-- Node1&#45;&gt;Node4 -->
<g id="edge3" class="edge"><title>Node1&#45;&gt;Node4</title>
<path fill="none" stroke="#63b8ff" d="M56.1867,-81.6736C63.9513,-80.1524 72.7868,-78.4214 81.873,-76.6412"/>
<polygon fill="#63b8ff" stroke="#63b8ff" points="82.6515,-80.0553 91.7919,-74.6979 81.3056,-73.1859 82.6515,-80.0553"/>
</g>
<!-- Node5 -->
<g id="node5" class="node"><title>Node5</title>
<g id="a_node5"><a xlink:href="classore_1_1data_1_1_scripted_trade.html#a5d1065359641255dee68444b4f04be14" target="_top" xlink:title=" ">
<polygon fill="white" stroke="#666666" points="213,-30 92,-30 92,-0 213,-0 213,-30"/>
<text text-anchor="start" x="100" y="-18" font-family="Helvetica,sans-Serif" font-size="10.00">ore::data::ScriptedTrade</text>
<text text-anchor="middle" x="152.5" y="-7" font-family="Helvetica,sans-Serif" font-size="10.00">::scriptName</text>
</a>
</g>
</g>
<!-- Node1&#45;&gt;Node5 -->
<g id="edge4" class="edge"><title>Node1&#45;&gt;Node5</title>
<path fill="none" stroke="#63b8ff" d="M39.967,-77.1785C52.0567,-66.7139 72.3993,-50.1509 92,-39 94.8076,-37.4027 97.7427,-35.8594 100.74,-34.3782"/>
<polygon fill="#63b8ff" stroke="#63b8ff" points="102.271,-37.5265 109.856,-30.1295 99.3134,-31.1818 102.271,-37.5265"/>
</g>
</g>
</svg>
