<?xml version="1.0" encoding="UTF-8" standalone="no"?>
<!DOCTYPE svg PUBLIC "-//W3C//DTD SVG 1.1//EN"
 "http://www.w3.org/Graphics/SVG/1.1/DTD/svg11.dtd">
<!-- Generated by graphviz version 2.38.0 (20140413.2041)
 -->
<!-- Title: makeDummyMarketDatum Pages: 1 -->
<!--zoomable 198 -->
<svg id="main" version="1.1" xmlns="http://www.w3.org/2000/svg" xmlns:xlink="http://www.w3.org/1999/xlink" xml:space="preserve" onload="init(evt)">
<style type="text/css"><![CDATA[
.edge:hover path { stroke: red; }
.edge:hover polygon { stroke: red; fill: red; }
]]></style>
<script type="text/javascript"><![CDATA[
var edges = document.getElementsByTagName('g');
if (edges && edges.length) {
  for (var i=0;i<edges.length;i++) {
    if (edges[i].id.substr(0,4)=='edge') {
      edges[i].setAttribute('class','edge');
    }
  }
}
]]></script>
        <defs>
                <circle id="rim" cx="0" cy="0" r="7"/>
                <circle id="rim2" cx="0" cy="0" r="3.5"/>
                <g id="zoomPlus">
                        <use xlink:href="#rim" fill="#404040">
                                <set attributeName="fill" to="#808080" begin="zoomplus.mouseover" end="zoomplus.mouseout"/>
                        </use>
                        <path d="M-4,0h8M0,-4v8" fill="none" stroke="white" stroke-width="1.5" pointer-events="none"/>
                </g>
                <g id="zoomMin">
                        <use xlink:href="#rim" fill="#404040">
                                <set attributeName="fill" to="#808080" begin="zoomminus.mouseover" end="zoomminus.mouseout"/>
                        </use>
                        <path d="M-4,0h8" fill="none" stroke="white" stroke-width="1.5" pointer-events="none"/>
                </g>
                <g id="dirArrow">
                        <path fill="none" stroke="white" stroke-width="1.5" d="M0,-3.0v7 M-2.5,-0.5L0,-3.0L2.5,-0.5"/>
                </g>
               <g id="resetDef">
                       <use xlink:href="#rim2" fill="#404040">
                               <set attributeName="fill" to="#808080" begin="reset.mouseover" end="reset.mouseout"/>
                       </use>
               </g>
        </defs>

<script type="text/javascript">
var viewWidth = 663;
var viewHeight = 198;
var sectionId = 'dynsection-10';
</script>
<script xlink:href="svgpan.js"/>
<svg id="graph" class="graph">
<g id="viewport">
<title>makeDummyMarketDatum</title>
<!-- Node1 -->
<g id="node1" class="node"><title>Node1</title>
<g id="a_node1"><a xlink:title=" ">
<polygon fill="#999999" stroke="#666666" points="655,-85.5 522,-85.5 522,-66.5 655,-66.5 655,-85.5"/>
<text text-anchor="middle" x="588.5" y="-73.5" font-family="Helvetica,sans-Serif" font-size="10.00">makeDummyMarketDatum</text>
</a>
</g>
</g>
<!-- Node2 -->
<g id="node2" class="node"><title>Node2</title>
<g id="a_node2"><a xlink:href="classore_1_1data_1_1_in_memory_loader.html#ab033d7bbd4da0af2f75abb8952fcacce" target="_top" xlink:title=" ">
<polygon fill="white" stroke="#666666" points="486,-141.5 331,-141.5 331,-122.5 486,-122.5 486,-141.5"/>
<text text-anchor="middle" x="408.5" y="-129.5" font-family="Helvetica,sans-Serif" font-size="10.00">ore::data::InMemoryLoader::add</text>
</a>
</g>
</g>
<!-- Node1&#45;&gt;Node2 -->
<g id="edge1" class="edge"><title>Node1&#45;&gt;Node2</title>
<path fill="none" stroke="#63b8ff" d="M554.117,-89.183C534.462,-96.6893 509.017,-105.968 486,-113 474.876,-116.399 462.705,-119.635 451.409,-122.442"/>
<polygon fill="#63b8ff" stroke="#63b8ff" points="555.472,-92.4118 563.544,-85.5495 552.954,-85.8802 555.472,-92.4118"/>
</g>
<!-- Node6 -->
<g id="node6" class="node"><title>Node6</title>
<g id="a_node6"><a xlink:href="classore_1_1data_1_1_c_s_v_loader.html#a8148586c75e4912f4d2d0ade83e34b19" target="_top" xlink:title="get quote by its unique name, throws if not existent, override in derived classes for performance">
<polygon fill="white" stroke="#666666" points="473.5,-104.5 343.5,-104.5 343.5,-85.5 473.5,-85.5 473.5,-104.5"/>
<text text-anchor="middle" x="408.5" y="-92.5" font-family="Helvetica,sans-Serif" font-size="10.00">ore::data::CSVLoader::get</text>
</a>
</g>
</g>
<!-- Node1&#45;&gt;Node6 -->
<g id="edge5" class="edge"><title>Node1&#45;&gt;Node6</title>
<path fill="none" stroke="#63b8ff" d="M511.883,-84.0715C499.17,-85.4284 486.085,-86.8252 473.697,-88.1475"/>
<polygon fill="#63b8ff" stroke="#63b8ff" points="512.406,-87.5357 521.978,-82.994 511.663,-80.5752 512.406,-87.5357"/>
</g>
<!-- Node8 -->
<g id="node8" class="node"><title>Node8</title>
<g id="a_node8"><a xlink:href="classore_1_1data_1_1_in_memory_loader.html#a8148586c75e4912f4d2d0ade83e34b19" target="_top" xlink:title="get quote by its unique name, throws if not existent, override in derived classes for performance">
<polygon fill="white" stroke="#666666" points="484.5,-67.5 332.5,-67.5 332.5,-48.5 484.5,-48.5 484.5,-67.5"/>
<text text-anchor="middle" x="408.5" y="-55.5" font-family="Helvetica,sans-Serif" font-size="10.00">ore::data::InMemoryLoader::get</text>
</a>
</g>
</g>
<!-- Node1&#45;&gt;Node8 -->
<g id="edge7" class="edge"><title>Node1&#45;&gt;Node8</title>
<path fill="none" stroke="#63b8ff" d="M511.854,-68.3504C502.799,-67.4347 493.554,-66.4999 484.508,-65.5851"/>
<polygon fill="#63b8ff" stroke="#63b8ff" points="511.676,-71.8502 521.978,-69.3741 512.381,-64.8857 511.676,-71.8502"/>
</g>
<!-- Node10 -->
<g id="node10" class="node"><title>Node10</title>
<g id="a_node10"><a xlink:href="classore_1_1data_1_1_c_s_v_loader.html#af8a277c7dc57076a3daec6356ccc1be3" target="_top" xlink:title=" ">
<polygon fill="white" stroke="#666666" points="463.5,-30 353.5,-30 353.5,-0 463.5,-0 463.5,-30"/>
<text text-anchor="start" x="361.5" y="-18" font-family="Helvetica,sans-Serif" font-size="10.00">ore::data::CSVLoader</text>
<text text-anchor="middle" x="408.5" y="-7" font-family="Helvetica,sans-Serif" font-size="10.00">::loadFile</text>
</a>
</g>
</g>
<!-- Node1&#45;&gt;Node10 -->
<g id="edge9" class="edge"><title>Node1&#45;&gt;Node10</title>
<path fill="none" stroke="#63b8ff" d="M552.761,-62.8924C533.222,-55.6322 508.338,-46.5711 486,-39 477.167,-36.0064 467.718,-32.9358 458.58,-30.0336"/>
<polygon fill="#63b8ff" stroke="#63b8ff" points="551.576,-66.1858 562.168,-66.4022 554.023,-59.6274 551.576,-66.1858"/>
</g>
<!-- Node3 -->
<g id="node3" class="node"><title>Node3</title>
<g id="a_node3"><a xlink:href="classore_1_1data_1_1_adjusted_in_memory_loader.html#a394ea65c115638a789b7e4793aed8f8a" target="_top" xlink:title=" ">
<polygon fill="white" stroke="#666666" points="290,-190 148,-190 148,-160 290,-160 290,-190"/>
<text text-anchor="start" x="156" y="-178" font-family="Helvetica,sans-Serif" font-size="10.00">ore::data::AdjustedInMemory</text>
<text text-anchor="middle" x="219" y="-167" font-family="Helvetica,sans-Serif" font-size="10.00">Loader::add</text>
</a>
</g>
</g>
<!-- Node2&#45;&gt;Node3 -->
<g id="edge2" class="edge"><title>Node2&#45;&gt;Node3</title>
<path fill="none" stroke="#63b8ff" d="M355.859,-143.843C334.091,-148.835 308.501,-154.704 285.434,-159.994"/>
<polygon fill="#63b8ff" stroke="#63b8ff" points="356.923,-147.19 365.888,-141.543 355.358,-140.367 356.923,-147.19"/>
</g>
<!-- Node4 -->
<g id="node4" class="node"><title>Node4</title>
<g id="a_node4"><a xlink:href="namespaceore_1_1data.html#a42f1390d171c5924c3fa721f51a32200" target="_top" xlink:title=" ">
<polygon fill="white" stroke="#666666" points="236.5,-141.5 201.5,-141.5 201.5,-122.5 236.5,-122.5 236.5,-141.5"/>
<text text-anchor="middle" x="219" y="-129.5" font-family="Helvetica,sans-Serif" font-size="10.00">load</text>
</a>
</g>
</g>
<!-- Node2&#45;&gt;Node4 -->
<g id="edge3" class="edge"><title>Node2&#45;&gt;Node4</title>
<path fill="none" stroke="#63b8ff" d="M320.686,-132C288.848,-132 255.938,-132 236.75,-132"/>
<polygon fill="#63b8ff" stroke="#63b8ff" points="320.966,-135.5 330.966,-132 320.966,-128.5 320.966,-135.5"/>
</g>
<!-- Node5 -->
<g id="node5" class="node"><title>Node5</title>
<g id="a_node5"><a xlink:href="namespaceore_1_1data.html#a22d0bfabdad131343a5f49618b7db10d" target="_top" xlink:title="Utility function for loading market quotes and fixings from an in memory csv buffer.">
<polygon fill="white" stroke="#666666" points="107,-141.5 0,-141.5 0,-122.5 107,-122.5 107,-141.5"/>
<text text-anchor="middle" x="53.5" y="-129.5" font-family="Helvetica,sans-Serif" font-size="10.00">loadDataFromBuffers</text>
</a>
</g>
</g>
<!-- Node4&#45;&gt;Node5 -->
<g id="edge4" class="edge"><title>Node4&#45;&gt;Node5</title>
<path fill="none" stroke="#63b8ff" d="M191.192,-132C168.489,-132 135.26,-132 107.25,-132"/>
<polygon fill="#63b8ff" stroke="#63b8ff" points="191.423,-135.5 201.423,-132 191.423,-128.5 191.423,-135.5"/>
</g>
<!-- Node7 -->
<g id="node7" class="node"><title>Node7</title>
<g id="a_node7"><a xlink:href="classore_1_1data_1_1_c_s_v_loader.html#ad511d01ae42756876d9a116d19d8107a" target="_top" xlink:title="get quotes matching a wildcard">
<polygon fill="white" stroke="#666666" points="284,-104.5 154,-104.5 154,-85.5 284,-85.5 284,-104.5"/>
<text text-anchor="middle" x="219" y="-92.5" font-family="Helvetica,sans-Serif" font-size="10.00">ore::data::CSVLoader::get</text>
</a>
</g>
</g>
<!-- Node6&#45;&gt;Node7 -->
<g id="edge6" class="edge"><title>Node6&#45;&gt;Node7</title>
<path fill="none" stroke="#63b8ff" d="M333.451,-95C317.111,-95 299.935,-95 284.032,-95"/>
<polygon fill="#63b8ff" stroke="#63b8ff" points="333.498,-98.5001 343.498,-95 333.498,-91.5001 333.498,-98.5001"/>
</g>
<!-- Node9 -->
<g id="node9" class="node"><title>Node9</title>
<g id="a_node9"><a xlink:href="classore_1_1data_1_1_in_memory_loader.html#ad511d01ae42756876d9a116d19d8107a" target="_top" xlink:title="get quotes matching a wildcard, this should be overriden in derived classes for performance">
<polygon fill="white" stroke="#666666" points="295,-67.5 143,-67.5 143,-48.5 295,-48.5 295,-67.5"/>
<text text-anchor="middle" x="219" y="-55.5" font-family="Helvetica,sans-Serif" font-size="10.00">ore::data::InMemoryLoader::get</text>
</a>
</g>
</g>
<!-- Node8&#45;&gt;Node9 -->
<g id="edge8" class="edge"><title>Node8&#45;&gt;Node9</title>
<path fill="none" stroke="#63b8ff" d="M322.207,-58C313.198,-58 304.083,-58 295.2,-58"/>
<polygon fill="#63b8ff" stroke="#63b8ff" points="322.317,-61.5001 332.317,-58 322.317,-54.5001 322.317,-61.5001"/>
</g>
<!-- Node11 -->
<g id="node11" class="node"><title>Node11</title>
<g id="a_node11"><a xlink:href="classore_1_1data_1_1_c_s_v_loader.html#a9cd43c2280d0cee91b282fe13b36679d" target="_top" xlink:title=" ">
<polygon fill="white" stroke="#666666" points="274,-30 164,-30 164,-0 274,-0 274,-30"/>
<text text-anchor="start" x="172" y="-18" font-family="Helvetica,sans-Serif" font-size="10.00">ore::data::CSVLoader</text>
<text text-anchor="middle" x="219" y="-7" font-family="Helvetica,sans-Serif" font-size="10.00">::CSVLoader</text>
</a>
</g>
</g>
<!-- Node10&#45;&gt;Node11 -->
<g id="edge10" class="edge"><title>Node10&#45;&gt;Node11</title>
<path fill="none" stroke="#63b8ff" d="M343.137,-15C320.657,-15 295.67,-15 274.111,-15"/>
<polygon fill="#63b8ff" stroke="#63b8ff" points="343.267,-18.5001 353.267,-15 343.267,-11.5001 343.267,-18.5001"/>
</g>
</g>
</svg>
        <g id="navigator" transform="translate(0 0)" fill="#404254">
                <rect fill="#f2f5e9" fill-opacity="0.5" stroke="#606060" stroke-width=".5" x="0" y="0" width="60" height="60"/>
                <use id="zoomplus" xlink:href="#zoomPlus" x="17" y="9" onmousedown="handleZoom(evt,'in')"/>
                <use id="zoomminus" xlink:href="#zoomMin" x="42" y="9" onmousedown="handleZoom(evt,'out')"/>
                <use id="reset" xlink:href="#resetDef" x="30" y="36" onmousedown="handleReset()"/>
                <g id="arrowUp" xlink:href="#dirArrow" transform="translate(30 24)" onmousedown="handlePan(0,-1)">
                  <use xlink:href="#rim" fill="#404040">
                        <set attributeName="fill" to="#808080" begin="arrowUp.mouseover" end="arrowUp.mouseout"/>
                  </use>
                  <path fill="none" stroke="white" stroke-width="1.5" d="M0,-3.0v7 M-2.5,-0.5L0,-3.0L2.5,-0.5"/>
                </g>
                <g id="arrowRight" xlink:href="#dirArrow" transform="rotate(90) translate(36 -43)" onmousedown="handlePan(1,0)">
                  <use xlink:href="#rim" fill="#404040">
                        <set attributeName="fill" to="#808080" begin="arrowRight.mouseover" end="arrowRight.mouseout"/>
                  </use>
                  <path fill="none" stroke="white" stroke-width="1.5" d="M0,-3.0v7 M-2.5,-0.5L0,-3.0L2.5,-0.5"/>
                </g>
                <g id="arrowDown" xlink:href="#dirArrow" transform="rotate(180) translate(-30 -48)" onmousedown="handlePan(0,1)">
                  <use xlink:href="#rim" fill="#404040">
                        <set attributeName="fill" to="#808080" begin="arrowDown.mouseover" end="arrowDown.mouseout"/>
                  </use>
                  <path fill="none" stroke="white" stroke-width="1.5" d="M0,-3.0v7 M-2.5,-0.5L0,-3.0L2.5,-0.5"/>
                </g>
                <g id="arrowLeft" xlink:href="#dirArrow" transform="rotate(270) translate(-36 17)" onmousedown="handlePan(-1,0)">
                  <use xlink:href="#rim" fill="#404040">
                        <set attributeName="fill" to="#808080" begin="arrowLeft.mouseover" end="arrowLeft.mouseout"/>
                  </use>
                  <path fill="none" stroke="white" stroke-width="1.5" d="M0,-3.0v7 M-2.5,-0.5L0,-3.0L2.5,-0.5"/>
                </g>
        </g>
        <svg viewBox="0 0 15 15" width="100%" height="30px" preserveAspectRatio="xMaxYMin meet">
         <g id="arrow_out" transform="scale(0.3 0.3)">
          <a xlink:href="namespaceore_1_1data_ad54d6392da5740836cc7336a525c67c3_icgraph_org.svg" target="_base">
           <rect id="button" ry="5" rx="5" y="6" x="6" height="38" width="38"
                fill="#f2f5e9" fill-opacity="0.5" stroke="#606060" stroke-width="1.0"/>
           <path id="arrow"
             d="M 11.500037,31.436501 C 11.940474,20.09759 22.043105,11.32322 32.158766,21.979434 L 37.068811,17.246167 C 37.068811,17.246167 37.088388,32 37.088388,32 L 22.160133,31.978069 C 22.160133,31.978069 26.997745,27.140456 26.997745,27.140456 C 18.528582,18.264221 13.291696,25.230495 11.500037,31.436501 z"
             style="fill:#404040;"/>
          </a>
         </g>
        </svg>
</svg>
