<?xml version="1.0" encoding="UTF-8" standalone="no"?>
<!DOCTYPE svg PUBLIC "-//W3C//DTD SVG 1.1//EN"
 "http://www.w3.org/Graphics/SVG/1.1/DTD/svg11.dtd">
<!-- Generated by graphviz version 2.38.0 (20140413.2041)
 -->
<!-- Title: parseYieldCurveSegment Pages: 1 -->
<svg width="675pt" height="566pt"
 viewBox="0.00 0.00 675.00 566.00" xmlns="http://www.w3.org/2000/svg" xmlns:xlink="http://www.w3.org/1999/xlink">
<g id="graph0" class="graph" transform="scale(1 1) rotate(0) translate(4 562)">
<title>parseYieldCurveSegment</title>
<!-- Node1 -->
<g id="node1" class="node"><title>Node1</title>
<g id="a_node1"><a xlink:title=" ">
<polygon fill="#999999" stroke="#666666" points="667,-288.5 542,-288.5 542,-269.5 667,-269.5 667,-288.5"/>
<text text-anchor="middle" x="604.5" y="-276.5" font-family="Helvetica,sans-Serif" font-size="10.00">parseYieldCurveSegment</text>
</a>
</g>
</g>
<!-- Node2 -->
<g id="node2" class="node"><title>Node2</title>
<g id="a_node2"><a xlink:href="classore_1_1data_1_1_yield_curve_segment.html#a7741ae0fc924943de5bfe02928262eb7" target="_top" xlink:title=" ">
<polygon fill="white" stroke="#666666" points="506,-294 360,-294 360,-264 506,-264 506,-294"/>
<text text-anchor="start" x="368" y="-282" font-family="Helvetica,sans-Serif" font-size="10.00">ore::data::YieldCurveSegment</text>
<text text-anchor="middle" x="433" y="-271" font-family="Helvetica,sans-Serif" font-size="10.00">::fromXML</text>
</a>
</g>
</g>
<!-- Node1&#45;&gt;Node2 -->
<g id="edge1" class="edge"><title>Node1&#45;&gt;Node2</title>
<path fill="none" stroke="#63b8ff" d="M531.681,-279C523.273,-279 514.691,-279 506.277,-279"/>
<polygon fill="#63b8ff" stroke="#63b8ff" points="531.827,-282.5 541.827,-279 531.827,-275.5 531.827,-282.5"/>
</g>
<!-- Node3 -->
<g id="node3" class="node"><title>Node3</title>
<g id="a_node3"><a xlink:href="classore_1_1data_1_1_direct_yield_curve_segment.html#a7741ae0fc924943de5bfe02928262eb7" target="_top" xlink:title=" ">
<polygon fill="white" stroke="#666666" points="317.5,-558 185.5,-558 185.5,-528 317.5,-528 317.5,-558"/>
<text text-anchor="start" x="193.5" y="-546" font-family="Helvetica,sans-Serif" font-size="10.00">ore::data::DirectYieldCurve</text>
<text text-anchor="middle" x="251.5" y="-535" font-family="Helvetica,sans-Serif" font-size="10.00">Segment::fromXML</text>
</a>
</g>
</g>
<!-- Node2&#45;&gt;Node3 -->
<g id="edge2" class="edge"><title>Node2&#45;&gt;Node3</title>
<path fill="none" stroke="#63b8ff" d="M427.601,-304.063C417.801,-352.529 389.649,-459.549 324,-519 320.215,-522.428 315.924,-525.368 311.368,-527.89"/>
<polygon fill="#63b8ff" stroke="#63b8ff" points="431.062,-304.599 429.518,-294.117 424.189,-303.274 431.062,-304.599"/>
</g>
<!-- Node4 -->
<g id="node4" class="node"><title>Node4</title>
<g id="a_node4"><a xlink:href="classore_1_1data_1_1_simple_yield_curve_segment.html#a7741ae0fc924943de5bfe02928262eb7" target="_top" xlink:title=" ">
<polygon fill="white" stroke="#666666" points="320,-510 183,-510 183,-480 320,-480 320,-510"/>
<text text-anchor="start" x="191" y="-498" font-family="Helvetica,sans-Serif" font-size="10.00">ore::data::SimpleYieldCurve</text>
<text text-anchor="middle" x="251.5" y="-487" font-family="Helvetica,sans-Serif" font-size="10.00">Segment::fromXML</text>
</a>
</g>
</g>
<!-- Node2&#45;&gt;Node4 -->
<g id="edge3" class="edge"><title>Node2&#45;&gt;Node4</title>
<path fill="none" stroke="#63b8ff" d="M424.547,-303.859C411.086,-344.601 378.896,-425.589 324,-471 319.863,-474.422 315.218,-477.363 310.333,-479.89"/>
<polygon fill="#63b8ff" stroke="#63b8ff" points="427.929,-304.775 427.64,-294.184 421.261,-302.643 427.929,-304.775"/>
</g>
<!-- Node5 -->
<g id="node5" class="node"><title>Node5</title>
<g id="a_node5"><a xlink:href="classore_1_1data_1_1_average_o_i_s_yield_curve_segment.html#a7741ae0fc924943de5bfe02928262eb7" target="_top" xlink:title=" ">
<polygon fill="white" stroke="#666666" points="318.5,-462 184.5,-462 184.5,-432 318.5,-432 318.5,-462"/>
<text text-anchor="start" x="192.5" y="-450" font-family="Helvetica,sans-Serif" font-size="10.00">ore::data::AverageOISYield</text>
<text text-anchor="middle" x="251.5" y="-439" font-family="Helvetica,sans-Serif" font-size="10.00">CurveSegment::fromXML</text>
</a>
</g>
</g>
<!-- Node2&#45;&gt;Node5 -->
<g id="edge4" class="edge"><title>Node2&#45;&gt;Node5</title>
<path fill="none" stroke="#63b8ff" d="M419.958,-303.065C402.839,-334.928 368.537,-390.828 324,-423 319.224,-426.45 313.917,-429.429 308.414,-431.996"/>
<polygon fill="#63b8ff" stroke="#63b8ff" points="423.167,-304.483 424.712,-294.001 416.968,-301.231 423.167,-304.483"/>
</g>
<!-- Node6 -->
<g id="node6" class="node"><title>Node6</title>
<g id="a_node6"><a xlink:href="classore_1_1data_1_1_tenor_basis_yield_curve_segment.html#a7741ae0fc924943de5bfe02928262eb7" target="_top" xlink:title=" ">
<polygon fill="white" stroke="#666666" points="317,-414 186,-414 186,-384 317,-384 317,-414"/>
<text text-anchor="start" x="194" y="-402" font-family="Helvetica,sans-Serif" font-size="10.00">ore::data::TenorBasisYield</text>
<text text-anchor="middle" x="251.5" y="-391" font-family="Helvetica,sans-Serif" font-size="10.00">CurveSegment::fromXML</text>
</a>
</g>
</g>
<!-- Node2&#45;&gt;Node6 -->
<g id="edge5" class="edge"><title>Node2&#45;&gt;Node6</title>
<path fill="none" stroke="#63b8ff" d="M411.918,-301.48C391.618,-323 358.409,-355.058 324,-375 318.222,-378.348 311.909,-381.315 305.503,-383.92"/>
<polygon fill="#63b8ff" stroke="#63b8ff" points="414.557,-303.781 418.791,-294.07 409.425,-299.021 414.557,-303.781"/>
</g>
<!-- Node7 -->
<g id="node7" class="node"><title>Node7</title>
<g id="a_node7"><a xlink:href="classore_1_1data_1_1_cross_ccy_yield_curve_segment.html#a7741ae0fc924943de5bfe02928262eb7" target="_top" xlink:title=" ">
<polygon fill="white" stroke="#666666" points="314,-366 189,-366 189,-336 314,-336 314,-366"/>
<text text-anchor="start" x="197" y="-354" font-family="Helvetica,sans-Serif" font-size="10.00">ore::data::CrossCcyYield</text>
<text text-anchor="middle" x="251.5" y="-343" font-family="Helvetica,sans-Serif" font-size="10.00">CurveSegment::fromXML</text>
</a>
</g>
</g>
<!-- Node2&#45;&gt;Node7 -->
<g id="edge6" class="edge"><title>Node2&#45;&gt;Node7</title>
<path fill="none" stroke="#63b8ff" d="M391.052,-298.293C371.024,-307.447 346.451,-318.265 324,-327 316.19,-330.038 307.817,-333.058 299.649,-335.877"/>
<polygon fill="#63b8ff" stroke="#63b8ff" points="392.578,-301.443 400.199,-294.083 389.651,-295.084 392.578,-301.443"/>
</g>
<!-- Node8 -->
<g id="node8" class="node"><title>Node8</title>
<g id="a_node8"><a xlink:href="classore_1_1data_1_1_zero_spreaded_yield_curve_segment.html#a7741ae0fc924943de5bfe02928262eb7" target="_top" xlink:title=" ">
<polygon fill="white" stroke="#666666" points="323,-318 180,-318 180,-288 323,-288 323,-318"/>
<text text-anchor="start" x="188" y="-306" font-family="Helvetica,sans-Serif" font-size="10.00">ore::data::ZeroSpreadedYield</text>
<text text-anchor="middle" x="251.5" y="-295" font-family="Helvetica,sans-Serif" font-size="10.00">CurveSegment::fromXML</text>
</a>
</g>
</g>
<!-- Node2&#45;&gt;Node8 -->
<g id="edge7" class="edge"><title>Node2&#45;&gt;Node8</title>
<path fill="none" stroke="#63b8ff" d="M349.777,-289.994C340.875,-291.184 331.874,-292.387 323.127,-293.557"/>
<polygon fill="#63b8ff" stroke="#63b8ff" points="350.318,-293.452 359.766,-288.658 349.391,-286.514 350.318,-293.452"/>
</g>
<!-- Node9 -->
<g id="node9" class="node"><title>Node9</title>
<g id="a_node9"><a xlink:href="classore_1_1data_1_1_weighted_average_yield_curve_segment.html#a7741ae0fc924943de5bfe02928262eb7" target="_top" xlink:title=" ">
<polygon fill="white" stroke="#666666" points="324,-270 179,-270 179,-240 324,-240 324,-270"/>
<text text-anchor="start" x="187" y="-258" font-family="Helvetica,sans-Serif" font-size="10.00">ore::data::WeightedAverage</text>
<text text-anchor="middle" x="251.5" y="-247" font-family="Helvetica,sans-Serif" font-size="10.00">YieldCurveSegment::fromXML</text>
</a>
</g>
</g>
<!-- Node2&#45;&gt;Node9 -->
<g id="edge8" class="edge"><title>Node2&#45;&gt;Node9</title>
<path fill="none" stroke="#63b8ff" d="M349.74,-268.001C341.147,-266.853 332.461,-265.691 324.002,-264.56"/>
<polygon fill="#63b8ff" stroke="#63b8ff" points="349.391,-271.486 359.766,-269.342 350.318,-264.548 349.391,-271.486"/>
</g>
<!-- Node10 -->
<g id="node10" class="node"><title>Node10</title>
<g id="a_node10"><a xlink:href="classore_1_1data_1_1_yield_plus_default_yield_curve_segment.html#a7741ae0fc924943de5bfe02928262eb7" target="_top" xlink:title=" ">
<polygon fill="white" stroke="#666666" points="324,-222 179,-222 179,-192 324,-192 324,-222"/>
<text text-anchor="start" x="187" y="-210" font-family="Helvetica,sans-Serif" font-size="10.00">ore::data::YieldPlusDefault</text>
<text text-anchor="middle" x="251.5" y="-199" font-family="Helvetica,sans-Serif" font-size="10.00">YieldCurveSegment::fromXML</text>
</a>
</g>
</g>
<!-- Node2&#45;&gt;Node10 -->
<g id="edge9" class="edge"><title>Node2&#45;&gt;Node10</title>
<path fill="none" stroke="#63b8ff" d="M391.052,-259.707C371.024,-250.553 346.451,-239.735 324,-231 316.19,-227.962 307.817,-224.942 299.649,-222.123"/>
<polygon fill="#63b8ff" stroke="#63b8ff" points="389.651,-262.916 400.199,-263.917 392.578,-256.557 389.651,-262.916"/>
</g>
<!-- Node11 -->
<g id="node11" class="node"><title>Node11</title>
<g id="a_node11"><a xlink:href="classore_1_1data_1_1_discount_ratio_yield_curve_segment.html#a7741ae0fc924943de5bfe02928262eb7" target="_top" xlink:title=" ">
<polygon fill="white" stroke="#666666" points="324,-174 179,-174 179,-144 324,-144 324,-174"/>
<text text-anchor="start" x="187" y="-162" font-family="Helvetica,sans-Serif" font-size="10.00">ore::data::DiscountRatio</text>
<text text-anchor="middle" x="251.5" y="-151" font-family="Helvetica,sans-Serif" font-size="10.00">YieldCurveSegment::fromXML</text>
</a>
</g>
</g>
<!-- Node2&#45;&gt;Node11 -->
<g id="edge10" class="edge"><title>Node2&#45;&gt;Node11</title>
<path fill="none" stroke="#63b8ff" d="M411.918,-256.52C391.618,-235 358.409,-202.942 324,-183 318.222,-179.652 311.909,-176.685 305.503,-174.08"/>
<polygon fill="#63b8ff" stroke="#63b8ff" points="409.425,-258.979 418.791,-263.93 414.557,-254.219 409.425,-258.979"/>
</g>
<!-- Node13 -->
<g id="node13" class="node"><title>Node13</title>
<g id="a_node13"><a xlink:href="classore_1_1data_1_1_fitted_bond_yield_curve_segment.html#a7741ae0fc924943de5bfe02928262eb7" target="_top" xlink:title=" ">
<polygon fill="white" stroke="#666666" points="316.5,-126 186.5,-126 186.5,-96 316.5,-96 316.5,-126"/>
<text text-anchor="start" x="194.5" y="-114" font-family="Helvetica,sans-Serif" font-size="10.00">ore::data::FittedBondYield</text>
<text text-anchor="middle" x="251.5" y="-103" font-family="Helvetica,sans-Serif" font-size="10.00">CurveSegment::fromXML</text>
</a>
</g>
</g>
<!-- Node2&#45;&gt;Node13 -->
<g id="edge12" class="edge"><title>Node2&#45;&gt;Node13</title>
<path fill="none" stroke="#63b8ff" d="M419.958,-254.935C402.839,-223.072 368.537,-167.172 324,-135 319.224,-131.55 313.917,-128.571 308.414,-126.004"/>
<polygon fill="#63b8ff" stroke="#63b8ff" points="416.968,-256.769 424.712,-263.999 423.167,-253.517 416.968,-256.769"/>
</g>
<!-- Node14 -->
<g id="node14" class="node"><title>Node14</title>
<g id="a_node14"><a xlink:href="classore_1_1data_1_1_ibor_fallback_curve_segment.html#a7741ae0fc924943de5bfe02928262eb7" target="_top" xlink:title=" ">
<polygon fill="white" stroke="#666666" points="320,-78 183,-78 183,-48 320,-48 320,-78"/>
<text text-anchor="start" x="191" y="-66" font-family="Helvetica,sans-Serif" font-size="10.00">ore::data::IborFallbackCurve</text>
<text text-anchor="middle" x="251.5" y="-55" font-family="Helvetica,sans-Serif" font-size="10.00">Segment::fromXML</text>
</a>
</g>
</g>
<!-- Node2&#45;&gt;Node14 -->
<g id="edge13" class="edge"><title>Node2&#45;&gt;Node14</title>
<path fill="none" stroke="#63b8ff" d="M424.547,-254.141C411.086,-213.399 378.896,-132.411 324,-87 319.863,-83.5781 315.218,-80.6367 310.333,-78.1096"/>
<polygon fill="#63b8ff" stroke="#63b8ff" points="421.261,-255.357 427.64,-263.816 427.929,-253.225 421.261,-255.357"/>
</g>
<!-- Node15 -->
<g id="node15" class="node"><title>Node15</title>
<g id="a_node15"><a xlink:href="classore_1_1data_1_1_bond_yield_shifted_yield_curve_segment.html#a7741ae0fc924943de5bfe02928262eb7" target="_top" xlink:title=" ">
<polygon fill="white" stroke="#666666" points="324,-30 179,-30 179,-0 324,-0 324,-30"/>
<text text-anchor="start" x="187" y="-18" font-family="Helvetica,sans-Serif" font-size="10.00">ore::data::BondYieldShifted</text>
<text text-anchor="middle" x="251.5" y="-7" font-family="Helvetica,sans-Serif" font-size="10.00">YieldCurveSegment::fromXML</text>
</a>
</g>
</g>
<!-- Node2&#45;&gt;Node15 -->
<g id="edge14" class="edge"><title>Node2&#45;&gt;Node15</title>
<path fill="none" stroke="#63b8ff" d="M427.601,-253.937C417.801,-205.471 389.649,-98.451 324,-39 320.215,-35.5722 315.924,-32.6318 311.368,-30.1098"/>
<polygon fill="#63b8ff" stroke="#63b8ff" points="424.189,-254.726 429.518,-263.883 431.062,-253.401 424.189,-254.726"/>
</g>
<!-- Node12 -->
<g id="node12" class="node"><title>Node12</title>
<g id="a_node12"><a xlink:href="test_2curveconfig_8cpp.html#ac3d1d49df97d682bf9887e65c4156404" target="_top" xlink:title=" ">
<polygon fill="white" stroke="#666666" points="143,-168.5 0,-168.5 0,-149.5 143,-149.5 143,-168.5"/>
<text text-anchor="middle" x="71.5" y="-156.5" font-family="Helvetica,sans-Serif" font-size="10.00">BOOST_AUTO_TEST_CASE</text>
</a>
</g>
</g>
<!-- Node11&#45;&gt;Node12 -->
<g id="edge11" class="edge"><title>Node11&#45;&gt;Node12</title>
<path fill="none" stroke="#63b8ff" d="M168.845,-159C160.252,-159 151.568,-159 143.115,-159"/>
<polygon fill="#63b8ff" stroke="#63b8ff" points="168.87,-162.5 178.87,-159 168.87,-155.5 168.87,-162.5"/>
</g>
</g>
</svg>
