<?xml version="1.0" encoding="UTF-8" standalone="no"?>
<!DOCTYPE svg PUBLIC "-//W3C//DTD SVG 1.1//EN"
 "http://www.w3.org/Graphics/SVG/1.1/DTD/svg11.dtd">
<!-- Generated by graphviz version 2.38.0 (20140413.2041)
 -->
<!-- Title: buildFxIndex Pages: 1 -->
<svg width="668pt" height="1292pt"
 viewBox="0.00 0.00 668.00 1291.50" xmlns="http://www.w3.org/2000/svg" xmlns:xlink="http://www.w3.org/1999/xlink">
<g id="graph0" class="graph" transform="scale(1 1) rotate(0) translate(4 1287.5)">
<title>buildFxIndex</title>
<!-- Node1 -->
<g id="node1" class="node"><title>Node1</title>
<g id="a_node1"><a xlink:title=" ">
<polygon fill="#999999" stroke="#666666" points="660,-518 589,-518 589,-499 660,-499 660,-518"/>
<text text-anchor="middle" x="624.5" y="-506" font-family="Helvetica,sans-Serif" font-size="10.00">buildFxIndex</text>
</a>
</g>
</g>
<!-- Node2 -->
<g id="node2" class="node"><title>Node2</title>
<g id="a_node2"><a xlink:href="namespaceore_1_1data.html#a5d06d31ceafbb5a0bf0f9a4dbd09ab7e" target="_top" xlink:title=" ">
<polygon fill="white" stroke="#666666" points="512,-942 436,-942 436,-923 512,-923 512,-942"/>
<text text-anchor="middle" x="474" y="-930" font-family="Helvetica,sans-Serif" font-size="10.00">applyIndexing</text>
</a>
</g>
</g>
<!-- Node1&#45;&gt;Node2 -->
<g id="edge1" class="edge"><title>Node1&#45;&gt;Node2</title>
<path fill="none" stroke="#63b8ff" d="M624.081,-528.349C624.863,-585.387 620.862,-752.991 553,-867.5 538.262,-892.37 510.395,-912.051 492.27,-922.985"/>
<polygon fill="#63b8ff" stroke="#63b8ff" points="627.577,-528.114 623.871,-518.188 620.579,-528.259 627.577,-528.114"/>
</g>
<!-- Node8 -->
<g id="node8" class="node"><title>Node8</title>
<g id="a_node8"><a xlink:href="classore_1_1data_1_1_fixed_leg_builder.html#aea285351d9f3458189a9e2d965349d23" target="_top" xlink:title=" ">
<polygon fill="white" stroke="#666666" points="334.5,-1283.5 203.5,-1283.5 203.5,-1253.5 334.5,-1253.5 334.5,-1283.5"/>
<text text-anchor="start" x="211.5" y="-1271.5" font-family="Helvetica,sans-Serif" font-size="10.00">ore::data::FixedLegBuilder</text>
<text text-anchor="middle" x="269" y="-1260.5" font-family="Helvetica,sans-Serif" font-size="10.00">::buildLeg</text>
</a>
</g>
</g>
<!-- Node1&#45;&gt;Node8 -->
<g id="edge40" class="edge"><title>Node1&#45;&gt;Node8</title>
<path fill="none" stroke="#63b8ff" d="M622.904,-528.292C619.959,-616.836 604.945,-976.542 553,-1074.5 499.291,-1175.78 460.073,-1190.4 359,-1244.5 351.381,-1248.58 343.016,-1252 334.56,-1254.87"/>
<polygon fill="#63b8ff" stroke="#63b8ff" points="626.41,-528.16 623.23,-518.054 619.414,-527.937 626.41,-528.16"/>
</g>
<!-- Node11 -->
<g id="node11" class="node"><title>Node11</title>
<g id="a_node11"><a xlink:href="classore_1_1data_1_1_floating_leg_builder.html#aea285351d9f3458189a9e2d965349d23" target="_top" xlink:title=" ">
<polygon fill="white" stroke="#666666" points="339.5,-1235.5 198.5,-1235.5 198.5,-1205.5 339.5,-1205.5 339.5,-1235.5"/>
<text text-anchor="start" x="206.5" y="-1223.5" font-family="Helvetica,sans-Serif" font-size="10.00">ore::data::FloatingLegBuilder</text>
<text text-anchor="middle" x="269" y="-1212.5" font-family="Helvetica,sans-Serif" font-size="10.00">::buildLeg</text>
</a>
</g>
</g>
<!-- Node1&#45;&gt;Node11 -->
<g id="edge41" class="edge"><title>Node1&#45;&gt;Node11</title>
<path fill="none" stroke="#63b8ff" d="M623.842,-528.308C624.24,-592.448 619.915,-799.121 553,-951.5 497.155,-1078.67 475.009,-1120.13 359,-1196.5 353.119,-1200.37 346.63,-1203.62 339.916,-1206.35"/>
<polygon fill="#63b8ff" stroke="#63b8ff" points="627.339,-527.995 623.727,-518.035 620.34,-528.074 627.339,-527.995"/>
</g>
<!-- Node21 -->
<g id="node21" class="node"><title>Node21</title>
<g id="a_node21"><a xlink:href="classore_1_1data_1_1_commodity_floating_leg_builder.html#a1e327fffe1588e7813e797d48b1b3420" target="_top" xlink:title=" ">
<polygon fill="white" stroke="#666666" points="341.5,-707.5 196.5,-707.5 196.5,-677.5 341.5,-677.5 341.5,-707.5"/>
<text text-anchor="start" x="204.5" y="-695.5" font-family="Helvetica,sans-Serif" font-size="10.00">ore::data::CommodityFloating</text>
<text text-anchor="middle" x="269" y="-684.5" font-family="Helvetica,sans-Serif" font-size="10.00">LegBuilder::buildLeg</text>
</a>
</g>
</g>
<!-- Node1&#45;&gt;Node21 -->
<g id="edge44" class="edge"><title>Node1&#45;&gt;Node21</title>
<path fill="none" stroke="#63b8ff" d="M622.36,-528.246C618.184,-592.769 601.358,-795.482 553,-834.5 498.349,-878.596 451.436,-876.286 395,-834.5 350.933,-801.872 398.4,-754.632 359,-716.5 353.94,-711.603 347.99,-707.68 341.606,-704.542"/>
<polygon fill="#63b8ff" stroke="#63b8ff" points="625.858,-528.38 622.979,-518.184 618.871,-527.95 625.858,-528.38"/>
</g>
<!-- Node22 -->
<g id="node22" class="node"><title>Node22</title>
<g id="a_node22"><a xlink:href="classore_1_1data_1_1_bond_t_r_s.html#af7b69d5b18d278257927e32b10a23ee6" target="_top" xlink:title=" ">
<polygon fill="white" stroke="#666666" points="525,-825.5 423,-825.5 423,-795.5 525,-795.5 525,-825.5"/>
<text text-anchor="start" x="431" y="-813.5" font-family="Helvetica,sans-Serif" font-size="10.00">ore::data::BondTRS</text>
<text text-anchor="middle" x="474" y="-802.5" font-family="Helvetica,sans-Serif" font-size="10.00">::build</text>
</a>
</g>
</g>
<!-- Node1&#45;&gt;Node22 -->
<g id="edge21" class="edge"><title>Node1&#45;&gt;Node22</title>
<path fill="none" stroke="#63b8ff" d="M620.982,-528.508C613.396,-585.769 589.035,-748.611 553,-786.5 545.482,-794.405 535.429,-799.726 525.048,-803.302"/>
<polygon fill="#63b8ff" stroke="#63b8ff" points="624.497,-528.618 622.31,-518.252 617.555,-527.72 624.497,-528.618"/>
</g>
<!-- Node23 -->
<g id="node23" class="node"><title>Node23</title>
<g id="a_node23"><a xlink:href="classore_1_1data_1_1_commodity_forward.html#af7b69d5b18d278257927e32b10a23ee6" target="_top" xlink:title=" ">
<polygon fill="white" stroke="#666666" points="546.5,-777.5 401.5,-777.5 401.5,-747.5 546.5,-747.5 546.5,-777.5"/>
<text text-anchor="start" x="409.5" y="-765.5" font-family="Helvetica,sans-Serif" font-size="10.00">ore::data::CommodityForward</text>
<text text-anchor="middle" x="474" y="-754.5" font-family="Helvetica,sans-Serif" font-size="10.00">::build</text>
</a>
</g>
</g>
<!-- Node1&#45;&gt;Node23 -->
<g id="edge22" class="edge"><title>Node1&#45;&gt;Node23</title>
<path fill="none" stroke="#63b8ff" d="M623.321,-528.469C621.819,-572.669 611.921,-679.516 553,-738.5 549.596,-741.908 545.72,-744.834 541.557,-747.346"/>
<polygon fill="#63b8ff" stroke="#63b8ff" points="626.821,-528.5 623.549,-518.423 619.823,-528.341 626.821,-528.5"/>
</g>
<!-- Node24 -->
<g id="node24" class="node"><title>Node24</title>
<g id="a_node24"><a xlink:href="classore_1_1data_1_1_equity_outperformance_option.html#af7b69d5b18d278257927e32b10a23ee6" target="_top" xlink:title="Build QuantLib/QuantExt instrument, link pricing engine.">
<polygon fill="white" stroke="#666666" points="553,-729.5 395,-729.5 395,-699.5 553,-699.5 553,-729.5"/>
<text text-anchor="start" x="403" y="-717.5" font-family="Helvetica,sans-Serif" font-size="10.00">ore::data::EquityOutperformance</text>
<text text-anchor="middle" x="474" y="-706.5" font-family="Helvetica,sans-Serif" font-size="10.00">Option::build</text>
</a>
</g>
</g>
<!-- Node1&#45;&gt;Node24 -->
<g id="edge23" class="edge"><title>Node1&#45;&gt;Node24</title>
<path fill="none" stroke="#63b8ff" d="M621.49,-528.026C616.63,-565.092 600.865,-645.921 553,-690.5 549.268,-693.976 545.042,-696.949 540.537,-699.492"/>
<polygon fill="#63b8ff" stroke="#63b8ff" points="624.975,-528.357 622.671,-518.016 618.023,-527.537 624.975,-528.357"/>
</g>
<!-- Node25 -->
<g id="node25" class="node"><title>Node25</title>
<g id="a_node25"><a xlink:href="classore_1_1data_1_1_fx_average_forward.html#af7b69d5b18d278257927e32b10a23ee6" target="_top" xlink:title="Build QuantLib/QuantExt instrument, link pricing engine.">
<polygon fill="white" stroke="#666666" points="544.5,-681.5 403.5,-681.5 403.5,-651.5 544.5,-651.5 544.5,-681.5"/>
<text text-anchor="start" x="411.5" y="-669.5" font-family="Helvetica,sans-Serif" font-size="10.00">ore::data::FxAverageForward</text>
<text text-anchor="middle" x="474" y="-658.5" font-family="Helvetica,sans-Serif" font-size="10.00">::build</text>
</a>
</g>
</g>
<!-- Node1&#45;&gt;Node25 -->
<g id="edge24" class="edge"><title>Node1&#45;&gt;Node25</title>
<path fill="none" stroke="#63b8ff" d="M618.345,-527.869C609.672,-556.764 589.432,-611.014 553,-641.5 548.42,-645.333 543.243,-648.581 537.788,-651.333"/>
<polygon fill="#63b8ff" stroke="#63b8ff" points="621.743,-528.715 621.113,-518.139 615.01,-526.8 621.743,-528.715"/>
</g>
<!-- Node26 -->
<g id="node26" class="node"><title>Node26</title>
<g id="a_node26"><a xlink:href="classore_1_1data_1_1_fx_digital_barrier_option.html#af7b69d5b18d278257927e32b10a23ee6" target="_top" xlink:title="Build QuantLib/QuantExt instrument, link pricing engine.">
<polygon fill="white" stroke="#666666" points="538,-595.5 410,-595.5 410,-565.5 538,-565.5 538,-595.5"/>
<text text-anchor="start" x="418" y="-583.5" font-family="Helvetica,sans-Serif" font-size="10.00">ore::data::FxDigitalBarrier</text>
<text text-anchor="middle" x="474" y="-572.5" font-family="Helvetica,sans-Serif" font-size="10.00">Option::build</text>
</a>
</g>
</g>
<!-- Node1&#45;&gt;Node26 -->
<g id="edge25" class="edge"><title>Node1&#45;&gt;Node26</title>
<path fill="none" stroke="#63b8ff" d="M603.566,-524.462C589.959,-534.74 571.172,-547.764 553,-556.5 546.105,-559.815 538.648,-562.799 531.173,-565.445"/>
<polygon fill="#63b8ff" stroke="#63b8ff" points="605.927,-527.061 611.7,-518.178 601.647,-521.522 605.927,-527.061"/>
</g>
<!-- Node28 -->
<g id="node28" class="node"><title>Node28</title>
<g id="a_node28"><a xlink:href="classore_1_1data_1_1_fx_double_touch_option.html#af7b69d5b18d278257927e32b10a23ee6" target="_top" xlink:title="Build QuantLib/QuantExt instrument, link pricing engine.">
<polygon fill="white" stroke="#666666" points="538,-547.5 410,-547.5 410,-517.5 538,-517.5 538,-547.5"/>
<text text-anchor="start" x="418" y="-535.5" font-family="Helvetica,sans-Serif" font-size="10.00">ore::data::FxDoubleTouch</text>
<text text-anchor="middle" x="474" y="-524.5" font-family="Helvetica,sans-Serif" font-size="10.00">Option::build</text>
</a>
</g>
</g>
<!-- Node1&#45;&gt;Node28 -->
<g id="edge27" class="edge"><title>Node1&#45;&gt;Node28</title>
<path fill="none" stroke="#63b8ff" d="M578.763,-515.73C565.976,-517.797 551.793,-520.089 538.125,-522.298"/>
<polygon fill="#63b8ff" stroke="#63b8ff" points="579.37,-519.178 588.683,-514.127 578.253,-512.267 579.37,-519.178"/>
</g>
<!-- Node30 -->
<g id="node30" class="node"><title>Node30</title>
<g id="a_node30"><a xlink:href="classore_1_1data_1_1_fx_european_barrier_option.html#af7b69d5b18d278257927e32b10a23ee6" target="_top" xlink:title="Build QuantLib/QuantExt instrument, link pricing engine.">
<polygon fill="white" stroke="#666666" points="545,-499.5 403,-499.5 403,-469.5 545,-469.5 545,-499.5"/>
<text text-anchor="start" x="411" y="-487.5" font-family="Helvetica,sans-Serif" font-size="10.00">ore::data::FxEuropeanBarrier</text>
<text text-anchor="middle" x="474" y="-476.5" font-family="Helvetica,sans-Serif" font-size="10.00">Option::build</text>
</a>
</g>
</g>
<!-- Node1&#45;&gt;Node30 -->
<g id="edge29" class="edge"><title>Node1&#45;&gt;Node30</title>
<path fill="none" stroke="#63b8ff" d="M578.522,-501.231C568.01,-499.532 556.567,-497.683 545.248,-495.853"/>
<polygon fill="#63b8ff" stroke="#63b8ff" points="578.253,-504.733 588.683,-502.873 579.37,-497.822 578.253,-504.733"/>
</g>
<!-- Node32 -->
<g id="node32" class="node"><title>Node32</title>
<g id="a_node32"><a xlink:href="classore_1_1data_1_1_fx_forward.html#af7b69d5b18d278257927e32b10a23ee6" target="_top" xlink:title="Build QuantLib/QuantExt instrument, link pricing engine.">
<polygon fill="white" stroke="#666666" points="527.5,-451.5 420.5,-451.5 420.5,-421.5 527.5,-421.5 527.5,-451.5"/>
<text text-anchor="start" x="428.5" y="-439.5" font-family="Helvetica,sans-Serif" font-size="10.00">ore::data::FxForward</text>
<text text-anchor="middle" x="474" y="-428.5" font-family="Helvetica,sans-Serif" font-size="10.00">::build</text>
</a>
</g>
</g>
<!-- Node1&#45;&gt;Node32 -->
<g id="edge31" class="edge"><title>Node1&#45;&gt;Node32</title>
<path fill="none" stroke="#63b8ff" d="M603.566,-492.538C589.959,-482.26 571.172,-469.236 553,-460.5 545.083,-456.694 536.426,-453.324 527.851,-450.402"/>
<polygon fill="#63b8ff" stroke="#63b8ff" points="601.647,-495.478 611.7,-498.822 605.927,-489.939 601.647,-495.478"/>
</g>
<!-- Node34 -->
<g id="node34" class="node"><title>Node34</title>
<g id="a_node34"><a xlink:href="classore_1_1data_1_1_fx_option.html#af7b69d5b18d278257927e32b10a23ee6" target="_top" xlink:title="Build QuantLib/QuantExt instrument, link pricing engine.">
<polygon fill="white" stroke="#666666" points="524.5,-403.5 423.5,-403.5 423.5,-373.5 524.5,-373.5 524.5,-403.5"/>
<text text-anchor="start" x="431.5" y="-391.5" font-family="Helvetica,sans-Serif" font-size="10.00">ore::data::FxOption</text>
<text text-anchor="middle" x="474" y="-380.5" font-family="Helvetica,sans-Serif" font-size="10.00">::build</text>
</a>
</g>
</g>
<!-- Node1&#45;&gt;Node34 -->
<g id="edge33" class="edge"><title>Node1&#45;&gt;Node34</title>
<path fill="none" stroke="#63b8ff" d="M614.342,-489.534C602.916,-467.822 581.372,-432.667 553,-412.5 544.57,-406.508 534.605,-401.982 524.666,-398.572"/>
<polygon fill="#63b8ff" stroke="#63b8ff" points="611.357,-491.385 618.997,-498.725 617.601,-488.222 611.357,-491.385"/>
</g>
<!-- Node36 -->
<g id="node36" class="node"><title>Node36</title>
<g id="a_node36"><a xlink:href="classore_1_1data_1_1_fx_touch_option.html#af7b69d5b18d278257927e32b10a23ee6" target="_top" xlink:title="Build QuantLib/QuantExt instrument, link pricing engine.">
<polygon fill="white" stroke="#666666" points="537.5,-115.5 410.5,-115.5 410.5,-85.5 537.5,-85.5 537.5,-115.5"/>
<text text-anchor="start" x="418.5" y="-103.5" font-family="Helvetica,sans-Serif" font-size="10.00">ore::data::FxTouchOption</text>
<text text-anchor="middle" x="474" y="-92.5" font-family="Helvetica,sans-Serif" font-size="10.00">::build</text>
</a>
</g>
</g>
<!-- Node1&#45;&gt;Node36 -->
<g id="edge35" class="edge"><title>Node1&#45;&gt;Node36</title>
<path fill="none" stroke="#63b8ff" d="M622.514,-488.694C618.608,-418.027 601.964,-179.553 553,-124.5 548.669,-119.63 543.375,-115.735 537.606,-112.623"/>
<polygon fill="#63b8ff" stroke="#63b8ff" points="619.029,-489.074 623.052,-498.876 626.02,-488.705 619.029,-489.074"/>
</g>
<!-- Node38 -->
<g id="node38" class="node"><title>Node38</title>
<g id="a_node38"><a xlink:href="classore_1_1data_1_1_convertible_bond.html#ab1db499ff5e65c59fd2009d62276fdaf" target="_top" xlink:title=" ">
<polygon fill="white" stroke="#666666" points="539.5,-355.5 408.5,-355.5 408.5,-325.5 539.5,-325.5 539.5,-355.5"/>
<text text-anchor="start" x="416.5" y="-343.5" font-family="Helvetica,sans-Serif" font-size="10.00">ore::data::ConvertibleBond</text>
<text text-anchor="middle" x="474" y="-332.5" font-family="Helvetica,sans-Serif" font-size="10.00">::build</text>
</a>
</g>
</g>
<!-- Node1&#45;&gt;Node38 -->
<g id="edge37" class="edge"><title>Node1&#45;&gt;Node38</title>
<path fill="none" stroke="#63b8ff" d="M619.193,-488.812C611.4,-457.838 592.017,-397.834 553,-364.5 549.014,-361.095 544.551,-358.173 539.832,-355.665"/>
<polygon fill="#63b8ff" stroke="#63b8ff" points="615.849,-489.879 621.555,-498.806 622.662,-488.269 615.849,-489.879"/>
</g>
<!-- Node39 -->
<g id="node39" class="node"><title>Node39</title>
<g id="a_node39"><a xlink:href="classore_1_1data_1_1_commodity_spread_option.html#a7158c90da58d23d6c8d55040bb585107" target="_top" xlink:title="Implement the build method.">
<polygon fill="white" stroke="#666666" points="544.5,-307.5 403.5,-307.5 403.5,-277.5 544.5,-277.5 544.5,-307.5"/>
<text text-anchor="start" x="411.5" y="-295.5" font-family="Helvetica,sans-Serif" font-size="10.00">ore::data::CommoditySpread</text>
<text text-anchor="middle" x="474" y="-284.5" font-family="Helvetica,sans-Serif" font-size="10.00">Option::build</text>
</a>
</g>
</g>
<!-- Node1&#45;&gt;Node39 -->
<g id="edge38" class="edge"><title>Node1&#45;&gt;Node39</title>
<path fill="none" stroke="#63b8ff" d="M621.891,-488.472C617.693,-449.663 602.978,-363.878 553,-316.5 549.401,-313.088 545.328,-310.161 540.979,-307.649"/>
<polygon fill="#63b8ff" stroke="#63b8ff" points="618.453,-489.289 622.883,-498.913 625.421,-488.627 618.453,-489.289"/>
</g>
<!-- Node40 -->
<g id="node40" class="node"><title>Node40</title>
<g id="a_node40"><a xlink:href="classore_1_1data_1_1_commodity_average_price_option.html#a8c8f75de593c3a1126b71db43d537370" target="_top" xlink:title="Build an average price option.">
<polygon fill="white" stroke="#666666" points="546.5,-259.5 401.5,-259.5 401.5,-229.5 546.5,-229.5 546.5,-259.5"/>
<text text-anchor="start" x="409.5" y="-247.5" font-family="Helvetica,sans-Serif" font-size="10.00">ore::data::CommodityAverage</text>
<text text-anchor="middle" x="474" y="-236.5" font-family="Helvetica,sans-Serif" font-size="10.00">PriceOption::buildApo</text>
</a>
</g>
</g>
<!-- Node1&#45;&gt;Node40 -->
<g id="edge39" class="edge"><title>Node1&#45;&gt;Node40</title>
<path fill="none" stroke="#63b8ff" d="M623.628,-488.607C622.81,-443.108 614.317,-330.606 553,-268.5 549.616,-265.072 545.754,-262.131 541.603,-259.609"/>
<polygon fill="#63b8ff" stroke="#63b8ff" points="620.128,-488.683 623.698,-498.659 627.128,-488.635 620.128,-488.683"/>
</g>
<!-- Node41 -->
<g id="node41" class="node"><title>Node41</title>
<g id="a_node41"><a xlink:href="classore_1_1data_1_1_equity_leg_builder.html#aea285351d9f3458189a9e2d965349d23" target="_top" xlink:title=" ">
<polygon fill="white" stroke="#666666" points="541,-211.5 407,-211.5 407,-181.5 541,-181.5 541,-211.5"/>
<text text-anchor="start" x="415" y="-199.5" font-family="Helvetica,sans-Serif" font-size="10.00">ore::data::EquityLegBuilder</text>
<text text-anchor="middle" x="474" y="-188.5" font-family="Helvetica,sans-Serif" font-size="10.00">::buildLeg</text>
</a>
</g>
</g>
<!-- Node1&#45;&gt;Node41 -->
<g id="edge42" class="edge"><title>Node1&#45;&gt;Node41</title>
<path fill="none" stroke="#63b8ff" d="M621.178,-488.542C613.979,-429.937 590.252,-259.995 553,-220.5 549.5,-216.79 545.442,-213.648 541.052,-210.989"/>
<polygon fill="#63b8ff" stroke="#63b8ff" points="617.732,-489.194 622.397,-498.707 624.682,-488.361 617.732,-489.194"/>
</g>
<!-- Node42 -->
<g id="node42" class="node"><title>Node42</title>
<g id="a_node42"><a xlink:href="classore_1_1data_1_1_equity_margin_leg_builder.html#aed0fa8878c4239d2706dda3970aaac21" target="_top" xlink:title=" ">
<polygon fill="white" stroke="#666666" points="541,-163.5 407,-163.5 407,-133.5 541,-133.5 541,-163.5"/>
<text text-anchor="start" x="415" y="-151.5" font-family="Helvetica,sans-Serif" font-size="10.00">ore::data::EquityMarginLeg</text>
<text text-anchor="middle" x="474" y="-140.5" font-family="Helvetica,sans-Serif" font-size="10.00">Builder::buildLeg</text>
</a>
</g>
</g>
<!-- Node1&#45;&gt;Node42 -->
<g id="edge43" class="edge"><title>Node1&#45;&gt;Node42</title>
<path fill="none" stroke="#63b8ff" d="M621.948,-488.7C616.485,-423.921 596.106,-219.751 553,-172.5 549.562,-168.732 545.549,-165.549 541.19,-162.861"/>
<polygon fill="#63b8ff" stroke="#63b8ff" points="618.47,-489.114 622.772,-498.796 625.447,-488.545 618.47,-489.114"/>
</g>
<!-- Node43 -->
<g id="node43" class="node"><title>Node43</title>
<g id="a_node43"><a xlink:href="namespaceore_1_1data.html#a792a0b239a9628b7317a886e02c7a005" target="_top" xlink:title=" ">
<polygon fill="white" stroke="#666666" points="518,-633 430,-633 430,-614 518,-614 518,-633"/>
<text text-anchor="middle" x="474" y="-621" font-family="Helvetica,sans-Serif" font-size="10.00">buildNotionalLeg</text>
</a>
</g>
</g>
<!-- Node1&#45;&gt;Node43 -->
<g id="edge45" class="edge"><title>Node1&#45;&gt;Node43</title>
<path fill="none" stroke="#63b8ff" d="M614.872,-527.132C603.731,-549.075 582.241,-585 553,-604.5 542.68,-611.382 530.108,-615.776 518.097,-618.579"/>
<polygon fill="#63b8ff" stroke="#63b8ff" points="618.019,-528.665 619.254,-518.143 611.726,-525.598 618.019,-528.665"/>
</g>
<!-- Node45 -->
<g id="node45" class="node"><title>Node45</title>
<g id="a_node45"><a xlink:href="classore_1_1data_1_1_var_swap_engine_builder.html#a82f4d2acf652ff57efc5a46cff7430ca" target="_top" xlink:title=" ">
<polygon fill="white" stroke="#666666" points="539,-67.5 409,-67.5 409,-37.5 539,-37.5 539,-67.5"/>
<text text-anchor="start" x="417" y="-55.5" font-family="Helvetica,sans-Serif" font-size="10.00">ore::data::VarSwapEngine</text>
<text text-anchor="middle" x="474" y="-44.5" font-family="Helvetica,sans-Serif" font-size="10.00">Builder::engineImpl</text>
</a>
</g>
</g>
<!-- Node1&#45;&gt;Node45 -->
<g id="edge48" class="edge"><title>Node1&#45;&gt;Node45</title>
<path fill="none" stroke="#63b8ff" d="M622.959,-488.722C620.484,-412.569 607.862,-139.428 553,-76.5 549.09,-72.0146 544.363,-68.3551 539.193,-65.371"/>
<polygon fill="#63b8ff" stroke="#63b8ff" points="619.464,-488.948 623.264,-498.838 626.461,-488.737 619.464,-488.948"/>
</g>
<!-- Node46 -->
<g id="node46" class="node"><title>Node46</title>
<g id="a_node46"><a xlink:href="classore_1_1data_1_1_t_r_s.html#a17c52770813ed95c459d58cf70d87051" target="_top" xlink:title=" ">
<polygon fill="white" stroke="#666666" points="541,-19 407,-19 407,-0 541,-0 541,-19"/>
<text text-anchor="middle" x="474" y="-7" font-family="Helvetica,sans-Serif" font-size="10.00">ore::data::TRS::getFxIndex</text>
</a>
</g>
</g>
<!-- Node1&#45;&gt;Node46 -->
<g id="edge49" class="edge"><title>Node1&#45;&gt;Node46</title>
<path fill="none" stroke="#63b8ff" d="M623.428,-488.567C622.717,-406.712 615.848,-97.4898 553,-28.5 549.527,-24.6878 545.429,-21.5806 540.958,-19.0543"/>
<polygon fill="#63b8ff" stroke="#63b8ff" points="619.93,-488.961 623.494,-498.938 626.93,-488.916 619.93,-488.961"/>
</g>
<!-- Node3 -->
<g id="node3" class="node"><title>Node3</title>
<g id="a_node3"><a xlink:href="classore_1_1data_1_1_swap.html#af7b69d5b18d278257927e32b10a23ee6" target="_top" xlink:title="Build QuantLib/QuantExt instrument, link pricing engine.">
<polygon fill="white" stroke="#666666" points="324.5,-659 213.5,-659 213.5,-640 324.5,-640 324.5,-659"/>
<text text-anchor="middle" x="269" y="-647" font-family="Helvetica,sans-Serif" font-size="10.00">ore::data::Swap::build</text>
</a>
</g>
</g>
<!-- Node2&#45;&gt;Node3 -->
<g id="edge2" class="edge"><title>Node2&#45;&gt;Node3</title>
<path fill="none" stroke="#63b8ff" d="M455.335,-915.494C437.377,-897.18 410.112,-866.36 395,-834.5 362.646,-766.291 412.468,-721.795 359,-668.5 349.824,-659.354 337.395,-654.117 324.739,-651.225"/>
<polygon fill="#63b8ff" stroke="#63b8ff" points="453.299,-918.407 462.853,-922.987 458.241,-913.449 453.299,-918.407"/>
</g>
<!-- Node2&#45;&gt;Node8 -->
<g id="edge7" class="edge"><title>Node2&#45;&gt;Node8</title>
<path fill="none" stroke="#63b8ff" d="M471.847,-952.221C467.543,-1007.15 447.703,-1163.19 359,-1244.5 352.04,-1250.88 343.56,-1255.59 334.632,-1259.07"/>
<polygon fill="#63b8ff" stroke="#63b8ff" points="475.348,-952.316 472.548,-942.098 468.365,-951.832 475.348,-952.316"/>
</g>
<!-- Node10 -->
<g id="node10" class="node"><title>Node10</title>
<g id="a_node10"><a xlink:href="classore_1_1data_1_1_zero_coupon_fixed_leg_builder.html#aea285351d9f3458189a9e2d965349d23" target="_top" xlink:title=" ">
<polygon fill="white" stroke="#666666" points="337.5,-899.5 200.5,-899.5 200.5,-869.5 337.5,-869.5 337.5,-899.5"/>
<text text-anchor="start" x="208.5" y="-887.5" font-family="Helvetica,sans-Serif" font-size="10.00">ore::data::ZeroCouponFixed</text>
<text text-anchor="middle" x="269" y="-876.5" font-family="Helvetica,sans-Serif" font-size="10.00">LegBuilder::buildLeg</text>
</a>
</g>
</g>
<!-- Node2&#45;&gt;Node10 -->
<g id="edge9" class="edge"><title>Node2&#45;&gt;Node10</title>
<path fill="none" stroke="#63b8ff" d="M426.026,-921.393C398.596,-914.907 363.61,-906.634 333.721,-899.567"/>
<polygon fill="#63b8ff" stroke="#63b8ff" points="425.23,-924.801 435.767,-923.696 426.84,-917.989 425.23,-924.801"/>
</g>
<!-- Node2&#45;&gt;Node11 -->
<g id="edge10" class="edge"><title>Node2&#45;&gt;Node11</title>
<path fill="none" stroke="#63b8ff" d="M461.966,-950.941C445.742,-978.591 415.196,-1032.76 395,-1081.5 374.499,-1130.98 397.62,-1159.39 359,-1196.5 353.461,-1201.82 346.87,-1205.99 339.816,-1209.25"/>
<polygon fill="#63b8ff" stroke="#63b8ff" points="464.987,-952.708 467.066,-942.319 458.962,-949.144 464.987,-952.708"/>
</g>
<!-- Node12 -->
<g id="node12" class="node"><title>Node12</title>
<g id="a_node12"><a xlink:href="classore_1_1data_1_1_c_p_i_leg_builder.html#aea285351d9f3458189a9e2d965349d23" target="_top" xlink:title=" ">
<polygon fill="white" stroke="#666666" points="330,-851.5 208,-851.5 208,-821.5 330,-821.5 330,-851.5"/>
<text text-anchor="start" x="216" y="-839.5" font-family="Helvetica,sans-Serif" font-size="10.00">ore::data::CPILegBuilder</text>
<text text-anchor="middle" x="269" y="-828.5" font-family="Helvetica,sans-Serif" font-size="10.00">::buildLeg</text>
</a>
</g>
</g>
<!-- Node2&#45;&gt;Node12 -->
<g id="edge11" class="edge"><title>Node2&#45;&gt;Node12</title>
<path fill="none" stroke="#63b8ff" d="M452.467,-916.846C430.424,-900.702 393.856,-875.789 359,-860.5 349.914,-856.514 340.008,-853.052 330.213,-850.092"/>
<polygon fill="#63b8ff" stroke="#63b8ff" points="450.595,-919.815 460.709,-922.971 454.771,-914.197 450.595,-919.815"/>
</g>
<!-- Node13 -->
<g id="node13" class="node"><title>Node13</title>
<g id="a_node13"><a xlink:href="classore_1_1data_1_1_y_y_leg_builder.html#aea285351d9f3458189a9e2d965349d23" target="_top" xlink:title=" ">
<polygon fill="white" stroke="#666666" points="329,-803.5 209,-803.5 209,-773.5 329,-773.5 329,-803.5"/>
<text text-anchor="start" x="217" y="-791.5" font-family="Helvetica,sans-Serif" font-size="10.00">ore::data::YYLegBuilder</text>
<text text-anchor="middle" x="269" y="-780.5" font-family="Helvetica,sans-Serif" font-size="10.00">::buildLeg</text>
</a>
</g>
</g>
<!-- Node2&#45;&gt;Node13 -->
<g id="edge12" class="edge"><title>Node2&#45;&gt;Node13</title>
<path fill="none" stroke="#63b8ff" d="M450.777,-916.8C434.279,-904.507 411.82,-886.378 395,-867.5 375.565,-845.687 382.653,-829.649 359,-812.5 350.19,-806.112 339.78,-801.425 329.243,-797.985"/>
<polygon fill="#63b8ff" stroke="#63b8ff" points="449.117,-919.922 459.256,-922.997 453.247,-914.271 449.117,-919.922"/>
</g>
<!-- Node14 -->
<g id="node14" class="node"><title>Node14</title>
<g id="a_node14"><a xlink:href="classore_1_1data_1_1_c_m_s_leg_builder.html#aea285351d9f3458189a9e2d965349d23" target="_top" xlink:title=" ">
<polygon fill="white" stroke="#666666" points="333,-755.5 205,-755.5 205,-725.5 333,-725.5 333,-755.5"/>
<text text-anchor="start" x="213" y="-743.5" font-family="Helvetica,sans-Serif" font-size="10.00">ore::data::CMSLegBuilder</text>
<text text-anchor="middle" x="269" y="-732.5" font-family="Helvetica,sans-Serif" font-size="10.00">::buildLeg</text>
</a>
</g>
</g>
<!-- Node2&#45;&gt;Node14 -->
<g id="edge13" class="edge"><title>Node2&#45;&gt;Node14</title>
<path fill="none" stroke="#63b8ff" d="M448.624,-917.39C431.497,-905.66 409.196,-887.979 395,-867.5 367.373,-827.646 394.516,-797.519 359,-764.5 351.733,-757.744 342.766,-752.853 333.348,-749.32"/>
<polygon fill="#63b8ff" stroke="#63b8ff" points="446.769,-920.359 457.038,-922.964 450.635,-914.524 446.769,-920.359"/>
</g>
<!-- Node15 -->
<g id="node15" class="node"><title>Node15</title>
<g id="a_node15"><a xlink:href="classore_1_1data_1_1_c_m_b_leg_builder.html#aea285351d9f3458189a9e2d965349d23" target="_top" xlink:title=" ">
<polygon fill="white" stroke="#666666" points="333,-1187.5 205,-1187.5 205,-1157.5 333,-1157.5 333,-1187.5"/>
<text text-anchor="start" x="213" y="-1175.5" font-family="Helvetica,sans-Serif" font-size="10.00">ore::data::CMBLegBuilder</text>
<text text-anchor="middle" x="269" y="-1164.5" font-family="Helvetica,sans-Serif" font-size="10.00">::buildLeg</text>
</a>
</g>
</g>
<!-- Node2&#45;&gt;Node15 -->
<g id="edge14" class="edge"><title>Node2&#45;&gt;Node15</title>
<path fill="none" stroke="#63b8ff" d="M463.202,-951.182C435.764,-1003.48 360.084,-1147.63 359,-1148.5 351.499,-1154.49 342.626,-1159 333.435,-1162.38"/>
<polygon fill="#63b8ff" stroke="#63b8ff" points="466.465,-952.497 468.01,-942.015 460.266,-949.245 466.465,-952.497"/>
</g>
<!-- Node16 -->
<g id="node16" class="node"><title>Node16</title>
<g id="a_node16"><a xlink:href="classore_1_1data_1_1_digital_c_m_s_leg_builder.html#aea285351d9f3458189a9e2d965349d23" target="_top" xlink:title=" ">
<polygon fill="white" stroke="#666666" points="331.5,-1139.5 206.5,-1139.5 206.5,-1109.5 331.5,-1109.5 331.5,-1139.5"/>
<text text-anchor="start" x="214.5" y="-1127.5" font-family="Helvetica,sans-Serif" font-size="10.00">ore::data::DigitalCMSLeg</text>
<text text-anchor="middle" x="269" y="-1116.5" font-family="Helvetica,sans-Serif" font-size="10.00">Builder::buildLeg</text>
</a>
</g>
</g>
<!-- Node2&#45;&gt;Node16 -->
<g id="edge15" class="edge"><title>Node2&#45;&gt;Node16</title>
<path fill="none" stroke="#63b8ff" d="M465.34,-951.816C450.387,-986.975 413.895,-1061.39 359,-1100.5 350.919,-1106.26 341.532,-1110.63 331.945,-1113.96"/>
<polygon fill="#63b8ff" stroke="#63b8ff" points="468.709,-952.827 469.286,-942.248 462.238,-950.159 468.709,-952.827"/>
</g>
<!-- Node17 -->
<g id="node17" class="node"><title>Node17</title>
<g id="a_node17"><a xlink:href="classore_1_1data_1_1_c_m_s_spread_leg_builder.html#aea285351d9f3458189a9e2d965349d23" target="_top" xlink:title=" ">
<polygon fill="white" stroke="#666666" points="348.5,-1091.5 189.5,-1091.5 189.5,-1061.5 348.5,-1061.5 348.5,-1091.5"/>
<text text-anchor="start" x="197.5" y="-1079.5" font-family="Helvetica,sans-Serif" font-size="10.00">ore::data::CMSSpreadLegBuilder</text>
<text text-anchor="middle" x="269" y="-1068.5" font-family="Helvetica,sans-Serif" font-size="10.00">::buildLeg</text>
</a>
</g>
</g>
<!-- Node2&#45;&gt;Node17 -->
<g id="edge16" class="edge"><title>Node2&#45;&gt;Node17</title>
<path fill="none" stroke="#63b8ff" d="M460.79,-950.644C442.041,-977.082 403.61,-1025.93 359,-1052.5 353.225,-1055.94 346.95,-1058.9 340.494,-1061.44"/>
<polygon fill="#63b8ff" stroke="#63b8ff" points="463.755,-952.512 466.58,-942.3 458.003,-948.521 463.755,-952.512"/>
</g>
<!-- Node18 -->
<g id="node18" class="node"><title>Node18</title>
<g id="a_node18"><a xlink:href="classore_1_1data_1_1_digital_c_m_s_spread_leg_builder.html#aea285351d9f3458189a9e2d965349d23" target="_top" xlink:title=" ">
<polygon fill="white" stroke="#666666" points="339,-1043.5 199,-1043.5 199,-1013.5 339,-1013.5 339,-1043.5"/>
<text text-anchor="start" x="207" y="-1031.5" font-family="Helvetica,sans-Serif" font-size="10.00">ore::data::DigitalCMSSpread</text>
<text text-anchor="middle" x="269" y="-1020.5" font-family="Helvetica,sans-Serif" font-size="10.00">LegBuilder::buildLeg</text>
</a>
</g>
</g>
<!-- Node2&#45;&gt;Node18 -->
<g id="edge17" class="edge"><title>Node2&#45;&gt;Node18</title>
<path fill="none" stroke="#63b8ff" d="M452.467,-948.154C430.424,-964.298 393.856,-989.211 359,-1004.5 351.379,-1007.84 343.182,-1010.82 334.957,-1013.44"/>
<polygon fill="#63b8ff" stroke="#63b8ff" points="454.771,-950.803 460.709,-942.029 450.595,-945.185 454.771,-950.803"/>
</g>
<!-- Node19 -->
<g id="node19" class="node"><title>Node19</title>
<g id="a_node19"><a xlink:href="classore_1_1data_1_1_duration_adjusted_cms_leg_builder.html#acb28979da2d410bdc9e47181a3d2c47f" target="_top" xlink:title=" ">
<polygon fill="white" stroke="#666666" points="336.5,-995.5 201.5,-995.5 201.5,-965.5 336.5,-965.5 336.5,-995.5"/>
<text text-anchor="start" x="209.5" y="-983.5" font-family="Helvetica,sans-Serif" font-size="10.00">ore::data::DurationAdjusted</text>
<text text-anchor="middle" x="269" y="-972.5" font-family="Helvetica,sans-Serif" font-size="10.00">CmsLegBuilder::buildLeg</text>
</a>
</g>
</g>
<!-- Node2&#45;&gt;Node19 -->
<g id="edge18" class="edge"><title>Node2&#45;&gt;Node19</title>
<path fill="none" stroke="#63b8ff" d="M426.026,-943.607C398.596,-950.093 363.61,-958.366 333.721,-965.433"/>
<polygon fill="#63b8ff" stroke="#63b8ff" points="426.84,-947.011 435.767,-941.304 425.23,-940.199 426.84,-947.011"/>
</g>
<!-- Node20 -->
<g id="node20" class="node"><title>Node20</title>
<g id="a_node20"><a xlink:href="classore_1_1data_1_1_commodity_fixed_leg_builder.html#a1e327fffe1588e7813e797d48b1b3420" target="_top" xlink:title=" ">
<polygon fill="white" stroke="#666666" points="336,-947.5 202,-947.5 202,-917.5 336,-917.5 336,-947.5"/>
<text text-anchor="start" x="210" y="-935.5" font-family="Helvetica,sans-Serif" font-size="10.00">ore::data::CommodityFixed</text>
<text text-anchor="middle" x="269" y="-924.5" font-family="Helvetica,sans-Serif" font-size="10.00">LegBuilder::buildLeg</text>
</a>
</g>
</g>
<!-- Node2&#45;&gt;Node20 -->
<g id="edge19" class="edge"><title>Node2&#45;&gt;Node20</title>
<path fill="none" stroke="#63b8ff" d="M425.564,-932.5C398.948,-932.5 365.328,-932.5 336.158,-932.5"/>
<polygon fill="#63b8ff" stroke="#63b8ff" points="425.767,-936 435.767,-932.5 425.767,-929 425.767,-936"/>
</g>
<!-- Node2&#45;&gt;Node21 -->
<g id="edge20" class="edge"><title>Node2&#45;&gt;Node21</title>
<path fill="none" stroke="#63b8ff" d="M447.351,-917.391C430.005,-905.861 407.973,-888.422 395,-867.5 358.642,-808.865 407.063,-765.996 359,-716.5 354.095,-711.448 348.246,-707.424 341.924,-704.224"/>
<polygon fill="#63b8ff" stroke="#63b8ff" points="445.611,-920.432 455.922,-922.869 449.381,-914.534 445.611,-920.432"/>
</g>
<!-- Node4 -->
<g id="node4" class="node"><title>Node4</title>
<g id="a_node4"><a xlink:href="test_2todaysmarket_8cpp.html#aeb43366ac05a65218ef11c74fa7a5650" target="_top" xlink:title=" ">
<polygon fill="white" stroke="#666666" points="143,-638 0,-638 0,-619 143,-619 143,-638"/>
<text text-anchor="middle" x="71.5" y="-626" font-family="Helvetica,sans-Serif" font-size="10.00">BOOST_AUTO_TEST_CASE</text>
</a>
</g>
</g>
<!-- Node3&#45;&gt;Node4 -->
<g id="edge3" class="edge"><title>Node3&#45;&gt;Node4</title>
<path fill="none" stroke="#63b8ff" d="M203.144,-642.533C183.96,-640.473 162.862,-638.206 143.322,-636.107"/>
<polygon fill="#63b8ff" stroke="#63b8ff" points="202.966,-646.034 213.282,-643.622 203.713,-639.074 202.966,-646.034"/>
</g>
<!-- Node5 -->
<g id="node5" class="node"><title>Node5</title>
<g id="a_node5"><a xlink:href="classore_1_1data_1_1_equity_swap.html#af7b69d5b18d278257927e32b10a23ee6" target="_top" xlink:title="Trade interface.">
<polygon fill="white" stroke="#666666" points="128,-600.5 15,-600.5 15,-570.5 128,-570.5 128,-600.5"/>
<text text-anchor="start" x="23" y="-588.5" font-family="Helvetica,sans-Serif" font-size="10.00">ore::data::EquitySwap</text>
<text text-anchor="middle" x="71.5" y="-577.5" font-family="Helvetica,sans-Serif" font-size="10.00">::build</text>
</a>
</g>
</g>
<!-- Node3&#45;&gt;Node5 -->
<g id="edge4" class="edge"><title>Node3&#45;&gt;Node5</title>
<path fill="none" stroke="#63b8ff" d="M203.344,-638.24C195.032,-636.055 186.731,-633.492 179,-630.5 161.725,-623.816 159.852,-617.19 143,-609.5 136.06,-606.333 128.574,-603.351 121.163,-600.637"/>
<polygon fill="#63b8ff" stroke="#63b8ff" points="202.527,-641.643 213.073,-640.634 204.199,-634.846 202.527,-641.643"/>
</g>
<!-- Node6 -->
<g id="node6" class="node"><title>Node6</title>
<g id="a_node6"><a xlink:href="classore_1_1data_1_1_inflation_swap.html#af7b69d5b18d278257927e32b10a23ee6" target="_top" xlink:title="Trade interface.">
<polygon fill="white" stroke="#666666" points="130.5,-734.5 12.5,-734.5 12.5,-704.5 130.5,-704.5 130.5,-734.5"/>
<text text-anchor="start" x="20.5" y="-722.5" font-family="Helvetica,sans-Serif" font-size="10.00">ore::data::InflationSwap</text>
<text text-anchor="middle" x="71.5" y="-711.5" font-family="Helvetica,sans-Serif" font-size="10.00">::build</text>
</a>
</g>
</g>
<!-- Node3&#45;&gt;Node6 -->
<g id="edge5" class="edge"><title>Node3&#45;&gt;Node6</title>
<path fill="none" stroke="#63b8ff" d="M203.332,-659.829C194.962,-662.167 186.649,-665.02 179,-668.5 160.795,-676.781 160.686,-686.161 143,-695.5 136.712,-698.82 129.871,-701.822 123.006,-704.488"/>
<polygon fill="#63b8ff" stroke="#63b8ff" points="204.329,-663.186 213.147,-657.315 202.592,-656.405 204.329,-663.186"/>
</g>
<!-- Node7 -->
<g id="node7" class="node"><title>Node7</title>
<g id="a_node7"><a xlink:href="classore_1_1data_1_1_callable_swap.html#ab1db499ff5e65c59fd2009d62276fdaf" target="_top" xlink:title="Build QuantLib/QuantExt instrument, link pricing engine.">
<polygon fill="white" stroke="#666666" points="131,-686.5 12,-686.5 12,-656.5 131,-656.5 131,-686.5"/>
<text text-anchor="start" x="20" y="-674.5" font-family="Helvetica,sans-Serif" font-size="10.00">ore::data::CallableSwap</text>
<text text-anchor="middle" x="71.5" y="-663.5" font-family="Helvetica,sans-Serif" font-size="10.00">::build</text>
</a>
</g>
</g>
<!-- Node3&#45;&gt;Node7 -->
<g id="edge6" class="edge"><title>Node3&#45;&gt;Node7</title>
<path fill="none" stroke="#63b8ff" d="M203.186,-656.794C179.983,-659.405 153.977,-662.331 131.311,-664.882"/>
<polygon fill="#63b8ff" stroke="#63b8ff" points="203.737,-660.254 213.282,-655.657 202.954,-653.298 203.737,-660.254"/>
</g>
<!-- Node9 -->
<g id="node9" class="node"><title>Node9</title>
<g id="a_node9"><a xlink:href="classore_1_1data_1_1_index_credit_default_swap.html#af7b69d5b18d278257927e32b10a23ee6" target="_top" xlink:title=" ">
<polygon fill="white" stroke="#666666" points="141.5,-1283.5 1.5,-1283.5 1.5,-1253.5 141.5,-1253.5 141.5,-1283.5"/>
<text text-anchor="start" x="9.5" y="-1271.5" font-family="Helvetica,sans-Serif" font-size="10.00">ore::data::IndexCreditDefault</text>
<text text-anchor="middle" x="71.5" y="-1260.5" font-family="Helvetica,sans-Serif" font-size="10.00">Swap::build</text>
</a>
</g>
</g>
<!-- Node8&#45;&gt;Node9 -->
<g id="edge8" class="edge"><title>Node8&#45;&gt;Node9</title>
<path fill="none" stroke="#63b8ff" d="M193.073,-1268.5C176.185,-1268.5 158.335,-1268.5 141.695,-1268.5"/>
<polygon fill="#63b8ff" stroke="#63b8ff" points="193.444,-1272 203.444,-1268.5 193.444,-1265 193.444,-1272"/>
</g>
<!-- Node27 -->
<g id="node27" class="node"><title>Node27</title>
<g id="a_node27"><a xlink:href="fxexotics_8cpp.html#a1bb3d76e35ea3c22bb6f167cc5a2a9fa" target="_top" xlink:title=" ">
<polygon fill="white" stroke="#666666" points="340.5,-573 197.5,-573 197.5,-554 340.5,-554 340.5,-573"/>
<text text-anchor="middle" x="269" y="-561" font-family="Helvetica,sans-Serif" font-size="10.00">BOOST_AUTO_TEST_CASE</text>
</a>
</g>
</g>
<!-- Node26&#45;&gt;Node27 -->
<g id="edge26" class="edge"><title>Node26&#45;&gt;Node27</title>
<path fill="none" stroke="#63b8ff" d="M399.917,-574.38C380.567,-572.759 359.718,-571.013 340.508,-569.405"/>
<polygon fill="#63b8ff" stroke="#63b8ff" points="399.625,-577.867 409.882,-575.214 400.209,-570.892 399.625,-577.867"/>
</g>
<!-- Node29 -->
<g id="node29" class="node"><title>Node29</title>
<g id="a_node29"><a xlink:href="fxexotics_8cpp.html#a356626221d09fa0287e4f5d1646ca231" target="_top" xlink:title=" ">
<polygon fill="white" stroke="#666666" points="340.5,-536 197.5,-536 197.5,-517 340.5,-517 340.5,-536"/>
<text text-anchor="middle" x="269" y="-524" font-family="Helvetica,sans-Serif" font-size="10.00">BOOST_AUTO_TEST_CASE</text>
</a>
</g>
</g>
<!-- Node28&#45;&gt;Node29 -->
<g id="edge28" class="edge"><title>Node28&#45;&gt;Node29</title>
<path fill="none" stroke="#63b8ff" d="M399.65,-530.332C380.375,-529.762 359.63,-529.149 340.508,-528.584"/>
<polygon fill="#63b8ff" stroke="#63b8ff" points="399.783,-533.837 409.882,-530.634 399.99,-526.84 399.783,-533.837"/>
</g>
<!-- Node31 -->
<g id="node31" class="node"><title>Node31</title>
<g id="a_node31"><a xlink:href="fxexotics_8cpp.html#acfd93f4169abaf3c0d3541c4a297d9de" target="_top" xlink:title=" ">
<polygon fill="white" stroke="#666666" points="340.5,-494 197.5,-494 197.5,-475 340.5,-475 340.5,-494"/>
<text text-anchor="middle" x="269" y="-482" font-family="Helvetica,sans-Serif" font-size="10.00">BOOST_AUTO_TEST_CASE</text>
</a>
</g>
</g>
<!-- Node30&#45;&gt;Node31 -->
<g id="edge30" class="edge"><title>Node30&#45;&gt;Node31</title>
<path fill="none" stroke="#63b8ff" d="M392.853,-484.5C375.672,-484.5 357.636,-484.5 340.836,-484.5"/>
<polygon fill="#63b8ff" stroke="#63b8ff" points="392.855,-488 402.855,-484.5 392.855,-481 392.855,-488"/>
</g>
<!-- Node33 -->
<g id="node33" class="node"><title>Node33</title>
<g id="a_node33"><a xlink:href="classore_1_1data_1_1_fx_forward.html#a77c4e850102803446246df093a25943d" target="_top" xlink:title=" ">
<polygon fill="white" stroke="#666666" points="322.5,-451.5 215.5,-451.5 215.5,-421.5 322.5,-421.5 322.5,-451.5"/>
<text text-anchor="start" x="223.5" y="-439.5" font-family="Helvetica,sans-Serif" font-size="10.00">ore::data::FxForward</text>
<text text-anchor="middle" x="269" y="-428.5" font-family="Helvetica,sans-Serif" font-size="10.00">::isExpired</text>
</a>
</g>
</g>
<!-- Node32&#45;&gt;Node33 -->
<g id="edge32" class="edge"><title>Node32&#45;&gt;Node33</title>
<path fill="none" stroke="#63b8ff" d="M410.339,-436.5C382.246,-436.5 349.478,-436.5 322.674,-436.5"/>
<polygon fill="#63b8ff" stroke="#63b8ff" points="410.458,-440 420.458,-436.5 410.458,-433 410.458,-440"/>
</g>
<!-- Node35 -->
<g id="node35" class="node"><title>Node35</title>
<g id="a_node35"><a xlink:href="test_2fxoption_8cpp.html#a321417ba3c97d0524c8fa2d8acb97d72" target="_top" xlink:title=" ">
<polygon fill="white" stroke="#666666" points="340.5,-398 197.5,-398 197.5,-379 340.5,-379 340.5,-398"/>
<text text-anchor="middle" x="269" y="-386" font-family="Helvetica,sans-Serif" font-size="10.00">BOOST_AUTO_TEST_CASE</text>
</a>
</g>
</g>
<!-- Node34&#45;&gt;Node35 -->
<g id="edge34" class="edge"><title>Node34&#45;&gt;Node35</title>
<path fill="none" stroke="#63b8ff" d="M413.146,-388.5C390.395,-388.5 364.267,-388.5 340.612,-388.5"/>
<polygon fill="#63b8ff" stroke="#63b8ff" points="413.341,-392 423.341,-388.5 413.341,-385 413.341,-392"/>
</g>
<!-- Node37 -->
<g id="node37" class="node"><title>Node37</title>
<g id="a_node37"><a xlink:href="fxexotics_8cpp.html#a81ded61bff8d1f143845d1a8063ab363" target="_top" xlink:title=" ">
<polygon fill="white" stroke="#666666" points="340.5,-110 197.5,-110 197.5,-91 340.5,-91 340.5,-110"/>
<text text-anchor="middle" x="269" y="-98" font-family="Helvetica,sans-Serif" font-size="10.00">BOOST_AUTO_TEST_CASE</text>
</a>
</g>
</g>
<!-- Node36&#45;&gt;Node37 -->
<g id="edge36" class="edge"><title>Node36&#45;&gt;Node37</title>
<path fill="none" stroke="#63b8ff" d="M400.405,-100.5C380.918,-100.5 359.88,-100.5 340.508,-100.5"/>
<polygon fill="#63b8ff" stroke="#63b8ff" points="400.437,-104 410.437,-100.5 400.437,-97.0001 400.437,-104"/>
</g>
<!-- Node43&#45;&gt;Node3 -->
<g id="edge46" class="edge"><title>Node43&#45;&gt;Node3</title>
<path fill="none" stroke="#63b8ff" d="M419.888,-630.303C390.55,-634.06 354.172,-638.719 324.601,-642.507"/>
<polygon fill="#63b8ff" stroke="#63b8ff" points="420.475,-633.756 429.949,-629.014 419.585,-626.813 420.475,-633.756"/>
</g>
<!-- Node44 -->
<g id="node44" class="node"><title>Node44</title>
<g id="a_node44"><a xlink:href="classore_1_1data_1_1_risk_participation_agreement.html#a202e0f0e8766fc315608ca73f8802d08" target="_top" xlink:title=" ">
<polygon fill="white" stroke="#666666" points="359,-621.5 179,-621.5 179,-591.5 359,-591.5 359,-621.5"/>
<text text-anchor="start" x="187" y="-609.5" font-family="Helvetica,sans-Serif" font-size="10.00">ore::data::RiskParticipation</text>
<text text-anchor="middle" x="269" y="-598.5" font-family="Helvetica,sans-Serif" font-size="10.00">Agreement::buildWithSwapUnderlying</text>
</a>
</g>
</g>
<!-- Node43&#45;&gt;Node44 -->
<g id="edge47" class="edge"><title>Node43&#45;&gt;Node44</title>
<path fill="none" stroke="#63b8ff" d="M419.958,-619.058C401.412,-617.505 380.046,-615.716 359.362,-613.984"/>
<polygon fill="#63b8ff" stroke="#63b8ff" points="419.692,-622.548 429.949,-619.895 420.276,-615.572 419.692,-622.548"/>
</g>
<!-- Node47 -->
<g id="node47" class="node"><title>Node47</title>
<g id="a_node47"><a xlink:href="classore_1_1data_1_1_t_r_s.html#af7b69d5b18d278257927e32b10a23ee6" target="_top" xlink:title=" ">
<polygon fill="white" stroke="#666666" points="322,-19 216,-19 216,-0 322,-0 322,-19"/>
<text text-anchor="middle" x="269" y="-7" font-family="Helvetica,sans-Serif" font-size="10.00">ore::data::TRS::build</text>
</a>
</g>
</g>
<!-- Node46&#45;&gt;Node47 -->
<g id="edge50" class="edge"><title>Node46&#45;&gt;Node47</title>
<path fill="none" stroke="#63b8ff" d="M396.694,-9.5C371.879,-9.5 344.92,-9.5 322.275,-9.5"/>
<polygon fill="#63b8ff" stroke="#63b8ff" points="396.811,-13.0001 406.811,-9.5 396.811,-6.0001 396.811,-13.0001"/>
</g>
</g>
</svg>
