<?xml version="1.0" encoding="UTF-8" standalone="no"?>
<!DOCTYPE svg PUBLIC "-//W3C//DTD SVG 1.1//EN"
 "http://www.w3.org/Graphics/SVG/1.1/DTD/svg11.dtd">
<!-- Generated by graphviz version 2.38.0 (20140413.2041)
 -->
<!-- Title: parseCalibrationStrategy Pages: 1 -->
<svg width="362pt" height="182pt"
 viewBox="0.00 0.00 362.00 182.00" xmlns="http://www.w3.org/2000/svg" xmlns:xlink="http://www.w3.org/1999/xlink">
<g id="graph0" class="graph" transform="scale(1 1) rotate(0) translate(4 178)">
<title>parseCalibrationStrategy</title>
<!-- Node1 -->
<g id="node1" class="node"><title>Node1</title>
<g id="a_node1"><a xlink:title="Convert calibration strategy string into enumerated class value.">
<polygon fill="#999999" stroke="#666666" points="354,-96.5 231,-96.5 231,-77.5 354,-77.5 354,-96.5"/>
<text text-anchor="middle" x="292.5" y="-84.5" font-family="Helvetica,sans-Serif" font-size="10.00">parseCalibrationStrategy</text>
</a>
</g>
</g>
<!-- Node2 -->
<g id="node2" class="node"><title>Node2</title>
<g id="a_node2"><a xlink:href="classore_1_1data_1_1_cam_mc_multi_leg_option_engine_builder.html#a9e0c22676d210fe5cbcca2b0c18c8353" target="_top" xlink:title=" ">
<polygon fill="white" stroke="#666666" points="176.5,-174 18.5,-174 18.5,-144 176.5,-144 176.5,-174"/>
<text text-anchor="start" x="26.5" y="-162" font-family="Helvetica,sans-Serif" font-size="10.00">ore::data::CamMcMultiLeg</text>
<text text-anchor="middle" x="97.5" y="-151" font-family="Helvetica,sans-Serif" font-size="10.00">OptionEngineBuilder::engineImpl</text>
</a>
</g>
</g>
<!-- Node1&#45;&gt;Node2 -->
<g id="edge1" class="edge"><title>Node1&#45;&gt;Node2</title>
<path fill="none" stroke="#63b8ff" d="M265.972,-101.617C246.902,-112.056 219.937,-125.822 195,-135 186.008,-138.309 176.38,-141.312 166.813,-143.985"/>
<polygon fill="#63b8ff" stroke="#63b8ff" points="267.872,-104.565 274.913,-96.6484 264.472,-98.446 267.872,-104.565"/>
</g>
<!-- Node3 -->
<g id="node3" class="node"><title>Node3</title>
<g id="a_node3"><a xlink:href="classore_1_1data_1_1_flexi_swap_b_g_s_l_g_m_grid_engine_builder_base.html#abc0651f3e138d26037b7f70753c8f1a6" target="_top" xlink:title=" ">
<polygon fill="white" stroke="#666666" points="180.5,-126 14.5,-126 14.5,-96 180.5,-96 180.5,-126"/>
<text text-anchor="start" x="22.5" y="-114" font-family="Helvetica,sans-Serif" font-size="10.00">ore::data::FlexiSwapBGSLGMGrid</text>
<text text-anchor="middle" x="97.5" y="-103" font-family="Helvetica,sans-Serif" font-size="10.00">EngineBuilderBase::model</text>
</a>
</g>
</g>
<!-- Node1&#45;&gt;Node3 -->
<g id="edge2" class="edge"><title>Node1&#45;&gt;Node3</title>
<path fill="none" stroke="#63b8ff" d="M220.706,-95.8034C207.712,-97.4192 194.047,-99.1185 180.752,-100.772"/>
<polygon fill="#63b8ff" stroke="#63b8ff" points="221.471,-99.2353 230.963,-94.5279 220.608,-92.2888 221.471,-99.2353"/>
</g>
<!-- Node4 -->
<g id="node4" class="node"><title>Node4</title>
<g id="a_node4"><a xlink:href="classore_1_1data_1_1_l_g_m_swaption_engine_builder.html#a15d5bfbc8a8dc9f2485f9b941b26ff91" target="_top" xlink:title=" ">
<polygon fill="white" stroke="#666666" points="173.5,-78 21.5,-78 21.5,-48 173.5,-48 173.5,-78"/>
<text text-anchor="start" x="29.5" y="-66" font-family="Helvetica,sans-Serif" font-size="10.00">ore::data::LGMSwaptionEngine</text>
<text text-anchor="middle" x="97.5" y="-55" font-family="Helvetica,sans-Serif" font-size="10.00">Builder::model</text>
</a>
</g>
</g>
<!-- Node1&#45;&gt;Node4 -->
<g id="edge3" class="edge"><title>Node1&#45;&gt;Node4</title>
<path fill="none" stroke="#63b8ff" d="M221.017,-78.2352C205.645,-76.3237 189.321,-74.2938 173.771,-72.3601"/>
<polygon fill="#63b8ff" stroke="#63b8ff" points="220.608,-81.7112 230.963,-79.4721 221.471,-74.7647 220.608,-81.7112"/>
</g>
<!-- Node5 -->
<g id="node5" class="node"><title>Node5</title>
<g id="a_node5"><a xlink:href="classore_1_1data_1_1_risk_participation_agreement_l_g_m_grid_engine_builder.html#a29e3df272decd45b35d8fe08ef7308e0" target="_top" xlink:title=" ">
<polygon fill="white" stroke="#666666" points="195,-30 0,-30 0,-0 195,-0 195,-30"/>
<text text-anchor="start" x="8" y="-18" font-family="Helvetica,sans-Serif" font-size="10.00">ore::data::RiskParticipation</text>
<text text-anchor="middle" x="97.5" y="-7" font-family="Helvetica,sans-Serif" font-size="10.00">AgreementLGMGridEngineBuilder::model</text>
</a>
</g>
</g>
<!-- Node1&#45;&gt;Node5 -->
<g id="edge4" class="edge"><title>Node1&#45;&gt;Node5</title>
<path fill="none" stroke="#63b8ff" d="M265.972,-72.3833C246.902,-61.9437 219.937,-48.178 195,-39 186.008,-35.6906 176.38,-32.6881 166.813,-30.0149"/>
<polygon fill="#63b8ff" stroke="#63b8ff" points="264.472,-75.554 274.913,-77.3516 267.872,-69.4351 264.472,-75.554"/>
</g>
</g>
</svg>
