<?xml version="1.0" encoding="UTF-8" standalone="no"?>
<!DOCTYPE svg PUBLIC "-//W3C//DTD SVG 1.1//EN"
 "http://www.w3.org/Graphics/SVG/1.1/DTD/svg11.dtd">
<!-- Generated by graphviz version 2.38.0 (20140413.2041)
 -->
<!-- Title: atmForward Pages: 1 -->
<!--zoomable 278 -->
<svg id="main" version="1.1" xmlns="http://www.w3.org/2000/svg" xmlns:xlink="http://www.w3.org/1999/xlink" xml:space="preserve" onload="init(evt)">
<style type="text/css"><![CDATA[
.edge:hover path { stroke: red; }
.edge:hover polygon { stroke: red; fill: red; }
]]></style>
<script type="text/javascript"><![CDATA[
var edges = document.getElementsByTagName('g');
if (edges && edges.length) {
  for (var i=0;i<edges.length;i++) {
    if (edges[i].id.substr(0,4)=='edge') {
      edges[i].setAttribute('class','edge');
    }
  }
}
]]></script>
        <defs>
                <circle id="rim" cx="0" cy="0" r="7"/>
                <circle id="rim2" cx="0" cy="0" r="3.5"/>
                <g id="zoomPlus">
                        <use xlink:href="#rim" fill="#404040">
                                <set attributeName="fill" to="#808080" begin="zoomplus.mouseover" end="zoomplus.mouseout"/>
                        </use>
                        <path d="M-4,0h8M0,-4v8" fill="none" stroke="white" stroke-width="1.5" pointer-events="none"/>
                </g>
                <g id="zoomMin">
                        <use xlink:href="#rim" fill="#404040">
                                <set attributeName="fill" to="#808080" begin="zoomminus.mouseover" end="zoomminus.mouseout"/>
                        </use>
                        <path d="M-4,0h8" fill="none" stroke="white" stroke-width="1.5" pointer-events="none"/>
                </g>
                <g id="dirArrow">
                        <path fill="none" stroke="white" stroke-width="1.5" d="M0,-3.0v7 M-2.5,-0.5L0,-3.0L2.5,-0.5"/>
                </g>
               <g id="resetDef">
                       <use xlink:href="#rim2" fill="#404040">
                               <set attributeName="fill" to="#808080" begin="reset.mouseover" end="reset.mouseout"/>
                       </use>
               </g>
        </defs>

<script type="text/javascript">
var viewWidth = 696;
var viewHeight = 278;
var sectionId = 'dynsection-63';
</script>
<script xlink:href="svgpan.js"/>
<svg id="graph" class="graph">
<g id="viewport">
<title>atmForward</title>
<!-- Node1 -->
<g id="node1" class="node"><title>Node1</title>
<g id="a_node1"><a xlink:title="helper function that computes the atm forward">
<polygon fill="#999999" stroke="#666666" points="688,-144.5 620,-144.5 620,-125.5 688,-125.5 688,-144.5"/>
<text text-anchor="middle" x="654" y="-132.5" font-family="Helvetica,sans-Serif" font-size="10.00">atmForward</text>
</a>
</g>
</g>
<!-- Node2 -->
<g id="node2" class="node"><title>Node2</title>
<g id="a_node2"><a xlink:href="classore_1_1data_1_1_black_scholes_model_builder_base.html#aa5eb411def964300cb9bcf1b78f3a3d7" target="_top" xlink:title=" ">
<polygon fill="white" stroke="#666666" points="584,-270 399,-270 399,-240 584,-240 584,-270"/>
<text text-anchor="start" x="407" y="-258" font-family="Helvetica,sans-Serif" font-size="10.00">ore::data::BlackScholesModel</text>
<text text-anchor="middle" x="491.5" y="-247" font-family="Helvetica,sans-Serif" font-size="10.00">BuilderBase::calibrationPointsChanged</text>
</a>
</g>
</g>
<!-- Node1&#45;&gt;Node2 -->
<g id="edge1" class="edge"><title>Node1&#45;&gt;Node2</title>
<path fill="none" stroke="#63b8ff" d="M644.454,-153.841C633.552,-175.725 612.623,-211.332 584,-231 578.992,-234.441 573.52,-237.389 567.823,-239.914"/>
<polygon fill="#63b8ff" stroke="#63b8ff" points="647.719,-155.126 648.87,-144.594 641.402,-152.109 647.719,-155.126"/>
</g>
<!-- Node5 -->
<g id="node5" class="node"><title>Node5</title>
<g id="a_node5"><a xlink:href="classore_1_1data_1_1_local_vol_model_builder.html#a136879e594806988dcffa5d46d3bd0b7" target="_top" xlink:title=" ">
<polygon fill="white" stroke="#666666" points="569.5,-222 413.5,-222 413.5,-192 569.5,-192 569.5,-222"/>
<text text-anchor="start" x="421.5" y="-210" font-family="Helvetica,sans-Serif" font-size="10.00">ore::data::LocalVolModel</text>
<text text-anchor="middle" x="491.5" y="-199" font-family="Helvetica,sans-Serif" font-size="10.00">Builder::getCalibratedProcesses</text>
</a>
</g>
</g>
<!-- Node1&#45;&gt;Node5 -->
<g id="edge5" class="edge"><title>Node1&#45;&gt;Node5</title>
<path fill="none" stroke="#63b8ff" d="M633.66,-151.234C620.415,-161.628 602.044,-174.677 584,-183 576.693,-186.37 568.83,-189.33 560.893,-191.912"/>
<polygon fill="#63b8ff" stroke="#63b8ff" points="635.976,-153.863 641.568,-144.865 631.585,-148.412 635.976,-153.863"/>
</g>
<!-- Node6 -->
<g id="node6" class="node"><title>Node6</title>
<g id="a_node6"><a xlink:href="classore_1_1data_1_1_local_vol_model_builder.html#a51d608e59846ab8c0f2e6c970413976d" target="_top" xlink:title=" ">
<polygon fill="white" stroke="#666666" points="560,-174 423,-174 423,-144 560,-144 560,-174"/>
<text text-anchor="start" x="431" y="-162" font-family="Helvetica,sans-Serif" font-size="10.00">ore::data::LocalVolModel</text>
<text text-anchor="middle" x="491.5" y="-151" font-family="Helvetica,sans-Serif" font-size="10.00">Builder::getVolTimesStrikes</text>
</a>
</g>
</g>
<!-- Node1&#45;&gt;Node6 -->
<g id="edge6" class="edge"><title>Node1&#45;&gt;Node6</title>
<path fill="none" stroke="#63b8ff" d="M609.599,-141.49C594.369,-143.767 576.878,-146.383 560.138,-148.886"/>
<polygon fill="#63b8ff" stroke="#63b8ff" points="610.372,-144.913 619.744,-139.973 609.337,-137.99 610.372,-144.913"/>
</g>
<!-- Node7 -->
<g id="node7" class="node"><title>Node7</title>
<g id="a_node7"><a xlink:href="classore_1_1data_1_1_black_scholes.html#a1127cccc9668a02247dc139d27121708" target="_top" xlink:title=" ">
<polygon fill="white" stroke="#666666" points="552,-126 431,-126 431,-96 552,-96 552,-126"/>
<text text-anchor="start" x="439" y="-114" font-family="Helvetica,sans-Serif" font-size="10.00">ore::data::BlackScholes</text>
<text text-anchor="middle" x="491.5" y="-103" font-family="Helvetica,sans-Serif" font-size="10.00">::performCalculations</text>
</a>
</g>
</g>
<!-- Node1&#45;&gt;Node7 -->
<g id="edge7" class="edge"><title>Node1&#45;&gt;Node7</title>
<path fill="none" stroke="#63b8ff" d="M609.739,-128.531C592.086,-125.891 571.376,-122.795 552.314,-119.944"/>
<polygon fill="#63b8ff" stroke="#63b8ff" points="609.337,-132.01 619.744,-130.027 610.372,-125.087 609.337,-132.01"/>
</g>
<!-- Node8 -->
<g id="node8" class="node"><title>Node8</title>
<g id="a_node8"><a xlink:href="classore_1_1data_1_1_black_scholes_c_g.html#a1127cccc9668a02247dc139d27121708" target="_top" xlink:title=" ">
<polygon fill="white" stroke="#666666" points="559,-78 424,-78 424,-48 559,-48 559,-78"/>
<text text-anchor="start" x="432" y="-66" font-family="Helvetica,sans-Serif" font-size="10.00">ore::data::BlackScholesCG</text>
<text text-anchor="middle" x="491.5" y="-55" font-family="Helvetica,sans-Serif" font-size="10.00">::performCalculations</text>
</a>
</g>
</g>
<!-- Node1&#45;&gt;Node8 -->
<g id="edge8" class="edge"><title>Node1&#45;&gt;Node8</title>
<path fill="none" stroke="#63b8ff" d="M633.66,-118.766C620.415,-108.372 602.044,-95.3226 584,-87 576.245,-83.4232 567.866,-80.3093 559.435,-77.6177"/>
<polygon fill="#63b8ff" stroke="#63b8ff" points="631.585,-121.588 641.568,-125.135 635.976,-116.137 631.585,-121.588"/>
</g>
<!-- Node9 -->
<g id="node9" class="node"><title>Node9</title>
<g id="a_node9"><a xlink:href="classore_1_1data_1_1_fd_black_scholes_base.html#a1127cccc9668a02247dc139d27121708" target="_top" xlink:title=" ">
<polygon fill="white" stroke="#666666" points="557.5,-30 425.5,-30 425.5,-0 557.5,-0 557.5,-30"/>
<text text-anchor="start" x="433.5" y="-18" font-family="Helvetica,sans-Serif" font-size="10.00">ore::data::FdBlackScholes</text>
<text text-anchor="middle" x="491.5" y="-7" font-family="Helvetica,sans-Serif" font-size="10.00">Base::performCalculations</text>
</a>
</g>
</g>
<!-- Node1&#45;&gt;Node9 -->
<g id="edge9" class="edge"><title>Node1&#45;&gt;Node9</title>
<path fill="none" stroke="#63b8ff" d="M644.454,-116.159C633.552,-94.2752 612.623,-58.6684 584,-39 576.15,-33.6055 567.16,-29.4235 557.949,-26.1814"/>
<polygon fill="#63b8ff" stroke="#63b8ff" points="641.402,-117.891 648.87,-125.406 647.719,-114.874 641.402,-117.891"/>
</g>
<!-- Node3 -->
<g id="node3" class="node"><title>Node3</title>
<g id="a_node3"><a xlink:href="classore_1_1data_1_1_black_scholes_model_builder_base.html#a1127cccc9668a02247dc139d27121708" target="_top" xlink:title=" ">
<polygon fill="white" stroke="#666666" points="161,-269 0,-269 0,-239 161,-239 161,-269"/>
<text text-anchor="start" x="8" y="-257" font-family="Helvetica,sans-Serif" font-size="10.00">ore::data::BlackScholesModel</text>
<text text-anchor="middle" x="80.5" y="-246" font-family="Helvetica,sans-Serif" font-size="10.00">BuilderBase::performCalculations</text>
</a>
</g>
</g>
<!-- Node2&#45;&gt;Node3 -->
<g id="edge2" class="edge"><title>Node2&#45;&gt;Node3</title>
<path fill="none" stroke="#63b8ff" d="M388.711,-256.74C380.014,-256.845 371.353,-256.934 363,-257 289.224,-257.579 270.772,-257.958 197,-257 185.367,-256.849 173.076,-256.612 161.023,-256.337"/>
<polygon fill="#63b8ff" stroke="#63b8ff" points="388.965,-260.237 398.92,-256.609 388.876,-253.237 388.965,-260.237"/>
</g>
<!-- Node4 -->
<g id="node4" class="node"><title>Node4</title>
<g id="a_node4"><a xlink:href="classore_1_1data_1_1_black_scholes_model_builder_base.html#a83cbd1c07f17f2f51faea02f40eeaac9" target="_top" xlink:title=" ">
<polygon fill="white" stroke="#666666" points="363,-248 197,-248 197,-218 363,-218 363,-248"/>
<text text-anchor="start" x="205" y="-236" font-family="Helvetica,sans-Serif" font-size="10.00">ore::data::BlackScholesModel</text>
<text text-anchor="middle" x="280" y="-225" font-family="Helvetica,sans-Serif" font-size="10.00">BuilderBase::requiresRecalibration</text>
</a>
</g>
</g>
<!-- Node2&#45;&gt;Node4 -->
<g id="edge3" class="edge"><title>Node2&#45;&gt;Node4</title>
<path fill="none" stroke="#63b8ff" d="M388.841,-244.325C380.237,-243.421 371.605,-242.515 363.178,-241.63"/>
<polygon fill="#63b8ff" stroke="#63b8ff" points="388.604,-247.819 398.915,-245.382 389.335,-240.857 388.604,-247.819"/>
</g>
<!-- Node4&#45;&gt;Node3 -->
<g id="edge4" class="edge"><title>Node4&#45;&gt;Node3</title>
<path fill="none" stroke="#63b8ff" d="M186.88,-242.795C178.255,-243.712 169.562,-244.636 161.066,-245.54"/>
<polygon fill="#63b8ff" stroke="#63b8ff" points="187.384,-246.261 196.958,-241.723 186.644,-239.3 187.384,-246.261"/>
</g>
</g>
</svg>
        <g id="navigator" transform="translate(0 0)" fill="#404254">
                <rect fill="#f2f5e9" fill-opacity="0.5" stroke="#606060" stroke-width=".5" x="0" y="0" width="60" height="60"/>
                <use id="zoomplus" xlink:href="#zoomPlus" x="17" y="9" onmousedown="handleZoom(evt,'in')"/>
                <use id="zoomminus" xlink:href="#zoomMin" x="42" y="9" onmousedown="handleZoom(evt,'out')"/>
                <use id="reset" xlink:href="#resetDef" x="30" y="36" onmousedown="handleReset()"/>
                <g id="arrowUp" xlink:href="#dirArrow" transform="translate(30 24)" onmousedown="handlePan(0,-1)">
                  <use xlink:href="#rim" fill="#404040">
                        <set attributeName="fill" to="#808080" begin="arrowUp.mouseover" end="arrowUp.mouseout"/>
                  </use>
                  <path fill="none" stroke="white" stroke-width="1.5" d="M0,-3.0v7 M-2.5,-0.5L0,-3.0L2.5,-0.5"/>
                </g>
                <g id="arrowRight" xlink:href="#dirArrow" transform="rotate(90) translate(36 -43)" onmousedown="handlePan(1,0)">
                  <use xlink:href="#rim" fill="#404040">
                        <set attributeName="fill" to="#808080" begin="arrowRight.mouseover" end="arrowRight.mouseout"/>
                  </use>
                  <path fill="none" stroke="white" stroke-width="1.5" d="M0,-3.0v7 M-2.5,-0.5L0,-3.0L2.5,-0.5"/>
                </g>
                <g id="arrowDown" xlink:href="#dirArrow" transform="rotate(180) translate(-30 -48)" onmousedown="handlePan(0,1)">
                  <use xlink:href="#rim" fill="#404040">
                        <set attributeName="fill" to="#808080" begin="arrowDown.mouseover" end="arrowDown.mouseout"/>
                  </use>
                  <path fill="none" stroke="white" stroke-width="1.5" d="M0,-3.0v7 M-2.5,-0.5L0,-3.0L2.5,-0.5"/>
                </g>
                <g id="arrowLeft" xlink:href="#dirArrow" transform="rotate(270) translate(-36 17)" onmousedown="handlePan(-1,0)">
                  <use xlink:href="#rim" fill="#404040">
                        <set attributeName="fill" to="#808080" begin="arrowLeft.mouseover" end="arrowLeft.mouseout"/>
                  </use>
                  <path fill="none" stroke="white" stroke-width="1.5" d="M0,-3.0v7 M-2.5,-0.5L0,-3.0L2.5,-0.5"/>
                </g>
        </g>
        <svg viewBox="0 0 15 15" width="100%" height="30px" preserveAspectRatio="xMaxYMin meet">
         <g id="arrow_out" transform="scale(0.3 0.3)">
          <a xlink:href="namespaceore_1_1data_a7a2f6f438823e3f124eac5bf1e228cef_icgraph_org.svg" target="_base">
           <rect id="button" ry="5" rx="5" y="6" x="6" height="38" width="38"
                fill="#f2f5e9" fill-opacity="0.5" stroke="#606060" stroke-width="1.0"/>
           <path id="arrow"
             d="M 11.500037,31.436501 C 11.940474,20.09759 22.043105,11.32322 32.158766,21.979434 L 37.068811,17.246167 C 37.068811,17.246167 37.088388,32 37.088388,32 L 22.160133,31.978069 C 22.160133,31.978069 26.997745,27.140456 26.997745,27.140456 C 18.528582,18.264221 13.291696,25.230495 11.500037,31.436501 z"
             style="fill:#404040;"/>
          </a>
         </g>
        </svg>
</svg>
