<?xml version="1.0" encoding="UTF-8" standalone="no"?>
<!DOCTYPE svg PUBLIC "-//W3C//DTD SVG 1.1//EN"
 "http://www.w3.org/Graphics/SVG/1.1/DTD/svg11.dtd">
<!-- Generated by graphviz version 2.38.0 (20140413.2041)
 -->
<!-- Title: parseExpiry Pages: 1 -->
<!--zoomable 228 -->
<svg id="main" version="1.1" xmlns="http://www.w3.org/2000/svg" xmlns:xlink="http://www.w3.org/1999/xlink" xml:space="preserve" onload="init(evt)">
<style type="text/css"><![CDATA[
.edge:hover path { stroke: red; }
.edge:hover polygon { stroke: red; fill: red; }
]]></style>
<script type="text/javascript"><![CDATA[
var edges = document.getElementsByTagName('g');
if (edges && edges.length) {
  for (var i=0;i<edges.length;i++) {
    if (edges[i].id.substr(0,4)=='edge') {
      edges[i].setAttribute('class','edge');
    }
  }
}
]]></script>
        <defs>
                <circle id="rim" cx="0" cy="0" r="7"/>
                <circle id="rim2" cx="0" cy="0" r="3.5"/>
                <g id="zoomPlus">
                        <use xlink:href="#rim" fill="#404040">
                                <set attributeName="fill" to="#808080" begin="zoomplus.mouseover" end="zoomplus.mouseout"/>
                        </use>
                        <path d="M-4,0h8M0,-4v8" fill="none" stroke="white" stroke-width="1.5" pointer-events="none"/>
                </g>
                <g id="zoomMin">
                        <use xlink:href="#rim" fill="#404040">
                                <set attributeName="fill" to="#808080" begin="zoomminus.mouseover" end="zoomminus.mouseout"/>
                        </use>
                        <path d="M-4,0h8" fill="none" stroke="white" stroke-width="1.5" pointer-events="none"/>
                </g>
                <g id="dirArrow">
                        <path fill="none" stroke="white" stroke-width="1.5" d="M0,-3.0v7 M-2.5,-0.5L0,-3.0L2.5,-0.5"/>
                </g>
               <g id="resetDef">
                       <use xlink:href="#rim2" fill="#404040">
                               <set attributeName="fill" to="#808080" begin="reset.mouseover" end="reset.mouseout"/>
                       </use>
               </g>
        </defs>

<script type="text/javascript">
var viewWidth = 782;
var viewHeight = 228;
var sectionId = 'dynsection-16';
</script>
<script xlink:href="svgpan.js"/>
<svg id="graph" class="graph">
<g id="viewport">
<title>parseExpiry</title>
<!-- Node1 -->
<g id="node1" class="node"><title>Node1</title>
<g id="a_node1"><a xlink:title="Parse an Expiry from its string representation, strExpiry.">
<polygon fill="#999999" stroke="#666666" points="774,-176.5 706,-176.5 706,-157.5 774,-157.5 774,-176.5"/>
<text text-anchor="middle" x="740" y="-164.5" font-family="Helvetica,sans-Serif" font-size="10.00">parseExpiry</text>
</a>
</g>
</g>
<!-- Node2 -->
<g id="node2" class="node"><title>Node2</title>
<g id="a_node2"><a xlink:href="test_2expiry_8cpp.html#ac6cb18ebc0cddef621e3eef868abf062" target="_top" xlink:title=" ">
<polygon fill="white" stroke="#666666" points="670,-219.5 527,-219.5 527,-200.5 670,-200.5 670,-219.5"/>
<text text-anchor="middle" x="598.5" y="-207.5" font-family="Helvetica,sans-Serif" font-size="10.00">BOOST_AUTO_TEST_CASE</text>
</a>
</g>
</g>
<!-- Node1&#45;&gt;Node2 -->
<g id="edge1" class="edge"><title>Node1&#45;&gt;Node2</title>
<path fill="none" stroke="#63b8ff" d="M703.47,-179.903C692.765,-183.643 680.95,-187.625 670,-191 659.34,-194.286 647.678,-197.558 636.963,-200.437"/>
<polygon fill="#63b8ff" stroke="#63b8ff" points="704.67,-183.191 712.933,-176.56 702.339,-176.591 704.67,-183.191"/>
</g>
<!-- Node3 -->
<g id="node3" class="node"><title>Node3</title>
<g id="a_node3"><a xlink:href="classore_1_1data_1_1_equity_vol_curve.html#afff043fce577f592f6a660001d412371" target="_top" xlink:title="Build a volatility surface from a collection of expiry and strike delta pairs.">
<polygon fill="white" stroke="#666666" points="662,-182 535,-182 535,-152 662,-152 662,-182"/>
<text text-anchor="start" x="543" y="-170" font-family="Helvetica,sans-Serif" font-size="10.00">ore::data::EquityVolCurve</text>
<text text-anchor="middle" x="598.5" y="-159" font-family="Helvetica,sans-Serif" font-size="10.00">::buildVolatility</text>
</a>
</g>
</g>
<!-- Node1&#45;&gt;Node3 -->
<g id="edge2" class="edge"><title>Node1&#45;&gt;Node3</title>
<path fill="none" stroke="#63b8ff" d="M695.681,-167C685.056,-167 673.471,-167 662.139,-167"/>
<polygon fill="#63b8ff" stroke="#63b8ff" points="695.94,-170.5 705.94,-167 695.94,-163.5 695.94,-170.5"/>
</g>
<!-- Node4 -->
<g id="node4" class="node"><title>Node4</title>
<g id="a_node4"><a xlink:href="group__marketdata.html#ga49b8909d3761de5c44f8140f95ec0d94" target="_top" xlink:title="Function to parse a market datum.">
<polygon fill="white" stroke="#666666" points="648,-115.5 549,-115.5 549,-96.5 648,-96.5 648,-115.5"/>
<text text-anchor="middle" x="598.5" y="-103.5" font-family="Helvetica,sans-Serif" font-size="10.00">parseMarketDatum</text>
</a>
</g>
</g>
<!-- Node1&#45;&gt;Node4 -->
<g id="edge3" class="edge"><title>Node1&#45;&gt;Node4</title>
<path fill="none" stroke="#63b8ff" d="M707.733,-153.328C681.547,-141.877 644.827,-125.82 621.604,-115.666"/>
<polygon fill="#63b8ff" stroke="#63b8ff" points="706.639,-156.669 717.203,-157.469 709.443,-150.255 706.639,-156.669"/>
</g>
<!-- Node4&#45;&gt;Node4 -->
<g id="edge15" class="edge"><title>Node4&#45;&gt;Node4</title>
<path fill="none" stroke="#63b8ff" d="M624.542,-124.689C623.121,-129.697 614.441,-133.5 598.5,-133.5 573.617,-133.5 566.424,-124.234 576.922,-115.583"/>
<polygon fill="#63b8ff" stroke="#63b8ff" points="627.622,-123.022 620.078,-115.583 621.336,-126.103 627.622,-123.022"/>
</g>
<!-- Node5 -->
<g id="node5" class="node"><title>Node5</title>
<g id="a_node5"><a xlink:href="classore_1_1data_1_1_adjusted_in_memory_loader.html#a394ea65c115638a789b7e4793aed8f8a" target="_top" xlink:title=" ">
<polygon fill="white" stroke="#666666" points="300,-196 158,-196 158,-166 300,-166 300,-196"/>
<text text-anchor="start" x="166" y="-184" font-family="Helvetica,sans-Serif" font-size="10.00">ore::data::AdjustedInMemory</text>
<text text-anchor="middle" x="229" y="-173" font-family="Helvetica,sans-Serif" font-size="10.00">Loader::add</text>
</a>
</g>
</g>
<!-- Node4&#45;&gt;Node5 -->
<g id="edge4" class="edge"><title>Node4&#45;&gt;Node5</title>
<path fill="none" stroke="#63b8ff" d="M570.267,-120.274C557.18,-127.138 541.272,-135.488 527,-143 510.99,-151.426 508.391,-157.015 491,-162 428.11,-180.026 353.389,-183.785 300.046,-183.623"/>
<polygon fill="#63b8ff" stroke="#63b8ff" points="572.004,-123.315 579.235,-115.571 568.753,-117.116 572.004,-123.315"/>
</g>
<!-- Node6 -->
<g id="node6" class="node"><title>Node6</title>
<g id="a_node6"><a xlink:href="classore_1_1data_1_1_in_memory_loader.html#ab033d7bbd4da0af2f75abb8952fcacce" target="_top" xlink:title=" ">
<polygon fill="white" stroke="#666666" points="491,-152.5 336,-152.5 336,-133.5 491,-133.5 491,-152.5"/>
<text text-anchor="middle" x="413.5" y="-140.5" font-family="Helvetica,sans-Serif" font-size="10.00">ore::data::InMemoryLoader::add</text>
</a>
</g>
</g>
<!-- Node4&#45;&gt;Node6 -->
<g id="edge5" class="edge"><title>Node4&#45;&gt;Node6</title>
<path fill="none" stroke="#63b8ff" d="M540.542,-117.516C515.252,-122.629 485.836,-128.577 461.785,-133.44"/>
<polygon fill="#63b8ff" stroke="#63b8ff" points="541.265,-120.941 550.373,-115.528 539.878,-114.08 541.265,-120.941"/>
</g>
<!-- Node9 -->
<g id="node9" class="node"><title>Node9</title>
<g id="a_node9"><a xlink:href="equitymarketdata_8cpp.html#a386ad4b756cebb1ed30e0dcbbf64dcb6" target="_top" xlink:title=" ">
<polygon fill="white" stroke="#666666" points="485,-115.5 342,-115.5 342,-96.5 485,-96.5 485,-115.5"/>
<text text-anchor="middle" x="413.5" y="-103.5" font-family="Helvetica,sans-Serif" font-size="10.00">BOOST_AUTO_TEST_CASE</text>
</a>
</g>
</g>
<!-- Node4&#45;&gt;Node9 -->
<g id="edge9" class="edge"><title>Node4&#45;&gt;Node9</title>
<path fill="none" stroke="#63b8ff" d="M538.621,-106C521.651,-106 502.958,-106 485.343,-106"/>
<polygon fill="#63b8ff" stroke="#63b8ff" points="538.94,-109.5 548.94,-106 538.94,-102.5 538.94,-109.5"/>
</g>
<!-- Node10 -->
<g id="node10" class="node"><title>Node10</title>
<g id="a_node10"><a xlink:href="classore_1_1data_1_1_dependency_graph.html#a32f251ee6ad9521e1cb321a91d778da5" target="_top" xlink:title=" ">
<polygon fill="white" stroke="#666666" points="484,-78 343,-78 343,-48 484,-48 484,-78"/>
<text text-anchor="start" x="351" y="-66" font-family="Helvetica,sans-Serif" font-size="10.00">ore::data::DependencyGraph</text>
<text text-anchor="middle" x="413.5" y="-55" font-family="Helvetica,sans-Serif" font-size="10.00">::buildDependencyGraph</text>
</a>
</g>
</g>
<!-- Node4&#45;&gt;Node10 -->
<g id="edge10" class="edge"><title>Node4&#45;&gt;Node10</title>
<path fill="none" stroke="#63b8ff" d="M547.098,-94.1569C525.853,-89.1649 500.877,-83.2962 478.364,-78.0063"/>
<polygon fill="#63b8ff" stroke="#63b8ff" points="546.351,-97.5766 556.886,-96.4569 547.952,-90.7622 546.351,-97.5766"/>
</g>
<!-- Node13 -->
<g id="node13" class="node"><title>Node13</title>
<g id="a_node13"><a xlink:href="classore_1_1data_1_1_c_s_v_loader.html#af8a277c7dc57076a3daec6356ccc1be3" target="_top" xlink:title=" ">
<polygon fill="white" stroke="#666666" points="468.5,-30 358.5,-30 358.5,-0 468.5,-0 468.5,-30"/>
<text text-anchor="start" x="366.5" y="-18" font-family="Helvetica,sans-Serif" font-size="10.00">ore::data::CSVLoader</text>
<text text-anchor="middle" x="413.5" y="-7" font-family="Helvetica,sans-Serif" font-size="10.00">::loadFile</text>
</a>
</g>
</g>
<!-- Node4&#45;&gt;Node13 -->
<g id="edge13" class="edge"><title>Node4&#45;&gt;Node13</title>
<path fill="none" stroke="#63b8ff" d="M576.551,-90.5307C555.714,-75.709 522.406,-53.5091 491,-39 483.924,-35.7309 476.283,-32.7436 468.663,-30.0712"/>
<polygon fill="#63b8ff" stroke="#63b8ff" points="574.516,-93.3789 584.675,-96.3873 578.61,-87.7004 574.516,-93.3789"/>
</g>
<!-- Node6&#45;&gt;Node5 -->
<g id="edge6" class="edge"><title>Node6&#45;&gt;Node5</title>
<path fill="none" stroke="#63b8ff" d="M356.283,-154.705C338.569,-158.394 318.779,-162.515 300.217,-166.38"/>
<polygon fill="#63b8ff" stroke="#63b8ff" points="357.371,-158.054 366.448,-152.589 355.944,-151.201 357.371,-158.054"/>
</g>
<!-- Node7 -->
<g id="node7" class="node"><title>Node7</title>
<g id="a_node7"><a xlink:href="namespaceore_1_1data.html#a42f1390d171c5924c3fa721f51a32200" target="_top" xlink:title=" ">
<polygon fill="white" stroke="#666666" points="246.5,-147.5 211.5,-147.5 211.5,-128.5 246.5,-128.5 246.5,-147.5"/>
<text text-anchor="middle" x="229" y="-135.5" font-family="Helvetica,sans-Serif" font-size="10.00">load</text>
</a>
</g>
</g>
<!-- Node6&#45;&gt;Node7 -->
<g id="edge7" class="edge"><title>Node6&#45;&gt;Node7</title>
<path fill="none" stroke="#63b8ff" d="M325.729,-140.623C295.616,-139.798 264.852,-138.955 246.595,-138.455"/>
<polygon fill="#63b8ff" stroke="#63b8ff" points="325.805,-144.126 335.897,-140.901 325.996,-137.129 325.805,-144.126"/>
</g>
<!-- Node8 -->
<g id="node8" class="node"><title>Node8</title>
<g id="a_node8"><a xlink:href="namespaceore_1_1data.html#a22d0bfabdad131343a5f49618b7db10d" target="_top" xlink:title="Utility function for loading market quotes and fixings from an in memory csv buffer.">
<polygon fill="white" stroke="#666666" points="114.5,-147.5 7.5,-147.5 7.5,-128.5 114.5,-128.5 114.5,-147.5"/>
<text text-anchor="middle" x="61" y="-135.5" font-family="Helvetica,sans-Serif" font-size="10.00">loadDataFromBuffers</text>
</a>
</g>
</g>
<!-- Node7&#45;&gt;Node8 -->
<g id="edge8" class="edge"><title>Node7&#45;&gt;Node8</title>
<path fill="none" stroke="#63b8ff" d="M201.317,-138C178.017,-138 143.511,-138 114.67,-138"/>
<polygon fill="#63b8ff" stroke="#63b8ff" points="201.476,-141.5 211.476,-138 201.476,-134.5 201.476,-141.5"/>
</g>
<!-- Node11 -->
<g id="node11" class="node"><title>Node11</title>
<g id="a_node11"><a xlink:href="classore_1_1data_1_1_todays_market.html#a0816e5ec53019bee5353fea5fc006eb1" target="_top" xlink:title=" ">
<polygon fill="white" stroke="#666666" points="290,-78 168,-78 168,-48 290,-48 290,-78"/>
<text text-anchor="start" x="176" y="-66" font-family="Helvetica,sans-Serif" font-size="10.00">ore::data::TodaysMarket</text>
<text text-anchor="middle" x="229" y="-55" font-family="Helvetica,sans-Serif" font-size="10.00">::initialise</text>
</a>
</g>
</g>
<!-- Node10&#45;&gt;Node11 -->
<g id="edge11" class="edge"><title>Node10&#45;&gt;Node11</title>
<path fill="none" stroke="#63b8ff" d="M332.665,-63C318.374,-63 303.703,-63 290.084,-63"/>
<polygon fill="#63b8ff" stroke="#63b8ff" points="332.984,-66.5001 342.984,-63 332.984,-59.5001 332.984,-66.5001"/>
</g>
<!-- Node12 -->
<g id="node12" class="node"><title>Node12</title>
<g id="a_node12"><a xlink:href="classore_1_1data_1_1_todays_market.html#ad79acb672b27bd7258f228494d94cb32" target="_top" xlink:title="Constructor taking pointers and allowing for a lazy build of the market objects.">
<polygon fill="white" stroke="#666666" points="122,-78 7.10543e-015,-78 7.10543e-015,-48 122,-48 122,-78"/>
<text text-anchor="start" x="8" y="-66" font-family="Helvetica,sans-Serif" font-size="10.00">ore::data::TodaysMarket</text>
<text text-anchor="middle" x="61" y="-55" font-family="Helvetica,sans-Serif" font-size="10.00">::TodaysMarket</text>
</a>
</g>
</g>
<!-- Node11&#45;&gt;Node12 -->
<g id="edge12" class="edge"><title>Node11&#45;&gt;Node12</title>
<path fill="none" stroke="#63b8ff" d="M157.383,-63C145.629,-63 133.537,-63 122.076,-63"/>
<polygon fill="#63b8ff" stroke="#63b8ff" points="157.601,-66.5001 167.601,-63 157.601,-59.5001 157.601,-66.5001"/>
</g>
<!-- Node14 -->
<g id="node14" class="node"><title>Node14</title>
<g id="a_node14"><a xlink:href="classore_1_1data_1_1_c_s_v_loader.html#a9cd43c2280d0cee91b282fe13b36679d" target="_top" xlink:title=" ">
<polygon fill="white" stroke="#666666" points="284,-30 174,-30 174,-0 284,-0 284,-30"/>
<text text-anchor="start" x="182" y="-18" font-family="Helvetica,sans-Serif" font-size="10.00">ore::data::CSVLoader</text>
<text text-anchor="middle" x="229" y="-7" font-family="Helvetica,sans-Serif" font-size="10.00">::CSVLoader</text>
</a>
</g>
</g>
<!-- Node13&#45;&gt;Node14 -->
<g id="edge14" class="edge"><title>Node13&#45;&gt;Node14</title>
<path fill="none" stroke="#63b8ff" d="M348.143,-15C327.194,-15 304.168,-15 284.053,-15"/>
<polygon fill="#63b8ff" stroke="#63b8ff" points="348.238,-18.5001 358.238,-15 348.238,-11.5001 348.238,-18.5001"/>
</g>
</g>
</svg>
        <g id="navigator" transform="translate(0 0)" fill="#404254">
                <rect fill="#f2f5e9" fill-opacity="0.5" stroke="#606060" stroke-width=".5" x="0" y="0" width="60" height="60"/>
                <use id="zoomplus" xlink:href="#zoomPlus" x="17" y="9" onmousedown="handleZoom(evt,'in')"/>
                <use id="zoomminus" xlink:href="#zoomMin" x="42" y="9" onmousedown="handleZoom(evt,'out')"/>
                <use id="reset" xlink:href="#resetDef" x="30" y="36" onmousedown="handleReset()"/>
                <g id="arrowUp" xlink:href="#dirArrow" transform="translate(30 24)" onmousedown="handlePan(0,-1)">
                  <use xlink:href="#rim" fill="#404040">
                        <set attributeName="fill" to="#808080" begin="arrowUp.mouseover" end="arrowUp.mouseout"/>
                  </use>
                  <path fill="none" stroke="white" stroke-width="1.5" d="M0,-3.0v7 M-2.5,-0.5L0,-3.0L2.5,-0.5"/>
                </g>
                <g id="arrowRight" xlink:href="#dirArrow" transform="rotate(90) translate(36 -43)" onmousedown="handlePan(1,0)">
                  <use xlink:href="#rim" fill="#404040">
                        <set attributeName="fill" to="#808080" begin="arrowRight.mouseover" end="arrowRight.mouseout"/>
                  </use>
                  <path fill="none" stroke="white" stroke-width="1.5" d="M0,-3.0v7 M-2.5,-0.5L0,-3.0L2.5,-0.5"/>
                </g>
                <g id="arrowDown" xlink:href="#dirArrow" transform="rotate(180) translate(-30 -48)" onmousedown="handlePan(0,1)">
                  <use xlink:href="#rim" fill="#404040">
                        <set attributeName="fill" to="#808080" begin="arrowDown.mouseover" end="arrowDown.mouseout"/>
                  </use>
                  <path fill="none" stroke="white" stroke-width="1.5" d="M0,-3.0v7 M-2.5,-0.5L0,-3.0L2.5,-0.5"/>
                </g>
                <g id="arrowLeft" xlink:href="#dirArrow" transform="rotate(270) translate(-36 17)" onmousedown="handlePan(-1,0)">
                  <use xlink:href="#rim" fill="#404040">
                        <set attributeName="fill" to="#808080" begin="arrowLeft.mouseover" end="arrowLeft.mouseout"/>
                  </use>
                  <path fill="none" stroke="white" stroke-width="1.5" d="M0,-3.0v7 M-2.5,-0.5L0,-3.0L2.5,-0.5"/>
                </g>
        </g>
        <svg viewBox="0 0 15 15" width="100%" height="30px" preserveAspectRatio="xMaxYMin meet">
         <g id="arrow_out" transform="scale(0.3 0.3)">
          <a xlink:href="namespaceore_1_1data_aef9033372c401fe3ddef3c912a716d5a_icgraph_org.svg" target="_base">
           <rect id="button" ry="5" rx="5" y="6" x="6" height="38" width="38"
                fill="#f2f5e9" fill-opacity="0.5" stroke="#606060" stroke-width="1.0"/>
           <path id="arrow"
             d="M 11.500037,31.436501 C 11.940474,20.09759 22.043105,11.32322 32.158766,21.979434 L 37.068811,17.246167 C 37.068811,17.246167 37.088388,32 37.088388,32 L 22.160133,31.978069 C 22.160133,31.978069 26.997745,27.140456 26.997745,27.140456 C 18.528582,18.264221 13.291696,25.230495 11.500037,31.436501 z"
             style="fill:#404040;"/>
          </a>
         </g>
        </svg>
</svg>
