<?xml version="1.0" encoding="UTF-8" standalone="no"?>
<!DOCTYPE svg PUBLIC "-//W3C//DTD SVG 1.1//EN"
 "http://www.w3.org/Graphics/SVG/1.1/DTD/svg11.dtd">
<!-- Generated by graphviz version 2.38.0 (20140413.2041)
 -->
<!-- Title: applyIndexing Pages: 1 -->
<svg width="458pt" height="769pt"
 viewBox="0.00 0.00 458.00 768.50" xmlns="http://www.w3.org/2000/svg" xmlns:xlink="http://www.w3.org/1999/xlink">
<g id="graph0" class="graph" transform="scale(1 1) rotate(0) translate(4 764.5)">
<title>applyIndexing</title>
<!-- Node1 -->
<g id="node1" class="node"><title>Node1</title>
<g id="a_node1"><a xlink:title=" ">
<polygon fill="#999999" stroke="#666666" points="450,-336.5 374,-336.5 374,-317.5 450,-317.5 450,-336.5"/>
<text text-anchor="middle" x="412" y="-324.5" font-family="Helvetica,sans-Serif" font-size="10.00">applyIndexing</text>
</a>
</g>
</g>
<!-- Node2 -->
<g id="node2" class="node"><title>Node2</title>
<g id="a_node2"><a xlink:href="classore_1_1data_1_1_swap.html#af7b69d5b18d278257927e32b10a23ee6" target="_top" xlink:title="Build QuantLib/QuantExt instrument, link pricing engine.">
<polygon fill="white" stroke="#666666" points="314,-669.5 203,-669.5 203,-650.5 314,-650.5 314,-669.5"/>
<text text-anchor="middle" x="258.5" y="-657.5" font-family="Helvetica,sans-Serif" font-size="10.00">ore::data::Swap::build</text>
</a>
</g>
</g>
<!-- Node1&#45;&gt;Node2 -->
<g id="edge1" class="edge"><title>Node1&#45;&gt;Node2</title>
<path fill="none" stroke="#63b8ff" d="M411.075,-346.687C410.286,-396.723 401.94,-530.762 338,-615 325.368,-631.642 304.673,-643.138 287.703,-650.343"/>
<polygon fill="#63b8ff" stroke="#63b8ff" points="414.575,-346.61 411.144,-336.586 407.576,-346.562 414.575,-346.61"/>
</g>
<!-- Node7 -->
<g id="node7" class="node"><title>Node7</title>
<g id="a_node7"><a xlink:href="classore_1_1data_1_1_fixed_leg_builder.html#aea285351d9f3458189a9e2d965349d23" target="_top" xlink:title=" ">
<polygon fill="white" stroke="#666666" points="324,-606 193,-606 193,-576 324,-576 324,-606"/>
<text text-anchor="start" x="201" y="-594" font-family="Helvetica,sans-Serif" font-size="10.00">ore::data::FixedLegBuilder</text>
<text text-anchor="middle" x="258.5" y="-583" font-family="Helvetica,sans-Serif" font-size="10.00">::buildLeg</text>
</a>
</g>
</g>
<!-- Node1&#45;&gt;Node7 -->
<g id="edge6" class="edge"><title>Node1&#45;&gt;Node7</title>
<path fill="none" stroke="#63b8ff" d="M410.904,-346.917C409.577,-392.466 399.845,-505.066 338,-567 333.972,-571.034 329.286,-574.393 324.247,-577.19"/>
<polygon fill="#63b8ff" stroke="#63b8ff" points="414.404,-346.915 411.087,-336.854 407.406,-346.788 414.404,-346.915"/>
</g>
<!-- Node9 -->
<g id="node9" class="node"><title>Node9</title>
<g id="a_node9"><a xlink:href="classore_1_1data_1_1_zero_coupon_fixed_leg_builder.html#aea285351d9f3458189a9e2d965349d23" target="_top" xlink:title=" ">
<polygon fill="white" stroke="#666666" points="327,-558 190,-558 190,-528 327,-528 327,-558"/>
<text text-anchor="start" x="198" y="-546" font-family="Helvetica,sans-Serif" font-size="10.00">ore::data::ZeroCouponFixed</text>
<text text-anchor="middle" x="258.5" y="-535" font-family="Helvetica,sans-Serif" font-size="10.00">LegBuilder::buildLeg</text>
</a>
</g>
</g>
<!-- Node1&#45;&gt;Node9 -->
<g id="edge8" class="edge"><title>Node1&#45;&gt;Node9</title>
<path fill="none" stroke="#63b8ff" d="M409.175,-346.551C404.52,-385.16 388.723,-471.548 338,-519 334.358,-522.408 330.244,-525.332 325.855,-527.842"/>
<polygon fill="#63b8ff" stroke="#63b8ff" points="412.655,-346.916 410.25,-336.598 405.696,-346.164 412.655,-346.916"/>
</g>
<!-- Node10 -->
<g id="node10" class="node"><title>Node10</title>
<g id="a_node10"><a xlink:href="classore_1_1data_1_1_floating_leg_builder.html#aea285351d9f3458189a9e2d965349d23" target="_top" xlink:title=" ">
<polygon fill="white" stroke="#666666" points="329,-510 188,-510 188,-480 329,-480 329,-510"/>
<text text-anchor="start" x="196" y="-498" font-family="Helvetica,sans-Serif" font-size="10.00">ore::data::FloatingLegBuilder</text>
<text text-anchor="middle" x="258.5" y="-487" font-family="Helvetica,sans-Serif" font-size="10.00">::buildLeg</text>
</a>
</g>
</g>
<!-- Node1&#45;&gt;Node10 -->
<g id="edge9" class="edge"><title>Node1&#45;&gt;Node10</title>
<path fill="none" stroke="#63b8ff" d="M406.341,-346.707C397.995,-377.705 377.55,-437.744 338,-471 333.964,-474.394 329.455,-477.307 324.694,-479.81"/>
<polygon fill="#63b8ff" stroke="#63b8ff" points="409.812,-347.257 408.881,-336.703 403.028,-345.534 409.812,-347.257"/>
</g>
<!-- Node11 -->
<g id="node11" class="node"><title>Node11</title>
<g id="a_node11"><a xlink:href="classore_1_1data_1_1_c_p_i_leg_builder.html#aea285351d9f3458189a9e2d965349d23" target="_top" xlink:title=" ">
<polygon fill="white" stroke="#666666" points="319.5,-462 197.5,-462 197.5,-432 319.5,-432 319.5,-462"/>
<text text-anchor="start" x="205.5" y="-450" font-family="Helvetica,sans-Serif" font-size="10.00">ore::data::CPILegBuilder</text>
<text text-anchor="middle" x="258.5" y="-439" font-family="Helvetica,sans-Serif" font-size="10.00">::buildLeg</text>
</a>
</g>
</g>
<!-- Node1&#45;&gt;Node11 -->
<g id="edge10" class="edge"><title>Node1&#45;&gt;Node11</title>
<path fill="none" stroke="#63b8ff" d="M401.517,-345.677C389.572,-367.368 367.047,-402.755 338,-423 332.388,-426.911 326.121,-430.2 319.641,-432.961"/>
<polygon fill="#63b8ff" stroke="#63b8ff" points="404.644,-347.251 406.246,-336.778 398.463,-343.966 404.644,-347.251"/>
</g>
<!-- Node12 -->
<g id="node12" class="node"><title>Node12</title>
<g id="a_node12"><a xlink:href="classore_1_1data_1_1_y_y_leg_builder.html#aea285351d9f3458189a9e2d965349d23" target="_top" xlink:title=" ">
<polygon fill="white" stroke="#666666" points="318.5,-414 198.5,-414 198.5,-384 318.5,-384 318.5,-414"/>
<text text-anchor="start" x="206.5" y="-402" font-family="Helvetica,sans-Serif" font-size="10.00">ore::data::YYLegBuilder</text>
<text text-anchor="middle" x="258.5" y="-391" font-family="Helvetica,sans-Serif" font-size="10.00">::buildLeg</text>
</a>
</g>
</g>
<!-- Node1&#45;&gt;Node12 -->
<g id="edge11" class="edge"><title>Node1&#45;&gt;Node12</title>
<path fill="none" stroke="#63b8ff" d="M390.68,-342.64C376.526,-352.949 356.872,-366.134 338,-375 331.035,-378.272 323.515,-381.232 315.985,-383.865"/>
<polygon fill="#63b8ff" stroke="#63b8ff" points="392.79,-345.433 398.726,-336.657 388.613,-339.815 392.79,-345.433"/>
</g>
<!-- Node13 -->
<g id="node13" class="node"><title>Node13</title>
<g id="a_node13"><a xlink:href="classore_1_1data_1_1_c_m_s_leg_builder.html#aea285351d9f3458189a9e2d965349d23" target="_top" xlink:title=" ">
<polygon fill="white" stroke="#666666" points="322.5,-366 194.5,-366 194.5,-336 322.5,-336 322.5,-366"/>
<text text-anchor="start" x="202.5" y="-354" font-family="Helvetica,sans-Serif" font-size="10.00">ore::data::CMSLegBuilder</text>
<text text-anchor="middle" x="258.5" y="-343" font-family="Helvetica,sans-Serif" font-size="10.00">::buildLeg</text>
</a>
</g>
</g>
<!-- Node1&#45;&gt;Node13 -->
<g id="edge12" class="edge"><title>Node1&#45;&gt;Node13</title>
<path fill="none" stroke="#63b8ff" d="M363.828,-334.473C350.824,-336.533 336.504,-338.801 322.748,-340.98"/>
<polygon fill="#63b8ff" stroke="#63b8ff" points="364.61,-337.893 373.939,-332.871 363.514,-330.979 364.61,-337.893"/>
</g>
<!-- Node14 -->
<g id="node14" class="node"><title>Node14</title>
<g id="a_node14"><a xlink:href="classore_1_1data_1_1_c_m_b_leg_builder.html#aea285351d9f3458189a9e2d965349d23" target="_top" xlink:title=" ">
<polygon fill="white" stroke="#666666" points="322.5,-318 194.5,-318 194.5,-288 322.5,-288 322.5,-318"/>
<text text-anchor="start" x="202.5" y="-306" font-family="Helvetica,sans-Serif" font-size="10.00">ore::data::CMBLegBuilder</text>
<text text-anchor="middle" x="258.5" y="-295" font-family="Helvetica,sans-Serif" font-size="10.00">::buildLeg</text>
</a>
</g>
</g>
<!-- Node1&#45;&gt;Node14 -->
<g id="edge13" class="edge"><title>Node1&#45;&gt;Node14</title>
<path fill="none" stroke="#63b8ff" d="M363.828,-319.527C350.824,-317.467 336.504,-315.199 322.748,-313.02"/>
<polygon fill="#63b8ff" stroke="#63b8ff" points="363.514,-323.021 373.939,-321.129 364.61,-316.107 363.514,-323.021"/>
</g>
<!-- Node15 -->
<g id="node15" class="node"><title>Node15</title>
<g id="a_node15"><a xlink:href="classore_1_1data_1_1_digital_c_m_s_leg_builder.html#aea285351d9f3458189a9e2d965349d23" target="_top" xlink:title=" ">
<polygon fill="white" stroke="#666666" points="321,-270 196,-270 196,-240 321,-240 321,-270"/>
<text text-anchor="start" x="204" y="-258" font-family="Helvetica,sans-Serif" font-size="10.00">ore::data::DigitalCMSLeg</text>
<text text-anchor="middle" x="258.5" y="-247" font-family="Helvetica,sans-Serif" font-size="10.00">Builder::buildLeg</text>
</a>
</g>
</g>
<!-- Node1&#45;&gt;Node15 -->
<g id="edge14" class="edge"><title>Node1&#45;&gt;Node15</title>
<path fill="none" stroke="#63b8ff" d="M390.68,-311.36C376.526,-301.051 356.872,-287.866 338,-279 331.035,-275.728 323.515,-272.768 315.985,-270.135"/>
<polygon fill="#63b8ff" stroke="#63b8ff" points="388.613,-314.185 398.726,-317.343 392.79,-308.567 388.613,-314.185"/>
</g>
<!-- Node16 -->
<g id="node16" class="node"><title>Node16</title>
<g id="a_node16"><a xlink:href="classore_1_1data_1_1_c_m_s_spread_leg_builder.html#aea285351d9f3458189a9e2d965349d23" target="_top" xlink:title=" ">
<polygon fill="white" stroke="#666666" points="338,-222 179,-222 179,-192 338,-192 338,-222"/>
<text text-anchor="start" x="187" y="-210" font-family="Helvetica,sans-Serif" font-size="10.00">ore::data::CMSSpreadLegBuilder</text>
<text text-anchor="middle" x="258.5" y="-199" font-family="Helvetica,sans-Serif" font-size="10.00">::buildLeg</text>
</a>
</g>
</g>
<!-- Node1&#45;&gt;Node16 -->
<g id="edge15" class="edge"><title>Node1&#45;&gt;Node16</title>
<path fill="none" stroke="#63b8ff" d="M401.517,-308.323C389.572,-286.632 367.047,-251.245 338,-231 333.089,-227.578 327.677,-224.632 322.06,-222.099"/>
<polygon fill="#63b8ff" stroke="#63b8ff" points="398.463,-310.034 406.246,-317.222 404.644,-306.749 398.463,-310.034"/>
</g>
<!-- Node17 -->
<g id="node17" class="node"><title>Node17</title>
<g id="a_node17"><a xlink:href="classore_1_1data_1_1_digital_c_m_s_spread_leg_builder.html#aea285351d9f3458189a9e2d965349d23" target="_top" xlink:title=" ">
<polygon fill="white" stroke="#666666" points="328.5,-174 188.5,-174 188.5,-144 328.5,-144 328.5,-174"/>
<text text-anchor="start" x="196.5" y="-162" font-family="Helvetica,sans-Serif" font-size="10.00">ore::data::DigitalCMSSpread</text>
<text text-anchor="middle" x="258.5" y="-151" font-family="Helvetica,sans-Serif" font-size="10.00">LegBuilder::buildLeg</text>
</a>
</g>
</g>
<!-- Node1&#45;&gt;Node17 -->
<g id="edge16" class="edge"><title>Node1&#45;&gt;Node17</title>
<path fill="none" stroke="#63b8ff" d="M406.341,-307.293C397.995,-276.295 377.55,-216.256 338,-183 333.964,-179.606 329.455,-176.693 324.694,-174.19"/>
<polygon fill="#63b8ff" stroke="#63b8ff" points="403.028,-308.466 408.881,-317.297 409.812,-306.743 403.028,-308.466"/>
</g>
<!-- Node18 -->
<g id="node18" class="node"><title>Node18</title>
<g id="a_node18"><a xlink:href="classore_1_1data_1_1_duration_adjusted_cms_leg_builder.html#acb28979da2d410bdc9e47181a3d2c47f" target="_top" xlink:title=" ">
<polygon fill="white" stroke="#666666" points="326,-126 191,-126 191,-96 326,-96 326,-126"/>
<text text-anchor="start" x="199" y="-114" font-family="Helvetica,sans-Serif" font-size="10.00">ore::data::DurationAdjusted</text>
<text text-anchor="middle" x="258.5" y="-103" font-family="Helvetica,sans-Serif" font-size="10.00">CmsLegBuilder::buildLeg</text>
</a>
</g>
</g>
<!-- Node1&#45;&gt;Node18 -->
<g id="edge17" class="edge"><title>Node1&#45;&gt;Node18</title>
<path fill="none" stroke="#63b8ff" d="M409.175,-307.449C404.52,-268.84 388.723,-182.452 338,-135 334.358,-131.592 330.244,-128.668 325.855,-126.158"/>
<polygon fill="#63b8ff" stroke="#63b8ff" points="405.696,-307.836 410.25,-317.402 412.655,-307.084 405.696,-307.836"/>
</g>
<!-- Node19 -->
<g id="node19" class="node"><title>Node19</title>
<g id="a_node19"><a xlink:href="classore_1_1data_1_1_commodity_fixed_leg_builder.html#a1e327fffe1588e7813e797d48b1b3420" target="_top" xlink:title=" ">
<polygon fill="white" stroke="#666666" points="325.5,-78 191.5,-78 191.5,-48 325.5,-48 325.5,-78"/>
<text text-anchor="start" x="199.5" y="-66" font-family="Helvetica,sans-Serif" font-size="10.00">ore::data::CommodityFixed</text>
<text text-anchor="middle" x="258.5" y="-55" font-family="Helvetica,sans-Serif" font-size="10.00">LegBuilder::buildLeg</text>
</a>
</g>
</g>
<!-- Node1&#45;&gt;Node19 -->
<g id="edge18" class="edge"><title>Node1&#45;&gt;Node19</title>
<path fill="none" stroke="#63b8ff" d="M410.904,-307.083C409.577,-261.534 399.845,-148.934 338,-87 334.375,-83.3696 330.217,-80.2857 325.748,-77.6663"/>
<polygon fill="#63b8ff" stroke="#63b8ff" points="407.406,-307.212 411.087,-317.146 414.404,-307.085 407.406,-307.212"/>
</g>
<!-- Node20 -->
<g id="node20" class="node"><title>Node20</title>
<g id="a_node20"><a xlink:href="classore_1_1data_1_1_commodity_floating_leg_builder.html#a1e327fffe1588e7813e797d48b1b3420" target="_top" xlink:title=" ">
<polygon fill="white" stroke="#666666" points="331,-30 186,-30 186,-0 331,-0 331,-30"/>
<text text-anchor="start" x="194" y="-18" font-family="Helvetica,sans-Serif" font-size="10.00">ore::data::CommodityFloating</text>
<text text-anchor="middle" x="258.5" y="-7" font-family="Helvetica,sans-Serif" font-size="10.00">LegBuilder::buildLeg</text>
</a>
</g>
</g>
<!-- Node1&#45;&gt;Node20 -->
<g id="edge19" class="edge"><title>Node1&#45;&gt;Node20</title>
<path fill="none" stroke="#63b8ff" d="M408.499,-307.032C400.773,-248.4 375.525,-78.3888 338,-39 334.756,-35.595 331.044,-32.669 327.039,-30.1551"/>
<polygon fill="#63b8ff" stroke="#63b8ff" points="405.06,-307.731 409.809,-317.202 412.002,-306.836 405.06,-307.731"/>
</g>
<!-- Node3 -->
<g id="node3" class="node"><title>Node3</title>
<g id="a_node3"><a xlink:href="test_2todaysmarket_8cpp.html#aeb43366ac05a65218ef11c74fa7a5650" target="_top" xlink:title=" ">
<polygon fill="white" stroke="#666666" points="143,-760.5 0,-760.5 0,-741.5 143,-741.5 143,-760.5"/>
<text text-anchor="middle" x="71.5" y="-748.5" font-family="Helvetica,sans-Serif" font-size="10.00">BOOST_AUTO_TEST_CASE</text>
</a>
</g>
</g>
<!-- Node2&#45;&gt;Node3 -->
<g id="edge2" class="edge"><title>Node2&#45;&gt;Node3</title>
<path fill="none" stroke="#63b8ff" d="M236.866,-675.65C214.717,-691.79 177.982,-716.7 143,-732 134.522,-735.708 125.146,-738.846 116.074,-741.438"/>
<polygon fill="#63b8ff" stroke="#63b8ff" points="239.188,-678.285 245.148,-669.526 235.026,-672.657 239.188,-678.285"/>
</g>
<!-- Node4 -->
<g id="node4" class="node"><title>Node4</title>
<g id="a_node4"><a xlink:href="classore_1_1data_1_1_equity_swap.html#af7b69d5b18d278257927e32b10a23ee6" target="_top" xlink:title="Trade interface.">
<polygon fill="white" stroke="#666666" points="128,-723 15,-723 15,-693 128,-693 128,-723"/>
<text text-anchor="start" x="23" y="-711" font-family="Helvetica,sans-Serif" font-size="10.00">ore::data::EquitySwap</text>
<text text-anchor="middle" x="71.5" y="-700" font-family="Helvetica,sans-Serif" font-size="10.00">::build</text>
</a>
</g>
</g>
<!-- Node2&#45;&gt;Node4 -->
<g id="edge3" class="edge"><title>Node2&#45;&gt;Node4</title>
<path fill="none" stroke="#63b8ff" d="M210.497,-672.195C185.391,-678.709 154.331,-686.768 128.038,-693.59"/>
<polygon fill="#63b8ff" stroke="#63b8ff" points="211.707,-675.497 220.507,-669.598 209.949,-668.722 211.707,-675.497"/>
</g>
<!-- Node5 -->
<g id="node5" class="node"><title>Node5</title>
<g id="a_node5"><a xlink:href="classore_1_1data_1_1_inflation_swap.html#af7b69d5b18d278257927e32b10a23ee6" target="_top" xlink:title="Trade interface.">
<polygon fill="white" stroke="#666666" points="130.5,-675 12.5,-675 12.5,-645 130.5,-645 130.5,-675"/>
<text text-anchor="start" x="20.5" y="-663" font-family="Helvetica,sans-Serif" font-size="10.00">ore::data::InflationSwap</text>
<text text-anchor="middle" x="71.5" y="-652" font-family="Helvetica,sans-Serif" font-size="10.00">::build</text>
</a>
</g>
</g>
<!-- Node2&#45;&gt;Node5 -->
<g id="edge4" class="edge"><title>Node2&#45;&gt;Node5</title>
<path fill="none" stroke="#63b8ff" d="M192.941,-660C172.731,-660 150.557,-660 130.805,-660"/>
<polygon fill="#63b8ff" stroke="#63b8ff" points="192.995,-663.5 202.994,-660 192.994,-656.5 192.995,-663.5"/>
</g>
<!-- Node6 -->
<g id="node6" class="node"><title>Node6</title>
<g id="a_node6"><a xlink:href="classore_1_1data_1_1_callable_swap.html#ab1db499ff5e65c59fd2009d62276fdaf" target="_top" xlink:title="Build QuantLib/QuantExt instrument, link pricing engine.">
<polygon fill="white" stroke="#666666" points="131,-627 12,-627 12,-597 131,-597 131,-627"/>
<text text-anchor="start" x="20" y="-615" font-family="Helvetica,sans-Serif" font-size="10.00">ore::data::CallableSwap</text>
<text text-anchor="middle" x="71.5" y="-604" font-family="Helvetica,sans-Serif" font-size="10.00">::build</text>
</a>
</g>
</g>
<!-- Node2&#45;&gt;Node6 -->
<g id="edge5" class="edge"><title>Node2&#45;&gt;Node6</title>
<path fill="none" stroke="#63b8ff" d="M210.786,-647.88C186.425,-641.559 156.398,-633.768 130.555,-627.063"/>
<polygon fill="#63b8ff" stroke="#63b8ff" points="209.949,-651.278 220.507,-650.402 211.707,-644.503 209.949,-651.278"/>
</g>
<!-- Node8 -->
<g id="node8" class="node"><title>Node8</title>
<g id="a_node8"><a xlink:href="classore_1_1data_1_1_index_credit_default_swap.html#af7b69d5b18d278257927e32b10a23ee6" target="_top" xlink:title=" ">
<polygon fill="white" stroke="#666666" points="141.5,-579 1.5,-579 1.5,-549 141.5,-549 141.5,-579"/>
<text text-anchor="start" x="9.5" y="-567" font-family="Helvetica,sans-Serif" font-size="10.00">ore::data::IndexCreditDefault</text>
<text text-anchor="middle" x="71.5" y="-556" font-family="Helvetica,sans-Serif" font-size="10.00">Swap::build</text>
</a>
</g>
</g>
<!-- Node7&#45;&gt;Node8 -->
<g id="edge7" class="edge"><title>Node7&#45;&gt;Node8</title>
<path fill="none" stroke="#63b8ff" d="M182.558,-580.063C169.011,-578.085 154.942,-576.032 141.572,-574.081"/>
<polygon fill="#63b8ff" stroke="#63b8ff" points="182.395,-583.576 192.796,-581.557 183.406,-576.649 182.395,-583.576"/>
</g>
</g>
</svg>
