<?xml version="1.0" encoding="UTF-8" standalone="no"?>
<!DOCTYPE svg PUBLIC "-//W3C//DTD SVG 1.1//EN"
 "http://www.w3.org/Graphics/SVG/1.1/DTD/svg11.dtd">
<!-- Generated by graphviz version 2.38.0 (20140413.2041)
 -->
<!-- Title: parseCorrelationFactor Pages: 1 -->
<svg width="266pt" height="45pt"
 viewBox="0.00 0.00 266.00 45.00" xmlns="http://www.w3.org/2000/svg" xmlns:xlink="http://www.w3.org/1999/xlink">
<g id="graph0" class="graph" transform="scale(1 1) rotate(0) translate(4 41)">
<title>parseCorrelationFactor</title>
<!-- Node1 -->
<g id="node1" class="node"><title>Node1</title>
<g id="a_node1"><a xlink:title=" ">
<polygon fill="#999999" stroke="#666666" points="115,-19 0,-19 0,-0 115,-0 115,-19"/>
<text text-anchor="middle" x="57.5" y="-7" font-family="Helvetica,sans-Serif" font-size="10.00">parseCorrelationFactor</text>
</a>
</g>
</g>
<!-- Node1&#45;&gt;Node1 -->
<g id="edge2" class="edge"><title>Node1&#45;&gt;Node1</title>
<path fill="none" stroke="#63b8ff" d="M34.9972,-19.0828C24.0498,-27.7337 31.5508,-37 57.5,-37 74.1237,-37 83.1763,-33.1971 84.6576,-28.1894"/>
<polygon fill="#63b8ff" stroke="#63b8ff" points="87.6707,-26.3941 80.0028,-19.0828 81.4378,-29.5801 87.6707,-26.3941"/>
</g>
<!-- Node2 -->
<g id="node2" class="node"><title>Node2</title>
<g id="a_node2"><a xlink:href="group__utilities.html#gaea1cc4bbcb7c88cc9a61a3cd96da8d59" target="_top" xlink:title=" ">
<polygon fill="white" stroke="#666666" points="258,-19 151,-19 151,-0 258,-0 258,-19"/>
<text text-anchor="middle" x="204.5" y="-7" font-family="Helvetica,sans-Serif" font-size="10.00">parseCamAssetType</text>
</a>
</g>
</g>
<!-- Node1&#45;&gt;Node2 -->
<g id="edge1" class="edge"><title>Node1&#45;&gt;Node2</title>
<path fill="none" stroke="#63b8ff" d="M115.392,-9.5C123.627,-9.5 132.144,-9.5 140.491,-9.5"/>
<polygon fill="#63b8ff" stroke="#63b8ff" points="140.557,-13.0001 150.557,-9.5 140.557,-6.0001 140.557,-13.0001"/>
</g>
</g>
</svg>
