<?xml version="1.0" encoding="UTF-8" standalone="no"?>
<!DOCTYPE svg PUBLIC "-//W3C//DTD SVG 1.1//EN"
 "http://www.w3.org/Graphics/SVG/1.1/DTD/svg11.dtd">
<!-- Generated by graphviz version 2.38.0 (20140413.2041)
 -->
<!-- Title: parseBaseStrike Pages: 1 -->
<!--zoomable 302 -->
<svg id="main" version="1.1" xmlns="http://www.w3.org/2000/svg" xmlns:xlink="http://www.w3.org/1999/xlink" xml:space="preserve" onload="init(evt)">
<style type="text/css"><![CDATA[
.edge:hover path { stroke: red; }
.edge:hover polygon { stroke: red; fill: red; }
]]></style>
<script type="text/javascript"><![CDATA[
var edges = document.getElementsByTagName('g');
if (edges && edges.length) {
  for (var i=0;i<edges.length;i++) {
    if (edges[i].id.substr(0,4)=='edge') {
      edges[i].setAttribute('class','edge');
    }
  }
}
]]></script>
        <defs>
                <circle id="rim" cx="0" cy="0" r="7"/>
                <circle id="rim2" cx="0" cy="0" r="3.5"/>
                <g id="zoomPlus">
                        <use xlink:href="#rim" fill="#404040">
                                <set attributeName="fill" to="#808080" begin="zoomplus.mouseover" end="zoomplus.mouseout"/>
                        </use>
                        <path d="M-4,0h8M0,-4v8" fill="none" stroke="white" stroke-width="1.5" pointer-events="none"/>
                </g>
                <g id="zoomMin">
                        <use xlink:href="#rim" fill="#404040">
                                <set attributeName="fill" to="#808080" begin="zoomminus.mouseover" end="zoomminus.mouseout"/>
                        </use>
                        <path d="M-4,0h8" fill="none" stroke="white" stroke-width="1.5" pointer-events="none"/>
                </g>
                <g id="dirArrow">
                        <path fill="none" stroke="white" stroke-width="1.5" d="M0,-3.0v7 M-2.5,-0.5L0,-3.0L2.5,-0.5"/>
                </g>
               <g id="resetDef">
                       <use xlink:href="#rim2" fill="#404040">
                               <set attributeName="fill" to="#808080" begin="reset.mouseover" end="reset.mouseout"/>
                       </use>
               </g>
        </defs>

<script type="text/javascript">
var viewWidth = 803;
var viewHeight = 302;
var sectionId = 'dynsection-33';
</script>
<script xlink:href="svgpan.js"/>
<svg id="graph" class="graph">
<g id="viewport">
<title>parseBaseStrike</title>
<!-- Node1 -->
<g id="node1" class="node"><title>Node1</title>
<g id="a_node1"><a xlink:title="Parse a Strike from its string representation, strStrike.">
<polygon fill="#999999" stroke="#666666" points="795,-202.5 706,-202.5 706,-183.5 795,-183.5 795,-202.5"/>
<text text-anchor="middle" x="750.5" y="-190.5" font-family="Helvetica,sans-Serif" font-size="10.00">parseBaseStrike</text>
</a>
</g>
</g>
<!-- Node2 -->
<g id="node2" class="node"><title>Node2</title>
<g id="a_node2"><a xlink:href="test_2strike_8cpp.html#aad597f672500546f3a813ca4f06c0717" target="_top" xlink:title=" ">
<polygon fill="white" stroke="#666666" points="670,-293.5 527,-293.5 527,-274.5 670,-274.5 670,-293.5"/>
<text text-anchor="middle" x="598.5" y="-281.5" font-family="Helvetica,sans-Serif" font-size="10.00">BOOST_AUTO_TEST_CASE</text>
</a>
</g>
</g>
<!-- Node1&#45;&gt;Node2 -->
<g id="edge1" class="edge"><title>Node1&#45;&gt;Node2</title>
<path fill="none" stroke="#63b8ff" d="M734.453,-210.789C719.653,-227.182 695.611,-251.022 670,-265 662.99,-268.826 655.161,-271.919 647.34,-274.409"/>
<polygon fill="#63b8ff" stroke="#63b8ff" points="737.337,-212.809 741.309,-202.987 732.078,-208.189 737.337,-212.809"/>
</g>
<!-- Node3 -->
<g id="node3" class="node"><title>Node3</title>
<g id="a_node3"><a xlink:href="classore_1_1data_1_1_cpi_cap_floor.html#a7741ae0fc924943de5bfe02928262eb7" target="_top" xlink:title=" ">
<polygon fill="white" stroke="#666666" points="655.5,-256 541.5,-256 541.5,-226 655.5,-226 655.5,-256"/>
<text text-anchor="start" x="549.5" y="-244" font-family="Helvetica,sans-Serif" font-size="10.00">ore::data::CpiCapFloor</text>
<text text-anchor="middle" x="598.5" y="-233" font-family="Helvetica,sans-Serif" font-size="10.00">::fromXML</text>
</a>
</g>
</g>
<!-- Node1&#45;&gt;Node3 -->
<g id="edge2" class="edge"><title>Node1&#45;&gt;Node3</title>
<path fill="none" stroke="#63b8ff" d="M709.767,-205.714C690.36,-211.925 666.873,-219.441 646.572,-225.937"/>
<polygon fill="#63b8ff" stroke="#63b8ff" points="711.048,-208.979 719.506,-202.598 708.915,-202.312 711.048,-208.979"/>
</g>
<!-- Node4 -->
<g id="node4" class="node"><title>Node4</title>
<g id="a_node4"><a xlink:href="classore_1_1data_1_1_yo_y_cap_floor.html#a7741ae0fc924943de5bfe02928262eb7" target="_top" xlink:title=" ">
<polygon fill="white" stroke="#666666" points="658,-208 539,-208 539,-178 658,-178 658,-208"/>
<text text-anchor="start" x="547" y="-196" font-family="Helvetica,sans-Serif" font-size="10.00">ore::data::YoYCapFloor</text>
<text text-anchor="middle" x="598.5" y="-185" font-family="Helvetica,sans-Serif" font-size="10.00">::fromXML</text>
</a>
</g>
</g>
<!-- Node1&#45;&gt;Node4 -->
<g id="edge3" class="edge"><title>Node1&#45;&gt;Node4</title>
<path fill="none" stroke="#63b8ff" d="M695.695,-193C683.507,-193 670.505,-193 658.128,-193"/>
<polygon fill="#63b8ff" stroke="#63b8ff" points="695.711,-196.5 705.711,-193 695.711,-189.5 695.711,-196.5"/>
</g>
<!-- Node5 -->
<g id="node5" class="node"><title>Node5</title>
<g id="a_node5"><a xlink:href="group__marketdata.html#ga49b8909d3761de5c44f8140f95ec0d94" target="_top" xlink:title="Function to parse a market datum.">
<polygon fill="white" stroke="#666666" points="648,-141.5 549,-141.5 549,-122.5 648,-122.5 648,-141.5"/>
<text text-anchor="middle" x="598.5" y="-129.5" font-family="Helvetica,sans-Serif" font-size="10.00">parseMarketDatum</text>
</a>
</g>
</g>
<!-- Node1&#45;&gt;Node5 -->
<g id="edge4" class="edge"><title>Node1&#45;&gt;Node5</title>
<path fill="none" stroke="#63b8ff" d="M716.621,-179.629C688.419,-168.16 648.458,-151.91 623.268,-141.666"/>
<polygon fill="#63b8ff" stroke="#63b8ff" points="715.481,-182.944 726.063,-183.469 718.118,-176.459 715.481,-182.944"/>
</g>
<!-- Node16 -->
<g id="node16" class="node"><title>Node16</title>
<g id="a_node16"><a xlink:href="classore_1_1data_1_1_inf_dk_data.html#afa9f47e203a33b4441880ebdc23236f0" target="_top" xlink:title="Support legacy XML interface for reading calibration instruments.">
<polygon fill="white" stroke="#666666" points="669,-78 528,-78 528,-48 669,-48 669,-78"/>
<text text-anchor="start" x="536" y="-66" font-family="Helvetica,sans-Serif" font-size="10.00">ore::data::InfDkData</text>
<text text-anchor="middle" x="598.5" y="-55" font-family="Helvetica,sans-Serif" font-size="10.00">::populateCalibrationBaskets</text>
</a>
</g>
</g>
<!-- Node1&#45;&gt;Node16 -->
<g id="edge17" class="edge"><title>Node1&#45;&gt;Node16</title>
<path fill="none" stroke="#63b8ff" d="M733.884,-175.635C718.397,-158.823 693.627,-133.01 670,-113 655,-100.296 636.891,-87.5009 622.782,-78.0346"/>
<polygon fill="#63b8ff" stroke="#63b8ff" points="731.37,-178.072 740.696,-183.101 736.541,-173.354 731.37,-178.072"/>
</g>
<!-- Node5&#45;&gt;Node5 -->
<g id="edge16" class="edge"><title>Node5&#45;&gt;Node5</title>
<path fill="none" stroke="#63b8ff" d="M626.872,-150.321C625.686,-155.509 616.229,-159.5 598.5,-159.5 571.484,-159.5 563.675,-150.234 575.072,-141.583"/>
<polygon fill="#63b8ff" stroke="#63b8ff" points="629.899,-148.562 621.928,-141.583 623.807,-152.01 629.899,-148.562"/>
</g>
<!-- Node6 -->
<g id="node6" class="node"><title>Node6</title>
<g id="a_node6"><a xlink:href="classore_1_1data_1_1_adjusted_in_memory_loader.html#a394ea65c115638a789b7e4793aed8f8a" target="_top" xlink:title=" ">
<polygon fill="white" stroke="#666666" points="300,-244 158,-244 158,-214 300,-214 300,-244"/>
<text text-anchor="start" x="166" y="-232" font-family="Helvetica,sans-Serif" font-size="10.00">ore::data::AdjustedInMemory</text>
<text text-anchor="middle" x="229" y="-221" font-family="Helvetica,sans-Serif" font-size="10.00">Loader::add</text>
</a>
</g>
</g>
<!-- Node5&#45;&gt;Node6 -->
<g id="edge5" class="edge"><title>Node5&#45;&gt;Node6</title>
<path fill="none" stroke="#63b8ff" d="M565.105,-145.892C552.576,-152.04 538.512,-159.94 527,-169 507.944,-183.997 512.713,-199.203 491,-210 431.607,-239.534 355.067,-241.561 300.256,-237.849"/>
<polygon fill="#63b8ff" stroke="#63b8ff" points="566.771,-148.976 574.32,-141.542 563.782,-142.646 566.771,-148.976"/>
</g>
<!-- Node7 -->
<g id="node7" class="node"><title>Node7</title>
<g id="a_node7"><a xlink:href="classore_1_1data_1_1_in_memory_loader.html#ab033d7bbd4da0af2f75abb8952fcacce" target="_top" xlink:title=" ">
<polygon fill="white" stroke="#666666" points="491,-200.5 336,-200.5 336,-181.5 491,-181.5 491,-200.5"/>
<text text-anchor="middle" x="413.5" y="-188.5" font-family="Helvetica,sans-Serif" font-size="10.00">ore::data::InMemoryLoader::add</text>
</a>
</g>
</g>
<!-- Node5&#45;&gt;Node7 -->
<g id="edge6" class="edge"><title>Node5&#45;&gt;Node7</title>
<path fill="none" stroke="#63b8ff" d="M565.121,-145.278C544.188,-153.583 516.237,-164.156 491,-172 480.023,-175.412 468.013,-178.631 456.83,-181.415"/>
<polygon fill="#63b8ff" stroke="#63b8ff" points="566.518,-148.489 574.5,-141.523 563.915,-141.991 566.518,-148.489"/>
</g>
<!-- Node10 -->
<g id="node10" class="node"><title>Node10</title>
<g id="a_node10"><a xlink:href="equitymarketdata_8cpp.html#a386ad4b756cebb1ed30e0dcbbf64dcb6" target="_top" xlink:title=" ">
<polygon fill="white" stroke="#666666" points="485,-163.5 342,-163.5 342,-144.5 485,-144.5 485,-163.5"/>
<text text-anchor="middle" x="413.5" y="-151.5" font-family="Helvetica,sans-Serif" font-size="10.00">BOOST_AUTO_TEST_CASE</text>
</a>
</g>
</g>
<!-- Node5&#45;&gt;Node10 -->
<g id="edge10" class="edge"><title>Node5&#45;&gt;Node10</title>
<path fill="none" stroke="#63b8ff" d="M538.621,-139.078C521.651,-141.118 502.958,-143.366 485.343,-145.483"/>
<polygon fill="#63b8ff" stroke="#63b8ff" points="539.429,-142.506 548.94,-137.838 538.594,-135.557 539.429,-142.506"/>
</g>
<!-- Node11 -->
<g id="node11" class="node"><title>Node11</title>
<g id="a_node11"><a xlink:href="classore_1_1data_1_1_dependency_graph.html#a32f251ee6ad9521e1cb321a91d778da5" target="_top" xlink:title=" ">
<polygon fill="white" stroke="#666666" points="484,-126 343,-126 343,-96 484,-96 484,-126"/>
<text text-anchor="start" x="351" y="-114" font-family="Helvetica,sans-Serif" font-size="10.00">ore::data::DependencyGraph</text>
<text text-anchor="middle" x="413.5" y="-103" font-family="Helvetica,sans-Serif" font-size="10.00">::buildDependencyGraph</text>
</a>
</g>
</g>
<!-- Node5&#45;&gt;Node11 -->
<g id="edge11" class="edge"><title>Node5&#45;&gt;Node11</title>
<path fill="none" stroke="#63b8ff" d="M538.937,-125.28C521.549,-123.284 502.33,-121.079 484.303,-119.01"/>
<polygon fill="#63b8ff" stroke="#63b8ff" points="538.606,-128.765 548.94,-126.428 539.404,-121.81 538.606,-128.765"/>
</g>
<!-- Node14 -->
<g id="node14" class="node"><title>Node14</title>
<g id="a_node14"><a xlink:href="classore_1_1data_1_1_c_s_v_loader.html#af8a277c7dc57076a3daec6356ccc1be3" target="_top" xlink:title=" ">
<polygon fill="white" stroke="#666666" points="468.5,-78 358.5,-78 358.5,-48 468.5,-48 468.5,-78"/>
<text text-anchor="start" x="366.5" y="-66" font-family="Helvetica,sans-Serif" font-size="10.00">ore::data::CSVLoader</text>
<text text-anchor="middle" x="413.5" y="-55" font-family="Helvetica,sans-Serif" font-size="10.00">::loadFile</text>
</a>
</g>
</g>
<!-- Node5&#45;&gt;Node14 -->
<g id="edge14" class="edge"><title>Node5&#45;&gt;Node14</title>
<path fill="none" stroke="#63b8ff" d="M567.109,-118.242C545.971,-108.9 517.026,-96.5561 491,-87 482.637,-83.9295 473.675,-80.8942 464.935,-78.0685"/>
<polygon fill="#63b8ff" stroke="#63b8ff" points="565.962,-121.563 576.521,-122.432 568.809,-115.168 565.962,-121.563"/>
</g>
<!-- Node7&#45;&gt;Node6 -->
<g id="edge7" class="edge"><title>Node7&#45;&gt;Node6</title>
<path fill="none" stroke="#63b8ff" d="M356.283,-202.705C338.569,-206.394 318.779,-210.515 300.217,-214.38"/>
<polygon fill="#63b8ff" stroke="#63b8ff" points="357.371,-206.054 366.448,-200.589 355.944,-199.201 357.371,-206.054"/>
</g>
<!-- Node8 -->
<g id="node8" class="node"><title>Node8</title>
<g id="a_node8"><a xlink:href="namespaceore_1_1data.html#a42f1390d171c5924c3fa721f51a32200" target="_top" xlink:title=" ">
<polygon fill="white" stroke="#666666" points="246.5,-195.5 211.5,-195.5 211.5,-176.5 246.5,-176.5 246.5,-195.5"/>
<text text-anchor="middle" x="229" y="-183.5" font-family="Helvetica,sans-Serif" font-size="10.00">load</text>
</a>
</g>
</g>
<!-- Node7&#45;&gt;Node8 -->
<g id="edge8" class="edge"><title>Node7&#45;&gt;Node8</title>
<path fill="none" stroke="#63b8ff" d="M325.729,-188.623C295.616,-187.798 264.852,-186.955 246.595,-186.455"/>
<polygon fill="#63b8ff" stroke="#63b8ff" points="325.805,-192.126 335.897,-188.901 325.996,-185.129 325.805,-192.126"/>
</g>
<!-- Node9 -->
<g id="node9" class="node"><title>Node9</title>
<g id="a_node9"><a xlink:href="namespaceore_1_1data.html#a22d0bfabdad131343a5f49618b7db10d" target="_top" xlink:title="Utility function for loading market quotes and fixings from an in memory csv buffer.">
<polygon fill="white" stroke="#666666" points="114.5,-195.5 7.5,-195.5 7.5,-176.5 114.5,-176.5 114.5,-195.5"/>
<text text-anchor="middle" x="61" y="-183.5" font-family="Helvetica,sans-Serif" font-size="10.00">loadDataFromBuffers</text>
</a>
</g>
</g>
<!-- Node8&#45;&gt;Node9 -->
<g id="edge9" class="edge"><title>Node8&#45;&gt;Node9</title>
<path fill="none" stroke="#63b8ff" d="M201.317,-186C178.017,-186 143.511,-186 114.67,-186"/>
<polygon fill="#63b8ff" stroke="#63b8ff" points="201.476,-189.5 211.476,-186 201.476,-182.5 201.476,-189.5"/>
</g>
<!-- Node12 -->
<g id="node12" class="node"><title>Node12</title>
<g id="a_node12"><a xlink:href="classore_1_1data_1_1_todays_market.html#a0816e5ec53019bee5353fea5fc006eb1" target="_top" xlink:title=" ">
<polygon fill="white" stroke="#666666" points="290,-126 168,-126 168,-96 290,-96 290,-126"/>
<text text-anchor="start" x="176" y="-114" font-family="Helvetica,sans-Serif" font-size="10.00">ore::data::TodaysMarket</text>
<text text-anchor="middle" x="229" y="-103" font-family="Helvetica,sans-Serif" font-size="10.00">::initialise</text>
</a>
</g>
</g>
<!-- Node11&#45;&gt;Node12 -->
<g id="edge12" class="edge"><title>Node11&#45;&gt;Node12</title>
<path fill="none" stroke="#63b8ff" d="M332.665,-111C318.374,-111 303.703,-111 290.084,-111"/>
<polygon fill="#63b8ff" stroke="#63b8ff" points="332.984,-114.5 342.984,-111 332.984,-107.5 332.984,-114.5"/>
</g>
<!-- Node13 -->
<g id="node13" class="node"><title>Node13</title>
<g id="a_node13"><a xlink:href="classore_1_1data_1_1_todays_market.html#ad79acb672b27bd7258f228494d94cb32" target="_top" xlink:title="Constructor taking pointers and allowing for a lazy build of the market objects.">
<polygon fill="white" stroke="#666666" points="122,-126 7.10543e-015,-126 7.10543e-015,-96 122,-96 122,-126"/>
<text text-anchor="start" x="8" y="-114" font-family="Helvetica,sans-Serif" font-size="10.00">ore::data::TodaysMarket</text>
<text text-anchor="middle" x="61" y="-103" font-family="Helvetica,sans-Serif" font-size="10.00">::TodaysMarket</text>
</a>
</g>
</g>
<!-- Node12&#45;&gt;Node13 -->
<g id="edge13" class="edge"><title>Node12&#45;&gt;Node13</title>
<path fill="none" stroke="#63b8ff" d="M157.383,-111C145.629,-111 133.537,-111 122.076,-111"/>
<polygon fill="#63b8ff" stroke="#63b8ff" points="157.601,-114.5 167.601,-111 157.601,-107.5 157.601,-114.5"/>
</g>
<!-- Node15 -->
<g id="node15" class="node"><title>Node15</title>
<g id="a_node15"><a xlink:href="classore_1_1data_1_1_c_s_v_loader.html#a9cd43c2280d0cee91b282fe13b36679d" target="_top" xlink:title=" ">
<polygon fill="white" stroke="#666666" points="284,-78 174,-78 174,-48 284,-48 284,-78"/>
<text text-anchor="start" x="182" y="-66" font-family="Helvetica,sans-Serif" font-size="10.00">ore::data::CSVLoader</text>
<text text-anchor="middle" x="229" y="-55" font-family="Helvetica,sans-Serif" font-size="10.00">::CSVLoader</text>
</a>
</g>
</g>
<!-- Node14&#45;&gt;Node15 -->
<g id="edge15" class="edge"><title>Node14&#45;&gt;Node15</title>
<path fill="none" stroke="#63b8ff" d="M348.143,-63C327.194,-63 304.168,-63 284.053,-63"/>
<polygon fill="#63b8ff" stroke="#63b8ff" points="348.238,-66.5001 358.238,-63 348.238,-59.5001 348.238,-66.5001"/>
</g>
<!-- Node17 -->
<g id="node17" class="node"><title>Node17</title>
<g id="a_node17"><a xlink:href="classore_1_1data_1_1_inf_dk_data.html#a7741ae0fc924943de5bfe02928262eb7" target="_top" xlink:title=" ">
<polygon fill="white" stroke="#666666" points="465,-30 362,-30 362,-0 465,-0 465,-30"/>
<text text-anchor="start" x="370" y="-18" font-family="Helvetica,sans-Serif" font-size="10.00">ore::data::InfDkData</text>
<text text-anchor="middle" x="413.5" y="-7" font-family="Helvetica,sans-Serif" font-size="10.00">::fromXML</text>
</a>
</g>
</g>
<!-- Node16&#45;&gt;Node17 -->
<g id="edge18" class="edge"><title>Node16&#45;&gt;Node17</title>
<path fill="none" stroke="#63b8ff" d="M530.361,-45.3898C508.827,-39.7416 485.352,-33.5841 465.198,-28.2977"/>
<polygon fill="#63b8ff" stroke="#63b8ff" points="529.539,-48.7925 540.1,-47.9442 531.315,-42.0215 529.539,-48.7925"/>
</g>
</g>
</svg>
        <g id="navigator" transform="translate(0 0)" fill="#404254">
                <rect fill="#f2f5e9" fill-opacity="0.5" stroke="#606060" stroke-width=".5" x="0" y="0" width="60" height="60"/>
                <use id="zoomplus" xlink:href="#zoomPlus" x="17" y="9" onmousedown="handleZoom(evt,'in')"/>
                <use id="zoomminus" xlink:href="#zoomMin" x="42" y="9" onmousedown="handleZoom(evt,'out')"/>
                <use id="reset" xlink:href="#resetDef" x="30" y="36" onmousedown="handleReset()"/>
                <g id="arrowUp" xlink:href="#dirArrow" transform="translate(30 24)" onmousedown="handlePan(0,-1)">
                  <use xlink:href="#rim" fill="#404040">
                        <set attributeName="fill" to="#808080" begin="arrowUp.mouseover" end="arrowUp.mouseout"/>
                  </use>
                  <path fill="none" stroke="white" stroke-width="1.5" d="M0,-3.0v7 M-2.5,-0.5L0,-3.0L2.5,-0.5"/>
                </g>
                <g id="arrowRight" xlink:href="#dirArrow" transform="rotate(90) translate(36 -43)" onmousedown="handlePan(1,0)">
                  <use xlink:href="#rim" fill="#404040">
                        <set attributeName="fill" to="#808080" begin="arrowRight.mouseover" end="arrowRight.mouseout"/>
                  </use>
                  <path fill="none" stroke="white" stroke-width="1.5" d="M0,-3.0v7 M-2.5,-0.5L0,-3.0L2.5,-0.5"/>
                </g>
                <g id="arrowDown" xlink:href="#dirArrow" transform="rotate(180) translate(-30 -48)" onmousedown="handlePan(0,1)">
                  <use xlink:href="#rim" fill="#404040">
                        <set attributeName="fill" to="#808080" begin="arrowDown.mouseover" end="arrowDown.mouseout"/>
                  </use>
                  <path fill="none" stroke="white" stroke-width="1.5" d="M0,-3.0v7 M-2.5,-0.5L0,-3.0L2.5,-0.5"/>
                </g>
                <g id="arrowLeft" xlink:href="#dirArrow" transform="rotate(270) translate(-36 17)" onmousedown="handlePan(-1,0)">
                  <use xlink:href="#rim" fill="#404040">
                        <set attributeName="fill" to="#808080" begin="arrowLeft.mouseover" end="arrowLeft.mouseout"/>
                  </use>
                  <path fill="none" stroke="white" stroke-width="1.5" d="M0,-3.0v7 M-2.5,-0.5L0,-3.0L2.5,-0.5"/>
                </g>
        </g>
        <svg viewBox="0 0 15 15" width="100%" height="30px" preserveAspectRatio="xMaxYMin meet">
         <g id="arrow_out" transform="scale(0.3 0.3)">
          <a xlink:href="namespaceore_1_1data_af07ebcb16f5c4b8f23aa841778ec1ede_icgraph_org.svg" target="_base">
           <rect id="button" ry="5" rx="5" y="6" x="6" height="38" width="38"
                fill="#f2f5e9" fill-opacity="0.5" stroke="#606060" stroke-width="1.0"/>
           <path id="arrow"
             d="M 11.500037,31.436501 C 11.940474,20.09759 22.043105,11.32322 32.158766,21.979434 L 37.068811,17.246167 C 37.068811,17.246167 37.088388,32 37.088388,32 L 22.160133,31.978069 C 22.160133,31.978069 26.997745,27.140456 26.997745,27.140456 C 18.528582,18.264221 13.291696,25.230495 11.500037,31.436501 z"
             style="fill:#404040;"/>
          </a>
         </g>
        </svg>
</svg>
