<?xml version="1.0" encoding="UTF-8" standalone="no"?>
<!DOCTYPE svg PUBLIC "-//W3C//DTD SVG 1.1//EN"
 "http://www.w3.org/Graphics/SVG/1.1/DTD/svg11.dtd">
<!-- Generated by graphviz version 2.38.0 (20140413.2041)
 -->
<!-- Title: indexOrYieldCurve Pages: 1 -->
<svg width="285pt" height="422pt"
 viewBox="0.00 0.00 285.00 422.00" xmlns="http://www.w3.org/2000/svg" xmlns:xlink="http://www.w3.org/1999/xlink">
<g id="graph0" class="graph" transform="scale(1 1) rotate(0) translate(4 418)">
<title>indexOrYieldCurve</title>
<!-- Node1 -->
<g id="node1" class="node"><title>Node1</title>
<g id="a_node1"><a xlink:title=" ">
<polygon fill="#999999" stroke="#666666" points="277,-216.5 181,-216.5 181,-197.5 277,-197.5 277,-216.5"/>
<text text-anchor="middle" x="229" y="-204.5" font-family="Helvetica,sans-Serif" font-size="10.00">indexOrYieldCurve</text>
</a>
</g>
</g>
<!-- Node2 -->
<g id="node2" class="node"><title>Node2</title>
<g id="a_node2"><a xlink:href="classore_1_1data_1_1_scripted_trade_engine_builder.html#afa7bc32050325672e45000b32d62ec0b" target="_top" xlink:title=" ">
<polygon fill="white" stroke="#666666" points="133,-414 12,-414 12,-384 133,-384 133,-414"/>
<text text-anchor="start" x="20" y="-402" font-family="Helvetica,sans-Serif" font-size="10.00">ore::data::ScriptedTrade</text>
<text text-anchor="middle" x="72.5" y="-391" font-family="Helvetica,sans-Serif" font-size="10.00">EngineBuilder::engine</text>
</a>
</g>
</g>
<!-- Node1&#45;&gt;Node2 -->
<g id="edge1" class="edge"><title>Node1&#45;&gt;Node2</title>
<path fill="none" stroke="#63b8ff" d="M223.633,-226.418C214.821,-261.191 191.653,-334.257 145,-375 141.055,-378.445 136.597,-381.4 131.883,-383.933"/>
<polygon fill="#63b8ff" stroke="#63b8ff" points="227.067,-227.104 226,-216.563 220.261,-225.468 227.067,-227.104"/>
</g>
<!-- Node3 -->
<g id="node3" class="node"><title>Node3</title>
<g id="a_node3"><a xlink:href="classore_1_1data_1_1_swap_engine_builder_delta_gamma.html#aa37c0caf2dfafe8aa2921147415c8052" target="_top" xlink:title=" ">
<polygon fill="white" stroke="#666666" points="145,-366 0,-366 0,-336 145,-336 145,-366"/>
<text text-anchor="start" x="8" y="-354" font-family="Helvetica,sans-Serif" font-size="10.00">ore::data::SwapEngineBuilder</text>
<text text-anchor="middle" x="72.5" y="-343" font-family="Helvetica,sans-Serif" font-size="10.00">DeltaGamma::engineImpl</text>
</a>
</g>
</g>
<!-- Node1&#45;&gt;Node3 -->
<g id="edge2" class="edge"><title>Node1&#45;&gt;Node3</title>
<path fill="none" stroke="#63b8ff" d="M219.685,-225.939C207.183,-252.296 181.104,-299.851 145,-327 140.5,-330.384 135.494,-333.308 130.28,-335.832"/>
<polygon fill="#63b8ff" stroke="#63b8ff" points="222.953,-227.209 223.938,-216.66 216.59,-224.293 222.953,-227.209"/>
</g>
<!-- Node4 -->
<g id="node4" class="node"><title>Node4</title>
<g id="a_node4"><a xlink:href="classore_1_1data_1_1_swap_engine_builder.html#aa37c0caf2dfafe8aa2921147415c8052" target="_top" xlink:title=" ">
<polygon fill="white" stroke="#666666" points="145,-318 0,-318 0,-288 145,-288 145,-318"/>
<text text-anchor="start" x="8" y="-306" font-family="Helvetica,sans-Serif" font-size="10.00">ore::data::SwapEngineBuilder</text>
<text text-anchor="middle" x="72.5" y="-295" font-family="Helvetica,sans-Serif" font-size="10.00">::engineImpl</text>
</a>
</g>
</g>
<!-- Node1&#45;&gt;Node4 -->
<g id="edge3" class="edge"><title>Node1&#45;&gt;Node4</title>
<path fill="none" stroke="#63b8ff" d="M211.934,-224.404C196.228,-240.521 170.951,-264.169 145,-279 139.202,-282.313 132.877,-285.259 126.464,-287.852"/>
<polygon fill="#63b8ff" stroke="#63b8ff" points="214.864,-226.404 219.228,-216.749 209.796,-221.575 214.864,-226.404"/>
</g>
<!-- Node5 -->
<g id="node5" class="node"><title>Node5</title>
<g id="a_node5"><a xlink:href="classore_1_1data_1_1_swap_engine_builder_optimised.html#aa37c0caf2dfafe8aa2921147415c8052" target="_top" xlink:title=" ">
<polygon fill="white" stroke="#666666" points="145,-270 0,-270 0,-240 145,-240 145,-270"/>
<text text-anchor="start" x="8" y="-258" font-family="Helvetica,sans-Serif" font-size="10.00">ore::data::SwapEngineBuilder</text>
<text text-anchor="middle" x="72.5" y="-247" font-family="Helvetica,sans-Serif" font-size="10.00">Optimised::engineImpl</text>
</a>
</g>
</g>
<!-- Node1&#45;&gt;Node5 -->
<g id="edge4" class="edge"><title>Node1&#45;&gt;Node5</title>
<path fill="none" stroke="#63b8ff" d="M187.35,-219.629C167.308,-225.856 142.991,-233.411 121.984,-239.937"/>
<polygon fill="#63b8ff" stroke="#63b8ff" points="188.595,-222.908 197.106,-216.598 186.518,-216.223 188.595,-222.908"/>
</g>
<!-- Node6 -->
<g id="node6" class="node"><title>Node6</title>
<g id="a_node6"><a xlink:href="classore_1_1data_1_1_european_swaption_engine_builder.html#a78578c4a45ce5fb4ee6d686677c50669" target="_top" xlink:title=" ">
<polygon fill="white" stroke="#666666" points="143.5,-222 1.5,-222 1.5,-192 143.5,-192 143.5,-222"/>
<text text-anchor="start" x="9.5" y="-210" font-family="Helvetica,sans-Serif" font-size="10.00">ore::data::EuropeanSwaption</text>
<text text-anchor="middle" x="72.5" y="-199" font-family="Helvetica,sans-Serif" font-size="10.00">EngineBuilder::engineImpl</text>
</a>
</g>
</g>
<!-- Node1&#45;&gt;Node6 -->
<g id="edge5" class="edge"><title>Node1&#45;&gt;Node6</title>
<path fill="none" stroke="#63b8ff" d="M170.692,-207C161.908,-207 152.754,-207 143.729,-207"/>
<polygon fill="#63b8ff" stroke="#63b8ff" points="170.805,-210.5 180.805,-207 170.805,-203.5 170.805,-210.5"/>
</g>
<!-- Node7 -->
<g id="node7" class="node"><title>Node7</title>
<g id="a_node7"><a xlink:href="classore_1_1data_1_1_l_g_m_grid_swaption_engine_builder.html#a78578c4a45ce5fb4ee6d686677c50669" target="_top" xlink:title=" ">
<polygon fill="white" stroke="#666666" points="142.5,-174 2.5,-174 2.5,-144 142.5,-144 142.5,-174"/>
<text text-anchor="start" x="10.5" y="-162" font-family="Helvetica,sans-Serif" font-size="10.00">ore::data::LGMGridSwaption</text>
<text text-anchor="middle" x="72.5" y="-151" font-family="Helvetica,sans-Serif" font-size="10.00">EngineBuilder::engineImpl</text>
</a>
</g>
</g>
<!-- Node1&#45;&gt;Node7 -->
<g id="edge6" class="edge"><title>Node1&#45;&gt;Node7</title>
<path fill="none" stroke="#63b8ff" d="M187.35,-194.371C167.308,-188.144 142.991,-180.589 121.984,-174.063"/>
<polygon fill="#63b8ff" stroke="#63b8ff" points="186.518,-197.777 197.106,-197.402 188.595,-191.092 186.518,-197.777"/>
</g>
<!-- Node8 -->
<g id="node8" class="node"><title>Node8</title>
<g id="a_node8"><a xlink:href="classore_1_1data_1_1_l_g_m_f_d_swaption_engine_builder.html#a78578c4a45ce5fb4ee6d686677c50669" target="_top" xlink:title=" ">
<polygon fill="white" stroke="#666666" points="139.5,-126 5.5,-126 5.5,-96 139.5,-96 139.5,-126"/>
<text text-anchor="start" x="13.5" y="-114" font-family="Helvetica,sans-Serif" font-size="10.00">ore::data::LGMFDSwaption</text>
<text text-anchor="middle" x="72.5" y="-103" font-family="Helvetica,sans-Serif" font-size="10.00">EngineBuilder::engineImpl</text>
</a>
</g>
</g>
<!-- Node1&#45;&gt;Node8 -->
<g id="edge7" class="edge"><title>Node1&#45;&gt;Node8</title>
<path fill="none" stroke="#63b8ff" d="M211.934,-189.596C196.228,-173.479 170.951,-149.831 145,-135 139.202,-131.687 132.877,-128.741 126.464,-126.148"/>
<polygon fill="#63b8ff" stroke="#63b8ff" points="209.796,-192.425 219.228,-197.251 214.864,-187.596 209.796,-192.425"/>
</g>
<!-- Node9 -->
<g id="node9" class="node"><title>Node9</title>
<g id="a_node9"><a xlink:href="classore_1_1data_1_1_l_g_m_m_c_swaption_engine_builder.html#a78578c4a45ce5fb4ee6d686677c50669" target="_top" xlink:title=" ">
<polygon fill="white" stroke="#666666" points="141,-78 4,-78 4,-48 141,-48 141,-78"/>
<text text-anchor="start" x="12" y="-66" font-family="Helvetica,sans-Serif" font-size="10.00">ore::data::LGMMCSwaption</text>
<text text-anchor="middle" x="72.5" y="-55" font-family="Helvetica,sans-Serif" font-size="10.00">EngineBuilder::engineImpl</text>
</a>
</g>
</g>
<!-- Node1&#45;&gt;Node9 -->
<g id="edge8" class="edge"><title>Node1&#45;&gt;Node9</title>
<path fill="none" stroke="#63b8ff" d="M219.685,-188.061C207.183,-161.704 181.104,-114.149 145,-87 140.5,-83.6161 135.494,-80.6918 130.28,-78.1683"/>
<polygon fill="#63b8ff" stroke="#63b8ff" points="216.59,-189.707 223.938,-197.34 222.953,-186.791 216.59,-189.707"/>
</g>
<!-- Node10 -->
<g id="node10" class="node"><title>Node10</title>
<g id="a_node10"><a xlink:href="classore_1_1data_1_1_l_g_m_amc_swaption_engine_builder.html#a78578c4a45ce5fb4ee6d686677c50669" target="_top" xlink:title=" ">
<polygon fill="white" stroke="#666666" points="143.5,-30 1.5,-30 1.5,-0 143.5,-0 143.5,-30"/>
<text text-anchor="start" x="9.5" y="-18" font-family="Helvetica,sans-Serif" font-size="10.00">ore::data::LGMAmcSwaption</text>
<text text-anchor="middle" x="72.5" y="-7" font-family="Helvetica,sans-Serif" font-size="10.00">EngineBuilder::engineImpl</text>
</a>
</g>
</g>
<!-- Node1&#45;&gt;Node10 -->
<g id="edge9" class="edge"><title>Node1&#45;&gt;Node10</title>
<path fill="none" stroke="#63b8ff" d="M223.633,-187.582C214.821,-152.809 191.653,-79.7432 145,-39 141.055,-35.5548 136.597,-32.6003 131.883,-30.0672"/>
<polygon fill="#63b8ff" stroke="#63b8ff" points="220.261,-188.532 226,-197.437 227.067,-186.896 220.261,-188.532"/>
</g>
</g>
</svg>
