<?xml version="1.0" encoding="UTF-8" standalone="no"?>
<!DOCTYPE svg PUBLIC "-//W3C//DTD SVG 1.1//EN"
 "http://www.w3.org/Graphics/SVG/1.1/DTD/svg11.dtd">
<!-- Generated by graphviz version 2.38.0 (20140413.2041)
 -->
<!-- Title: amendInflationFixingDates Pages: 1 -->
<svg width="407pt" height="27pt"
 viewBox="0.00 0.00 407.00 27.00" xmlns="http://www.w3.org/2000/svg" xmlns:xlink="http://www.w3.org/1999/xlink">
<g id="graph0" class="graph" transform="scale(1 1) rotate(0) translate(4 23)">
<title>amendInflationFixingDates</title>
<!-- Node1 -->
<g id="node1" class="node"><title>Node1</title>
<g id="a_node1"><a xlink:title=" ">
<polygon fill="#999999" stroke="#666666" points="131,-19 0,-19 0,-0 131,-0 131,-19"/>
<text text-anchor="middle" x="65.5" y="-7" font-family="Helvetica,sans-Serif" font-size="10.00">amendInflationFixingDates</text>
</a>
</g>
</g>
<!-- Node2 -->
<g id="node2" class="node"><title>Node2</title>
<g id="a_node2"><a xlink:href="group__utilities.html#gae1b4a3550868df007a192218a30f616d" target="_top" xlink:title=" ">
<polygon fill="white" stroke="#666666" points="247,-19 167,-19 167,-0 247,-0 247,-19"/>
<text text-anchor="middle" x="207" y="-7" font-family="Helvetica,sans-Serif" font-size="10.00">isInflationIndex</text>
</a>
</g>
</g>
<!-- Node1&#45;&gt;Node2 -->
<g id="edge1" class="edge"><title>Node1&#45;&gt;Node2</title>
<path fill="none" stroke="#63b8ff" d="M131.349,-9.5C139.854,-9.5 148.457,-9.5 156.648,-9.5"/>
<polygon fill="#63b8ff" stroke="#63b8ff" points="156.764,-13.0001 166.764,-9.5 156.764,-6.0001 156.764,-13.0001"/>
</g>
<!-- Node3 -->
<g id="node3" class="node"><title>Node3</title>
<g id="a_node3"><a xlink:href="group__utilities.html#ga0a5105807b6f15edc34a165313eab45b" target="_top" xlink:title="Convert std::string to QuantLib::ZeroInflationIndex.">
<polygon fill="white" stroke="#666666" points="399,-19 283,-19 283,-0 399,-0 399,-19"/>
<text text-anchor="middle" x="341" y="-7" font-family="Helvetica,sans-Serif" font-size="10.00">parseZeroInflationIndex</text>
</a>
</g>
</g>
<!-- Node2&#45;&gt;Node3 -->
<g id="edge2" class="edge"><title>Node2&#45;&gt;Node3</title>
<path fill="none" stroke="#63b8ff" d="M247.247,-9.5C255.222,-9.5 263.824,-9.5 272.461,-9.5"/>
<polygon fill="#63b8ff" stroke="#63b8ff" points="272.581,-13.0001 282.581,-9.5 272.581,-6.0001 272.581,-13.0001"/>
</g>
</g>
</svg>
