<?xml version="1.0" encoding="UTF-8" standalone="no"?>
<!DOCTYPE svg PUBLIC "-//W3C//DTD SVG 1.1//EN"
 "http://www.w3.org/Graphics/SVG/1.1/DTD/svg11.dtd">
<!-- Generated by graphviz version 2.38.0 (20140413.2041)
 -->
<!-- Title: reset Pages: 1 -->
<!--zoomable 342 -->
<svg id="main" version="1.1" xmlns="http://www.w3.org/2000/svg" xmlns:xlink="http://www.w3.org/1999/xlink" xml:space="preserve" onload="init(evt)">
<style type="text/css"><![CDATA[
.edge:hover path { stroke: red; }
.edge:hover polygon { stroke: red; fill: red; }
]]></style>
<script type="text/javascript"><![CDATA[
var edges = document.getElementsByTagName('g');
if (edges && edges.length) {
  for (var i=0;i<edges.length;i++) {
    if (edges[i].id.substr(0,4)=='edge') {
      edges[i].setAttribute('class','edge');
    }
  }
}
]]></script>
        <defs>
                <circle id="rim" cx="0" cy="0" r="7"/>
                <circle id="rim2" cx="0" cy="0" r="3.5"/>
                <g id="zoomPlus">
                        <use xlink:href="#rim" fill="#404040">
                                <set attributeName="fill" to="#808080" begin="zoomplus.mouseover" end="zoomplus.mouseout"/>
                        </use>
                        <path d="M-4,0h8M0,-4v8" fill="none" stroke="white" stroke-width="1.5" pointer-events="none"/>
                </g>
                <g id="zoomMin">
                        <use xlink:href="#rim" fill="#404040">
                                <set attributeName="fill" to="#808080" begin="zoomminus.mouseover" end="zoomminus.mouseout"/>
                        </use>
                        <path d="M-4,0h8" fill="none" stroke="white" stroke-width="1.5" pointer-events="none"/>
                </g>
                <g id="dirArrow">
                        <path fill="none" stroke="white" stroke-width="1.5" d="M0,-3.0v7 M-2.5,-0.5L0,-3.0L2.5,-0.5"/>
                </g>
               <g id="resetDef">
                       <use xlink:href="#rim2" fill="#404040">
                               <set attributeName="fill" to="#808080" begin="reset.mouseover" end="reset.mouseout"/>
                       </use>
               </g>
        </defs>

<script type="text/javascript">
var viewWidth = 640;
var viewHeight = 342;
var sectionId = 'dynsection-187';
</script>
<script xlink:href="svgpan.js"/>
<svg id="graph" class="graph">
<g id="viewport">
<title>reset</title>
<!-- Node1 -->
<g id="node1" class="node"><title>Node1</title>
<g id="a_node1"><a xlink:title=" ">
<polygon fill="#999999" stroke="#666666" points="632,-232.5 594,-232.5 594,-213.5 632,-213.5 632,-232.5"/>
<text text-anchor="middle" x="613" y="-220.5" font-family="Helvetica,sans-Serif" font-size="10.00">reset</text>
</a>
</g>
</g>
<!-- Node2 -->
<g id="node2" class="node"><title>Node2</title>
<g id="a_node2"><a xlink:href="classore_1_1data_1_1_commodity_average_price_option.html#a7158c90da58d23d6c8d55040bb585107" target="_top" xlink:title=" ">
<polygon fill="white" stroke="#666666" points="558,-334 413,-334 413,-304 558,-304 558,-334"/>
<text text-anchor="start" x="421" y="-322" font-family="Helvetica,sans-Serif" font-size="10.00">ore::data::CommodityAverage</text>
<text text-anchor="middle" x="485.5" y="-311" font-family="Helvetica,sans-Serif" font-size="10.00">PriceOption::build</text>
</a>
</g>
</g>
<!-- Node1&#45;&gt;Node2 -->
<g id="edge1" class="edge"><title>Node1&#45;&gt;Node2</title>
<path fill="none" stroke="#63b8ff" d="M602.106,-241.988C592.756,-258.205 577.3,-281.059 558,-295 553.224,-298.45 547.917,-301.429 542.414,-303.996"/>
<polygon fill="#63b8ff" stroke="#63b8ff" points="605.36,-243.335 607.119,-232.887 599.228,-239.958 605.36,-243.335"/>
</g>
<!-- Node3 -->
<g id="node3" class="node"><title>Node3</title>
<g id="a_node3"><a xlink:href="classore_1_1data_1_1_commodity_digital_average_price_option.html#a7158c90da58d23d6c8d55040bb585107" target="_top" xlink:title=" ">
<polygon fill="white" stroke="#666666" points="554,-286 417,-286 417,-256 554,-256 554,-286"/>
<text text-anchor="start" x="425" y="-274" font-family="Helvetica,sans-Serif" font-size="10.00">ore::data::CommodityDigital</text>
<text text-anchor="middle" x="485.5" y="-263" font-family="Helvetica,sans-Serif" font-size="10.00">AveragePriceOption::build</text>
</a>
</g>
</g>
<!-- Node1&#45;&gt;Node3 -->
<g id="edge2" class="edge"><title>Node1&#45;&gt;Node3</title>
<path fill="none" stroke="#63b8ff" d="M584.341,-235.894C575.949,-239.642 566.659,-243.631 558,-247 550.19,-250.038 541.817,-253.058 533.649,-255.877"/>
<polygon fill="#63b8ff" stroke="#63b8ff" points="586.025,-238.973 593.687,-231.655 583.134,-232.598 586.025,-238.973"/>
</g>
<!-- Node4 -->
<g id="node4" class="node"><title>Node4</title>
<g id="a_node4"><a xlink:href="classore_1_1data_1_1_commodity_spread_option.html#a7158c90da58d23d6c8d55040bb585107" target="_top" xlink:title="Implement the build method.">
<polygon fill="white" stroke="#666666" points="556,-238 415,-238 415,-208 556,-208 556,-238"/>
<text text-anchor="start" x="423" y="-226" font-family="Helvetica,sans-Serif" font-size="10.00">ore::data::CommoditySpread</text>
<text text-anchor="middle" x="485.5" y="-215" font-family="Helvetica,sans-Serif" font-size="10.00">Option::build</text>
</a>
</g>
</g>
<!-- Node1&#45;&gt;Node4 -->
<g id="edge3" class="edge"><title>Node1&#45;&gt;Node4</title>
<path fill="none" stroke="#63b8ff" d="M583.609,-223C575.328,-223 565.894,-223 556.236,-223"/>
<polygon fill="#63b8ff" stroke="#63b8ff" points="583.751,-226.5 593.751,-223 583.751,-219.5 583.751,-226.5"/>
</g>
<!-- Node5 -->
<g id="node5" class="node"><title>Node5</title>
<g id="a_node5"><a xlink:href="classore_1_1data_1_1_computation_graph_builder.html#abba3d68d2267931401da38b708f7be34" target="_top" xlink:title=" ">
<polygon fill="white" stroke="#666666" points="556.5,-190 414.5,-190 414.5,-160 556.5,-160 556.5,-190"/>
<text text-anchor="start" x="422.5" y="-178" font-family="Helvetica,sans-Serif" font-size="10.00">ore::data::ComputationGraph</text>
<text text-anchor="middle" x="485.5" y="-167" font-family="Helvetica,sans-Serif" font-size="10.00">Builder::run</text>
</a>
</g>
</g>
<!-- Node1&#45;&gt;Node5 -->
<g id="edge4" class="edge"><title>Node1&#45;&gt;Node5</title>
<path fill="none" stroke="#63b8ff" d="M584.341,-210.106C575.949,-206.358 566.659,-202.369 558,-199 550.19,-195.962 541.817,-192.942 533.649,-190.123"/>
<polygon fill="#63b8ff" stroke="#63b8ff" points="583.134,-213.402 593.687,-214.345 586.025,-207.027 583.134,-213.402"/>
</g>
<!-- Node8 -->
<g id="node8" class="node"><title>Node8</title>
<g id="a_node8"><a xlink:href="classore_1_1data_1_1_script_engine.html#a048bd28a62b4dc0639f3f45cc9f192e8" target="_top" xlink:title=" ">
<polygon fill="white" stroke="#666666" points="553.5,-120.5 417.5,-120.5 417.5,-101.5 553.5,-101.5 553.5,-120.5"/>
<text text-anchor="middle" x="485.5" y="-108.5" font-family="Helvetica,sans-Serif" font-size="10.00">ore::data::ScriptEngine::run</text>
</a>
</g>
</g>
<!-- Node1&#45;&gt;Node8 -->
<g id="edge7" class="edge"><title>Node1&#45;&gt;Node8</title>
<path fill="none" stroke="#63b8ff" d="M601.107,-204.351C591.297,-188.71 575.725,-166.505 558,-151 543.333,-138.17 523.887,-127.617 508.978,-120.577"/>
<polygon fill="#63b8ff" stroke="#63b8ff" points="598.253,-206.395 606.438,-213.123 604.235,-202.76 598.253,-206.395"/>
</g>
<!-- Node6 -->
<g id="node6" class="node"><title>Node6</title>
<g id="a_node6"><a xlink:href="classore_1_1data_1_1_scripted_instrument_pricing_engine_c_g.html#a28d7f909bffe492b808dfd3897cb1a46" target="_top" xlink:title=" ">
<polygon fill="white" stroke="#666666" points="377,-212 179,-212 179,-182 377,-182 377,-212"/>
<text text-anchor="start" x="187" y="-200" font-family="Helvetica,sans-Serif" font-size="10.00">ore::data::ScriptedInstrument</text>
<text text-anchor="middle" x="278" y="-189" font-family="Helvetica,sans-Serif" font-size="10.00">PricingEngineCG::buildComputationGraph</text>
</a>
</g>
</g>
<!-- Node5&#45;&gt;Node6 -->
<g id="edge5" class="edge"><title>Node5&#45;&gt;Node6</title>
<path fill="none" stroke="#63b8ff" d="M404.397,-183.576C395.474,-184.531 386.312,-185.512 377.197,-186.487"/>
<polygon fill="#63b8ff" stroke="#63b8ff" points="404.783,-187.054 414.353,-182.51 404.038,-180.094 404.783,-187.054"/>
</g>
<!-- Node7 -->
<g id="node7" class="node"><title>Node7</title>
<g id="a_node7"><a xlink:href="classore_1_1data_1_1_scripted_instrument_pricing_engine_c_g.html#a61eb1a24e5329ccc296715a40dc3a19a" target="_top" xlink:title=" ">
<polygon fill="white" stroke="#666666" points="143,-212 0,-212 0,-182 143,-182 143,-212"/>
<text text-anchor="start" x="8" y="-200" font-family="Helvetica,sans-Serif" font-size="10.00">ore::data::ScriptedInstrument</text>
<text text-anchor="middle" x="71.5" y="-189" font-family="Helvetica,sans-Serif" font-size="10.00">PricingEngineCG::calculate</text>
</a>
</g>
</g>
<!-- Node6&#45;&gt;Node7 -->
<g id="edge6" class="edge"><title>Node6&#45;&gt;Node7</title>
<path fill="none" stroke="#63b8ff" d="M168.733,-197C160.046,-197 151.418,-197 143.099,-197"/>
<polygon fill="#63b8ff" stroke="#63b8ff" points="168.943,-200.5 178.943,-197 168.943,-193.5 168.943,-200.5"/>
</g>
<!-- Node9 -->
<g id="node9" class="node"><title>Node9</title>
<g id="a_node9"><a xlink:href="test_2gaussiancam_8cpp.html#a6937c98e7b740f32cfe52b4bcd512744" target="_top" xlink:title=" ">
<polygon fill="white" stroke="#666666" points="349.5,-163.5 206.5,-163.5 206.5,-144.5 349.5,-144.5 349.5,-163.5"/>
<text text-anchor="middle" x="278" y="-151.5" font-family="Helvetica,sans-Serif" font-size="10.00">BOOST_AUTO_TEST_CASE</text>
</a>
</g>
</g>
<!-- Node8&#45;&gt;Node9 -->
<g id="edge8" class="edge"><title>Node8&#45;&gt;Node9</title>
<path fill="none" stroke="#63b8ff" d="M433.058,-122.794C415.319,-126.778 395.309,-131.182 377,-135 361.646,-138.202 344.9,-141.514 329.666,-144.459"/>
<polygon fill="#63b8ff" stroke="#63b8ff" points="434.225,-126.118 443.21,-120.504 432.685,-119.29 434.225,-126.118"/>
</g>
<!-- Node10 -->
<g id="node10" class="node"><title>Node10</title>
<g id="a_node10"><a xlink:href="classore_1_1data_1_1_cliquet_option_mc_script_engine.html#a61eb1a24e5329ccc296715a40dc3a19a" target="_top" xlink:title=" ">
<polygon fill="white" stroke="#666666" points="343.5,-126 212.5,-126 212.5,-96 343.5,-96 343.5,-126"/>
<text text-anchor="start" x="220.5" y="-114" font-family="Helvetica,sans-Serif" font-size="10.00">ore::data::CliquetOption</text>
<text text-anchor="middle" x="278" y="-103" font-family="Helvetica,sans-Serif" font-size="10.00">McScriptEngine::calculate</text>
</a>
</g>
</g>
<!-- Node8&#45;&gt;Node10 -->
<g id="edge9" class="edge"><title>Node8&#45;&gt;Node10</title>
<path fill="none" stroke="#63b8ff" d="M407.36,-111C386.43,-111 363.987,-111 343.813,-111"/>
<polygon fill="#63b8ff" stroke="#63b8ff" points="407.496,-114.5 417.496,-111 407.496,-107.5 407.496,-114.5"/>
</g>
<!-- Node11 -->
<g id="node11" class="node"><title>Node11</title>
<g id="a_node11"><a xlink:href="classore_1_1data_1_1_scripted_instrument_pricing_engine.html#a61eb1a24e5329ccc296715a40dc3a19a" target="_top" xlink:title=" ">
<polygon fill="white" stroke="#666666" points="349.5,-78 206.5,-78 206.5,-48 349.5,-48 349.5,-78"/>
<text text-anchor="start" x="214.5" y="-66" font-family="Helvetica,sans-Serif" font-size="10.00">ore::data::ScriptedInstrument</text>
<text text-anchor="middle" x="278" y="-55" font-family="Helvetica,sans-Serif" font-size="10.00">PricingEngine::calculate</text>
</a>
</g>
</g>
<!-- Node8&#45;&gt;Node11 -->
<g id="edge10" class="edge"><title>Node8&#45;&gt;Node11</title>
<path fill="none" stroke="#63b8ff" d="M433.33,-99.0479C406.142,-92.6975 372.45,-84.8277 343.488,-78.063"/>
<polygon fill="#63b8ff" stroke="#63b8ff" points="432.874,-102.535 443.408,-101.402 434.466,-95.719 432.874,-102.535"/>
</g>
<!-- Node12 -->
<g id="node12" class="node"><title>Node12</title>
<g id="a_node12"><a xlink:href="classore_1_1data_1_1_scripted_instrument_amc_calculator.html#a533c38ca6ccefbc695a8f80f3ef67251" target="_top" xlink:title=" ">
<polygon fill="white" stroke="#666666" points="349.5,-30 206.5,-30 206.5,-0 349.5,-0 349.5,-30"/>
<text text-anchor="start" x="214.5" y="-18" font-family="Helvetica,sans-Serif" font-size="10.00">ore::data::ScriptedInstrument</text>
<text text-anchor="middle" x="278" y="-7" font-family="Helvetica,sans-Serif" font-size="10.00">AmcCalculator::simulatePath</text>
</a>
</g>
</g>
<!-- Node8&#45;&gt;Node12 -->
<g id="edge11" class="edge"><title>Node8&#45;&gt;Node12</title>
<path fill="none" stroke="#63b8ff" d="M465.083,-94.9052C444.449,-78.5725 410.272,-53.6657 377,-39 368.345,-35.1849 358.98,-31.9114 349.591,-29.1207"/>
<polygon fill="#63b8ff" stroke="#63b8ff" points="463.071,-97.7788 473.055,-101.325 467.462,-92.3269 463.071,-97.7788"/>
</g>
</g>
</svg>
        <g id="navigator" transform="translate(0 0)" fill="#404254">
                <rect fill="#f2f5e9" fill-opacity="0.5" stroke="#606060" stroke-width=".5" x="0" y="0" width="60" height="60"/>
                <use id="zoomplus" xlink:href="#zoomPlus" x="17" y="9" onmousedown="handleZoom(evt,'in')"/>
                <use id="zoomminus" xlink:href="#zoomMin" x="42" y="9" onmousedown="handleZoom(evt,'out')"/>
                <use id="reset" xlink:href="#resetDef" x="30" y="36" onmousedown="handleReset()"/>
                <g id="arrowUp" xlink:href="#dirArrow" transform="translate(30 24)" onmousedown="handlePan(0,-1)">
                  <use xlink:href="#rim" fill="#404040">
                        <set attributeName="fill" to="#808080" begin="arrowUp.mouseover" end="arrowUp.mouseout"/>
                  </use>
                  <path fill="none" stroke="white" stroke-width="1.5" d="M0,-3.0v7 M-2.5,-0.5L0,-3.0L2.5,-0.5"/>
                </g>
                <g id="arrowRight" xlink:href="#dirArrow" transform="rotate(90) translate(36 -43)" onmousedown="handlePan(1,0)">
                  <use xlink:href="#rim" fill="#404040">
                        <set attributeName="fill" to="#808080" begin="arrowRight.mouseover" end="arrowRight.mouseout"/>
                  </use>
                  <path fill="none" stroke="white" stroke-width="1.5" d="M0,-3.0v7 M-2.5,-0.5L0,-3.0L2.5,-0.5"/>
                </g>
                <g id="arrowDown" xlink:href="#dirArrow" transform="rotate(180) translate(-30 -48)" onmousedown="handlePan(0,1)">
                  <use xlink:href="#rim" fill="#404040">
                        <set attributeName="fill" to="#808080" begin="arrowDown.mouseover" end="arrowDown.mouseout"/>
                  </use>
                  <path fill="none" stroke="white" stroke-width="1.5" d="M0,-3.0v7 M-2.5,-0.5L0,-3.0L2.5,-0.5"/>
                </g>
                <g id="arrowLeft" xlink:href="#dirArrow" transform="rotate(270) translate(-36 17)" onmousedown="handlePan(-1,0)">
                  <use xlink:href="#rim" fill="#404040">
                        <set attributeName="fill" to="#808080" begin="arrowLeft.mouseover" end="arrowLeft.mouseout"/>
                  </use>
                  <path fill="none" stroke="white" stroke-width="1.5" d="M0,-3.0v7 M-2.5,-0.5L0,-3.0L2.5,-0.5"/>
                </g>
        </g>
        <svg viewBox="0 0 15 15" width="100%" height="30px" preserveAspectRatio="xMaxYMin meet">
         <g id="arrow_out" transform="scale(0.3 0.3)">
          <a xlink:href="namespaceore_1_1data_a85b0aebc3f5e18eb7e70df2e274aeda5_icgraph_org.svg" target="_base">
           <rect id="button" ry="5" rx="5" y="6" x="6" height="38" width="38"
                fill="#f2f5e9" fill-opacity="0.5" stroke="#606060" stroke-width="1.0"/>
           <path id="arrow"
             d="M 11.500037,31.436501 C 11.940474,20.09759 22.043105,11.32322 32.158766,21.979434 L 37.068811,17.246167 C 37.068811,17.246167 37.088388,32 37.088388,32 L 22.160133,31.978069 C 22.160133,31.978069 26.997745,27.140456 26.997745,27.140456 C 18.528582,18.264221 13.291696,25.230495 11.500037,31.436501 z"
             style="fill:#404040;"/>
          </a>
         </g>
        </svg>
</svg>
