<?xml version="1.0" encoding="UTF-8" standalone="no"?>
<!DOCTYPE svg PUBLIC "-//W3C//DTD SVG 1.1//EN"
 "http://www.w3.org/Graphics/SVG/1.1/DTD/svg11.dtd">
<!-- Generated by graphviz version 2.38.0 (20140413.2041)
 -->
<!-- Title: makeContext Pages: 1 -->
<svg width="515pt" height="365pt"
 viewBox="0.00 0.00 515.00 365.00" xmlns="http://www.w3.org/2000/svg" xmlns:xlink="http://www.w3.org/1999/xlink">
<g id="graph0" class="graph" transform="scale(1 1) rotate(0) translate(4 361)">
<title>makeContext</title>
<!-- Node1 -->
<g id="node1" class="node"><title>Node1</title>
<g id="a_node1"><a xlink:title=" ">
<polygon fill="#999999" stroke="#666666" points="74,-206 0,-206 0,-187 74,-187 74,-206"/>
<text text-anchor="middle" x="37" y="-194" font-family="Helvetica,sans-Serif" font-size="10.00">makeContext</text>
</a>
</g>
</g>
<!-- Node2 -->
<g id="node2" class="node"><title>Node2</title>
<g id="a_node2"><a xlink:href="namespaceore_1_1data.html#aa797b6d0de5ea37563b5fcec63cd6c84" target="_top" xlink:title=" ">
<polygon fill="white" stroke="#666666" points="219,-357 110,-357 110,-338 219,-338 219,-357"/>
<text text-anchor="middle" x="164.5" y="-345" font-family="Helvetica,sans-Serif" font-size="10.00">checkDuplicateName</text>
</a>
</g>
</g>
<!-- Node1&#45;&gt;Node2 -->
<g id="edge1" class="edge"><title>Node1&#45;&gt;Node2</title>
<path fill="none" stroke="#63b8ff" d="M40.5307,-206.106C47.4211,-230.404 68.8171,-294.841 110,-329.5 111.518,-330.778 113.131,-331.966 114.814,-333.071"/>
<polygon fill="#63b8ff" stroke="#63b8ff" points="113.247,-336.203 123.7,-337.929 116.605,-330.061 113.247,-336.203"/>
</g>
<!-- Node3 -->
<g id="node3" class="node"><title>Node3</title>
<g id="a_node3"><a xlink:href="namespaceore_1_1data.html#a5119896a1d7e544f2b13880517a7d765" target="_top" xlink:title=" ">
<polygon fill="white" stroke="#666666" points="209,-320 120,-320 120,-301 209,-301 209,-320"/>
<text text-anchor="middle" x="164.5" y="-308" font-family="Helvetica,sans-Serif" font-size="10.00">coarsenDateGrid</text>
</a>
</g>
</g>
<!-- Node1&#45;&gt;Node3 -->
<g id="edge2" class="edge"><title>Node1&#45;&gt;Node3</title>
<path fill="none" stroke="#63b8ff" d="M43.5543,-206.152C54.3115,-224.115 79.6229,-262.979 110,-286.5 115.018,-290.386 120.765,-293.802 126.588,-296.747"/>
<polygon fill="#63b8ff" stroke="#63b8ff" points="125.164,-299.945 135.708,-300.988 128.116,-293.598 125.164,-299.945"/>
</g>
<!-- Node4 -->
<g id="node4" class="node"><title>Node4</title>
<g id="a_node4"><a xlink:href="group__utilities.html#ga8e0623e2cb01e250e9cfec4619256208" target="_top" xlink:title="Convert text to QuantLib::Period.">
<polygon fill="white" stroke="#666666" points="362,-297 294,-297 294,-278 362,-278 362,-297"/>
<text text-anchor="middle" x="328" y="-285" font-family="Helvetica,sans-Serif" font-size="10.00">parsePeriod</text>
</a>
</g>
</g>
<!-- Node1&#45;&gt;Node4 -->
<g id="edge18" class="edge"><title>Node1&#45;&gt;Node4</title>
<path fill="none" stroke="#63b8ff" d="M51.4303,-206.033C65.4324,-215.553 88.321,-229.965 110,-238.5 168.012,-261.34 239.146,-274.859 283.786,-281.73"/>
<polygon fill="#63b8ff" stroke="#63b8ff" points="283.309,-285.198 293.717,-283.216 284.345,-278.275 283.309,-285.198"/>
</g>
<!-- Node5 -->
<g id="node5" class="node"><title>Node5</title>
<g id="a_node5"><a xlink:href="namespaceore_1_1data.html#af158e922cf963a59228878344ca5858d" target="_top" xlink:title=" ">
<polygon fill="white" stroke="#666666" points="205,-206 124,-206 124,-187 205,-187 205,-206"/>
<text text-anchor="middle" x="164.5" y="-194" font-family="Helvetica,sans-Serif" font-size="10.00">makeSchedule</text>
</a>
</g>
</g>
<!-- Node1&#45;&gt;Node5 -->
<g id="edge4" class="edge"><title>Node1&#45;&gt;Node5</title>
<path fill="none" stroke="#63b8ff" d="M74.2998,-196.5C86.5239,-196.5 100.387,-196.5 113.479,-196.5"/>
<polygon fill="#63b8ff" stroke="#63b8ff" points="113.767,-200 123.767,-196.5 113.767,-193 113.767,-200"/>
</g>
<!-- Node7 -->
<g id="node7" class="node"><title>Node7</title>
<g id="a_node7"><a xlink:href="group__utilities.html#ga86adcf55f91e340ff40783964666e732" target="_top" xlink:title="Convert text to QuantLib::BusinessDayConvention.">
<polygon fill="white" stroke="#666666" points="401,-260 255,-260 255,-241 401,-241 401,-260"/>
<text text-anchor="middle" x="328" y="-248" font-family="Helvetica,sans-Serif" font-size="10.00">parseBusinessDayConvention</text>
</a>
</g>
</g>
<!-- Node1&#45;&gt;Node7 -->
<g id="edge15" class="edge"><title>Node1&#45;&gt;Node7</title>
<path fill="none" stroke="#63b8ff" d="M71.5355,-206.08C83.6005,-209.332 97.3533,-212.818 110,-215.5 155.005,-225.044 205.748,-233.361 246.842,-239.49"/>
<polygon fill="#63b8ff" stroke="#63b8ff" points="246.398,-242.962 256.802,-240.961 247.421,-236.037 246.398,-242.962"/>
</g>
<!-- Node8 -->
<g id="node8" class="node"><title>Node8</title>
<g id="a_node8"><a xlink:href="group__utilities.html#ga0f72d6fcccae10a674bdcd5095200f14" target="_top" xlink:title="Convert text to QuantLib::Calendar.">
<polygon fill="white" stroke="#666666" points="367.5,-168 288.5,-168 288.5,-149 367.5,-149 367.5,-168"/>
<text text-anchor="middle" x="328" y="-156" font-family="Helvetica,sans-Serif" font-size="10.00">parseCalendar</text>
</a>
</g>
</g>
<!-- Node1&#45;&gt;Node8 -->
<g id="edge16" class="edge"><title>Node1&#45;&gt;Node8</title>
<path fill="none" stroke="#63b8ff" d="M71.8358,-186.907C83.8079,-183.815 97.4247,-180.638 110,-178.5 167.319,-168.753 234.021,-163.501 278.184,-160.86"/>
<polygon fill="#63b8ff" stroke="#63b8ff" points="278.572,-164.343 288.354,-160.274 278.169,-157.355 278.572,-164.343"/>
</g>
<!-- Node9 -->
<g id="node9" class="node"><title>Node9</title>
<g id="a_node9"><a xlink:href="group__utilities.html#ga59b5fdda574d90facae95dec2d13040d" target="_top" xlink:title="Convert std::string to QuantLib::Date.">
<polygon fill="white" stroke="#666666" points="358.5,-113 297.5,-113 297.5,-94 358.5,-94 358.5,-113"/>
<text text-anchor="middle" x="328" y="-101" font-family="Helvetica,sans-Serif" font-size="10.00">parseDate</text>
</a>
</g>
</g>
<!-- Node1&#45;&gt;Node9 -->
<g id="edge17" class="edge"><title>Node1&#45;&gt;Node9</title>
<path fill="none" stroke="#63b8ff" d="M54.7201,-186.896C69.0351,-178.979 90.3826,-167.89 110,-160.5 170.236,-137.809 243.127,-120.662 287.236,-111.356"/>
<polygon fill="#63b8ff" stroke="#63b8ff" points="288.19,-114.732 297.268,-109.27 286.765,-107.879 288.19,-114.732"/>
</g>
<!-- Node12 -->
<g id="node12" class="node"><title>Node12</title>
<g id="a_node12"><a xlink:href="group__utilities.html#gad1db2a68f9a73667c3b4084d63955bdd" target="_top" xlink:title="Convert text to Real.">
<polygon fill="white" stroke="#666666" points="194.5,-74 134.5,-74 134.5,-55 194.5,-55 194.5,-74"/>
<text text-anchor="middle" x="164.5" y="-62" font-family="Helvetica,sans-Serif" font-size="10.00">parseReal</text>
</a>
</g>
</g>
<!-- Node1&#45;&gt;Node12 -->
<g id="edge19" class="edge"><title>Node1&#45;&gt;Node12</title>
<path fill="none" stroke="#63b8ff" d="M44.5042,-186.974C56.4142,-169.874 82.9937,-133.259 110,-106.5 119.602,-96.9861 131.313,-87.5829 141.328,-80.0937"/>
<polygon fill="#63b8ff" stroke="#63b8ff" points="143.589,-82.7769 149.597,-74.0503 139.458,-77.1254 143.589,-82.7769"/>
</g>
<!-- Node13 -->
<g id="node13" class="node"><title>Node13</title>
<g id="a_node13"><a xlink:href="namespaceore_1_1data.html#a86651dfeb5c18ee891f7a4734d8cf455" target="_top" xlink:title=" ">
<polygon fill="white" stroke="#666666" points="191.5,-19 137.5,-19 137.5,-0 191.5,-0 191.5,-19"/>
<text text-anchor="middle" x="164.5" y="-7" font-family="Helvetica,sans-Serif" font-size="10.00">to_string</text>
</a>
</g>
</g>
<!-- Node1&#45;&gt;Node13 -->
<g id="edge21" class="edge"><title>Node1&#45;&gt;Node13</title>
<path fill="none" stroke="#63b8ff" d="M40.695,-186.654C48.1144,-160.973 70.9242,-90.8047 110,-45.5 117.129,-37.2344 126.588,-30.0429 135.568,-24.3064"/>
<polygon fill="#63b8ff" stroke="#63b8ff" points="137.516,-27.2194 144.285,-19.0689 133.911,-21.2193 137.516,-27.2194"/>
</g>
<!-- Node3&#45;&gt;Node4 -->
<g id="edge3" class="edge"><title>Node3&#45;&gt;Node4</title>
<path fill="none" stroke="#63b8ff" d="M209.204,-304.276C232.292,-300.988 260.538,-296.965 283.582,-293.683"/>
<polygon fill="#63b8ff" stroke="#63b8ff" points="284.361,-297.108 293.767,-292.233 283.374,-290.178 284.361,-297.108"/>
</g>
<!-- Node5&#45;&gt;Node4 -->
<g id="edge14" class="edge"><title>Node5&#45;&gt;Node4</title>
<path fill="none" stroke="#63b8ff" d="M174.437,-206.141C189.519,-221.825 221.658,-252.789 255,-269.5 263.891,-273.956 273.966,-277.361 283.703,-279.945"/>
<polygon fill="#63b8ff" stroke="#63b8ff" points="283.122,-283.405 293.664,-282.348 284.764,-276.6 283.122,-283.405"/>
</g>
<!-- Node6 -->
<g id="node6" class="node"><title>Node6</title>
<g id="a_node6"><a xlink:href="group__utilities.html#ga94621f11193864fa1338296232dc5be9" target="_top" xlink:title="Convert text to bool.">
<polygon fill="white" stroke="#666666" points="358,-205 298,-205 298,-186 358,-186 358,-205"/>
<text text-anchor="middle" x="328" y="-193" font-family="Helvetica,sans-Serif" font-size="10.00">parseBool</text>
</a>
</g>
</g>
<!-- Node5&#45;&gt;Node6 -->
<g id="edge5" class="edge"><title>Node5&#45;&gt;Node6</title>
<path fill="none" stroke="#63b8ff" d="M205.007,-196.255C230.092,-196.1 262.436,-195.9 287.516,-195.744"/>
<polygon fill="#63b8ff" stroke="#63b8ff" points="287.8,-199.243 297.778,-195.681 287.756,-192.243 287.8,-199.243"/>
</g>
<!-- Node5&#45;&gt;Node7 -->
<g id="edge7" class="edge"><title>Node5&#45;&gt;Node7</title>
<path fill="none" stroke="#63b8ff" d="M186.896,-206.074C204.838,-213.867 231.263,-224.799 255,-232.5 261.423,-234.584 268.233,-236.569 275.004,-238.408"/>
<polygon fill="#63b8ff" stroke="#63b8ff" points="274.283,-241.837 284.844,-240.993 276.062,-235.067 274.283,-241.837"/>
</g>
<!-- Node5&#45;&gt;Node8 -->
<g id="edge8" class="edge"><title>Node5&#45;&gt;Node8</title>
<path fill="none" stroke="#63b8ff" d="M205.007,-187.204C227.232,-181.975 255.155,-175.405 278.676,-169.87"/>
<polygon fill="#63b8ff" stroke="#63b8ff" points="279.525,-173.266 288.458,-167.569 277.922,-166.452 279.525,-173.266"/>
</g>
<!-- Node5&#45;&gt;Node9 -->
<g id="edge9" class="edge"><title>Node5&#45;&gt;Node9</title>
<path fill="none" stroke="#63b8ff" d="M180.154,-186.797C197.692,-175.31 228.071,-155.808 255,-140.5 268.961,-132.564 284.803,-124.341 298.066,-117.668"/>
<polygon fill="#63b8ff" stroke="#63b8ff" points="299.818,-120.706 307.204,-113.11 296.693,-114.442 299.818,-120.706"/>
</g>
<!-- Node6&#45;&gt;Node6 -->
<g id="edge6" class="edge"><title>Node6&#45;&gt;Node6</title>
<path fill="none" stroke="#63b8ff" d="M305.805,-205.083C295.008,-213.734 302.406,-223 328,-223 344.396,-223 353.325,-219.197 354.786,-214.189"/>
<polygon fill="#63b8ff" stroke="#63b8ff" points="357.822,-212.437 350.195,-205.083 351.571,-215.588 357.822,-212.437"/>
</g>
<!-- Node9&#45;&gt;Node9 -->
<g id="edge10" class="edge"><title>Node9&#45;&gt;Node9</title>
<path fill="none" stroke="#63b8ff" d="M305.805,-113.083C295.008,-121.734 302.406,-131 328,-131 344.396,-131 353.325,-127.197 354.786,-122.189"/>
<polygon fill="#63b8ff" stroke="#63b8ff" points="357.822,-120.437 350.195,-113.083 351.571,-123.588 357.822,-120.437"/>
</g>
<!-- Node10 -->
<g id="node10" class="node"><title>Node10</title>
<g id="a_node10"><a xlink:href="group__utilities.html#gaecd67eda4fb5f4859bb8f6d383547721" target="_top" xlink:title="Convert text to QuantLib::Integer.">
<polygon fill="white" stroke="#666666" points="507,-132 437,-132 437,-113 507,-113 507,-132"/>
<text text-anchor="middle" x="472" y="-120" font-family="Helvetica,sans-Serif" font-size="10.00">parseInteger</text>
</a>
</g>
</g>
<!-- Node9&#45;&gt;Node10 -->
<g id="edge11" class="edge"><title>Node9&#45;&gt;Node10</title>
<path fill="none" stroke="#63b8ff" d="M358.768,-107.483C378.426,-110.113 404.537,-113.607 426.627,-116.563"/>
<polygon fill="#63b8ff" stroke="#63b8ff" points="426.403,-120.064 436.778,-117.921 427.331,-113.126 426.403,-120.064"/>
</g>
<!-- Node11 -->
<g id="node11" class="node"><title>Node11</title>
<g id="a_node11"><a xlink:href="namespaceore_1_1data.html#a777e216dee6069b548bb87da7152699e" target="_top" xlink:title=" ">
<polygon fill="white" stroke="#666666" points="489.5,-95 454.5,-95 454.5,-76 489.5,-76 489.5,-95"/>
<text text-anchor="middle" x="472" y="-83" font-family="Helvetica,sans-Serif" font-size="10.00">size</text>
</a>
</g>
</g>
<!-- Node9&#45;&gt;Node11 -->
<g id="edge13" class="edge"><title>Node9&#45;&gt;Node11</title>
<path fill="none" stroke="#63b8ff" d="M358.768,-99.7266C383.988,-96.5297 419.83,-91.9864 444.175,-88.9004"/>
<polygon fill="#63b8ff" stroke="#63b8ff" points="444.675,-92.3651 454.155,-87.6352 443.795,-85.4207 444.675,-92.3651"/>
</g>
<!-- Node10&#45;&gt;Node10 -->
<g id="edge12" class="edge"><title>Node10&#45;&gt;Node10</title>
<path fill="none" stroke="#63b8ff" d="M449.805,-132.083C439.008,-140.734 446.406,-150 472,-150 488.396,-150 497.325,-146.197 498.786,-141.189"/>
<polygon fill="#63b8ff" stroke="#63b8ff" points="501.822,-139.437 494.195,-132.083 495.571,-142.588 501.822,-139.437"/>
</g>
<!-- Node12&#45;&gt;Node12 -->
<g id="edge20" class="edge"><title>Node12&#45;&gt;Node12</title>
<path fill="none" stroke="#63b8ff" d="M145.08,-74.0828C135.632,-82.7337 142.105,-92 164.5,-92 178.497,-92 186.274,-88.3804 187.832,-83.5536"/>
<polygon fill="#63b8ff" stroke="#63b8ff" points="190.973,-81.9892 183.92,-74.0828 184.503,-84.6616 190.973,-81.9892"/>
</g>
<!-- Node13&#45;&gt;Node13 -->
<g id="edge22" class="edge"><title>Node13&#45;&gt;Node13</title>
<path fill="none" stroke="#63b8ff" d="M145.08,-19.0828C135.632,-27.7337 142.105,-37 164.5,-37 178.497,-37 186.274,-33.3804 187.832,-28.5536"/>
<polygon fill="#63b8ff" stroke="#63b8ff" points="190.973,-26.9892 183.92,-19.0828 184.503,-29.6616 190.973,-26.9892"/>
</g>
</g>
</svg>
