<?xml version="1.0" encoding="UTF-8" standalone="no"?>
<!DOCTYPE svg PUBLIC "-//W3C//DTD SVG 1.1//EN"
 "http://www.w3.org/Graphics/SVG/1.1/DTD/svg11.dtd">
<!-- Generated by graphviz version 2.38.0 (20140413.2041)
 -->
<!-- Title: makeSimpleLeg Pages: 1 -->
<svg width="276pt" height="76pt"
 viewBox="0.00 0.00 276.00 75.50" xmlns="http://www.w3.org/2000/svg" xmlns:xlink="http://www.w3.org/1999/xlink">
<g id="graph0" class="graph" transform="scale(1 1) rotate(0) translate(4 71.5)">
<title>makeSimpleLeg</title>
<!-- Node1 -->
<g id="node1" class="node"><title>Node1</title>
<g id="a_node1"><a xlink:title=" ">
<polygon fill="#999999" stroke="#666666" points="268,-45.5 182,-45.5 182,-26.5 268,-26.5 268,-45.5"/>
<text text-anchor="middle" x="225" y="-33.5" font-family="Helvetica,sans-Serif" font-size="10.00">makeSimpleLeg</text>
</a>
</g>
</g>
<!-- Node2 -->
<g id="node2" class="node"><title>Node2</title>
<g id="a_node2"><a xlink:href="test_2legdata_8cpp.html#aca45e6d9fafe8d7988bef4628eb9adb2" target="_top" xlink:title=" ">
<polygon fill="white" stroke="#666666" points="144.5,-67.5 1.5,-67.5 1.5,-48.5 144.5,-48.5 144.5,-67.5"/>
<text text-anchor="middle" x="73" y="-55.5" font-family="Helvetica,sans-Serif" font-size="10.00">BOOST_AUTO_TEST_CASE</text>
</a>
</g>
</g>
<!-- Node1&#45;&gt;Node2 -->
<g id="edge1" class="edge"><title>Node1&#45;&gt;Node2</title>
<path fill="none" stroke="#63b8ff" d="M171.85,-43.6487C161.203,-45.2102 149.878,-46.8713 138.85,-48.4887"/>
<polygon fill="#63b8ff" stroke="#63b8ff" points="172.431,-47.101 181.817,-42.1868 171.415,-40.175 172.431,-47.101"/>
</g>
<!-- Node3 -->
<g id="node3" class="node"><title>Node3</title>
<g id="a_node3"><a xlink:href="classore_1_1data_1_1_cashflow_leg_builder.html#aea285351d9f3458189a9e2d965349d23" target="_top" xlink:title=" ">
<polygon fill="white" stroke="#666666" points="146,-30 0,-30 0,-0 146,-0 146,-30"/>
<text text-anchor="start" x="8" y="-18" font-family="Helvetica,sans-Serif" font-size="10.00">ore::data::CashflowLegBuilder</text>
<text text-anchor="middle" x="73" y="-7" font-family="Helvetica,sans-Serif" font-size="10.00">::buildLeg</text>
</a>
</g>
</g>
<!-- Node1&#45;&gt;Node3 -->
<g id="edge2" class="edge"><title>Node1&#45;&gt;Node3</title>
<path fill="none" stroke="#63b8ff" d="M171.657,-28.672C163.441,-27.5217 154.823,-26.3153 146.254,-25.1156"/>
<polygon fill="#63b8ff" stroke="#63b8ff" points="171.429,-32.1741 181.817,-30.0944 172.399,-25.2417 171.429,-32.1741"/>
</g>
</g>
</svg>
