<?xml version="1.0" encoding="UTF-8" standalone="no"?>
<!DOCTYPE svg PUBLIC "-//W3C//DTD SVG 1.1//EN"
 "http://www.w3.org/Graphics/SVG/1.1/DTD/svg11.dtd">
<!-- Generated by graphviz version 2.38.0 (20140413.2041)
 -->
<!-- Title: parseExpiry Pages: 1 -->
<svg width="421pt" height="100pt"
 viewBox="0.00 0.00 421.00 100.00" xmlns="http://www.w3.org/2000/svg" xmlns:xlink="http://www.w3.org/1999/xlink">
<g id="graph0" class="graph" transform="scale(1 1) rotate(0) translate(4 96)">
<title>parseExpiry</title>
<!-- Node1 -->
<g id="node1" class="node"><title>Node1</title>
<g id="a_node1"><a xlink:title="Parse an Expiry from its string representation, strExpiry.">
<polygon fill="#999999" stroke="#666666" points="68,-37 0,-37 0,-18 68,-18 68,-37"/>
<text text-anchor="middle" x="34" y="-25" font-family="Helvetica,sans-Serif" font-size="10.00">parseExpiry</text>
</a>
</g>
</g>
<!-- Node2 -->
<g id="node2" class="node"><title>Node2</title>
<g id="a_node2"><a xlink:href="group__utilities.html#ga6477391407eac174ea49df689ecf1ab2" target="_top" xlink:title="Convert text to QuantLib::Period or QuantLib::Date.">
<polygon fill="white" stroke="#666666" points="203,-37 104,-37 104,-18 203,-18 203,-37"/>
<text text-anchor="middle" x="153.5" y="-25" font-family="Helvetica,sans-Serif" font-size="10.00">parseDateOrPeriod</text>
</a>
</g>
</g>
<!-- Node1&#45;&gt;Node2 -->
<g id="edge1" class="edge"><title>Node1&#45;&gt;Node2</title>
<path fill="none" stroke="#63b8ff" d="M68.043,-27.5C76.0441,-27.5 84.8376,-27.5 93.6346,-27.5"/>
<polygon fill="#63b8ff" stroke="#63b8ff" points="93.9158,-31.0001 103.916,-27.5 93.9158,-24.0001 93.9158,-31.0001"/>
</g>
<!-- Node3 -->
<g id="node3" class="node"><title>Node3</title>
<g id="a_node3"><a xlink:href="group__utilities.html#ga59b5fdda574d90facae95dec2d13040d" target="_top" xlink:title="Convert std::string to QuantLib::Date.">
<polygon fill="white" stroke="#666666" points="303.5,-56 242.5,-56 242.5,-37 303.5,-37 303.5,-56"/>
<text text-anchor="middle" x="273" y="-44" font-family="Helvetica,sans-Serif" font-size="10.00">parseDate</text>
</a>
</g>
</g>
<!-- Node2&#45;&gt;Node3 -->
<g id="edge2" class="edge"><title>Node2&#45;&gt;Node3</title>
<path fill="none" stroke="#63b8ff" d="M203.31,-35.3926C212.93,-36.9483 222.917,-38.5632 232.197,-40.0638"/>
<polygon fill="#63b8ff" stroke="#63b8ff" points="231.887,-43.5591 242.318,-41.7003 233.005,-36.6488 231.887,-43.5591"/>
</g>
<!-- Node6 -->
<g id="node6" class="node"><title>Node6</title>
<g id="a_node6"><a xlink:href="group__utilities.html#ga8e0623e2cb01e250e9cfec4619256208" target="_top" xlink:title="Convert text to QuantLib::Period.">
<polygon fill="white" stroke="#666666" points="307,-19 239,-19 239,-0 307,-0 307,-19"/>
<text text-anchor="middle" x="273" y="-7" font-family="Helvetica,sans-Serif" font-size="10.00">parsePeriod</text>
</a>
</g>
</g>
<!-- Node2&#45;&gt;Node6 -->
<g id="edge7" class="edge"><title>Node2&#45;&gt;Node6</title>
<path fill="none" stroke="#63b8ff" d="M203.31,-20.0228C211.827,-18.718 220.631,-17.3693 228.978,-16.0906"/>
<polygon fill="#63b8ff" stroke="#63b8ff" points="229.528,-19.5473 238.882,-14.5733 228.468,-12.628 229.528,-19.5473"/>
</g>
<!-- Node3&#45;&gt;Node3 -->
<g id="edge3" class="edge"><title>Node3&#45;&gt;Node3</title>
<path fill="none" stroke="#63b8ff" d="M256.971,-56.0828C249.172,-64.7337 254.516,-74 273,-74 284.553,-74 290.972,-70.3804 292.258,-65.5536"/>
<polygon fill="#63b8ff" stroke="#63b8ff" points="295.569,-64.4184 289.029,-56.0828 288.944,-66.6773 295.569,-64.4184"/>
</g>
<!-- Node4 -->
<g id="node4" class="node"><title>Node4</title>
<g id="a_node4"><a xlink:href="group__utilities.html#gaecd67eda4fb5f4859bb8f6d383547721" target="_top" xlink:title="Convert text to QuantLib::Integer.">
<polygon fill="white" stroke="#666666" points="413,-74 343,-74 343,-55 413,-55 413,-74"/>
<text text-anchor="middle" x="378" y="-62" font-family="Helvetica,sans-Serif" font-size="10.00">parseInteger</text>
</a>
</g>
</g>
<!-- Node3&#45;&gt;Node4 -->
<g id="edge4" class="edge"><title>Node3&#45;&gt;Node4</title>
<path fill="none" stroke="#63b8ff" d="M303.516,-51.6581C312.604,-53.2464 322.818,-55.0312 332.674,-56.7536"/>
<polygon fill="#63b8ff" stroke="#63b8ff" points="332.3,-60.2412 342.753,-58.5151 333.505,-53.3457 332.3,-60.2412"/>
</g>
<!-- Node5 -->
<g id="node5" class="node"><title>Node5</title>
<g id="a_node5"><a xlink:href="namespaceore_1_1data.html#a777e216dee6069b548bb87da7152699e" target="_top" xlink:title=" ">
<polygon fill="white" stroke="#666666" points="395.5,-37 360.5,-37 360.5,-18 395.5,-18 395.5,-37"/>
<text text-anchor="middle" x="378" y="-25" font-family="Helvetica,sans-Serif" font-size="10.00">size</text>
</a>
</g>
</g>
<!-- Node3&#45;&gt;Node5 -->
<g id="edge6" class="edge"><title>Node3&#45;&gt;Node5</title>
<path fill="none" stroke="#63b8ff" d="M303.516,-41.0554C318.201,-38.3465 335.822,-35.096 350.127,-32.4572"/>
<polygon fill="#63b8ff" stroke="#63b8ff" points="351.117,-35.8337 360.316,-30.5776 349.847,-28.9498 351.117,-35.8337"/>
</g>
<!-- Node4&#45;&gt;Node4 -->
<g id="edge5" class="edge"><title>Node4&#45;&gt;Node4</title>
<path fill="none" stroke="#63b8ff" d="M361.971,-74.0828C354.172,-82.7337 359.516,-92 378,-92 389.553,-92 395.972,-88.3804 397.258,-83.5536"/>
<polygon fill="#63b8ff" stroke="#63b8ff" points="400.569,-82.4184 394.029,-74.0828 393.944,-84.6773 400.569,-82.4184"/>
</g>
</g>
</svg>
