<?xml version="1.0" encoding="UTF-8" standalone="no"?>
<!DOCTYPE svg PUBLIC "-//W3C//DTD SVG 1.1//EN"
 "http://www.w3.org/Graphics/SVG/1.1/DTD/svg11.dtd">
<!-- Generated by graphviz version 2.38.0 (20140413.2041)
 -->
<!-- Title: ZeroInflationCurveCalibrationInfo Pages: 1 -->
<!--zoomable 369 -->
<svg id="main" version="1.1" xmlns="http://www.w3.org/2000/svg" xmlns:xlink="http://www.w3.org/1999/xlink" xml:space="preserve" onload="init(evt)">
<style type="text/css"><![CDATA[
.edge:hover path { stroke: red; }
.edge:hover polygon { stroke: red; fill: red; }
]]></style>
<script type="text/javascript"><![CDATA[
var edges = document.getElementsByTagName('g');
if (edges && edges.length) {
  for (var i=0;i<edges.length;i++) {
    if (edges[i].id.substr(0,4)=='edge') {
      edges[i].setAttribute('class','edge');
    }
  }
}
]]></script>
        <defs>
                <circle id="rim" cx="0" cy="0" r="7"/>
                <circle id="rim2" cx="0" cy="0" r="3.5"/>
                <g id="zoomPlus">
                        <use xlink:href="#rim" fill="#404040">
                                <set attributeName="fill" to="#808080" begin="zoomplus.mouseover" end="zoomplus.mouseout"/>
                        </use>
                        <path d="M-4,0h8M0,-4v8" fill="none" stroke="white" stroke-width="1.5" pointer-events="none"/>
                </g>
                <g id="zoomMin">
                        <use xlink:href="#rim" fill="#404040">
                                <set attributeName="fill" to="#808080" begin="zoomminus.mouseover" end="zoomminus.mouseout"/>
                        </use>
                        <path d="M-4,0h8" fill="none" stroke="white" stroke-width="1.5" pointer-events="none"/>
                </g>
                <g id="dirArrow">
                        <path fill="none" stroke="white" stroke-width="1.5" d="M0,-3.0v7 M-2.5,-0.5L0,-3.0L2.5,-0.5"/>
                </g>
               <g id="resetDef">
                       <use xlink:href="#rim2" fill="#404040">
                               <set attributeName="fill" to="#808080" begin="reset.mouseover" end="reset.mouseout"/>
                       </use>
               </g>
        </defs>

<script type="text/javascript">
var viewWidth = 534;
var viewHeight = 369;
var sectionId = 'dynsection-1';
</script>
<script xlink:href="svgpan.js"/>
<svg id="graph" class="graph">
<g id="viewport">
<title>ZeroInflationCurveCalibrationInfo</title>
<!-- Node1 -->
<g id="node1" class="node"><title>Node1</title>
<g id="a_node1"><a xlink:title=" ">
<polygon fill="#999999" stroke="#666666" points="465,-30 309,-30 309,-0 465,-0 465,-30"/>
<text text-anchor="middle" x="387" y="-18" font-family="Helvetica,sans-Serif" font-size="10.00">{ZeroInflationCurveCalibrationInfo</text>
<text text-anchor="middle" x="387" y="-7" font-family="Helvetica,sans-Serif" font-size="10.00">||}</text>
</a>
</g>
</g>
<!-- Node2 -->
<g id="node2" class="node"><title>Node2</title>
<g id="a_node2"><a xlink:href="structore_1_1data_1_1_inflation_curve_calibration_info.html" target="_top" xlink:title=" ">
<polygon fill="white" stroke="#666666" points="328.5,-119 189.5,-119 189.5,-67 328.5,-67 328.5,-119"/>
<text text-anchor="middle" x="259" y="-107" font-family="Helvetica,sans-Serif" font-size="10.00">{InflationCurveCalibrationInfo</text>
<text text-anchor="start" x="197.5" y="-96" font-family="Helvetica,sans-Serif" font-size="10.00">||+ ~InflationCurveCalibration</text>
<text text-anchor="start" x="197.5" y="-85" font-family="Helvetica,sans-Serif" font-size="10.00">Info()</text>
<text text-anchor="middle" x="259" y="-74" font-family="Helvetica,sans-Serif" font-size="10.00">}</text>
</a>
</g>
</g>
<!-- Node2&#45;&gt;Node1 -->
<g id="edge1" class="edge"><title>Node2&#45;&gt;Node1</title>
<path fill="none" stroke="#63b8ff" d="M310.103,-61.6575C328.4,-50.7937 348.164,-39.0589 363.073,-30.2066"/>
<polygon fill="none" stroke="#63b8ff" points="308.078,-58.7892 301.267,-66.9041 311.652,-64.8082 308.078,-58.7892"/>
</g>
<!-- Node3 -->
<g id="node3" class="node"><title>Node3</title>
<g id="a_node3"><a xlink:title=" ">
<polygon fill="white" stroke="#666666" points="77,-207 33,-207 33,-177 77,-177 77,-207"/>
<text text-anchor="middle" x="55" y="-195" font-family="Helvetica,sans-Serif" font-size="10.00">{string</text>
<text text-anchor="middle" x="55" y="-184" font-family="Helvetica,sans-Serif" font-size="10.00">||}</text>
</a>
</g>
</g>
<!-- Node3&#45;&gt;Node2 -->
<g id="edge2" class="edge"><title>Node3&#45;&gt;Node2</title>
<path fill="none" stroke="#404040" d="M50.8676,-176.946C48.2737,-164.966 46.9246,-147.99 56,-137 71.6026,-118.107 127.944,-107.151 177.322,-101.031"/>
<polygon fill="none" stroke="#404040" points="177.45,-101.016 182.941,-96.3429 189.368,-99.6146 183.876,-104.288 177.45,-101.016"/>
<text text-anchor="middle" x="84" y="-151" font-family="Helvetica,sans-Serif" font-size="10.00"> +calendar</text>
<text text-anchor="middle" x="84" y="-140" font-family="Helvetica,sans-Serif" font-size="10.00">+dayCounter</text>
</g>
<!-- Node4 -->
<g id="node4" class="node"><title>Node4</title>
<g id="a_node4"><a xlink:title=" ">
<polygon fill="white" stroke="#666666" points="110,-284 0,-284 0,-254 110,-254 110,-284"/>
<text text-anchor="middle" x="55" y="-272" font-family="Helvetica,sans-Serif" font-size="10.00">{basic_string&lt; Char &gt;</text>
<text text-anchor="middle" x="55" y="-261" font-family="Helvetica,sans-Serif" font-size="10.00">||}</text>
</a>
</g>
</g>
<!-- Node4&#45;&gt;Node3 -->
<g id="edge3" class="edge"><title>Node4&#45;&gt;Node3</title>
<path fill="none" stroke="#63b8ff" d="M55,-243.541C55,-231.451 55,-217.294 55,-207.044"/>
<polygon fill="none" stroke="#63b8ff" points="51.5001,-243.893 55,-253.893 58.5001,-243.893 51.5001,-243.893"/>
</g>
<!-- Node5 -->
<g id="node5" class="node"><title>Node5</title>
<g id="a_node5"><a xlink:title=" ">
<polygon fill="white" stroke="#666666" points="181,-284 141,-284 141,-254 181,-254 181,-284"/>
<text text-anchor="middle" x="161" y="-272" font-family="Helvetica,sans-Serif" font-size="10.00">{Date</text>
<text text-anchor="middle" x="161" y="-261" font-family="Helvetica,sans-Serif" font-size="10.00">||}</text>
</a>
</g>
</g>
<!-- Node5&#45;&gt;Node2 -->
<g id="edge4" class="edge"><title>Node5&#45;&gt;Node2</title>
<path fill="none" stroke="#404040" d="M150.561,-253.734C138.384,-235.196 121.533,-202.219 135,-177 146.639,-155.203 166.82,-138.127 187.561,-125.279"/>
<polygon fill="none" stroke="#404040" points="187.724,-125.183 190.884,-118.702 198.083,-119.126 194.922,-125.608 187.724,-125.183"/>
<text text-anchor="middle" x="160.5" y="-189.5" font-family="Helvetica,sans-Serif" font-size="10.00"> +baseDate</text>
</g>
<!-- Node6 -->
<g id="node6" class="node"><title>Node6</title>
<g id="a_node6"><a xlink:title=" ">
<polygon fill="white" stroke="#666666" points="323,-207 195,-207 195,-177 323,-177 323,-207"/>
<text text-anchor="middle" x="259" y="-195" font-family="Helvetica,sans-Serif" font-size="10.00">{vector&lt; QuantLib::Date &gt;</text>
<text text-anchor="middle" x="259" y="-184" font-family="Helvetica,sans-Serif" font-size="10.00">||}</text>
</a>
</g>
</g>
<!-- Node5&#45;&gt;Node6 -->
<g id="edge6" class="edge"><title>Node5&#45;&gt;Node6</title>
<path fill="none" stroke="#404040" d="M170.501,-253.968C177.149,-244.894 186.664,-233.276 197,-225 202.512,-220.587 208.729,-216.524 215.044,-212.881"/>
<polygon fill="none" stroke="#404040" points="215.094,-212.854 218.477,-206.485 225.657,-207.159 222.274,-213.527 215.094,-212.854"/>
<text text-anchor="middle" x="221.5" y="-228" font-family="Helvetica,sans-Serif" font-size="10.00"> +elements</text>
</g>
<!-- Node6&#45;&gt;Node2 -->
<g id="edge5" class="edge"><title>Node6&#45;&gt;Node2</title>
<path fill="none" stroke="#404040" d="M259,-176.687C259,-164.795 259,-147.322 259,-131.498"/>
<polygon fill="none" stroke="#404040" points="259,-131.3 255,-125.3 259,-119.3 263,-125.3 259,-131.3"/>
<text text-anchor="middle" x="286.5" y="-145.5" font-family="Helvetica,sans-Serif" font-size="10.00"> +pillarDates</text>
</g>
<!-- Node7 -->
<g id="node7" class="node"><title>Node7</title>
<g id="a_node7"><a xlink:title=" ">
<polygon fill="white" stroke="#666666" points="341,-284 273,-284 273,-254 341,-254 341,-284"/>
<text text-anchor="middle" x="307" y="-272" font-family="Helvetica,sans-Serif" font-size="10.00">{vector&lt; T &gt;</text>
<text text-anchor="middle" x="307" y="-261" font-family="Helvetica,sans-Serif" font-size="10.00">||}</text>
</a>
</g>
</g>
<!-- Node7&#45;&gt;Node6 -->
<g id="edge7" class="edge"><title>Node7&#45;&gt;Node6</title>
<path fill="none" stroke="orange" d="M264.251,-248.909C259.774,-245.249 255.832,-240.971 253,-236 248,-227.224 249.878,-215.854 252.804,-207.01"/>
<polygon fill="orange" stroke="orange" points="262.559,-251.996 272.764,-254.846 266.564,-246.254 262.559,-251.996"/>
<text text-anchor="middle" x="296.5" y="-228" font-family="Helvetica,sans-Serif" font-size="10.00"> &lt; QuantLib::Date &gt;</text>
</g>
<!-- Node9 -->
<g id="node9" class="node"><title>Node9</title>
<g id="a_node9"><a xlink:title=" ">
<polygon fill="white" stroke="#666666" points="433,-207 341,-207 341,-177 433,-177 433,-207"/>
<text text-anchor="middle" x="387" y="-195" font-family="Helvetica,sans-Serif" font-size="10.00">{vector&lt; double &gt;</text>
<text text-anchor="middle" x="387" y="-184" font-family="Helvetica,sans-Serif" font-size="10.00">||}</text>
</a>
</g>
</g>
<!-- Node7&#45;&gt;Node9 -->
<g id="edge11" class="edge"><title>Node7&#45;&gt;Node9</title>
<path fill="none" stroke="orange" d="M329.597,-246.816C343.177,-234.084 360.083,-218.235 372.02,-207.044"/>
<polygon fill="orange" stroke="orange" points="326.949,-244.5 322.047,-253.893 331.737,-249.607 326.949,-244.5"/>
<text text-anchor="middle" x="377" y="-228" font-family="Helvetica,sans-Serif" font-size="10.00"> &lt; double &gt;</text>
</g>
<!-- Node8 -->
<g id="node8" class="node"><title>Node8</title>
<g id="a_node8"><a xlink:title=" ">
<polygon fill="white" stroke="#666666" points="321.5,-361 292.5,-361 292.5,-331 321.5,-331 321.5,-361"/>
<text text-anchor="middle" x="307" y="-349" font-family="Helvetica,sans-Serif" font-size="10.00">{T</text>
<text text-anchor="middle" x="307" y="-338" font-family="Helvetica,sans-Serif" font-size="10.00">||}</text>
</a>
</g>
</g>
<!-- Node8&#45;&gt;Node7 -->
<g id="edge8" class="edge"><title>Node8&#45;&gt;Node7</title>
<path fill="none" stroke="#404040" d="M307,-330.893C307,-321.151 307,-307.901 307,-296.249"/>
<polygon fill="none" stroke="#404040" points="307,-296.044 303,-290.044 307,-284.044 311,-290.044 307,-296.044"/>
<text text-anchor="middle" x="331.5" y="-305" font-family="Helvetica,sans-Serif" font-size="10.00"> +elements</text>
</g>
<!-- Node9&#45;&gt;Node1 -->
<g id="edge13" class="edge"><title>Node9&#45;&gt;Node1</title>
<path fill="none" stroke="#404040" d="M387,-176.975C387,-147.791 387,-80.1252 387,-42.4772"/>
<polygon fill="none" stroke="#404040" points="387,-42.092 383,-36.092 387,-30.092 391,-36.0919 387,-42.092"/>
<text text-anchor="middle" x="417" y="-96" font-family="Helvetica,sans-Serif" font-size="10.00"> +forwardCpis</text>
<text text-anchor="middle" x="417" y="-85" font-family="Helvetica,sans-Serif" font-size="10.00">+zeroRates</text>
</g>
<!-- Node9&#45;&gt;Node2 -->
<g id="edge9" class="edge"><title>Node9&#45;&gt;Node2</title>
<path fill="none" stroke="#404040" d="M363.957,-176.811C355.849,-171.516 346.815,-165.263 339,-159 327.962,-150.154 326.776,-146.164 316,-137 311.906,-133.518 307.563,-129.982 303.174,-126.51"/>
<polygon fill="none" stroke="#404040" points="303.05,-126.414 295.857,-125.896 293.569,-119.058 300.761,-119.576 303.05,-126.414"/>
<text text-anchor="middle" x="356" y="-145.5" font-family="Helvetica,sans-Serif" font-size="10.00"> +times</text>
</g>
<!-- Node10 -->
<g id="node10" class="node"><title>Node10</title>
<g id="a_node10"><a xlink:title=" ">
<polygon fill="white" stroke="#666666" points="491,-284 443,-284 443,-254 491,-254 491,-284"/>
<text text-anchor="middle" x="467" y="-272" font-family="Helvetica,sans-Serif" font-size="10.00">{double</text>
<text text-anchor="middle" x="467" y="-261" font-family="Helvetica,sans-Serif" font-size="10.00">||}</text>
</a>
</g>
</g>
<!-- Node10&#45;&gt;Node1 -->
<g id="edge12" class="edge"><title>Node10&#45;&gt;Node1</title>
<path fill="none" stroke="#404040" d="M477.107,-253.703C480.285,-248.398 483.385,-242.166 485,-236 486.239,-231.271 485.517,-229.861 485,-225 477.402,-153.573 488.848,-128.05 451,-67 443.795,-55.3785 432.962,-45.287 422.247,-37.2177"/>
<polygon fill="none" stroke="#404040" points="421.954,-37.0118 414.745,-36.838 412.133,-30.1167 419.342,-30.2905 421.954,-37.0118"/>
<text text-anchor="middle" x="503.5" y="-145.5" font-family="Helvetica,sans-Serif" font-size="10.00"> +baseCpi</text>
</g>
<!-- Node10&#45;&gt;Node9 -->
<g id="edge10" class="edge"><title>Node10&#45;&gt;Node9</title>
<path fill="none" stroke="#404040" d="M451.953,-253.893C440.443,-243.103 424.345,-228.011 411.055,-215.552"/>
<polygon fill="none" stroke="#404040" points="410.734,-215.251 403.621,-214.065 401.98,-207.044 409.093,-208.229 410.734,-215.251"/>
<text text-anchor="middle" x="456.5" y="-228" font-family="Helvetica,sans-Serif" font-size="10.00"> +elements</text>
</g>
</g>
</svg>
        <g id="navigator" transform="translate(0 0)" fill="#404254">
                <rect fill="#f2f5e9" fill-opacity="0.5" stroke="#606060" stroke-width=".5" x="0" y="0" width="60" height="60"/>
                <use id="zoomplus" xlink:href="#zoomPlus" x="17" y="9" onmousedown="handleZoom(evt,'in')"/>
                <use id="zoomminus" xlink:href="#zoomMin" x="42" y="9" onmousedown="handleZoom(evt,'out')"/>
                <use id="reset" xlink:href="#resetDef" x="30" y="36" onmousedown="handleReset()"/>
                <g id="arrowUp" xlink:href="#dirArrow" transform="translate(30 24)" onmousedown="handlePan(0,-1)">
                  <use xlink:href="#rim" fill="#404040">
                        <set attributeName="fill" to="#808080" begin="arrowUp.mouseover" end="arrowUp.mouseout"/>
                  </use>
                  <path fill="none" stroke="white" stroke-width="1.5" d="M0,-3.0v7 M-2.5,-0.5L0,-3.0L2.5,-0.5"/>
                </g>
                <g id="arrowRight" xlink:href="#dirArrow" transform="rotate(90) translate(36 -43)" onmousedown="handlePan(1,0)">
                  <use xlink:href="#rim" fill="#404040">
                        <set attributeName="fill" to="#808080" begin="arrowRight.mouseover" end="arrowRight.mouseout"/>
                  </use>
                  <path fill="none" stroke="white" stroke-width="1.5" d="M0,-3.0v7 M-2.5,-0.5L0,-3.0L2.5,-0.5"/>
                </g>
                <g id="arrowDown" xlink:href="#dirArrow" transform="rotate(180) translate(-30 -48)" onmousedown="handlePan(0,1)">
                  <use xlink:href="#rim" fill="#404040">
                        <set attributeName="fill" to="#808080" begin="arrowDown.mouseover" end="arrowDown.mouseout"/>
                  </use>
                  <path fill="none" stroke="white" stroke-width="1.5" d="M0,-3.0v7 M-2.5,-0.5L0,-3.0L2.5,-0.5"/>
                </g>
                <g id="arrowLeft" xlink:href="#dirArrow" transform="rotate(270) translate(-36 17)" onmousedown="handlePan(-1,0)">
                  <use xlink:href="#rim" fill="#404040">
                        <set attributeName="fill" to="#808080" begin="arrowLeft.mouseover" end="arrowLeft.mouseout"/>
                  </use>
                  <path fill="none" stroke="white" stroke-width="1.5" d="M0,-3.0v7 M-2.5,-0.5L0,-3.0L2.5,-0.5"/>
                </g>
        </g>
        <svg viewBox="0 0 15 15" width="100%" height="30px" preserveAspectRatio="xMaxYMin meet">
         <g id="arrow_out" transform="scale(0.3 0.3)">
          <a xlink:href="structore_1_1data_1_1_zero_inflation_curve_calibration_info__coll__graph_org.svg" target="_base">
           <rect id="button" ry="5" rx="5" y="6" x="6" height="38" width="38"
                fill="#f2f5e9" fill-opacity="0.5" stroke="#606060" stroke-width="1.0"/>
           <path id="arrow"
             d="M 11.500037,31.436501 C 11.940474,20.09759 22.043105,11.32322 32.158766,21.979434 L 37.068811,17.246167 C 37.068811,17.246167 37.088388,32 37.088388,32 L 22.160133,31.978069 C 22.160133,31.978069 26.997745,27.140456 26.997745,27.140456 C 18.528582,18.264221 13.291696,25.230495 11.500037,31.436501 z"
             style="fill:#404040;"/>
          </a>
         </g>
        </svg>
</svg>
