<?xml version="1.0" encoding="UTF-8" standalone="no"?>
<!DOCTYPE svg PUBLIC "-//W3C//DTD SVG 1.1//EN"
 "http://www.w3.org/Graphics/SVG/1.1/DTD/svg11.dtd">
<!-- Generated by graphviz version 2.38.0 (20140413.2041)
 -->
<!-- Title: Fixing Pages: 1 -->
<svg width="168pt" height="226pt"
 viewBox="0.00 0.00 167.50 226.00" xmlns="http://www.w3.org/2000/svg" xmlns:xlink="http://www.w3.org/1999/xlink">
<g id="graph0" class="graph" transform="scale(1 1) rotate(0) translate(4 222)">
<title>Fixing</title>
<!-- Node1 -->
<g id="node1" class="node"><title>Node1</title>
<g id="a_node1"><a xlink:title="Fixing data structure.">
<polygon fill="#999999" stroke="#666666" points="112.5,-74 47.5,-74 47.5,-0 112.5,-0 112.5,-74"/>
<text text-anchor="middle" x="80" y="-62" font-family="Helvetica,sans-Serif" font-size="10.00">{Fixing</text>
<text text-anchor="start" x="55.5" y="-51" font-family="Helvetica,sans-Serif" font-size="10.00">||+ Fixing()</text>
<text text-anchor="start" x="55.5" y="-40" font-family="Helvetica,sans-Serif" font-size="10.00">+ Fixing()</text>
<text text-anchor="start" x="55.5" y="-29" font-family="Helvetica,sans-Serif" font-size="10.00">+ empty()</text>
<text text-anchor="start" x="55.5" y="-18" font-family="Helvetica,sans-Serif" font-size="10.00">&#45; serialize()</text>
<text text-anchor="middle" x="80" y="-7" font-family="Helvetica,sans-Serif" font-size="10.00">}</text>
</a>
</g>
</g>
<!-- Node2 -->
<g id="node2" class="node"><title>Node2</title>
<g id="a_node2"><a xlink:title=" ">
<polygon fill="white" stroke="#666666" points="40,-151 0,-151 0,-121 40,-121 40,-151"/>
<text text-anchor="middle" x="20" y="-139" font-family="Helvetica,sans-Serif" font-size="10.00">{Date</text>
<text text-anchor="middle" x="20" y="-128" font-family="Helvetica,sans-Serif" font-size="10.00">||}</text>
</a>
</g>
</g>
<!-- Node2&#45;&gt;Node1 -->
<g id="edge1" class="edge"><title>Node2&#45;&gt;Node1</title>
<path fill="none" stroke="#404040" d="M28.8532,-120.687C34.8206,-111.04 43.0593,-97.7208 51.1822,-84.5887"/>
<polygon fill="none" stroke="#404040" points="51.3135,-84.3764 51.0681,-77.1694 57.6262,-74.1709 57.8717,-81.3779 51.3135,-84.3764"/>
<text text-anchor="middle" x="61" y="-95" font-family="Helvetica,sans-Serif" font-size="10.00"> +date</text>
</g>
<!-- Node3 -->
<g id="node3" class="node"><title>Node3</title>
<g id="a_node3"><a xlink:title=" ">
<polygon fill="white" stroke="#666666" points="102,-151 58,-151 58,-121 102,-121 102,-151"/>
<text text-anchor="middle" x="80" y="-139" font-family="Helvetica,sans-Serif" font-size="10.00">{string</text>
<text text-anchor="middle" x="80" y="-128" font-family="Helvetica,sans-Serif" font-size="10.00">||}</text>
</a>
</g>
</g>
<!-- Node3&#45;&gt;Node1 -->
<g id="edge2" class="edge"><title>Node3&#45;&gt;Node1</title>
<path fill="none" stroke="#404040" d="M80,-120.687C80,-111.518 80,-99.0305 80,-86.54"/>
<polygon fill="none" stroke="#404040" points="80.0001,-86.1709 76,-80.171 80,-74.1709 84,-80.1709 80.0001,-86.1709"/>
<text text-anchor="middle" x="97" y="-95" font-family="Helvetica,sans-Serif" font-size="10.00"> +name</text>
</g>
<!-- Node4 -->
<g id="node4" class="node"><title>Node4</title>
<g id="a_node4"><a xlink:title=" ">
<polygon fill="white" stroke="#666666" points="135,-218 25,-218 25,-188 135,-188 135,-218"/>
<text text-anchor="middle" x="80" y="-206" font-family="Helvetica,sans-Serif" font-size="10.00">{basic_string&lt; Char &gt;</text>
<text text-anchor="middle" x="80" y="-195" font-family="Helvetica,sans-Serif" font-size="10.00">||}</text>
</a>
</g>
</g>
<!-- Node4&#45;&gt;Node3 -->
<g id="edge3" class="edge"><title>Node4&#45;&gt;Node3</title>
<path fill="none" stroke="#63b8ff" d="M80,-177.608C80,-168.654 80,-158.823 80,-151.077"/>
<polygon fill="none" stroke="#63b8ff" points="76.5001,-177.896 80,-187.896 83.5001,-177.896 76.5001,-177.896"/>
</g>
<!-- Node5 -->
<g id="node5" class="node"><title>Node5</title>
<g id="a_node5"><a xlink:title=" ">
<polygon fill="white" stroke="#666666" points="159.5,-151 120.5,-151 120.5,-121 159.5,-121 159.5,-151"/>
<text text-anchor="middle" x="140" y="-139" font-family="Helvetica,sans-Serif" font-size="10.00">{Real</text>
<text text-anchor="middle" x="140" y="-128" font-family="Helvetica,sans-Serif" font-size="10.00">||}</text>
</a>
</g>
</g>
<!-- Node5&#45;&gt;Node1 -->
<g id="edge4" class="edge"><title>Node5&#45;&gt;Node1</title>
<path fill="none" stroke="#404040" d="M133.352,-120.787C129.219,-112.276 123.633,-101.333 118,-92 116.445,-89.4237 114.809,-86.808 113.126,-84.1881"/>
<polygon fill="none" stroke="#404040" points="113.094,-84.1396 106.445,-81.3472 106.466,-74.1361 113.114,-76.9285 113.094,-84.1396"/>
<text text-anchor="middle" x="140" y="-95" font-family="Helvetica,sans-Serif" font-size="10.00"> +fixing</text>
</g>
</g>
</svg>
