<?xml version="1.0" encoding="UTF-8" standalone="no"?>
<!DOCTYPE svg PUBLIC "-//W3C//DTD SVG 1.1//EN"
 "http://www.w3.org/Graphics/SVG/1.1/DTD/svg11.dtd">
<!-- Generated by graphviz version 2.38.0 (20140413.2041)
 -->
<!-- Title: FxEqCommVolCalibrationInfo Pages: 1 -->
<!--zoomable 536 -->
<svg id="main" version="1.1" xmlns="http://www.w3.org/2000/svg" xmlns:xlink="http://www.w3.org/1999/xlink" xml:space="preserve" onload="init(evt)">
<style type="text/css"><![CDATA[
.edge:hover path { stroke: red; }
.edge:hover polygon { stroke: red; fill: red; }
]]></style>
<script type="text/javascript"><![CDATA[
var edges = document.getElementsByTagName('g');
if (edges && edges.length) {
  for (var i=0;i<edges.length;i++) {
    if (edges[i].id.substr(0,4)=='edge') {
      edges[i].setAttribute('class','edge');
    }
  }
}
]]></script>
        <defs>
                <circle id="rim" cx="0" cy="0" r="7"/>
                <circle id="rim2" cx="0" cy="0" r="3.5"/>
                <g id="zoomPlus">
                        <use xlink:href="#rim" fill="#404040">
                                <set attributeName="fill" to="#808080" begin="zoomplus.mouseover" end="zoomplus.mouseout"/>
                        </use>
                        <path d="M-4,0h8M0,-4v8" fill="none" stroke="white" stroke-width="1.5" pointer-events="none"/>
                </g>
                <g id="zoomMin">
                        <use xlink:href="#rim" fill="#404040">
                                <set attributeName="fill" to="#808080" begin="zoomminus.mouseover" end="zoomminus.mouseout"/>
                        </use>
                        <path d="M-4,0h8" fill="none" stroke="white" stroke-width="1.5" pointer-events="none"/>
                </g>
                <g id="dirArrow">
                        <path fill="none" stroke="white" stroke-width="1.5" d="M0,-3.0v7 M-2.5,-0.5L0,-3.0L2.5,-0.5"/>
                </g>
               <g id="resetDef">
                       <use xlink:href="#rim2" fill="#404040">
                               <set attributeName="fill" to="#808080" begin="reset.mouseover" end="reset.mouseout"/>
                       </use>
               </g>
        </defs>

<script type="text/javascript">
var viewWidth = 994;
var viewHeight = 536;
var sectionId = 'dynsection-0';
</script>
<script xlink:href="svgpan.js"/>
<svg id="graph" class="graph">
<g id="viewport">
<title>FxEqCommVolCalibrationInfo</title>
<!-- Node1 -->
<g id="node1" class="node"><title>Node1</title>
<g id="a_node1"><a xlink:title=" ">
<polygon fill="#999999" stroke="#666666" points="502.5,-41 333.5,-41 333.5,-0 502.5,-0 502.5,-41"/>
<text text-anchor="middle" x="418" y="-29" font-family="Helvetica,sans-Serif" font-size="10.00">{FxEqCommVolCalibrationInfo</text>
<text text-anchor="start" x="341.5" y="-18" font-family="Helvetica,sans-Serif" font-size="10.00">||+ ~FxEqCommVolCalibrationInfo()</text>
<text text-anchor="middle" x="418" y="-7" font-family="Helvetica,sans-Serif" font-size="10.00">}</text>
</a>
</g>
</g>
<!-- Node2 -->
<g id="node2" class="node"><title>Node2</title>
<g id="a_node2"><a xlink:title=" ">
<polygon fill="white" stroke="#666666" points="77,-374 33,-374 33,-344 77,-344 77,-374"/>
<text text-anchor="middle" x="55" y="-362" font-family="Helvetica,sans-Serif" font-size="10.00">{string</text>
<text text-anchor="middle" x="55" y="-351" font-family="Helvetica,sans-Serif" font-size="10.00">||}</text>
</a>
</g>
</g>
<!-- Node2&#45;&gt;Node1 -->
<g id="edge1" class="edge"><title>Node2&#45;&gt;Node1</title>
<path fill="none" stroke="#404040" d="M51.7391,-343.859C45.8198,-315.408 35.3791,-249.564 52,-198 75.3482,-125.566 86.8664,-98.3627 152,-59 179.983,-42.089 257.109,-32.4531 321.151,-27.1962"/>
<polygon fill="none" stroke="#404040" points="321.391,-27.1774 327.058,-22.7179 333.354,-26.2336 327.687,-30.6931 321.391,-27.1774"/>
<text text-anchor="middle" x="102" y="-289" font-family="Helvetica,sans-Serif" font-size="10.00"> +atmType</text>
<text text-anchor="middle" x="102" y="-278" font-family="Helvetica,sans-Serif" font-size="10.00">+butterflyStyle</text>
<text text-anchor="middle" x="102" y="-267" font-family="Helvetica,sans-Serif" font-size="10.00">+calendar</text>
<text text-anchor="middle" x="102" y="-256" font-family="Helvetica,sans-Serif" font-size="10.00">+dayCounter</text>
<text text-anchor="middle" x="102" y="-245" font-family="Helvetica,sans-Serif" font-size="10.00">+deltaType</text>
<text text-anchor="middle" x="102" y="-234" font-family="Helvetica,sans-Serif" font-size="10.00">+longTermAtmType</text>
<text text-anchor="middle" x="102" y="-223" font-family="Helvetica,sans-Serif" font-size="10.00">+longTermDeltaType</text>
<text text-anchor="middle" x="102" y="-212" font-family="Helvetica,sans-Serif" font-size="10.00">+riskReversalInFavorOf</text>
<text text-anchor="middle" x="102" y="-201" font-family="Helvetica,sans-Serif" font-size="10.00">+switchTenor</text>
</g>
<!-- Node11 -->
<g id="node11" class="node"><title>Node11</title>
<g id="a_node11"><a xlink:title=" ">
<polygon fill="white" stroke="#666666" points="310.5,-262.5 203.5,-262.5 203.5,-232.5 310.5,-232.5 310.5,-262.5"/>
<text text-anchor="middle" x="257" y="-250.5" font-family="Helvetica,sans-Serif" font-size="10.00">{vector&lt; std::string &gt;</text>
<text text-anchor="middle" x="257" y="-239.5" font-family="Helvetica,sans-Serif" font-size="10.00">||}</text>
</a>
</g>
</g>
<!-- Node2&#45;&gt;Node11 -->
<g id="edge12" class="edge"><title>Node2&#45;&gt;Node11</title>
<path fill="none" stroke="#404040" d="M65.5508,-343.626C72.9353,-334.408 83.506,-322.757 95,-315 113.541,-302.488 121.247,-305.347 142,-297 165.686,-287.473 191.93,-276.442 213.359,-267.309"/>
<polygon fill="none" stroke="#404040" points="213.369,-267.305 217.315,-261.268 224.404,-262.589 220.459,-268.625 213.369,-267.305"/>
<text text-anchor="middle" x="119.5" y="-318" font-family="Helvetica,sans-Serif" font-size="10.00"> +elements</text>
</g>
<!-- Node3 -->
<g id="node3" class="node"><title>Node3</title>
<g id="a_node3"><a xlink:title=" ">
<polygon fill="white" stroke="#666666" points="110,-451 0,-451 0,-421 110,-421 110,-451"/>
<text text-anchor="middle" x="55" y="-439" font-family="Helvetica,sans-Serif" font-size="10.00">{basic_string&lt; Char &gt;</text>
<text text-anchor="middle" x="55" y="-428" font-family="Helvetica,sans-Serif" font-size="10.00">||}</text>
</a>
</g>
</g>
<!-- Node3&#45;&gt;Node2 -->
<g id="edge2" class="edge"><title>Node3&#45;&gt;Node2</title>
<path fill="none" stroke="#63b8ff" d="M55,-410.541C55,-398.451 55,-384.294 55,-374.044"/>
<polygon fill="none" stroke="#63b8ff" points="51.5001,-410.893 55,-420.893 58.5001,-410.893 51.5001,-410.893"/>
</g>
<!-- Node4 -->
<g id="node4" class="node"><title>Node4</title>
<g id="a_node4"><a xlink:href="classbool.html" target="_top" xlink:title=" ">
<polygon fill="white" stroke="#666666" points="212,-451 174,-451 174,-421 212,-421 212,-451"/>
<text text-anchor="middle" x="193" y="-439" font-family="Helvetica,sans-Serif" font-size="10.00">{bool</text>
<text text-anchor="middle" x="193" y="-428" font-family="Helvetica,sans-Serif" font-size="10.00">||}</text>
</a>
</g>
</g>
<!-- Node4&#45;&gt;Node1 -->
<g id="edge3" class="edge"><title>Node4&#45;&gt;Node1</title>
<path fill="none" stroke="#404040" d="M188.636,-420.721C182.574,-400.064 171.909,-360.532 168,-326 162.57,-278.032 170.558,-254.781 194,-198 221.902,-130.416 223.254,-102.532 282,-59 293.879,-50.1979 307.717,-43.4618 321.93,-38.3068"/>
<polygon fill="none" stroke="#404040" points="321.991,-38.2865 326.424,-32.5985 333.379,-34.5023 328.946,-40.1903 321.991,-38.2865"/>
<text text-anchor="middle" x="206" y="-318" font-family="Helvetica,sans-Serif" font-size="10.00"> +isArbitrageFree</text>
</g>
<!-- Node14 -->
<g id="node14" class="node"><title>Node14</title>
<g id="a_node14"><a xlink:title=" ">
<polygon fill="white" stroke="#666666" points="421.5,-374 340.5,-374 340.5,-344 421.5,-344 421.5,-374"/>
<text text-anchor="middle" x="381" y="-362" font-family="Helvetica,sans-Serif" font-size="10.00">{vector&lt; bool &gt;</text>
<text text-anchor="middle" x="381" y="-351" font-family="Helvetica,sans-Serif" font-size="10.00">||}</text>
</a>
</g>
</g>
<!-- Node4&#45;&gt;Node14 -->
<g id="edge19" class="edge"><title>Node4&#45;&gt;Node14</title>
<path fill="none" stroke="#404040" d="M212.061,-427.396C240.524,-416.041 294.998,-394.309 334.41,-378.586"/>
<polygon fill="none" stroke="#404040" points="334.456,-378.568 338.546,-372.63 345.602,-374.122 341.511,-380.06 334.456,-378.568"/>
<text text-anchor="middle" x="323.5" y="-395" font-family="Helvetica,sans-Serif" font-size="10.00"> +elements</text>
</g>
<!-- Node5 -->
<g id="node5" class="node"><title>Node5</title>
<g id="a_node5"><a xlink:title=" ">
<polygon fill="white" stroke="#666666" points="856,-374 728,-374 728,-344 856,-344 856,-374"/>
<text text-anchor="middle" x="792" y="-362" font-family="Helvetica,sans-Serif" font-size="10.00">{vector&lt; QuantLib::Date &gt;</text>
<text text-anchor="middle" x="792" y="-351" font-family="Helvetica,sans-Serif" font-size="10.00">||}</text>
</a>
</g>
</g>
<!-- Node5&#45;&gt;Node1 -->
<g id="edge4" class="edge"><title>Node5&#45;&gt;Node1</title>
<path fill="none" stroke="#404040" d="M739.442,-343.901C698.545,-331.887 646.397,-313.927 632,-297 562.031,-214.735 658.581,-136.141 583,-59 572.609,-48.3948 544.699,-40.318 514.725,-34.4264"/>
<polygon fill="none" stroke="#404040" points="514.514,-34.3872 507.884,-37.2237 502.716,-32.1949 509.345,-29.3583 514.514,-34.3872"/>
<text text-anchor="middle" x="662.5" y="-245" font-family="Helvetica,sans-Serif" font-size="10.00"> +expiryDates</text>
</g>
<!-- Node6 -->
<g id="node6" class="node"><title>Node6</title>
<g id="a_node6"><a xlink:title=" ">
<polygon fill="white" stroke="#666666" points="833,-451 793,-451 793,-421 833,-421 833,-451"/>
<text text-anchor="middle" x="813" y="-439" font-family="Helvetica,sans-Serif" font-size="10.00">{Date</text>
<text text-anchor="middle" x="813" y="-428" font-family="Helvetica,sans-Serif" font-size="10.00">||}</text>
</a>
</g>
</g>
<!-- Node6&#45;&gt;Node5 -->
<g id="edge5" class="edge"><title>Node6&#45;&gt;Node5</title>
<path fill="none" stroke="#404040" d="M809.05,-420.893C806.293,-411.046 802.532,-397.616 799.245,-385.873"/>
<polygon fill="none" stroke="#404040" points="799.168,-385.599 793.698,-380.9 795.932,-374.044 801.402,-378.743 799.168,-385.599"/>
<text text-anchor="middle" x="827.5" y="-395" font-family="Helvetica,sans-Serif" font-size="10.00"> +elements</text>
</g>
<!-- Node7 -->
<g id="node7" class="node"><title>Node7</title>
<g id="a_node7"><a xlink:title=" ">
<polygon fill="white" stroke="#666666" points="561,-451 493,-451 493,-421 561,-421 561,-451"/>
<text text-anchor="middle" x="527" y="-439" font-family="Helvetica,sans-Serif" font-size="10.00">{vector&lt; T &gt;</text>
<text text-anchor="middle" x="527" y="-428" font-family="Helvetica,sans-Serif" font-size="10.00">||}</text>
</a>
</g>
</g>
<!-- Node7&#45;&gt;Node5 -->
<g id="edge6" class="edge"><title>Node7&#45;&gt;Node5</title>
<path fill="none" stroke="orange" d="M570.614,-418.416C582.786,-413.612 595.97,-408.245 608,-403 618.387,-398.471 620.248,-395.577 631,-392 640.397,-388.874 687.054,-379.709 727.74,-371.984"/>
<polygon fill="orange" stroke="orange" points="569.148,-415.231 561.11,-422.134 571.698,-421.75 569.148,-415.231"/>
<text text-anchor="middle" x="674.5" y="-395" font-family="Helvetica,sans-Serif" font-size="10.00"> &lt; QuantLib::Date &gt;</text>
</g>
<!-- Node9 -->
<g id="node9" class="node"><title>Node9</title>
<g id="a_node9"><a xlink:title=" ">
<polygon fill="white" stroke="#666666" points="966,-374 874,-374 874,-344 966,-344 966,-374"/>
<text text-anchor="middle" x="920" y="-362" font-family="Helvetica,sans-Serif" font-size="10.00">{vector&lt; double &gt;</text>
<text text-anchor="middle" x="920" y="-351" font-family="Helvetica,sans-Serif" font-size="10.00">||}</text>
</a>
</g>
</g>
<!-- Node7&#45;&gt;Node9 -->
<g id="edge10" class="edge"><title>Node7&#45;&gt;Node9</title>
<path fill="none" stroke="orange" d="M571.236,-430.094C610.291,-425.171 668.545,-416.383 718,-403 731.306,-399.399 733.668,-395.503 747,-392 798.309,-378.518 813.01,-384.556 865,-374 867.897,-373.412 870.87,-372.769 873.862,-372.093"/>
<polygon fill="orange" stroke="orange" points="570.744,-426.628 561.246,-431.321 571.598,-433.575 570.744,-426.628"/>
<text text-anchor="middle" x="772" y="-395" font-family="Helvetica,sans-Serif" font-size="10.00"> &lt; double &gt;</text>
</g>
<!-- Node7&#45;&gt;Node11 -->
<g id="edge13" class="edge"><title>Node7&#45;&gt;Node11</title>
<path fill="none" stroke="orange" d="M482.395,-430.873C415.398,-423.681 293.667,-406.425 266,-374 238.918,-342.262 247.238,-288.023 253.208,-262.525"/>
<polygon fill="orange" stroke="orange" points="482.347,-434.387 492.655,-431.942 483.072,-427.424 482.347,-434.387"/>
<text text-anchor="middle" x="298.5" y="-356.5" font-family="Helvetica,sans-Serif" font-size="10.00"> &lt; std::string &gt;</text>
</g>
<!-- Node12 -->
<g id="node12" class="node"><title>Node12</title>
<g id="a_node12"><a xlink:title=" ">
<polygon fill="white" stroke="#666666" points="800.5,-268 701.5,-268 701.5,-227 800.5,-227 800.5,-268"/>
<text text-anchor="start" x="709.5" y="-256" font-family="Helvetica,sans-Serif" font-size="10.00">{vector&lt; std::vector</text>
<text text-anchor="middle" x="751" y="-245" font-family="Helvetica,sans-Serif" font-size="10.00">&lt; double &gt; &gt;</text>
<text text-anchor="middle" x="751" y="-234" font-family="Helvetica,sans-Serif" font-size="10.00">||}</text>
</a>
</g>
</g>
<!-- Node7&#45;&gt;Node12 -->
<g id="edge16" class="edge"><title>Node7&#45;&gt;Node12</title>
<path fill="none" stroke="orange" d="M544.888,-412.749C563.807,-389.524 592.716,-354.982 606,-344 638.079,-317.48 652.349,-320.057 687,-297 700.464,-288.041 714.866,-277.243 726.593,-268.112"/>
<polygon fill="orange" stroke="orange" points="541.997,-410.757 538.417,-420.729 547.434,-415.166 541.997,-410.757"/>
<text text-anchor="middle" x="662.5" y="-356.5" font-family="Helvetica,sans-Serif" font-size="10.00"> &lt; std::vector&lt; double &gt; &gt;</text>
</g>
<!-- Node13 -->
<g id="node13" class="node"><title>Node13</title>
<g id="a_node13"><a xlink:title=" ">
<polygon fill="white" stroke="#666666" points="467.5,-268 368.5,-268 368.5,-227 467.5,-227 467.5,-268"/>
<text text-anchor="start" x="376.5" y="-256" font-family="Helvetica,sans-Serif" font-size="10.00">{vector&lt; std::vector</text>
<text text-anchor="middle" x="418" y="-245" font-family="Helvetica,sans-Serif" font-size="10.00">&lt; bool &gt; &gt;</text>
<text text-anchor="middle" x="418" y="-234" font-family="Helvetica,sans-Serif" font-size="10.00">||}</text>
</a>
</g>
</g>
<!-- Node7&#45;&gt;Node13 -->
<g id="edge21" class="edge"><title>Node7&#45;&gt;Node13</title>
<path fill="none" stroke="orange" d="M504.37,-413.457C493.607,-402.382 481.128,-388.241 472,-374 460.224,-355.628 437.479,-298.832 425.617,-268.338"/>
<polygon fill="orange" stroke="orange" points="501.948,-415.985 511.485,-420.599 506.907,-411.045 501.948,-415.985"/>
<text text-anchor="middle" x="523.5" y="-356.5" font-family="Helvetica,sans-Serif" font-size="10.00"> &lt; std::vector&lt; bool &gt; &gt;</text>
</g>
<!-- Node7&#45;&gt;Node14 -->
<g id="edge20" class="edge"><title>Node7&#45;&gt;Node14</title>
<path fill="none" stroke="orange" d="M482.849,-432.206C457.516,-428.623 426.397,-420.638 404,-403 394.821,-395.772 388.855,-383.841 385.305,-374.378"/>
<polygon fill="orange" stroke="orange" points="482.599,-435.702 492.952,-433.45 483.455,-428.754 482.599,-435.702"/>
<text text-anchor="middle" x="424" y="-395" font-family="Helvetica,sans-Serif" font-size="10.00"> &lt; bool &gt;</text>
</g>
<!-- Node8 -->
<g id="node8" class="node"><title>Node8</title>
<g id="a_node8"><a xlink:title=" ">
<polygon fill="white" stroke="#666666" points="541.5,-528 512.5,-528 512.5,-498 541.5,-498 541.5,-528"/>
<text text-anchor="middle" x="527" y="-516" font-family="Helvetica,sans-Serif" font-size="10.00">{T</text>
<text text-anchor="middle" x="527" y="-505" font-family="Helvetica,sans-Serif" font-size="10.00">||}</text>
</a>
</g>
</g>
<!-- Node8&#45;&gt;Node7 -->
<g id="edge7" class="edge"><title>Node8&#45;&gt;Node7</title>
<path fill="none" stroke="#404040" d="M527,-497.893C527,-488.151 527,-474.901 527,-463.249"/>
<polygon fill="none" stroke="#404040" points="527,-463.044 523,-457.044 527,-451.044 531,-457.044 527,-463.044"/>
<text text-anchor="middle" x="551.5" y="-472" font-family="Helvetica,sans-Serif" font-size="10.00"> +elements</text>
</g>
<!-- Node9&#45;&gt;Node1 -->
<g id="edge8" class="edge"><title>Node9&#45;&gt;Node1</title>
<path fill="none" stroke="#404040" d="M922.472,-343.977C930.082,-295.736 947.81,-135.395 863,-59 837.721,-36.2293 637.898,-27.0546 514.772,-23.5367"/>
<polygon fill="none" stroke="#404040" points="514.732,-23.5357 508.624,-27.3682 502.737,-23.2038 508.845,-19.3712 514.732,-23.5357"/>
<text text-anchor="middle" x="957.5" y="-256" font-family="Helvetica,sans-Serif" font-size="10.00"> +forwards</text>
<text text-anchor="middle" x="957.5" y="-245" font-family="Helvetica,sans-Serif" font-size="10.00">+moneyness</text>
<text text-anchor="middle" x="957.5" y="-234" font-family="Helvetica,sans-Serif" font-size="10.00">+times</text>
</g>
<!-- Node9&#45;&gt;Node12 -->
<g id="edge15" class="edge"><title>Node9&#45;&gt;Node12</title>
<path fill="none" stroke="#404040" d="M873.934,-345.289C848.195,-337.952 820.252,-329.502 815,-326 796.541,-313.69 780.631,-294.49 769.291,-278.281"/>
<polygon fill="none" stroke="#404040" points="769.193,-278.135 762.531,-275.375 762.518,-268.164 769.179,-270.924 769.193,-278.135"/>
<text text-anchor="middle" x="839.5" y="-318" font-family="Helvetica,sans-Serif" font-size="10.00"> +elements</text>
</g>
<!-- Node10 -->
<g id="node10" class="node"><title>Node10</title>
<g id="a_node10"><a xlink:title=" ">
<polygon fill="white" stroke="#666666" points="944,-451 896,-451 896,-421 944,-421 944,-451"/>
<text text-anchor="middle" x="920" y="-439" font-family="Helvetica,sans-Serif" font-size="10.00">{double</text>
<text text-anchor="middle" x="920" y="-428" font-family="Helvetica,sans-Serif" font-size="10.00">||}</text>
</a>
</g>
</g>
<!-- Node10&#45;&gt;Node9 -->
<g id="edge9" class="edge"><title>Node10&#45;&gt;Node9</title>
<path fill="none" stroke="#404040" d="M920,-420.893C920,-411.151 920,-397.901 920,-386.249"/>
<polygon fill="none" stroke="#404040" points="920,-386.044 916,-380.044 920,-374.044 924,-380.044 920,-386.044"/>
<text text-anchor="middle" x="944.5" y="-395" font-family="Helvetica,sans-Serif" font-size="10.00"> +elements</text>
</g>
<!-- Node11&#45;&gt;Node1 -->
<g id="edge11" class="edge"><title>Node11&#45;&gt;Node1</title>
<path fill="none" stroke="#404040" d="M262.22,-232.382C275.055,-199.099 310.872,-114.368 362,-59 365.438,-55.2768 369.316,-51.74 373.386,-48.4331"/>
<polygon fill="none" stroke="#404040" points="373.507,-48.3426 375.916,-41.5456 383.116,-41.1547 380.708,-47.9517 373.507,-48.3426"/>
<text text-anchor="middle" x="388" y="-122.5" font-family="Helvetica,sans-Serif" font-size="10.00"> +deltas</text>
<text text-anchor="middle" x="388" y="-111.5" font-family="Helvetica,sans-Serif" font-size="10.00">+messages</text>
</g>
<!-- Node12&#45;&gt;Node1 -->
<g id="edge14" class="edge"><title>Node12&#45;&gt;Node1</title>
<path fill="none" stroke="#404040" d="M741.597,-226.911C720.284,-183.325 667.693,-80.4732 636,-59 616.028,-45.468 563.15,-36.1859 514.477,-30.2417"/>
<polygon fill="none" stroke="#404040" points="514.462,-30.24 508.036,-33.5121 502.544,-28.8389 508.97,-25.5668 514.462,-30.24"/>
<text text-anchor="middle" x="787.5" y="-172" font-family="Helvetica,sans-Serif" font-size="10.00"> +deltaCallPrices</text>
<text text-anchor="middle" x="787.5" y="-161" font-family="Helvetica,sans-Serif" font-size="10.00">+deltaGridImpliedVolatility</text>
<text text-anchor="middle" x="787.5" y="-150" font-family="Helvetica,sans-Serif" font-size="10.00">+deltaGridProb</text>
<text text-anchor="middle" x="787.5" y="-139" font-family="Helvetica,sans-Serif" font-size="10.00">+deltaGridStrikes</text>
<text text-anchor="middle" x="787.5" y="-128" font-family="Helvetica,sans-Serif" font-size="10.00">+deltaPutPrices</text>
<text text-anchor="middle" x="787.5" y="-117" font-family="Helvetica,sans-Serif" font-size="10.00">+moneynessCallPrices</text>
<text text-anchor="middle" x="787.5" y="-106" font-family="Helvetica,sans-Serif" font-size="10.00">+moneynessGridImpliedVolatility</text>
<text text-anchor="middle" x="787.5" y="-95" font-family="Helvetica,sans-Serif" font-size="10.00">+moneynessGridProb</text>
<text text-anchor="middle" x="787.5" y="-84" font-family="Helvetica,sans-Serif" font-size="10.00">+moneynessGridStrikes</text>
<text text-anchor="middle" x="787.5" y="-73" font-family="Helvetica,sans-Serif" font-size="10.00">+moneynessPutPrices</text>
<text text-anchor="middle" x="787.5" y="-62" font-family="Helvetica,sans-Serif" font-size="10.00">...</text>
</g>
<!-- Node13&#45;&gt;Node1 -->
<g id="edge17" class="edge"><title>Node13&#45;&gt;Node1</title>
<path fill="none" stroke="#404040" d="M418,-226.926C418,-188.031 418,-100.696 418,-53.3948"/>
<polygon fill="none" stroke="#404040" points="418,-53.1886 414,-47.1887 418,-41.1886 422,-47.1886 418,-53.1886"/>
<text text-anchor="middle" x="498.5" y="-139" font-family="Helvetica,sans-Serif" font-size="10.00"> +deltaGridButterflyArbitrage</text>
<text text-anchor="middle" x="498.5" y="-128" font-family="Helvetica,sans-Serif" font-size="10.00">+deltaGridCallSpreadArbitrage</text>
<text text-anchor="middle" x="498.5" y="-117" font-family="Helvetica,sans-Serif" font-size="10.00">+moneynessGridButterflyArbitrage</text>
<text text-anchor="middle" x="498.5" y="-106" font-family="Helvetica,sans-Serif" font-size="10.00">+moneynessGridCalendarArbitrage</text>
<text text-anchor="middle" x="498.5" y="-95" font-family="Helvetica,sans-Serif" font-size="10.00">+moneynessGridCallSpreadArbitrage</text>
</g>
<!-- Node14&#45;&gt;Node13 -->
<g id="edge18" class="edge"><title>Node14&#45;&gt;Node13</title>
<path fill="none" stroke="#404040" d="M385.601,-343.645C388.302,-335.277 391.802,-324.527 395,-315 398.883,-303.433 403.237,-290.77 407.103,-279.627"/>
<polygon fill="none" stroke="#404040" points="407.117,-279.588 405.312,-272.606 411.062,-268.255 412.867,-275.236 407.117,-279.588"/>
<text text-anchor="middle" x="419.5" y="-318" font-family="Helvetica,sans-Serif" font-size="10.00"> +elements</text>
</g>
</g>
</svg>
        <g id="navigator" transform="translate(0 0)" fill="#404254">
                <rect fill="#f2f5e9" fill-opacity="0.5" stroke="#606060" stroke-width=".5" x="0" y="0" width="60" height="60"/>
                <use id="zoomplus" xlink:href="#zoomPlus" x="17" y="9" onmousedown="handleZoom(evt,'in')"/>
                <use id="zoomminus" xlink:href="#zoomMin" x="42" y="9" onmousedown="handleZoom(evt,'out')"/>
                <use id="reset" xlink:href="#resetDef" x="30" y="36" onmousedown="handleReset()"/>
                <g id="arrowUp" xlink:href="#dirArrow" transform="translate(30 24)" onmousedown="handlePan(0,-1)">
                  <use xlink:href="#rim" fill="#404040">
                        <set attributeName="fill" to="#808080" begin="arrowUp.mouseover" end="arrowUp.mouseout"/>
                  </use>
                  <path fill="none" stroke="white" stroke-width="1.5" d="M0,-3.0v7 M-2.5,-0.5L0,-3.0L2.5,-0.5"/>
                </g>
                <g id="arrowRight" xlink:href="#dirArrow" transform="rotate(90) translate(36 -43)" onmousedown="handlePan(1,0)">
                  <use xlink:href="#rim" fill="#404040">
                        <set attributeName="fill" to="#808080" begin="arrowRight.mouseover" end="arrowRight.mouseout"/>
                  </use>
                  <path fill="none" stroke="white" stroke-width="1.5" d="M0,-3.0v7 M-2.5,-0.5L0,-3.0L2.5,-0.5"/>
                </g>
                <g id="arrowDown" xlink:href="#dirArrow" transform="rotate(180) translate(-30 -48)" onmousedown="handlePan(0,1)">
                  <use xlink:href="#rim" fill="#404040">
                        <set attributeName="fill" to="#808080" begin="arrowDown.mouseover" end="arrowDown.mouseout"/>
                  </use>
                  <path fill="none" stroke="white" stroke-width="1.5" d="M0,-3.0v7 M-2.5,-0.5L0,-3.0L2.5,-0.5"/>
                </g>
                <g id="arrowLeft" xlink:href="#dirArrow" transform="rotate(270) translate(-36 17)" onmousedown="handlePan(-1,0)">
                  <use xlink:href="#rim" fill="#404040">
                        <set attributeName="fill" to="#808080" begin="arrowLeft.mouseover" end="arrowLeft.mouseout"/>
                  </use>
                  <path fill="none" stroke="white" stroke-width="1.5" d="M0,-3.0v7 M-2.5,-0.5L0,-3.0L2.5,-0.5"/>
                </g>
        </g>
        <svg viewBox="0 0 15 15" width="100%" height="30px" preserveAspectRatio="xMaxYMin meet">
         <g id="arrow_out" transform="scale(0.3 0.3)">
          <a xlink:href="structore_1_1data_1_1_fx_eq_comm_vol_calibration_info__coll__graph_org.svg" target="_base">
           <rect id="button" ry="5" rx="5" y="6" x="6" height="38" width="38"
                fill="#f2f5e9" fill-opacity="0.5" stroke="#606060" stroke-width="1.0"/>
           <path id="arrow"
             d="M 11.500037,31.436501 C 11.940474,20.09759 22.043105,11.32322 32.158766,21.979434 L 37.068811,17.246167 C 37.068811,17.246167 37.088388,32 37.088388,32 L 22.160133,31.978069 C 22.160133,31.978069 26.997745,27.140456 26.997745,27.140456 C 18.528582,18.264221 13.291696,25.230495 11.500037,31.436501 z"
             style="fill:#404040;"/>
          </a>
         </g>
        </svg>
</svg>
