<?xml version="1.0" encoding="UTF-8" standalone="no"?>
<!DOCTYPE svg PUBLIC "-//W3C//DTD SVG 1.1//EN"
 "http://www.w3.org/Graphics/SVG/1.1/DTD/svg11.dtd">
<!-- Generated by graphviz version 2.38.0 (20140413.2041)
 -->
<!-- Title: EventVec Pages: 1 -->
<svg width="106pt" height="115pt"
 viewBox="0.00 0.00 105.50 115.00" xmlns="http://www.w3.org/2000/svg" xmlns:xlink="http://www.w3.org/1999/xlink">
<g id="graph0" class="graph" transform="scale(1 1) rotate(0) translate(4 111)">
<title>EventVec</title>
<!-- Node1 -->
<g id="node1" class="node"><title>Node1</title>
<g id="a_node1"><a xlink:title=" ">
<polygon fill="#999999" stroke="#666666" points="79,-30 18,-30 18,-0 79,-0 79,-30"/>
<text text-anchor="middle" x="48.5" y="-18" font-family="Helvetica,sans-Serif" font-size="10.00">{EventVec</text>
<text text-anchor="middle" x="48.5" y="-7" font-family="Helvetica,sans-Serif" font-size="10.00">||}</text>
</a>
</g>
</g>
<!-- Node2 -->
<g id="node2" class="node"><title>Node2</title>
<g id="a_node2"><a xlink:title=" ">
<polygon fill="white" stroke="#666666" points="39,-107 0,-107 0,-77 39,-77 39,-107"/>
<text text-anchor="middle" x="19.5" y="-95" font-family="Helvetica,sans-Serif" font-size="10.00">{Size</text>
<text text-anchor="middle" x="19.5" y="-84" font-family="Helvetica,sans-Serif" font-size="10.00">||}</text>
</a>
</g>
</g>
<!-- Node2&#45;&gt;Node1 -->
<g id="edge1" class="edge"><title>Node2&#45;&gt;Node1</title>
<path fill="none" stroke="#404040" d="M20.7296,-76.6598C21.8115,-68.104 23.817,-57.1586 27.5,-48 28.5072,-45.4954 29.7236,-42.9799 31.0574,-40.5199"/>
<polygon fill="none" stroke="#404040" points="31.0651,-40.5074 30.8152,-33.3006 37.3716,-30.2982 37.6214,-37.505 31.0651,-40.5074"/>
<text text-anchor="middle" x="41.5" y="-51" font-family="Helvetica,sans-Serif" font-size="10.00"> +size</text>
</g>
<!-- Node3 -->
<g id="node3" class="node"><title>Node3</title>
<g id="a_node3"><a xlink:title=" ">
<polygon fill="white" stroke="#666666" points="97.5,-107 57.5,-107 57.5,-77 97.5,-77 97.5,-107"/>
<text text-anchor="middle" x="77.5" y="-95" font-family="Helvetica,sans-Serif" font-size="10.00">{Date</text>
<text text-anchor="middle" x="77.5" y="-84" font-family="Helvetica,sans-Serif" font-size="10.00">||}</text>
</a>
</g>
</g>
<!-- Node3&#45;&gt;Node1 -->
<g id="edge2" class="edge"><title>Node3&#45;&gt;Node1</title>
<path fill="none" stroke="#404040" d="M72.0453,-76.8931C68.1973,-66.9412 62.9341,-53.3296 58.3597,-41.4993"/>
<polygon fill="none" stroke="#404040" points="58.258,-41.2361 52.3633,-37.0825 53.9302,-30.0437 59.8249,-34.1973 58.258,-41.2361"/>
<text text-anchor="middle" x="81" y="-51" font-family="Helvetica,sans-Serif" font-size="10.00"> +value</text>
</g>
</g>
</svg>
