<?xml version="1.0" encoding="UTF-8" standalone="no"?>
<!DOCTYPE svg PUBLIC "-//W3C//DTD SVG 1.1//EN"
 "http://www.w3.org/Graphics/SVG/1.1/DTD/svg11.dtd">
<!-- Generated by graphviz version 2.38.0 (20140413.2041)
 -->
<!-- Title: fromXML Pages: 1 -->
<svg width="230pt" height="86pt"
 viewBox="0.00 0.00 230.00 86.00" xmlns="http://www.w3.org/2000/svg" xmlns:xlink="http://www.w3.org/1999/xlink">
<g id="graph0" class="graph" transform="scale(1 1) rotate(0) translate(4 82)">
<title>fromXML</title>
<!-- Node1 -->
<g id="node1" class="node"><title>Node1</title>
<g id="a_node1"><a xlink:title=" ">
<polygon fill="#999999" stroke="#666666" points="222,-48.5 168,-48.5 168,-29.5 222,-29.5 222,-48.5"/>
<text text-anchor="middle" x="195" y="-36.5" font-family="Helvetica,sans-Serif" font-size="10.00">fromXML</text>
</a>
</g>
</g>
<!-- Node2 -->
<g id="node2" class="node"><title>Node2</title>
<g id="a_node2"><a xlink:href="classore_1_1data_1_1_convertible_bond_reference_datum.html#a7741ae0fc924943de5bfe02928262eb7" target="_top" xlink:title=" ">
<polygon fill="white" stroke="#666666" points="132,-78 0,-78 0,-48 132,-48 132,-78"/>
<text text-anchor="start" x="8" y="-66" font-family="Helvetica,sans-Serif" font-size="10.00">ore::data::ConvertibleBond</text>
<text text-anchor="middle" x="66" y="-55" font-family="Helvetica,sans-Serif" font-size="10.00">ReferenceDatum::fromXML</text>
</a>
</g>
</g>
<!-- Node1&#45;&gt;Node2 -->
<g id="edge1" class="edge"><title>Node1&#45;&gt;Node2</title>
<path fill="none" stroke="#63b8ff" d="M158.11,-45.7825C149.945,-47.3254 141.024,-49.0112 132.062,-50.7049"/>
<polygon fill="#63b8ff" stroke="#63b8ff" points="158.817,-49.2108 167.993,-43.9147 157.517,-42.3325 158.817,-49.2108"/>
</g>
<!-- Node3 -->
<g id="node3" class="node"><title>Node3</title>
<g id="a_node3"><a xlink:href="classore_1_1data_1_1_bond_reference_datum.html#a7741ae0fc924943de5bfe02928262eb7" target="_top" xlink:title=" ">
<polygon fill="white" stroke="#666666" points="129.5,-30 2.5,-30 2.5,-0 129.5,-0 129.5,-30"/>
<text text-anchor="start" x="10.5" y="-18" font-family="Helvetica,sans-Serif" font-size="10.00">ore::data::BondReference</text>
<text text-anchor="middle" x="66" y="-7" font-family="Helvetica,sans-Serif" font-size="10.00">Datum::fromXML</text>
</a>
</g>
</g>
<!-- Node1&#45;&gt;Node3 -->
<g id="edge2" class="edge"><title>Node1&#45;&gt;Node3</title>
<path fill="none" stroke="#63b8ff" d="M158.046,-32.2055C149.177,-30.5296 139.42,-28.6856 129.688,-26.8465"/>
<polygon fill="#63b8ff" stroke="#63b8ff" points="157.517,-35.6675 167.993,-34.0853 158.817,-28.7892 157.517,-35.6675"/>
</g>
</g>
</svg>
