<?xml version="1.0" encoding="UTF-8" standalone="no"?>
<!DOCTYPE svg PUBLIC "-//W3C//DTD SVG 1.1//EN"
 "http://www.w3.org/Graphics/SVG/1.1/DTD/svg11.dtd">
<!-- Generated by graphviz version 2.38.0 (20140413.2041)
 -->
<!-- Title: YieldCurveCalibrationInfo Pages: 1 -->
<!--zoomable 302 -->
<svg id="main" version="1.1" xmlns="http://www.w3.org/2000/svg" xmlns:xlink="http://www.w3.org/1999/xlink" xml:space="preserve" onload="init(evt)">
<style type="text/css"><![CDATA[
.edge:hover path { stroke: red; }
.edge:hover polygon { stroke: red; fill: red; }
]]></style>
<script type="text/javascript"><![CDATA[
var edges = document.getElementsByTagName('g');
if (edges && edges.length) {
  for (var i=0;i<edges.length;i++) {
    if (edges[i].id.substr(0,4)=='edge') {
      edges[i].setAttribute('class','edge');
    }
  }
}
]]></script>
        <defs>
                <circle id="rim" cx="0" cy="0" r="7"/>
                <circle id="rim2" cx="0" cy="0" r="3.5"/>
                <g id="zoomPlus">
                        <use xlink:href="#rim" fill="#404040">
                                <set attributeName="fill" to="#808080" begin="zoomplus.mouseover" end="zoomplus.mouseout"/>
                        </use>
                        <path d="M-4,0h8M0,-4v8" fill="none" stroke="white" stroke-width="1.5" pointer-events="none"/>
                </g>
                <g id="zoomMin">
                        <use xlink:href="#rim" fill="#404040">
                                <set attributeName="fill" to="#808080" begin="zoomminus.mouseover" end="zoomminus.mouseout"/>
                        </use>
                        <path d="M-4,0h8" fill="none" stroke="white" stroke-width="1.5" pointer-events="none"/>
                </g>
                <g id="dirArrow">
                        <path fill="none" stroke="white" stroke-width="1.5" d="M0,-3.0v7 M-2.5,-0.5L0,-3.0L2.5,-0.5"/>
                </g>
               <g id="resetDef">
                       <use xlink:href="#rim2" fill="#404040">
                               <set attributeName="fill" to="#808080" begin="reset.mouseover" end="reset.mouseout"/>
                       </use>
               </g>
        </defs>

<script type="text/javascript">
var viewWidth = 640;
var viewHeight = 302;
var sectionId = 'dynsection-1';
</script>
<script xlink:href="svgpan.js"/>
<svg id="graph" class="graph">
<g id="viewport">
<title>YieldCurveCalibrationInfo</title>
<!-- Node1 -->
<g id="node1" class="node"><title>Node1</title>
<g id="a_node1"><a xlink:title=" ">
<polygon fill="#999999" stroke="#666666" points="340.5,-41 191.5,-41 191.5,-0 340.5,-0 340.5,-41"/>
<text text-anchor="middle" x="266" y="-29" font-family="Helvetica,sans-Serif" font-size="10.00">{YieldCurveCalibrationInfo</text>
<text text-anchor="start" x="199.5" y="-18" font-family="Helvetica,sans-Serif" font-size="10.00">||+ ~YieldCurveCalibrationInfo()</text>
<text text-anchor="middle" x="266" y="-7" font-family="Helvetica,sans-Serif" font-size="10.00">}</text>
</a>
</g>
</g>
<!-- Node2 -->
<g id="node2" class="node"><title>Node2</title>
<g id="a_node2"><a xlink:title=" ">
<polygon fill="white" stroke="#666666" points="259,-140 123,-140 123,-110 259,-110 259,-140"/>
<text text-anchor="middle" x="191" y="-128" font-family="Helvetica,sans-Serif" font-size="10.00">{vector&lt; QuantLib::Period &gt;</text>
<text text-anchor="middle" x="191" y="-117" font-family="Helvetica,sans-Serif" font-size="10.00">||}</text>
</a>
</g>
</g>
<!-- Node2&#45;&gt;Node1 -->
<g id="edge1" class="edge"><title>Node2&#45;&gt;Node1</title>
<path fill="none" stroke="#404040" d="M199.585,-109.969C207.944,-96.5724 221.221,-75.9697 234,-59 236.075,-56.2439 238.291,-53.4259 240.55,-50.6338"/>
<polygon fill="none" stroke="#404040" points="240.586,-50.5905 241.352,-43.4201 248.265,-41.3688 247.5,-48.5391 240.586,-50.5905"/>
<text text-anchor="middle" x="269.5" y="-73" font-family="Helvetica,sans-Serif" font-size="10.00"> +defaultPeriods</text>
</g>
<!-- Node3 -->
<g id="node3" class="node"><title>Node3</title>
<g id="a_node3"><a xlink:title=" ">
<polygon fill="white" stroke="#666666" points="175.5,-217 128.5,-217 128.5,-187 175.5,-187 175.5,-217"/>
<text text-anchor="middle" x="152" y="-205" font-family="Helvetica,sans-Serif" font-size="10.00">{Period</text>
<text text-anchor="middle" x="152" y="-194" font-family="Helvetica,sans-Serif" font-size="10.00">||}</text>
</a>
</g>
</g>
<!-- Node3&#45;&gt;Node2 -->
<g id="edge2" class="edge"><title>Node3&#45;&gt;Node2</title>
<path fill="none" stroke="#404040" d="M149.477,-186.763C148.606,-178.043 148.739,-166.888 153,-158 154.626,-154.61 156.799,-151.446 159.288,-148.53"/>
<polygon fill="none" stroke="#404040" points="159.394,-148.428 160.927,-141.381 168.021,-140.087 166.488,-147.133 159.394,-148.428"/>
<text text-anchor="middle" x="177.5" y="-161" font-family="Helvetica,sans-Serif" font-size="10.00"> +elements</text>
</g>
<!-- Node4 -->
<g id="node4" class="node"><title>Node4</title>
<g id="a_node4"><a xlink:title=" ">
<polygon fill="white" stroke="#666666" points="375,-217 307,-217 307,-187 375,-187 375,-217"/>
<text text-anchor="middle" x="341" y="-205" font-family="Helvetica,sans-Serif" font-size="10.00">{vector&lt; T &gt;</text>
<text text-anchor="middle" x="341" y="-194" font-family="Helvetica,sans-Serif" font-size="10.00">||}</text>
</a>
</g>
</g>
<!-- Node4&#45;&gt;Node2 -->
<g id="edge3" class="edge"><title>Node4&#45;&gt;Node2</title>
<path fill="none" stroke="orange" d="M296.69,-190.364C279.339,-185.231 259.645,-178.164 243,-169 228.838,-161.203 214.834,-149.317 204.933,-140.016"/>
<polygon fill="orange" stroke="orange" points="296.019,-193.811 306.594,-193.164 297.923,-187.075 296.019,-193.811"/>
<text text-anchor="middle" x="290" y="-161" font-family="Helvetica,sans-Serif" font-size="10.00"> &lt; QuantLib::Period &gt;</text>
</g>
<!-- Node8 -->
<g id="node8" class="node"><title>Node8</title>
<g id="a_node8"><a xlink:title=" ">
<polygon fill="white" stroke="#666666" points="405,-140 277,-140 277,-110 405,-110 405,-140"/>
<text text-anchor="middle" x="341" y="-128" font-family="Helvetica,sans-Serif" font-size="10.00">{vector&lt; QuantLib::Date &gt;</text>
<text text-anchor="middle" x="341" y="-117" font-family="Helvetica,sans-Serif" font-size="10.00">||}</text>
</a>
</g>
</g>
<!-- Node4&#45;&gt;Node8 -->
<g id="edge9" class="edge"><title>Node4&#45;&gt;Node8</title>
<path fill="none" stroke="orange" d="M341,-176.541C341,-164.451 341,-150.294 341,-140.044"/>
<polygon fill="orange" stroke="orange" points="337.5,-176.893 341,-186.893 344.5,-176.893 337.5,-176.893"/>
<text text-anchor="middle" x="384.5" y="-161" font-family="Helvetica,sans-Serif" font-size="10.00"> &lt; QuantLib::Date &gt;</text>
</g>
<!-- Node10 -->
<g id="node10" class="node"><title>Node10</title>
<g id="a_node10"><a xlink:title=" ">
<polygon fill="white" stroke="#666666" points="515,-140 423,-140 423,-110 515,-110 515,-140"/>
<text text-anchor="middle" x="469" y="-128" font-family="Helvetica,sans-Serif" font-size="10.00">{vector&lt; double &gt;</text>
<text text-anchor="middle" x="469" y="-117" font-family="Helvetica,sans-Serif" font-size="10.00">||}</text>
</a>
</g>
</g>
<!-- Node4&#45;&gt;Node10 -->
<g id="edge12" class="edge"><title>Node4&#45;&gt;Node10</title>
<path fill="none" stroke="orange" d="M385.234,-189.457C399.874,-184.482 415.787,-177.754 429,-169 440.729,-161.229 451.437,-149.34 458.815,-140.032"/>
<polygon fill="orange" stroke="orange" points="383.805,-186.239 375.351,-192.625 385.942,-192.905 383.805,-186.239"/>
<text text-anchor="middle" x="466" y="-161" font-family="Helvetica,sans-Serif" font-size="10.00"> &lt; double &gt;</text>
</g>
<!-- Node5 -->
<g id="node5" class="node"><title>Node5</title>
<g id="a_node5"><a xlink:title=" ">
<polygon fill="white" stroke="#666666" points="355.5,-294 326.5,-294 326.5,-264 355.5,-264 355.5,-294"/>
<text text-anchor="middle" x="341" y="-282" font-family="Helvetica,sans-Serif" font-size="10.00">{T</text>
<text text-anchor="middle" x="341" y="-271" font-family="Helvetica,sans-Serif" font-size="10.00">||}</text>
</a>
</g>
</g>
<!-- Node5&#45;&gt;Node4 -->
<g id="edge4" class="edge"><title>Node5&#45;&gt;Node4</title>
<path fill="none" stroke="#404040" d="M341,-263.893C341,-254.151 341,-240.901 341,-229.249"/>
<polygon fill="none" stroke="#404040" points="341,-229.044 337,-223.044 341,-217.044 345,-223.044 341,-229.044"/>
<text text-anchor="middle" x="365.5" y="-238" font-family="Helvetica,sans-Serif" font-size="10.00"> +elements</text>
</g>
<!-- Node6 -->
<g id="node6" class="node"><title>Node6</title>
<g id="a_node6"><a xlink:title=" ">
<polygon fill="white" stroke="#666666" points="91,-140 47,-140 47,-110 91,-110 91,-140"/>
<text text-anchor="middle" x="69" y="-128" font-family="Helvetica,sans-Serif" font-size="10.00">{string</text>
<text text-anchor="middle" x="69" y="-117" font-family="Helvetica,sans-Serif" font-size="10.00">||}</text>
</a>
</g>
</g>
<!-- Node6&#45;&gt;Node1 -->
<g id="edge5" class="edge"><title>Node6&#45;&gt;Node1</title>
<path fill="none" stroke="#404040" d="M83.9954,-109.826C100.001,-95.3439 126.636,-73.0453 153,-59 162.579,-53.8969 172.982,-49.3096 183.469,-45.2412"/>
<polygon fill="none" stroke="#404040" points="183.592,-45.1958 187.83,-39.3618 194.846,-41.0303 190.607,-46.8643 183.592,-45.1958"/>
<text text-anchor="middle" x="181" y="-78.5" font-family="Helvetica,sans-Serif" font-size="10.00"> +currency</text>
<text text-anchor="middle" x="181" y="-67.5" font-family="Helvetica,sans-Serif" font-size="10.00">+dayCounter</text>
</g>
<!-- Node7 -->
<g id="node7" class="node"><title>Node7</title>
<g id="a_node7"><a xlink:title=" ">
<polygon fill="white" stroke="#666666" points="110,-217 0,-217 0,-187 110,-187 110,-217"/>
<text text-anchor="middle" x="55" y="-205" font-family="Helvetica,sans-Serif" font-size="10.00">{basic_string&lt; Char &gt;</text>
<text text-anchor="middle" x="55" y="-194" font-family="Helvetica,sans-Serif" font-size="10.00">||}</text>
</a>
</g>
</g>
<!-- Node7&#45;&gt;Node6 -->
<g id="edge6" class="edge"><title>Node7&#45;&gt;Node6</title>
<path fill="none" stroke="#63b8ff" d="M59.4966,-176.911C61.7685,-164.74 64.4456,-150.398 66.3785,-140.044"/>
<polygon fill="none" stroke="#63b8ff" points="56.0278,-176.421 57.6333,-186.893 62.9089,-177.705 56.0278,-176.421"/>
</g>
<!-- Node8&#45;&gt;Node1 -->
<g id="edge7" class="edge"><title>Node8&#45;&gt;Node1</title>
<path fill="none" stroke="#404040" d="M334.674,-109.821C328.224,-96.1314 317.422,-75.1588 305,-59 302.596,-55.8723 299.93,-52.7615 297.155,-49.7463"/>
<polygon fill="none" stroke="#404040" points="297.046,-49.6357 289.99,-48.1507 288.646,-41.0658 295.703,-42.5508 297.046,-49.6357"/>
<text text-anchor="middle" x="353.5" y="-73" font-family="Helvetica,sans-Serif" font-size="10.00"> +pillarDates</text>
</g>
<!-- Node9 -->
<g id="node9" class="node"><title>Node9</title>
<g id="a_node9"><a xlink:title=" ">
<polygon fill="white" stroke="#666666" points="544,-217 504,-217 504,-187 544,-187 544,-217"/>
<text text-anchor="middle" x="524" y="-205" font-family="Helvetica,sans-Serif" font-size="10.00">{Date</text>
<text text-anchor="middle" x="524" y="-194" font-family="Helvetica,sans-Serif" font-size="10.00">||}</text>
</a>
</g>
</g>
<!-- Node9&#45;&gt;Node8 -->
<g id="edge8" class="edge"><title>Node9&#45;&gt;Node8</title>
<path fill="none" stroke="#404040" d="M517.98,-186.842C513.159,-177.227 505.467,-165.026 495,-158 493.197,-156.79 455.148,-148.878 417.326,-141.226"/>
<polygon fill="none" stroke="#404040" points="416.863,-141.132 410.191,-143.867 405.1,-138.759 411.773,-136.025 416.863,-141.132"/>
<text text-anchor="middle" x="530.5" y="-161" font-family="Helvetica,sans-Serif" font-size="10.00"> +elements</text>
</g>
<!-- Node10&#45;&gt;Node1 -->
<g id="edge10" class="edge"><title>Node10&#45;&gt;Node1</title>
<path fill="none" stroke="#404040" d="M454.047,-109.745C438.077,-95.1969 411.47,-72.8452 385,-59 374.635,-53.5786 363.348,-48.7758 351.989,-44.5719"/>
<polygon fill="none" stroke="#404040" points="351.954,-44.5595 344.965,-46.3353 340.638,-40.5668 347.627,-38.7911 351.954,-44.5595"/>
<text text-anchor="middle" x="472.5" y="-84" font-family="Helvetica,sans-Serif" font-size="10.00"> +discountFactors</text>
<text text-anchor="middle" x="472.5" y="-73" font-family="Helvetica,sans-Serif" font-size="10.00">+times</text>
<text text-anchor="middle" x="472.5" y="-62" font-family="Helvetica,sans-Serif" font-size="10.00">+zeroRates</text>
</g>
<!-- Node11 -->
<g id="node11" class="node"><title>Node11</title>
<g id="a_node11"><a xlink:title=" ">
<polygon fill="white" stroke="#666666" points="620,-217 572,-217 572,-187 620,-187 620,-217"/>
<text text-anchor="middle" x="596" y="-205" font-family="Helvetica,sans-Serif" font-size="10.00">{double</text>
<text text-anchor="middle" x="596" y="-194" font-family="Helvetica,sans-Serif" font-size="10.00">||}</text>
</a>
</g>
</g>
<!-- Node11&#45;&gt;Node10 -->
<g id="edge11" class="edge"><title>Node11&#45;&gt;Node10</title>
<path fill="none" stroke="#404040" d="M591.943,-186.748C588.574,-177.342 582.874,-165.427 574,-158 560.711,-146.878 543.616,-139.62 527.094,-134.884"/>
<polygon fill="none" stroke="#404040" points="526.857,-134.824 520.055,-137.219 515.228,-131.862 522.03,-129.467 526.857,-134.824"/>
<text text-anchor="middle" x="607.5" y="-161" font-family="Helvetica,sans-Serif" font-size="10.00"> +elements</text>
</g>
</g>
</svg>
        <g id="navigator" transform="translate(0 0)" fill="#404254">
                <rect fill="#f2f5e9" fill-opacity="0.5" stroke="#606060" stroke-width=".5" x="0" y="0" width="60" height="60"/>
                <use id="zoomplus" xlink:href="#zoomPlus" x="17" y="9" onmousedown="handleZoom(evt,'in')"/>
                <use id="zoomminus" xlink:href="#zoomMin" x="42" y="9" onmousedown="handleZoom(evt,'out')"/>
                <use id="reset" xlink:href="#resetDef" x="30" y="36" onmousedown="handleReset()"/>
                <g id="arrowUp" xlink:href="#dirArrow" transform="translate(30 24)" onmousedown="handlePan(0,-1)">
                  <use xlink:href="#rim" fill="#404040">
                        <set attributeName="fill" to="#808080" begin="arrowUp.mouseover" end="arrowUp.mouseout"/>
                  </use>
                  <path fill="none" stroke="white" stroke-width="1.5" d="M0,-3.0v7 M-2.5,-0.5L0,-3.0L2.5,-0.5"/>
                </g>
                <g id="arrowRight" xlink:href="#dirArrow" transform="rotate(90) translate(36 -43)" onmousedown="handlePan(1,0)">
                  <use xlink:href="#rim" fill="#404040">
                        <set attributeName="fill" to="#808080" begin="arrowRight.mouseover" end="arrowRight.mouseout"/>
                  </use>
                  <path fill="none" stroke="white" stroke-width="1.5" d="M0,-3.0v7 M-2.5,-0.5L0,-3.0L2.5,-0.5"/>
                </g>
                <g id="arrowDown" xlink:href="#dirArrow" transform="rotate(180) translate(-30 -48)" onmousedown="handlePan(0,1)">
                  <use xlink:href="#rim" fill="#404040">
                        <set attributeName="fill" to="#808080" begin="arrowDown.mouseover" end="arrowDown.mouseout"/>
                  </use>
                  <path fill="none" stroke="white" stroke-width="1.5" d="M0,-3.0v7 M-2.5,-0.5L0,-3.0L2.5,-0.5"/>
                </g>
                <g id="arrowLeft" xlink:href="#dirArrow" transform="rotate(270) translate(-36 17)" onmousedown="handlePan(-1,0)">
                  <use xlink:href="#rim" fill="#404040">
                        <set attributeName="fill" to="#808080" begin="arrowLeft.mouseover" end="arrowLeft.mouseout"/>
                  </use>
                  <path fill="none" stroke="white" stroke-width="1.5" d="M0,-3.0v7 M-2.5,-0.5L0,-3.0L2.5,-0.5"/>
                </g>
        </g>
        <svg viewBox="0 0 15 15" width="100%" height="30px" preserveAspectRatio="xMaxYMin meet">
         <g id="arrow_out" transform="scale(0.3 0.3)">
          <a xlink:href="structore_1_1data_1_1_yield_curve_calibration_info__coll__graph_org.svg" target="_base">
           <rect id="button" ry="5" rx="5" y="6" x="6" height="38" width="38"
                fill="#f2f5e9" fill-opacity="0.5" stroke="#606060" stroke-width="1.0"/>
           <path id="arrow"
             d="M 11.500037,31.436501 C 11.940474,20.09759 22.043105,11.32322 32.158766,21.979434 L 37.068811,17.246167 C 37.068811,17.246167 37.088388,32 37.088388,32 L 22.160133,31.978069 C 22.160133,31.978069 26.997745,27.140456 26.997745,27.140456 C 18.528582,18.264221 13.291696,25.230495 11.500037,31.436501 z"
             style="fill:#404040;"/>
          </a>
         </g>
        </svg>
</svg>
